<?xml version="1.0" encoding="utf-8" standalone="no"?>
<!DOCTYPE svg PUBLIC "-//W3C//DTD SVG 1.1//EN"
  "http://www.w3.org/Graphics/SVG/1.1/DTD/svg11.dtd">
<!-- Created with matplotlib (http://matplotlib.org/) -->
<svg height="465pt" version="1.1" viewBox="0 0 698 465" width="698pt" xmlns="http://www.w3.org/2000/svg" xmlns:xlink="http://www.w3.org/1999/xlink">
 <defs>
  <style type="text/css">
*{stroke-linecap:butt;stroke-linejoin:round;stroke-miterlimit:100000;}
  </style>
 </defs>
 <g id="figure_1">
  <g id="patch_1">
   <path d="M 0 465.868 
L 698.18 465.868 
L 698.18 0 
L 0 0 
z
" style="fill:#ffffff;"/>
  </g>
  <g id="axes_1">
   <g id="patch_2">
    <path d="M 21.38 368.74175 
L 690.98 368.74175 
L 690.98 23.14175 
L 21.38 23.14175 
z
" style="fill:#ffffff;"/>
   </g>
   <g id="PolyCollection_1">
    <defs>
     <path d="M 108.846699 -101.44625 
L 82.713301 -101.44625 
L 81.033585 -103.715341 
L 79.595761 -105.984432 
L 78.468022 -108.253523 
L 77.689005 -110.522614 
L 77.266373 -112.791705 
L 77.18 -115.060795 
L 77.388448 -117.329886 
L 77.837035 -119.598977 
L 78.465862 -121.868068 
L 79.216588 -124.137159 
L 80.037279 -126.40625 
L 80.885193 -128.675341 
L 81.72779 -130.944432 
L 82.542427 -133.213523 
L 83.315287 -135.482614 
L 84.039916 -137.751705 
L 84.715605 -140.020795 
L 85.345717 -142.289886 
L 85.936001 -144.558977 
L 86.492953 -146.828068 
L 87.022343 -149.097159 
L 87.528083 -151.36625 
L 88.01161 -153.635341 
L 88.471934 -155.904432 
L 88.906369 -158.173523 
L 89.311811 -160.442614 
L 89.686237 -162.711705 
L 90.029977 -164.980795 
L 90.34632 -167.249886 
L 90.6412 -169.518977 
L 90.921991 -171.788068 
L 91.195778 -174.057159 
L 91.467629 -176.32625 
L 91.739439 -178.595341 
L 92.009656 -180.864432 
L 92.273918 -183.133523 
L 92.526336 -185.402614 
L 92.760956 -187.671705 
L 92.973003 -189.940795 
L 93.159606 -192.209886 
L 93.319977 -194.478977 
L 93.455172 -196.748068 
L 93.567641 -199.017159 
L 93.660763 -201.28625 
L 93.738463 -203.555341 
L 93.804914 -205.824432 
L 93.864281 -208.093523 
L 93.920448 -210.362614 
L 93.976758 -212.631705 
L 94.035768 -214.900795 
L 94.099091 -217.169886 
L 94.167354 -219.438977 
L 94.240257 -221.708068 
L 94.316731 -223.977159 
L 94.395156 -226.24625 
L 94.473633 -228.515341 
L 94.550317 -230.784432 
L 94.623757 -233.053523 
L 94.693215 -235.322614 
L 94.758827 -237.591705 
L 94.821536 -239.860795 
L 94.882739 -242.129886 
L 94.943727 -244.398977 
L 95.005076 -246.668068 
L 95.066215 -248.937159 
L 95.125341 -251.20625 
L 95.179767 -253.475341 
L 95.226616 -255.744432 
L 95.263648 -258.013523 
L 95.289988 -260.282614 
L 95.306505 -262.551705 
L 95.315738 -264.820795 
L 95.321383 -267.089886 
L 95.32747 -269.358977 
L 95.337475 -271.628068 
L 95.353564 -273.897159 
L 95.376189 -276.16625 
L 95.404088 -278.435341 
L 95.434694 -280.704432 
L 95.4648 -282.973523 
L 95.491313 -285.242614 
L 95.511899 -287.511705 
L 95.525386 -289.780795 
L 95.531857 -292.049886 
L 95.532458 -294.318977 
L 95.529007 -296.588068 
L 95.523507 -298.857159 
L 95.517707 -301.12625 
L 95.512774 -303.395341 
L 95.509174 -305.664432 
L 95.506748 -307.933523 
L 95.504983 -310.202614 
L 95.503382 -312.471705 
L 95.501829 -314.740795 
L 95.500826 -317.009886 
L 95.501513 -319.278977 
L 95.50544 -321.548068 
L 95.514154 -323.817159 
L 95.528733 -326.08625 
L 96.031267 -326.08625 
L 96.031267 -326.08625 
L 96.045846 -323.817159 
L 96.05456 -321.548068 
L 96.058487 -319.278977 
L 96.059174 -317.009886 
L 96.058171 -314.740795 
L 96.056618 -312.471705 
L 96.055017 -310.202614 
L 96.053252 -307.933523 
L 96.050826 -305.664432 
L 96.047226 -303.395341 
L 96.042293 -301.12625 
L 96.036493 -298.857159 
L 96.030993 -296.588068 
L 96.027542 -294.318977 
L 96.028143 -292.049886 
L 96.034614 -289.780795 
L 96.048101 -287.511705 
L 96.068687 -285.242614 
L 96.0952 -282.973523 
L 96.125306 -280.704432 
L 96.155912 -278.435341 
L 96.183811 -276.16625 
L 96.206436 -273.897159 
L 96.222525 -271.628068 
L 96.23253 -269.358977 
L 96.238617 -267.089886 
L 96.244262 -264.820795 
L 96.253495 -262.551705 
L 96.270012 -260.282614 
L 96.296352 -258.013523 
L 96.333384 -255.744432 
L 96.380233 -253.475341 
L 96.434659 -251.20625 
L 96.493785 -248.937159 
L 96.554924 -246.668068 
L 96.616273 -244.398977 
L 96.677261 -242.129886 
L 96.738464 -239.860795 
L 96.801173 -237.591705 
L 96.866785 -235.322614 
L 96.936243 -233.053523 
L 97.009683 -230.784432 
L 97.086367 -228.515341 
L 97.164844 -226.24625 
L 97.243269 -223.977159 
L 97.319743 -221.708068 
L 97.392646 -219.438977 
L 97.460909 -217.169886 
L 97.524232 -214.900795 
L 97.583242 -212.631705 
L 97.639552 -210.362614 
L 97.695719 -208.093523 
L 97.755086 -205.824432 
L 97.821537 -203.555341 
L 97.899237 -201.28625 
L 97.992359 -199.017159 
L 98.104828 -196.748068 
L 98.240023 -194.478977 
L 98.400394 -192.209886 
L 98.586997 -189.940795 
L 98.799044 -187.671705 
L 99.033664 -185.402614 
L 99.286082 -183.133523 
L 99.550344 -180.864432 
L 99.820561 -178.595341 
L 100.092371 -176.32625 
L 100.364222 -174.057159 
L 100.638009 -171.788068 
L 100.9188 -169.518977 
L 101.21368 -167.249886 
L 101.530023 -164.980795 
L 101.873763 -162.711705 
L 102.248189 -160.442614 
L 102.653631 -158.173523 
L 103.088066 -155.904432 
L 103.54839 -153.635341 
L 104.031917 -151.36625 
L 104.537657 -149.097159 
L 105.067047 -146.828068 
L 105.623999 -144.558977 
L 106.214283 -142.289886 
L 106.844395 -140.020795 
L 107.520084 -137.751705 
L 108.244713 -135.482614 
L 109.017573 -133.213523 
L 109.83221 -130.944432 
L 110.674807 -128.675341 
L 111.522721 -126.40625 
L 112.343412 -124.137159 
L 113.094138 -121.868068 
L 113.722965 -119.598977 
L 114.171552 -117.329886 
L 114.38 -115.060795 
L 114.293627 -112.791705 
L 113.870995 -110.522614 
L 113.091978 -108.253523 
L 111.964239 -105.984432 
L 110.526415 -103.715341 
L 108.846699 -101.44625 
z
" id="m12ae8127f3" style="stroke:#000000;stroke-opacity:0.3;"/>
    </defs>
    <g clip-path="url(#p572ea39000)">
     <use style="fill:#bfbf00;fill-opacity:0.3;stroke:#000000;stroke-opacity:0.3;" x="0.0" xlink:href="#m12ae8127f3" y="465.868"/>
    </g>
   </g>
   <g id="PolyCollection_2">
    <defs>
     <path d="M 183.812079 -101.44625 
L 156.547921 -101.44625 
L 154.392161 -104.588068 
L 152.784325 -107.729886 
L 151.845261 -110.871705 
L 151.58 -114.013523 
L 151.891351 -117.155341 
L 152.617765 -120.297159 
L 153.580133 -123.438977 
L 154.622367 -126.580795 
L 155.635773 -129.722614 
L 156.564561 -132.864432 
L 157.396342 -136.00625 
L 158.145143 -139.148068 
L 158.834444 -142.289886 
L 159.485006 -145.431705 
L 160.108865 -148.573523 
L 160.708648 -151.715341 
L 161.28068 -154.857159 
L 161.820197 -157.998977 
L 162.326712 -161.140795 
L 162.807194 -164.282614 
L 163.275213 -167.424432 
L 163.745893 -170.56625 
L 164.228825 -173.708068 
L 164.722566 -176.849886 
L 165.213852 -179.991705 
L 165.682251 -183.133523 
L 166.108038 -186.275341 
L 166.479382 -189.417159 
L 166.7955 -192.558977 
L 167.064836 -195.700795 
L 167.299974 -198.842614 
L 167.512297 -201.984432 
L 167.708905 -205.12625 
L 167.892555 -208.268068 
L 168.063698 -211.409886 
L 168.222897 -214.551705 
L 168.372108 -217.693523 
L 168.514339 -220.835341 
L 168.652171 -223.977159 
L 168.786279 -227.118977 
L 168.914936 -230.260795 
L 169.034774 -233.402614 
L 169.142264 -236.544432 
L 169.234983 -239.68625 
L 169.312058 -242.828068 
L 169.373809 -245.969886 
L 169.421184 -249.111705 
L 169.455609 -252.253523 
L 169.479403 -255.395341 
L 169.496335 -258.537159 
L 169.511665 -261.678977 
L 169.531293 -264.820795 
L 169.560253 -267.962614 
L 169.601212 -271.104432 
L 169.653686 -274.24625 
L 169.714244 -277.388068 
L 169.777559 -280.529886 
L 169.837825 -283.671705 
L 169.890116 -286.813523 
L 169.931354 -289.955341 
L 169.960721 -293.097159 
L 169.979461 -296.238977 
L 169.990165 -299.380795 
L 169.995856 -302.522614 
L 169.999232 -305.664432 
L 170.002365 -308.80625 
L 170.00681 -311.948068 
L 170.013817 -315.089886 
L 170.024285 -318.231705 
L 170.038414 -321.373523 
L 170.055292 -324.515341 
L 170.072828 -327.657159 
L 170.08825 -330.798977 
L 170.098975 -333.940795 
L 170.103473 -337.082614 
L 170.101682 -340.224432 
L 170.094846 -343.36625 
L 170.08495 -346.508068 
L 170.074084 -349.649886 
L 170.064055 -352.791705 
L 170.056324 -355.933523 
L 170.052112 -359.075341 
L 170.052436 -362.217159 
L 170.057956 -365.358977 
L 170.068676 -368.500795 
L 170.083731 -371.642614 
L 170.101432 -374.784432 
L 170.119611 -377.92625 
L 170.136127 -381.068068 
L 170.149288 -384.209886 
L 170.158065 -387.351705 
L 170.162065 -390.493523 
L 170.161421 -393.635341 
L 170.156706 -396.777159 
L 170.148967 -399.918977 
L 170.139751 -403.060795 
L 170.131006 -406.202614 
L 170.124733 -409.344432 
L 170.122466 -412.48625 
L 170.237534 -412.48625 
L 170.237534 -412.48625 
L 170.235267 -409.344432 
L 170.228994 -406.202614 
L 170.220249 -403.060795 
L 170.211033 -399.918977 
L 170.203294 -396.777159 
L 170.198579 -393.635341 
L 170.197935 -390.493523 
L 170.201935 -387.351705 
L 170.210712 -384.209886 
L 170.223873 -381.068068 
L 170.240389 -377.92625 
L 170.258568 -374.784432 
L 170.276269 -371.642614 
L 170.291324 -368.500795 
L 170.302044 -365.358977 
L 170.307564 -362.217159 
L 170.307888 -359.075341 
L 170.303676 -355.933523 
L 170.295945 -352.791705 
L 170.285916 -349.649886 
L 170.27505 -346.508068 
L 170.265154 -343.36625 
L 170.258318 -340.224432 
L 170.256527 -337.082614 
L 170.261025 -333.940795 
L 170.27175 -330.798977 
L 170.287172 -327.657159 
L 170.304708 -324.515341 
L 170.321586 -321.373523 
L 170.335715 -318.231705 
L 170.346183 -315.089886 
L 170.35319 -311.948068 
L 170.357635 -308.80625 
L 170.360768 -305.664432 
L 170.364144 -302.522614 
L 170.369835 -299.380795 
L 170.380539 -296.238977 
L 170.399279 -293.097159 
L 170.428646 -289.955341 
L 170.469884 -286.813523 
L 170.522175 -283.671705 
L 170.582441 -280.529886 
L 170.645756 -277.388068 
L 170.706314 -274.24625 
L 170.758788 -271.104432 
L 170.799747 -267.962614 
L 170.828707 -264.820795 
L 170.848335 -261.678977 
L 170.863665 -258.537159 
L 170.880597 -255.395341 
L 170.904391 -252.253523 
L 170.938816 -249.111705 
L 170.986191 -245.969886 
L 171.047942 -242.828068 
L 171.125017 -239.68625 
L 171.217736 -236.544432 
L 171.325226 -233.402614 
L 171.445064 -230.260795 
L 171.573721 -227.118977 
L 171.707829 -223.977159 
L 171.845661 -220.835341 
L 171.987892 -217.693523 
L 172.137103 -214.551705 
L 172.296302 -211.409886 
L 172.467445 -208.268068 
L 172.651095 -205.12625 
L 172.847703 -201.984432 
L 173.060026 -198.842614 
L 173.295164 -195.700795 
L 173.5645 -192.558977 
L 173.880618 -189.417159 
L 174.251962 -186.275341 
L 174.677749 -183.133523 
L 175.146148 -179.991705 
L 175.637434 -176.849886 
L 176.131175 -173.708068 
L 176.614107 -170.56625 
L 177.084787 -167.424432 
L 177.552806 -164.282614 
L 178.033288 -161.140795 
L 178.539803 -157.998977 
L 179.07932 -154.857159 
L 179.651352 -151.715341 
L 180.251135 -148.573523 
L 180.874994 -145.431705 
L 181.525556 -142.289886 
L 182.214857 -139.148068 
L 182.963658 -136.00625 
L 183.795439 -132.864432 
L 184.724227 -129.722614 
L 185.737633 -126.580795 
L 186.779867 -123.438977 
L 187.742235 -120.297159 
L 188.468649 -117.155341 
L 188.78 -114.013523 
L 188.514739 -110.871705 
L 187.575675 -107.729886 
L 185.967839 -104.588068 
L 183.812079 -101.44625 
z
" id="m70c56a36c4" style="stroke:#000000;stroke-opacity:0.3;"/>
    </defs>
    <g clip-path="url(#p572ea39000)">
     <use style="fill:#bfbf00;fill-opacity:0.3;stroke:#000000;stroke-opacity:0.3;" x="0.0" xlink:href="#m70c56a36c4" y="465.868"/>
    </g>
   </g>
   <g id="PolyCollection_3">
    <defs>
     <path d="M 257.975779 -101.44625 
L 231.184221 -101.44625 
L 228.865571 -104.675341 
L 227.167825 -107.904432 
L 226.21325 -111.133523 
L 225.98 -114.362614 
L 226.335322 -117.591705 
L 227.093371 -120.820795 
L 228.072289 -124.049886 
L 229.131861 -127.278977 
L 230.185172 -130.508068 
L 231.189783 -133.737159 
L 232.130862 -136.96625 
L 233.007336 -140.195341 
L 233.824895 -143.424432 
L 234.593231 -146.653523 
L 235.3238 -149.882614 
L 236.027154 -153.111705 
L 236.711077 -156.340795 
L 237.379928 -159.569886 
L 238.034038 -162.798977 
L 238.66822 -166.028068 
L 239.270554 -169.257159 
L 239.823749 -172.48625 
L 240.31 -175.715341 
L 240.717697 -178.944432 
L 241.046871 -182.173523 
L 241.310848 -185.402614 
L 241.533356 -188.631705 
L 241.742038 -191.860795 
L 241.960528 -195.089886 
L 242.201732 -198.318977 
L 242.464564 -201.548068 
L 242.735237 -204.777159 
L 242.992742 -208.00625 
L 243.21678 -211.235341 
L 243.395341 -214.464432 
L 243.52886 -217.693523 
L 243.62893 -220.922614 
L 243.712127 -224.151705 
L 243.792177 -227.380795 
L 243.874641 -230.609886 
L 243.956614 -233.838977 
L 244.030675 -237.068068 
L 244.089954 -240.297159 
L 244.131284 -243.52625 
L 244.155525 -246.755341 
L 244.166294 -249.984432 
L 244.168735 -253.213523 
L 244.168863 -256.442614 
L 244.172797 -259.671705 
L 244.185324 -262.900795 
L 244.208245 -266.129886 
L 244.239718 -269.358977 
L 244.275234 -272.588068 
L 244.309617 -275.817159 
L 244.338785 -279.04625 
L 244.360538 -282.275341 
L 244.374587 -285.504432 
L 244.382429 -288.733523 
L 244.387177 -291.962614 
L 244.392929 -295.191705 
L 244.403428 -298.420795 
L 244.420385 -301.649886 
L 244.442453 -304.878977 
L 244.465567 -308.108068 
L 244.484629 -311.337159 
L 244.495681 -314.56625 
L 244.497507 -317.795341 
L 244.492009 -321.024432 
L 244.48334 -324.253523 
L 244.476324 -327.482614 
L 244.47482 -330.711705 
L 244.480621 -333.940795 
L 244.493178 -337.169886 
L 244.51013 -340.398977 
L 244.528338 -343.628068 
L 244.544977 -346.857159 
L 244.558263 -350.08625 
L 244.567637 -353.315341 
L 244.573458 -356.544432 
L 244.576485 -359.773523 
L 244.577391 -363.002614 
L 244.576475 -366.231705 
L 244.573591 -369.460795 
L 244.568323 -372.689886 
L 244.560332 -375.918977 
L 244.549779 -379.148068 
L 244.537584 -382.377159 
L 244.525302 -385.60625 
L 244.514553 -388.835341 
L 244.506295 -392.064432 
L 244.500418 -395.293523 
L 244.495981 -398.522614 
L 244.491951 -401.751705 
L 244.487922 -404.980795 
L 244.484383 -408.209886 
L 244.482466 -411.438977 
L 244.483442 -414.668068 
L 244.488256 -417.897159 
L 244.497181 -421.12625 
L 244.662819 -421.12625 
L 244.662819 -421.12625 
L 244.671744 -417.897159 
L 244.676558 -414.668068 
L 244.677534 -411.438977 
L 244.675617 -408.209886 
L 244.672078 -404.980795 
L 244.668049 -401.751705 
L 244.664019 -398.522614 
L 244.659582 -395.293523 
L 244.653705 -392.064432 
L 244.645447 -388.835341 
L 244.634698 -385.60625 
L 244.622416 -382.377159 
L 244.610221 -379.148068 
L 244.599668 -375.918977 
L 244.591677 -372.689886 
L 244.586409 -369.460795 
L 244.583525 -366.231705 
L 244.582609 -363.002614 
L 244.583515 -359.773523 
L 244.586542 -356.544432 
L 244.592363 -353.315341 
L 244.601737 -350.08625 
L 244.615023 -346.857159 
L 244.631662 -343.628068 
L 244.64987 -340.398977 
L 244.666822 -337.169886 
L 244.679379 -333.940795 
L 244.68518 -330.711705 
L 244.683676 -327.482614 
L 244.67666 -324.253523 
L 244.667991 -321.024432 
L 244.662493 -317.795341 
L 244.664319 -314.56625 
L 244.675371 -311.337159 
L 244.694433 -308.108068 
L 244.717547 -304.878977 
L 244.739615 -301.649886 
L 244.756572 -298.420795 
L 244.767071 -295.191705 
L 244.772823 -291.962614 
L 244.777571 -288.733523 
L 244.785413 -285.504432 
L 244.799462 -282.275341 
L 244.821215 -279.04625 
L 244.850383 -275.817159 
L 244.884766 -272.588068 
L 244.920282 -269.358977 
L 244.951755 -266.129886 
L 244.974676 -262.900795 
L 244.987203 -259.671705 
L 244.991137 -256.442614 
L 244.991265 -253.213523 
L 244.993706 -249.984432 
L 245.004475 -246.755341 
L 245.028716 -243.52625 
L 245.070046 -240.297159 
L 245.129325 -237.068068 
L 245.203386 -233.838977 
L 245.285359 -230.609886 
L 245.367823 -227.380795 
L 245.447873 -224.151705 
L 245.53107 -220.922614 
L 245.63114 -217.693523 
L 245.764659 -214.464432 
L 245.94322 -211.235341 
L 246.167258 -208.00625 
L 246.424763 -204.777159 
L 246.695436 -201.548068 
L 246.958268 -198.318977 
L 247.199472 -195.089886 
L 247.417962 -191.860795 
L 247.626644 -188.631705 
L 247.849152 -185.402614 
L 248.113129 -182.173523 
L 248.442303 -178.944432 
L 248.85 -175.715341 
L 249.336251 -172.48625 
L 249.889446 -169.257159 
L 250.49178 -166.028068 
L 251.125962 -162.798977 
L 251.780072 -159.569886 
L 252.448923 -156.340795 
L 253.132846 -153.111705 
L 253.8362 -149.882614 
L 254.566769 -146.653523 
L 255.335105 -143.424432 
L 256.152664 -140.195341 
L 257.029138 -136.96625 
L 257.970217 -133.737159 
L 258.974828 -130.508068 
L 260.028139 -127.278977 
L 261.087711 -124.049886 
L 262.066629 -120.820795 
L 262.824678 -117.591705 
L 263.18 -114.362614 
L 262.94675 -111.133523 
L 261.992175 -107.904432 
L 260.294429 -104.675341 
L 257.975779 -101.44625 
z
" id="mcd5039c685" style="stroke:#000000;stroke-opacity:0.3;"/>
    </defs>
    <g clip-path="url(#p572ea39000)">
     <use style="fill:#bfbf00;fill-opacity:0.3;stroke:#000000;stroke-opacity:0.3;" x="0.0" xlink:href="#mcd5039c685" y="465.868"/>
    </g>
   </g>
   <g id="PolyCollection_4">
    <defs>
     <path d="M 333.207761 -101.44625 
L 304.752239 -101.44625 
L 302.924213 -104.064432 
L 301.559796 -106.682614 
L 300.717313 -109.300795 
L 300.38 -111.918977 
L 300.473467 -114.537159 
L 300.893485 -117.155341 
L 301.533965 -119.773523 
L 302.307244 -122.391705 
L 303.153082 -125.009886 
L 304.036884 -127.628068 
L 304.940731 -130.24625 
L 305.852256 -132.864432 
L 306.756273 -135.482614 
L 307.632226 -138.100795 
L 308.457599 -140.718977 
L 309.214485 -143.337159 
L 309.895165 -145.955341 
L 310.503438 -148.573523 
L 311.051036 -151.191705 
L 311.551291 -153.809886 
L 312.013517 -156.428068 
L 312.440816 -159.04625 
L 312.831815 -161.664432 
L 313.184668 -164.282614 
L 313.500718 -166.900795 
L 313.785883 -169.518977 
L 314.049389 -172.137159 
L 314.300965 -174.755341 
L 314.548141 -177.373523 
L 314.794879 -179.991705 
L 315.041766 -182.609886 
L 315.287177 -185.228068 
L 315.528568 -187.84625 
L 315.763342 -190.464432 
L 315.989222 -193.082614 
L 316.204384 -195.700795 
L 316.407569 -198.318977 
L 316.598185 -200.937159 
L 316.77626 -203.555341 
L 316.942179 -206.173523 
L 317.096286 -208.791705 
L 317.238581 -211.409886 
L 317.368655 -214.028068 
L 317.485866 -216.64625 
L 317.589625 -219.264432 
L 317.679681 -221.882614 
L 317.756375 -224.500795 
L 317.82084 -227.118977 
L 317.875133 -229.737159 
L 317.92219 -232.355341 
L 317.965499 -234.973523 
L 318.008531 -237.591705 
L 318.054069 -240.209886 
L 318.103663 -242.828068 
L 318.157422 -245.44625 
L 318.21419 -248.064432 
L 318.272044 -250.682614 
L 318.328921 -253.300795 
L 318.383178 -255.918977 
L 318.433937 -258.537159 
L 318.48116 -261.155341 
L 318.5255 -263.773523 
L 318.56802 -266.391705 
L 318.609862 -269.009886 
L 318.651936 -271.628068 
L 318.694668 -274.24625 
L 318.737838 -276.864432 
L 318.78056 -279.482614 
L 318.821423 -282.100795 
L 318.858775 -284.718977 
L 318.891083 -287.337159 
L 318.917228 -289.955341 
L 318.936662 -292.573523 
L 318.949376 -295.191705 
L 318.95575 -297.809886 
L 318.956361 -300.428068 
L 318.951855 -303.04625 
L 318.942905 -305.664432 
L 318.93024 -308.282614 
L 318.914683 -310.900795 
L 318.897174 -313.518977 
L 318.878756 -316.137159 
L 318.860568 -318.755341 
L 318.843822 -321.373523 
L 318.829768 -323.991705 
L 318.819576 -326.609886 
L 318.81415 -329.228068 
L 318.813897 -331.84625 
L 318.818581 -334.464432 
L 318.827318 -337.082614 
L 318.838744 -339.700795 
L 318.851296 -342.318977 
L 318.863517 -344.937159 
L 318.874315 -347.555341 
L 318.883153 -350.173523 
L 318.890123 -352.791705 
L 318.895876 -355.409886 
L 318.901405 -358.028068 
L 318.907696 -360.64625 
L 319.052304 -360.64625 
L 319.052304 -360.64625 
L 319.058595 -358.028068 
L 319.064124 -355.409886 
L 319.069877 -352.791705 
L 319.076847 -350.173523 
L 319.085685 -347.555341 
L 319.096483 -344.937159 
L 319.108704 -342.318977 
L 319.121256 -339.700795 
L 319.132682 -337.082614 
L 319.141419 -334.464432 
L 319.146103 -331.84625 
L 319.14585 -329.228068 
L 319.140424 -326.609886 
L 319.130232 -323.991705 
L 319.116178 -321.373523 
L 319.099432 -318.755341 
L 319.081244 -316.137159 
L 319.062826 -313.518977 
L 319.045317 -310.900795 
L 319.02976 -308.282614 
L 319.017095 -305.664432 
L 319.008145 -303.04625 
L 319.003639 -300.428068 
L 319.00425 -297.809886 
L 319.010624 -295.191705 
L 319.023338 -292.573523 
L 319.042772 -289.955341 
L 319.068917 -287.337159 
L 319.101225 -284.718977 
L 319.138577 -282.100795 
L 319.17944 -279.482614 
L 319.222162 -276.864432 
L 319.265332 -274.24625 
L 319.308064 -271.628068 
L 319.350138 -269.009886 
L 319.39198 -266.391705 
L 319.4345 -263.773523 
L 319.47884 -261.155341 
L 319.526063 -258.537159 
L 319.576822 -255.918977 
L 319.631079 -253.300795 
L 319.687956 -250.682614 
L 319.74581 -248.064432 
L 319.802578 -245.44625 
L 319.856337 -242.828068 
L 319.905931 -240.209886 
L 319.951469 -237.591705 
L 319.994501 -234.973523 
L 320.03781 -232.355341 
L 320.084867 -229.737159 
L 320.13916 -227.118977 
L 320.203625 -224.500795 
L 320.280319 -221.882614 
L 320.370375 -219.264432 
L 320.474134 -216.64625 
L 320.591345 -214.028068 
L 320.721419 -211.409886 
L 320.863714 -208.791705 
L 321.017821 -206.173523 
L 321.18374 -203.555341 
L 321.361815 -200.937159 
L 321.552431 -198.318977 
L 321.755616 -195.700795 
L 321.970778 -193.082614 
L 322.196658 -190.464432 
L 322.431432 -187.84625 
L 322.672823 -185.228068 
L 322.918234 -182.609886 
L 323.165121 -179.991705 
L 323.411859 -177.373523 
L 323.659035 -174.755341 
L 323.910611 -172.137159 
L 324.174117 -169.518977 
L 324.459282 -166.900795 
L 324.775332 -164.282614 
L 325.128185 -161.664432 
L 325.519184 -159.04625 
L 325.946483 -156.428068 
L 326.408709 -153.809886 
L 326.908964 -151.191705 
L 327.456562 -148.573523 
L 328.064835 -145.955341 
L 328.745515 -143.337159 
L 329.502401 -140.718977 
L 330.327774 -138.100795 
L 331.203727 -135.482614 
L 332.107744 -132.864432 
L 333.019269 -130.24625 
L 333.923116 -127.628068 
L 334.806918 -125.009886 
L 335.652756 -122.391705 
L 336.426035 -119.773523 
L 337.066515 -117.155341 
L 337.486533 -114.537159 
L 337.58 -111.918977 
L 337.242687 -109.300795 
L 336.400204 -106.682614 
L 335.035787 -104.064432 
L 333.207761 -101.44625 
z
" id="m2ceba519d7" style="stroke:#000000;stroke-opacity:0.3;"/>
    </defs>
    <g clip-path="url(#p572ea39000)">
     <use style="fill:#bfbf00;fill-opacity:0.3;stroke:#000000;stroke-opacity:0.3;" x="0.0" xlink:href="#m2ceba519d7" y="465.868"/>
    </g>
   </g>
   <g id="PolyCollection_5">
    <defs>
     <path d="M 407.38346 -101.44625 
L 379.37654 -101.44625 
L 377.220862 -104.675341 
L 375.707994 -107.904432 
L 374.914885 -111.133523 
L 374.78 -114.362614 
L 375.152331 -117.591705 
L 375.859362 -120.820795 
L 376.761527 -124.049886 
L 377.774026 -127.278977 
L 378.856844 -130.508068 
L 379.988624 -133.737159 
L 381.142973 -136.96625 
L 382.278537 -140.195341 
L 383.343621 -143.424432 
L 384.289128 -146.653523 
L 385.082337 -149.882614 
L 385.716296 -153.111705 
L 386.212175 -156.340795 
L 386.61381 -159.569886 
L 386.975598 -162.798977 
L 387.347306 -166.028068 
L 387.761045 -169.257159 
L 388.224999 -172.48625 
L 388.725459 -175.715341 
L 389.235022 -178.944432 
L 389.722653 -182.173523 
L 390.161786 -185.402614 
L 390.534811 -188.631705 
L 390.834441 -191.860795 
L 391.06326 -195.089886 
L 391.232338 -198.318977 
L 391.358998 -201.548068 
L 391.463481 -204.777159 
L 391.56467 -208.00625 
L 391.675745 -211.235341 
L 391.801218 -214.464432 
L 391.936665 -217.693523 
L 392.071488 -220.922614 
L 392.193648 -224.151705 
L 392.294402 -227.380795 
L 392.371179 -230.609886 
L 392.427772 -233.838977 
L 392.472276 -237.068068 
L 392.513905 -240.297159 
L 392.559942 -243.52625 
L 392.613775 -246.755341 
L 392.67449 -249.984432 
L 392.737961 -253.213523 
L 392.798818 -256.442614 
L 392.852403 -259.671705 
L 392.896034 -262.900795 
L 392.929338 -266.129886 
L 392.953843 -269.358977 
L 392.972144 -272.588068 
L 392.986896 -275.817159 
L 392.999992 -279.04625 
L 393.012289 -282.275341 
L 393.024069 -285.504432 
L 393.035909 -288.733523 
L 393.049266 -291.962614 
L 393.066226 -295.191705 
L 393.088507 -298.420795 
L 393.116428 -301.649886 
L 393.148583 -304.878977 
L 393.182434 -308.108068 
L 393.215413 -311.337159 
L 393.245808 -314.56625 
L 393.272981 -317.795341 
L 393.296967 -321.024432 
L 393.317871 -324.253523 
L 393.335517 -327.482614 
L 393.349458 -330.711705 
L 393.359214 -333.940795 
L 393.364483 -337.169886 
L 393.365235 -340.398977 
L 393.361752 -343.628068 
L 393.35473 -346.857159 
L 393.345422 -350.08625 
L 393.335631 -353.315341 
L 393.3274 -356.544432 
L 393.322368 -359.773523 
L 393.321087 -363.002614 
L 393.32272 -366.231705 
L 393.325379 -369.460795 
L 393.327034 -372.689886 
L 393.32654 -375.918977 
L 393.32422 -379.148068 
L 393.321691 -382.377159 
L 393.321001 -385.60625 
L 393.323562 -388.835341 
L 393.329415 -392.064432 
L 393.337169 -395.293523 
L 393.34456 -398.522614 
L 393.349328 -401.751705 
L 393.350005 -404.980795 
L 393.346408 -408.209886 
L 393.33972 -411.438977 
L 393.332158 -414.668068 
L 393.326302 -417.897159 
L 393.324253 -421.12625 
L 393.435747 -421.12625 
L 393.435747 -421.12625 
L 393.433698 -417.897159 
L 393.427842 -414.668068 
L 393.42028 -411.438977 
L 393.413592 -408.209886 
L 393.409995 -404.980795 
L 393.410672 -401.751705 
L 393.41544 -398.522614 
L 393.422831 -395.293523 
L 393.430585 -392.064432 
L 393.436438 -388.835341 
L 393.438999 -385.60625 
L 393.438309 -382.377159 
L 393.43578 -379.148068 
L 393.43346 -375.918977 
L 393.432966 -372.689886 
L 393.434621 -369.460795 
L 393.43728 -366.231705 
L 393.438913 -363.002614 
L 393.437632 -359.773523 
L 393.4326 -356.544432 
L 393.424369 -353.315341 
L 393.414578 -350.08625 
L 393.40527 -346.857159 
L 393.398248 -343.628068 
L 393.394765 -340.398977 
L 393.395517 -337.169886 
L 393.400786 -333.940795 
L 393.410542 -330.711705 
L 393.424483 -327.482614 
L 393.442129 -324.253523 
L 393.463033 -321.024432 
L 393.487019 -317.795341 
L 393.514192 -314.56625 
L 393.544587 -311.337159 
L 393.577566 -308.108068 
L 393.611417 -304.878977 
L 393.643572 -301.649886 
L 393.671493 -298.420795 
L 393.693774 -295.191705 
L 393.710734 -291.962614 
L 393.724091 -288.733523 
L 393.735931 -285.504432 
L 393.747711 -282.275341 
L 393.760008 -279.04625 
L 393.773104 -275.817159 
L 393.787856 -272.588068 
L 393.806157 -269.358977 
L 393.830662 -266.129886 
L 393.863966 -262.900795 
L 393.907597 -259.671705 
L 393.961182 -256.442614 
L 394.022039 -253.213523 
L 394.08551 -249.984432 
L 394.146225 -246.755341 
L 394.200058 -243.52625 
L 394.246095 -240.297159 
L 394.287724 -237.068068 
L 394.332228 -233.838977 
L 394.388821 -230.609886 
L 394.465598 -227.380795 
L 394.566352 -224.151705 
L 394.688512 -220.922614 
L 394.823335 -217.693523 
L 394.958782 -214.464432 
L 395.084255 -211.235341 
L 395.19533 -208.00625 
L 395.296519 -204.777159 
L 395.401002 -201.548068 
L 395.527662 -198.318977 
L 395.69674 -195.089886 
L 395.925559 -191.860795 
L 396.225189 -188.631705 
L 396.598214 -185.402614 
L 397.037347 -182.173523 
L 397.524978 -178.944432 
L 398.034541 -175.715341 
L 398.535001 -172.48625 
L 398.998955 -169.257159 
L 399.412694 -166.028068 
L 399.784402 -162.798977 
L 400.14619 -159.569886 
L 400.547825 -156.340795 
L 401.043704 -153.111705 
L 401.677663 -149.882614 
L 402.470872 -146.653523 
L 403.416379 -143.424432 
L 404.481463 -140.195341 
L 405.617027 -136.96625 
L 406.771376 -133.737159 
L 407.903156 -130.508068 
L 408.985974 -127.278977 
L 409.998473 -124.049886 
L 410.900638 -120.820795 
L 411.607669 -117.591705 
L 411.98 -114.362614 
L 411.845115 -111.133523 
L 411.052006 -107.904432 
L 409.539138 -104.675341 
L 407.38346 -101.44625 
z
" id="m83b3ed7e34" style="stroke:#000000;stroke-opacity:0.3;"/>
    </defs>
    <g clip-path="url(#p572ea39000)">
     <use style="fill:#bfbf00;fill-opacity:0.3;stroke:#000000;stroke-opacity:0.3;" x="0.0" xlink:href="#m83b3ed7e34" y="465.868"/>
    </g>
   </g>
   <g id="PolyCollection_6">
    <defs>
     <path d="M 481.581915 -101.44625 
L 453.978085 -101.44625 
L 451.756673 -104.588068 
L 450.168253 -107.729886 
L 449.321535 -110.871705 
L 449.18 -114.013523 
L 449.595743 -117.155341 
L 450.371122 -120.297159 
L 451.320641 -123.438977 
L 452.311721 -126.580795 
L 453.276639 -129.722614 
L 454.200668 -132.864432 
L 455.098219 -136.00625 
L 455.988915 -139.148068 
L 456.881512 -142.289886 
L 457.768521 -145.431705 
L 458.630202 -148.573523 
L 459.44384 -151.715341 
L 460.193073 -154.857159 
L 460.872777 -157.998977 
L 461.487704 -161.140795 
L 462.046556 -164.282614 
L 462.555531 -167.424432 
L 463.01517 -170.56625 
L 463.421898 -173.708068 
L 463.77271 -176.849886 
L 464.069797 -179.991705 
L 464.32237 -183.133523 
L 464.544969 -186.275341 
L 464.75362 -189.417159 
L 464.962057 -192.558977 
L 465.179508 -195.700795 
L 465.410104 -198.842614 
L 465.653111 -201.984432 
L 465.903328 -205.12625 
L 466.151683 -208.268068 
L 466.38644 -211.409886 
L 466.59525 -214.551705 
L 466.767739 -217.693523 
L 466.897815 -220.835341 
L 466.984821 -223.977159 
L 467.03311 -227.118977 
L 467.050397 -230.260795 
L 467.045839 -233.402614 
L 467.02872 -236.544432 
L 467.007848 -239.68625 
L 466.991106 -242.828068 
L 466.984604 -245.969886 
L 466.99161 -249.111705 
L 467.012069 -252.253523 
L 467.043278 -255.395341 
L 467.081501 -258.537159 
L 467.123648 -261.678977 
L 467.168215 -264.820795 
L 467.215262 -267.962614 
L 467.265713 -271.104432 
L 467.320314 -274.24625 
L 467.378563 -277.388068 
L 467.438019 -280.529886 
L 467.494474 -283.671705 
L 467.543237 -286.813523 
L 467.581077 -289.955341 
L 467.60778 -293.097159 
L 467.626325 -296.238977 
L 467.641469 -299.380795 
L 467.657521 -302.522614 
L 467.676575 -305.664432 
L 467.69804 -308.80625 
L 467.719466 -311.948068 
L 467.737922 -315.089886 
L 467.751094 -318.231705 
L 467.757681 -321.373523 
L 467.757245 -324.515341 
L 467.749975 -327.657159 
L 467.736699 -330.798977 
L 467.719165 -333.940795 
L 467.700246 -337.082614 
L 467.683688 -340.224432 
L 467.673249 -343.36625 
L 467.671506 -346.508068 
L 467.678922 -349.649886 
L 467.693684 -352.791705 
L 467.712443 -355.933523 
L 467.731542 -359.075341 
L 467.748147 -362.217159 
L 467.760806 -365.358977 
L 467.769372 -368.500795 
L 467.774509 -371.642614 
L 467.777119 -374.784432 
L 467.777903 -377.92625 
L 467.777119 -381.068068 
L 467.774509 -384.209886 
L 467.769372 -387.351705 
L 467.760806 -390.493523 
L 467.748147 -393.635341 
L 467.731542 -396.777159 
L 467.712443 -399.918977 
L 467.693685 -403.060795 
L 467.678923 -406.202614 
L 467.671512 -409.344432 
L 467.673269 -412.48625 
L 467.886731 -412.48625 
L 467.886731 -412.48625 
L 467.888488 -409.344432 
L 467.881077 -406.202614 
L 467.866315 -403.060795 
L 467.847557 -399.918977 
L 467.828458 -396.777159 
L 467.811853 -393.635341 
L 467.799194 -390.493523 
L 467.790628 -387.351705 
L 467.785491 -384.209886 
L 467.782881 -381.068068 
L 467.782097 -377.92625 
L 467.782881 -374.784432 
L 467.785491 -371.642614 
L 467.790628 -368.500795 
L 467.799194 -365.358977 
L 467.811853 -362.217159 
L 467.828458 -359.075341 
L 467.847557 -355.933523 
L 467.866316 -352.791705 
L 467.881078 -349.649886 
L 467.888494 -346.508068 
L 467.886751 -343.36625 
L 467.876312 -340.224432 
L 467.859754 -337.082614 
L 467.840835 -333.940795 
L 467.823301 -330.798977 
L 467.810025 -327.657159 
L 467.802755 -324.515341 
L 467.802319 -321.373523 
L 467.808906 -318.231705 
L 467.822078 -315.089886 
L 467.840534 -311.948068 
L 467.86196 -308.80625 
L 467.883425 -305.664432 
L 467.902479 -302.522614 
L 467.918531 -299.380795 
L 467.933675 -296.238977 
L 467.95222 -293.097159 
L 467.978923 -289.955341 
L 468.016763 -286.813523 
L 468.065526 -283.671705 
L 468.121981 -280.529886 
L 468.181437 -277.388068 
L 468.239686 -274.24625 
L 468.294287 -271.104432 
L 468.344738 -267.962614 
L 468.391785 -264.820795 
L 468.436352 -261.678977 
L 468.478499 -258.537159 
L 468.516722 -255.395341 
L 468.547931 -252.253523 
L 468.56839 -249.111705 
L 468.575396 -245.969886 
L 468.568894 -242.828068 
L 468.552152 -239.68625 
L 468.53128 -236.544432 
L 468.514161 -233.402614 
L 468.509603 -230.260795 
L 468.52689 -227.118977 
L 468.575179 -223.977159 
L 468.662185 -220.835341 
L 468.792261 -217.693523 
L 468.96475 -214.551705 
L 469.17356 -211.409886 
L 469.408317 -208.268068 
L 469.656672 -205.12625 
L 469.906889 -201.984432 
L 470.149896 -198.842614 
L 470.380492 -195.700795 
L 470.597943 -192.558977 
L 470.80638 -189.417159 
L 471.015031 -186.275341 
L 471.23763 -183.133523 
L 471.490203 -179.991705 
L 471.78729 -176.849886 
L 472.138102 -173.708068 
L 472.54483 -170.56625 
L 473.004469 -167.424432 
L 473.513444 -164.282614 
L 474.072296 -161.140795 
L 474.687223 -157.998977 
L 475.366927 -154.857159 
L 476.11616 -151.715341 
L 476.929798 -148.573523 
L 477.791479 -145.431705 
L 478.678488 -142.289886 
L 479.571085 -139.148068 
L 480.461781 -136.00625 
L 481.359332 -132.864432 
L 482.283361 -129.722614 
L 483.248279 -126.580795 
L 484.239359 -123.438977 
L 485.188878 -120.297159 
L 485.964257 -117.155341 
L 486.38 -114.013523 
L 486.238465 -110.871705 
L 485.391747 -107.729886 
L 483.803327 -104.588068 
L 481.581915 -101.44625 
z
" id="m89cbf68e26" style="stroke:#000000;stroke-opacity:0.3;"/>
    </defs>
    <g clip-path="url(#p572ea39000)">
     <use style="fill:#bfbf00;fill-opacity:0.3;stroke:#000000;stroke-opacity:0.3;" x="0.0" xlink:href="#m89cbf68e26" y="465.868"/>
    </g>
   </g>
   <g id="PolyCollection_7">
    <defs>
     <path d="M 556.316109 -101.44625 
L 528.043891 -101.44625 
L 525.947087 -104.32625 
L 524.452764 -107.20625 
L 523.669551 -110.08625 
L 523.58 -112.96625 
L 524.059038 -115.84625 
L 524.919276 -118.72625 
L 525.965609 -121.60625 
L 527.041061 -124.48625 
L 528.051516 -127.36625 
L 528.96581 -130.24625 
L 529.796593 -133.12625 
L 530.573158 -136.00625 
L 531.31826 -138.88625 
L 532.036905 -141.76625 
L 532.718343 -144.64625 
L 533.346465 -147.52625 
L 533.911082 -150.40625 
L 534.413826 -153.28625 
L 534.866506 -156.16625 
L 535.284141 -159.04625 
L 535.677488 -161.92625 
L 536.049421 -164.80625 
L 536.396718 -167.68625 
L 536.715429 -170.56625 
L 537.006179 -173.44625 
L 537.276314 -176.32625 
L 537.538098 -179.20625 
L 537.804328 -182.08625 
L 538.083711 -184.96625 
L 538.377824 -187.84625 
L 538.680508 -190.72625 
L 538.979695 -193.60625 
L 539.261078 -196.48625 
L 539.512586 -199.36625 
L 539.728138 -202.24625 
L 539.909241 -205.12625 
L 540.063747 -208.00625 
L 540.202398 -210.88625 
L 540.334783 -213.76625 
L 540.46653 -216.64625 
L 540.598649 -219.52625 
L 540.728739 -222.40625 
L 540.852921 -225.28625 
L 540.967391 -228.16625 
L 541.069165 -231.04625 
L 541.156318 -233.92625 
L 541.228244 -236.80625 
L 541.286142 -239.68625 
L 541.333397 -242.56625 
L 541.375345 -245.44625 
L 541.418124 -248.32625 
L 541.466925 -251.20625 
L 541.524405 -254.08625 
L 541.590005 -256.96625 
L 541.660465 -259.84625 
L 541.731194 -262.72625 
L 541.797788 -265.60625 
L 541.857031 -268.48625 
L 541.907126 -271.36625 
L 541.947349 -274.24625 
L 541.977514 -277.12625 
L 541.997649 -280.00625 
L 542.008037 -282.88625 
L 542.009537 -285.76625 
L 542.003962 -288.64625 
L 541.994225 -291.52625 
L 541.984062 -294.40625 
L 541.977348 -297.28625 
L 541.977205 -300.16625 
L 541.985195 -303.04625 
L 542.000924 -305.92625 
L 542.022176 -308.80625 
L 542.045577 -311.68625 
L 542.067558 -314.56625 
L 542.085353 -317.44625 
L 542.097714 -320.32625 
L 542.105114 -323.20625 
L 542.109386 -326.08625 
L 542.112919 -328.96625 
L 542.117744 -331.84625 
L 542.124867 -334.72625 
L 542.134104 -337.60625 
L 542.144394 -340.48625 
L 542.154375 -343.36625 
L 542.162926 -346.24625 
L 542.16945 -349.12625 
L 542.173873 -352.00625 
L 542.176444 -354.88625 
L 542.177474 -357.76625 
L 542.177137 -360.64625 
L 542.175373 -363.52625 
L 542.171925 -366.40625 
L 542.166495 -369.28625 
L 542.158992 -372.16625 
L 542.149804 -375.04625 
L 542.13995 -377.92625 
L 542.130994 -380.80625 
L 542.124686 -383.68625 
L 542.122408 -386.56625 
L 542.237592 -386.56625 
L 542.237592 -386.56625 
L 542.235314 -383.68625 
L 542.229006 -380.80625 
L 542.22005 -377.92625 
L 542.210196 -375.04625 
L 542.201008 -372.16625 
L 542.193505 -369.28625 
L 542.188075 -366.40625 
L 542.184627 -363.52625 
L 542.182863 -360.64625 
L 542.182526 -357.76625 
L 542.183556 -354.88625 
L 542.186127 -352.00625 
L 542.19055 -349.12625 
L 542.197074 -346.24625 
L 542.205625 -343.36625 
L 542.215606 -340.48625 
L 542.225896 -337.60625 
L 542.235133 -334.72625 
L 542.242256 -331.84625 
L 542.247081 -328.96625 
L 542.250614 -326.08625 
L 542.254886 -323.20625 
L 542.262286 -320.32625 
L 542.274647 -317.44625 
L 542.292442 -314.56625 
L 542.314423 -311.68625 
L 542.337824 -308.80625 
L 542.359076 -305.92625 
L 542.374805 -303.04625 
L 542.382795 -300.16625 
L 542.382652 -297.28625 
L 542.375938 -294.40625 
L 542.365775 -291.52625 
L 542.356038 -288.64625 
L 542.350463 -285.76625 
L 542.351963 -282.88625 
L 542.362351 -280.00625 
L 542.382486 -277.12625 
L 542.412651 -274.24625 
L 542.452874 -271.36625 
L 542.502969 -268.48625 
L 542.562212 -265.60625 
L 542.628806 -262.72625 
L 542.699535 -259.84625 
L 542.769995 -256.96625 
L 542.835595 -254.08625 
L 542.893075 -251.20625 
L 542.941876 -248.32625 
L 542.984655 -245.44625 
L 543.026603 -242.56625 
L 543.073858 -239.68625 
L 543.131756 -236.80625 
L 543.203682 -233.92625 
L 543.290835 -231.04625 
L 543.392609 -228.16625 
L 543.507079 -225.28625 
L 543.631261 -222.40625 
L 543.761351 -219.52625 
L 543.89347 -216.64625 
L 544.025217 -213.76625 
L 544.157602 -210.88625 
L 544.296253 -208.00625 
L 544.450759 -205.12625 
L 544.631862 -202.24625 
L 544.847414 -199.36625 
L 545.098922 -196.48625 
L 545.380305 -193.60625 
L 545.679492 -190.72625 
L 545.982176 -187.84625 
L 546.276289 -184.96625 
L 546.555672 -182.08625 
L 546.821902 -179.20625 
L 547.083686 -176.32625 
L 547.353821 -173.44625 
L 547.644571 -170.56625 
L 547.963282 -167.68625 
L 548.310579 -164.80625 
L 548.682512 -161.92625 
L 549.075859 -159.04625 
L 549.493494 -156.16625 
L 549.946174 -153.28625 
L 550.448918 -150.40625 
L 551.013535 -147.52625 
L 551.641657 -144.64625 
L 552.323095 -141.76625 
L 553.04174 -138.88625 
L 553.786842 -136.00625 
L 554.563407 -133.12625 
L 555.39419 -130.24625 
L 556.308484 -127.36625 
L 557.318939 -124.48625 
L 558.394391 -121.60625 
L 559.440724 -118.72625 
L 560.300962 -115.84625 
L 560.78 -112.96625 
L 560.690449 -110.08625 
L 559.907236 -107.20625 
L 558.412913 -104.32625 
L 556.316109 -101.44625 
z
" id="mde3b03a5f3" style="stroke:#000000;stroke-opacity:0.3;"/>
    </defs>
    <g clip-path="url(#p572ea39000)">
     <use style="fill:#bfbf00;fill-opacity:0.3;stroke:#000000;stroke-opacity:0.3;" x="0.0" xlink:href="#mde3b03a5f3" y="465.868"/>
    </g>
   </g>
   <g id="PolyCollection_8">
    <defs>
     <path d="M 630.696789 -101.44625 
L 602.463211 -101.44625 
L 600.6849 -104.064432 
L 599.309923 -106.682614 
L 598.405391 -109.300795 
L 597.98 -111.918977 
L 597.99247 -114.537159 
L 598.367817 -117.155341 
L 599.015369 -119.773523 
L 599.84382 -122.391705 
L 600.77128 -125.009886 
L 601.730643 -127.628068 
L 602.671687 -130.24625 
L 603.561232 -132.864432 
L 604.381977 -135.482614 
L 605.130104 -138.100795 
L 605.81171 -140.718977 
L 606.438465 -143.337159 
L 607.023292 -145.955341 
L 607.576952 -148.573523 
L 608.106152 -151.191705 
L 608.613222 -153.809886 
L 609.097007 -156.428068 
L 609.55436 -159.04625 
L 609.981737 -161.664432 
L 610.376576 -164.282614 
L 610.738291 -166.900795 
L 611.068688 -169.518977 
L 611.371658 -172.137159 
L 611.652088 -174.755341 
L 611.914318 -177.373523 
L 612.160792 -179.991705 
L 612.39163 -182.609886 
L 612.605487 -185.228068 
L 612.801413 -187.84625 
L 612.980776 -190.464432 
L 613.14821 -193.082614 
L 613.310986 -195.700795 
L 613.47699 -198.318977 
L 613.652234 -200.937159 
L 613.838986 -203.555341 
L 614.035248 -206.173523 
L 614.235634 -208.791705 
L 614.433084 -211.409886 
L 614.620664 -214.028068 
L 614.792873 -216.64625 
L 614.946269 -219.264432 
L 615.079572 -221.882614 
L 615.193496 -224.500795 
L 615.290476 -227.118977 
L 615.374275 -229.737159 
L 615.449385 -232.355341 
L 615.520202 -234.973523 
L 615.59012 -237.591705 
L 615.660828 -240.209886 
L 615.732115 -242.828068 
L 615.802272 -245.44625 
L 615.868967 -248.064432 
L 615.930237 -250.682614 
L 615.985228 -253.300795 
L 616.034401 -255.918977 
L 616.079182 -258.537159 
L 616.121243 -261.155341 
L 616.161728 -263.773523 
L 616.200744 -266.391705 
L 616.237292 -269.009886 
L 616.269632 -271.628068 
L 616.295909 -274.24625 
L 616.3148 -276.864432 
L 616.325975 -279.482614 
L 616.330245 -282.100795 
L 616.329409 -284.718977 
L 616.325858 -287.337159 
L 616.322062 -289.955341 
L 616.320059 -292.573523 
L 616.321062 -295.191705 
L 616.325265 -297.809886 
L 616.33187 -300.428068 
L 616.33934 -303.04625 
L 616.345797 -305.664432 
L 616.349478 -308.282614 
L 616.34918 -310.900795 
L 616.344598 -313.518977 
L 616.336501 -316.137159 
L 616.326705 -318.755341 
L 616.317807 -321.373523 
L 616.312703 -323.991705 
L 616.313966 -326.609886 
L 616.323225 -329.228068 
L 616.34073 -331.84625 
L 616.365223 -334.464432 
L 616.39418 -337.082614 
L 616.42437 -339.700795 
L 616.452553 -342.318977 
L 616.476161 -344.937159 
L 616.493762 -347.555341 
L 616.505231 -350.173523 
L 616.511601 -352.791705 
L 616.514669 -355.409886 
L 616.516473 -358.028068 
L 616.518783 -360.64625 
L 616.641217 -360.64625 
L 616.641217 -360.64625 
L 616.643527 -358.028068 
L 616.645331 -355.409886 
L 616.648399 -352.791705 
L 616.654769 -350.173523 
L 616.666238 -347.555341 
L 616.683839 -344.937159 
L 616.707447 -342.318977 
L 616.73563 -339.700795 
L 616.76582 -337.082614 
L 616.794777 -334.464432 
L 616.81927 -331.84625 
L 616.836775 -329.228068 
L 616.846034 -326.609886 
L 616.847297 -323.991705 
L 616.842193 -321.373523 
L 616.833295 -318.755341 
L 616.823499 -316.137159 
L 616.815402 -313.518977 
L 616.81082 -310.900795 
L 616.810522 -308.282614 
L 616.814203 -305.664432 
L 616.82066 -303.04625 
L 616.82813 -300.428068 
L 616.834735 -297.809886 
L 616.838938 -295.191705 
L 616.839941 -292.573523 
L 616.837938 -289.955341 
L 616.834142 -287.337159 
L 616.830591 -284.718977 
L 616.829755 -282.100795 
L 616.834025 -279.482614 
L 616.8452 -276.864432 
L 616.864091 -274.24625 
L 616.890368 -271.628068 
L 616.922708 -269.009886 
L 616.959256 -266.391705 
L 616.998272 -263.773523 
L 617.038757 -261.155341 
L 617.080818 -258.537159 
L 617.125599 -255.918977 
L 617.174772 -253.300795 
L 617.229763 -250.682614 
L 617.291033 -248.064432 
L 617.357728 -245.44625 
L 617.427885 -242.828068 
L 617.499172 -240.209886 
L 617.56988 -237.591705 
L 617.639798 -234.973523 
L 617.710615 -232.355341 
L 617.785725 -229.737159 
L 617.869524 -227.118977 
L 617.966504 -224.500795 
L 618.080428 -221.882614 
L 618.213731 -219.264432 
L 618.367127 -216.64625 
L 618.539336 -214.028068 
L 618.726916 -211.409886 
L 618.924366 -208.791705 
L 619.124752 -206.173523 
L 619.321014 -203.555341 
L 619.507766 -200.937159 
L 619.68301 -198.318977 
L 619.849014 -195.700795 
L 620.01179 -193.082614 
L 620.179224 -190.464432 
L 620.358587 -187.84625 
L 620.554513 -185.228068 
L 620.76837 -182.609886 
L 620.999208 -179.991705 
L 621.245682 -177.373523 
L 621.507912 -174.755341 
L 621.788342 -172.137159 
L 622.091312 -169.518977 
L 622.421709 -166.900795 
L 622.783424 -164.282614 
L 623.178263 -161.664432 
L 623.60564 -159.04625 
L 624.062993 -156.428068 
L 624.546778 -153.809886 
L 625.053848 -151.191705 
L 625.583048 -148.573523 
L 626.136708 -145.955341 
L 626.721535 -143.337159 
L 627.34829 -140.718977 
L 628.029896 -138.100795 
L 628.778023 -135.482614 
L 629.598768 -132.864432 
L 630.488313 -130.24625 
L 631.429357 -127.628068 
L 632.38872 -125.009886 
L 633.31618 -122.391705 
L 634.144631 -119.773523 
L 634.792183 -117.155341 
L 635.16753 -114.537159 
L 635.18 -111.918977 
L 634.754609 -109.300795 
L 633.850077 -106.682614 
L 632.4751 -104.064432 
L 630.696789 -101.44625 
z
" id="m306e033a2a" style="stroke:#000000;stroke-opacity:0.3;"/>
    </defs>
    <g clip-path="url(#p572ea39000)">
     <use style="fill:#bfbf00;fill-opacity:0.3;stroke:#000000;stroke-opacity:0.3;" x="0.0" xlink:href="#m306e033a2a" y="465.868"/>
    </g>
   </g>
   <g id="LineCollection_1">
    <path clip-path="url(#p572ea39000)" d="M 86.48 338.50175 
L 105.08 338.50175 
" style="fill:none;stroke:#ff0000;"/>
    <path clip-path="url(#p572ea39000)" d="M 160.88 334.18175 
L 179.48 334.18175 
" style="fill:none;stroke:#ff0000;"/>
    <path clip-path="url(#p572ea39000)" d="M 235.28 338.50175 
L 253.88 338.50175 
" style="fill:none;stroke:#ff0000;"/>
    <path clip-path="url(#p572ea39000)" d="M 309.68 338.50175 
L 328.28 338.50175 
" style="fill:none;stroke:#ff0000;"/>
    <path clip-path="url(#p572ea39000)" d="M 384.08 338.50175 
L 402.68 338.50175 
" style="fill:none;stroke:#ff0000;"/>
    <path clip-path="url(#p572ea39000)" d="M 458.48 338.50175 
L 477.08 338.50175 
" style="fill:none;stroke:#ff0000;"/>
    <path clip-path="url(#p572ea39000)" d="M 532.88 338.50175 
L 551.48 338.50175 
" style="fill:none;stroke:#ff0000;"/>
    <path clip-path="url(#p572ea39000)" d="M 607.28 338.50175 
L 625.88 338.50175 
" style="fill:none;stroke:#ff0000;"/>
   </g>
   <g id="patch_3">
    <path d="M 21.38 23.14175 
L 690.98 23.14175 
" style="fill:none;stroke:#000000;stroke-linecap:square;stroke-linejoin:miter;"/>
   </g>
   <g id="patch_4">
    <path d="M 21.38 368.74175 
L 21.38 23.14175 
" style="fill:none;stroke:#000000;stroke-linecap:square;stroke-linejoin:miter;"/>
   </g>
   <g id="patch_5">
    <path d="M 690.98 368.74175 
L 690.98 23.14175 
" style="fill:none;stroke:#000000;stroke-linecap:square;stroke-linejoin:miter;"/>
   </g>
   <g id="patch_6">
    <path d="M 21.38 368.74175 
L 690.98 368.74175 
" style="fill:none;stroke:#000000;stroke-linecap:square;stroke-linejoin:miter;"/>
   </g>
   <g id="matplotlib.axis_1">
    <g id="xtick_1">
     <g id="line2d_1">
      <defs>
       <path d="M 0 0 
L 0 -4 
" id="md6dd18d552" style="stroke:#000000;stroke-width:0.5;"/>
      </defs>
      <g>
       <use style="stroke:#000000;stroke-width:0.5;" x="95.78" xlink:href="#md6dd18d552" y="368.74175"/>
      </g>
     </g>
     <g id="line2d_2">
      <defs>
       <path d="M 0 0 
L 0 4 
" id="mf933d39a6c" style="stroke:#000000;stroke-width:0.5;"/>
      </defs>
      <g>
       <use style="stroke:#000000;stroke-width:0.5;" x="95.78" xlink:href="#mf933d39a6c" y="23.14175"/>
      </g>
     </g>
     <g id="text_1">
      <!-- Defector -->
      <defs>
       <path d="M 56.203125 29.59375 
L 56.203125 25.203125 
L 14.890625 25.203125 
Q 15.484375 15.921875 20.484375 11.0625 
Q 25.484375 6.203125 34.421875 6.203125 
Q 39.59375 6.203125 44.453125 7.46875 
Q 49.3125 8.734375 54.109375 11.28125 
L 54.109375 2.78125 
Q 49.265625 0.734375 44.1875 -0.34375 
Q 39.109375 -1.421875 33.890625 -1.421875 
Q 20.796875 -1.421875 13.15625 6.1875 
Q 5.515625 13.8125 5.515625 26.8125 
Q 5.515625 40.234375 12.765625 48.109375 
Q 20.015625 56 32.328125 56 
Q 43.359375 56 49.78125 48.890625 
Q 56.203125 41.796875 56.203125 29.59375 
M 47.21875 32.234375 
Q 47.125 39.59375 43.09375 43.984375 
Q 39.0625 48.390625 32.421875 48.390625 
Q 24.90625 48.390625 20.390625 44.140625 
Q 15.875 39.890625 15.1875 32.171875 
z
" id="BitstreamVeraSans-Roman-65"/>
       <path d="M 37.109375 75.984375 
L 37.109375 68.5 
L 28.515625 68.5 
Q 23.6875 68.5 21.796875 66.546875 
Q 19.921875 64.59375 19.921875 59.515625 
L 19.921875 54.6875 
L 34.71875 54.6875 
L 34.71875 47.703125 
L 19.921875 47.703125 
L 19.921875 0 
L 10.890625 0 
L 10.890625 47.703125 
L 2.296875 47.703125 
L 2.296875 54.6875 
L 10.890625 54.6875 
L 10.890625 58.5 
Q 10.890625 67.625 15.140625 71.796875 
Q 19.390625 75.984375 28.609375 75.984375 
z
" id="BitstreamVeraSans-Roman-66"/>
       <path d="M 30.609375 48.390625 
Q 23.390625 48.390625 19.1875 42.75 
Q 14.984375 37.109375 14.984375 27.296875 
Q 14.984375 17.484375 19.15625 11.84375 
Q 23.34375 6.203125 30.609375 6.203125 
Q 37.796875 6.203125 41.984375 11.859375 
Q 46.1875 17.53125 46.1875 27.296875 
Q 46.1875 37.015625 41.984375 42.703125 
Q 37.796875 48.390625 30.609375 48.390625 
M 30.609375 56 
Q 42.328125 56 49.015625 48.375 
Q 55.71875 40.765625 55.71875 27.296875 
Q 55.71875 13.875 49.015625 6.21875 
Q 42.328125 -1.421875 30.609375 -1.421875 
Q 18.84375 -1.421875 12.171875 6.21875 
Q 5.515625 13.875 5.515625 27.296875 
Q 5.515625 40.765625 12.171875 48.375 
Q 18.84375 56 30.609375 56 
" id="BitstreamVeraSans-Roman-6f"/>
       <path d="M 18.3125 70.21875 
L 18.3125 54.6875 
L 36.8125 54.6875 
L 36.8125 47.703125 
L 18.3125 47.703125 
L 18.3125 18.015625 
Q 18.3125 11.328125 20.140625 9.421875 
Q 21.96875 7.515625 27.59375 7.515625 
L 36.8125 7.515625 
L 36.8125 0 
L 27.59375 0 
Q 17.1875 0 13.234375 3.875 
Q 9.28125 7.765625 9.28125 18.015625 
L 9.28125 47.703125 
L 2.6875 47.703125 
L 2.6875 54.6875 
L 9.28125 54.6875 
L 9.28125 70.21875 
z
" id="BitstreamVeraSans-Roman-74"/>
       <path d="M 19.671875 64.796875 
L 19.671875 8.109375 
L 31.59375 8.109375 
Q 46.6875 8.109375 53.6875 14.9375 
Q 60.6875 21.78125 60.6875 36.53125 
Q 60.6875 51.171875 53.6875 57.984375 
Q 46.6875 64.796875 31.59375 64.796875 
z
M 9.8125 72.90625 
L 30.078125 72.90625 
Q 51.265625 72.90625 61.171875 64.09375 
Q 71.09375 55.28125 71.09375 36.53125 
Q 71.09375 17.671875 61.125 8.828125 
Q 51.171875 0 30.078125 0 
L 9.8125 0 
z
" id="BitstreamVeraSans-Roman-44"/>
       <path d="M 41.109375 46.296875 
Q 39.59375 47.171875 37.8125 47.578125 
Q 36.03125 48 33.890625 48 
Q 26.265625 48 22.1875 43.046875 
Q 18.109375 38.09375 18.109375 28.8125 
L 18.109375 0 
L 9.078125 0 
L 9.078125 54.6875 
L 18.109375 54.6875 
L 18.109375 46.1875 
Q 20.953125 51.171875 25.484375 53.578125 
Q 30.03125 56 36.53125 56 
Q 37.453125 56 38.578125 55.875 
Q 39.703125 55.765625 41.0625 55.515625 
z
" id="BitstreamVeraSans-Roman-72"/>
       <path d="M 48.78125 52.59375 
L 48.78125 44.1875 
Q 44.96875 46.296875 41.140625 47.34375 
Q 37.3125 48.390625 33.40625 48.390625 
Q 24.65625 48.390625 19.8125 42.84375 
Q 14.984375 37.3125 14.984375 27.296875 
Q 14.984375 17.28125 19.8125 11.734375 
Q 24.65625 6.203125 33.40625 6.203125 
Q 37.3125 6.203125 41.140625 7.25 
Q 44.96875 8.296875 48.78125 10.40625 
L 48.78125 2.09375 
Q 45.015625 0.34375 40.984375 -0.53125 
Q 36.96875 -1.421875 32.421875 -1.421875 
Q 20.0625 -1.421875 12.78125 6.34375 
Q 5.515625 14.109375 5.515625 27.296875 
Q 5.515625 40.671875 12.859375 48.328125 
Q 20.21875 56 33.015625 56 
Q 37.15625 56 41.109375 55.140625 
Q 45.0625 54.296875 48.78125 52.59375 
" id="BitstreamVeraSans-Roman-63"/>
      </defs>
      <g transform="translate(97.9875 407.28175)rotate(-90.0)scale(0.08 -0.08)">
       <use xlink:href="#BitstreamVeraSans-Roman-44"/>
       <use x="77.001953125" xlink:href="#BitstreamVeraSans-Roman-65"/>
       <use x="138.525390625" xlink:href="#BitstreamVeraSans-Roman-66"/>
       <use x="173.73046875" xlink:href="#BitstreamVeraSans-Roman-65"/>
       <use x="235.25390625" xlink:href="#BitstreamVeraSans-Roman-63"/>
       <use x="290.234375" xlink:href="#BitstreamVeraSans-Roman-74"/>
       <use x="329.443359375" xlink:href="#BitstreamVeraSans-Roman-6f"/>
       <use x="390.625" xlink:href="#BitstreamVeraSans-Roman-72"/>
      </g>
     </g>
    </g>
    <g id="xtick_2">
     <g id="line2d_3">
      <g>
       <use style="stroke:#000000;stroke-width:0.5;" x="170.18" xlink:href="#md6dd18d552" y="368.74175"/>
      </g>
     </g>
     <g id="line2d_4">
      <g>
       <use style="stroke:#000000;stroke-width:0.5;" x="170.18" xlink:href="#mf933d39a6c" y="23.14175"/>
      </g>
     </g>
     <g id="text_2">
      <!-- Bully -->
      <defs>
       <path d="M 8.5 21.578125 
L 8.5 54.6875 
L 17.484375 54.6875 
L 17.484375 21.921875 
Q 17.484375 14.15625 20.5 10.265625 
Q 23.53125 6.390625 29.59375 6.390625 
Q 36.859375 6.390625 41.078125 11.03125 
Q 45.3125 15.671875 45.3125 23.6875 
L 45.3125 54.6875 
L 54.296875 54.6875 
L 54.296875 0 
L 45.3125 0 
L 45.3125 8.40625 
Q 42.046875 3.421875 37.71875 1 
Q 33.40625 -1.421875 27.6875 -1.421875 
Q 18.265625 -1.421875 13.375 4.4375 
Q 8.5 10.296875 8.5 21.578125 
" id="BitstreamVeraSans-Roman-75"/>
       <path d="M 9.421875 75.984375 
L 18.40625 75.984375 
L 18.40625 0 
L 9.421875 0 
z
" id="BitstreamVeraSans-Roman-6c"/>
       <path d="M 32.171875 -5.078125 
Q 28.375 -14.84375 24.75 -17.8125 
Q 21.140625 -20.796875 15.09375 -20.796875 
L 7.90625 -20.796875 
L 7.90625 -13.28125 
L 13.1875 -13.28125 
Q 16.890625 -13.28125 18.9375 -11.515625 
Q 21 -9.765625 23.484375 -3.21875 
L 25.09375 0.875 
L 2.984375 54.6875 
L 12.5 54.6875 
L 29.59375 11.921875 
L 46.6875 54.6875 
L 56.203125 54.6875 
z
" id="BitstreamVeraSans-Roman-79"/>
       <path d="M 19.671875 34.8125 
L 19.671875 8.109375 
L 35.5 8.109375 
Q 43.453125 8.109375 47.28125 11.40625 
Q 51.125 14.703125 51.125 21.484375 
Q 51.125 28.328125 47.28125 31.5625 
Q 43.453125 34.8125 35.5 34.8125 
z
M 19.671875 64.796875 
L 19.671875 42.828125 
L 34.28125 42.828125 
Q 41.5 42.828125 45.03125 45.53125 
Q 48.578125 48.25 48.578125 53.8125 
Q 48.578125 59.328125 45.03125 62.0625 
Q 41.5 64.796875 34.28125 64.796875 
z
M 9.8125 72.90625 
L 35.015625 72.90625 
Q 46.296875 72.90625 52.390625 68.21875 
Q 58.5 63.53125 58.5 54.890625 
Q 58.5 48.1875 55.375 44.234375 
Q 52.25 40.28125 46.1875 39.3125 
Q 53.46875 37.75 57.5 32.78125 
Q 61.53125 27.828125 61.53125 20.40625 
Q 61.53125 10.640625 54.890625 5.3125 
Q 48.25 0 35.984375 0 
L 9.8125 0 
z
" id="BitstreamVeraSans-Roman-42"/>
      </defs>
      <g transform="translate(172.3875 392.4805)rotate(-90.0)scale(0.08 -0.08)">
       <use xlink:href="#BitstreamVeraSans-Roman-42"/>
       <use x="68.603515625" xlink:href="#BitstreamVeraSans-Roman-75"/>
       <use x="131.982421875" xlink:href="#BitstreamVeraSans-Roman-6c"/>
       <use x="159.765625" xlink:href="#BitstreamVeraSans-Roman-6c"/>
       <use x="187.548828125" xlink:href="#BitstreamVeraSans-Roman-79"/>
      </g>
     </g>
    </g>
    <g id="xtick_3">
     <g id="line2d_5">
      <g>
       <use style="stroke:#000000;stroke-width:0.5;" x="244.58" xlink:href="#md6dd18d552" y="368.74175"/>
      </g>
     </g>
     <g id="line2d_6">
      <g>
       <use style="stroke:#000000;stroke-width:0.5;" x="244.58" xlink:href="#mf933d39a6c" y="23.14175"/>
      </g>
     </g>
     <g id="text_3">
      <!-- Suspicious Tit For Tat -->
      <defs>
       <path d="M 44.28125 53.078125 
L 44.28125 44.578125 
Q 40.484375 46.53125 36.375 47.5 
Q 32.28125 48.484375 27.875 48.484375 
Q 21.1875 48.484375 17.84375 46.4375 
Q 14.5 44.390625 14.5 40.28125 
Q 14.5 37.15625 16.890625 35.375 
Q 19.28125 33.59375 26.515625 31.984375 
L 29.59375 31.296875 
Q 39.15625 29.25 43.1875 25.515625 
Q 47.21875 21.78125 47.21875 15.09375 
Q 47.21875 7.46875 41.1875 3.015625 
Q 35.15625 -1.421875 24.609375 -1.421875 
Q 20.21875 -1.421875 15.453125 -0.5625 
Q 10.6875 0.296875 5.421875 2 
L 5.421875 11.28125 
Q 10.40625 8.6875 15.234375 7.390625 
Q 20.0625 6.109375 24.8125 6.109375 
Q 31.15625 6.109375 34.5625 8.28125 
Q 37.984375 10.453125 37.984375 14.40625 
Q 37.984375 18.0625 35.515625 20.015625 
Q 33.0625 21.96875 24.703125 23.78125 
L 21.578125 24.515625 
Q 13.234375 26.265625 9.515625 29.90625 
Q 5.8125 33.546875 5.8125 39.890625 
Q 5.8125 47.609375 11.28125 51.796875 
Q 16.75 56 26.8125 56 
Q 31.78125 56 36.171875 55.265625 
Q 40.578125 54.546875 44.28125 53.078125 
" id="BitstreamVeraSans-Roman-73"/>
       <path d="M 18.109375 8.203125 
L 18.109375 -20.796875 
L 9.078125 -20.796875 
L 9.078125 54.6875 
L 18.109375 54.6875 
L 18.109375 46.390625 
Q 20.953125 51.265625 25.265625 53.625 
Q 29.59375 56 35.59375 56 
Q 45.5625 56 51.78125 48.09375 
Q 58.015625 40.1875 58.015625 27.296875 
Q 58.015625 14.40625 51.78125 6.484375 
Q 45.5625 -1.421875 35.59375 -1.421875 
Q 29.59375 -1.421875 25.265625 0.953125 
Q 20.953125 3.328125 18.109375 8.203125 
M 48.6875 27.296875 
Q 48.6875 37.203125 44.609375 42.84375 
Q 40.53125 48.484375 33.40625 48.484375 
Q 26.265625 48.484375 22.1875 42.84375 
Q 18.109375 37.203125 18.109375 27.296875 
Q 18.109375 17.390625 22.1875 11.75 
Q 26.265625 6.109375 33.40625 6.109375 
Q 40.53125 6.109375 44.609375 11.75 
Q 48.6875 17.390625 48.6875 27.296875 
" id="BitstreamVeraSans-Roman-70"/>
       <path id="BitstreamVeraSans-Roman-20"/>
       <path d="M 53.515625 70.515625 
L 53.515625 60.890625 
Q 47.90625 63.578125 42.921875 64.890625 
Q 37.9375 66.21875 33.296875 66.21875 
Q 25.25 66.21875 20.875 63.09375 
Q 16.5 59.96875 16.5 54.203125 
Q 16.5 49.359375 19.40625 46.890625 
Q 22.3125 44.4375 30.421875 42.921875 
L 36.375 41.703125 
Q 47.40625 39.59375 52.65625 34.296875 
Q 57.90625 29 57.90625 20.125 
Q 57.90625 9.515625 50.796875 4.046875 
Q 43.703125 -1.421875 29.984375 -1.421875 
Q 24.8125 -1.421875 18.96875 -0.25 
Q 13.140625 0.921875 6.890625 3.21875 
L 6.890625 13.375 
Q 12.890625 10.015625 18.65625 8.296875 
Q 24.421875 6.59375 29.984375 6.59375 
Q 38.421875 6.59375 43.015625 9.90625 
Q 47.609375 13.234375 47.609375 19.390625 
Q 47.609375 24.75 44.3125 27.78125 
Q 41.015625 30.8125 33.5 32.328125 
L 27.484375 33.5 
Q 16.453125 35.6875 11.515625 40.375 
Q 6.59375 45.0625 6.59375 53.421875 
Q 6.59375 63.09375 13.40625 68.65625 
Q 20.21875 74.21875 32.171875 74.21875 
Q 37.3125 74.21875 42.625 73.28125 
Q 47.953125 72.359375 53.515625 70.515625 
" id="BitstreamVeraSans-Roman-53"/>
       <path d="M -0.296875 72.90625 
L 61.375 72.90625 
L 61.375 64.59375 
L 35.5 64.59375 
L 35.5 0 
L 25.59375 0 
L 25.59375 64.59375 
L -0.296875 64.59375 
z
" id="BitstreamVeraSans-Roman-54"/>
       <path d="M 9.8125 72.90625 
L 51.703125 72.90625 
L 51.703125 64.59375 
L 19.671875 64.59375 
L 19.671875 43.109375 
L 48.578125 43.109375 
L 48.578125 34.8125 
L 19.671875 34.8125 
L 19.671875 0 
L 9.8125 0 
z
" id="BitstreamVeraSans-Roman-46"/>
       <path d="M 34.28125 27.484375 
Q 23.390625 27.484375 19.1875 25 
Q 14.984375 22.515625 14.984375 16.5 
Q 14.984375 11.71875 18.140625 8.90625 
Q 21.296875 6.109375 26.703125 6.109375 
Q 34.1875 6.109375 38.703125 11.40625 
Q 43.21875 16.703125 43.21875 25.484375 
L 43.21875 27.484375 
z
M 52.203125 31.203125 
L 52.203125 0 
L 43.21875 0 
L 43.21875 8.296875 
Q 40.140625 3.328125 35.546875 0.953125 
Q 30.953125 -1.421875 24.3125 -1.421875 
Q 15.921875 -1.421875 10.953125 3.296875 
Q 6 8.015625 6 15.921875 
Q 6 25.140625 12.171875 29.828125 
Q 18.359375 34.515625 30.609375 34.515625 
L 43.21875 34.515625 
L 43.21875 35.40625 
Q 43.21875 41.609375 39.140625 45 
Q 35.0625 48.390625 27.6875 48.390625 
Q 23 48.390625 18.546875 47.265625 
Q 14.109375 46.140625 10.015625 43.890625 
L 10.015625 52.203125 
Q 14.9375 54.109375 19.578125 55.046875 
Q 24.21875 56 28.609375 56 
Q 40.484375 56 46.34375 49.84375 
Q 52.203125 43.703125 52.203125 31.203125 
" id="BitstreamVeraSans-Roman-61"/>
       <path d="M 9.421875 54.6875 
L 18.40625 54.6875 
L 18.40625 0 
L 9.421875 0 
z
M 9.421875 75.984375 
L 18.40625 75.984375 
L 18.40625 64.59375 
L 9.421875 64.59375 
z
" id="BitstreamVeraSans-Roman-69"/>
      </defs>
      <g transform="translate(246.7875 458.668)rotate(-90.0)scale(0.08 -0.08)">
       <use xlink:href="#BitstreamVeraSans-Roman-53"/>
       <use x="63.4765625" xlink:href="#BitstreamVeraSans-Roman-75"/>
       <use x="126.85546875" xlink:href="#BitstreamVeraSans-Roman-73"/>
       <use x="178.955078125" xlink:href="#BitstreamVeraSans-Roman-70"/>
       <use x="242.431640625" xlink:href="#BitstreamVeraSans-Roman-69"/>
       <use x="270.21484375" xlink:href="#BitstreamVeraSans-Roman-63"/>
       <use x="325.1953125" xlink:href="#BitstreamVeraSans-Roman-69"/>
       <use x="352.978515625" xlink:href="#BitstreamVeraSans-Roman-6f"/>
       <use x="414.16015625" xlink:href="#BitstreamVeraSans-Roman-75"/>
       <use x="477.5390625" xlink:href="#BitstreamVeraSans-Roman-73"/>
       <use x="529.638671875" xlink:href="#BitstreamVeraSans-Roman-20"/>
       <use x="561.42578125" xlink:href="#BitstreamVeraSans-Roman-54"/>
       <use x="622.462890625" xlink:href="#BitstreamVeraSans-Roman-69"/>
       <use x="650.24609375" xlink:href="#BitstreamVeraSans-Roman-74"/>
       <use x="689.455078125" xlink:href="#BitstreamVeraSans-Roman-20"/>
       <use x="721.2421875" xlink:href="#BitstreamVeraSans-Roman-46"/>
       <use x="778.71484375" xlink:href="#BitstreamVeraSans-Roman-6f"/>
       <use x="839.896484375" xlink:href="#BitstreamVeraSans-Roman-72"/>
       <use x="881.009765625" xlink:href="#BitstreamVeraSans-Roman-20"/>
       <use x="912.796875" xlink:href="#BitstreamVeraSans-Roman-54"/>
       <use x="973.630859375" xlink:href="#BitstreamVeraSans-Roman-61"/>
       <use x="1034.91015625" xlink:href="#BitstreamVeraSans-Roman-74"/>
      </g>
     </g>
    </g>
    <g id="xtick_4">
     <g id="line2d_7">
      <g>
       <use style="stroke:#000000;stroke-width:0.5;" x="318.98" xlink:href="#md6dd18d552" y="368.74175"/>
      </g>
     </g>
     <g id="line2d_8">
      <g>
       <use style="stroke:#000000;stroke-width:0.5;" x="318.98" xlink:href="#mf933d39a6c" y="23.14175"/>
      </g>
     </g>
     <g id="text_4">
      <!-- Tit For Tat -->
      <g transform="translate(321.1875 413.75425)rotate(-90.0)scale(0.08 -0.08)">
       <use xlink:href="#BitstreamVeraSans-Roman-54"/>
       <use x="61.037109375" xlink:href="#BitstreamVeraSans-Roman-69"/>
       <use x="88.8203125" xlink:href="#BitstreamVeraSans-Roman-74"/>
       <use x="128.029296875" xlink:href="#BitstreamVeraSans-Roman-20"/>
       <use x="159.81640625" xlink:href="#BitstreamVeraSans-Roman-46"/>
       <use x="217.2890625" xlink:href="#BitstreamVeraSans-Roman-6f"/>
       <use x="278.470703125" xlink:href="#BitstreamVeraSans-Roman-72"/>
       <use x="319.583984375" xlink:href="#BitstreamVeraSans-Roman-20"/>
       <use x="351.37109375" xlink:href="#BitstreamVeraSans-Roman-54"/>
       <use x="412.205078125" xlink:href="#BitstreamVeraSans-Roman-61"/>
       <use x="473.484375" xlink:href="#BitstreamVeraSans-Roman-74"/>
      </g>
     </g>
    </g>
    <g id="xtick_5">
     <g id="line2d_9">
      <g>
       <use style="stroke:#000000;stroke-width:0.5;" x="393.38" xlink:href="#md6dd18d552" y="368.74175"/>
      </g>
     </g>
     <g id="line2d_10">
      <g>
       <use style="stroke:#000000;stroke-width:0.5;" x="393.38" xlink:href="#mf933d39a6c" y="23.14175"/>
      </g>
     </g>
     <g id="text_5">
      <!-- Alternator -->
      <defs>
       <path d="M 34.1875 63.1875 
L 20.796875 26.90625 
L 47.609375 26.90625 
z
M 28.609375 72.90625 
L 39.796875 72.90625 
L 67.578125 0 
L 57.328125 0 
L 50.6875 18.703125 
L 17.828125 18.703125 
L 11.1875 0 
L 0.78125 0 
z
" id="BitstreamVeraSans-Roman-41"/>
       <path d="M 54.890625 33.015625 
L 54.890625 0 
L 45.90625 0 
L 45.90625 32.71875 
Q 45.90625 40.484375 42.875 44.328125 
Q 39.84375 48.1875 33.796875 48.1875 
Q 26.515625 48.1875 22.3125 43.546875 
Q 18.109375 38.921875 18.109375 30.90625 
L 18.109375 0 
L 9.078125 0 
L 9.078125 54.6875 
L 18.109375 54.6875 
L 18.109375 46.1875 
Q 21.34375 51.125 25.703125 53.5625 
Q 30.078125 56 35.796875 56 
Q 45.21875 56 50.046875 50.171875 
Q 54.890625 44.34375 54.890625 33.015625 
" id="BitstreamVeraSans-Roman-6e"/>
      </defs>
      <g transform="translate(395.5875 413.0755)rotate(-90.0)scale(0.08 -0.08)">
       <use xlink:href="#BitstreamVeraSans-Roman-41"/>
       <use x="68.408203125" xlink:href="#BitstreamVeraSans-Roman-6c"/>
       <use x="96.19140625" xlink:href="#BitstreamVeraSans-Roman-74"/>
       <use x="135.400390625" xlink:href="#BitstreamVeraSans-Roman-65"/>
       <use x="196.923828125" xlink:href="#BitstreamVeraSans-Roman-72"/>
       <use x="238.021484375" xlink:href="#BitstreamVeraSans-Roman-6e"/>
       <use x="301.400390625" xlink:href="#BitstreamVeraSans-Roman-61"/>
       <use x="362.6796875" xlink:href="#BitstreamVeraSans-Roman-74"/>
       <use x="401.888671875" xlink:href="#BitstreamVeraSans-Roman-6f"/>
       <use x="463.0703125" xlink:href="#BitstreamVeraSans-Roman-72"/>
      </g>
     </g>
    </g>
    <g id="xtick_6">
     <g id="line2d_11">
      <g>
       <use style="stroke:#000000;stroke-width:0.5;" x="467.78" xlink:href="#md6dd18d552" y="368.74175"/>
      </g>
     </g>
     <g id="line2d_12">
      <g>
       <use style="stroke:#000000;stroke-width:0.5;" x="467.78" xlink:href="#mf933d39a6c" y="23.14175"/>
      </g>
     </g>
     <g id="text_6">
      <!-- Anti Tit For Tat -->
      <g transform="translate(469.9875 432.198)rotate(-90.0)scale(0.08 -0.08)">
       <use xlink:href="#BitstreamVeraSans-Roman-41"/>
       <use x="68.408203125" xlink:href="#BitstreamVeraSans-Roman-6e"/>
       <use x="131.787109375" xlink:href="#BitstreamVeraSans-Roman-74"/>
       <use x="170.99609375" xlink:href="#BitstreamVeraSans-Roman-69"/>
       <use x="198.779296875" xlink:href="#BitstreamVeraSans-Roman-20"/>
       <use x="230.56640625" xlink:href="#BitstreamVeraSans-Roman-54"/>
       <use x="291.603515625" xlink:href="#BitstreamVeraSans-Roman-69"/>
       <use x="319.38671875" xlink:href="#BitstreamVeraSans-Roman-74"/>
       <use x="358.595703125" xlink:href="#BitstreamVeraSans-Roman-20"/>
       <use x="390.3828125" xlink:href="#BitstreamVeraSans-Roman-46"/>
       <use x="447.85546875" xlink:href="#BitstreamVeraSans-Roman-6f"/>
       <use x="509.037109375" xlink:href="#BitstreamVeraSans-Roman-72"/>
       <use x="550.150390625" xlink:href="#BitstreamVeraSans-Roman-20"/>
       <use x="581.9375" xlink:href="#BitstreamVeraSans-Roman-54"/>
       <use x="642.771484375" xlink:href="#BitstreamVeraSans-Roman-61"/>
       <use x="704.05078125" xlink:href="#BitstreamVeraSans-Roman-74"/>
      </g>
     </g>
    </g>
    <g id="xtick_7">
     <g id="line2d_13">
      <g>
       <use style="stroke:#000000;stroke-width:0.5;" x="542.18" xlink:href="#md6dd18d552" y="368.74175"/>
      </g>
     </g>
     <g id="line2d_14">
      <g>
       <use style="stroke:#000000;stroke-width:0.5;" x="542.18" xlink:href="#mf933d39a6c" y="23.14175"/>
      </g>
     </g>
     <g id="text_7">
      <!-- Win-Stay Lose-Shift -->
      <defs>
       <path d="M 4.890625 31.390625 
L 31.203125 31.390625 
L 31.203125 23.390625 
L 4.890625 23.390625 
z
" id="BitstreamVeraSans-Roman-2d"/>
       <path d="M 54.890625 33.015625 
L 54.890625 0 
L 45.90625 0 
L 45.90625 32.71875 
Q 45.90625 40.484375 42.875 44.328125 
Q 39.84375 48.1875 33.796875 48.1875 
Q 26.515625 48.1875 22.3125 43.546875 
Q 18.109375 38.921875 18.109375 30.90625 
L 18.109375 0 
L 9.078125 0 
L 9.078125 75.984375 
L 18.109375 75.984375 
L 18.109375 46.1875 
Q 21.34375 51.125 25.703125 53.5625 
Q 30.078125 56 35.796875 56 
Q 45.21875 56 50.046875 50.171875 
Q 54.890625 44.34375 54.890625 33.015625 
" id="BitstreamVeraSans-Roman-68"/>
       <path d="M 3.328125 72.90625 
L 13.28125 72.90625 
L 28.609375 11.28125 
L 43.890625 72.90625 
L 54.984375 72.90625 
L 70.3125 11.28125 
L 85.59375 72.90625 
L 95.609375 72.90625 
L 77.296875 0 
L 64.890625 0 
L 49.515625 63.28125 
L 33.984375 0 
L 21.578125 0 
z
" id="BitstreamVeraSans-Roman-57"/>
       <path d="M 9.8125 72.90625 
L 19.671875 72.90625 
L 19.671875 8.296875 
L 55.171875 8.296875 
L 55.171875 0 
L 9.8125 0 
z
" id="BitstreamVeraSans-Roman-4c"/>
      </defs>
      <g transform="translate(544.3875 450.873)rotate(-90.0)scale(0.08 -0.08)">
       <use xlink:href="#BitstreamVeraSans-Roman-57"/>
       <use x="98.845703125" xlink:href="#BitstreamVeraSans-Roman-69"/>
       <use x="126.62890625" xlink:href="#BitstreamVeraSans-Roman-6e"/>
       <use x="190.0078125" xlink:href="#BitstreamVeraSans-Roman-2d"/>
       <use x="226.091796875" xlink:href="#BitstreamVeraSans-Roman-53"/>
       <use x="289.568359375" xlink:href="#BitstreamVeraSans-Roman-74"/>
       <use x="328.77734375" xlink:href="#BitstreamVeraSans-Roman-61"/>
       <use x="390.056640625" xlink:href="#BitstreamVeraSans-Roman-79"/>
       <use x="449.236328125" xlink:href="#BitstreamVeraSans-Roman-20"/>
       <use x="481.0234375" xlink:href="#BitstreamVeraSans-Roman-4c"/>
       <use x="536.720703125" xlink:href="#BitstreamVeraSans-Roman-6f"/>
       <use x="597.90234375" xlink:href="#BitstreamVeraSans-Roman-73"/>
       <use x="650.001953125" xlink:href="#BitstreamVeraSans-Roman-65"/>
       <use x="711.525390625" xlink:href="#BitstreamVeraSans-Roman-2d"/>
       <use x="747.609375" xlink:href="#BitstreamVeraSans-Roman-53"/>
       <use x="811.0859375" xlink:href="#BitstreamVeraSans-Roman-68"/>
       <use x="874.46484375" xlink:href="#BitstreamVeraSans-Roman-69"/>
       <use x="902.248046875" xlink:href="#BitstreamVeraSans-Roman-66"/>
       <use x="937.4375" xlink:href="#BitstreamVeraSans-Roman-74"/>
      </g>
     </g>
    </g>
    <g id="xtick_8">
     <g id="line2d_15">
      <g>
       <use style="stroke:#000000;stroke-width:0.5;" x="616.58" xlink:href="#md6dd18d552" y="368.74175"/>
      </g>
     </g>
     <g id="line2d_16">
      <g>
       <use style="stroke:#000000;stroke-width:0.5;" x="616.58" xlink:href="#mf933d39a6c" y="23.14175"/>
      </g>
     </g>
     <g id="text_8">
      <!-- Cooperator -->
      <defs>
       <path d="M 64.40625 67.28125 
L 64.40625 56.890625 
Q 59.421875 61.53125 53.78125 63.8125 
Q 48.140625 66.109375 41.796875 66.109375 
Q 29.296875 66.109375 22.65625 58.46875 
Q 16.015625 50.828125 16.015625 36.375 
Q 16.015625 21.96875 22.65625 14.328125 
Q 29.296875 6.6875 41.796875 6.6875 
Q 48.140625 6.6875 53.78125 8.984375 
Q 59.421875 11.28125 64.40625 15.921875 
L 64.40625 5.609375 
Q 59.234375 2.09375 53.4375 0.328125 
Q 47.65625 -1.421875 41.21875 -1.421875 
Q 24.65625 -1.421875 15.125 8.703125 
Q 5.609375 18.84375 5.609375 36.375 
Q 5.609375 53.953125 15.125 64.078125 
Q 24.65625 74.21875 41.21875 74.21875 
Q 47.75 74.21875 53.53125 72.484375 
Q 59.328125 70.75 64.40625 67.28125 
" id="BitstreamVeraSans-Roman-43"/>
      </defs>
      <g transform="translate(618.7875 417.6305)rotate(-90.0)scale(0.08 -0.08)">
       <use xlink:href="#BitstreamVeraSans-Roman-43"/>
       <use x="69.82421875" xlink:href="#BitstreamVeraSans-Roman-6f"/>
       <use x="131.005859375" xlink:href="#BitstreamVeraSans-Roman-6f"/>
       <use x="192.1875" xlink:href="#BitstreamVeraSans-Roman-70"/>
       <use x="255.6640625" xlink:href="#BitstreamVeraSans-Roman-65"/>
       <use x="317.1875" xlink:href="#BitstreamVeraSans-Roman-72"/>
       <use x="358.30078125" xlink:href="#BitstreamVeraSans-Roman-61"/>
       <use x="419.580078125" xlink:href="#BitstreamVeraSans-Roman-74"/>
       <use x="458.7890625" xlink:href="#BitstreamVeraSans-Roman-6f"/>
       <use x="519.970703125" xlink:href="#BitstreamVeraSans-Roman-72"/>
      </g>
     </g>
    </g>
   </g>
   <g id="matplotlib.axis_2">
    <g id="ytick_1">
     <g id="line2d_17">
      <defs>
       <path d="M 0 0 
L 4 0 
" id="m2760e96917" style="stroke:#000000;stroke-width:0.5;"/>
      </defs>
      <g>
       <use style="stroke:#000000;stroke-width:0.5;" x="21.38" xlink:href="#m2760e96917" y="368.74175"/>
      </g>
     </g>
     <g id="line2d_18">
      <defs>
       <path d="M 0 0 
L -4 0 
" id="m33c7c2f446" style="stroke:#000000;stroke-width:0.5;"/>
      </defs>
      <g>
       <use style="stroke:#000000;stroke-width:0.5;" x="690.98" xlink:href="#m33c7c2f446" y="368.74175"/>
      </g>
     </g>
     <g id="text_9">
      <!-- 0 -->
      <defs>
       <path d="M 31.78125 66.40625 
Q 24.171875 66.40625 20.328125 58.90625 
Q 16.5 51.421875 16.5 36.375 
Q 16.5 21.390625 20.328125 13.890625 
Q 24.171875 6.390625 31.78125 6.390625 
Q 39.453125 6.390625 43.28125 13.890625 
Q 47.125 21.390625 47.125 36.375 
Q 47.125 51.421875 43.28125 58.90625 
Q 39.453125 66.40625 31.78125 66.40625 
M 31.78125 74.21875 
Q 44.046875 74.21875 50.515625 64.515625 
Q 56.984375 54.828125 56.984375 36.375 
Q 56.984375 17.96875 50.515625 8.265625 
Q 44.046875 -1.421875 31.78125 -1.421875 
Q 19.53125 -1.421875 13.0625 8.265625 
Q 6.59375 17.96875 6.59375 36.375 
Q 6.59375 54.828125 13.0625 64.515625 
Q 19.53125 74.21875 31.78125 74.21875 
" id="BitstreamVeraSans-Roman-30"/>
      </defs>
      <g transform="translate(12.29 370.94925)scale(0.08 -0.08)">
       <use xlink:href="#BitstreamVeraSans-Roman-30"/>
      </g>
     </g>
    </g>
    <g id="ytick_2">
     <g id="line2d_19">
      <g>
       <use style="stroke:#000000;stroke-width:0.5;" x="21.38" xlink:href="#m2760e96917" y="325.54175"/>
      </g>
     </g>
     <g id="line2d_20">
      <g>
       <use style="stroke:#000000;stroke-width:0.5;" x="690.98" xlink:href="#m33c7c2f446" y="325.54175"/>
      </g>
     </g>
     <g id="text_10">
      <!-- 10 -->
      <defs>
       <path d="M 12.40625 8.296875 
L 28.515625 8.296875 
L 28.515625 63.921875 
L 10.984375 60.40625 
L 10.984375 69.390625 
L 28.421875 72.90625 
L 38.28125 72.90625 
L 38.28125 8.296875 
L 54.390625 8.296875 
L 54.390625 0 
L 12.40625 0 
z
" id="BitstreamVeraSans-Roman-31"/>
      </defs>
      <g transform="translate(7.2 327.74925)scale(0.08 -0.08)">
       <use xlink:href="#BitstreamVeraSans-Roman-31"/>
       <use x="63.623046875" xlink:href="#BitstreamVeraSans-Roman-30"/>
      </g>
     </g>
    </g>
    <g id="ytick_3">
     <g id="line2d_21">
      <g>
       <use style="stroke:#000000;stroke-width:0.5;" x="21.38" xlink:href="#m2760e96917" y="282.34175"/>
      </g>
     </g>
     <g id="line2d_22">
      <g>
       <use style="stroke:#000000;stroke-width:0.5;" x="690.98" xlink:href="#m33c7c2f446" y="282.34175"/>
      </g>
     </g>
     <g id="text_11">
      <!-- 20 -->
      <defs>
       <path d="M 19.1875 8.296875 
L 53.609375 8.296875 
L 53.609375 0 
L 7.328125 0 
L 7.328125 8.296875 
Q 12.9375 14.109375 22.625 23.890625 
Q 32.328125 33.6875 34.8125 36.53125 
Q 39.546875 41.84375 41.421875 45.53125 
Q 43.3125 49.21875 43.3125 52.78125 
Q 43.3125 58.59375 39.234375 62.25 
Q 35.15625 65.921875 28.609375 65.921875 
Q 23.96875 65.921875 18.8125 64.3125 
Q 13.671875 62.703125 7.8125 59.421875 
L 7.8125 69.390625 
Q 13.765625 71.78125 18.9375 73 
Q 24.125 74.21875 28.421875 74.21875 
Q 39.75 74.21875 46.484375 68.546875 
Q 53.21875 62.890625 53.21875 53.421875 
Q 53.21875 48.921875 51.53125 44.890625 
Q 49.859375 40.875 45.40625 35.40625 
Q 44.1875 33.984375 37.640625 27.21875 
Q 31.109375 20.453125 19.1875 8.296875 
" id="BitstreamVeraSans-Roman-32"/>
      </defs>
      <g transform="translate(7.2 284.54925)scale(0.08 -0.08)">
       <use xlink:href="#BitstreamVeraSans-Roman-32"/>
       <use x="63.623046875" xlink:href="#BitstreamVeraSans-Roman-30"/>
      </g>
     </g>
    </g>
    <g id="ytick_4">
     <g id="line2d_23">
      <g>
       <use style="stroke:#000000;stroke-width:0.5;" x="21.38" xlink:href="#m2760e96917" y="239.14175"/>
      </g>
     </g>
     <g id="line2d_24">
      <g>
       <use style="stroke:#000000;stroke-width:0.5;" x="690.98" xlink:href="#m33c7c2f446" y="239.14175"/>
      </g>
     </g>
     <g id="text_12">
      <!-- 30 -->
      <defs>
       <path d="M 40.578125 39.3125 
Q 47.65625 37.796875 51.625 33 
Q 55.609375 28.21875 55.609375 21.1875 
Q 55.609375 10.40625 48.1875 4.484375 
Q 40.765625 -1.421875 27.09375 -1.421875 
Q 22.515625 -1.421875 17.65625 -0.515625 
Q 12.796875 0.390625 7.625 2.203125 
L 7.625 11.71875 
Q 11.71875 9.328125 16.59375 8.109375 
Q 21.484375 6.890625 26.8125 6.890625 
Q 36.078125 6.890625 40.9375 10.546875 
Q 45.796875 14.203125 45.796875 21.1875 
Q 45.796875 27.640625 41.28125 31.265625 
Q 36.765625 34.90625 28.71875 34.90625 
L 20.21875 34.90625 
L 20.21875 43.015625 
L 29.109375 43.015625 
Q 36.375 43.015625 40.234375 45.921875 
Q 44.09375 48.828125 44.09375 54.296875 
Q 44.09375 59.90625 40.109375 62.90625 
Q 36.140625 65.921875 28.71875 65.921875 
Q 24.65625 65.921875 20.015625 65.03125 
Q 15.375 64.15625 9.8125 62.3125 
L 9.8125 71.09375 
Q 15.4375 72.65625 20.34375 73.4375 
Q 25.25 74.21875 29.59375 74.21875 
Q 40.828125 74.21875 47.359375 69.109375 
Q 53.90625 64.015625 53.90625 55.328125 
Q 53.90625 49.265625 50.4375 45.09375 
Q 46.96875 40.921875 40.578125 39.3125 
" id="BitstreamVeraSans-Roman-33"/>
      </defs>
      <g transform="translate(7.2 241.34925)scale(0.08 -0.08)">
       <use xlink:href="#BitstreamVeraSans-Roman-33"/>
       <use x="63.623046875" xlink:href="#BitstreamVeraSans-Roman-30"/>
      </g>
     </g>
    </g>
    <g id="ytick_5">
     <g id="line2d_25">
      <g>
       <use style="stroke:#000000;stroke-width:0.5;" x="21.38" xlink:href="#m2760e96917" y="195.94175"/>
      </g>
     </g>
     <g id="line2d_26">
      <g>
       <use style="stroke:#000000;stroke-width:0.5;" x="690.98" xlink:href="#m33c7c2f446" y="195.94175"/>
      </g>
     </g>
     <g id="text_13">
      <!-- 40 -->
      <defs>
       <path d="M 37.796875 64.3125 
L 12.890625 25.390625 
L 37.796875 25.390625 
z
M 35.203125 72.90625 
L 47.609375 72.90625 
L 47.609375 25.390625 
L 58.015625 25.390625 
L 58.015625 17.1875 
L 47.609375 17.1875 
L 47.609375 0 
L 37.796875 0 
L 37.796875 17.1875 
L 4.890625 17.1875 
L 4.890625 26.703125 
z
" id="BitstreamVeraSans-Roman-34"/>
      </defs>
      <g transform="translate(7.2 198.14925)scale(0.08 -0.08)">
       <use xlink:href="#BitstreamVeraSans-Roman-34"/>
       <use x="63.623046875" xlink:href="#BitstreamVeraSans-Roman-30"/>
      </g>
     </g>
    </g>
    <g id="ytick_6">
     <g id="line2d_27">
      <g>
       <use style="stroke:#000000;stroke-width:0.5;" x="21.38" xlink:href="#m2760e96917" y="152.74175"/>
      </g>
     </g>
     <g id="line2d_28">
      <g>
       <use style="stroke:#000000;stroke-width:0.5;" x="690.98" xlink:href="#m33c7c2f446" y="152.74175"/>
      </g>
     </g>
     <g id="text_14">
      <!-- 50 -->
      <defs>
       <path d="M 10.796875 72.90625 
L 49.515625 72.90625 
L 49.515625 64.59375 
L 19.828125 64.59375 
L 19.828125 46.734375 
Q 21.96875 47.46875 24.109375 47.828125 
Q 26.265625 48.1875 28.421875 48.1875 
Q 40.625 48.1875 47.75 41.5 
Q 54.890625 34.8125 54.890625 23.390625 
Q 54.890625 11.625 47.5625 5.09375 
Q 40.234375 -1.421875 26.90625 -1.421875 
Q 22.3125 -1.421875 17.546875 -0.640625 
Q 12.796875 0.140625 7.71875 1.703125 
L 7.71875 11.625 
Q 12.109375 9.234375 16.796875 8.0625 
Q 21.484375 6.890625 26.703125 6.890625 
Q 35.15625 6.890625 40.078125 11.328125 
Q 45.015625 15.765625 45.015625 23.390625 
Q 45.015625 31 40.078125 35.4375 
Q 35.15625 39.890625 26.703125 39.890625 
Q 22.75 39.890625 18.8125 39.015625 
Q 14.890625 38.140625 10.796875 36.28125 
z
" id="BitstreamVeraSans-Roman-35"/>
      </defs>
      <g transform="translate(7.2 154.94925)scale(0.08 -0.08)">
       <use xlink:href="#BitstreamVeraSans-Roman-35"/>
       <use x="63.623046875" xlink:href="#BitstreamVeraSans-Roman-30"/>
      </g>
     </g>
    </g>
    <g id="ytick_7">
     <g id="line2d_29">
      <g>
       <use style="stroke:#000000;stroke-width:0.5;" x="21.38" xlink:href="#m2760e96917" y="109.54175"/>
      </g>
     </g>
     <g id="line2d_30">
      <g>
       <use style="stroke:#000000;stroke-width:0.5;" x="690.98" xlink:href="#m33c7c2f446" y="109.54175"/>
      </g>
     </g>
     <g id="text_15">
      <!-- 60 -->
      <defs>
       <path d="M 33.015625 40.375 
Q 26.375 40.375 22.484375 35.828125 
Q 18.609375 31.296875 18.609375 23.390625 
Q 18.609375 15.53125 22.484375 10.953125 
Q 26.375 6.390625 33.015625 6.390625 
Q 39.65625 6.390625 43.53125 10.953125 
Q 47.40625 15.53125 47.40625 23.390625 
Q 47.40625 31.296875 43.53125 35.828125 
Q 39.65625 40.375 33.015625 40.375 
M 52.59375 71.296875 
L 52.59375 62.3125 
Q 48.875 64.0625 45.09375 64.984375 
Q 41.3125 65.921875 37.59375 65.921875 
Q 27.828125 65.921875 22.671875 59.328125 
Q 17.53125 52.734375 16.796875 39.40625 
Q 19.671875 43.65625 24.015625 45.921875 
Q 28.375 48.1875 33.59375 48.1875 
Q 44.578125 48.1875 50.953125 41.515625 
Q 57.328125 34.859375 57.328125 23.390625 
Q 57.328125 12.15625 50.6875 5.359375 
Q 44.046875 -1.421875 33.015625 -1.421875 
Q 20.359375 -1.421875 13.671875 8.265625 
Q 6.984375 17.96875 6.984375 36.375 
Q 6.984375 53.65625 15.1875 63.9375 
Q 23.390625 74.21875 37.203125 74.21875 
Q 40.921875 74.21875 44.703125 73.484375 
Q 48.484375 72.75 52.59375 71.296875 
" id="BitstreamVeraSans-Roman-36"/>
      </defs>
      <g transform="translate(7.2 111.74925)scale(0.08 -0.08)">
       <use xlink:href="#BitstreamVeraSans-Roman-36"/>
       <use x="63.623046875" xlink:href="#BitstreamVeraSans-Roman-30"/>
      </g>
     </g>
    </g>
    <g id="ytick_8">
     <g id="line2d_31">
      <g>
       <use style="stroke:#000000;stroke-width:0.5;" x="21.38" xlink:href="#m2760e96917" y="66.34175"/>
      </g>
     </g>
     <g id="line2d_32">
      <g>
       <use style="stroke:#000000;stroke-width:0.5;" x="690.98" xlink:href="#m33c7c2f446" y="66.34175"/>
      </g>
     </g>
     <g id="text_16">
      <!-- 70 -->
      <defs>
       <path d="M 8.203125 72.90625 
L 55.078125 72.90625 
L 55.078125 68.703125 
L 28.609375 0 
L 18.3125 0 
L 43.21875 64.59375 
L 8.203125 64.59375 
z
" id="BitstreamVeraSans-Roman-37"/>
      </defs>
      <g transform="translate(7.2 68.54925)scale(0.08 -0.08)">
       <use xlink:href="#BitstreamVeraSans-Roman-37"/>
       <use x="63.623046875" xlink:href="#BitstreamVeraSans-Roman-30"/>
      </g>
     </g>
    </g>
    <g id="ytick_9">
     <g id="line2d_33">
      <g>
       <use style="stroke:#000000;stroke-width:0.5;" x="21.38" xlink:href="#m2760e96917" y="23.14175"/>
      </g>
     </g>
     <g id="line2d_34">
      <g>
       <use style="stroke:#000000;stroke-width:0.5;" x="690.98" xlink:href="#m33c7c2f446" y="23.14175"/>
      </g>
     </g>
     <g id="text_17">
      <!-- 80 -->
      <defs>
       <path d="M 31.78125 34.625 
Q 24.75 34.625 20.71875 30.859375 
Q 16.703125 27.09375 16.703125 20.515625 
Q 16.703125 13.921875 20.71875 10.15625 
Q 24.75 6.390625 31.78125 6.390625 
Q 38.8125 6.390625 42.859375 10.171875 
Q 46.921875 13.96875 46.921875 20.515625 
Q 46.921875 27.09375 42.890625 30.859375 
Q 38.875 34.625 31.78125 34.625 
M 21.921875 38.8125 
Q 15.578125 40.375 12.03125 44.71875 
Q 8.5 49.078125 8.5 55.328125 
Q 8.5 64.0625 14.71875 69.140625 
Q 20.953125 74.21875 31.78125 74.21875 
Q 42.671875 74.21875 48.875 69.140625 
Q 55.078125 64.0625 55.078125 55.328125 
Q 55.078125 49.078125 51.53125 44.71875 
Q 48 40.375 41.703125 38.8125 
Q 48.828125 37.15625 52.796875 32.3125 
Q 56.78125 27.484375 56.78125 20.515625 
Q 56.78125 9.90625 50.3125 4.234375 
Q 43.84375 -1.421875 31.78125 -1.421875 
Q 19.734375 -1.421875 13.25 4.234375 
Q 6.78125 9.90625 6.78125 20.515625 
Q 6.78125 27.484375 10.78125 32.3125 
Q 14.796875 37.15625 21.921875 38.8125 
M 18.3125 54.390625 
Q 18.3125 48.734375 21.84375 45.5625 
Q 25.390625 42.390625 31.78125 42.390625 
Q 38.140625 42.390625 41.71875 45.5625 
Q 45.3125 48.734375 45.3125 54.390625 
Q 45.3125 60.0625 41.71875 63.234375 
Q 38.140625 66.40625 31.78125 66.40625 
Q 25.390625 66.40625 21.84375 63.234375 
Q 18.3125 60.0625 18.3125 54.390625 
" id="BitstreamVeraSans-Roman-38"/>
      </defs>
      <g transform="translate(7.2 25.34925)scale(0.08 -0.08)">
       <use xlink:href="#BitstreamVeraSans-Roman-38"/>
       <use x="63.623046875" xlink:href="#BitstreamVeraSans-Roman-30"/>
      </g>
     </g>
    </g>
   </g>
   <g id="text_18">
    <!-- Lengths. Prob end: 0.1, Repetitions: 100, Strategies: 8. -->
    <defs>
     <path d="M 45.40625 27.984375 
Q 45.40625 37.75 41.375 43.109375 
Q 37.359375 48.484375 30.078125 48.484375 
Q 22.859375 48.484375 18.828125 43.109375 
Q 14.796875 37.75 14.796875 27.984375 
Q 14.796875 18.265625 18.828125 12.890625 
Q 22.859375 7.515625 30.078125 7.515625 
Q 37.359375 7.515625 41.375 12.890625 
Q 45.40625 18.265625 45.40625 27.984375 
M 54.390625 6.78125 
Q 54.390625 -7.171875 48.1875 -13.984375 
Q 42 -20.796875 29.203125 -20.796875 
Q 24.46875 -20.796875 20.265625 -20.09375 
Q 16.0625 -19.390625 12.109375 -17.921875 
L 12.109375 -9.1875 
Q 16.0625 -11.328125 19.921875 -12.34375 
Q 23.78125 -13.375 27.78125 -13.375 
Q 36.625 -13.375 41.015625 -8.765625 
Q 45.40625 -4.15625 45.40625 5.171875 
L 45.40625 9.625 
Q 42.625 4.78125 38.28125 2.390625 
Q 33.9375 0 27.875 0 
Q 17.828125 0 11.671875 7.65625 
Q 5.515625 15.328125 5.515625 27.984375 
Q 5.515625 40.671875 11.671875 48.328125 
Q 17.828125 56 27.875 56 
Q 33.9375 56 38.28125 53.609375 
Q 42.625 51.21875 45.40625 46.390625 
L 45.40625 54.6875 
L 54.390625 54.6875 
z
" id="BitstreamVeraSans-Roman-67"/>
     <path d="M 11.71875 12.40625 
L 22.015625 12.40625 
L 22.015625 0 
L 11.71875 0 
z
M 11.71875 51.703125 
L 22.015625 51.703125 
L 22.015625 39.3125 
L 11.71875 39.3125 
z
" id="BitstreamVeraSans-Roman-3a"/>
     <path d="M 11.71875 12.40625 
L 22.015625 12.40625 
L 22.015625 4 
L 14.015625 -11.625 
L 7.71875 -11.625 
L 11.71875 4 
z
" id="BitstreamVeraSans-Roman-2c"/>
     <path d="M 19.671875 64.796875 
L 19.671875 37.40625 
L 32.078125 37.40625 
Q 38.96875 37.40625 42.71875 40.96875 
Q 46.484375 44.53125 46.484375 51.125 
Q 46.484375 57.671875 42.71875 61.234375 
Q 38.96875 64.796875 32.078125 64.796875 
z
M 9.8125 72.90625 
L 32.078125 72.90625 
Q 44.34375 72.90625 50.609375 67.359375 
Q 56.890625 61.8125 56.890625 51.125 
Q 56.890625 40.328125 50.609375 34.8125 
Q 44.34375 29.296875 32.078125 29.296875 
L 19.671875 29.296875 
L 19.671875 0 
L 9.8125 0 
z
" id="BitstreamVeraSans-Roman-50"/>
     <path d="M 48.6875 27.296875 
Q 48.6875 37.203125 44.609375 42.84375 
Q 40.53125 48.484375 33.40625 48.484375 
Q 26.265625 48.484375 22.1875 42.84375 
Q 18.109375 37.203125 18.109375 27.296875 
Q 18.109375 17.390625 22.1875 11.75 
Q 26.265625 6.109375 33.40625 6.109375 
Q 40.53125 6.109375 44.609375 11.75 
Q 48.6875 17.390625 48.6875 27.296875 
M 18.109375 46.390625 
Q 20.953125 51.265625 25.265625 53.625 
Q 29.59375 56 35.59375 56 
Q 45.5625 56 51.78125 48.09375 
Q 58.015625 40.1875 58.015625 27.296875 
Q 58.015625 14.40625 51.78125 6.484375 
Q 45.5625 -1.421875 35.59375 -1.421875 
Q 29.59375 -1.421875 25.265625 0.953125 
Q 20.953125 3.328125 18.109375 8.203125 
L 18.109375 0 
L 9.078125 0 
L 9.078125 75.984375 
L 18.109375 75.984375 
z
" id="BitstreamVeraSans-Roman-62"/>
     <path d="M 44.390625 34.1875 
Q 47.5625 33.109375 50.5625 29.59375 
Q 53.5625 26.078125 56.59375 19.921875 
L 66.609375 0 
L 56 0 
L 46.6875 18.703125 
Q 43.0625 26.03125 39.671875 28.421875 
Q 36.28125 30.8125 30.421875 30.8125 
L 19.671875 30.8125 
L 19.671875 0 
L 9.8125 0 
L 9.8125 72.90625 
L 32.078125 72.90625 
Q 44.578125 72.90625 50.734375 67.671875 
Q 56.890625 62.453125 56.890625 51.90625 
Q 56.890625 45.015625 53.6875 40.46875 
Q 50.484375 35.9375 44.390625 34.1875 
M 19.671875 64.796875 
L 19.671875 38.921875 
L 32.078125 38.921875 
Q 39.203125 38.921875 42.84375 42.21875 
Q 46.484375 45.515625 46.484375 51.90625 
Q 46.484375 58.296875 42.84375 61.546875 
Q 39.203125 64.796875 32.078125 64.796875 
z
" id="BitstreamVeraSans-Roman-52"/>
     <path d="M 45.40625 46.390625 
L 45.40625 75.984375 
L 54.390625 75.984375 
L 54.390625 0 
L 45.40625 0 
L 45.40625 8.203125 
Q 42.578125 3.328125 38.25 0.953125 
Q 33.9375 -1.421875 27.875 -1.421875 
Q 17.96875 -1.421875 11.734375 6.484375 
Q 5.515625 14.40625 5.515625 27.296875 
Q 5.515625 40.1875 11.734375 48.09375 
Q 17.96875 56 27.875 56 
Q 33.9375 56 38.25 53.625 
Q 42.578125 51.265625 45.40625 46.390625 
M 14.796875 27.296875 
Q 14.796875 17.390625 18.875 11.75 
Q 22.953125 6.109375 30.078125 6.109375 
Q 37.203125 6.109375 41.296875 11.75 
Q 45.40625 17.390625 45.40625 27.296875 
Q 45.40625 37.203125 41.296875 42.84375 
Q 37.203125 48.484375 30.078125 48.484375 
Q 22.953125 48.484375 18.875 42.84375 
Q 14.796875 37.203125 14.796875 27.296875 
" id="BitstreamVeraSans-Roman-64"/>
     <path d="M 10.6875 12.40625 
L 21 12.40625 
L 21 0 
L 10.6875 0 
z
" id="BitstreamVeraSans-Roman-2e"/>
    </defs>
    <g transform="translate(157.843625 18.14175)scale(0.144 -0.144)">
     <use xlink:href="#BitstreamVeraSans-Roman-4c"/>
     <use x="55.697265625" xlink:href="#BitstreamVeraSans-Roman-65"/>
     <use x="117.220703125" xlink:href="#BitstreamVeraSans-Roman-6e"/>
     <use x="180.599609375" xlink:href="#BitstreamVeraSans-Roman-67"/>
     <use x="244.076171875" xlink:href="#BitstreamVeraSans-Roman-74"/>
     <use x="283.28515625" xlink:href="#BitstreamVeraSans-Roman-68"/>
     <use x="346.6640625" xlink:href="#BitstreamVeraSans-Roman-73"/>
     <use x="398.763671875" xlink:href="#BitstreamVeraSans-Roman-2e"/>
     <use x="430.55078125" xlink:href="#BitstreamVeraSans-Roman-20"/>
     <use x="462.337890625" xlink:href="#BitstreamVeraSans-Roman-50"/>
     <use x="522.625" xlink:href="#BitstreamVeraSans-Roman-72"/>
     <use x="563.70703125" xlink:href="#BitstreamVeraSans-Roman-6f"/>
     <use x="624.888671875" xlink:href="#BitstreamVeraSans-Roman-62"/>
     <use x="688.365234375" xlink:href="#BitstreamVeraSans-Roman-20"/>
     <use x="720.15234375" xlink:href="#BitstreamVeraSans-Roman-65"/>
     <use x="781.67578125" xlink:href="#BitstreamVeraSans-Roman-6e"/>
     <use x="845.0546875" xlink:href="#BitstreamVeraSans-Roman-64"/>
     <use x="908.53125" xlink:href="#BitstreamVeraSans-Roman-3a"/>
     <use x="942.22265625" xlink:href="#BitstreamVeraSans-Roman-20"/>
     <use x="974.009765625" xlink:href="#BitstreamVeraSans-Roman-30"/>
     <use x="1037.6328125" xlink:href="#BitstreamVeraSans-Roman-2e"/>
     <use x="1069.419921875" xlink:href="#BitstreamVeraSans-Roman-31"/>
     <use x="1133.04296875" xlink:href="#BitstreamVeraSans-Roman-2c"/>
     <use x="1164.830078125" xlink:href="#BitstreamVeraSans-Roman-20"/>
     <use x="1196.6171875" xlink:href="#BitstreamVeraSans-Roman-52"/>
     <use x="1266.037109375" xlink:href="#BitstreamVeraSans-Roman-65"/>
     <use x="1327.560546875" xlink:href="#BitstreamVeraSans-Roman-70"/>
     <use x="1391.037109375" xlink:href="#BitstreamVeraSans-Roman-65"/>
     <use x="1452.560546875" xlink:href="#BitstreamVeraSans-Roman-74"/>
     <use x="1491.76953125" xlink:href="#BitstreamVeraSans-Roman-69"/>
     <use x="1519.552734375" xlink:href="#BitstreamVeraSans-Roman-74"/>
     <use x="1558.76171875" xlink:href="#BitstreamVeraSans-Roman-69"/>
     <use x="1586.544921875" xlink:href="#BitstreamVeraSans-Roman-6f"/>
     <use x="1647.7265625" xlink:href="#BitstreamVeraSans-Roman-6e"/>
     <use x="1711.10546875" xlink:href="#BitstreamVeraSans-Roman-73"/>
     <use x="1763.205078125" xlink:href="#BitstreamVeraSans-Roman-3a"/>
     <use x="1796.896484375" xlink:href="#BitstreamVeraSans-Roman-20"/>
     <use x="1828.68359375" xlink:href="#BitstreamVeraSans-Roman-31"/>
     <use x="1892.306640625" xlink:href="#BitstreamVeraSans-Roman-30"/>
     <use x="1955.9296875" xlink:href="#BitstreamVeraSans-Roman-30"/>
     <use x="2019.552734375" xlink:href="#BitstreamVeraSans-Roman-2c"/>
     <use x="2051.33984375" xlink:href="#BitstreamVeraSans-Roman-20"/>
     <use x="2083.126953125" xlink:href="#BitstreamVeraSans-Roman-53"/>
     <use x="2146.603515625" xlink:href="#BitstreamVeraSans-Roman-74"/>
     <use x="2185.8125" xlink:href="#BitstreamVeraSans-Roman-72"/>
     <use x="2226.92578125" xlink:href="#BitstreamVeraSans-Roman-61"/>
     <use x="2288.205078125" xlink:href="#BitstreamVeraSans-Roman-74"/>
     <use x="2327.4140625" xlink:href="#BitstreamVeraSans-Roman-65"/>
     <use x="2388.9375" xlink:href="#BitstreamVeraSans-Roman-67"/>
     <use x="2452.4140625" xlink:href="#BitstreamVeraSans-Roman-69"/>
     <use x="2480.197265625" xlink:href="#BitstreamVeraSans-Roman-65"/>
     <use x="2541.720703125" xlink:href="#BitstreamVeraSans-Roman-73"/>
     <use x="2593.8203125" xlink:href="#BitstreamVeraSans-Roman-3a"/>
     <use x="2627.51171875" xlink:href="#BitstreamVeraSans-Roman-20"/>
     <use x="2659.298828125" xlink:href="#BitstreamVeraSans-Roman-38"/>
     <use x="2722.921875" xlink:href="#BitstreamVeraSans-Roman-2e"/>
    </g>
   </g>
  </g>
 </g>
 <defs>
  <clipPath id="p572ea39000">
   <rect height="345.6" width="669.6" x="21.38" y="23.14175"/>
  </clipPath>
 </defs>
</svg>
