<?xml version="1.0" encoding="utf-8" standalone="no"?>
<!DOCTYPE svg PUBLIC "-//W3C//DTD SVG 1.1//EN"
  "http://www.w3.org/Graphics/SVG/1.1/DTD/svg11.dtd">
<!-- Created with matplotlib (http://matplotlib.org/) -->
<svg height="465pt" version="1.1" viewBox="0 0 736 465" width="736pt" xmlns="http://www.w3.org/2000/svg" xmlns:xlink="http://www.w3.org/1999/xlink">
 <defs>
  <style type="text/css">
*{stroke-linecap:butt;stroke-linejoin:round;stroke-miterlimit:100000;}
  </style>
 </defs>
 <g id="figure_1">
  <g id="patch_1">
   <path d="M 0 465.868 
L 736.35525 465.868 
L 736.35525 0 
L 0 0 
z
" style="fill:#ffffff;"/>
  </g>
  <g id="axes_1">
   <g id="patch_2">
    <path d="M 33.377625 368.74175 
L 702.977625 368.74175 
L 702.977625 23.14175 
L 33.377625 23.14175 
z
" style="fill:#ffffff;"/>
   </g>
   <g id="PolyCollection_1">
    <defs>
     <path d="M 126.377625 -269.92625 
L 89.177625 -269.92625 
L 89.226602 -271.380795 
L 89.421373 -272.835341 
L 89.757272 -274.289886 
L 90.226354 -275.744432 
L 90.817695 -277.198977 
L 91.517799 -278.653523 
L 92.311081 -280.108068 
L 93.18042 -281.562614 
L 94.107729 -283.017159 
L 95.074537 -284.471705 
L 96.062539 -285.92625 
L 97.05409 -287.380795 
L 98.032641 -288.835341 
L 98.983074 -290.289886 
L 99.89196 -291.744432 
L 100.747708 -293.198977 
L 101.540628 -294.653523 
L 102.262908 -296.108068 
L 102.908519 -297.562614 
L 103.473071 -299.017159 
L 103.95362 -300.471705 
L 104.348465 -301.92625 
L 104.656942 -303.380795 
L 104.879226 -304.835341 
L 105.016168 -306.289886 
L 105.069166 -307.744432 
L 105.040081 -309.198977 
L 104.931203 -310.653523 
L 104.74526 -312.108068 
L 104.485469 -313.562614 
L 104.155618 -315.017159 
L 103.760176 -316.471705 
L 103.304405 -317.92625 
L 102.794473 -319.380795 
L 102.237537 -320.835341 
L 101.64181 -322.289886 
L 101.016563 -323.744432 
L 100.372089 -325.198977 
L 99.719591 -326.653523 
L 99.071022 -328.108068 
L 98.43885 -329.562614 
L 97.835776 -331.017159 
L 97.274404 -332.471705 
L 96.766879 -333.92625 
L 96.324515 -335.380795 
L 95.957425 -336.835341 
L 95.674175 -338.289886 
L 95.481477 -339.744432 
L 95.383951 -341.198977 
L 95.383951 -342.653523 
L 95.481477 -344.108068 
L 95.674175 -345.562614 
L 95.957425 -347.017159 
L 96.324515 -348.471705 
L 96.766879 -349.92625 
L 97.274404 -351.380795 
L 97.835776 -352.835341 
L 98.43885 -354.289886 
L 99.071022 -355.744432 
L 99.719591 -357.198977 
L 100.372089 -358.653523 
L 101.016563 -360.108068 
L 101.64181 -361.562614 
L 102.237537 -363.017159 
L 102.794473 -364.471705 
L 103.304405 -365.92625 
L 103.760176 -367.380795 
L 104.155618 -368.835341 
L 104.485469 -370.289886 
L 104.74526 -371.744432 
L 104.931203 -373.198977 
L 105.040081 -374.653523 
L 105.069166 -376.108068 
L 105.016168 -377.562614 
L 104.879226 -379.017159 
L 104.656942 -380.471705 
L 104.348465 -381.92625 
L 103.95362 -383.380795 
L 103.473071 -384.835341 
L 102.908519 -386.289886 
L 102.262908 -387.744432 
L 101.540628 -389.198977 
L 100.747708 -390.653523 
L 99.89196 -392.108068 
L 98.983074 -393.562614 
L 98.032641 -395.017159 
L 97.05409 -396.471705 
L 96.062539 -397.92625 
L 95.074537 -399.380795 
L 94.107729 -400.835341 
L 93.18042 -402.289886 
L 92.311081 -403.744432 
L 91.517799 -405.198977 
L 90.817695 -406.653523 
L 90.226354 -408.108068 
L 89.757272 -409.562614 
L 89.421373 -411.017159 
L 89.226602 -412.471705 
L 89.177625 -413.92625 
L 126.377625 -413.92625 
L 126.377625 -413.92625 
L 126.328648 -412.471705 
L 126.133877 -411.017159 
L 125.797978 -409.562614 
L 125.328896 -408.108068 
L 124.737555 -406.653523 
L 124.037451 -405.198977 
L 123.244169 -403.744432 
L 122.37483 -402.289886 
L 121.447521 -400.835341 
L 120.480713 -399.380795 
L 119.492711 -397.92625 
L 118.50116 -396.471705 
L 117.522609 -395.017159 
L 116.572176 -393.562614 
L 115.66329 -392.108068 
L 114.807542 -390.653523 
L 114.014622 -389.198977 
L 113.292342 -387.744432 
L 112.646731 -386.289886 
L 112.082179 -384.835341 
L 111.60163 -383.380795 
L 111.206785 -381.92625 
L 110.898308 -380.471705 
L 110.676024 -379.017159 
L 110.539082 -377.562614 
L 110.486084 -376.108068 
L 110.515169 -374.653523 
L 110.624047 -373.198977 
L 110.80999 -371.744432 
L 111.069781 -370.289886 
L 111.399632 -368.835341 
L 111.795074 -367.380795 
L 112.250845 -365.92625 
L 112.760777 -364.471705 
L 113.317713 -363.017159 
L 113.91344 -361.562614 
L 114.538687 -360.108068 
L 115.183161 -358.653523 
L 115.835659 -357.198977 
L 116.484228 -355.744432 
L 117.1164 -354.289886 
L 117.719474 -352.835341 
L 118.280846 -351.380795 
L 118.788371 -349.92625 
L 119.230735 -348.471705 
L 119.597825 -347.017159 
L 119.881075 -345.562614 
L 120.073773 -344.108068 
L 120.171299 -342.653523 
L 120.171299 -341.198977 
L 120.073773 -339.744432 
L 119.881075 -338.289886 
L 119.597825 -336.835341 
L 119.230735 -335.380795 
L 118.788371 -333.92625 
L 118.280846 -332.471705 
L 117.719474 -331.017159 
L 117.1164 -329.562614 
L 116.484228 -328.108068 
L 115.835659 -326.653523 
L 115.183161 -325.198977 
L 114.538687 -323.744432 
L 113.91344 -322.289886 
L 113.317713 -320.835341 
L 112.760777 -319.380795 
L 112.250845 -317.92625 
L 111.795074 -316.471705 
L 111.399632 -315.017159 
L 111.069781 -313.562614 
L 110.80999 -312.108068 
L 110.624047 -310.653523 
L 110.515169 -309.198977 
L 110.486084 -307.744432 
L 110.539082 -306.289886 
L 110.676024 -304.835341 
L 110.898308 -303.380795 
L 111.206785 -301.92625 
L 111.60163 -300.471705 
L 112.082179 -299.017159 
L 112.646731 -297.562614 
L 113.292342 -296.108068 
L 114.014622 -294.653523 
L 114.807542 -293.198977 
L 115.66329 -291.744432 
L 116.572176 -290.289886 
L 117.522609 -288.835341 
L 118.50116 -287.380795 
L 119.492711 -285.92625 
L 120.480713 -284.471705 
L 121.447521 -283.017159 
L 122.37483 -281.562614 
L 123.244169 -280.108068 
L 124.037451 -278.653523 
L 124.737555 -277.198977 
L 125.328896 -275.744432 
L 125.797978 -274.289886 
L 126.133877 -272.835341 
L 126.328648 -271.380795 
L 126.377625 -269.92625 
z
" id="ma9107c743a" style="stroke:#000000;stroke-opacity:0.3;"/>
    </defs>
    <g clip-path="url(#p261a7046af)">
     <use style="fill:#bfbf00;fill-opacity:0.3;stroke:#000000;stroke-opacity:0.3;" x="0.0" xlink:href="#ma9107c743a" y="465.868"/>
    </g>
   </g>
   <g id="PolyCollection_2">
    <defs>
     <path d="M 186.700303 -126.64625 
L 177.654947 -126.64625 
L 177.691775 -129.548068 
L 177.800469 -132.449886 
L 177.975805 -135.351705 
L 178.20954 -138.253523 
L 178.491053 -141.155341 
L 178.808145 -144.057159 
L 179.147912 -146.958977 
L 179.4976 -149.860795 
L 179.84537 -152.762614 
L 180.180915 -155.664432 
L 180.495879 -158.56625 
L 180.784076 -161.468068 
L 181.041508 -164.369886 
L 181.266214 -167.271705 
L 181.457993 -170.173523 
L 181.618038 -173.075341 
L 181.748527 -175.977159 
L 181.852208 -178.878977 
L 181.932005 -181.780795 
L 181.990661 -184.682614 
L 182.030421 -187.584432 
L 182.052752 -190.48625 
L 182.058099 -193.388068 
L 182.045662 -196.289886 
L 182.013191 -199.191705 
L 181.956804 -202.093523 
L 181.87083 -204.995341 
L 181.747715 -207.897159 
L 181.57801 -210.798977 
L 181.350486 -213.700795 
L 181.052431 -216.602614 
L 180.670164 -219.504432 
L 180.189794 -222.40625 
L 179.598248 -225.308068 
L 178.884533 -228.209886 
L 178.041176 -231.111705 
L 177.065735 -234.013523 
L 175.962245 -236.915341 
L 174.742414 -239.817159 
L 173.426392 -242.718977 
L 172.042928 -245.620795 
L 170.628796 -248.522614 
L 169.227398 -251.424432 
L 167.886589 -254.32625 
L 166.655821 -257.228068 
L 165.582834 -260.129886 
L 164.710189 -263.031705 
L 164.071999 -265.933523 
L 163.691188 -268.835341 
L 163.577625 -271.737159 
L 163.727334 -274.638977 
L 164.122904 -277.540795 
L 164.735064 -280.442614 
L 165.525268 -283.344432 
L 166.449 -286.24625 
L 167.459433 -289.148068 
L 168.511074 -292.049886 
L 169.562992 -294.951705 
L 170.581351 -297.853523 
L 171.541024 -300.755341 
L 172.426215 -303.657159 
L 173.230119 -306.558977 
L 173.953773 -309.460795 
L 174.604308 -312.362614 
L 175.192872 -315.264432 
L 175.732496 -318.16625 
L 176.236138 -321.068068 
L 176.715089 -323.969886 
L 177.177853 -326.871705 
L 177.629543 -329.773523 
L 178.071761 -332.675341 
L 178.502871 -335.577159 
L 178.918558 -338.478977 
L 179.312537 -341.380795 
L 179.677289 -344.282614 
L 180.004731 -347.184432 
L 180.286746 -350.08625 
L 180.515562 -352.988068 
L 180.683973 -355.889886 
L 180.785454 -358.791705 
L 180.814223 -361.693523 
L 180.765319 -364.595341 
L 180.634746 -367.497159 
L 180.419737 -370.398977 
L 180.119149 -373.300795 
L 179.733964 -376.202614 
L 179.267865 -379.104432 
L 178.727797 -382.00625 
L 178.124428 -384.908068 
L 177.472401 -387.809886 
L 176.790297 -390.711705 
L 176.10022 -393.613523 
L 175.427007 -396.515341 
L 174.797044 -399.417159 
L 174.236788 -402.318977 
L 173.771105 -405.220795 
L 173.421564 -408.122614 
L 173.20488 -411.024432 
L 173.131654 -413.92625 
L 191.223596 -413.92625 
L 191.223596 -413.92625 
L 191.15037 -411.024432 
L 190.933686 -408.122614 
L 190.584145 -405.220795 
L 190.118462 -402.318977 
L 189.558206 -399.417159 
L 188.928243 -396.515341 
L 188.25503 -393.613523 
L 187.564953 -390.711705 
L 186.882849 -387.809886 
L 186.230822 -384.908068 
L 185.627453 -382.00625 
L 185.087385 -379.104432 
L 184.621286 -376.202614 
L 184.236101 -373.300795 
L 183.935513 -370.398977 
L 183.720504 -367.497159 
L 183.589931 -364.595341 
L 183.541027 -361.693523 
L 183.569796 -358.791705 
L 183.671277 -355.889886 
L 183.839688 -352.988068 
L 184.068504 -350.08625 
L 184.350519 -347.184432 
L 184.677961 -344.282614 
L 185.042713 -341.380795 
L 185.436692 -338.478977 
L 185.852379 -335.577159 
L 186.283489 -332.675341 
L 186.725707 -329.773523 
L 187.177397 -326.871705 
L 187.640161 -323.969886 
L 188.119112 -321.068068 
L 188.622754 -318.16625 
L 189.162378 -315.264432 
L 189.750942 -312.362614 
L 190.401477 -309.460795 
L 191.125131 -306.558977 
L 191.929035 -303.657159 
L 192.814226 -300.755341 
L 193.773899 -297.853523 
L 194.792258 -294.951705 
L 195.844176 -292.049886 
L 196.895817 -289.148068 
L 197.90625 -286.24625 
L 198.829982 -283.344432 
L 199.620186 -280.442614 
L 200.232346 -277.540795 
L 200.627916 -274.638977 
L 200.777625 -271.737159 
L 200.664062 -268.835341 
L 200.283251 -265.933523 
L 199.645061 -263.031705 
L 198.772416 -260.129886 
L 197.699429 -257.228068 
L 196.468661 -254.32625 
L 195.127852 -251.424432 
L 193.726454 -248.522614 
L 192.312322 -245.620795 
L 190.928858 -242.718977 
L 189.612836 -239.817159 
L 188.393005 -236.915341 
L 187.289515 -234.013523 
L 186.314074 -231.111705 
L 185.470717 -228.209886 
L 184.757002 -225.308068 
L 184.165456 -222.40625 
L 183.685086 -219.504432 
L 183.302819 -216.602614 
L 183.004764 -213.700795 
L 182.77724 -210.798977 
L 182.607535 -207.897159 
L 182.48442 -204.995341 
L 182.398446 -202.093523 
L 182.342059 -199.191705 
L 182.309588 -196.289886 
L 182.297151 -193.388068 
L 182.302498 -190.48625 
L 182.324829 -187.584432 
L 182.364589 -184.682614 
L 182.423245 -181.780795 
L 182.503042 -178.878977 
L 182.606723 -175.977159 
L 182.737212 -173.075341 
L 182.897257 -170.173523 
L 183.089036 -167.271705 
L 183.313742 -164.369886 
L 183.571174 -161.468068 
L 183.859371 -158.56625 
L 184.174335 -155.664432 
L 184.50988 -152.762614 
L 184.85765 -149.860795 
L 185.207338 -146.958977 
L 185.547105 -144.057159 
L 185.864197 -141.155341 
L 186.14571 -138.253523 
L 186.379445 -135.351705 
L 186.554781 -132.449886 
L 186.663475 -129.548068 
L 186.700303 -126.64625 
z
" id="m5d9894f6cd" style="stroke:#000000;stroke-opacity:0.3;"/>
    </defs>
    <g clip-path="url(#p261a7046af)">
     <use style="fill:#bfbf00;fill-opacity:0.3;stroke:#000000;stroke-opacity:0.3;" x="0.0" xlink:href="#m5d9894f6cd" y="465.868"/>
    </g>
   </g>
   <g id="PolyCollection_3">
    <defs>
     <path d="M 262.777625 -269.20625 
L 250.377625 -269.20625 
L 250.401999 -269.213523 
L 250.474548 -269.220795 
L 250.593573 -269.228068 
L 250.75632 -269.235341 
L 250.959078 -269.242614 
L 251.197328 -269.249886 
L 251.465905 -269.257159 
L 251.759185 -269.264432 
L 252.07128 -269.271705 
L 252.396231 -269.278977 
L 252.728197 -269.28625 
L 253.061616 -269.293523 
L 253.391357 -269.300795 
L 253.712832 -269.308068 
L 254.022084 -269.315341 
L 254.315842 -269.322614 
L 254.591541 -269.329886 
L 254.847319 -269.337159 
L 255.081986 -269.344432 
L 255.294972 -269.351705 
L 255.486259 -269.358977 
L 255.656306 -269.36625 
L 255.805961 -269.373523 
L 255.936379 -269.380795 
L 256.048936 -269.388068 
L 256.145157 -269.395341 
L 256.226641 -269.402614 
L 256.295008 -269.409886 
L 256.351844 -269.417159 
L 256.398665 -269.424432 
L 256.436889 -269.431705 
L 256.467818 -269.438977 
L 256.492622 -269.44625 
L 256.512339 -269.453523 
L 256.527875 -269.460795 
L 256.540011 -269.468068 
L 256.549408 -269.475341 
L 256.556621 -269.482614 
L 256.562109 -269.489886 
L 256.566247 -269.497159 
L 256.569338 -269.504432 
L 256.571621 -269.511705 
L 256.573286 -269.518977 
L 256.574477 -269.52625 
L 256.575305 -269.533523 
L 256.575846 -269.540795 
L 256.576153 -269.548068 
L 256.576255 -269.555341 
L 256.576157 -269.562614 
L 256.575845 -269.569886 
L 256.575276 -269.577159 
L 256.574384 -269.584432 
L 256.573065 -269.591705 
L 256.571174 -269.598977 
L 256.568514 -269.60625 
L 256.564822 -269.613523 
L 256.55975 -269.620795 
L 256.55285 -269.628068 
L 256.543547 -269.635341 
L 256.531113 -269.642614 
L 256.514635 -269.649886 
L 256.492987 -269.657159 
L 256.464791 -269.664432 
L 256.42838 -269.671705 
L 256.381769 -269.678977 
L 256.322617 -269.68625 
L 256.248205 -269.693523 
L 256.155419 -269.700795 
L 256.040745 -269.708068 
L 255.900281 -269.715341 
L 255.729775 -269.722614 
L 255.524674 -269.729886 
L 255.28022 -269.737159 
L 254.991558 -269.744432 
L 254.653886 -269.751705 
L 254.262634 -269.758977 
L 253.813669 -269.76625 
L 253.303528 -269.773523 
L 252.729666 -269.780795 
L 252.090708 -269.788068 
L 251.386708 -269.795341 
L 250.619373 -269.802614 
L 249.792277 -269.809886 
L 248.911003 -269.817159 
L 247.983246 -269.824432 
L 247.01882 -269.831705 
L 246.029598 -269.838977 
L 245.02934 -269.84625 
L 244.033444 -269.853523 
L 243.058589 -269.860795 
L 242.122304 -269.868068 
L 241.242464 -269.875341 
L 240.436733 -269.882614 
L 239.721983 -269.889886 
L 239.113709 -269.897159 
L 238.62547 -269.904432 
L 238.268393 -269.911705 
L 238.050747 -269.918977 
L 237.977625 -269.92625 
L 275.177625 -269.92625 
L 275.177625 -269.92625 
L 275.104503 -269.918977 
L 274.886857 -269.911705 
L 274.52978 -269.904432 
L 274.041541 -269.897159 
L 273.433267 -269.889886 
L 272.718517 -269.882614 
L 271.912786 -269.875341 
L 271.032946 -269.868068 
L 270.096661 -269.860795 
L 269.121806 -269.853523 
L 268.12591 -269.84625 
L 267.125652 -269.838977 
L 266.13643 -269.831705 
L 265.172004 -269.824432 
L 264.244247 -269.817159 
L 263.362973 -269.809886 
L 262.535877 -269.802614 
L 261.768542 -269.795341 
L 261.064542 -269.788068 
L 260.425584 -269.780795 
L 259.851722 -269.773523 
L 259.341581 -269.76625 
L 258.892616 -269.758977 
L 258.501364 -269.751705 
L 258.163692 -269.744432 
L 257.87503 -269.737159 
L 257.630576 -269.729886 
L 257.425475 -269.722614 
L 257.254969 -269.715341 
L 257.114505 -269.708068 
L 256.999831 -269.700795 
L 256.907045 -269.693523 
L 256.832633 -269.68625 
L 256.773481 -269.678977 
L 256.72687 -269.671705 
L 256.690459 -269.664432 
L 256.662263 -269.657159 
L 256.640615 -269.649886 
L 256.624137 -269.642614 
L 256.611703 -269.635341 
L 256.6024 -269.628068 
L 256.5955 -269.620795 
L 256.590428 -269.613523 
L 256.586736 -269.60625 
L 256.584076 -269.598977 
L 256.582185 -269.591705 
L 256.580866 -269.584432 
L 256.579974 -269.577159 
L 256.579405 -269.569886 
L 256.579093 -269.562614 
L 256.578995 -269.555341 
L 256.579097 -269.548068 
L 256.579404 -269.540795 
L 256.579945 -269.533523 
L 256.580773 -269.52625 
L 256.581964 -269.518977 
L 256.583629 -269.511705 
L 256.585912 -269.504432 
L 256.589003 -269.497159 
L 256.593141 -269.489886 
L 256.598629 -269.482614 
L 256.605842 -269.475341 
L 256.615239 -269.468068 
L 256.627375 -269.460795 
L 256.642911 -269.453523 
L 256.662628 -269.44625 
L 256.687432 -269.438977 
L 256.718361 -269.431705 
L 256.756585 -269.424432 
L 256.803406 -269.417159 
L 256.860242 -269.409886 
L 256.928609 -269.402614 
L 257.010093 -269.395341 
L 257.106314 -269.388068 
L 257.218871 -269.380795 
L 257.349289 -269.373523 
L 257.498944 -269.36625 
L 257.668991 -269.358977 
L 257.860278 -269.351705 
L 258.073264 -269.344432 
L 258.307931 -269.337159 
L 258.563709 -269.329886 
L 258.839408 -269.322614 
L 259.133166 -269.315341 
L 259.442418 -269.308068 
L 259.763893 -269.300795 
L 260.093634 -269.293523 
L 260.427053 -269.28625 
L 260.759019 -269.278977 
L 261.08397 -269.271705 
L 261.396065 -269.264432 
L 261.689345 -269.257159 
L 261.957922 -269.249886 
L 262.196172 -269.242614 
L 262.39893 -269.235341 
L 262.561677 -269.228068 
L 262.680702 -269.220795 
L 262.753251 -269.213523 
L 262.777625 -269.20625 
z
" id="mf2d91de97e" style="stroke:#000000;stroke-opacity:0.3;"/>
    </defs>
    <g clip-path="url(#p261a7046af)">
     <use style="fill:#bfbf00;fill-opacity:0.3;stroke:#000000;stroke-opacity:0.3;" x="0.0" xlink:href="#mf2d91de97e" y="465.868"/>
    </g>
   </g>
   <g id="PolyCollection_4">
    <defs>
     <path d="M 334.089777 -197.92625 
L 327.865473 -197.92625 
L 327.902029 -199.380795 
L 328.009143 -200.835341 
L 328.17944 -202.289886 
L 328.40157 -203.744432 
L 328.661454 -205.198977 
L 328.943756 -206.653523 
L 329.233361 -208.108068 
L 329.516666 -209.562614 
L 329.782534 -211.017159 
L 330.022851 -212.471705 
L 330.232658 -213.92625 
L 330.409936 -215.380795 
L 330.555129 -216.835341 
L 330.670528 -218.289886 
L 330.759614 -219.744432 
L 330.826455 -221.198977 
L 330.875217 -222.653523 
L 330.909797 -224.108068 
L 330.933597 -225.562614 
L 330.949405 -227.017159 
L 330.959351 -228.471705 
L 330.96491 -229.92625 
L 330.9669 -231.380795 
L 330.965462 -232.835341 
L 330.959973 -234.289886 
L 330.948878 -235.744432 
L 330.929425 -237.198977 
L 330.897295 -238.653523 
L 330.846137 -240.108068 
L 330.767047 -241.562614 
L 330.648066 -243.017159 
L 330.473798 -244.471705 
L 330.225293 -245.92625 
L 329.880385 -247.380795 
L 329.414649 -248.835341 
L 328.803122 -250.289886 
L 328.022848 -251.744432 
L 327.056182 -253.198977 
L 325.894582 -254.653523 
L 324.542483 -256.108068 
L 323.02063 -257.562614 
L 321.368217 -259.017159 
L 319.643168 -260.471705 
L 317.920086 -261.92625 
L 316.285705 -263.380795 
L 314.832095 -264.835341 
L 313.648261 -266.289886 
L 312.811199 -267.744432 
L 312.377625 -269.198977 
L 312.377625 -270.653523 
L 312.811199 -272.108068 
L 313.648261 -273.562614 
L 314.832095 -275.017159 
L 316.285705 -276.471705 
L 317.920086 -277.92625 
L 319.643168 -279.380795 
L 321.368217 -280.835341 
L 323.02063 -282.289886 
L 324.542483 -283.744432 
L 325.894582 -285.198977 
L 327.056182 -286.653523 
L 328.022848 -288.108068 
L 328.803122 -289.562614 
L 329.414649 -291.017159 
L 329.880385 -292.471705 
L 330.225293 -293.92625 
L 330.473798 -295.380795 
L 330.648066 -296.835341 
L 330.767047 -298.289886 
L 330.846137 -299.744432 
L 330.897295 -301.198977 
L 330.929425 -302.653523 
L 330.948878 -304.108068 
L 330.959973 -305.562614 
L 330.965462 -307.017159 
L 330.9669 -308.471705 
L 330.96491 -309.92625 
L 330.959351 -311.380795 
L 330.949405 -312.835341 
L 330.933597 -314.289886 
L 330.909797 -315.744432 
L 330.875217 -317.198977 
L 330.826455 -318.653523 
L 330.759614 -320.108068 
L 330.670528 -321.562614 
L 330.555129 -323.017159 
L 330.409936 -324.471705 
L 330.232658 -325.92625 
L 330.022851 -327.380795 
L 329.782534 -328.835341 
L 329.516666 -330.289886 
L 329.233361 -331.744432 
L 328.943756 -333.198977 
L 328.661454 -334.653523 
L 328.40157 -336.108068 
L 328.17944 -337.562614 
L 328.009143 -339.017159 
L 327.902029 -340.471705 
L 327.865473 -341.92625 
L 334.089777 -341.92625 
L 334.089777 -341.92625 
L 334.053221 -340.471705 
L 333.946107 -339.017159 
L 333.77581 -337.562614 
L 333.55368 -336.108068 
L 333.293796 -334.653523 
L 333.011494 -333.198977 
L 332.721889 -331.744432 
L 332.438584 -330.289886 
L 332.172716 -328.835341 
L 331.932399 -327.380795 
L 331.722592 -325.92625 
L 331.545314 -324.471705 
L 331.400121 -323.017159 
L 331.284722 -321.562614 
L 331.195636 -320.108068 
L 331.128795 -318.653523 
L 331.080033 -317.198977 
L 331.045453 -315.744432 
L 331.021653 -314.289886 
L 331.005845 -312.835341 
L 330.995899 -311.380795 
L 330.99034 -309.92625 
L 330.98835 -308.471705 
L 330.989788 -307.017159 
L 330.995277 -305.562614 
L 331.006372 -304.108068 
L 331.025825 -302.653523 
L 331.057955 -301.198977 
L 331.109113 -299.744432 
L 331.188203 -298.289886 
L 331.307184 -296.835341 
L 331.481452 -295.380795 
L 331.729957 -293.92625 
L 332.074865 -292.471705 
L 332.540601 -291.017159 
L 333.152128 -289.562614 
L 333.932402 -288.108068 
L 334.899068 -286.653523 
L 336.060668 -285.198977 
L 337.412767 -283.744432 
L 338.93462 -282.289886 
L 340.587033 -280.835341 
L 342.312082 -279.380795 
L 344.035164 -277.92625 
L 345.669545 -276.471705 
L 347.123155 -275.017159 
L 348.306989 -273.562614 
L 349.144051 -272.108068 
L 349.577625 -270.653523 
L 349.577625 -269.198977 
L 349.144051 -267.744432 
L 348.306989 -266.289886 
L 347.123155 -264.835341 
L 345.669545 -263.380795 
L 344.035164 -261.92625 
L 342.312082 -260.471705 
L 340.587033 -259.017159 
L 338.93462 -257.562614 
L 337.412767 -256.108068 
L 336.060668 -254.653523 
L 334.899068 -253.198977 
L 333.932402 -251.744432 
L 333.152128 -250.289886 
L 332.540601 -248.835341 
L 332.074865 -247.380795 
L 331.729957 -245.92625 
L 331.481452 -244.471705 
L 331.307184 -243.017159 
L 331.188203 -241.562614 
L 331.109113 -240.108068 
L 331.057955 -238.653523 
L 331.025825 -237.198977 
L 331.006372 -235.744432 
L 330.995277 -234.289886 
L 330.989788 -232.835341 
L 330.98835 -231.380795 
L 330.99034 -229.92625 
L 330.995899 -228.471705 
L 331.005845 -227.017159 
L 331.021653 -225.562614 
L 331.045453 -224.108068 
L 331.080033 -222.653523 
L 331.128795 -221.198977 
L 331.195636 -219.744432 
L 331.284722 -218.289886 
L 331.400121 -216.835341 
L 331.545314 -215.380795 
L 331.722592 -213.92625 
L 331.932399 -212.471705 
L 332.172716 -211.017159 
L 332.438584 -209.562614 
L 332.721889 -208.108068 
L 333.011494 -206.653523 
L 333.293796 -205.198977 
L 333.55368 -203.744432 
L 333.77581 -202.289886 
L 333.946107 -200.835341 
L 334.053221 -199.380795 
L 334.089777 -197.92625 
z
" id="m7d57551216" style="stroke:#000000;stroke-opacity:0.3;"/>
    </defs>
    <g clip-path="url(#p261a7046af)">
     <use style="fill:#bfbf00;fill-opacity:0.3;stroke:#000000;stroke-opacity:0.3;" x="0.0" xlink:href="#m7d57551216" y="465.868"/>
    </g>
   </g>
   <g id="PolyCollection_5">
    <defs>
     <path d="M 423.977625 -269.92625 
L 386.777625 -269.92625 
L 386.902801 -269.933523 
L 387.273298 -269.940795 
L 387.874355 -269.948068 
L 388.68246 -269.955341 
L 389.666873 -269.962614 
L 390.791567 -269.969886 
L 392.017405 -269.977159 
L 393.30438 -269.984432 
L 394.613737 -269.991705 
L 395.909826 -269.998977 
L 397.161565 -270.00625 
L 398.343455 -270.013523 
L 399.436114 -270.020795 
L 400.426366 -270.028068 
L 401.306925 -270.035341 
L 402.075775 -270.042614 
L 402.735337 -270.049886 
L 403.291512 -270.057159 
L 403.752712 -270.064432 
L 404.128928 -270.071705 
L 404.430911 -270.078977 
L 404.669491 -270.08625 
L 404.855052 -270.093523 
L 404.997162 -270.100795 
L 405.104342 -270.108068 
L 405.183961 -270.115341 
L 405.242225 -270.122614 
L 405.28423 -270.129886 
L 405.314068 -270.137159 
L 405.334954 -270.144432 
L 405.34936 -270.151705 
L 405.359154 -270.158977 
L 405.365716 -270.16625 
L 405.37005 -270.173523 
L 405.372871 -270.180795 
L 405.374682 -270.188068 
L 405.375827 -270.195341 
L 405.376542 -270.202614 
L 405.376981 -270.209886 
L 405.377247 -270.217159 
L 405.377406 -270.224432 
L 405.3775 -270.231705 
L 405.377555 -270.238977 
L 405.377586 -270.24625 
L 405.377604 -270.253523 
L 405.377613 -270.260795 
L 405.377619 -270.268068 
L 405.377622 -270.275341 
L 405.377623 -270.282614 
L 405.377624 -270.289886 
L 405.377624 -270.297159 
L 405.377624 -270.304432 
L 405.377623 -270.311705 
L 405.377622 -270.318977 
L 405.377619 -270.32625 
L 405.377615 -270.333523 
L 405.377607 -270.340795 
L 405.377594 -270.348068 
L 405.377571 -270.355341 
L 405.377533 -270.362614 
L 405.37747 -270.369886 
L 405.377368 -270.377159 
L 405.377205 -270.384432 
L 405.376946 -270.391705 
L 405.376543 -270.398977 
L 405.375924 -270.40625 
L 405.374986 -270.413523 
L 405.373587 -270.420795 
L 405.371529 -270.428068 
L 405.368545 -270.435341 
L 405.364283 -270.442614 
L 405.358282 -270.449886 
L 405.349959 -270.457159 
L 405.338585 -270.464432 
L 405.323273 -270.471705 
L 405.302972 -270.478977 
L 405.276463 -270.48625 
L 405.24238 -270.493523 
L 405.19924 -270.500795 
L 405.145495 -270.508068 
L 405.079609 -270.515341 
L 405.000155 -270.522614 
L 404.905932 -270.529886 
L 404.796096 -270.537159 
L 404.670302 -270.544432 
L 404.528838 -270.551705 
L 404.372744 -270.558977 
L 404.203902 -270.56625 
L 404.025082 -270.573523 
L 403.839927 -270.580795 
L 403.652876 -270.588068 
L 403.469022 -270.595341 
L 403.293902 -270.602614 
L 403.133232 -270.609886 
L 402.992601 -270.617159 
L 402.877158 -270.624432 
L 402.791293 -270.631705 
L 402.738364 -270.638977 
L 402.720482 -270.64625 
L 408.034768 -270.64625 
L 408.034768 -270.64625 
L 408.016886 -270.638977 
L 407.963957 -270.631705 
L 407.878092 -270.624432 
L 407.762649 -270.617159 
L 407.622018 -270.609886 
L 407.461348 -270.602614 
L 407.286228 -270.595341 
L 407.102374 -270.588068 
L 406.915323 -270.580795 
L 406.730168 -270.573523 
L 406.551348 -270.56625 
L 406.382506 -270.558977 
L 406.226412 -270.551705 
L 406.084948 -270.544432 
L 405.959154 -270.537159 
L 405.849318 -270.529886 
L 405.755095 -270.522614 
L 405.675641 -270.515341 
L 405.609755 -270.508068 
L 405.55601 -270.500795 
L 405.51287 -270.493523 
L 405.478787 -270.48625 
L 405.452278 -270.478977 
L 405.431977 -270.471705 
L 405.416665 -270.464432 
L 405.405291 -270.457159 
L 405.396968 -270.449886 
L 405.390967 -270.442614 
L 405.386705 -270.435341 
L 405.383721 -270.428068 
L 405.381663 -270.420795 
L 405.380264 -270.413523 
L 405.379326 -270.40625 
L 405.378707 -270.398977 
L 405.378304 -270.391705 
L 405.378045 -270.384432 
L 405.377882 -270.377159 
L 405.37778 -270.369886 
L 405.377717 -270.362614 
L 405.377679 -270.355341 
L 405.377656 -270.348068 
L 405.377643 -270.340795 
L 405.377635 -270.333523 
L 405.377631 -270.32625 
L 405.377628 -270.318977 
L 405.377627 -270.311705 
L 405.377626 -270.304432 
L 405.377626 -270.297159 
L 405.377626 -270.289886 
L 405.377627 -270.282614 
L 405.377628 -270.275341 
L 405.377631 -270.268068 
L 405.377637 -270.260795 
L 405.377646 -270.253523 
L 405.377664 -270.24625 
L 405.377695 -270.238977 
L 405.37775 -270.231705 
L 405.377844 -270.224432 
L 405.378003 -270.217159 
L 405.378269 -270.209886 
L 405.378708 -270.202614 
L 405.379423 -270.195341 
L 405.380568 -270.188068 
L 405.382379 -270.180795 
L 405.3852 -270.173523 
L 405.389534 -270.16625 
L 405.396096 -270.158977 
L 405.40589 -270.151705 
L 405.420296 -270.144432 
L 405.441182 -270.137159 
L 405.47102 -270.129886 
L 405.513025 -270.122614 
L 405.571289 -270.115341 
L 405.650908 -270.108068 
L 405.758088 -270.100795 
L 405.900198 -270.093523 
L 406.085759 -270.08625 
L 406.324339 -270.078977 
L 406.626322 -270.071705 
L 407.002538 -270.064432 
L 407.463738 -270.057159 
L 408.019913 -270.049886 
L 408.679475 -270.042614 
L 409.448325 -270.035341 
L 410.328884 -270.028068 
L 411.319136 -270.020795 
L 412.411795 -270.013523 
L 413.593685 -270.00625 
L 414.845424 -269.998977 
L 416.141513 -269.991705 
L 417.45087 -269.984432 
L 418.737845 -269.977159 
L 419.963683 -269.969886 
L 421.088377 -269.962614 
L 422.07279 -269.955341 
L 422.880895 -269.948068 
L 423.481952 -269.940795 
L 423.852449 -269.933523 
L 423.977625 -269.92625 
z
" id="mafafa32691" style="stroke:#000000;stroke-opacity:0.3;"/>
    </defs>
    <g clip-path="url(#p261a7046af)">
     <use style="fill:#bfbf00;fill-opacity:0.3;stroke:#000000;stroke-opacity:0.3;" x="0.0" xlink:href="#mafafa32691" y="465.868"/>
    </g>
   </g>
   <g id="PolyCollection_6">
    <defs>
     <path d="M 488.793808 -125.92625 
L 470.761442 -125.92625 
L 470.830779 -128.828068 
L 471.035607 -131.729886 
L 471.36662 -134.631705 
L 471.809088 -137.533523 
L 472.343945 -140.435341 
L 472.94915 -143.337159 
L 473.601184 -146.238977 
L 474.276544 -149.140795 
L 474.953111 -152.042614 
L 475.611267 -154.944432 
L 476.234714 -157.84625 
L 476.810936 -160.748068 
L 477.331337 -163.649886 
L 477.791072 -166.551705 
L 478.18863 -169.453523 
L 478.525265 -172.355341 
L 478.804311 -175.257159 
L 479.030486 -178.158977 
L 479.209203 -181.060795 
L 479.345961 -183.962614 
L 479.445799 -186.864432 
L 479.512858 -189.76625 
L 479.550008 -192.668068 
L 479.558569 -195.569886 
L 479.538092 -198.471705 
L 479.486195 -201.373523 
L 479.398476 -204.275341 
L 479.268497 -207.177159 
L 479.087865 -210.078977 
L 478.846448 -212.980795 
L 478.532749 -215.882614 
L 478.134471 -218.784432 
L 477.639297 -221.68625 
L 477.035871 -224.588068 
L 476.314967 -227.489886 
L 475.470776 -230.391705 
L 474.502226 -233.293523 
L 473.414207 -236.195341 
L 472.218553 -239.097159 
L 470.934637 -241.998977 
L 469.589438 -244.900795 
L 468.216974 -247.802614 
L 466.857054 -250.704432 
L 465.553367 -253.60625 
L 464.351023 -256.508068 
L 463.293698 -259.409886 
L 462.420663 -262.311705 
L 461.763942 -265.213523 
L 461.345918 -268.115341 
L 461.177625 -271.017159 
L 461.257938 -273.918977 
L 461.573751 -276.820795 
L 462.101146 -279.722614 
L 462.807432 -282.624432 
L 463.653846 -285.52625 
L 464.598634 -288.428068 
L 465.600188 -291.329886 
L 466.619938 -294.231705 
L 467.624727 -297.133523 
L 468.588475 -300.035341 
L 469.493023 -302.937159 
L 470.328175 -305.838977 
L 471.09099 -308.740795 
L 471.78452 -311.642614 
L 472.416167 -314.544432 
L 472.9959 -317.44625 
L 473.53453 -320.348068 
L 474.042215 -323.249886 
L 474.527321 -326.151705 
L 474.995694 -329.053523 
L 475.450352 -331.955341 
L 475.891547 -334.857159 
L 476.317122 -337.758977 
L 476.723054 -340.660795 
L 477.10409 -343.562614 
L 477.454384 -346.464432 
L 477.768053 -349.36625 
L 478.039624 -352.268068 
L 478.264343 -355.169886 
L 478.438366 -358.071705 
L 478.558853 -360.973523 
L 478.623992 -363.875341 
L 478.633024 -366.777159 
L 478.586256 -369.678977 
L 478.485128 -372.580795 
L 478.332311 -375.482614 
L 478.131829 -378.384432 
L 477.889195 -381.28625 
L 477.611503 -384.188068 
L 477.307453 -387.089886 
L 476.987264 -389.991705 
L 476.662443 -392.893523 
L 476.345413 -395.795341 
L 476.048985 -398.697159 
L 475.785728 -401.598977 
L 475.567267 -404.500795 
L 475.403572 -407.402614 
L 475.302323 -410.304432 
L 475.268392 -413.20625 
L 484.286858 -413.20625 
L 484.286858 -413.20625 
L 484.252927 -410.304432 
L 484.151678 -407.402614 
L 483.987983 -404.500795 
L 483.769522 -401.598977 
L 483.506265 -398.697159 
L 483.209837 -395.795341 
L 482.892807 -392.893523 
L 482.567986 -389.991705 
L 482.247797 -387.089886 
L 481.943747 -384.188068 
L 481.666055 -381.28625 
L 481.423421 -378.384432 
L 481.222939 -375.482614 
L 481.070122 -372.580795 
L 480.968994 -369.678977 
L 480.922226 -366.777159 
L 480.931258 -363.875341 
L 480.996397 -360.973523 
L 481.116884 -358.071705 
L 481.290907 -355.169886 
L 481.515626 -352.268068 
L 481.787197 -349.36625 
L 482.100866 -346.464432 
L 482.45116 -343.562614 
L 482.832196 -340.660795 
L 483.238128 -337.758977 
L 483.663703 -334.857159 
L 484.104898 -331.955341 
L 484.559556 -329.053523 
L 485.027929 -326.151705 
L 485.513035 -323.249886 
L 486.02072 -320.348068 
L 486.55935 -317.44625 
L 487.139083 -314.544432 
L 487.77073 -311.642614 
L 488.46426 -308.740795 
L 489.227075 -305.838977 
L 490.062227 -302.937159 
L 490.966775 -300.035341 
L 491.930523 -297.133523 
L 492.935312 -294.231705 
L 493.955062 -291.329886 
L 494.956616 -288.428068 
L 495.901404 -285.52625 
L 496.747818 -282.624432 
L 497.454104 -279.722614 
L 497.981499 -276.820795 
L 498.297312 -273.918977 
L 498.377625 -271.017159 
L 498.209332 -268.115341 
L 497.791308 -265.213523 
L 497.134587 -262.311705 
L 496.261552 -259.409886 
L 495.204227 -256.508068 
L 494.001883 -253.60625 
L 492.698196 -250.704432 
L 491.338276 -247.802614 
L 489.965812 -244.900795 
L 488.620613 -241.998977 
L 487.336697 -239.097159 
L 486.141043 -236.195341 
L 485.053024 -233.293523 
L 484.084474 -230.391705 
L 483.240283 -227.489886 
L 482.519379 -224.588068 
L 481.915953 -221.68625 
L 481.420779 -218.784432 
L 481.022501 -215.882614 
L 480.708802 -212.980795 
L 480.467385 -210.078977 
L 480.286753 -207.177159 
L 480.156774 -204.275341 
L 480.069055 -201.373523 
L 480.017158 -198.471705 
L 479.996681 -195.569886 
L 480.005242 -192.668068 
L 480.042392 -189.76625 
L 480.109451 -186.864432 
L 480.209289 -183.962614 
L 480.346047 -181.060795 
L 480.524764 -178.158977 
L 480.750939 -175.257159 
L 481.029985 -172.355341 
L 481.36662 -169.453523 
L 481.764178 -166.551705 
L 482.223913 -163.649886 
L 482.744314 -160.748068 
L 483.320536 -157.84625 
L 483.943983 -154.944432 
L 484.602139 -152.042614 
L 485.278706 -149.140795 
L 485.954066 -146.238977 
L 486.6061 -143.337159 
L 487.211305 -140.435341 
L 487.746162 -137.533523 
L 488.18863 -134.631705 
L 488.519643 -131.729886 
L 488.724471 -128.828068 
L 488.793808 -125.92625 
z
" id="mb0e9526321" style="stroke:#000000;stroke-opacity:0.3;"/>
    </defs>
    <g clip-path="url(#p261a7046af)">
     <use style="fill:#bfbf00;fill-opacity:0.3;stroke:#000000;stroke-opacity:0.3;" x="0.0" xlink:href="#mb0e9526321" y="465.868"/>
    </g>
   </g>
   <g id="PolyCollection_7">
    <defs>
     <path d="M 557.938771 -197.92625 
L 550.416479 -197.92625 
L 550.41941 -198.653523 
L 550.453135 -199.380795 
L 550.514846 -200.108068 
L 550.600559 -200.835341 
L 550.705215 -201.562614 
L 550.822833 -202.289886 
L 550.946703 -203.017159 
L 551.06961 -203.744432 
L 551.184077 -204.471705 
L 551.282625 -205.198977 
L 551.358037 -205.92625 
L 551.40362 -206.653523 
L 551.413455 -207.380795 
L 551.382634 -208.108068 
L 551.307468 -208.835341 
L 551.185673 -209.562614 
L 551.016512 -210.289886 
L 550.800901 -211.017159 
L 550.541466 -211.744432 
L 550.242538 -212.471705 
L 549.910096 -213.198977 
L 549.551642 -213.92625 
L 549.176004 -214.653523 
L 548.793091 -215.380795 
L 548.413566 -216.108068 
L 548.048492 -216.835341 
L 547.708926 -217.562614 
L 547.405501 -218.289886 
L 547.148009 -219.017159 
L 546.945004 -219.744432 
L 546.803456 -220.471705 
L 546.728465 -221.198977 
L 546.723057 -221.92625 
L 546.788078 -222.653523 
L 546.922191 -223.380795 
L 547.121966 -224.108068 
L 547.382078 -224.835341 
L 547.695574 -225.562614 
L 548.054216 -226.289886 
L 548.448864 -227.017159 
L 548.869876 -227.744432 
L 549.307512 -228.471705 
L 549.752308 -229.198977 
L 550.195409 -229.92625 
L 550.628844 -230.653523 
L 551.045732 -231.380795 
L 551.440416 -232.108068 
L 551.808527 -232.835341 
L 552.14698 -233.562614 
L 552.453912 -234.289886 
L 552.728575 -235.017159 
L 552.971187 -235.744432 
L 553.182773 -236.471705 
L 553.364982 -237.198977 
L 553.519913 -237.92625 
L 553.649949 -238.653523 
L 553.757597 -239.380795 
L 553.845357 -240.108068 
L 553.915601 -240.835341 
L 553.97048 -241.562614 
L 554.011841 -242.289886 
L 554.041161 -243.017159 
L 554.059492 -243.744432 
L 554.067419 -244.471705 
L 554.065009 -245.198977 
L 554.051781 -245.92625 
L 554.026657 -246.653523 
L 553.987934 -247.380795 
L 553.933245 -248.108068 
L 553.859537 -248.835341 
L 553.763053 -249.562614 
L 553.639344 -250.289886 
L 553.483297 -251.017159 
L 553.289208 -251.744432 
L 553.050889 -252.471705 
L 552.761835 -253.198977 
L 552.415441 -253.92625 
L 552.005279 -254.653523 
L 551.525426 -255.380795 
L 550.970848 -256.108068 
L 550.337816 -256.835341 
L 549.624339 -257.562614 
L 548.830594 -258.289886 
L 547.959321 -259.017159 
L 547.016157 -259.744432 
L 546.009868 -260.471705 
L 544.952463 -261.198977 
L 543.859148 -261.92625 
L 542.748118 -262.653523 
L 541.640161 -263.380795 
L 540.558091 -264.108068 
L 539.526025 -264.835341 
L 538.568514 -265.562614 
L 537.709598 -266.289886 
L 536.971809 -267.017159 
L 536.375197 -267.744432 
L 535.93642 -268.471705 
L 535.66798 -269.198977 
L 535.577625 -269.92625 
L 572.777625 -269.92625 
L 572.777625 -269.92625 
L 572.68727 -269.198977 
L 572.41883 -268.471705 
L 571.980053 -267.744432 
L 571.383441 -267.017159 
L 570.645652 -266.289886 
L 569.786736 -265.562614 
L 568.829225 -264.835341 
L 567.797159 -264.108068 
L 566.715089 -263.380795 
L 565.607132 -262.653523 
L 564.496102 -261.92625 
L 563.402787 -261.198977 
L 562.345382 -260.471705 
L 561.339093 -259.744432 
L 560.395929 -259.017159 
L 559.524656 -258.289886 
L 558.730911 -257.562614 
L 558.017434 -256.835341 
L 557.384402 -256.108068 
L 556.829824 -255.380795 
L 556.349971 -254.653523 
L 555.939809 -253.92625 
L 555.593415 -253.198977 
L 555.304361 -252.471705 
L 555.066042 -251.744432 
L 554.871953 -251.017159 
L 554.715906 -250.289886 
L 554.592197 -249.562614 
L 554.495713 -248.835341 
L 554.422005 -248.108068 
L 554.367316 -247.380795 
L 554.328593 -246.653523 
L 554.303469 -245.92625 
L 554.290241 -245.198977 
L 554.287831 -244.471705 
L 554.295758 -243.744432 
L 554.314089 -243.017159 
L 554.343409 -242.289886 
L 554.38477 -241.562614 
L 554.439649 -240.835341 
L 554.509893 -240.108068 
L 554.597653 -239.380795 
L 554.705301 -238.653523 
L 554.835337 -237.92625 
L 554.990268 -237.198977 
L 555.172477 -236.471705 
L 555.384063 -235.744432 
L 555.626675 -235.017159 
L 555.901338 -234.289886 
L 556.20827 -233.562614 
L 556.546723 -232.835341 
L 556.914834 -232.108068 
L 557.309518 -231.380795 
L 557.726406 -230.653523 
L 558.159841 -229.92625 
L 558.602942 -229.198977 
L 559.047738 -228.471705 
L 559.485374 -227.744432 
L 559.906386 -227.017159 
L 560.301034 -226.289886 
L 560.659676 -225.562614 
L 560.973172 -224.835341 
L 561.233284 -224.108068 
L 561.433059 -223.380795 
L 561.567172 -222.653523 
L 561.632193 -221.92625 
L 561.626785 -221.198977 
L 561.551794 -220.471705 
L 561.410246 -219.744432 
L 561.207241 -219.017159 
L 560.949749 -218.289886 
L 560.646324 -217.562614 
L 560.306758 -216.835341 
L 559.941684 -216.108068 
L 559.562159 -215.380795 
L 559.179246 -214.653523 
L 558.803608 -213.92625 
L 558.445154 -213.198977 
L 558.112712 -212.471705 
L 557.813784 -211.744432 
L 557.554349 -211.017159 
L 557.338738 -210.289886 
L 557.169577 -209.562614 
L 557.047782 -208.835341 
L 556.972616 -208.108068 
L 556.941795 -207.380795 
L 556.95163 -206.653523 
L 556.997213 -205.92625 
L 557.072625 -205.198977 
L 557.171173 -204.471705 
L 557.28564 -203.744432 
L 557.408547 -203.017159 
L 557.532417 -202.289886 
L 557.650035 -201.562614 
L 557.754691 -200.835341 
L 557.840404 -200.108068 
L 557.902115 -199.380795 
L 557.93584 -198.653523 
L 557.938771 -197.92625 
z
" id="m371a97b4f1" style="stroke:#000000;stroke-opacity:0.3;"/>
    </defs>
    <g clip-path="url(#p261a7046af)">
     <use style="fill:#bfbf00;fill-opacity:0.3;stroke:#000000;stroke-opacity:0.3;" x="0.0" xlink:href="#m371a97b4f1" y="465.868"/>
    </g>
   </g>
   <g id="PolyCollection_8">
    <defs>
     <path d="M 642.526884 -125.92625 
L 614.628366 -125.92625 
L 614.660241 -127.380795 
L 614.787542 -128.835341 
L 615.00759 -130.289886 
L 615.315816 -131.744432 
L 615.705914 -133.198977 
L 616.170043 -134.653523 
L 616.699077 -136.108068 
L 617.282889 -137.562614 
L 617.910656 -139.017159 
L 618.57117 -140.471705 
L 619.253144 -141.92625 
L 619.945499 -143.380795 
L 620.637628 -144.835341 
L 621.319619 -146.289886 
L 621.982435 -147.744432 
L 622.618051 -149.198977 
L 623.219549 -150.653523 
L 623.781155 -152.108068 
L 624.29825 -153.562614 
L 624.767335 -155.017159 
L 625.185969 -156.471705 
L 625.55269 -157.92625 
L 625.866914 -159.380795 
L 626.128833 -160.835341 
L 626.33931 -162.289886 
L 626.499777 -163.744432 
L 626.612149 -165.198977 
L 626.678742 -166.653523 
L 626.702213 -168.108068 
L 626.68551 -169.562614 
L 626.631837 -171.017159 
L 626.544627 -172.471705 
L 626.427527 -173.92625 
L 626.284383 -175.380795 
L 626.119235 -176.835341 
L 625.936294 -178.289886 
L 625.739927 -179.744432 
L 625.534628 -181.198977 
L 625.324973 -182.653523 
L 625.115571 -184.108068 
L 624.911001 -185.562614 
L 624.715737 -187.017159 
L 624.534063 -188.471705 
L 624.369992 -189.92625 
L 624.227169 -191.380795 
L 624.108787 -192.835341 
L 624.017505 -194.289886 
L 623.955379 -195.744432 
L 623.923804 -197.198977 
L 623.923469 -198.653523 
L 623.954344 -200.108068 
L 624.015669 -201.562614 
L 624.105978 -203.017159 
L 624.22313 -204.471705 
L 624.364368 -205.92625 
L 624.526375 -207.380795 
L 624.705361 -208.835341 
L 624.897136 -210.289886 
L 625.097197 -211.744432 
L 625.30081 -213.198977 
L 625.503082 -214.653523 
L 625.699034 -216.108068 
L 625.883654 -217.562614 
L 626.051945 -219.017159 
L 626.19896 -220.471705 
L 626.319832 -221.92625 
L 626.409791 -223.380795 
L 626.464184 -224.835341 
L 626.478489 -226.289886 
L 626.448341 -227.744432 
L 626.369563 -229.198977 
L 626.238209 -230.653523 
L 626.050628 -232.108068 
L 625.803543 -233.562614 
L 625.494148 -235.017159 
L 625.12023 -236.471705 
L 624.680296 -237.92625 
L 624.173727 -239.380795 
L 623.60092 -240.835341 
L 622.963444 -242.289886 
L 622.264175 -243.744432 
L 621.507412 -245.198977 
L 620.698968 -246.653523 
L 619.846216 -248.108068 
L 618.958085 -249.562614 
L 618.045005 -251.017159 
L 617.118789 -252.471705 
L 616.192451 -253.92625 
L 615.279966 -255.380795 
L 614.395969 -256.835341 
L 613.555411 -258.289886 
L 612.773168 -259.744432 
L 612.063636 -261.198977 
L 611.440312 -262.653523 
L 610.915383 -264.108068 
L 610.499349 -265.562614 
L 610.200682 -267.017159 
L 610.025553 -268.471705 
L 609.977625 -269.92625 
L 647.177625 -269.92625 
L 647.177625 -269.92625 
L 647.129697 -268.471705 
L 646.954568 -267.017159 
L 646.655901 -265.562614 
L 646.239867 -264.108068 
L 645.714938 -262.653523 
L 645.091614 -261.198977 
L 644.382082 -259.744432 
L 643.599839 -258.289886 
L 642.759281 -256.835341 
L 641.875284 -255.380795 
L 640.962799 -253.92625 
L 640.036461 -252.471705 
L 639.110245 -251.017159 
L 638.197165 -249.562614 
L 637.309034 -248.108068 
L 636.456282 -246.653523 
L 635.647838 -245.198977 
L 634.891075 -243.744432 
L 634.191806 -242.289886 
L 633.55433 -240.835341 
L 632.981523 -239.380795 
L 632.474954 -237.92625 
L 632.03502 -236.471705 
L 631.661102 -235.017159 
L 631.351707 -233.562614 
L 631.104622 -232.108068 
L 630.917041 -230.653523 
L 630.785687 -229.198977 
L 630.706909 -227.744432 
L 630.676761 -226.289886 
L 630.691066 -224.835341 
L 630.745459 -223.380795 
L 630.835418 -221.92625 
L 630.95629 -220.471705 
L 631.103305 -219.017159 
L 631.271596 -217.562614 
L 631.456216 -216.108068 
L 631.652168 -214.653523 
L 631.85444 -213.198977 
L 632.058053 -211.744432 
L 632.258114 -210.289886 
L 632.449889 -208.835341 
L 632.628875 -207.380795 
L 632.790882 -205.92625 
L 632.93212 -204.471705 
L 633.049272 -203.017159 
L 633.139581 -201.562614 
L 633.200906 -200.108068 
L 633.231781 -198.653523 
L 633.231446 -197.198977 
L 633.199871 -195.744432 
L 633.137745 -194.289886 
L 633.046463 -192.835341 
L 632.928081 -191.380795 
L 632.785258 -189.92625 
L 632.621187 -188.471705 
L 632.439513 -187.017159 
L 632.244249 -185.562614 
L 632.039679 -184.108068 
L 631.830277 -182.653523 
L 631.620622 -181.198977 
L 631.415323 -179.744432 
L 631.218956 -178.289886 
L 631.036015 -176.835341 
L 630.870867 -175.380795 
L 630.727723 -173.92625 
L 630.610623 -172.471705 
L 630.523413 -171.017159 
L 630.46974 -169.562614 
L 630.453037 -168.108068 
L 630.476508 -166.653523 
L 630.543101 -165.198977 
L 630.655473 -163.744432 
L 630.81594 -162.289886 
L 631.026417 -160.835341 
L 631.288336 -159.380795 
L 631.60256 -157.92625 
L 631.969281 -156.471705 
L 632.387915 -155.017159 
L 632.857 -153.562614 
L 633.374095 -152.108068 
L 633.935701 -150.653523 
L 634.537199 -149.198977 
L 635.172815 -147.744432 
L 635.835631 -146.289886 
L 636.517622 -144.835341 
L 637.209751 -143.380795 
L 637.902106 -141.92625 
L 638.58408 -140.471705 
L 639.244594 -139.017159 
L 639.872361 -137.562614 
L 640.456173 -136.108068 
L 640.985207 -134.653523 
L 641.449336 -133.198977 
L 641.839434 -131.744432 
L 642.14766 -130.289886 
L 642.367708 -128.835341 
L 642.495009 -127.380795 
L 642.526884 -125.92625 
z
" id="m9202626c9a" style="stroke:#000000;stroke-opacity:0.3;"/>
    </defs>
    <g clip-path="url(#p261a7046af)">
     <use style="fill:#bfbf00;fill-opacity:0.3;stroke:#000000;stroke-opacity:0.3;" x="0.0" xlink:href="#m9202626c9a" y="465.868"/>
    </g>
   </g>
   <g id="LineCollection_1">
    <path clip-path="url(#p261a7046af)" d="M 98.477625 123.94175 
L 117.077625 123.94175 
" style="fill:none;stroke:#ff0000;"/>
    <path clip-path="url(#p261a7046af)" d="M 172.877625 195.58175 
L 191.477625 195.58175 
" style="fill:none;stroke:#ff0000;"/>
    <path clip-path="url(#p261a7046af)" d="M 247.277625 195.94175 
L 265.877625 195.94175 
" style="fill:none;stroke:#ff0000;"/>
    <path clip-path="url(#p261a7046af)" d="M 321.677625 195.94175 
L 340.277625 195.94175 
" style="fill:none;stroke:#ff0000;"/>
    <path clip-path="url(#p261a7046af)" d="M 396.077625 195.94175 
L 414.677625 195.94175 
" style="fill:none;stroke:#ff0000;"/>
    <path clip-path="url(#p261a7046af)" d="M 470.477625 195.94175 
L 489.077625 195.94175 
" style="fill:none;stroke:#ff0000;"/>
    <path clip-path="url(#p261a7046af)" d="M 544.877625 195.94175 
L 563.477625 195.94175 
" style="fill:none;stroke:#ff0000;"/>
    <path clip-path="url(#p261a7046af)" d="M 619.277625 232.30175 
L 637.877625 232.30175 
" style="fill:none;stroke:#ff0000;"/>
   </g>
   <g id="patch_3">
    <path d="M 702.977625 368.74175 
L 702.977625 23.14175 
" style="fill:none;stroke:#000000;stroke-linecap:square;stroke-linejoin:miter;"/>
   </g>
   <g id="patch_4">
    <path d="M 33.377625 368.74175 
L 33.377625 23.14175 
" style="fill:none;stroke:#000000;stroke-linecap:square;stroke-linejoin:miter;"/>
   </g>
   <g id="patch_5">
    <path d="M 33.377625 368.74175 
L 702.977625 368.74175 
" style="fill:none;stroke:#000000;stroke-linecap:square;stroke-linejoin:miter;"/>
   </g>
   <g id="patch_6">
    <path d="M 33.377625 23.14175 
L 702.977625 23.14175 
" style="fill:none;stroke:#000000;stroke-linecap:square;stroke-linejoin:miter;"/>
   </g>
   <g id="matplotlib.axis_1">
    <g id="xtick_1">
     <g id="line2d_1">
      <defs>
       <path d="M 0 0 
L 0 -4 
" id="mecf07d7dca" style="stroke:#000000;stroke-width:0.5;"/>
      </defs>
      <g>
       <use style="stroke:#000000;stroke-width:0.5;" x="107.777625" xlink:href="#mecf07d7dca" y="368.74175"/>
      </g>
     </g>
     <g id="line2d_2">
      <defs>
       <path d="M 0 0 
L 0 4 
" id="m4e7d4f5efe" style="stroke:#000000;stroke-width:0.5;"/>
      </defs>
      <g>
       <use style="stroke:#000000;stroke-width:0.5;" x="107.777625" xlink:href="#m4e7d4f5efe" y="23.14175"/>
      </g>
     </g>
     <g id="text_1">
      <!-- Defector -->
      <defs>
       <path d="M 18.3125 70.21875 
L 18.3125 54.6875 
L 36.8125 54.6875 
L 36.8125 47.703125 
L 18.3125 47.703125 
L 18.3125 18.015625 
Q 18.3125 11.328125 20.140625 9.421875 
Q 21.96875 7.515625 27.59375 7.515625 
L 36.8125 7.515625 
L 36.8125 0 
L 27.59375 0 
Q 17.1875 0 13.234375 3.875 
Q 9.28125 7.765625 9.28125 18.015625 
L 9.28125 47.703125 
L 2.6875 47.703125 
L 2.6875 54.6875 
L 9.28125 54.6875 
L 9.28125 70.21875 
z
" id="DejaVuSans-74"/>
       <path d="M 56.203125 29.59375 
L 56.203125 25.203125 
L 14.890625 25.203125 
Q 15.484375 15.921875 20.484375 11.0625 
Q 25.484375 6.203125 34.421875 6.203125 
Q 39.59375 6.203125 44.453125 7.46875 
Q 49.3125 8.734375 54.109375 11.28125 
L 54.109375 2.78125 
Q 49.265625 0.734375 44.1875 -0.34375 
Q 39.109375 -1.421875 33.890625 -1.421875 
Q 20.796875 -1.421875 13.15625 6.1875 
Q 5.515625 13.8125 5.515625 26.8125 
Q 5.515625 40.234375 12.765625 48.109375 
Q 20.015625 56 32.328125 56 
Q 43.359375 56 49.78125 48.890625 
Q 56.203125 41.796875 56.203125 29.59375 
M 47.21875 32.234375 
Q 47.125 39.59375 43.09375 43.984375 
Q 39.0625 48.390625 32.421875 48.390625 
Q 24.90625 48.390625 20.390625 44.140625 
Q 15.875 39.890625 15.1875 32.171875 
z
" id="DejaVuSans-65"/>
       <path d="M 48.78125 52.59375 
L 48.78125 44.1875 
Q 44.96875 46.296875 41.140625 47.34375 
Q 37.3125 48.390625 33.40625 48.390625 
Q 24.65625 48.390625 19.8125 42.84375 
Q 14.984375 37.3125 14.984375 27.296875 
Q 14.984375 17.28125 19.8125 11.734375 
Q 24.65625 6.203125 33.40625 6.203125 
Q 37.3125 6.203125 41.140625 7.25 
Q 44.96875 8.296875 48.78125 10.40625 
L 48.78125 2.09375 
Q 45.015625 0.34375 40.984375 -0.53125 
Q 36.96875 -1.421875 32.421875 -1.421875 
Q 20.0625 -1.421875 12.78125 6.34375 
Q 5.515625 14.109375 5.515625 27.296875 
Q 5.515625 40.671875 12.859375 48.328125 
Q 20.21875 56 33.015625 56 
Q 37.15625 56 41.109375 55.140625 
Q 45.0625 54.296875 48.78125 52.59375 
" id="DejaVuSans-63"/>
       <path d="M 30.609375 48.390625 
Q 23.390625 48.390625 19.1875 42.75 
Q 14.984375 37.109375 14.984375 27.296875 
Q 14.984375 17.484375 19.15625 11.84375 
Q 23.34375 6.203125 30.609375 6.203125 
Q 37.796875 6.203125 41.984375 11.859375 
Q 46.1875 17.53125 46.1875 27.296875 
Q 46.1875 37.015625 41.984375 42.703125 
Q 37.796875 48.390625 30.609375 48.390625 
M 30.609375 56 
Q 42.328125 56 49.015625 48.375 
Q 55.71875 40.765625 55.71875 27.296875 
Q 55.71875 13.875 49.015625 6.21875 
Q 42.328125 -1.421875 30.609375 -1.421875 
Q 18.84375 -1.421875 12.171875 6.21875 
Q 5.515625 13.875 5.515625 27.296875 
Q 5.515625 40.765625 12.171875 48.375 
Q 18.84375 56 30.609375 56 
" id="DejaVuSans-6f"/>
       <path d="M 41.109375 46.296875 
Q 39.59375 47.171875 37.8125 47.578125 
Q 36.03125 48 33.890625 48 
Q 26.265625 48 22.1875 43.046875 
Q 18.109375 38.09375 18.109375 28.8125 
L 18.109375 0 
L 9.078125 0 
L 9.078125 54.6875 
L 18.109375 54.6875 
L 18.109375 46.1875 
Q 20.953125 51.171875 25.484375 53.578125 
Q 30.03125 56 36.53125 56 
Q 37.453125 56 38.578125 55.875 
Q 39.703125 55.765625 41.0625 55.515625 
z
" id="DejaVuSans-72"/>
       <path d="M 37.109375 75.984375 
L 37.109375 68.5 
L 28.515625 68.5 
Q 23.6875 68.5 21.796875 66.546875 
Q 19.921875 64.59375 19.921875 59.515625 
L 19.921875 54.6875 
L 34.71875 54.6875 
L 34.71875 47.703125 
L 19.921875 47.703125 
L 19.921875 0 
L 10.890625 0 
L 10.890625 47.703125 
L 2.296875 47.703125 
L 2.296875 54.6875 
L 10.890625 54.6875 
L 10.890625 58.5 
Q 10.890625 67.625 15.140625 71.796875 
Q 19.390625 75.984375 28.609375 75.984375 
z
" id="DejaVuSans-66"/>
       <path d="M 19.671875 64.796875 
L 19.671875 8.109375 
L 31.59375 8.109375 
Q 46.6875 8.109375 53.6875 14.9375 
Q 60.6875 21.78125 60.6875 36.53125 
Q 60.6875 51.171875 53.6875 57.984375 
Q 46.6875 64.796875 31.59375 64.796875 
z
M 9.8125 72.90625 
L 30.078125 72.90625 
Q 51.265625 72.90625 61.171875 64.09375 
Q 71.09375 55.28125 71.09375 36.53125 
Q 71.09375 17.671875 61.125 8.828125 
Q 51.171875 0 30.078125 0 
L 9.8125 0 
z
" id="DejaVuSans-44"/>
      </defs>
      <g transform="translate(109.985125 407.28175)rotate(-90.0)scale(0.08 -0.08)">
       <use xlink:href="#DejaVuSans-44"/>
       <use x="77.001953125" xlink:href="#DejaVuSans-65"/>
       <use x="138.525390625" xlink:href="#DejaVuSans-66"/>
       <use x="173.73046875" xlink:href="#DejaVuSans-65"/>
       <use x="235.25390625" xlink:href="#DejaVuSans-63"/>
       <use x="290.234375" xlink:href="#DejaVuSans-74"/>
       <use x="329.443359375" xlink:href="#DejaVuSans-6f"/>
       <use x="390.625" xlink:href="#DejaVuSans-72"/>
      </g>
     </g>
    </g>
    <g id="xtick_2">
     <g id="line2d_3">
      <g>
       <use style="stroke:#000000;stroke-width:0.5;" x="182.177625" xlink:href="#mecf07d7dca" y="368.74175"/>
      </g>
     </g>
     <g id="line2d_4">
      <g>
       <use style="stroke:#000000;stroke-width:0.5;" x="182.177625" xlink:href="#m4e7d4f5efe" y="23.14175"/>
      </g>
     </g>
     <g id="text_2">
      <!-- Bully -->
      <defs>
       <path d="M 19.671875 34.8125 
L 19.671875 8.109375 
L 35.5 8.109375 
Q 43.453125 8.109375 47.28125 11.40625 
Q 51.125 14.703125 51.125 21.484375 
Q 51.125 28.328125 47.28125 31.5625 
Q 43.453125 34.8125 35.5 34.8125 
z
M 19.671875 64.796875 
L 19.671875 42.828125 
L 34.28125 42.828125 
Q 41.5 42.828125 45.03125 45.53125 
Q 48.578125 48.25 48.578125 53.8125 
Q 48.578125 59.328125 45.03125 62.0625 
Q 41.5 64.796875 34.28125 64.796875 
z
M 9.8125 72.90625 
L 35.015625 72.90625 
Q 46.296875 72.90625 52.390625 68.21875 
Q 58.5 63.53125 58.5 54.890625 
Q 58.5 48.1875 55.375 44.234375 
Q 52.25 40.28125 46.1875 39.3125 
Q 53.46875 37.75 57.5 32.78125 
Q 61.53125 27.828125 61.53125 20.40625 
Q 61.53125 10.640625 54.890625 5.3125 
Q 48.25 0 35.984375 0 
L 9.8125 0 
z
" id="DejaVuSans-42"/>
       <path d="M 8.5 21.578125 
L 8.5 54.6875 
L 17.484375 54.6875 
L 17.484375 21.921875 
Q 17.484375 14.15625 20.5 10.265625 
Q 23.53125 6.390625 29.59375 6.390625 
Q 36.859375 6.390625 41.078125 11.03125 
Q 45.3125 15.671875 45.3125 23.6875 
L 45.3125 54.6875 
L 54.296875 54.6875 
L 54.296875 0 
L 45.3125 0 
L 45.3125 8.40625 
Q 42.046875 3.421875 37.71875 1 
Q 33.40625 -1.421875 27.6875 -1.421875 
Q 18.265625 -1.421875 13.375 4.4375 
Q 8.5 10.296875 8.5 21.578125 
M 31.109375 56 
z
" id="DejaVuSans-75"/>
       <path d="M 9.421875 75.984375 
L 18.40625 75.984375 
L 18.40625 0 
L 9.421875 0 
z
" id="DejaVuSans-6c"/>
       <path d="M 32.171875 -5.078125 
Q 28.375 -14.84375 24.75 -17.8125 
Q 21.140625 -20.796875 15.09375 -20.796875 
L 7.90625 -20.796875 
L 7.90625 -13.28125 
L 13.1875 -13.28125 
Q 16.890625 -13.28125 18.9375 -11.515625 
Q 21 -9.765625 23.484375 -3.21875 
L 25.09375 0.875 
L 2.984375 54.6875 
L 12.5 54.6875 
L 29.59375 11.921875 
L 46.6875 54.6875 
L 56.203125 54.6875 
z
" id="DejaVuSans-79"/>
      </defs>
      <g transform="translate(184.385125 392.4805)rotate(-90.0)scale(0.08 -0.08)">
       <use xlink:href="#DejaVuSans-42"/>
       <use x="68.603515625" xlink:href="#DejaVuSans-75"/>
       <use x="131.982421875" xlink:href="#DejaVuSans-6c"/>
       <use x="159.765625" xlink:href="#DejaVuSans-6c"/>
       <use x="187.548828125" xlink:href="#DejaVuSans-79"/>
      </g>
     </g>
    </g>
    <g id="xtick_3">
     <g id="line2d_5">
      <g>
       <use style="stroke:#000000;stroke-width:0.5;" x="256.577625" xlink:href="#mecf07d7dca" y="368.74175"/>
      </g>
     </g>
     <g id="line2d_6">
      <g>
       <use style="stroke:#000000;stroke-width:0.5;" x="256.577625" xlink:href="#m4e7d4f5efe" y="23.14175"/>
      </g>
     </g>
     <g id="text_3">
      <!-- Tit For Tat -->
      <defs>
       <path d="M 9.421875 54.6875 
L 18.40625 54.6875 
L 18.40625 0 
L 9.421875 0 
z
M 9.421875 75.984375 
L 18.40625 75.984375 
L 18.40625 64.59375 
L 9.421875 64.59375 
z
" id="DejaVuSans-69"/>
       <path d="M 34.28125 27.484375 
Q 23.390625 27.484375 19.1875 25 
Q 14.984375 22.515625 14.984375 16.5 
Q 14.984375 11.71875 18.140625 8.90625 
Q 21.296875 6.109375 26.703125 6.109375 
Q 34.1875 6.109375 38.703125 11.40625 
Q 43.21875 16.703125 43.21875 25.484375 
L 43.21875 27.484375 
z
M 52.203125 31.203125 
L 52.203125 0 
L 43.21875 0 
L 43.21875 8.296875 
Q 40.140625 3.328125 35.546875 0.953125 
Q 30.953125 -1.421875 24.3125 -1.421875 
Q 15.921875 -1.421875 10.953125 3.296875 
Q 6 8.015625 6 15.921875 
Q 6 25.140625 12.171875 29.828125 
Q 18.359375 34.515625 30.609375 34.515625 
L 43.21875 34.515625 
L 43.21875 35.40625 
Q 43.21875 41.609375 39.140625 45 
Q 35.0625 48.390625 27.6875 48.390625 
Q 23 48.390625 18.546875 47.265625 
Q 14.109375 46.140625 10.015625 43.890625 
L 10.015625 52.203125 
Q 14.9375 54.109375 19.578125 55.046875 
Q 24.21875 56 28.609375 56 
Q 40.484375 56 46.34375 49.84375 
Q 52.203125 43.703125 52.203125 31.203125 
" id="DejaVuSans-61"/>
       <path id="DejaVuSans-20"/>
       <path d="M -0.296875 72.90625 
L 61.375 72.90625 
L 61.375 64.59375 
L 35.5 64.59375 
L 35.5 0 
L 25.59375 0 
L 25.59375 64.59375 
L -0.296875 64.59375 
z
" id="DejaVuSans-54"/>
       <path d="M 9.8125 72.90625 
L 51.703125 72.90625 
L 51.703125 64.59375 
L 19.671875 64.59375 
L 19.671875 43.109375 
L 48.578125 43.109375 
L 48.578125 34.8125 
L 19.671875 34.8125 
L 19.671875 0 
L 9.8125 0 
z
" id="DejaVuSans-46"/>
      </defs>
      <g transform="translate(258.785125 413.75425)rotate(-90.0)scale(0.08 -0.08)">
       <use xlink:href="#DejaVuSans-54"/>
       <use x="61.037109375" xlink:href="#DejaVuSans-69"/>
       <use x="88.8203125" xlink:href="#DejaVuSans-74"/>
       <use x="128.029296875" xlink:href="#DejaVuSans-20"/>
       <use x="159.81640625" xlink:href="#DejaVuSans-46"/>
       <use x="217.2890625" xlink:href="#DejaVuSans-6f"/>
       <use x="278.470703125" xlink:href="#DejaVuSans-72"/>
       <use x="319.583984375" xlink:href="#DejaVuSans-20"/>
       <use x="351.37109375" xlink:href="#DejaVuSans-54"/>
       <use x="412.205078125" xlink:href="#DejaVuSans-61"/>
       <use x="473.484375" xlink:href="#DejaVuSans-74"/>
      </g>
     </g>
    </g>
    <g id="xtick_4">
     <g id="line2d_7">
      <g>
       <use style="stroke:#000000;stroke-width:0.5;" x="330.977625" xlink:href="#mecf07d7dca" y="368.74175"/>
      </g>
     </g>
     <g id="line2d_8">
      <g>
       <use style="stroke:#000000;stroke-width:0.5;" x="330.977625" xlink:href="#m4e7d4f5efe" y="23.14175"/>
      </g>
     </g>
     <g id="text_4">
      <!-- Alternator -->
      <defs>
       <path d="M 34.1875 63.1875 
L 20.796875 26.90625 
L 47.609375 26.90625 
z
M 28.609375 72.90625 
L 39.796875 72.90625 
L 67.578125 0 
L 57.328125 0 
L 50.6875 18.703125 
L 17.828125 18.703125 
L 11.1875 0 
L 0.78125 0 
z
" id="DejaVuSans-41"/>
       <path d="M 54.890625 33.015625 
L 54.890625 0 
L 45.90625 0 
L 45.90625 32.71875 
Q 45.90625 40.484375 42.875 44.328125 
Q 39.84375 48.1875 33.796875 48.1875 
Q 26.515625 48.1875 22.3125 43.546875 
Q 18.109375 38.921875 18.109375 30.90625 
L 18.109375 0 
L 9.078125 0 
L 9.078125 54.6875 
L 18.109375 54.6875 
L 18.109375 46.1875 
Q 21.34375 51.125 25.703125 53.5625 
Q 30.078125 56 35.796875 56 
Q 45.21875 56 50.046875 50.171875 
Q 54.890625 44.34375 54.890625 33.015625 
" id="DejaVuSans-6e"/>
      </defs>
      <g transform="translate(333.185125 413.0755)rotate(-90.0)scale(0.08 -0.08)">
       <use xlink:href="#DejaVuSans-41"/>
       <use x="68.408203125" xlink:href="#DejaVuSans-6c"/>
       <use x="96.19140625" xlink:href="#DejaVuSans-74"/>
       <use x="135.400390625" xlink:href="#DejaVuSans-65"/>
       <use x="196.923828125" xlink:href="#DejaVuSans-72"/>
       <use x="238.021484375" xlink:href="#DejaVuSans-6e"/>
       <use x="301.400390625" xlink:href="#DejaVuSans-61"/>
       <use x="362.6796875" xlink:href="#DejaVuSans-74"/>
       <use x="401.888671875" xlink:href="#DejaVuSans-6f"/>
       <use x="463.0703125" xlink:href="#DejaVuSans-72"/>
      </g>
     </g>
    </g>
    <g id="xtick_5">
     <g id="line2d_9">
      <g>
       <use style="stroke:#000000;stroke-width:0.5;" x="405.377625" xlink:href="#mecf07d7dca" y="368.74175"/>
      </g>
     </g>
     <g id="line2d_10">
      <g>
       <use style="stroke:#000000;stroke-width:0.5;" x="405.377625" xlink:href="#m4e7d4f5efe" y="23.14175"/>
      </g>
     </g>
     <g id="text_5">
      <!-- Suspicious Tit For Tat -->
      <defs>
       <path d="M 44.28125 53.078125 
L 44.28125 44.578125 
Q 40.484375 46.53125 36.375 47.5 
Q 32.28125 48.484375 27.875 48.484375 
Q 21.1875 48.484375 17.84375 46.4375 
Q 14.5 44.390625 14.5 40.28125 
Q 14.5 37.15625 16.890625 35.375 
Q 19.28125 33.59375 26.515625 31.984375 
L 29.59375 31.296875 
Q 39.15625 29.25 43.1875 25.515625 
Q 47.21875 21.78125 47.21875 15.09375 
Q 47.21875 7.46875 41.1875 3.015625 
Q 35.15625 -1.421875 24.609375 -1.421875 
Q 20.21875 -1.421875 15.453125 -0.5625 
Q 10.6875 0.296875 5.421875 2 
L 5.421875 11.28125 
Q 10.40625 8.6875 15.234375 7.390625 
Q 20.0625 6.109375 24.8125 6.109375 
Q 31.15625 6.109375 34.5625 8.28125 
Q 37.984375 10.453125 37.984375 14.40625 
Q 37.984375 18.0625 35.515625 20.015625 
Q 33.0625 21.96875 24.703125 23.78125 
L 21.578125 24.515625 
Q 13.234375 26.265625 9.515625 29.90625 
Q 5.8125 33.546875 5.8125 39.890625 
Q 5.8125 47.609375 11.28125 51.796875 
Q 16.75 56 26.8125 56 
Q 31.78125 56 36.171875 55.265625 
Q 40.578125 54.546875 44.28125 53.078125 
" id="DejaVuSans-73"/>
       <path d="M 18.109375 8.203125 
L 18.109375 -20.796875 
L 9.078125 -20.796875 
L 9.078125 54.6875 
L 18.109375 54.6875 
L 18.109375 46.390625 
Q 20.953125 51.265625 25.265625 53.625 
Q 29.59375 56 35.59375 56 
Q 45.5625 56 51.78125 48.09375 
Q 58.015625 40.1875 58.015625 27.296875 
Q 58.015625 14.40625 51.78125 6.484375 
Q 45.5625 -1.421875 35.59375 -1.421875 
Q 29.59375 -1.421875 25.265625 0.953125 
Q 20.953125 3.328125 18.109375 8.203125 
M 48.6875 27.296875 
Q 48.6875 37.203125 44.609375 42.84375 
Q 40.53125 48.484375 33.40625 48.484375 
Q 26.265625 48.484375 22.1875 42.84375 
Q 18.109375 37.203125 18.109375 27.296875 
Q 18.109375 17.390625 22.1875 11.75 
Q 26.265625 6.109375 33.40625 6.109375 
Q 40.53125 6.109375 44.609375 11.75 
Q 48.6875 17.390625 48.6875 27.296875 
" id="DejaVuSans-70"/>
       <path d="M 53.515625 70.515625 
L 53.515625 60.890625 
Q 47.90625 63.578125 42.921875 64.890625 
Q 37.9375 66.21875 33.296875 66.21875 
Q 25.25 66.21875 20.875 63.09375 
Q 16.5 59.96875 16.5 54.203125 
Q 16.5 49.359375 19.40625 46.890625 
Q 22.3125 44.4375 30.421875 42.921875 
L 36.375 41.703125 
Q 47.40625 39.59375 52.65625 34.296875 
Q 57.90625 29 57.90625 20.125 
Q 57.90625 9.515625 50.796875 4.046875 
Q 43.703125 -1.421875 29.984375 -1.421875 
Q 24.8125 -1.421875 18.96875 -0.25 
Q 13.140625 0.921875 6.890625 3.21875 
L 6.890625 13.375 
Q 12.890625 10.015625 18.65625 8.296875 
Q 24.421875 6.59375 29.984375 6.59375 
Q 38.421875 6.59375 43.015625 9.90625 
Q 47.609375 13.234375 47.609375 19.390625 
Q 47.609375 24.75 44.3125 27.78125 
Q 41.015625 30.8125 33.5 32.328125 
L 27.484375 33.5 
Q 16.453125 35.6875 11.515625 40.375 
Q 6.59375 45.0625 6.59375 53.421875 
Q 6.59375 63.09375 13.40625 68.65625 
Q 20.21875 74.21875 32.171875 74.21875 
Q 37.3125 74.21875 42.625 73.28125 
Q 47.953125 72.359375 53.515625 70.515625 
" id="DejaVuSans-53"/>
      </defs>
      <g transform="translate(407.585125 458.668)rotate(-90.0)scale(0.08 -0.08)">
       <use xlink:href="#DejaVuSans-53"/>
       <use x="63.4765625" xlink:href="#DejaVuSans-75"/>
       <use x="126.85546875" xlink:href="#DejaVuSans-73"/>
       <use x="178.955078125" xlink:href="#DejaVuSans-70"/>
       <use x="242.431640625" xlink:href="#DejaVuSans-69"/>
       <use x="270.21484375" xlink:href="#DejaVuSans-63"/>
       <use x="325.1953125" xlink:href="#DejaVuSans-69"/>
       <use x="352.978515625" xlink:href="#DejaVuSans-6f"/>
       <use x="414.16015625" xlink:href="#DejaVuSans-75"/>
       <use x="477.5390625" xlink:href="#DejaVuSans-73"/>
       <use x="529.638671875" xlink:href="#DejaVuSans-20"/>
       <use x="561.42578125" xlink:href="#DejaVuSans-54"/>
       <use x="622.462890625" xlink:href="#DejaVuSans-69"/>
       <use x="650.24609375" xlink:href="#DejaVuSans-74"/>
       <use x="689.455078125" xlink:href="#DejaVuSans-20"/>
       <use x="721.2421875" xlink:href="#DejaVuSans-46"/>
       <use x="778.71484375" xlink:href="#DejaVuSans-6f"/>
       <use x="839.896484375" xlink:href="#DejaVuSans-72"/>
       <use x="881.009765625" xlink:href="#DejaVuSans-20"/>
       <use x="912.796875" xlink:href="#DejaVuSans-54"/>
       <use x="973.630859375" xlink:href="#DejaVuSans-61"/>
       <use x="1034.91015625" xlink:href="#DejaVuSans-74"/>
      </g>
     </g>
    </g>
    <g id="xtick_6">
     <g id="line2d_11">
      <g>
       <use style="stroke:#000000;stroke-width:0.5;" x="479.777625" xlink:href="#mecf07d7dca" y="368.74175"/>
      </g>
     </g>
     <g id="line2d_12">
      <g>
       <use style="stroke:#000000;stroke-width:0.5;" x="479.777625" xlink:href="#m4e7d4f5efe" y="23.14175"/>
      </g>
     </g>
     <g id="text_6">
      <!-- Anti Tit For Tat -->
      <g transform="translate(481.985125 432.198)rotate(-90.0)scale(0.08 -0.08)">
       <use xlink:href="#DejaVuSans-41"/>
       <use x="68.408203125" xlink:href="#DejaVuSans-6e"/>
       <use x="131.787109375" xlink:href="#DejaVuSans-74"/>
       <use x="170.99609375" xlink:href="#DejaVuSans-69"/>
       <use x="198.779296875" xlink:href="#DejaVuSans-20"/>
       <use x="230.56640625" xlink:href="#DejaVuSans-54"/>
       <use x="291.603515625" xlink:href="#DejaVuSans-69"/>
       <use x="319.38671875" xlink:href="#DejaVuSans-74"/>
       <use x="358.595703125" xlink:href="#DejaVuSans-20"/>
       <use x="390.3828125" xlink:href="#DejaVuSans-46"/>
       <use x="447.85546875" xlink:href="#DejaVuSans-6f"/>
       <use x="509.037109375" xlink:href="#DejaVuSans-72"/>
       <use x="550.150390625" xlink:href="#DejaVuSans-20"/>
       <use x="581.9375" xlink:href="#DejaVuSans-54"/>
       <use x="642.771484375" xlink:href="#DejaVuSans-61"/>
       <use x="704.05078125" xlink:href="#DejaVuSans-74"/>
      </g>
     </g>
    </g>
    <g id="xtick_7">
     <g id="line2d_13">
      <g>
       <use style="stroke:#000000;stroke-width:0.5;" x="554.177625" xlink:href="#mecf07d7dca" y="368.74175"/>
      </g>
     </g>
     <g id="line2d_14">
      <g>
       <use style="stroke:#000000;stroke-width:0.5;" x="554.177625" xlink:href="#m4e7d4f5efe" y="23.14175"/>
      </g>
     </g>
     <g id="text_7">
      <!-- Win-Stay Lose-Shift -->
      <defs>
       <path d="M 4.890625 31.390625 
L 31.203125 31.390625 
L 31.203125 23.390625 
L 4.890625 23.390625 
z
" id="DejaVuSans-2d"/>
       <path d="M 3.328125 72.90625 
L 13.28125 72.90625 
L 28.609375 11.28125 
L 43.890625 72.90625 
L 54.984375 72.90625 
L 70.3125 11.28125 
L 85.59375 72.90625 
L 95.609375 72.90625 
L 77.296875 0 
L 64.890625 0 
L 49.515625 63.28125 
L 33.984375 0 
L 21.578125 0 
z
" id="DejaVuSans-57"/>
       <path d="M 9.8125 72.90625 
L 19.671875 72.90625 
L 19.671875 8.296875 
L 55.171875 8.296875 
L 55.171875 0 
L 9.8125 0 
z
" id="DejaVuSans-4c"/>
       <path d="M 54.890625 33.015625 
L 54.890625 0 
L 45.90625 0 
L 45.90625 32.71875 
Q 45.90625 40.484375 42.875 44.328125 
Q 39.84375 48.1875 33.796875 48.1875 
Q 26.515625 48.1875 22.3125 43.546875 
Q 18.109375 38.921875 18.109375 30.90625 
L 18.109375 0 
L 9.078125 0 
L 9.078125 75.984375 
L 18.109375 75.984375 
L 18.109375 46.1875 
Q 21.34375 51.125 25.703125 53.5625 
Q 30.078125 56 35.796875 56 
Q 45.21875 56 50.046875 50.171875 
Q 54.890625 44.34375 54.890625 33.015625 
" id="DejaVuSans-68"/>
      </defs>
      <g transform="translate(556.385125 450.873)rotate(-90.0)scale(0.08 -0.08)">
       <use xlink:href="#DejaVuSans-57"/>
       <use x="98.845703125" xlink:href="#DejaVuSans-69"/>
       <use x="126.62890625" xlink:href="#DejaVuSans-6e"/>
       <use x="190.0078125" xlink:href="#DejaVuSans-2d"/>
       <use x="226.091796875" xlink:href="#DejaVuSans-53"/>
       <use x="289.568359375" xlink:href="#DejaVuSans-74"/>
       <use x="328.77734375" xlink:href="#DejaVuSans-61"/>
       <use x="390.056640625" xlink:href="#DejaVuSans-79"/>
       <use x="449.236328125" xlink:href="#DejaVuSans-20"/>
       <use x="481.0234375" xlink:href="#DejaVuSans-4c"/>
       <use x="536.720703125" xlink:href="#DejaVuSans-6f"/>
       <use x="597.90234375" xlink:href="#DejaVuSans-73"/>
       <use x="650.001953125" xlink:href="#DejaVuSans-65"/>
       <use x="711.525390625" xlink:href="#DejaVuSans-2d"/>
       <use x="747.609375" xlink:href="#DejaVuSans-53"/>
       <use x="811.0859375" xlink:href="#DejaVuSans-68"/>
       <use x="874.46484375" xlink:href="#DejaVuSans-69"/>
       <use x="902.248046875" xlink:href="#DejaVuSans-66"/>
       <use x="937.4375" xlink:href="#DejaVuSans-74"/>
      </g>
     </g>
    </g>
    <g id="xtick_8">
     <g id="line2d_15">
      <g>
       <use style="stroke:#000000;stroke-width:0.5;" x="628.577625" xlink:href="#mecf07d7dca" y="368.74175"/>
      </g>
     </g>
     <g id="line2d_16">
      <g>
       <use style="stroke:#000000;stroke-width:0.5;" x="628.577625" xlink:href="#m4e7d4f5efe" y="23.14175"/>
      </g>
     </g>
     <g id="text_8">
      <!-- Cooperator -->
      <defs>
       <path d="M 64.40625 67.28125 
L 64.40625 56.890625 
Q 59.421875 61.53125 53.78125 63.8125 
Q 48.140625 66.109375 41.796875 66.109375 
Q 29.296875 66.109375 22.65625 58.46875 
Q 16.015625 50.828125 16.015625 36.375 
Q 16.015625 21.96875 22.65625 14.328125 
Q 29.296875 6.6875 41.796875 6.6875 
Q 48.140625 6.6875 53.78125 8.984375 
Q 59.421875 11.28125 64.40625 15.921875 
L 64.40625 5.609375 
Q 59.234375 2.09375 53.4375 0.328125 
Q 47.65625 -1.421875 41.21875 -1.421875 
Q 24.65625 -1.421875 15.125 8.703125 
Q 5.609375 18.84375 5.609375 36.375 
Q 5.609375 53.953125 15.125 64.078125 
Q 24.65625 74.21875 41.21875 74.21875 
Q 47.75 74.21875 53.53125 72.484375 
Q 59.328125 70.75 64.40625 67.28125 
" id="DejaVuSans-43"/>
      </defs>
      <g transform="translate(630.785125 417.6305)rotate(-90.0)scale(0.08 -0.08)">
       <use xlink:href="#DejaVuSans-43"/>
       <use x="69.82421875" xlink:href="#DejaVuSans-6f"/>
       <use x="131.005859375" xlink:href="#DejaVuSans-6f"/>
       <use x="192.1875" xlink:href="#DejaVuSans-70"/>
       <use x="255.6640625" xlink:href="#DejaVuSans-65"/>
       <use x="317.1875" xlink:href="#DejaVuSans-72"/>
       <use x="358.30078125" xlink:href="#DejaVuSans-61"/>
       <use x="419.580078125" xlink:href="#DejaVuSans-74"/>
       <use x="458.7890625" xlink:href="#DejaVuSans-6f"/>
       <use x="519.970703125" xlink:href="#DejaVuSans-72"/>
      </g>
     </g>
    </g>
   </g>
   <g id="matplotlib.axis_2">
    <g id="ytick_1">
     <g id="line2d_17">
      <defs>
       <path d="M 0 0 
L 4 0 
" id="m3c3e8b0438" style="stroke:#000000;stroke-width:0.5;"/>
      </defs>
      <g>
       <use style="stroke:#000000;stroke-width:0.5;" x="33.377625" xlink:href="#m3c3e8b0438" y="368.74175"/>
      </g>
     </g>
     <g id="line2d_18">
      <defs>
       <path d="M 0 0 
L -4 0 
" id="mb255cb8379" style="stroke:#000000;stroke-width:0.5;"/>
      </defs>
      <g>
       <use style="stroke:#000000;stroke-width:0.5;" x="702.977625" xlink:href="#mb255cb8379" y="368.74175"/>
      </g>
     </g>
     <g id="text_9">
      <!-- 6 -->
      <defs>
       <path d="M 33.015625 40.375 
Q 26.375 40.375 22.484375 35.828125 
Q 18.609375 31.296875 18.609375 23.390625 
Q 18.609375 15.53125 22.484375 10.953125 
Q 26.375 6.390625 33.015625 6.390625 
Q 39.65625 6.390625 43.53125 10.953125 
Q 47.40625 15.53125 47.40625 23.390625 
Q 47.40625 31.296875 43.53125 35.828125 
Q 39.65625 40.375 33.015625 40.375 
M 52.59375 71.296875 
L 52.59375 62.3125 
Q 48.875 64.0625 45.09375 64.984375 
Q 41.3125 65.921875 37.59375 65.921875 
Q 27.828125 65.921875 22.671875 59.328125 
Q 17.53125 52.734375 16.796875 39.40625 
Q 19.671875 43.65625 24.015625 45.921875 
Q 28.375 48.1875 33.59375 48.1875 
Q 44.578125 48.1875 50.953125 41.515625 
Q 57.328125 34.859375 57.328125 23.390625 
Q 57.328125 12.15625 50.6875 5.359375 
Q 44.046875 -1.421875 33.015625 -1.421875 
Q 20.359375 -1.421875 13.671875 8.265625 
Q 6.984375 17.96875 6.984375 36.375 
Q 6.984375 53.65625 15.1875 63.9375 
Q 23.390625 74.21875 37.203125 74.21875 
Q 40.921875 74.21875 44.703125 73.484375 
Q 48.484375 72.75 52.59375 71.296875 
" id="DejaVuSans-36"/>
       <path d="M 10.59375 35.5 
L 73.1875 35.5 
L 73.1875 27.203125 
L 10.59375 27.203125 
z
" id="DejaVuSans-2212"/>
      </defs>
      <g transform="translate(17.583875 370.94925)scale(0.08 -0.08)">
       <use xlink:href="#DejaVuSans-2212"/>
       <use x="83.7890625" xlink:href="#DejaVuSans-36"/>
      </g>
     </g>
    </g>
    <g id="ytick_2">
     <g id="line2d_19">
      <g>
       <use style="stroke:#000000;stroke-width:0.5;" x="33.377625" xlink:href="#m3c3e8b0438" y="311.14175"/>
      </g>
     </g>
     <g id="line2d_20">
      <g>
       <use style="stroke:#000000;stroke-width:0.5;" x="702.977625" xlink:href="#mb255cb8379" y="311.14175"/>
      </g>
     </g>
     <g id="text_10">
      <!-- 4 -->
      <defs>
       <path d="M 37.796875 64.3125 
L 12.890625 25.390625 
L 37.796875 25.390625 
z
M 35.203125 72.90625 
L 47.609375 72.90625 
L 47.609375 25.390625 
L 58.015625 25.390625 
L 58.015625 17.1875 
L 47.609375 17.1875 
L 47.609375 0 
L 37.796875 0 
L 37.796875 17.1875 
L 4.890625 17.1875 
L 4.890625 26.703125 
z
" id="DejaVuSans-34"/>
      </defs>
      <g transform="translate(17.583875 313.34925)scale(0.08 -0.08)">
       <use xlink:href="#DejaVuSans-2212"/>
       <use x="83.7890625" xlink:href="#DejaVuSans-34"/>
      </g>
     </g>
    </g>
    <g id="ytick_3">
     <g id="line2d_21">
      <g>
       <use style="stroke:#000000;stroke-width:0.5;" x="33.377625" xlink:href="#m3c3e8b0438" y="253.54175"/>
      </g>
     </g>
     <g id="line2d_22">
      <g>
       <use style="stroke:#000000;stroke-width:0.5;" x="702.977625" xlink:href="#mb255cb8379" y="253.54175"/>
      </g>
     </g>
     <g id="text_11">
      <!-- 2 -->
      <defs>
       <path d="M 19.1875 8.296875 
L 53.609375 8.296875 
L 53.609375 0 
L 7.328125 0 
L 7.328125 8.296875 
Q 12.9375 14.109375 22.625 23.890625 
Q 32.328125 33.6875 34.8125 36.53125 
Q 39.546875 41.84375 41.421875 45.53125 
Q 43.3125 49.21875 43.3125 52.78125 
Q 43.3125 58.59375 39.234375 62.25 
Q 35.15625 65.921875 28.609375 65.921875 
Q 23.96875 65.921875 18.8125 64.3125 
Q 13.671875 62.703125 7.8125 59.421875 
L 7.8125 69.390625 
Q 13.765625 71.78125 18.9375 73 
Q 24.125 74.21875 28.421875 74.21875 
Q 39.75 74.21875 46.484375 68.546875 
Q 53.21875 62.890625 53.21875 53.421875 
Q 53.21875 48.921875 51.53125 44.890625 
Q 49.859375 40.875 45.40625 35.40625 
Q 44.1875 33.984375 37.640625 27.21875 
Q 31.109375 20.453125 19.1875 8.296875 
" id="DejaVuSans-32"/>
      </defs>
      <g transform="translate(17.583875 255.74925)scale(0.08 -0.08)">
       <use xlink:href="#DejaVuSans-2212"/>
       <use x="83.7890625" xlink:href="#DejaVuSans-32"/>
      </g>
     </g>
    </g>
    <g id="ytick_4">
     <g id="line2d_23">
      <g>
       <use style="stroke:#000000;stroke-width:0.5;" x="33.377625" xlink:href="#m3c3e8b0438" y="195.94175"/>
      </g>
     </g>
     <g id="line2d_24">
      <g>
       <use style="stroke:#000000;stroke-width:0.5;" x="702.977625" xlink:href="#mb255cb8379" y="195.94175"/>
      </g>
     </g>
     <g id="text_12">
      <!-- 0 -->
      <defs>
       <path d="M 31.78125 66.40625 
Q 24.171875 66.40625 20.328125 58.90625 
Q 16.5 51.421875 16.5 36.375 
Q 16.5 21.390625 20.328125 13.890625 
Q 24.171875 6.390625 31.78125 6.390625 
Q 39.453125 6.390625 43.28125 13.890625 
Q 47.125 21.390625 47.125 36.375 
Q 47.125 51.421875 43.28125 58.90625 
Q 39.453125 66.40625 31.78125 66.40625 
M 31.78125 74.21875 
Q 44.046875 74.21875 50.515625 64.515625 
Q 56.984375 54.828125 56.984375 36.375 
Q 56.984375 17.96875 50.515625 8.265625 
Q 44.046875 -1.421875 31.78125 -1.421875 
Q 19.53125 -1.421875 13.0625 8.265625 
Q 6.59375 17.96875 6.59375 36.375 
Q 6.59375 54.828125 13.0625 64.515625 
Q 19.53125 74.21875 31.78125 74.21875 
" id="DejaVuSans-30"/>
      </defs>
      <g transform="translate(24.287625 198.14925)scale(0.08 -0.08)">
       <use xlink:href="#DejaVuSans-30"/>
      </g>
     </g>
    </g>
    <g id="ytick_5">
     <g id="line2d_25">
      <g>
       <use style="stroke:#000000;stroke-width:0.5;" x="33.377625" xlink:href="#m3c3e8b0438" y="138.34175"/>
      </g>
     </g>
     <g id="line2d_26">
      <g>
       <use style="stroke:#000000;stroke-width:0.5;" x="702.977625" xlink:href="#mb255cb8379" y="138.34175"/>
      </g>
     </g>
     <g id="text_13">
      <!-- 2 -->
      <g transform="translate(24.287625 140.54925)scale(0.08 -0.08)">
       <use xlink:href="#DejaVuSans-32"/>
      </g>
     </g>
    </g>
    <g id="ytick_6">
     <g id="line2d_27">
      <g>
       <use style="stroke:#000000;stroke-width:0.5;" x="33.377625" xlink:href="#m3c3e8b0438" y="80.74175"/>
      </g>
     </g>
     <g id="line2d_28">
      <g>
       <use style="stroke:#000000;stroke-width:0.5;" x="702.977625" xlink:href="#mb255cb8379" y="80.74175"/>
      </g>
     </g>
     <g id="text_14">
      <!-- 4 -->
      <g transform="translate(24.287625 82.94925)scale(0.08 -0.08)">
       <use xlink:href="#DejaVuSans-34"/>
      </g>
     </g>
    </g>
    <g id="ytick_7">
     <g id="line2d_29">
      <g>
       <use style="stroke:#000000;stroke-width:0.5;" x="33.377625" xlink:href="#m3c3e8b0438" y="23.14175"/>
      </g>
     </g>
     <g id="line2d_30">
      <g>
       <use style="stroke:#000000;stroke-width:0.5;" x="702.977625" xlink:href="#mb255cb8379" y="23.14175"/>
      </g>
     </g>
     <g id="text_15">
      <!-- 6 -->
      <g transform="translate(24.287625 25.34925)scale(0.08 -0.08)">
       <use xlink:href="#DejaVuSans-36"/>
      </g>
     </g>
    </g>
   </g>
   <g id="text_16">
    <!-- Distributions of payoff differences per stage game over 200 turns repeated 100 times (8 strategies) -->
    <defs>
     <path d="M 31.78125 34.625 
Q 24.75 34.625 20.71875 30.859375 
Q 16.703125 27.09375 16.703125 20.515625 
Q 16.703125 13.921875 20.71875 10.15625 
Q 24.75 6.390625 31.78125 6.390625 
Q 38.8125 6.390625 42.859375 10.171875 
Q 46.921875 13.96875 46.921875 20.515625 
Q 46.921875 27.09375 42.890625 30.859375 
Q 38.875 34.625 31.78125 34.625 
M 21.921875 38.8125 
Q 15.578125 40.375 12.03125 44.71875 
Q 8.5 49.078125 8.5 55.328125 
Q 8.5 64.0625 14.71875 69.140625 
Q 20.953125 74.21875 31.78125 74.21875 
Q 42.671875 74.21875 48.875 69.140625 
Q 55.078125 64.0625 55.078125 55.328125 
Q 55.078125 49.078125 51.53125 44.71875 
Q 48 40.375 41.703125 38.8125 
Q 48.828125 37.15625 52.796875 32.3125 
Q 56.78125 27.484375 56.78125 20.515625 
Q 56.78125 9.90625 50.3125 4.234375 
Q 43.84375 -1.421875 31.78125 -1.421875 
Q 19.734375 -1.421875 13.25 4.234375 
Q 6.78125 9.90625 6.78125 20.515625 
Q 6.78125 27.484375 10.78125 32.3125 
Q 14.796875 37.15625 21.921875 38.8125 
M 18.3125 54.390625 
Q 18.3125 48.734375 21.84375 45.5625 
Q 25.390625 42.390625 31.78125 42.390625 
Q 38.140625 42.390625 41.71875 45.5625 
Q 45.3125 48.734375 45.3125 54.390625 
Q 45.3125 60.0625 41.71875 63.234375 
Q 38.140625 66.40625 31.78125 66.40625 
Q 25.390625 66.40625 21.84375 63.234375 
Q 18.3125 60.0625 18.3125 54.390625 
" id="DejaVuSans-38"/>
     <path d="M 2.984375 54.6875 
L 12.5 54.6875 
L 29.59375 8.796875 
L 46.6875 54.6875 
L 56.203125 54.6875 
L 35.6875 0 
L 23.484375 0 
z
" id="DejaVuSans-76"/>
     <path d="M 45.40625 27.984375 
Q 45.40625 37.75 41.375 43.109375 
Q 37.359375 48.484375 30.078125 48.484375 
Q 22.859375 48.484375 18.828125 43.109375 
Q 14.796875 37.75 14.796875 27.984375 
Q 14.796875 18.265625 18.828125 12.890625 
Q 22.859375 7.515625 30.078125 7.515625 
Q 37.359375 7.515625 41.375 12.890625 
Q 45.40625 18.265625 45.40625 27.984375 
M 54.390625 6.78125 
Q 54.390625 -7.171875 48.1875 -13.984375 
Q 42 -20.796875 29.203125 -20.796875 
Q 24.46875 -20.796875 20.265625 -20.09375 
Q 16.0625 -19.390625 12.109375 -17.921875 
L 12.109375 -9.1875 
Q 16.0625 -11.328125 19.921875 -12.34375 
Q 23.78125 -13.375 27.78125 -13.375 
Q 36.625 -13.375 41.015625 -8.765625 
Q 45.40625 -4.15625 45.40625 5.171875 
L 45.40625 9.625 
Q 42.625 4.78125 38.28125 2.390625 
Q 33.9375 0 27.875 0 
Q 17.828125 0 11.671875 7.65625 
Q 5.515625 15.328125 5.515625 27.984375 
Q 5.515625 40.671875 11.671875 48.328125 
Q 17.828125 56 27.875 56 
Q 33.9375 56 38.28125 53.609375 
Q 42.625 51.21875 45.40625 46.390625 
L 45.40625 54.6875 
L 54.390625 54.6875 
z
" id="DejaVuSans-67"/>
     <path d="M 31 75.875 
Q 24.46875 64.65625 21.28125 53.65625 
Q 18.109375 42.671875 18.109375 31.390625 
Q 18.109375 20.125 21.3125 9.0625 
Q 24.515625 -2 31 -13.1875 
L 23.1875 -13.1875 
Q 15.875 -1.703125 12.234375 9.375 
Q 8.59375 20.453125 8.59375 31.390625 
Q 8.59375 42.28125 12.203125 53.3125 
Q 15.828125 64.359375 23.1875 75.875 
z
" id="DejaVuSans-28"/>
     <path d="M 48.6875 27.296875 
Q 48.6875 37.203125 44.609375 42.84375 
Q 40.53125 48.484375 33.40625 48.484375 
Q 26.265625 48.484375 22.1875 42.84375 
Q 18.109375 37.203125 18.109375 27.296875 
Q 18.109375 17.390625 22.1875 11.75 
Q 26.265625 6.109375 33.40625 6.109375 
Q 40.53125 6.109375 44.609375 11.75 
Q 48.6875 17.390625 48.6875 27.296875 
M 18.109375 46.390625 
Q 20.953125 51.265625 25.265625 53.625 
Q 29.59375 56 35.59375 56 
Q 45.5625 56 51.78125 48.09375 
Q 58.015625 40.1875 58.015625 27.296875 
Q 58.015625 14.40625 51.78125 6.484375 
Q 45.5625 -1.421875 35.59375 -1.421875 
Q 29.59375 -1.421875 25.265625 0.953125 
Q 20.953125 3.328125 18.109375 8.203125 
L 18.109375 0 
L 9.078125 0 
L 9.078125 75.984375 
L 18.109375 75.984375 
z
" id="DejaVuSans-62"/>
     <path d="M 12.40625 8.296875 
L 28.515625 8.296875 
L 28.515625 63.921875 
L 10.984375 60.40625 
L 10.984375 69.390625 
L 28.421875 72.90625 
L 38.28125 72.90625 
L 38.28125 8.296875 
L 54.390625 8.296875 
L 54.390625 0 
L 12.40625 0 
z
" id="DejaVuSans-31"/>
     <path d="M 8.015625 75.875 
L 15.828125 75.875 
Q 23.140625 64.359375 26.78125 53.3125 
Q 30.421875 42.28125 30.421875 31.390625 
Q 30.421875 20.453125 26.78125 9.375 
Q 23.140625 -1.703125 15.828125 -13.1875 
L 8.015625 -13.1875 
Q 14.5 -2 17.703125 9.0625 
Q 20.90625 20.125 20.90625 31.390625 
Q 20.90625 42.671875 17.703125 53.65625 
Q 14.5 64.65625 8.015625 75.875 
" id="DejaVuSans-29"/>
     <path d="M 52 44.1875 
Q 55.375 50.25 60.0625 53.125 
Q 64.75 56 71.09375 56 
Q 79.640625 56 84.28125 50.015625 
Q 88.921875 44.046875 88.921875 33.015625 
L 88.921875 0 
L 79.890625 0 
L 79.890625 32.71875 
Q 79.890625 40.578125 77.09375 44.375 
Q 74.3125 48.1875 68.609375 48.1875 
Q 61.625 48.1875 57.5625 43.546875 
Q 53.515625 38.921875 53.515625 30.90625 
L 53.515625 0 
L 44.484375 0 
L 44.484375 32.71875 
Q 44.484375 40.625 41.703125 44.40625 
Q 38.921875 48.1875 33.109375 48.1875 
Q 26.21875 48.1875 22.15625 43.53125 
Q 18.109375 38.875 18.109375 30.90625 
L 18.109375 0 
L 9.078125 0 
L 9.078125 54.6875 
L 18.109375 54.6875 
L 18.109375 46.1875 
Q 21.1875 51.21875 25.484375 53.609375 
Q 29.78125 56 35.6875 56 
Q 41.65625 56 45.828125 52.96875 
Q 50 49.953125 52 44.1875 
" id="DejaVuSans-6d"/>
     <path d="M 45.40625 46.390625 
L 45.40625 75.984375 
L 54.390625 75.984375 
L 54.390625 0 
L 45.40625 0 
L 45.40625 8.203125 
Q 42.578125 3.328125 38.25 0.953125 
Q 33.9375 -1.421875 27.875 -1.421875 
Q 17.96875 -1.421875 11.734375 6.484375 
Q 5.515625 14.40625 5.515625 27.296875 
Q 5.515625 40.1875 11.734375 48.09375 
Q 17.96875 56 27.875 56 
Q 33.9375 56 38.25 53.625 
Q 42.578125 51.265625 45.40625 46.390625 
M 14.796875 27.296875 
Q 14.796875 17.390625 18.875 11.75 
Q 22.953125 6.109375 30.078125 6.109375 
Q 37.203125 6.109375 41.296875 11.75 
Q 45.40625 17.390625 45.40625 27.296875 
Q 45.40625 37.203125 41.296875 42.84375 
Q 37.203125 48.484375 30.078125 48.484375 
Q 22.953125 48.484375 18.875 42.84375 
Q 14.796875 37.203125 14.796875 27.296875 
" id="DejaVuSans-64"/>
    </defs>
    <g transform="translate(7.2 18.14175)scale(0.144 -0.144)">
     <use xlink:href="#DejaVuSans-44"/>
     <use x="77.001953125" xlink:href="#DejaVuSans-69"/>
     <use x="104.78515625" xlink:href="#DejaVuSans-73"/>
     <use x="156.884765625" xlink:href="#DejaVuSans-74"/>
     <use x="196.09375" xlink:href="#DejaVuSans-72"/>
     <use x="237.20703125" xlink:href="#DejaVuSans-69"/>
     <use x="264.990234375" xlink:href="#DejaVuSans-62"/>
     <use x="328.466796875" xlink:href="#DejaVuSans-75"/>
     <use x="391.845703125" xlink:href="#DejaVuSans-74"/>
     <use x="431.0546875" xlink:href="#DejaVuSans-69"/>
     <use x="458.837890625" xlink:href="#DejaVuSans-6f"/>
     <use x="520.01953125" xlink:href="#DejaVuSans-6e"/>
     <use x="583.3984375" xlink:href="#DejaVuSans-73"/>
     <use x="635.498046875" xlink:href="#DejaVuSans-20"/>
     <use x="667.28515625" xlink:href="#DejaVuSans-6f"/>
     <use x="728.466796875" xlink:href="#DejaVuSans-66"/>
     <use x="763.671875" xlink:href="#DejaVuSans-20"/>
     <use x="795.458984375" xlink:href="#DejaVuSans-70"/>
     <use x="858.935546875" xlink:href="#DejaVuSans-61"/>
     <use x="920.21484375" xlink:href="#DejaVuSans-79"/>
     <use x="979.39453125" xlink:href="#DejaVuSans-6f"/>
     <use x="1040.576171875" xlink:href="#DejaVuSans-66"/>
     <use x="1075.78125" xlink:href="#DejaVuSans-66"/>
     <use x="1110.986328125" xlink:href="#DejaVuSans-20"/>
     <use x="1142.7734375" xlink:href="#DejaVuSans-64"/>
     <use x="1206.25" xlink:href="#DejaVuSans-69"/>
     <use x="1234.033203125" xlink:href="#DejaVuSans-66"/>
     <use x="1269.23828125" xlink:href="#DejaVuSans-66"/>
     <use x="1304.443359375" xlink:href="#DejaVuSans-65"/>
     <use x="1365.966796875" xlink:href="#DejaVuSans-72"/>
     <use x="1407.048828125" xlink:href="#DejaVuSans-65"/>
     <use x="1468.572265625" xlink:href="#DejaVuSans-6e"/>
     <use x="1531.951171875" xlink:href="#DejaVuSans-63"/>
     <use x="1586.931640625" xlink:href="#DejaVuSans-65"/>
     <use x="1648.455078125" xlink:href="#DejaVuSans-73"/>
     <use x="1700.5546875" xlink:href="#DejaVuSans-20"/>
     <use x="1732.341796875" xlink:href="#DejaVuSans-70"/>
     <use x="1795.818359375" xlink:href="#DejaVuSans-65"/>
     <use x="1857.341796875" xlink:href="#DejaVuSans-72"/>
     <use x="1898.455078125" xlink:href="#DejaVuSans-20"/>
     <use x="1930.2421875" xlink:href="#DejaVuSans-73"/>
     <use x="1982.341796875" xlink:href="#DejaVuSans-74"/>
     <use x="2021.55078125" xlink:href="#DejaVuSans-61"/>
     <use x="2082.830078125" xlink:href="#DejaVuSans-67"/>
     <use x="2146.306640625" xlink:href="#DejaVuSans-65"/>
     <use x="2207.830078125" xlink:href="#DejaVuSans-20"/>
     <use x="2239.6171875" xlink:href="#DejaVuSans-67"/>
     <use x="2303.09375" xlink:href="#DejaVuSans-61"/>
     <use x="2364.373046875" xlink:href="#DejaVuSans-6d"/>
     <use x="2461.78515625" xlink:href="#DejaVuSans-65"/>
     <use x="2523.30859375" xlink:href="#DejaVuSans-20"/>
     <use x="2555.095703125" xlink:href="#DejaVuSans-6f"/>
     <use x="2616.27734375" xlink:href="#DejaVuSans-76"/>
     <use x="2675.45703125" xlink:href="#DejaVuSans-65"/>
     <use x="2736.98046875" xlink:href="#DejaVuSans-72"/>
     <use x="2778.09375" xlink:href="#DejaVuSans-20"/>
     <use x="2809.880859375" xlink:href="#DejaVuSans-32"/>
     <use x="2873.50390625" xlink:href="#DejaVuSans-30"/>
     <use x="2937.126953125" xlink:href="#DejaVuSans-30"/>
     <use x="3000.75" xlink:href="#DejaVuSans-20"/>
     <use x="3032.537109375" xlink:href="#DejaVuSans-74"/>
     <use x="3071.74609375" xlink:href="#DejaVuSans-75"/>
     <use x="3135.125" xlink:href="#DejaVuSans-72"/>
     <use x="3176.22265625" xlink:href="#DejaVuSans-6e"/>
     <use x="3239.6015625" xlink:href="#DejaVuSans-73"/>
     <use x="3291.701171875" xlink:href="#DejaVuSans-20"/>
     <use x="3323.48828125" xlink:href="#DejaVuSans-72"/>
     <use x="3364.5703125" xlink:href="#DejaVuSans-65"/>
     <use x="3426.09375" xlink:href="#DejaVuSans-70"/>
     <use x="3489.5703125" xlink:href="#DejaVuSans-65"/>
     <use x="3551.09375" xlink:href="#DejaVuSans-61"/>
     <use x="3612.373046875" xlink:href="#DejaVuSans-74"/>
     <use x="3651.58203125" xlink:href="#DejaVuSans-65"/>
     <use x="3713.10546875" xlink:href="#DejaVuSans-64"/>
     <use x="3776.58203125" xlink:href="#DejaVuSans-20"/>
     <use x="3808.369140625" xlink:href="#DejaVuSans-31"/>
     <use x="3871.9921875" xlink:href="#DejaVuSans-30"/>
     <use x="3935.615234375" xlink:href="#DejaVuSans-30"/>
     <use x="3999.23828125" xlink:href="#DejaVuSans-20"/>
     <use x="4031.025390625" xlink:href="#DejaVuSans-74"/>
     <use x="4070.234375" xlink:href="#DejaVuSans-69"/>
     <use x="4098.017578125" xlink:href="#DejaVuSans-6d"/>
     <use x="4195.4296875" xlink:href="#DejaVuSans-65"/>
     <use x="4256.953125" xlink:href="#DejaVuSans-73"/>
     <use x="4309.052734375" xlink:href="#DejaVuSans-20"/>
     <use x="4340.83984375" xlink:href="#DejaVuSans-28"/>
     <use x="4379.853515625" xlink:href="#DejaVuSans-38"/>
     <use x="4443.4765625" xlink:href="#DejaVuSans-20"/>
     <use x="4475.263671875" xlink:href="#DejaVuSans-73"/>
     <use x="4527.36328125" xlink:href="#DejaVuSans-74"/>
     <use x="4566.572265625" xlink:href="#DejaVuSans-72"/>
     <use x="4607.685546875" xlink:href="#DejaVuSans-61"/>
     <use x="4668.96484375" xlink:href="#DejaVuSans-74"/>
     <use x="4708.173828125" xlink:href="#DejaVuSans-65"/>
     <use x="4769.697265625" xlink:href="#DejaVuSans-67"/>
     <use x="4833.173828125" xlink:href="#DejaVuSans-69"/>
     <use x="4860.95703125" xlink:href="#DejaVuSans-65"/>
     <use x="4922.48046875" xlink:href="#DejaVuSans-73"/>
     <use x="4974.580078125" xlink:href="#DejaVuSans-29"/>
    </g>
   </g>
  </g>
 </g>
 <defs>
  <clipPath id="p261a7046af">
   <rect height="345.6" width="669.6" x="33.377625" y="23.14175"/>
  </clipPath>
 </defs>
</svg>
