<?xml version="1.0" encoding="utf-8" standalone="no"?>
<!DOCTYPE svg PUBLIC "-//W3C//DTD SVG 1.1//EN"
  "http://www.w3.org/Graphics/SVG/1.1/DTD/svg11.dtd">
<!-- Created with matplotlib (http://matplotlib.org/) -->
<svg height="465pt" version="1.1" viewBox="0 0 700 465" width="700pt" xmlns="http://www.w3.org/2000/svg" xmlns:xlink="http://www.w3.org/1999/xlink">
 <defs>
  <style type="text/css">
*{stroke-linecap:butt;stroke-linejoin:round;stroke-miterlimit:100000;}
  </style>
 </defs>
 <g id="figure_1">
  <g id="patch_1">
   <path d="M 0 465.868 
L 700.7225 465.868 
L 700.7225 0 
L 0 0 
z
" style="fill:#ffffff;"/>
  </g>
  <g id="axes_1">
   <g id="patch_2">
    <path d="M 23.9225 368.74175 
L 693.5225 368.74175 
L 693.5225 23.14175 
L 23.9225 23.14175 
z
" style="fill:#ffffff;"/>
   </g>
   <g id="PolyCollection_1">
    <defs>
     <path d="M 100.948863 -300.219583 
L 95.696137 -300.219583 
L 95.526171 -301.559976 
L 95.373298 -302.900369 
L 95.240713 -304.240761 
L 95.130933 -305.581154 
L 95.045628 -306.921547 
L 94.985497 -308.261939 
L 94.950181 -309.602332 
L 94.938227 -310.942725 
L 94.9471 -312.283117 
L 94.973256 -313.62351 
L 95.012255 -314.963903 
L 95.058912 -316.304295 
L 95.107486 -317.644688 
L 95.151879 -318.985081 
L 95.18584 -320.325473 
L 95.203164 -321.665866 
L 95.197869 -323.006259 
L 95.164344 -324.346651 
L 95.097467 -325.687044 
L 94.992683 -327.027437 
L 94.846055 -328.367829 
L 94.654287 -329.708222 
L 94.414721 -331.048615 
L 94.125332 -332.389007 
L 93.78472 -333.7294 
L 93.392112 -335.069793 
L 92.947376 -336.410185 
L 92.451055 -337.750578 
L 91.904425 -339.090971 
L 91.30956 -340.431363 
L 90.669414 -341.771756 
L 89.987893 -343.112149 
L 89.269928 -344.452541 
L 88.521513 -345.792934 
L 87.749713 -347.133327 
L 86.962631 -348.47372 
L 86.169317 -349.814112 
L 85.379628 -351.154505 
L 84.60403 -352.494898 
L 83.853347 -353.83529 
L 83.13847 -355.175683 
L 82.470029 -356.516076 
L 81.858048 -357.856468 
L 81.311597 -359.196861 
L 80.838462 -360.537254 
L 80.444844 -361.877646 
L 80.135117 -363.218039 
L 79.911652 -364.558432 
L 79.774723 -365.898824 
L 79.7225 -367.239217 
L 79.751146 -368.57961 
L 79.854995 -369.920002 
L 80.026826 -371.260395 
L 80.258198 -372.600788 
L 80.539838 -373.94118 
L 80.862067 -375.281573 
L 81.21522 -376.621966 
L 81.590049 -377.962358 
L 81.978084 -379.302751 
L 82.371926 -380.643144 
L 82.765463 -381.983536 
L 83.153995 -383.323929 
L 83.53427 -384.664322 
L 83.904427 -386.004714 
L 84.263868 -387.345107 
L 84.613059 -388.6855 
L 84.953291 -390.025892 
L 85.286409 -391.366285 
L 85.614545 -392.706678 
L 85.939855 -394.04707 
L 86.264294 -395.387463 
L 86.589427 -396.727856 
L 86.916302 -398.068248 
L 87.245373 -399.408641 
L 87.576483 -400.749034 
L 87.908902 -402.089426 
L 88.24141 -403.429819 
L 88.572428 -404.770212 
L 88.900161 -406.110604 
L 89.222768 -407.450997 
L 89.538533 -408.79139 
L 89.846019 -410.131782 
L 90.144204 -411.472175 
L 90.432591 -412.812568 
L 90.711264 -414.15296 
L 90.980912 -415.493353 
L 91.2428 -416.833746 
L 91.498694 -418.174138 
L 91.750748 -419.514531 
L 92.001351 -420.854924 
L 92.252959 -422.195316 
L 92.50791 -423.535709 
L 92.768251 -424.876102 
L 93.03557 -426.216494 
L 93.31087 -427.556887 
L 93.594473 -428.89728 
L 93.885976 -430.237672 
L 94.184253 -431.578065 
L 94.487509 -432.918458 
L 102.157491 -432.918458 
L 102.157491 -432.918458 
L 102.460747 -431.578065 
L 102.759024 -430.237672 
L 103.050527 -428.89728 
L 103.33413 -427.556887 
L 103.60943 -426.216494 
L 103.876749 -424.876102 
L 104.13709 -423.535709 
L 104.392041 -422.195316 
L 104.643649 -420.854924 
L 104.894252 -419.514531 
L 105.146306 -418.174138 
L 105.4022 -416.833746 
L 105.664088 -415.493353 
L 105.933736 -414.15296 
L 106.212409 -412.812568 
L 106.500796 -411.472175 
L 106.798981 -410.131782 
L 107.106467 -408.79139 
L 107.422232 -407.450997 
L 107.744839 -406.110604 
L 108.072572 -404.770212 
L 108.40359 -403.429819 
L 108.736098 -402.089426 
L 109.068517 -400.749034 
L 109.399627 -399.408641 
L 109.728698 -398.068248 
L 110.055573 -396.727856 
L 110.380706 -395.387463 
L 110.705145 -394.04707 
L 111.030455 -392.706678 
L 111.358591 -391.366285 
L 111.691709 -390.025892 
L 112.031941 -388.6855 
L 112.381132 -387.345107 
L 112.740573 -386.004714 
L 113.11073 -384.664322 
L 113.491005 -383.323929 
L 113.879537 -381.983536 
L 114.273074 -380.643144 
L 114.666916 -379.302751 
L 115.054951 -377.962358 
L 115.42978 -376.621966 
L 115.782933 -375.281573 
L 116.105162 -373.94118 
L 116.386802 -372.600788 
L 116.618174 -371.260395 
L 116.790005 -369.920002 
L 116.893854 -368.57961 
L 116.9225 -367.239217 
L 116.870277 -365.898824 
L 116.733348 -364.558432 
L 116.509883 -363.218039 
L 116.200156 -361.877646 
L 115.806538 -360.537254 
L 115.333403 -359.196861 
L 114.786952 -357.856468 
L 114.174971 -356.516076 
L 113.50653 -355.175683 
L 112.791653 -353.83529 
L 112.04097 -352.494898 
L 111.265372 -351.154505 
L 110.475683 -349.814112 
L 109.682369 -348.47372 
L 108.895287 -347.133327 
L 108.123487 -345.792934 
L 107.375072 -344.452541 
L 106.657107 -343.112149 
L 105.975586 -341.771756 
L 105.33544 -340.431363 
L 104.740575 -339.090971 
L 104.193945 -337.750578 
L 103.697624 -336.410185 
L 103.252888 -335.069793 
L 102.86028 -333.7294 
L 102.519668 -332.389007 
L 102.230279 -331.048615 
L 101.990713 -329.708222 
L 101.798945 -328.367829 
L 101.652317 -327.027437 
L 101.547533 -325.687044 
L 101.480656 -324.346651 
L 101.447131 -323.006259 
L 101.441836 -321.665866 
L 101.45916 -320.325473 
L 101.493121 -318.985081 
L 101.537514 -317.644688 
L 101.586088 -316.304295 
L 101.632745 -314.963903 
L 101.671744 -313.62351 
L 101.6979 -312.283117 
L 101.706773 -310.942725 
L 101.694819 -309.602332 
L 101.659503 -308.261939 
L 101.599372 -306.921547 
L 101.514067 -305.581154 
L 101.404287 -304.240761 
L 101.271702 -302.900369 
L 101.118829 -301.559976 
L 100.948863 -300.219583 
z
" id="m238f8b701b" style="stroke:#000000;stroke-opacity:0.3;"/>
    </defs>
    <g clip-path="url(#p543572e9c1)">
     <use style="fill:#bfbf00;fill-opacity:0.3;stroke:#000000;stroke-opacity:0.3;" x="0.0" xlink:href="#m238f8b701b" y="465.868"/>
    </g>
   </g>
   <g id="PolyCollection_2">
    <defs>
     <path d="M 174.563982 -275.271881 
L 170.881018 -275.271881 
L 170.627378 -276.464638 
L 170.340433 -277.657395 
L 170.014076 -278.850152 
L 169.641948 -280.042909 
L 169.217939 -281.235666 
L 168.736738 -282.428423 
L 168.194409 -283.62118 
L 167.588903 -284.813937 
L 166.920463 -286.006694 
L 166.191858 -287.199451 
L 165.408427 -288.392208 
L 164.577929 -289.584965 
L 163.710211 -290.777722 
L 162.816753 -291.970479 
L 161.910133 -293.163236 
L 161.003479 -294.355993 
L 160.109973 -295.54875 
L 159.242423 -296.741507 
L 158.412951 -297.934264 
L 157.632773 -299.127021 
L 156.912071 -300.319778 
L 156.259911 -301.512535 
L 155.684202 -302.705292 
L 155.191654 -303.898049 
L 154.787739 -305.090806 
L 154.476645 -306.283563 
L 154.261249 -307.47632 
L 154.143109 -308.669077 
L 154.1225 -309.861834 
L 154.198488 -311.054591 
L 154.369036 -312.247347 
L 154.631128 -313.440104 
L 154.980875 -314.632861 
L 155.413578 -315.825618 
L 155.923731 -317.018375 
L 156.50495 -318.211132 
L 157.149849 -319.403889 
L 157.849863 -320.596646 
L 158.595099 -321.789403 
L 159.374217 -322.98216 
L 160.17442 -324.174917 
L 160.981581 -325.367674 
L 161.780522 -326.560431 
L 162.555461 -327.753188 
L 163.290602 -328.945945 
L 163.970842 -330.138702 
L 164.582539 -331.331459 
L 165.114282 -332.524216 
L 165.5576 -333.716973 
L 165.907548 -334.90973 
L 166.163109 -336.102487 
L 166.327368 -337.295244 
L 166.407437 -338.488001 
L 166.414109 -339.680758 
L 166.361264 -340.873515 
L 166.265069 -342.066272 
L 166.143009 -343.259029 
L 166.012846 -344.451786 
L 165.891568 -345.644543 
L 165.79443 -346.8373 
L 165.734146 -348.030057 
L 165.720316 -349.222814 
L 165.75911 -350.415571 
L 165.853225 -351.608327 
L 166.002105 -352.801084 
L 166.202389 -353.993841 
L 166.448503 -355.186598 
L 166.73335 -356.379355 
L 167.049011 -357.572112 
L 167.387385 -358.764869 
L 167.740716 -359.957626 
L 168.101978 -361.150383 
L 168.465097 -362.34314 
L 168.825019 -363.535897 
L 169.177655 -364.728654 
L 169.519741 -365.921411 
L 169.848647 -367.114168 
L 170.16219 -368.306925 
L 170.45847 -369.499682 
L 170.735764 -370.692439 
L 170.992483 -371.885196 
L 171.227183 -373.077953 
L 171.438626 -374.27071 
L 171.625873 -375.463467 
L 171.788383 -376.656224 
L 171.926105 -377.848981 
L 172.039536 -379.041738 
L 172.129759 -380.234495 
L 172.198428 -381.427252 
L 172.24772 -382.620009 
L 172.280252 -383.812766 
L 172.298966 -385.005523 
L 172.306998 -386.19828 
L 172.30753 -387.391037 
L 172.303648 -388.583794 
L 172.298196 -389.776551 
L 172.293655 -390.969307 
L 172.292046 -392.162064 
L 172.294857 -393.354821 
L 173.150143 -393.354821 
L 173.150143 -393.354821 
L 173.152954 -392.162064 
L 173.151345 -390.969307 
L 173.146804 -389.776551 
L 173.141352 -388.583794 
L 173.13747 -387.391037 
L 173.138002 -386.19828 
L 173.146034 -385.005523 
L 173.164748 -383.812766 
L 173.19728 -382.620009 
L 173.246572 -381.427252 
L 173.315241 -380.234495 
L 173.405464 -379.041738 
L 173.518895 -377.848981 
L 173.656617 -376.656224 
L 173.819127 -375.463467 
L 174.006374 -374.27071 
L 174.217817 -373.077953 
L 174.452517 -371.885196 
L 174.709236 -370.692439 
L 174.98653 -369.499682 
L 175.28281 -368.306925 
L 175.596353 -367.114168 
L 175.925259 -365.921411 
L 176.267345 -364.728654 
L 176.619981 -363.535897 
L 176.979903 -362.34314 
L 177.343022 -361.150383 
L 177.704284 -359.957626 
L 178.057615 -358.764869 
L 178.395989 -357.572112 
L 178.71165 -356.379355 
L 178.996497 -355.186598 
L 179.242611 -353.993841 
L 179.442895 -352.801084 
L 179.591775 -351.608327 
L 179.68589 -350.415571 
L 179.724684 -349.222814 
L 179.710854 -348.030057 
L 179.65057 -346.8373 
L 179.553432 -345.644543 
L 179.432154 -344.451786 
L 179.301991 -343.259029 
L 179.179931 -342.066272 
L 179.083736 -340.873515 
L 179.030891 -339.680758 
L 179.037563 -338.488001 
L 179.117632 -337.295244 
L 179.281891 -336.102487 
L 179.537452 -334.90973 
L 179.8874 -333.716973 
L 180.330718 -332.524216 
L 180.862461 -331.331459 
L 181.474158 -330.138702 
L 182.154398 -328.945945 
L 182.889539 -327.753188 
L 183.664478 -326.560431 
L 184.463419 -325.367674 
L 185.27058 -324.174917 
L 186.070783 -322.98216 
L 186.849901 -321.789403 
L 187.595137 -320.596646 
L 188.295151 -319.403889 
L 188.94005 -318.211132 
L 189.521269 -317.018375 
L 190.031422 -315.825618 
L 190.464125 -314.632861 
L 190.813872 -313.440104 
L 191.075964 -312.247347 
L 191.246512 -311.054591 
L 191.3225 -309.861834 
L 191.301891 -308.669077 
L 191.183751 -307.47632 
L 190.968355 -306.283563 
L 190.657261 -305.090806 
L 190.253346 -303.898049 
L 189.760798 -302.705292 
L 189.185089 -301.512535 
L 188.532929 -300.319778 
L 187.812227 -299.127021 
L 187.032049 -297.934264 
L 186.202577 -296.741507 
L 185.335027 -295.54875 
L 184.441521 -294.355993 
L 183.534867 -293.163236 
L 182.628247 -291.970479 
L 181.734789 -290.777722 
L 180.867071 -289.584965 
L 180.036573 -288.392208 
L 179.253142 -287.199451 
L 178.524537 -286.006694 
L 177.856097 -284.813937 
L 177.250591 -283.62118 
L 176.708262 -282.428423 
L 176.227061 -281.235666 
L 175.803052 -280.042909 
L 175.430924 -278.850152 
L 175.104567 -277.657395 
L 174.817622 -276.464638 
L 174.563982 -275.271881 
z
" id="m67fddaec08" style="stroke:#000000;stroke-opacity:0.3;"/>
    </defs>
    <g clip-path="url(#p543572e9c1)">
     <use style="fill:#bfbf00;fill-opacity:0.3;stroke:#000000;stroke-opacity:0.3;" x="0.0" xlink:href="#m67fddaec08" y="465.868"/>
    </g>
   </g>
   <g id="PolyCollection_3">
    <defs>
     <path d="M 249.365016 -221.541505 
L 244.879984 -221.541505 
L 244.657143 -222.78291 
L 244.421601 -224.024314 
L 244.170663 -225.265718 
L 243.900905 -226.507123 
L 243.608302 -227.748527 
L 243.28844 -228.989931 
L 242.93677 -230.231336 
L 242.54892 -231.47274 
L 242.121008 -232.714144 
L 241.649948 -233.955549 
L 241.133719 -235.196953 
L 240.571573 -236.438358 
L 239.964171 -237.679762 
L 239.313643 -238.921166 
L 238.623572 -240.162571 
L 237.898917 -241.403975 
L 237.145887 -242.645379 
L 236.371794 -243.886784 
L 235.58489 -245.128188 
L 234.794204 -246.369592 
L 234.009386 -247.610997 
L 233.240551 -248.852401 
L 232.498112 -250.093805 
L 231.79259 -251.33521 
L 231.134384 -252.576614 
L 230.533497 -253.818018 
L 229.999199 -255.059423 
L 229.539658 -256.300827 
L 229.161534 -257.542231 
L 228.869579 -258.783636 
L 228.66627 -260.02504 
L 228.551521 -261.266444 
L 228.5225 -262.507849 
L 228.573591 -263.749253 
L 228.696513 -264.990657 
L 228.88061 -266.232062 
L 229.113285 -267.473466 
L 229.38058 -268.714871 
L 229.667846 -269.956275 
L 229.960466 -271.197679 
L 230.244587 -272.439084 
L 230.50781 -273.680488 
L 230.73979 -274.921892 
L 230.932717 -276.163297 
L 231.081641 -277.404701 
L 231.18464 -278.646105 
L 231.242812 -279.88751 
L 231.260113 -281.128914 
L 231.243049 -282.370318 
L 231.200257 -283.611723 
L 231.141997 -284.853127 
L 231.079596 -286.094531 
L 231.024871 -287.335936 
L 230.989565 -288.57734 
L 230.984816 -289.818744 
L 231.020687 -291.060149 
L 231.105765 -292.301553 
L 231.246844 -293.542957 
L 231.448687 -294.784362 
L 231.713889 -296.025766 
L 232.042819 -297.267171 
L 232.433659 -298.508575 
L 232.882518 -299.749979 
L 233.383634 -300.991384 
L 233.929645 -302.232788 
L 234.511918 -303.474192 
L 235.120934 -304.715597 
L 235.746694 -305.957001 
L 236.379142 -307.198405 
L 237.008573 -308.43981 
L 237.626005 -309.681214 
L 238.223501 -310.922618 
L 238.794419 -312.164023 
L 239.333577 -313.405427 
L 239.837332 -314.646831 
L 240.30358 -315.888236 
L 240.731665 -317.12964 
L 241.122235 -318.371044 
L 241.477046 -319.612449 
L 241.798734 -320.853853 
L 242.090578 -322.095257 
L 242.356263 -323.336662 
L 242.59966 -324.578066 
L 242.82464 -325.819471 
L 243.034901 -327.060875 
L 243.233849 -328.302279 
L 243.424502 -329.543684 
L 243.60942 -330.785088 
L 243.790678 -332.026492 
L 243.969852 -333.267897 
L 244.148026 -334.509301 
L 244.325826 -335.750705 
L 244.503453 -336.99211 
L 244.680741 -338.233514 
L 244.857212 -339.474918 
L 245.032138 -340.716323 
L 245.204611 -341.957727 
L 245.373599 -343.199131 
L 245.538012 -344.440536 
L 248.706988 -344.440536 
L 248.706988 -344.440536 
L 248.871401 -343.199131 
L 249.040389 -341.957727 
L 249.212862 -340.716323 
L 249.387788 -339.474918 
L 249.564259 -338.233514 
L 249.741547 -336.99211 
L 249.919174 -335.750705 
L 250.096974 -334.509301 
L 250.275148 -333.267897 
L 250.454322 -332.026492 
L 250.63558 -330.785088 
L 250.820498 -329.543684 
L 251.011151 -328.302279 
L 251.210099 -327.060875 
L 251.42036 -325.819471 
L 251.64534 -324.578066 
L 251.888737 -323.336662 
L 252.154422 -322.095257 
L 252.446266 -320.853853 
L 252.767954 -319.612449 
L 253.122765 -318.371044 
L 253.513335 -317.12964 
L 253.94142 -315.888236 
L 254.407668 -314.646831 
L 254.911423 -313.405427 
L 255.450581 -312.164023 
L 256.021499 -310.922618 
L 256.618995 -309.681214 
L 257.236427 -308.43981 
L 257.865858 -307.198405 
L 258.498306 -305.957001 
L 259.124066 -304.715597 
L 259.733082 -303.474192 
L 260.315355 -302.232788 
L 260.861366 -300.991384 
L 261.362482 -299.749979 
L 261.811341 -298.508575 
L 262.202181 -297.267171 
L 262.531111 -296.025766 
L 262.796313 -294.784362 
L 262.998156 -293.542957 
L 263.139235 -292.301553 
L 263.224313 -291.060149 
L 263.260184 -289.818744 
L 263.255435 -288.57734 
L 263.220129 -287.335936 
L 263.165404 -286.094531 
L 263.103003 -284.853127 
L 263.044743 -283.611723 
L 263.001951 -282.370318 
L 262.984887 -281.128914 
L 263.002188 -279.88751 
L 263.06036 -278.646105 
L 263.163359 -277.404701 
L 263.312283 -276.163297 
L 263.50521 -274.921892 
L 263.73719 -273.680488 
L 264.000413 -272.439084 
L 264.284534 -271.197679 
L 264.577154 -269.956275 
L 264.86442 -268.714871 
L 265.131715 -267.473466 
L 265.36439 -266.232062 
L 265.548487 -264.990657 
L 265.671409 -263.749253 
L 265.7225 -262.507849 
L 265.693479 -261.266444 
L 265.57873 -260.02504 
L 265.375421 -258.783636 
L 265.083466 -257.542231 
L 264.705342 -256.300827 
L 264.245801 -255.059423 
L 263.711503 -253.818018 
L 263.110616 -252.576614 
L 262.45241 -251.33521 
L 261.746888 -250.093805 
L 261.004449 -248.852401 
L 260.235614 -247.610997 
L 259.450796 -246.369592 
L 258.66011 -245.128188 
L 257.873206 -243.886784 
L 257.099113 -242.645379 
L 256.346083 -241.403975 
L 255.621428 -240.162571 
L 254.931357 -238.921166 
L 254.280829 -237.679762 
L 253.673427 -236.438358 
L 253.111281 -235.196953 
L 252.595052 -233.955549 
L 252.123992 -232.714144 
L 251.69608 -231.47274 
L 251.30823 -230.231336 
L 250.95656 -228.989931 
L 250.636698 -227.748527 
L 250.344095 -226.507123 
L 250.074337 -225.265718 
L 249.823399 -224.024314 
L 249.587857 -222.78291 
L 249.365016 -221.541505 
z
" id="mdaceca337d" style="stroke:#000000;stroke-opacity:0.3;"/>
    </defs>
    <g clip-path="url(#p543572e9c1)">
     <use style="fill:#bfbf00;fill-opacity:0.3;stroke:#000000;stroke-opacity:0.3;" x="0.0" xlink:href="#mdaceca337d" y="465.868"/>
    </g>
   </g>
   <g id="PolyCollection_4">
    <defs>
     <path d="M 322.51916 -173.377679 
L 320.52584 -173.377679 
L 320.444338 -174.275089 
L 320.361797 -175.1725 
L 320.278292 -176.06991 
L 320.193773 -176.96732 
L 320.108067 -177.864731 
L 320.02087 -178.762141 
L 319.93175 -179.659552 
L 319.84015 -180.556962 
L 319.745388 -181.454373 
L 319.646662 -182.351783 
L 319.543056 -183.249194 
L 319.433548 -184.146604 
L 319.317029 -185.044015 
L 319.192324 -185.941425 
L 319.058224 -186.838836 
L 318.913534 -187.736246 
L 318.757127 -188.633657 
L 318.58801 -189.531067 
L 318.405399 -190.428477 
L 318.208799 -191.325888 
L 317.998082 -192.223298 
L 317.773565 -193.120709 
L 317.536069 -194.018119 
L 317.286969 -194.91553 
L 317.028219 -195.81294 
L 316.762353 -196.710351 
L 316.492453 -197.607761 
L 316.22209 -198.505172 
L 315.955236 -199.402582 
L 315.696141 -200.299993 
L 315.449192 -201.197403 
L 315.218742 -202.094814 
L 315.008931 -202.992224 
L 314.8235 -203.889634 
L 314.665597 -204.787045 
L 314.53761 -205.684455 
L 314.440996 -206.581866 
L 314.376159 -207.479276 
L 314.342346 -208.376687 
L 314.337588 -209.274097 
L 314.358687 -210.171508 
L 314.401242 -211.068918 
L 314.459726 -211.966329 
L 314.5276 -212.863739 
L 314.597472 -213.76115 
L 314.66129 -214.65856 
L 314.710567 -215.555971 
L 314.73663 -216.453381 
L 314.730895 -217.350792 
L 314.685144 -218.248202 
L 314.591823 -219.145612 
L 314.444323 -220.043023 
L 314.23726 -220.940433 
L 313.966723 -221.837844 
L 313.630488 -222.735254 
L 313.228184 -223.632665 
L 312.761392 -224.530075 
L 312.233678 -225.427486 
L 311.650545 -226.324896 
L 311.019304 -227.222307 
L 310.348872 -228.119717 
L 309.649497 -229.017128 
L 308.932438 -229.914538 
L 308.209604 -230.811949 
L 307.493187 -231.709359 
L 306.795295 -232.606769 
L 306.127619 -233.50418 
L 305.501146 -234.40159 
L 304.925915 -235.299001 
L 304.410851 -236.196411 
L 303.963634 -237.093822 
L 303.590642 -237.991232 
L 303.29693 -238.888643 
L 303.086234 -239.786053 
L 302.961015 -240.683464 
L 302.9225 -241.580874 
L 302.970742 -242.478285 
L 303.104678 -243.375695 
L 303.322188 -244.273106 
L 303.620163 -245.170516 
L 303.994577 -246.067927 
L 304.440563 -246.965337 
L 304.952507 -247.862747 
L 305.524149 -248.760158 
L 306.148699 -249.657568 
L 306.818952 -250.554979 
L 307.527417 -251.452389 
L 308.266443 -252.3498 
L 309.028341 -253.24721 
L 309.805501 -254.144621 
L 310.590497 -255.042031 
L 311.376181 -255.939442 
L 312.155772 -256.836852 
L 312.922922 -257.734263 
L 313.671785 -258.631673 
L 314.397062 -259.529084 
L 315.094054 -260.426494 
L 315.758693 -261.323904 
L 316.38757 -262.221315 
L 326.65743 -262.221315 
L 326.65743 -262.221315 
L 327.286307 -261.323904 
L 327.950946 -260.426494 
L 328.647938 -259.529084 
L 329.373215 -258.631673 
L 330.122078 -257.734263 
L 330.889228 -256.836852 
L 331.668819 -255.939442 
L 332.454503 -255.042031 
L 333.239499 -254.144621 
L 334.016659 -253.24721 
L 334.778557 -252.3498 
L 335.517583 -251.452389 
L 336.226048 -250.554979 
L 336.896301 -249.657568 
L 337.520851 -248.760158 
L 338.092493 -247.862747 
L 338.604437 -246.965337 
L 339.050423 -246.067927 
L 339.424837 -245.170516 
L 339.722812 -244.273106 
L 339.940322 -243.375695 
L 340.074258 -242.478285 
L 340.1225 -241.580874 
L 340.083985 -240.683464 
L 339.958766 -239.786053 
L 339.74807 -238.888643 
L 339.454358 -237.991232 
L 339.081366 -237.093822 
L 338.634149 -236.196411 
L 338.119085 -235.299001 
L 337.543854 -234.40159 
L 336.917381 -233.50418 
L 336.249705 -232.606769 
L 335.551813 -231.709359 
L 334.835396 -230.811949 
L 334.112562 -229.914538 
L 333.395503 -229.017128 
L 332.696128 -228.119717 
L 332.025696 -227.222307 
L 331.394455 -226.324896 
L 330.811322 -225.427486 
L 330.283608 -224.530075 
L 329.816816 -223.632665 
L 329.414512 -222.735254 
L 329.078277 -221.837844 
L 328.80774 -220.940433 
L 328.600677 -220.043023 
L 328.453177 -219.145612 
L 328.359856 -218.248202 
L 328.314105 -217.350792 
L 328.30837 -216.453381 
L 328.334433 -215.555971 
L 328.38371 -214.65856 
L 328.447528 -213.76115 
L 328.5174 -212.863739 
L 328.585274 -211.966329 
L 328.643758 -211.068918 
L 328.686313 -210.171508 
L 328.707412 -209.274097 
L 328.702654 -208.376687 
L 328.668841 -207.479276 
L 328.604004 -206.581866 
L 328.50739 -205.684455 
L 328.379403 -204.787045 
L 328.2215 -203.889634 
L 328.036069 -202.992224 
L 327.826258 -202.094814 
L 327.595808 -201.197403 
L 327.348859 -200.299993 
L 327.089764 -199.402582 
L 326.82291 -198.505172 
L 326.552547 -197.607761 
L 326.282647 -196.710351 
L 326.016781 -195.81294 
L 325.758031 -194.91553 
L 325.508931 -194.018119 
L 325.271435 -193.120709 
L 325.046918 -192.223298 
L 324.836201 -191.325888 
L 324.639601 -190.428477 
L 324.45699 -189.531067 
L 324.287873 -188.633657 
L 324.131466 -187.736246 
L 323.986776 -186.838836 
L 323.852676 -185.941425 
L 323.727971 -185.044015 
L 323.611452 -184.146604 
L 323.501944 -183.249194 
L 323.398338 -182.351783 
L 323.299612 -181.454373 
L 323.20485 -180.556962 
L 323.11325 -179.659552 
L 323.02413 -178.762141 
L 322.936933 -177.864731 
L 322.851227 -176.96732 
L 322.766708 -176.06991 
L 322.683203 -175.1725 
L 322.600662 -174.275089 
L 322.51916 -173.377679 
z
" id="m1780dec2d8" style="stroke:#000000;stroke-opacity:0.3;"/>
    </defs>
    <g clip-path="url(#p543572e9c1)">
     <use style="fill:#bfbf00;fill-opacity:0.3;stroke:#000000;stroke-opacity:0.3;" x="0.0" xlink:href="#m1780dec2d8" y="465.868"/>
    </g>
   </g>
   <g id="PolyCollection_5">
    <defs>
     <path d="M 396.469226 -176.851964 
L 395.375774 -176.851964 
L 395.339384 -177.813641 
L 395.301189 -178.775319 
L 395.259875 -179.736996 
L 395.213955 -180.698673 
L 395.161859 -181.66035 
L 395.102019 -182.622027 
L 395.032944 -183.583704 
L 394.953276 -184.545381 
L 394.861826 -185.507058 
L 394.75758 -186.468736 
L 394.639683 -187.430413 
L 394.50741 -188.39209 
L 394.360135 -189.353767 
L 394.197306 -190.315444 
L 394.018439 -191.277121 
L 393.82315 -192.238798 
L 393.611209 -193.200475 
L 393.382631 -194.162153 
L 393.137789 -195.12383 
L 392.877533 -196.085507 
L 392.603305 -197.047184 
L 392.317218 -198.008861 
L 392.022091 -198.970538 
L 391.72142 -199.932215 
L 391.419274 -200.893893 
L 391.120111 -201.85557 
L 390.828527 -202.817247 
L 390.548947 -203.778924 
L 390.28529 -204.740601 
L 390.04062 -205.702278 
L 389.816836 -206.663955 
L 389.614423 -207.625632 
L 389.43228 -208.58731 
L 389.267665 -209.548987 
L 389.116252 -210.510664 
L 388.972286 -211.472341 
L 388.828853 -212.434018 
L 388.678202 -213.395695 
L 388.512127 -214.357372 
L 388.322355 -215.319049 
L 388.100925 -216.280727 
L 387.840547 -217.242404 
L 387.534906 -218.204081 
L 387.178945 -219.165758 
L 386.769091 -220.127435 
L 386.303465 -221.089112 
L 385.782058 -222.050789 
L 385.206892 -223.012467 
L 384.582146 -223.974144 
L 383.914244 -224.935821 
L 383.211893 -225.897498 
L 382.486034 -226.859175 
L 381.749696 -227.820852 
L 381.017746 -228.782529 
L 380.306507 -229.744206 
L 379.63327 -230.705884 
L 379.015703 -231.667561 
L 378.471191 -232.629238 
L 378.016132 -233.590915 
L 377.665239 -234.552592 
L 377.430882 -235.514269 
L 377.3225 -236.475946 
L 377.346128 -237.437623 
L 377.504053 -238.399301 
L 377.794623 -239.360978 
L 378.212215 -240.322655 
L 378.747372 -241.284332 
L 379.387099 -242.246009 
L 380.11532 -243.207686 
L 380.913474 -244.169363 
L 381.761225 -245.131041 
L 382.637268 -246.092718 
L 383.520187 -247.054395 
L 384.389317 -248.016072 
L 385.225584 -248.977749 
L 386.012261 -249.939426 
L 386.735604 -250.901103 
L 387.385337 -251.86278 
L 387.954956 -252.824458 
L 388.441839 -253.786135 
L 388.847158 -254.747812 
L 389.17561 -255.709489 
L 389.434979 -256.671166 
L 389.635561 -257.632843 
L 389.789491 -258.59452 
L 389.910004 -259.556197 
L 390.010678 -260.517875 
L 390.104696 -261.479552 
L 390.204166 -262.441229 
L 390.319541 -263.402906 
L 390.459155 -264.364583 
L 390.628915 -265.32626 
L 390.83214 -266.287937 
L 391.069579 -267.249615 
L 391.339566 -268.211292 
L 391.638326 -269.172969 
L 391.96038 -270.134646 
L 392.299024 -271.096323 
L 392.646849 -272.058 
L 399.198151 -272.058 
L 399.198151 -272.058 
L 399.545976 -271.096323 
L 399.88462 -270.134646 
L 400.206674 -269.172969 
L 400.505434 -268.211292 
L 400.775421 -267.249615 
L 401.01286 -266.287937 
L 401.216085 -265.32626 
L 401.385845 -264.364583 
L 401.525459 -263.402906 
L 401.640834 -262.441229 
L 401.740304 -261.479552 
L 401.834322 -260.517875 
L 401.934996 -259.556197 
L 402.055509 -258.59452 
L 402.209439 -257.632843 
L 402.410021 -256.671166 
L 402.66939 -255.709489 
L 402.997842 -254.747812 
L 403.403161 -253.786135 
L 403.890044 -252.824458 
L 404.459663 -251.86278 
L 405.109396 -250.901103 
L 405.832739 -249.939426 
L 406.619416 -248.977749 
L 407.455683 -248.016072 
L 408.324813 -247.054395 
L 409.207732 -246.092718 
L 410.083775 -245.131041 
L 410.931526 -244.169363 
L 411.72968 -243.207686 
L 412.457901 -242.246009 
L 413.097628 -241.284332 
L 413.632785 -240.322655 
L 414.050377 -239.360978 
L 414.340947 -238.399301 
L 414.498872 -237.437623 
L 414.5225 -236.475946 
L 414.414118 -235.514269 
L 414.179761 -234.552592 
L 413.828868 -233.590915 
L 413.373809 -232.629238 
L 412.829297 -231.667561 
L 412.21173 -230.705884 
L 411.538493 -229.744206 
L 410.827254 -228.782529 
L 410.095304 -227.820852 
L 409.358966 -226.859175 
L 408.633107 -225.897498 
L 407.930756 -224.935821 
L 407.262854 -223.974144 
L 406.638108 -223.012467 
L 406.062942 -222.050789 
L 405.541535 -221.089112 
L 405.075909 -220.127435 
L 404.666055 -219.165758 
L 404.310094 -218.204081 
L 404.004453 -217.242404 
L 403.744075 -216.280727 
L 403.522645 -215.319049 
L 403.332873 -214.357372 
L 403.166798 -213.395695 
L 403.016147 -212.434018 
L 402.872714 -211.472341 
L 402.728748 -210.510664 
L 402.577335 -209.548987 
L 402.41272 -208.58731 
L 402.230577 -207.625632 
L 402.028164 -206.663955 
L 401.80438 -205.702278 
L 401.55971 -204.740601 
L 401.296053 -203.778924 
L 401.016473 -202.817247 
L 400.724889 -201.85557 
L 400.425726 -200.893893 
L 400.12358 -199.932215 
L 399.822909 -198.970538 
L 399.527782 -198.008861 
L 399.241695 -197.047184 
L 398.967467 -196.085507 
L 398.707211 -195.12383 
L 398.462369 -194.162153 
L 398.233791 -193.200475 
L 398.02185 -192.238798 
L 397.826561 -191.277121 
L 397.647694 -190.315444 
L 397.484865 -189.353767 
L 397.33759 -188.39209 
L 397.205317 -187.430413 
L 397.08742 -186.468736 
L 396.983174 -185.507058 
L 396.891724 -184.545381 
L 396.812056 -183.583704 
L 396.742981 -182.622027 
L 396.683141 -181.66035 
L 396.631045 -180.698673 
L 396.585125 -179.736996 
L 396.543811 -178.775319 
L 396.505616 -177.813641 
L 396.469226 -176.851964 
z
" id="mccaa74b855" style="stroke:#000000;stroke-opacity:0.3;"/>
    </defs>
    <g clip-path="url(#p543572e9c1)">
     <use style="fill:#bfbf00;fill-opacity:0.3;stroke:#000000;stroke-opacity:0.3;" x="0.0" xlink:href="#mccaa74b855" y="465.868"/>
    </g>
   </g>
   <g id="PolyCollection_6">
    <defs>
     <path d="M 472.576443 -172.554821 
L 468.068557 -172.554821 
L 467.871992 -173.510666 
L 467.677697 -174.46651 
L 467.487431 -175.422354 
L 467.302703 -176.378198 
L 467.124746 -177.334042 
L 466.954509 -178.289886 
L 466.79266 -179.245731 
L 466.639615 -180.201575 
L 466.495573 -181.157419 
L 466.360547 -182.113263 
L 466.23441 -183.069107 
L 466.11692 -184.024951 
L 466.007744 -184.980795 
L 465.906455 -185.93664 
L 465.812521 -186.892484 
L 465.725263 -187.848328 
L 465.643797 -188.804172 
L 465.566952 -189.760016 
L 465.493178 -190.71586 
L 465.420441 -191.671705 
L 465.346123 -192.627549 
L 465.26693 -193.583393 
L 465.178837 -194.539237 
L 465.077065 -195.495081 
L 464.956116 -196.450925 
L 464.809873 -197.406769 
L 464.631771 -198.362614 
L 464.415036 -199.318458 
L 464.15299 -200.274302 
L 463.839413 -201.230146 
L 463.468926 -202.18599 
L 463.037402 -203.141834 
L 462.54234 -204.097679 
L 461.983209 -205.053523 
L 461.36172 -206.009367 
L 460.682001 -206.965211 
L 459.950672 -207.921055 
L 459.1768 -208.876899 
L 458.371736 -209.832744 
L 457.54884 -210.788588 
L 456.723099 -211.744432 
L 455.910662 -212.700276 
L 455.128307 -213.65612 
L 454.392866 -214.611964 
L 453.720632 -215.567808 
L 453.126777 -216.523653 
L 452.6248 -217.479497 
L 452.226045 -218.435341 
L 451.939298 -219.391185 
L 451.770486 -220.347029 
L 451.7225 -221.302873 
L 451.795142 -222.258718 
L 451.985197 -223.214562 
L 452.286629 -224.170406 
L 452.690882 -225.12625 
L 453.187266 -226.082094 
L 453.763403 -227.037938 
L 454.405711 -227.993782 
L 455.099889 -228.949627 
L 455.831392 -229.905471 
L 456.58586 -230.861315 
L 457.349508 -231.817159 
L 458.109451 -232.773003 
L 458.853972 -233.728847 
L 459.572732 -234.684692 
L 460.256934 -235.640536 
L 460.899434 -236.59638 
L 461.494812 -237.552224 
L 462.03941 -238.508068 
L 462.53133 -239.463912 
L 462.970391 -240.419756 
L 463.358044 -241.375601 
L 463.697246 -242.331445 
L 463.992274 -243.287289 
L 464.248502 -244.243133 
L 464.472126 -245.198977 
L 464.669857 -246.154821 
L 464.848585 -247.110666 
L 465.015049 -248.06651 
L 465.175512 -249.022354 
L 465.335473 -249.978198 
L 465.499438 -250.934042 
L 465.670754 -251.889886 
L 465.851536 -252.845731 
L 466.042664 -253.801575 
L 466.243877 -254.757419 
L 466.453929 -255.713263 
L 466.670801 -256.669107 
L 466.891955 -257.624951 
L 467.114588 -258.580795 
L 467.335882 -259.53664 
L 467.55322 -260.492484 
L 467.76435 -261.448328 
L 467.967495 -262.404172 
L 468.161404 -263.360016 
L 468.34534 -264.31586 
L 468.519025 -265.271705 
L 468.682546 -266.227549 
L 468.83625 -267.183393 
L 471.80875 -267.183393 
L 471.80875 -267.183393 
L 471.962454 -266.227549 
L 472.125975 -265.271705 
L 472.29966 -264.31586 
L 472.483596 -263.360016 
L 472.677505 -262.404172 
L 472.88065 -261.448328 
L 473.09178 -260.492484 
L 473.309118 -259.53664 
L 473.530412 -258.580795 
L 473.753045 -257.624951 
L 473.974199 -256.669107 
L 474.191071 -255.713263 
L 474.401123 -254.757419 
L 474.602336 -253.801575 
L 474.793464 -252.845731 
L 474.974246 -251.889886 
L 475.145562 -250.934042 
L 475.309527 -249.978198 
L 475.469488 -249.022354 
L 475.629951 -248.06651 
L 475.796415 -247.110666 
L 475.975143 -246.154821 
L 476.172874 -245.198977 
L 476.396498 -244.243133 
L 476.652726 -243.287289 
L 476.947754 -242.331445 
L 477.286956 -241.375601 
L 477.674609 -240.419756 
L 478.11367 -239.463912 
L 478.60559 -238.508068 
L 479.150188 -237.552224 
L 479.745566 -236.59638 
L 480.388066 -235.640536 
L 481.072268 -234.684692 
L 481.791028 -233.728847 
L 482.535549 -232.773003 
L 483.295492 -231.817159 
L 484.05914 -230.861315 
L 484.813608 -229.905471 
L 485.545111 -228.949627 
L 486.239289 -227.993782 
L 486.881597 -227.037938 
L 487.457734 -226.082094 
L 487.954118 -225.12625 
L 488.358371 -224.170406 
L 488.659803 -223.214562 
L 488.849858 -222.258718 
L 488.9225 -221.302873 
L 488.874514 -220.347029 
L 488.705702 -219.391185 
L 488.418955 -218.435341 
L 488.0202 -217.479497 
L 487.518223 -216.523653 
L 486.924368 -215.567808 
L 486.252134 -214.611964 
L 485.516693 -213.65612 
L 484.734338 -212.700276 
L 483.921901 -211.744432 
L 483.09616 -210.788588 
L 482.273264 -209.832744 
L 481.4682 -208.876899 
L 480.694328 -207.921055 
L 479.962999 -206.965211 
L 479.28328 -206.009367 
L 478.661791 -205.053523 
L 478.10266 -204.097679 
L 477.607598 -203.141834 
L 477.176074 -202.18599 
L 476.805587 -201.230146 
L 476.49201 -200.274302 
L 476.229964 -199.318458 
L 476.013229 -198.362614 
L 475.835127 -197.406769 
L 475.688884 -196.450925 
L 475.567935 -195.495081 
L 475.466163 -194.539237 
L 475.37807 -193.583393 
L 475.298877 -192.627549 
L 475.224559 -191.671705 
L 475.151822 -190.71586 
L 475.078048 -189.760016 
L 475.001203 -188.804172 
L 474.919737 -187.848328 
L 474.832479 -186.892484 
L 474.738545 -185.93664 
L 474.637256 -184.980795 
L 474.52808 -184.024951 
L 474.41059 -183.069107 
L 474.284453 -182.113263 
L 474.149427 -181.157419 
L 474.005385 -180.201575 
L 473.85234 -179.245731 
L 473.690491 -178.289886 
L 473.520254 -177.334042 
L 473.342297 -176.378198 
L 473.157569 -175.422354 
L 472.967303 -174.46651 
L 472.773008 -173.510666 
L 472.576443 -172.554821 
z
" id="m6aab2760c5" style="stroke:#000000;stroke-opacity:0.3;"/>
    </defs>
    <g clip-path="url(#p543572e9c1)">
     <use style="fill:#bfbf00;fill-opacity:0.3;stroke:#000000;stroke-opacity:0.3;" x="0.0" xlink:href="#m6aab2760c5" y="465.868"/>
    </g>
   </g>
   <g id="PolyCollection_7">
    <defs>
     <path d="M 545.995406 -155.148228 
L 543.449594 -155.148228 
L 543.358022 -155.939117 
L 543.270102 -156.730006 
L 543.185947 -157.520895 
L 543.105372 -158.311784 
L 543.027951 -159.102674 
L 542.953078 -159.893563 
L 542.880046 -160.684452 
L 542.808109 -161.475341 
L 542.73654 -162.26623 
L 542.664666 -163.057119 
L 542.591879 -163.848008 
L 542.517625 -164.638897 
L 542.441377 -165.429786 
L 542.362596 -166.220676 
L 542.280686 -167.011565 
L 542.194964 -167.802454 
L 542.104627 -168.593343 
L 542.008752 -169.384232 
L 541.906306 -170.175121 
L 541.796181 -170.96601 
L 541.677235 -171.756899 
L 541.548359 -172.547788 
L 541.408527 -173.338678 
L 541.25685 -174.129567 
L 541.092603 -174.920456 
L 540.915231 -175.711345 
L 540.724319 -176.502234 
L 540.51952 -177.293123 
L 540.300462 -178.084012 
L 540.066613 -178.874901 
L 539.817152 -179.66579 
L 539.550834 -180.45668 
L 539.2659 -181.247569 
L 538.960028 -182.038458 
L 538.630367 -182.829347 
L 538.27366 -183.620236 
L 537.886447 -184.411125 
L 537.465364 -185.202014 
L 537.007491 -185.992903 
L 536.510735 -186.783792 
L 535.974197 -187.574682 
L 535.39849 -188.365571 
L 534.785952 -189.15646 
L 534.140748 -189.947349 
L 533.46882 -190.738238 
L 532.777709 -191.529127 
L 532.076239 -192.320016 
L 531.374137 -193.110905 
L 530.681583 -193.901794 
L 530.008788 -194.692684 
L 529.365603 -195.483573 
L 528.761214 -196.274462 
L 528.203943 -197.065351 
L 527.701144 -197.85624 
L 527.259183 -198.647129 
L 526.883487 -199.438018 
L 526.578613 -200.228907 
L 526.348309 -201.019796 
L 526.195545 -201.810686 
L 526.1225 -202.601575 
L 526.130496 -203.392464 
L 526.219905 -204.183353 
L 526.390046 -204.974242 
L 526.639092 -205.765131 
L 526.96403 -206.55602 
L 527.360677 -207.346909 
L 527.82376 -208.137798 
L 528.347062 -208.928688 
L 528.923619 -209.719577 
L 529.545929 -210.510466 
L 530.206167 -211.301355 
L 530.896375 -212.092244 
L 531.608608 -212.883133 
L 532.335042 -213.674022 
L 533.068041 -214.464911 
L 533.80019 -215.2558 
L 534.524326 -216.04669 
L 535.23358 -216.837579 
L 535.921433 -217.628468 
L 536.581814 -218.419357 
L 537.20923 -219.210246 
L 537.798921 -220.001135 
L 538.347034 -220.792024 
L 538.850788 -221.582913 
L 539.308615 -222.373802 
L 539.72026 -223.164692 
L 540.086815 -223.955581 
L 540.410684 -224.74647 
L 540.695472 -225.537359 
L 540.945794 -226.328248 
L 541.16702 -227.119137 
L 541.364977 -227.910026 
L 541.545606 -228.700915 
L 541.714628 -229.491804 
L 541.877225 -230.282694 
L 542.037764 -231.073583 
L 542.199591 -231.864472 
L 542.364908 -232.655361 
L 542.534737 -233.44625 
L 546.910263 -233.44625 
L 546.910263 -233.44625 
L 547.080092 -232.655361 
L 547.245409 -231.864472 
L 547.407236 -231.073583 
L 547.567775 -230.282694 
L 547.730372 -229.491804 
L 547.899394 -228.700915 
L 548.080023 -227.910026 
L 548.27798 -227.119137 
L 548.499206 -226.328248 
L 548.749528 -225.537359 
L 549.034316 -224.74647 
L 549.358185 -223.955581 
L 549.72474 -223.164692 
L 550.136385 -222.373802 
L 550.594212 -221.582913 
L 551.097966 -220.792024 
L 551.646079 -220.001135 
L 552.23577 -219.210246 
L 552.863186 -218.419357 
L 553.523567 -217.628468 
L 554.21142 -216.837579 
L 554.920674 -216.04669 
L 555.64481 -215.2558 
L 556.376959 -214.464911 
L 557.109958 -213.674022 
L 557.836392 -212.883133 
L 558.548625 -212.092244 
L 559.238833 -211.301355 
L 559.899071 -210.510466 
L 560.521381 -209.719577 
L 561.097938 -208.928688 
L 561.62124 -208.137798 
L 562.084323 -207.346909 
L 562.48097 -206.55602 
L 562.805908 -205.765131 
L 563.054954 -204.974242 
L 563.225095 -204.183353 
L 563.314504 -203.392464 
L 563.3225 -202.601575 
L 563.249455 -201.810686 
L 563.096691 -201.019796 
L 562.866387 -200.228907 
L 562.561513 -199.438018 
L 562.185817 -198.647129 
L 561.743856 -197.85624 
L 561.241057 -197.065351 
L 560.683786 -196.274462 
L 560.079397 -195.483573 
L 559.436212 -194.692684 
L 558.763417 -193.901794 
L 558.070863 -193.110905 
L 557.368761 -192.320016 
L 556.667291 -191.529127 
L 555.97618 -190.738238 
L 555.304252 -189.947349 
L 554.659048 -189.15646 
L 554.04651 -188.365571 
L 553.470803 -187.574682 
L 552.934265 -186.783792 
L 552.437509 -185.992903 
L 551.979636 -185.202014 
L 551.558553 -184.411125 
L 551.17134 -183.620236 
L 550.814633 -182.829347 
L 550.484972 -182.038458 
L 550.1791 -181.247569 
L 549.894166 -180.45668 
L 549.627848 -179.66579 
L 549.378387 -178.874901 
L 549.144538 -178.084012 
L 548.92548 -177.293123 
L 548.720681 -176.502234 
L 548.529769 -175.711345 
L 548.352397 -174.920456 
L 548.18815 -174.129567 
L 548.036473 -173.338678 
L 547.896641 -172.547788 
L 547.767765 -171.756899 
L 547.648819 -170.96601 
L 547.538694 -170.175121 
L 547.436248 -169.384232 
L 547.340373 -168.593343 
L 547.250036 -167.802454 
L 547.164314 -167.011565 
L 547.082404 -166.220676 
L 547.003623 -165.429786 
L 546.927375 -164.638897 
L 546.853121 -163.848008 
L 546.780334 -163.057119 
L 546.70846 -162.26623 
L 546.636891 -161.475341 
L 546.564954 -160.684452 
L 546.491922 -159.893563 
L 546.417049 -159.102674 
L 546.339628 -158.311784 
L 546.259053 -157.520895 
L 546.174898 -156.730006 
L 546.086978 -155.939117 
L 545.995406 -155.148228 
z
" id="m666d8bd9cb" style="stroke:#000000;stroke-opacity:0.3;"/>
    </defs>
    <g clip-path="url(#p543572e9c1)">
     <use style="fill:#bfbf00;fill-opacity:0.3;stroke:#000000;stroke-opacity:0.3;" x="0.0" xlink:href="#m666d8bd9cb" y="465.868"/>
    </g>
   </g>
   <g id="PolyCollection_8">
    <defs>
     <path d="M 620.717866 -108.440536 
L 617.527134 -108.440536 
L 617.392036 -109.44455 
L 617.264989 -110.448564 
L 617.148392 -111.452578 
L 617.044126 -112.456592 
L 616.953388 -113.460607 
L 616.876545 -114.464621 
L 616.813032 -115.468635 
L 616.761303 -116.472649 
L 616.718854 -117.476663 
L 616.682311 -118.480677 
L 616.647593 -119.484692 
L 616.61014 -120.488706 
L 616.565175 -121.49272 
L 616.50799 -122.496734 
L 616.43422 -123.500748 
L 616.340064 -124.504762 
L 616.22244 -125.508777 
L 616.079038 -126.512791 
L 615.908268 -127.516805 
L 615.709104 -128.520819 
L 615.480842 -129.524833 
L 615.222801 -130.528847 
L 614.93402 -131.532862 
L 614.612988 -132.536876 
L 614.257462 -133.54089 
L 613.864416 -134.544904 
L 613.430148 -135.548918 
L 612.950549 -136.552932 
L 612.421534 -137.556947 
L 611.839589 -138.560961 
L 611.202385 -139.564975 
L 610.509405 -140.568989 
L 609.7625 -141.573003 
L 608.966326 -142.577017 
L 608.12859 -143.581032 
L 607.260097 -144.585046 
L 606.37457 -145.58906 
L 605.488253 -146.593074 
L 604.619349 -147.597088 
L 603.787303 -148.601102 
L 603.012018 -149.605117 
L 602.313023 -150.609131 
L 601.708664 -151.613145 
L 601.215333 -152.617159 
L 600.846789 -153.621173 
L 600.613565 -154.625187 
L 600.5225 -155.629202 
L 600.576388 -156.633216 
L 600.773782 -157.63723 
L 601.108943 -158.641244 
L 601.571978 -159.645258 
L 602.149148 -160.649272 
L 602.823384 -161.653287 
L 603.574974 -162.657301 
L 604.382427 -163.661315 
L 605.223449 -164.665329 
L 606.075995 -165.669343 
L 606.919312 -166.673357 
L 607.734912 -167.677372 
L 608.50738 -168.681386 
L 609.22498 -169.6854 
L 609.879982 -170.689414 
L 610.468717 -171.693428 
L 610.991337 -172.697442 
L 611.451338 -173.701457 
L 611.854881 -174.705471 
L 612.209988 -175.709485 
L 612.525694 -176.713499 
L 612.811233 -177.717513 
L 613.075312 -178.721527 
L 613.325542 -179.725542 
L 613.568044 -180.729556 
L 613.807241 -181.73357 
L 614.045826 -182.737584 
L 614.284882 -183.741598 
L 614.524114 -184.745612 
L 614.762153 -185.749627 
L 614.996897 -186.753641 
L 615.225852 -187.757655 
L 615.446442 -188.761669 
L 615.656283 -189.765683 
L 615.853396 -190.769697 
L 616.036366 -191.773712 
L 616.204436 -192.777726 
L 616.357555 -193.78174 
L 616.496362 -194.785754 
L 616.622137 -195.789768 
L 616.736696 -196.793782 
L 616.842261 -197.797797 
L 616.941302 -198.801811 
L 617.036363 -199.805825 
L 617.129886 -200.809839 
L 617.224044 -201.813853 
L 617.320605 -202.817867 
L 617.420819 -203.821882 
L 617.525355 -204.825896 
L 617.634287 -205.82991 
L 617.747119 -206.833924 
L 617.862861 -207.837938 
L 620.382139 -207.837938 
L 620.382139 -207.837938 
L 620.497881 -206.833924 
L 620.610713 -205.82991 
L 620.719645 -204.825896 
L 620.824181 -203.821882 
L 620.924395 -202.817867 
L 621.020956 -201.813853 
L 621.115114 -200.809839 
L 621.208637 -199.805825 
L 621.303698 -198.801811 
L 621.402739 -197.797797 
L 621.508304 -196.793782 
L 621.622863 -195.789768 
L 621.748638 -194.785754 
L 621.887445 -193.78174 
L 622.040564 -192.777726 
L 622.208634 -191.773712 
L 622.391604 -190.769697 
L 622.588717 -189.765683 
L 622.798558 -188.761669 
L 623.019148 -187.757655 
L 623.248103 -186.753641 
L 623.482847 -185.749627 
L 623.720886 -184.745612 
L 623.960118 -183.741598 
L 624.199174 -182.737584 
L 624.437759 -181.73357 
L 624.676956 -180.729556 
L 624.919458 -179.725542 
L 625.169688 -178.721527 
L 625.433767 -177.717513 
L 625.719306 -176.713499 
L 626.035012 -175.709485 
L 626.390119 -174.705471 
L 626.793662 -173.701457 
L 627.253663 -172.697442 
L 627.776283 -171.693428 
L 628.365018 -170.689414 
L 629.02002 -169.6854 
L 629.73762 -168.681386 
L 630.510088 -167.677372 
L 631.325688 -166.673357 
L 632.169005 -165.669343 
L 633.021551 -164.665329 
L 633.862573 -163.661315 
L 634.670026 -162.657301 
L 635.421616 -161.653287 
L 636.095852 -160.649272 
L 636.673022 -159.645258 
L 637.136057 -158.641244 
L 637.471218 -157.63723 
L 637.668612 -156.633216 
L 637.7225 -155.629202 
L 637.631435 -154.625187 
L 637.398211 -153.621173 
L 637.029667 -152.617159 
L 636.536336 -151.613145 
L 635.931977 -150.609131 
L 635.232982 -149.605117 
L 634.457697 -148.601102 
L 633.625651 -147.597088 
L 632.756747 -146.593074 
L 631.87043 -145.58906 
L 630.984903 -144.585046 
L 630.11641 -143.581032 
L 629.278674 -142.577017 
L 628.4825 -141.573003 
L 627.735595 -140.568989 
L 627.042615 -139.564975 
L 626.405411 -138.560961 
L 625.823466 -137.556947 
L 625.294451 -136.552932 
L 624.814852 -135.548918 
L 624.380584 -134.544904 
L 623.987538 -133.54089 
L 623.632012 -132.536876 
L 623.31098 -131.532862 
L 623.022199 -130.528847 
L 622.764158 -129.524833 
L 622.535896 -128.520819 
L 622.336732 -127.516805 
L 622.165962 -126.512791 
L 622.02256 -125.508777 
L 621.904936 -124.504762 
L 621.81078 -123.500748 
L 621.73701 -122.496734 
L 621.679825 -121.49272 
L 621.63486 -120.488706 
L 621.597407 -119.484692 
L 621.562689 -118.480677 
L 621.526146 -117.476663 
L 621.483697 -116.472649 
L 621.431968 -115.468635 
L 621.368455 -114.464621 
L 621.291612 -113.460607 
L 621.200874 -112.456592 
L 621.096608 -111.452578 
L 620.980011 -110.448564 
L 620.852964 -109.44455 
L 620.717866 -108.440536 
z
" id="mf28e8589b0" style="stroke:#000000;stroke-opacity:0.3;"/>
    </defs>
    <g clip-path="url(#p543572e9c1)">
     <use style="fill:#bfbf00;fill-opacity:0.3;stroke:#000000;stroke-opacity:0.3;" x="0.0" xlink:href="#mf28e8589b0" y="465.868"/>
    </g>
   </g>
   <g id="LineCollection_1">
    <path clip-path="url(#p543572e9c1)" d="M 89.0225 94.627841 
L 107.6225 94.627841 
" style="fill:none;stroke:#ff0000;"/>
    <path clip-path="url(#p543572e9c1)" d="M 163.4225 151.915226 
L 182.0225 151.915226 
" style="fill:none;stroke:#ff0000;"/>
    <path clip-path="url(#p543572e9c1)" d="M 237.8225 189.86006 
L 256.4225 189.86006 
" style="fill:none;stroke:#ff0000;"/>
    <path clip-path="url(#p543572e9c1)" d="M 312.2225 229.892106 
L 330.8225 229.892106 
" style="fill:none;stroke:#ff0000;"/>
    <path clip-path="url(#p543572e9c1)" d="M 386.6225 230.775415 
L 405.2225 230.775415 
" style="fill:none;stroke:#ff0000;"/>
    <path clip-path="url(#p543572e9c1)" d="M 461.0225 245.041564 
L 479.6225 245.041564 
" style="fill:none;stroke:#ff0000;"/>
    <path clip-path="url(#p543572e9c1)" d="M 535.4225 263.592362 
L 554.0225 263.592362 
" style="fill:none;stroke:#ff0000;"/>
    <path clip-path="url(#p543572e9c1)" d="M 609.8225 309.20483 
L 628.4225 309.20483 
" style="fill:none;stroke:#ff0000;"/>
   </g>
   <g id="patch_3">
    <path d="M 23.9225 23.14175 
L 693.5225 23.14175 
" style="fill:none;stroke:#000000;stroke-linecap:square;stroke-linejoin:miter;"/>
   </g>
   <g id="patch_4">
    <path d="M 23.9225 368.74175 
L 23.9225 23.14175 
" style="fill:none;stroke:#000000;stroke-linecap:square;stroke-linejoin:miter;"/>
   </g>
   <g id="patch_5">
    <path d="M 693.5225 368.74175 
L 693.5225 23.14175 
" style="fill:none;stroke:#000000;stroke-linecap:square;stroke-linejoin:miter;"/>
   </g>
   <g id="patch_6">
    <path d="M 23.9225 368.74175 
L 693.5225 368.74175 
" style="fill:none;stroke:#000000;stroke-linecap:square;stroke-linejoin:miter;"/>
   </g>
   <g id="matplotlib.axis_1">
    <g id="xtick_1">
     <g id="line2d_1">
      <defs>
       <path d="M 0 0 
L 0 -4 
" id="mfaf1320bd2" style="stroke:#000000;stroke-width:0.5;"/>
      </defs>
      <g>
       <use style="stroke:#000000;stroke-width:0.5;" x="98.3225" xlink:href="#mfaf1320bd2" y="368.74175"/>
      </g>
     </g>
     <g id="line2d_2">
      <defs>
       <path d="M 0 0 
L 0 4 
" id="ma1af845c6e" style="stroke:#000000;stroke-width:0.5;"/>
      </defs>
      <g>
       <use style="stroke:#000000;stroke-width:0.5;" x="98.3225" xlink:href="#ma1af845c6e" y="23.14175"/>
      </g>
     </g>
     <g id="text_1">
      <!-- Defector -->
      <defs>
       <path d="M 56.203125 29.59375 
L 56.203125 25.203125 
L 14.890625 25.203125 
Q 15.484375 15.921875 20.484375 11.0625 
Q 25.484375 6.203125 34.421875 6.203125 
Q 39.59375 6.203125 44.453125 7.46875 
Q 49.3125 8.734375 54.109375 11.28125 
L 54.109375 2.78125 
Q 49.265625 0.734375 44.1875 -0.34375 
Q 39.109375 -1.421875 33.890625 -1.421875 
Q 20.796875 -1.421875 13.15625 6.1875 
Q 5.515625 13.8125 5.515625 26.8125 
Q 5.515625 40.234375 12.765625 48.109375 
Q 20.015625 56 32.328125 56 
Q 43.359375 56 49.78125 48.890625 
Q 56.203125 41.796875 56.203125 29.59375 
M 47.21875 32.234375 
Q 47.125 39.59375 43.09375 43.984375 
Q 39.0625 48.390625 32.421875 48.390625 
Q 24.90625 48.390625 20.390625 44.140625 
Q 15.875 39.890625 15.1875 32.171875 
z
" id="BitstreamVeraSans-Roman-65"/>
       <path d="M 37.109375 75.984375 
L 37.109375 68.5 
L 28.515625 68.5 
Q 23.6875 68.5 21.796875 66.546875 
Q 19.921875 64.59375 19.921875 59.515625 
L 19.921875 54.6875 
L 34.71875 54.6875 
L 34.71875 47.703125 
L 19.921875 47.703125 
L 19.921875 0 
L 10.890625 0 
L 10.890625 47.703125 
L 2.296875 47.703125 
L 2.296875 54.6875 
L 10.890625 54.6875 
L 10.890625 58.5 
Q 10.890625 67.625 15.140625 71.796875 
Q 19.390625 75.984375 28.609375 75.984375 
z
" id="BitstreamVeraSans-Roman-66"/>
       <path d="M 30.609375 48.390625 
Q 23.390625 48.390625 19.1875 42.75 
Q 14.984375 37.109375 14.984375 27.296875 
Q 14.984375 17.484375 19.15625 11.84375 
Q 23.34375 6.203125 30.609375 6.203125 
Q 37.796875 6.203125 41.984375 11.859375 
Q 46.1875 17.53125 46.1875 27.296875 
Q 46.1875 37.015625 41.984375 42.703125 
Q 37.796875 48.390625 30.609375 48.390625 
M 30.609375 56 
Q 42.328125 56 49.015625 48.375 
Q 55.71875 40.765625 55.71875 27.296875 
Q 55.71875 13.875 49.015625 6.21875 
Q 42.328125 -1.421875 30.609375 -1.421875 
Q 18.84375 -1.421875 12.171875 6.21875 
Q 5.515625 13.875 5.515625 27.296875 
Q 5.515625 40.765625 12.171875 48.375 
Q 18.84375 56 30.609375 56 
" id="BitstreamVeraSans-Roman-6f"/>
       <path d="M 18.3125 70.21875 
L 18.3125 54.6875 
L 36.8125 54.6875 
L 36.8125 47.703125 
L 18.3125 47.703125 
L 18.3125 18.015625 
Q 18.3125 11.328125 20.140625 9.421875 
Q 21.96875 7.515625 27.59375 7.515625 
L 36.8125 7.515625 
L 36.8125 0 
L 27.59375 0 
Q 17.1875 0 13.234375 3.875 
Q 9.28125 7.765625 9.28125 18.015625 
L 9.28125 47.703125 
L 2.6875 47.703125 
L 2.6875 54.6875 
L 9.28125 54.6875 
L 9.28125 70.21875 
z
" id="BitstreamVeraSans-Roman-74"/>
       <path d="M 19.671875 64.796875 
L 19.671875 8.109375 
L 31.59375 8.109375 
Q 46.6875 8.109375 53.6875 14.9375 
Q 60.6875 21.78125 60.6875 36.53125 
Q 60.6875 51.171875 53.6875 57.984375 
Q 46.6875 64.796875 31.59375 64.796875 
z
M 9.8125 72.90625 
L 30.078125 72.90625 
Q 51.265625 72.90625 61.171875 64.09375 
Q 71.09375 55.28125 71.09375 36.53125 
Q 71.09375 17.671875 61.125 8.828125 
Q 51.171875 0 30.078125 0 
L 9.8125 0 
z
" id="BitstreamVeraSans-Roman-44"/>
       <path d="M 41.109375 46.296875 
Q 39.59375 47.171875 37.8125 47.578125 
Q 36.03125 48 33.890625 48 
Q 26.265625 48 22.1875 43.046875 
Q 18.109375 38.09375 18.109375 28.8125 
L 18.109375 0 
L 9.078125 0 
L 9.078125 54.6875 
L 18.109375 54.6875 
L 18.109375 46.1875 
Q 20.953125 51.171875 25.484375 53.578125 
Q 30.03125 56 36.53125 56 
Q 37.453125 56 38.578125 55.875 
Q 39.703125 55.765625 41.0625 55.515625 
z
" id="BitstreamVeraSans-Roman-72"/>
       <path d="M 48.78125 52.59375 
L 48.78125 44.1875 
Q 44.96875 46.296875 41.140625 47.34375 
Q 37.3125 48.390625 33.40625 48.390625 
Q 24.65625 48.390625 19.8125 42.84375 
Q 14.984375 37.3125 14.984375 27.296875 
Q 14.984375 17.28125 19.8125 11.734375 
Q 24.65625 6.203125 33.40625 6.203125 
Q 37.3125 6.203125 41.140625 7.25 
Q 44.96875 8.296875 48.78125 10.40625 
L 48.78125 2.09375 
Q 45.015625 0.34375 40.984375 -0.53125 
Q 36.96875 -1.421875 32.421875 -1.421875 
Q 20.0625 -1.421875 12.78125 6.34375 
Q 5.515625 14.109375 5.515625 27.296875 
Q 5.515625 40.671875 12.859375 48.328125 
Q 20.21875 56 33.015625 56 
Q 37.15625 56 41.109375 55.140625 
Q 45.0625 54.296875 48.78125 52.59375 
" id="BitstreamVeraSans-Roman-63"/>
      </defs>
      <g transform="translate(100.53 407.28175)rotate(-90.0)scale(0.08 -0.08)">
       <use xlink:href="#BitstreamVeraSans-Roman-44"/>
       <use x="77.001953125" xlink:href="#BitstreamVeraSans-Roman-65"/>
       <use x="138.525390625" xlink:href="#BitstreamVeraSans-Roman-66"/>
       <use x="173.73046875" xlink:href="#BitstreamVeraSans-Roman-65"/>
       <use x="235.25390625" xlink:href="#BitstreamVeraSans-Roman-63"/>
       <use x="290.234375" xlink:href="#BitstreamVeraSans-Roman-74"/>
       <use x="329.443359375" xlink:href="#BitstreamVeraSans-Roman-6f"/>
       <use x="390.625" xlink:href="#BitstreamVeraSans-Roman-72"/>
      </g>
     </g>
    </g>
    <g id="xtick_2">
     <g id="line2d_3">
      <g>
       <use style="stroke:#000000;stroke-width:0.5;" x="172.7225" xlink:href="#mfaf1320bd2" y="368.74175"/>
      </g>
     </g>
     <g id="line2d_4">
      <g>
       <use style="stroke:#000000;stroke-width:0.5;" x="172.7225" xlink:href="#ma1af845c6e" y="23.14175"/>
      </g>
     </g>
     <g id="text_2">
      <!-- Bully -->
      <defs>
       <path d="M 8.5 21.578125 
L 8.5 54.6875 
L 17.484375 54.6875 
L 17.484375 21.921875 
Q 17.484375 14.15625 20.5 10.265625 
Q 23.53125 6.390625 29.59375 6.390625 
Q 36.859375 6.390625 41.078125 11.03125 
Q 45.3125 15.671875 45.3125 23.6875 
L 45.3125 54.6875 
L 54.296875 54.6875 
L 54.296875 0 
L 45.3125 0 
L 45.3125 8.40625 
Q 42.046875 3.421875 37.71875 1 
Q 33.40625 -1.421875 27.6875 -1.421875 
Q 18.265625 -1.421875 13.375 4.4375 
Q 8.5 10.296875 8.5 21.578125 
" id="BitstreamVeraSans-Roman-75"/>
       <path d="M 9.421875 75.984375 
L 18.40625 75.984375 
L 18.40625 0 
L 9.421875 0 
z
" id="BitstreamVeraSans-Roman-6c"/>
       <path d="M 32.171875 -5.078125 
Q 28.375 -14.84375 24.75 -17.8125 
Q 21.140625 -20.796875 15.09375 -20.796875 
L 7.90625 -20.796875 
L 7.90625 -13.28125 
L 13.1875 -13.28125 
Q 16.890625 -13.28125 18.9375 -11.515625 
Q 21 -9.765625 23.484375 -3.21875 
L 25.09375 0.875 
L 2.984375 54.6875 
L 12.5 54.6875 
L 29.59375 11.921875 
L 46.6875 54.6875 
L 56.203125 54.6875 
z
" id="BitstreamVeraSans-Roman-79"/>
       <path d="M 19.671875 34.8125 
L 19.671875 8.109375 
L 35.5 8.109375 
Q 43.453125 8.109375 47.28125 11.40625 
Q 51.125 14.703125 51.125 21.484375 
Q 51.125 28.328125 47.28125 31.5625 
Q 43.453125 34.8125 35.5 34.8125 
z
M 19.671875 64.796875 
L 19.671875 42.828125 
L 34.28125 42.828125 
Q 41.5 42.828125 45.03125 45.53125 
Q 48.578125 48.25 48.578125 53.8125 
Q 48.578125 59.328125 45.03125 62.0625 
Q 41.5 64.796875 34.28125 64.796875 
z
M 9.8125 72.90625 
L 35.015625 72.90625 
Q 46.296875 72.90625 52.390625 68.21875 
Q 58.5 63.53125 58.5 54.890625 
Q 58.5 48.1875 55.375 44.234375 
Q 52.25 40.28125 46.1875 39.3125 
Q 53.46875 37.75 57.5 32.78125 
Q 61.53125 27.828125 61.53125 20.40625 
Q 61.53125 10.640625 54.890625 5.3125 
Q 48.25 0 35.984375 0 
L 9.8125 0 
z
" id="BitstreamVeraSans-Roman-42"/>
      </defs>
      <g transform="translate(174.93 392.4805)rotate(-90.0)scale(0.08 -0.08)">
       <use xlink:href="#BitstreamVeraSans-Roman-42"/>
       <use x="68.603515625" xlink:href="#BitstreamVeraSans-Roman-75"/>
       <use x="131.982421875" xlink:href="#BitstreamVeraSans-Roman-6c"/>
       <use x="159.765625" xlink:href="#BitstreamVeraSans-Roman-6c"/>
       <use x="187.548828125" xlink:href="#BitstreamVeraSans-Roman-79"/>
      </g>
     </g>
    </g>
    <g id="xtick_3">
     <g id="line2d_5">
      <g>
       <use style="stroke:#000000;stroke-width:0.5;" x="247.1225" xlink:href="#mfaf1320bd2" y="368.74175"/>
      </g>
     </g>
     <g id="line2d_6">
      <g>
       <use style="stroke:#000000;stroke-width:0.5;" x="247.1225" xlink:href="#ma1af845c6e" y="23.14175"/>
      </g>
     </g>
     <g id="text_3">
      <!-- Suspicious Tit For Tat -->
      <defs>
       <path d="M 44.28125 53.078125 
L 44.28125 44.578125 
Q 40.484375 46.53125 36.375 47.5 
Q 32.28125 48.484375 27.875 48.484375 
Q 21.1875 48.484375 17.84375 46.4375 
Q 14.5 44.390625 14.5 40.28125 
Q 14.5 37.15625 16.890625 35.375 
Q 19.28125 33.59375 26.515625 31.984375 
L 29.59375 31.296875 
Q 39.15625 29.25 43.1875 25.515625 
Q 47.21875 21.78125 47.21875 15.09375 
Q 47.21875 7.46875 41.1875 3.015625 
Q 35.15625 -1.421875 24.609375 -1.421875 
Q 20.21875 -1.421875 15.453125 -0.5625 
Q 10.6875 0.296875 5.421875 2 
L 5.421875 11.28125 
Q 10.40625 8.6875 15.234375 7.390625 
Q 20.0625 6.109375 24.8125 6.109375 
Q 31.15625 6.109375 34.5625 8.28125 
Q 37.984375 10.453125 37.984375 14.40625 
Q 37.984375 18.0625 35.515625 20.015625 
Q 33.0625 21.96875 24.703125 23.78125 
L 21.578125 24.515625 
Q 13.234375 26.265625 9.515625 29.90625 
Q 5.8125 33.546875 5.8125 39.890625 
Q 5.8125 47.609375 11.28125 51.796875 
Q 16.75 56 26.8125 56 
Q 31.78125 56 36.171875 55.265625 
Q 40.578125 54.546875 44.28125 53.078125 
" id="BitstreamVeraSans-Roman-73"/>
       <path d="M 18.109375 8.203125 
L 18.109375 -20.796875 
L 9.078125 -20.796875 
L 9.078125 54.6875 
L 18.109375 54.6875 
L 18.109375 46.390625 
Q 20.953125 51.265625 25.265625 53.625 
Q 29.59375 56 35.59375 56 
Q 45.5625 56 51.78125 48.09375 
Q 58.015625 40.1875 58.015625 27.296875 
Q 58.015625 14.40625 51.78125 6.484375 
Q 45.5625 -1.421875 35.59375 -1.421875 
Q 29.59375 -1.421875 25.265625 0.953125 
Q 20.953125 3.328125 18.109375 8.203125 
M 48.6875 27.296875 
Q 48.6875 37.203125 44.609375 42.84375 
Q 40.53125 48.484375 33.40625 48.484375 
Q 26.265625 48.484375 22.1875 42.84375 
Q 18.109375 37.203125 18.109375 27.296875 
Q 18.109375 17.390625 22.1875 11.75 
Q 26.265625 6.109375 33.40625 6.109375 
Q 40.53125 6.109375 44.609375 11.75 
Q 48.6875 17.390625 48.6875 27.296875 
" id="BitstreamVeraSans-Roman-70"/>
       <path id="BitstreamVeraSans-Roman-20"/>
       <path d="M 53.515625 70.515625 
L 53.515625 60.890625 
Q 47.90625 63.578125 42.921875 64.890625 
Q 37.9375 66.21875 33.296875 66.21875 
Q 25.25 66.21875 20.875 63.09375 
Q 16.5 59.96875 16.5 54.203125 
Q 16.5 49.359375 19.40625 46.890625 
Q 22.3125 44.4375 30.421875 42.921875 
L 36.375 41.703125 
Q 47.40625 39.59375 52.65625 34.296875 
Q 57.90625 29 57.90625 20.125 
Q 57.90625 9.515625 50.796875 4.046875 
Q 43.703125 -1.421875 29.984375 -1.421875 
Q 24.8125 -1.421875 18.96875 -0.25 
Q 13.140625 0.921875 6.890625 3.21875 
L 6.890625 13.375 
Q 12.890625 10.015625 18.65625 8.296875 
Q 24.421875 6.59375 29.984375 6.59375 
Q 38.421875 6.59375 43.015625 9.90625 
Q 47.609375 13.234375 47.609375 19.390625 
Q 47.609375 24.75 44.3125 27.78125 
Q 41.015625 30.8125 33.5 32.328125 
L 27.484375 33.5 
Q 16.453125 35.6875 11.515625 40.375 
Q 6.59375 45.0625 6.59375 53.421875 
Q 6.59375 63.09375 13.40625 68.65625 
Q 20.21875 74.21875 32.171875 74.21875 
Q 37.3125 74.21875 42.625 73.28125 
Q 47.953125 72.359375 53.515625 70.515625 
" id="BitstreamVeraSans-Roman-53"/>
       <path d="M -0.296875 72.90625 
L 61.375 72.90625 
L 61.375 64.59375 
L 35.5 64.59375 
L 35.5 0 
L 25.59375 0 
L 25.59375 64.59375 
L -0.296875 64.59375 
z
" id="BitstreamVeraSans-Roman-54"/>
       <path d="M 9.8125 72.90625 
L 51.703125 72.90625 
L 51.703125 64.59375 
L 19.671875 64.59375 
L 19.671875 43.109375 
L 48.578125 43.109375 
L 48.578125 34.8125 
L 19.671875 34.8125 
L 19.671875 0 
L 9.8125 0 
z
" id="BitstreamVeraSans-Roman-46"/>
       <path d="M 34.28125 27.484375 
Q 23.390625 27.484375 19.1875 25 
Q 14.984375 22.515625 14.984375 16.5 
Q 14.984375 11.71875 18.140625 8.90625 
Q 21.296875 6.109375 26.703125 6.109375 
Q 34.1875 6.109375 38.703125 11.40625 
Q 43.21875 16.703125 43.21875 25.484375 
L 43.21875 27.484375 
z
M 52.203125 31.203125 
L 52.203125 0 
L 43.21875 0 
L 43.21875 8.296875 
Q 40.140625 3.328125 35.546875 0.953125 
Q 30.953125 -1.421875 24.3125 -1.421875 
Q 15.921875 -1.421875 10.953125 3.296875 
Q 6 8.015625 6 15.921875 
Q 6 25.140625 12.171875 29.828125 
Q 18.359375 34.515625 30.609375 34.515625 
L 43.21875 34.515625 
L 43.21875 35.40625 
Q 43.21875 41.609375 39.140625 45 
Q 35.0625 48.390625 27.6875 48.390625 
Q 23 48.390625 18.546875 47.265625 
Q 14.109375 46.140625 10.015625 43.890625 
L 10.015625 52.203125 
Q 14.9375 54.109375 19.578125 55.046875 
Q 24.21875 56 28.609375 56 
Q 40.484375 56 46.34375 49.84375 
Q 52.203125 43.703125 52.203125 31.203125 
" id="BitstreamVeraSans-Roman-61"/>
       <path d="M 9.421875 54.6875 
L 18.40625 54.6875 
L 18.40625 0 
L 9.421875 0 
z
M 9.421875 75.984375 
L 18.40625 75.984375 
L 18.40625 64.59375 
L 9.421875 64.59375 
z
" id="BitstreamVeraSans-Roman-69"/>
      </defs>
      <g transform="translate(249.33 458.668)rotate(-90.0)scale(0.08 -0.08)">
       <use xlink:href="#BitstreamVeraSans-Roman-53"/>
       <use x="63.4765625" xlink:href="#BitstreamVeraSans-Roman-75"/>
       <use x="126.85546875" xlink:href="#BitstreamVeraSans-Roman-73"/>
       <use x="178.955078125" xlink:href="#BitstreamVeraSans-Roman-70"/>
       <use x="242.431640625" xlink:href="#BitstreamVeraSans-Roman-69"/>
       <use x="270.21484375" xlink:href="#BitstreamVeraSans-Roman-63"/>
       <use x="325.1953125" xlink:href="#BitstreamVeraSans-Roman-69"/>
       <use x="352.978515625" xlink:href="#BitstreamVeraSans-Roman-6f"/>
       <use x="414.16015625" xlink:href="#BitstreamVeraSans-Roman-75"/>
       <use x="477.5390625" xlink:href="#BitstreamVeraSans-Roman-73"/>
       <use x="529.638671875" xlink:href="#BitstreamVeraSans-Roman-20"/>
       <use x="561.42578125" xlink:href="#BitstreamVeraSans-Roman-54"/>
       <use x="622.462890625" xlink:href="#BitstreamVeraSans-Roman-69"/>
       <use x="650.24609375" xlink:href="#BitstreamVeraSans-Roman-74"/>
       <use x="689.455078125" xlink:href="#BitstreamVeraSans-Roman-20"/>
       <use x="721.2421875" xlink:href="#BitstreamVeraSans-Roman-46"/>
       <use x="778.71484375" xlink:href="#BitstreamVeraSans-Roman-6f"/>
       <use x="839.896484375" xlink:href="#BitstreamVeraSans-Roman-72"/>
       <use x="881.009765625" xlink:href="#BitstreamVeraSans-Roman-20"/>
       <use x="912.796875" xlink:href="#BitstreamVeraSans-Roman-54"/>
       <use x="973.630859375" xlink:href="#BitstreamVeraSans-Roman-61"/>
       <use x="1034.91015625" xlink:href="#BitstreamVeraSans-Roman-74"/>
      </g>
     </g>
    </g>
    <g id="xtick_4">
     <g id="line2d_7">
      <g>
       <use style="stroke:#000000;stroke-width:0.5;" x="321.5225" xlink:href="#mfaf1320bd2" y="368.74175"/>
      </g>
     </g>
     <g id="line2d_8">
      <g>
       <use style="stroke:#000000;stroke-width:0.5;" x="321.5225" xlink:href="#ma1af845c6e" y="23.14175"/>
      </g>
     </g>
     <g id="text_4">
      <!-- Tit For Tat -->
      <g transform="translate(323.73 413.75425)rotate(-90.0)scale(0.08 -0.08)">
       <use xlink:href="#BitstreamVeraSans-Roman-54"/>
       <use x="61.037109375" xlink:href="#BitstreamVeraSans-Roman-69"/>
       <use x="88.8203125" xlink:href="#BitstreamVeraSans-Roman-74"/>
       <use x="128.029296875" xlink:href="#BitstreamVeraSans-Roman-20"/>
       <use x="159.81640625" xlink:href="#BitstreamVeraSans-Roman-46"/>
       <use x="217.2890625" xlink:href="#BitstreamVeraSans-Roman-6f"/>
       <use x="278.470703125" xlink:href="#BitstreamVeraSans-Roman-72"/>
       <use x="319.583984375" xlink:href="#BitstreamVeraSans-Roman-20"/>
       <use x="351.37109375" xlink:href="#BitstreamVeraSans-Roman-54"/>
       <use x="412.205078125" xlink:href="#BitstreamVeraSans-Roman-61"/>
       <use x="473.484375" xlink:href="#BitstreamVeraSans-Roman-74"/>
      </g>
     </g>
    </g>
    <g id="xtick_5">
     <g id="line2d_9">
      <g>
       <use style="stroke:#000000;stroke-width:0.5;" x="395.9225" xlink:href="#mfaf1320bd2" y="368.74175"/>
      </g>
     </g>
     <g id="line2d_10">
      <g>
       <use style="stroke:#000000;stroke-width:0.5;" x="395.9225" xlink:href="#ma1af845c6e" y="23.14175"/>
      </g>
     </g>
     <g id="text_5">
      <!-- Alternator -->
      <defs>
       <path d="M 34.1875 63.1875 
L 20.796875 26.90625 
L 47.609375 26.90625 
z
M 28.609375 72.90625 
L 39.796875 72.90625 
L 67.578125 0 
L 57.328125 0 
L 50.6875 18.703125 
L 17.828125 18.703125 
L 11.1875 0 
L 0.78125 0 
z
" id="BitstreamVeraSans-Roman-41"/>
       <path d="M 54.890625 33.015625 
L 54.890625 0 
L 45.90625 0 
L 45.90625 32.71875 
Q 45.90625 40.484375 42.875 44.328125 
Q 39.84375 48.1875 33.796875 48.1875 
Q 26.515625 48.1875 22.3125 43.546875 
Q 18.109375 38.921875 18.109375 30.90625 
L 18.109375 0 
L 9.078125 0 
L 9.078125 54.6875 
L 18.109375 54.6875 
L 18.109375 46.1875 
Q 21.34375 51.125 25.703125 53.5625 
Q 30.078125 56 35.796875 56 
Q 45.21875 56 50.046875 50.171875 
Q 54.890625 44.34375 54.890625 33.015625 
" id="BitstreamVeraSans-Roman-6e"/>
      </defs>
      <g transform="translate(398.13 413.0755)rotate(-90.0)scale(0.08 -0.08)">
       <use xlink:href="#BitstreamVeraSans-Roman-41"/>
       <use x="68.408203125" xlink:href="#BitstreamVeraSans-Roman-6c"/>
       <use x="96.19140625" xlink:href="#BitstreamVeraSans-Roman-74"/>
       <use x="135.400390625" xlink:href="#BitstreamVeraSans-Roman-65"/>
       <use x="196.923828125" xlink:href="#BitstreamVeraSans-Roman-72"/>
       <use x="238.021484375" xlink:href="#BitstreamVeraSans-Roman-6e"/>
       <use x="301.400390625" xlink:href="#BitstreamVeraSans-Roman-61"/>
       <use x="362.6796875" xlink:href="#BitstreamVeraSans-Roman-74"/>
       <use x="401.888671875" xlink:href="#BitstreamVeraSans-Roman-6f"/>
       <use x="463.0703125" xlink:href="#BitstreamVeraSans-Roman-72"/>
      </g>
     </g>
    </g>
    <g id="xtick_6">
     <g id="line2d_11">
      <g>
       <use style="stroke:#000000;stroke-width:0.5;" x="470.3225" xlink:href="#mfaf1320bd2" y="368.74175"/>
      </g>
     </g>
     <g id="line2d_12">
      <g>
       <use style="stroke:#000000;stroke-width:0.5;" x="470.3225" xlink:href="#ma1af845c6e" y="23.14175"/>
      </g>
     </g>
     <g id="text_6">
      <!-- Anti Tit For Tat -->
      <g transform="translate(472.53 432.198)rotate(-90.0)scale(0.08 -0.08)">
       <use xlink:href="#BitstreamVeraSans-Roman-41"/>
       <use x="68.408203125" xlink:href="#BitstreamVeraSans-Roman-6e"/>
       <use x="131.787109375" xlink:href="#BitstreamVeraSans-Roman-74"/>
       <use x="170.99609375" xlink:href="#BitstreamVeraSans-Roman-69"/>
       <use x="198.779296875" xlink:href="#BitstreamVeraSans-Roman-20"/>
       <use x="230.56640625" xlink:href="#BitstreamVeraSans-Roman-54"/>
       <use x="291.603515625" xlink:href="#BitstreamVeraSans-Roman-69"/>
       <use x="319.38671875" xlink:href="#BitstreamVeraSans-Roman-74"/>
       <use x="358.595703125" xlink:href="#BitstreamVeraSans-Roman-20"/>
       <use x="390.3828125" xlink:href="#BitstreamVeraSans-Roman-46"/>
       <use x="447.85546875" xlink:href="#BitstreamVeraSans-Roman-6f"/>
       <use x="509.037109375" xlink:href="#BitstreamVeraSans-Roman-72"/>
       <use x="550.150390625" xlink:href="#BitstreamVeraSans-Roman-20"/>
       <use x="581.9375" xlink:href="#BitstreamVeraSans-Roman-54"/>
       <use x="642.771484375" xlink:href="#BitstreamVeraSans-Roman-61"/>
       <use x="704.05078125" xlink:href="#BitstreamVeraSans-Roman-74"/>
      </g>
     </g>
    </g>
    <g id="xtick_7">
     <g id="line2d_13">
      <g>
       <use style="stroke:#000000;stroke-width:0.5;" x="544.7225" xlink:href="#mfaf1320bd2" y="368.74175"/>
      </g>
     </g>
     <g id="line2d_14">
      <g>
       <use style="stroke:#000000;stroke-width:0.5;" x="544.7225" xlink:href="#ma1af845c6e" y="23.14175"/>
      </g>
     </g>
     <g id="text_7">
      <!-- Win-Stay Lose-Shift -->
      <defs>
       <path d="M 4.890625 31.390625 
L 31.203125 31.390625 
L 31.203125 23.390625 
L 4.890625 23.390625 
z
" id="BitstreamVeraSans-Roman-2d"/>
       <path d="M 54.890625 33.015625 
L 54.890625 0 
L 45.90625 0 
L 45.90625 32.71875 
Q 45.90625 40.484375 42.875 44.328125 
Q 39.84375 48.1875 33.796875 48.1875 
Q 26.515625 48.1875 22.3125 43.546875 
Q 18.109375 38.921875 18.109375 30.90625 
L 18.109375 0 
L 9.078125 0 
L 9.078125 75.984375 
L 18.109375 75.984375 
L 18.109375 46.1875 
Q 21.34375 51.125 25.703125 53.5625 
Q 30.078125 56 35.796875 56 
Q 45.21875 56 50.046875 50.171875 
Q 54.890625 44.34375 54.890625 33.015625 
" id="BitstreamVeraSans-Roman-68"/>
       <path d="M 3.328125 72.90625 
L 13.28125 72.90625 
L 28.609375 11.28125 
L 43.890625 72.90625 
L 54.984375 72.90625 
L 70.3125 11.28125 
L 85.59375 72.90625 
L 95.609375 72.90625 
L 77.296875 0 
L 64.890625 0 
L 49.515625 63.28125 
L 33.984375 0 
L 21.578125 0 
z
" id="BitstreamVeraSans-Roman-57"/>
       <path d="M 9.8125 72.90625 
L 19.671875 72.90625 
L 19.671875 8.296875 
L 55.171875 8.296875 
L 55.171875 0 
L 9.8125 0 
z
" id="BitstreamVeraSans-Roman-4c"/>
      </defs>
      <g transform="translate(546.93 450.873)rotate(-90.0)scale(0.08 -0.08)">
       <use xlink:href="#BitstreamVeraSans-Roman-57"/>
       <use x="98.845703125" xlink:href="#BitstreamVeraSans-Roman-69"/>
       <use x="126.62890625" xlink:href="#BitstreamVeraSans-Roman-6e"/>
       <use x="190.0078125" xlink:href="#BitstreamVeraSans-Roman-2d"/>
       <use x="226.091796875" xlink:href="#BitstreamVeraSans-Roman-53"/>
       <use x="289.568359375" xlink:href="#BitstreamVeraSans-Roman-74"/>
       <use x="328.77734375" xlink:href="#BitstreamVeraSans-Roman-61"/>
       <use x="390.056640625" xlink:href="#BitstreamVeraSans-Roman-79"/>
       <use x="449.236328125" xlink:href="#BitstreamVeraSans-Roman-20"/>
       <use x="481.0234375" xlink:href="#BitstreamVeraSans-Roman-4c"/>
       <use x="536.720703125" xlink:href="#BitstreamVeraSans-Roman-6f"/>
       <use x="597.90234375" xlink:href="#BitstreamVeraSans-Roman-73"/>
       <use x="650.001953125" xlink:href="#BitstreamVeraSans-Roman-65"/>
       <use x="711.525390625" xlink:href="#BitstreamVeraSans-Roman-2d"/>
       <use x="747.609375" xlink:href="#BitstreamVeraSans-Roman-53"/>
       <use x="811.0859375" xlink:href="#BitstreamVeraSans-Roman-68"/>
       <use x="874.46484375" xlink:href="#BitstreamVeraSans-Roman-69"/>
       <use x="902.248046875" xlink:href="#BitstreamVeraSans-Roman-66"/>
       <use x="937.4375" xlink:href="#BitstreamVeraSans-Roman-74"/>
      </g>
     </g>
    </g>
    <g id="xtick_8">
     <g id="line2d_15">
      <g>
       <use style="stroke:#000000;stroke-width:0.5;" x="619.1225" xlink:href="#mfaf1320bd2" y="368.74175"/>
      </g>
     </g>
     <g id="line2d_16">
      <g>
       <use style="stroke:#000000;stroke-width:0.5;" x="619.1225" xlink:href="#ma1af845c6e" y="23.14175"/>
      </g>
     </g>
     <g id="text_8">
      <!-- Cooperator -->
      <defs>
       <path d="M 64.40625 67.28125 
L 64.40625 56.890625 
Q 59.421875 61.53125 53.78125 63.8125 
Q 48.140625 66.109375 41.796875 66.109375 
Q 29.296875 66.109375 22.65625 58.46875 
Q 16.015625 50.828125 16.015625 36.375 
Q 16.015625 21.96875 22.65625 14.328125 
Q 29.296875 6.6875 41.796875 6.6875 
Q 48.140625 6.6875 53.78125 8.984375 
Q 59.421875 11.28125 64.40625 15.921875 
L 64.40625 5.609375 
Q 59.234375 2.09375 53.4375 0.328125 
Q 47.65625 -1.421875 41.21875 -1.421875 
Q 24.65625 -1.421875 15.125 8.703125 
Q 5.609375 18.84375 5.609375 36.375 
Q 5.609375 53.953125 15.125 64.078125 
Q 24.65625 74.21875 41.21875 74.21875 
Q 47.75 74.21875 53.53125 72.484375 
Q 59.328125 70.75 64.40625 67.28125 
" id="BitstreamVeraSans-Roman-43"/>
      </defs>
      <g transform="translate(621.33 417.6305)rotate(-90.0)scale(0.08 -0.08)">
       <use xlink:href="#BitstreamVeraSans-Roman-43"/>
       <use x="69.82421875" xlink:href="#BitstreamVeraSans-Roman-6f"/>
       <use x="131.005859375" xlink:href="#BitstreamVeraSans-Roman-6f"/>
       <use x="192.1875" xlink:href="#BitstreamVeraSans-Roman-70"/>
       <use x="255.6640625" xlink:href="#BitstreamVeraSans-Roman-65"/>
       <use x="317.1875" xlink:href="#BitstreamVeraSans-Roman-72"/>
       <use x="358.30078125" xlink:href="#BitstreamVeraSans-Roman-61"/>
       <use x="419.580078125" xlink:href="#BitstreamVeraSans-Roman-74"/>
       <use x="458.7890625" xlink:href="#BitstreamVeraSans-Roman-6f"/>
       <use x="519.970703125" xlink:href="#BitstreamVeraSans-Roman-72"/>
      </g>
     </g>
    </g>
   </g>
   <g id="matplotlib.axis_2">
    <g id="ytick_1">
     <g id="line2d_17">
      <defs>
       <path d="M 0 0 
L 4 0 
" id="m72653273c4" style="stroke:#000000;stroke-width:0.5;"/>
      </defs>
      <g>
       <use style="stroke:#000000;stroke-width:0.5;" x="23.9225" xlink:href="#m72653273c4" y="368.74175"/>
      </g>
     </g>
     <g id="line2d_18">
      <defs>
       <path d="M 0 0 
L -4 0 
" id="m61c832cd06" style="stroke:#000000;stroke-width:0.5;"/>
      </defs>
      <g>
       <use style="stroke:#000000;stroke-width:0.5;" x="693.5225" xlink:href="#m61c832cd06" y="368.74175"/>
      </g>
     </g>
     <g id="text_9">
      <!-- 1.0 -->
      <defs>
       <path d="M 12.40625 8.296875 
L 28.515625 8.296875 
L 28.515625 63.921875 
L 10.984375 60.40625 
L 10.984375 69.390625 
L 28.421875 72.90625 
L 38.28125 72.90625 
L 38.28125 8.296875 
L 54.390625 8.296875 
L 54.390625 0 
L 12.40625 0 
z
" id="BitstreamVeraSans-Roman-31"/>
       <path d="M 31.78125 66.40625 
Q 24.171875 66.40625 20.328125 58.90625 
Q 16.5 51.421875 16.5 36.375 
Q 16.5 21.390625 20.328125 13.890625 
Q 24.171875 6.390625 31.78125 6.390625 
Q 39.453125 6.390625 43.28125 13.890625 
Q 47.125 21.390625 47.125 36.375 
Q 47.125 51.421875 43.28125 58.90625 
Q 39.453125 66.40625 31.78125 66.40625 
M 31.78125 74.21875 
Q 44.046875 74.21875 50.515625 64.515625 
Q 56.984375 54.828125 56.984375 36.375 
Q 56.984375 17.96875 50.515625 8.265625 
Q 44.046875 -1.421875 31.78125 -1.421875 
Q 19.53125 -1.421875 13.0625 8.265625 
Q 6.59375 17.96875 6.59375 36.375 
Q 6.59375 54.828125 13.0625 64.515625 
Q 19.53125 74.21875 31.78125 74.21875 
" id="BitstreamVeraSans-Roman-30"/>
       <path d="M 10.6875 12.40625 
L 21 12.40625 
L 21 0 
L 10.6875 0 
z
" id="BitstreamVeraSans-Roman-2e"/>
      </defs>
      <g transform="translate(7.2 370.94925)scale(0.08 -0.08)">
       <use xlink:href="#BitstreamVeraSans-Roman-31"/>
       <use x="63.623046875" xlink:href="#BitstreamVeraSans-Roman-2e"/>
       <use x="95.41015625" xlink:href="#BitstreamVeraSans-Roman-30"/>
      </g>
     </g>
    </g>
    <g id="ytick_2">
     <g id="line2d_19">
      <g>
       <use style="stroke:#000000;stroke-width:0.5;" x="23.9225" xlink:href="#m72653273c4" y="311.14175"/>
      </g>
     </g>
     <g id="line2d_20">
      <g>
       <use style="stroke:#000000;stroke-width:0.5;" x="693.5225" xlink:href="#m61c832cd06" y="311.14175"/>
      </g>
     </g>
     <g id="text_10">
      <!-- 1.5 -->
      <defs>
       <path d="M 10.796875 72.90625 
L 49.515625 72.90625 
L 49.515625 64.59375 
L 19.828125 64.59375 
L 19.828125 46.734375 
Q 21.96875 47.46875 24.109375 47.828125 
Q 26.265625 48.1875 28.421875 48.1875 
Q 40.625 48.1875 47.75 41.5 
Q 54.890625 34.8125 54.890625 23.390625 
Q 54.890625 11.625 47.5625 5.09375 
Q 40.234375 -1.421875 26.90625 -1.421875 
Q 22.3125 -1.421875 17.546875 -0.640625 
Q 12.796875 0.140625 7.71875 1.703125 
L 7.71875 11.625 
Q 12.109375 9.234375 16.796875 8.0625 
Q 21.484375 6.890625 26.703125 6.890625 
Q 35.15625 6.890625 40.078125 11.328125 
Q 45.015625 15.765625 45.015625 23.390625 
Q 45.015625 31 40.078125 35.4375 
Q 35.15625 39.890625 26.703125 39.890625 
Q 22.75 39.890625 18.8125 39.015625 
Q 14.890625 38.140625 10.796875 36.28125 
z
" id="BitstreamVeraSans-Roman-35"/>
      </defs>
      <g transform="translate(7.2 313.34925)scale(0.08 -0.08)">
       <use xlink:href="#BitstreamVeraSans-Roman-31"/>
       <use x="63.623046875" xlink:href="#BitstreamVeraSans-Roman-2e"/>
       <use x="95.41015625" xlink:href="#BitstreamVeraSans-Roman-35"/>
      </g>
     </g>
    </g>
    <g id="ytick_3">
     <g id="line2d_21">
      <g>
       <use style="stroke:#000000;stroke-width:0.5;" x="23.9225" xlink:href="#m72653273c4" y="253.54175"/>
      </g>
     </g>
     <g id="line2d_22">
      <g>
       <use style="stroke:#000000;stroke-width:0.5;" x="693.5225" xlink:href="#m61c832cd06" y="253.54175"/>
      </g>
     </g>
     <g id="text_11">
      <!-- 2.0 -->
      <defs>
       <path d="M 19.1875 8.296875 
L 53.609375 8.296875 
L 53.609375 0 
L 7.328125 0 
L 7.328125 8.296875 
Q 12.9375 14.109375 22.625 23.890625 
Q 32.328125 33.6875 34.8125 36.53125 
Q 39.546875 41.84375 41.421875 45.53125 
Q 43.3125 49.21875 43.3125 52.78125 
Q 43.3125 58.59375 39.234375 62.25 
Q 35.15625 65.921875 28.609375 65.921875 
Q 23.96875 65.921875 18.8125 64.3125 
Q 13.671875 62.703125 7.8125 59.421875 
L 7.8125 69.390625 
Q 13.765625 71.78125 18.9375 73 
Q 24.125 74.21875 28.421875 74.21875 
Q 39.75 74.21875 46.484375 68.546875 
Q 53.21875 62.890625 53.21875 53.421875 
Q 53.21875 48.921875 51.53125 44.890625 
Q 49.859375 40.875 45.40625 35.40625 
Q 44.1875 33.984375 37.640625 27.21875 
Q 31.109375 20.453125 19.1875 8.296875 
" id="BitstreamVeraSans-Roman-32"/>
      </defs>
      <g transform="translate(7.2 255.74925)scale(0.08 -0.08)">
       <use xlink:href="#BitstreamVeraSans-Roman-32"/>
       <use x="63.623046875" xlink:href="#BitstreamVeraSans-Roman-2e"/>
       <use x="95.41015625" xlink:href="#BitstreamVeraSans-Roman-30"/>
      </g>
     </g>
    </g>
    <g id="ytick_4">
     <g id="line2d_23">
      <g>
       <use style="stroke:#000000;stroke-width:0.5;" x="23.9225" xlink:href="#m72653273c4" y="195.94175"/>
      </g>
     </g>
     <g id="line2d_24">
      <g>
       <use style="stroke:#000000;stroke-width:0.5;" x="693.5225" xlink:href="#m61c832cd06" y="195.94175"/>
      </g>
     </g>
     <g id="text_12">
      <!-- 2.5 -->
      <g transform="translate(7.2 198.14925)scale(0.08 -0.08)">
       <use xlink:href="#BitstreamVeraSans-Roman-32"/>
       <use x="63.623046875" xlink:href="#BitstreamVeraSans-Roman-2e"/>
       <use x="95.41015625" xlink:href="#BitstreamVeraSans-Roman-35"/>
      </g>
     </g>
    </g>
    <g id="ytick_5">
     <g id="line2d_25">
      <g>
       <use style="stroke:#000000;stroke-width:0.5;" x="23.9225" xlink:href="#m72653273c4" y="138.34175"/>
      </g>
     </g>
     <g id="line2d_26">
      <g>
       <use style="stroke:#000000;stroke-width:0.5;" x="693.5225" xlink:href="#m61c832cd06" y="138.34175"/>
      </g>
     </g>
     <g id="text_13">
      <!-- 3.0 -->
      <defs>
       <path d="M 40.578125 39.3125 
Q 47.65625 37.796875 51.625 33 
Q 55.609375 28.21875 55.609375 21.1875 
Q 55.609375 10.40625 48.1875 4.484375 
Q 40.765625 -1.421875 27.09375 -1.421875 
Q 22.515625 -1.421875 17.65625 -0.515625 
Q 12.796875 0.390625 7.625 2.203125 
L 7.625 11.71875 
Q 11.71875 9.328125 16.59375 8.109375 
Q 21.484375 6.890625 26.8125 6.890625 
Q 36.078125 6.890625 40.9375 10.546875 
Q 45.796875 14.203125 45.796875 21.1875 
Q 45.796875 27.640625 41.28125 31.265625 
Q 36.765625 34.90625 28.71875 34.90625 
L 20.21875 34.90625 
L 20.21875 43.015625 
L 29.109375 43.015625 
Q 36.375 43.015625 40.234375 45.921875 
Q 44.09375 48.828125 44.09375 54.296875 
Q 44.09375 59.90625 40.109375 62.90625 
Q 36.140625 65.921875 28.71875 65.921875 
Q 24.65625 65.921875 20.015625 65.03125 
Q 15.375 64.15625 9.8125 62.3125 
L 9.8125 71.09375 
Q 15.4375 72.65625 20.34375 73.4375 
Q 25.25 74.21875 29.59375 74.21875 
Q 40.828125 74.21875 47.359375 69.109375 
Q 53.90625 64.015625 53.90625 55.328125 
Q 53.90625 49.265625 50.4375 45.09375 
Q 46.96875 40.921875 40.578125 39.3125 
" id="BitstreamVeraSans-Roman-33"/>
      </defs>
      <g transform="translate(7.2 140.54925)scale(0.08 -0.08)">
       <use xlink:href="#BitstreamVeraSans-Roman-33"/>
       <use x="63.623046875" xlink:href="#BitstreamVeraSans-Roman-2e"/>
       <use x="95.41015625" xlink:href="#BitstreamVeraSans-Roman-30"/>
      </g>
     </g>
    </g>
    <g id="ytick_6">
     <g id="line2d_27">
      <g>
       <use style="stroke:#000000;stroke-width:0.5;" x="23.9225" xlink:href="#m72653273c4" y="80.74175"/>
      </g>
     </g>
     <g id="line2d_28">
      <g>
       <use style="stroke:#000000;stroke-width:0.5;" x="693.5225" xlink:href="#m61c832cd06" y="80.74175"/>
      </g>
     </g>
     <g id="text_14">
      <!-- 3.5 -->
      <g transform="translate(7.2 82.94925)scale(0.08 -0.08)">
       <use xlink:href="#BitstreamVeraSans-Roman-33"/>
       <use x="63.623046875" xlink:href="#BitstreamVeraSans-Roman-2e"/>
       <use x="95.41015625" xlink:href="#BitstreamVeraSans-Roman-35"/>
      </g>
     </g>
    </g>
    <g id="ytick_7">
     <g id="line2d_29">
      <g>
       <use style="stroke:#000000;stroke-width:0.5;" x="23.9225" xlink:href="#m72653273c4" y="23.14175"/>
      </g>
     </g>
     <g id="line2d_30">
      <g>
       <use style="stroke:#000000;stroke-width:0.5;" x="693.5225" xlink:href="#m61c832cd06" y="23.14175"/>
      </g>
     </g>
     <g id="text_15">
      <!-- 4.0 -->
      <defs>
       <path d="M 37.796875 64.3125 
L 12.890625 25.390625 
L 37.796875 25.390625 
z
M 35.203125 72.90625 
L 47.609375 72.90625 
L 47.609375 25.390625 
L 58.015625 25.390625 
L 58.015625 17.1875 
L 47.609375 17.1875 
L 47.609375 0 
L 37.796875 0 
L 37.796875 17.1875 
L 4.890625 17.1875 
L 4.890625 26.703125 
z
" id="BitstreamVeraSans-Roman-34"/>
      </defs>
      <g transform="translate(7.2 25.34925)scale(0.08 -0.08)">
       <use xlink:href="#BitstreamVeraSans-Roman-34"/>
       <use x="63.623046875" xlink:href="#BitstreamVeraSans-Roman-2e"/>
       <use x="95.41015625" xlink:href="#BitstreamVeraSans-Roman-30"/>
      </g>
     </g>
    </g>
   </g>
   <g id="text_16">
    <!-- Payoffs. Prob end: 0.1, Repetitions: 100, Strategies: 8. -->
    <defs>
     <path d="M 45.40625 27.984375 
Q 45.40625 37.75 41.375 43.109375 
Q 37.359375 48.484375 30.078125 48.484375 
Q 22.859375 48.484375 18.828125 43.109375 
Q 14.796875 37.75 14.796875 27.984375 
Q 14.796875 18.265625 18.828125 12.890625 
Q 22.859375 7.515625 30.078125 7.515625 
Q 37.359375 7.515625 41.375 12.890625 
Q 45.40625 18.265625 45.40625 27.984375 
M 54.390625 6.78125 
Q 54.390625 -7.171875 48.1875 -13.984375 
Q 42 -20.796875 29.203125 -20.796875 
Q 24.46875 -20.796875 20.265625 -20.09375 
Q 16.0625 -19.390625 12.109375 -17.921875 
L 12.109375 -9.1875 
Q 16.0625 -11.328125 19.921875 -12.34375 
Q 23.78125 -13.375 27.78125 -13.375 
Q 36.625 -13.375 41.015625 -8.765625 
Q 45.40625 -4.15625 45.40625 5.171875 
L 45.40625 9.625 
Q 42.625 4.78125 38.28125 2.390625 
Q 33.9375 0 27.875 0 
Q 17.828125 0 11.671875 7.65625 
Q 5.515625 15.328125 5.515625 27.984375 
Q 5.515625 40.671875 11.671875 48.328125 
Q 17.828125 56 27.875 56 
Q 33.9375 56 38.28125 53.609375 
Q 42.625 51.21875 45.40625 46.390625 
L 45.40625 54.6875 
L 54.390625 54.6875 
z
" id="BitstreamVeraSans-Roman-67"/>
     <path d="M 31.78125 34.625 
Q 24.75 34.625 20.71875 30.859375 
Q 16.703125 27.09375 16.703125 20.515625 
Q 16.703125 13.921875 20.71875 10.15625 
Q 24.75 6.390625 31.78125 6.390625 
Q 38.8125 6.390625 42.859375 10.171875 
Q 46.921875 13.96875 46.921875 20.515625 
Q 46.921875 27.09375 42.890625 30.859375 
Q 38.875 34.625 31.78125 34.625 
M 21.921875 38.8125 
Q 15.578125 40.375 12.03125 44.71875 
Q 8.5 49.078125 8.5 55.328125 
Q 8.5 64.0625 14.71875 69.140625 
Q 20.953125 74.21875 31.78125 74.21875 
Q 42.671875 74.21875 48.875 69.140625 
Q 55.078125 64.0625 55.078125 55.328125 
Q 55.078125 49.078125 51.53125 44.71875 
Q 48 40.375 41.703125 38.8125 
Q 48.828125 37.15625 52.796875 32.3125 
Q 56.78125 27.484375 56.78125 20.515625 
Q 56.78125 9.90625 50.3125 4.234375 
Q 43.84375 -1.421875 31.78125 -1.421875 
Q 19.734375 -1.421875 13.25 4.234375 
Q 6.78125 9.90625 6.78125 20.515625 
Q 6.78125 27.484375 10.78125 32.3125 
Q 14.796875 37.15625 21.921875 38.8125 
M 18.3125 54.390625 
Q 18.3125 48.734375 21.84375 45.5625 
Q 25.390625 42.390625 31.78125 42.390625 
Q 38.140625 42.390625 41.71875 45.5625 
Q 45.3125 48.734375 45.3125 54.390625 
Q 45.3125 60.0625 41.71875 63.234375 
Q 38.140625 66.40625 31.78125 66.40625 
Q 25.390625 66.40625 21.84375 63.234375 
Q 18.3125 60.0625 18.3125 54.390625 
" id="BitstreamVeraSans-Roman-38"/>
     <path d="M 11.71875 12.40625 
L 22.015625 12.40625 
L 22.015625 0 
L 11.71875 0 
z
M 11.71875 51.703125 
L 22.015625 51.703125 
L 22.015625 39.3125 
L 11.71875 39.3125 
z
" id="BitstreamVeraSans-Roman-3a"/>
     <path d="M 11.71875 12.40625 
L 22.015625 12.40625 
L 22.015625 4 
L 14.015625 -11.625 
L 7.71875 -11.625 
L 11.71875 4 
z
" id="BitstreamVeraSans-Roman-2c"/>
     <path d="M 19.671875 64.796875 
L 19.671875 37.40625 
L 32.078125 37.40625 
Q 38.96875 37.40625 42.71875 40.96875 
Q 46.484375 44.53125 46.484375 51.125 
Q 46.484375 57.671875 42.71875 61.234375 
Q 38.96875 64.796875 32.078125 64.796875 
z
M 9.8125 72.90625 
L 32.078125 72.90625 
Q 44.34375 72.90625 50.609375 67.359375 
Q 56.890625 61.8125 56.890625 51.125 
Q 56.890625 40.328125 50.609375 34.8125 
Q 44.34375 29.296875 32.078125 29.296875 
L 19.671875 29.296875 
L 19.671875 0 
L 9.8125 0 
z
" id="BitstreamVeraSans-Roman-50"/>
     <path d="M 48.6875 27.296875 
Q 48.6875 37.203125 44.609375 42.84375 
Q 40.53125 48.484375 33.40625 48.484375 
Q 26.265625 48.484375 22.1875 42.84375 
Q 18.109375 37.203125 18.109375 27.296875 
Q 18.109375 17.390625 22.1875 11.75 
Q 26.265625 6.109375 33.40625 6.109375 
Q 40.53125 6.109375 44.609375 11.75 
Q 48.6875 17.390625 48.6875 27.296875 
M 18.109375 46.390625 
Q 20.953125 51.265625 25.265625 53.625 
Q 29.59375 56 35.59375 56 
Q 45.5625 56 51.78125 48.09375 
Q 58.015625 40.1875 58.015625 27.296875 
Q 58.015625 14.40625 51.78125 6.484375 
Q 45.5625 -1.421875 35.59375 -1.421875 
Q 29.59375 -1.421875 25.265625 0.953125 
Q 20.953125 3.328125 18.109375 8.203125 
L 18.109375 0 
L 9.078125 0 
L 9.078125 75.984375 
L 18.109375 75.984375 
z
" id="BitstreamVeraSans-Roman-62"/>
     <path d="M 45.40625 46.390625 
L 45.40625 75.984375 
L 54.390625 75.984375 
L 54.390625 0 
L 45.40625 0 
L 45.40625 8.203125 
Q 42.578125 3.328125 38.25 0.953125 
Q 33.9375 -1.421875 27.875 -1.421875 
Q 17.96875 -1.421875 11.734375 6.484375 
Q 5.515625 14.40625 5.515625 27.296875 
Q 5.515625 40.1875 11.734375 48.09375 
Q 17.96875 56 27.875 56 
Q 33.9375 56 38.25 53.625 
Q 42.578125 51.265625 45.40625 46.390625 
M 14.796875 27.296875 
Q 14.796875 17.390625 18.875 11.75 
Q 22.953125 6.109375 30.078125 6.109375 
Q 37.203125 6.109375 41.296875 11.75 
Q 45.40625 17.390625 45.40625 27.296875 
Q 45.40625 37.203125 41.296875 42.84375 
Q 37.203125 48.484375 30.078125 48.484375 
Q 22.953125 48.484375 18.875 42.84375 
Q 14.796875 37.203125 14.796875 27.296875 
" id="BitstreamVeraSans-Roman-64"/>
     <path d="M 44.390625 34.1875 
Q 47.5625 33.109375 50.5625 29.59375 
Q 53.5625 26.078125 56.59375 19.921875 
L 66.609375 0 
L 56 0 
L 46.6875 18.703125 
Q 43.0625 26.03125 39.671875 28.421875 
Q 36.28125 30.8125 30.421875 30.8125 
L 19.671875 30.8125 
L 19.671875 0 
L 9.8125 0 
L 9.8125 72.90625 
L 32.078125 72.90625 
Q 44.578125 72.90625 50.734375 67.671875 
Q 56.890625 62.453125 56.890625 51.90625 
Q 56.890625 45.015625 53.6875 40.46875 
Q 50.484375 35.9375 44.390625 34.1875 
M 19.671875 64.796875 
L 19.671875 38.921875 
L 32.078125 38.921875 
Q 39.203125 38.921875 42.84375 42.21875 
Q 46.484375 45.515625 46.484375 51.90625 
Q 46.484375 58.296875 42.84375 61.546875 
Q 39.203125 64.796875 32.078125 64.796875 
z
" id="BitstreamVeraSans-Roman-52"/>
    </defs>
    <g transform="translate(162.861125 18.14175)scale(0.144 -0.144)">
     <use xlink:href="#BitstreamVeraSans-Roman-50"/>
     <use x="60.240234375" xlink:href="#BitstreamVeraSans-Roman-61"/>
     <use x="121.51953125" xlink:href="#BitstreamVeraSans-Roman-79"/>
     <use x="180.69921875" xlink:href="#BitstreamVeraSans-Roman-6f"/>
     <use x="241.880859375" xlink:href="#BitstreamVeraSans-Roman-66"/>
     <use x="277.0859375" xlink:href="#BitstreamVeraSans-Roman-66"/>
     <use x="312.291015625" xlink:href="#BitstreamVeraSans-Roman-73"/>
     <use x="364.390625" xlink:href="#BitstreamVeraSans-Roman-2e"/>
     <use x="396.177734375" xlink:href="#BitstreamVeraSans-Roman-20"/>
     <use x="427.96484375" xlink:href="#BitstreamVeraSans-Roman-50"/>
     <use x="488.251953125" xlink:href="#BitstreamVeraSans-Roman-72"/>
     <use x="529.333984375" xlink:href="#BitstreamVeraSans-Roman-6f"/>
     <use x="590.515625" xlink:href="#BitstreamVeraSans-Roman-62"/>
     <use x="653.9921875" xlink:href="#BitstreamVeraSans-Roman-20"/>
     <use x="685.779296875" xlink:href="#BitstreamVeraSans-Roman-65"/>
     <use x="747.302734375" xlink:href="#BitstreamVeraSans-Roman-6e"/>
     <use x="810.681640625" xlink:href="#BitstreamVeraSans-Roman-64"/>
     <use x="874.158203125" xlink:href="#BitstreamVeraSans-Roman-3a"/>
     <use x="907.849609375" xlink:href="#BitstreamVeraSans-Roman-20"/>
     <use x="939.63671875" xlink:href="#BitstreamVeraSans-Roman-30"/>
     <use x="1003.259765625" xlink:href="#BitstreamVeraSans-Roman-2e"/>
     <use x="1035.046875" xlink:href="#BitstreamVeraSans-Roman-31"/>
     <use x="1098.669921875" xlink:href="#BitstreamVeraSans-Roman-2c"/>
     <use x="1130.45703125" xlink:href="#BitstreamVeraSans-Roman-20"/>
     <use x="1162.244140625" xlink:href="#BitstreamVeraSans-Roman-52"/>
     <use x="1231.6640625" xlink:href="#BitstreamVeraSans-Roman-65"/>
     <use x="1293.1875" xlink:href="#BitstreamVeraSans-Roman-70"/>
     <use x="1356.6640625" xlink:href="#BitstreamVeraSans-Roman-65"/>
     <use x="1418.1875" xlink:href="#BitstreamVeraSans-Roman-74"/>
     <use x="1457.396484375" xlink:href="#BitstreamVeraSans-Roman-69"/>
     <use x="1485.1796875" xlink:href="#BitstreamVeraSans-Roman-74"/>
     <use x="1524.388671875" xlink:href="#BitstreamVeraSans-Roman-69"/>
     <use x="1552.171875" xlink:href="#BitstreamVeraSans-Roman-6f"/>
     <use x="1613.353515625" xlink:href="#BitstreamVeraSans-Roman-6e"/>
     <use x="1676.732421875" xlink:href="#BitstreamVeraSans-Roman-73"/>
     <use x="1728.83203125" xlink:href="#BitstreamVeraSans-Roman-3a"/>
     <use x="1762.5234375" xlink:href="#BitstreamVeraSans-Roman-20"/>
     <use x="1794.310546875" xlink:href="#BitstreamVeraSans-Roman-31"/>
     <use x="1857.93359375" xlink:href="#BitstreamVeraSans-Roman-30"/>
     <use x="1921.556640625" xlink:href="#BitstreamVeraSans-Roman-30"/>
     <use x="1985.1796875" xlink:href="#BitstreamVeraSans-Roman-2c"/>
     <use x="2016.966796875" xlink:href="#BitstreamVeraSans-Roman-20"/>
     <use x="2048.75390625" xlink:href="#BitstreamVeraSans-Roman-53"/>
     <use x="2112.23046875" xlink:href="#BitstreamVeraSans-Roman-74"/>
     <use x="2151.439453125" xlink:href="#BitstreamVeraSans-Roman-72"/>
     <use x="2192.552734375" xlink:href="#BitstreamVeraSans-Roman-61"/>
     <use x="2253.83203125" xlink:href="#BitstreamVeraSans-Roman-74"/>
     <use x="2293.041015625" xlink:href="#BitstreamVeraSans-Roman-65"/>
     <use x="2354.564453125" xlink:href="#BitstreamVeraSans-Roman-67"/>
     <use x="2418.041015625" xlink:href="#BitstreamVeraSans-Roman-69"/>
     <use x="2445.82421875" xlink:href="#BitstreamVeraSans-Roman-65"/>
     <use x="2507.34765625" xlink:href="#BitstreamVeraSans-Roman-73"/>
     <use x="2559.447265625" xlink:href="#BitstreamVeraSans-Roman-3a"/>
     <use x="2593.138671875" xlink:href="#BitstreamVeraSans-Roman-20"/>
     <use x="2624.92578125" xlink:href="#BitstreamVeraSans-Roman-38"/>
     <use x="2688.548828125" xlink:href="#BitstreamVeraSans-Roman-2e"/>
    </g>
   </g>
  </g>
 </g>
 <defs>
  <clipPath id="p543572e9c1">
   <rect height="345.6" width="669.6" x="23.9225" y="23.14175"/>
  </clipPath>
 </defs>
</svg>
