<?xml version="1.0" encoding="utf-8" standalone="no"?>
<!DOCTYPE svg PUBLIC "-//W3C//DTD SVG 1.1//EN"
  "http://www.w3.org/Graphics/SVG/1.1/DTD/svg11.dtd">
<!-- Created with matplotlib (http://matplotlib.org/) -->
<svg height="465pt" version="1.1" viewBox="0 0 699 465" width="699pt" xmlns="http://www.w3.org/2000/svg" xmlns:xlink="http://www.w3.org/1999/xlink">
 <defs>
  <style type="text/css">
*{stroke-linecap:butt;stroke-linejoin:round;stroke-miterlimit:100000;}
  </style>
 </defs>
 <g id="figure_1">
  <g id="patch_1">
   <path d="M 0 465.868 
L 699.79375 465.868 
L 699.79375 0 
L 0 0 
z
" style="fill:#ffffff;"/>
  </g>
  <g id="axes_1">
   <g id="patch_2">
    <path d="M 22.99375 368.74175 
L 692.59375 368.74175 
L 692.59375 23.14175 
L 22.99375 23.14175 
z
" style="fill:#ffffff;"/>
   </g>
   <g id="PolyCollection_1">
    <defs>
     <path d="M 115.500309 -269.92625 
L 79.287191 -269.92625 
L 79.16519 -271.380795 
L 79.061277 -272.835341 
L 78.975138 -274.289886 
L 78.906367 -275.744432 
L 78.854465 -277.198977 
L 78.818849 -278.653523 
L 78.798856 -280.108068 
L 78.79375 -281.562614 
L 78.80273 -283.017159 
L 78.824938 -284.471705 
L 78.859467 -285.92625 
L 78.905368 -287.380795 
L 78.961662 -288.835341 
L 79.027347 -290.289886 
L 79.101407 -291.744432 
L 79.182822 -293.198977 
L 79.270576 -294.653523 
L 79.363665 -296.108068 
L 79.461104 -297.562614 
L 79.561939 -299.017159 
L 79.665249 -300.471705 
L 79.770153 -301.92625 
L 79.875819 -303.380795 
L 79.981463 -304.835341 
L 80.08636 -306.289886 
L 80.189839 -307.744432 
L 80.291293 -309.198977 
L 80.390175 -310.653523 
L 80.486 -312.108068 
L 80.578345 -313.562614 
L 80.666847 -315.017159 
L 80.751202 -316.471705 
L 80.831163 -317.92625 
L 80.906532 -319.380795 
L 80.977164 -320.835341 
L 81.042954 -322.289886 
L 81.103839 -323.744432 
L 81.159789 -325.198977 
L 81.210805 -326.653523 
L 81.25691 -328.108068 
L 81.298146 -329.562614 
L 81.334567 -331.017159 
L 81.366239 -332.471705 
L 81.393226 -333.92625 
L 81.415595 -335.380795 
L 81.433408 -336.835341 
L 81.446717 -338.289886 
L 81.455566 -339.744432 
L 81.459982 -341.198977 
L 81.459982 -342.653523 
L 81.455566 -344.108068 
L 81.446717 -345.562614 
L 81.433408 -347.017159 
L 81.415595 -348.471705 
L 81.393226 -349.92625 
L 81.366239 -351.380795 
L 81.334567 -352.835341 
L 81.298146 -354.289886 
L 81.25691 -355.744432 
L 81.210805 -357.198977 
L 81.159789 -358.653523 
L 81.103839 -360.108068 
L 81.042954 -361.562614 
L 80.977164 -363.017159 
L 80.906532 -364.471705 
L 80.831163 -365.92625 
L 80.751202 -367.380795 
L 80.666847 -368.835341 
L 80.578345 -370.289886 
L 80.486 -371.744432 
L 80.390175 -373.198977 
L 80.291293 -374.653523 
L 80.189839 -376.108068 
L 80.08636 -377.562614 
L 79.981463 -379.017159 
L 79.875819 -380.471705 
L 79.770153 -381.92625 
L 79.665249 -383.380795 
L 79.561939 -384.835341 
L 79.461104 -386.289886 
L 79.363665 -387.744432 
L 79.270576 -389.198977 
L 79.182822 -390.653523 
L 79.101407 -392.108068 
L 79.027347 -393.562614 
L 78.961662 -395.017159 
L 78.905368 -396.471705 
L 78.859467 -397.92625 
L 78.824938 -399.380795 
L 78.80273 -400.835341 
L 78.79375 -402.289886 
L 78.798856 -403.744432 
L 78.818849 -405.198977 
L 78.854465 -406.653523 
L 78.906367 -408.108068 
L 78.975138 -409.562614 
L 79.061277 -411.017159 
L 79.16519 -412.471705 
L 79.287191 -413.92625 
L 115.500309 -413.92625 
L 115.500309 -413.92625 
L 115.62231 -412.471705 
L 115.726223 -411.017159 
L 115.812362 -409.562614 
L 115.881133 -408.108068 
L 115.933035 -406.653523 
L 115.968651 -405.198977 
L 115.988644 -403.744432 
L 115.99375 -402.289886 
L 115.98477 -400.835341 
L 115.962562 -399.380795 
L 115.928033 -397.92625 
L 115.882132 -396.471705 
L 115.825838 -395.017159 
L 115.760153 -393.562614 
L 115.686093 -392.108068 
L 115.604678 -390.653523 
L 115.516924 -389.198977 
L 115.423835 -387.744432 
L 115.326396 -386.289886 
L 115.225561 -384.835341 
L 115.122251 -383.380795 
L 115.017347 -381.92625 
L 114.911681 -380.471705 
L 114.806037 -379.017159 
L 114.70114 -377.562614 
L 114.597661 -376.108068 
L 114.496207 -374.653523 
L 114.397325 -373.198977 
L 114.3015 -371.744432 
L 114.209155 -370.289886 
L 114.120653 -368.835341 
L 114.036298 -367.380795 
L 113.956337 -365.92625 
L 113.880968 -364.471705 
L 113.810336 -363.017159 
L 113.744546 -361.562614 
L 113.683661 -360.108068 
L 113.627711 -358.653523 
L 113.576695 -357.198977 
L 113.53059 -355.744432 
L 113.489354 -354.289886 
L 113.452933 -352.835341 
L 113.421261 -351.380795 
L 113.394274 -349.92625 
L 113.371905 -348.471705 
L 113.354092 -347.017159 
L 113.340783 -345.562614 
L 113.331934 -344.108068 
L 113.327518 -342.653523 
L 113.327518 -341.198977 
L 113.331934 -339.744432 
L 113.340783 -338.289886 
L 113.354092 -336.835341 
L 113.371905 -335.380795 
L 113.394274 -333.92625 
L 113.421261 -332.471705 
L 113.452933 -331.017159 
L 113.489354 -329.562614 
L 113.53059 -328.108068 
L 113.576695 -326.653523 
L 113.627711 -325.198977 
L 113.683661 -323.744432 
L 113.744546 -322.289886 
L 113.810336 -320.835341 
L 113.880968 -319.380795 
L 113.956337 -317.92625 
L 114.036298 -316.471705 
L 114.120653 -315.017159 
L 114.209155 -313.562614 
L 114.3015 -312.108068 
L 114.397325 -310.653523 
L 114.496207 -309.198977 
L 114.597661 -307.744432 
L 114.70114 -306.289886 
L 114.806037 -304.835341 
L 114.911681 -303.380795 
L 115.017347 -301.92625 
L 115.122251 -300.471705 
L 115.225561 -299.017159 
L 115.326396 -297.562614 
L 115.423835 -296.108068 
L 115.516924 -294.653523 
L 115.604678 -293.198977 
L 115.686093 -291.744432 
L 115.760153 -290.289886 
L 115.825838 -288.835341 
L 115.882132 -287.380795 
L 115.928033 -285.92625 
L 115.962562 -284.471705 
L 115.98477 -283.017159 
L 115.99375 -281.562614 
L 115.988644 -280.108068 
L 115.968651 -278.653523 
L 115.933035 -277.198977 
L 115.881133 -275.744432 
L 115.812362 -274.289886 
L 115.726223 -272.835341 
L 115.62231 -271.380795 
L 115.500309 -269.92625 
z
" id="m30af2d9d8e" style="stroke:#000000;stroke-opacity:0.3;"/>
    </defs>
    <g clip-path="url(#p354cc323d2)">
     <use style="fill:#bfbf00;fill-opacity:0.3;stroke:#000000;stroke-opacity:0.3;" x="0.0" xlink:href="#m30af2d9d8e" y="465.868"/>
    </g>
   </g>
   <g id="PolyCollection_2">
    <defs>
     <path d="M 176.014414 -126.64625 
L 167.573086 -126.64625 
L 167.525903 -129.548068 
L 167.483422 -132.449886 
L 167.444586 -135.351705 
L 167.408161 -138.253523 
L 167.372752 -141.155341 
L 167.336806 -144.057159 
L 167.298632 -146.958977 
L 167.256418 -149.860795 
L 167.208248 -152.762614 
L 167.152129 -155.664432 
L 167.086014 -158.56625 
L 167.007833 -161.468068 
L 166.91552 -164.369886 
L 166.807046 -167.271705 
L 166.680452 -170.173523 
L 166.533881 -173.075341 
L 166.365613 -175.977159 
L 166.174099 -178.878977 
L 165.957993 -181.780795 
L 165.716183 -184.682614 
L 165.447819 -187.584432 
L 165.152343 -190.48625 
L 164.829512 -193.388068 
L 164.479417 -196.289886 
L 164.102498 -199.191705 
L 163.699561 -202.093523 
L 163.271779 -204.995341 
L 162.820698 -207.897159 
L 162.348227 -210.798977 
L 161.856638 -213.700795 
L 161.348539 -216.602614 
L 160.826861 -219.504432 
L 160.294827 -222.40625 
L 159.755923 -225.308068 
L 159.213855 -228.209886 
L 158.67251 -231.111705 
L 158.135912 -234.013523 
L 157.608166 -236.915341 
L 157.093413 -239.817159 
L 156.59577 -242.718977 
L 156.119277 -245.620795 
L 155.667842 -248.522614 
L 155.245187 -251.424432 
L 154.854794 -254.32625 
L 154.499859 -257.228068 
L 154.183243 -260.129886 
L 153.907431 -263.031705 
L 153.6745 -265.933523 
L 153.486083 -268.835341 
L 153.343353 -271.737159 
L 153.247001 -274.638977 
L 153.197229 -277.540795 
L 153.19375 -280.442614 
L 153.235792 -283.344432 
L 153.322111 -286.24625 
L 153.451013 -289.148068 
L 153.620381 -292.049886 
L 153.827704 -294.951705 
L 154.070123 -297.853523 
L 154.344466 -300.755341 
L 154.647301 -303.657159 
L 154.974986 -306.558977 
L 155.323719 -309.460795 
L 155.689598 -312.362614 
L 156.06867 -315.264432 
L 156.456988 -318.16625 
L 156.850668 -321.068068 
L 157.245933 -323.969886 
L 157.639171 -326.871705 
L 158.026972 -329.773523 
L 158.406177 -332.675341 
L 158.773908 -335.577159 
L 159.127605 -338.478977 
L 159.465049 -341.380795 
L 159.784385 -344.282614 
L 160.084134 -347.184432 
L 160.363206 -350.08625 
L 160.6209 -352.988068 
L 160.856899 -355.889886 
L 161.071266 -358.791705 
L 161.264426 -361.693523 
L 161.437149 -364.595341 
L 161.590521 -367.497159 
L 161.725922 -370.398977 
L 161.844987 -373.300795 
L 161.949574 -376.202614 
L 162.041727 -379.104432 
L 162.123631 -382.00625 
L 162.197575 -384.908068 
L 162.265906 -387.809886 
L 162.330992 -390.711705 
L 162.395177 -393.613523 
L 162.460743 -396.515341 
L 162.529874 -399.417159 
L 162.604618 -402.318977 
L 162.686861 -405.220795 
L 162.778296 -408.122614 
L 162.880402 -411.024432 
L 162.994423 -413.92625 
L 180.593077 -413.92625 
L 180.593077 -413.92625 
L 180.707098 -411.024432 
L 180.809204 -408.122614 
L 180.900639 -405.220795 
L 180.982882 -402.318977 
L 181.057626 -399.417159 
L 181.126757 -396.515341 
L 181.192323 -393.613523 
L 181.256508 -390.711705 
L 181.321594 -387.809886 
L 181.389925 -384.908068 
L 181.463869 -382.00625 
L 181.545773 -379.104432 
L 181.637926 -376.202614 
L 181.742513 -373.300795 
L 181.861578 -370.398977 
L 181.996979 -367.497159 
L 182.150351 -364.595341 
L 182.323074 -361.693523 
L 182.516234 -358.791705 
L 182.730601 -355.889886 
L 182.9666 -352.988068 
L 183.224294 -350.08625 
L 183.503366 -347.184432 
L 183.803115 -344.282614 
L 184.122451 -341.380795 
L 184.459895 -338.478977 
L 184.813592 -335.577159 
L 185.181323 -332.675341 
L 185.560528 -329.773523 
L 185.948329 -326.871705 
L 186.341567 -323.969886 
L 186.736832 -321.068068 
L 187.130512 -318.16625 
L 187.51883 -315.264432 
L 187.897902 -312.362614 
L 188.263781 -309.460795 
L 188.612514 -306.558977 
L 188.940199 -303.657159 
L 189.243034 -300.755341 
L 189.517377 -297.853523 
L 189.759796 -294.951705 
L 189.967119 -292.049886 
L 190.136487 -289.148068 
L 190.265389 -286.24625 
L 190.351708 -283.344432 
L 190.39375 -280.442614 
L 190.390271 -277.540795 
L 190.340499 -274.638977 
L 190.244147 -271.737159 
L 190.101417 -268.835341 
L 189.913 -265.933523 
L 189.680069 -263.031705 
L 189.404257 -260.129886 
L 189.087641 -257.228068 
L 188.732706 -254.32625 
L 188.342313 -251.424432 
L 187.919658 -248.522614 
L 187.468223 -245.620795 
L 186.99173 -242.718977 
L 186.494087 -239.817159 
L 185.979334 -236.915341 
L 185.451588 -234.013523 
L 184.91499 -231.111705 
L 184.373645 -228.209886 
L 183.831577 -225.308068 
L 183.292673 -222.40625 
L 182.760639 -219.504432 
L 182.238961 -216.602614 
L 181.730862 -213.700795 
L 181.239273 -210.798977 
L 180.766802 -207.897159 
L 180.315721 -204.995341 
L 179.887939 -202.093523 
L 179.485002 -199.191705 
L 179.108083 -196.289886 
L 178.757988 -193.388068 
L 178.435157 -190.48625 
L 178.139681 -187.584432 
L 177.871317 -184.682614 
L 177.629507 -181.780795 
L 177.413401 -178.878977 
L 177.221887 -175.977159 
L 177.053619 -173.075341 
L 176.907048 -170.173523 
L 176.780454 -167.271705 
L 176.67198 -164.369886 
L 176.579667 -161.468068 
L 176.501486 -158.56625 
L 176.435371 -155.664432 
L 176.379252 -152.762614 
L 176.331082 -149.860795 
L 176.288868 -146.958977 
L 176.250694 -144.057159 
L 176.214748 -141.155341 
L 176.179339 -138.253523 
L 176.142914 -135.351705 
L 176.104078 -132.449886 
L 176.061597 -129.548068 
L 176.014414 -126.64625 
z
" id="m0af1cbcd07" style="stroke:#000000;stroke-opacity:0.3;"/>
    </defs>
    <g clip-path="url(#p354cc323d2)">
     <use style="fill:#bfbf00;fill-opacity:0.3;stroke:#000000;stroke-opacity:0.3;" x="0.0" xlink:href="#m0af1cbcd07" y="465.868"/>
    </g>
   </g>
   <g id="PolyCollection_3">
    <defs>
     <path d="M 252.402202 -269.20625 
L 239.985298 -269.20625 
L 239.988525 -269.213523 
L 240.001075 -269.220795 
L 240.022849 -269.228068 
L 240.053701 -269.235341 
L 240.093436 -269.242614 
L 240.141814 -269.249886 
L 240.198549 -269.257159 
L 240.263312 -269.264432 
L 240.335729 -269.271705 
L 240.415389 -269.278977 
L 240.501838 -269.28625 
L 240.59459 -269.293523 
L 240.693121 -269.300795 
L 240.796877 -269.308068 
L 240.905277 -269.315341 
L 241.017709 -269.322614 
L 241.133542 -269.329886 
L 241.252122 -269.337159 
L 241.372776 -269.344432 
L 241.494818 -269.351705 
L 241.617546 -269.358977 
L 241.740252 -269.36625 
L 241.862218 -269.373523 
L 241.98272 -269.380795 
L 242.101034 -269.388068 
L 242.216433 -269.395341 
L 242.328193 -269.402614 
L 242.435594 -269.409886 
L 242.537921 -269.417159 
L 242.634464 -269.424432 
L 242.724527 -269.431705 
L 242.80742 -269.438977 
L 242.882468 -269.44625 
L 242.949008 -269.453523 
L 243.006393 -269.460795 
L 243.053992 -269.468068 
L 243.091192 -269.475341 
L 243.117399 -269.482614 
L 243.132041 -269.489886 
L 243.134566 -269.497159 
L 243.12445 -269.504432 
L 243.101189 -269.511705 
L 243.064311 -269.518977 
L 243.013371 -269.52625 
L 242.947956 -269.533523 
L 242.867688 -269.540795 
L 242.772222 -269.548068 
L 242.661254 -269.555341 
L 242.53452 -269.562614 
L 242.391799 -269.569886 
L 242.232917 -269.577159 
L 242.05775 -269.584432 
L 241.866227 -269.591705 
L 241.658329 -269.598977 
L 241.4341 -269.60625 
L 241.193642 -269.613523 
L 240.937122 -269.620795 
L 240.664776 -269.628068 
L 240.376907 -269.635341 
L 240.073891 -269.642614 
L 239.756179 -269.649886 
L 239.424296 -269.657159 
L 239.078846 -269.664432 
L 238.720511 -269.671705 
L 238.350053 -269.678977 
L 237.968311 -269.68625 
L 237.576205 -269.693523 
L 237.174731 -269.700795 
L 236.76496 -269.708068 
L 236.348041 -269.715341 
L 235.925188 -269.722614 
L 235.497687 -269.729886 
L 235.066885 -269.737159 
L 234.634184 -269.744432 
L 234.201044 -269.751705 
L 233.768966 -269.758977 
L 233.339492 -269.76625 
L 232.914195 -269.773523 
L 232.494673 -269.780795 
L 232.082536 -269.788068 
L 231.679405 -269.795341 
L 231.286892 -269.802614 
L 230.906601 -269.809886 
L 230.540111 -269.817159 
L 230.18897 -269.824432 
L 229.854682 -269.831705 
L 229.538702 -269.838977 
L 229.242421 -269.84625 
L 228.96716 -269.853523 
L 228.714158 -269.860795 
L 228.484567 -269.868068 
L 228.279442 -269.875341 
L 228.099734 -269.882614 
L 227.946281 -269.889886 
L 227.819805 -269.897159 
L 227.720907 -269.904432 
L 227.650059 -269.911705 
L 227.607603 -269.918977 
L 227.59375 -269.92625 
L 264.79375 -269.92625 
L 264.79375 -269.92625 
L 264.779897 -269.918977 
L 264.737441 -269.911705 
L 264.666593 -269.904432 
L 264.567695 -269.897159 
L 264.441219 -269.889886 
L 264.287766 -269.882614 
L 264.108058 -269.875341 
L 263.902933 -269.868068 
L 263.673342 -269.860795 
L 263.42034 -269.853523 
L 263.145079 -269.84625 
L 262.848798 -269.838977 
L 262.532818 -269.831705 
L 262.19853 -269.824432 
L 261.847389 -269.817159 
L 261.480899 -269.809886 
L 261.100608 -269.802614 
L 260.708095 -269.795341 
L 260.304964 -269.788068 
L 259.892827 -269.780795 
L 259.473305 -269.773523 
L 259.048008 -269.76625 
L 258.618534 -269.758977 
L 258.186456 -269.751705 
L 257.753316 -269.744432 
L 257.320615 -269.737159 
L 256.889813 -269.729886 
L 256.462312 -269.722614 
L 256.039459 -269.715341 
L 255.62254 -269.708068 
L 255.212769 -269.700795 
L 254.811295 -269.693523 
L 254.419189 -269.68625 
L 254.037447 -269.678977 
L 253.666989 -269.671705 
L 253.308654 -269.664432 
L 252.963204 -269.657159 
L 252.631321 -269.649886 
L 252.313609 -269.642614 
L 252.010593 -269.635341 
L 251.722724 -269.628068 
L 251.450378 -269.620795 
L 251.193858 -269.613523 
L 250.9534 -269.60625 
L 250.729171 -269.598977 
L 250.521273 -269.591705 
L 250.32975 -269.584432 
L 250.154583 -269.577159 
L 249.995701 -269.569886 
L 249.85298 -269.562614 
L 249.726246 -269.555341 
L 249.615278 -269.548068 
L 249.519812 -269.540795 
L 249.439544 -269.533523 
L 249.374129 -269.52625 
L 249.323189 -269.518977 
L 249.286311 -269.511705 
L 249.26305 -269.504432 
L 249.252934 -269.497159 
L 249.255459 -269.489886 
L 249.270101 -269.482614 
L 249.296308 -269.475341 
L 249.333508 -269.468068 
L 249.381107 -269.460795 
L 249.438492 -269.453523 
L 249.505032 -269.44625 
L 249.58008 -269.438977 
L 249.662973 -269.431705 
L 249.753036 -269.424432 
L 249.849579 -269.417159 
L 249.951906 -269.409886 
L 250.059307 -269.402614 
L 250.171067 -269.395341 
L 250.286466 -269.388068 
L 250.40478 -269.380795 
L 250.525282 -269.373523 
L 250.647248 -269.36625 
L 250.769954 -269.358977 
L 250.892682 -269.351705 
L 251.014724 -269.344432 
L 251.135378 -269.337159 
L 251.253958 -269.329886 
L 251.369791 -269.322614 
L 251.482223 -269.315341 
L 251.590623 -269.308068 
L 251.694379 -269.300795 
L 251.79291 -269.293523 
L 251.885662 -269.28625 
L 251.972111 -269.278977 
L 252.051771 -269.271705 
L 252.124188 -269.264432 
L 252.188951 -269.257159 
L 252.245686 -269.249886 
L 252.294064 -269.242614 
L 252.333799 -269.235341 
L 252.364651 -269.228068 
L 252.386425 -269.220795 
L 252.398975 -269.213523 
L 252.402202 -269.20625 
z
" id="mae869498c6" style="stroke:#000000;stroke-opacity:0.3;"/>
    </defs>
    <g clip-path="url(#p354cc323d2)">
     <use style="fill:#bfbf00;fill-opacity:0.3;stroke:#000000;stroke-opacity:0.3;" x="0.0" xlink:href="#mae869498c6" y="465.868"/>
    </g>
   </g>
   <g id="PolyCollection_4">
    <defs>
     <path d="M 323.755976 -197.92625 
L 317.431524 -197.92625 
L 317.422534 -199.380795 
L 317.424141 -200.835341 
L 317.435341 -202.289886 
L 317.454834 -203.744432 
L 317.481026 -205.198977 
L 317.512035 -206.653523 
L 317.545706 -208.108068 
L 317.579622 -209.562614 
L 317.611128 -211.017159 
L 317.637354 -212.471705 
L 317.65525 -213.92625 
L 317.661611 -215.380795 
L 317.653124 -216.835341 
L 317.626401 -218.289886 
L 317.578033 -219.744432 
L 317.504633 -221.198977 
L 317.402893 -222.653523 
L 317.269638 -224.108068 
L 317.10189 -225.562614 
L 316.896922 -227.017159 
L 316.652333 -228.471705 
L 316.366104 -229.92625 
L 316.036668 -231.380795 
L 315.662972 -232.835341 
L 315.244541 -234.289886 
L 314.781532 -235.744432 
L 314.274786 -237.198977 
L 313.72587 -238.653523 
L 313.137112 -240.108068 
L 312.511616 -241.562614 
L 311.853273 -243.017159 
L 311.166747 -244.471705 
L 310.457452 -245.92625 
L 309.731503 -247.380795 
L 308.995657 -248.835341 
L 308.257228 -250.289886 
L 307.523984 -251.744432 
L 306.80404 -253.198977 
L 306.105717 -254.653523 
L 305.437406 -256.108068 
L 304.807412 -257.562614 
L 304.223799 -259.017159 
L 303.694234 -260.471705 
L 303.225828 -261.92625 
L 302.824988 -263.380795 
L 302.497287 -264.835341 
L 302.247335 -266.289886 
L 302.078685 -267.744432 
L 301.99375 -269.198977 
L 301.99375 -270.653523 
L 302.078685 -272.108068 
L 302.247335 -273.562614 
L 302.497287 -275.017159 
L 302.824988 -276.471705 
L 303.225828 -277.92625 
L 303.694234 -279.380795 
L 304.223799 -280.835341 
L 304.807412 -282.289886 
L 305.437406 -283.744432 
L 306.105717 -285.198977 
L 306.80404 -286.653523 
L 307.523984 -288.108068 
L 308.257228 -289.562614 
L 308.995657 -291.017159 
L 309.731503 -292.471705 
L 310.457452 -293.92625 
L 311.166747 -295.380795 
L 311.853273 -296.835341 
L 312.511616 -298.289886 
L 313.137112 -299.744432 
L 313.72587 -301.198977 
L 314.274786 -302.653523 
L 314.781532 -304.108068 
L 315.244541 -305.562614 
L 315.662972 -307.017159 
L 316.036668 -308.471705 
L 316.366104 -309.92625 
L 316.652333 -311.380795 
L 316.896922 -312.835341 
L 317.10189 -314.289886 
L 317.269638 -315.744432 
L 317.402893 -317.198977 
L 317.504633 -318.653523 
L 317.578033 -320.108068 
L 317.626401 -321.562614 
L 317.653124 -323.017159 
L 317.661611 -324.471705 
L 317.65525 -325.92625 
L 317.637354 -327.380795 
L 317.611128 -328.835341 
L 317.579622 -330.289886 
L 317.545706 -331.744432 
L 317.512035 -333.198977 
L 317.481026 -334.653523 
L 317.454834 -336.108068 
L 317.435341 -337.562614 
L 317.424141 -339.017159 
L 317.422534 -340.471705 
L 317.431524 -341.92625 
L 323.755976 -341.92625 
L 323.755976 -341.92625 
L 323.764966 -340.471705 
L 323.763359 -339.017159 
L 323.752159 -337.562614 
L 323.732666 -336.108068 
L 323.706474 -334.653523 
L 323.675465 -333.198977 
L 323.641794 -331.744432 
L 323.607878 -330.289886 
L 323.576372 -328.835341 
L 323.550146 -327.380795 
L 323.53225 -325.92625 
L 323.525889 -324.471705 
L 323.534376 -323.017159 
L 323.561099 -321.562614 
L 323.609467 -320.108068 
L 323.682867 -318.653523 
L 323.784607 -317.198977 
L 323.917862 -315.744432 
L 324.08561 -314.289886 
L 324.290578 -312.835341 
L 324.535167 -311.380795 
L 324.821396 -309.92625 
L 325.150832 -308.471705 
L 325.524528 -307.017159 
L 325.942959 -305.562614 
L 326.405968 -304.108068 
L 326.912714 -302.653523 
L 327.46163 -301.198977 
L 328.050388 -299.744432 
L 328.675884 -298.289886 
L 329.334227 -296.835341 
L 330.020753 -295.380795 
L 330.730048 -293.92625 
L 331.455997 -292.471705 
L 332.191843 -291.017159 
L 332.930272 -289.562614 
L 333.663516 -288.108068 
L 334.38346 -286.653523 
L 335.081783 -285.198977 
L 335.750094 -283.744432 
L 336.380088 -282.289886 
L 336.963701 -280.835341 
L 337.493266 -279.380795 
L 337.961672 -277.92625 
L 338.362512 -276.471705 
L 338.690213 -275.017159 
L 338.940165 -273.562614 
L 339.108815 -272.108068 
L 339.19375 -270.653523 
L 339.19375 -269.198977 
L 339.108815 -267.744432 
L 338.940165 -266.289886 
L 338.690213 -264.835341 
L 338.362512 -263.380795 
L 337.961672 -261.92625 
L 337.493266 -260.471705 
L 336.963701 -259.017159 
L 336.380088 -257.562614 
L 335.750094 -256.108068 
L 335.081783 -254.653523 
L 334.38346 -253.198977 
L 333.663516 -251.744432 
L 332.930272 -250.289886 
L 332.191843 -248.835341 
L 331.455997 -247.380795 
L 330.730048 -245.92625 
L 330.020753 -244.471705 
L 329.334227 -243.017159 
L 328.675884 -241.562614 
L 328.050388 -240.108068 
L 327.46163 -238.653523 
L 326.912714 -237.198977 
L 326.405968 -235.744432 
L 325.942959 -234.289886 
L 325.524528 -232.835341 
L 325.150832 -231.380795 
L 324.821396 -229.92625 
L 324.535167 -228.471705 
L 324.290578 -227.017159 
L 324.08561 -225.562614 
L 323.917862 -224.108068 
L 323.784607 -222.653523 
L 323.682867 -221.198977 
L 323.609467 -219.744432 
L 323.561099 -218.289886 
L 323.534376 -216.835341 
L 323.525889 -215.380795 
L 323.53225 -213.92625 
L 323.550146 -212.471705 
L 323.576372 -211.017159 
L 323.607878 -209.562614 
L 323.641794 -208.108068 
L 323.675465 -206.653523 
L 323.706474 -205.198977 
L 323.732666 -203.744432 
L 323.752159 -202.289886 
L 323.763359 -200.835341 
L 323.764966 -199.380795 
L 323.755976 -197.92625 
z
" id="m0c6949cbbb" style="stroke:#000000;stroke-opacity:0.3;"/>
    </defs>
    <g clip-path="url(#p354cc323d2)">
     <use style="fill:#bfbf00;fill-opacity:0.3;stroke:#000000;stroke-opacity:0.3;" x="0.0" xlink:href="#m0c6949cbbb" y="465.868"/>
    </g>
   </g>
   <g id="PolyCollection_5">
    <defs>
     <path d="M 413.59375 -269.92625 
L 376.39375 -269.92625 
L 376.418387 -269.933523 
L 376.492107 -269.940795 
L 376.614324 -269.948068 
L 376.784073 -269.955341 
L 377.00002 -269.962614 
L 377.26048 -269.969886 
L 377.56344 -269.977159 
L 377.906582 -269.984432 
L 378.287315 -269.991705 
L 378.702807 -269.998977 
L 379.15002 -270.00625 
L 379.625748 -270.013523 
L 380.12665 -270.020795 
L 380.649295 -270.028068 
L 381.190198 -270.035341 
L 381.745858 -270.042614 
L 382.312794 -270.049886 
L 382.887582 -270.057159 
L 383.466887 -270.064432 
L 384.047494 -270.071705 
L 384.626332 -270.078977 
L 385.200505 -270.08625 
L 385.767304 -270.093523 
L 386.324231 -270.100795 
L 386.86901 -270.108068 
L 387.399593 -270.115341 
L 387.914174 -270.122614 
L 388.411183 -270.129886 
L 388.889292 -270.137159 
L 389.347405 -270.144432 
L 389.784659 -270.151705 
L 390.200406 -270.158977 
L 390.594211 -270.16625 
L 390.96583 -270.173523 
L 391.315204 -270.180795 
L 391.642435 -270.188068 
L 391.947776 -270.195341 
L 392.231611 -270.202614 
L 392.494436 -270.209886 
L 392.736847 -270.217159 
L 392.959519 -270.224432 
L 393.163189 -270.231705 
L 393.348646 -270.238977 
L 393.516711 -270.24625 
L 393.668225 -270.253523 
L 393.804038 -270.260795 
L 393.924998 -270.268068 
L 394.03194 -270.275341 
L 394.125677 -270.282614 
L 394.206997 -270.289886 
L 394.276652 -270.297159 
L 394.335357 -270.304432 
L 394.383786 -270.311705 
L 394.422568 -270.318977 
L 394.452291 -270.32625 
L 394.473496 -270.333523 
L 394.486682 -270.340795 
L 394.492306 -270.348068 
L 394.490785 -270.355341 
L 394.482503 -270.362614 
L 394.467808 -270.369886 
L 394.447021 -270.377159 
L 394.42044 -270.384432 
L 394.388343 -270.391705 
L 394.350991 -270.398977 
L 394.308637 -270.40625 
L 394.261529 -270.413523 
L 394.209912 -270.420795 
L 394.154038 -270.428068 
L 394.094161 -270.435341 
L 394.030552 -270.442614 
L 393.963493 -270.449886 
L 393.893285 -270.457159 
L 393.820246 -270.464432 
L 393.74472 -270.471705 
L 393.667068 -270.478977 
L 393.587679 -270.48625 
L 393.506961 -270.493523 
L 393.425346 -270.500795 
L 393.343287 -270.508068 
L 393.261253 -270.515341 
L 393.179732 -270.522614 
L 393.099223 -270.529886 
L 393.020234 -270.537159 
L 392.94328 -270.544432 
L 392.868872 -270.551705 
L 392.797521 -270.558977 
L 392.729726 -270.56625 
L 392.665971 -270.573523 
L 392.606721 -270.580795 
L 392.552415 -270.588068 
L 392.503461 -270.595341 
L 392.460235 -270.602614 
L 392.423068 -270.609886 
L 392.392251 -270.617159 
L 392.368028 -270.624432 
L 392.350588 -270.631705 
L 392.340073 -270.638977 
L 392.336566 -270.64625 
L 397.650934 -270.64625 
L 397.650934 -270.64625 
L 397.647427 -270.638977 
L 397.636912 -270.631705 
L 397.619472 -270.624432 
L 397.595249 -270.617159 
L 397.564432 -270.609886 
L 397.527265 -270.602614 
L 397.484039 -270.595341 
L 397.435085 -270.588068 
L 397.380779 -270.580795 
L 397.321529 -270.573523 
L 397.257774 -270.56625 
L 397.189979 -270.558977 
L 397.118628 -270.551705 
L 397.04422 -270.544432 
L 396.967266 -270.537159 
L 396.888277 -270.529886 
L 396.807768 -270.522614 
L 396.726247 -270.515341 
L 396.644213 -270.508068 
L 396.562154 -270.500795 
L 396.480539 -270.493523 
L 396.399821 -270.48625 
L 396.320432 -270.478977 
L 396.24278 -270.471705 
L 396.167254 -270.464432 
L 396.094215 -270.457159 
L 396.024007 -270.449886 
L 395.956948 -270.442614 
L 395.893339 -270.435341 
L 395.833462 -270.428068 
L 395.777588 -270.420795 
L 395.725971 -270.413523 
L 395.678863 -270.40625 
L 395.636509 -270.398977 
L 395.599157 -270.391705 
L 395.56706 -270.384432 
L 395.540479 -270.377159 
L 395.519692 -270.369886 
L 395.504997 -270.362614 
L 395.496715 -270.355341 
L 395.495194 -270.348068 
L 395.500818 -270.340795 
L 395.514004 -270.333523 
L 395.535209 -270.32625 
L 395.564932 -270.318977 
L 395.603714 -270.311705 
L 395.652143 -270.304432 
L 395.710848 -270.297159 
L 395.780503 -270.289886 
L 395.861823 -270.282614 
L 395.95556 -270.275341 
L 396.062502 -270.268068 
L 396.183462 -270.260795 
L 396.319275 -270.253523 
L 396.470789 -270.24625 
L 396.638854 -270.238977 
L 396.824311 -270.231705 
L 397.027981 -270.224432 
L 397.250653 -270.217159 
L 397.493064 -270.209886 
L 397.755889 -270.202614 
L 398.039724 -270.195341 
L 398.345065 -270.188068 
L 398.672296 -270.180795 
L 399.02167 -270.173523 
L 399.393289 -270.16625 
L 399.787094 -270.158977 
L 400.202841 -270.151705 
L 400.640095 -270.144432 
L 401.098208 -270.137159 
L 401.576317 -270.129886 
L 402.073326 -270.122614 
L 402.587907 -270.115341 
L 403.11849 -270.108068 
L 403.663269 -270.100795 
L 404.220196 -270.093523 
L 404.786995 -270.08625 
L 405.361168 -270.078977 
L 405.940006 -270.071705 
L 406.520613 -270.064432 
L 407.099918 -270.057159 
L 407.674706 -270.049886 
L 408.241642 -270.042614 
L 408.797302 -270.035341 
L 409.338205 -270.028068 
L 409.86085 -270.020795 
L 410.361752 -270.013523 
L 410.83748 -270.00625 
L 411.284693 -269.998977 
L 411.700185 -269.991705 
L 412.080918 -269.984432 
L 412.42406 -269.977159 
L 412.72702 -269.969886 
L 412.98748 -269.962614 
L 413.203427 -269.955341 
L 413.373176 -269.948068 
L 413.495393 -269.940795 
L 413.569113 -269.933523 
L 413.59375 -269.92625 
z
" id="m15a72a8890" style="stroke:#000000;stroke-opacity:0.3;"/>
    </defs>
    <g clip-path="url(#p354cc323d2)">
     <use style="fill:#bfbf00;fill-opacity:0.3;stroke:#000000;stroke-opacity:0.3;" x="0.0" xlink:href="#m15a72a8890" y="465.868"/>
    </g>
   </g>
   <g id="PolyCollection_6">
    <defs>
     <path d="M 477.571941 -125.92625 
L 461.215559 -125.92625 
L 461.166284 -128.828068 
L 461.132196 -131.729886 
L 461.112106 -134.631705 
L 461.104572 -137.533523 
L 461.107907 -140.435341 
L 461.120201 -143.337159 
L 461.139334 -146.238977 
L 461.163008 -149.140795 
L 461.188772 -152.042614 
L 461.214051 -154.944432 
L 461.236184 -157.84625 
L 461.25246 -160.748068 
L 461.260155 -163.649886 
L 461.256573 -166.551705 
L 461.239087 -169.453523 
L 461.205176 -172.355341 
L 461.152474 -175.257159 
L 461.078797 -178.158977 
L 460.982194 -181.060795 
L 460.86097 -183.962614 
L 460.713726 -186.864432 
L 460.539386 -189.76625 
L 460.337222 -192.668068 
L 460.106872 -195.569886 
L 459.84836 -198.471705 
L 459.562104 -201.373523 
L 459.248921 -204.275341 
L 458.910029 -207.177159 
L 458.547037 -210.078977 
L 458.161936 -212.980795 
L 457.75708 -215.882614 
L 457.335165 -218.784432 
L 456.899195 -221.68625 
L 456.452455 -224.588068 
L 455.99847 -227.489886 
L 455.540961 -230.391705 
L 455.083803 -233.293523 
L 454.630976 -236.195341 
L 454.186513 -239.097159 
L 453.75445 -241.998977 
L 453.338772 -244.900795 
L 452.943366 -247.802614 
L 452.571963 -250.704432 
L 452.228098 -253.60625 
L 451.915055 -256.508068 
L 451.635834 -259.409886 
L 451.393105 -262.311705 
L 451.189181 -265.213523 
L 451.025984 -268.115341 
L 450.905028 -271.017159 
L 450.8274 -273.918977 
L 450.79375 -276.820795 
L 450.804289 -279.722614 
L 450.85879 -282.624432 
L 450.9566 -285.52625 
L 451.09665 -288.428068 
L 451.277482 -291.329886 
L 451.497269 -294.231705 
L 451.753849 -297.133523 
L 452.044759 -300.035341 
L 452.367272 -302.937159 
L 452.71844 -305.838977 
L 453.095135 -308.740795 
L 453.494091 -311.642614 
L 453.911955 -314.544432 
L 454.345325 -317.44625 
L 454.790797 -320.348068 
L 455.245006 -323.249886 
L 455.704668 -326.151705 
L 456.166613 -329.053523 
L 456.627825 -331.955341 
L 457.08547 -334.857159 
L 457.536919 -337.758977 
L 457.97978 -340.660795 
L 458.411909 -343.562614 
L 458.831425 -346.464432 
L 459.236725 -349.36625 
L 459.626484 -352.268068 
L 459.999658 -355.169886 
L 460.355482 -358.071705 
L 460.693463 -360.973523 
L 461.013368 -363.875341 
L 461.315212 -366.777159 
L 461.599242 -369.678977 
L 461.865917 -372.580795 
L 462.115886 -375.482614 
L 462.349967 -378.384432 
L 462.569121 -381.28625 
L 462.774428 -384.188068 
L 462.967062 -387.089886 
L 463.148262 -389.991705 
L 463.319315 -392.893523 
L 463.481521 -395.795341 
L 463.63618 -398.697159 
L 463.784561 -401.598977 
L 463.927892 -404.500795 
L 464.067334 -407.402614 
L 464.203968 -410.304432 
L 464.338782 -413.20625 
L 474.448718 -413.20625 
L 474.448718 -413.20625 
L 474.583532 -410.304432 
L 474.720166 -407.402614 
L 474.859608 -404.500795 
L 475.002939 -401.598977 
L 475.15132 -398.697159 
L 475.305979 -395.795341 
L 475.468185 -392.893523 
L 475.639238 -389.991705 
L 475.820438 -387.089886 
L 476.013072 -384.188068 
L 476.218379 -381.28625 
L 476.437533 -378.384432 
L 476.671614 -375.482614 
L 476.921583 -372.580795 
L 477.188258 -369.678977 
L 477.472288 -366.777159 
L 477.774132 -363.875341 
L 478.094037 -360.973523 
L 478.432018 -358.071705 
L 478.787842 -355.169886 
L 479.161016 -352.268068 
L 479.550775 -349.36625 
L 479.956075 -346.464432 
L 480.375591 -343.562614 
L 480.80772 -340.660795 
L 481.250581 -337.758977 
L 481.70203 -334.857159 
L 482.159675 -331.955341 
L 482.620887 -329.053523 
L 483.082832 -326.151705 
L 483.542494 -323.249886 
L 483.996703 -320.348068 
L 484.442175 -317.44625 
L 484.875545 -314.544432 
L 485.293409 -311.642614 
L 485.692365 -308.740795 
L 486.06906 -305.838977 
L 486.420228 -302.937159 
L 486.742741 -300.035341 
L 487.033651 -297.133523 
L 487.290231 -294.231705 
L 487.510018 -291.329886 
L 487.69085 -288.428068 
L 487.8309 -285.52625 
L 487.92871 -282.624432 
L 487.983211 -279.722614 
L 487.99375 -276.820795 
L 487.9601 -273.918977 
L 487.882472 -271.017159 
L 487.761516 -268.115341 
L 487.598319 -265.213523 
L 487.394395 -262.311705 
L 487.151666 -259.409886 
L 486.872445 -256.508068 
L 486.559402 -253.60625 
L 486.215537 -250.704432 
L 485.844134 -247.802614 
L 485.448728 -244.900795 
L 485.03305 -241.998977 
L 484.600987 -239.097159 
L 484.156524 -236.195341 
L 483.703697 -233.293523 
L 483.246539 -230.391705 
L 482.78903 -227.489886 
L 482.335045 -224.588068 
L 481.888305 -221.68625 
L 481.452335 -218.784432 
L 481.03042 -215.882614 
L 480.625564 -212.980795 
L 480.240463 -210.078977 
L 479.877471 -207.177159 
L 479.538579 -204.275341 
L 479.225396 -201.373523 
L 478.93914 -198.471705 
L 478.680628 -195.569886 
L 478.450278 -192.668068 
L 478.248114 -189.76625 
L 478.073774 -186.864432 
L 477.92653 -183.962614 
L 477.805306 -181.060795 
L 477.708703 -178.158977 
L 477.635026 -175.257159 
L 477.582324 -172.355341 
L 477.548413 -169.453523 
L 477.530927 -166.551705 
L 477.527345 -163.649886 
L 477.53504 -160.748068 
L 477.551316 -157.84625 
L 477.573449 -154.944432 
L 477.598728 -152.042614 
L 477.624492 -149.140795 
L 477.648166 -146.238977 
L 477.667299 -143.337159 
L 477.679593 -140.435341 
L 477.682928 -137.533523 
L 477.675394 -134.631705 
L 477.655304 -131.729886 
L 477.621216 -128.828068 
L 477.571941 -125.92625 
z
" id="m3afc31462a" style="stroke:#000000;stroke-opacity:0.3;"/>
    </defs>
    <g clip-path="url(#p354cc323d2)">
     <use style="fill:#bfbf00;fill-opacity:0.3;stroke:#000000;stroke-opacity:0.3;" x="0.0" xlink:href="#m3afc31462a" y="465.868"/>
    </g>
   </g>
   <g id="PolyCollection_7">
    <defs>
     <path d="M 550.15933 -197.92625 
L 537.42817 -197.92625 
L 537.262252 -198.653523 
L 537.098347 -199.380795 
L 536.936763 -200.108068 
L 536.777818 -200.835341 
L 536.621838 -201.562614 
L 536.469157 -202.289886 
L 536.320117 -203.017159 
L 536.175072 -203.744432 
L 536.03438 -204.471705 
L 535.898406 -205.198977 
L 535.767524 -205.92625 
L 535.642108 -206.653523 
L 535.522535 -207.380795 
L 535.40918 -208.108068 
L 535.302417 -208.835341 
L 535.202611 -209.562614 
L 535.110117 -210.289886 
L 535.025277 -211.017159 
L 534.948413 -211.744432 
L 534.879823 -212.471705 
L 534.819781 -213.198977 
L 534.768524 -213.92625 
L 534.726255 -214.653523 
L 534.693132 -215.380795 
L 534.669267 -216.108068 
L 534.654718 -216.835341 
L 534.649488 -217.562614 
L 534.653515 -218.289886 
L 534.666673 -219.017159 
L 534.688768 -219.744432 
L 534.71953 -220.471705 
L 534.758616 -221.198977 
L 534.805603 -221.92625 
L 534.859991 -222.653523 
L 534.921198 -223.380795 
L 534.988565 -224.108068 
L 535.061352 -224.835341 
L 535.138742 -225.562614 
L 535.219845 -226.289886 
L 535.303697 -227.017159 
L 535.389269 -227.744432 
L 535.475472 -228.471705 
L 535.561158 -229.198977 
L 535.645132 -229.92625 
L 535.726159 -230.653523 
L 535.802969 -231.380795 
L 535.874269 -232.108068 
L 535.938754 -232.835341 
L 535.995114 -233.562614 
L 536.042044 -234.289886 
L 536.07826 -235.017159 
L 536.102506 -235.744432 
L 536.113569 -236.471705 
L 536.110286 -237.198977 
L 536.09156 -237.92625 
L 536.056371 -238.653523 
L 536.003785 -239.380795 
L 535.932968 -240.108068 
L 535.843193 -240.835341 
L 535.733854 -241.562614 
L 535.604474 -242.289886 
L 535.454712 -243.017159 
L 535.284373 -243.744432 
L 535.093413 -244.471705 
L 534.881945 -245.198977 
L 534.650244 -245.92625 
L 534.398753 -246.653523 
L 534.128077 -247.380795 
L 533.838993 -248.108068 
L 533.532442 -248.835341 
L 533.20953 -249.562614 
L 532.871524 -250.289886 
L 532.519845 -251.017159 
L 532.156061 -251.744432 
L 531.781882 -252.471705 
L 531.399146 -253.198977 
L 531.009807 -253.92625 
L 530.615929 -254.653523 
L 530.219662 -255.380795 
L 529.823237 -256.108068 
L 529.428943 -256.835341 
L 529.039112 -257.562614 
L 528.656102 -258.289886 
L 528.282277 -259.017159 
L 527.919992 -259.744432 
L 527.571568 -260.471705 
L 527.23928 -261.198977 
L 526.925331 -261.92625 
L 526.631841 -262.653523 
L 526.360824 -263.380795 
L 526.114171 -264.108068 
L 525.89364 -264.835341 
L 525.700833 -265.562614 
L 525.537188 -266.289886 
L 525.403966 -267.017159 
L 525.302237 -267.744432 
L 525.232878 -268.471705 
L 525.196561 -269.198977 
L 525.19375 -269.92625 
L 562.39375 -269.92625 
L 562.39375 -269.92625 
L 562.390939 -269.198977 
L 562.354622 -268.471705 
L 562.285263 -267.744432 
L 562.183534 -267.017159 
L 562.050312 -266.289886 
L 561.886667 -265.562614 
L 561.69386 -264.835341 
L 561.473329 -264.108068 
L 561.226676 -263.380795 
L 560.955659 -262.653523 
L 560.662169 -261.92625 
L 560.34822 -261.198977 
L 560.015932 -260.471705 
L 559.667508 -259.744432 
L 559.305223 -259.017159 
L 558.931398 -258.289886 
L 558.548388 -257.562614 
L 558.158557 -256.835341 
L 557.764263 -256.108068 
L 557.367838 -255.380795 
L 556.971571 -254.653523 
L 556.577693 -253.92625 
L 556.188354 -253.198977 
L 555.805618 -252.471705 
L 555.431439 -251.744432 
L 555.067655 -251.017159 
L 554.715976 -250.289886 
L 554.37797 -249.562614 
L 554.055058 -248.835341 
L 553.748507 -248.108068 
L 553.459423 -247.380795 
L 553.188747 -246.653523 
L 552.937256 -245.92625 
L 552.705555 -245.198977 
L 552.494087 -244.471705 
L 552.303127 -243.744432 
L 552.132788 -243.017159 
L 551.983026 -242.289886 
L 551.853646 -241.562614 
L 551.744307 -240.835341 
L 551.654532 -240.108068 
L 551.583715 -239.380795 
L 551.531129 -238.653523 
L 551.49594 -237.92625 
L 551.477214 -237.198977 
L 551.473931 -236.471705 
L 551.484994 -235.744432 
L 551.50924 -235.017159 
L 551.545456 -234.289886 
L 551.592386 -233.562614 
L 551.648746 -232.835341 
L 551.713231 -232.108068 
L 551.784531 -231.380795 
L 551.861341 -230.653523 
L 551.942368 -229.92625 
L 552.026342 -229.198977 
L 552.112028 -228.471705 
L 552.198231 -227.744432 
L 552.283803 -227.017159 
L 552.367655 -226.289886 
L 552.448758 -225.562614 
L 552.526148 -224.835341 
L 552.598935 -224.108068 
L 552.666302 -223.380795 
L 552.727509 -222.653523 
L 552.781897 -221.92625 
L 552.828884 -221.198977 
L 552.86797 -220.471705 
L 552.898732 -219.744432 
L 552.920827 -219.017159 
L 552.933985 -218.289886 
L 552.938012 -217.562614 
L 552.932782 -216.835341 
L 552.918233 -216.108068 
L 552.894368 -215.380795 
L 552.861245 -214.653523 
L 552.818976 -213.92625 
L 552.767719 -213.198977 
L 552.707677 -212.471705 
L 552.639087 -211.744432 
L 552.562223 -211.017159 
L 552.477383 -210.289886 
L 552.384889 -209.562614 
L 552.285083 -208.835341 
L 552.17832 -208.108068 
L 552.064965 -207.380795 
L 551.945392 -206.653523 
L 551.819976 -205.92625 
L 551.689094 -205.198977 
L 551.55312 -204.471705 
L 551.412428 -203.744432 
L 551.267383 -203.017159 
L 551.118343 -202.289886 
L 550.965662 -201.562614 
L 550.809682 -200.835341 
L 550.650737 -200.108068 
L 550.489153 -199.380795 
L 550.325248 -198.653523 
L 550.15933 -197.92625 
z
" id="m689277a09e" style="stroke:#000000;stroke-opacity:0.3;"/>
    </defs>
    <g clip-path="url(#p354cc323d2)">
     <use style="fill:#bfbf00;fill-opacity:0.3;stroke:#000000;stroke-opacity:0.3;" x="0.0" xlink:href="#m689277a09e" y="465.868"/>
    </g>
   </g>
   <g id="PolyCollection_8">
    <defs>
     <path d="M 632.294951 -125.92625 
L 604.092549 -125.92625 
L 604.037712 -127.380795 
L 603.997724 -128.835341 
L 603.972427 -130.289886 
L 603.961597 -131.744432 
L 603.964944 -133.198977 
L 603.982115 -134.653523 
L 604.012694 -136.108068 
L 604.056211 -137.562614 
L 604.112136 -139.017159 
L 604.179891 -140.471705 
L 604.258846 -141.92625 
L 604.348331 -143.380795 
L 604.447631 -144.835341 
L 604.555999 -146.289886 
L 604.672654 -147.744432 
L 604.79679 -149.198977 
L 604.927575 -150.653523 
L 605.064162 -152.108068 
L 605.20569 -153.562614 
L 605.351288 -155.017159 
L 605.500081 -156.471705 
L 605.651192 -157.92625 
L 605.803748 -159.380795 
L 605.956884 -160.835341 
L 606.109745 -162.289886 
L 606.261489 -163.744432 
L 606.411293 -165.198977 
L 606.558351 -166.653523 
L 606.701883 -168.108068 
L 606.841132 -169.562614 
L 606.975366 -171.017159 
L 607.103884 -172.471705 
L 607.226015 -173.92625 
L 607.341118 -175.380795 
L 607.448584 -176.835341 
L 607.54784 -178.289886 
L 607.638345 -179.744432 
L 607.719592 -181.198977 
L 607.791111 -182.653523 
L 607.852467 -184.108068 
L 607.90326 -185.562614 
L 607.943127 -187.017159 
L 607.971739 -188.471705 
L 607.988807 -189.92625 
L 607.994077 -191.380795 
L 607.987331 -192.835341 
L 607.96839 -194.289886 
L 607.937112 -195.744432 
L 607.893395 -197.198977 
L 607.837173 -198.653523 
L 607.768422 -200.108068 
L 607.687157 -201.562614 
L 607.593436 -203.017159 
L 607.487356 -204.471705 
L 607.369059 -205.92625 
L 607.238732 -207.380795 
L 607.096604 -208.835341 
L 606.942951 -210.289886 
L 606.778098 -211.744432 
L 606.602414 -213.198977 
L 606.416318 -214.653523 
L 606.220278 -216.108068 
L 606.014811 -217.562614 
L 605.800484 -219.017159 
L 605.577913 -220.471705 
L 605.347763 -221.92625 
L 605.110748 -223.380795 
L 604.86763 -224.835341 
L 604.619217 -226.289886 
L 604.366364 -227.744432 
L 604.109965 -229.198977 
L 603.850957 -230.653523 
L 603.590316 -232.108068 
L 603.329051 -233.562614 
L 603.068201 -235.017159 
L 602.808833 -236.471705 
L 602.552039 -237.92625 
L 602.298925 -239.380795 
L 602.050612 -240.835341 
L 601.808229 -242.289886 
L 601.572906 -243.744432 
L 601.345769 -245.198977 
L 601.127934 -246.653523 
L 600.920501 -248.108068 
L 600.724547 -249.562614 
L 600.541121 -251.017159 
L 600.371237 -252.471705 
L 600.215866 -253.92625 
L 600.075933 -255.380795 
L 599.952309 -256.835341 
L 599.845806 -258.289886 
L 599.757172 -259.744432 
L 599.687084 -261.198977 
L 599.636148 -262.653523 
L 599.604888 -264.108068 
L 599.59375 -265.562614 
L 599.603092 -267.017159 
L 599.633185 -268.471705 
L 599.684212 -269.92625 
L 636.703288 -269.92625 
L 636.703288 -269.92625 
L 636.754315 -268.471705 
L 636.784408 -267.017159 
L 636.79375 -265.562614 
L 636.782612 -264.108068 
L 636.751352 -262.653523 
L 636.700416 -261.198977 
L 636.630328 -259.744432 
L 636.541694 -258.289886 
L 636.435191 -256.835341 
L 636.311567 -255.380795 
L 636.171634 -253.92625 
L 636.016263 -252.471705 
L 635.846379 -251.017159 
L 635.662953 -249.562614 
L 635.466999 -248.108068 
L 635.259566 -246.653523 
L 635.041731 -245.198977 
L 634.814594 -243.744432 
L 634.579271 -242.289886 
L 634.336888 -240.835341 
L 634.088575 -239.380795 
L 633.835461 -237.92625 
L 633.578667 -236.471705 
L 633.319299 -235.017159 
L 633.058449 -233.562614 
L 632.797184 -232.108068 
L 632.536543 -230.653523 
L 632.277535 -229.198977 
L 632.021136 -227.744432 
L 631.768283 -226.289886 
L 631.51987 -224.835341 
L 631.276752 -223.380795 
L 631.039737 -221.92625 
L 630.809587 -220.471705 
L 630.587016 -219.017159 
L 630.372689 -217.562614 
L 630.167222 -216.108068 
L 629.971182 -214.653523 
L 629.785086 -213.198977 
L 629.609402 -211.744432 
L 629.444549 -210.289886 
L 629.290896 -208.835341 
L 629.148768 -207.380795 
L 629.018441 -205.92625 
L 628.900144 -204.471705 
L 628.794064 -203.017159 
L 628.700343 -201.562614 
L 628.619078 -200.108068 
L 628.550327 -198.653523 
L 628.494105 -197.198977 
L 628.450388 -195.744432 
L 628.41911 -194.289886 
L 628.400169 -192.835341 
L 628.393423 -191.380795 
L 628.398693 -189.92625 
L 628.415761 -188.471705 
L 628.444373 -187.017159 
L 628.48424 -185.562614 
L 628.535033 -184.108068 
L 628.596389 -182.653523 
L 628.667908 -181.198977 
L 628.749155 -179.744432 
L 628.83966 -178.289886 
L 628.938916 -176.835341 
L 629.046382 -175.380795 
L 629.161485 -173.92625 
L 629.283616 -172.471705 
L 629.412134 -171.017159 
L 629.546368 -169.562614 
L 629.685617 -168.108068 
L 629.829149 -166.653523 
L 629.976207 -165.198977 
L 630.126011 -163.744432 
L 630.277755 -162.289886 
L 630.430616 -160.835341 
L 630.583752 -159.380795 
L 630.736308 -157.92625 
L 630.887419 -156.471705 
L 631.036212 -155.017159 
L 631.18181 -153.562614 
L 631.323338 -152.108068 
L 631.459925 -150.653523 
L 631.59071 -149.198977 
L 631.714846 -147.744432 
L 631.831501 -146.289886 
L 631.939869 -144.835341 
L 632.039169 -143.380795 
L 632.128654 -141.92625 
L 632.207609 -140.471705 
L 632.275364 -139.017159 
L 632.331289 -137.562614 
L 632.374806 -136.108068 
L 632.405385 -134.653523 
L 632.422556 -133.198977 
L 632.425903 -131.744432 
L 632.415073 -130.289886 
L 632.389776 -128.835341 
L 632.349788 -127.380795 
L 632.294951 -125.92625 
z
" id="m2046eedf87" style="stroke:#000000;stroke-opacity:0.3;"/>
    </defs>
    <g clip-path="url(#p354cc323d2)">
     <use style="fill:#bfbf00;fill-opacity:0.3;stroke:#000000;stroke-opacity:0.3;" x="0.0" xlink:href="#m2046eedf87" y="465.868"/>
    </g>
   </g>
   <g id="LineCollection_1">
    <path clip-path="url(#p354cc323d2)" d="M 88.09375 123.94175 
L 106.69375 123.94175 
" style="fill:none;stroke:#ff0000;"/>
    <path clip-path="url(#p354cc323d2)" d="M 162.49375 195.58175 
L 181.09375 195.58175 
" style="fill:none;stroke:#ff0000;"/>
    <path clip-path="url(#p354cc323d2)" d="M 236.89375 195.94175 
L 255.49375 195.94175 
" style="fill:none;stroke:#ff0000;"/>
    <path clip-path="url(#p354cc323d2)" d="M 311.29375 195.94175 
L 329.89375 195.94175 
" style="fill:none;stroke:#ff0000;"/>
    <path clip-path="url(#p354cc323d2)" d="M 385.69375 195.94175 
L 404.29375 195.94175 
" style="fill:none;stroke:#ff0000;"/>
    <path clip-path="url(#p354cc323d2)" d="M 460.09375 195.94175 
L 478.69375 195.94175 
" style="fill:none;stroke:#ff0000;"/>
    <path clip-path="url(#p354cc323d2)" d="M 534.49375 195.94175 
L 553.09375 195.94175 
" style="fill:none;stroke:#ff0000;"/>
    <path clip-path="url(#p354cc323d2)" d="M 608.89375 232.30175 
L 627.49375 232.30175 
" style="fill:none;stroke:#ff0000;"/>
   </g>
   <g id="patch_3">
    <path d="M 22.99375 23.14175 
L 692.59375 23.14175 
" style="fill:none;stroke:#000000;stroke-linecap:square;stroke-linejoin:miter;"/>
   </g>
   <g id="patch_4">
    <path d="M 22.99375 368.74175 
L 692.59375 368.74175 
" style="fill:none;stroke:#000000;stroke-linecap:square;stroke-linejoin:miter;"/>
   </g>
   <g id="patch_5">
    <path d="M 692.59375 368.74175 
L 692.59375 23.14175 
" style="fill:none;stroke:#000000;stroke-linecap:square;stroke-linejoin:miter;"/>
   </g>
   <g id="patch_6">
    <path d="M 22.99375 368.74175 
L 22.99375 23.14175 
" style="fill:none;stroke:#000000;stroke-linecap:square;stroke-linejoin:miter;"/>
   </g>
   <g id="matplotlib.axis_1">
    <g id="xtick_1">
     <g id="line2d_1">
      <defs>
       <path d="M 0 0 
L 0 -4 
" id="m1927424894" style="stroke:#000000;stroke-width:0.5;"/>
      </defs>
      <g>
       <use style="stroke:#000000;stroke-width:0.5;" x="97.39375" xlink:href="#m1927424894" y="368.74175"/>
      </g>
     </g>
     <g id="line2d_2">
      <defs>
       <path d="M 0 0 
L 0 4 
" id="m527a820a53" style="stroke:#000000;stroke-width:0.5;"/>
      </defs>
      <g>
       <use style="stroke:#000000;stroke-width:0.5;" x="97.39375" xlink:href="#m527a820a53" y="23.14175"/>
      </g>
     </g>
     <g id="text_1">
      <!-- Defector -->
      <defs>
       <path d="M 48.78125 52.59375 
L 48.78125 44.1875 
Q 44.96875 46.296875 41.140625 47.34375 
Q 37.3125 48.390625 33.40625 48.390625 
Q 24.65625 48.390625 19.8125 42.84375 
Q 14.984375 37.3125 14.984375 27.296875 
Q 14.984375 17.28125 19.8125 11.734375 
Q 24.65625 6.203125 33.40625 6.203125 
Q 37.3125 6.203125 41.140625 7.25 
Q 44.96875 8.296875 48.78125 10.40625 
L 48.78125 2.09375 
Q 45.015625 0.34375 40.984375 -0.53125 
Q 36.96875 -1.421875 32.421875 -1.421875 
Q 20.0625 -1.421875 12.78125 6.34375 
Q 5.515625 14.109375 5.515625 27.296875 
Q 5.515625 40.671875 12.859375 48.328125 
Q 20.21875 56 33.015625 56 
Q 37.15625 56 41.109375 55.140625 
Q 45.0625 54.296875 48.78125 52.59375 
" id="BitstreamVeraSans-Roman-63"/>
       <path d="M 37.109375 75.984375 
L 37.109375 68.5 
L 28.515625 68.5 
Q 23.6875 68.5 21.796875 66.546875 
Q 19.921875 64.59375 19.921875 59.515625 
L 19.921875 54.6875 
L 34.71875 54.6875 
L 34.71875 47.703125 
L 19.921875 47.703125 
L 19.921875 0 
L 10.890625 0 
L 10.890625 47.703125 
L 2.296875 47.703125 
L 2.296875 54.6875 
L 10.890625 54.6875 
L 10.890625 58.5 
Q 10.890625 67.625 15.140625 71.796875 
Q 19.390625 75.984375 28.609375 75.984375 
z
" id="BitstreamVeraSans-Roman-66"/>
       <path d="M 18.3125 70.21875 
L 18.3125 54.6875 
L 36.8125 54.6875 
L 36.8125 47.703125 
L 18.3125 47.703125 
L 18.3125 18.015625 
Q 18.3125 11.328125 20.140625 9.421875 
Q 21.96875 7.515625 27.59375 7.515625 
L 36.8125 7.515625 
L 36.8125 0 
L 27.59375 0 
Q 17.1875 0 13.234375 3.875 
Q 9.28125 7.765625 9.28125 18.015625 
L 9.28125 47.703125 
L 2.6875 47.703125 
L 2.6875 54.6875 
L 9.28125 54.6875 
L 9.28125 70.21875 
z
" id="BitstreamVeraSans-Roman-74"/>
       <path d="M 56.203125 29.59375 
L 56.203125 25.203125 
L 14.890625 25.203125 
Q 15.484375 15.921875 20.484375 11.0625 
Q 25.484375 6.203125 34.421875 6.203125 
Q 39.59375 6.203125 44.453125 7.46875 
Q 49.3125 8.734375 54.109375 11.28125 
L 54.109375 2.78125 
Q 49.265625 0.734375 44.1875 -0.34375 
Q 39.109375 -1.421875 33.890625 -1.421875 
Q 20.796875 -1.421875 13.15625 6.1875 
Q 5.515625 13.8125 5.515625 26.8125 
Q 5.515625 40.234375 12.765625 48.109375 
Q 20.015625 56 32.328125 56 
Q 43.359375 56 49.78125 48.890625 
Q 56.203125 41.796875 56.203125 29.59375 
M 47.21875 32.234375 
Q 47.125 39.59375 43.09375 43.984375 
Q 39.0625 48.390625 32.421875 48.390625 
Q 24.90625 48.390625 20.390625 44.140625 
Q 15.875 39.890625 15.1875 32.171875 
z
" id="BitstreamVeraSans-Roman-65"/>
       <path d="M 41.109375 46.296875 
Q 39.59375 47.171875 37.8125 47.578125 
Q 36.03125 48 33.890625 48 
Q 26.265625 48 22.1875 43.046875 
Q 18.109375 38.09375 18.109375 28.8125 
L 18.109375 0 
L 9.078125 0 
L 9.078125 54.6875 
L 18.109375 54.6875 
L 18.109375 46.1875 
Q 20.953125 51.171875 25.484375 53.578125 
Q 30.03125 56 36.53125 56 
Q 37.453125 56 38.578125 55.875 
Q 39.703125 55.765625 41.0625 55.515625 
z
" id="BitstreamVeraSans-Roman-72"/>
       <path d="M 19.671875 64.796875 
L 19.671875 8.109375 
L 31.59375 8.109375 
Q 46.6875 8.109375 53.6875 14.9375 
Q 60.6875 21.78125 60.6875 36.53125 
Q 60.6875 51.171875 53.6875 57.984375 
Q 46.6875 64.796875 31.59375 64.796875 
z
M 9.8125 72.90625 
L 30.078125 72.90625 
Q 51.265625 72.90625 61.171875 64.09375 
Q 71.09375 55.28125 71.09375 36.53125 
Q 71.09375 17.671875 61.125 8.828125 
Q 51.171875 0 30.078125 0 
L 9.8125 0 
z
" id="BitstreamVeraSans-Roman-44"/>
       <path d="M 30.609375 48.390625 
Q 23.390625 48.390625 19.1875 42.75 
Q 14.984375 37.109375 14.984375 27.296875 
Q 14.984375 17.484375 19.15625 11.84375 
Q 23.34375 6.203125 30.609375 6.203125 
Q 37.796875 6.203125 41.984375 11.859375 
Q 46.1875 17.53125 46.1875 27.296875 
Q 46.1875 37.015625 41.984375 42.703125 
Q 37.796875 48.390625 30.609375 48.390625 
M 30.609375 56 
Q 42.328125 56 49.015625 48.375 
Q 55.71875 40.765625 55.71875 27.296875 
Q 55.71875 13.875 49.015625 6.21875 
Q 42.328125 -1.421875 30.609375 -1.421875 
Q 18.84375 -1.421875 12.171875 6.21875 
Q 5.515625 13.875 5.515625 27.296875 
Q 5.515625 40.765625 12.171875 48.375 
Q 18.84375 56 30.609375 56 
" id="BitstreamVeraSans-Roman-6f"/>
      </defs>
      <g transform="translate(99.60125 407.28175)rotate(-90.0)scale(0.08 -0.08)">
       <use xlink:href="#BitstreamVeraSans-Roman-44"/>
       <use x="77.001953125" xlink:href="#BitstreamVeraSans-Roman-65"/>
       <use x="138.525390625" xlink:href="#BitstreamVeraSans-Roman-66"/>
       <use x="173.73046875" xlink:href="#BitstreamVeraSans-Roman-65"/>
       <use x="235.25390625" xlink:href="#BitstreamVeraSans-Roman-63"/>
       <use x="290.234375" xlink:href="#BitstreamVeraSans-Roman-74"/>
       <use x="329.443359375" xlink:href="#BitstreamVeraSans-Roman-6f"/>
       <use x="390.625" xlink:href="#BitstreamVeraSans-Roman-72"/>
      </g>
     </g>
    </g>
    <g id="xtick_2">
     <g id="line2d_3">
      <g>
       <use style="stroke:#000000;stroke-width:0.5;" x="171.79375" xlink:href="#m1927424894" y="368.74175"/>
      </g>
     </g>
     <g id="line2d_4">
      <g>
       <use style="stroke:#000000;stroke-width:0.5;" x="171.79375" xlink:href="#m527a820a53" y="23.14175"/>
      </g>
     </g>
     <g id="text_2">
      <!-- Bully -->
      <defs>
       <path d="M 9.421875 75.984375 
L 18.40625 75.984375 
L 18.40625 0 
L 9.421875 0 
z
" id="BitstreamVeraSans-Roman-6c"/>
       <path d="M 19.671875 34.8125 
L 19.671875 8.109375 
L 35.5 8.109375 
Q 43.453125 8.109375 47.28125 11.40625 
Q 51.125 14.703125 51.125 21.484375 
Q 51.125 28.328125 47.28125 31.5625 
Q 43.453125 34.8125 35.5 34.8125 
z
M 19.671875 64.796875 
L 19.671875 42.828125 
L 34.28125 42.828125 
Q 41.5 42.828125 45.03125 45.53125 
Q 48.578125 48.25 48.578125 53.8125 
Q 48.578125 59.328125 45.03125 62.0625 
Q 41.5 64.796875 34.28125 64.796875 
z
M 9.8125 72.90625 
L 35.015625 72.90625 
Q 46.296875 72.90625 52.390625 68.21875 
Q 58.5 63.53125 58.5 54.890625 
Q 58.5 48.1875 55.375 44.234375 
Q 52.25 40.28125 46.1875 39.3125 
Q 53.46875 37.75 57.5 32.78125 
Q 61.53125 27.828125 61.53125 20.40625 
Q 61.53125 10.640625 54.890625 5.3125 
Q 48.25 0 35.984375 0 
L 9.8125 0 
z
" id="BitstreamVeraSans-Roman-42"/>
       <path d="M 8.5 21.578125 
L 8.5 54.6875 
L 17.484375 54.6875 
L 17.484375 21.921875 
Q 17.484375 14.15625 20.5 10.265625 
Q 23.53125 6.390625 29.59375 6.390625 
Q 36.859375 6.390625 41.078125 11.03125 
Q 45.3125 15.671875 45.3125 23.6875 
L 45.3125 54.6875 
L 54.296875 54.6875 
L 54.296875 0 
L 45.3125 0 
L 45.3125 8.40625 
Q 42.046875 3.421875 37.71875 1 
Q 33.40625 -1.421875 27.6875 -1.421875 
Q 18.265625 -1.421875 13.375 4.4375 
Q 8.5 10.296875 8.5 21.578125 
" id="BitstreamVeraSans-Roman-75"/>
       <path d="M 32.171875 -5.078125 
Q 28.375 -14.84375 24.75 -17.8125 
Q 21.140625 -20.796875 15.09375 -20.796875 
L 7.90625 -20.796875 
L 7.90625 -13.28125 
L 13.1875 -13.28125 
Q 16.890625 -13.28125 18.9375 -11.515625 
Q 21 -9.765625 23.484375 -3.21875 
L 25.09375 0.875 
L 2.984375 54.6875 
L 12.5 54.6875 
L 29.59375 11.921875 
L 46.6875 54.6875 
L 56.203125 54.6875 
z
" id="BitstreamVeraSans-Roman-79"/>
      </defs>
      <g transform="translate(174.00125 392.4805)rotate(-90.0)scale(0.08 -0.08)">
       <use xlink:href="#BitstreamVeraSans-Roman-42"/>
       <use x="68.603515625" xlink:href="#BitstreamVeraSans-Roman-75"/>
       <use x="131.982421875" xlink:href="#BitstreamVeraSans-Roman-6c"/>
       <use x="159.765625" xlink:href="#BitstreamVeraSans-Roman-6c"/>
       <use x="187.548828125" xlink:href="#BitstreamVeraSans-Roman-79"/>
      </g>
     </g>
    </g>
    <g id="xtick_3">
     <g id="line2d_5">
      <g>
       <use style="stroke:#000000;stroke-width:0.5;" x="246.19375" xlink:href="#m1927424894" y="368.74175"/>
      </g>
     </g>
     <g id="line2d_6">
      <g>
       <use style="stroke:#000000;stroke-width:0.5;" x="246.19375" xlink:href="#m527a820a53" y="23.14175"/>
      </g>
     </g>
     <g id="text_3">
      <!-- Tit For Tat -->
      <defs>
       <path d="M 34.28125 27.484375 
Q 23.390625 27.484375 19.1875 25 
Q 14.984375 22.515625 14.984375 16.5 
Q 14.984375 11.71875 18.140625 8.90625 
Q 21.296875 6.109375 26.703125 6.109375 
Q 34.1875 6.109375 38.703125 11.40625 
Q 43.21875 16.703125 43.21875 25.484375 
L 43.21875 27.484375 
z
M 52.203125 31.203125 
L 52.203125 0 
L 43.21875 0 
L 43.21875 8.296875 
Q 40.140625 3.328125 35.546875 0.953125 
Q 30.953125 -1.421875 24.3125 -1.421875 
Q 15.921875 -1.421875 10.953125 3.296875 
Q 6 8.015625 6 15.921875 
Q 6 25.140625 12.171875 29.828125 
Q 18.359375 34.515625 30.609375 34.515625 
L 43.21875 34.515625 
L 43.21875 35.40625 
Q 43.21875 41.609375 39.140625 45 
Q 35.0625 48.390625 27.6875 48.390625 
Q 23 48.390625 18.546875 47.265625 
Q 14.109375 46.140625 10.015625 43.890625 
L 10.015625 52.203125 
Q 14.9375 54.109375 19.578125 55.046875 
Q 24.21875 56 28.609375 56 
Q 40.484375 56 46.34375 49.84375 
Q 52.203125 43.703125 52.203125 31.203125 
" id="BitstreamVeraSans-Roman-61"/>
       <path d="M -0.296875 72.90625 
L 61.375 72.90625 
L 61.375 64.59375 
L 35.5 64.59375 
L 35.5 0 
L 25.59375 0 
L 25.59375 64.59375 
L -0.296875 64.59375 
z
" id="BitstreamVeraSans-Roman-54"/>
       <path id="BitstreamVeraSans-Roman-20"/>
       <path d="M 9.8125 72.90625 
L 51.703125 72.90625 
L 51.703125 64.59375 
L 19.671875 64.59375 
L 19.671875 43.109375 
L 48.578125 43.109375 
L 48.578125 34.8125 
L 19.671875 34.8125 
L 19.671875 0 
L 9.8125 0 
z
" id="BitstreamVeraSans-Roman-46"/>
       <path d="M 9.421875 54.6875 
L 18.40625 54.6875 
L 18.40625 0 
L 9.421875 0 
z
M 9.421875 75.984375 
L 18.40625 75.984375 
L 18.40625 64.59375 
L 9.421875 64.59375 
z
" id="BitstreamVeraSans-Roman-69"/>
      </defs>
      <g transform="translate(248.40125 413.75425)rotate(-90.0)scale(0.08 -0.08)">
       <use xlink:href="#BitstreamVeraSans-Roman-54"/>
       <use x="61.037109375" xlink:href="#BitstreamVeraSans-Roman-69"/>
       <use x="88.8203125" xlink:href="#BitstreamVeraSans-Roman-74"/>
       <use x="128.029296875" xlink:href="#BitstreamVeraSans-Roman-20"/>
       <use x="159.81640625" xlink:href="#BitstreamVeraSans-Roman-46"/>
       <use x="217.2890625" xlink:href="#BitstreamVeraSans-Roman-6f"/>
       <use x="278.470703125" xlink:href="#BitstreamVeraSans-Roman-72"/>
       <use x="319.583984375" xlink:href="#BitstreamVeraSans-Roman-20"/>
       <use x="351.37109375" xlink:href="#BitstreamVeraSans-Roman-54"/>
       <use x="412.205078125" xlink:href="#BitstreamVeraSans-Roman-61"/>
       <use x="473.484375" xlink:href="#BitstreamVeraSans-Roman-74"/>
      </g>
     </g>
    </g>
    <g id="xtick_4">
     <g id="line2d_7">
      <g>
       <use style="stroke:#000000;stroke-width:0.5;" x="320.59375" xlink:href="#m1927424894" y="368.74175"/>
      </g>
     </g>
     <g id="line2d_8">
      <g>
       <use style="stroke:#000000;stroke-width:0.5;" x="320.59375" xlink:href="#m527a820a53" y="23.14175"/>
      </g>
     </g>
     <g id="text_4">
      <!-- Alternator -->
      <defs>
       <path d="M 34.1875 63.1875 
L 20.796875 26.90625 
L 47.609375 26.90625 
z
M 28.609375 72.90625 
L 39.796875 72.90625 
L 67.578125 0 
L 57.328125 0 
L 50.6875 18.703125 
L 17.828125 18.703125 
L 11.1875 0 
L 0.78125 0 
z
" id="BitstreamVeraSans-Roman-41"/>
       <path d="M 54.890625 33.015625 
L 54.890625 0 
L 45.90625 0 
L 45.90625 32.71875 
Q 45.90625 40.484375 42.875 44.328125 
Q 39.84375 48.1875 33.796875 48.1875 
Q 26.515625 48.1875 22.3125 43.546875 
Q 18.109375 38.921875 18.109375 30.90625 
L 18.109375 0 
L 9.078125 0 
L 9.078125 54.6875 
L 18.109375 54.6875 
L 18.109375 46.1875 
Q 21.34375 51.125 25.703125 53.5625 
Q 30.078125 56 35.796875 56 
Q 45.21875 56 50.046875 50.171875 
Q 54.890625 44.34375 54.890625 33.015625 
" id="BitstreamVeraSans-Roman-6e"/>
      </defs>
      <g transform="translate(322.80125 413.0755)rotate(-90.0)scale(0.08 -0.08)">
       <use xlink:href="#BitstreamVeraSans-Roman-41"/>
       <use x="68.408203125" xlink:href="#BitstreamVeraSans-Roman-6c"/>
       <use x="96.19140625" xlink:href="#BitstreamVeraSans-Roman-74"/>
       <use x="135.400390625" xlink:href="#BitstreamVeraSans-Roman-65"/>
       <use x="196.923828125" xlink:href="#BitstreamVeraSans-Roman-72"/>
       <use x="238.021484375" xlink:href="#BitstreamVeraSans-Roman-6e"/>
       <use x="301.400390625" xlink:href="#BitstreamVeraSans-Roman-61"/>
       <use x="362.6796875" xlink:href="#BitstreamVeraSans-Roman-74"/>
       <use x="401.888671875" xlink:href="#BitstreamVeraSans-Roman-6f"/>
       <use x="463.0703125" xlink:href="#BitstreamVeraSans-Roman-72"/>
      </g>
     </g>
    </g>
    <g id="xtick_5">
     <g id="line2d_9">
      <g>
       <use style="stroke:#000000;stroke-width:0.5;" x="394.99375" xlink:href="#m1927424894" y="368.74175"/>
      </g>
     </g>
     <g id="line2d_10">
      <g>
       <use style="stroke:#000000;stroke-width:0.5;" x="394.99375" xlink:href="#m527a820a53" y="23.14175"/>
      </g>
     </g>
     <g id="text_5">
      <!-- Suspicious Tit For Tat -->
      <defs>
       <path d="M 53.515625 70.515625 
L 53.515625 60.890625 
Q 47.90625 63.578125 42.921875 64.890625 
Q 37.9375 66.21875 33.296875 66.21875 
Q 25.25 66.21875 20.875 63.09375 
Q 16.5 59.96875 16.5 54.203125 
Q 16.5 49.359375 19.40625 46.890625 
Q 22.3125 44.4375 30.421875 42.921875 
L 36.375 41.703125 
Q 47.40625 39.59375 52.65625 34.296875 
Q 57.90625 29 57.90625 20.125 
Q 57.90625 9.515625 50.796875 4.046875 
Q 43.703125 -1.421875 29.984375 -1.421875 
Q 24.8125 -1.421875 18.96875 -0.25 
Q 13.140625 0.921875 6.890625 3.21875 
L 6.890625 13.375 
Q 12.890625 10.015625 18.65625 8.296875 
Q 24.421875 6.59375 29.984375 6.59375 
Q 38.421875 6.59375 43.015625 9.90625 
Q 47.609375 13.234375 47.609375 19.390625 
Q 47.609375 24.75 44.3125 27.78125 
Q 41.015625 30.8125 33.5 32.328125 
L 27.484375 33.5 
Q 16.453125 35.6875 11.515625 40.375 
Q 6.59375 45.0625 6.59375 53.421875 
Q 6.59375 63.09375 13.40625 68.65625 
Q 20.21875 74.21875 32.171875 74.21875 
Q 37.3125 74.21875 42.625 73.28125 
Q 47.953125 72.359375 53.515625 70.515625 
" id="BitstreamVeraSans-Roman-53"/>
       <path d="M 18.109375 8.203125 
L 18.109375 -20.796875 
L 9.078125 -20.796875 
L 9.078125 54.6875 
L 18.109375 54.6875 
L 18.109375 46.390625 
Q 20.953125 51.265625 25.265625 53.625 
Q 29.59375 56 35.59375 56 
Q 45.5625 56 51.78125 48.09375 
Q 58.015625 40.1875 58.015625 27.296875 
Q 58.015625 14.40625 51.78125 6.484375 
Q 45.5625 -1.421875 35.59375 -1.421875 
Q 29.59375 -1.421875 25.265625 0.953125 
Q 20.953125 3.328125 18.109375 8.203125 
M 48.6875 27.296875 
Q 48.6875 37.203125 44.609375 42.84375 
Q 40.53125 48.484375 33.40625 48.484375 
Q 26.265625 48.484375 22.1875 42.84375 
Q 18.109375 37.203125 18.109375 27.296875 
Q 18.109375 17.390625 22.1875 11.75 
Q 26.265625 6.109375 33.40625 6.109375 
Q 40.53125 6.109375 44.609375 11.75 
Q 48.6875 17.390625 48.6875 27.296875 
" id="BitstreamVeraSans-Roman-70"/>
       <path d="M 44.28125 53.078125 
L 44.28125 44.578125 
Q 40.484375 46.53125 36.375 47.5 
Q 32.28125 48.484375 27.875 48.484375 
Q 21.1875 48.484375 17.84375 46.4375 
Q 14.5 44.390625 14.5 40.28125 
Q 14.5 37.15625 16.890625 35.375 
Q 19.28125 33.59375 26.515625 31.984375 
L 29.59375 31.296875 
Q 39.15625 29.25 43.1875 25.515625 
Q 47.21875 21.78125 47.21875 15.09375 
Q 47.21875 7.46875 41.1875 3.015625 
Q 35.15625 -1.421875 24.609375 -1.421875 
Q 20.21875 -1.421875 15.453125 -0.5625 
Q 10.6875 0.296875 5.421875 2 
L 5.421875 11.28125 
Q 10.40625 8.6875 15.234375 7.390625 
Q 20.0625 6.109375 24.8125 6.109375 
Q 31.15625 6.109375 34.5625 8.28125 
Q 37.984375 10.453125 37.984375 14.40625 
Q 37.984375 18.0625 35.515625 20.015625 
Q 33.0625 21.96875 24.703125 23.78125 
L 21.578125 24.515625 
Q 13.234375 26.265625 9.515625 29.90625 
Q 5.8125 33.546875 5.8125 39.890625 
Q 5.8125 47.609375 11.28125 51.796875 
Q 16.75 56 26.8125 56 
Q 31.78125 56 36.171875 55.265625 
Q 40.578125 54.546875 44.28125 53.078125 
" id="BitstreamVeraSans-Roman-73"/>
      </defs>
      <g transform="translate(397.20125 458.668)rotate(-90.0)scale(0.08 -0.08)">
       <use xlink:href="#BitstreamVeraSans-Roman-53"/>
       <use x="63.4765625" xlink:href="#BitstreamVeraSans-Roman-75"/>
       <use x="126.85546875" xlink:href="#BitstreamVeraSans-Roman-73"/>
       <use x="178.955078125" xlink:href="#BitstreamVeraSans-Roman-70"/>
       <use x="242.431640625" xlink:href="#BitstreamVeraSans-Roman-69"/>
       <use x="270.21484375" xlink:href="#BitstreamVeraSans-Roman-63"/>
       <use x="325.1953125" xlink:href="#BitstreamVeraSans-Roman-69"/>
       <use x="352.978515625" xlink:href="#BitstreamVeraSans-Roman-6f"/>
       <use x="414.16015625" xlink:href="#BitstreamVeraSans-Roman-75"/>
       <use x="477.5390625" xlink:href="#BitstreamVeraSans-Roman-73"/>
       <use x="529.638671875" xlink:href="#BitstreamVeraSans-Roman-20"/>
       <use x="561.42578125" xlink:href="#BitstreamVeraSans-Roman-54"/>
       <use x="622.462890625" xlink:href="#BitstreamVeraSans-Roman-69"/>
       <use x="650.24609375" xlink:href="#BitstreamVeraSans-Roman-74"/>
       <use x="689.455078125" xlink:href="#BitstreamVeraSans-Roman-20"/>
       <use x="721.2421875" xlink:href="#BitstreamVeraSans-Roman-46"/>
       <use x="778.71484375" xlink:href="#BitstreamVeraSans-Roman-6f"/>
       <use x="839.896484375" xlink:href="#BitstreamVeraSans-Roman-72"/>
       <use x="881.009765625" xlink:href="#BitstreamVeraSans-Roman-20"/>
       <use x="912.796875" xlink:href="#BitstreamVeraSans-Roman-54"/>
       <use x="973.630859375" xlink:href="#BitstreamVeraSans-Roman-61"/>
       <use x="1034.91015625" xlink:href="#BitstreamVeraSans-Roman-74"/>
      </g>
     </g>
    </g>
    <g id="xtick_6">
     <g id="line2d_11">
      <g>
       <use style="stroke:#000000;stroke-width:0.5;" x="469.39375" xlink:href="#m1927424894" y="368.74175"/>
      </g>
     </g>
     <g id="line2d_12">
      <g>
       <use style="stroke:#000000;stroke-width:0.5;" x="469.39375" xlink:href="#m527a820a53" y="23.14175"/>
      </g>
     </g>
     <g id="text_6">
      <!-- Anti Tit For Tat -->
      <g transform="translate(471.60125 432.198)rotate(-90.0)scale(0.08 -0.08)">
       <use xlink:href="#BitstreamVeraSans-Roman-41"/>
       <use x="68.408203125" xlink:href="#BitstreamVeraSans-Roman-6e"/>
       <use x="131.787109375" xlink:href="#BitstreamVeraSans-Roman-74"/>
       <use x="170.99609375" xlink:href="#BitstreamVeraSans-Roman-69"/>
       <use x="198.779296875" xlink:href="#BitstreamVeraSans-Roman-20"/>
       <use x="230.56640625" xlink:href="#BitstreamVeraSans-Roman-54"/>
       <use x="291.603515625" xlink:href="#BitstreamVeraSans-Roman-69"/>
       <use x="319.38671875" xlink:href="#BitstreamVeraSans-Roman-74"/>
       <use x="358.595703125" xlink:href="#BitstreamVeraSans-Roman-20"/>
       <use x="390.3828125" xlink:href="#BitstreamVeraSans-Roman-46"/>
       <use x="447.85546875" xlink:href="#BitstreamVeraSans-Roman-6f"/>
       <use x="509.037109375" xlink:href="#BitstreamVeraSans-Roman-72"/>
       <use x="550.150390625" xlink:href="#BitstreamVeraSans-Roman-20"/>
       <use x="581.9375" xlink:href="#BitstreamVeraSans-Roman-54"/>
       <use x="642.771484375" xlink:href="#BitstreamVeraSans-Roman-61"/>
       <use x="704.05078125" xlink:href="#BitstreamVeraSans-Roman-74"/>
      </g>
     </g>
    </g>
    <g id="xtick_7">
     <g id="line2d_13">
      <g>
       <use style="stroke:#000000;stroke-width:0.5;" x="543.79375" xlink:href="#m1927424894" y="368.74175"/>
      </g>
     </g>
     <g id="line2d_14">
      <g>
       <use style="stroke:#000000;stroke-width:0.5;" x="543.79375" xlink:href="#m527a820a53" y="23.14175"/>
      </g>
     </g>
     <g id="text_7">
      <!-- Win-Stay Lose-Shift -->
      <defs>
       <path d="M 54.890625 33.015625 
L 54.890625 0 
L 45.90625 0 
L 45.90625 32.71875 
Q 45.90625 40.484375 42.875 44.328125 
Q 39.84375 48.1875 33.796875 48.1875 
Q 26.515625 48.1875 22.3125 43.546875 
Q 18.109375 38.921875 18.109375 30.90625 
L 18.109375 0 
L 9.078125 0 
L 9.078125 75.984375 
L 18.109375 75.984375 
L 18.109375 46.1875 
Q 21.34375 51.125 25.703125 53.5625 
Q 30.078125 56 35.796875 56 
Q 45.21875 56 50.046875 50.171875 
Q 54.890625 44.34375 54.890625 33.015625 
" id="BitstreamVeraSans-Roman-68"/>
       <path d="M 4.890625 31.390625 
L 31.203125 31.390625 
L 31.203125 23.390625 
L 4.890625 23.390625 
z
" id="BitstreamVeraSans-Roman-2d"/>
       <path d="M 3.328125 72.90625 
L 13.28125 72.90625 
L 28.609375 11.28125 
L 43.890625 72.90625 
L 54.984375 72.90625 
L 70.3125 11.28125 
L 85.59375 72.90625 
L 95.609375 72.90625 
L 77.296875 0 
L 64.890625 0 
L 49.515625 63.28125 
L 33.984375 0 
L 21.578125 0 
z
" id="BitstreamVeraSans-Roman-57"/>
       <path d="M 9.8125 72.90625 
L 19.671875 72.90625 
L 19.671875 8.296875 
L 55.171875 8.296875 
L 55.171875 0 
L 9.8125 0 
z
" id="BitstreamVeraSans-Roman-4c"/>
      </defs>
      <g transform="translate(546.00125 450.873)rotate(-90.0)scale(0.08 -0.08)">
       <use xlink:href="#BitstreamVeraSans-Roman-57"/>
       <use x="98.845703125" xlink:href="#BitstreamVeraSans-Roman-69"/>
       <use x="126.62890625" xlink:href="#BitstreamVeraSans-Roman-6e"/>
       <use x="190.0078125" xlink:href="#BitstreamVeraSans-Roman-2d"/>
       <use x="226.091796875" xlink:href="#BitstreamVeraSans-Roman-53"/>
       <use x="289.568359375" xlink:href="#BitstreamVeraSans-Roman-74"/>
       <use x="328.77734375" xlink:href="#BitstreamVeraSans-Roman-61"/>
       <use x="390.056640625" xlink:href="#BitstreamVeraSans-Roman-79"/>
       <use x="449.236328125" xlink:href="#BitstreamVeraSans-Roman-20"/>
       <use x="481.0234375" xlink:href="#BitstreamVeraSans-Roman-4c"/>
       <use x="536.720703125" xlink:href="#BitstreamVeraSans-Roman-6f"/>
       <use x="597.90234375" xlink:href="#BitstreamVeraSans-Roman-73"/>
       <use x="650.001953125" xlink:href="#BitstreamVeraSans-Roman-65"/>
       <use x="711.525390625" xlink:href="#BitstreamVeraSans-Roman-2d"/>
       <use x="747.609375" xlink:href="#BitstreamVeraSans-Roman-53"/>
       <use x="811.0859375" xlink:href="#BitstreamVeraSans-Roman-68"/>
       <use x="874.46484375" xlink:href="#BitstreamVeraSans-Roman-69"/>
       <use x="902.248046875" xlink:href="#BitstreamVeraSans-Roman-66"/>
       <use x="937.4375" xlink:href="#BitstreamVeraSans-Roman-74"/>
      </g>
     </g>
    </g>
    <g id="xtick_8">
     <g id="line2d_15">
      <g>
       <use style="stroke:#000000;stroke-width:0.5;" x="618.19375" xlink:href="#m1927424894" y="368.74175"/>
      </g>
     </g>
     <g id="line2d_16">
      <g>
       <use style="stroke:#000000;stroke-width:0.5;" x="618.19375" xlink:href="#m527a820a53" y="23.14175"/>
      </g>
     </g>
     <g id="text_8">
      <!-- Cooperator -->
      <defs>
       <path d="M 64.40625 67.28125 
L 64.40625 56.890625 
Q 59.421875 61.53125 53.78125 63.8125 
Q 48.140625 66.109375 41.796875 66.109375 
Q 29.296875 66.109375 22.65625 58.46875 
Q 16.015625 50.828125 16.015625 36.375 
Q 16.015625 21.96875 22.65625 14.328125 
Q 29.296875 6.6875 41.796875 6.6875 
Q 48.140625 6.6875 53.78125 8.984375 
Q 59.421875 11.28125 64.40625 15.921875 
L 64.40625 5.609375 
Q 59.234375 2.09375 53.4375 0.328125 
Q 47.65625 -1.421875 41.21875 -1.421875 
Q 24.65625 -1.421875 15.125 8.703125 
Q 5.609375 18.84375 5.609375 36.375 
Q 5.609375 53.953125 15.125 64.078125 
Q 24.65625 74.21875 41.21875 74.21875 
Q 47.75 74.21875 53.53125 72.484375 
Q 59.328125 70.75 64.40625 67.28125 
" id="BitstreamVeraSans-Roman-43"/>
      </defs>
      <g transform="translate(620.40125 417.6305)rotate(-90.0)scale(0.08 -0.08)">
       <use xlink:href="#BitstreamVeraSans-Roman-43"/>
       <use x="69.82421875" xlink:href="#BitstreamVeraSans-Roman-6f"/>
       <use x="131.005859375" xlink:href="#BitstreamVeraSans-Roman-6f"/>
       <use x="192.1875" xlink:href="#BitstreamVeraSans-Roman-70"/>
       <use x="255.6640625" xlink:href="#BitstreamVeraSans-Roman-65"/>
       <use x="317.1875" xlink:href="#BitstreamVeraSans-Roman-72"/>
       <use x="358.30078125" xlink:href="#BitstreamVeraSans-Roman-61"/>
       <use x="419.580078125" xlink:href="#BitstreamVeraSans-Roman-74"/>
       <use x="458.7890625" xlink:href="#BitstreamVeraSans-Roman-6f"/>
       <use x="519.970703125" xlink:href="#BitstreamVeraSans-Roman-72"/>
      </g>
     </g>
    </g>
   </g>
   <g id="matplotlib.axis_2">
    <g id="ytick_1">
     <g id="line2d_17">
      <defs>
       <path d="M 0 0 
L 4 0 
" id="mcfba5ad899" style="stroke:#000000;stroke-width:0.5;"/>
      </defs>
      <g>
       <use style="stroke:#000000;stroke-width:0.5;" x="22.99375" xlink:href="#mcfba5ad899" y="368.74175"/>
      </g>
     </g>
     <g id="line2d_18">
      <defs>
       <path d="M 0 0 
L -4 0 
" id="m0356d87a79" style="stroke:#000000;stroke-width:0.5;"/>
      </defs>
      <g>
       <use style="stroke:#000000;stroke-width:0.5;" x="692.59375" xlink:href="#m0356d87a79" y="368.74175"/>
      </g>
     </g>
     <g id="text_9">
      <!-- 6 -->
      <defs>
       <path d="M 10.59375 35.5 
L 73.1875 35.5 
L 73.1875 27.203125 
L 10.59375 27.203125 
z
" id="BitstreamVeraSans-Roman-2212"/>
       <path d="M 33.015625 40.375 
Q 26.375 40.375 22.484375 35.828125 
Q 18.609375 31.296875 18.609375 23.390625 
Q 18.609375 15.53125 22.484375 10.953125 
Q 26.375 6.390625 33.015625 6.390625 
Q 39.65625 6.390625 43.53125 10.953125 
Q 47.40625 15.53125 47.40625 23.390625 
Q 47.40625 31.296875 43.53125 35.828125 
Q 39.65625 40.375 33.015625 40.375 
M 52.59375 71.296875 
L 52.59375 62.3125 
Q 48.875 64.0625 45.09375 64.984375 
Q 41.3125 65.921875 37.59375 65.921875 
Q 27.828125 65.921875 22.671875 59.328125 
Q 17.53125 52.734375 16.796875 39.40625 
Q 19.671875 43.65625 24.015625 45.921875 
Q 28.375 48.1875 33.59375 48.1875 
Q 44.578125 48.1875 50.953125 41.515625 
Q 57.328125 34.859375 57.328125 23.390625 
Q 57.328125 12.15625 50.6875 5.359375 
Q 44.046875 -1.421875 33.015625 -1.421875 
Q 20.359375 -1.421875 13.671875 8.265625 
Q 6.984375 17.96875 6.984375 36.375 
Q 6.984375 53.65625 15.1875 63.9375 
Q 23.390625 74.21875 37.203125 74.21875 
Q 40.921875 74.21875 44.703125 73.484375 
Q 48.484375 72.75 52.59375 71.296875 
" id="BitstreamVeraSans-Roman-36"/>
      </defs>
      <g transform="translate(7.2 370.94925)scale(0.08 -0.08)">
       <use xlink:href="#BitstreamVeraSans-Roman-2212"/>
       <use x="83.7890625" xlink:href="#BitstreamVeraSans-Roman-36"/>
      </g>
     </g>
    </g>
    <g id="ytick_2">
     <g id="line2d_19">
      <g>
       <use style="stroke:#000000;stroke-width:0.5;" x="22.99375" xlink:href="#mcfba5ad899" y="311.14175"/>
      </g>
     </g>
     <g id="line2d_20">
      <g>
       <use style="stroke:#000000;stroke-width:0.5;" x="692.59375" xlink:href="#m0356d87a79" y="311.14175"/>
      </g>
     </g>
     <g id="text_10">
      <!-- 4 -->
      <defs>
       <path d="M 37.796875 64.3125 
L 12.890625 25.390625 
L 37.796875 25.390625 
z
M 35.203125 72.90625 
L 47.609375 72.90625 
L 47.609375 25.390625 
L 58.015625 25.390625 
L 58.015625 17.1875 
L 47.609375 17.1875 
L 47.609375 0 
L 37.796875 0 
L 37.796875 17.1875 
L 4.890625 17.1875 
L 4.890625 26.703125 
z
" id="BitstreamVeraSans-Roman-34"/>
      </defs>
      <g transform="translate(7.2 313.34925)scale(0.08 -0.08)">
       <use xlink:href="#BitstreamVeraSans-Roman-2212"/>
       <use x="83.7890625" xlink:href="#BitstreamVeraSans-Roman-34"/>
      </g>
     </g>
    </g>
    <g id="ytick_3">
     <g id="line2d_21">
      <g>
       <use style="stroke:#000000;stroke-width:0.5;" x="22.99375" xlink:href="#mcfba5ad899" y="253.54175"/>
      </g>
     </g>
     <g id="line2d_22">
      <g>
       <use style="stroke:#000000;stroke-width:0.5;" x="692.59375" xlink:href="#m0356d87a79" y="253.54175"/>
      </g>
     </g>
     <g id="text_11">
      <!-- 2 -->
      <defs>
       <path d="M 19.1875 8.296875 
L 53.609375 8.296875 
L 53.609375 0 
L 7.328125 0 
L 7.328125 8.296875 
Q 12.9375 14.109375 22.625 23.890625 
Q 32.328125 33.6875 34.8125 36.53125 
Q 39.546875 41.84375 41.421875 45.53125 
Q 43.3125 49.21875 43.3125 52.78125 
Q 43.3125 58.59375 39.234375 62.25 
Q 35.15625 65.921875 28.609375 65.921875 
Q 23.96875 65.921875 18.8125 64.3125 
Q 13.671875 62.703125 7.8125 59.421875 
L 7.8125 69.390625 
Q 13.765625 71.78125 18.9375 73 
Q 24.125 74.21875 28.421875 74.21875 
Q 39.75 74.21875 46.484375 68.546875 
Q 53.21875 62.890625 53.21875 53.421875 
Q 53.21875 48.921875 51.53125 44.890625 
Q 49.859375 40.875 45.40625 35.40625 
Q 44.1875 33.984375 37.640625 27.21875 
Q 31.109375 20.453125 19.1875 8.296875 
" id="BitstreamVeraSans-Roman-32"/>
      </defs>
      <g transform="translate(7.2 255.74925)scale(0.08 -0.08)">
       <use xlink:href="#BitstreamVeraSans-Roman-2212"/>
       <use x="83.7890625" xlink:href="#BitstreamVeraSans-Roman-32"/>
      </g>
     </g>
    </g>
    <g id="ytick_4">
     <g id="line2d_23">
      <g>
       <use style="stroke:#000000;stroke-width:0.5;" x="22.99375" xlink:href="#mcfba5ad899" y="195.94175"/>
      </g>
     </g>
     <g id="line2d_24">
      <g>
       <use style="stroke:#000000;stroke-width:0.5;" x="692.59375" xlink:href="#m0356d87a79" y="195.94175"/>
      </g>
     </g>
     <g id="text_12">
      <!-- 0 -->
      <defs>
       <path d="M 31.78125 66.40625 
Q 24.171875 66.40625 20.328125 58.90625 
Q 16.5 51.421875 16.5 36.375 
Q 16.5 21.390625 20.328125 13.890625 
Q 24.171875 6.390625 31.78125 6.390625 
Q 39.453125 6.390625 43.28125 13.890625 
Q 47.125 21.390625 47.125 36.375 
Q 47.125 51.421875 43.28125 58.90625 
Q 39.453125 66.40625 31.78125 66.40625 
M 31.78125 74.21875 
Q 44.046875 74.21875 50.515625 64.515625 
Q 56.984375 54.828125 56.984375 36.375 
Q 56.984375 17.96875 50.515625 8.265625 
Q 44.046875 -1.421875 31.78125 -1.421875 
Q 19.53125 -1.421875 13.0625 8.265625 
Q 6.59375 17.96875 6.59375 36.375 
Q 6.59375 54.828125 13.0625 64.515625 
Q 19.53125 74.21875 31.78125 74.21875 
" id="BitstreamVeraSans-Roman-30"/>
      </defs>
      <g transform="translate(13.90375 198.14925)scale(0.08 -0.08)">
       <use xlink:href="#BitstreamVeraSans-Roman-30"/>
      </g>
     </g>
    </g>
    <g id="ytick_5">
     <g id="line2d_25">
      <g>
       <use style="stroke:#000000;stroke-width:0.5;" x="22.99375" xlink:href="#mcfba5ad899" y="138.34175"/>
      </g>
     </g>
     <g id="line2d_26">
      <g>
       <use style="stroke:#000000;stroke-width:0.5;" x="692.59375" xlink:href="#m0356d87a79" y="138.34175"/>
      </g>
     </g>
     <g id="text_13">
      <!-- 2 -->
      <g transform="translate(13.90375 140.54925)scale(0.08 -0.08)">
       <use xlink:href="#BitstreamVeraSans-Roman-32"/>
      </g>
     </g>
    </g>
    <g id="ytick_6">
     <g id="line2d_27">
      <g>
       <use style="stroke:#000000;stroke-width:0.5;" x="22.99375" xlink:href="#mcfba5ad899" y="80.74175"/>
      </g>
     </g>
     <g id="line2d_28">
      <g>
       <use style="stroke:#000000;stroke-width:0.5;" x="692.59375" xlink:href="#m0356d87a79" y="80.74175"/>
      </g>
     </g>
     <g id="text_14">
      <!-- 4 -->
      <g transform="translate(13.90375 82.94925)scale(0.08 -0.08)">
       <use xlink:href="#BitstreamVeraSans-Roman-34"/>
      </g>
     </g>
    </g>
    <g id="ytick_7">
     <g id="line2d_29">
      <g>
       <use style="stroke:#000000;stroke-width:0.5;" x="22.99375" xlink:href="#mcfba5ad899" y="23.14175"/>
      </g>
     </g>
     <g id="line2d_30">
      <g>
       <use style="stroke:#000000;stroke-width:0.5;" x="692.59375" xlink:href="#m0356d87a79" y="23.14175"/>
      </g>
     </g>
     <g id="text_15">
      <!-- 6 -->
      <g transform="translate(13.90375 25.34925)scale(0.08 -0.08)">
       <use xlink:href="#BitstreamVeraSans-Roman-36"/>
      </g>
     </g>
    </g>
   </g>
   <g id="text_16">
    <!-- Std Payoffs. Turns: 200, Repetitions: 2, Strategies: 8. -->
    <defs>
     <path d="M 31.78125 34.625 
Q 24.75 34.625 20.71875 30.859375 
Q 16.703125 27.09375 16.703125 20.515625 
Q 16.703125 13.921875 20.71875 10.15625 
Q 24.75 6.390625 31.78125 6.390625 
Q 38.8125 6.390625 42.859375 10.171875 
Q 46.921875 13.96875 46.921875 20.515625 
Q 46.921875 27.09375 42.890625 30.859375 
Q 38.875 34.625 31.78125 34.625 
M 21.921875 38.8125 
Q 15.578125 40.375 12.03125 44.71875 
Q 8.5 49.078125 8.5 55.328125 
Q 8.5 64.0625 14.71875 69.140625 
Q 20.953125 74.21875 31.78125 74.21875 
Q 42.671875 74.21875 48.875 69.140625 
Q 55.078125 64.0625 55.078125 55.328125 
Q 55.078125 49.078125 51.53125 44.71875 
Q 48 40.375 41.703125 38.8125 
Q 48.828125 37.15625 52.796875 32.3125 
Q 56.78125 27.484375 56.78125 20.515625 
Q 56.78125 9.90625 50.3125 4.234375 
Q 43.84375 -1.421875 31.78125 -1.421875 
Q 19.734375 -1.421875 13.25 4.234375 
Q 6.78125 9.90625 6.78125 20.515625 
Q 6.78125 27.484375 10.78125 32.3125 
Q 14.796875 37.15625 21.921875 38.8125 
M 18.3125 54.390625 
Q 18.3125 48.734375 21.84375 45.5625 
Q 25.390625 42.390625 31.78125 42.390625 
Q 38.140625 42.390625 41.71875 45.5625 
Q 45.3125 48.734375 45.3125 54.390625 
Q 45.3125 60.0625 41.71875 63.234375 
Q 38.140625 66.40625 31.78125 66.40625 
Q 25.390625 66.40625 21.84375 63.234375 
Q 18.3125 60.0625 18.3125 54.390625 
" id="BitstreamVeraSans-Roman-38"/>
     <path d="M 11.71875 12.40625 
L 22.015625 12.40625 
L 22.015625 0 
L 11.71875 0 
z
M 11.71875 51.703125 
L 22.015625 51.703125 
L 22.015625 39.3125 
L 11.71875 39.3125 
z
" id="BitstreamVeraSans-Roman-3a"/>
     <path d="M 45.40625 46.390625 
L 45.40625 75.984375 
L 54.390625 75.984375 
L 54.390625 0 
L 45.40625 0 
L 45.40625 8.203125 
Q 42.578125 3.328125 38.25 0.953125 
Q 33.9375 -1.421875 27.875 -1.421875 
Q 17.96875 -1.421875 11.734375 6.484375 
Q 5.515625 14.40625 5.515625 27.296875 
Q 5.515625 40.1875 11.734375 48.09375 
Q 17.96875 56 27.875 56 
Q 33.9375 56 38.25 53.625 
Q 42.578125 51.265625 45.40625 46.390625 
M 14.796875 27.296875 
Q 14.796875 17.390625 18.875 11.75 
Q 22.953125 6.109375 30.078125 6.109375 
Q 37.203125 6.109375 41.296875 11.75 
Q 45.40625 17.390625 45.40625 27.296875 
Q 45.40625 37.203125 41.296875 42.84375 
Q 37.203125 48.484375 30.078125 48.484375 
Q 22.953125 48.484375 18.875 42.84375 
Q 14.796875 37.203125 14.796875 27.296875 
" id="BitstreamVeraSans-Roman-64"/>
     <path d="M 44.390625 34.1875 
Q 47.5625 33.109375 50.5625 29.59375 
Q 53.5625 26.078125 56.59375 19.921875 
L 66.609375 0 
L 56 0 
L 46.6875 18.703125 
Q 43.0625 26.03125 39.671875 28.421875 
Q 36.28125 30.8125 30.421875 30.8125 
L 19.671875 30.8125 
L 19.671875 0 
L 9.8125 0 
L 9.8125 72.90625 
L 32.078125 72.90625 
Q 44.578125 72.90625 50.734375 67.671875 
Q 56.890625 62.453125 56.890625 51.90625 
Q 56.890625 45.015625 53.6875 40.46875 
Q 50.484375 35.9375 44.390625 34.1875 
M 19.671875 64.796875 
L 19.671875 38.921875 
L 32.078125 38.921875 
Q 39.203125 38.921875 42.84375 42.21875 
Q 46.484375 45.515625 46.484375 51.90625 
Q 46.484375 58.296875 42.84375 61.546875 
Q 39.203125 64.796875 32.078125 64.796875 
z
" id="BitstreamVeraSans-Roman-52"/>
     <path d="M 10.6875 12.40625 
L 21 12.40625 
L 21 0 
L 10.6875 0 
z
" id="BitstreamVeraSans-Roman-2e"/>
     <path d="M 19.671875 64.796875 
L 19.671875 37.40625 
L 32.078125 37.40625 
Q 38.96875 37.40625 42.71875 40.96875 
Q 46.484375 44.53125 46.484375 51.125 
Q 46.484375 57.671875 42.71875 61.234375 
Q 38.96875 64.796875 32.078125 64.796875 
z
M 9.8125 72.90625 
L 32.078125 72.90625 
Q 44.34375 72.90625 50.609375 67.359375 
Q 56.890625 61.8125 56.890625 51.125 
Q 56.890625 40.328125 50.609375 34.8125 
Q 44.34375 29.296875 32.078125 29.296875 
L 19.671875 29.296875 
L 19.671875 0 
L 9.8125 0 
z
" id="BitstreamVeraSans-Roman-50"/>
     <path d="M 11.71875 12.40625 
L 22.015625 12.40625 
L 22.015625 4 
L 14.015625 -11.625 
L 7.71875 -11.625 
L 11.71875 4 
z
" id="BitstreamVeraSans-Roman-2c"/>
     <path d="M 45.40625 27.984375 
Q 45.40625 37.75 41.375 43.109375 
Q 37.359375 48.484375 30.078125 48.484375 
Q 22.859375 48.484375 18.828125 43.109375 
Q 14.796875 37.75 14.796875 27.984375 
Q 14.796875 18.265625 18.828125 12.890625 
Q 22.859375 7.515625 30.078125 7.515625 
Q 37.359375 7.515625 41.375 12.890625 
Q 45.40625 18.265625 45.40625 27.984375 
M 54.390625 6.78125 
Q 54.390625 -7.171875 48.1875 -13.984375 
Q 42 -20.796875 29.203125 -20.796875 
Q 24.46875 -20.796875 20.265625 -20.09375 
Q 16.0625 -19.390625 12.109375 -17.921875 
L 12.109375 -9.1875 
Q 16.0625 -11.328125 19.921875 -12.34375 
Q 23.78125 -13.375 27.78125 -13.375 
Q 36.625 -13.375 41.015625 -8.765625 
Q 45.40625 -4.15625 45.40625 5.171875 
L 45.40625 9.625 
Q 42.625 4.78125 38.28125 2.390625 
Q 33.9375 0 27.875 0 
Q 17.828125 0 11.671875 7.65625 
Q 5.515625 15.328125 5.515625 27.984375 
Q 5.515625 40.671875 11.671875 48.328125 
Q 17.828125 56 27.875 56 
Q 33.9375 56 38.28125 53.609375 
Q 42.625 51.21875 45.40625 46.390625 
L 45.40625 54.6875 
L 54.390625 54.6875 
z
" id="BitstreamVeraSans-Roman-67"/>
    </defs>
    <g transform="translate(166.459375 18.14175)scale(0.144 -0.144)">
     <use xlink:href="#BitstreamVeraSans-Roman-53"/>
     <use x="63.4765625" xlink:href="#BitstreamVeraSans-Roman-74"/>
     <use x="102.685546875" xlink:href="#BitstreamVeraSans-Roman-64"/>
     <use x="166.162109375" xlink:href="#BitstreamVeraSans-Roman-20"/>
     <use x="197.94921875" xlink:href="#BitstreamVeraSans-Roman-50"/>
     <use x="258.189453125" xlink:href="#BitstreamVeraSans-Roman-61"/>
     <use x="319.46875" xlink:href="#BitstreamVeraSans-Roman-79"/>
     <use x="378.6484375" xlink:href="#BitstreamVeraSans-Roman-6f"/>
     <use x="439.830078125" xlink:href="#BitstreamVeraSans-Roman-66"/>
     <use x="475.03515625" xlink:href="#BitstreamVeraSans-Roman-66"/>
     <use x="510.240234375" xlink:href="#BitstreamVeraSans-Roman-73"/>
     <use x="562.33984375" xlink:href="#BitstreamVeraSans-Roman-2e"/>
     <use x="594.126953125" xlink:href="#BitstreamVeraSans-Roman-20"/>
     <use x="625.9140625" xlink:href="#BitstreamVeraSans-Roman-54"/>
     <use x="686.763671875" xlink:href="#BitstreamVeraSans-Roman-75"/>
     <use x="750.142578125" xlink:href="#BitstreamVeraSans-Roman-72"/>
     <use x="791.240234375" xlink:href="#BitstreamVeraSans-Roman-6e"/>
     <use x="854.619140625" xlink:href="#BitstreamVeraSans-Roman-73"/>
     <use x="906.71875" xlink:href="#BitstreamVeraSans-Roman-3a"/>
     <use x="940.41015625" xlink:href="#BitstreamVeraSans-Roman-20"/>
     <use x="972.197265625" xlink:href="#BitstreamVeraSans-Roman-32"/>
     <use x="1035.8203125" xlink:href="#BitstreamVeraSans-Roman-30"/>
     <use x="1099.443359375" xlink:href="#BitstreamVeraSans-Roman-30"/>
     <use x="1163.06640625" xlink:href="#BitstreamVeraSans-Roman-2c"/>
     <use x="1194.853515625" xlink:href="#BitstreamVeraSans-Roman-20"/>
     <use x="1226.640625" xlink:href="#BitstreamVeraSans-Roman-52"/>
     <use x="1296.060546875" xlink:href="#BitstreamVeraSans-Roman-65"/>
     <use x="1357.583984375" xlink:href="#BitstreamVeraSans-Roman-70"/>
     <use x="1421.060546875" xlink:href="#BitstreamVeraSans-Roman-65"/>
     <use x="1482.583984375" xlink:href="#BitstreamVeraSans-Roman-74"/>
     <use x="1521.79296875" xlink:href="#BitstreamVeraSans-Roman-69"/>
     <use x="1549.576171875" xlink:href="#BitstreamVeraSans-Roman-74"/>
     <use x="1588.78515625" xlink:href="#BitstreamVeraSans-Roman-69"/>
     <use x="1616.568359375" xlink:href="#BitstreamVeraSans-Roman-6f"/>
     <use x="1677.75" xlink:href="#BitstreamVeraSans-Roman-6e"/>
     <use x="1741.12890625" xlink:href="#BitstreamVeraSans-Roman-73"/>
     <use x="1793.228515625" xlink:href="#BitstreamVeraSans-Roman-3a"/>
     <use x="1826.919921875" xlink:href="#BitstreamVeraSans-Roman-20"/>
     <use x="1858.70703125" xlink:href="#BitstreamVeraSans-Roman-32"/>
     <use x="1922.330078125" xlink:href="#BitstreamVeraSans-Roman-2c"/>
     <use x="1954.1171875" xlink:href="#BitstreamVeraSans-Roman-20"/>
     <use x="1985.904296875" xlink:href="#BitstreamVeraSans-Roman-53"/>
     <use x="2049.380859375" xlink:href="#BitstreamVeraSans-Roman-74"/>
     <use x="2088.58984375" xlink:href="#BitstreamVeraSans-Roman-72"/>
     <use x="2129.703125" xlink:href="#BitstreamVeraSans-Roman-61"/>
     <use x="2190.982421875" xlink:href="#BitstreamVeraSans-Roman-74"/>
     <use x="2230.19140625" xlink:href="#BitstreamVeraSans-Roman-65"/>
     <use x="2291.71484375" xlink:href="#BitstreamVeraSans-Roman-67"/>
     <use x="2355.19140625" xlink:href="#BitstreamVeraSans-Roman-69"/>
     <use x="2382.974609375" xlink:href="#BitstreamVeraSans-Roman-65"/>
     <use x="2444.498046875" xlink:href="#BitstreamVeraSans-Roman-73"/>
     <use x="2496.59765625" xlink:href="#BitstreamVeraSans-Roman-3a"/>
     <use x="2530.2890625" xlink:href="#BitstreamVeraSans-Roman-20"/>
     <use x="2562.076171875" xlink:href="#BitstreamVeraSans-Roman-38"/>
     <use x="2625.69921875" xlink:href="#BitstreamVeraSans-Roman-2e"/>
    </g>
   </g>
  </g>
 </g>
 <defs>
  <clipPath id="p354cc323d2">
   <rect height="345.6" width="669.6" x="22.99375" y="23.14175"/>
  </clipPath>
 </defs>
</svg>
