<?xml version="1.0" encoding="utf-8" standalone="no"?>
<!DOCTYPE svg PUBLIC "-//W3C//DTD SVG 1.1//EN"
  "http://www.w3.org/Graphics/SVG/1.1/DTD/svg11.dtd">
<!-- Created with matplotlib (http://matplotlib.org/) -->
<svg height="465pt" version="1.1" viewBox="0 0 693 465" width="693pt" xmlns="http://www.w3.org/2000/svg" xmlns:xlink="http://www.w3.org/1999/xlink">
 <defs>
  <style type="text/css">
*{stroke-linecap:butt;stroke-linejoin:round;stroke-miterlimit:100000;}
  </style>
 </defs>
 <g id="figure_1">
  <g id="patch_1">
   <path d="M 0 465.868 
L 693.09 465.868 
L 693.09 0 
L 0 0 
z
" style="fill:#ffffff;"/>
  </g>
  <g id="axes_1">
   <g id="patch_2">
    <path d="M 16.29 368.74175 
L 685.89 368.74175 
L 685.89 23.14175 
L 16.29 23.14175 
z
" style="fill:#ffffff;"/>
   </g>
   <g id="PolyCollection_1">
    <defs>
     <path d="M 91.668947 -368.669107 
L 89.711053 -368.669107 
L 89.717598 -369.167808 
L 89.736973 -369.66651 
L 89.768411 -370.165211 
L 89.81069 -370.663912 
L 89.86221 -371.162614 
L 89.921098 -371.661315 
L 89.985316 -372.160016 
L 90.052778 -372.658718 
L 90.121461 -373.157419 
L 90.189502 -373.65612 
L 90.255272 -374.154821 
L 90.317432 -374.653523 
L 90.37496 -375.152224 
L 90.427155 -375.650925 
L 90.473626 -376.149627 
L 90.514254 -376.648328 
L 90.549156 -377.147029 
L 90.578631 -377.645731 
L 90.603112 -378.144432 
L 90.623115 -378.643133 
L 90.639199 -379.141834 
L 90.651929 -379.640536 
L 90.66185 -380.139237 
L 90.669463 -380.637938 
L 90.675216 -381.13664 
L 90.6795 -381.635341 
L 90.682642 -382.134042 
L 90.684912 -382.632744 
L 90.686529 -383.131445 
L 90.687664 -383.630146 
L 90.688448 -384.128847 
L 90.688983 -384.627549 
L 90.689343 -385.12625 
L 90.689581 -385.624951 
L 90.689736 -386.123653 
L 90.689836 -386.622354 
L 90.6899 -387.121055 
L 90.689939 -387.619756 
L 90.689964 -388.118458 
L 90.689979 -388.617159 
L 90.689988 -389.11586 
L 90.689993 -389.614562 
L 90.689996 -390.113263 
L 90.689998 -390.611964 
L 90.689999 -391.110666 
L 90.689999 -391.609367 
L 90.689999 -392.108068 
L 90.689999 -392.606769 
L 90.689999 -393.105471 
L 90.689998 -393.604172 
L 90.689996 -394.102873 
L 90.689993 -394.601575 
L 90.689987 -395.100276 
L 90.689977 -395.598977 
L 90.689957 -396.097679 
L 90.689924 -396.59638 
L 90.689865 -397.095081 
L 90.689765 -397.593782 
L 90.689595 -398.092484 
L 90.689311 -398.591185 
L 90.688846 -399.089886 
L 90.688091 -399.588588 
L 90.686885 -400.087289 
L 90.684984 -400.58599 
L 90.682031 -401.084692 
L 90.677508 -401.583393 
L 90.67068 -402.082094 
L 90.660517 -402.580795 
L 90.645609 -403.079497 
L 90.624052 -403.578198 
L 90.593334 -404.076899 
L 90.550196 -404.575601 
L 90.490502 -405.074302 
L 90.409113 -405.573003 
L 90.299792 -406.071705 
L 90.155147 -406.570406 
L 89.966656 -407.069107 
L 89.724775 -407.567808 
L 89.419178 -408.06651 
L 89.039126 -408.565211 
L 88.573998 -409.063912 
L 88.013969 -409.562614 
L 87.350827 -410.061315 
L 86.578885 -410.560016 
L 85.695947 -411.058718 
L 84.704237 -411.557419 
L 83.611214 -412.05612 
L 82.430173 -412.554821 
L 81.180539 -413.053523 
L 79.887762 -413.552224 
L 78.58278 -414.050925 
L 77.301004 -414.549627 
L 76.080868 -415.048328 
L 74.961993 -415.547029 
L 73.983102 -416.045731 
L 73.179812 -416.544432 
L 72.582493 -417.043133 
L 72.214365 -417.541834 
L 72.09 -418.040536 
L 109.29 -418.040536 
L 109.29 -418.040536 
L 109.165635 -417.541834 
L 108.797507 -417.043133 
L 108.200188 -416.544432 
L 107.396898 -416.045731 
L 106.418007 -415.547029 
L 105.299132 -415.048328 
L 104.078996 -414.549627 
L 102.79722 -414.050925 
L 101.492238 -413.552224 
L 100.199461 -413.053523 
L 98.949827 -412.554821 
L 97.768786 -412.05612 
L 96.675763 -411.557419 
L 95.684053 -411.058718 
L 94.801115 -410.560016 
L 94.029173 -410.061315 
L 93.366031 -409.562614 
L 92.806002 -409.063912 
L 92.340874 -408.565211 
L 91.960822 -408.06651 
L 91.655225 -407.567808 
L 91.413344 -407.069107 
L 91.224853 -406.570406 
L 91.080208 -406.071705 
L 90.970887 -405.573003 
L 90.889498 -405.074302 
L 90.829804 -404.575601 
L 90.786666 -404.076899 
L 90.755948 -403.578198 
L 90.734391 -403.079497 
L 90.719483 -402.580795 
L 90.70932 -402.082094 
L 90.702492 -401.583393 
L 90.697969 -401.084692 
L 90.695016 -400.58599 
L 90.693115 -400.087289 
L 90.691909 -399.588588 
L 90.691154 -399.089886 
L 90.690689 -398.591185 
L 90.690405 -398.092484 
L 90.690235 -397.593782 
L 90.690135 -397.095081 
L 90.690076 -396.59638 
L 90.690043 -396.097679 
L 90.690023 -395.598977 
L 90.690013 -395.100276 
L 90.690007 -394.601575 
L 90.690004 -394.102873 
L 90.690002 -393.604172 
L 90.690001 -393.105471 
L 90.690001 -392.606769 
L 90.690001 -392.108068 
L 90.690001 -391.609367 
L 90.690001 -391.110666 
L 90.690002 -390.611964 
L 90.690004 -390.113263 
L 90.690007 -389.614562 
L 90.690012 -389.11586 
L 90.690021 -388.617159 
L 90.690036 -388.118458 
L 90.690061 -387.619756 
L 90.6901 -387.121055 
L 90.690164 -386.622354 
L 90.690264 -386.123653 
L 90.690419 -385.624951 
L 90.690657 -385.12625 
L 90.691017 -384.627549 
L 90.691552 -384.128847 
L 90.692336 -383.630146 
L 90.693471 -383.131445 
L 90.695088 -382.632744 
L 90.697358 -382.134042 
L 90.7005 -381.635341 
L 90.704784 -381.13664 
L 90.710537 -380.637938 
L 90.71815 -380.139237 
L 90.728071 -379.640536 
L 90.740801 -379.141834 
L 90.756885 -378.643133 
L 90.776888 -378.144432 
L 90.801369 -377.645731 
L 90.830844 -377.147029 
L 90.865746 -376.648328 
L 90.906374 -376.149627 
L 90.952845 -375.650925 
L 91.00504 -375.152224 
L 91.062568 -374.653523 
L 91.124728 -374.154821 
L 91.190498 -373.65612 
L 91.258539 -373.157419 
L 91.327222 -372.658718 
L 91.394684 -372.160016 
L 91.458902 -371.661315 
L 91.51779 -371.162614 
L 91.56931 -370.663912 
L 91.611589 -370.165211 
L 91.643027 -369.66651 
L 91.662402 -369.167808 
L 91.668947 -368.669107 
z
" id="mad8fec93e0" style="stroke:#000000;stroke-opacity:0.3;"/>
    </defs>
    <g clip-path="url(#pb07638c8a9)">
     <use style="fill:#bfbf00;fill-opacity:0.3;stroke:#000000;stroke-opacity:0.3;" x="0.0" xlink:href="#mad8fec93e0" y="465.868"/>
    </g>
   </g>
   <g id="PolyCollection_2">
    <defs>
     <path d="M 178.558989 -319.297679 
L 151.621011 -319.297679 
L 151.638604 -319.79638 
L 151.69127 -320.295081 
L 151.778597 -320.793782 
L 151.899903 -321.292484 
L 152.054243 -321.791185 
L 152.240428 -322.289886 
L 152.457034 -322.788588 
L 152.702421 -323.287289 
L 152.974756 -323.78599 
L 153.272033 -324.284692 
L 153.592098 -324.783393 
L 153.932676 -325.282094 
L 154.291393 -325.780795 
L 154.66581 -326.279497 
L 155.053443 -326.778198 
L 155.451792 -327.276899 
L 155.858368 -327.775601 
L 156.270715 -328.274302 
L 156.686435 -328.773003 
L 157.103206 -329.271705 
L 157.518802 -329.770406 
L 157.931112 -330.269107 
L 158.338148 -330.767808 
L 158.738064 -331.26651 
L 159.129157 -331.765211 
L 159.50988 -332.263912 
L 159.878838 -332.762614 
L 160.234795 -333.261315 
L 160.576671 -333.760016 
L 160.903535 -334.258718 
L 161.214603 -334.757419 
L 161.509228 -335.25612 
L 161.786889 -335.754821 
L 162.047185 -336.253523 
L 162.289818 -336.752224 
L 162.514582 -337.250925 
L 162.72135 -337.749627 
L 162.91006 -338.248328 
L 163.080699 -338.747029 
L 163.233292 -339.245731 
L 163.367889 -339.744432 
L 163.484546 -340.243133 
L 163.58332 -340.741834 
L 163.664256 -341.240536 
L 163.727376 -341.739237 
L 163.772668 -342.237938 
L 163.800085 -342.73664 
L 163.809536 -343.235341 
L 163.800879 -343.734042 
L 163.773926 -344.232744 
L 163.728435 -344.731445 
L 163.664118 -345.230146 
L 163.58064 -345.728847 
L 163.477626 -346.227549 
L 163.354669 -346.72625 
L 163.211334 -347.224951 
L 163.047175 -347.723653 
L 162.861743 -348.222354 
L 162.654599 -348.721055 
L 162.425332 -349.219756 
L 162.173572 -349.718458 
L 161.899007 -350.217159 
L 161.601403 -350.71586 
L 161.280616 -351.214562 
L 160.936618 -351.713263 
L 160.569508 -352.211964 
L 160.179532 -352.710666 
L 159.767099 -353.209367 
L 159.332798 -353.708068 
L 158.877406 -354.206769 
L 158.401906 -354.705471 
L 157.907494 -355.204172 
L 157.395586 -355.702873 
L 156.867821 -356.201575 
L 156.326064 -356.700276 
L 155.772404 -357.198977 
L 155.209147 -357.697679 
L 154.638807 -358.19638 
L 154.064096 -358.695081 
L 153.487902 -359.193782 
L 152.913276 -359.692484 
L 152.343404 -360.191185 
L 151.781583 -360.689886 
L 151.23119 -361.188588 
L 150.69565 -361.687289 
L 150.178406 -362.18599 
L 149.682879 -362.684692 
L 149.212432 -363.183393 
L 148.770337 -363.682094 
L 148.359731 -364.180795 
L 147.983584 -364.679497 
L 147.644665 -365.178198 
L 147.345502 -365.676899 
L 147.088357 -366.175601 
L 146.875195 -366.674302 
L 146.707658 -367.173003 
L 146.587048 -367.671705 
L 146.514305 -368.170406 
L 146.49 -368.669107 
L 183.69 -368.669107 
L 183.69 -368.669107 
L 183.665695 -368.170406 
L 183.592952 -367.671705 
L 183.472342 -367.173003 
L 183.304805 -366.674302 
L 183.091643 -366.175601 
L 182.834498 -365.676899 
L 182.535335 -365.178198 
L 182.196416 -364.679497 
L 181.820269 -364.180795 
L 181.409663 -363.682094 
L 180.967568 -363.183393 
L 180.497121 -362.684692 
L 180.001594 -362.18599 
L 179.48435 -361.687289 
L 178.94881 -361.188588 
L 178.398417 -360.689886 
L 177.836596 -360.191185 
L 177.266724 -359.692484 
L 176.692098 -359.193782 
L 176.115904 -358.695081 
L 175.541193 -358.19638 
L 174.970853 -357.697679 
L 174.407596 -357.198977 
L 173.853936 -356.700276 
L 173.312179 -356.201575 
L 172.784414 -355.702873 
L 172.272506 -355.204172 
L 171.778094 -354.705471 
L 171.302594 -354.206769 
L 170.847202 -353.708068 
L 170.412901 -353.209367 
L 170.000468 -352.710666 
L 169.610492 -352.211964 
L 169.243382 -351.713263 
L 168.899384 -351.214562 
L 168.578597 -350.71586 
L 168.280993 -350.217159 
L 168.006428 -349.718458 
L 167.754668 -349.219756 
L 167.525401 -348.721055 
L 167.318257 -348.222354 
L 167.132825 -347.723653 
L 166.968666 -347.224951 
L 166.825331 -346.72625 
L 166.702374 -346.227549 
L 166.59936 -345.728847 
L 166.515882 -345.230146 
L 166.451565 -344.731445 
L 166.406074 -344.232744 
L 166.379121 -343.734042 
L 166.370464 -343.235341 
L 166.379915 -342.73664 
L 166.407332 -342.237938 
L 166.452624 -341.739237 
L 166.515744 -341.240536 
L 166.59668 -340.741834 
L 166.695454 -340.243133 
L 166.812111 -339.744432 
L 166.946708 -339.245731 
L 167.099301 -338.747029 
L 167.26994 -338.248328 
L 167.45865 -337.749627 
L 167.665418 -337.250925 
L 167.890182 -336.752224 
L 168.132815 -336.253523 
L 168.393111 -335.754821 
L 168.670772 -335.25612 
L 168.965397 -334.757419 
L 169.276465 -334.258718 
L 169.603329 -333.760016 
L 169.945205 -333.261315 
L 170.301162 -332.762614 
L 170.67012 -332.263912 
L 171.050843 -331.765211 
L 171.441936 -331.26651 
L 171.841852 -330.767808 
L 172.248888 -330.269107 
L 172.661198 -329.770406 
L 173.076794 -329.271705 
L 173.493565 -328.773003 
L 173.909285 -328.274302 
L 174.321632 -327.775601 
L 174.728208 -327.276899 
L 175.126557 -326.778198 
L 175.51419 -326.279497 
L 175.888607 -325.780795 
L 176.247324 -325.282094 
L 176.587902 -324.783393 
L 176.907967 -324.284692 
L 177.205244 -323.78599 
L 177.477579 -323.287289 
L 177.722966 -322.788588 
L 177.939572 -322.289886 
L 178.125757 -321.791185 
L 178.280097 -321.292484 
L 178.401403 -320.793782 
L 178.48873 -320.295081 
L 178.541396 -319.79638 
L 178.558989 -319.297679 
z
" id="ma37830187b" style="stroke:#000000;stroke-opacity:0.3;"/>
    </defs>
    <g clip-path="url(#pb07638c8a9)">
     <use style="fill:#bfbf00;fill-opacity:0.3;stroke:#000000;stroke-opacity:0.3;" x="0.0" xlink:href="#ma37830187b" y="465.868"/>
    </g>
   </g>
   <g id="PolyCollection_3">
    <defs>
     <path d="M 242.213327 -171.183393 
L 236.766673 -171.183393 
L 236.496262 -173.676899 
L 236.194159 -176.170406 
L 235.856048 -178.663912 
L 235.478231 -181.157419 
L 235.058044 -183.650925 
L 234.594267 -186.144432 
L 234.087494 -188.637938 
L 233.540398 -191.131445 
L 232.957885 -193.624951 
L 232.347071 -196.118458 
L 231.717093 -198.611964 
L 231.078721 -201.105471 
L 230.4438 -203.598977 
L 229.824546 -206.092484 
L 229.232738 -208.58599 
L 228.678881 -211.079497 
L 228.17139 -213.573003 
L 227.7159 -216.06651 
L 227.314744 -218.560016 
L 226.966682 -221.053523 
L 226.66691 -223.547029 
L 226.407375 -226.040536 
L 226.177381 -228.534042 
L 225.964452 -231.027549 
L 225.75539 -233.521055 
L 225.537429 -236.014562 
L 225.299399 -238.508068 
L 225.032778 -241.001575 
L 224.732543 -243.495081 
L 224.397721 -245.988588 
L 224.031587 -248.482094 
L 223.641473 -250.975601 
L 223.238194 -253.469107 
L 222.835132 -255.962614 
L 222.447064 -258.45612 
L 222.088826 -260.949627 
L 221.773945 -263.443133 
L 221.513365 -265.93664 
L 221.314391 -268.430146 
L 221.179958 -270.923653 
L 221.108305 -273.417159 
L 221.093085 -275.910666 
L 221.123914 -278.404172 
L 221.187315 -280.897679 
L 221.267974 -283.391185 
L 221.35018 -285.884692 
L 221.41934 -288.378198 
L 221.463402 -290.871705 
L 221.474062 -293.365211 
L 221.44764 -295.858718 
L 221.385535 -298.352224 
L 221.294222 -300.845731 
L 221.184782 -303.339237 
L 221.072006 -305.832744 
L 220.973171 -308.32625 
L 220.906576 -310.819756 
L 220.89 -313.313263 
L 220.939196 -315.806769 
L 221.066575 -318.300276 
L 221.280187 -320.793782 
L 221.583083 -323.287289 
L 221.973106 -325.780795 
L 222.443126 -328.274302 
L 222.981668 -330.767808 
L 223.573886 -333.261315 
L 224.202763 -335.754821 
L 224.850439 -338.248328 
L 225.499538 -340.741834 
L 226.134374 -343.235341 
L 226.741954 -345.728847 
L 227.31268 -348.222354 
L 227.840727 -350.71586 
L 228.324075 -353.209367 
L 228.764219 -355.702873 
L 229.165613 -358.19638 
L 229.534902 -360.689886 
L 229.880045 -363.183393 
L 230.209409 -365.676899 
L 230.530913 -368.170406 
L 230.851311 -370.663912 
L 231.175649 -373.157419 
L 231.506945 -375.650925 
L 231.846098 -378.144432 
L 232.192006 -380.637938 
L 232.541877 -383.131445 
L 232.891672 -385.624951 
L 233.236633 -388.118458 
L 233.571844 -390.611964 
L 233.892748 -393.105471 
L 234.1956 -395.598977 
L 234.477801 -398.092484 
L 234.738091 -400.58599 
L 234.976611 -403.079497 
L 235.194819 -405.573003 
L 235.395295 -408.06651 
L 235.581454 -410.560016 
L 235.757206 -413.053523 
L 235.926598 -415.547029 
L 236.093472 -418.040536 
L 242.886528 -418.040536 
L 242.886528 -418.040536 
L 243.053402 -415.547029 
L 243.222794 -413.053523 
L 243.398546 -410.560016 
L 243.584705 -408.06651 
L 243.785181 -405.573003 
L 244.003389 -403.079497 
L 244.241909 -400.58599 
L 244.502199 -398.092484 
L 244.7844 -395.598977 
L 245.087252 -393.105471 
L 245.408156 -390.611964 
L 245.743367 -388.118458 
L 246.088328 -385.624951 
L 246.438123 -383.131445 
L 246.787994 -380.637938 
L 247.133902 -378.144432 
L 247.473055 -375.650925 
L 247.804351 -373.157419 
L 248.128689 -370.663912 
L 248.449087 -368.170406 
L 248.770591 -365.676899 
L 249.099955 -363.183393 
L 249.445098 -360.689886 
L 249.814387 -358.19638 
L 250.215781 -355.702873 
L 250.655925 -353.209367 
L 251.139273 -350.71586 
L 251.66732 -348.222354 
L 252.238046 -345.728847 
L 252.845626 -343.235341 
L 253.480462 -340.741834 
L 254.129561 -338.248328 
L 254.777237 -335.754821 
L 255.406114 -333.261315 
L 255.998332 -330.767808 
L 256.536874 -328.274302 
L 257.006894 -325.780795 
L 257.396917 -323.287289 
L 257.699813 -320.793782 
L 257.913425 -318.300276 
L 258.040804 -315.806769 
L 258.09 -313.313263 
L 258.073424 -310.819756 
L 258.006829 -308.32625 
L 257.907994 -305.832744 
L 257.795218 -303.339237 
L 257.685778 -300.845731 
L 257.594465 -298.352224 
L 257.53236 -295.858718 
L 257.505938 -293.365211 
L 257.516598 -290.871705 
L 257.56066 -288.378198 
L 257.62982 -285.884692 
L 257.712026 -283.391185 
L 257.792685 -280.897679 
L 257.856086 -278.404172 
L 257.886915 -275.910666 
L 257.871695 -273.417159 
L 257.800042 -270.923653 
L 257.665609 -268.430146 
L 257.466635 -265.93664 
L 257.206055 -263.443133 
L 256.891174 -260.949627 
L 256.532936 -258.45612 
L 256.144868 -255.962614 
L 255.741806 -253.469107 
L 255.338527 -250.975601 
L 254.948413 -248.482094 
L 254.582279 -245.988588 
L 254.247457 -243.495081 
L 253.947222 -241.001575 
L 253.680601 -238.508068 
L 253.442571 -236.014562 
L 253.22461 -233.521055 
L 253.015548 -231.027549 
L 252.802619 -228.534042 
L 252.572625 -226.040536 
L 252.31309 -223.547029 
L 252.013318 -221.053523 
L 251.665256 -218.560016 
L 251.2641 -216.06651 
L 250.80861 -213.573003 
L 250.301119 -211.079497 
L 249.747262 -208.58599 
L 249.155454 -206.092484 
L 248.5362 -203.598977 
L 247.901279 -201.105471 
L 247.262907 -198.611964 
L 246.632929 -196.118458 
L 246.022115 -193.624951 
L 245.439602 -191.131445 
L 244.892506 -188.637938 
L 244.385733 -186.144432 
L 243.921956 -183.650925 
L 243.501769 -181.157419 
L 243.123952 -178.663912 
L 242.785841 -176.170406 
L 242.483738 -173.676899 
L 242.213327 -171.183393 
z
" id="m3fb65bab6e" style="stroke:#000000;stroke-opacity:0.3;"/>
    </defs>
    <g clip-path="url(#pb07638c8a9)">
     <use style="fill:#bfbf00;fill-opacity:0.3;stroke:#000000;stroke-opacity:0.3;" x="0.0" xlink:href="#m3fb65bab6e" y="465.868"/>
    </g>
   </g>
   <g id="PolyCollection_4">
    <defs>
     <path d="M 314.260063 -121.811964 
L 313.519937 -121.811964 
L 313.519327 -123.308068 
L 313.521843 -124.804172 
L 313.526803 -126.300276 
L 313.533256 -127.79638 
L 313.539976 -129.292484 
L 313.545465 -130.788588 
L 313.547969 -132.284692 
L 313.54549 -133.780795 
L 313.535816 -135.276899 
L 313.516558 -136.773003 
L 313.485196 -138.269107 
L 313.439146 -139.765211 
L 313.375842 -141.261315 
L 313.292842 -142.757419 
L 313.187945 -144.253523 
L 313.059339 -145.749627 
L 312.905756 -147.245731 
L 312.726632 -148.741834 
L 312.522271 -150.237938 
L 312.293985 -151.734042 
L 312.0442 -153.230146 
L 311.776527 -154.72625 
L 311.495752 -156.222354 
L 311.207771 -157.718458 
L 310.919428 -159.214562 
L 310.638289 -160.710666 
L 310.372326 -162.206769 
L 310.129546 -163.702873 
L 309.917583 -165.198977 
L 309.743263 -166.695081 
L 309.612185 -168.191185 
L 309.528345 -169.687289 
L 309.493811 -171.183393 
L 309.508496 -172.679497 
L 309.570024 -174.175601 
L 309.673693 -175.671705 
L 309.812552 -177.167808 
L 309.977556 -178.663912 
L 310.157807 -180.160016 
L 310.340852 -181.65612 
L 310.513018 -183.152224 
L 310.659785 -184.648328 
L 310.766167 -186.144432 
L 310.817116 -187.640536 
L 310.797942 -189.13664 
L 310.694759 -190.632744 
L 310.49496 -192.128847 
L 310.187736 -193.624951 
L 309.764627 -195.121055 
L 309.220115 -196.617159 
L 308.552209 -198.113263 
L 307.763012 -199.609367 
L 306.859217 -201.105471 
L 305.852464 -202.601575 
L 304.759517 -204.097679 
L 303.602186 -205.593782 
L 302.40697 -207.089886 
L 301.204366 -208.58599 
L 300.027873 -210.082094 
L 298.912691 -211.578198 
L 297.894187 -213.074302 
L 297.006215 -214.570406 
L 296.279382 -216.06651 
L 295.739403 -217.562614 
L 295.405648 -219.058718 
L 295.29 -220.554821 
L 295.39612 -222.050925 
L 295.719166 -223.547029 
L 296.245989 -225.043133 
L 296.9558 -226.539237 
L 297.821232 -228.035341 
L 298.809722 -229.531445 
L 299.885103 -231.027549 
L 301.009289 -232.523653 
L 302.143937 -234.019756 
L 303.251985 -235.51586 
L 304.298999 -237.011964 
L 305.254261 -238.508068 
L 306.091589 -240.004172 
L 306.789903 -241.500276 
L 307.333539 -242.99638 
L 307.712375 -244.492484 
L 307.921803 -245.988588 
L 307.962588 -247.484692 
L 307.840652 -248.980795 
L 307.566796 -250.476899 
L 307.156365 -251.973003 
L 306.628841 -253.469107 
L 306.007355 -254.965211 
L 305.318085 -256.461315 
L 304.589521 -257.957419 
L 303.851602 -259.453523 
L 303.134716 -260.949627 
L 302.4686 -262.445731 
L 301.881185 -263.941834 
L 301.397446 -265.437938 
L 301.038326 -266.934042 
L 300.819822 -268.430146 
L 300.752296 -269.92625 
L 327.027704 -269.92625 
L 327.027704 -269.92625 
L 326.960178 -268.430146 
L 326.741674 -266.934042 
L 326.382554 -265.437938 
L 325.898815 -263.941834 
L 325.3114 -262.445731 
L 324.645284 -260.949627 
L 323.928398 -259.453523 
L 323.190479 -257.957419 
L 322.461915 -256.461315 
L 321.772645 -254.965211 
L 321.151159 -253.469107 
L 320.623635 -251.973003 
L 320.213204 -250.476899 
L 319.939348 -248.980795 
L 319.817412 -247.484692 
L 319.858197 -245.988588 
L 320.067625 -244.492484 
L 320.446461 -242.99638 
L 320.990097 -241.500276 
L 321.688411 -240.004172 
L 322.525739 -238.508068 
L 323.481001 -237.011964 
L 324.528015 -235.51586 
L 325.636063 -234.019756 
L 326.770711 -232.523653 
L 327.894897 -231.027549 
L 328.970278 -229.531445 
L 329.958768 -228.035341 
L 330.8242 -226.539237 
L 331.534011 -225.043133 
L 332.060834 -223.547029 
L 332.38388 -222.050925 
L 332.49 -220.554821 
L 332.374352 -219.058718 
L 332.040597 -217.562614 
L 331.500618 -216.06651 
L 330.773785 -214.570406 
L 329.885813 -213.074302 
L 328.867309 -211.578198 
L 327.752127 -210.082094 
L 326.575634 -208.58599 
L 325.37303 -207.089886 
L 324.177814 -205.593782 
L 323.020483 -204.097679 
L 321.927536 -202.601575 
L 320.920783 -201.105471 
L 320.016988 -199.609367 
L 319.227791 -198.113263 
L 318.559885 -196.617159 
L 318.015373 -195.121055 
L 317.592264 -193.624951 
L 317.28504 -192.128847 
L 317.085241 -190.632744 
L 316.982058 -189.13664 
L 316.962884 -187.640536 
L 317.013833 -186.144432 
L 317.120215 -184.648328 
L 317.266982 -183.152224 
L 317.439148 -181.65612 
L 317.622193 -180.160016 
L 317.802444 -178.663912 
L 317.967448 -177.167808 
L 318.106307 -175.671705 
L 318.209976 -174.175601 
L 318.271504 -172.679497 
L 318.286189 -171.183393 
L 318.251655 -169.687289 
L 318.167815 -168.191185 
L 318.036737 -166.695081 
L 317.862417 -165.198977 
L 317.650454 -163.702873 
L 317.407674 -162.206769 
L 317.141711 -160.710666 
L 316.860572 -159.214562 
L 316.572229 -157.718458 
L 316.284248 -156.222354 
L 316.003473 -154.72625 
L 315.7358 -153.230146 
L 315.486015 -151.734042 
L 315.257729 -150.237938 
L 315.053368 -148.741834 
L 314.874244 -147.245731 
L 314.720661 -145.749627 
L 314.592055 -144.253523 
L 314.487158 -142.757419 
L 314.404158 -141.261315 
L 314.340854 -139.765211 
L 314.294804 -138.269107 
L 314.263442 -136.773003 
L 314.244184 -135.276899 
L 314.23451 -133.780795 
L 314.232031 -132.284692 
L 314.234535 -130.788588 
L 314.240024 -129.292484 
L 314.246744 -127.79638 
L 314.253197 -126.300276 
L 314.258157 -124.804172 
L 314.260673 -123.308068 
L 314.260063 -121.811964 
z
" id="m88c6cf6810" style="stroke:#000000;stroke-opacity:0.3;"/>
    </defs>
    <g clip-path="url(#pb07638c8a9)">
     <use style="fill:#bfbf00;fill-opacity:0.3;stroke:#000000;stroke-opacity:0.3;" x="0.0" xlink:href="#m88c6cf6810" y="465.868"/>
    </g>
   </g>
   <g id="PolyCollection_5">
    <defs>
     <path d="M 389.931214 -121.811964 
L 386.648786 -121.811964 
L 386.645835 -123.308068 
L 386.65644 -124.804172 
L 386.677765 -126.300276 
L 386.70586 -127.79638 
L 386.735665 -129.292484 
L 386.761035 -130.788588 
L 386.77481 -132.284692 
L 386.7689 -133.780795 
L 386.734418 -135.276899 
L 386.661848 -136.773003 
L 386.541262 -138.269107 
L 386.362593 -139.765211 
L 386.115977 -141.261315 
L 385.792157 -142.757419 
L 385.382963 -144.253523 
L 384.881846 -145.749627 
L 384.28446 -147.245731 
L 383.589251 -148.741834 
L 382.798026 -150.237938 
L 381.916443 -151.734042 
L 380.954379 -153.230146 
L 379.926118 -154.72625 
L 378.850304 -156.222354 
L 377.749636 -157.718458 
L 376.650276 -159.214562 
L 375.58097 -160.710666 
L 374.571915 -162.206769 
L 373.653426 -163.702873 
L 372.854468 -165.198977 
L 372.201156 -166.695081 
L 371.71532 -168.191185 
L 371.41324 -169.687289 
L 371.30464 -171.183393 
L 371.392028 -172.679497 
L 371.670411 -174.175601 
L 372.127426 -175.671705 
L 372.743853 -177.167808 
L 373.494478 -178.663912 
L 374.349233 -180.160016 
L 375.274522 -181.65612 
L 376.234655 -183.152224 
L 377.193282 -184.648328 
L 378.114759 -186.144432 
L 378.965381 -187.640536 
L 379.714448 -189.13664 
L 380.335137 -190.632744 
L 380.805185 -192.128847 
L 381.107414 -193.624951 
L 381.230097 -195.121055 
L 381.167215 -196.617159 
L 380.918602 -198.113263 
L 380.490014 -199.609367 
L 379.893081 -201.105471 
L 379.145165 -202.601575 
L 378.269054 -204.097679 
L 377.292497 -205.593782 
L 376.247525 -207.089886 
L 375.169553 -208.58599 
L 374.096249 -210.082094 
L 373.066208 -211.578198 
L 372.117465 -213.074302 
L 371.285913 -214.570406 
L 370.603729 -216.06651 
L 370.0979 -217.562614 
L 369.788955 -219.058718 
L 369.69 -220.554821 
L 369.806127 -222.050925 
L 370.134255 -223.547029 
L 370.663415 -225.043133 
L 371.375458 -226.539237 
L 372.246137 -228.035341 
L 373.246475 -229.531445 
L 374.344326 -231.027549 
L 375.506008 -232.523653 
L 376.697907 -234.019756 
L 377.887938 -235.51586 
L 379.046793 -237.011964 
L 380.148918 -238.508068 
L 381.173186 -240.004172 
L 382.103266 -241.500276 
L 382.927709 -242.99638 
L 383.639794 -244.492484 
L 384.237179 -245.988588 
L 384.721419 -247.484692 
L 385.097394 -248.980795 
L 385.372715 -250.476899 
L 385.557122 -251.973003 
L 385.66192 -253.469107 
L 385.699454 -254.965211 
L 385.682642 -256.461315 
L 385.624556 -257.957419 
L 385.538043 -259.453523 
L 385.4354 -260.949627 
L 385.328068 -262.445731 
L 385.22637 -263.941834 
L 385.139282 -265.437938 
L 385.074244 -266.934042 
L 385.03702 -268.430146 
L 385.031614 -269.92625 
L 391.548386 -269.92625 
L 391.548386 -269.92625 
L 391.54298 -268.430146 
L 391.505756 -266.934042 
L 391.440718 -265.437938 
L 391.35363 -263.941834 
L 391.251932 -262.445731 
L 391.1446 -260.949627 
L 391.041957 -259.453523 
L 390.955444 -257.957419 
L 390.897358 -256.461315 
L 390.880546 -254.965211 
L 390.91808 -253.469107 
L 391.022878 -251.973003 
L 391.207285 -250.476899 
L 391.482606 -248.980795 
L 391.858581 -247.484692 
L 392.342821 -245.988588 
L 392.940206 -244.492484 
L 393.652291 -242.99638 
L 394.476734 -241.500276 
L 395.406814 -240.004172 
L 396.431082 -238.508068 
L 397.533207 -237.011964 
L 398.692062 -235.51586 
L 399.882093 -234.019756 
L 401.073992 -232.523653 
L 402.235674 -231.027549 
L 403.333525 -229.531445 
L 404.333863 -228.035341 
L 405.204542 -226.539237 
L 405.916585 -225.043133 
L 406.445745 -223.547029 
L 406.773873 -222.050925 
L 406.89 -220.554821 
L 406.791045 -219.058718 
L 406.4821 -217.562614 
L 405.976271 -216.06651 
L 405.294087 -214.570406 
L 404.462535 -213.074302 
L 403.513792 -211.578198 
L 402.483751 -210.082094 
L 401.410447 -208.58599 
L 400.332475 -207.089886 
L 399.287503 -205.593782 
L 398.310946 -204.097679 
L 397.434835 -202.601575 
L 396.686919 -201.105471 
L 396.089986 -199.609367 
L 395.661398 -198.113263 
L 395.412785 -196.617159 
L 395.349903 -195.121055 
L 395.472586 -193.624951 
L 395.774815 -192.128847 
L 396.244863 -190.632744 
L 396.865552 -189.13664 
L 397.614619 -187.640536 
L 398.465241 -186.144432 
L 399.386718 -184.648328 
L 400.345345 -183.152224 
L 401.305478 -181.65612 
L 402.230767 -180.160016 
L 403.085522 -178.663912 
L 403.836147 -177.167808 
L 404.452574 -175.671705 
L 404.909589 -174.175601 
L 405.187972 -172.679497 
L 405.27536 -171.183393 
L 405.16676 -169.687289 
L 404.86468 -168.191185 
L 404.378844 -166.695081 
L 403.725532 -165.198977 
L 402.926574 -163.702873 
L 402.008085 -162.206769 
L 400.99903 -160.710666 
L 399.929724 -159.214562 
L 398.830364 -157.718458 
L 397.729696 -156.222354 
L 396.653882 -154.72625 
L 395.625621 -153.230146 
L 394.663557 -151.734042 
L 393.781974 -150.237938 
L 392.990749 -148.741834 
L 392.29554 -147.245731 
L 391.698154 -145.749627 
L 391.197037 -144.253523 
L 390.787843 -142.757419 
L 390.464023 -141.261315 
L 390.217407 -139.765211 
L 390.038738 -138.269107 
L 389.918152 -136.773003 
L 389.845582 -135.276899 
L 389.8111 -133.780795 
L 389.80519 -132.284692 
L 389.818965 -130.788588 
L 389.844335 -129.292484 
L 389.87414 -127.79638 
L 389.902235 -126.300276 
L 389.92356 -124.804172 
L 389.934165 -123.308068 
L 389.931214 -121.811964 
z
" id="m4410887ac4" style="stroke:#000000;stroke-opacity:0.3;"/>
    </defs>
    <g clip-path="url(#pb07638c8a9)">
     <use style="fill:#bfbf00;fill-opacity:0.3;stroke:#000000;stroke-opacity:0.3;" x="0.0" xlink:href="#m4410887ac4" y="465.868"/>
    </g>
   </g>
   <g id="PolyCollection_6">
    <defs>
     <path d="M 481.29 -121.811964 
L 444.09 -121.811964 
L 444.09 -121.811964 
L 444.09 -121.811964 
L 444.09 -121.811964 
L 444.09 -121.811964 
L 444.09 -121.811964 
L 444.09 -121.811964 
L 444.09 -121.811964 
L 444.09 -121.811964 
L 444.09 -121.811964 
L 444.09 -121.811964 
L 444.09 -121.811964 
L 444.09 -121.811964 
L 444.09 -121.811964 
L 444.09 -121.811964 
L 444.09 -121.811964 
L 444.09 -121.811964 
L 444.09 -121.811964 
L 444.09 -121.811964 
L 444.09 -121.811964 
L 444.09 -121.811964 
L 444.09 -121.811964 
L 444.09 -121.811964 
L 444.09 -121.811964 
L 444.09 -121.811964 
L 444.09 -121.811964 
L 444.09 -121.811964 
L 444.09 -121.811964 
L 444.09 -121.811964 
L 444.09 -121.811964 
L 444.09 -121.811964 
L 444.09 -121.811964 
L 444.09 -121.811964 
L 444.09 -121.811964 
L 444.09 -121.811964 
L 444.09 -121.811964 
L 444.09 -121.811964 
L 444.09 -121.811964 
L 444.09 -121.811964 
L 444.09 -121.811964 
L 444.09 -121.811964 
L 444.09 -121.811964 
L 444.09 -121.811964 
L 444.09 -121.811964 
L 444.09 -121.811964 
L 444.09 -121.811964 
L 444.09 -121.811964 
L 444.09 -121.811964 
L 444.09 -121.811964 
L 444.09 -121.811964 
L 444.09 -121.811964 
L 444.09 -121.811964 
L 444.09 -121.811964 
L 444.09 -121.811964 
L 444.09 -121.811964 
L 444.09 -121.811964 
L 444.09 -121.811964 
L 444.09 -121.811964 
L 444.09 -121.811964 
L 444.09 -121.811964 
L 444.09 -121.811964 
L 444.09 -121.811964 
L 444.09 -121.811964 
L 444.09 -121.811964 
L 444.09 -121.811964 
L 444.09 -121.811964 
L 444.09 -121.811964 
L 444.09 -121.811964 
L 444.09 -121.811964 
L 444.09 -121.811964 
L 444.09 -121.811964 
L 444.09 -121.811964 
L 444.09 -121.811964 
L 444.09 -121.811964 
L 444.09 -121.811964 
L 444.09 -121.811964 
L 444.09 -121.811964 
L 444.09 -121.811964 
L 444.09 -121.811964 
L 444.09 -121.811964 
L 444.09 -121.811964 
L 444.09 -121.811964 
L 444.09 -121.811964 
L 444.09 -121.811964 
L 444.09 -121.811964 
L 444.09 -121.811964 
L 444.09 -121.811964 
L 444.09 -121.811964 
L 444.09 -121.811964 
L 444.09 -121.811964 
L 444.09 -121.811964 
L 444.09 -121.811964 
L 444.09 -121.811964 
L 444.09 -121.811964 
L 444.09 -121.811964 
L 444.09 -121.811964 
L 444.09 -121.811964 
L 444.09 -121.811964 
L 444.09 -121.811964 
L 444.09 -121.811964 
L 481.29 -121.811964 
L 481.29 -121.811964 
L 481.29 -121.811964 
L 481.29 -121.811964 
L 481.29 -121.811964 
L 481.29 -121.811964 
L 481.29 -121.811964 
L 481.29 -121.811964 
L 481.29 -121.811964 
L 481.29 -121.811964 
L 481.29 -121.811964 
L 481.29 -121.811964 
L 481.29 -121.811964 
L 481.29 -121.811964 
L 481.29 -121.811964 
L 481.29 -121.811964 
L 481.29 -121.811964 
L 481.29 -121.811964 
L 481.29 -121.811964 
L 481.29 -121.811964 
L 481.29 -121.811964 
L 481.29 -121.811964 
L 481.29 -121.811964 
L 481.29 -121.811964 
L 481.29 -121.811964 
L 481.29 -121.811964 
L 481.29 -121.811964 
L 481.29 -121.811964 
L 481.29 -121.811964 
L 481.29 -121.811964 
L 481.29 -121.811964 
L 481.29 -121.811964 
L 481.29 -121.811964 
L 481.29 -121.811964 
L 481.29 -121.811964 
L 481.29 -121.811964 
L 481.29 -121.811964 
L 481.29 -121.811964 
L 481.29 -121.811964 
L 481.29 -121.811964 
L 481.29 -121.811964 
L 481.29 -121.811964 
L 481.29 -121.811964 
L 481.29 -121.811964 
L 481.29 -121.811964 
L 481.29 -121.811964 
L 481.29 -121.811964 
L 481.29 -121.811964 
L 481.29 -121.811964 
L 481.29 -121.811964 
L 481.29 -121.811964 
L 481.29 -121.811964 
L 481.29 -121.811964 
L 481.29 -121.811964 
L 481.29 -121.811964 
L 481.29 -121.811964 
L 481.29 -121.811964 
L 481.29 -121.811964 
L 481.29 -121.811964 
L 481.29 -121.811964 
L 481.29 -121.811964 
L 481.29 -121.811964 
L 481.29 -121.811964 
L 481.29 -121.811964 
L 481.29 -121.811964 
L 481.29 -121.811964 
L 481.29 -121.811964 
L 481.29 -121.811964 
L 481.29 -121.811964 
L 481.29 -121.811964 
L 481.29 -121.811964 
L 481.29 -121.811964 
L 481.29 -121.811964 
L 481.29 -121.811964 
L 481.29 -121.811964 
L 481.29 -121.811964 
L 481.29 -121.811964 
L 481.29 -121.811964 
L 481.29 -121.811964 
L 481.29 -121.811964 
L 481.29 -121.811964 
L 481.29 -121.811964 
L 481.29 -121.811964 
L 481.29 -121.811964 
L 481.29 -121.811964 
L 481.29 -121.811964 
L 481.29 -121.811964 
L 481.29 -121.811964 
L 481.29 -121.811964 
L 481.29 -121.811964 
L 481.29 -121.811964 
L 481.29 -121.811964 
L 481.29 -121.811964 
L 481.29 -121.811964 
L 481.29 -121.811964 
L 481.29 -121.811964 
L 481.29 -121.811964 
L 481.29 -121.811964 
L 481.29 -121.811964 
L 481.29 -121.811964 
L 481.29 -121.811964 
z
" id="mc8ebd85b74" style="stroke:#000000;stroke-opacity:0.3;"/>
    </defs>
    <g clip-path="url(#pb07638c8a9)">
     <use style="fill:#bfbf00;fill-opacity:0.3;stroke:#000000;stroke-opacity:0.3;" x="0.0" xlink:href="#mc8ebd85b74" y="465.868"/>
    </g>
   </g>
   <g id="PolyCollection_7">
    <defs>
     <path d="M 555.69 -121.811964 
L 518.49 -121.811964 
L 518.49 -121.811964 
L 518.49 -121.811964 
L 518.49 -121.811964 
L 518.49 -121.811964 
L 518.49 -121.811964 
L 518.49 -121.811964 
L 518.49 -121.811964 
L 518.49 -121.811964 
L 518.49 -121.811964 
L 518.49 -121.811964 
L 518.49 -121.811964 
L 518.49 -121.811964 
L 518.49 -121.811964 
L 518.49 -121.811964 
L 518.49 -121.811964 
L 518.49 -121.811964 
L 518.49 -121.811964 
L 518.49 -121.811964 
L 518.49 -121.811964 
L 518.49 -121.811964 
L 518.49 -121.811964 
L 518.49 -121.811964 
L 518.49 -121.811964 
L 518.49 -121.811964 
L 518.49 -121.811964 
L 518.49 -121.811964 
L 518.49 -121.811964 
L 518.49 -121.811964 
L 518.49 -121.811964 
L 518.49 -121.811964 
L 518.49 -121.811964 
L 518.49 -121.811964 
L 518.49 -121.811964 
L 518.49 -121.811964 
L 518.49 -121.811964 
L 518.49 -121.811964 
L 518.49 -121.811964 
L 518.49 -121.811964 
L 518.49 -121.811964 
L 518.49 -121.811964 
L 518.49 -121.811964 
L 518.49 -121.811964 
L 518.49 -121.811964 
L 518.49 -121.811964 
L 518.49 -121.811964 
L 518.49 -121.811964 
L 518.49 -121.811964 
L 518.49 -121.811964 
L 518.49 -121.811964 
L 518.49 -121.811964 
L 518.49 -121.811964 
L 518.49 -121.811964 
L 518.49 -121.811964 
L 518.49 -121.811964 
L 518.49 -121.811964 
L 518.49 -121.811964 
L 518.49 -121.811964 
L 518.49 -121.811964 
L 518.49 -121.811964 
L 518.49 -121.811964 
L 518.49 -121.811964 
L 518.49 -121.811964 
L 518.49 -121.811964 
L 518.49 -121.811964 
L 518.49 -121.811964 
L 518.49 -121.811964 
L 518.49 -121.811964 
L 518.49 -121.811964 
L 518.49 -121.811964 
L 518.49 -121.811964 
L 518.49 -121.811964 
L 518.49 -121.811964 
L 518.49 -121.811964 
L 518.49 -121.811964 
L 518.49 -121.811964 
L 518.49 -121.811964 
L 518.49 -121.811964 
L 518.49 -121.811964 
L 518.49 -121.811964 
L 518.49 -121.811964 
L 518.49 -121.811964 
L 518.49 -121.811964 
L 518.49 -121.811964 
L 518.49 -121.811964 
L 518.49 -121.811964 
L 518.49 -121.811964 
L 518.49 -121.811964 
L 518.49 -121.811964 
L 518.49 -121.811964 
L 518.49 -121.811964 
L 518.49 -121.811964 
L 518.49 -121.811964 
L 518.49 -121.811964 
L 518.49 -121.811964 
L 518.49 -121.811964 
L 518.49 -121.811964 
L 518.49 -121.811964 
L 518.49 -121.811964 
L 518.49 -121.811964 
L 555.69 -121.811964 
L 555.69 -121.811964 
L 555.69 -121.811964 
L 555.69 -121.811964 
L 555.69 -121.811964 
L 555.69 -121.811964 
L 555.69 -121.811964 
L 555.69 -121.811964 
L 555.69 -121.811964 
L 555.69 -121.811964 
L 555.69 -121.811964 
L 555.69 -121.811964 
L 555.69 -121.811964 
L 555.69 -121.811964 
L 555.69 -121.811964 
L 555.69 -121.811964 
L 555.69 -121.811964 
L 555.69 -121.811964 
L 555.69 -121.811964 
L 555.69 -121.811964 
L 555.69 -121.811964 
L 555.69 -121.811964 
L 555.69 -121.811964 
L 555.69 -121.811964 
L 555.69 -121.811964 
L 555.69 -121.811964 
L 555.69 -121.811964 
L 555.69 -121.811964 
L 555.69 -121.811964 
L 555.69 -121.811964 
L 555.69 -121.811964 
L 555.69 -121.811964 
L 555.69 -121.811964 
L 555.69 -121.811964 
L 555.69 -121.811964 
L 555.69 -121.811964 
L 555.69 -121.811964 
L 555.69 -121.811964 
L 555.69 -121.811964 
L 555.69 -121.811964 
L 555.69 -121.811964 
L 555.69 -121.811964 
L 555.69 -121.811964 
L 555.69 -121.811964 
L 555.69 -121.811964 
L 555.69 -121.811964 
L 555.69 -121.811964 
L 555.69 -121.811964 
L 555.69 -121.811964 
L 555.69 -121.811964 
L 555.69 -121.811964 
L 555.69 -121.811964 
L 555.69 -121.811964 
L 555.69 -121.811964 
L 555.69 -121.811964 
L 555.69 -121.811964 
L 555.69 -121.811964 
L 555.69 -121.811964 
L 555.69 -121.811964 
L 555.69 -121.811964 
L 555.69 -121.811964 
L 555.69 -121.811964 
L 555.69 -121.811964 
L 555.69 -121.811964 
L 555.69 -121.811964 
L 555.69 -121.811964 
L 555.69 -121.811964 
L 555.69 -121.811964 
L 555.69 -121.811964 
L 555.69 -121.811964 
L 555.69 -121.811964 
L 555.69 -121.811964 
L 555.69 -121.811964 
L 555.69 -121.811964 
L 555.69 -121.811964 
L 555.69 -121.811964 
L 555.69 -121.811964 
L 555.69 -121.811964 
L 555.69 -121.811964 
L 555.69 -121.811964 
L 555.69 -121.811964 
L 555.69 -121.811964 
L 555.69 -121.811964 
L 555.69 -121.811964 
L 555.69 -121.811964 
L 555.69 -121.811964 
L 555.69 -121.811964 
L 555.69 -121.811964 
L 555.69 -121.811964 
L 555.69 -121.811964 
L 555.69 -121.811964 
L 555.69 -121.811964 
L 555.69 -121.811964 
L 555.69 -121.811964 
L 555.69 -121.811964 
L 555.69 -121.811964 
L 555.69 -121.811964 
L 555.69 -121.811964 
L 555.69 -121.811964 
L 555.69 -121.811964 
L 555.69 -121.811964 
z
" id="m14bc74b8bd" style="stroke:#000000;stroke-opacity:0.3;"/>
    </defs>
    <g clip-path="url(#pb07638c8a9)">
     <use style="fill:#bfbf00;fill-opacity:0.3;stroke:#000000;stroke-opacity:0.3;" x="0.0" xlink:href="#m14bc74b8bd" y="465.868"/>
    </g>
   </g>
   <g id="PolyCollection_8">
    <defs>
     <path d="M 630.09 -121.811964 
L 592.89 -121.811964 
L 592.89 -121.811964 
L 592.89 -121.811964 
L 592.89 -121.811964 
L 592.89 -121.811964 
L 592.89 -121.811964 
L 592.89 -121.811964 
L 592.89 -121.811964 
L 592.89 -121.811964 
L 592.89 -121.811964 
L 592.89 -121.811964 
L 592.89 -121.811964 
L 592.89 -121.811964 
L 592.89 -121.811964 
L 592.89 -121.811964 
L 592.89 -121.811964 
L 592.89 -121.811964 
L 592.89 -121.811964 
L 592.89 -121.811964 
L 592.89 -121.811964 
L 592.89 -121.811964 
L 592.89 -121.811964 
L 592.89 -121.811964 
L 592.89 -121.811964 
L 592.89 -121.811964 
L 592.89 -121.811964 
L 592.89 -121.811964 
L 592.89 -121.811964 
L 592.89 -121.811964 
L 592.89 -121.811964 
L 592.89 -121.811964 
L 592.89 -121.811964 
L 592.89 -121.811964 
L 592.89 -121.811964 
L 592.89 -121.811964 
L 592.89 -121.811964 
L 592.89 -121.811964 
L 592.89 -121.811964 
L 592.89 -121.811964 
L 592.89 -121.811964 
L 592.89 -121.811964 
L 592.89 -121.811964 
L 592.89 -121.811964 
L 592.89 -121.811964 
L 592.89 -121.811964 
L 592.89 -121.811964 
L 592.89 -121.811964 
L 592.89 -121.811964 
L 592.89 -121.811964 
L 592.89 -121.811964 
L 592.89 -121.811964 
L 592.89 -121.811964 
L 592.89 -121.811964 
L 592.89 -121.811964 
L 592.89 -121.811964 
L 592.89 -121.811964 
L 592.89 -121.811964 
L 592.89 -121.811964 
L 592.89 -121.811964 
L 592.89 -121.811964 
L 592.89 -121.811964 
L 592.89 -121.811964 
L 592.89 -121.811964 
L 592.89 -121.811964 
L 592.89 -121.811964 
L 592.89 -121.811964 
L 592.89 -121.811964 
L 592.89 -121.811964 
L 592.89 -121.811964 
L 592.89 -121.811964 
L 592.89 -121.811964 
L 592.89 -121.811964 
L 592.89 -121.811964 
L 592.89 -121.811964 
L 592.89 -121.811964 
L 592.89 -121.811964 
L 592.89 -121.811964 
L 592.89 -121.811964 
L 592.89 -121.811964 
L 592.89 -121.811964 
L 592.89 -121.811964 
L 592.89 -121.811964 
L 592.89 -121.811964 
L 592.89 -121.811964 
L 592.89 -121.811964 
L 592.89 -121.811964 
L 592.89 -121.811964 
L 592.89 -121.811964 
L 592.89 -121.811964 
L 592.89 -121.811964 
L 592.89 -121.811964 
L 592.89 -121.811964 
L 592.89 -121.811964 
L 592.89 -121.811964 
L 592.89 -121.811964 
L 592.89 -121.811964 
L 592.89 -121.811964 
L 592.89 -121.811964 
L 592.89 -121.811964 
L 592.89 -121.811964 
L 630.09 -121.811964 
L 630.09 -121.811964 
L 630.09 -121.811964 
L 630.09 -121.811964 
L 630.09 -121.811964 
L 630.09 -121.811964 
L 630.09 -121.811964 
L 630.09 -121.811964 
L 630.09 -121.811964 
L 630.09 -121.811964 
L 630.09 -121.811964 
L 630.09 -121.811964 
L 630.09 -121.811964 
L 630.09 -121.811964 
L 630.09 -121.811964 
L 630.09 -121.811964 
L 630.09 -121.811964 
L 630.09 -121.811964 
L 630.09 -121.811964 
L 630.09 -121.811964 
L 630.09 -121.811964 
L 630.09 -121.811964 
L 630.09 -121.811964 
L 630.09 -121.811964 
L 630.09 -121.811964 
L 630.09 -121.811964 
L 630.09 -121.811964 
L 630.09 -121.811964 
L 630.09 -121.811964 
L 630.09 -121.811964 
L 630.09 -121.811964 
L 630.09 -121.811964 
L 630.09 -121.811964 
L 630.09 -121.811964 
L 630.09 -121.811964 
L 630.09 -121.811964 
L 630.09 -121.811964 
L 630.09 -121.811964 
L 630.09 -121.811964 
L 630.09 -121.811964 
L 630.09 -121.811964 
L 630.09 -121.811964 
L 630.09 -121.811964 
L 630.09 -121.811964 
L 630.09 -121.811964 
L 630.09 -121.811964 
L 630.09 -121.811964 
L 630.09 -121.811964 
L 630.09 -121.811964 
L 630.09 -121.811964 
L 630.09 -121.811964 
L 630.09 -121.811964 
L 630.09 -121.811964 
L 630.09 -121.811964 
L 630.09 -121.811964 
L 630.09 -121.811964 
L 630.09 -121.811964 
L 630.09 -121.811964 
L 630.09 -121.811964 
L 630.09 -121.811964 
L 630.09 -121.811964 
L 630.09 -121.811964 
L 630.09 -121.811964 
L 630.09 -121.811964 
L 630.09 -121.811964 
L 630.09 -121.811964 
L 630.09 -121.811964 
L 630.09 -121.811964 
L 630.09 -121.811964 
L 630.09 -121.811964 
L 630.09 -121.811964 
L 630.09 -121.811964 
L 630.09 -121.811964 
L 630.09 -121.811964 
L 630.09 -121.811964 
L 630.09 -121.811964 
L 630.09 -121.811964 
L 630.09 -121.811964 
L 630.09 -121.811964 
L 630.09 -121.811964 
L 630.09 -121.811964 
L 630.09 -121.811964 
L 630.09 -121.811964 
L 630.09 -121.811964 
L 630.09 -121.811964 
L 630.09 -121.811964 
L 630.09 -121.811964 
L 630.09 -121.811964 
L 630.09 -121.811964 
L 630.09 -121.811964 
L 630.09 -121.811964 
L 630.09 -121.811964 
L 630.09 -121.811964 
L 630.09 -121.811964 
L 630.09 -121.811964 
L 630.09 -121.811964 
L 630.09 -121.811964 
L 630.09 -121.811964 
L 630.09 -121.811964 
L 630.09 -121.811964 
L 630.09 -121.811964 
z
" id="m2b7c7e8950" style="stroke:#000000;stroke-opacity:0.3;"/>
    </defs>
    <g clip-path="url(#pb07638c8a9)">
     <use style="fill:#bfbf00;fill-opacity:0.3;stroke:#000000;stroke-opacity:0.3;" x="0.0" xlink:href="#m2b7c7e8950" y="465.868"/>
    </g>
   </g>
   <g id="LineCollection_1">
    <path clip-path="url(#pb07638c8a9)" d="M 81.39 47.827464 
L 99.99 47.827464 
" style="fill:none;stroke:#ff0000;"/>
    <path clip-path="url(#pb07638c8a9)" d="M 155.79 97.198893 
L 174.39 97.198893 
" style="fill:none;stroke:#ff0000;"/>
    <path clip-path="url(#pb07638c8a9)" d="M 230.19 195.94175 
L 248.79 195.94175 
" style="fill:none;stroke:#ff0000;"/>
    <path clip-path="url(#pb07638c8a9)" d="M 304.59 245.313179 
L 323.19 245.313179 
" style="fill:none;stroke:#ff0000;"/>
    <path clip-path="url(#pb07638c8a9)" d="M 378.99 245.313179 
L 397.59 245.313179 
" style="fill:none;stroke:#ff0000;"/>
    <path clip-path="url(#pb07638c8a9)" d="M 453.39 344.056036 
L 471.99 344.056036 
" style="fill:none;stroke:#ff0000;"/>
    <path clip-path="url(#pb07638c8a9)" d="M 527.79 344.056036 
L 546.39 344.056036 
" style="fill:none;stroke:#ff0000;"/>
    <path clip-path="url(#pb07638c8a9)" d="M 602.19 344.056036 
L 620.79 344.056036 
" style="fill:none;stroke:#ff0000;"/>
   </g>
   <g id="patch_3">
    <path d="M 16.29 23.14175 
L 685.89 23.14175 
" style="fill:none;stroke:#000000;stroke-linecap:square;stroke-linejoin:miter;"/>
   </g>
   <g id="patch_4">
    <path d="M 16.29 368.74175 
L 16.29 23.14175 
" style="fill:none;stroke:#000000;stroke-linecap:square;stroke-linejoin:miter;"/>
   </g>
   <g id="patch_5">
    <path d="M 16.29 368.74175 
L 685.89 368.74175 
" style="fill:none;stroke:#000000;stroke-linecap:square;stroke-linejoin:miter;"/>
   </g>
   <g id="patch_6">
    <path d="M 685.89 368.74175 
L 685.89 23.14175 
" style="fill:none;stroke:#000000;stroke-linecap:square;stroke-linejoin:miter;"/>
   </g>
   <g id="matplotlib.axis_1">
    <g id="xtick_1">
     <g id="line2d_1">
      <defs>
       <path d="M 0 0 
L 0 -4 
" id="m56fbef8e5f" style="stroke:#000000;stroke-width:0.5;"/>
      </defs>
      <g>
       <use style="stroke:#000000;stroke-width:0.5;" x="90.69" xlink:href="#m56fbef8e5f" y="368.74175"/>
      </g>
     </g>
     <g id="line2d_2">
      <defs>
       <path d="M 0 0 
L 0 4 
" id="m71e511152f" style="stroke:#000000;stroke-width:0.5;"/>
      </defs>
      <g>
       <use style="stroke:#000000;stroke-width:0.5;" x="90.69" xlink:href="#m71e511152f" y="23.14175"/>
      </g>
     </g>
     <g id="text_1">
      <!-- Defector -->
      <defs>
       <path d="M 19.671875 64.796875 
L 19.671875 8.109375 
L 31.59375 8.109375 
Q 46.6875 8.109375 53.6875 14.9375 
Q 60.6875 21.78125 60.6875 36.53125 
Q 60.6875 51.171875 53.6875 57.984375 
Q 46.6875 64.796875 31.59375 64.796875 
z
M 9.8125 72.90625 
L 30.078125 72.90625 
Q 51.265625 72.90625 61.171875 64.09375 
Q 71.09375 55.28125 71.09375 36.53125 
Q 71.09375 17.671875 61.125 8.828125 
Q 51.171875 0 30.078125 0 
L 9.8125 0 
z
" id="BitstreamVeraSans-Roman-44"/>
       <path d="M 41.109375 46.296875 
Q 39.59375 47.171875 37.8125 47.578125 
Q 36.03125 48 33.890625 48 
Q 26.265625 48 22.1875 43.046875 
Q 18.109375 38.09375 18.109375 28.8125 
L 18.109375 0 
L 9.078125 0 
L 9.078125 54.6875 
L 18.109375 54.6875 
L 18.109375 46.1875 
Q 20.953125 51.171875 25.484375 53.578125 
Q 30.03125 56 36.53125 56 
Q 37.453125 56 38.578125 55.875 
Q 39.703125 55.765625 41.0625 55.515625 
z
" id="BitstreamVeraSans-Roman-72"/>
       <path d="M 18.3125 70.21875 
L 18.3125 54.6875 
L 36.8125 54.6875 
L 36.8125 47.703125 
L 18.3125 47.703125 
L 18.3125 18.015625 
Q 18.3125 11.328125 20.140625 9.421875 
Q 21.96875 7.515625 27.59375 7.515625 
L 36.8125 7.515625 
L 36.8125 0 
L 27.59375 0 
Q 17.1875 0 13.234375 3.875 
Q 9.28125 7.765625 9.28125 18.015625 
L 9.28125 47.703125 
L 2.6875 47.703125 
L 2.6875 54.6875 
L 9.28125 54.6875 
L 9.28125 70.21875 
z
" id="BitstreamVeraSans-Roman-74"/>
       <path d="M 30.609375 48.390625 
Q 23.390625 48.390625 19.1875 42.75 
Q 14.984375 37.109375 14.984375 27.296875 
Q 14.984375 17.484375 19.15625 11.84375 
Q 23.34375 6.203125 30.609375 6.203125 
Q 37.796875 6.203125 41.984375 11.859375 
Q 46.1875 17.53125 46.1875 27.296875 
Q 46.1875 37.015625 41.984375 42.703125 
Q 37.796875 48.390625 30.609375 48.390625 
M 30.609375 56 
Q 42.328125 56 49.015625 48.375 
Q 55.71875 40.765625 55.71875 27.296875 
Q 55.71875 13.875 49.015625 6.21875 
Q 42.328125 -1.421875 30.609375 -1.421875 
Q 18.84375 -1.421875 12.171875 6.21875 
Q 5.515625 13.875 5.515625 27.296875 
Q 5.515625 40.765625 12.171875 48.375 
Q 18.84375 56 30.609375 56 
" id="BitstreamVeraSans-Roman-6f"/>
       <path d="M 37.109375 75.984375 
L 37.109375 68.5 
L 28.515625 68.5 
Q 23.6875 68.5 21.796875 66.546875 
Q 19.921875 64.59375 19.921875 59.515625 
L 19.921875 54.6875 
L 34.71875 54.6875 
L 34.71875 47.703125 
L 19.921875 47.703125 
L 19.921875 0 
L 10.890625 0 
L 10.890625 47.703125 
L 2.296875 47.703125 
L 2.296875 54.6875 
L 10.890625 54.6875 
L 10.890625 58.5 
Q 10.890625 67.625 15.140625 71.796875 
Q 19.390625 75.984375 28.609375 75.984375 
z
" id="BitstreamVeraSans-Roman-66"/>
       <path d="M 48.78125 52.59375 
L 48.78125 44.1875 
Q 44.96875 46.296875 41.140625 47.34375 
Q 37.3125 48.390625 33.40625 48.390625 
Q 24.65625 48.390625 19.8125 42.84375 
Q 14.984375 37.3125 14.984375 27.296875 
Q 14.984375 17.28125 19.8125 11.734375 
Q 24.65625 6.203125 33.40625 6.203125 
Q 37.3125 6.203125 41.140625 7.25 
Q 44.96875 8.296875 48.78125 10.40625 
L 48.78125 2.09375 
Q 45.015625 0.34375 40.984375 -0.53125 
Q 36.96875 -1.421875 32.421875 -1.421875 
Q 20.0625 -1.421875 12.78125 6.34375 
Q 5.515625 14.109375 5.515625 27.296875 
Q 5.515625 40.671875 12.859375 48.328125 
Q 20.21875 56 33.015625 56 
Q 37.15625 56 41.109375 55.140625 
Q 45.0625 54.296875 48.78125 52.59375 
" id="BitstreamVeraSans-Roman-63"/>
       <path d="M 56.203125 29.59375 
L 56.203125 25.203125 
L 14.890625 25.203125 
Q 15.484375 15.921875 20.484375 11.0625 
Q 25.484375 6.203125 34.421875 6.203125 
Q 39.59375 6.203125 44.453125 7.46875 
Q 49.3125 8.734375 54.109375 11.28125 
L 54.109375 2.78125 
Q 49.265625 0.734375 44.1875 -0.34375 
Q 39.109375 -1.421875 33.890625 -1.421875 
Q 20.796875 -1.421875 13.15625 6.1875 
Q 5.515625 13.8125 5.515625 26.8125 
Q 5.515625 40.234375 12.765625 48.109375 
Q 20.015625 56 32.328125 56 
Q 43.359375 56 49.78125 48.890625 
Q 56.203125 41.796875 56.203125 29.59375 
M 47.21875 32.234375 
Q 47.125 39.59375 43.09375 43.984375 
Q 39.0625 48.390625 32.421875 48.390625 
Q 24.90625 48.390625 20.390625 44.140625 
Q 15.875 39.890625 15.1875 32.171875 
z
" id="BitstreamVeraSans-Roman-65"/>
      </defs>
      <g transform="translate(92.8975 407.28175)rotate(-90.0)scale(0.08 -0.08)">
       <use xlink:href="#BitstreamVeraSans-Roman-44"/>
       <use x="77.001953125" xlink:href="#BitstreamVeraSans-Roman-65"/>
       <use x="138.525390625" xlink:href="#BitstreamVeraSans-Roman-66"/>
       <use x="173.73046875" xlink:href="#BitstreamVeraSans-Roman-65"/>
       <use x="235.25390625" xlink:href="#BitstreamVeraSans-Roman-63"/>
       <use x="290.234375" xlink:href="#BitstreamVeraSans-Roman-74"/>
       <use x="329.443359375" xlink:href="#BitstreamVeraSans-Roman-6f"/>
       <use x="390.625" xlink:href="#BitstreamVeraSans-Roman-72"/>
      </g>
     </g>
    </g>
    <g id="xtick_2">
     <g id="line2d_3">
      <g>
       <use style="stroke:#000000;stroke-width:0.5;" x="165.09" xlink:href="#m56fbef8e5f" y="368.74175"/>
      </g>
     </g>
     <g id="line2d_4">
      <g>
       <use style="stroke:#000000;stroke-width:0.5;" x="165.09" xlink:href="#m71e511152f" y="23.14175"/>
      </g>
     </g>
     <g id="text_2">
      <!-- Bully -->
      <defs>
       <path d="M 19.671875 34.8125 
L 19.671875 8.109375 
L 35.5 8.109375 
Q 43.453125 8.109375 47.28125 11.40625 
Q 51.125 14.703125 51.125 21.484375 
Q 51.125 28.328125 47.28125 31.5625 
Q 43.453125 34.8125 35.5 34.8125 
z
M 19.671875 64.796875 
L 19.671875 42.828125 
L 34.28125 42.828125 
Q 41.5 42.828125 45.03125 45.53125 
Q 48.578125 48.25 48.578125 53.8125 
Q 48.578125 59.328125 45.03125 62.0625 
Q 41.5 64.796875 34.28125 64.796875 
z
M 9.8125 72.90625 
L 35.015625 72.90625 
Q 46.296875 72.90625 52.390625 68.21875 
Q 58.5 63.53125 58.5 54.890625 
Q 58.5 48.1875 55.375 44.234375 
Q 52.25 40.28125 46.1875 39.3125 
Q 53.46875 37.75 57.5 32.78125 
Q 61.53125 27.828125 61.53125 20.40625 
Q 61.53125 10.640625 54.890625 5.3125 
Q 48.25 0 35.984375 0 
L 9.8125 0 
z
" id="BitstreamVeraSans-Roman-42"/>
       <path d="M 9.421875 75.984375 
L 18.40625 75.984375 
L 18.40625 0 
L 9.421875 0 
z
" id="BitstreamVeraSans-Roman-6c"/>
       <path d="M 8.5 21.578125 
L 8.5 54.6875 
L 17.484375 54.6875 
L 17.484375 21.921875 
Q 17.484375 14.15625 20.5 10.265625 
Q 23.53125 6.390625 29.59375 6.390625 
Q 36.859375 6.390625 41.078125 11.03125 
Q 45.3125 15.671875 45.3125 23.6875 
L 45.3125 54.6875 
L 54.296875 54.6875 
L 54.296875 0 
L 45.3125 0 
L 45.3125 8.40625 
Q 42.046875 3.421875 37.71875 1 
Q 33.40625 -1.421875 27.6875 -1.421875 
Q 18.265625 -1.421875 13.375 4.4375 
Q 8.5 10.296875 8.5 21.578125 
" id="BitstreamVeraSans-Roman-75"/>
       <path d="M 32.171875 -5.078125 
Q 28.375 -14.84375 24.75 -17.8125 
Q 21.140625 -20.796875 15.09375 -20.796875 
L 7.90625 -20.796875 
L 7.90625 -13.28125 
L 13.1875 -13.28125 
Q 16.890625 -13.28125 18.9375 -11.515625 
Q 21 -9.765625 23.484375 -3.21875 
L 25.09375 0.875 
L 2.984375 54.6875 
L 12.5 54.6875 
L 29.59375 11.921875 
L 46.6875 54.6875 
L 56.203125 54.6875 
z
" id="BitstreamVeraSans-Roman-79"/>
      </defs>
      <g transform="translate(167.2975 392.4805)rotate(-90.0)scale(0.08 -0.08)">
       <use xlink:href="#BitstreamVeraSans-Roman-42"/>
       <use x="68.603515625" xlink:href="#BitstreamVeraSans-Roman-75"/>
       <use x="131.982421875" xlink:href="#BitstreamVeraSans-Roman-6c"/>
       <use x="159.765625" xlink:href="#BitstreamVeraSans-Roman-6c"/>
       <use x="187.548828125" xlink:href="#BitstreamVeraSans-Roman-79"/>
      </g>
     </g>
    </g>
    <g id="xtick_3">
     <g id="line2d_5">
      <g>
       <use style="stroke:#000000;stroke-width:0.5;" x="239.49" xlink:href="#m56fbef8e5f" y="368.74175"/>
      </g>
     </g>
     <g id="line2d_6">
      <g>
       <use style="stroke:#000000;stroke-width:0.5;" x="239.49" xlink:href="#m71e511152f" y="23.14175"/>
      </g>
     </g>
     <g id="text_3">
      <!-- Suspicious Tit For Tat -->
      <defs>
       <path d="M 34.28125 27.484375 
Q 23.390625 27.484375 19.1875 25 
Q 14.984375 22.515625 14.984375 16.5 
Q 14.984375 11.71875 18.140625 8.90625 
Q 21.296875 6.109375 26.703125 6.109375 
Q 34.1875 6.109375 38.703125 11.40625 
Q 43.21875 16.703125 43.21875 25.484375 
L 43.21875 27.484375 
z
M 52.203125 31.203125 
L 52.203125 0 
L 43.21875 0 
L 43.21875 8.296875 
Q 40.140625 3.328125 35.546875 0.953125 
Q 30.953125 -1.421875 24.3125 -1.421875 
Q 15.921875 -1.421875 10.953125 3.296875 
Q 6 8.015625 6 15.921875 
Q 6 25.140625 12.171875 29.828125 
Q 18.359375 34.515625 30.609375 34.515625 
L 43.21875 34.515625 
L 43.21875 35.40625 
Q 43.21875 41.609375 39.140625 45 
Q 35.0625 48.390625 27.6875 48.390625 
Q 23 48.390625 18.546875 47.265625 
Q 14.109375 46.140625 10.015625 43.890625 
L 10.015625 52.203125 
Q 14.9375 54.109375 19.578125 55.046875 
Q 24.21875 56 28.609375 56 
Q 40.484375 56 46.34375 49.84375 
Q 52.203125 43.703125 52.203125 31.203125 
" id="BitstreamVeraSans-Roman-61"/>
       <path d="M 18.109375 8.203125 
L 18.109375 -20.796875 
L 9.078125 -20.796875 
L 9.078125 54.6875 
L 18.109375 54.6875 
L 18.109375 46.390625 
Q 20.953125 51.265625 25.265625 53.625 
Q 29.59375 56 35.59375 56 
Q 45.5625 56 51.78125 48.09375 
Q 58.015625 40.1875 58.015625 27.296875 
Q 58.015625 14.40625 51.78125 6.484375 
Q 45.5625 -1.421875 35.59375 -1.421875 
Q 29.59375 -1.421875 25.265625 0.953125 
Q 20.953125 3.328125 18.109375 8.203125 
M 48.6875 27.296875 
Q 48.6875 37.203125 44.609375 42.84375 
Q 40.53125 48.484375 33.40625 48.484375 
Q 26.265625 48.484375 22.1875 42.84375 
Q 18.109375 37.203125 18.109375 27.296875 
Q 18.109375 17.390625 22.1875 11.75 
Q 26.265625 6.109375 33.40625 6.109375 
Q 40.53125 6.109375 44.609375 11.75 
Q 48.6875 17.390625 48.6875 27.296875 
" id="BitstreamVeraSans-Roman-70"/>
       <path d="M 44.28125 53.078125 
L 44.28125 44.578125 
Q 40.484375 46.53125 36.375 47.5 
Q 32.28125 48.484375 27.875 48.484375 
Q 21.1875 48.484375 17.84375 46.4375 
Q 14.5 44.390625 14.5 40.28125 
Q 14.5 37.15625 16.890625 35.375 
Q 19.28125 33.59375 26.515625 31.984375 
L 29.59375 31.296875 
Q 39.15625 29.25 43.1875 25.515625 
Q 47.21875 21.78125 47.21875 15.09375 
Q 47.21875 7.46875 41.1875 3.015625 
Q 35.15625 -1.421875 24.609375 -1.421875 
Q 20.21875 -1.421875 15.453125 -0.5625 
Q 10.6875 0.296875 5.421875 2 
L 5.421875 11.28125 
Q 10.40625 8.6875 15.234375 7.390625 
Q 20.0625 6.109375 24.8125 6.109375 
Q 31.15625 6.109375 34.5625 8.28125 
Q 37.984375 10.453125 37.984375 14.40625 
Q 37.984375 18.0625 35.515625 20.015625 
Q 33.0625 21.96875 24.703125 23.78125 
L 21.578125 24.515625 
Q 13.234375 26.265625 9.515625 29.90625 
Q 5.8125 33.546875 5.8125 39.890625 
Q 5.8125 47.609375 11.28125 51.796875 
Q 16.75 56 26.8125 56 
Q 31.78125 56 36.171875 55.265625 
Q 40.578125 54.546875 44.28125 53.078125 
" id="BitstreamVeraSans-Roman-73"/>
       <path d="M -0.296875 72.90625 
L 61.375 72.90625 
L 61.375 64.59375 
L 35.5 64.59375 
L 35.5 0 
L 25.59375 0 
L 25.59375 64.59375 
L -0.296875 64.59375 
z
" id="BitstreamVeraSans-Roman-54"/>
       <path id="BitstreamVeraSans-Roman-20"/>
       <path d="M 9.421875 54.6875 
L 18.40625 54.6875 
L 18.40625 0 
L 9.421875 0 
z
M 9.421875 75.984375 
L 18.40625 75.984375 
L 18.40625 64.59375 
L 9.421875 64.59375 
z
" id="BitstreamVeraSans-Roman-69"/>
       <path d="M 9.8125 72.90625 
L 51.703125 72.90625 
L 51.703125 64.59375 
L 19.671875 64.59375 
L 19.671875 43.109375 
L 48.578125 43.109375 
L 48.578125 34.8125 
L 19.671875 34.8125 
L 19.671875 0 
L 9.8125 0 
z
" id="BitstreamVeraSans-Roman-46"/>
       <path d="M 53.515625 70.515625 
L 53.515625 60.890625 
Q 47.90625 63.578125 42.921875 64.890625 
Q 37.9375 66.21875 33.296875 66.21875 
Q 25.25 66.21875 20.875 63.09375 
Q 16.5 59.96875 16.5 54.203125 
Q 16.5 49.359375 19.40625 46.890625 
Q 22.3125 44.4375 30.421875 42.921875 
L 36.375 41.703125 
Q 47.40625 39.59375 52.65625 34.296875 
Q 57.90625 29 57.90625 20.125 
Q 57.90625 9.515625 50.796875 4.046875 
Q 43.703125 -1.421875 29.984375 -1.421875 
Q 24.8125 -1.421875 18.96875 -0.25 
Q 13.140625 0.921875 6.890625 3.21875 
L 6.890625 13.375 
Q 12.890625 10.015625 18.65625 8.296875 
Q 24.421875 6.59375 29.984375 6.59375 
Q 38.421875 6.59375 43.015625 9.90625 
Q 47.609375 13.234375 47.609375 19.390625 
Q 47.609375 24.75 44.3125 27.78125 
Q 41.015625 30.8125 33.5 32.328125 
L 27.484375 33.5 
Q 16.453125 35.6875 11.515625 40.375 
Q 6.59375 45.0625 6.59375 53.421875 
Q 6.59375 63.09375 13.40625 68.65625 
Q 20.21875 74.21875 32.171875 74.21875 
Q 37.3125 74.21875 42.625 73.28125 
Q 47.953125 72.359375 53.515625 70.515625 
" id="BitstreamVeraSans-Roman-53"/>
      </defs>
      <g transform="translate(241.6975 458.668)rotate(-90.0)scale(0.08 -0.08)">
       <use xlink:href="#BitstreamVeraSans-Roman-53"/>
       <use x="63.4765625" xlink:href="#BitstreamVeraSans-Roman-75"/>
       <use x="126.85546875" xlink:href="#BitstreamVeraSans-Roman-73"/>
       <use x="178.955078125" xlink:href="#BitstreamVeraSans-Roman-70"/>
       <use x="242.431640625" xlink:href="#BitstreamVeraSans-Roman-69"/>
       <use x="270.21484375" xlink:href="#BitstreamVeraSans-Roman-63"/>
       <use x="325.1953125" xlink:href="#BitstreamVeraSans-Roman-69"/>
       <use x="352.978515625" xlink:href="#BitstreamVeraSans-Roman-6f"/>
       <use x="414.16015625" xlink:href="#BitstreamVeraSans-Roman-75"/>
       <use x="477.5390625" xlink:href="#BitstreamVeraSans-Roman-73"/>
       <use x="529.638671875" xlink:href="#BitstreamVeraSans-Roman-20"/>
       <use x="561.42578125" xlink:href="#BitstreamVeraSans-Roman-54"/>
       <use x="622.462890625" xlink:href="#BitstreamVeraSans-Roman-69"/>
       <use x="650.24609375" xlink:href="#BitstreamVeraSans-Roman-74"/>
       <use x="689.455078125" xlink:href="#BitstreamVeraSans-Roman-20"/>
       <use x="721.2421875" xlink:href="#BitstreamVeraSans-Roman-46"/>
       <use x="778.71484375" xlink:href="#BitstreamVeraSans-Roman-6f"/>
       <use x="839.896484375" xlink:href="#BitstreamVeraSans-Roman-72"/>
       <use x="881.009765625" xlink:href="#BitstreamVeraSans-Roman-20"/>
       <use x="912.796875" xlink:href="#BitstreamVeraSans-Roman-54"/>
       <use x="973.630859375" xlink:href="#BitstreamVeraSans-Roman-61"/>
       <use x="1034.91015625" xlink:href="#BitstreamVeraSans-Roman-74"/>
      </g>
     </g>
    </g>
    <g id="xtick_4">
     <g id="line2d_7">
      <g>
       <use style="stroke:#000000;stroke-width:0.5;" x="313.89" xlink:href="#m56fbef8e5f" y="368.74175"/>
      </g>
     </g>
     <g id="line2d_8">
      <g>
       <use style="stroke:#000000;stroke-width:0.5;" x="313.89" xlink:href="#m71e511152f" y="23.14175"/>
      </g>
     </g>
     <g id="text_4">
      <!-- Anti Tit For Tat -->
      <defs>
       <path d="M 54.890625 33.015625 
L 54.890625 0 
L 45.90625 0 
L 45.90625 32.71875 
Q 45.90625 40.484375 42.875 44.328125 
Q 39.84375 48.1875 33.796875 48.1875 
Q 26.515625 48.1875 22.3125 43.546875 
Q 18.109375 38.921875 18.109375 30.90625 
L 18.109375 0 
L 9.078125 0 
L 9.078125 54.6875 
L 18.109375 54.6875 
L 18.109375 46.1875 
Q 21.34375 51.125 25.703125 53.5625 
Q 30.078125 56 35.796875 56 
Q 45.21875 56 50.046875 50.171875 
Q 54.890625 44.34375 54.890625 33.015625 
" id="BitstreamVeraSans-Roman-6e"/>
       <path d="M 34.1875 63.1875 
L 20.796875 26.90625 
L 47.609375 26.90625 
z
M 28.609375 72.90625 
L 39.796875 72.90625 
L 67.578125 0 
L 57.328125 0 
L 50.6875 18.703125 
L 17.828125 18.703125 
L 11.1875 0 
L 0.78125 0 
z
" id="BitstreamVeraSans-Roman-41"/>
      </defs>
      <g transform="translate(316.0975 432.198)rotate(-90.0)scale(0.08 -0.08)">
       <use xlink:href="#BitstreamVeraSans-Roman-41"/>
       <use x="68.408203125" xlink:href="#BitstreamVeraSans-Roman-6e"/>
       <use x="131.787109375" xlink:href="#BitstreamVeraSans-Roman-74"/>
       <use x="170.99609375" xlink:href="#BitstreamVeraSans-Roman-69"/>
       <use x="198.779296875" xlink:href="#BitstreamVeraSans-Roman-20"/>
       <use x="230.56640625" xlink:href="#BitstreamVeraSans-Roman-54"/>
       <use x="291.603515625" xlink:href="#BitstreamVeraSans-Roman-69"/>
       <use x="319.38671875" xlink:href="#BitstreamVeraSans-Roman-74"/>
       <use x="358.595703125" xlink:href="#BitstreamVeraSans-Roman-20"/>
       <use x="390.3828125" xlink:href="#BitstreamVeraSans-Roman-46"/>
       <use x="447.85546875" xlink:href="#BitstreamVeraSans-Roman-6f"/>
       <use x="509.037109375" xlink:href="#BitstreamVeraSans-Roman-72"/>
       <use x="550.150390625" xlink:href="#BitstreamVeraSans-Roman-20"/>
       <use x="581.9375" xlink:href="#BitstreamVeraSans-Roman-54"/>
       <use x="642.771484375" xlink:href="#BitstreamVeraSans-Roman-61"/>
       <use x="704.05078125" xlink:href="#BitstreamVeraSans-Roman-74"/>
      </g>
     </g>
    </g>
    <g id="xtick_5">
     <g id="line2d_9">
      <g>
       <use style="stroke:#000000;stroke-width:0.5;" x="388.29" xlink:href="#m56fbef8e5f" y="368.74175"/>
      </g>
     </g>
     <g id="line2d_10">
      <g>
       <use style="stroke:#000000;stroke-width:0.5;" x="388.29" xlink:href="#m71e511152f" y="23.14175"/>
      </g>
     </g>
     <g id="text_5">
      <!-- Alternator -->
      <g transform="translate(390.4975 413.0755)rotate(-90.0)scale(0.08 -0.08)">
       <use xlink:href="#BitstreamVeraSans-Roman-41"/>
       <use x="68.408203125" xlink:href="#BitstreamVeraSans-Roman-6c"/>
       <use x="96.19140625" xlink:href="#BitstreamVeraSans-Roman-74"/>
       <use x="135.400390625" xlink:href="#BitstreamVeraSans-Roman-65"/>
       <use x="196.923828125" xlink:href="#BitstreamVeraSans-Roman-72"/>
       <use x="238.021484375" xlink:href="#BitstreamVeraSans-Roman-6e"/>
       <use x="301.400390625" xlink:href="#BitstreamVeraSans-Roman-61"/>
       <use x="362.6796875" xlink:href="#BitstreamVeraSans-Roman-74"/>
       <use x="401.888671875" xlink:href="#BitstreamVeraSans-Roman-6f"/>
       <use x="463.0703125" xlink:href="#BitstreamVeraSans-Roman-72"/>
      </g>
     </g>
    </g>
    <g id="xtick_6">
     <g id="line2d_11">
      <g>
       <use style="stroke:#000000;stroke-width:0.5;" x="462.69" xlink:href="#m56fbef8e5f" y="368.74175"/>
      </g>
     </g>
     <g id="line2d_12">
      <g>
       <use style="stroke:#000000;stroke-width:0.5;" x="462.69" xlink:href="#m71e511152f" y="23.14175"/>
      </g>
     </g>
     <g id="text_6">
      <!-- Win-Stay Lose-Shift -->
      <defs>
       <path d="M 9.8125 72.90625 
L 19.671875 72.90625 
L 19.671875 8.296875 
L 55.171875 8.296875 
L 55.171875 0 
L 9.8125 0 
z
" id="BitstreamVeraSans-Roman-4c"/>
       <path d="M 4.890625 31.390625 
L 31.203125 31.390625 
L 31.203125 23.390625 
L 4.890625 23.390625 
z
" id="BitstreamVeraSans-Roman-2d"/>
       <path d="M 3.328125 72.90625 
L 13.28125 72.90625 
L 28.609375 11.28125 
L 43.890625 72.90625 
L 54.984375 72.90625 
L 70.3125 11.28125 
L 85.59375 72.90625 
L 95.609375 72.90625 
L 77.296875 0 
L 64.890625 0 
L 49.515625 63.28125 
L 33.984375 0 
L 21.578125 0 
z
" id="BitstreamVeraSans-Roman-57"/>
       <path d="M 54.890625 33.015625 
L 54.890625 0 
L 45.90625 0 
L 45.90625 32.71875 
Q 45.90625 40.484375 42.875 44.328125 
Q 39.84375 48.1875 33.796875 48.1875 
Q 26.515625 48.1875 22.3125 43.546875 
Q 18.109375 38.921875 18.109375 30.90625 
L 18.109375 0 
L 9.078125 0 
L 9.078125 75.984375 
L 18.109375 75.984375 
L 18.109375 46.1875 
Q 21.34375 51.125 25.703125 53.5625 
Q 30.078125 56 35.796875 56 
Q 45.21875 56 50.046875 50.171875 
Q 54.890625 44.34375 54.890625 33.015625 
" id="BitstreamVeraSans-Roman-68"/>
      </defs>
      <g transform="translate(464.8975 450.873)rotate(-90.0)scale(0.08 -0.08)">
       <use xlink:href="#BitstreamVeraSans-Roman-57"/>
       <use x="98.845703125" xlink:href="#BitstreamVeraSans-Roman-69"/>
       <use x="126.62890625" xlink:href="#BitstreamVeraSans-Roman-6e"/>
       <use x="190.0078125" xlink:href="#BitstreamVeraSans-Roman-2d"/>
       <use x="226.091796875" xlink:href="#BitstreamVeraSans-Roman-53"/>
       <use x="289.568359375" xlink:href="#BitstreamVeraSans-Roman-74"/>
       <use x="328.77734375" xlink:href="#BitstreamVeraSans-Roman-61"/>
       <use x="390.056640625" xlink:href="#BitstreamVeraSans-Roman-79"/>
       <use x="449.236328125" xlink:href="#BitstreamVeraSans-Roman-20"/>
       <use x="481.0234375" xlink:href="#BitstreamVeraSans-Roman-4c"/>
       <use x="536.720703125" xlink:href="#BitstreamVeraSans-Roman-6f"/>
       <use x="597.90234375" xlink:href="#BitstreamVeraSans-Roman-73"/>
       <use x="650.001953125" xlink:href="#BitstreamVeraSans-Roman-65"/>
       <use x="711.525390625" xlink:href="#BitstreamVeraSans-Roman-2d"/>
       <use x="747.609375" xlink:href="#BitstreamVeraSans-Roman-53"/>
       <use x="811.0859375" xlink:href="#BitstreamVeraSans-Roman-68"/>
       <use x="874.46484375" xlink:href="#BitstreamVeraSans-Roman-69"/>
       <use x="902.248046875" xlink:href="#BitstreamVeraSans-Roman-66"/>
       <use x="937.4375" xlink:href="#BitstreamVeraSans-Roman-74"/>
      </g>
     </g>
    </g>
    <g id="xtick_7">
     <g id="line2d_13">
      <g>
       <use style="stroke:#000000;stroke-width:0.5;" x="537.09" xlink:href="#m56fbef8e5f" y="368.74175"/>
      </g>
     </g>
     <g id="line2d_14">
      <g>
       <use style="stroke:#000000;stroke-width:0.5;" x="537.09" xlink:href="#m71e511152f" y="23.14175"/>
      </g>
     </g>
     <g id="text_7">
      <!-- Tit For Tat -->
      <g transform="translate(539.2975 413.75425)rotate(-90.0)scale(0.08 -0.08)">
       <use xlink:href="#BitstreamVeraSans-Roman-54"/>
       <use x="61.037109375" xlink:href="#BitstreamVeraSans-Roman-69"/>
       <use x="88.8203125" xlink:href="#BitstreamVeraSans-Roman-74"/>
       <use x="128.029296875" xlink:href="#BitstreamVeraSans-Roman-20"/>
       <use x="159.81640625" xlink:href="#BitstreamVeraSans-Roman-46"/>
       <use x="217.2890625" xlink:href="#BitstreamVeraSans-Roman-6f"/>
       <use x="278.470703125" xlink:href="#BitstreamVeraSans-Roman-72"/>
       <use x="319.583984375" xlink:href="#BitstreamVeraSans-Roman-20"/>
       <use x="351.37109375" xlink:href="#BitstreamVeraSans-Roman-54"/>
       <use x="412.205078125" xlink:href="#BitstreamVeraSans-Roman-61"/>
       <use x="473.484375" xlink:href="#BitstreamVeraSans-Roman-74"/>
      </g>
     </g>
    </g>
    <g id="xtick_8">
     <g id="line2d_15">
      <g>
       <use style="stroke:#000000;stroke-width:0.5;" x="611.49" xlink:href="#m56fbef8e5f" y="368.74175"/>
      </g>
     </g>
     <g id="line2d_16">
      <g>
       <use style="stroke:#000000;stroke-width:0.5;" x="611.49" xlink:href="#m71e511152f" y="23.14175"/>
      </g>
     </g>
     <g id="text_8">
      <!-- Cooperator -->
      <defs>
       <path d="M 64.40625 67.28125 
L 64.40625 56.890625 
Q 59.421875 61.53125 53.78125 63.8125 
Q 48.140625 66.109375 41.796875 66.109375 
Q 29.296875 66.109375 22.65625 58.46875 
Q 16.015625 50.828125 16.015625 36.375 
Q 16.015625 21.96875 22.65625 14.328125 
Q 29.296875 6.6875 41.796875 6.6875 
Q 48.140625 6.6875 53.78125 8.984375 
Q 59.421875 11.28125 64.40625 15.921875 
L 64.40625 5.609375 
Q 59.234375 2.09375 53.4375 0.328125 
Q 47.65625 -1.421875 41.21875 -1.421875 
Q 24.65625 -1.421875 15.125 8.703125 
Q 5.609375 18.84375 5.609375 36.375 
Q 5.609375 53.953125 15.125 64.078125 
Q 24.65625 74.21875 41.21875 74.21875 
Q 47.75 74.21875 53.53125 72.484375 
Q 59.328125 70.75 64.40625 67.28125 
" id="BitstreamVeraSans-Roman-43"/>
      </defs>
      <g transform="translate(613.6975 417.6305)rotate(-90.0)scale(0.08 -0.08)">
       <use xlink:href="#BitstreamVeraSans-Roman-43"/>
       <use x="69.82421875" xlink:href="#BitstreamVeraSans-Roman-6f"/>
       <use x="131.005859375" xlink:href="#BitstreamVeraSans-Roman-6f"/>
       <use x="192.1875" xlink:href="#BitstreamVeraSans-Roman-70"/>
       <use x="255.6640625" xlink:href="#BitstreamVeraSans-Roman-65"/>
       <use x="317.1875" xlink:href="#BitstreamVeraSans-Roman-72"/>
       <use x="358.30078125" xlink:href="#BitstreamVeraSans-Roman-61"/>
       <use x="419.580078125" xlink:href="#BitstreamVeraSans-Roman-74"/>
       <use x="458.7890625" xlink:href="#BitstreamVeraSans-Roman-6f"/>
       <use x="519.970703125" xlink:href="#BitstreamVeraSans-Roman-72"/>
      </g>
     </g>
    </g>
   </g>
   <g id="matplotlib.axis_2">
    <g id="ytick_1">
     <g id="line2d_17">
      <defs>
       <path d="M 0 0 
L 4 0 
" id="m094ddb5bd1" style="stroke:#000000;stroke-width:0.5;"/>
      </defs>
      <g>
       <use style="stroke:#000000;stroke-width:0.5;" x="16.29" xlink:href="#m094ddb5bd1" y="344.056035714"/>
      </g>
     </g>
     <g id="line2d_18">
      <defs>
       <path d="M 0 0 
L -4 0 
" id="me98dc26adb" style="stroke:#000000;stroke-width:0.5;"/>
      </defs>
      <g>
       <use style="stroke:#000000;stroke-width:0.5;" x="685.89" xlink:href="#me98dc26adb" y="344.056035714"/>
      </g>
     </g>
     <g id="text_9">
      <!-- 0 -->
      <defs>
       <path d="M 31.78125 66.40625 
Q 24.171875 66.40625 20.328125 58.90625 
Q 16.5 51.421875 16.5 36.375 
Q 16.5 21.390625 20.328125 13.890625 
Q 24.171875 6.390625 31.78125 6.390625 
Q 39.453125 6.390625 43.28125 13.890625 
Q 47.125 21.390625 47.125 36.375 
Q 47.125 51.421875 43.28125 58.90625 
Q 39.453125 66.40625 31.78125 66.40625 
M 31.78125 74.21875 
Q 44.046875 74.21875 50.515625 64.515625 
Q 56.984375 54.828125 56.984375 36.375 
Q 56.984375 17.96875 50.515625 8.265625 
Q 44.046875 -1.421875 31.78125 -1.421875 
Q 19.53125 -1.421875 13.0625 8.265625 
Q 6.59375 17.96875 6.59375 36.375 
Q 6.59375 54.828125 13.0625 64.515625 
Q 19.53125 74.21875 31.78125 74.21875 
" id="BitstreamVeraSans-Roman-30"/>
      </defs>
      <g transform="translate(7.2 346.263535714)scale(0.08 -0.08)">
       <use xlink:href="#BitstreamVeraSans-Roman-30"/>
      </g>
     </g>
    </g>
    <g id="ytick_2">
     <g id="line2d_19">
      <g>
       <use style="stroke:#000000;stroke-width:0.5;" x="16.29" xlink:href="#m094ddb5bd1" y="294.684607143"/>
      </g>
     </g>
     <g id="line2d_20">
      <g>
       <use style="stroke:#000000;stroke-width:0.5;" x="685.89" xlink:href="#me98dc26adb" y="294.684607143"/>
      </g>
     </g>
     <g id="text_10">
      <!-- 1 -->
      <defs>
       <path d="M 12.40625 8.296875 
L 28.515625 8.296875 
L 28.515625 63.921875 
L 10.984375 60.40625 
L 10.984375 69.390625 
L 28.421875 72.90625 
L 38.28125 72.90625 
L 38.28125 8.296875 
L 54.390625 8.296875 
L 54.390625 0 
L 12.40625 0 
z
" id="BitstreamVeraSans-Roman-31"/>
      </defs>
      <g transform="translate(7.2 296.892107143)scale(0.08 -0.08)">
       <use xlink:href="#BitstreamVeraSans-Roman-31"/>
      </g>
     </g>
    </g>
    <g id="ytick_3">
     <g id="line2d_21">
      <g>
       <use style="stroke:#000000;stroke-width:0.5;" x="16.29" xlink:href="#m094ddb5bd1" y="245.313178571"/>
      </g>
     </g>
     <g id="line2d_22">
      <g>
       <use style="stroke:#000000;stroke-width:0.5;" x="685.89" xlink:href="#me98dc26adb" y="245.313178571"/>
      </g>
     </g>
     <g id="text_11">
      <!-- 2 -->
      <defs>
       <path d="M 19.1875 8.296875 
L 53.609375 8.296875 
L 53.609375 0 
L 7.328125 0 
L 7.328125 8.296875 
Q 12.9375 14.109375 22.625 23.890625 
Q 32.328125 33.6875 34.8125 36.53125 
Q 39.546875 41.84375 41.421875 45.53125 
Q 43.3125 49.21875 43.3125 52.78125 
Q 43.3125 58.59375 39.234375 62.25 
Q 35.15625 65.921875 28.609375 65.921875 
Q 23.96875 65.921875 18.8125 64.3125 
Q 13.671875 62.703125 7.8125 59.421875 
L 7.8125 69.390625 
Q 13.765625 71.78125 18.9375 73 
Q 24.125 74.21875 28.421875 74.21875 
Q 39.75 74.21875 46.484375 68.546875 
Q 53.21875 62.890625 53.21875 53.421875 
Q 53.21875 48.921875 51.53125 44.890625 
Q 49.859375 40.875 45.40625 35.40625 
Q 44.1875 33.984375 37.640625 27.21875 
Q 31.109375 20.453125 19.1875 8.296875 
" id="BitstreamVeraSans-Roman-32"/>
      </defs>
      <g transform="translate(7.2 247.520678571)scale(0.08 -0.08)">
       <use xlink:href="#BitstreamVeraSans-Roman-32"/>
      </g>
     </g>
    </g>
    <g id="ytick_4">
     <g id="line2d_23">
      <g>
       <use style="stroke:#000000;stroke-width:0.5;" x="16.29" xlink:href="#m094ddb5bd1" y="195.94175"/>
      </g>
     </g>
     <g id="line2d_24">
      <g>
       <use style="stroke:#000000;stroke-width:0.5;" x="685.89" xlink:href="#me98dc26adb" y="195.94175"/>
      </g>
     </g>
     <g id="text_12">
      <!-- 3 -->
      <defs>
       <path d="M 40.578125 39.3125 
Q 47.65625 37.796875 51.625 33 
Q 55.609375 28.21875 55.609375 21.1875 
Q 55.609375 10.40625 48.1875 4.484375 
Q 40.765625 -1.421875 27.09375 -1.421875 
Q 22.515625 -1.421875 17.65625 -0.515625 
Q 12.796875 0.390625 7.625 2.203125 
L 7.625 11.71875 
Q 11.71875 9.328125 16.59375 8.109375 
Q 21.484375 6.890625 26.8125 6.890625 
Q 36.078125 6.890625 40.9375 10.546875 
Q 45.796875 14.203125 45.796875 21.1875 
Q 45.796875 27.640625 41.28125 31.265625 
Q 36.765625 34.90625 28.71875 34.90625 
L 20.21875 34.90625 
L 20.21875 43.015625 
L 29.109375 43.015625 
Q 36.375 43.015625 40.234375 45.921875 
Q 44.09375 48.828125 44.09375 54.296875 
Q 44.09375 59.90625 40.109375 62.90625 
Q 36.140625 65.921875 28.71875 65.921875 
Q 24.65625 65.921875 20.015625 65.03125 
Q 15.375 64.15625 9.8125 62.3125 
L 9.8125 71.09375 
Q 15.4375 72.65625 20.34375 73.4375 
Q 25.25 74.21875 29.59375 74.21875 
Q 40.828125 74.21875 47.359375 69.109375 
Q 53.90625 64.015625 53.90625 55.328125 
Q 53.90625 49.265625 50.4375 45.09375 
Q 46.96875 40.921875 40.578125 39.3125 
" id="BitstreamVeraSans-Roman-33"/>
      </defs>
      <g transform="translate(7.2 198.14925)scale(0.08 -0.08)">
       <use xlink:href="#BitstreamVeraSans-Roman-33"/>
      </g>
     </g>
    </g>
    <g id="ytick_5">
     <g id="line2d_25">
      <g>
       <use style="stroke:#000000;stroke-width:0.5;" x="16.29" xlink:href="#m094ddb5bd1" y="146.570321429"/>
      </g>
     </g>
     <g id="line2d_26">
      <g>
       <use style="stroke:#000000;stroke-width:0.5;" x="685.89" xlink:href="#me98dc26adb" y="146.570321429"/>
      </g>
     </g>
     <g id="text_13">
      <!-- 4 -->
      <defs>
       <path d="M 37.796875 64.3125 
L 12.890625 25.390625 
L 37.796875 25.390625 
z
M 35.203125 72.90625 
L 47.609375 72.90625 
L 47.609375 25.390625 
L 58.015625 25.390625 
L 58.015625 17.1875 
L 47.609375 17.1875 
L 47.609375 0 
L 37.796875 0 
L 37.796875 17.1875 
L 4.890625 17.1875 
L 4.890625 26.703125 
z
" id="BitstreamVeraSans-Roman-34"/>
      </defs>
      <g transform="translate(7.2 148.777821429)scale(0.08 -0.08)">
       <use xlink:href="#BitstreamVeraSans-Roman-34"/>
      </g>
     </g>
    </g>
    <g id="ytick_6">
     <g id="line2d_27">
      <g>
       <use style="stroke:#000000;stroke-width:0.5;" x="16.29" xlink:href="#m094ddb5bd1" y="97.1988928571"/>
      </g>
     </g>
     <g id="line2d_28">
      <g>
       <use style="stroke:#000000;stroke-width:0.5;" x="685.89" xlink:href="#me98dc26adb" y="97.1988928571"/>
      </g>
     </g>
     <g id="text_14">
      <!-- 5 -->
      <defs>
       <path d="M 10.796875 72.90625 
L 49.515625 72.90625 
L 49.515625 64.59375 
L 19.828125 64.59375 
L 19.828125 46.734375 
Q 21.96875 47.46875 24.109375 47.828125 
Q 26.265625 48.1875 28.421875 48.1875 
Q 40.625 48.1875 47.75 41.5 
Q 54.890625 34.8125 54.890625 23.390625 
Q 54.890625 11.625 47.5625 5.09375 
Q 40.234375 -1.421875 26.90625 -1.421875 
Q 22.3125 -1.421875 17.546875 -0.640625 
Q 12.796875 0.140625 7.71875 1.703125 
L 7.71875 11.625 
Q 12.109375 9.234375 16.796875 8.0625 
Q 21.484375 6.890625 26.703125 6.890625 
Q 35.15625 6.890625 40.078125 11.328125 
Q 45.015625 15.765625 45.015625 23.390625 
Q 45.015625 31 40.078125 35.4375 
Q 35.15625 39.890625 26.703125 39.890625 
Q 22.75 39.890625 18.8125 39.015625 
Q 14.890625 38.140625 10.796875 36.28125 
z
" id="BitstreamVeraSans-Roman-35"/>
      </defs>
      <g transform="translate(7.2 99.4063928571)scale(0.08 -0.08)">
       <use xlink:href="#BitstreamVeraSans-Roman-35"/>
      </g>
     </g>
    </g>
    <g id="ytick_7">
     <g id="line2d_29">
      <g>
       <use style="stroke:#000000;stroke-width:0.5;" x="16.29" xlink:href="#m094ddb5bd1" y="47.8274642857"/>
      </g>
     </g>
     <g id="line2d_30">
      <g>
       <use style="stroke:#000000;stroke-width:0.5;" x="685.89" xlink:href="#me98dc26adb" y="47.8274642857"/>
      </g>
     </g>
     <g id="text_15">
      <!-- 6 -->
      <defs>
       <path d="M 33.015625 40.375 
Q 26.375 40.375 22.484375 35.828125 
Q 18.609375 31.296875 18.609375 23.390625 
Q 18.609375 15.53125 22.484375 10.953125 
Q 26.375 6.390625 33.015625 6.390625 
Q 39.65625 6.390625 43.53125 10.953125 
Q 47.40625 15.53125 47.40625 23.390625 
Q 47.40625 31.296875 43.53125 35.828125 
Q 39.65625 40.375 33.015625 40.375 
M 52.59375 71.296875 
L 52.59375 62.3125 
Q 48.875 64.0625 45.09375 64.984375 
Q 41.3125 65.921875 37.59375 65.921875 
Q 27.828125 65.921875 22.671875 59.328125 
Q 17.53125 52.734375 16.796875 39.40625 
Q 19.671875 43.65625 24.015625 45.921875 
Q 28.375 48.1875 33.59375 48.1875 
Q 44.578125 48.1875 50.953125 41.515625 
Q 57.328125 34.859375 57.328125 23.390625 
Q 57.328125 12.15625 50.6875 5.359375 
Q 44.046875 -1.421875 33.015625 -1.421875 
Q 20.359375 -1.421875 13.671875 8.265625 
Q 6.984375 17.96875 6.984375 36.375 
Q 6.984375 53.65625 15.1875 63.9375 
Q 23.390625 74.21875 37.203125 74.21875 
Q 40.921875 74.21875 44.703125 73.484375 
Q 48.484375 72.75 52.59375 71.296875 
" id="BitstreamVeraSans-Roman-36"/>
      </defs>
      <g transform="translate(7.2 50.0349642857)scale(0.08 -0.08)">
       <use xlink:href="#BitstreamVeraSans-Roman-36"/>
      </g>
     </g>
    </g>
   </g>
   <g id="text_16">
    <!-- Wins. Prob end: 0.1, Repetitions: 100, Strategies: 8. -->
    <defs>
     <path d="M 48.6875 27.296875 
Q 48.6875 37.203125 44.609375 42.84375 
Q 40.53125 48.484375 33.40625 48.484375 
Q 26.265625 48.484375 22.1875 42.84375 
Q 18.109375 37.203125 18.109375 27.296875 
Q 18.109375 17.390625 22.1875 11.75 
Q 26.265625 6.109375 33.40625 6.109375 
Q 40.53125 6.109375 44.609375 11.75 
Q 48.6875 17.390625 48.6875 27.296875 
M 18.109375 46.390625 
Q 20.953125 51.265625 25.265625 53.625 
Q 29.59375 56 35.59375 56 
Q 45.5625 56 51.78125 48.09375 
Q 58.015625 40.1875 58.015625 27.296875 
Q 58.015625 14.40625 51.78125 6.484375 
Q 45.5625 -1.421875 35.59375 -1.421875 
Q 29.59375 -1.421875 25.265625 0.953125 
Q 20.953125 3.328125 18.109375 8.203125 
L 18.109375 0 
L 9.078125 0 
L 9.078125 75.984375 
L 18.109375 75.984375 
z
" id="BitstreamVeraSans-Roman-62"/>
     <path d="M 44.390625 34.1875 
Q 47.5625 33.109375 50.5625 29.59375 
Q 53.5625 26.078125 56.59375 19.921875 
L 66.609375 0 
L 56 0 
L 46.6875 18.703125 
Q 43.0625 26.03125 39.671875 28.421875 
Q 36.28125 30.8125 30.421875 30.8125 
L 19.671875 30.8125 
L 19.671875 0 
L 9.8125 0 
L 9.8125 72.90625 
L 32.078125 72.90625 
Q 44.578125 72.90625 50.734375 67.671875 
Q 56.890625 62.453125 56.890625 51.90625 
Q 56.890625 45.015625 53.6875 40.46875 
Q 50.484375 35.9375 44.390625 34.1875 
M 19.671875 64.796875 
L 19.671875 38.921875 
L 32.078125 38.921875 
Q 39.203125 38.921875 42.84375 42.21875 
Q 46.484375 45.515625 46.484375 51.90625 
Q 46.484375 58.296875 42.84375 61.546875 
Q 39.203125 64.796875 32.078125 64.796875 
z
" id="BitstreamVeraSans-Roman-52"/>
     <path d="M 11.71875 12.40625 
L 22.015625 12.40625 
L 22.015625 0 
L 11.71875 0 
z
M 11.71875 51.703125 
L 22.015625 51.703125 
L 22.015625 39.3125 
L 11.71875 39.3125 
z
" id="BitstreamVeraSans-Roman-3a"/>
     <path d="M 45.40625 27.984375 
Q 45.40625 37.75 41.375 43.109375 
Q 37.359375 48.484375 30.078125 48.484375 
Q 22.859375 48.484375 18.828125 43.109375 
Q 14.796875 37.75 14.796875 27.984375 
Q 14.796875 18.265625 18.828125 12.890625 
Q 22.859375 7.515625 30.078125 7.515625 
Q 37.359375 7.515625 41.375 12.890625 
Q 45.40625 18.265625 45.40625 27.984375 
M 54.390625 6.78125 
Q 54.390625 -7.171875 48.1875 -13.984375 
Q 42 -20.796875 29.203125 -20.796875 
Q 24.46875 -20.796875 20.265625 -20.09375 
Q 16.0625 -19.390625 12.109375 -17.921875 
L 12.109375 -9.1875 
Q 16.0625 -11.328125 19.921875 -12.34375 
Q 23.78125 -13.375 27.78125 -13.375 
Q 36.625 -13.375 41.015625 -8.765625 
Q 45.40625 -4.15625 45.40625 5.171875 
L 45.40625 9.625 
Q 42.625 4.78125 38.28125 2.390625 
Q 33.9375 0 27.875 0 
Q 17.828125 0 11.671875 7.65625 
Q 5.515625 15.328125 5.515625 27.984375 
Q 5.515625 40.671875 11.671875 48.328125 
Q 17.828125 56 27.875 56 
Q 33.9375 56 38.28125 53.609375 
Q 42.625 51.21875 45.40625 46.390625 
L 45.40625 54.6875 
L 54.390625 54.6875 
z
" id="BitstreamVeraSans-Roman-67"/>
     <path d="M 11.71875 12.40625 
L 22.015625 12.40625 
L 22.015625 4 
L 14.015625 -11.625 
L 7.71875 -11.625 
L 11.71875 4 
z
" id="BitstreamVeraSans-Roman-2c"/>
     <path d="M 19.671875 64.796875 
L 19.671875 37.40625 
L 32.078125 37.40625 
Q 38.96875 37.40625 42.71875 40.96875 
Q 46.484375 44.53125 46.484375 51.125 
Q 46.484375 57.671875 42.71875 61.234375 
Q 38.96875 64.796875 32.078125 64.796875 
z
M 9.8125 72.90625 
L 32.078125 72.90625 
Q 44.34375 72.90625 50.609375 67.359375 
Q 56.890625 61.8125 56.890625 51.125 
Q 56.890625 40.328125 50.609375 34.8125 
Q 44.34375 29.296875 32.078125 29.296875 
L 19.671875 29.296875 
L 19.671875 0 
L 9.8125 0 
z
" id="BitstreamVeraSans-Roman-50"/>
     <path d="M 31.78125 34.625 
Q 24.75 34.625 20.71875 30.859375 
Q 16.703125 27.09375 16.703125 20.515625 
Q 16.703125 13.921875 20.71875 10.15625 
Q 24.75 6.390625 31.78125 6.390625 
Q 38.8125 6.390625 42.859375 10.171875 
Q 46.921875 13.96875 46.921875 20.515625 
Q 46.921875 27.09375 42.890625 30.859375 
Q 38.875 34.625 31.78125 34.625 
M 21.921875 38.8125 
Q 15.578125 40.375 12.03125 44.71875 
Q 8.5 49.078125 8.5 55.328125 
Q 8.5 64.0625 14.71875 69.140625 
Q 20.953125 74.21875 31.78125 74.21875 
Q 42.671875 74.21875 48.875 69.140625 
Q 55.078125 64.0625 55.078125 55.328125 
Q 55.078125 49.078125 51.53125 44.71875 
Q 48 40.375 41.703125 38.8125 
Q 48.828125 37.15625 52.796875 32.3125 
Q 56.78125 27.484375 56.78125 20.515625 
Q 56.78125 9.90625 50.3125 4.234375 
Q 43.84375 -1.421875 31.78125 -1.421875 
Q 19.734375 -1.421875 13.25 4.234375 
Q 6.78125 9.90625 6.78125 20.515625 
Q 6.78125 27.484375 10.78125 32.3125 
Q 14.796875 37.15625 21.921875 38.8125 
M 18.3125 54.390625 
Q 18.3125 48.734375 21.84375 45.5625 
Q 25.390625 42.390625 31.78125 42.390625 
Q 38.140625 42.390625 41.71875 45.5625 
Q 45.3125 48.734375 45.3125 54.390625 
Q 45.3125 60.0625 41.71875 63.234375 
Q 38.140625 66.40625 31.78125 66.40625 
Q 25.390625 66.40625 21.84375 63.234375 
Q 18.3125 60.0625 18.3125 54.390625 
" id="BitstreamVeraSans-Roman-38"/>
     <path d="M 10.6875 12.40625 
L 21 12.40625 
L 21 0 
L 10.6875 0 
z
" id="BitstreamVeraSans-Roman-2e"/>
     <path d="M 45.40625 46.390625 
L 45.40625 75.984375 
L 54.390625 75.984375 
L 54.390625 0 
L 45.40625 0 
L 45.40625 8.203125 
Q 42.578125 3.328125 38.25 0.953125 
Q 33.9375 -1.421875 27.875 -1.421875 
Q 17.96875 -1.421875 11.734375 6.484375 
Q 5.515625 14.40625 5.515625 27.296875 
Q 5.515625 40.1875 11.734375 48.09375 
Q 17.96875 56 27.875 56 
Q 33.9375 56 38.25 53.625 
Q 42.578125 51.265625 45.40625 46.390625 
M 14.796875 27.296875 
Q 14.796875 17.390625 18.875 11.75 
Q 22.953125 6.109375 30.078125 6.109375 
Q 37.203125 6.109375 41.296875 11.75 
Q 45.40625 17.390625 45.40625 27.296875 
Q 45.40625 37.203125 41.296875 42.84375 
Q 37.203125 48.484375 30.078125 48.484375 
Q 22.953125 48.484375 18.875 42.84375 
Q 14.796875 37.203125 14.796875 27.296875 
" id="BitstreamVeraSans-Roman-64"/>
    </defs>
    <g transform="translate(164.034 18.14175)scale(0.144 -0.144)">
     <use xlink:href="#BitstreamVeraSans-Roman-57"/>
     <use x="98.845703125" xlink:href="#BitstreamVeraSans-Roman-69"/>
     <use x="126.62890625" xlink:href="#BitstreamVeraSans-Roman-6e"/>
     <use x="190.0078125" xlink:href="#BitstreamVeraSans-Roman-73"/>
     <use x="242.107421875" xlink:href="#BitstreamVeraSans-Roman-2e"/>
     <use x="273.89453125" xlink:href="#BitstreamVeraSans-Roman-20"/>
     <use x="305.681640625" xlink:href="#BitstreamVeraSans-Roman-50"/>
     <use x="365.96875" xlink:href="#BitstreamVeraSans-Roman-72"/>
     <use x="407.05078125" xlink:href="#BitstreamVeraSans-Roman-6f"/>
     <use x="468.232421875" xlink:href="#BitstreamVeraSans-Roman-62"/>
     <use x="531.708984375" xlink:href="#BitstreamVeraSans-Roman-20"/>
     <use x="563.49609375" xlink:href="#BitstreamVeraSans-Roman-65"/>
     <use x="625.01953125" xlink:href="#BitstreamVeraSans-Roman-6e"/>
     <use x="688.3984375" xlink:href="#BitstreamVeraSans-Roman-64"/>
     <use x="751.875" xlink:href="#BitstreamVeraSans-Roman-3a"/>
     <use x="785.56640625" xlink:href="#BitstreamVeraSans-Roman-20"/>
     <use x="817.353515625" xlink:href="#BitstreamVeraSans-Roman-30"/>
     <use x="880.9765625" xlink:href="#BitstreamVeraSans-Roman-2e"/>
     <use x="912.763671875" xlink:href="#BitstreamVeraSans-Roman-31"/>
     <use x="976.38671875" xlink:href="#BitstreamVeraSans-Roman-2c"/>
     <use x="1008.173828125" xlink:href="#BitstreamVeraSans-Roman-20"/>
     <use x="1039.9609375" xlink:href="#BitstreamVeraSans-Roman-52"/>
     <use x="1109.380859375" xlink:href="#BitstreamVeraSans-Roman-65"/>
     <use x="1170.904296875" xlink:href="#BitstreamVeraSans-Roman-70"/>
     <use x="1234.380859375" xlink:href="#BitstreamVeraSans-Roman-65"/>
     <use x="1295.904296875" xlink:href="#BitstreamVeraSans-Roman-74"/>
     <use x="1335.11328125" xlink:href="#BitstreamVeraSans-Roman-69"/>
     <use x="1362.896484375" xlink:href="#BitstreamVeraSans-Roman-74"/>
     <use x="1402.10546875" xlink:href="#BitstreamVeraSans-Roman-69"/>
     <use x="1429.888671875" xlink:href="#BitstreamVeraSans-Roman-6f"/>
     <use x="1491.0703125" xlink:href="#BitstreamVeraSans-Roman-6e"/>
     <use x="1554.44921875" xlink:href="#BitstreamVeraSans-Roman-73"/>
     <use x="1606.548828125" xlink:href="#BitstreamVeraSans-Roman-3a"/>
     <use x="1640.240234375" xlink:href="#BitstreamVeraSans-Roman-20"/>
     <use x="1672.02734375" xlink:href="#BitstreamVeraSans-Roman-31"/>
     <use x="1735.650390625" xlink:href="#BitstreamVeraSans-Roman-30"/>
     <use x="1799.2734375" xlink:href="#BitstreamVeraSans-Roman-30"/>
     <use x="1862.896484375" xlink:href="#BitstreamVeraSans-Roman-2c"/>
     <use x="1894.68359375" xlink:href="#BitstreamVeraSans-Roman-20"/>
     <use x="1926.470703125" xlink:href="#BitstreamVeraSans-Roman-53"/>
     <use x="1989.947265625" xlink:href="#BitstreamVeraSans-Roman-74"/>
     <use x="2029.15625" xlink:href="#BitstreamVeraSans-Roman-72"/>
     <use x="2070.26953125" xlink:href="#BitstreamVeraSans-Roman-61"/>
     <use x="2131.548828125" xlink:href="#BitstreamVeraSans-Roman-74"/>
     <use x="2170.7578125" xlink:href="#BitstreamVeraSans-Roman-65"/>
     <use x="2232.28125" xlink:href="#BitstreamVeraSans-Roman-67"/>
     <use x="2295.7578125" xlink:href="#BitstreamVeraSans-Roman-69"/>
     <use x="2323.541015625" xlink:href="#BitstreamVeraSans-Roman-65"/>
     <use x="2385.064453125" xlink:href="#BitstreamVeraSans-Roman-73"/>
     <use x="2437.1640625" xlink:href="#BitstreamVeraSans-Roman-3a"/>
     <use x="2470.85546875" xlink:href="#BitstreamVeraSans-Roman-20"/>
     <use x="2502.642578125" xlink:href="#BitstreamVeraSans-Roman-38"/>
     <use x="2566.265625" xlink:href="#BitstreamVeraSans-Roman-2e"/>
    </g>
   </g>
  </g>
 </g>
 <defs>
  <clipPath id="pb07638c8a9">
   <rect height="345.6" width="669.6" x="16.29" y="23.14175"/>
  </clipPath>
 </defs>
</svg>
