<?xml version="1.0" encoding="utf-8" standalone="no"?>
<!DOCTYPE svg PUBLIC "-//W3C//DTD SVG 1.1//EN"
  "http://www.w3.org/Graphics/SVG/1.1/DTD/svg11.dtd">
<!-- Created with matplotlib (http://matplotlib.org/) -->
<svg height="465pt" version="1.1" viewBox="0 0 700 465" width="700pt" xmlns="http://www.w3.org/2000/svg" xmlns:xlink="http://www.w3.org/1999/xlink">
 <defs>
  <style type="text/css">
*{stroke-linecap:butt;stroke-linejoin:round;stroke-miterlimit:100000;}
  </style>
 </defs>
 <g id="figure_1">
  <g id="patch_1">
   <path d="M 0 465.868 
L 700.7225 465.868 
L 700.7225 0 
L 0 0 
z
" style="fill:#ffffff;"/>
  </g>
  <g id="axes_1">
   <g id="patch_2">
    <path d="M 23.9225 368.74175 
L 693.5225 368.74175 
L 693.5225 23.14175 
L 23.9225 23.14175 
z
" style="fill:#ffffff;"/>
   </g>
   <g id="PolyCollection_1">
    <defs>
     <path d="M 114.714039 -427.914821 
L 81.930961 -427.914821 
L 81.839789 -427.997938 
L 81.750583 -428.081055 
L 81.663349 -428.164172 
L 81.578093 -428.247289 
L 81.494819 -428.330406 
L 81.413531 -428.413523 
L 81.334231 -428.49664 
L 81.256919 -428.579756 
L 81.181597 -428.662873 
L 81.108262 -428.74599 
L 81.036912 -428.829107 
L 80.967545 -428.912224 
L 80.900156 -428.995341 
L 80.834741 -429.078458 
L 80.771294 -429.161575 
L 80.709809 -429.244692 
L 80.650278 -429.327808 
L 80.592696 -429.410925 
L 80.537053 -429.494042 
L 80.483341 -429.577159 
L 80.43155 -429.660276 
L 80.381672 -429.743393 
L 80.333697 -429.82651 
L 80.287614 -429.909627 
L 80.243414 -429.992744 
L 80.201087 -430.07586 
L 80.160621 -430.158977 
L 80.122007 -430.242094 
L 80.085234 -430.325211 
L 80.050291 -430.408328 
L 80.017169 -430.491445 
L 79.985857 -430.574562 
L 79.956345 -430.657679 
L 79.928625 -430.740795 
L 79.902686 -430.823912 
L 79.87852 -430.907029 
L 79.856118 -430.990146 
L 79.835472 -431.073263 
L 79.816574 -431.15638 
L 79.799419 -431.239497 
L 79.783998 -431.322614 
L 79.770306 -431.405731 
L 79.758337 -431.488847 
L 79.748088 -431.571964 
L 79.739553 -431.655081 
L 79.732729 -431.738198 
L 79.727613 -431.821315 
L 79.724204 -431.904432 
L 79.7225 -431.987549 
L 79.7225 -432.070666 
L 79.724204 -432.153782 
L 79.727613 -432.236899 
L 79.732729 -432.320016 
L 79.739553 -432.403133 
L 79.748088 -432.48625 
L 79.758337 -432.569367 
L 79.770306 -432.652484 
L 79.783998 -432.735601 
L 79.799419 -432.818718 
L 79.816574 -432.901834 
L 79.835472 -432.984951 
L 79.856118 -433.068068 
L 79.87852 -433.151185 
L 79.902686 -433.234302 
L 79.928625 -433.317419 
L 79.956345 -433.400536 
L 79.985857 -433.483653 
L 80.017169 -433.566769 
L 80.050291 -433.649886 
L 80.085234 -433.733003 
L 80.122007 -433.81612 
L 80.160621 -433.899237 
L 80.201087 -433.982354 
L 80.243414 -434.065471 
L 80.287614 -434.148588 
L 80.333697 -434.231705 
L 80.381672 -434.314821 
L 80.43155 -434.397938 
L 80.483341 -434.481055 
L 80.537053 -434.564172 
L 80.592696 -434.647289 
L 80.650278 -434.730406 
L 80.709809 -434.813523 
L 80.771294 -434.89664 
L 80.834741 -434.979756 
L 80.900156 -435.062873 
L 80.967545 -435.14599 
L 81.036912 -435.229107 
L 81.108262 -435.312224 
L 81.181597 -435.395341 
L 81.256919 -435.478458 
L 81.334231 -435.561575 
L 81.413531 -435.644692 
L 81.494819 -435.727808 
L 81.578093 -435.810925 
L 81.663349 -435.894042 
L 81.750583 -435.977159 
L 81.839789 -436.060276 
L 81.930961 -436.143393 
L 114.714039 -436.143393 
L 114.714039 -436.143393 
L 114.805211 -436.060276 
L 114.894417 -435.977159 
L 114.981651 -435.894042 
L 115.066907 -435.810925 
L 115.150181 -435.727808 
L 115.231469 -435.644692 
L 115.310769 -435.561575 
L 115.388081 -435.478458 
L 115.463403 -435.395341 
L 115.536738 -435.312224 
L 115.608088 -435.229107 
L 115.677455 -435.14599 
L 115.744844 -435.062873 
L 115.810259 -434.979756 
L 115.873706 -434.89664 
L 115.935191 -434.813523 
L 115.994722 -434.730406 
L 116.052304 -434.647289 
L 116.107947 -434.564172 
L 116.161659 -434.481055 
L 116.21345 -434.397938 
L 116.263328 -434.314821 
L 116.311303 -434.231705 
L 116.357386 -434.148588 
L 116.401586 -434.065471 
L 116.443913 -433.982354 
L 116.484379 -433.899237 
L 116.522993 -433.81612 
L 116.559766 -433.733003 
L 116.594709 -433.649886 
L 116.627831 -433.566769 
L 116.659143 -433.483653 
L 116.688655 -433.400536 
L 116.716375 -433.317419 
L 116.742314 -433.234302 
L 116.76648 -433.151185 
L 116.788882 -433.068068 
L 116.809528 -432.984951 
L 116.828426 -432.901834 
L 116.845581 -432.818718 
L 116.861002 -432.735601 
L 116.874694 -432.652484 
L 116.886663 -432.569367 
L 116.896912 -432.48625 
L 116.905447 -432.403133 
L 116.912271 -432.320016 
L 116.917387 -432.236899 
L 116.920796 -432.153782 
L 116.9225 -432.070666 
L 116.9225 -431.987549 
L 116.920796 -431.904432 
L 116.917387 -431.821315 
L 116.912271 -431.738198 
L 116.905447 -431.655081 
L 116.896912 -431.571964 
L 116.886663 -431.488847 
L 116.874694 -431.405731 
L 116.861002 -431.322614 
L 116.845581 -431.239497 
L 116.828426 -431.15638 
L 116.809528 -431.073263 
L 116.788882 -430.990146 
L 116.76648 -430.907029 
L 116.742314 -430.823912 
L 116.716375 -430.740795 
L 116.688655 -430.657679 
L 116.659143 -430.574562 
L 116.627831 -430.491445 
L 116.594709 -430.408328 
L 116.559766 -430.325211 
L 116.522993 -430.242094 
L 116.484379 -430.158977 
L 116.443913 -430.07586 
L 116.401586 -429.992744 
L 116.357386 -429.909627 
L 116.311303 -429.82651 
L 116.263328 -429.743393 
L 116.21345 -429.660276 
L 116.161659 -429.577159 
L 116.107947 -429.494042 
L 116.052304 -429.410925 
L 115.994722 -429.327808 
L 115.935191 -429.244692 
L 115.873706 -429.161575 
L 115.810259 -429.078458 
L 115.744844 -428.995341 
L 115.677455 -428.912224 
L 115.608088 -428.829107 
L 115.536738 -428.74599 
L 115.463403 -428.662873 
L 115.388081 -428.579756 
L 115.310769 -428.49664 
L 115.231469 -428.413523 
L 115.150181 -428.330406 
L 115.066907 -428.247289 
L 114.981651 -428.164172 
L 114.894417 -428.081055 
L 114.805211 -427.997938 
L 114.714039 -427.914821 
z
" id="m9748c9a297" style="stroke:#000000;stroke-opacity:0.3;"/>
    </defs>
    <g clip-path="url(#p085967e5c8)">
     <use style="fill:#bfbf00;fill-opacity:0.3;stroke:#000000;stroke-opacity:0.3;" x="0.0" xlink:href="#m9748c9a297" y="465.868"/>
    </g>
   </g>
   <g id="PolyCollection_2">
    <defs>
     <path d="M 189.114039 -386.543688 
L 156.330961 -386.543688 
L 156.239789 -386.774565 
L 156.150583 -387.005442 
L 156.063349 -387.23632 
L 155.978093 -387.467197 
L 155.894819 -387.698074 
L 155.813531 -387.928951 
L 155.734231 -388.159829 
L 155.656919 -388.390706 
L 155.581597 -388.621583 
L 155.508262 -388.85246 
L 155.436912 -389.083338 
L 155.367545 -389.314215 
L 155.300156 -389.545092 
L 155.234741 -389.775969 
L 155.171294 -390.006847 
L 155.109809 -390.237724 
L 155.050278 -390.468601 
L 154.992696 -390.699478 
L 154.937053 -390.930356 
L 154.883341 -391.161233 
L 154.83155 -391.39211 
L 154.781672 -391.622987 
L 154.733697 -391.853865 
L 154.687614 -392.084742 
L 154.643414 -392.315619 
L 154.601087 -392.546496 
L 154.560621 -392.777374 
L 154.522007 -393.008251 
L 154.485234 -393.239128 
L 154.450291 -393.470005 
L 154.417169 -393.700883 
L 154.385857 -393.93176 
L 154.356345 -394.162637 
L 154.328625 -394.393514 
L 154.302686 -394.624392 
L 154.27852 -394.855269 
L 154.256118 -395.086146 
L 154.235472 -395.317023 
L 154.216574 -395.547901 
L 154.199419 -395.778778 
L 154.183998 -396.009655 
L 154.170306 -396.240532 
L 154.158337 -396.47141 
L 154.148088 -396.702287 
L 154.139553 -396.933164 
L 154.132729 -397.164041 
L 154.127613 -397.394919 
L 154.124204 -397.625796 
L 154.1225 -397.856673 
L 154.1225 -398.08755 
L 154.124204 -398.318428 
L 154.127613 -398.549305 
L 154.132729 -398.780182 
L 154.139553 -399.011059 
L 154.148088 -399.241937 
L 154.158337 -399.472814 
L 154.170306 -399.703691 
L 154.183998 -399.934568 
L 154.199419 -400.165446 
L 154.216574 -400.396323 
L 154.235472 -400.6272 
L 154.256118 -400.858077 
L 154.27852 -401.088955 
L 154.302686 -401.319832 
L 154.328625 -401.550709 
L 154.356345 -401.781586 
L 154.385857 -402.012464 
L 154.417169 -402.243341 
L 154.450291 -402.474218 
L 154.485234 -402.705095 
L 154.522007 -402.935973 
L 154.560621 -403.16685 
L 154.601087 -403.397727 
L 154.643414 -403.628604 
L 154.687614 -403.859482 
L 154.733697 -404.090359 
L 154.781672 -404.321236 
L 154.83155 -404.552113 
L 154.883341 -404.782991 
L 154.937053 -405.013868 
L 154.992696 -405.244745 
L 155.050278 -405.475622 
L 155.109809 -405.7065 
L 155.171294 -405.937377 
L 155.234741 -406.168254 
L 155.300156 -406.399131 
L 155.367545 -406.630009 
L 155.436912 -406.860886 
L 155.508262 -407.091763 
L 155.581597 -407.32264 
L 155.656919 -407.553518 
L 155.734231 -407.784395 
L 155.813531 -408.015272 
L 155.894819 -408.246149 
L 155.978093 -408.477027 
L 156.063349 -408.707904 
L 156.150583 -408.938781 
L 156.239789 -409.169658 
L 156.330961 -409.400536 
L 189.114039 -409.400536 
L 189.114039 -409.400536 
L 189.205211 -409.169658 
L 189.294417 -408.938781 
L 189.381651 -408.707904 
L 189.466907 -408.477027 
L 189.550181 -408.246149 
L 189.631469 -408.015272 
L 189.710769 -407.784395 
L 189.788081 -407.553518 
L 189.863403 -407.32264 
L 189.936738 -407.091763 
L 190.008088 -406.860886 
L 190.077455 -406.630009 
L 190.144844 -406.399131 
L 190.210259 -406.168254 
L 190.273706 -405.937377 
L 190.335191 -405.7065 
L 190.394722 -405.475622 
L 190.452304 -405.244745 
L 190.507947 -405.013868 
L 190.561659 -404.782991 
L 190.61345 -404.552113 
L 190.663328 -404.321236 
L 190.711303 -404.090359 
L 190.757386 -403.859482 
L 190.801586 -403.628604 
L 190.843913 -403.397727 
L 190.884379 -403.16685 
L 190.922993 -402.935973 
L 190.959766 -402.705095 
L 190.994709 -402.474218 
L 191.027831 -402.243341 
L 191.059143 -402.012464 
L 191.088655 -401.781586 
L 191.116375 -401.550709 
L 191.142314 -401.319832 
L 191.16648 -401.088955 
L 191.188882 -400.858077 
L 191.209528 -400.6272 
L 191.228426 -400.396323 
L 191.245581 -400.165446 
L 191.261002 -399.934568 
L 191.274694 -399.703691 
L 191.286663 -399.472814 
L 191.296912 -399.241937 
L 191.305447 -399.011059 
L 191.312271 -398.780182 
L 191.317387 -398.549305 
L 191.320796 -398.318428 
L 191.3225 -398.08755 
L 191.3225 -397.856673 
L 191.320796 -397.625796 
L 191.317387 -397.394919 
L 191.312271 -397.164041 
L 191.305447 -396.933164 
L 191.296912 -396.702287 
L 191.286663 -396.47141 
L 191.274694 -396.240532 
L 191.261002 -396.009655 
L 191.245581 -395.778778 
L 191.228426 -395.547901 
L 191.209528 -395.317023 
L 191.188882 -395.086146 
L 191.16648 -394.855269 
L 191.142314 -394.624392 
L 191.116375 -394.393514 
L 191.088655 -394.162637 
L 191.059143 -393.93176 
L 191.027831 -393.700883 
L 190.994709 -393.470005 
L 190.959766 -393.239128 
L 190.922993 -393.008251 
L 190.884379 -392.777374 
L 190.843913 -392.546496 
L 190.801586 -392.315619 
L 190.757386 -392.084742 
L 190.711303 -391.853865 
L 190.663328 -391.622987 
L 190.61345 -391.39211 
L 190.561659 -391.161233 
L 190.507947 -390.930356 
L 190.452304 -390.699478 
L 190.394722 -390.468601 
L 190.335191 -390.237724 
L 190.273706 -390.006847 
L 190.210259 -389.775969 
L 190.144844 -389.545092 
L 190.077455 -389.314215 
L 190.008088 -389.083338 
L 189.936738 -388.85246 
L 189.863403 -388.621583 
L 189.788081 -388.390706 
L 189.710769 -388.159829 
L 189.631469 -387.928951 
L 189.550181 -387.698074 
L 189.466907 -387.467197 
L 189.381651 -387.23632 
L 189.294417 -387.005442 
L 189.205211 -386.774565 
L 189.114039 -386.543688 
z
" id="m213bc7f267" style="stroke:#000000;stroke-opacity:0.3;"/>
    </defs>
    <g clip-path="url(#p085967e5c8)">
     <use style="fill:#bfbf00;fill-opacity:0.3;stroke:#000000;stroke-opacity:0.3;" x="0.0" xlink:href="#m213bc7f267" y="465.868"/>
    </g>
   </g>
   <g id="PolyCollection_3">
    <defs>
     <path d="M 263.514039 -370.711268 
L 230.730961 -370.711268 
L 230.639789 -371.187611 
L 230.550583 -371.663955 
L 230.463349 -372.140298 
L 230.378093 -372.616642 
L 230.294819 -373.092985 
L 230.213531 -373.569328 
L 230.134231 -374.045672 
L 230.056919 -374.522015 
L 229.981597 -374.998358 
L 229.908262 -375.474702 
L 229.836912 -375.951045 
L 229.767545 -376.427389 
L 229.700156 -376.903732 
L 229.634741 -377.380075 
L 229.571294 -377.856419 
L 229.509809 -378.332762 
L 229.450278 -378.809105 
L 229.392696 -379.285449 
L 229.337053 -379.761792 
L 229.283341 -380.238136 
L 229.23155 -380.714479 
L 229.181672 -381.190822 
L 229.133697 -381.667166 
L 229.087614 -382.143509 
L 229.043414 -382.619852 
L 229.001087 -383.096196 
L 228.960621 -383.572539 
L 228.922007 -384.048883 
L 228.885234 -384.525226 
L 228.850291 -385.001569 
L 228.817169 -385.477913 
L 228.785857 -385.954256 
L 228.756345 -386.430599 
L 228.728625 -386.906943 
L 228.702686 -387.383286 
L 228.67852 -387.85963 
L 228.656118 -388.335973 
L 228.635472 -388.812316 
L 228.616574 -389.28866 
L 228.599419 -389.765003 
L 228.583998 -390.241346 
L 228.570306 -390.71769 
L 228.558337 -391.194033 
L 228.548088 -391.670377 
L 228.539553 -392.14672 
L 228.532729 -392.623063 
L 228.527613 -393.099407 
L 228.524204 -393.57575 
L 228.5225 -394.052093 
L 228.5225 -394.528437 
L 228.524204 -395.00478 
L 228.527613 -395.481124 
L 228.532729 -395.957467 
L 228.539553 -396.43381 
L 228.548088 -396.910154 
L 228.558337 -397.386497 
L 228.570306 -397.86284 
L 228.583998 -398.339184 
L 228.599419 -398.815527 
L 228.616574 -399.291871 
L 228.635472 -399.768214 
L 228.656118 -400.244557 
L 228.67852 -400.720901 
L 228.702686 -401.197244 
L 228.728625 -401.673587 
L 228.756345 -402.149931 
L 228.785857 -402.626274 
L 228.817169 -403.102618 
L 228.850291 -403.578961 
L 228.885234 -404.055304 
L 228.922007 -404.531648 
L 228.960621 -405.007991 
L 229.001087 -405.484334 
L 229.043414 -405.960678 
L 229.087614 -406.437021 
L 229.133697 -406.913365 
L 229.181672 -407.389708 
L 229.23155 -407.866051 
L 229.283341 -408.342395 
L 229.337053 -408.818738 
L 229.392696 -409.295082 
L 229.450278 -409.771425 
L 229.509809 -410.247768 
L 229.571294 -410.724112 
L 229.634741 -411.200455 
L 229.700156 -411.676798 
L 229.767545 -412.153142 
L 229.836912 -412.629485 
L 229.908262 -413.105829 
L 229.981597 -413.582172 
L 230.056919 -414.058515 
L 230.134231 -414.534859 
L 230.213531 -415.011202 
L 230.294819 -415.487545 
L 230.378093 -415.963889 
L 230.463349 -416.440232 
L 230.550583 -416.916576 
L 230.639789 -417.392919 
L 230.730961 -417.869262 
L 263.514039 -417.869262 
L 263.514039 -417.869262 
L 263.605211 -417.392919 
L 263.694417 -416.916576 
L 263.781651 -416.440232 
L 263.866907 -415.963889 
L 263.950181 -415.487545 
L 264.031469 -415.011202 
L 264.110769 -414.534859 
L 264.188081 -414.058515 
L 264.263403 -413.582172 
L 264.336738 -413.105829 
L 264.408088 -412.629485 
L 264.477455 -412.153142 
L 264.544844 -411.676798 
L 264.610259 -411.200455 
L 264.673706 -410.724112 
L 264.735191 -410.247768 
L 264.794722 -409.771425 
L 264.852304 -409.295082 
L 264.907947 -408.818738 
L 264.961659 -408.342395 
L 265.01345 -407.866051 
L 265.063328 -407.389708 
L 265.111303 -406.913365 
L 265.157386 -406.437021 
L 265.201586 -405.960678 
L 265.243913 -405.484334 
L 265.284379 -405.007991 
L 265.322993 -404.531648 
L 265.359766 -404.055304 
L 265.394709 -403.578961 
L 265.427831 -403.102618 
L 265.459143 -402.626274 
L 265.488655 -402.149931 
L 265.516375 -401.673587 
L 265.542314 -401.197244 
L 265.56648 -400.720901 
L 265.588882 -400.244557 
L 265.609528 -399.768214 
L 265.628426 -399.291871 
L 265.645581 -398.815527 
L 265.661002 -398.339184 
L 265.674694 -397.86284 
L 265.686663 -397.386497 
L 265.696912 -396.910154 
L 265.705447 -396.43381 
L 265.712271 -395.957467 
L 265.717387 -395.481124 
L 265.720796 -395.00478 
L 265.7225 -394.528437 
L 265.7225 -394.052093 
L 265.720796 -393.57575 
L 265.717387 -393.099407 
L 265.712271 -392.623063 
L 265.705447 -392.14672 
L 265.696912 -391.670377 
L 265.686663 -391.194033 
L 265.674694 -390.71769 
L 265.661002 -390.241346 
L 265.645581 -389.765003 
L 265.628426 -389.28866 
L 265.609528 -388.812316 
L 265.588882 -388.335973 
L 265.56648 -387.85963 
L 265.542314 -387.383286 
L 265.516375 -386.906943 
L 265.488655 -386.430599 
L 265.459143 -385.954256 
L 265.427831 -385.477913 
L 265.394709 -385.001569 
L 265.359766 -384.525226 
L 265.322993 -384.048883 
L 265.284379 -383.572539 
L 265.243913 -383.096196 
L 265.201586 -382.619852 
L 265.157386 -382.143509 
L 265.111303 -381.667166 
L 265.063328 -381.190822 
L 265.01345 -380.714479 
L 264.961659 -380.238136 
L 264.907947 -379.761792 
L 264.852304 -379.285449 
L 264.794722 -378.809105 
L 264.735191 -378.332762 
L 264.673706 -377.856419 
L 264.610259 -377.380075 
L 264.544844 -376.903732 
L 264.477455 -376.427389 
L 264.408088 -375.951045 
L 264.336738 -375.474702 
L 264.263403 -374.998358 
L 264.188081 -374.522015 
L 264.110769 -374.045672 
L 264.031469 -373.569328 
L 263.950181 -373.092985 
L 263.866907 -372.616642 
L 263.781651 -372.140298 
L 263.694417 -371.663955 
L 263.605211 -371.187611 
L 263.514039 -370.711268 
z
" id="m6fcb39c70e" style="stroke:#000000;stroke-opacity:0.3;"/>
    </defs>
    <g clip-path="url(#p085967e5c8)">
     <use style="fill:#bfbf00;fill-opacity:0.3;stroke:#000000;stroke-opacity:0.3;" x="0.0" xlink:href="#m6fcb39c70e" y="465.868"/>
    </g>
   </g>
   <g id="PolyCollection_4">
    <defs>
     <path d="M 337.914039 -263.891964 
L 305.130961 -263.891964 
L 305.039789 -263.979103 
L 304.950583 -264.066241 
L 304.863349 -264.15338 
L 304.778093 -264.240518 
L 304.694819 -264.327657 
L 304.613531 -264.414795 
L 304.534231 -264.501934 
L 304.456919 -264.589072 
L 304.381597 -264.676211 
L 304.308262 -264.763349 
L 304.236912 -264.850487 
L 304.167545 -264.937626 
L 304.100156 -265.024764 
L 304.034741 -265.111903 
L 303.971294 -265.199041 
L 303.909809 -265.28618 
L 303.850278 -265.373318 
L 303.792696 -265.460457 
L 303.737053 -265.547595 
L 303.683341 -265.634734 
L 303.63155 -265.721872 
L 303.581672 -265.809011 
L 303.533697 -265.896149 
L 303.487614 -265.983288 
L 303.443414 -266.070426 
L 303.401087 -266.157565 
L 303.360621 -266.244703 
L 303.322007 -266.331841 
L 303.285234 -266.41898 
L 303.250291 -266.506118 
L 303.217169 -266.593257 
L 303.185857 -266.680395 
L 303.156345 -266.767534 
L 303.128625 -266.854672 
L 303.102686 -266.941811 
L 303.07852 -267.028949 
L 303.056118 -267.116088 
L 303.035472 -267.203226 
L 303.016574 -267.290365 
L 302.999419 -267.377503 
L 302.983998 -267.464642 
L 302.970306 -267.55178 
L 302.958337 -267.638919 
L 302.948088 -267.726057 
L 302.939553 -267.813195 
L 302.932729 -267.900334 
L 302.927613 -267.987472 
L 302.924204 -268.074611 
L 302.9225 -268.161749 
L 302.9225 -268.248888 
L 302.924204 -268.336026 
L 302.927613 -268.423165 
L 302.932729 -268.510303 
L 302.939553 -268.597442 
L 302.948088 -268.68458 
L 302.958337 -268.771719 
L 302.970306 -268.858857 
L 302.983998 -268.945996 
L 302.999419 -269.033134 
L 303.016574 -269.120273 
L 303.035472 -269.207411 
L 303.056118 -269.29455 
L 303.07852 -269.381688 
L 303.102686 -269.468826 
L 303.128625 -269.555965 
L 303.156345 -269.643103 
L 303.185857 -269.730242 
L 303.217169 -269.81738 
L 303.250291 -269.904519 
L 303.285234 -269.991657 
L 303.322007 -270.078796 
L 303.360621 -270.165934 
L 303.401087 -270.253073 
L 303.443414 -270.340211 
L 303.487614 -270.42735 
L 303.533697 -270.514488 
L 303.581672 -270.601627 
L 303.63155 -270.688765 
L 303.683341 -270.775904 
L 303.737053 -270.863042 
L 303.792696 -270.95018 
L 303.850278 -271.037319 
L 303.909809 -271.124457 
L 303.971294 -271.211596 
L 304.034741 -271.298734 
L 304.100156 -271.385873 
L 304.167545 -271.473011 
L 304.236912 -271.56015 
L 304.308262 -271.647288 
L 304.381597 -271.734427 
L 304.456919 -271.821565 
L 304.534231 -271.908704 
L 304.613531 -271.995842 
L 304.694819 -272.082981 
L 304.778093 -272.170119 
L 304.863349 -272.257258 
L 304.950583 -272.344396 
L 305.039789 -272.431534 
L 305.130961 -272.518673 
L 337.914039 -272.518673 
L 337.914039 -272.518673 
L 338.005211 -272.431534 
L 338.094417 -272.344396 
L 338.181651 -272.257258 
L 338.266907 -272.170119 
L 338.350181 -272.082981 
L 338.431469 -271.995842 
L 338.510769 -271.908704 
L 338.588081 -271.821565 
L 338.663403 -271.734427 
L 338.736738 -271.647288 
L 338.808088 -271.56015 
L 338.877455 -271.473011 
L 338.944844 -271.385873 
L 339.010259 -271.298734 
L 339.073706 -271.211596 
L 339.135191 -271.124457 
L 339.194722 -271.037319 
L 339.252304 -270.95018 
L 339.307947 -270.863042 
L 339.361659 -270.775904 
L 339.41345 -270.688765 
L 339.463328 -270.601627 
L 339.511303 -270.514488 
L 339.557386 -270.42735 
L 339.601586 -270.340211 
L 339.643913 -270.253073 
L 339.684379 -270.165934 
L 339.722993 -270.078796 
L 339.759766 -269.991657 
L 339.794709 -269.904519 
L 339.827831 -269.81738 
L 339.859143 -269.730242 
L 339.888655 -269.643103 
L 339.916375 -269.555965 
L 339.942314 -269.468826 
L 339.96648 -269.381688 
L 339.988882 -269.29455 
L 340.009528 -269.207411 
L 340.028426 -269.120273 
L 340.045581 -269.033134 
L 340.061002 -268.945996 
L 340.074694 -268.858857 
L 340.086663 -268.771719 
L 340.096912 -268.68458 
L 340.105447 -268.597442 
L 340.112271 -268.510303 
L 340.117387 -268.423165 
L 340.120796 -268.336026 
L 340.1225 -268.248888 
L 340.1225 -268.161749 
L 340.120796 -268.074611 
L 340.117387 -267.987472 
L 340.112271 -267.900334 
L 340.105447 -267.813195 
L 340.096912 -267.726057 
L 340.086663 -267.638919 
L 340.074694 -267.55178 
L 340.061002 -267.464642 
L 340.045581 -267.377503 
L 340.028426 -267.290365 
L 340.009528 -267.203226 
L 339.988882 -267.116088 
L 339.96648 -267.028949 
L 339.942314 -266.941811 
L 339.916375 -266.854672 
L 339.888655 -266.767534 
L 339.859143 -266.680395 
L 339.827831 -266.593257 
L 339.794709 -266.506118 
L 339.759766 -266.41898 
L 339.722993 -266.331841 
L 339.684379 -266.244703 
L 339.643913 -266.157565 
L 339.601586 -266.070426 
L 339.557386 -265.983288 
L 339.511303 -265.896149 
L 339.463328 -265.809011 
L 339.41345 -265.721872 
L 339.361659 -265.634734 
L 339.307947 -265.547595 
L 339.252304 -265.460457 
L 339.194722 -265.373318 
L 339.135191 -265.28618 
L 339.073706 -265.199041 
L 339.010259 -265.111903 
L 338.944844 -265.024764 
L 338.877455 -264.937626 
L 338.808088 -264.850487 
L 338.736738 -264.763349 
L 338.663403 -264.676211 
L 338.588081 -264.589072 
L 338.510769 -264.501934 
L 338.431469 -264.414795 
L 338.350181 -264.327657 
L 338.266907 -264.240518 
L 338.181651 -264.15338 
L 338.094417 -264.066241 
L 338.005211 -263.979103 
L 337.914039 -263.891964 
z
" id="mef9afb3f79" style="stroke:#000000;stroke-opacity:0.3;"/>
    </defs>
    <g clip-path="url(#p085967e5c8)">
     <use style="fill:#bfbf00;fill-opacity:0.3;stroke:#000000;stroke-opacity:0.3;" x="0.0" xlink:href="#mef9afb3f79" y="465.868"/>
    </g>
   </g>
   <g id="PolyCollection_5">
    <defs>
     <path d="M 412.314039 -236.930873 
L 379.530961 -236.930873 
L 379.439789 -237.284694 
L 379.350583 -237.638516 
L 379.263349 -237.992337 
L 379.178093 -238.346159 
L 379.094819 -238.69998 
L 379.013531 -239.053801 
L 378.934231 -239.407623 
L 378.856919 -239.761444 
L 378.781597 -240.115266 
L 378.708262 -240.469087 
L 378.636912 -240.822908 
L 378.567545 -241.17673 
L 378.500156 -241.530551 
L 378.434741 -241.884372 
L 378.371294 -242.238194 
L 378.309809 -242.592015 
L 378.250278 -242.945837 
L 378.192696 -243.299658 
L 378.137053 -243.653479 
L 378.083341 -244.007301 
L 378.03155 -244.361122 
L 377.981672 -244.714944 
L 377.933697 -245.068765 
L 377.887614 -245.422586 
L 377.843414 -245.776408 
L 377.801087 -246.130229 
L 377.760621 -246.484051 
L 377.722007 -246.837872 
L 377.685234 -247.191693 
L 377.650291 -247.545515 
L 377.617169 -247.899336 
L 377.585857 -248.253158 
L 377.556345 -248.606979 
L 377.528625 -248.9608 
L 377.502686 -249.314622 
L 377.47852 -249.668443 
L 377.456118 -250.022265 
L 377.435472 -250.376086 
L 377.416574 -250.729907 
L 377.399419 -251.083729 
L 377.383998 -251.43755 
L 377.370306 -251.791372 
L 377.358337 -252.145193 
L 377.348088 -252.499014 
L 377.339553 -252.852836 
L 377.332729 -253.206657 
L 377.327613 -253.560479 
L 377.324204 -253.9143 
L 377.3225 -254.268121 
L 377.3225 -254.621943 
L 377.324204 -254.975764 
L 377.327613 -255.329586 
L 377.332729 -255.683407 
L 377.339553 -256.037228 
L 377.348088 -256.39105 
L 377.358337 -256.744871 
L 377.370306 -257.098693 
L 377.383998 -257.452514 
L 377.399419 -257.806335 
L 377.416574 -258.160157 
L 377.435472 -258.513978 
L 377.456118 -258.8678 
L 377.47852 -259.221621 
L 377.502686 -259.575442 
L 377.528625 -259.929264 
L 377.556345 -260.283085 
L 377.585857 -260.636906 
L 377.617169 -260.990728 
L 377.650291 -261.344549 
L 377.685234 -261.698371 
L 377.722007 -262.052192 
L 377.760621 -262.406013 
L 377.801087 -262.759835 
L 377.843414 -263.113656 
L 377.887614 -263.467478 
L 377.933697 -263.821299 
L 377.981672 -264.17512 
L 378.03155 -264.528942 
L 378.083341 -264.882763 
L 378.137053 -265.236585 
L 378.192696 -265.590406 
L 378.250278 -265.944227 
L 378.309809 -266.298049 
L 378.371294 -266.65187 
L 378.434741 -267.005692 
L 378.500156 -267.359513 
L 378.567545 -267.713334 
L 378.636912 -268.067156 
L 378.708262 -268.420977 
L 378.781597 -268.774799 
L 378.856919 -269.12862 
L 378.934231 -269.482441 
L 379.013531 -269.836263 
L 379.094819 -270.190084 
L 379.178093 -270.543906 
L 379.263349 -270.897727 
L 379.350583 -271.251548 
L 379.439789 -271.60537 
L 379.530961 -271.959191 
L 412.314039 -271.959191 
L 412.314039 -271.959191 
L 412.405211 -271.60537 
L 412.494417 -271.251548 
L 412.581651 -270.897727 
L 412.666907 -270.543906 
L 412.750181 -270.190084 
L 412.831469 -269.836263 
L 412.910769 -269.482441 
L 412.988081 -269.12862 
L 413.063403 -268.774799 
L 413.136738 -268.420977 
L 413.208088 -268.067156 
L 413.277455 -267.713334 
L 413.344844 -267.359513 
L 413.410259 -267.005692 
L 413.473706 -266.65187 
L 413.535191 -266.298049 
L 413.594722 -265.944227 
L 413.652304 -265.590406 
L 413.707947 -265.236585 
L 413.761659 -264.882763 
L 413.81345 -264.528942 
L 413.863328 -264.17512 
L 413.911303 -263.821299 
L 413.957386 -263.467478 
L 414.001586 -263.113656 
L 414.043913 -262.759835 
L 414.084379 -262.406013 
L 414.122993 -262.052192 
L 414.159766 -261.698371 
L 414.194709 -261.344549 
L 414.227831 -260.990728 
L 414.259143 -260.636906 
L 414.288655 -260.283085 
L 414.316375 -259.929264 
L 414.342314 -259.575442 
L 414.36648 -259.221621 
L 414.388882 -258.8678 
L 414.409528 -258.513978 
L 414.428426 -258.160157 
L 414.445581 -257.806335 
L 414.461002 -257.452514 
L 414.474694 -257.098693 
L 414.486663 -256.744871 
L 414.496912 -256.39105 
L 414.505447 -256.037228 
L 414.512271 -255.683407 
L 414.517387 -255.329586 
L 414.520796 -254.975764 
L 414.5225 -254.621943 
L 414.5225 -254.268121 
L 414.520796 -253.9143 
L 414.517387 -253.560479 
L 414.512271 -253.206657 
L 414.505447 -252.852836 
L 414.496912 -252.499014 
L 414.486663 -252.145193 
L 414.474694 -251.791372 
L 414.461002 -251.43755 
L 414.445581 -251.083729 
L 414.428426 -250.729907 
L 414.409528 -250.376086 
L 414.388882 -250.022265 
L 414.36648 -249.668443 
L 414.342314 -249.314622 
L 414.316375 -248.9608 
L 414.288655 -248.606979 
L 414.259143 -248.253158 
L 414.227831 -247.899336 
L 414.194709 -247.545515 
L 414.159766 -247.191693 
L 414.122993 -246.837872 
L 414.084379 -246.484051 
L 414.043913 -246.130229 
L 414.001586 -245.776408 
L 413.957386 -245.422586 
L 413.911303 -245.068765 
L 413.863328 -244.714944 
L 413.81345 -244.361122 
L 413.761659 -244.007301 
L 413.707947 -243.653479 
L 413.652304 -243.299658 
L 413.594722 -242.945837 
L 413.535191 -242.592015 
L 413.473706 -242.238194 
L 413.410259 -241.884372 
L 413.344844 -241.530551 
L 413.277455 -241.17673 
L 413.208088 -240.822908 
L 413.136738 -240.469087 
L 413.063403 -240.115266 
L 412.988081 -239.761444 
L 412.910769 -239.407623 
L 412.831469 -239.053801 
L 412.750181 -238.69998 
L 412.666907 -238.346159 
L 412.581651 -237.992337 
L 412.494417 -237.638516 
L 412.405211 -237.284694 
L 412.314039 -236.930873 
z
" id="m8c82b8cc54" style="stroke:#000000;stroke-opacity:0.3;"/>
    </defs>
    <g clip-path="url(#p085967e5c8)">
     <use style="fill:#bfbf00;fill-opacity:0.3;stroke:#000000;stroke-opacity:0.3;" x="0.0" xlink:href="#m8c82b8cc54" y="465.868"/>
    </g>
   </g>
   <g id="PolyCollection_6">
    <defs>
     <path d="M 486.714039 -194.073782 
L 453.930961 -194.073782 
L 453.839789 -194.975331 
L 453.750583 -195.876879 
L 453.663349 -196.778427 
L 453.578093 -197.679976 
L 453.494819 -198.581524 
L 453.413531 -199.483072 
L 453.334231 -200.384621 
L 453.256919 -201.286169 
L 453.181597 -202.187717 
L 453.108262 -203.089266 
L 453.036912 -203.990814 
L 452.967545 -204.892362 
L 452.900156 -205.793911 
L 452.834741 -206.695459 
L 452.771294 -207.597007 
L 452.709809 -208.498556 
L 452.650278 -209.400104 
L 452.592696 -210.301652 
L 452.537053 -211.203201 
L 452.483341 -212.104749 
L 452.43155 -213.006297 
L 452.381672 -213.907846 
L 452.333697 -214.809394 
L 452.287614 -215.710942 
L 452.243414 -216.612491 
L 452.201087 -217.514039 
L 452.160621 -218.415587 
L 452.122007 -219.317135 
L 452.085234 -220.218684 
L 452.050291 -221.120232 
L 452.017169 -222.02178 
L 451.985857 -222.923329 
L 451.956345 -223.824877 
L 451.928625 -224.726425 
L 451.902686 -225.627974 
L 451.87852 -226.529522 
L 451.856118 -227.43107 
L 451.835472 -228.332619 
L 451.816574 -229.234167 
L 451.799419 -230.135715 
L 451.783998 -231.037264 
L 451.770306 -231.938812 
L 451.758337 -232.84036 
L 451.748088 -233.741909 
L 451.739553 -234.643457 
L 451.732729 -235.545005 
L 451.727613 -236.446554 
L 451.724204 -237.348102 
L 451.7225 -238.24965 
L 451.7225 -239.151199 
L 451.724204 -240.052747 
L 451.727613 -240.954295 
L 451.732729 -241.855844 
L 451.739553 -242.757392 
L 451.748088 -243.65894 
L 451.758337 -244.560488 
L 451.770306 -245.462037 
L 451.783998 -246.363585 
L 451.799419 -247.265133 
L 451.816574 -248.166682 
L 451.835472 -249.06823 
L 451.856118 -249.969778 
L 451.87852 -250.871327 
L 451.902686 -251.772875 
L 451.928625 -252.674423 
L 451.956345 -253.575972 
L 451.985857 -254.47752 
L 452.017169 -255.379068 
L 452.050291 -256.280617 
L 452.085234 -257.182165 
L 452.122007 -258.083713 
L 452.160621 -258.985262 
L 452.201087 -259.88681 
L 452.243414 -260.788358 
L 452.287614 -261.689907 
L 452.333697 -262.591455 
L 452.381672 -263.493003 
L 452.43155 -264.394552 
L 452.483341 -265.2961 
L 452.537053 -266.197648 
L 452.592696 -267.099197 
L 452.650278 -268.000745 
L 452.709809 -268.902293 
L 452.771294 -269.803841 
L 452.834741 -270.70539 
L 452.900156 -271.606938 
L 452.967545 -272.508486 
L 453.036912 -273.410035 
L 453.108262 -274.311583 
L 453.181597 -275.213131 
L 453.256919 -276.11468 
L 453.334231 -277.016228 
L 453.413531 -277.917776 
L 453.494819 -278.819325 
L 453.578093 -279.720873 
L 453.663349 -280.622421 
L 453.750583 -281.52397 
L 453.839789 -282.425518 
L 453.930961 -283.327066 
L 486.714039 -283.327066 
L 486.714039 -283.327066 
L 486.805211 -282.425518 
L 486.894417 -281.52397 
L 486.981651 -280.622421 
L 487.066907 -279.720873 
L 487.150181 -278.819325 
L 487.231469 -277.917776 
L 487.310769 -277.016228 
L 487.388081 -276.11468 
L 487.463403 -275.213131 
L 487.536738 -274.311583 
L 487.608088 -273.410035 
L 487.677455 -272.508486 
L 487.744844 -271.606938 
L 487.810259 -270.70539 
L 487.873706 -269.803841 
L 487.935191 -268.902293 
L 487.994722 -268.000745 
L 488.052304 -267.099197 
L 488.107947 -266.197648 
L 488.161659 -265.2961 
L 488.21345 -264.394552 
L 488.263328 -263.493003 
L 488.311303 -262.591455 
L 488.357386 -261.689907 
L 488.401586 -260.788358 
L 488.443913 -259.88681 
L 488.484379 -258.985262 
L 488.522993 -258.083713 
L 488.559766 -257.182165 
L 488.594709 -256.280617 
L 488.627831 -255.379068 
L 488.659143 -254.47752 
L 488.688655 -253.575972 
L 488.716375 -252.674423 
L 488.742314 -251.772875 
L 488.76648 -250.871327 
L 488.788882 -249.969778 
L 488.809528 -249.06823 
L 488.828426 -248.166682 
L 488.845581 -247.265133 
L 488.861002 -246.363585 
L 488.874694 -245.462037 
L 488.886663 -244.560488 
L 488.896912 -243.65894 
L 488.905447 -242.757392 
L 488.912271 -241.855844 
L 488.917387 -240.954295 
L 488.920796 -240.052747 
L 488.9225 -239.151199 
L 488.9225 -238.24965 
L 488.920796 -237.348102 
L 488.917387 -236.446554 
L 488.912271 -235.545005 
L 488.905447 -234.643457 
L 488.896912 -233.741909 
L 488.886663 -232.84036 
L 488.874694 -231.938812 
L 488.861002 -231.037264 
L 488.845581 -230.135715 
L 488.828426 -229.234167 
L 488.809528 -228.332619 
L 488.788882 -227.43107 
L 488.76648 -226.529522 
L 488.742314 -225.627974 
L 488.716375 -224.726425 
L 488.688655 -223.824877 
L 488.659143 -222.923329 
L 488.627831 -222.02178 
L 488.594709 -221.120232 
L 488.559766 -220.218684 
L 488.522993 -219.317135 
L 488.484379 -218.415587 
L 488.443913 -217.514039 
L 488.401586 -216.612491 
L 488.357386 -215.710942 
L 488.311303 -214.809394 
L 488.263328 -213.907846 
L 488.21345 -213.006297 
L 488.161659 -212.104749 
L 488.107947 -211.203201 
L 488.052304 -210.301652 
L 487.994722 -209.400104 
L 487.935191 -208.498556 
L 487.873706 -207.597007 
L 487.810259 -206.695459 
L 487.744844 -205.793911 
L 487.677455 -204.892362 
L 487.608088 -203.990814 
L 487.536738 -203.089266 
L 487.463403 -202.187717 
L 487.388081 -201.286169 
L 487.310769 -200.384621 
L 487.231469 -199.483072 
L 487.150181 -198.581524 
L 487.066907 -197.679976 
L 486.981651 -196.778427 
L 486.894417 -195.876879 
L 486.805211 -194.975331 
L 486.714039 -194.073782 
z
" id="mf3f5209e02" style="stroke:#000000;stroke-opacity:0.3;"/>
    </defs>
    <g clip-path="url(#p085967e5c8)">
     <use style="fill:#bfbf00;fill-opacity:0.3;stroke:#000000;stroke-opacity:0.3;" x="0.0" xlink:href="#mf3f5209e02" y="465.868"/>
    </g>
   </g>
   <g id="PolyCollection_7">
    <defs>
     <path d="M 561.114039 -172.829107 
L 528.330961 -172.829107 
L 528.239789 -173.311185 
L 528.150583 -173.793263 
L 528.063349 -174.275341 
L 527.978093 -174.757419 
L 527.894819 -175.239497 
L 527.813531 -175.721575 
L 527.734231 -176.203653 
L 527.656919 -176.685731 
L 527.581597 -177.167808 
L 527.508262 -177.649886 
L 527.436912 -178.131964 
L 527.367545 -178.614042 
L 527.300156 -179.09612 
L 527.234741 -179.578198 
L 527.171294 -180.060276 
L 527.109809 -180.542354 
L 527.050278 -181.024432 
L 526.992696 -181.50651 
L 526.937053 -181.988588 
L 526.883341 -182.470666 
L 526.83155 -182.952744 
L 526.781672 -183.434821 
L 526.733697 -183.916899 
L 526.687614 -184.398977 
L 526.643414 -184.881055 
L 526.601087 -185.363133 
L 526.560621 -185.845211 
L 526.522007 -186.327289 
L 526.485234 -186.809367 
L 526.450291 -187.291445 
L 526.417169 -187.773523 
L 526.385857 -188.255601 
L 526.356345 -188.737679 
L 526.328625 -189.219756 
L 526.302686 -189.701834 
L 526.27852 -190.183912 
L 526.256118 -190.66599 
L 526.235472 -191.148068 
L 526.216574 -191.630146 
L 526.199419 -192.112224 
L 526.183998 -192.594302 
L 526.170306 -193.07638 
L 526.158337 -193.558458 
L 526.148088 -194.040536 
L 526.139553 -194.522614 
L 526.132729 -195.004692 
L 526.127613 -195.486769 
L 526.124204 -195.968847 
L 526.1225 -196.450925 
L 526.1225 -196.933003 
L 526.124204 -197.415081 
L 526.127613 -197.897159 
L 526.132729 -198.379237 
L 526.139553 -198.861315 
L 526.148088 -199.343393 
L 526.158337 -199.825471 
L 526.170306 -200.307549 
L 526.183998 -200.789627 
L 526.199419 -201.271705 
L 526.216574 -201.753782 
L 526.235472 -202.23586 
L 526.256118 -202.717938 
L 526.27852 -203.200016 
L 526.302686 -203.682094 
L 526.328625 -204.164172 
L 526.356345 -204.64625 
L 526.385857 -205.128328 
L 526.417169 -205.610406 
L 526.450291 -206.092484 
L 526.485234 -206.574562 
L 526.522007 -207.05664 
L 526.560621 -207.538718 
L 526.601087 -208.020795 
L 526.643414 -208.502873 
L 526.687614 -208.984951 
L 526.733697 -209.467029 
L 526.781672 -209.949107 
L 526.83155 -210.431185 
L 526.883341 -210.913263 
L 526.937053 -211.395341 
L 526.992696 -211.877419 
L 527.050278 -212.359497 
L 527.109809 -212.841575 
L 527.171294 -213.323653 
L 527.234741 -213.805731 
L 527.300156 -214.287808 
L 527.367545 -214.769886 
L 527.436912 -215.251964 
L 527.508262 -215.734042 
L 527.581597 -216.21612 
L 527.656919 -216.698198 
L 527.734231 -217.180276 
L 527.813531 -217.662354 
L 527.894819 -218.144432 
L 527.978093 -218.62651 
L 528.063349 -219.108588 
L 528.150583 -219.590666 
L 528.239789 -220.072744 
L 528.330961 -220.554821 
L 561.114039 -220.554821 
L 561.114039 -220.554821 
L 561.205211 -220.072744 
L 561.294417 -219.590666 
L 561.381651 -219.108588 
L 561.466907 -218.62651 
L 561.550181 -218.144432 
L 561.631469 -217.662354 
L 561.710769 -217.180276 
L 561.788081 -216.698198 
L 561.863403 -216.21612 
L 561.936738 -215.734042 
L 562.008088 -215.251964 
L 562.077455 -214.769886 
L 562.144844 -214.287808 
L 562.210259 -213.805731 
L 562.273706 -213.323653 
L 562.335191 -212.841575 
L 562.394722 -212.359497 
L 562.452304 -211.877419 
L 562.507947 -211.395341 
L 562.561659 -210.913263 
L 562.61345 -210.431185 
L 562.663328 -209.949107 
L 562.711303 -209.467029 
L 562.757386 -208.984951 
L 562.801586 -208.502873 
L 562.843913 -208.020795 
L 562.884379 -207.538718 
L 562.922993 -207.05664 
L 562.959766 -206.574562 
L 562.994709 -206.092484 
L 563.027831 -205.610406 
L 563.059143 -205.128328 
L 563.088655 -204.64625 
L 563.116375 -204.164172 
L 563.142314 -203.682094 
L 563.16648 -203.200016 
L 563.188882 -202.717938 
L 563.209528 -202.23586 
L 563.228426 -201.753782 
L 563.245581 -201.271705 
L 563.261002 -200.789627 
L 563.274694 -200.307549 
L 563.286663 -199.825471 
L 563.296912 -199.343393 
L 563.305447 -198.861315 
L 563.312271 -198.379237 
L 563.317387 -197.897159 
L 563.320796 -197.415081 
L 563.3225 -196.933003 
L 563.3225 -196.450925 
L 563.320796 -195.968847 
L 563.317387 -195.486769 
L 563.312271 -195.004692 
L 563.305447 -194.522614 
L 563.296912 -194.040536 
L 563.286663 -193.558458 
L 563.274694 -193.07638 
L 563.261002 -192.594302 
L 563.245581 -192.112224 
L 563.228426 -191.630146 
L 563.209528 -191.148068 
L 563.188882 -190.66599 
L 563.16648 -190.183912 
L 563.142314 -189.701834 
L 563.116375 -189.219756 
L 563.088655 -188.737679 
L 563.059143 -188.255601 
L 563.027831 -187.773523 
L 562.994709 -187.291445 
L 562.959766 -186.809367 
L 562.922993 -186.327289 
L 562.884379 -185.845211 
L 562.843913 -185.363133 
L 562.801586 -184.881055 
L 562.757386 -184.398977 
L 562.711303 -183.916899 
L 562.663328 -183.434821 
L 562.61345 -182.952744 
L 562.561659 -182.470666 
L 562.507947 -181.988588 
L 562.452304 -181.50651 
L 562.394722 -181.024432 
L 562.335191 -180.542354 
L 562.273706 -180.060276 
L 562.210259 -179.578198 
L 562.144844 -179.09612 
L 562.077455 -178.614042 
L 562.008088 -178.131964 
L 561.936738 -177.649886 
L 561.863403 -177.167808 
L 561.788081 -176.685731 
L 561.710769 -176.203653 
L 561.631469 -175.721575 
L 561.550181 -175.239497 
L 561.466907 -174.757419 
L 561.381651 -174.275341 
L 561.294417 -173.793263 
L 561.205211 -173.311185 
L 561.114039 -172.829107 
z
" id="m4a911a2a6a" style="stroke:#000000;stroke-opacity:0.3;"/>
    </defs>
    <g clip-path="url(#p085967e5c8)">
     <use style="fill:#bfbf00;fill-opacity:0.3;stroke:#000000;stroke-opacity:0.3;" x="0.0" xlink:href="#m4a911a2a6a" y="465.868"/>
    </g>
   </g>
   <g id="PolyCollection_8">
    <defs>
     <path d="M 635.514039 -139.914821 
L 602.730961 -139.914821 
L 602.639789 -140.180795 
L 602.550583 -140.446769 
L 602.463349 -140.712744 
L 602.378093 -140.978718 
L 602.294819 -141.244692 
L 602.213531 -141.510666 
L 602.134231 -141.77664 
L 602.056919 -142.042614 
L 601.981597 -142.308588 
L 601.908262 -142.574562 
L 601.836912 -142.840536 
L 601.767545 -143.10651 
L 601.700156 -143.372484 
L 601.634741 -143.638458 
L 601.571294 -143.904432 
L 601.509809 -144.170406 
L 601.450278 -144.43638 
L 601.392696 -144.702354 
L 601.337053 -144.968328 
L 601.283341 -145.234302 
L 601.23155 -145.500276 
L 601.181672 -145.76625 
L 601.133697 -146.032224 
L 601.087614 -146.298198 
L 601.043414 -146.564172 
L 601.001087 -146.830146 
L 600.960621 -147.09612 
L 600.922007 -147.362094 
L 600.885234 -147.628068 
L 600.850291 -147.894042 
L 600.817169 -148.160016 
L 600.785857 -148.42599 
L 600.756345 -148.691964 
L 600.728625 -148.957938 
L 600.702686 -149.223912 
L 600.67852 -149.489886 
L 600.656118 -149.75586 
L 600.635472 -150.021834 
L 600.616574 -150.287808 
L 600.599419 -150.553782 
L 600.583998 -150.819756 
L 600.570306 -151.085731 
L 600.558337 -151.351705 
L 600.548088 -151.617679 
L 600.539553 -151.883653 
L 600.532729 -152.149627 
L 600.527613 -152.415601 
L 600.524204 -152.681575 
L 600.5225 -152.947549 
L 600.5225 -153.213523 
L 600.524204 -153.479497 
L 600.527613 -153.745471 
L 600.532729 -154.011445 
L 600.539553 -154.277419 
L 600.548088 -154.543393 
L 600.558337 -154.809367 
L 600.570306 -155.075341 
L 600.583998 -155.341315 
L 600.599419 -155.607289 
L 600.616574 -155.873263 
L 600.635472 -156.139237 
L 600.656118 -156.405211 
L 600.67852 -156.671185 
L 600.702686 -156.937159 
L 600.728625 -157.203133 
L 600.756345 -157.469107 
L 600.785857 -157.735081 
L 600.817169 -158.001055 
L 600.850291 -158.267029 
L 600.885234 -158.533003 
L 600.922007 -158.798977 
L 600.960621 -159.064951 
L 601.001087 -159.330925 
L 601.043414 -159.596899 
L 601.087614 -159.862873 
L 601.133697 -160.128847 
L 601.181672 -160.394821 
L 601.23155 -160.660795 
L 601.283341 -160.926769 
L 601.337053 -161.192744 
L 601.392696 -161.458718 
L 601.450278 -161.724692 
L 601.509809 -161.990666 
L 601.571294 -162.25664 
L 601.634741 -162.522614 
L 601.700156 -162.788588 
L 601.767545 -163.054562 
L 601.836912 -163.320536 
L 601.908262 -163.58651 
L 601.981597 -163.852484 
L 602.056919 -164.118458 
L 602.134231 -164.384432 
L 602.213531 -164.650406 
L 602.294819 -164.91638 
L 602.378093 -165.182354 
L 602.463349 -165.448328 
L 602.550583 -165.714302 
L 602.639789 -165.980276 
L 602.730961 -166.24625 
L 635.514039 -166.24625 
L 635.514039 -166.24625 
L 635.605211 -165.980276 
L 635.694417 -165.714302 
L 635.781651 -165.448328 
L 635.866907 -165.182354 
L 635.950181 -164.91638 
L 636.031469 -164.650406 
L 636.110769 -164.384432 
L 636.188081 -164.118458 
L 636.263403 -163.852484 
L 636.336738 -163.58651 
L 636.408088 -163.320536 
L 636.477455 -163.054562 
L 636.544844 -162.788588 
L 636.610259 -162.522614 
L 636.673706 -162.25664 
L 636.735191 -161.990666 
L 636.794722 -161.724692 
L 636.852304 -161.458718 
L 636.907947 -161.192744 
L 636.961659 -160.926769 
L 637.01345 -160.660795 
L 637.063328 -160.394821 
L 637.111303 -160.128847 
L 637.157386 -159.862873 
L 637.201586 -159.596899 
L 637.243913 -159.330925 
L 637.284379 -159.064951 
L 637.322993 -158.798977 
L 637.359766 -158.533003 
L 637.394709 -158.267029 
L 637.427831 -158.001055 
L 637.459143 -157.735081 
L 637.488655 -157.469107 
L 637.516375 -157.203133 
L 637.542314 -156.937159 
L 637.56648 -156.671185 
L 637.588882 -156.405211 
L 637.609528 -156.139237 
L 637.628426 -155.873263 
L 637.645581 -155.607289 
L 637.661002 -155.341315 
L 637.674694 -155.075341 
L 637.686663 -154.809367 
L 637.696912 -154.543393 
L 637.705447 -154.277419 
L 637.712271 -154.011445 
L 637.717387 -153.745471 
L 637.720796 -153.479497 
L 637.7225 -153.213523 
L 637.7225 -152.947549 
L 637.720796 -152.681575 
L 637.717387 -152.415601 
L 637.712271 -152.149627 
L 637.705447 -151.883653 
L 637.696912 -151.617679 
L 637.686663 -151.351705 
L 637.674694 -151.085731 
L 637.661002 -150.819756 
L 637.645581 -150.553782 
L 637.628426 -150.287808 
L 637.609528 -150.021834 
L 637.588882 -149.75586 
L 637.56648 -149.489886 
L 637.542314 -149.223912 
L 637.516375 -148.957938 
L 637.488655 -148.691964 
L 637.459143 -148.42599 
L 637.427831 -148.160016 
L 637.394709 -147.894042 
L 637.359766 -147.628068 
L 637.322993 -147.362094 
L 637.284379 -147.09612 
L 637.243913 -146.830146 
L 637.201586 -146.564172 
L 637.157386 -146.298198 
L 637.111303 -146.032224 
L 637.063328 -145.76625 
L 637.01345 -145.500276 
L 636.961659 -145.234302 
L 636.907947 -144.968328 
L 636.852304 -144.702354 
L 636.794722 -144.43638 
L 636.735191 -144.170406 
L 636.673706 -143.904432 
L 636.610259 -143.638458 
L 636.544844 -143.372484 
L 636.477455 -143.10651 
L 636.408088 -142.840536 
L 636.336738 -142.574562 
L 636.263403 -142.308588 
L 636.188081 -142.042614 
L 636.110769 -141.77664 
L 636.031469 -141.510666 
L 635.950181 -141.244692 
L 635.866907 -140.978718 
L 635.781651 -140.712744 
L 635.694417 -140.446769 
L 635.605211 -140.180795 
L 635.514039 -139.914821 
z
" id="m7d929c3275" style="stroke:#000000;stroke-opacity:0.3;"/>
    </defs>
    <g clip-path="url(#p085967e5c8)">
     <use style="fill:#bfbf00;fill-opacity:0.3;stroke:#000000;stroke-opacity:0.3;" x="0.0" xlink:href="#m7d929c3275" y="465.868"/>
    </g>
   </g>
   <g id="LineCollection_1">
    <path clip-path="url(#p085967e5c8)" d="M 89.0225 33.838893 
L 107.6225 33.838893 
" style="fill:none;stroke:#ff0000;"/>
    <path clip-path="url(#p085967e5c8)" d="M 163.4225 67.895888 
L 182.0225 67.895888 
" style="fill:none;stroke:#ff0000;"/>
    <path clip-path="url(#p085967e5c8)" d="M 237.8225 71.577735 
L 256.4225 71.577735 
" style="fill:none;stroke:#ff0000;"/>
    <path clip-path="url(#p085967e5c8)" d="M 312.2225 197.662681 
L 330.8225 197.662681 
" style="fill:none;stroke:#ff0000;"/>
    <path clip-path="url(#p085967e5c8)" d="M 386.6225 211.422968 
L 405.2225 211.422968 
" style="fill:none;stroke:#ff0000;"/>
    <path clip-path="url(#p085967e5c8)" d="M 461.0225 227.167576 
L 479.6225 227.167576 
" style="fill:none;stroke:#ff0000;"/>
    <path clip-path="url(#p085967e5c8)" d="M 535.4225 269.176036 
L 554.0225 269.176036 
" style="fill:none;stroke:#ff0000;"/>
    <path clip-path="url(#p085967e5c8)" d="M 609.8225 312.787464 
L 628.4225 312.787464 
" style="fill:none;stroke:#ff0000;"/>
   </g>
   <g id="patch_3">
    <path d="M 23.9225 23.14175 
L 693.5225 23.14175 
" style="fill:none;stroke:#000000;stroke-linecap:square;stroke-linejoin:miter;"/>
   </g>
   <g id="patch_4">
    <path d="M 693.5225 368.74175 
L 693.5225 23.14175 
" style="fill:none;stroke:#000000;stroke-linecap:square;stroke-linejoin:miter;"/>
   </g>
   <g id="patch_5">
    <path d="M 23.9225 368.74175 
L 23.9225 23.14175 
" style="fill:none;stroke:#000000;stroke-linecap:square;stroke-linejoin:miter;"/>
   </g>
   <g id="patch_6">
    <path d="M 23.9225 368.74175 
L 693.5225 368.74175 
" style="fill:none;stroke:#000000;stroke-linecap:square;stroke-linejoin:miter;"/>
   </g>
   <g id="matplotlib.axis_1">
    <g id="xtick_1">
     <g id="line2d_1">
      <defs>
       <path d="M 0 0 
L 0 -4 
" id="m9404752bba" style="stroke:#000000;stroke-width:0.5;"/>
      </defs>
      <g>
       <use style="stroke:#000000;stroke-width:0.5;" x="98.3225" xlink:href="#m9404752bba" y="368.74175"/>
      </g>
     </g>
     <g id="line2d_2">
      <defs>
       <path d="M 0 0 
L 0 4 
" id="m485049fdb8" style="stroke:#000000;stroke-width:0.5;"/>
      </defs>
      <g>
       <use style="stroke:#000000;stroke-width:0.5;" x="98.3225" xlink:href="#m485049fdb8" y="23.14175"/>
      </g>
     </g>
     <g id="text_1">
      <!-- Defector -->
      <defs>
       <path d="M 48.78125 52.59375 
L 48.78125 44.1875 
Q 44.96875 46.296875 41.140625 47.34375 
Q 37.3125 48.390625 33.40625 48.390625 
Q 24.65625 48.390625 19.8125 42.84375 
Q 14.984375 37.3125 14.984375 27.296875 
Q 14.984375 17.28125 19.8125 11.734375 
Q 24.65625 6.203125 33.40625 6.203125 
Q 37.3125 6.203125 41.140625 7.25 
Q 44.96875 8.296875 48.78125 10.40625 
L 48.78125 2.09375 
Q 45.015625 0.34375 40.984375 -0.53125 
Q 36.96875 -1.421875 32.421875 -1.421875 
Q 20.0625 -1.421875 12.78125 6.34375 
Q 5.515625 14.109375 5.515625 27.296875 
Q 5.515625 40.671875 12.859375 48.328125 
Q 20.21875 56 33.015625 56 
Q 37.15625 56 41.109375 55.140625 
Q 45.0625 54.296875 48.78125 52.59375 
" id="BitstreamVeraSans-Roman-63"/>
       <path d="M 19.671875 64.796875 
L 19.671875 8.109375 
L 31.59375 8.109375 
Q 46.6875 8.109375 53.6875 14.9375 
Q 60.6875 21.78125 60.6875 36.53125 
Q 60.6875 51.171875 53.6875 57.984375 
Q 46.6875 64.796875 31.59375 64.796875 
z
M 9.8125 72.90625 
L 30.078125 72.90625 
Q 51.265625 72.90625 61.171875 64.09375 
Q 71.09375 55.28125 71.09375 36.53125 
Q 71.09375 17.671875 61.125 8.828125 
Q 51.171875 0 30.078125 0 
L 9.8125 0 
z
" id="BitstreamVeraSans-Roman-44"/>
       <path d="M 37.109375 75.984375 
L 37.109375 68.5 
L 28.515625 68.5 
Q 23.6875 68.5 21.796875 66.546875 
Q 19.921875 64.59375 19.921875 59.515625 
L 19.921875 54.6875 
L 34.71875 54.6875 
L 34.71875 47.703125 
L 19.921875 47.703125 
L 19.921875 0 
L 10.890625 0 
L 10.890625 47.703125 
L 2.296875 47.703125 
L 2.296875 54.6875 
L 10.890625 54.6875 
L 10.890625 58.5 
Q 10.890625 67.625 15.140625 71.796875 
Q 19.390625 75.984375 28.609375 75.984375 
z
" id="BitstreamVeraSans-Roman-66"/>
       <path d="M 56.203125 29.59375 
L 56.203125 25.203125 
L 14.890625 25.203125 
Q 15.484375 15.921875 20.484375 11.0625 
Q 25.484375 6.203125 34.421875 6.203125 
Q 39.59375 6.203125 44.453125 7.46875 
Q 49.3125 8.734375 54.109375 11.28125 
L 54.109375 2.78125 
Q 49.265625 0.734375 44.1875 -0.34375 
Q 39.109375 -1.421875 33.890625 -1.421875 
Q 20.796875 -1.421875 13.15625 6.1875 
Q 5.515625 13.8125 5.515625 26.8125 
Q 5.515625 40.234375 12.765625 48.109375 
Q 20.015625 56 32.328125 56 
Q 43.359375 56 49.78125 48.890625 
Q 56.203125 41.796875 56.203125 29.59375 
M 47.21875 32.234375 
Q 47.125 39.59375 43.09375 43.984375 
Q 39.0625 48.390625 32.421875 48.390625 
Q 24.90625 48.390625 20.390625 44.140625 
Q 15.875 39.890625 15.1875 32.171875 
z
" id="BitstreamVeraSans-Roman-65"/>
       <path d="M 41.109375 46.296875 
Q 39.59375 47.171875 37.8125 47.578125 
Q 36.03125 48 33.890625 48 
Q 26.265625 48 22.1875 43.046875 
Q 18.109375 38.09375 18.109375 28.8125 
L 18.109375 0 
L 9.078125 0 
L 9.078125 54.6875 
L 18.109375 54.6875 
L 18.109375 46.1875 
Q 20.953125 51.171875 25.484375 53.578125 
Q 30.03125 56 36.53125 56 
Q 37.453125 56 38.578125 55.875 
Q 39.703125 55.765625 41.0625 55.515625 
z
" id="BitstreamVeraSans-Roman-72"/>
       <path d="M 30.609375 48.390625 
Q 23.390625 48.390625 19.1875 42.75 
Q 14.984375 37.109375 14.984375 27.296875 
Q 14.984375 17.484375 19.15625 11.84375 
Q 23.34375 6.203125 30.609375 6.203125 
Q 37.796875 6.203125 41.984375 11.859375 
Q 46.1875 17.53125 46.1875 27.296875 
Q 46.1875 37.015625 41.984375 42.703125 
Q 37.796875 48.390625 30.609375 48.390625 
M 30.609375 56 
Q 42.328125 56 49.015625 48.375 
Q 55.71875 40.765625 55.71875 27.296875 
Q 55.71875 13.875 49.015625 6.21875 
Q 42.328125 -1.421875 30.609375 -1.421875 
Q 18.84375 -1.421875 12.171875 6.21875 
Q 5.515625 13.875 5.515625 27.296875 
Q 5.515625 40.765625 12.171875 48.375 
Q 18.84375 56 30.609375 56 
" id="BitstreamVeraSans-Roman-6f"/>
       <path d="M 18.3125 70.21875 
L 18.3125 54.6875 
L 36.8125 54.6875 
L 36.8125 47.703125 
L 18.3125 47.703125 
L 18.3125 18.015625 
Q 18.3125 11.328125 20.140625 9.421875 
Q 21.96875 7.515625 27.59375 7.515625 
L 36.8125 7.515625 
L 36.8125 0 
L 27.59375 0 
Q 17.1875 0 13.234375 3.875 
Q 9.28125 7.765625 9.28125 18.015625 
L 9.28125 47.703125 
L 2.6875 47.703125 
L 2.6875 54.6875 
L 9.28125 54.6875 
L 9.28125 70.21875 
z
" id="BitstreamVeraSans-Roman-74"/>
      </defs>
      <g transform="translate(100.53 407.28175)rotate(-90.0)scale(0.08 -0.08)">
       <use xlink:href="#BitstreamVeraSans-Roman-44"/>
       <use x="77.001953125" xlink:href="#BitstreamVeraSans-Roman-65"/>
       <use x="138.525390625" xlink:href="#BitstreamVeraSans-Roman-66"/>
       <use x="173.73046875" xlink:href="#BitstreamVeraSans-Roman-65"/>
       <use x="235.25390625" xlink:href="#BitstreamVeraSans-Roman-63"/>
       <use x="290.234375" xlink:href="#BitstreamVeraSans-Roman-74"/>
       <use x="329.443359375" xlink:href="#BitstreamVeraSans-Roman-6f"/>
       <use x="390.625" xlink:href="#BitstreamVeraSans-Roman-72"/>
      </g>
     </g>
    </g>
    <g id="xtick_2">
     <g id="line2d_3">
      <g>
       <use style="stroke:#000000;stroke-width:0.5;" x="172.7225" xlink:href="#m9404752bba" y="368.74175"/>
      </g>
     </g>
     <g id="line2d_4">
      <g>
       <use style="stroke:#000000;stroke-width:0.5;" x="172.7225" xlink:href="#m485049fdb8" y="23.14175"/>
      </g>
     </g>
     <g id="text_2">
      <!-- Bully -->
      <defs>
       <path d="M 19.671875 34.8125 
L 19.671875 8.109375 
L 35.5 8.109375 
Q 43.453125 8.109375 47.28125 11.40625 
Q 51.125 14.703125 51.125 21.484375 
Q 51.125 28.328125 47.28125 31.5625 
Q 43.453125 34.8125 35.5 34.8125 
z
M 19.671875 64.796875 
L 19.671875 42.828125 
L 34.28125 42.828125 
Q 41.5 42.828125 45.03125 45.53125 
Q 48.578125 48.25 48.578125 53.8125 
Q 48.578125 59.328125 45.03125 62.0625 
Q 41.5 64.796875 34.28125 64.796875 
z
M 9.8125 72.90625 
L 35.015625 72.90625 
Q 46.296875 72.90625 52.390625 68.21875 
Q 58.5 63.53125 58.5 54.890625 
Q 58.5 48.1875 55.375 44.234375 
Q 52.25 40.28125 46.1875 39.3125 
Q 53.46875 37.75 57.5 32.78125 
Q 61.53125 27.828125 61.53125 20.40625 
Q 61.53125 10.640625 54.890625 5.3125 
Q 48.25 0 35.984375 0 
L 9.8125 0 
z
" id="BitstreamVeraSans-Roman-42"/>
       <path d="M 8.5 21.578125 
L 8.5 54.6875 
L 17.484375 54.6875 
L 17.484375 21.921875 
Q 17.484375 14.15625 20.5 10.265625 
Q 23.53125 6.390625 29.59375 6.390625 
Q 36.859375 6.390625 41.078125 11.03125 
Q 45.3125 15.671875 45.3125 23.6875 
L 45.3125 54.6875 
L 54.296875 54.6875 
L 54.296875 0 
L 45.3125 0 
L 45.3125 8.40625 
Q 42.046875 3.421875 37.71875 1 
Q 33.40625 -1.421875 27.6875 -1.421875 
Q 18.265625 -1.421875 13.375 4.4375 
Q 8.5 10.296875 8.5 21.578125 
" id="BitstreamVeraSans-Roman-75"/>
       <path d="M 32.171875 -5.078125 
Q 28.375 -14.84375 24.75 -17.8125 
Q 21.140625 -20.796875 15.09375 -20.796875 
L 7.90625 -20.796875 
L 7.90625 -13.28125 
L 13.1875 -13.28125 
Q 16.890625 -13.28125 18.9375 -11.515625 
Q 21 -9.765625 23.484375 -3.21875 
L 25.09375 0.875 
L 2.984375 54.6875 
L 12.5 54.6875 
L 29.59375 11.921875 
L 46.6875 54.6875 
L 56.203125 54.6875 
z
" id="BitstreamVeraSans-Roman-79"/>
       <path d="M 9.421875 75.984375 
L 18.40625 75.984375 
L 18.40625 0 
L 9.421875 0 
z
" id="BitstreamVeraSans-Roman-6c"/>
      </defs>
      <g transform="translate(174.93 392.4805)rotate(-90.0)scale(0.08 -0.08)">
       <use xlink:href="#BitstreamVeraSans-Roman-42"/>
       <use x="68.603515625" xlink:href="#BitstreamVeraSans-Roman-75"/>
       <use x="131.982421875" xlink:href="#BitstreamVeraSans-Roman-6c"/>
       <use x="159.765625" xlink:href="#BitstreamVeraSans-Roman-6c"/>
       <use x="187.548828125" xlink:href="#BitstreamVeraSans-Roman-79"/>
      </g>
     </g>
    </g>
    <g id="xtick_3">
     <g id="line2d_5">
      <g>
       <use style="stroke:#000000;stroke-width:0.5;" x="247.1225" xlink:href="#m9404752bba" y="368.74175"/>
      </g>
     </g>
     <g id="line2d_6">
      <g>
       <use style="stroke:#000000;stroke-width:0.5;" x="247.1225" xlink:href="#m485049fdb8" y="23.14175"/>
      </g>
     </g>
     <g id="text_3">
      <!-- Suspicious Tit For Tat -->
      <defs>
       <path d="M 18.109375 8.203125 
L 18.109375 -20.796875 
L 9.078125 -20.796875 
L 9.078125 54.6875 
L 18.109375 54.6875 
L 18.109375 46.390625 
Q 20.953125 51.265625 25.265625 53.625 
Q 29.59375 56 35.59375 56 
Q 45.5625 56 51.78125 48.09375 
Q 58.015625 40.1875 58.015625 27.296875 
Q 58.015625 14.40625 51.78125 6.484375 
Q 45.5625 -1.421875 35.59375 -1.421875 
Q 29.59375 -1.421875 25.265625 0.953125 
Q 20.953125 3.328125 18.109375 8.203125 
M 48.6875 27.296875 
Q 48.6875 37.203125 44.609375 42.84375 
Q 40.53125 48.484375 33.40625 48.484375 
Q 26.265625 48.484375 22.1875 42.84375 
Q 18.109375 37.203125 18.109375 27.296875 
Q 18.109375 17.390625 22.1875 11.75 
Q 26.265625 6.109375 33.40625 6.109375 
Q 40.53125 6.109375 44.609375 11.75 
Q 48.6875 17.390625 48.6875 27.296875 
" id="BitstreamVeraSans-Roman-70"/>
       <path d="M 9.421875 54.6875 
L 18.40625 54.6875 
L 18.40625 0 
L 9.421875 0 
z
M 9.421875 75.984375 
L 18.40625 75.984375 
L 18.40625 64.59375 
L 9.421875 64.59375 
z
" id="BitstreamVeraSans-Roman-69"/>
       <path d="M 44.28125 53.078125 
L 44.28125 44.578125 
Q 40.484375 46.53125 36.375 47.5 
Q 32.28125 48.484375 27.875 48.484375 
Q 21.1875 48.484375 17.84375 46.4375 
Q 14.5 44.390625 14.5 40.28125 
Q 14.5 37.15625 16.890625 35.375 
Q 19.28125 33.59375 26.515625 31.984375 
L 29.59375 31.296875 
Q 39.15625 29.25 43.1875 25.515625 
Q 47.21875 21.78125 47.21875 15.09375 
Q 47.21875 7.46875 41.1875 3.015625 
Q 35.15625 -1.421875 24.609375 -1.421875 
Q 20.21875 -1.421875 15.453125 -0.5625 
Q 10.6875 0.296875 5.421875 2 
L 5.421875 11.28125 
Q 10.40625 8.6875 15.234375 7.390625 
Q 20.0625 6.109375 24.8125 6.109375 
Q 31.15625 6.109375 34.5625 8.28125 
Q 37.984375 10.453125 37.984375 14.40625 
Q 37.984375 18.0625 35.515625 20.015625 
Q 33.0625 21.96875 24.703125 23.78125 
L 21.578125 24.515625 
Q 13.234375 26.265625 9.515625 29.90625 
Q 5.8125 33.546875 5.8125 39.890625 
Q 5.8125 47.609375 11.28125 51.796875 
Q 16.75 56 26.8125 56 
Q 31.78125 56 36.171875 55.265625 
Q 40.578125 54.546875 44.28125 53.078125 
" id="BitstreamVeraSans-Roman-73"/>
       <path id="BitstreamVeraSans-Roman-20"/>
       <path d="M 9.8125 72.90625 
L 51.703125 72.90625 
L 51.703125 64.59375 
L 19.671875 64.59375 
L 19.671875 43.109375 
L 48.578125 43.109375 
L 48.578125 34.8125 
L 19.671875 34.8125 
L 19.671875 0 
L 9.8125 0 
z
" id="BitstreamVeraSans-Roman-46"/>
       <path d="M -0.296875 72.90625 
L 61.375 72.90625 
L 61.375 64.59375 
L 35.5 64.59375 
L 35.5 0 
L 25.59375 0 
L 25.59375 64.59375 
L -0.296875 64.59375 
z
" id="BitstreamVeraSans-Roman-54"/>
       <path d="M 53.515625 70.515625 
L 53.515625 60.890625 
Q 47.90625 63.578125 42.921875 64.890625 
Q 37.9375 66.21875 33.296875 66.21875 
Q 25.25 66.21875 20.875 63.09375 
Q 16.5 59.96875 16.5 54.203125 
Q 16.5 49.359375 19.40625 46.890625 
Q 22.3125 44.4375 30.421875 42.921875 
L 36.375 41.703125 
Q 47.40625 39.59375 52.65625 34.296875 
Q 57.90625 29 57.90625 20.125 
Q 57.90625 9.515625 50.796875 4.046875 
Q 43.703125 -1.421875 29.984375 -1.421875 
Q 24.8125 -1.421875 18.96875 -0.25 
Q 13.140625 0.921875 6.890625 3.21875 
L 6.890625 13.375 
Q 12.890625 10.015625 18.65625 8.296875 
Q 24.421875 6.59375 29.984375 6.59375 
Q 38.421875 6.59375 43.015625 9.90625 
Q 47.609375 13.234375 47.609375 19.390625 
Q 47.609375 24.75 44.3125 27.78125 
Q 41.015625 30.8125 33.5 32.328125 
L 27.484375 33.5 
Q 16.453125 35.6875 11.515625 40.375 
Q 6.59375 45.0625 6.59375 53.421875 
Q 6.59375 63.09375 13.40625 68.65625 
Q 20.21875 74.21875 32.171875 74.21875 
Q 37.3125 74.21875 42.625 73.28125 
Q 47.953125 72.359375 53.515625 70.515625 
" id="BitstreamVeraSans-Roman-53"/>
       <path d="M 34.28125 27.484375 
Q 23.390625 27.484375 19.1875 25 
Q 14.984375 22.515625 14.984375 16.5 
Q 14.984375 11.71875 18.140625 8.90625 
Q 21.296875 6.109375 26.703125 6.109375 
Q 34.1875 6.109375 38.703125 11.40625 
Q 43.21875 16.703125 43.21875 25.484375 
L 43.21875 27.484375 
z
M 52.203125 31.203125 
L 52.203125 0 
L 43.21875 0 
L 43.21875 8.296875 
Q 40.140625 3.328125 35.546875 0.953125 
Q 30.953125 -1.421875 24.3125 -1.421875 
Q 15.921875 -1.421875 10.953125 3.296875 
Q 6 8.015625 6 15.921875 
Q 6 25.140625 12.171875 29.828125 
Q 18.359375 34.515625 30.609375 34.515625 
L 43.21875 34.515625 
L 43.21875 35.40625 
Q 43.21875 41.609375 39.140625 45 
Q 35.0625 48.390625 27.6875 48.390625 
Q 23 48.390625 18.546875 47.265625 
Q 14.109375 46.140625 10.015625 43.890625 
L 10.015625 52.203125 
Q 14.9375 54.109375 19.578125 55.046875 
Q 24.21875 56 28.609375 56 
Q 40.484375 56 46.34375 49.84375 
Q 52.203125 43.703125 52.203125 31.203125 
" id="BitstreamVeraSans-Roman-61"/>
      </defs>
      <g transform="translate(249.33 458.668)rotate(-90.0)scale(0.08 -0.08)">
       <use xlink:href="#BitstreamVeraSans-Roman-53"/>
       <use x="63.4765625" xlink:href="#BitstreamVeraSans-Roman-75"/>
       <use x="126.85546875" xlink:href="#BitstreamVeraSans-Roman-73"/>
       <use x="178.955078125" xlink:href="#BitstreamVeraSans-Roman-70"/>
       <use x="242.431640625" xlink:href="#BitstreamVeraSans-Roman-69"/>
       <use x="270.21484375" xlink:href="#BitstreamVeraSans-Roman-63"/>
       <use x="325.1953125" xlink:href="#BitstreamVeraSans-Roman-69"/>
       <use x="352.978515625" xlink:href="#BitstreamVeraSans-Roman-6f"/>
       <use x="414.16015625" xlink:href="#BitstreamVeraSans-Roman-75"/>
       <use x="477.5390625" xlink:href="#BitstreamVeraSans-Roman-73"/>
       <use x="529.638671875" xlink:href="#BitstreamVeraSans-Roman-20"/>
       <use x="561.42578125" xlink:href="#BitstreamVeraSans-Roman-54"/>
       <use x="622.462890625" xlink:href="#BitstreamVeraSans-Roman-69"/>
       <use x="650.24609375" xlink:href="#BitstreamVeraSans-Roman-74"/>
       <use x="689.455078125" xlink:href="#BitstreamVeraSans-Roman-20"/>
       <use x="721.2421875" xlink:href="#BitstreamVeraSans-Roman-46"/>
       <use x="778.71484375" xlink:href="#BitstreamVeraSans-Roman-6f"/>
       <use x="839.896484375" xlink:href="#BitstreamVeraSans-Roman-72"/>
       <use x="881.009765625" xlink:href="#BitstreamVeraSans-Roman-20"/>
       <use x="912.796875" xlink:href="#BitstreamVeraSans-Roman-54"/>
       <use x="973.630859375" xlink:href="#BitstreamVeraSans-Roman-61"/>
       <use x="1034.91015625" xlink:href="#BitstreamVeraSans-Roman-74"/>
      </g>
     </g>
    </g>
    <g id="xtick_4">
     <g id="line2d_7">
      <g>
       <use style="stroke:#000000;stroke-width:0.5;" x="321.5225" xlink:href="#m9404752bba" y="368.74175"/>
      </g>
     </g>
     <g id="line2d_8">
      <g>
       <use style="stroke:#000000;stroke-width:0.5;" x="321.5225" xlink:href="#m485049fdb8" y="23.14175"/>
      </g>
     </g>
     <g id="text_4">
      <!-- Alternator -->
      <defs>
       <path d="M 34.1875 63.1875 
L 20.796875 26.90625 
L 47.609375 26.90625 
z
M 28.609375 72.90625 
L 39.796875 72.90625 
L 67.578125 0 
L 57.328125 0 
L 50.6875 18.703125 
L 17.828125 18.703125 
L 11.1875 0 
L 0.78125 0 
z
" id="BitstreamVeraSans-Roman-41"/>
       <path d="M 54.890625 33.015625 
L 54.890625 0 
L 45.90625 0 
L 45.90625 32.71875 
Q 45.90625 40.484375 42.875 44.328125 
Q 39.84375 48.1875 33.796875 48.1875 
Q 26.515625 48.1875 22.3125 43.546875 
Q 18.109375 38.921875 18.109375 30.90625 
L 18.109375 0 
L 9.078125 0 
L 9.078125 54.6875 
L 18.109375 54.6875 
L 18.109375 46.1875 
Q 21.34375 51.125 25.703125 53.5625 
Q 30.078125 56 35.796875 56 
Q 45.21875 56 50.046875 50.171875 
Q 54.890625 44.34375 54.890625 33.015625 
" id="BitstreamVeraSans-Roman-6e"/>
      </defs>
      <g transform="translate(323.73 413.0755)rotate(-90.0)scale(0.08 -0.08)">
       <use xlink:href="#BitstreamVeraSans-Roman-41"/>
       <use x="68.408203125" xlink:href="#BitstreamVeraSans-Roman-6c"/>
       <use x="96.19140625" xlink:href="#BitstreamVeraSans-Roman-74"/>
       <use x="135.400390625" xlink:href="#BitstreamVeraSans-Roman-65"/>
       <use x="196.923828125" xlink:href="#BitstreamVeraSans-Roman-72"/>
       <use x="238.021484375" xlink:href="#BitstreamVeraSans-Roman-6e"/>
       <use x="301.400390625" xlink:href="#BitstreamVeraSans-Roman-61"/>
       <use x="362.6796875" xlink:href="#BitstreamVeraSans-Roman-74"/>
       <use x="401.888671875" xlink:href="#BitstreamVeraSans-Roman-6f"/>
       <use x="463.0703125" xlink:href="#BitstreamVeraSans-Roman-72"/>
      </g>
     </g>
    </g>
    <g id="xtick_5">
     <g id="line2d_9">
      <g>
       <use style="stroke:#000000;stroke-width:0.5;" x="395.9225" xlink:href="#m9404752bba" y="368.74175"/>
      </g>
     </g>
     <g id="line2d_10">
      <g>
       <use style="stroke:#000000;stroke-width:0.5;" x="395.9225" xlink:href="#m485049fdb8" y="23.14175"/>
      </g>
     </g>
     <g id="text_5">
      <!-- Tit For Tat -->
      <g transform="translate(398.13 413.75425)rotate(-90.0)scale(0.08 -0.08)">
       <use xlink:href="#BitstreamVeraSans-Roman-54"/>
       <use x="61.037109375" xlink:href="#BitstreamVeraSans-Roman-69"/>
       <use x="88.8203125" xlink:href="#BitstreamVeraSans-Roman-74"/>
       <use x="128.029296875" xlink:href="#BitstreamVeraSans-Roman-20"/>
       <use x="159.81640625" xlink:href="#BitstreamVeraSans-Roman-46"/>
       <use x="217.2890625" xlink:href="#BitstreamVeraSans-Roman-6f"/>
       <use x="278.470703125" xlink:href="#BitstreamVeraSans-Roman-72"/>
       <use x="319.583984375" xlink:href="#BitstreamVeraSans-Roman-20"/>
       <use x="351.37109375" xlink:href="#BitstreamVeraSans-Roman-54"/>
       <use x="412.205078125" xlink:href="#BitstreamVeraSans-Roman-61"/>
       <use x="473.484375" xlink:href="#BitstreamVeraSans-Roman-74"/>
      </g>
     </g>
    </g>
    <g id="xtick_6">
     <g id="line2d_11">
      <g>
       <use style="stroke:#000000;stroke-width:0.5;" x="470.3225" xlink:href="#m9404752bba" y="368.74175"/>
      </g>
     </g>
     <g id="line2d_12">
      <g>
       <use style="stroke:#000000;stroke-width:0.5;" x="470.3225" xlink:href="#m485049fdb8" y="23.14175"/>
      </g>
     </g>
     <g id="text_6">
      <!-- Anti Tit For Tat -->
      <g transform="translate(472.53 432.198)rotate(-90.0)scale(0.08 -0.08)">
       <use xlink:href="#BitstreamVeraSans-Roman-41"/>
       <use x="68.408203125" xlink:href="#BitstreamVeraSans-Roman-6e"/>
       <use x="131.787109375" xlink:href="#BitstreamVeraSans-Roman-74"/>
       <use x="170.99609375" xlink:href="#BitstreamVeraSans-Roman-69"/>
       <use x="198.779296875" xlink:href="#BitstreamVeraSans-Roman-20"/>
       <use x="230.56640625" xlink:href="#BitstreamVeraSans-Roman-54"/>
       <use x="291.603515625" xlink:href="#BitstreamVeraSans-Roman-69"/>
       <use x="319.38671875" xlink:href="#BitstreamVeraSans-Roman-74"/>
       <use x="358.595703125" xlink:href="#BitstreamVeraSans-Roman-20"/>
       <use x="390.3828125" xlink:href="#BitstreamVeraSans-Roman-46"/>
       <use x="447.85546875" xlink:href="#BitstreamVeraSans-Roman-6f"/>
       <use x="509.037109375" xlink:href="#BitstreamVeraSans-Roman-72"/>
       <use x="550.150390625" xlink:href="#BitstreamVeraSans-Roman-20"/>
       <use x="581.9375" xlink:href="#BitstreamVeraSans-Roman-54"/>
       <use x="642.771484375" xlink:href="#BitstreamVeraSans-Roman-61"/>
       <use x="704.05078125" xlink:href="#BitstreamVeraSans-Roman-74"/>
      </g>
     </g>
    </g>
    <g id="xtick_7">
     <g id="line2d_13">
      <g>
       <use style="stroke:#000000;stroke-width:0.5;" x="544.7225" xlink:href="#m9404752bba" y="368.74175"/>
      </g>
     </g>
     <g id="line2d_14">
      <g>
       <use style="stroke:#000000;stroke-width:0.5;" x="544.7225" xlink:href="#m485049fdb8" y="23.14175"/>
      </g>
     </g>
     <g id="text_7">
      <!-- Win-Stay Lose-Shift -->
      <defs>
       <path d="M 4.890625 31.390625 
L 31.203125 31.390625 
L 31.203125 23.390625 
L 4.890625 23.390625 
z
" id="BitstreamVeraSans-Roman-2d"/>
       <path d="M 3.328125 72.90625 
L 13.28125 72.90625 
L 28.609375 11.28125 
L 43.890625 72.90625 
L 54.984375 72.90625 
L 70.3125 11.28125 
L 85.59375 72.90625 
L 95.609375 72.90625 
L 77.296875 0 
L 64.890625 0 
L 49.515625 63.28125 
L 33.984375 0 
L 21.578125 0 
z
" id="BitstreamVeraSans-Roman-57"/>
       <path d="M 9.8125 72.90625 
L 19.671875 72.90625 
L 19.671875 8.296875 
L 55.171875 8.296875 
L 55.171875 0 
L 9.8125 0 
z
" id="BitstreamVeraSans-Roman-4c"/>
       <path d="M 54.890625 33.015625 
L 54.890625 0 
L 45.90625 0 
L 45.90625 32.71875 
Q 45.90625 40.484375 42.875 44.328125 
Q 39.84375 48.1875 33.796875 48.1875 
Q 26.515625 48.1875 22.3125 43.546875 
Q 18.109375 38.921875 18.109375 30.90625 
L 18.109375 0 
L 9.078125 0 
L 9.078125 75.984375 
L 18.109375 75.984375 
L 18.109375 46.1875 
Q 21.34375 51.125 25.703125 53.5625 
Q 30.078125 56 35.796875 56 
Q 45.21875 56 50.046875 50.171875 
Q 54.890625 44.34375 54.890625 33.015625 
" id="BitstreamVeraSans-Roman-68"/>
      </defs>
      <g transform="translate(546.93 450.873)rotate(-90.0)scale(0.08 -0.08)">
       <use xlink:href="#BitstreamVeraSans-Roman-57"/>
       <use x="98.845703125" xlink:href="#BitstreamVeraSans-Roman-69"/>
       <use x="126.62890625" xlink:href="#BitstreamVeraSans-Roman-6e"/>
       <use x="190.0078125" xlink:href="#BitstreamVeraSans-Roman-2d"/>
       <use x="226.091796875" xlink:href="#BitstreamVeraSans-Roman-53"/>
       <use x="289.568359375" xlink:href="#BitstreamVeraSans-Roman-74"/>
       <use x="328.77734375" xlink:href="#BitstreamVeraSans-Roman-61"/>
       <use x="390.056640625" xlink:href="#BitstreamVeraSans-Roman-79"/>
       <use x="449.236328125" xlink:href="#BitstreamVeraSans-Roman-20"/>
       <use x="481.0234375" xlink:href="#BitstreamVeraSans-Roman-4c"/>
       <use x="536.720703125" xlink:href="#BitstreamVeraSans-Roman-6f"/>
       <use x="597.90234375" xlink:href="#BitstreamVeraSans-Roman-73"/>
       <use x="650.001953125" xlink:href="#BitstreamVeraSans-Roman-65"/>
       <use x="711.525390625" xlink:href="#BitstreamVeraSans-Roman-2d"/>
       <use x="747.609375" xlink:href="#BitstreamVeraSans-Roman-53"/>
       <use x="811.0859375" xlink:href="#BitstreamVeraSans-Roman-68"/>
       <use x="874.46484375" xlink:href="#BitstreamVeraSans-Roman-69"/>
       <use x="902.248046875" xlink:href="#BitstreamVeraSans-Roman-66"/>
       <use x="937.4375" xlink:href="#BitstreamVeraSans-Roman-74"/>
      </g>
     </g>
    </g>
    <g id="xtick_8">
     <g id="line2d_15">
      <g>
       <use style="stroke:#000000;stroke-width:0.5;" x="619.1225" xlink:href="#m9404752bba" y="368.74175"/>
      </g>
     </g>
     <g id="line2d_16">
      <g>
       <use style="stroke:#000000;stroke-width:0.5;" x="619.1225" xlink:href="#m485049fdb8" y="23.14175"/>
      </g>
     </g>
     <g id="text_8">
      <!-- Cooperator -->
      <defs>
       <path d="M 64.40625 67.28125 
L 64.40625 56.890625 
Q 59.421875 61.53125 53.78125 63.8125 
Q 48.140625 66.109375 41.796875 66.109375 
Q 29.296875 66.109375 22.65625 58.46875 
Q 16.015625 50.828125 16.015625 36.375 
Q 16.015625 21.96875 22.65625 14.328125 
Q 29.296875 6.6875 41.796875 6.6875 
Q 48.140625 6.6875 53.78125 8.984375 
Q 59.421875 11.28125 64.40625 15.921875 
L 64.40625 5.609375 
Q 59.234375 2.09375 53.4375 0.328125 
Q 47.65625 -1.421875 41.21875 -1.421875 
Q 24.65625 -1.421875 15.125 8.703125 
Q 5.609375 18.84375 5.609375 36.375 
Q 5.609375 53.953125 15.125 64.078125 
Q 24.65625 74.21875 41.21875 74.21875 
Q 47.75 74.21875 53.53125 72.484375 
Q 59.328125 70.75 64.40625 67.28125 
" id="BitstreamVeraSans-Roman-43"/>
      </defs>
      <g transform="translate(621.33 417.6305)rotate(-90.0)scale(0.08 -0.08)">
       <use xlink:href="#BitstreamVeraSans-Roman-43"/>
       <use x="69.82421875" xlink:href="#BitstreamVeraSans-Roman-6f"/>
       <use x="131.005859375" xlink:href="#BitstreamVeraSans-Roman-6f"/>
       <use x="192.1875" xlink:href="#BitstreamVeraSans-Roman-70"/>
       <use x="255.6640625" xlink:href="#BitstreamVeraSans-Roman-65"/>
       <use x="317.1875" xlink:href="#BitstreamVeraSans-Roman-72"/>
       <use x="358.30078125" xlink:href="#BitstreamVeraSans-Roman-61"/>
       <use x="419.580078125" xlink:href="#BitstreamVeraSans-Roman-74"/>
       <use x="458.7890625" xlink:href="#BitstreamVeraSans-Roman-6f"/>
       <use x="519.970703125" xlink:href="#BitstreamVeraSans-Roman-72"/>
      </g>
     </g>
    </g>
   </g>
   <g id="matplotlib.axis_2">
    <g id="ytick_1">
     <g id="line2d_17">
      <defs>
       <path d="M 0 0 
L 4 0 
" id="mc8f9841bc5" style="stroke:#000000;stroke-width:0.5;"/>
      </defs>
      <g>
       <use style="stroke:#000000;stroke-width:0.5;" x="23.9225" xlink:href="#mc8f9841bc5" y="368.74175"/>
      </g>
     </g>
     <g id="line2d_18">
      <defs>
       <path d="M 0 0 
L -4 0 
" id="mab54650d90" style="stroke:#000000;stroke-width:0.5;"/>
      </defs>
      <g>
       <use style="stroke:#000000;stroke-width:0.5;" x="693.5225" xlink:href="#mab54650d90" y="368.74175"/>
      </g>
     </g>
     <g id="text_9">
      <!-- 1.0 -->
      <defs>
       <path d="M 10.6875 12.40625 
L 21 12.40625 
L 21 0 
L 10.6875 0 
z
" id="BitstreamVeraSans-Roman-2e"/>
       <path d="M 12.40625 8.296875 
L 28.515625 8.296875 
L 28.515625 63.921875 
L 10.984375 60.40625 
L 10.984375 69.390625 
L 28.421875 72.90625 
L 38.28125 72.90625 
L 38.28125 8.296875 
L 54.390625 8.296875 
L 54.390625 0 
L 12.40625 0 
z
" id="BitstreamVeraSans-Roman-31"/>
       <path d="M 31.78125 66.40625 
Q 24.171875 66.40625 20.328125 58.90625 
Q 16.5 51.421875 16.5 36.375 
Q 16.5 21.390625 20.328125 13.890625 
Q 24.171875 6.390625 31.78125 6.390625 
Q 39.453125 6.390625 43.28125 13.890625 
Q 47.125 21.390625 47.125 36.375 
Q 47.125 51.421875 43.28125 58.90625 
Q 39.453125 66.40625 31.78125 66.40625 
M 31.78125 74.21875 
Q 44.046875 74.21875 50.515625 64.515625 
Q 56.984375 54.828125 56.984375 36.375 
Q 56.984375 17.96875 50.515625 8.265625 
Q 44.046875 -1.421875 31.78125 -1.421875 
Q 19.53125 -1.421875 13.0625 8.265625 
Q 6.59375 17.96875 6.59375 36.375 
Q 6.59375 54.828125 13.0625 64.515625 
Q 19.53125 74.21875 31.78125 74.21875 
" id="BitstreamVeraSans-Roman-30"/>
      </defs>
      <g transform="translate(7.2 370.94925)scale(0.08 -0.08)">
       <use xlink:href="#BitstreamVeraSans-Roman-31"/>
       <use x="63.623046875" xlink:href="#BitstreamVeraSans-Roman-2e"/>
       <use x="95.41015625" xlink:href="#BitstreamVeraSans-Roman-30"/>
      </g>
     </g>
    </g>
    <g id="ytick_2">
     <g id="line2d_19">
      <g>
       <use style="stroke:#000000;stroke-width:0.5;" x="23.9225" xlink:href="#mc8f9841bc5" y="299.62175"/>
      </g>
     </g>
     <g id="line2d_20">
      <g>
       <use style="stroke:#000000;stroke-width:0.5;" x="693.5225" xlink:href="#mab54650d90" y="299.62175"/>
      </g>
     </g>
     <g id="text_10">
      <!-- 1.5 -->
      <defs>
       <path d="M 10.796875 72.90625 
L 49.515625 72.90625 
L 49.515625 64.59375 
L 19.828125 64.59375 
L 19.828125 46.734375 
Q 21.96875 47.46875 24.109375 47.828125 
Q 26.265625 48.1875 28.421875 48.1875 
Q 40.625 48.1875 47.75 41.5 
Q 54.890625 34.8125 54.890625 23.390625 
Q 54.890625 11.625 47.5625 5.09375 
Q 40.234375 -1.421875 26.90625 -1.421875 
Q 22.3125 -1.421875 17.546875 -0.640625 
Q 12.796875 0.140625 7.71875 1.703125 
L 7.71875 11.625 
Q 12.109375 9.234375 16.796875 8.0625 
Q 21.484375 6.890625 26.703125 6.890625 
Q 35.15625 6.890625 40.078125 11.328125 
Q 45.015625 15.765625 45.015625 23.390625 
Q 45.015625 31 40.078125 35.4375 
Q 35.15625 39.890625 26.703125 39.890625 
Q 22.75 39.890625 18.8125 39.015625 
Q 14.890625 38.140625 10.796875 36.28125 
z
" id="BitstreamVeraSans-Roman-35"/>
      </defs>
      <g transform="translate(7.2 301.82925)scale(0.08 -0.08)">
       <use xlink:href="#BitstreamVeraSans-Roman-31"/>
       <use x="63.623046875" xlink:href="#BitstreamVeraSans-Roman-2e"/>
       <use x="95.41015625" xlink:href="#BitstreamVeraSans-Roman-35"/>
      </g>
     </g>
    </g>
    <g id="ytick_3">
     <g id="line2d_21">
      <g>
       <use style="stroke:#000000;stroke-width:0.5;" x="23.9225" xlink:href="#mc8f9841bc5" y="230.50175"/>
      </g>
     </g>
     <g id="line2d_22">
      <g>
       <use style="stroke:#000000;stroke-width:0.5;" x="693.5225" xlink:href="#mab54650d90" y="230.50175"/>
      </g>
     </g>
     <g id="text_11">
      <!-- 2.0 -->
      <defs>
       <path d="M 19.1875 8.296875 
L 53.609375 8.296875 
L 53.609375 0 
L 7.328125 0 
L 7.328125 8.296875 
Q 12.9375 14.109375 22.625 23.890625 
Q 32.328125 33.6875 34.8125 36.53125 
Q 39.546875 41.84375 41.421875 45.53125 
Q 43.3125 49.21875 43.3125 52.78125 
Q 43.3125 58.59375 39.234375 62.25 
Q 35.15625 65.921875 28.609375 65.921875 
Q 23.96875 65.921875 18.8125 64.3125 
Q 13.671875 62.703125 7.8125 59.421875 
L 7.8125 69.390625 
Q 13.765625 71.78125 18.9375 73 
Q 24.125 74.21875 28.421875 74.21875 
Q 39.75 74.21875 46.484375 68.546875 
Q 53.21875 62.890625 53.21875 53.421875 
Q 53.21875 48.921875 51.53125 44.890625 
Q 49.859375 40.875 45.40625 35.40625 
Q 44.1875 33.984375 37.640625 27.21875 
Q 31.109375 20.453125 19.1875 8.296875 
" id="BitstreamVeraSans-Roman-32"/>
      </defs>
      <g transform="translate(7.2 232.70925)scale(0.08 -0.08)">
       <use xlink:href="#BitstreamVeraSans-Roman-32"/>
       <use x="63.623046875" xlink:href="#BitstreamVeraSans-Roman-2e"/>
       <use x="95.41015625" xlink:href="#BitstreamVeraSans-Roman-30"/>
      </g>
     </g>
    </g>
    <g id="ytick_4">
     <g id="line2d_23">
      <g>
       <use style="stroke:#000000;stroke-width:0.5;" x="23.9225" xlink:href="#mc8f9841bc5" y="161.38175"/>
      </g>
     </g>
     <g id="line2d_24">
      <g>
       <use style="stroke:#000000;stroke-width:0.5;" x="693.5225" xlink:href="#mab54650d90" y="161.38175"/>
      </g>
     </g>
     <g id="text_12">
      <!-- 2.5 -->
      <g transform="translate(7.2 163.58925)scale(0.08 -0.08)">
       <use xlink:href="#BitstreamVeraSans-Roman-32"/>
       <use x="63.623046875" xlink:href="#BitstreamVeraSans-Roman-2e"/>
       <use x="95.41015625" xlink:href="#BitstreamVeraSans-Roman-35"/>
      </g>
     </g>
    </g>
    <g id="ytick_5">
     <g id="line2d_25">
      <g>
       <use style="stroke:#000000;stroke-width:0.5;" x="23.9225" xlink:href="#mc8f9841bc5" y="92.26175"/>
      </g>
     </g>
     <g id="line2d_26">
      <g>
       <use style="stroke:#000000;stroke-width:0.5;" x="693.5225" xlink:href="#mab54650d90" y="92.26175"/>
      </g>
     </g>
     <g id="text_13">
      <!-- 3.0 -->
      <defs>
       <path d="M 40.578125 39.3125 
Q 47.65625 37.796875 51.625 33 
Q 55.609375 28.21875 55.609375 21.1875 
Q 55.609375 10.40625 48.1875 4.484375 
Q 40.765625 -1.421875 27.09375 -1.421875 
Q 22.515625 -1.421875 17.65625 -0.515625 
Q 12.796875 0.390625 7.625 2.203125 
L 7.625 11.71875 
Q 11.71875 9.328125 16.59375 8.109375 
Q 21.484375 6.890625 26.8125 6.890625 
Q 36.078125 6.890625 40.9375 10.546875 
Q 45.796875 14.203125 45.796875 21.1875 
Q 45.796875 27.640625 41.28125 31.265625 
Q 36.765625 34.90625 28.71875 34.90625 
L 20.21875 34.90625 
L 20.21875 43.015625 
L 29.109375 43.015625 
Q 36.375 43.015625 40.234375 45.921875 
Q 44.09375 48.828125 44.09375 54.296875 
Q 44.09375 59.90625 40.109375 62.90625 
Q 36.140625 65.921875 28.71875 65.921875 
Q 24.65625 65.921875 20.015625 65.03125 
Q 15.375 64.15625 9.8125 62.3125 
L 9.8125 71.09375 
Q 15.4375 72.65625 20.34375 73.4375 
Q 25.25 74.21875 29.59375 74.21875 
Q 40.828125 74.21875 47.359375 69.109375 
Q 53.90625 64.015625 53.90625 55.328125 
Q 53.90625 49.265625 50.4375 45.09375 
Q 46.96875 40.921875 40.578125 39.3125 
" id="BitstreamVeraSans-Roman-33"/>
      </defs>
      <g transform="translate(7.2 94.46925)scale(0.08 -0.08)">
       <use xlink:href="#BitstreamVeraSans-Roman-33"/>
       <use x="63.623046875" xlink:href="#BitstreamVeraSans-Roman-2e"/>
       <use x="95.41015625" xlink:href="#BitstreamVeraSans-Roman-30"/>
      </g>
     </g>
    </g>
    <g id="ytick_6">
     <g id="line2d_27">
      <g>
       <use style="stroke:#000000;stroke-width:0.5;" x="23.9225" xlink:href="#mc8f9841bc5" y="23.14175"/>
      </g>
     </g>
     <g id="line2d_28">
      <g>
       <use style="stroke:#000000;stroke-width:0.5;" x="693.5225" xlink:href="#mab54650d90" y="23.14175"/>
      </g>
     </g>
     <g id="text_14">
      <!-- 3.5 -->
      <g transform="translate(7.2 25.34925)scale(0.08 -0.08)">
       <use xlink:href="#BitstreamVeraSans-Roman-33"/>
       <use x="63.623046875" xlink:href="#BitstreamVeraSans-Roman-2e"/>
       <use x="95.41015625" xlink:href="#BitstreamVeraSans-Roman-35"/>
      </g>
     </g>
    </g>
   </g>
   <g id="text_15">
    <!-- Payoffs. Prob end: 0.1, Repetitions: 2, Strategies: 8. -->
    <defs>
     <path d="M 11.71875 12.40625 
L 22.015625 12.40625 
L 22.015625 4 
L 14.015625 -11.625 
L 7.71875 -11.625 
L 11.71875 4 
z
" id="BitstreamVeraSans-Roman-2c"/>
     <path d="M 31.78125 34.625 
Q 24.75 34.625 20.71875 30.859375 
Q 16.703125 27.09375 16.703125 20.515625 
Q 16.703125 13.921875 20.71875 10.15625 
Q 24.75 6.390625 31.78125 6.390625 
Q 38.8125 6.390625 42.859375 10.171875 
Q 46.921875 13.96875 46.921875 20.515625 
Q 46.921875 27.09375 42.890625 30.859375 
Q 38.875 34.625 31.78125 34.625 
M 21.921875 38.8125 
Q 15.578125 40.375 12.03125 44.71875 
Q 8.5 49.078125 8.5 55.328125 
Q 8.5 64.0625 14.71875 69.140625 
Q 20.953125 74.21875 31.78125 74.21875 
Q 42.671875 74.21875 48.875 69.140625 
Q 55.078125 64.0625 55.078125 55.328125 
Q 55.078125 49.078125 51.53125 44.71875 
Q 48 40.375 41.703125 38.8125 
Q 48.828125 37.15625 52.796875 32.3125 
Q 56.78125 27.484375 56.78125 20.515625 
Q 56.78125 9.90625 50.3125 4.234375 
Q 43.84375 -1.421875 31.78125 -1.421875 
Q 19.734375 -1.421875 13.25 4.234375 
Q 6.78125 9.90625 6.78125 20.515625 
Q 6.78125 27.484375 10.78125 32.3125 
Q 14.796875 37.15625 21.921875 38.8125 
M 18.3125 54.390625 
Q 18.3125 48.734375 21.84375 45.5625 
Q 25.390625 42.390625 31.78125 42.390625 
Q 38.140625 42.390625 41.71875 45.5625 
Q 45.3125 48.734375 45.3125 54.390625 
Q 45.3125 60.0625 41.71875 63.234375 
Q 38.140625 66.40625 31.78125 66.40625 
Q 25.390625 66.40625 21.84375 63.234375 
Q 18.3125 60.0625 18.3125 54.390625 
" id="BitstreamVeraSans-Roman-38"/>
     <path d="M 19.671875 64.796875 
L 19.671875 37.40625 
L 32.078125 37.40625 
Q 38.96875 37.40625 42.71875 40.96875 
Q 46.484375 44.53125 46.484375 51.125 
Q 46.484375 57.671875 42.71875 61.234375 
Q 38.96875 64.796875 32.078125 64.796875 
z
M 9.8125 72.90625 
L 32.078125 72.90625 
Q 44.34375 72.90625 50.609375 67.359375 
Q 56.890625 61.8125 56.890625 51.125 
Q 56.890625 40.328125 50.609375 34.8125 
Q 44.34375 29.296875 32.078125 29.296875 
L 19.671875 29.296875 
L 19.671875 0 
L 9.8125 0 
z
" id="BitstreamVeraSans-Roman-50"/>
     <path d="M 11.71875 12.40625 
L 22.015625 12.40625 
L 22.015625 0 
L 11.71875 0 
z
M 11.71875 51.703125 
L 22.015625 51.703125 
L 22.015625 39.3125 
L 11.71875 39.3125 
z
" id="BitstreamVeraSans-Roman-3a"/>
     <path d="M 48.6875 27.296875 
Q 48.6875 37.203125 44.609375 42.84375 
Q 40.53125 48.484375 33.40625 48.484375 
Q 26.265625 48.484375 22.1875 42.84375 
Q 18.109375 37.203125 18.109375 27.296875 
Q 18.109375 17.390625 22.1875 11.75 
Q 26.265625 6.109375 33.40625 6.109375 
Q 40.53125 6.109375 44.609375 11.75 
Q 48.6875 17.390625 48.6875 27.296875 
M 18.109375 46.390625 
Q 20.953125 51.265625 25.265625 53.625 
Q 29.59375 56 35.59375 56 
Q 45.5625 56 51.78125 48.09375 
Q 58.015625 40.1875 58.015625 27.296875 
Q 58.015625 14.40625 51.78125 6.484375 
Q 45.5625 -1.421875 35.59375 -1.421875 
Q 29.59375 -1.421875 25.265625 0.953125 
Q 20.953125 3.328125 18.109375 8.203125 
L 18.109375 0 
L 9.078125 0 
L 9.078125 75.984375 
L 18.109375 75.984375 
z
" id="BitstreamVeraSans-Roman-62"/>
     <path d="M 44.390625 34.1875 
Q 47.5625 33.109375 50.5625 29.59375 
Q 53.5625 26.078125 56.59375 19.921875 
L 66.609375 0 
L 56 0 
L 46.6875 18.703125 
Q 43.0625 26.03125 39.671875 28.421875 
Q 36.28125 30.8125 30.421875 30.8125 
L 19.671875 30.8125 
L 19.671875 0 
L 9.8125 0 
L 9.8125 72.90625 
L 32.078125 72.90625 
Q 44.578125 72.90625 50.734375 67.671875 
Q 56.890625 62.453125 56.890625 51.90625 
Q 56.890625 45.015625 53.6875 40.46875 
Q 50.484375 35.9375 44.390625 34.1875 
M 19.671875 64.796875 
L 19.671875 38.921875 
L 32.078125 38.921875 
Q 39.203125 38.921875 42.84375 42.21875 
Q 46.484375 45.515625 46.484375 51.90625 
Q 46.484375 58.296875 42.84375 61.546875 
Q 39.203125 64.796875 32.078125 64.796875 
z
" id="BitstreamVeraSans-Roman-52"/>
     <path d="M 45.40625 27.984375 
Q 45.40625 37.75 41.375 43.109375 
Q 37.359375 48.484375 30.078125 48.484375 
Q 22.859375 48.484375 18.828125 43.109375 
Q 14.796875 37.75 14.796875 27.984375 
Q 14.796875 18.265625 18.828125 12.890625 
Q 22.859375 7.515625 30.078125 7.515625 
Q 37.359375 7.515625 41.375 12.890625 
Q 45.40625 18.265625 45.40625 27.984375 
M 54.390625 6.78125 
Q 54.390625 -7.171875 48.1875 -13.984375 
Q 42 -20.796875 29.203125 -20.796875 
Q 24.46875 -20.796875 20.265625 -20.09375 
Q 16.0625 -19.390625 12.109375 -17.921875 
L 12.109375 -9.1875 
Q 16.0625 -11.328125 19.921875 -12.34375 
Q 23.78125 -13.375 27.78125 -13.375 
Q 36.625 -13.375 41.015625 -8.765625 
Q 45.40625 -4.15625 45.40625 5.171875 
L 45.40625 9.625 
Q 42.625 4.78125 38.28125 2.390625 
Q 33.9375 0 27.875 0 
Q 17.828125 0 11.671875 7.65625 
Q 5.515625 15.328125 5.515625 27.984375 
Q 5.515625 40.671875 11.671875 48.328125 
Q 17.828125 56 27.875 56 
Q 33.9375 56 38.28125 53.609375 
Q 42.625 51.21875 45.40625 46.390625 
L 45.40625 54.6875 
L 54.390625 54.6875 
z
" id="BitstreamVeraSans-Roman-67"/>
     <path d="M 45.40625 46.390625 
L 45.40625 75.984375 
L 54.390625 75.984375 
L 54.390625 0 
L 45.40625 0 
L 45.40625 8.203125 
Q 42.578125 3.328125 38.25 0.953125 
Q 33.9375 -1.421875 27.875 -1.421875 
Q 17.96875 -1.421875 11.734375 6.484375 
Q 5.515625 14.40625 5.515625 27.296875 
Q 5.515625 40.1875 11.734375 48.09375 
Q 17.96875 56 27.875 56 
Q 33.9375 56 38.25 53.625 
Q 42.578125 51.265625 45.40625 46.390625 
M 14.796875 27.296875 
Q 14.796875 17.390625 18.875 11.75 
Q 22.953125 6.109375 30.078125 6.109375 
Q 37.203125 6.109375 41.296875 11.75 
Q 45.40625 17.390625 45.40625 27.296875 
Q 45.40625 37.203125 41.296875 42.84375 
Q 37.203125 48.484375 30.078125 48.484375 
Q 22.953125 48.484375 18.875 42.84375 
Q 14.796875 37.203125 14.796875 27.296875 
" id="BitstreamVeraSans-Roman-64"/>
    </defs>
    <g transform="translate(172.023125 18.14175)scale(0.144 -0.144)">
     <use xlink:href="#BitstreamVeraSans-Roman-50"/>
     <use x="60.240234375" xlink:href="#BitstreamVeraSans-Roman-61"/>
     <use x="121.51953125" xlink:href="#BitstreamVeraSans-Roman-79"/>
     <use x="180.69921875" xlink:href="#BitstreamVeraSans-Roman-6f"/>
     <use x="241.880859375" xlink:href="#BitstreamVeraSans-Roman-66"/>
     <use x="277.0859375" xlink:href="#BitstreamVeraSans-Roman-66"/>
     <use x="312.291015625" xlink:href="#BitstreamVeraSans-Roman-73"/>
     <use x="364.390625" xlink:href="#BitstreamVeraSans-Roman-2e"/>
     <use x="396.177734375" xlink:href="#BitstreamVeraSans-Roman-20"/>
     <use x="427.96484375" xlink:href="#BitstreamVeraSans-Roman-50"/>
     <use x="488.251953125" xlink:href="#BitstreamVeraSans-Roman-72"/>
     <use x="529.333984375" xlink:href="#BitstreamVeraSans-Roman-6f"/>
     <use x="590.515625" xlink:href="#BitstreamVeraSans-Roman-62"/>
     <use x="653.9921875" xlink:href="#BitstreamVeraSans-Roman-20"/>
     <use x="685.779296875" xlink:href="#BitstreamVeraSans-Roman-65"/>
     <use x="747.302734375" xlink:href="#BitstreamVeraSans-Roman-6e"/>
     <use x="810.681640625" xlink:href="#BitstreamVeraSans-Roman-64"/>
     <use x="874.158203125" xlink:href="#BitstreamVeraSans-Roman-3a"/>
     <use x="907.849609375" xlink:href="#BitstreamVeraSans-Roman-20"/>
     <use x="939.63671875" xlink:href="#BitstreamVeraSans-Roman-30"/>
     <use x="1003.259765625" xlink:href="#BitstreamVeraSans-Roman-2e"/>
     <use x="1035.046875" xlink:href="#BitstreamVeraSans-Roman-31"/>
     <use x="1098.669921875" xlink:href="#BitstreamVeraSans-Roman-2c"/>
     <use x="1130.45703125" xlink:href="#BitstreamVeraSans-Roman-20"/>
     <use x="1162.244140625" xlink:href="#BitstreamVeraSans-Roman-52"/>
     <use x="1231.6640625" xlink:href="#BitstreamVeraSans-Roman-65"/>
     <use x="1293.1875" xlink:href="#BitstreamVeraSans-Roman-70"/>
     <use x="1356.6640625" xlink:href="#BitstreamVeraSans-Roman-65"/>
     <use x="1418.1875" xlink:href="#BitstreamVeraSans-Roman-74"/>
     <use x="1457.396484375" xlink:href="#BitstreamVeraSans-Roman-69"/>
     <use x="1485.1796875" xlink:href="#BitstreamVeraSans-Roman-74"/>
     <use x="1524.388671875" xlink:href="#BitstreamVeraSans-Roman-69"/>
     <use x="1552.171875" xlink:href="#BitstreamVeraSans-Roman-6f"/>
     <use x="1613.353515625" xlink:href="#BitstreamVeraSans-Roman-6e"/>
     <use x="1676.732421875" xlink:href="#BitstreamVeraSans-Roman-73"/>
     <use x="1728.83203125" xlink:href="#BitstreamVeraSans-Roman-3a"/>
     <use x="1762.5234375" xlink:href="#BitstreamVeraSans-Roman-20"/>
     <use x="1794.310546875" xlink:href="#BitstreamVeraSans-Roman-32"/>
     <use x="1857.93359375" xlink:href="#BitstreamVeraSans-Roman-2c"/>
     <use x="1889.720703125" xlink:href="#BitstreamVeraSans-Roman-20"/>
     <use x="1921.5078125" xlink:href="#BitstreamVeraSans-Roman-53"/>
     <use x="1984.984375" xlink:href="#BitstreamVeraSans-Roman-74"/>
     <use x="2024.193359375" xlink:href="#BitstreamVeraSans-Roman-72"/>
     <use x="2065.306640625" xlink:href="#BitstreamVeraSans-Roman-61"/>
     <use x="2126.5859375" xlink:href="#BitstreamVeraSans-Roman-74"/>
     <use x="2165.794921875" xlink:href="#BitstreamVeraSans-Roman-65"/>
     <use x="2227.318359375" xlink:href="#BitstreamVeraSans-Roman-67"/>
     <use x="2290.794921875" xlink:href="#BitstreamVeraSans-Roman-69"/>
     <use x="2318.578125" xlink:href="#BitstreamVeraSans-Roman-65"/>
     <use x="2380.1015625" xlink:href="#BitstreamVeraSans-Roman-73"/>
     <use x="2432.201171875" xlink:href="#BitstreamVeraSans-Roman-3a"/>
     <use x="2465.892578125" xlink:href="#BitstreamVeraSans-Roman-20"/>
     <use x="2497.6796875" xlink:href="#BitstreamVeraSans-Roman-38"/>
     <use x="2561.302734375" xlink:href="#BitstreamVeraSans-Roman-2e"/>
    </g>
   </g>
  </g>
 </g>
 <defs>
  <clipPath id="p085967e5c8">
   <rect height="345.6" width="669.6" x="23.9225" y="23.14175"/>
  </clipPath>
 </defs>
</svg>
