<?xml version="1.0" encoding="utf-8" standalone="no"?>
<!DOCTYPE svg PUBLIC "-//W3C//DTD SVG 1.1//EN"
  "http://www.w3.org/Graphics/SVG/1.1/DTD/svg11.dtd">
<!-- Created with matplotlib (http://matplotlib.org/) -->
<svg height="465pt" version="1.1" viewBox="0 0 693 465" width="693pt" xmlns="http://www.w3.org/2000/svg" xmlns:xlink="http://www.w3.org/1999/xlink">
 <defs>
  <style type="text/css">
*{stroke-linecap:butt;stroke-linejoin:round;stroke-miterlimit:100000;}
  </style>
 </defs>
 <g id="figure_1">
  <g id="patch_1">
   <path d="M 0 465.868 
L 693.09 465.868 
L 693.09 0 
L 0 0 
z
" style="fill:#ffffff;"/>
  </g>
  <g id="axes_1">
   <g id="patch_2">
    <path d="M 16.29 368.74175 
L 685.89 368.74175 
L 685.89 23.14175 
L 16.29 23.14175 
z
" style="fill:#ffffff;"/>
   </g>
   <g id="PolyCollection_1">
    <defs>
     <path d="M 92.988876 -368.669107 
L 88.391124 -368.669107 
L 88.398594 -369.167808 
L 88.420861 -369.66651 
L 88.457492 -370.165211 
L 88.507785 -370.663912 
L 88.570786 -371.162614 
L 88.645322 -371.661315 
L 88.730038 -372.160016 
L 88.823435 -372.658718 
L 88.923916 -373.157419 
L 89.029831 -373.65612 
L 89.13952 -374.154821 
L 89.251358 -374.653523 
L 89.363792 -375.152224 
L 89.475371 -375.650925 
L 89.584781 -376.149627 
L 89.690861 -376.648328 
L 89.792621 -377.147029 
L 89.889247 -377.645731 
L 89.980105 -378.144432 
L 90.064737 -378.643133 
L 90.142853 -379.141834 
L 90.214317 -379.640536 
L 90.27913 -380.139237 
L 90.337415 -380.637938 
L 90.389395 -381.13664 
L 90.435375 -381.635341 
L 90.475721 -382.134042 
L 90.510844 -382.632744 
L 90.541181 -383.131445 
L 90.567183 -383.630146 
L 90.589298 -384.128847 
L 90.607965 -384.627549 
L 90.623602 -385.12625 
L 90.636603 -385.624951 
L 90.64733 -386.123653 
L 90.656113 -386.622354 
L 90.663247 -387.121055 
L 90.668994 -387.619756 
L 90.673579 -388.118458 
L 90.677196 -388.617159 
L 90.680008 -389.11586 
L 90.682148 -389.614562 
L 90.68372 -390.113263 
L 90.684801 -390.611964 
L 90.685442 -391.110666 
L 90.685665 -391.609367 
L 90.685468 -392.108068 
L 90.684814 -392.606769 
L 90.683634 -393.105471 
L 90.681822 -393.604172 
L 90.679224 -394.102873 
L 90.675632 -394.601575 
L 90.670775 -395.100276 
L 90.664305 -395.598977 
L 90.655781 -396.097679 
L 90.644656 -396.59638 
L 90.630256 -397.095081 
L 90.611761 -397.593782 
L 90.588183 -398.092484 
L 90.558344 -398.591185 
L 90.520854 -399.089886 
L 90.474093 -399.588588 
L 90.416187 -400.087289 
L 90.345001 -400.58599 
L 90.258126 -401.084692 
L 90.152883 -401.583393 
L 90.026327 -402.082094 
L 89.875272 -402.580795 
L 89.696325 -403.079497 
L 89.485939 -403.578198 
L 89.240476 -404.076899 
L 88.956295 -404.575601 
L 88.629856 -405.074302 
L 88.257836 -405.573003 
L 87.837269 -406.071705 
L 87.36569 -406.570406 
L 86.841292 -407.069107 
L 86.263085 -407.567808 
L 85.631054 -408.06651 
L 84.9463 -408.565211 
L 84.211177 -409.063912 
L 83.429388 -409.562614 
L 82.60606 -410.061315 
L 81.747773 -410.560016 
L 80.862546 -411.058718 
L 79.959768 -411.557419 
L 79.050082 -412.05612 
L 78.145208 -412.554821 
L 77.25772 -413.053523 
L 76.400773 -413.552224 
L 75.587791 -414.050925 
L 74.832126 -414.549627 
L 74.146698 -415.048328 
L 73.543632 -415.547029 
L 73.033898 -416.045731 
L 72.626985 -416.544432 
L 72.330603 -417.043133 
L 72.150445 -417.541834 
L 72.09 -418.040536 
L 109.29 -418.040536 
L 109.29 -418.040536 
L 109.229555 -417.541834 
L 109.049397 -417.043133 
L 108.753015 -416.544432 
L 108.346102 -416.045731 
L 107.836368 -415.547029 
L 107.233302 -415.048328 
L 106.547874 -414.549627 
L 105.792209 -414.050925 
L 104.979227 -413.552224 
L 104.12228 -413.053523 
L 103.234792 -412.554821 
L 102.329918 -412.05612 
L 101.420232 -411.557419 
L 100.517454 -411.058718 
L 99.632227 -410.560016 
L 98.77394 -410.061315 
L 97.950612 -409.562614 
L 97.168823 -409.063912 
L 96.4337 -408.565211 
L 95.748946 -408.06651 
L 95.116915 -407.567808 
L 94.538708 -407.069107 
L 94.01431 -406.570406 
L 93.542731 -406.071705 
L 93.122164 -405.573003 
L 92.750144 -405.074302 
L 92.423705 -404.575601 
L 92.139524 -404.076899 
L 91.894061 -403.578198 
L 91.683675 -403.079497 
L 91.504728 -402.580795 
L 91.353673 -402.082094 
L 91.227117 -401.583393 
L 91.121874 -401.084692 
L 91.034999 -400.58599 
L 90.963813 -400.087289 
L 90.905907 -399.588588 
L 90.859146 -399.089886 
L 90.821656 -398.591185 
L 90.791817 -398.092484 
L 90.768239 -397.593782 
L 90.749744 -397.095081 
L 90.735344 -396.59638 
L 90.724219 -396.097679 
L 90.715695 -395.598977 
L 90.709225 -395.100276 
L 90.704368 -394.601575 
L 90.700776 -394.102873 
L 90.698178 -393.604172 
L 90.696366 -393.105471 
L 90.695186 -392.606769 
L 90.694532 -392.108068 
L 90.694335 -391.609367 
L 90.694558 -391.110666 
L 90.695199 -390.611964 
L 90.69628 -390.113263 
L 90.697852 -389.614562 
L 90.699992 -389.11586 
L 90.702804 -388.617159 
L 90.706421 -388.118458 
L 90.711006 -387.619756 
L 90.716753 -387.121055 
L 90.723887 -386.622354 
L 90.73267 -386.123653 
L 90.743397 -385.624951 
L 90.756398 -385.12625 
L 90.772035 -384.627549 
L 90.790702 -384.128847 
L 90.812817 -383.630146 
L 90.838819 -383.131445 
L 90.869156 -382.632744 
L 90.904279 -382.134042 
L 90.944625 -381.635341 
L 90.990605 -381.13664 
L 91.042585 -380.637938 
L 91.10087 -380.139237 
L 91.165683 -379.640536 
L 91.237147 -379.141834 
L 91.315263 -378.643133 
L 91.399895 -378.144432 
L 91.490753 -377.645731 
L 91.587379 -377.147029 
L 91.689139 -376.648328 
L 91.795219 -376.149627 
L 91.904629 -375.650925 
L 92.016208 -375.152224 
L 92.128642 -374.653523 
L 92.24048 -374.154821 
L 92.350169 -373.65612 
L 92.456084 -373.157419 
L 92.556565 -372.658718 
L 92.649962 -372.160016 
L 92.734678 -371.661315 
L 92.809214 -371.162614 
L 92.872215 -370.663912 
L 92.922508 -370.165211 
L 92.959139 -369.66651 
L 92.981406 -369.167808 
L 92.988876 -368.669107 
z
" id="m4b22f62cba" style="stroke:#000000;stroke-opacity:0.3;"/>
    </defs>
    <g clip-path="url(#pb4966f9176)">
     <use style="fill:#bfbf00;fill-opacity:0.3;stroke:#000000;stroke-opacity:0.3;" x="0.0" xlink:href="#m4b22f62cba" y="465.868"/>
    </g>
   </g>
   <g id="PolyCollection_2">
    <defs>
     <path d="M 175.552516 -319.297679 
L 154.627484 -319.297679 
L 154.641937 -319.79638 
L 154.685189 -320.295081 
L 154.756882 -320.793782 
L 154.856424 -321.292484 
L 154.982999 -321.791185 
L 155.135575 -322.289886 
L 155.312922 -322.788588 
L 155.513625 -323.287289 
L 155.736103 -323.78599 
L 155.978633 -324.284692 
L 156.239367 -324.783393 
L 156.516359 -325.282094 
L 156.807585 -325.780795 
L 157.110973 -326.279497 
L 157.424419 -326.778198 
L 157.745818 -327.276899 
L 158.07308 -327.775601 
L 158.404157 -328.274302 
L 158.737057 -328.773003 
L 159.069867 -329.271705 
L 159.400764 -329.770406 
L 159.728032 -330.269107 
L 160.050072 -330.767808 
L 160.365411 -331.26651 
L 160.672707 -331.765211 
L 160.970753 -332.263912 
L 161.258481 -332.762614 
L 161.534958 -333.261315 
L 161.799384 -333.760016 
L 162.05109 -334.258718 
L 162.289524 -334.757419 
L 162.51425 -335.25612 
L 162.724935 -335.754821 
L 162.921337 -336.253523 
L 163.103294 -336.752224 
L 163.270713 -337.250925 
L 163.423556 -337.749627 
L 163.561825 -338.248328 
L 163.685552 -338.747029 
L 163.794782 -339.245731 
L 163.889566 -339.744432 
L 163.969943 -340.243133 
L 164.035936 -340.741834 
L 164.087534 -341.240536 
L 164.124688 -341.739237 
L 164.147304 -342.237938 
L 164.155233 -342.73664 
L 164.148268 -343.235341 
L 164.126143 -343.734042 
L 164.088527 -344.232744 
L 164.035027 -344.731445 
L 163.965191 -345.230146 
L 163.878508 -345.728847 
L 163.774417 -346.227549 
L 163.652313 -346.72625 
L 163.511558 -347.224951 
L 163.35149 -347.723653 
L 163.171436 -348.222354 
L 162.970728 -348.721055 
L 162.748718 -349.219756 
L 162.504795 -349.718458 
L 162.238404 -350.217159 
L 161.949065 -350.71586 
L 161.636392 -351.214562 
L 161.300115 -351.713263 
L 160.9401 -352.211964 
L 160.556365 -352.710666 
L 160.149106 -353.209367 
L 159.71871 -353.708068 
L 159.265774 -354.206769 
L 158.791118 -354.705471 
L 158.2958 -355.204172 
L 157.781124 -355.702873 
L 157.248646 -356.201575 
L 156.700181 -356.700276 
L 156.137797 -357.198977 
L 155.563819 -357.697679 
L 154.980811 -358.19638 
L 154.391572 -358.695081 
L 153.799114 -359.193782 
L 153.206646 -359.692484 
L 152.617543 -360.191185 
L 152.035321 -360.689886 
L 151.463607 -361.188588 
L 150.906097 -361.687289 
L 150.366523 -362.18599 
L 149.848613 -362.684692 
L 149.356046 -363.183393 
L 148.892409 -363.682094 
L 148.461158 -364.180795 
L 148.065572 -364.679497 
L 147.708714 -365.178198 
L 147.393389 -365.676899 
L 147.122109 -366.175601 
L 146.897062 -366.674302 
L 146.720078 -367.173003 
L 146.592608 -367.671705 
L 146.515704 -368.170406 
L 146.49 -368.669107 
L 183.69 -368.669107 
L 183.69 -368.669107 
L 183.664296 -368.170406 
L 183.587392 -367.671705 
L 183.459922 -367.173003 
L 183.282938 -366.674302 
L 183.057891 -366.175601 
L 182.786611 -365.676899 
L 182.471286 -365.178198 
L 182.114428 -364.679497 
L 181.718842 -364.180795 
L 181.287591 -363.682094 
L 180.823954 -363.183393 
L 180.331387 -362.684692 
L 179.813477 -362.18599 
L 179.273903 -361.687289 
L 178.716393 -361.188588 
L 178.144679 -360.689886 
L 177.562457 -360.191185 
L 176.973354 -359.692484 
L 176.380886 -359.193782 
L 175.788428 -358.695081 
L 175.199189 -358.19638 
L 174.616181 -357.697679 
L 174.042203 -357.198977 
L 173.479819 -356.700276 
L 172.931354 -356.201575 
L 172.398876 -355.702873 
L 171.8842 -355.204172 
L 171.388882 -354.705471 
L 170.914226 -354.206769 
L 170.46129 -353.708068 
L 170.030894 -353.209367 
L 169.623635 -352.710666 
L 169.2399 -352.211964 
L 168.879885 -351.713263 
L 168.543608 -351.214562 
L 168.230935 -350.71586 
L 167.941596 -350.217159 
L 167.675205 -349.718458 
L 167.431282 -349.219756 
L 167.209272 -348.721055 
L 167.008564 -348.222354 
L 166.82851 -347.723653 
L 166.668442 -347.224951 
L 166.527687 -346.72625 
L 166.405583 -346.227549 
L 166.301492 -345.728847 
L 166.214809 -345.230146 
L 166.144973 -344.731445 
L 166.091473 -344.232744 
L 166.053857 -343.734042 
L 166.031732 -343.235341 
L 166.024767 -342.73664 
L 166.032696 -342.237938 
L 166.055312 -341.739237 
L 166.092466 -341.240536 
L 166.144064 -340.741834 
L 166.210057 -340.243133 
L 166.290434 -339.744432 
L 166.385218 -339.245731 
L 166.494448 -338.747029 
L 166.618175 -338.248328 
L 166.756444 -337.749627 
L 166.909287 -337.250925 
L 167.076706 -336.752224 
L 167.258663 -336.253523 
L 167.455065 -335.754821 
L 167.66575 -335.25612 
L 167.890476 -334.757419 
L 168.12891 -334.258718 
L 168.380616 -333.760016 
L 168.645042 -333.261315 
L 168.921519 -332.762614 
L 169.209247 -332.263912 
L 169.507293 -331.765211 
L 169.814589 -331.26651 
L 170.129928 -330.767808 
L 170.451968 -330.269107 
L 170.779236 -329.770406 
L 171.110133 -329.271705 
L 171.442943 -328.773003 
L 171.775843 -328.274302 
L 172.10692 -327.775601 
L 172.434182 -327.276899 
L 172.755581 -326.778198 
L 173.069027 -326.279497 
L 173.372415 -325.780795 
L 173.663641 -325.282094 
L 173.940633 -324.783393 
L 174.201367 -324.284692 
L 174.443897 -323.78599 
L 174.666375 -323.287289 
L 174.867078 -322.788588 
L 175.044425 -322.289886 
L 175.197001 -321.791185 
L 175.323576 -321.292484 
L 175.423118 -320.793782 
L 175.494811 -320.295081 
L 175.538063 -319.79638 
L 175.552516 -319.297679 
z
" id="m8f46cbe5da" style="stroke:#000000;stroke-opacity:0.3;"/>
    </defs>
    <g clip-path="url(#pb4966f9176)">
     <use style="fill:#bfbf00;fill-opacity:0.3;stroke:#000000;stroke-opacity:0.3;" x="0.0" xlink:href="#m8f46cbe5da" y="465.868"/>
    </g>
   </g>
   <g id="PolyCollection_3">
    <defs>
     <path d="M 241.238104 -171.183393 
L 237.741896 -171.183393 
L 237.64187 -173.676899 
L 237.535062 -176.170406 
L 237.416891 -178.663912 
L 237.282482 -181.157419 
L 237.127082 -183.650925 
L 236.946533 -186.144432 
L 236.737744 -188.637938 
L 236.499121 -191.131445 
L 236.230908 -193.624951 
L 235.935377 -196.118458 
L 235.616835 -198.611964 
L 235.281429 -201.105471 
L 234.936718 -203.598977 
L 234.591068 -206.092484 
L 234.252863 -208.58599 
L 233.92964 -211.079497 
L 233.627194 -213.573003 
L 233.348767 -216.06651 
L 233.094403 -218.560016 
L 232.860568 -221.053523 
L 232.640097 -223.547029 
L 232.422512 -226.040536 
L 232.194722 -228.534042 
L 231.942074 -231.027549 
L 231.649675 -233.521055 
L 231.303898 -236.014562 
L 230.893906 -238.508068 
L 230.413073 -241.001575 
L 229.860129 -243.495081 
L 229.239889 -245.988588 
L 228.56347 -248.482094 
L 227.847905 -250.975601 
L 227.115173 -253.469107 
L 226.390665 -255.962614 
L 225.701223 -258.45612 
L 225.072895 -260.949627 
L 224.528621 -263.443133 
L 224.086068 -265.93664 
L 223.755846 -268.430146 
L 223.540291 -270.923653 
L 223.432969 -273.417159 
L 223.418991 -275.910666 
L 223.47613 -278.404172 
L 223.57668 -280.897679 
L 223.689895 -283.391185 
L 223.784792 -285.884692 
L 223.833067 -288.378198 
L 223.811831 -290.871705 
L 223.705918 -293.365211 
L 223.50952 -295.858718 
L 223.226989 -298.352224 
L 222.872707 -300.845731 
L 222.470033 -303.339237 
L 222.049409 -305.832744 
L 221.645801 -308.32625 
L 221.29571 -310.819756 
L 221.034034 -313.313263 
L 220.891081 -315.806769 
L 220.89 -318.300276 
L 221.044873 -320.793782 
L 221.359631 -323.287289 
L 221.827882 -325.780795 
L 222.433633 -328.274302 
L 223.152825 -330.767808 
L 223.955499 -333.261315 
L 224.808376 -335.754821 
L 225.677588 -338.248328 
L 226.531315 -340.741834 
L 227.342078 -343.235341 
L 228.088517 -345.728847 
L 228.756505 -348.222354 
L 229.339573 -350.71586 
L 229.838626 -353.209367 
L 230.261059 -355.702873 
L 230.619382 -358.19638 
L 230.929531 -360.689886 
L 231.209048 -363.183393 
L 231.475291 -365.676899 
L 231.743862 -368.170406 
L 232.027351 -370.663912 
L 232.334494 -373.157419 
L 232.669778 -375.650925 
L 233.03348 -378.144432 
L 233.422098 -380.637938 
L 233.82908 -383.131445 
L 234.245762 -385.624951 
L 234.662394 -388.118458 
L 235.069153 -390.611964 
L 235.457045 -393.105471 
L 235.81863 -395.598977 
L 236.14852 -398.092484 
L 236.443623 -400.58599 
L 236.703161 -403.079497 
L 236.928469 -405.573003 
L 237.122636 -408.06651 
L 237.290029 -410.560016 
L 237.435779 -413.053523 
L 237.565254 -415.547029 
L 237.683599 -418.040536 
L 241.296401 -418.040536 
L 241.296401 -418.040536 
L 241.414746 -415.547029 
L 241.544221 -413.053523 
L 241.689971 -410.560016 
L 241.857364 -408.06651 
L 242.051531 -405.573003 
L 242.276839 -403.079497 
L 242.536377 -400.58599 
L 242.83148 -398.092484 
L 243.16137 -395.598977 
L 243.522955 -393.105471 
L 243.910847 -390.611964 
L 244.317606 -388.118458 
L 244.734238 -385.624951 
L 245.15092 -383.131445 
L 245.557902 -380.637938 
L 245.94652 -378.144432 
L 246.310222 -375.650925 
L 246.645506 -373.157419 
L 246.952649 -370.663912 
L 247.236138 -368.170406 
L 247.504709 -365.676899 
L 247.770952 -363.183393 
L 248.050469 -360.689886 
L 248.360618 -358.19638 
L 248.718941 -355.702873 
L 249.141374 -353.209367 
L 249.640427 -350.71586 
L 250.223495 -348.222354 
L 250.891483 -345.728847 
L 251.637922 -343.235341 
L 252.448685 -340.741834 
L 253.302412 -338.248328 
L 254.171624 -335.754821 
L 255.024501 -333.261315 
L 255.827175 -330.767808 
L 256.546367 -328.274302 
L 257.152118 -325.780795 
L 257.620369 -323.287289 
L 257.935127 -320.793782 
L 258.09 -318.300276 
L 258.088919 -315.806769 
L 257.945966 -313.313263 
L 257.68429 -310.819756 
L 257.334199 -308.32625 
L 256.930591 -305.832744 
L 256.509967 -303.339237 
L 256.107293 -300.845731 
L 255.753011 -298.352224 
L 255.47048 -295.858718 
L 255.274082 -293.365211 
L 255.168169 -290.871705 
L 255.146933 -288.378198 
L 255.195208 -285.884692 
L 255.290105 -283.391185 
L 255.40332 -280.897679 
L 255.50387 -278.404172 
L 255.561009 -275.910666 
L 255.547031 -273.417159 
L 255.439709 -270.923653 
L 255.224154 -268.430146 
L 254.893932 -265.93664 
L 254.451379 -263.443133 
L 253.907105 -260.949627 
L 253.278777 -258.45612 
L 252.589335 -255.962614 
L 251.864827 -253.469107 
L 251.132095 -250.975601 
L 250.41653 -248.482094 
L 249.740111 -245.988588 
L 249.119871 -243.495081 
L 248.566927 -241.001575 
L 248.086094 -238.508068 
L 247.676102 -236.014562 
L 247.330325 -233.521055 
L 247.037926 -231.027549 
L 246.785278 -228.534042 
L 246.557488 -226.040536 
L 246.339903 -223.547029 
L 246.119432 -221.053523 
L 245.885597 -218.560016 
L 245.631233 -216.06651 
L 245.352806 -213.573003 
L 245.05036 -211.079497 
L 244.727137 -208.58599 
L 244.388932 -206.092484 
L 244.043282 -203.598977 
L 243.698571 -201.105471 
L 243.363165 -198.611964 
L 243.044623 -196.118458 
L 242.749092 -193.624951 
L 242.480879 -191.131445 
L 242.242256 -188.637938 
L 242.033467 -186.144432 
L 241.852918 -183.650925 
L 241.697518 -181.157419 
L 241.563109 -178.663912 
L 241.444938 -176.170406 
L 241.33813 -173.676899 
L 241.238104 -171.183393 
z
" id="me3f86f7066" style="stroke:#000000;stroke-opacity:0.3;"/>
    </defs>
    <g clip-path="url(#pb4966f9176)">
     <use style="fill:#bfbf00;fill-opacity:0.3;stroke:#000000;stroke-opacity:0.3;" x="0.0" xlink:href="#me3f86f7066" y="465.868"/>
    </g>
   </g>
   <g id="PolyCollection_4">
    <defs>
     <path d="M 318.450471 -171.183393 
L 309.329529 -171.183393 
L 309.337523 -172.180795 
L 309.370002 -173.178198 
L 309.425895 -174.175601 
L 309.50362 -175.173003 
L 309.601093 -176.170406 
L 309.715763 -177.167808 
L 309.844642 -178.165211 
L 309.984348 -179.162614 
L 310.13115 -180.160016 
L 310.281023 -181.157419 
L 310.429697 -182.154821 
L 310.572709 -183.152224 
L 310.705458 -184.149627 
L 310.823257 -185.147029 
L 310.921385 -186.144432 
L 310.995133 -187.141834 
L 311.039863 -188.139237 
L 311.051051 -189.13664 
L 311.024349 -190.134042 
L 310.955638 -191.131445 
L 310.84109 -192.128847 
L 310.677237 -193.12625 
L 310.461044 -194.123653 
L 310.189989 -195.121055 
L 309.862145 -196.118458 
L 309.47627 -197.11586 
L 309.031893 -198.113263 
L 308.529409 -199.110666 
L 307.970152 -200.108068 
L 307.356476 -201.105471 
L 306.691812 -202.102873 
L 305.980706 -203.100276 
L 305.228841 -204.097679 
L 304.443023 -205.095081 
L 303.631142 -206.092484 
L 302.802093 -207.089886 
L 301.965671 -208.087289 
L 301.132422 -209.084692 
L 300.313465 -210.082094 
L 299.520281 -211.079497 
L 298.764479 -212.076899 
L 298.057542 -213.074302 
L 297.410559 -214.071705 
L 296.833955 -215.069107 
L 296.337228 -216.06651 
L 295.928696 -217.063912 
L 295.615275 -218.061315 
L 295.402284 -219.058718 
L 295.29329 -220.05612 
L 295.29 -221.053523 
L 295.392201 -222.050925 
L 295.597752 -223.048328 
L 295.902629 -224.045731 
L 296.301015 -225.043133 
L 296.785439 -226.040536 
L 297.346955 -227.037938 
L 297.975348 -228.035341 
L 298.659374 -229.032744 
L 299.387006 -230.030146 
L 300.145692 -231.027549 
L 300.922614 -232.024951 
L 301.70493 -233.022354 
L 302.480006 -234.019756 
L 303.235628 -235.017159 
L 303.960183 -236.014562 
L 304.642818 -237.011964 
L 305.273568 -238.009367 
L 305.843457 -239.006769 
L 306.344577 -240.004172 
L 306.770143 -241.001575 
L 307.114525 -241.998977 
L 307.373276 -242.99638 
L 307.543138 -243.993782 
L 307.62205 -244.991185 
L 307.609148 -245.988588 
L 307.50476 -246.98599 
L 307.310408 -247.983393 
L 307.0288 -248.980795 
L 306.663826 -249.978198 
L 306.220543 -250.975601 
L 305.705157 -251.973003 
L 305.124993 -252.970406 
L 304.488444 -253.967808 
L 303.80491 -254.965211 
L 303.084705 -255.962614 
L 302.338942 -256.960016 
L 301.5794 -257.957419 
L 300.818347 -258.954821 
L 300.068354 -259.952224 
L 299.342076 -260.949627 
L 298.65202 -261.947029 
L 298.010302 -262.944432 
L 297.428392 -263.941834 
L 296.916869 -264.939237 
L 296.485182 -265.93664 
L 296.141437 -266.934042 
L 295.892208 -267.931445 
L 295.742379 -268.928847 
L 295.695042 -269.92625 
L 332.084958 -269.92625 
L 332.084958 -269.92625 
L 332.037621 -268.928847 
L 331.887792 -267.931445 
L 331.638563 -266.934042 
L 331.294818 -265.93664 
L 330.863131 -264.939237 
L 330.351608 -263.941834 
L 329.769698 -262.944432 
L 329.12798 -261.947029 
L 328.437924 -260.949627 
L 327.711646 -259.952224 
L 326.961653 -258.954821 
L 326.2006 -257.957419 
L 325.441058 -256.960016 
L 324.695295 -255.962614 
L 323.97509 -254.965211 
L 323.291556 -253.967808 
L 322.655007 -252.970406 
L 322.074843 -251.973003 
L 321.559457 -250.975601 
L 321.116174 -249.978198 
L 320.7512 -248.980795 
L 320.469592 -247.983393 
L 320.27524 -246.98599 
L 320.170852 -245.988588 
L 320.15795 -244.991185 
L 320.236862 -243.993782 
L 320.406724 -242.99638 
L 320.665475 -241.998977 
L 321.009857 -241.001575 
L 321.435423 -240.004172 
L 321.936543 -239.006769 
L 322.506432 -238.009367 
L 323.137182 -237.011964 
L 323.819817 -236.014562 
L 324.544372 -235.017159 
L 325.299994 -234.019756 
L 326.07507 -233.022354 
L 326.857386 -232.024951 
L 327.634308 -231.027549 
L 328.392994 -230.030146 
L 329.120626 -229.032744 
L 329.804652 -228.035341 
L 330.433045 -227.037938 
L 330.994561 -226.040536 
L 331.478985 -225.043133 
L 331.877371 -224.045731 
L 332.182248 -223.048328 
L 332.387799 -222.050925 
L 332.49 -221.053523 
L 332.48671 -220.05612 
L 332.377716 -219.058718 
L 332.164725 -218.061315 
L 331.851304 -217.063912 
L 331.442772 -216.06651 
L 330.946045 -215.069107 
L 330.369441 -214.071705 
L 329.722458 -213.074302 
L 329.015521 -212.076899 
L 328.259719 -211.079497 
L 327.466535 -210.082094 
L 326.647578 -209.084692 
L 325.814329 -208.087289 
L 324.977907 -207.089886 
L 324.148858 -206.092484 
L 323.336977 -205.095081 
L 322.551159 -204.097679 
L 321.799294 -203.100276 
L 321.088188 -202.102873 
L 320.423524 -201.105471 
L 319.809848 -200.108068 
L 319.250591 -199.110666 
L 318.748107 -198.113263 
L 318.30373 -197.11586 
L 317.917855 -196.118458 
L 317.590011 -195.121055 
L 317.318956 -194.123653 
L 317.102763 -193.12625 
L 316.93891 -192.128847 
L 316.824362 -191.131445 
L 316.755651 -190.134042 
L 316.728949 -189.13664 
L 316.740137 -188.139237 
L 316.784867 -187.141834 
L 316.858615 -186.144432 
L 316.956743 -185.147029 
L 317.074542 -184.149627 
L 317.207291 -183.152224 
L 317.350303 -182.154821 
L 317.498977 -181.157419 
L 317.64885 -180.160016 
L 317.795652 -179.162614 
L 317.935358 -178.165211 
L 318.064237 -177.167808 
L 318.178907 -176.170406 
L 318.27638 -175.173003 
L 318.354105 -174.175601 
L 318.409998 -173.178198 
L 318.442477 -172.180795 
L 318.450471 -171.183393 
z
" id="mb1d87a3a8e" style="stroke:#000000;stroke-opacity:0.3;"/>
    </defs>
    <g clip-path="url(#pb4966f9176)">
     <use style="fill:#bfbf00;fill-opacity:0.3;stroke:#000000;stroke-opacity:0.3;" x="0.0" xlink:href="#mb1d87a3a8e" y="465.868"/>
    </g>
   </g>
   <g id="PolyCollection_5">
    <defs>
     <path d="M 390.235986 -121.811964 
L 386.344014 -121.811964 
L 386.332042 -123.308068 
L 386.331402 -124.804172 
L 386.339394 -126.300276 
L 386.35246 -127.79638 
L 386.366213 -129.292484 
L 386.37551 -130.788588 
L 386.37455 -132.284692 
L 386.357013 -133.780795 
L 386.316224 -135.276899 
L 386.245347 -136.773003 
L 386.13761 -138.269107 
L 385.98656 -139.765211 
L 385.786328 -141.261315 
L 385.531924 -142.757419 
L 385.219528 -144.253523 
L 384.846783 -145.749627 
L 384.413072 -147.245731 
L 383.919755 -148.741834 
L 383.370362 -150.237938 
L 382.770712 -151.734042 
L 382.128948 -153.230146 
L 381.455467 -154.72625 
L 380.762734 -156.222354 
L 380.064983 -157.718458 
L 379.3778 -159.214562 
L 378.71759 -160.710666 
L 378.100968 -162.206769 
L 377.544081 -163.702873 
L 377.0619 -165.198977 
L 376.667521 -166.695081 
L 376.371511 -168.191185 
L 376.181338 -169.687289 
L 376.100921 -171.183393 
L 376.130322 -172.679497 
L 376.265606 -174.175601 
L 376.49887 -175.671705 
L 376.818452 -177.167808 
L 377.209291 -178.663912 
L 377.653438 -180.160016 
L 378.130675 -181.65612 
L 378.619231 -183.152224 
L 379.096536 -184.648328 
L 379.540017 -186.144432 
L 379.927874 -187.640536 
L 380.239836 -189.13664 
L 380.457861 -190.632744 
L 380.566774 -192.128847 
L 380.554821 -193.624951 
L 380.414131 -195.121055 
L 380.141077 -196.617159 
L 379.73652 -198.113263 
L 379.205931 -199.609367 
L 378.559375 -201.105471 
L 377.811345 -202.601575 
L 376.980445 -204.097679 
L 376.088906 -205.593782 
L 375.161946 -207.089886 
L 374.226985 -208.58599 
L 373.312719 -210.082094 
L 372.448107 -211.578198 
L 371.66129 -213.074302 
L 370.978502 -214.570406 
L 370.423021 -216.06651 
L 370.014218 -217.562614 
L 369.766758 -219.058718 
L 369.69 -220.554821 
L 369.787628 -222.050925 
L 370.057542 -223.547029 
L 370.492014 -225.043133 
L 371.078094 -226.539237 
L 371.798249 -228.035341 
L 372.631187 -229.531445 
L 373.55282 -231.027549 
L 374.537309 -232.523653 
L 375.558129 -234.019756 
L 376.589108 -235.51586 
L 377.605369 -237.011964 
L 378.584164 -238.508068 
L 379.505541 -240.004172 
L 380.352853 -241.500276 
L 381.113083 -242.99638 
L 381.777006 -244.492484 
L 382.339191 -245.988588 
L 382.797867 -247.484692 
L 383.154675 -248.980795 
L 383.414334 -250.476899 
L 383.584229 -251.973003 
L 383.673968 -253.469107 
L 383.694895 -254.965211 
L 383.659604 -256.461315 
L 383.581446 -257.957419 
L 383.474049 -259.453523 
L 383.35086 -260.949627 
L 383.22472 -262.445731 
L 383.107477 -263.941834 
L 383.009653 -265.437938 
L 382.940163 -266.934042 
L 382.90611 -268.430146 
L 382.912647 -269.92625 
L 393.667353 -269.92625 
L 393.667353 -269.92625 
L 393.67389 -268.430146 
L 393.639837 -266.934042 
L 393.570347 -265.437938 
L 393.472523 -263.941834 
L 393.35528 -262.445731 
L 393.22914 -260.949627 
L 393.105951 -259.453523 
L 392.998554 -257.957419 
L 392.920396 -256.461315 
L 392.885105 -254.965211 
L 392.906032 -253.469107 
L 392.995771 -251.973003 
L 393.165666 -250.476899 
L 393.425325 -248.980795 
L 393.782133 -247.484692 
L 394.240809 -245.988588 
L 394.802994 -244.492484 
L 395.466917 -242.99638 
L 396.227147 -241.500276 
L 397.074459 -240.004172 
L 397.995836 -238.508068 
L 398.974631 -237.011964 
L 399.990892 -235.51586 
L 401.021871 -234.019756 
L 402.042691 -232.523653 
L 403.02718 -231.027549 
L 403.948813 -229.531445 
L 404.781751 -228.035341 
L 405.501906 -226.539237 
L 406.087986 -225.043133 
L 406.522458 -223.547029 
L 406.792372 -222.050925 
L 406.89 -220.554821 
L 406.813242 -219.058718 
L 406.565782 -217.562614 
L 406.156979 -216.06651 
L 405.601498 -214.570406 
L 404.91871 -213.074302 
L 404.131893 -211.578198 
L 403.267281 -210.082094 
L 402.353015 -208.58599 
L 401.418054 -207.089886 
L 400.491094 -205.593782 
L 399.599555 -204.097679 
L 398.768655 -202.601575 
L 398.020625 -201.105471 
L 397.374069 -199.609367 
L 396.84348 -198.113263 
L 396.438923 -196.617159 
L 396.165869 -195.121055 
L 396.025179 -193.624951 
L 396.013226 -192.128847 
L 396.122139 -190.632744 
L 396.340164 -189.13664 
L 396.652126 -187.640536 
L 397.039983 -186.144432 
L 397.483464 -184.648328 
L 397.960769 -183.152224 
L 398.449325 -181.65612 
L 398.926562 -180.160016 
L 399.370709 -178.663912 
L 399.761548 -177.167808 
L 400.08113 -175.671705 
L 400.314394 -174.175601 
L 400.449678 -172.679497 
L 400.479079 -171.183393 
L 400.398662 -169.687289 
L 400.208489 -168.191185 
L 399.912479 -166.695081 
L 399.5181 -165.198977 
L 399.035919 -163.702873 
L 398.479032 -162.206769 
L 397.86241 -160.710666 
L 397.2022 -159.214562 
L 396.515017 -157.718458 
L 395.817266 -156.222354 
L 395.124533 -154.72625 
L 394.451052 -153.230146 
L 393.809288 -151.734042 
L 393.209638 -150.237938 
L 392.660245 -148.741834 
L 392.166928 -147.245731 
L 391.733217 -145.749627 
L 391.360472 -144.253523 
L 391.048076 -142.757419 
L 390.793672 -141.261315 
L 390.59344 -139.765211 
L 390.44239 -138.269107 
L 390.334653 -136.773003 
L 390.263776 -135.276899 
L 390.222987 -133.780795 
L 390.20545 -132.284692 
L 390.20449 -130.788588 
L 390.213787 -129.292484 
L 390.22754 -127.79638 
L 390.240606 -126.300276 
L 390.248598 -124.804172 
L 390.247958 -123.308068 
L 390.235986 -121.811964 
z
" id="m89aeb561ce" style="stroke:#000000;stroke-opacity:0.3;"/>
    </defs>
    <g clip-path="url(#pb4966f9176)">
     <use style="fill:#bfbf00;fill-opacity:0.3;stroke:#000000;stroke-opacity:0.3;" x="0.0" xlink:href="#m89aeb561ce" y="465.868"/>
    </g>
   </g>
   <g id="PolyCollection_6">
    <defs>
     <path d="M 481.29 -121.811964 
L 444.09 -121.811964 
L 444.09 -121.811964 
L 444.09 -121.811964 
L 444.09 -121.811964 
L 444.09 -121.811964 
L 444.09 -121.811964 
L 444.09 -121.811964 
L 444.09 -121.811964 
L 444.09 -121.811964 
L 444.09 -121.811964 
L 444.09 -121.811964 
L 444.09 -121.811964 
L 444.09 -121.811964 
L 444.09 -121.811964 
L 444.09 -121.811964 
L 444.09 -121.811964 
L 444.09 -121.811964 
L 444.09 -121.811964 
L 444.09 -121.811964 
L 444.09 -121.811964 
L 444.09 -121.811964 
L 444.09 -121.811964 
L 444.09 -121.811964 
L 444.09 -121.811964 
L 444.09 -121.811964 
L 444.09 -121.811964 
L 444.09 -121.811964 
L 444.09 -121.811964 
L 444.09 -121.811964 
L 444.09 -121.811964 
L 444.09 -121.811964 
L 444.09 -121.811964 
L 444.09 -121.811964 
L 444.09 -121.811964 
L 444.09 -121.811964 
L 444.09 -121.811964 
L 444.09 -121.811964 
L 444.09 -121.811964 
L 444.09 -121.811964 
L 444.09 -121.811964 
L 444.09 -121.811964 
L 444.09 -121.811964 
L 444.09 -121.811964 
L 444.09 -121.811964 
L 444.09 -121.811964 
L 444.09 -121.811964 
L 444.09 -121.811964 
L 444.09 -121.811964 
L 444.09 -121.811964 
L 444.09 -121.811964 
L 444.09 -121.811964 
L 444.09 -121.811964 
L 444.09 -121.811964 
L 444.09 -121.811964 
L 444.09 -121.811964 
L 444.09 -121.811964 
L 444.09 -121.811964 
L 444.09 -121.811964 
L 444.09 -121.811964 
L 444.09 -121.811964 
L 444.09 -121.811964 
L 444.09 -121.811964 
L 444.09 -121.811964 
L 444.09 -121.811964 
L 444.09 -121.811964 
L 444.09 -121.811964 
L 444.09 -121.811964 
L 444.09 -121.811964 
L 444.09 -121.811964 
L 444.09 -121.811964 
L 444.09 -121.811964 
L 444.09 -121.811964 
L 444.09 -121.811964 
L 444.09 -121.811964 
L 444.09 -121.811964 
L 444.09 -121.811964 
L 444.09 -121.811964 
L 444.09 -121.811964 
L 444.09 -121.811964 
L 444.09 -121.811964 
L 444.09 -121.811964 
L 444.09 -121.811964 
L 444.09 -121.811964 
L 444.09 -121.811964 
L 444.09 -121.811964 
L 444.09 -121.811964 
L 444.09 -121.811964 
L 444.09 -121.811964 
L 444.09 -121.811964 
L 444.09 -121.811964 
L 444.09 -121.811964 
L 444.09 -121.811964 
L 444.09 -121.811964 
L 444.09 -121.811964 
L 444.09 -121.811964 
L 444.09 -121.811964 
L 444.09 -121.811964 
L 444.09 -121.811964 
L 444.09 -121.811964 
L 444.09 -121.811964 
L 481.29 -121.811964 
L 481.29 -121.811964 
L 481.29 -121.811964 
L 481.29 -121.811964 
L 481.29 -121.811964 
L 481.29 -121.811964 
L 481.29 -121.811964 
L 481.29 -121.811964 
L 481.29 -121.811964 
L 481.29 -121.811964 
L 481.29 -121.811964 
L 481.29 -121.811964 
L 481.29 -121.811964 
L 481.29 -121.811964 
L 481.29 -121.811964 
L 481.29 -121.811964 
L 481.29 -121.811964 
L 481.29 -121.811964 
L 481.29 -121.811964 
L 481.29 -121.811964 
L 481.29 -121.811964 
L 481.29 -121.811964 
L 481.29 -121.811964 
L 481.29 -121.811964 
L 481.29 -121.811964 
L 481.29 -121.811964 
L 481.29 -121.811964 
L 481.29 -121.811964 
L 481.29 -121.811964 
L 481.29 -121.811964 
L 481.29 -121.811964 
L 481.29 -121.811964 
L 481.29 -121.811964 
L 481.29 -121.811964 
L 481.29 -121.811964 
L 481.29 -121.811964 
L 481.29 -121.811964 
L 481.29 -121.811964 
L 481.29 -121.811964 
L 481.29 -121.811964 
L 481.29 -121.811964 
L 481.29 -121.811964 
L 481.29 -121.811964 
L 481.29 -121.811964 
L 481.29 -121.811964 
L 481.29 -121.811964 
L 481.29 -121.811964 
L 481.29 -121.811964 
L 481.29 -121.811964 
L 481.29 -121.811964 
L 481.29 -121.811964 
L 481.29 -121.811964 
L 481.29 -121.811964 
L 481.29 -121.811964 
L 481.29 -121.811964 
L 481.29 -121.811964 
L 481.29 -121.811964 
L 481.29 -121.811964 
L 481.29 -121.811964 
L 481.29 -121.811964 
L 481.29 -121.811964 
L 481.29 -121.811964 
L 481.29 -121.811964 
L 481.29 -121.811964 
L 481.29 -121.811964 
L 481.29 -121.811964 
L 481.29 -121.811964 
L 481.29 -121.811964 
L 481.29 -121.811964 
L 481.29 -121.811964 
L 481.29 -121.811964 
L 481.29 -121.811964 
L 481.29 -121.811964 
L 481.29 -121.811964 
L 481.29 -121.811964 
L 481.29 -121.811964 
L 481.29 -121.811964 
L 481.29 -121.811964 
L 481.29 -121.811964 
L 481.29 -121.811964 
L 481.29 -121.811964 
L 481.29 -121.811964 
L 481.29 -121.811964 
L 481.29 -121.811964 
L 481.29 -121.811964 
L 481.29 -121.811964 
L 481.29 -121.811964 
L 481.29 -121.811964 
L 481.29 -121.811964 
L 481.29 -121.811964 
L 481.29 -121.811964 
L 481.29 -121.811964 
L 481.29 -121.811964 
L 481.29 -121.811964 
L 481.29 -121.811964 
L 481.29 -121.811964 
L 481.29 -121.811964 
L 481.29 -121.811964 
L 481.29 -121.811964 
L 481.29 -121.811964 
L 481.29 -121.811964 
z
" id="m397d617562" style="stroke:#000000;stroke-opacity:0.3;"/>
    </defs>
    <g clip-path="url(#pb4966f9176)">
     <use style="fill:#bfbf00;fill-opacity:0.3;stroke:#000000;stroke-opacity:0.3;" x="0.0" xlink:href="#m397d617562" y="465.868"/>
    </g>
   </g>
   <g id="PolyCollection_7">
    <defs>
     <path d="M 555.69 -121.811964 
L 518.49 -121.811964 
L 518.49 -121.811964 
L 518.49 -121.811964 
L 518.49 -121.811964 
L 518.49 -121.811964 
L 518.49 -121.811964 
L 518.49 -121.811964 
L 518.49 -121.811964 
L 518.49 -121.811964 
L 518.49 -121.811964 
L 518.49 -121.811964 
L 518.49 -121.811964 
L 518.49 -121.811964 
L 518.49 -121.811964 
L 518.49 -121.811964 
L 518.49 -121.811964 
L 518.49 -121.811964 
L 518.49 -121.811964 
L 518.49 -121.811964 
L 518.49 -121.811964 
L 518.49 -121.811964 
L 518.49 -121.811964 
L 518.49 -121.811964 
L 518.49 -121.811964 
L 518.49 -121.811964 
L 518.49 -121.811964 
L 518.49 -121.811964 
L 518.49 -121.811964 
L 518.49 -121.811964 
L 518.49 -121.811964 
L 518.49 -121.811964 
L 518.49 -121.811964 
L 518.49 -121.811964 
L 518.49 -121.811964 
L 518.49 -121.811964 
L 518.49 -121.811964 
L 518.49 -121.811964 
L 518.49 -121.811964 
L 518.49 -121.811964 
L 518.49 -121.811964 
L 518.49 -121.811964 
L 518.49 -121.811964 
L 518.49 -121.811964 
L 518.49 -121.811964 
L 518.49 -121.811964 
L 518.49 -121.811964 
L 518.49 -121.811964 
L 518.49 -121.811964 
L 518.49 -121.811964 
L 518.49 -121.811964 
L 518.49 -121.811964 
L 518.49 -121.811964 
L 518.49 -121.811964 
L 518.49 -121.811964 
L 518.49 -121.811964 
L 518.49 -121.811964 
L 518.49 -121.811964 
L 518.49 -121.811964 
L 518.49 -121.811964 
L 518.49 -121.811964 
L 518.49 -121.811964 
L 518.49 -121.811964 
L 518.49 -121.811964 
L 518.49 -121.811964 
L 518.49 -121.811964 
L 518.49 -121.811964 
L 518.49 -121.811964 
L 518.49 -121.811964 
L 518.49 -121.811964 
L 518.49 -121.811964 
L 518.49 -121.811964 
L 518.49 -121.811964 
L 518.49 -121.811964 
L 518.49 -121.811964 
L 518.49 -121.811964 
L 518.49 -121.811964 
L 518.49 -121.811964 
L 518.49 -121.811964 
L 518.49 -121.811964 
L 518.49 -121.811964 
L 518.49 -121.811964 
L 518.49 -121.811964 
L 518.49 -121.811964 
L 518.49 -121.811964 
L 518.49 -121.811964 
L 518.49 -121.811964 
L 518.49 -121.811964 
L 518.49 -121.811964 
L 518.49 -121.811964 
L 518.49 -121.811964 
L 518.49 -121.811964 
L 518.49 -121.811964 
L 518.49 -121.811964 
L 518.49 -121.811964 
L 518.49 -121.811964 
L 518.49 -121.811964 
L 518.49 -121.811964 
L 518.49 -121.811964 
L 518.49 -121.811964 
L 518.49 -121.811964 
L 555.69 -121.811964 
L 555.69 -121.811964 
L 555.69 -121.811964 
L 555.69 -121.811964 
L 555.69 -121.811964 
L 555.69 -121.811964 
L 555.69 -121.811964 
L 555.69 -121.811964 
L 555.69 -121.811964 
L 555.69 -121.811964 
L 555.69 -121.811964 
L 555.69 -121.811964 
L 555.69 -121.811964 
L 555.69 -121.811964 
L 555.69 -121.811964 
L 555.69 -121.811964 
L 555.69 -121.811964 
L 555.69 -121.811964 
L 555.69 -121.811964 
L 555.69 -121.811964 
L 555.69 -121.811964 
L 555.69 -121.811964 
L 555.69 -121.811964 
L 555.69 -121.811964 
L 555.69 -121.811964 
L 555.69 -121.811964 
L 555.69 -121.811964 
L 555.69 -121.811964 
L 555.69 -121.811964 
L 555.69 -121.811964 
L 555.69 -121.811964 
L 555.69 -121.811964 
L 555.69 -121.811964 
L 555.69 -121.811964 
L 555.69 -121.811964 
L 555.69 -121.811964 
L 555.69 -121.811964 
L 555.69 -121.811964 
L 555.69 -121.811964 
L 555.69 -121.811964 
L 555.69 -121.811964 
L 555.69 -121.811964 
L 555.69 -121.811964 
L 555.69 -121.811964 
L 555.69 -121.811964 
L 555.69 -121.811964 
L 555.69 -121.811964 
L 555.69 -121.811964 
L 555.69 -121.811964 
L 555.69 -121.811964 
L 555.69 -121.811964 
L 555.69 -121.811964 
L 555.69 -121.811964 
L 555.69 -121.811964 
L 555.69 -121.811964 
L 555.69 -121.811964 
L 555.69 -121.811964 
L 555.69 -121.811964 
L 555.69 -121.811964 
L 555.69 -121.811964 
L 555.69 -121.811964 
L 555.69 -121.811964 
L 555.69 -121.811964 
L 555.69 -121.811964 
L 555.69 -121.811964 
L 555.69 -121.811964 
L 555.69 -121.811964 
L 555.69 -121.811964 
L 555.69 -121.811964 
L 555.69 -121.811964 
L 555.69 -121.811964 
L 555.69 -121.811964 
L 555.69 -121.811964 
L 555.69 -121.811964 
L 555.69 -121.811964 
L 555.69 -121.811964 
L 555.69 -121.811964 
L 555.69 -121.811964 
L 555.69 -121.811964 
L 555.69 -121.811964 
L 555.69 -121.811964 
L 555.69 -121.811964 
L 555.69 -121.811964 
L 555.69 -121.811964 
L 555.69 -121.811964 
L 555.69 -121.811964 
L 555.69 -121.811964 
L 555.69 -121.811964 
L 555.69 -121.811964 
L 555.69 -121.811964 
L 555.69 -121.811964 
L 555.69 -121.811964 
L 555.69 -121.811964 
L 555.69 -121.811964 
L 555.69 -121.811964 
L 555.69 -121.811964 
L 555.69 -121.811964 
L 555.69 -121.811964 
L 555.69 -121.811964 
L 555.69 -121.811964 
L 555.69 -121.811964 
z
" id="m91da4089cd" style="stroke:#000000;stroke-opacity:0.3;"/>
    </defs>
    <g clip-path="url(#pb4966f9176)">
     <use style="fill:#bfbf00;fill-opacity:0.3;stroke:#000000;stroke-opacity:0.3;" x="0.0" xlink:href="#m91da4089cd" y="465.868"/>
    </g>
   </g>
   <g id="PolyCollection_8">
    <defs>
     <path d="M 630.09 -121.811964 
L 592.89 -121.811964 
L 592.89 -121.811964 
L 592.89 -121.811964 
L 592.89 -121.811964 
L 592.89 -121.811964 
L 592.89 -121.811964 
L 592.89 -121.811964 
L 592.89 -121.811964 
L 592.89 -121.811964 
L 592.89 -121.811964 
L 592.89 -121.811964 
L 592.89 -121.811964 
L 592.89 -121.811964 
L 592.89 -121.811964 
L 592.89 -121.811964 
L 592.89 -121.811964 
L 592.89 -121.811964 
L 592.89 -121.811964 
L 592.89 -121.811964 
L 592.89 -121.811964 
L 592.89 -121.811964 
L 592.89 -121.811964 
L 592.89 -121.811964 
L 592.89 -121.811964 
L 592.89 -121.811964 
L 592.89 -121.811964 
L 592.89 -121.811964 
L 592.89 -121.811964 
L 592.89 -121.811964 
L 592.89 -121.811964 
L 592.89 -121.811964 
L 592.89 -121.811964 
L 592.89 -121.811964 
L 592.89 -121.811964 
L 592.89 -121.811964 
L 592.89 -121.811964 
L 592.89 -121.811964 
L 592.89 -121.811964 
L 592.89 -121.811964 
L 592.89 -121.811964 
L 592.89 -121.811964 
L 592.89 -121.811964 
L 592.89 -121.811964 
L 592.89 -121.811964 
L 592.89 -121.811964 
L 592.89 -121.811964 
L 592.89 -121.811964 
L 592.89 -121.811964 
L 592.89 -121.811964 
L 592.89 -121.811964 
L 592.89 -121.811964 
L 592.89 -121.811964 
L 592.89 -121.811964 
L 592.89 -121.811964 
L 592.89 -121.811964 
L 592.89 -121.811964 
L 592.89 -121.811964 
L 592.89 -121.811964 
L 592.89 -121.811964 
L 592.89 -121.811964 
L 592.89 -121.811964 
L 592.89 -121.811964 
L 592.89 -121.811964 
L 592.89 -121.811964 
L 592.89 -121.811964 
L 592.89 -121.811964 
L 592.89 -121.811964 
L 592.89 -121.811964 
L 592.89 -121.811964 
L 592.89 -121.811964 
L 592.89 -121.811964 
L 592.89 -121.811964 
L 592.89 -121.811964 
L 592.89 -121.811964 
L 592.89 -121.811964 
L 592.89 -121.811964 
L 592.89 -121.811964 
L 592.89 -121.811964 
L 592.89 -121.811964 
L 592.89 -121.811964 
L 592.89 -121.811964 
L 592.89 -121.811964 
L 592.89 -121.811964 
L 592.89 -121.811964 
L 592.89 -121.811964 
L 592.89 -121.811964 
L 592.89 -121.811964 
L 592.89 -121.811964 
L 592.89 -121.811964 
L 592.89 -121.811964 
L 592.89 -121.811964 
L 592.89 -121.811964 
L 592.89 -121.811964 
L 592.89 -121.811964 
L 592.89 -121.811964 
L 592.89 -121.811964 
L 592.89 -121.811964 
L 592.89 -121.811964 
L 592.89 -121.811964 
L 592.89 -121.811964 
L 630.09 -121.811964 
L 630.09 -121.811964 
L 630.09 -121.811964 
L 630.09 -121.811964 
L 630.09 -121.811964 
L 630.09 -121.811964 
L 630.09 -121.811964 
L 630.09 -121.811964 
L 630.09 -121.811964 
L 630.09 -121.811964 
L 630.09 -121.811964 
L 630.09 -121.811964 
L 630.09 -121.811964 
L 630.09 -121.811964 
L 630.09 -121.811964 
L 630.09 -121.811964 
L 630.09 -121.811964 
L 630.09 -121.811964 
L 630.09 -121.811964 
L 630.09 -121.811964 
L 630.09 -121.811964 
L 630.09 -121.811964 
L 630.09 -121.811964 
L 630.09 -121.811964 
L 630.09 -121.811964 
L 630.09 -121.811964 
L 630.09 -121.811964 
L 630.09 -121.811964 
L 630.09 -121.811964 
L 630.09 -121.811964 
L 630.09 -121.811964 
L 630.09 -121.811964 
L 630.09 -121.811964 
L 630.09 -121.811964 
L 630.09 -121.811964 
L 630.09 -121.811964 
L 630.09 -121.811964 
L 630.09 -121.811964 
L 630.09 -121.811964 
L 630.09 -121.811964 
L 630.09 -121.811964 
L 630.09 -121.811964 
L 630.09 -121.811964 
L 630.09 -121.811964 
L 630.09 -121.811964 
L 630.09 -121.811964 
L 630.09 -121.811964 
L 630.09 -121.811964 
L 630.09 -121.811964 
L 630.09 -121.811964 
L 630.09 -121.811964 
L 630.09 -121.811964 
L 630.09 -121.811964 
L 630.09 -121.811964 
L 630.09 -121.811964 
L 630.09 -121.811964 
L 630.09 -121.811964 
L 630.09 -121.811964 
L 630.09 -121.811964 
L 630.09 -121.811964 
L 630.09 -121.811964 
L 630.09 -121.811964 
L 630.09 -121.811964 
L 630.09 -121.811964 
L 630.09 -121.811964 
L 630.09 -121.811964 
L 630.09 -121.811964 
L 630.09 -121.811964 
L 630.09 -121.811964 
L 630.09 -121.811964 
L 630.09 -121.811964 
L 630.09 -121.811964 
L 630.09 -121.811964 
L 630.09 -121.811964 
L 630.09 -121.811964 
L 630.09 -121.811964 
L 630.09 -121.811964 
L 630.09 -121.811964 
L 630.09 -121.811964 
L 630.09 -121.811964 
L 630.09 -121.811964 
L 630.09 -121.811964 
L 630.09 -121.811964 
L 630.09 -121.811964 
L 630.09 -121.811964 
L 630.09 -121.811964 
L 630.09 -121.811964 
L 630.09 -121.811964 
L 630.09 -121.811964 
L 630.09 -121.811964 
L 630.09 -121.811964 
L 630.09 -121.811964 
L 630.09 -121.811964 
L 630.09 -121.811964 
L 630.09 -121.811964 
L 630.09 -121.811964 
L 630.09 -121.811964 
L 630.09 -121.811964 
L 630.09 -121.811964 
L 630.09 -121.811964 
L 630.09 -121.811964 
z
" id="m7f56112715" style="stroke:#000000;stroke-opacity:0.3;"/>
    </defs>
    <g clip-path="url(#pb4966f9176)">
     <use style="fill:#bfbf00;fill-opacity:0.3;stroke:#000000;stroke-opacity:0.3;" x="0.0" xlink:href="#m7f56112715" y="465.868"/>
    </g>
   </g>
   <g id="LineCollection_1">
    <path clip-path="url(#pb4966f9176)" d="M 81.39 47.827464 
L 99.99 47.827464 
" style="fill:none;stroke:#ff0000;"/>
    <path clip-path="url(#pb4966f9176)" d="M 155.79 97.198893 
L 174.39 97.198893 
" style="fill:none;stroke:#ff0000;"/>
    <path clip-path="url(#pb4966f9176)" d="M 230.19 146.570321 
L 248.79 146.570321 
" style="fill:none;stroke:#ff0000;"/>
    <path clip-path="url(#pb4966f9176)" d="M 304.59 245.313179 
L 323.19 245.313179 
" style="fill:none;stroke:#ff0000;"/>
    <path clip-path="url(#pb4966f9176)" d="M 378.99 245.313179 
L 397.59 245.313179 
" style="fill:none;stroke:#ff0000;"/>
    <path clip-path="url(#pb4966f9176)" d="M 453.39 344.056036 
L 471.99 344.056036 
" style="fill:none;stroke:#ff0000;"/>
    <path clip-path="url(#pb4966f9176)" d="M 527.79 344.056036 
L 546.39 344.056036 
" style="fill:none;stroke:#ff0000;"/>
    <path clip-path="url(#pb4966f9176)" d="M 602.19 344.056036 
L 620.79 344.056036 
" style="fill:none;stroke:#ff0000;"/>
   </g>
   <g id="patch_3">
    <path d="M 16.29 23.14175 
L 685.89 23.14175 
" style="fill:none;stroke:#000000;stroke-linecap:square;stroke-linejoin:miter;"/>
   </g>
   <g id="patch_4">
    <path d="M 685.89 368.74175 
L 685.89 23.14175 
" style="fill:none;stroke:#000000;stroke-linecap:square;stroke-linejoin:miter;"/>
   </g>
   <g id="patch_5">
    <path d="M 16.29 368.74175 
L 685.89 368.74175 
" style="fill:none;stroke:#000000;stroke-linecap:square;stroke-linejoin:miter;"/>
   </g>
   <g id="patch_6">
    <path d="M 16.29 368.74175 
L 16.29 23.14175 
" style="fill:none;stroke:#000000;stroke-linecap:square;stroke-linejoin:miter;"/>
   </g>
   <g id="matplotlib.axis_1">
    <g id="xtick_1">
     <g id="line2d_1">
      <defs>
       <path d="M 0 0 
L 0 -4 
" id="m68527feafc" style="stroke:#000000;stroke-width:0.5;"/>
      </defs>
      <g>
       <use style="stroke:#000000;stroke-width:0.5;" x="90.69" xlink:href="#m68527feafc" y="368.74175"/>
      </g>
     </g>
     <g id="line2d_2">
      <defs>
       <path d="M 0 0 
L 0 4 
" id="m05b5031ef8" style="stroke:#000000;stroke-width:0.5;"/>
      </defs>
      <g>
       <use style="stroke:#000000;stroke-width:0.5;" x="90.69" xlink:href="#m05b5031ef8" y="23.14175"/>
      </g>
     </g>
     <g id="text_1">
      <!-- Defector -->
      <defs>
       <path d="M 30.609375 48.390625 
Q 23.390625 48.390625 19.1875 42.75 
Q 14.984375 37.109375 14.984375 27.296875 
Q 14.984375 17.484375 19.15625 11.84375 
Q 23.34375 6.203125 30.609375 6.203125 
Q 37.796875 6.203125 41.984375 11.859375 
Q 46.1875 17.53125 46.1875 27.296875 
Q 46.1875 37.015625 41.984375 42.703125 
Q 37.796875 48.390625 30.609375 48.390625 
M 30.609375 56 
Q 42.328125 56 49.015625 48.375 
Q 55.71875 40.765625 55.71875 27.296875 
Q 55.71875 13.875 49.015625 6.21875 
Q 42.328125 -1.421875 30.609375 -1.421875 
Q 18.84375 -1.421875 12.171875 6.21875 
Q 5.515625 13.875 5.515625 27.296875 
Q 5.515625 40.765625 12.171875 48.375 
Q 18.84375 56 30.609375 56 
" id="BitstreamVeraSans-Roman-6f"/>
       <path d="M 19.671875 64.796875 
L 19.671875 8.109375 
L 31.59375 8.109375 
Q 46.6875 8.109375 53.6875 14.9375 
Q 60.6875 21.78125 60.6875 36.53125 
Q 60.6875 51.171875 53.6875 57.984375 
Q 46.6875 64.796875 31.59375 64.796875 
z
M 9.8125 72.90625 
L 30.078125 72.90625 
Q 51.265625 72.90625 61.171875 64.09375 
Q 71.09375 55.28125 71.09375 36.53125 
Q 71.09375 17.671875 61.125 8.828125 
Q 51.171875 0 30.078125 0 
L 9.8125 0 
z
" id="BitstreamVeraSans-Roman-44"/>
       <path d="M 56.203125 29.59375 
L 56.203125 25.203125 
L 14.890625 25.203125 
Q 15.484375 15.921875 20.484375 11.0625 
Q 25.484375 6.203125 34.421875 6.203125 
Q 39.59375 6.203125 44.453125 7.46875 
Q 49.3125 8.734375 54.109375 11.28125 
L 54.109375 2.78125 
Q 49.265625 0.734375 44.1875 -0.34375 
Q 39.109375 -1.421875 33.890625 -1.421875 
Q 20.796875 -1.421875 13.15625 6.1875 
Q 5.515625 13.8125 5.515625 26.8125 
Q 5.515625 40.234375 12.765625 48.109375 
Q 20.015625 56 32.328125 56 
Q 43.359375 56 49.78125 48.890625 
Q 56.203125 41.796875 56.203125 29.59375 
M 47.21875 32.234375 
Q 47.125 39.59375 43.09375 43.984375 
Q 39.0625 48.390625 32.421875 48.390625 
Q 24.90625 48.390625 20.390625 44.140625 
Q 15.875 39.890625 15.1875 32.171875 
z
" id="BitstreamVeraSans-Roman-65"/>
       <path d="M 18.3125 70.21875 
L 18.3125 54.6875 
L 36.8125 54.6875 
L 36.8125 47.703125 
L 18.3125 47.703125 
L 18.3125 18.015625 
Q 18.3125 11.328125 20.140625 9.421875 
Q 21.96875 7.515625 27.59375 7.515625 
L 36.8125 7.515625 
L 36.8125 0 
L 27.59375 0 
Q 17.1875 0 13.234375 3.875 
Q 9.28125 7.765625 9.28125 18.015625 
L 9.28125 47.703125 
L 2.6875 47.703125 
L 2.6875 54.6875 
L 9.28125 54.6875 
L 9.28125 70.21875 
z
" id="BitstreamVeraSans-Roman-74"/>
       <path d="M 37.109375 75.984375 
L 37.109375 68.5 
L 28.515625 68.5 
Q 23.6875 68.5 21.796875 66.546875 
Q 19.921875 64.59375 19.921875 59.515625 
L 19.921875 54.6875 
L 34.71875 54.6875 
L 34.71875 47.703125 
L 19.921875 47.703125 
L 19.921875 0 
L 10.890625 0 
L 10.890625 47.703125 
L 2.296875 47.703125 
L 2.296875 54.6875 
L 10.890625 54.6875 
L 10.890625 58.5 
Q 10.890625 67.625 15.140625 71.796875 
Q 19.390625 75.984375 28.609375 75.984375 
z
" id="BitstreamVeraSans-Roman-66"/>
       <path d="M 41.109375 46.296875 
Q 39.59375 47.171875 37.8125 47.578125 
Q 36.03125 48 33.890625 48 
Q 26.265625 48 22.1875 43.046875 
Q 18.109375 38.09375 18.109375 28.8125 
L 18.109375 0 
L 9.078125 0 
L 9.078125 54.6875 
L 18.109375 54.6875 
L 18.109375 46.1875 
Q 20.953125 51.171875 25.484375 53.578125 
Q 30.03125 56 36.53125 56 
Q 37.453125 56 38.578125 55.875 
Q 39.703125 55.765625 41.0625 55.515625 
z
" id="BitstreamVeraSans-Roman-72"/>
       <path d="M 48.78125 52.59375 
L 48.78125 44.1875 
Q 44.96875 46.296875 41.140625 47.34375 
Q 37.3125 48.390625 33.40625 48.390625 
Q 24.65625 48.390625 19.8125 42.84375 
Q 14.984375 37.3125 14.984375 27.296875 
Q 14.984375 17.28125 19.8125 11.734375 
Q 24.65625 6.203125 33.40625 6.203125 
Q 37.3125 6.203125 41.140625 7.25 
Q 44.96875 8.296875 48.78125 10.40625 
L 48.78125 2.09375 
Q 45.015625 0.34375 40.984375 -0.53125 
Q 36.96875 -1.421875 32.421875 -1.421875 
Q 20.0625 -1.421875 12.78125 6.34375 
Q 5.515625 14.109375 5.515625 27.296875 
Q 5.515625 40.671875 12.859375 48.328125 
Q 20.21875 56 33.015625 56 
Q 37.15625 56 41.109375 55.140625 
Q 45.0625 54.296875 48.78125 52.59375 
" id="BitstreamVeraSans-Roman-63"/>
      </defs>
      <g transform="translate(92.8975 407.28175)rotate(-90.0)scale(0.08 -0.08)">
       <use xlink:href="#BitstreamVeraSans-Roman-44"/>
       <use x="77.001953125" xlink:href="#BitstreamVeraSans-Roman-65"/>
       <use x="138.525390625" xlink:href="#BitstreamVeraSans-Roman-66"/>
       <use x="173.73046875" xlink:href="#BitstreamVeraSans-Roman-65"/>
       <use x="235.25390625" xlink:href="#BitstreamVeraSans-Roman-63"/>
       <use x="290.234375" xlink:href="#BitstreamVeraSans-Roman-74"/>
       <use x="329.443359375" xlink:href="#BitstreamVeraSans-Roman-6f"/>
       <use x="390.625" xlink:href="#BitstreamVeraSans-Roman-72"/>
      </g>
     </g>
    </g>
    <g id="xtick_2">
     <g id="line2d_3">
      <g>
       <use style="stroke:#000000;stroke-width:0.5;" x="165.09" xlink:href="#m68527feafc" y="368.74175"/>
      </g>
     </g>
     <g id="line2d_4">
      <g>
       <use style="stroke:#000000;stroke-width:0.5;" x="165.09" xlink:href="#m05b5031ef8" y="23.14175"/>
      </g>
     </g>
     <g id="text_2">
      <!-- Bully -->
      <defs>
       <path d="M 8.5 21.578125 
L 8.5 54.6875 
L 17.484375 54.6875 
L 17.484375 21.921875 
Q 17.484375 14.15625 20.5 10.265625 
Q 23.53125 6.390625 29.59375 6.390625 
Q 36.859375 6.390625 41.078125 11.03125 
Q 45.3125 15.671875 45.3125 23.6875 
L 45.3125 54.6875 
L 54.296875 54.6875 
L 54.296875 0 
L 45.3125 0 
L 45.3125 8.40625 
Q 42.046875 3.421875 37.71875 1 
Q 33.40625 -1.421875 27.6875 -1.421875 
Q 18.265625 -1.421875 13.375 4.4375 
Q 8.5 10.296875 8.5 21.578125 
" id="BitstreamVeraSans-Roman-75"/>
       <path d="M 19.671875 34.8125 
L 19.671875 8.109375 
L 35.5 8.109375 
Q 43.453125 8.109375 47.28125 11.40625 
Q 51.125 14.703125 51.125 21.484375 
Q 51.125 28.328125 47.28125 31.5625 
Q 43.453125 34.8125 35.5 34.8125 
z
M 19.671875 64.796875 
L 19.671875 42.828125 
L 34.28125 42.828125 
Q 41.5 42.828125 45.03125 45.53125 
Q 48.578125 48.25 48.578125 53.8125 
Q 48.578125 59.328125 45.03125 62.0625 
Q 41.5 64.796875 34.28125 64.796875 
z
M 9.8125 72.90625 
L 35.015625 72.90625 
Q 46.296875 72.90625 52.390625 68.21875 
Q 58.5 63.53125 58.5 54.890625 
Q 58.5 48.1875 55.375 44.234375 
Q 52.25 40.28125 46.1875 39.3125 
Q 53.46875 37.75 57.5 32.78125 
Q 61.53125 27.828125 61.53125 20.40625 
Q 61.53125 10.640625 54.890625 5.3125 
Q 48.25 0 35.984375 0 
L 9.8125 0 
z
" id="BitstreamVeraSans-Roman-42"/>
       <path d="M 9.421875 75.984375 
L 18.40625 75.984375 
L 18.40625 0 
L 9.421875 0 
z
" id="BitstreamVeraSans-Roman-6c"/>
       <path d="M 32.171875 -5.078125 
Q 28.375 -14.84375 24.75 -17.8125 
Q 21.140625 -20.796875 15.09375 -20.796875 
L 7.90625 -20.796875 
L 7.90625 -13.28125 
L 13.1875 -13.28125 
Q 16.890625 -13.28125 18.9375 -11.515625 
Q 21 -9.765625 23.484375 -3.21875 
L 25.09375 0.875 
L 2.984375 54.6875 
L 12.5 54.6875 
L 29.59375 11.921875 
L 46.6875 54.6875 
L 56.203125 54.6875 
z
" id="BitstreamVeraSans-Roman-79"/>
      </defs>
      <g transform="translate(167.2975 392.4805)rotate(-90.0)scale(0.08 -0.08)">
       <use xlink:href="#BitstreamVeraSans-Roman-42"/>
       <use x="68.603515625" xlink:href="#BitstreamVeraSans-Roman-75"/>
       <use x="131.982421875" xlink:href="#BitstreamVeraSans-Roman-6c"/>
       <use x="159.765625" xlink:href="#BitstreamVeraSans-Roman-6c"/>
       <use x="187.548828125" xlink:href="#BitstreamVeraSans-Roman-79"/>
      </g>
     </g>
    </g>
    <g id="xtick_3">
     <g id="line2d_5">
      <g>
       <use style="stroke:#000000;stroke-width:0.5;" x="239.49" xlink:href="#m68527feafc" y="368.74175"/>
      </g>
     </g>
     <g id="line2d_6">
      <g>
       <use style="stroke:#000000;stroke-width:0.5;" x="239.49" xlink:href="#m05b5031ef8" y="23.14175"/>
      </g>
     </g>
     <g id="text_3">
      <!-- Suspicious Tit For Tat -->
      <defs>
       <path id="BitstreamVeraSans-Roman-20"/>
       <path d="M 9.8125 72.90625 
L 51.703125 72.90625 
L 51.703125 64.59375 
L 19.671875 64.59375 
L 19.671875 43.109375 
L 48.578125 43.109375 
L 48.578125 34.8125 
L 19.671875 34.8125 
L 19.671875 0 
L 9.8125 0 
z
" id="BitstreamVeraSans-Roman-46"/>
       <path d="M 53.515625 70.515625 
L 53.515625 60.890625 
Q 47.90625 63.578125 42.921875 64.890625 
Q 37.9375 66.21875 33.296875 66.21875 
Q 25.25 66.21875 20.875 63.09375 
Q 16.5 59.96875 16.5 54.203125 
Q 16.5 49.359375 19.40625 46.890625 
Q 22.3125 44.4375 30.421875 42.921875 
L 36.375 41.703125 
Q 47.40625 39.59375 52.65625 34.296875 
Q 57.90625 29 57.90625 20.125 
Q 57.90625 9.515625 50.796875 4.046875 
Q 43.703125 -1.421875 29.984375 -1.421875 
Q 24.8125 -1.421875 18.96875 -0.25 
Q 13.140625 0.921875 6.890625 3.21875 
L 6.890625 13.375 
Q 12.890625 10.015625 18.65625 8.296875 
Q 24.421875 6.59375 29.984375 6.59375 
Q 38.421875 6.59375 43.015625 9.90625 
Q 47.609375 13.234375 47.609375 19.390625 
Q 47.609375 24.75 44.3125 27.78125 
Q 41.015625 30.8125 33.5 32.328125 
L 27.484375 33.5 
Q 16.453125 35.6875 11.515625 40.375 
Q 6.59375 45.0625 6.59375 53.421875 
Q 6.59375 63.09375 13.40625 68.65625 
Q 20.21875 74.21875 32.171875 74.21875 
Q 37.3125 74.21875 42.625 73.28125 
Q 47.953125 72.359375 53.515625 70.515625 
" id="BitstreamVeraSans-Roman-53"/>
       <path d="M -0.296875 72.90625 
L 61.375 72.90625 
L 61.375 64.59375 
L 35.5 64.59375 
L 35.5 0 
L 25.59375 0 
L 25.59375 64.59375 
L -0.296875 64.59375 
z
" id="BitstreamVeraSans-Roman-54"/>
       <path d="M 9.421875 54.6875 
L 18.40625 54.6875 
L 18.40625 0 
L 9.421875 0 
z
M 9.421875 75.984375 
L 18.40625 75.984375 
L 18.40625 64.59375 
L 9.421875 64.59375 
z
" id="BitstreamVeraSans-Roman-69"/>
       <path d="M 34.28125 27.484375 
Q 23.390625 27.484375 19.1875 25 
Q 14.984375 22.515625 14.984375 16.5 
Q 14.984375 11.71875 18.140625 8.90625 
Q 21.296875 6.109375 26.703125 6.109375 
Q 34.1875 6.109375 38.703125 11.40625 
Q 43.21875 16.703125 43.21875 25.484375 
L 43.21875 27.484375 
z
M 52.203125 31.203125 
L 52.203125 0 
L 43.21875 0 
L 43.21875 8.296875 
Q 40.140625 3.328125 35.546875 0.953125 
Q 30.953125 -1.421875 24.3125 -1.421875 
Q 15.921875 -1.421875 10.953125 3.296875 
Q 6 8.015625 6 15.921875 
Q 6 25.140625 12.171875 29.828125 
Q 18.359375 34.515625 30.609375 34.515625 
L 43.21875 34.515625 
L 43.21875 35.40625 
Q 43.21875 41.609375 39.140625 45 
Q 35.0625 48.390625 27.6875 48.390625 
Q 23 48.390625 18.546875 47.265625 
Q 14.109375 46.140625 10.015625 43.890625 
L 10.015625 52.203125 
Q 14.9375 54.109375 19.578125 55.046875 
Q 24.21875 56 28.609375 56 
Q 40.484375 56 46.34375 49.84375 
Q 52.203125 43.703125 52.203125 31.203125 
" id="BitstreamVeraSans-Roman-61"/>
       <path d="M 44.28125 53.078125 
L 44.28125 44.578125 
Q 40.484375 46.53125 36.375 47.5 
Q 32.28125 48.484375 27.875 48.484375 
Q 21.1875 48.484375 17.84375 46.4375 
Q 14.5 44.390625 14.5 40.28125 
Q 14.5 37.15625 16.890625 35.375 
Q 19.28125 33.59375 26.515625 31.984375 
L 29.59375 31.296875 
Q 39.15625 29.25 43.1875 25.515625 
Q 47.21875 21.78125 47.21875 15.09375 
Q 47.21875 7.46875 41.1875 3.015625 
Q 35.15625 -1.421875 24.609375 -1.421875 
Q 20.21875 -1.421875 15.453125 -0.5625 
Q 10.6875 0.296875 5.421875 2 
L 5.421875 11.28125 
Q 10.40625 8.6875 15.234375 7.390625 
Q 20.0625 6.109375 24.8125 6.109375 
Q 31.15625 6.109375 34.5625 8.28125 
Q 37.984375 10.453125 37.984375 14.40625 
Q 37.984375 18.0625 35.515625 20.015625 
Q 33.0625 21.96875 24.703125 23.78125 
L 21.578125 24.515625 
Q 13.234375 26.265625 9.515625 29.90625 
Q 5.8125 33.546875 5.8125 39.890625 
Q 5.8125 47.609375 11.28125 51.796875 
Q 16.75 56 26.8125 56 
Q 31.78125 56 36.171875 55.265625 
Q 40.578125 54.546875 44.28125 53.078125 
" id="BitstreamVeraSans-Roman-73"/>
       <path d="M 18.109375 8.203125 
L 18.109375 -20.796875 
L 9.078125 -20.796875 
L 9.078125 54.6875 
L 18.109375 54.6875 
L 18.109375 46.390625 
Q 20.953125 51.265625 25.265625 53.625 
Q 29.59375 56 35.59375 56 
Q 45.5625 56 51.78125 48.09375 
Q 58.015625 40.1875 58.015625 27.296875 
Q 58.015625 14.40625 51.78125 6.484375 
Q 45.5625 -1.421875 35.59375 -1.421875 
Q 29.59375 -1.421875 25.265625 0.953125 
Q 20.953125 3.328125 18.109375 8.203125 
M 48.6875 27.296875 
Q 48.6875 37.203125 44.609375 42.84375 
Q 40.53125 48.484375 33.40625 48.484375 
Q 26.265625 48.484375 22.1875 42.84375 
Q 18.109375 37.203125 18.109375 27.296875 
Q 18.109375 17.390625 22.1875 11.75 
Q 26.265625 6.109375 33.40625 6.109375 
Q 40.53125 6.109375 44.609375 11.75 
Q 48.6875 17.390625 48.6875 27.296875 
" id="BitstreamVeraSans-Roman-70"/>
      </defs>
      <g transform="translate(241.6975 458.668)rotate(-90.0)scale(0.08 -0.08)">
       <use xlink:href="#BitstreamVeraSans-Roman-53"/>
       <use x="63.4765625" xlink:href="#BitstreamVeraSans-Roman-75"/>
       <use x="126.85546875" xlink:href="#BitstreamVeraSans-Roman-73"/>
       <use x="178.955078125" xlink:href="#BitstreamVeraSans-Roman-70"/>
       <use x="242.431640625" xlink:href="#BitstreamVeraSans-Roman-69"/>
       <use x="270.21484375" xlink:href="#BitstreamVeraSans-Roman-63"/>
       <use x="325.1953125" xlink:href="#BitstreamVeraSans-Roman-69"/>
       <use x="352.978515625" xlink:href="#BitstreamVeraSans-Roman-6f"/>
       <use x="414.16015625" xlink:href="#BitstreamVeraSans-Roman-75"/>
       <use x="477.5390625" xlink:href="#BitstreamVeraSans-Roman-73"/>
       <use x="529.638671875" xlink:href="#BitstreamVeraSans-Roman-20"/>
       <use x="561.42578125" xlink:href="#BitstreamVeraSans-Roman-54"/>
       <use x="622.462890625" xlink:href="#BitstreamVeraSans-Roman-69"/>
       <use x="650.24609375" xlink:href="#BitstreamVeraSans-Roman-74"/>
       <use x="689.455078125" xlink:href="#BitstreamVeraSans-Roman-20"/>
       <use x="721.2421875" xlink:href="#BitstreamVeraSans-Roman-46"/>
       <use x="778.71484375" xlink:href="#BitstreamVeraSans-Roman-6f"/>
       <use x="839.896484375" xlink:href="#BitstreamVeraSans-Roman-72"/>
       <use x="881.009765625" xlink:href="#BitstreamVeraSans-Roman-20"/>
       <use x="912.796875" xlink:href="#BitstreamVeraSans-Roman-54"/>
       <use x="973.630859375" xlink:href="#BitstreamVeraSans-Roman-61"/>
       <use x="1034.91015625" xlink:href="#BitstreamVeraSans-Roman-74"/>
      </g>
     </g>
    </g>
    <g id="xtick_4">
     <g id="line2d_7">
      <g>
       <use style="stroke:#000000;stroke-width:0.5;" x="313.89" xlink:href="#m68527feafc" y="368.74175"/>
      </g>
     </g>
     <g id="line2d_8">
      <g>
       <use style="stroke:#000000;stroke-width:0.5;" x="313.89" xlink:href="#m05b5031ef8" y="23.14175"/>
      </g>
     </g>
     <g id="text_4">
      <!-- Anti Tit For Tat -->
      <defs>
       <path d="M 54.890625 33.015625 
L 54.890625 0 
L 45.90625 0 
L 45.90625 32.71875 
Q 45.90625 40.484375 42.875 44.328125 
Q 39.84375 48.1875 33.796875 48.1875 
Q 26.515625 48.1875 22.3125 43.546875 
Q 18.109375 38.921875 18.109375 30.90625 
L 18.109375 0 
L 9.078125 0 
L 9.078125 54.6875 
L 18.109375 54.6875 
L 18.109375 46.1875 
Q 21.34375 51.125 25.703125 53.5625 
Q 30.078125 56 35.796875 56 
Q 45.21875 56 50.046875 50.171875 
Q 54.890625 44.34375 54.890625 33.015625 
" id="BitstreamVeraSans-Roman-6e"/>
       <path d="M 34.1875 63.1875 
L 20.796875 26.90625 
L 47.609375 26.90625 
z
M 28.609375 72.90625 
L 39.796875 72.90625 
L 67.578125 0 
L 57.328125 0 
L 50.6875 18.703125 
L 17.828125 18.703125 
L 11.1875 0 
L 0.78125 0 
z
" id="BitstreamVeraSans-Roman-41"/>
      </defs>
      <g transform="translate(316.0975 432.198)rotate(-90.0)scale(0.08 -0.08)">
       <use xlink:href="#BitstreamVeraSans-Roman-41"/>
       <use x="68.408203125" xlink:href="#BitstreamVeraSans-Roman-6e"/>
       <use x="131.787109375" xlink:href="#BitstreamVeraSans-Roman-74"/>
       <use x="170.99609375" xlink:href="#BitstreamVeraSans-Roman-69"/>
       <use x="198.779296875" xlink:href="#BitstreamVeraSans-Roman-20"/>
       <use x="230.56640625" xlink:href="#BitstreamVeraSans-Roman-54"/>
       <use x="291.603515625" xlink:href="#BitstreamVeraSans-Roman-69"/>
       <use x="319.38671875" xlink:href="#BitstreamVeraSans-Roman-74"/>
       <use x="358.595703125" xlink:href="#BitstreamVeraSans-Roman-20"/>
       <use x="390.3828125" xlink:href="#BitstreamVeraSans-Roman-46"/>
       <use x="447.85546875" xlink:href="#BitstreamVeraSans-Roman-6f"/>
       <use x="509.037109375" xlink:href="#BitstreamVeraSans-Roman-72"/>
       <use x="550.150390625" xlink:href="#BitstreamVeraSans-Roman-20"/>
       <use x="581.9375" xlink:href="#BitstreamVeraSans-Roman-54"/>
       <use x="642.771484375" xlink:href="#BitstreamVeraSans-Roman-61"/>
       <use x="704.05078125" xlink:href="#BitstreamVeraSans-Roman-74"/>
      </g>
     </g>
    </g>
    <g id="xtick_5">
     <g id="line2d_9">
      <g>
       <use style="stroke:#000000;stroke-width:0.5;" x="388.29" xlink:href="#m68527feafc" y="368.74175"/>
      </g>
     </g>
     <g id="line2d_10">
      <g>
       <use style="stroke:#000000;stroke-width:0.5;" x="388.29" xlink:href="#m05b5031ef8" y="23.14175"/>
      </g>
     </g>
     <g id="text_5">
      <!-- Alternator -->
      <g transform="translate(390.4975 413.0755)rotate(-90.0)scale(0.08 -0.08)">
       <use xlink:href="#BitstreamVeraSans-Roman-41"/>
       <use x="68.408203125" xlink:href="#BitstreamVeraSans-Roman-6c"/>
       <use x="96.19140625" xlink:href="#BitstreamVeraSans-Roman-74"/>
       <use x="135.400390625" xlink:href="#BitstreamVeraSans-Roman-65"/>
       <use x="196.923828125" xlink:href="#BitstreamVeraSans-Roman-72"/>
       <use x="238.021484375" xlink:href="#BitstreamVeraSans-Roman-6e"/>
       <use x="301.400390625" xlink:href="#BitstreamVeraSans-Roman-61"/>
       <use x="362.6796875" xlink:href="#BitstreamVeraSans-Roman-74"/>
       <use x="401.888671875" xlink:href="#BitstreamVeraSans-Roman-6f"/>
       <use x="463.0703125" xlink:href="#BitstreamVeraSans-Roman-72"/>
      </g>
     </g>
    </g>
    <g id="xtick_6">
     <g id="line2d_11">
      <g>
       <use style="stroke:#000000;stroke-width:0.5;" x="462.69" xlink:href="#m68527feafc" y="368.74175"/>
      </g>
     </g>
     <g id="line2d_12">
      <g>
       <use style="stroke:#000000;stroke-width:0.5;" x="462.69" xlink:href="#m05b5031ef8" y="23.14175"/>
      </g>
     </g>
     <g id="text_6">
      <!-- Win-Stay Lose-Shift -->
      <defs>
       <path d="M 54.890625 33.015625 
L 54.890625 0 
L 45.90625 0 
L 45.90625 32.71875 
Q 45.90625 40.484375 42.875 44.328125 
Q 39.84375 48.1875 33.796875 48.1875 
Q 26.515625 48.1875 22.3125 43.546875 
Q 18.109375 38.921875 18.109375 30.90625 
L 18.109375 0 
L 9.078125 0 
L 9.078125 75.984375 
L 18.109375 75.984375 
L 18.109375 46.1875 
Q 21.34375 51.125 25.703125 53.5625 
Q 30.078125 56 35.796875 56 
Q 45.21875 56 50.046875 50.171875 
Q 54.890625 44.34375 54.890625 33.015625 
" id="BitstreamVeraSans-Roman-68"/>
       <path d="M 9.8125 72.90625 
L 19.671875 72.90625 
L 19.671875 8.296875 
L 55.171875 8.296875 
L 55.171875 0 
L 9.8125 0 
z
" id="BitstreamVeraSans-Roman-4c"/>
       <path d="M 4.890625 31.390625 
L 31.203125 31.390625 
L 31.203125 23.390625 
L 4.890625 23.390625 
z
" id="BitstreamVeraSans-Roman-2d"/>
       <path d="M 3.328125 72.90625 
L 13.28125 72.90625 
L 28.609375 11.28125 
L 43.890625 72.90625 
L 54.984375 72.90625 
L 70.3125 11.28125 
L 85.59375 72.90625 
L 95.609375 72.90625 
L 77.296875 0 
L 64.890625 0 
L 49.515625 63.28125 
L 33.984375 0 
L 21.578125 0 
z
" id="BitstreamVeraSans-Roman-57"/>
      </defs>
      <g transform="translate(464.8975 450.873)rotate(-90.0)scale(0.08 -0.08)">
       <use xlink:href="#BitstreamVeraSans-Roman-57"/>
       <use x="98.845703125" xlink:href="#BitstreamVeraSans-Roman-69"/>
       <use x="126.62890625" xlink:href="#BitstreamVeraSans-Roman-6e"/>
       <use x="190.0078125" xlink:href="#BitstreamVeraSans-Roman-2d"/>
       <use x="226.091796875" xlink:href="#BitstreamVeraSans-Roman-53"/>
       <use x="289.568359375" xlink:href="#BitstreamVeraSans-Roman-74"/>
       <use x="328.77734375" xlink:href="#BitstreamVeraSans-Roman-61"/>
       <use x="390.056640625" xlink:href="#BitstreamVeraSans-Roman-79"/>
       <use x="449.236328125" xlink:href="#BitstreamVeraSans-Roman-20"/>
       <use x="481.0234375" xlink:href="#BitstreamVeraSans-Roman-4c"/>
       <use x="536.720703125" xlink:href="#BitstreamVeraSans-Roman-6f"/>
       <use x="597.90234375" xlink:href="#BitstreamVeraSans-Roman-73"/>
       <use x="650.001953125" xlink:href="#BitstreamVeraSans-Roman-65"/>
       <use x="711.525390625" xlink:href="#BitstreamVeraSans-Roman-2d"/>
       <use x="747.609375" xlink:href="#BitstreamVeraSans-Roman-53"/>
       <use x="811.0859375" xlink:href="#BitstreamVeraSans-Roman-68"/>
       <use x="874.46484375" xlink:href="#BitstreamVeraSans-Roman-69"/>
       <use x="902.248046875" xlink:href="#BitstreamVeraSans-Roman-66"/>
       <use x="937.4375" xlink:href="#BitstreamVeraSans-Roman-74"/>
      </g>
     </g>
    </g>
    <g id="xtick_7">
     <g id="line2d_13">
      <g>
       <use style="stroke:#000000;stroke-width:0.5;" x="537.09" xlink:href="#m68527feafc" y="368.74175"/>
      </g>
     </g>
     <g id="line2d_14">
      <g>
       <use style="stroke:#000000;stroke-width:0.5;" x="537.09" xlink:href="#m05b5031ef8" y="23.14175"/>
      </g>
     </g>
     <g id="text_7">
      <!-- Tit For Tat -->
      <g transform="translate(539.2975 413.75425)rotate(-90.0)scale(0.08 -0.08)">
       <use xlink:href="#BitstreamVeraSans-Roman-54"/>
       <use x="61.037109375" xlink:href="#BitstreamVeraSans-Roman-69"/>
       <use x="88.8203125" xlink:href="#BitstreamVeraSans-Roman-74"/>
       <use x="128.029296875" xlink:href="#BitstreamVeraSans-Roman-20"/>
       <use x="159.81640625" xlink:href="#BitstreamVeraSans-Roman-46"/>
       <use x="217.2890625" xlink:href="#BitstreamVeraSans-Roman-6f"/>
       <use x="278.470703125" xlink:href="#BitstreamVeraSans-Roman-72"/>
       <use x="319.583984375" xlink:href="#BitstreamVeraSans-Roman-20"/>
       <use x="351.37109375" xlink:href="#BitstreamVeraSans-Roman-54"/>
       <use x="412.205078125" xlink:href="#BitstreamVeraSans-Roman-61"/>
       <use x="473.484375" xlink:href="#BitstreamVeraSans-Roman-74"/>
      </g>
     </g>
    </g>
    <g id="xtick_8">
     <g id="line2d_15">
      <g>
       <use style="stroke:#000000;stroke-width:0.5;" x="611.49" xlink:href="#m68527feafc" y="368.74175"/>
      </g>
     </g>
     <g id="line2d_16">
      <g>
       <use style="stroke:#000000;stroke-width:0.5;" x="611.49" xlink:href="#m05b5031ef8" y="23.14175"/>
      </g>
     </g>
     <g id="text_8">
      <!-- Cooperator -->
      <defs>
       <path d="M 64.40625 67.28125 
L 64.40625 56.890625 
Q 59.421875 61.53125 53.78125 63.8125 
Q 48.140625 66.109375 41.796875 66.109375 
Q 29.296875 66.109375 22.65625 58.46875 
Q 16.015625 50.828125 16.015625 36.375 
Q 16.015625 21.96875 22.65625 14.328125 
Q 29.296875 6.6875 41.796875 6.6875 
Q 48.140625 6.6875 53.78125 8.984375 
Q 59.421875 11.28125 64.40625 15.921875 
L 64.40625 5.609375 
Q 59.234375 2.09375 53.4375 0.328125 
Q 47.65625 -1.421875 41.21875 -1.421875 
Q 24.65625 -1.421875 15.125 8.703125 
Q 5.609375 18.84375 5.609375 36.375 
Q 5.609375 53.953125 15.125 64.078125 
Q 24.65625 74.21875 41.21875 74.21875 
Q 47.75 74.21875 53.53125 72.484375 
Q 59.328125 70.75 64.40625 67.28125 
" id="BitstreamVeraSans-Roman-43"/>
      </defs>
      <g transform="translate(613.6975 417.6305)rotate(-90.0)scale(0.08 -0.08)">
       <use xlink:href="#BitstreamVeraSans-Roman-43"/>
       <use x="69.82421875" xlink:href="#BitstreamVeraSans-Roman-6f"/>
       <use x="131.005859375" xlink:href="#BitstreamVeraSans-Roman-6f"/>
       <use x="192.1875" xlink:href="#BitstreamVeraSans-Roman-70"/>
       <use x="255.6640625" xlink:href="#BitstreamVeraSans-Roman-65"/>
       <use x="317.1875" xlink:href="#BitstreamVeraSans-Roman-72"/>
       <use x="358.30078125" xlink:href="#BitstreamVeraSans-Roman-61"/>
       <use x="419.580078125" xlink:href="#BitstreamVeraSans-Roman-74"/>
       <use x="458.7890625" xlink:href="#BitstreamVeraSans-Roman-6f"/>
       <use x="519.970703125" xlink:href="#BitstreamVeraSans-Roman-72"/>
      </g>
     </g>
    </g>
   </g>
   <g id="matplotlib.axis_2">
    <g id="ytick_1">
     <g id="line2d_17">
      <defs>
       <path d="M 0 0 
L 4 0 
" id="m3d79b4a4b1" style="stroke:#000000;stroke-width:0.5;"/>
      </defs>
      <g>
       <use style="stroke:#000000;stroke-width:0.5;" x="16.29" xlink:href="#m3d79b4a4b1" y="344.056035714"/>
      </g>
     </g>
     <g id="line2d_18">
      <defs>
       <path d="M 0 0 
L -4 0 
" id="m2be588faaf" style="stroke:#000000;stroke-width:0.5;"/>
      </defs>
      <g>
       <use style="stroke:#000000;stroke-width:0.5;" x="685.89" xlink:href="#m2be588faaf" y="344.056035714"/>
      </g>
     </g>
     <g id="text_9">
      <!-- 0 -->
      <defs>
       <path d="M 31.78125 66.40625 
Q 24.171875 66.40625 20.328125 58.90625 
Q 16.5 51.421875 16.5 36.375 
Q 16.5 21.390625 20.328125 13.890625 
Q 24.171875 6.390625 31.78125 6.390625 
Q 39.453125 6.390625 43.28125 13.890625 
Q 47.125 21.390625 47.125 36.375 
Q 47.125 51.421875 43.28125 58.90625 
Q 39.453125 66.40625 31.78125 66.40625 
M 31.78125 74.21875 
Q 44.046875 74.21875 50.515625 64.515625 
Q 56.984375 54.828125 56.984375 36.375 
Q 56.984375 17.96875 50.515625 8.265625 
Q 44.046875 -1.421875 31.78125 -1.421875 
Q 19.53125 -1.421875 13.0625 8.265625 
Q 6.59375 17.96875 6.59375 36.375 
Q 6.59375 54.828125 13.0625 64.515625 
Q 19.53125 74.21875 31.78125 74.21875 
" id="BitstreamVeraSans-Roman-30"/>
      </defs>
      <g transform="translate(7.2 346.263535714)scale(0.08 -0.08)">
       <use xlink:href="#BitstreamVeraSans-Roman-30"/>
      </g>
     </g>
    </g>
    <g id="ytick_2">
     <g id="line2d_19">
      <g>
       <use style="stroke:#000000;stroke-width:0.5;" x="16.29" xlink:href="#m3d79b4a4b1" y="294.684607143"/>
      </g>
     </g>
     <g id="line2d_20">
      <g>
       <use style="stroke:#000000;stroke-width:0.5;" x="685.89" xlink:href="#m2be588faaf" y="294.684607143"/>
      </g>
     </g>
     <g id="text_10">
      <!-- 1 -->
      <defs>
       <path d="M 12.40625 8.296875 
L 28.515625 8.296875 
L 28.515625 63.921875 
L 10.984375 60.40625 
L 10.984375 69.390625 
L 28.421875 72.90625 
L 38.28125 72.90625 
L 38.28125 8.296875 
L 54.390625 8.296875 
L 54.390625 0 
L 12.40625 0 
z
" id="BitstreamVeraSans-Roman-31"/>
      </defs>
      <g transform="translate(7.2 296.892107143)scale(0.08 -0.08)">
       <use xlink:href="#BitstreamVeraSans-Roman-31"/>
      </g>
     </g>
    </g>
    <g id="ytick_3">
     <g id="line2d_21">
      <g>
       <use style="stroke:#000000;stroke-width:0.5;" x="16.29" xlink:href="#m3d79b4a4b1" y="245.313178571"/>
      </g>
     </g>
     <g id="line2d_22">
      <g>
       <use style="stroke:#000000;stroke-width:0.5;" x="685.89" xlink:href="#m2be588faaf" y="245.313178571"/>
      </g>
     </g>
     <g id="text_11">
      <!-- 2 -->
      <defs>
       <path d="M 19.1875 8.296875 
L 53.609375 8.296875 
L 53.609375 0 
L 7.328125 0 
L 7.328125 8.296875 
Q 12.9375 14.109375 22.625 23.890625 
Q 32.328125 33.6875 34.8125 36.53125 
Q 39.546875 41.84375 41.421875 45.53125 
Q 43.3125 49.21875 43.3125 52.78125 
Q 43.3125 58.59375 39.234375 62.25 
Q 35.15625 65.921875 28.609375 65.921875 
Q 23.96875 65.921875 18.8125 64.3125 
Q 13.671875 62.703125 7.8125 59.421875 
L 7.8125 69.390625 
Q 13.765625 71.78125 18.9375 73 
Q 24.125 74.21875 28.421875 74.21875 
Q 39.75 74.21875 46.484375 68.546875 
Q 53.21875 62.890625 53.21875 53.421875 
Q 53.21875 48.921875 51.53125 44.890625 
Q 49.859375 40.875 45.40625 35.40625 
Q 44.1875 33.984375 37.640625 27.21875 
Q 31.109375 20.453125 19.1875 8.296875 
" id="BitstreamVeraSans-Roman-32"/>
      </defs>
      <g transform="translate(7.2 247.520678571)scale(0.08 -0.08)">
       <use xlink:href="#BitstreamVeraSans-Roman-32"/>
      </g>
     </g>
    </g>
    <g id="ytick_4">
     <g id="line2d_23">
      <g>
       <use style="stroke:#000000;stroke-width:0.5;" x="16.29" xlink:href="#m3d79b4a4b1" y="195.94175"/>
      </g>
     </g>
     <g id="line2d_24">
      <g>
       <use style="stroke:#000000;stroke-width:0.5;" x="685.89" xlink:href="#m2be588faaf" y="195.94175"/>
      </g>
     </g>
     <g id="text_12">
      <!-- 3 -->
      <defs>
       <path d="M 40.578125 39.3125 
Q 47.65625 37.796875 51.625 33 
Q 55.609375 28.21875 55.609375 21.1875 
Q 55.609375 10.40625 48.1875 4.484375 
Q 40.765625 -1.421875 27.09375 -1.421875 
Q 22.515625 -1.421875 17.65625 -0.515625 
Q 12.796875 0.390625 7.625 2.203125 
L 7.625 11.71875 
Q 11.71875 9.328125 16.59375 8.109375 
Q 21.484375 6.890625 26.8125 6.890625 
Q 36.078125 6.890625 40.9375 10.546875 
Q 45.796875 14.203125 45.796875 21.1875 
Q 45.796875 27.640625 41.28125 31.265625 
Q 36.765625 34.90625 28.71875 34.90625 
L 20.21875 34.90625 
L 20.21875 43.015625 
L 29.109375 43.015625 
Q 36.375 43.015625 40.234375 45.921875 
Q 44.09375 48.828125 44.09375 54.296875 
Q 44.09375 59.90625 40.109375 62.90625 
Q 36.140625 65.921875 28.71875 65.921875 
Q 24.65625 65.921875 20.015625 65.03125 
Q 15.375 64.15625 9.8125 62.3125 
L 9.8125 71.09375 
Q 15.4375 72.65625 20.34375 73.4375 
Q 25.25 74.21875 29.59375 74.21875 
Q 40.828125 74.21875 47.359375 69.109375 
Q 53.90625 64.015625 53.90625 55.328125 
Q 53.90625 49.265625 50.4375 45.09375 
Q 46.96875 40.921875 40.578125 39.3125 
" id="BitstreamVeraSans-Roman-33"/>
      </defs>
      <g transform="translate(7.2 198.14925)scale(0.08 -0.08)">
       <use xlink:href="#BitstreamVeraSans-Roman-33"/>
      </g>
     </g>
    </g>
    <g id="ytick_5">
     <g id="line2d_25">
      <g>
       <use style="stroke:#000000;stroke-width:0.5;" x="16.29" xlink:href="#m3d79b4a4b1" y="146.570321429"/>
      </g>
     </g>
     <g id="line2d_26">
      <g>
       <use style="stroke:#000000;stroke-width:0.5;" x="685.89" xlink:href="#m2be588faaf" y="146.570321429"/>
      </g>
     </g>
     <g id="text_13">
      <!-- 4 -->
      <defs>
       <path d="M 37.796875 64.3125 
L 12.890625 25.390625 
L 37.796875 25.390625 
z
M 35.203125 72.90625 
L 47.609375 72.90625 
L 47.609375 25.390625 
L 58.015625 25.390625 
L 58.015625 17.1875 
L 47.609375 17.1875 
L 47.609375 0 
L 37.796875 0 
L 37.796875 17.1875 
L 4.890625 17.1875 
L 4.890625 26.703125 
z
" id="BitstreamVeraSans-Roman-34"/>
      </defs>
      <g transform="translate(7.2 148.777821429)scale(0.08 -0.08)">
       <use xlink:href="#BitstreamVeraSans-Roman-34"/>
      </g>
     </g>
    </g>
    <g id="ytick_6">
     <g id="line2d_27">
      <g>
       <use style="stroke:#000000;stroke-width:0.5;" x="16.29" xlink:href="#m3d79b4a4b1" y="97.1988928571"/>
      </g>
     </g>
     <g id="line2d_28">
      <g>
       <use style="stroke:#000000;stroke-width:0.5;" x="685.89" xlink:href="#m2be588faaf" y="97.1988928571"/>
      </g>
     </g>
     <g id="text_14">
      <!-- 5 -->
      <defs>
       <path d="M 10.796875 72.90625 
L 49.515625 72.90625 
L 49.515625 64.59375 
L 19.828125 64.59375 
L 19.828125 46.734375 
Q 21.96875 47.46875 24.109375 47.828125 
Q 26.265625 48.1875 28.421875 48.1875 
Q 40.625 48.1875 47.75 41.5 
Q 54.890625 34.8125 54.890625 23.390625 
Q 54.890625 11.625 47.5625 5.09375 
Q 40.234375 -1.421875 26.90625 -1.421875 
Q 22.3125 -1.421875 17.546875 -0.640625 
Q 12.796875 0.140625 7.71875 1.703125 
L 7.71875 11.625 
Q 12.109375 9.234375 16.796875 8.0625 
Q 21.484375 6.890625 26.703125 6.890625 
Q 35.15625 6.890625 40.078125 11.328125 
Q 45.015625 15.765625 45.015625 23.390625 
Q 45.015625 31 40.078125 35.4375 
Q 35.15625 39.890625 26.703125 39.890625 
Q 22.75 39.890625 18.8125 39.015625 
Q 14.890625 38.140625 10.796875 36.28125 
z
" id="BitstreamVeraSans-Roman-35"/>
      </defs>
      <g transform="translate(7.2 99.4063928571)scale(0.08 -0.08)">
       <use xlink:href="#BitstreamVeraSans-Roman-35"/>
      </g>
     </g>
    </g>
    <g id="ytick_7">
     <g id="line2d_29">
      <g>
       <use style="stroke:#000000;stroke-width:0.5;" x="16.29" xlink:href="#m3d79b4a4b1" y="47.8274642857"/>
      </g>
     </g>
     <g id="line2d_30">
      <g>
       <use style="stroke:#000000;stroke-width:0.5;" x="685.89" xlink:href="#m2be588faaf" y="47.8274642857"/>
      </g>
     </g>
     <g id="text_15">
      <!-- 6 -->
      <defs>
       <path d="M 33.015625 40.375 
Q 26.375 40.375 22.484375 35.828125 
Q 18.609375 31.296875 18.609375 23.390625 
Q 18.609375 15.53125 22.484375 10.953125 
Q 26.375 6.390625 33.015625 6.390625 
Q 39.65625 6.390625 43.53125 10.953125 
Q 47.40625 15.53125 47.40625 23.390625 
Q 47.40625 31.296875 43.53125 35.828125 
Q 39.65625 40.375 33.015625 40.375 
M 52.59375 71.296875 
L 52.59375 62.3125 
Q 48.875 64.0625 45.09375 64.984375 
Q 41.3125 65.921875 37.59375 65.921875 
Q 27.828125 65.921875 22.671875 59.328125 
Q 17.53125 52.734375 16.796875 39.40625 
Q 19.671875 43.65625 24.015625 45.921875 
Q 28.375 48.1875 33.59375 48.1875 
Q 44.578125 48.1875 50.953125 41.515625 
Q 57.328125 34.859375 57.328125 23.390625 
Q 57.328125 12.15625 50.6875 5.359375 
Q 44.046875 -1.421875 33.015625 -1.421875 
Q 20.359375 -1.421875 13.671875 8.265625 
Q 6.984375 17.96875 6.984375 36.375 
Q 6.984375 53.65625 15.1875 63.9375 
Q 23.390625 74.21875 37.203125 74.21875 
Q 40.921875 74.21875 44.703125 73.484375 
Q 48.484375 72.75 52.59375 71.296875 
" id="BitstreamVeraSans-Roman-36"/>
      </defs>
      <g transform="translate(7.2 50.0349642857)scale(0.08 -0.08)">
       <use xlink:href="#BitstreamVeraSans-Roman-36"/>
      </g>
     </g>
    </g>
   </g>
   <g id="text_16">
    <!-- Wins. Prob end: 0.1, Repetitions: 100, Strategies: 8. -->
    <defs>
     <path d="M 31.78125 34.625 
Q 24.75 34.625 20.71875 30.859375 
Q 16.703125 27.09375 16.703125 20.515625 
Q 16.703125 13.921875 20.71875 10.15625 
Q 24.75 6.390625 31.78125 6.390625 
Q 38.8125 6.390625 42.859375 10.171875 
Q 46.921875 13.96875 46.921875 20.515625 
Q 46.921875 27.09375 42.890625 30.859375 
Q 38.875 34.625 31.78125 34.625 
M 21.921875 38.8125 
Q 15.578125 40.375 12.03125 44.71875 
Q 8.5 49.078125 8.5 55.328125 
Q 8.5 64.0625 14.71875 69.140625 
Q 20.953125 74.21875 31.78125 74.21875 
Q 42.671875 74.21875 48.875 69.140625 
Q 55.078125 64.0625 55.078125 55.328125 
Q 55.078125 49.078125 51.53125 44.71875 
Q 48 40.375 41.703125 38.8125 
Q 48.828125 37.15625 52.796875 32.3125 
Q 56.78125 27.484375 56.78125 20.515625 
Q 56.78125 9.90625 50.3125 4.234375 
Q 43.84375 -1.421875 31.78125 -1.421875 
Q 19.734375 -1.421875 13.25 4.234375 
Q 6.78125 9.90625 6.78125 20.515625 
Q 6.78125 27.484375 10.78125 32.3125 
Q 14.796875 37.15625 21.921875 38.8125 
M 18.3125 54.390625 
Q 18.3125 48.734375 21.84375 45.5625 
Q 25.390625 42.390625 31.78125 42.390625 
Q 38.140625 42.390625 41.71875 45.5625 
Q 45.3125 48.734375 45.3125 54.390625 
Q 45.3125 60.0625 41.71875 63.234375 
Q 38.140625 66.40625 31.78125 66.40625 
Q 25.390625 66.40625 21.84375 63.234375 
Q 18.3125 60.0625 18.3125 54.390625 
" id="BitstreamVeraSans-Roman-38"/>
     <path d="M 44.390625 34.1875 
Q 47.5625 33.109375 50.5625 29.59375 
Q 53.5625 26.078125 56.59375 19.921875 
L 66.609375 0 
L 56 0 
L 46.6875 18.703125 
Q 43.0625 26.03125 39.671875 28.421875 
Q 36.28125 30.8125 30.421875 30.8125 
L 19.671875 30.8125 
L 19.671875 0 
L 9.8125 0 
L 9.8125 72.90625 
L 32.078125 72.90625 
Q 44.578125 72.90625 50.734375 67.671875 
Q 56.890625 62.453125 56.890625 51.90625 
Q 56.890625 45.015625 53.6875 40.46875 
Q 50.484375 35.9375 44.390625 34.1875 
M 19.671875 64.796875 
L 19.671875 38.921875 
L 32.078125 38.921875 
Q 39.203125 38.921875 42.84375 42.21875 
Q 46.484375 45.515625 46.484375 51.90625 
Q 46.484375 58.296875 42.84375 61.546875 
Q 39.203125 64.796875 32.078125 64.796875 
z
" id="BitstreamVeraSans-Roman-52"/>
     <path d="M 19.671875 64.796875 
L 19.671875 37.40625 
L 32.078125 37.40625 
Q 38.96875 37.40625 42.71875 40.96875 
Q 46.484375 44.53125 46.484375 51.125 
Q 46.484375 57.671875 42.71875 61.234375 
Q 38.96875 64.796875 32.078125 64.796875 
z
M 9.8125 72.90625 
L 32.078125 72.90625 
Q 44.34375 72.90625 50.609375 67.359375 
Q 56.890625 61.8125 56.890625 51.125 
Q 56.890625 40.328125 50.609375 34.8125 
Q 44.34375 29.296875 32.078125 29.296875 
L 19.671875 29.296875 
L 19.671875 0 
L 9.8125 0 
z
" id="BitstreamVeraSans-Roman-50"/>
     <path d="M 11.71875 12.40625 
L 22.015625 12.40625 
L 22.015625 4 
L 14.015625 -11.625 
L 7.71875 -11.625 
L 11.71875 4 
z
" id="BitstreamVeraSans-Roman-2c"/>
     <path d="M 11.71875 12.40625 
L 22.015625 12.40625 
L 22.015625 0 
L 11.71875 0 
z
M 11.71875 51.703125 
L 22.015625 51.703125 
L 22.015625 39.3125 
L 11.71875 39.3125 
z
" id="BitstreamVeraSans-Roman-3a"/>
     <path d="M 10.6875 12.40625 
L 21 12.40625 
L 21 0 
L 10.6875 0 
z
" id="BitstreamVeraSans-Roman-2e"/>
     <path d="M 45.40625 46.390625 
L 45.40625 75.984375 
L 54.390625 75.984375 
L 54.390625 0 
L 45.40625 0 
L 45.40625 8.203125 
Q 42.578125 3.328125 38.25 0.953125 
Q 33.9375 -1.421875 27.875 -1.421875 
Q 17.96875 -1.421875 11.734375 6.484375 
Q 5.515625 14.40625 5.515625 27.296875 
Q 5.515625 40.1875 11.734375 48.09375 
Q 17.96875 56 27.875 56 
Q 33.9375 56 38.25 53.625 
Q 42.578125 51.265625 45.40625 46.390625 
M 14.796875 27.296875 
Q 14.796875 17.390625 18.875 11.75 
Q 22.953125 6.109375 30.078125 6.109375 
Q 37.203125 6.109375 41.296875 11.75 
Q 45.40625 17.390625 45.40625 27.296875 
Q 45.40625 37.203125 41.296875 42.84375 
Q 37.203125 48.484375 30.078125 48.484375 
Q 22.953125 48.484375 18.875 42.84375 
Q 14.796875 37.203125 14.796875 27.296875 
" id="BitstreamVeraSans-Roman-64"/>
     <path d="M 45.40625 27.984375 
Q 45.40625 37.75 41.375 43.109375 
Q 37.359375 48.484375 30.078125 48.484375 
Q 22.859375 48.484375 18.828125 43.109375 
Q 14.796875 37.75 14.796875 27.984375 
Q 14.796875 18.265625 18.828125 12.890625 
Q 22.859375 7.515625 30.078125 7.515625 
Q 37.359375 7.515625 41.375 12.890625 
Q 45.40625 18.265625 45.40625 27.984375 
M 54.390625 6.78125 
Q 54.390625 -7.171875 48.1875 -13.984375 
Q 42 -20.796875 29.203125 -20.796875 
Q 24.46875 -20.796875 20.265625 -20.09375 
Q 16.0625 -19.390625 12.109375 -17.921875 
L 12.109375 -9.1875 
Q 16.0625 -11.328125 19.921875 -12.34375 
Q 23.78125 -13.375 27.78125 -13.375 
Q 36.625 -13.375 41.015625 -8.765625 
Q 45.40625 -4.15625 45.40625 5.171875 
L 45.40625 9.625 
Q 42.625 4.78125 38.28125 2.390625 
Q 33.9375 0 27.875 0 
Q 17.828125 0 11.671875 7.65625 
Q 5.515625 15.328125 5.515625 27.984375 
Q 5.515625 40.671875 11.671875 48.328125 
Q 17.828125 56 27.875 56 
Q 33.9375 56 38.28125 53.609375 
Q 42.625 51.21875 45.40625 46.390625 
L 45.40625 54.6875 
L 54.390625 54.6875 
z
" id="BitstreamVeraSans-Roman-67"/>
     <path d="M 48.6875 27.296875 
Q 48.6875 37.203125 44.609375 42.84375 
Q 40.53125 48.484375 33.40625 48.484375 
Q 26.265625 48.484375 22.1875 42.84375 
Q 18.109375 37.203125 18.109375 27.296875 
Q 18.109375 17.390625 22.1875 11.75 
Q 26.265625 6.109375 33.40625 6.109375 
Q 40.53125 6.109375 44.609375 11.75 
Q 48.6875 17.390625 48.6875 27.296875 
M 18.109375 46.390625 
Q 20.953125 51.265625 25.265625 53.625 
Q 29.59375 56 35.59375 56 
Q 45.5625 56 51.78125 48.09375 
Q 58.015625 40.1875 58.015625 27.296875 
Q 58.015625 14.40625 51.78125 6.484375 
Q 45.5625 -1.421875 35.59375 -1.421875 
Q 29.59375 -1.421875 25.265625 0.953125 
Q 20.953125 3.328125 18.109375 8.203125 
L 18.109375 0 
L 9.078125 0 
L 9.078125 75.984375 
L 18.109375 75.984375 
z
" id="BitstreamVeraSans-Roman-62"/>
    </defs>
    <g transform="translate(164.034 18.14175)scale(0.144 -0.144)">
     <use xlink:href="#BitstreamVeraSans-Roman-57"/>
     <use x="98.845703125" xlink:href="#BitstreamVeraSans-Roman-69"/>
     <use x="126.62890625" xlink:href="#BitstreamVeraSans-Roman-6e"/>
     <use x="190.0078125" xlink:href="#BitstreamVeraSans-Roman-73"/>
     <use x="242.107421875" xlink:href="#BitstreamVeraSans-Roman-2e"/>
     <use x="273.89453125" xlink:href="#BitstreamVeraSans-Roman-20"/>
     <use x="305.681640625" xlink:href="#BitstreamVeraSans-Roman-50"/>
     <use x="365.96875" xlink:href="#BitstreamVeraSans-Roman-72"/>
     <use x="407.05078125" xlink:href="#BitstreamVeraSans-Roman-6f"/>
     <use x="468.232421875" xlink:href="#BitstreamVeraSans-Roman-62"/>
     <use x="531.708984375" xlink:href="#BitstreamVeraSans-Roman-20"/>
     <use x="563.49609375" xlink:href="#BitstreamVeraSans-Roman-65"/>
     <use x="625.01953125" xlink:href="#BitstreamVeraSans-Roman-6e"/>
     <use x="688.3984375" xlink:href="#BitstreamVeraSans-Roman-64"/>
     <use x="751.875" xlink:href="#BitstreamVeraSans-Roman-3a"/>
     <use x="785.56640625" xlink:href="#BitstreamVeraSans-Roman-20"/>
     <use x="817.353515625" xlink:href="#BitstreamVeraSans-Roman-30"/>
     <use x="880.9765625" xlink:href="#BitstreamVeraSans-Roman-2e"/>
     <use x="912.763671875" xlink:href="#BitstreamVeraSans-Roman-31"/>
     <use x="976.38671875" xlink:href="#BitstreamVeraSans-Roman-2c"/>
     <use x="1008.17382812" xlink:href="#BitstreamVeraSans-Roman-20"/>
     <use x="1039.9609375" xlink:href="#BitstreamVeraSans-Roman-52"/>
     <use x="1109.38085938" xlink:href="#BitstreamVeraSans-Roman-65"/>
     <use x="1170.90429688" xlink:href="#BitstreamVeraSans-Roman-70"/>
     <use x="1234.38085938" xlink:href="#BitstreamVeraSans-Roman-65"/>
     <use x="1295.90429688" xlink:href="#BitstreamVeraSans-Roman-74"/>
     <use x="1335.11328125" xlink:href="#BitstreamVeraSans-Roman-69"/>
     <use x="1362.89648438" xlink:href="#BitstreamVeraSans-Roman-74"/>
     <use x="1402.10546875" xlink:href="#BitstreamVeraSans-Roman-69"/>
     <use x="1429.88867188" xlink:href="#BitstreamVeraSans-Roman-6f"/>
     <use x="1491.0703125" xlink:href="#BitstreamVeraSans-Roman-6e"/>
     <use x="1554.44921875" xlink:href="#BitstreamVeraSans-Roman-73"/>
     <use x="1606.54882812" xlink:href="#BitstreamVeraSans-Roman-3a"/>
     <use x="1640.24023438" xlink:href="#BitstreamVeraSans-Roman-20"/>
     <use x="1672.02734375" xlink:href="#BitstreamVeraSans-Roman-31"/>
     <use x="1735.65039062" xlink:href="#BitstreamVeraSans-Roman-30"/>
     <use x="1799.2734375" xlink:href="#BitstreamVeraSans-Roman-30"/>
     <use x="1862.89648438" xlink:href="#BitstreamVeraSans-Roman-2c"/>
     <use x="1894.68359375" xlink:href="#BitstreamVeraSans-Roman-20"/>
     <use x="1926.47070312" xlink:href="#BitstreamVeraSans-Roman-53"/>
     <use x="1989.94726562" xlink:href="#BitstreamVeraSans-Roman-74"/>
     <use x="2029.15625" xlink:href="#BitstreamVeraSans-Roman-72"/>
     <use x="2070.26953125" xlink:href="#BitstreamVeraSans-Roman-61"/>
     <use x="2131.54882812" xlink:href="#BitstreamVeraSans-Roman-74"/>
     <use x="2170.7578125" xlink:href="#BitstreamVeraSans-Roman-65"/>
     <use x="2232.28125" xlink:href="#BitstreamVeraSans-Roman-67"/>
     <use x="2295.7578125" xlink:href="#BitstreamVeraSans-Roman-69"/>
     <use x="2323.54101562" xlink:href="#BitstreamVeraSans-Roman-65"/>
     <use x="2385.06445312" xlink:href="#BitstreamVeraSans-Roman-73"/>
     <use x="2437.1640625" xlink:href="#BitstreamVeraSans-Roman-3a"/>
     <use x="2470.85546875" xlink:href="#BitstreamVeraSans-Roman-20"/>
     <use x="2502.64257812" xlink:href="#BitstreamVeraSans-Roman-38"/>
     <use x="2566.265625" xlink:href="#BitstreamVeraSans-Roman-2e"/>
    </g>
   </g>
  </g>
 </g>
 <defs>
  <clipPath id="pb4966f9176">
   <rect height="345.6" width="669.6" x="16.29" y="23.14175"/>
  </clipPath>
 </defs>
</svg>
