<?xml version="1.0" encoding="utf-8" standalone="no"?>
<!DOCTYPE svg PUBLIC "-//W3C//DTD SVG 1.1//EN"
  "http://www.w3.org/Graphics/SVG/1.1/DTD/svg11.dtd">
<!-- Created with matplotlib (http://matplotlib.org/) -->
<svg height="465pt" version="1.1" viewBox="0 0 698 465" width="698pt" xmlns="http://www.w3.org/2000/svg" xmlns:xlink="http://www.w3.org/1999/xlink">
 <defs>
  <style type="text/css">
*{stroke-linecap:butt;stroke-linejoin:round;stroke-miterlimit:100000;}
  </style>
 </defs>
 <g id="figure_1">
  <g id="patch_1">
   <path d="M 0 465.868 
L 698.18 465.868 
L 698.18 0 
L 0 0 
z
" style="fill:#ffffff;"/>
  </g>
  <g id="axes_1">
   <g id="patch_2">
    <path d="M 21.38 368.74175 
L 690.98 368.74175 
L 690.98 23.14175 
L 21.38 23.14175 
z
" style="fill:#ffffff;"/>
   </g>
   <g id="PolyCollection_1">
    <defs>
     <path d="M 109.268605 -102.88625 
L 82.291395 -102.88625 
L 81.74967 -104.457159 
L 81.227011 -106.028068 
L 80.726481 -107.598977 
L 80.250972 -109.169886 
L 79.80317 -110.740795 
L 79.385523 -112.311705 
L 79.00021 -113.882614 
L 78.649121 -115.453523 
L 78.333832 -117.024432 
L 78.055595 -118.595341 
L 77.815325 -120.16625 
L 77.613599 -121.737159 
L 77.450654 -123.308068 
L 77.326394 -124.878977 
L 77.240399 -126.449886 
L 77.191942 -128.020795 
L 77.18 -129.591705 
L 77.203282 -131.162614 
L 77.260245 -132.733523 
L 77.349127 -134.304432 
L 77.467966 -135.875341 
L 77.614632 -137.44625 
L 77.786854 -139.017159 
L 77.982252 -140.588068 
L 78.19836 -142.158977 
L 78.432659 -143.729886 
L 78.682606 -145.300795 
L 78.945658 -146.871705 
L 79.219301 -148.442614 
L 79.501077 -150.013523 
L 79.788609 -151.584432 
L 80.079623 -153.155341 
L 80.371975 -154.72625 
L 80.663667 -156.297159 
L 80.952873 -157.868068 
L 81.237952 -159.438977 
L 81.517465 -161.009886 
L 81.790192 -162.580795 
L 82.055136 -164.151705 
L 82.311537 -165.722614 
L 82.558871 -167.293523 
L 82.796854 -168.864432 
L 83.025435 -170.435341 
L 83.244792 -172.00625 
L 83.455318 -173.577159 
L 83.657608 -175.148068 
L 83.852438 -176.718977 
L 84.040741 -178.289886 
L 84.223586 -179.860795 
L 84.402144 -181.431705 
L 84.577661 -183.002614 
L 84.751423 -184.573523 
L 84.924727 -186.144432 
L 85.098845 -187.715341 
L 85.274994 -189.28625 
L 85.454304 -190.857159 
L 85.637793 -192.428068 
L 85.826339 -193.998977 
L 86.020661 -195.569886 
L 86.221301 -197.140795 
L 86.428612 -198.711705 
L 86.642747 -200.282614 
L 86.863662 -201.853523 
L 87.091114 -203.424432 
L 87.324668 -204.995341 
L 87.563709 -206.56625 
L 87.807458 -208.137159 
L 88.054993 -209.708068 
L 88.305265 -211.278977 
L 88.557131 -212.849886 
L 88.809376 -214.420795 
L 89.060743 -215.991705 
L 89.309959 -217.562614 
L 89.555765 -219.133523 
L 89.796944 -220.704432 
L 90.032344 -222.275341 
L 90.260904 -223.84625 
L 90.481672 -225.417159 
L 90.693825 -226.988068 
L 90.896683 -228.558977 
L 91.089718 -230.129886 
L 91.272564 -231.700795 
L 91.445014 -233.271705 
L 91.607027 -234.842614 
L 91.758717 -236.413523 
L 91.900349 -237.984432 
L 92.032326 -239.555341 
L 92.155177 -241.12625 
L 92.269538 -242.697159 
L 92.376138 -244.268068 
L 92.475775 -245.838977 
L 92.569302 -247.409886 
L 92.657599 -248.980795 
L 92.741558 -250.551705 
L 92.822063 -252.122614 
L 92.89997 -253.693523 
L 92.976087 -255.264432 
L 93.051166 -256.835341 
L 93.125884 -258.40625 
L 98.434116 -258.40625 
L 98.434116 -258.40625 
L 98.508834 -256.835341 
L 98.583913 -255.264432 
L 98.66003 -253.693523 
L 98.737937 -252.122614 
L 98.818442 -250.551705 
L 98.902401 -248.980795 
L 98.990698 -247.409886 
L 99.084225 -245.838977 
L 99.183862 -244.268068 
L 99.290462 -242.697159 
L 99.404823 -241.12625 
L 99.527674 -239.555341 
L 99.659651 -237.984432 
L 99.801283 -236.413523 
L 99.952973 -234.842614 
L 100.114986 -233.271705 
L 100.287436 -231.700795 
L 100.470282 -230.129886 
L 100.663317 -228.558977 
L 100.866175 -226.988068 
L 101.078328 -225.417159 
L 101.299096 -223.84625 
L 101.527656 -222.275341 
L 101.763056 -220.704432 
L 102.004235 -219.133523 
L 102.250041 -217.562614 
L 102.499257 -215.991705 
L 102.750624 -214.420795 
L 103.002869 -212.849886 
L 103.254735 -211.278977 
L 103.505007 -209.708068 
L 103.752542 -208.137159 
L 103.996291 -206.56625 
L 104.235332 -204.995341 
L 104.468886 -203.424432 
L 104.696338 -201.853523 
L 104.917253 -200.282614 
L 105.131388 -198.711705 
L 105.338699 -197.140795 
L 105.539339 -195.569886 
L 105.733661 -193.998977 
L 105.922207 -192.428068 
L 106.105696 -190.857159 
L 106.285006 -189.28625 
L 106.461155 -187.715341 
L 106.635273 -186.144432 
L 106.808577 -184.573523 
L 106.982339 -183.002614 
L 107.157856 -181.431705 
L 107.336414 -179.860795 
L 107.519259 -178.289886 
L 107.707562 -176.718977 
L 107.902392 -175.148068 
L 108.104682 -173.577159 
L 108.315208 -172.00625 
L 108.534565 -170.435341 
L 108.763146 -168.864432 
L 109.001129 -167.293523 
L 109.248463 -165.722614 
L 109.504864 -164.151705 
L 109.769808 -162.580795 
L 110.042535 -161.009886 
L 110.322048 -159.438977 
L 110.607127 -157.868068 
L 110.896333 -156.297159 
L 111.188025 -154.72625 
L 111.480377 -153.155341 
L 111.771391 -151.584432 
L 112.058923 -150.013523 
L 112.340699 -148.442614 
L 112.614342 -146.871705 
L 112.877394 -145.300795 
L 113.127341 -143.729886 
L 113.36164 -142.158977 
L 113.577748 -140.588068 
L 113.773146 -139.017159 
L 113.945368 -137.44625 
L 114.092034 -135.875341 
L 114.210873 -134.304432 
L 114.299755 -132.733523 
L 114.356718 -131.162614 
L 114.38 -129.591705 
L 114.368058 -128.020795 
L 114.319601 -126.449886 
L 114.233606 -124.878977 
L 114.109346 -123.308068 
L 113.946401 -121.737159 
L 113.744675 -120.16625 
L 113.504405 -118.595341 
L 113.226168 -117.024432 
L 112.910879 -115.453523 
L 112.55979 -113.882614 
L 112.174477 -112.311705 
L 111.75683 -110.740795 
L 111.309028 -109.169886 
L 110.833519 -107.598977 
L 110.332989 -106.028068 
L 109.81033 -104.457159 
L 109.268605 -102.88625 
z
" id="m34abbb2b69" style="stroke:#000000;stroke-opacity:0.3;"/>
    </defs>
    <g clip-path="url(#p307f38016e)">
     <use style="fill:#bfbf00;fill-opacity:0.3;stroke:#000000;stroke-opacity:0.3;" x="0.0" xlink:href="#m34abbb2b69" y="465.868"/>
    </g>
   </g>
   <g id="PolyCollection_2">
    <defs>
     <path d="M 185.806081 -102.88625 
L 154.553919 -102.88625 
L 154.102466 -104.631705 
L 153.682134 -106.377159 
L 153.295387 -108.122614 
L 152.944412 -109.868068 
L 152.631094 -111.613523 
L 152.356994 -113.358977 
L 152.123336 -115.104432 
L 151.930994 -116.849886 
L 151.780491 -118.595341 
L 151.671998 -120.340795 
L 151.605339 -122.08625 
L 151.58 -123.831705 
L 151.595148 -125.577159 
L 151.649648 -127.322614 
L 151.742083 -129.068068 
L 151.870785 -130.813523 
L 152.033859 -132.558977 
L 152.229215 -134.304432 
L 152.454602 -136.049886 
L 152.707636 -137.795341 
L 152.985835 -139.540795 
L 153.286652 -141.28625 
L 153.607505 -143.031705 
L 153.945809 -144.777159 
L 154.299005 -146.522614 
L 154.664582 -148.268068 
L 155.040109 -150.013523 
L 155.423249 -151.758977 
L 155.811782 -153.504432 
L 156.203623 -155.249886 
L 156.596827 -156.995341 
L 156.989609 -158.740795 
L 157.380344 -160.48625 
L 157.767574 -162.231705 
L 158.150007 -163.977159 
L 158.526519 -165.722614 
L 158.896146 -167.468068 
L 159.258082 -169.213523 
L 159.611666 -170.958977 
L 159.956377 -172.704432 
L 160.29182 -174.449886 
L 160.617714 -176.195341 
L 160.933877 -177.940795 
L 161.240218 -179.68625 
L 161.536718 -181.431705 
L 161.823417 -183.177159 
L 162.100406 -184.922614 
L 162.367807 -186.668068 
L 162.625771 -188.413523 
L 162.874461 -190.158977 
L 163.114047 -191.904432 
L 163.344697 -193.649886 
L 163.566576 -195.395341 
L 163.779836 -197.140795 
L 163.984619 -198.88625 
L 164.181053 -200.631705 
L 164.369252 -202.377159 
L 164.549323 -204.122614 
L 164.721361 -205.868068 
L 164.885457 -207.613523 
L 165.0417 -209.358977 
L 165.190182 -211.104432 
L 165.331004 -212.849886 
L 165.464274 -214.595341 
L 165.590119 -216.340795 
L 165.708683 -218.08625 
L 165.820131 -219.831705 
L 165.924653 -221.577159 
L 166.022463 -223.322614 
L 166.113803 -225.068068 
L 166.198941 -226.813523 
L 166.278173 -228.558977 
L 166.351818 -230.304432 
L 166.420223 -232.049886 
L 166.483754 -233.795341 
L 166.542799 -235.540795 
L 166.597761 -237.28625 
L 166.649062 -239.031705 
L 166.697131 -240.777159 
L 166.742409 -242.522614 
L 166.785342 -244.268068 
L 166.826376 -246.013523 
L 166.865961 -247.758977 
L 166.904539 -249.504432 
L 166.942548 -251.249886 
L 166.980414 -252.995341 
L 167.01855 -254.740795 
L 167.057354 -256.48625 
L 167.097203 -258.231705 
L 167.138451 -259.977159 
L 167.181427 -261.722614 
L 167.226429 -263.468068 
L 167.273724 -265.213523 
L 167.323542 -266.958977 
L 167.376077 -268.704432 
L 167.43148 -270.449886 
L 167.48986 -272.195341 
L 167.551283 -273.940795 
L 167.615765 -275.68625 
L 172.744235 -275.68625 
L 172.744235 -275.68625 
L 172.808717 -273.940795 
L 172.87014 -272.195341 
L 172.92852 -270.449886 
L 172.983923 -268.704432 
L 173.036458 -266.958977 
L 173.086276 -265.213523 
L 173.133571 -263.468068 
L 173.178573 -261.722614 
L 173.221549 -259.977159 
L 173.262797 -258.231705 
L 173.302646 -256.48625 
L 173.34145 -254.740795 
L 173.379586 -252.995341 
L 173.417452 -251.249886 
L 173.455461 -249.504432 
L 173.494039 -247.758977 
L 173.533624 -246.013523 
L 173.574658 -244.268068 
L 173.617591 -242.522614 
L 173.662869 -240.777159 
L 173.710938 -239.031705 
L 173.762239 -237.28625 
L 173.817201 -235.540795 
L 173.876246 -233.795341 
L 173.939777 -232.049886 
L 174.008182 -230.304432 
L 174.081827 -228.558977 
L 174.161059 -226.813523 
L 174.246197 -225.068068 
L 174.337537 -223.322614 
L 174.435347 -221.577159 
L 174.539869 -219.831705 
L 174.651317 -218.08625 
L 174.769881 -216.340795 
L 174.895726 -214.595341 
L 175.028996 -212.849886 
L 175.169818 -211.104432 
L 175.3183 -209.358977 
L 175.474543 -207.613523 
L 175.638639 -205.868068 
L 175.810677 -204.122614 
L 175.990748 -202.377159 
L 176.178947 -200.631705 
L 176.375381 -198.88625 
L 176.580164 -197.140795 
L 176.793424 -195.395341 
L 177.015303 -193.649886 
L 177.245953 -191.904432 
L 177.485539 -190.158977 
L 177.734229 -188.413523 
L 177.992193 -186.668068 
L 178.259594 -184.922614 
L 178.536583 -183.177159 
L 178.823282 -181.431705 
L 179.119782 -179.68625 
L 179.426123 -177.940795 
L 179.742286 -176.195341 
L 180.06818 -174.449886 
L 180.403623 -172.704432 
L 180.748334 -170.958977 
L 181.101918 -169.213523 
L 181.463854 -167.468068 
L 181.833481 -165.722614 
L 182.209993 -163.977159 
L 182.592426 -162.231705 
L 182.979656 -160.48625 
L 183.370391 -158.740795 
L 183.763173 -156.995341 
L 184.156377 -155.249886 
L 184.548218 -153.504432 
L 184.936751 -151.758977 
L 185.319891 -150.013523 
L 185.695418 -148.268068 
L 186.060995 -146.522614 
L 186.414191 -144.777159 
L 186.752495 -143.031705 
L 187.073348 -141.28625 
L 187.374165 -139.540795 
L 187.652364 -137.795341 
L 187.905398 -136.049886 
L 188.130785 -134.304432 
L 188.326141 -132.558977 
L 188.489215 -130.813523 
L 188.617917 -129.068068 
L 188.710352 -127.322614 
L 188.764852 -125.577159 
L 188.78 -123.831705 
L 188.754661 -122.08625 
L 188.688002 -120.340795 
L 188.579509 -118.595341 
L 188.429006 -116.849886 
L 188.236664 -115.104432 
L 188.003006 -113.358977 
L 187.728906 -111.613523 
L 187.415588 -109.868068 
L 187.064613 -108.122614 
L 186.677866 -106.377159 
L 186.257534 -104.631705 
L 185.806081 -102.88625 
z
" id="m1585fdc131" style="stroke:#000000;stroke-opacity:0.3;"/>
    </defs>
    <g clip-path="url(#p307f38016e)">
     <use style="fill:#bfbf00;fill-opacity:0.3;stroke:#000000;stroke-opacity:0.3;" x="0.0" xlink:href="#m1585fdc131" y="465.868"/>
    </g>
   </g>
   <g id="PolyCollection_3">
    <defs>
     <path d="M 262.117116 -102.88625 
L 227.042884 -102.88625 
L 226.727255 -105.795341 
L 226.465784 -108.704432 
L 226.259867 -111.613523 
L 226.110272 -114.522614 
L 226.01714 -117.431705 
L 225.98 -120.340795 
L 225.997794 -123.249886 
L 226.068917 -126.158977 
L 226.19126 -129.068068 
L 226.362272 -131.977159 
L 226.579013 -134.88625 
L 226.838228 -137.795341 
L 227.136407 -140.704432 
L 227.469861 -143.613523 
L 227.834786 -146.522614 
L 228.227327 -149.431705 
L 228.643637 -152.340795 
L 229.079935 -155.249886 
L 229.532552 -158.158977 
L 229.997969 -161.068068 
L 230.472855 -163.977159 
L 230.954088 -166.88625 
L 231.438776 -169.795341 
L 231.924268 -172.704432 
L 232.408159 -175.613523 
L 232.888289 -178.522614 
L 233.362737 -181.431705 
L 233.829817 -184.340795 
L 234.288061 -187.249886 
L 234.73621 -190.158977 
L 235.173196 -193.068068 
L 235.598132 -195.977159 
L 236.010294 -198.88625 
L 236.409107 -201.795341 
L 236.794138 -204.704432 
L 237.165075 -207.613523 
L 237.521727 -210.522614 
L 237.864007 -213.431705 
L 238.191928 -216.340795 
L 238.505593 -219.249886 
L 238.805189 -222.158977 
L 239.090981 -225.068068 
L 239.363303 -227.977159 
L 239.622553 -230.88625 
L 239.869182 -233.795341 
L 240.103689 -236.704432 
L 240.326607 -239.613523 
L 240.538499 -242.522614 
L 240.739944 -245.431705 
L 240.931526 -248.340795 
L 241.113823 -251.249886 
L 241.2874 -254.158977 
L 241.452793 -257.068068 
L 241.610501 -259.977159 
L 241.760978 -262.88625 
L 241.904625 -265.795341 
L 242.041784 -268.704432 
L 242.172734 -271.613523 
L 242.297685 -274.522614 
L 242.416783 -277.431705 
L 242.530105 -280.340795 
L 242.637669 -283.249886 
L 242.739433 -286.158977 
L 242.835305 -289.068068 
L 242.925151 -291.977159 
L 243.008803 -294.88625 
L 243.086071 -297.795341 
L 243.156754 -300.704432 
L 243.22065 -303.613523 
L 243.277569 -306.522614 
L 243.327345 -309.431705 
L 243.369845 -312.340795 
L 243.404982 -315.249886 
L 243.432722 -318.158977 
L 243.453092 -321.068068 
L 243.466187 -323.977159 
L 243.472179 -326.88625 
L 243.471314 -329.795341 
L 243.463918 -332.704432 
L 243.450395 -335.613523 
L 243.431228 -338.522614 
L 243.40697 -341.431705 
L 243.378246 -344.340795 
L 243.345738 -347.249886 
L 243.310182 -350.158977 
L 243.272358 -353.068068 
L 243.233075 -355.977159 
L 243.193162 -358.88625 
L 243.153454 -361.795341 
L 243.11478 -364.704432 
L 243.07795 -367.613523 
L 243.043738 -370.522614 
L 243.012874 -373.431705 
L 242.986031 -376.340795 
L 242.963811 -379.249886 
L 242.946738 -382.158977 
L 242.935252 -385.068068 
L 242.929696 -387.977159 
L 242.930319 -390.88625 
L 246.229681 -390.88625 
L 246.229681 -390.88625 
L 246.230304 -387.977159 
L 246.224748 -385.068068 
L 246.213262 -382.158977 
L 246.196189 -379.249886 
L 246.173969 -376.340795 
L 246.147126 -373.431705 
L 246.116262 -370.522614 
L 246.08205 -367.613523 
L 246.04522 -364.704432 
L 246.006546 -361.795341 
L 245.966838 -358.88625 
L 245.926925 -355.977159 
L 245.887642 -353.068068 
L 245.849818 -350.158977 
L 245.814262 -347.249886 
L 245.781754 -344.340795 
L 245.75303 -341.431705 
L 245.728772 -338.522614 
L 245.709605 -335.613523 
L 245.696082 -332.704432 
L 245.688686 -329.795341 
L 245.687821 -326.88625 
L 245.693813 -323.977159 
L 245.706908 -321.068068 
L 245.727278 -318.158977 
L 245.755018 -315.249886 
L 245.790155 -312.340795 
L 245.832655 -309.431705 
L 245.882431 -306.522614 
L 245.93935 -303.613523 
L 246.003246 -300.704432 
L 246.073929 -297.795341 
L 246.151197 -294.88625 
L 246.234849 -291.977159 
L 246.324695 -289.068068 
L 246.420567 -286.158977 
L 246.522331 -283.249886 
L 246.629895 -280.340795 
L 246.743217 -277.431705 
L 246.862315 -274.522614 
L 246.987266 -271.613523 
L 247.118216 -268.704432 
L 247.255375 -265.795341 
L 247.399022 -262.88625 
L 247.549499 -259.977159 
L 247.707207 -257.068068 
L 247.8726 -254.158977 
L 248.046177 -251.249886 
L 248.228474 -248.340795 
L 248.420056 -245.431705 
L 248.621501 -242.522614 
L 248.833393 -239.613523 
L 249.056311 -236.704432 
L 249.290818 -233.795341 
L 249.537447 -230.88625 
L 249.796697 -227.977159 
L 250.069019 -225.068068 
L 250.354811 -222.158977 
L 250.654407 -219.249886 
L 250.968072 -216.340795 
L 251.295993 -213.431705 
L 251.638273 -210.522614 
L 251.994925 -207.613523 
L 252.365862 -204.704432 
L 252.750893 -201.795341 
L 253.149706 -198.88625 
L 253.561868 -195.977159 
L 253.986804 -193.068068 
L 254.42379 -190.158977 
L 254.871939 -187.249886 
L 255.330183 -184.340795 
L 255.797263 -181.431705 
L 256.271711 -178.522614 
L 256.751841 -175.613523 
L 257.235732 -172.704432 
L 257.721224 -169.795341 
L 258.205912 -166.88625 
L 258.687145 -163.977159 
L 259.162031 -161.068068 
L 259.627448 -158.158977 
L 260.080065 -155.249886 
L 260.516363 -152.340795 
L 260.932673 -149.431705 
L 261.325214 -146.522614 
L 261.690139 -143.613523 
L 262.023593 -140.704432 
L 262.321772 -137.795341 
L 262.580987 -134.88625 
L 262.797728 -131.977159 
L 262.96874 -129.068068 
L 263.091083 -126.158977 
L 263.162206 -123.249886 
L 263.18 -120.340795 
L 263.14286 -117.431705 
L 263.049728 -114.522614 
L 262.900133 -111.613523 
L 262.694216 -108.704432 
L 262.432745 -105.795341 
L 262.117116 -102.88625 
z
" id="mb8fb719e71" style="stroke:#000000;stroke-opacity:0.3;"/>
    </defs>
    <g clip-path="url(#p307f38016e)">
     <use style="fill:#bfbf00;fill-opacity:0.3;stroke:#000000;stroke-opacity:0.3;" x="0.0" xlink:href="#mb8fb719e71" y="465.868"/>
    </g>
   </g>
   <g id="PolyCollection_4">
    <defs>
     <path d="M 334.579575 -102.88625 
L 303.380425 -102.88625 
L 302.9448 -104.631705 
L 302.540263 -106.377159 
L 302.168418 -108.122614 
L 301.830537 -109.868068 
L 301.527572 -111.613523 
L 301.260157 -113.358977 
L 301.028626 -115.104432 
L 300.833034 -116.849886 
L 300.673182 -118.595341 
L 300.548647 -120.340795 
L 300.458811 -122.08625 
L 300.402897 -123.831705 
L 300.38 -125.577159 
L 300.389118 -127.322614 
L 300.429181 -129.068068 
L 300.499081 -130.813523 
L 300.597689 -132.558977 
L 300.723878 -134.304432 
L 300.876531 -136.049886 
L 301.054557 -137.795341 
L 301.256888 -139.540795 
L 301.482483 -141.28625 
L 301.73032 -143.031705 
L 301.999393 -144.777159 
L 302.288695 -146.522614 
L 302.597211 -148.268068 
L 302.923903 -150.013523 
L 303.267694 -151.758977 
L 303.62746 -153.504432 
L 304.002013 -155.249886 
L 304.390095 -156.995341 
L 304.790372 -158.740795 
L 305.201429 -160.48625 
L 305.621774 -162.231705 
L 306.049835 -163.977159 
L 306.483977 -165.722614 
L 306.922507 -167.468068 
L 307.36369 -169.213523 
L 307.805769 -170.958977 
L 308.24698 -172.704432 
L 308.685581 -174.449886 
L 309.119866 -176.195341 
L 309.548193 -177.940795 
L 309.969005 -179.68625 
L 310.380849 -181.431705 
L 310.782397 -183.177159 
L 311.172462 -184.922614 
L 311.55001 -186.668068 
L 311.914169 -188.413523 
L 312.264239 -190.158977 
L 312.599688 -191.904432 
L 312.920157 -193.649886 
L 313.225449 -195.395341 
L 313.515519 -197.140795 
L 313.790467 -198.88625 
L 314.050519 -200.631705 
L 314.296007 -202.377159 
L 314.527357 -204.122614 
L 314.74506 -205.868068 
L 314.949661 -207.613523 
L 315.141732 -209.358977 
L 315.321854 -211.104432 
L 315.490606 -212.849886 
L 315.64854 -214.595341 
L 315.796177 -216.340795 
L 315.933992 -218.08625 
L 316.062408 -219.831705 
L 316.181796 -221.577159 
L 316.29247 -223.322614 
L 316.39469 -225.068068 
L 316.488672 -226.813523 
L 316.574589 -228.558977 
L 316.652587 -230.304432 
L 316.722791 -232.049886 
L 316.78532 -233.795341 
L 316.840302 -235.540795 
L 316.887881 -237.28625 
L 316.928235 -239.031705 
L 316.961583 -240.777159 
L 316.988198 -242.522614 
L 317.008412 -244.268068 
L 317.022624 -246.013523 
L 317.031298 -247.758977 
L 317.034971 -249.504432 
L 317.034246 -251.249886 
L 317.029787 -252.995341 
L 317.022312 -254.740795 
L 317.012587 -256.48625 
L 317.00141 -258.231705 
L 316.9896 -259.977159 
L 316.977984 -261.722614 
L 316.967378 -263.468068 
L 316.958576 -265.213523 
L 316.952334 -266.958977 
L 316.949354 -268.704432 
L 316.95027 -270.449886 
L 316.955641 -272.195341 
L 316.965935 -273.940795 
L 316.981523 -275.68625 
L 320.978477 -275.68625 
L 320.978477 -275.68625 
L 320.994065 -273.940795 
L 321.004359 -272.195341 
L 321.00973 -270.449886 
L 321.010646 -268.704432 
L 321.007666 -266.958977 
L 321.001424 -265.213523 
L 320.992622 -263.468068 
L 320.982016 -261.722614 
L 320.9704 -259.977159 
L 320.95859 -258.231705 
L 320.947413 -256.48625 
L 320.937688 -254.740795 
L 320.930213 -252.995341 
L 320.925754 -251.249886 
L 320.925029 -249.504432 
L 320.928702 -247.758977 
L 320.937376 -246.013523 
L 320.951588 -244.268068 
L 320.971802 -242.522614 
L 320.998417 -240.777159 
L 321.031765 -239.031705 
L 321.072119 -237.28625 
L 321.119698 -235.540795 
L 321.17468 -233.795341 
L 321.237209 -232.049886 
L 321.307413 -230.304432 
L 321.385411 -228.558977 
L 321.471328 -226.813523 
L 321.56531 -225.068068 
L 321.66753 -223.322614 
L 321.778204 -221.577159 
L 321.897592 -219.831705 
L 322.026008 -218.08625 
L 322.163823 -216.340795 
L 322.31146 -214.595341 
L 322.469394 -212.849886 
L 322.638146 -211.104432 
L 322.818268 -209.358977 
L 323.010339 -207.613523 
L 323.21494 -205.868068 
L 323.432643 -204.122614 
L 323.663993 -202.377159 
L 323.909481 -200.631705 
L 324.169533 -198.88625 
L 324.444481 -197.140795 
L 324.734551 -195.395341 
L 325.039843 -193.649886 
L 325.360312 -191.904432 
L 325.695761 -190.158977 
L 326.045831 -188.413523 
L 326.40999 -186.668068 
L 326.787538 -184.922614 
L 327.177603 -183.177159 
L 327.579151 -181.431705 
L 327.990995 -179.68625 
L 328.411807 -177.940795 
L 328.840134 -176.195341 
L 329.274419 -174.449886 
L 329.71302 -172.704432 
L 330.154231 -170.958977 
L 330.59631 -169.213523 
L 331.037493 -167.468068 
L 331.476023 -165.722614 
L 331.910165 -163.977159 
L 332.338226 -162.231705 
L 332.758571 -160.48625 
L 333.169628 -158.740795 
L 333.569905 -156.995341 
L 333.957987 -155.249886 
L 334.33254 -153.504432 
L 334.692306 -151.758977 
L 335.036097 -150.013523 
L 335.362789 -148.268068 
L 335.671305 -146.522614 
L 335.960607 -144.777159 
L 336.22968 -143.031705 
L 336.477517 -141.28625 
L 336.703112 -139.540795 
L 336.905443 -137.795341 
L 337.083469 -136.049886 
L 337.236122 -134.304432 
L 337.362311 -132.558977 
L 337.460919 -130.813523 
L 337.530819 -129.068068 
L 337.570882 -127.322614 
L 337.58 -125.577159 
L 337.557103 -123.831705 
L 337.501189 -122.08625 
L 337.411353 -120.340795 
L 337.286818 -118.595341 
L 337.126966 -116.849886 
L 336.931374 -115.104432 
L 336.699843 -113.358977 
L 336.432428 -111.613523 
L 336.129463 -109.868068 
L 335.791582 -108.122614 
L 335.419737 -106.377159 
L 335.0152 -104.631705 
L 334.579575 -102.88625 
z
" id="m6643c9ff78" style="stroke:#000000;stroke-opacity:0.3;"/>
    </defs>
    <g clip-path="url(#p307f38016e)">
     <use style="fill:#bfbf00;fill-opacity:0.3;stroke:#000000;stroke-opacity:0.3;" x="0.0" xlink:href="#m6643c9ff78" y="465.868"/>
    </g>
   </g>
   <g id="PolyCollection_5">
    <defs>
     <path d="M 410.187101 -102.88625 
L 376.572899 -102.88625 
L 376.134897 -105.795341 
L 375.753555 -108.704432 
L 375.432072 -111.613523 
L 375.172893 -114.522614 
L 374.977667 -117.431705 
L 374.847229 -120.340795 
L 374.781599 -123.249886 
L 374.78 -126.158977 
L 374.840889 -129.068068 
L 374.96201 -131.977159 
L 375.140463 -134.88625 
L 375.372773 -137.795341 
L 375.654984 -140.704432 
L 375.982748 -143.613523 
L 376.351427 -146.522614 
L 376.756188 -149.431705 
L 377.192101 -152.340795 
L 377.654235 -155.249886 
L 378.137741 -158.158977 
L 378.637931 -161.068068 
L 379.150349 -163.977159 
L 379.670826 -166.88625 
L 380.195523 -169.795341 
L 380.72097 -172.704432 
L 381.244082 -175.613523 
L 381.762174 -178.522614 
L 382.272955 -181.431705 
L 382.774522 -184.340795 
L 383.26534 -187.249886 
L 383.744215 -190.158977 
L 384.210268 -193.068068 
L 384.662893 -195.977159 
L 385.101727 -198.88625 
L 385.526607 -201.795341 
L 385.937533 -204.704432 
L 386.334635 -207.613523 
L 386.718135 -210.522614 
L 387.088315 -213.431705 
L 387.445493 -216.340795 
L 387.789998 -219.249886 
L 388.122149 -222.158977 
L 388.442244 -225.068068 
L 388.750544 -227.977159 
L 389.047269 -230.88625 
L 389.332595 -233.795341 
L 389.606652 -236.704432 
L 389.869528 -239.613523 
L 390.121273 -242.522614 
L 390.361903 -245.431705 
L 390.591411 -248.340795 
L 390.809774 -251.249886 
L 391.016958 -254.158977 
L 391.212929 -257.068068 
L 391.397661 -259.977159 
L 391.571137 -262.88625 
L 391.733362 -265.795341 
L 391.884362 -268.704432 
L 392.024188 -271.613523 
L 392.152918 -274.522614 
L 392.270658 -277.431705 
L 392.377541 -280.340795 
L 392.473728 -283.249886 
L 392.559401 -286.158977 
L 392.634768 -289.068068 
L 392.700052 -291.977159 
L 392.755497 -294.88625 
L 392.80136 -297.795341 
L 392.837912 -300.704432 
L 392.865436 -303.613523 
L 392.884228 -306.522614 
L 392.894595 -309.431705 
L 392.89686 -312.340795 
L 392.891359 -315.249886 
L 392.878452 -318.158977 
L 392.858516 -321.068068 
L 392.831958 -323.977159 
L 392.799213 -326.88625 
L 392.760751 -329.795341 
L 392.717079 -332.704432 
L 392.668745 -335.613523 
L 392.616337 -338.522614 
L 392.560487 -341.431705 
L 392.501868 -344.340795 
L 392.441195 -347.249886 
L 392.379215 -350.158977 
L 392.316706 -353.068068 
L 392.25447 -355.977159 
L 392.19332 -358.88625 
L 392.134072 -361.795341 
L 392.077534 -364.704432 
L 392.024492 -367.613523 
L 391.975696 -370.522614 
L 391.931849 -373.431705 
L 391.893592 -376.340795 
L 391.861494 -379.249886 
L 391.836038 -382.158977 
L 391.817611 -385.068068 
L 391.806501 -387.977159 
L 391.802885 -390.88625 
L 394.957115 -390.88625 
L 394.957115 -390.88625 
L 394.953499 -387.977159 
L 394.942389 -385.068068 
L 394.923962 -382.158977 
L 394.898506 -379.249886 
L 394.866408 -376.340795 
L 394.828151 -373.431705 
L 394.784304 -370.522614 
L 394.735508 -367.613523 
L 394.682466 -364.704432 
L 394.625928 -361.795341 
L 394.56668 -358.88625 
L 394.50553 -355.977159 
L 394.443294 -353.068068 
L 394.380785 -350.158977 
L 394.318805 -347.249886 
L 394.258132 -344.340795 
L 394.199513 -341.431705 
L 394.143663 -338.522614 
L 394.091255 -335.613523 
L 394.042921 -332.704432 
L 393.999249 -329.795341 
L 393.960787 -326.88625 
L 393.928042 -323.977159 
L 393.901484 -321.068068 
L 393.881548 -318.158977 
L 393.868641 -315.249886 
L 393.86314 -312.340795 
L 393.865405 -309.431705 
L 393.875772 -306.522614 
L 393.894564 -303.613523 
L 393.922088 -300.704432 
L 393.95864 -297.795341 
L 394.004503 -294.88625 
L 394.059948 -291.977159 
L 394.125232 -289.068068 
L 394.200599 -286.158977 
L 394.286272 -283.249886 
L 394.382459 -280.340795 
L 394.489342 -277.431705 
L 394.607082 -274.522614 
L 394.735812 -271.613523 
L 394.875638 -268.704432 
L 395.026638 -265.795341 
L 395.188863 -262.88625 
L 395.362339 -259.977159 
L 395.547071 -257.068068 
L 395.743042 -254.158977 
L 395.950226 -251.249886 
L 396.168589 -248.340795 
L 396.398097 -245.431705 
L 396.638727 -242.522614 
L 396.890472 -239.613523 
L 397.153348 -236.704432 
L 397.427405 -233.795341 
L 397.712731 -230.88625 
L 398.009456 -227.977159 
L 398.317756 -225.068068 
L 398.637851 -222.158977 
L 398.970002 -219.249886 
L 399.314507 -216.340795 
L 399.671685 -213.431705 
L 400.041865 -210.522614 
L 400.425365 -207.613523 
L 400.822467 -204.704432 
L 401.233393 -201.795341 
L 401.658273 -198.88625 
L 402.097107 -195.977159 
L 402.549732 -193.068068 
L 403.015785 -190.158977 
L 403.49466 -187.249886 
L 403.985478 -184.340795 
L 404.487045 -181.431705 
L 404.997826 -178.522614 
L 405.515918 -175.613523 
L 406.03903 -172.704432 
L 406.564477 -169.795341 
L 407.089174 -166.88625 
L 407.609651 -163.977159 
L 408.122069 -161.068068 
L 408.622259 -158.158977 
L 409.105765 -155.249886 
L 409.567899 -152.340795 
L 410.003812 -149.431705 
L 410.408573 -146.522614 
L 410.777252 -143.613523 
L 411.105016 -140.704432 
L 411.387227 -137.795341 
L 411.619537 -134.88625 
L 411.79799 -131.977159 
L 411.919111 -129.068068 
L 411.98 -126.158977 
L 411.978401 -123.249886 
L 411.912771 -120.340795 
L 411.782333 -117.431705 
L 411.587107 -114.522614 
L 411.327928 -111.613523 
L 411.006445 -108.704432 
L 410.625103 -105.795341 
L 410.187101 -102.88625 
z
" id="m62bb39ffa2" style="stroke:#000000;stroke-opacity:0.3;"/>
    </defs>
    <g clip-path="url(#p307f38016e)">
     <use style="fill:#bfbf00;fill-opacity:0.3;stroke:#000000;stroke-opacity:0.3;" x="0.0" xlink:href="#m62bb39ffa2" y="465.868"/>
    </g>
   </g>
   <g id="PolyCollection_6">
    <defs>
     <path d="M 485.460041 -102.88625 
L 450.099959 -102.88625 
L 449.856707 -104.224432 
L 449.649697 -105.562614 
L 449.479827 -106.900795 
L 449.347719 -108.238977 
L 449.253718 -109.577159 
L 449.197884 -110.915341 
L 449.18 -112.253523 
L 449.199575 -113.591705 
L 449.255852 -114.929886 
L 449.347823 -116.268068 
L 449.474243 -117.60625 
L 449.633648 -118.944432 
L 449.824374 -120.282614 
L 450.044583 -121.620795 
L 450.292285 -122.958977 
L 450.565361 -124.297159 
L 450.861594 -125.635341 
L 451.178691 -126.973523 
L 451.514313 -128.311705 
L 451.866096 -129.649886 
L 452.23168 -130.988068 
L 452.608731 -132.32625 
L 452.99496 -133.664432 
L 453.388149 -135.002614 
L 453.786163 -136.340795 
L 454.18697 -137.678977 
L 454.588649 -139.017159 
L 454.989406 -140.355341 
L 455.387578 -141.693523 
L 455.781643 -143.031705 
L 456.170217 -144.369886 
L 456.552059 -145.708068 
L 456.926071 -147.04625 
L 457.29129 -148.384432 
L 457.646887 -149.722614 
L 457.99216 -151.060795 
L 458.326524 -152.398977 
L 458.649506 -153.737159 
L 458.960732 -155.075341 
L 459.25992 -156.413523 
L 459.546869 -157.751705 
L 459.82145 -159.089886 
L 460.083594 -160.428068 
L 460.333286 -161.76625 
L 460.570555 -163.104432 
L 460.795467 -164.442614 
L 461.008116 -165.780795 
L 461.208622 -167.118977 
L 461.397122 -168.457159 
L 461.57377 -169.795341 
L 461.738732 -171.133523 
L 461.892184 -172.471705 
L 462.034314 -173.809886 
L 462.165318 -175.148068 
L 462.285404 -176.48625 
L 462.394791 -177.824432 
L 462.493713 -179.162614 
L 462.582421 -180.500795 
L 462.661184 -181.838977 
L 462.730292 -183.177159 
L 462.790062 -184.515341 
L 462.840836 -185.853523 
L 462.882986 -187.191705 
L 462.916916 -188.529886 
L 462.94306 -189.868068 
L 462.96189 -191.20625 
L 462.973908 -192.544432 
L 462.979654 -193.882614 
L 462.979698 -195.220795 
L 462.974644 -196.558977 
L 462.965123 -197.897159 
L 462.951795 -199.235341 
L 462.935339 -200.573523 
L 462.916458 -201.911705 
L 462.895865 -203.249886 
L 462.874284 -204.588068 
L 462.852442 -205.92625 
L 462.831064 -207.264432 
L 462.810866 -208.602614 
L 462.792552 -209.940795 
L 462.776804 -211.278977 
L 462.764277 -212.617159 
L 462.755595 -213.955341 
L 462.751343 -215.293523 
L 462.752064 -216.631705 
L 462.758252 -217.969886 
L 462.770348 -219.308068 
L 462.788737 -220.64625 
L 462.813745 -221.984432 
L 462.845635 -223.322614 
L 462.884605 -224.660795 
L 462.930791 -225.998977 
L 462.984258 -227.337159 
L 463.045009 -228.675341 
L 463.112981 -230.013523 
L 463.188048 -231.351705 
L 463.270024 -232.689886 
L 463.358663 -234.028068 
L 463.453666 -235.36625 
L 472.106334 -235.36625 
L 472.106334 -235.36625 
L 472.201337 -234.028068 
L 472.289976 -232.689886 
L 472.371952 -231.351705 
L 472.447019 -230.013523 
L 472.514991 -228.675341 
L 472.575742 -227.337159 
L 472.629209 -225.998977 
L 472.675395 -224.660795 
L 472.714365 -223.322614 
L 472.746255 -221.984432 
L 472.771263 -220.64625 
L 472.789652 -219.308068 
L 472.801748 -217.969886 
L 472.807936 -216.631705 
L 472.808657 -215.293523 
L 472.804405 -213.955341 
L 472.795723 -212.617159 
L 472.783196 -211.278977 
L 472.767448 -209.940795 
L 472.749134 -208.602614 
L 472.728936 -207.264432 
L 472.707558 -205.92625 
L 472.685716 -204.588068 
L 472.664135 -203.249886 
L 472.643542 -201.911705 
L 472.624661 -200.573523 
L 472.608205 -199.235341 
L 472.594877 -197.897159 
L 472.585356 -196.558977 
L 472.580302 -195.220795 
L 472.580346 -193.882614 
L 472.586092 -192.544432 
L 472.59811 -191.20625 
L 472.61694 -189.868068 
L 472.643084 -188.529886 
L 472.677014 -187.191705 
L 472.719164 -185.853523 
L 472.769938 -184.515341 
L 472.829708 -183.177159 
L 472.898816 -181.838977 
L 472.977579 -180.500795 
L 473.066287 -179.162614 
L 473.165209 -177.824432 
L 473.274596 -176.48625 
L 473.394682 -175.148068 
L 473.525686 -173.809886 
L 473.667816 -172.471705 
L 473.821268 -171.133523 
L 473.98623 -169.795341 
L 474.162878 -168.457159 
L 474.351378 -167.118977 
L 474.551884 -165.780795 
L 474.764533 -164.442614 
L 474.989445 -163.104432 
L 475.226714 -161.76625 
L 475.476406 -160.428068 
L 475.73855 -159.089886 
L 476.013131 -157.751705 
L 476.30008 -156.413523 
L 476.599268 -155.075341 
L 476.910494 -153.737159 
L 477.233476 -152.398977 
L 477.56784 -151.060795 
L 477.913113 -149.722614 
L 478.26871 -148.384432 
L 478.633929 -147.04625 
L 479.007941 -145.708068 
L 479.389783 -144.369886 
L 479.778357 -143.031705 
L 480.172422 -141.693523 
L 480.570594 -140.355341 
L 480.971351 -139.017159 
L 481.37303 -137.678977 
L 481.773837 -136.340795 
L 482.171851 -135.002614 
L 482.56504 -133.664432 
L 482.951269 -132.32625 
L 483.32832 -130.988068 
L 483.693904 -129.649886 
L 484.045687 -128.311705 
L 484.381309 -126.973523 
L 484.698406 -125.635341 
L 484.994639 -124.297159 
L 485.267715 -122.958977 
L 485.515417 -121.620795 
L 485.735626 -120.282614 
L 485.926352 -118.944432 
L 486.085757 -117.60625 
L 486.212177 -116.268068 
L 486.304148 -114.929886 
L 486.360425 -113.591705 
L 486.38 -112.253523 
L 486.362116 -110.915341 
L 486.306282 -109.577159 
L 486.212281 -108.238977 
L 486.080173 -106.900795 
L 485.910303 -105.562614 
L 485.703293 -104.224432 
L 485.460041 -102.88625 
z
" id="m307bc32591" style="stroke:#000000;stroke-opacity:0.3;"/>
    </defs>
    <g clip-path="url(#p307f38016e)">
     <use style="fill:#bfbf00;fill-opacity:0.3;stroke:#000000;stroke-opacity:0.3;" x="0.0" xlink:href="#m307bc32591" y="465.868"/>
    </g>
   </g>
   <g id="PolyCollection_7">
    <defs>
     <path d="M 558.774379 -102.88625 
L 525.585621 -102.88625 
L 525.294603 -103.758977 
L 525.025683 -104.631705 
L 524.779453 -105.504432 
L 524.556349 -106.377159 
L 524.356643 -107.249886 
L 524.180449 -108.122614 
L 524.027721 -108.995341 
L 523.898252 -109.868068 
L 523.791686 -110.740795 
L 523.707516 -111.613523 
L 523.645098 -112.48625 
L 523.603654 -113.358977 
L 523.58229 -114.231705 
L 523.58 -115.104432 
L 523.595683 -115.977159 
L 523.628154 -116.849886 
L 523.67616 -117.722614 
L 523.738393 -118.595341 
L 523.813505 -119.468068 
L 523.900123 -120.340795 
L 523.996861 -121.213523 
L 524.102338 -122.08625 
L 524.215189 -122.958977 
L 524.334079 -123.831705 
L 524.457713 -124.704432 
L 524.58485 -125.577159 
L 524.714312 -126.449886 
L 524.844991 -127.322614 
L 524.97586 -128.195341 
L 525.105976 -129.068068 
L 525.234489 -129.940795 
L 525.360641 -130.813523 
L 525.483771 -131.68625 
L 525.603318 -132.558977 
L 525.718817 -133.431705 
L 525.829899 -134.304432 
L 525.936292 -135.177159 
L 526.037812 -136.049886 
L 526.134363 -136.922614 
L 526.225931 -137.795341 
L 526.312575 -138.668068 
L 526.394428 -139.540795 
L 526.471681 -140.413523 
L 526.544583 -141.28625 
L 526.613432 -142.158977 
L 526.678565 -143.031705 
L 526.740355 -143.904432 
L 526.799198 -144.777159 
L 526.855514 -145.649886 
L 526.909732 -146.522614 
L 526.962289 -147.395341 
L 527.013625 -148.268068 
L 527.064173 -149.140795 
L 527.114357 -150.013523 
L 527.164591 -150.88625 
L 527.215269 -151.758977 
L 527.26677 -152.631705 
L 527.319448 -153.504432 
L 527.373638 -154.377159 
L 527.429648 -155.249886 
L 527.487765 -156.122614 
L 527.548252 -156.995341 
L 527.61135 -157.868068 
L 527.677278 -158.740795 
L 527.746235 -159.613523 
L 527.818403 -160.48625 
L 527.893949 -161.358977 
L 527.973026 -162.231705 
L 528.055775 -163.104432 
L 528.14233 -163.977159 
L 528.23282 -164.849886 
L 528.327368 -165.722614 
L 528.426097 -166.595341 
L 528.52913 -167.468068 
L 528.636589 -168.340795 
L 528.748603 -169.213523 
L 528.865302 -170.08625 
L 528.986819 -170.958977 
L 529.113292 -171.831705 
L 529.244863 -172.704432 
L 529.381672 -173.577159 
L 529.523865 -174.449886 
L 529.671582 -175.322614 
L 529.82496 -176.195341 
L 529.984133 -177.068068 
L 530.149221 -177.940795 
L 530.320333 -178.813523 
L 530.497564 -179.68625 
L 530.680987 -180.558977 
L 530.870653 -181.431705 
L 531.066587 -182.304432 
L 531.268782 -183.177159 
L 531.477203 -184.049886 
L 531.691774 -184.922614 
L 531.912384 -185.795341 
L 532.138881 -186.668068 
L 532.371072 -187.540795 
L 532.60872 -188.413523 
L 532.851547 -189.28625 
L 551.508453 -189.28625 
L 551.508453 -189.28625 
L 551.75128 -188.413523 
L 551.988928 -187.540795 
L 552.221119 -186.668068 
L 552.447616 -185.795341 
L 552.668226 -184.922614 
L 552.882797 -184.049886 
L 553.091218 -183.177159 
L 553.293413 -182.304432 
L 553.489347 -181.431705 
L 553.679013 -180.558977 
L 553.862436 -179.68625 
L 554.039667 -178.813523 
L 554.210779 -177.940795 
L 554.375867 -177.068068 
L 554.53504 -176.195341 
L 554.688418 -175.322614 
L 554.836135 -174.449886 
L 554.978328 -173.577159 
L 555.115137 -172.704432 
L 555.246708 -171.831705 
L 555.373181 -170.958977 
L 555.494698 -170.08625 
L 555.611397 -169.213523 
L 555.723411 -168.340795 
L 555.83087 -167.468068 
L 555.933903 -166.595341 
L 556.032632 -165.722614 
L 556.12718 -164.849886 
L 556.21767 -163.977159 
L 556.304225 -163.104432 
L 556.386974 -162.231705 
L 556.466051 -161.358977 
L 556.541597 -160.48625 
L 556.613765 -159.613523 
L 556.682722 -158.740795 
L 556.74865 -157.868068 
L 556.811748 -156.995341 
L 556.872235 -156.122614 
L 556.930352 -155.249886 
L 556.986362 -154.377159 
L 557.040552 -153.504432 
L 557.09323 -152.631705 
L 557.144731 -151.758977 
L 557.195409 -150.88625 
L 557.245643 -150.013523 
L 557.295827 -149.140795 
L 557.346375 -148.268068 
L 557.397711 -147.395341 
L 557.450268 -146.522614 
L 557.504486 -145.649886 
L 557.560802 -144.777159 
L 557.619645 -143.904432 
L 557.681435 -143.031705 
L 557.746568 -142.158977 
L 557.815417 -141.28625 
L 557.888319 -140.413523 
L 557.965572 -139.540795 
L 558.047425 -138.668068 
L 558.134069 -137.795341 
L 558.225637 -136.922614 
L 558.322188 -136.049886 
L 558.423708 -135.177159 
L 558.530101 -134.304432 
L 558.641183 -133.431705 
L 558.756682 -132.558977 
L 558.876229 -131.68625 
L 558.999359 -130.813523 
L 559.125511 -129.940795 
L 559.254024 -129.068068 
L 559.38414 -128.195341 
L 559.515009 -127.322614 
L 559.645688 -126.449886 
L 559.77515 -125.577159 
L 559.902287 -124.704432 
L 560.025921 -123.831705 
L 560.144811 -122.958977 
L 560.257662 -122.08625 
L 560.363139 -121.213523 
L 560.459877 -120.340795 
L 560.546495 -119.468068 
L 560.621607 -118.595341 
L 560.68384 -117.722614 
L 560.731846 -116.849886 
L 560.764317 -115.977159 
L 560.78 -115.104432 
L 560.77771 -114.231705 
L 560.756346 -113.358977 
L 560.714902 -112.48625 
L 560.652484 -111.613523 
L 560.568314 -110.740795 
L 560.461748 -109.868068 
L 560.332279 -108.995341 
L 560.179551 -108.122614 
L 560.003357 -107.249886 
L 559.803651 -106.377159 
L 559.580547 -105.504432 
L 559.334317 -104.631705 
L 559.065397 -103.758977 
L 558.774379 -102.88625 
z
" id="m8a99f67ef7" style="stroke:#000000;stroke-opacity:0.3;"/>
    </defs>
    <g clip-path="url(#p307f38016e)">
     <use style="fill:#bfbf00;fill-opacity:0.3;stroke:#000000;stroke-opacity:0.3;" x="0.0" xlink:href="#m8a99f67ef7" y="465.868"/>
    </g>
   </g>
   <g id="PolyCollection_8">
    <defs>
     <path d="M 633.908915 -102.88625 
L 599.251085 -102.88625 
L 598.959394 -104.049886 
L 598.705294 -105.213523 
L 598.489431 -106.377159 
L 598.312072 -107.540795 
L 598.173107 -108.704432 
L 598.072053 -109.868068 
L 598.008074 -111.031705 
L 597.98 -112.195341 
L 597.986354 -113.358977 
L 598.025386 -114.522614 
L 598.095106 -115.68625 
L 598.193328 -116.849886 
L 598.31771 -118.013523 
L 598.465801 -119.177159 
L 598.635082 -120.340795 
L 598.823014 -121.504432 
L 599.027082 -122.668068 
L 599.244831 -123.831705 
L 599.473912 -124.995341 
L 599.712109 -126.158977 
L 599.957373 -127.322614 
L 600.207844 -128.48625 
L 600.461873 -129.649886 
L 600.718034 -130.813523 
L 600.975129 -131.977159 
L 601.232197 -133.140795 
L 601.488503 -134.304432 
L 601.743533 -135.468068 
L 601.996981 -136.631705 
L 602.248729 -137.795341 
L 602.498829 -138.958977 
L 602.747474 -140.122614 
L 602.994975 -141.28625 
L 603.241735 -142.449886 
L 603.488217 -143.613523 
L 603.734917 -144.777159 
L 603.982339 -145.940795 
L 604.230965 -147.104432 
L 604.481236 -148.268068 
L 604.73353 -149.431705 
L 604.988142 -150.595341 
L 605.245269 -151.758977 
L 605.505004 -152.922614 
L 605.767324 -154.08625 
L 606.032086 -155.249886 
L 606.299031 -156.413523 
L 606.56778 -157.577159 
L 606.83785 -158.740795 
L 607.108653 -159.904432 
L 607.379515 -161.068068 
L 607.649685 -162.231705 
L 607.918352 -163.395341 
L 608.184661 -164.558977 
L 608.447729 -165.722614 
L 608.706664 -166.88625 
L 608.960578 -168.049886 
L 609.20861 -169.213523 
L 609.449934 -170.377159 
L 609.683779 -171.540795 
L 609.909439 -172.704432 
L 610.126284 -173.868068 
L 610.333771 -175.031705 
L 610.531451 -176.195341 
L 610.718974 -177.358977 
L 610.896091 -178.522614 
L 611.06266 -179.68625 
L 611.218642 -180.849886 
L 611.3641 -182.013523 
L 611.499195 -183.177159 
L 611.624184 -184.340795 
L 611.739411 -185.504432 
L 611.8453 -186.668068 
L 611.942348 -187.831705 
L 612.031115 -188.995341 
L 612.112219 -190.158977 
L 612.186319 -191.322614 
L 612.254113 -192.48625 
L 612.316325 -193.649886 
L 612.373695 -194.813523 
L 612.426971 -195.977159 
L 612.476901 -197.140795 
L 612.524223 -198.304432 
L 612.56966 -199.468068 
L 612.61391 -200.631705 
L 612.65764 -201.795341 
L 612.701484 -202.958977 
L 612.746031 -204.122614 
L 612.791828 -205.28625 
L 612.839369 -206.449886 
L 612.889098 -207.613523 
L 612.941403 -208.777159 
L 612.996614 -209.940795 
L 613.055003 -211.104432 
L 613.116785 -212.268068 
L 613.182113 -213.431705 
L 613.251083 -214.595341 
L 613.323732 -215.758977 
L 613.400043 -216.922614 
L 613.479944 -218.08625 
L 619.680056 -218.08625 
L 619.680056 -218.08625 
L 619.759957 -216.922614 
L 619.836268 -215.758977 
L 619.908917 -214.595341 
L 619.977887 -213.431705 
L 620.043215 -212.268068 
L 620.104997 -211.104432 
L 620.163386 -209.940795 
L 620.218597 -208.777159 
L 620.270902 -207.613523 
L 620.320631 -206.449886 
L 620.368172 -205.28625 
L 620.413969 -204.122614 
L 620.458516 -202.958977 
L 620.50236 -201.795341 
L 620.54609 -200.631705 
L 620.59034 -199.468068 
L 620.635777 -198.304432 
L 620.683099 -197.140795 
L 620.733029 -195.977159 
L 620.786305 -194.813523 
L 620.843675 -193.649886 
L 620.905887 -192.48625 
L 620.973681 -191.322614 
L 621.047781 -190.158977 
L 621.128885 -188.995341 
L 621.217652 -187.831705 
L 621.3147 -186.668068 
L 621.420589 -185.504432 
L 621.535816 -184.340795 
L 621.660805 -183.177159 
L 621.7959 -182.013523 
L 621.941358 -180.849886 
L 622.09734 -179.68625 
L 622.263909 -178.522614 
L 622.441026 -177.358977 
L 622.628549 -176.195341 
L 622.826229 -175.031705 
L 623.033716 -173.868068 
L 623.250561 -172.704432 
L 623.476221 -171.540795 
L 623.710066 -170.377159 
L 623.95139 -169.213523 
L 624.199422 -168.049886 
L 624.453336 -166.88625 
L 624.712271 -165.722614 
L 624.975339 -164.558977 
L 625.241648 -163.395341 
L 625.510315 -162.231705 
L 625.780485 -161.068068 
L 626.051347 -159.904432 
L 626.32215 -158.740795 
L 626.59222 -157.577159 
L 626.860969 -156.413523 
L 627.127914 -155.249886 
L 627.392676 -154.08625 
L 627.654996 -152.922614 
L 627.914731 -151.758977 
L 628.171858 -150.595341 
L 628.42647 -149.431705 
L 628.678764 -148.268068 
L 628.929035 -147.104432 
L 629.177661 -145.940795 
L 629.425083 -144.777159 
L 629.671783 -143.613523 
L 629.918265 -142.449886 
L 630.165025 -141.28625 
L 630.412526 -140.122614 
L 630.661171 -138.958977 
L 630.911271 -137.795341 
L 631.163019 -136.631705 
L 631.416467 -135.468068 
L 631.671497 -134.304432 
L 631.927803 -133.140795 
L 632.184871 -131.977159 
L 632.441966 -130.813523 
L 632.698127 -129.649886 
L 632.952156 -128.48625 
L 633.202627 -127.322614 
L 633.447891 -126.158977 
L 633.686088 -124.995341 
L 633.915169 -123.831705 
L 634.132918 -122.668068 
L 634.336986 -121.504432 
L 634.524918 -120.340795 
L 634.694199 -119.177159 
L 634.84229 -118.013523 
L 634.966672 -116.849886 
L 635.064894 -115.68625 
L 635.134614 -114.522614 
L 635.173646 -113.358977 
L 635.18 -112.195341 
L 635.151926 -111.031705 
L 635.087947 -109.868068 
L 634.986893 -108.704432 
L 634.847928 -107.540795 
L 634.670569 -106.377159 
L 634.454706 -105.213523 
L 634.200606 -104.049886 
L 633.908915 -102.88625 
z
" id="m98a8276893" style="stroke:#000000;stroke-opacity:0.3;"/>
    </defs>
    <g clip-path="url(#p307f38016e)">
     <use style="fill:#bfbf00;fill-opacity:0.3;stroke:#000000;stroke-opacity:0.3;" x="0.0" xlink:href="#m98a8276893" y="465.868"/>
    </g>
   </g>
   <g id="LineCollection_1">
    <path clip-path="url(#p307f38016e)" d="M 86.48 319.78175 
L 105.08 319.78175 
" style="fill:none;stroke:#ff0000;"/>
    <path clip-path="url(#p307f38016e)" d="M 160.88 334.18175 
L 179.48 334.18175 
" style="fill:none;stroke:#ff0000;"/>
    <path clip-path="url(#p307f38016e)" d="M 235.28 345.70175 
L 253.88 345.70175 
" style="fill:none;stroke:#ff0000;"/>
    <path clip-path="url(#p307f38016e)" d="M 309.68 331.30175 
L 328.28 331.30175 
" style="fill:none;stroke:#ff0000;"/>
    <path clip-path="url(#p307f38016e)" d="M 384.08 345.70175 
L 402.68 345.70175 
" style="fill:none;stroke:#ff0000;"/>
    <path clip-path="url(#p307f38016e)" d="M 458.48 354.34175 
L 477.08 354.34175 
" style="fill:none;stroke:#ff0000;"/>
    <path clip-path="url(#p307f38016e)" d="M 532.88 328.42175 
L 551.48 328.42175 
" style="fill:none;stroke:#ff0000;"/>
    <path clip-path="url(#p307f38016e)" d="M 607.28 348.58175 
L 625.88 348.58175 
" style="fill:none;stroke:#ff0000;"/>
   </g>
   <g id="patch_3">
    <path d="M 21.38 23.14175 
L 690.98 23.14175 
" style="fill:none;stroke:#000000;stroke-linecap:square;stroke-linejoin:miter;"/>
   </g>
   <g id="patch_4">
    <path d="M 690.98 368.74175 
L 690.98 23.14175 
" style="fill:none;stroke:#000000;stroke-linecap:square;stroke-linejoin:miter;"/>
   </g>
   <g id="patch_5">
    <path d="M 21.38 368.74175 
L 21.38 23.14175 
" style="fill:none;stroke:#000000;stroke-linecap:square;stroke-linejoin:miter;"/>
   </g>
   <g id="patch_6">
    <path d="M 21.38 368.74175 
L 690.98 368.74175 
" style="fill:none;stroke:#000000;stroke-linecap:square;stroke-linejoin:miter;"/>
   </g>
   <g id="matplotlib.axis_1">
    <g id="xtick_1">
     <g id="line2d_1">
      <defs>
       <path d="M 0 0 
L 0 -4 
" id="m6c2b3aa234" style="stroke:#000000;stroke-width:0.5;"/>
      </defs>
      <g>
       <use style="stroke:#000000;stroke-width:0.5;" x="95.78" xlink:href="#m6c2b3aa234" y="368.74175"/>
      </g>
     </g>
     <g id="line2d_2">
      <defs>
       <path d="M 0 0 
L 0 4 
" id="m63d7d80133" style="stroke:#000000;stroke-width:0.5;"/>
      </defs>
      <g>
       <use style="stroke:#000000;stroke-width:0.5;" x="95.78" xlink:href="#m63d7d80133" y="23.14175"/>
      </g>
     </g>
     <g id="text_1">
      <!-- Defector -->
      <defs>
       <path d="M 48.78125 52.59375 
L 48.78125 44.1875 
Q 44.96875 46.296875 41.140625 47.34375 
Q 37.3125 48.390625 33.40625 48.390625 
Q 24.65625 48.390625 19.8125 42.84375 
Q 14.984375 37.3125 14.984375 27.296875 
Q 14.984375 17.28125 19.8125 11.734375 
Q 24.65625 6.203125 33.40625 6.203125 
Q 37.3125 6.203125 41.140625 7.25 
Q 44.96875 8.296875 48.78125 10.40625 
L 48.78125 2.09375 
Q 45.015625 0.34375 40.984375 -0.53125 
Q 36.96875 -1.421875 32.421875 -1.421875 
Q 20.0625 -1.421875 12.78125 6.34375 
Q 5.515625 14.109375 5.515625 27.296875 
Q 5.515625 40.671875 12.859375 48.328125 
Q 20.21875 56 33.015625 56 
Q 37.15625 56 41.109375 55.140625 
Q 45.0625 54.296875 48.78125 52.59375 
" id="BitstreamVeraSans-Roman-63"/>
       <path d="M 19.671875 64.796875 
L 19.671875 8.109375 
L 31.59375 8.109375 
Q 46.6875 8.109375 53.6875 14.9375 
Q 60.6875 21.78125 60.6875 36.53125 
Q 60.6875 51.171875 53.6875 57.984375 
Q 46.6875 64.796875 31.59375 64.796875 
z
M 9.8125 72.90625 
L 30.078125 72.90625 
Q 51.265625 72.90625 61.171875 64.09375 
Q 71.09375 55.28125 71.09375 36.53125 
Q 71.09375 17.671875 61.125 8.828125 
Q 51.171875 0 30.078125 0 
L 9.8125 0 
z
" id="BitstreamVeraSans-Roman-44"/>
       <path d="M 37.109375 75.984375 
L 37.109375 68.5 
L 28.515625 68.5 
Q 23.6875 68.5 21.796875 66.546875 
Q 19.921875 64.59375 19.921875 59.515625 
L 19.921875 54.6875 
L 34.71875 54.6875 
L 34.71875 47.703125 
L 19.921875 47.703125 
L 19.921875 0 
L 10.890625 0 
L 10.890625 47.703125 
L 2.296875 47.703125 
L 2.296875 54.6875 
L 10.890625 54.6875 
L 10.890625 58.5 
Q 10.890625 67.625 15.140625 71.796875 
Q 19.390625 75.984375 28.609375 75.984375 
z
" id="BitstreamVeraSans-Roman-66"/>
       <path d="M 56.203125 29.59375 
L 56.203125 25.203125 
L 14.890625 25.203125 
Q 15.484375 15.921875 20.484375 11.0625 
Q 25.484375 6.203125 34.421875 6.203125 
Q 39.59375 6.203125 44.453125 7.46875 
Q 49.3125 8.734375 54.109375 11.28125 
L 54.109375 2.78125 
Q 49.265625 0.734375 44.1875 -0.34375 
Q 39.109375 -1.421875 33.890625 -1.421875 
Q 20.796875 -1.421875 13.15625 6.1875 
Q 5.515625 13.8125 5.515625 26.8125 
Q 5.515625 40.234375 12.765625 48.109375 
Q 20.015625 56 32.328125 56 
Q 43.359375 56 49.78125 48.890625 
Q 56.203125 41.796875 56.203125 29.59375 
M 47.21875 32.234375 
Q 47.125 39.59375 43.09375 43.984375 
Q 39.0625 48.390625 32.421875 48.390625 
Q 24.90625 48.390625 20.390625 44.140625 
Q 15.875 39.890625 15.1875 32.171875 
z
" id="BitstreamVeraSans-Roman-65"/>
       <path d="M 41.109375 46.296875 
Q 39.59375 47.171875 37.8125 47.578125 
Q 36.03125 48 33.890625 48 
Q 26.265625 48 22.1875 43.046875 
Q 18.109375 38.09375 18.109375 28.8125 
L 18.109375 0 
L 9.078125 0 
L 9.078125 54.6875 
L 18.109375 54.6875 
L 18.109375 46.1875 
Q 20.953125 51.171875 25.484375 53.578125 
Q 30.03125 56 36.53125 56 
Q 37.453125 56 38.578125 55.875 
Q 39.703125 55.765625 41.0625 55.515625 
z
" id="BitstreamVeraSans-Roman-72"/>
       <path d="M 30.609375 48.390625 
Q 23.390625 48.390625 19.1875 42.75 
Q 14.984375 37.109375 14.984375 27.296875 
Q 14.984375 17.484375 19.15625 11.84375 
Q 23.34375 6.203125 30.609375 6.203125 
Q 37.796875 6.203125 41.984375 11.859375 
Q 46.1875 17.53125 46.1875 27.296875 
Q 46.1875 37.015625 41.984375 42.703125 
Q 37.796875 48.390625 30.609375 48.390625 
M 30.609375 56 
Q 42.328125 56 49.015625 48.375 
Q 55.71875 40.765625 55.71875 27.296875 
Q 55.71875 13.875 49.015625 6.21875 
Q 42.328125 -1.421875 30.609375 -1.421875 
Q 18.84375 -1.421875 12.171875 6.21875 
Q 5.515625 13.875 5.515625 27.296875 
Q 5.515625 40.765625 12.171875 48.375 
Q 18.84375 56 30.609375 56 
" id="BitstreamVeraSans-Roman-6f"/>
       <path d="M 18.3125 70.21875 
L 18.3125 54.6875 
L 36.8125 54.6875 
L 36.8125 47.703125 
L 18.3125 47.703125 
L 18.3125 18.015625 
Q 18.3125 11.328125 20.140625 9.421875 
Q 21.96875 7.515625 27.59375 7.515625 
L 36.8125 7.515625 
L 36.8125 0 
L 27.59375 0 
Q 17.1875 0 13.234375 3.875 
Q 9.28125 7.765625 9.28125 18.015625 
L 9.28125 47.703125 
L 2.6875 47.703125 
L 2.6875 54.6875 
L 9.28125 54.6875 
L 9.28125 70.21875 
z
" id="BitstreamVeraSans-Roman-74"/>
      </defs>
      <g transform="translate(97.9875 407.28175)rotate(-90.0)scale(0.08 -0.08)">
       <use xlink:href="#BitstreamVeraSans-Roman-44"/>
       <use x="77.001953125" xlink:href="#BitstreamVeraSans-Roman-65"/>
       <use x="138.525390625" xlink:href="#BitstreamVeraSans-Roman-66"/>
       <use x="173.73046875" xlink:href="#BitstreamVeraSans-Roman-65"/>
       <use x="235.25390625" xlink:href="#BitstreamVeraSans-Roman-63"/>
       <use x="290.234375" xlink:href="#BitstreamVeraSans-Roman-74"/>
       <use x="329.443359375" xlink:href="#BitstreamVeraSans-Roman-6f"/>
       <use x="390.625" xlink:href="#BitstreamVeraSans-Roman-72"/>
      </g>
     </g>
    </g>
    <g id="xtick_2">
     <g id="line2d_3">
      <g>
       <use style="stroke:#000000;stroke-width:0.5;" x="170.18" xlink:href="#m6c2b3aa234" y="368.74175"/>
      </g>
     </g>
     <g id="line2d_4">
      <g>
       <use style="stroke:#000000;stroke-width:0.5;" x="170.18" xlink:href="#m63d7d80133" y="23.14175"/>
      </g>
     </g>
     <g id="text_2">
      <!-- Bully -->
      <defs>
       <path d="M 19.671875 34.8125 
L 19.671875 8.109375 
L 35.5 8.109375 
Q 43.453125 8.109375 47.28125 11.40625 
Q 51.125 14.703125 51.125 21.484375 
Q 51.125 28.328125 47.28125 31.5625 
Q 43.453125 34.8125 35.5 34.8125 
z
M 19.671875 64.796875 
L 19.671875 42.828125 
L 34.28125 42.828125 
Q 41.5 42.828125 45.03125 45.53125 
Q 48.578125 48.25 48.578125 53.8125 
Q 48.578125 59.328125 45.03125 62.0625 
Q 41.5 64.796875 34.28125 64.796875 
z
M 9.8125 72.90625 
L 35.015625 72.90625 
Q 46.296875 72.90625 52.390625 68.21875 
Q 58.5 63.53125 58.5 54.890625 
Q 58.5 48.1875 55.375 44.234375 
Q 52.25 40.28125 46.1875 39.3125 
Q 53.46875 37.75 57.5 32.78125 
Q 61.53125 27.828125 61.53125 20.40625 
Q 61.53125 10.640625 54.890625 5.3125 
Q 48.25 0 35.984375 0 
L 9.8125 0 
z
" id="BitstreamVeraSans-Roman-42"/>
       <path d="M 8.5 21.578125 
L 8.5 54.6875 
L 17.484375 54.6875 
L 17.484375 21.921875 
Q 17.484375 14.15625 20.5 10.265625 
Q 23.53125 6.390625 29.59375 6.390625 
Q 36.859375 6.390625 41.078125 11.03125 
Q 45.3125 15.671875 45.3125 23.6875 
L 45.3125 54.6875 
L 54.296875 54.6875 
L 54.296875 0 
L 45.3125 0 
L 45.3125 8.40625 
Q 42.046875 3.421875 37.71875 1 
Q 33.40625 -1.421875 27.6875 -1.421875 
Q 18.265625 -1.421875 13.375 4.4375 
Q 8.5 10.296875 8.5 21.578125 
" id="BitstreamVeraSans-Roman-75"/>
       <path d="M 32.171875 -5.078125 
Q 28.375 -14.84375 24.75 -17.8125 
Q 21.140625 -20.796875 15.09375 -20.796875 
L 7.90625 -20.796875 
L 7.90625 -13.28125 
L 13.1875 -13.28125 
Q 16.890625 -13.28125 18.9375 -11.515625 
Q 21 -9.765625 23.484375 -3.21875 
L 25.09375 0.875 
L 2.984375 54.6875 
L 12.5 54.6875 
L 29.59375 11.921875 
L 46.6875 54.6875 
L 56.203125 54.6875 
z
" id="BitstreamVeraSans-Roman-79"/>
       <path d="M 9.421875 75.984375 
L 18.40625 75.984375 
L 18.40625 0 
L 9.421875 0 
z
" id="BitstreamVeraSans-Roman-6c"/>
      </defs>
      <g transform="translate(172.3875 392.4805)rotate(-90.0)scale(0.08 -0.08)">
       <use xlink:href="#BitstreamVeraSans-Roman-42"/>
       <use x="68.603515625" xlink:href="#BitstreamVeraSans-Roman-75"/>
       <use x="131.982421875" xlink:href="#BitstreamVeraSans-Roman-6c"/>
       <use x="159.765625" xlink:href="#BitstreamVeraSans-Roman-6c"/>
       <use x="187.548828125" xlink:href="#BitstreamVeraSans-Roman-79"/>
      </g>
     </g>
    </g>
    <g id="xtick_3">
     <g id="line2d_5">
      <g>
       <use style="stroke:#000000;stroke-width:0.5;" x="244.58" xlink:href="#m6c2b3aa234" y="368.74175"/>
      </g>
     </g>
     <g id="line2d_6">
      <g>
       <use style="stroke:#000000;stroke-width:0.5;" x="244.58" xlink:href="#m63d7d80133" y="23.14175"/>
      </g>
     </g>
     <g id="text_3">
      <!-- Suspicious Tit For Tat -->
      <defs>
       <path d="M 18.109375 8.203125 
L 18.109375 -20.796875 
L 9.078125 -20.796875 
L 9.078125 54.6875 
L 18.109375 54.6875 
L 18.109375 46.390625 
Q 20.953125 51.265625 25.265625 53.625 
Q 29.59375 56 35.59375 56 
Q 45.5625 56 51.78125 48.09375 
Q 58.015625 40.1875 58.015625 27.296875 
Q 58.015625 14.40625 51.78125 6.484375 
Q 45.5625 -1.421875 35.59375 -1.421875 
Q 29.59375 -1.421875 25.265625 0.953125 
Q 20.953125 3.328125 18.109375 8.203125 
M 48.6875 27.296875 
Q 48.6875 37.203125 44.609375 42.84375 
Q 40.53125 48.484375 33.40625 48.484375 
Q 26.265625 48.484375 22.1875 42.84375 
Q 18.109375 37.203125 18.109375 27.296875 
Q 18.109375 17.390625 22.1875 11.75 
Q 26.265625 6.109375 33.40625 6.109375 
Q 40.53125 6.109375 44.609375 11.75 
Q 48.6875 17.390625 48.6875 27.296875 
" id="BitstreamVeraSans-Roman-70"/>
       <path d="M 9.421875 54.6875 
L 18.40625 54.6875 
L 18.40625 0 
L 9.421875 0 
z
M 9.421875 75.984375 
L 18.40625 75.984375 
L 18.40625 64.59375 
L 9.421875 64.59375 
z
" id="BitstreamVeraSans-Roman-69"/>
       <path d="M 44.28125 53.078125 
L 44.28125 44.578125 
Q 40.484375 46.53125 36.375 47.5 
Q 32.28125 48.484375 27.875 48.484375 
Q 21.1875 48.484375 17.84375 46.4375 
Q 14.5 44.390625 14.5 40.28125 
Q 14.5 37.15625 16.890625 35.375 
Q 19.28125 33.59375 26.515625 31.984375 
L 29.59375 31.296875 
Q 39.15625 29.25 43.1875 25.515625 
Q 47.21875 21.78125 47.21875 15.09375 
Q 47.21875 7.46875 41.1875 3.015625 
Q 35.15625 -1.421875 24.609375 -1.421875 
Q 20.21875 -1.421875 15.453125 -0.5625 
Q 10.6875 0.296875 5.421875 2 
L 5.421875 11.28125 
Q 10.40625 8.6875 15.234375 7.390625 
Q 20.0625 6.109375 24.8125 6.109375 
Q 31.15625 6.109375 34.5625 8.28125 
Q 37.984375 10.453125 37.984375 14.40625 
Q 37.984375 18.0625 35.515625 20.015625 
Q 33.0625 21.96875 24.703125 23.78125 
L 21.578125 24.515625 
Q 13.234375 26.265625 9.515625 29.90625 
Q 5.8125 33.546875 5.8125 39.890625 
Q 5.8125 47.609375 11.28125 51.796875 
Q 16.75 56 26.8125 56 
Q 31.78125 56 36.171875 55.265625 
Q 40.578125 54.546875 44.28125 53.078125 
" id="BitstreamVeraSans-Roman-73"/>
       <path id="BitstreamVeraSans-Roman-20"/>
       <path d="M 9.8125 72.90625 
L 51.703125 72.90625 
L 51.703125 64.59375 
L 19.671875 64.59375 
L 19.671875 43.109375 
L 48.578125 43.109375 
L 48.578125 34.8125 
L 19.671875 34.8125 
L 19.671875 0 
L 9.8125 0 
z
" id="BitstreamVeraSans-Roman-46"/>
       <path d="M -0.296875 72.90625 
L 61.375 72.90625 
L 61.375 64.59375 
L 35.5 64.59375 
L 35.5 0 
L 25.59375 0 
L 25.59375 64.59375 
L -0.296875 64.59375 
z
" id="BitstreamVeraSans-Roman-54"/>
       <path d="M 53.515625 70.515625 
L 53.515625 60.890625 
Q 47.90625 63.578125 42.921875 64.890625 
Q 37.9375 66.21875 33.296875 66.21875 
Q 25.25 66.21875 20.875 63.09375 
Q 16.5 59.96875 16.5 54.203125 
Q 16.5 49.359375 19.40625 46.890625 
Q 22.3125 44.4375 30.421875 42.921875 
L 36.375 41.703125 
Q 47.40625 39.59375 52.65625 34.296875 
Q 57.90625 29 57.90625 20.125 
Q 57.90625 9.515625 50.796875 4.046875 
Q 43.703125 -1.421875 29.984375 -1.421875 
Q 24.8125 -1.421875 18.96875 -0.25 
Q 13.140625 0.921875 6.890625 3.21875 
L 6.890625 13.375 
Q 12.890625 10.015625 18.65625 8.296875 
Q 24.421875 6.59375 29.984375 6.59375 
Q 38.421875 6.59375 43.015625 9.90625 
Q 47.609375 13.234375 47.609375 19.390625 
Q 47.609375 24.75 44.3125 27.78125 
Q 41.015625 30.8125 33.5 32.328125 
L 27.484375 33.5 
Q 16.453125 35.6875 11.515625 40.375 
Q 6.59375 45.0625 6.59375 53.421875 
Q 6.59375 63.09375 13.40625 68.65625 
Q 20.21875 74.21875 32.171875 74.21875 
Q 37.3125 74.21875 42.625 73.28125 
Q 47.953125 72.359375 53.515625 70.515625 
" id="BitstreamVeraSans-Roman-53"/>
       <path d="M 34.28125 27.484375 
Q 23.390625 27.484375 19.1875 25 
Q 14.984375 22.515625 14.984375 16.5 
Q 14.984375 11.71875 18.140625 8.90625 
Q 21.296875 6.109375 26.703125 6.109375 
Q 34.1875 6.109375 38.703125 11.40625 
Q 43.21875 16.703125 43.21875 25.484375 
L 43.21875 27.484375 
z
M 52.203125 31.203125 
L 52.203125 0 
L 43.21875 0 
L 43.21875 8.296875 
Q 40.140625 3.328125 35.546875 0.953125 
Q 30.953125 -1.421875 24.3125 -1.421875 
Q 15.921875 -1.421875 10.953125 3.296875 
Q 6 8.015625 6 15.921875 
Q 6 25.140625 12.171875 29.828125 
Q 18.359375 34.515625 30.609375 34.515625 
L 43.21875 34.515625 
L 43.21875 35.40625 
Q 43.21875 41.609375 39.140625 45 
Q 35.0625 48.390625 27.6875 48.390625 
Q 23 48.390625 18.546875 47.265625 
Q 14.109375 46.140625 10.015625 43.890625 
L 10.015625 52.203125 
Q 14.9375 54.109375 19.578125 55.046875 
Q 24.21875 56 28.609375 56 
Q 40.484375 56 46.34375 49.84375 
Q 52.203125 43.703125 52.203125 31.203125 
" id="BitstreamVeraSans-Roman-61"/>
      </defs>
      <g transform="translate(246.7875 458.668)rotate(-90.0)scale(0.08 -0.08)">
       <use xlink:href="#BitstreamVeraSans-Roman-53"/>
       <use x="63.4765625" xlink:href="#BitstreamVeraSans-Roman-75"/>
       <use x="126.85546875" xlink:href="#BitstreamVeraSans-Roman-73"/>
       <use x="178.955078125" xlink:href="#BitstreamVeraSans-Roman-70"/>
       <use x="242.431640625" xlink:href="#BitstreamVeraSans-Roman-69"/>
       <use x="270.21484375" xlink:href="#BitstreamVeraSans-Roman-63"/>
       <use x="325.1953125" xlink:href="#BitstreamVeraSans-Roman-69"/>
       <use x="352.978515625" xlink:href="#BitstreamVeraSans-Roman-6f"/>
       <use x="414.16015625" xlink:href="#BitstreamVeraSans-Roman-75"/>
       <use x="477.5390625" xlink:href="#BitstreamVeraSans-Roman-73"/>
       <use x="529.638671875" xlink:href="#BitstreamVeraSans-Roman-20"/>
       <use x="561.42578125" xlink:href="#BitstreamVeraSans-Roman-54"/>
       <use x="622.462890625" xlink:href="#BitstreamVeraSans-Roman-69"/>
       <use x="650.24609375" xlink:href="#BitstreamVeraSans-Roman-74"/>
       <use x="689.455078125" xlink:href="#BitstreamVeraSans-Roman-20"/>
       <use x="721.2421875" xlink:href="#BitstreamVeraSans-Roman-46"/>
       <use x="778.71484375" xlink:href="#BitstreamVeraSans-Roman-6f"/>
       <use x="839.896484375" xlink:href="#BitstreamVeraSans-Roman-72"/>
       <use x="881.009765625" xlink:href="#BitstreamVeraSans-Roman-20"/>
       <use x="912.796875" xlink:href="#BitstreamVeraSans-Roman-54"/>
       <use x="973.630859375" xlink:href="#BitstreamVeraSans-Roman-61"/>
       <use x="1034.91015625" xlink:href="#BitstreamVeraSans-Roman-74"/>
      </g>
     </g>
    </g>
    <g id="xtick_4">
     <g id="line2d_7">
      <g>
       <use style="stroke:#000000;stroke-width:0.5;" x="318.98" xlink:href="#m6c2b3aa234" y="368.74175"/>
      </g>
     </g>
     <g id="line2d_8">
      <g>
       <use style="stroke:#000000;stroke-width:0.5;" x="318.98" xlink:href="#m63d7d80133" y="23.14175"/>
      </g>
     </g>
     <g id="text_4">
      <!-- Alternator -->
      <defs>
       <path d="M 34.1875 63.1875 
L 20.796875 26.90625 
L 47.609375 26.90625 
z
M 28.609375 72.90625 
L 39.796875 72.90625 
L 67.578125 0 
L 57.328125 0 
L 50.6875 18.703125 
L 17.828125 18.703125 
L 11.1875 0 
L 0.78125 0 
z
" id="BitstreamVeraSans-Roman-41"/>
       <path d="M 54.890625 33.015625 
L 54.890625 0 
L 45.90625 0 
L 45.90625 32.71875 
Q 45.90625 40.484375 42.875 44.328125 
Q 39.84375 48.1875 33.796875 48.1875 
Q 26.515625 48.1875 22.3125 43.546875 
Q 18.109375 38.921875 18.109375 30.90625 
L 18.109375 0 
L 9.078125 0 
L 9.078125 54.6875 
L 18.109375 54.6875 
L 18.109375 46.1875 
Q 21.34375 51.125 25.703125 53.5625 
Q 30.078125 56 35.796875 56 
Q 45.21875 56 50.046875 50.171875 
Q 54.890625 44.34375 54.890625 33.015625 
" id="BitstreamVeraSans-Roman-6e"/>
      </defs>
      <g transform="translate(321.1875 413.0755)rotate(-90.0)scale(0.08 -0.08)">
       <use xlink:href="#BitstreamVeraSans-Roman-41"/>
       <use x="68.408203125" xlink:href="#BitstreamVeraSans-Roman-6c"/>
       <use x="96.19140625" xlink:href="#BitstreamVeraSans-Roman-74"/>
       <use x="135.400390625" xlink:href="#BitstreamVeraSans-Roman-65"/>
       <use x="196.923828125" xlink:href="#BitstreamVeraSans-Roman-72"/>
       <use x="238.021484375" xlink:href="#BitstreamVeraSans-Roman-6e"/>
       <use x="301.400390625" xlink:href="#BitstreamVeraSans-Roman-61"/>
       <use x="362.6796875" xlink:href="#BitstreamVeraSans-Roman-74"/>
       <use x="401.888671875" xlink:href="#BitstreamVeraSans-Roman-6f"/>
       <use x="463.0703125" xlink:href="#BitstreamVeraSans-Roman-72"/>
      </g>
     </g>
    </g>
    <g id="xtick_5">
     <g id="line2d_9">
      <g>
       <use style="stroke:#000000;stroke-width:0.5;" x="393.38" xlink:href="#m6c2b3aa234" y="368.74175"/>
      </g>
     </g>
     <g id="line2d_10">
      <g>
       <use style="stroke:#000000;stroke-width:0.5;" x="393.38" xlink:href="#m63d7d80133" y="23.14175"/>
      </g>
     </g>
     <g id="text_5">
      <!-- Tit For Tat -->
      <g transform="translate(395.5875 413.75425)rotate(-90.0)scale(0.08 -0.08)">
       <use xlink:href="#BitstreamVeraSans-Roman-54"/>
       <use x="61.037109375" xlink:href="#BitstreamVeraSans-Roman-69"/>
       <use x="88.8203125" xlink:href="#BitstreamVeraSans-Roman-74"/>
       <use x="128.029296875" xlink:href="#BitstreamVeraSans-Roman-20"/>
       <use x="159.81640625" xlink:href="#BitstreamVeraSans-Roman-46"/>
       <use x="217.2890625" xlink:href="#BitstreamVeraSans-Roman-6f"/>
       <use x="278.470703125" xlink:href="#BitstreamVeraSans-Roman-72"/>
       <use x="319.583984375" xlink:href="#BitstreamVeraSans-Roman-20"/>
       <use x="351.37109375" xlink:href="#BitstreamVeraSans-Roman-54"/>
       <use x="412.205078125" xlink:href="#BitstreamVeraSans-Roman-61"/>
       <use x="473.484375" xlink:href="#BitstreamVeraSans-Roman-74"/>
      </g>
     </g>
    </g>
    <g id="xtick_6">
     <g id="line2d_11">
      <g>
       <use style="stroke:#000000;stroke-width:0.5;" x="467.78" xlink:href="#m6c2b3aa234" y="368.74175"/>
      </g>
     </g>
     <g id="line2d_12">
      <g>
       <use style="stroke:#000000;stroke-width:0.5;" x="467.78" xlink:href="#m63d7d80133" y="23.14175"/>
      </g>
     </g>
     <g id="text_6">
      <!-- Anti Tit For Tat -->
      <g transform="translate(469.9875 432.198)rotate(-90.0)scale(0.08 -0.08)">
       <use xlink:href="#BitstreamVeraSans-Roman-41"/>
       <use x="68.408203125" xlink:href="#BitstreamVeraSans-Roman-6e"/>
       <use x="131.787109375" xlink:href="#BitstreamVeraSans-Roman-74"/>
       <use x="170.99609375" xlink:href="#BitstreamVeraSans-Roman-69"/>
       <use x="198.779296875" xlink:href="#BitstreamVeraSans-Roman-20"/>
       <use x="230.56640625" xlink:href="#BitstreamVeraSans-Roman-54"/>
       <use x="291.603515625" xlink:href="#BitstreamVeraSans-Roman-69"/>
       <use x="319.38671875" xlink:href="#BitstreamVeraSans-Roman-74"/>
       <use x="358.595703125" xlink:href="#BitstreamVeraSans-Roman-20"/>
       <use x="390.3828125" xlink:href="#BitstreamVeraSans-Roman-46"/>
       <use x="447.85546875" xlink:href="#BitstreamVeraSans-Roman-6f"/>
       <use x="509.037109375" xlink:href="#BitstreamVeraSans-Roman-72"/>
       <use x="550.150390625" xlink:href="#BitstreamVeraSans-Roman-20"/>
       <use x="581.9375" xlink:href="#BitstreamVeraSans-Roman-54"/>
       <use x="642.771484375" xlink:href="#BitstreamVeraSans-Roman-61"/>
       <use x="704.05078125" xlink:href="#BitstreamVeraSans-Roman-74"/>
      </g>
     </g>
    </g>
    <g id="xtick_7">
     <g id="line2d_13">
      <g>
       <use style="stroke:#000000;stroke-width:0.5;" x="542.18" xlink:href="#m6c2b3aa234" y="368.74175"/>
      </g>
     </g>
     <g id="line2d_14">
      <g>
       <use style="stroke:#000000;stroke-width:0.5;" x="542.18" xlink:href="#m63d7d80133" y="23.14175"/>
      </g>
     </g>
     <g id="text_7">
      <!-- Win-Stay Lose-Shift -->
      <defs>
       <path d="M 4.890625 31.390625 
L 31.203125 31.390625 
L 31.203125 23.390625 
L 4.890625 23.390625 
z
" id="BitstreamVeraSans-Roman-2d"/>
       <path d="M 3.328125 72.90625 
L 13.28125 72.90625 
L 28.609375 11.28125 
L 43.890625 72.90625 
L 54.984375 72.90625 
L 70.3125 11.28125 
L 85.59375 72.90625 
L 95.609375 72.90625 
L 77.296875 0 
L 64.890625 0 
L 49.515625 63.28125 
L 33.984375 0 
L 21.578125 0 
z
" id="BitstreamVeraSans-Roman-57"/>
       <path d="M 9.8125 72.90625 
L 19.671875 72.90625 
L 19.671875 8.296875 
L 55.171875 8.296875 
L 55.171875 0 
L 9.8125 0 
z
" id="BitstreamVeraSans-Roman-4c"/>
       <path d="M 54.890625 33.015625 
L 54.890625 0 
L 45.90625 0 
L 45.90625 32.71875 
Q 45.90625 40.484375 42.875 44.328125 
Q 39.84375 48.1875 33.796875 48.1875 
Q 26.515625 48.1875 22.3125 43.546875 
Q 18.109375 38.921875 18.109375 30.90625 
L 18.109375 0 
L 9.078125 0 
L 9.078125 75.984375 
L 18.109375 75.984375 
L 18.109375 46.1875 
Q 21.34375 51.125 25.703125 53.5625 
Q 30.078125 56 35.796875 56 
Q 45.21875 56 50.046875 50.171875 
Q 54.890625 44.34375 54.890625 33.015625 
" id="BitstreamVeraSans-Roman-68"/>
      </defs>
      <g transform="translate(544.3875 450.873)rotate(-90.0)scale(0.08 -0.08)">
       <use xlink:href="#BitstreamVeraSans-Roman-57"/>
       <use x="98.845703125" xlink:href="#BitstreamVeraSans-Roman-69"/>
       <use x="126.62890625" xlink:href="#BitstreamVeraSans-Roman-6e"/>
       <use x="190.0078125" xlink:href="#BitstreamVeraSans-Roman-2d"/>
       <use x="226.091796875" xlink:href="#BitstreamVeraSans-Roman-53"/>
       <use x="289.568359375" xlink:href="#BitstreamVeraSans-Roman-74"/>
       <use x="328.77734375" xlink:href="#BitstreamVeraSans-Roman-61"/>
       <use x="390.056640625" xlink:href="#BitstreamVeraSans-Roman-79"/>
       <use x="449.236328125" xlink:href="#BitstreamVeraSans-Roman-20"/>
       <use x="481.0234375" xlink:href="#BitstreamVeraSans-Roman-4c"/>
       <use x="536.720703125" xlink:href="#BitstreamVeraSans-Roman-6f"/>
       <use x="597.90234375" xlink:href="#BitstreamVeraSans-Roman-73"/>
       <use x="650.001953125" xlink:href="#BitstreamVeraSans-Roman-65"/>
       <use x="711.525390625" xlink:href="#BitstreamVeraSans-Roman-2d"/>
       <use x="747.609375" xlink:href="#BitstreamVeraSans-Roman-53"/>
       <use x="811.0859375" xlink:href="#BitstreamVeraSans-Roman-68"/>
       <use x="874.46484375" xlink:href="#BitstreamVeraSans-Roman-69"/>
       <use x="902.248046875" xlink:href="#BitstreamVeraSans-Roman-66"/>
       <use x="937.4375" xlink:href="#BitstreamVeraSans-Roman-74"/>
      </g>
     </g>
    </g>
    <g id="xtick_8">
     <g id="line2d_15">
      <g>
       <use style="stroke:#000000;stroke-width:0.5;" x="616.58" xlink:href="#m6c2b3aa234" y="368.74175"/>
      </g>
     </g>
     <g id="line2d_16">
      <g>
       <use style="stroke:#000000;stroke-width:0.5;" x="616.58" xlink:href="#m63d7d80133" y="23.14175"/>
      </g>
     </g>
     <g id="text_8">
      <!-- Cooperator -->
      <defs>
       <path d="M 64.40625 67.28125 
L 64.40625 56.890625 
Q 59.421875 61.53125 53.78125 63.8125 
Q 48.140625 66.109375 41.796875 66.109375 
Q 29.296875 66.109375 22.65625 58.46875 
Q 16.015625 50.828125 16.015625 36.375 
Q 16.015625 21.96875 22.65625 14.328125 
Q 29.296875 6.6875 41.796875 6.6875 
Q 48.140625 6.6875 53.78125 8.984375 
Q 59.421875 11.28125 64.40625 15.921875 
L 64.40625 5.609375 
Q 59.234375 2.09375 53.4375 0.328125 
Q 47.65625 -1.421875 41.21875 -1.421875 
Q 24.65625 -1.421875 15.125 8.703125 
Q 5.609375 18.84375 5.609375 36.375 
Q 5.609375 53.953125 15.125 64.078125 
Q 24.65625 74.21875 41.21875 74.21875 
Q 47.75 74.21875 53.53125 72.484375 
Q 59.328125 70.75 64.40625 67.28125 
" id="BitstreamVeraSans-Roman-43"/>
      </defs>
      <g transform="translate(618.7875 417.6305)rotate(-90.0)scale(0.08 -0.08)">
       <use xlink:href="#BitstreamVeraSans-Roman-43"/>
       <use x="69.82421875" xlink:href="#BitstreamVeraSans-Roman-6f"/>
       <use x="131.005859375" xlink:href="#BitstreamVeraSans-Roman-6f"/>
       <use x="192.1875" xlink:href="#BitstreamVeraSans-Roman-70"/>
       <use x="255.6640625" xlink:href="#BitstreamVeraSans-Roman-65"/>
       <use x="317.1875" xlink:href="#BitstreamVeraSans-Roman-72"/>
       <use x="358.30078125" xlink:href="#BitstreamVeraSans-Roman-61"/>
       <use x="419.580078125" xlink:href="#BitstreamVeraSans-Roman-74"/>
       <use x="458.7890625" xlink:href="#BitstreamVeraSans-Roman-6f"/>
       <use x="519.970703125" xlink:href="#BitstreamVeraSans-Roman-72"/>
      </g>
     </g>
    </g>
   </g>
   <g id="matplotlib.axis_2">
    <g id="ytick_1">
     <g id="line2d_17">
      <defs>
       <path d="M 0 0 
L 4 0 
" id="m22de399ed0" style="stroke:#000000;stroke-width:0.5;"/>
      </defs>
      <g>
       <use style="stroke:#000000;stroke-width:0.5;" x="21.38" xlink:href="#m22de399ed0" y="368.74175"/>
      </g>
     </g>
     <g id="line2d_18">
      <defs>
       <path d="M 0 0 
L -4 0 
" id="mdffa9e4cb1" style="stroke:#000000;stroke-width:0.5;"/>
      </defs>
      <g>
       <use style="stroke:#000000;stroke-width:0.5;" x="690.98" xlink:href="#mdffa9e4cb1" y="368.74175"/>
      </g>
     </g>
     <g id="text_9">
      <!-- 0 -->
      <defs>
       <path d="M 31.78125 66.40625 
Q 24.171875 66.40625 20.328125 58.90625 
Q 16.5 51.421875 16.5 36.375 
Q 16.5 21.390625 20.328125 13.890625 
Q 24.171875 6.390625 31.78125 6.390625 
Q 39.453125 6.390625 43.28125 13.890625 
Q 47.125 21.390625 47.125 36.375 
Q 47.125 51.421875 43.28125 58.90625 
Q 39.453125 66.40625 31.78125 66.40625 
M 31.78125 74.21875 
Q 44.046875 74.21875 50.515625 64.515625 
Q 56.984375 54.828125 56.984375 36.375 
Q 56.984375 17.96875 50.515625 8.265625 
Q 44.046875 -1.421875 31.78125 -1.421875 
Q 19.53125 -1.421875 13.0625 8.265625 
Q 6.59375 17.96875 6.59375 36.375 
Q 6.59375 54.828125 13.0625 64.515625 
Q 19.53125 74.21875 31.78125 74.21875 
" id="BitstreamVeraSans-Roman-30"/>
      </defs>
      <g transform="translate(12.29 370.94925)scale(0.08 -0.08)">
       <use xlink:href="#BitstreamVeraSans-Roman-30"/>
      </g>
     </g>
    </g>
    <g id="ytick_2">
     <g id="line2d_19">
      <g>
       <use style="stroke:#000000;stroke-width:0.5;" x="21.38" xlink:href="#m22de399ed0" y="311.14175"/>
      </g>
     </g>
     <g id="line2d_20">
      <g>
       <use style="stroke:#000000;stroke-width:0.5;" x="690.98" xlink:href="#mdffa9e4cb1" y="311.14175"/>
      </g>
     </g>
     <g id="text_10">
      <!-- 10 -->
      <defs>
       <path d="M 12.40625 8.296875 
L 28.515625 8.296875 
L 28.515625 63.921875 
L 10.984375 60.40625 
L 10.984375 69.390625 
L 28.421875 72.90625 
L 38.28125 72.90625 
L 38.28125 8.296875 
L 54.390625 8.296875 
L 54.390625 0 
L 12.40625 0 
z
" id="BitstreamVeraSans-Roman-31"/>
      </defs>
      <g transform="translate(7.2 313.34925)scale(0.08 -0.08)">
       <use xlink:href="#BitstreamVeraSans-Roman-31"/>
       <use x="63.623046875" xlink:href="#BitstreamVeraSans-Roman-30"/>
      </g>
     </g>
    </g>
    <g id="ytick_3">
     <g id="line2d_21">
      <g>
       <use style="stroke:#000000;stroke-width:0.5;" x="21.38" xlink:href="#m22de399ed0" y="253.54175"/>
      </g>
     </g>
     <g id="line2d_22">
      <g>
       <use style="stroke:#000000;stroke-width:0.5;" x="690.98" xlink:href="#mdffa9e4cb1" y="253.54175"/>
      </g>
     </g>
     <g id="text_11">
      <!-- 20 -->
      <defs>
       <path d="M 19.1875 8.296875 
L 53.609375 8.296875 
L 53.609375 0 
L 7.328125 0 
L 7.328125 8.296875 
Q 12.9375 14.109375 22.625 23.890625 
Q 32.328125 33.6875 34.8125 36.53125 
Q 39.546875 41.84375 41.421875 45.53125 
Q 43.3125 49.21875 43.3125 52.78125 
Q 43.3125 58.59375 39.234375 62.25 
Q 35.15625 65.921875 28.609375 65.921875 
Q 23.96875 65.921875 18.8125 64.3125 
Q 13.671875 62.703125 7.8125 59.421875 
L 7.8125 69.390625 
Q 13.765625 71.78125 18.9375 73 
Q 24.125 74.21875 28.421875 74.21875 
Q 39.75 74.21875 46.484375 68.546875 
Q 53.21875 62.890625 53.21875 53.421875 
Q 53.21875 48.921875 51.53125 44.890625 
Q 49.859375 40.875 45.40625 35.40625 
Q 44.1875 33.984375 37.640625 27.21875 
Q 31.109375 20.453125 19.1875 8.296875 
" id="BitstreamVeraSans-Roman-32"/>
      </defs>
      <g transform="translate(7.2 255.74925)scale(0.08 -0.08)">
       <use xlink:href="#BitstreamVeraSans-Roman-32"/>
       <use x="63.623046875" xlink:href="#BitstreamVeraSans-Roman-30"/>
      </g>
     </g>
    </g>
    <g id="ytick_4">
     <g id="line2d_23">
      <g>
       <use style="stroke:#000000;stroke-width:0.5;" x="21.38" xlink:href="#m22de399ed0" y="195.94175"/>
      </g>
     </g>
     <g id="line2d_24">
      <g>
       <use style="stroke:#000000;stroke-width:0.5;" x="690.98" xlink:href="#mdffa9e4cb1" y="195.94175"/>
      </g>
     </g>
     <g id="text_12">
      <!-- 30 -->
      <defs>
       <path d="M 40.578125 39.3125 
Q 47.65625 37.796875 51.625 33 
Q 55.609375 28.21875 55.609375 21.1875 
Q 55.609375 10.40625 48.1875 4.484375 
Q 40.765625 -1.421875 27.09375 -1.421875 
Q 22.515625 -1.421875 17.65625 -0.515625 
Q 12.796875 0.390625 7.625 2.203125 
L 7.625 11.71875 
Q 11.71875 9.328125 16.59375 8.109375 
Q 21.484375 6.890625 26.8125 6.890625 
Q 36.078125 6.890625 40.9375 10.546875 
Q 45.796875 14.203125 45.796875 21.1875 
Q 45.796875 27.640625 41.28125 31.265625 
Q 36.765625 34.90625 28.71875 34.90625 
L 20.21875 34.90625 
L 20.21875 43.015625 
L 29.109375 43.015625 
Q 36.375 43.015625 40.234375 45.921875 
Q 44.09375 48.828125 44.09375 54.296875 
Q 44.09375 59.90625 40.109375 62.90625 
Q 36.140625 65.921875 28.71875 65.921875 
Q 24.65625 65.921875 20.015625 65.03125 
Q 15.375 64.15625 9.8125 62.3125 
L 9.8125 71.09375 
Q 15.4375 72.65625 20.34375 73.4375 
Q 25.25 74.21875 29.59375 74.21875 
Q 40.828125 74.21875 47.359375 69.109375 
Q 53.90625 64.015625 53.90625 55.328125 
Q 53.90625 49.265625 50.4375 45.09375 
Q 46.96875 40.921875 40.578125 39.3125 
" id="BitstreamVeraSans-Roman-33"/>
      </defs>
      <g transform="translate(7.2 198.14925)scale(0.08 -0.08)">
       <use xlink:href="#BitstreamVeraSans-Roman-33"/>
       <use x="63.623046875" xlink:href="#BitstreamVeraSans-Roman-30"/>
      </g>
     </g>
    </g>
    <g id="ytick_5">
     <g id="line2d_25">
      <g>
       <use style="stroke:#000000;stroke-width:0.5;" x="21.38" xlink:href="#m22de399ed0" y="138.34175"/>
      </g>
     </g>
     <g id="line2d_26">
      <g>
       <use style="stroke:#000000;stroke-width:0.5;" x="690.98" xlink:href="#mdffa9e4cb1" y="138.34175"/>
      </g>
     </g>
     <g id="text_13">
      <!-- 40 -->
      <defs>
       <path d="M 37.796875 64.3125 
L 12.890625 25.390625 
L 37.796875 25.390625 
z
M 35.203125 72.90625 
L 47.609375 72.90625 
L 47.609375 25.390625 
L 58.015625 25.390625 
L 58.015625 17.1875 
L 47.609375 17.1875 
L 47.609375 0 
L 37.796875 0 
L 37.796875 17.1875 
L 4.890625 17.1875 
L 4.890625 26.703125 
z
" id="BitstreamVeraSans-Roman-34"/>
      </defs>
      <g transform="translate(7.2 140.54925)scale(0.08 -0.08)">
       <use xlink:href="#BitstreamVeraSans-Roman-34"/>
       <use x="63.623046875" xlink:href="#BitstreamVeraSans-Roman-30"/>
      </g>
     </g>
    </g>
    <g id="ytick_6">
     <g id="line2d_27">
      <g>
       <use style="stroke:#000000;stroke-width:0.5;" x="21.38" xlink:href="#m22de399ed0" y="80.74175"/>
      </g>
     </g>
     <g id="line2d_28">
      <g>
       <use style="stroke:#000000;stroke-width:0.5;" x="690.98" xlink:href="#mdffa9e4cb1" y="80.74175"/>
      </g>
     </g>
     <g id="text_14">
      <!-- 50 -->
      <defs>
       <path d="M 10.796875 72.90625 
L 49.515625 72.90625 
L 49.515625 64.59375 
L 19.828125 64.59375 
L 19.828125 46.734375 
Q 21.96875 47.46875 24.109375 47.828125 
Q 26.265625 48.1875 28.421875 48.1875 
Q 40.625 48.1875 47.75 41.5 
Q 54.890625 34.8125 54.890625 23.390625 
Q 54.890625 11.625 47.5625 5.09375 
Q 40.234375 -1.421875 26.90625 -1.421875 
Q 22.3125 -1.421875 17.546875 -0.640625 
Q 12.796875 0.140625 7.71875 1.703125 
L 7.71875 11.625 
Q 12.109375 9.234375 16.796875 8.0625 
Q 21.484375 6.890625 26.703125 6.890625 
Q 35.15625 6.890625 40.078125 11.328125 
Q 45.015625 15.765625 45.015625 23.390625 
Q 45.015625 31 40.078125 35.4375 
Q 35.15625 39.890625 26.703125 39.890625 
Q 22.75 39.890625 18.8125 39.015625 
Q 14.890625 38.140625 10.796875 36.28125 
z
" id="BitstreamVeraSans-Roman-35"/>
      </defs>
      <g transform="translate(7.2 82.94925)scale(0.08 -0.08)">
       <use xlink:href="#BitstreamVeraSans-Roman-35"/>
       <use x="63.623046875" xlink:href="#BitstreamVeraSans-Roman-30"/>
      </g>
     </g>
    </g>
    <g id="ytick_7">
     <g id="line2d_29">
      <g>
       <use style="stroke:#000000;stroke-width:0.5;" x="21.38" xlink:href="#m22de399ed0" y="23.14175"/>
      </g>
     </g>
     <g id="line2d_30">
      <g>
       <use style="stroke:#000000;stroke-width:0.5;" x="690.98" xlink:href="#mdffa9e4cb1" y="23.14175"/>
      </g>
     </g>
     <g id="text_15">
      <!-- 60 -->
      <defs>
       <path d="M 33.015625 40.375 
Q 26.375 40.375 22.484375 35.828125 
Q 18.609375 31.296875 18.609375 23.390625 
Q 18.609375 15.53125 22.484375 10.953125 
Q 26.375 6.390625 33.015625 6.390625 
Q 39.65625 6.390625 43.53125 10.953125 
Q 47.40625 15.53125 47.40625 23.390625 
Q 47.40625 31.296875 43.53125 35.828125 
Q 39.65625 40.375 33.015625 40.375 
M 52.59375 71.296875 
L 52.59375 62.3125 
Q 48.875 64.0625 45.09375 64.984375 
Q 41.3125 65.921875 37.59375 65.921875 
Q 27.828125 65.921875 22.671875 59.328125 
Q 17.53125 52.734375 16.796875 39.40625 
Q 19.671875 43.65625 24.015625 45.921875 
Q 28.375 48.1875 33.59375 48.1875 
Q 44.578125 48.1875 50.953125 41.515625 
Q 57.328125 34.859375 57.328125 23.390625 
Q 57.328125 12.15625 50.6875 5.359375 
Q 44.046875 -1.421875 33.015625 -1.421875 
Q 20.359375 -1.421875 13.671875 8.265625 
Q 6.984375 17.96875 6.984375 36.375 
Q 6.984375 53.65625 15.1875 63.9375 
Q 23.390625 74.21875 37.203125 74.21875 
Q 40.921875 74.21875 44.703125 73.484375 
Q 48.484375 72.75 52.59375 71.296875 
" id="BitstreamVeraSans-Roman-36"/>
      </defs>
      <g transform="translate(7.2 25.34925)scale(0.08 -0.08)">
       <use xlink:href="#BitstreamVeraSans-Roman-36"/>
       <use x="63.623046875" xlink:href="#BitstreamVeraSans-Roman-30"/>
      </g>
     </g>
    </g>
   </g>
   <g id="text_16">
    <!-- Lengths. Prob end: 0.1, Repetitions: 2, Strategies: 8. -->
    <defs>
     <path d="M 11.71875 12.40625 
L 22.015625 12.40625 
L 22.015625 4 
L 14.015625 -11.625 
L 7.71875 -11.625 
L 11.71875 4 
z
" id="BitstreamVeraSans-Roman-2c"/>
     <path d="M 31.78125 34.625 
Q 24.75 34.625 20.71875 30.859375 
Q 16.703125 27.09375 16.703125 20.515625 
Q 16.703125 13.921875 20.71875 10.15625 
Q 24.75 6.390625 31.78125 6.390625 
Q 38.8125 6.390625 42.859375 10.171875 
Q 46.921875 13.96875 46.921875 20.515625 
Q 46.921875 27.09375 42.890625 30.859375 
Q 38.875 34.625 31.78125 34.625 
M 21.921875 38.8125 
Q 15.578125 40.375 12.03125 44.71875 
Q 8.5 49.078125 8.5 55.328125 
Q 8.5 64.0625 14.71875 69.140625 
Q 20.953125 74.21875 31.78125 74.21875 
Q 42.671875 74.21875 48.875 69.140625 
Q 55.078125 64.0625 55.078125 55.328125 
Q 55.078125 49.078125 51.53125 44.71875 
Q 48 40.375 41.703125 38.8125 
Q 48.828125 37.15625 52.796875 32.3125 
Q 56.78125 27.484375 56.78125 20.515625 
Q 56.78125 9.90625 50.3125 4.234375 
Q 43.84375 -1.421875 31.78125 -1.421875 
Q 19.734375 -1.421875 13.25 4.234375 
Q 6.78125 9.90625 6.78125 20.515625 
Q 6.78125 27.484375 10.78125 32.3125 
Q 14.796875 37.15625 21.921875 38.8125 
M 18.3125 54.390625 
Q 18.3125 48.734375 21.84375 45.5625 
Q 25.390625 42.390625 31.78125 42.390625 
Q 38.140625 42.390625 41.71875 45.5625 
Q 45.3125 48.734375 45.3125 54.390625 
Q 45.3125 60.0625 41.71875 63.234375 
Q 38.140625 66.40625 31.78125 66.40625 
Q 25.390625 66.40625 21.84375 63.234375 
Q 18.3125 60.0625 18.3125 54.390625 
" id="BitstreamVeraSans-Roman-38"/>
     <path d="M 44.390625 34.1875 
Q 47.5625 33.109375 50.5625 29.59375 
Q 53.5625 26.078125 56.59375 19.921875 
L 66.609375 0 
L 56 0 
L 46.6875 18.703125 
Q 43.0625 26.03125 39.671875 28.421875 
Q 36.28125 30.8125 30.421875 30.8125 
L 19.671875 30.8125 
L 19.671875 0 
L 9.8125 0 
L 9.8125 72.90625 
L 32.078125 72.90625 
Q 44.578125 72.90625 50.734375 67.671875 
Q 56.890625 62.453125 56.890625 51.90625 
Q 56.890625 45.015625 53.6875 40.46875 
Q 50.484375 35.9375 44.390625 34.1875 
M 19.671875 64.796875 
L 19.671875 38.921875 
L 32.078125 38.921875 
Q 39.203125 38.921875 42.84375 42.21875 
Q 46.484375 45.515625 46.484375 51.90625 
Q 46.484375 58.296875 42.84375 61.546875 
Q 39.203125 64.796875 32.078125 64.796875 
z
" id="BitstreamVeraSans-Roman-52"/>
     <path d="M 45.40625 46.390625 
L 45.40625 75.984375 
L 54.390625 75.984375 
L 54.390625 0 
L 45.40625 0 
L 45.40625 8.203125 
Q 42.578125 3.328125 38.25 0.953125 
Q 33.9375 -1.421875 27.875 -1.421875 
Q 17.96875 -1.421875 11.734375 6.484375 
Q 5.515625 14.40625 5.515625 27.296875 
Q 5.515625 40.1875 11.734375 48.09375 
Q 17.96875 56 27.875 56 
Q 33.9375 56 38.25 53.625 
Q 42.578125 51.265625 45.40625 46.390625 
M 14.796875 27.296875 
Q 14.796875 17.390625 18.875 11.75 
Q 22.953125 6.109375 30.078125 6.109375 
Q 37.203125 6.109375 41.296875 11.75 
Q 45.40625 17.390625 45.40625 27.296875 
Q 45.40625 37.203125 41.296875 42.84375 
Q 37.203125 48.484375 30.078125 48.484375 
Q 22.953125 48.484375 18.875 42.84375 
Q 14.796875 37.203125 14.796875 27.296875 
" id="BitstreamVeraSans-Roman-64"/>
     <path d="M 11.71875 12.40625 
L 22.015625 12.40625 
L 22.015625 0 
L 11.71875 0 
z
M 11.71875 51.703125 
L 22.015625 51.703125 
L 22.015625 39.3125 
L 11.71875 39.3125 
z
" id="BitstreamVeraSans-Roman-3a"/>
     <path d="M 48.6875 27.296875 
Q 48.6875 37.203125 44.609375 42.84375 
Q 40.53125 48.484375 33.40625 48.484375 
Q 26.265625 48.484375 22.1875 42.84375 
Q 18.109375 37.203125 18.109375 27.296875 
Q 18.109375 17.390625 22.1875 11.75 
Q 26.265625 6.109375 33.40625 6.109375 
Q 40.53125 6.109375 44.609375 11.75 
Q 48.6875 17.390625 48.6875 27.296875 
M 18.109375 46.390625 
Q 20.953125 51.265625 25.265625 53.625 
Q 29.59375 56 35.59375 56 
Q 45.5625 56 51.78125 48.09375 
Q 58.015625 40.1875 58.015625 27.296875 
Q 58.015625 14.40625 51.78125 6.484375 
Q 45.5625 -1.421875 35.59375 -1.421875 
Q 29.59375 -1.421875 25.265625 0.953125 
Q 20.953125 3.328125 18.109375 8.203125 
L 18.109375 0 
L 9.078125 0 
L 9.078125 75.984375 
L 18.109375 75.984375 
z
" id="BitstreamVeraSans-Roman-62"/>
     <path d="M 10.6875 12.40625 
L 21 12.40625 
L 21 0 
L 10.6875 0 
z
" id="BitstreamVeraSans-Roman-2e"/>
     <path d="M 45.40625 27.984375 
Q 45.40625 37.75 41.375 43.109375 
Q 37.359375 48.484375 30.078125 48.484375 
Q 22.859375 48.484375 18.828125 43.109375 
Q 14.796875 37.75 14.796875 27.984375 
Q 14.796875 18.265625 18.828125 12.890625 
Q 22.859375 7.515625 30.078125 7.515625 
Q 37.359375 7.515625 41.375 12.890625 
Q 45.40625 18.265625 45.40625 27.984375 
M 54.390625 6.78125 
Q 54.390625 -7.171875 48.1875 -13.984375 
Q 42 -20.796875 29.203125 -20.796875 
Q 24.46875 -20.796875 20.265625 -20.09375 
Q 16.0625 -19.390625 12.109375 -17.921875 
L 12.109375 -9.1875 
Q 16.0625 -11.328125 19.921875 -12.34375 
Q 23.78125 -13.375 27.78125 -13.375 
Q 36.625 -13.375 41.015625 -8.765625 
Q 45.40625 -4.15625 45.40625 5.171875 
L 45.40625 9.625 
Q 42.625 4.78125 38.28125 2.390625 
Q 33.9375 0 27.875 0 
Q 17.828125 0 11.671875 7.65625 
Q 5.515625 15.328125 5.515625 27.984375 
Q 5.515625 40.671875 11.671875 48.328125 
Q 17.828125 56 27.875 56 
Q 33.9375 56 38.28125 53.609375 
Q 42.625 51.21875 45.40625 46.390625 
L 45.40625 54.6875 
L 54.390625 54.6875 
z
" id="BitstreamVeraSans-Roman-67"/>
     <path d="M 19.671875 64.796875 
L 19.671875 37.40625 
L 32.078125 37.40625 
Q 38.96875 37.40625 42.71875 40.96875 
Q 46.484375 44.53125 46.484375 51.125 
Q 46.484375 57.671875 42.71875 61.234375 
Q 38.96875 64.796875 32.078125 64.796875 
z
M 9.8125 72.90625 
L 32.078125 72.90625 
Q 44.34375 72.90625 50.609375 67.359375 
Q 56.890625 61.8125 56.890625 51.125 
Q 56.890625 40.328125 50.609375 34.8125 
Q 44.34375 29.296875 32.078125 29.296875 
L 19.671875 29.296875 
L 19.671875 0 
L 9.8125 0 
z
" id="BitstreamVeraSans-Roman-50"/>
    </defs>
    <g transform="translate(167.005625 18.14175)scale(0.144 -0.144)">
     <use xlink:href="#BitstreamVeraSans-Roman-4c"/>
     <use x="55.697265625" xlink:href="#BitstreamVeraSans-Roman-65"/>
     <use x="117.220703125" xlink:href="#BitstreamVeraSans-Roman-6e"/>
     <use x="180.599609375" xlink:href="#BitstreamVeraSans-Roman-67"/>
     <use x="244.076171875" xlink:href="#BitstreamVeraSans-Roman-74"/>
     <use x="283.28515625" xlink:href="#BitstreamVeraSans-Roman-68"/>
     <use x="346.6640625" xlink:href="#BitstreamVeraSans-Roman-73"/>
     <use x="398.763671875" xlink:href="#BitstreamVeraSans-Roman-2e"/>
     <use x="430.55078125" xlink:href="#BitstreamVeraSans-Roman-20"/>
     <use x="462.337890625" xlink:href="#BitstreamVeraSans-Roman-50"/>
     <use x="522.625" xlink:href="#BitstreamVeraSans-Roman-72"/>
     <use x="563.70703125" xlink:href="#BitstreamVeraSans-Roman-6f"/>
     <use x="624.888671875" xlink:href="#BitstreamVeraSans-Roman-62"/>
     <use x="688.365234375" xlink:href="#BitstreamVeraSans-Roman-20"/>
     <use x="720.15234375" xlink:href="#BitstreamVeraSans-Roman-65"/>
     <use x="781.67578125" xlink:href="#BitstreamVeraSans-Roman-6e"/>
     <use x="845.0546875" xlink:href="#BitstreamVeraSans-Roman-64"/>
     <use x="908.53125" xlink:href="#BitstreamVeraSans-Roman-3a"/>
     <use x="942.22265625" xlink:href="#BitstreamVeraSans-Roman-20"/>
     <use x="974.009765625" xlink:href="#BitstreamVeraSans-Roman-30"/>
     <use x="1037.6328125" xlink:href="#BitstreamVeraSans-Roman-2e"/>
     <use x="1069.419921875" xlink:href="#BitstreamVeraSans-Roman-31"/>
     <use x="1133.04296875" xlink:href="#BitstreamVeraSans-Roman-2c"/>
     <use x="1164.830078125" xlink:href="#BitstreamVeraSans-Roman-20"/>
     <use x="1196.6171875" xlink:href="#BitstreamVeraSans-Roman-52"/>
     <use x="1266.037109375" xlink:href="#BitstreamVeraSans-Roman-65"/>
     <use x="1327.560546875" xlink:href="#BitstreamVeraSans-Roman-70"/>
     <use x="1391.037109375" xlink:href="#BitstreamVeraSans-Roman-65"/>
     <use x="1452.560546875" xlink:href="#BitstreamVeraSans-Roman-74"/>
     <use x="1491.76953125" xlink:href="#BitstreamVeraSans-Roman-69"/>
     <use x="1519.552734375" xlink:href="#BitstreamVeraSans-Roman-74"/>
     <use x="1558.76171875" xlink:href="#BitstreamVeraSans-Roman-69"/>
     <use x="1586.544921875" xlink:href="#BitstreamVeraSans-Roman-6f"/>
     <use x="1647.7265625" xlink:href="#BitstreamVeraSans-Roman-6e"/>
     <use x="1711.10546875" xlink:href="#BitstreamVeraSans-Roman-73"/>
     <use x="1763.205078125" xlink:href="#BitstreamVeraSans-Roman-3a"/>
     <use x="1796.896484375" xlink:href="#BitstreamVeraSans-Roman-20"/>
     <use x="1828.68359375" xlink:href="#BitstreamVeraSans-Roman-32"/>
     <use x="1892.306640625" xlink:href="#BitstreamVeraSans-Roman-2c"/>
     <use x="1924.09375" xlink:href="#BitstreamVeraSans-Roman-20"/>
     <use x="1955.880859375" xlink:href="#BitstreamVeraSans-Roman-53"/>
     <use x="2019.357421875" xlink:href="#BitstreamVeraSans-Roman-74"/>
     <use x="2058.56640625" xlink:href="#BitstreamVeraSans-Roman-72"/>
     <use x="2099.6796875" xlink:href="#BitstreamVeraSans-Roman-61"/>
     <use x="2160.958984375" xlink:href="#BitstreamVeraSans-Roman-74"/>
     <use x="2200.16796875" xlink:href="#BitstreamVeraSans-Roman-65"/>
     <use x="2261.69140625" xlink:href="#BitstreamVeraSans-Roman-67"/>
     <use x="2325.16796875" xlink:href="#BitstreamVeraSans-Roman-69"/>
     <use x="2352.951171875" xlink:href="#BitstreamVeraSans-Roman-65"/>
     <use x="2414.474609375" xlink:href="#BitstreamVeraSans-Roman-73"/>
     <use x="2466.57421875" xlink:href="#BitstreamVeraSans-Roman-3a"/>
     <use x="2500.265625" xlink:href="#BitstreamVeraSans-Roman-20"/>
     <use x="2532.052734375" xlink:href="#BitstreamVeraSans-Roman-38"/>
     <use x="2595.67578125" xlink:href="#BitstreamVeraSans-Roman-2e"/>
    </g>
   </g>
  </g>
 </g>
 <defs>
  <clipPath id="p307f38016e">
   <rect height="345.6" width="669.6" x="21.38" y="23.14175"/>
  </clipPath>
 </defs>
</svg>
