<?xml version="1.0" encoding="utf-8" standalone="no"?>
<!DOCTYPE svg PUBLIC "-//W3C//DTD SVG 1.1//EN"
  "http://www.w3.org/Graphics/SVG/1.1/DTD/svg11.dtd">
<!-- Created with matplotlib (http://matplotlib.org/) -->
<svg height="465pt" version="1.1" viewBox="0 0 698 465" width="698pt" xmlns="http://www.w3.org/2000/svg" xmlns:xlink="http://www.w3.org/1999/xlink">
 <defs>
  <style type="text/css">
*{stroke-linecap:butt;stroke-linejoin:round;stroke-miterlimit:100000;}
  </style>
 </defs>
 <g id="figure_1">
  <g id="patch_1">
   <path d="M 0 465.868 
L 698.18 465.868 
L 698.18 0 
L 0 0 
z
" style="fill:#ffffff;"/>
  </g>
  <g id="axes_1">
   <g id="patch_2">
    <path d="M 21.38 368.74175 
L 690.98 368.74175 
L 690.98 23.14175 
L 21.38 23.14175 
z
" style="fill:#ffffff;"/>
   </g>
   <g id="PolyCollection_1">
    <defs>
     <path d="M 112.671784 -107.000536 
L 78.888216 -107.000536 
L 78.501255 -109.942873 
L 78.160575 -112.885211 
L 77.868474 -115.827549 
L 77.62674 -118.769886 
L 77.43662 -121.712224 
L 77.298803 -124.654562 
L 77.213411 -127.596899 
L 77.18 -130.539237 
L 77.197573 -133.481575 
L 77.264598 -136.423912 
L 77.379038 -139.36625 
L 77.538391 -142.308588 
L 77.739734 -145.250925 
L 77.979775 -148.193263 
L 78.254911 -151.135601 
L 78.561291 -154.077938 
L 78.89488 -157.020276 
L 79.251524 -159.962614 
L 79.627021 -162.904951 
L 80.017182 -165.847289 
L 80.417901 -168.789627 
L 80.825208 -171.731964 
L 81.235332 -174.674302 
L 81.644748 -177.61664 
L 82.050223 -180.558977 
L 82.448853 -183.501315 
L 82.838095 -186.443653 
L 83.21579 -189.38599 
L 83.580177 -192.328328 
L 83.929901 -195.270666 
L 84.26401 -198.213003 
L 84.581954 -201.155341 
L 84.883561 -204.097679 
L 85.169022 -207.040016 
L 85.438859 -209.982354 
L 85.693896 -212.924692 
L 85.935217 -215.867029 
L 86.16413 -218.809367 
L 86.38212 -221.751705 
L 86.590806 -224.694042 
L 86.791894 -227.63638 
L 86.98713 -230.578718 
L 87.178261 -233.521055 
L 87.366984 -236.463393 
L 87.554916 -239.405731 
L 87.743551 -242.348068 
L 87.934229 -245.290406 
L 88.128115 -248.232744 
L 88.326167 -251.175081 
L 88.52913 -254.117419 
L 88.737518 -257.059756 
L 88.951609 -260.002094 
L 89.171448 -262.944432 
L 89.396852 -265.886769 
L 89.627418 -268.829107 
L 89.862536 -271.771445 
L 90.101415 -274.713782 
L 90.343096 -277.65612 
L 90.586481 -280.598458 
L 90.830361 -283.540795 
L 91.073441 -286.483133 
L 91.314368 -289.425471 
L 91.551764 -292.367808 
L 91.78425 -295.310146 
L 92.010475 -298.252484 
L 92.229142 -301.194821 
L 92.439028 -304.137159 
L 92.639009 -307.079497 
L 92.828076 -310.021834 
L 93.005352 -312.964172 
L 93.170102 -315.90651 
L 93.321744 -318.848847 
L 93.459856 -321.791185 
L 93.584178 -324.733523 
L 93.694616 -327.67586 
L 93.791235 -330.618198 
L 93.874256 -333.560536 
L 93.944055 -336.502873 
L 94.001144 -339.445211 
L 94.046171 -342.387549 
L 94.079899 -345.329886 
L 94.103198 -348.272224 
L 94.117028 -351.214562 
L 94.122425 -354.156899 
L 94.120484 -357.099237 
L 94.112341 -360.041575 
L 94.099158 -362.983912 
L 94.082107 -365.92625 
L 94.062352 -368.868588 
L 94.041033 -371.810925 
L 94.019252 -374.753263 
L 93.998057 -377.695601 
L 93.978431 -380.637938 
L 93.961278 -383.580276 
L 93.947413 -386.522614 
L 93.937553 -389.464951 
L 93.932312 -392.407289 
L 93.932194 -395.349627 
L 93.93759 -398.291964 
L 97.62241 -398.291964 
L 97.62241 -398.291964 
L 97.627806 -395.349627 
L 97.627688 -392.407289 
L 97.622447 -389.464951 
L 97.612587 -386.522614 
L 97.598722 -383.580276 
L 97.581569 -380.637938 
L 97.561943 -377.695601 
L 97.540748 -374.753263 
L 97.518967 -371.810925 
L 97.497648 -368.868588 
L 97.477893 -365.92625 
L 97.460842 -362.983912 
L 97.447659 -360.041575 
L 97.439516 -357.099237 
L 97.437575 -354.156899 
L 97.442972 -351.214562 
L 97.456802 -348.272224 
L 97.480101 -345.329886 
L 97.513829 -342.387549 
L 97.558856 -339.445211 
L 97.615945 -336.502873 
L 97.685744 -333.560536 
L 97.768765 -330.618198 
L 97.865384 -327.67586 
L 97.975822 -324.733523 
L 98.100144 -321.791185 
L 98.238256 -318.848847 
L 98.389898 -315.90651 
L 98.554648 -312.964172 
L 98.731924 -310.021834 
L 98.920991 -307.079497 
L 99.120972 -304.137159 
L 99.330858 -301.194821 
L 99.549525 -298.252484 
L 99.77575 -295.310146 
L 100.008236 -292.367808 
L 100.245632 -289.425471 
L 100.486559 -286.483133 
L 100.729639 -283.540795 
L 100.973519 -280.598458 
L 101.216904 -277.65612 
L 101.458585 -274.713782 
L 101.697464 -271.771445 
L 101.932582 -268.829107 
L 102.163148 -265.886769 
L 102.388552 -262.944432 
L 102.608391 -260.002094 
L 102.822482 -257.059756 
L 103.03087 -254.117419 
L 103.233833 -251.175081 
L 103.431885 -248.232744 
L 103.625771 -245.290406 
L 103.816449 -242.348068 
L 104.005084 -239.405731 
L 104.193016 -236.463393 
L 104.381739 -233.521055 
L 104.57287 -230.578718 
L 104.768106 -227.63638 
L 104.969194 -224.694042 
L 105.17788 -221.751705 
L 105.39587 -218.809367 
L 105.624783 -215.867029 
L 105.866104 -212.924692 
L 106.121141 -209.982354 
L 106.390978 -207.040016 
L 106.676439 -204.097679 
L 106.978046 -201.155341 
L 107.29599 -198.213003 
L 107.630099 -195.270666 
L 107.979823 -192.328328 
L 108.34421 -189.38599 
L 108.721905 -186.443653 
L 109.111147 -183.501315 
L 109.509777 -180.558977 
L 109.915252 -177.61664 
L 110.324668 -174.674302 
L 110.734792 -171.731964 
L 111.142099 -168.789627 
L 111.542818 -165.847289 
L 111.932979 -162.904951 
L 112.308476 -159.962614 
L 112.66512 -157.020276 
L 112.998709 -154.077938 
L 113.305089 -151.135601 
L 113.580225 -148.193263 
L 113.820266 -145.250925 
L 114.021609 -142.308588 
L 114.180962 -139.36625 
L 114.295402 -136.423912 
L 114.362427 -133.481575 
L 114.38 -130.539237 
L 114.346589 -127.596899 
L 114.261197 -124.654562 
L 114.12338 -121.712224 
L 113.93326 -118.769886 
L 113.691526 -115.827549 
L 113.399425 -112.885211 
L 113.058745 -109.942873 
L 112.671784 -107.000536 
z
" id="mb0c2a8f1da" style="stroke:#000000;stroke-opacity:0.3;"/>
    </defs>
    <g clip-path="url(#pc8b0c3826a)">
     <use style="fill:#bfbf00;fill-opacity:0.3;stroke:#000000;stroke-opacity:0.3;" x="0.0" xlink:href="#mb0c2a8f1da" y="465.868"/>
    </g>
   </g>
   <g id="PolyCollection_2">
    <defs>
     <path d="M 185.896147 -102.063393 
L 154.463853 -102.063393 
L 153.886126 -105.055601 
L 153.361569 -108.047808 
L 152.896134 -111.040016 
L 152.495092 -114.032224 
L 152.162916 -117.024432 
L 151.903195 -120.01664 
L 151.71856 -123.008847 
L 151.610632 -126.001055 
L 151.58 -128.993263 
L 151.626211 -131.985471 
L 151.747796 -134.977679 
L 151.942316 -137.969886 
L 152.206421 -140.962094 
L 152.535942 -143.954302 
L 152.925993 -146.94651 
L 153.371079 -149.938718 
L 153.865228 -152.930925 
L 154.402118 -155.923133 
L 154.975208 -158.915341 
L 155.57787 -161.907549 
L 156.203512 -164.899756 
L 156.845696 -167.891964 
L 157.498239 -170.884172 
L 158.155307 -173.87638 
L 158.81149 -176.868588 
L 159.461861 -179.860795 
L 160.102021 -182.853003 
L 160.728122 -185.845211 
L 161.336886 -188.837419 
L 161.925593 -191.829627 
L 162.492072 -194.821834 
L 163.034671 -197.814042 
L 163.552221 -200.80625 
L 164.043992 -203.798458 
L 164.509648 -206.790666 
L 164.94919 -209.782873 
L 165.362913 -212.775081 
L 165.751346 -215.767289 
L 166.115208 -218.759497 
L 166.455359 -221.751705 
L 166.772763 -224.743912 
L 167.068448 -227.73612 
L 167.343473 -230.728328 
L 167.598908 -233.720536 
L 167.835808 -236.712744 
L 168.055201 -239.704951 
L 168.258072 -242.697159 
L 168.44536 -245.689367 
L 168.617953 -248.681575 
L 168.776687 -251.673782 
L 168.922342 -254.66599 
L 169.055653 -257.658198 
L 169.177304 -260.650406 
L 169.287935 -263.642614 
L 169.388149 -266.634821 
L 169.478506 -269.627029 
L 169.559536 -272.619237 
L 169.63173 -275.611445 
L 169.695551 -278.603653 
L 169.751429 -281.59586 
L 169.799763 -284.588068 
L 169.840918 -287.580276 
L 169.87523 -290.572484 
L 169.903003 -293.564692 
L 169.924508 -296.556899 
L 169.939985 -299.549107 
L 169.949645 -302.541315 
L 169.953671 -305.533523 
L 169.952223 -308.525731 
L 169.945437 -311.517938 
L 169.93344 -314.510146 
L 169.916345 -317.502354 
L 169.894266 -320.494562 
L 169.867323 -323.486769 
L 169.835648 -326.478977 
L 169.799399 -329.471185 
L 169.758761 -332.463393 
L 169.713963 -335.455601 
L 169.665276 -338.447808 
L 169.613028 -341.440016 
L 169.557601 -344.432224 
L 169.499442 -347.424432 
L 169.439057 -350.41664 
L 169.377015 -353.408847 
L 169.313943 -356.401055 
L 169.25052 -359.393263 
L 169.187471 -362.385471 
L 169.125556 -365.377679 
L 169.065554 -368.369886 
L 169.008256 -371.362094 
L 168.954444 -374.354302 
L 168.904878 -377.34651 
L 168.860278 -380.338718 
L 168.821307 -383.330925 
L 168.788559 -386.323133 
L 168.762539 -389.315341 
L 168.743657 -392.307549 
L 168.73221 -395.299756 
L 168.728384 -398.291964 
L 171.631616 -398.291964 
L 171.631616 -398.291964 
L 171.62779 -395.299756 
L 171.616343 -392.307549 
L 171.597461 -389.315341 
L 171.571441 -386.323133 
L 171.538693 -383.330925 
L 171.499722 -380.338718 
L 171.455122 -377.34651 
L 171.405556 -374.354302 
L 171.351744 -371.362094 
L 171.294446 -368.369886 
L 171.234444 -365.377679 
L 171.172529 -362.385471 
L 171.10948 -359.393263 
L 171.046057 -356.401055 
L 170.982985 -353.408847 
L 170.920943 -350.41664 
L 170.860558 -347.424432 
L 170.802399 -344.432224 
L 170.746972 -341.440016 
L 170.694724 -338.447808 
L 170.646037 -335.455601 
L 170.601239 -332.463393 
L 170.560601 -329.471185 
L 170.524352 -326.478977 
L 170.492677 -323.486769 
L 170.465734 -320.494562 
L 170.443655 -317.502354 
L 170.42656 -314.510146 
L 170.414563 -311.517938 
L 170.407777 -308.525731 
L 170.406329 -305.533523 
L 170.410355 -302.541315 
L 170.420015 -299.549107 
L 170.435492 -296.556899 
L 170.456997 -293.564692 
L 170.48477 -290.572484 
L 170.519082 -287.580276 
L 170.560237 -284.588068 
L 170.608571 -281.59586 
L 170.664449 -278.603653 
L 170.72827 -275.611445 
L 170.800464 -272.619237 
L 170.881494 -269.627029 
L 170.971851 -266.634821 
L 171.072065 -263.642614 
L 171.182696 -260.650406 
L 171.304347 -257.658198 
L 171.437658 -254.66599 
L 171.583313 -251.673782 
L 171.742047 -248.681575 
L 171.91464 -245.689367 
L 172.101928 -242.697159 
L 172.304799 -239.704951 
L 172.524192 -236.712744 
L 172.761092 -233.720536 
L 173.016527 -230.728328 
L 173.291552 -227.73612 
L 173.587237 -224.743912 
L 173.904641 -221.751705 
L 174.244792 -218.759497 
L 174.608654 -215.767289 
L 174.997087 -212.775081 
L 175.41081 -209.782873 
L 175.850352 -206.790666 
L 176.316008 -203.798458 
L 176.807779 -200.80625 
L 177.325329 -197.814042 
L 177.867928 -194.821834 
L 178.434407 -191.829627 
L 179.023114 -188.837419 
L 179.631878 -185.845211 
L 180.257979 -182.853003 
L 180.898139 -179.860795 
L 181.54851 -176.868588 
L 182.204693 -173.87638 
L 182.861761 -170.884172 
L 183.514304 -167.891964 
L 184.156488 -164.899756 
L 184.78213 -161.907549 
L 185.384792 -158.915341 
L 185.957882 -155.923133 
L 186.494772 -152.930925 
L 186.988921 -149.938718 
L 187.434007 -146.94651 
L 187.824058 -143.954302 
L 188.153579 -140.962094 
L 188.417684 -137.969886 
L 188.612204 -134.977679 
L 188.733789 -131.985471 
L 188.78 -128.993263 
L 188.749368 -126.001055 
L 188.64144 -123.008847 
L 188.456805 -120.01664 
L 188.197084 -117.024432 
L 187.864908 -114.032224 
L 187.463866 -111.040016 
L 186.998431 -108.047808 
L 186.473874 -105.055601 
L 185.896147 -102.063393 
z
" id="maa508de5e1" style="stroke:#000000;stroke-opacity:0.3;"/>
    </defs>
    <g clip-path="url(#pc8b0c3826a)">
     <use style="fill:#bfbf00;fill-opacity:0.3;stroke:#000000;stroke-opacity:0.3;" x="0.0" xlink:href="#maa508de5e1" y="465.868"/>
    </g>
   </g>
   <g id="PolyCollection_3">
    <defs>
     <path d="M 261.938939 -102.063393 
L 227.221061 -102.063393 
L 226.931434 -103.709107 
L 226.679128 -105.354821 
L 226.465097 -107.000536 
L 226.289973 -108.64625 
L 226.154066 -110.291964 
L 226.057365 -111.937679 
L 225.99955 -113.583393 
L 225.98 -115.229107 
L 225.997815 -116.874821 
L 226.051831 -118.520536 
L 226.140649 -120.16625 
L 226.262658 -121.811964 
L 226.416062 -123.457679 
L 226.598915 -125.103393 
L 226.809143 -126.749107 
L 227.044582 -128.394821 
L 227.303004 -130.040536 
L 227.582145 -131.68625 
L 227.879734 -133.331964 
L 228.193518 -134.977679 
L 228.521284 -136.623393 
L 228.860878 -138.269107 
L 229.210225 -139.914821 
L 229.56734 -141.560536 
L 229.930343 -143.20625 
L 230.297465 -144.851964 
L 230.667053 -146.497679 
L 231.037577 -148.143393 
L 231.407625 -149.789107 
L 231.775906 -151.434821 
L 232.141247 -153.080536 
L 232.502584 -154.72625 
L 232.858961 -156.371964 
L 233.20952 -158.017679 
L 233.553498 -159.663393 
L 233.890216 -161.309107 
L 234.219073 -162.954821 
L 234.539542 -164.600536 
L 234.851159 -166.24625 
L 235.153523 -167.891964 
L 235.446286 -169.537679 
L 235.729153 -171.183393 
L 236.001878 -172.829107 
L 236.264258 -174.474821 
L 236.516137 -176.120536 
L 236.757401 -177.76625 
L 236.987979 -179.411964 
L 237.207844 -181.057679 
L 237.417011 -182.703393 
L 237.615536 -184.349107 
L 237.803522 -185.994821 
L 237.981114 -187.640536 
L 238.148499 -189.28625 
L 238.305907 -190.931964 
L 238.453612 -192.577679 
L 238.591926 -194.223393 
L 238.721199 -195.869107 
L 238.841818 -197.514821 
L 238.954201 -199.160536 
L 239.058796 -200.80625 
L 239.156075 -202.451964 
L 239.246531 -204.097679 
L 239.330674 -205.743393 
L 239.409023 -207.389107 
L 239.482106 -209.034821 
L 239.550451 -210.680536 
L 239.614583 -212.32625 
L 239.675021 -213.971964 
L 239.732272 -215.617679 
L 239.786829 -217.263393 
L 239.839164 -218.909107 
L 239.889733 -220.554821 
L 239.938964 -222.200536 
L 239.987265 -223.84625 
L 240.035015 -225.491964 
L 240.082567 -227.137679 
L 240.13025 -228.783393 
L 240.178364 -230.429107 
L 240.227185 -232.074821 
L 240.276964 -233.720536 
L 240.327926 -235.36625 
L 240.380276 -237.011964 
L 240.434197 -238.657679 
L 240.489849 -240.303393 
L 240.547377 -241.949107 
L 240.606904 -243.594821 
L 240.668537 -245.240536 
L 240.732365 -246.88625 
L 240.798462 -248.531964 
L 240.866884 -250.177679 
L 240.93767 -251.823393 
L 241.010843 -253.469107 
L 241.086406 -255.114821 
L 241.164348 -256.760536 
L 241.244635 -258.40625 
L 241.327215 -260.051964 
L 241.412017 -261.697679 
L 241.498947 -263.343393 
L 241.587892 -264.989107 
L 247.572108 -264.989107 
L 247.572108 -264.989107 
L 247.661053 -263.343393 
L 247.747983 -261.697679 
L 247.832785 -260.051964 
L 247.915365 -258.40625 
L 247.995652 -256.760536 
L 248.073594 -255.114821 
L 248.149157 -253.469107 
L 248.22233 -251.823393 
L 248.293116 -250.177679 
L 248.361538 -248.531964 
L 248.427635 -246.88625 
L 248.491463 -245.240536 
L 248.553096 -243.594821 
L 248.612623 -241.949107 
L 248.670151 -240.303393 
L 248.725803 -238.657679 
L 248.779724 -237.011964 
L 248.832074 -235.36625 
L 248.883036 -233.720536 
L 248.932815 -232.074821 
L 248.981636 -230.429107 
L 249.02975 -228.783393 
L 249.077433 -227.137679 
L 249.124985 -225.491964 
L 249.172735 -223.84625 
L 249.221036 -222.200536 
L 249.270267 -220.554821 
L 249.320836 -218.909107 
L 249.373171 -217.263393 
L 249.427728 -215.617679 
L 249.484979 -213.971964 
L 249.545417 -212.32625 
L 249.609549 -210.680536 
L 249.677894 -209.034821 
L 249.750977 -207.389107 
L 249.829326 -205.743393 
L 249.913469 -204.097679 
L 250.003925 -202.451964 
L 250.101204 -200.80625 
L 250.205799 -199.160536 
L 250.318182 -197.514821 
L 250.438801 -195.869107 
L 250.568074 -194.223393 
L 250.706388 -192.577679 
L 250.854093 -190.931964 
L 251.011501 -189.28625 
L 251.178886 -187.640536 
L 251.356478 -185.994821 
L 251.544464 -184.349107 
L 251.742989 -182.703393 
L 251.952156 -181.057679 
L 252.172021 -179.411964 
L 252.402599 -177.76625 
L 252.643863 -176.120536 
L 252.895742 -174.474821 
L 253.158122 -172.829107 
L 253.430847 -171.183393 
L 253.713714 -169.537679 
L 254.006477 -167.891964 
L 254.308841 -166.24625 
L 254.620458 -164.600536 
L 254.940927 -162.954821 
L 255.269784 -161.309107 
L 255.606502 -159.663393 
L 255.95048 -158.017679 
L 256.301039 -156.371964 
L 256.657416 -154.72625 
L 257.018753 -153.080536 
L 257.384094 -151.434821 
L 257.752375 -149.789107 
L 258.122423 -148.143393 
L 258.492947 -146.497679 
L 258.862535 -144.851964 
L 259.229657 -143.20625 
L 259.59266 -141.560536 
L 259.949775 -139.914821 
L 260.299122 -138.269107 
L 260.638716 -136.623393 
L 260.966482 -134.977679 
L 261.280266 -133.331964 
L 261.577855 -131.68625 
L 261.856996 -130.040536 
L 262.115418 -128.394821 
L 262.350857 -126.749107 
L 262.561085 -125.103393 
L 262.743938 -123.457679 
L 262.897342 -121.811964 
L 263.019351 -120.16625 
L 263.108169 -118.520536 
L 263.162185 -116.874821 
L 263.18 -115.229107 
L 263.16045 -113.583393 
L 263.102635 -111.937679 
L 263.005934 -110.291964 
L 262.870027 -108.64625 
L 262.694903 -107.000536 
L 262.480872 -105.354821 
L 262.228566 -103.709107 
L 261.938939 -102.063393 
z
" id="m6d50444866" style="stroke:#000000;stroke-opacity:0.3;"/>
    </defs>
    <g clip-path="url(#pc8b0c3826a)">
     <use style="fill:#bfbf00;fill-opacity:0.3;stroke:#000000;stroke-opacity:0.3;" x="0.0" xlink:href="#m6d50444866" y="465.868"/>
    </g>
   </g>
   <g id="PolyCollection_4">
    <defs>
     <path d="M 334.870485 -107.000536 
L 303.089515 -107.000536 
L 302.65817 -108.396899 
L 302.25817 -109.793263 
L 301.891912 -111.189627 
L 301.56156 -112.58599 
L 301.269028 -113.982354 
L 301.015961 -115.378718 
L 300.803722 -116.775081 
L 300.633383 -118.171445 
L 300.505717 -119.567808 
L 300.421199 -120.964172 
L 300.38 -122.360536 
L 300.381996 -123.756899 
L 300.426772 -125.153263 
L 300.513629 -126.549627 
L 300.641598 -127.94599 
L 300.80945 -129.342354 
L 301.015713 -130.738718 
L 301.25869 -132.135081 
L 301.536469 -133.531445 
L 301.846953 -134.927808 
L 302.187868 -136.324172 
L 302.556793 -137.720536 
L 302.951173 -139.116899 
L 303.368346 -140.513263 
L 303.805561 -141.909627 
L 304.260002 -143.30599 
L 304.728807 -144.702354 
L 305.209092 -146.098718 
L 305.697974 -147.495081 
L 306.192588 -148.891445 
L 306.690113 -150.287808 
L 307.187791 -151.684172 
L 307.682947 -153.080536 
L 308.17301 -154.476899 
L 308.655528 -155.873263 
L 309.128194 -157.269627 
L 309.588851 -158.66599 
L 310.03552 -160.062354 
L 310.466401 -161.458718 
L 310.879895 -162.855081 
L 311.274607 -164.251445 
L 311.649359 -165.647808 
L 312.003189 -167.044172 
L 312.335361 -168.440536 
L 312.645359 -169.836899 
L 312.932892 -171.233263 
L 313.197881 -172.629627 
L 313.440461 -174.02599 
L 313.660965 -175.422354 
L 313.859916 -176.818718 
L 314.038012 -178.215081 
L 314.196111 -179.611445 
L 314.335211 -181.007808 
L 314.456439 -182.404172 
L 314.56102 -183.800536 
L 314.650269 -185.196899 
L 314.725558 -186.593263 
L 314.788306 -187.989627 
L 314.839949 -189.38599 
L 314.881928 -190.782354 
L 314.915664 -192.178718 
L 314.942541 -193.575081 
L 314.963892 -194.971445 
L 314.980982 -196.367808 
L 314.994998 -197.764172 
L 315.007033 -199.160536 
L 315.018084 -200.556899 
L 315.029039 -201.953263 
L 315.040679 -203.349627 
L 315.053674 -204.74599 
L 315.068584 -206.142354 
L 315.085859 -207.538718 
L 315.105848 -208.935081 
L 315.128804 -210.331445 
L 315.154888 -211.727808 
L 315.184182 -213.124172 
L 315.2167 -214.520536 
L 315.252394 -215.916899 
L 315.291167 -217.313263 
L 315.332886 -218.709627 
L 315.377387 -220.10599 
L 315.424493 -221.502354 
L 315.474015 -222.898718 
L 315.525768 -224.295081 
L 315.579571 -225.691445 
L 315.635259 -227.087808 
L 315.692684 -228.484172 
L 315.751719 -229.880536 
L 315.812262 -231.276899 
L 315.874233 -232.673263 
L 315.937574 -234.069627 
L 316.00225 -235.46599 
L 316.068243 -236.862354 
L 316.135548 -238.258718 
L 316.204173 -239.655081 
L 316.274127 -241.051445 
L 316.345424 -242.447808 
L 316.418069 -243.844172 
L 316.492061 -245.240536 
L 321.467939 -245.240536 
L 321.467939 -245.240536 
L 321.541931 -243.844172 
L 321.614576 -242.447808 
L 321.685873 -241.051445 
L 321.755827 -239.655081 
L 321.824452 -238.258718 
L 321.891757 -236.862354 
L 321.95775 -235.46599 
L 322.022426 -234.069627 
L 322.085767 -232.673263 
L 322.147738 -231.276899 
L 322.208281 -229.880536 
L 322.267316 -228.484172 
L 322.324741 -227.087808 
L 322.380429 -225.691445 
L 322.434232 -224.295081 
L 322.485985 -222.898718 
L 322.535507 -221.502354 
L 322.582613 -220.10599 
L 322.627114 -218.709627 
L 322.668833 -217.313263 
L 322.707606 -215.916899 
L 322.7433 -214.520536 
L 322.775818 -213.124172 
L 322.805112 -211.727808 
L 322.831196 -210.331445 
L 322.854152 -208.935081 
L 322.874141 -207.538718 
L 322.891416 -206.142354 
L 322.906326 -204.74599 
L 322.919321 -203.349627 
L 322.930961 -201.953263 
L 322.941916 -200.556899 
L 322.952967 -199.160536 
L 322.965002 -197.764172 
L 322.979018 -196.367808 
L 322.996108 -194.971445 
L 323.017459 -193.575081 
L 323.044336 -192.178718 
L 323.078072 -190.782354 
L 323.120051 -189.38599 
L 323.171694 -187.989627 
L 323.234442 -186.593263 
L 323.309731 -185.196899 
L 323.39898 -183.800536 
L 323.503561 -182.404172 
L 323.624789 -181.007808 
L 323.763889 -179.611445 
L 323.921988 -178.215081 
L 324.100084 -176.818718 
L 324.299035 -175.422354 
L 324.519539 -174.02599 
L 324.762119 -172.629627 
L 325.027108 -171.233263 
L 325.314641 -169.836899 
L 325.624639 -168.440536 
L 325.956811 -167.044172 
L 326.310641 -165.647808 
L 326.685393 -164.251445 
L 327.080105 -162.855081 
L 327.493599 -161.458718 
L 327.92448 -160.062354 
L 328.371149 -158.66599 
L 328.831806 -157.269627 
L 329.304472 -155.873263 
L 329.78699 -154.476899 
L 330.277053 -153.080536 
L 330.772209 -151.684172 
L 331.269887 -150.287808 
L 331.767412 -148.891445 
L 332.262026 -147.495081 
L 332.750908 -146.098718 
L 333.231193 -144.702354 
L 333.699998 -143.30599 
L 334.154439 -141.909627 
L 334.591654 -140.513263 
L 335.008827 -139.116899 
L 335.403207 -137.720536 
L 335.772132 -136.324172 
L 336.113047 -134.927808 
L 336.423531 -133.531445 
L 336.70131 -132.135081 
L 336.944287 -130.738718 
L 337.15055 -129.342354 
L 337.318402 -127.94599 
L 337.446371 -126.549627 
L 337.533228 -125.153263 
L 337.578004 -123.756899 
L 337.58 -122.360536 
L 337.538801 -120.964172 
L 337.454283 -119.567808 
L 337.326617 -118.171445 
L 337.156278 -116.775081 
L 336.944039 -115.378718 
L 336.690972 -113.982354 
L 336.39844 -112.58599 
L 336.068088 -111.189627 
L 335.70183 -109.793263 
L 335.30183 -108.396899 
L 334.870485 -107.000536 
z
" id="m99bc375a7a" style="stroke:#000000;stroke-opacity:0.3;"/>
    </defs>
    <g clip-path="url(#pc8b0c3826a)">
     <use style="fill:#bfbf00;fill-opacity:0.3;stroke:#000000;stroke-opacity:0.3;" x="0.0" xlink:href="#m99bc375a7a" y="465.868"/>
    </g>
   </g>
   <g id="PolyCollection_5">
    <defs>
     <path d="M 408.310258 -102.063393 
L 378.449742 -102.063393 
L 378.055354 -103.709107 
L 377.679562 -105.354821 
L 377.323642 -107.000536 
L 376.988733 -108.64625 
L 376.675831 -110.291964 
L 376.385783 -111.937679 
L 376.119277 -113.583393 
L 375.876843 -115.229107 
L 375.658852 -116.874821 
L 375.46551 -118.520536 
L 375.296864 -120.16625 
L 375.152803 -121.811964 
L 375.033064 -123.457679 
L 374.937234 -125.103393 
L 374.86476 -126.749107 
L 374.814957 -128.394821 
L 374.787012 -130.040536 
L 374.78 -131.68625 
L 374.792892 -133.331964 
L 374.824564 -134.977679 
L 374.873815 -136.623393 
L 374.939371 -138.269107 
L 375.019905 -139.914821 
L 375.114049 -141.560536 
L 375.220402 -143.20625 
L 375.337551 -144.851964 
L 375.464078 -146.497679 
L 375.598578 -148.143393 
L 375.739669 -149.789107 
L 375.886005 -151.434821 
L 376.036291 -153.080536 
L 376.189289 -154.72625 
L 376.343835 -156.371964 
L 376.498842 -158.017679 
L 376.653315 -159.663393 
L 376.806354 -161.309107 
L 376.957161 -162.954821 
L 377.105047 -164.600536 
L 377.249434 -166.24625 
L 377.389853 -167.891964 
L 377.525951 -169.537679 
L 377.657485 -171.183393 
L 377.78432 -172.829107 
L 377.906426 -174.474821 
L 378.023868 -176.120536 
L 378.136805 -177.76625 
L 378.245477 -179.411964 
L 378.350197 -181.057679 
L 378.451341 -182.703393 
L 378.549339 -184.349107 
L 378.644662 -185.994821 
L 378.737811 -187.640536 
L 378.829307 -189.28625 
L 378.919683 -190.931964 
L 379.009467 -192.577679 
L 379.099182 -194.223393 
L 379.189329 -195.869107 
L 379.280387 -197.514821 
L 379.372802 -199.160536 
L 379.466988 -200.80625 
L 379.563316 -202.451964 
L 379.66212 -204.097679 
L 379.763692 -205.743393 
L 379.868285 -207.389107 
L 379.97611 -209.034821 
L 380.087347 -210.680536 
L 380.20214 -212.32625 
L 380.320609 -213.971964 
L 380.442847 -215.617679 
L 380.568934 -217.263393 
L 380.698932 -218.909107 
L 380.832899 -220.554821 
L 380.970887 -222.200536 
L 381.11295 -223.84625 
L 381.259145 -225.491964 
L 381.409538 -227.137679 
L 381.564199 -228.783393 
L 381.723211 -230.429107 
L 381.886664 -232.074821 
L 382.054655 -233.720536 
L 382.22729 -235.36625 
L 382.404673 -237.011964 
L 382.586911 -238.657679 
L 382.774103 -240.303393 
L 382.96634 -241.949107 
L 383.163697 -243.594821 
L 383.366228 -245.240536 
L 383.573961 -246.88625 
L 383.786894 -248.531964 
L 384.004988 -250.177679 
L 384.228163 -251.823393 
L 384.456296 -253.469107 
L 384.689217 -255.114821 
L 384.926705 -256.760536 
L 385.16849 -258.40625 
L 385.414249 -260.051964 
L 385.663609 -261.697679 
L 385.916149 -263.343393 
L 386.1714 -264.989107 
L 400.5886 -264.989107 
L 400.5886 -264.989107 
L 400.843851 -263.343393 
L 401.096391 -261.697679 
L 401.345751 -260.051964 
L 401.59151 -258.40625 
L 401.833295 -256.760536 
L 402.070783 -255.114821 
L 402.303704 -253.469107 
L 402.531837 -251.823393 
L 402.755012 -250.177679 
L 402.973106 -248.531964 
L 403.186039 -246.88625 
L 403.393772 -245.240536 
L 403.596303 -243.594821 
L 403.79366 -241.949107 
L 403.985897 -240.303393 
L 404.173089 -238.657679 
L 404.355327 -237.011964 
L 404.53271 -235.36625 
L 404.705345 -233.720536 
L 404.873336 -232.074821 
L 405.036789 -230.429107 
L 405.195801 -228.783393 
L 405.350462 -227.137679 
L 405.500855 -225.491964 
L 405.64705 -223.84625 
L 405.789113 -222.200536 
L 405.927101 -220.554821 
L 406.061068 -218.909107 
L 406.191066 -217.263393 
L 406.317153 -215.617679 
L 406.439391 -213.971964 
L 406.55786 -212.32625 
L 406.672653 -210.680536 
L 406.78389 -209.034821 
L 406.891715 -207.389107 
L 406.996308 -205.743393 
L 407.09788 -204.097679 
L 407.196684 -202.451964 
L 407.293012 -200.80625 
L 407.387198 -199.160536 
L 407.479613 -197.514821 
L 407.570671 -195.869107 
L 407.660818 -194.223393 
L 407.750533 -192.577679 
L 407.840317 -190.931964 
L 407.930693 -189.28625 
L 408.022189 -187.640536 
L 408.115338 -185.994821 
L 408.210661 -184.349107 
L 408.308659 -182.703393 
L 408.409803 -181.057679 
L 408.514523 -179.411964 
L 408.623195 -177.76625 
L 408.736132 -176.120536 
L 408.853574 -174.474821 
L 408.97568 -172.829107 
L 409.102515 -171.183393 
L 409.234049 -169.537679 
L 409.370147 -167.891964 
L 409.510566 -166.24625 
L 409.654953 -164.600536 
L 409.802839 -162.954821 
L 409.953646 -161.309107 
L 410.106685 -159.663393 
L 410.261158 -158.017679 
L 410.416165 -156.371964 
L 410.570711 -154.72625 
L 410.723709 -153.080536 
L 410.873995 -151.434821 
L 411.020331 -149.789107 
L 411.161422 -148.143393 
L 411.295922 -146.497679 
L 411.422449 -144.851964 
L 411.539598 -143.20625 
L 411.645951 -141.560536 
L 411.740095 -139.914821 
L 411.820629 -138.269107 
L 411.886185 -136.623393 
L 411.935436 -134.977679 
L 411.967108 -133.331964 
L 411.98 -131.68625 
L 411.972988 -130.040536 
L 411.945043 -128.394821 
L 411.89524 -126.749107 
L 411.822766 -125.103393 
L 411.726936 -123.457679 
L 411.607197 -121.811964 
L 411.463136 -120.16625 
L 411.29449 -118.520536 
L 411.101148 -116.874821 
L 410.883157 -115.229107 
L 410.640723 -113.583393 
L 410.374217 -111.937679 
L 410.084169 -110.291964 
L 409.771267 -108.64625 
L 409.436358 -107.000536 
L 409.080438 -105.354821 
L 408.704646 -103.709107 
L 408.310258 -102.063393 
z
" id="m36c43e7903" style="stroke:#000000;stroke-opacity:0.3;"/>
    </defs>
    <g clip-path="url(#pc8b0c3826a)">
     <use style="fill:#bfbf00;fill-opacity:0.3;stroke:#000000;stroke-opacity:0.3;" x="0.0" xlink:href="#m36c43e7903" y="465.868"/>
    </g>
   </g>
   <g id="PolyCollection_6">
    <defs>
     <path d="M 482.635881 -102.063393 
L 452.924119 -102.063393 
L 452.403363 -104.207808 
L 451.914164 -106.352224 
L 451.459678 -108.49664 
L 451.042659 -110.641055 
L 450.66541 -112.785471 
L 450.329739 -114.929886 
L 450.036932 -117.074302 
L 449.787724 -119.218718 
L 449.582296 -121.363133 
L 449.420267 -123.507549 
L 449.300711 -125.651964 
L 449.222181 -127.79638 
L 449.182738 -129.940795 
L 449.18 -132.085211 
L 449.211194 -134.229627 
L 449.273218 -136.374042 
L 449.362709 -138.518458 
L 449.47612 -140.662873 
L 449.609791 -142.807289 
L 449.760033 -144.951705 
L 449.923203 -147.09612 
L 450.095781 -149.240536 
L 450.274441 -151.384951 
L 450.456119 -153.529367 
L 450.638068 -155.673782 
L 450.81791 -157.818198 
L 450.993678 -159.962614 
L 451.163842 -162.107029 
L 451.327328 -164.251445 
L 451.483527 -166.39586 
L 451.632288 -168.540276 
L 451.773903 -170.684692 
L 451.909083 -172.829107 
L 452.038917 -174.973523 
L 452.164835 -177.117938 
L 452.28855 -179.262354 
L 452.412006 -181.406769 
L 452.537315 -183.551185 
L 452.666695 -185.695601 
L 452.802408 -187.840016 
L 452.94669 -189.984432 
L 453.101702 -192.128847 
L 453.269462 -194.273263 
L 453.451803 -196.417679 
L 453.650322 -198.562094 
L 453.866345 -200.70651 
L 454.100894 -202.850925 
L 454.354667 -204.995341 
L 454.628023 -207.139756 
L 454.920973 -209.284172 
L 455.233186 -211.428588 
L 455.563996 -213.573003 
L 455.912415 -215.717419 
L 456.277159 -217.861834 
L 456.656671 -220.00625 
L 457.049155 -222.150666 
L 457.452609 -224.295081 
L 457.864861 -226.439497 
L 458.283608 -228.583912 
L 458.706455 -230.728328 
L 459.130956 -232.872744 
L 459.554646 -235.017159 
L 459.975085 -237.161575 
L 460.389887 -239.30599 
L 460.796755 -241.450406 
L 461.193508 -243.594821 
L 461.578108 -245.739237 
L 461.948686 -247.883653 
L 462.303558 -250.028068 
L 462.64124 -252.172484 
L 462.960467 -254.316899 
L 463.260196 -256.461315 
L 463.539617 -258.605731 
L 463.798154 -260.750146 
L 464.035465 -262.894562 
L 464.251441 -265.038977 
L 464.446197 -267.183393 
L 464.620069 -269.327808 
L 464.773598 -271.472224 
L 464.907522 -273.61664 
L 465.022757 -275.761055 
L 465.120384 -277.905471 
L 465.201627 -280.049886 
L 465.267833 -282.194302 
L 465.320454 -284.338718 
L 465.361022 -286.483133 
L 465.391125 -288.627549 
L 465.412387 -290.771964 
L 465.426441 -292.91638 
L 465.434908 -295.060795 
L 465.439374 -297.205211 
L 465.441367 -299.349627 
L 465.442338 -301.494042 
L 465.443645 -303.638458 
L 465.44653 -305.782873 
L 465.45211 -307.927289 
L 465.461365 -310.071705 
L 465.475127 -312.21612 
L 465.494075 -314.360536 
L 470.065925 -314.360536 
L 470.065925 -314.360536 
L 470.084873 -312.21612 
L 470.098635 -310.071705 
L 470.10789 -307.927289 
L 470.11347 -305.782873 
L 470.116355 -303.638458 
L 470.117662 -301.494042 
L 470.118633 -299.349627 
L 470.120626 -297.205211 
L 470.125092 -295.060795 
L 470.133559 -292.91638 
L 470.147613 -290.771964 
L 470.168875 -288.627549 
L 470.198978 -286.483133 
L 470.239546 -284.338718 
L 470.292167 -282.194302 
L 470.358373 -280.049886 
L 470.439616 -277.905471 
L 470.537243 -275.761055 
L 470.652478 -273.61664 
L 470.786402 -271.472224 
L 470.939931 -269.327808 
L 471.113803 -267.183393 
L 471.308559 -265.038977 
L 471.524535 -262.894562 
L 471.761846 -260.750146 
L 472.020383 -258.605731 
L 472.299804 -256.461315 
L 472.599533 -254.316899 
L 472.91876 -252.172484 
L 473.256442 -250.028068 
L 473.611314 -247.883653 
L 473.981892 -245.739237 
L 474.366492 -243.594821 
L 474.763245 -241.450406 
L 475.170113 -239.30599 
L 475.584915 -237.161575 
L 476.005354 -235.017159 
L 476.429044 -232.872744 
L 476.853545 -230.728328 
L 477.276392 -228.583912 
L 477.695139 -226.439497 
L 478.107391 -224.295081 
L 478.510845 -222.150666 
L 478.903329 -220.00625 
L 479.282841 -217.861834 
L 479.647585 -215.717419 
L 479.996004 -213.573003 
L 480.326814 -211.428588 
L 480.639027 -209.284172 
L 480.931977 -207.139756 
L 481.205333 -204.995341 
L 481.459106 -202.850925 
L 481.693655 -200.70651 
L 481.909678 -198.562094 
L 482.108197 -196.417679 
L 482.290538 -194.273263 
L 482.458298 -192.128847 
L 482.61331 -189.984432 
L 482.757592 -187.840016 
L 482.893305 -185.695601 
L 483.022685 -183.551185 
L 483.147994 -181.406769 
L 483.27145 -179.262354 
L 483.395165 -177.117938 
L 483.521083 -174.973523 
L 483.650917 -172.829107 
L 483.786097 -170.684692 
L 483.927712 -168.540276 
L 484.076473 -166.39586 
L 484.232672 -164.251445 
L 484.396158 -162.107029 
L 484.566322 -159.962614 
L 484.74209 -157.818198 
L 484.921932 -155.673782 
L 485.103881 -153.529367 
L 485.285559 -151.384951 
L 485.464219 -149.240536 
L 485.636797 -147.09612 
L 485.799967 -144.951705 
L 485.950209 -142.807289 
L 486.08388 -140.662873 
L 486.197291 -138.518458 
L 486.286782 -136.374042 
L 486.348806 -134.229627 
L 486.38 -132.085211 
L 486.377262 -129.940795 
L 486.337819 -127.79638 
L 486.259289 -125.651964 
L 486.139733 -123.507549 
L 485.977704 -121.363133 
L 485.772276 -119.218718 
L 485.523068 -117.074302 
L 485.230261 -114.929886 
L 484.89459 -112.785471 
L 484.517341 -110.641055 
L 484.100322 -108.49664 
L 483.645836 -106.352224 
L 483.156637 -104.207808 
L 482.635881 -102.063393 
z
" id="ma29283183a" style="stroke:#000000;stroke-opacity:0.3;"/>
    </defs>
    <g clip-path="url(#pc8b0c3826a)">
     <use style="fill:#bfbf00;fill-opacity:0.3;stroke:#000000;stroke-opacity:0.3;" x="0.0" xlink:href="#ma29283183a" y="465.868"/>
    </g>
   </g>
   <g id="PolyCollection_7">
    <defs>
     <path d="M 558.626761 -102.063393 
L 525.733239 -102.063393 
L 525.392232 -104.207808 
L 525.077424 -106.352224 
L 524.790171 -108.49664 
L 524.531662 -110.641055 
L 524.302907 -112.785471 
L 524.104734 -114.929886 
L 523.93778 -117.074302 
L 523.802487 -119.218718 
L 523.699103 -121.363133 
L 523.627684 -123.507549 
L 523.588091 -125.651964 
L 523.58 -127.79638 
L 523.602906 -129.940795 
L 523.656132 -132.085211 
L 523.73884 -134.229627 
L 523.85004 -136.374042 
L 523.988603 -138.518458 
L 524.153278 -140.662873 
L 524.342701 -142.807289 
L 524.555413 -144.951705 
L 524.789876 -147.09612 
L 525.044486 -149.240536 
L 525.317593 -151.384951 
L 525.607508 -153.529367 
L 525.912527 -155.673782 
L 526.230939 -157.818198 
L 526.561042 -159.962614 
L 526.901156 -162.107029 
L 527.249631 -164.251445 
L 527.60486 -166.39586 
L 527.96529 -168.540276 
L 528.329424 -170.684692 
L 528.695834 -172.829107 
L 529.063162 -174.973523 
L 529.430127 -177.117938 
L 529.795525 -179.262354 
L 530.158234 -181.406769 
L 530.517213 -183.551185 
L 530.871502 -185.695601 
L 531.22022 -187.840016 
L 531.562566 -189.984432 
L 531.897813 -192.128847 
L 532.225308 -194.273263 
L 532.544468 -196.417679 
L 532.854775 -198.562094 
L 533.155773 -200.70651 
L 533.447067 -202.850925 
L 533.728312 -204.995341 
L 533.999217 -207.139756 
L 534.259539 -209.284172 
L 534.509076 -211.428588 
L 534.747669 -213.573003 
L 534.975197 -215.717419 
L 535.191575 -217.861834 
L 535.396754 -220.00625 
L 535.590714 -222.150666 
L 535.77347 -224.295081 
L 535.945065 -226.439497 
L 536.105572 -228.583912 
L 536.255097 -230.728328 
L 536.393771 -232.872744 
L 536.521757 -235.017159 
L 536.639249 -237.161575 
L 536.746469 -239.30599 
L 536.843671 -241.450406 
L 536.931141 -243.594821 
L 537.009194 -245.739237 
L 537.078179 -247.883653 
L 537.138476 -250.028068 
L 537.190497 -252.172484 
L 537.234686 -254.316899 
L 537.271516 -256.461315 
L 537.301492 -258.605731 
L 537.325148 -260.750146 
L 537.343044 -262.894562 
L 537.355767 -265.038977 
L 537.363927 -267.183393 
L 537.368154 -269.327808 
L 537.369095 -271.472224 
L 537.367415 -273.61664 
L 537.363786 -275.761055 
L 537.358888 -277.905471 
L 537.353404 -280.049886 
L 537.348013 -282.194302 
L 537.343387 -284.338718 
L 537.340188 -286.483133 
L 537.339057 -288.627549 
L 537.340614 -290.771964 
L 537.345452 -292.91638 
L 537.354129 -295.060795 
L 537.367165 -297.205211 
L 537.385037 -299.349627 
L 537.408176 -301.494042 
L 537.436959 -303.638458 
L 537.471709 -305.782873 
L 537.512689 -307.927289 
L 537.560104 -310.071705 
L 537.614092 -312.21612 
L 537.67473 -314.360536 
L 546.68527 -314.360536 
L 546.68527 -314.360536 
L 546.745908 -312.21612 
L 546.799896 -310.071705 
L 546.847311 -307.927289 
L 546.888291 -305.782873 
L 546.923041 -303.638458 
L 546.951824 -301.494042 
L 546.974963 -299.349627 
L 546.992835 -297.205211 
L 547.005871 -295.060795 
L 547.014548 -292.91638 
L 547.019386 -290.771964 
L 547.020943 -288.627549 
L 547.019812 -286.483133 
L 547.016613 -284.338718 
L 547.011987 -282.194302 
L 547.006596 -280.049886 
L 547.001112 -277.905471 
L 546.996214 -275.761055 
L 546.992585 -273.61664 
L 546.990905 -271.472224 
L 546.991846 -269.327808 
L 546.996073 -267.183393 
L 547.004233 -265.038977 
L 547.016956 -262.894562 
L 547.034852 -260.750146 
L 547.058508 -258.605731 
L 547.088484 -256.461315 
L 547.125314 -254.316899 
L 547.169503 -252.172484 
L 547.221524 -250.028068 
L 547.281821 -247.883653 
L 547.350806 -245.739237 
L 547.428859 -243.594821 
L 547.516329 -241.450406 
L 547.613531 -239.30599 
L 547.720751 -237.161575 
L 547.838243 -235.017159 
L 547.966229 -232.872744 
L 548.104903 -230.728328 
L 548.254428 -228.583912 
L 548.414935 -226.439497 
L 548.58653 -224.295081 
L 548.769286 -222.150666 
L 548.963246 -220.00625 
L 549.168425 -217.861834 
L 549.384803 -215.717419 
L 549.612331 -213.573003 
L 549.850924 -211.428588 
L 550.100461 -209.284172 
L 550.360783 -207.139756 
L 550.631688 -204.995341 
L 550.912933 -202.850925 
L 551.204227 -200.70651 
L 551.505225 -198.562094 
L 551.815532 -196.417679 
L 552.134692 -194.273263 
L 552.462187 -192.128847 
L 552.797434 -189.984432 
L 553.13978 -187.840016 
L 553.488498 -185.695601 
L 553.842787 -183.551185 
L 554.201766 -181.406769 
L 554.564475 -179.262354 
L 554.929873 -177.117938 
L 555.296838 -174.973523 
L 555.664166 -172.829107 
L 556.030576 -170.684692 
L 556.39471 -168.540276 
L 556.75514 -166.39586 
L 557.110369 -164.251445 
L 557.458844 -162.107029 
L 557.798958 -159.962614 
L 558.129061 -157.818198 
L 558.447473 -155.673782 
L 558.752492 -153.529367 
L 559.042407 -151.384951 
L 559.315514 -149.240536 
L 559.570124 -147.09612 
L 559.804587 -144.951705 
L 560.017299 -142.807289 
L 560.206722 -140.662873 
L 560.371397 -138.518458 
L 560.50996 -136.374042 
L 560.62116 -134.229627 
L 560.703868 -132.085211 
L 560.757094 -129.940795 
L 560.78 -127.79638 
L 560.771909 -125.651964 
L 560.732316 -123.507549 
L 560.660897 -121.363133 
L 560.557513 -119.218718 
L 560.42222 -117.074302 
L 560.255266 -114.929886 
L 560.057093 -112.785471 
L 559.828338 -110.641055 
L 559.569829 -108.49664 
L 559.282576 -106.352224 
L 558.967768 -104.207808 
L 558.626761 -102.063393 
z
" id="m4eb12322ac" style="stroke:#000000;stroke-opacity:0.3;"/>
    </defs>
    <g clip-path="url(#pc8b0c3826a)">
     <use style="fill:#bfbf00;fill-opacity:0.3;stroke:#000000;stroke-opacity:0.3;" x="0.0" xlink:href="#m4eb12322ac" y="465.868"/>
    </g>
   </g>
   <g id="PolyCollection_8">
    <defs>
     <path d="M 633.603078 -102.063393 
L 599.556922 -102.063393 
L 599.260346 -103.609367 
L 598.99251 -105.155341 
L 598.754552 -106.701315 
L 598.547422 -108.247289 
L 598.371876 -109.793263 
L 598.228465 -111.339237 
L 598.117535 -112.885211 
L 598.039226 -114.431185 
L 597.993471 -115.977159 
L 597.98 -117.523133 
L 597.998345 -119.069107 
L 598.047849 -120.615081 
L 598.127673 -122.161055 
L 598.236809 -123.707029 
L 598.37409 -125.253003 
L 598.538209 -126.798977 
L 598.727729 -128.344951 
L 598.941103 -129.890925 
L 599.176689 -131.436899 
L 599.432768 -132.982873 
L 599.70756 -134.528847 
L 599.999245 -136.074821 
L 600.305975 -137.620795 
L 600.625897 -139.166769 
L 600.957161 -140.712744 
L 601.297944 -142.258718 
L 601.646457 -143.804692 
L 602.000958 -145.350666 
L 602.35977 -146.89664 
L 602.721282 -148.442614 
L 603.083964 -149.988588 
L 603.446371 -151.534562 
L 603.807149 -153.080536 
L 604.16504 -154.62651 
L 604.518882 -156.172484 
L 604.867613 -157.718458 
L 605.210268 -159.264432 
L 605.545978 -160.810406 
L 605.873971 -162.35638 
L 606.193564 -163.902354 
L 606.504159 -165.448328 
L 606.805242 -166.994302 
L 607.096375 -168.540276 
L 607.377188 -170.08625 
L 607.647376 -171.632224 
L 607.906695 -173.178198 
L 608.154949 -174.724172 
L 608.391992 -176.270146 
L 608.617717 -177.81612 
L 608.832055 -179.362094 
L 609.034969 -180.908068 
L 609.226448 -182.454042 
L 609.406509 -184.000016 
L 609.57519 -185.54599 
L 609.732551 -187.091964 
L 609.878671 -188.637938 
L 610.01365 -190.183912 
L 610.137608 -191.729886 
L 610.250684 -193.27586 
L 610.353042 -194.821834 
L 610.444868 -196.367808 
L 610.526377 -197.913782 
L 610.59781 -199.459756 
L 610.659441 -201.005731 
L 610.711578 -202.551705 
L 610.754564 -204.097679 
L 610.788783 -205.643653 
L 610.814657 -207.189627 
L 610.832651 -208.735601 
L 610.843272 -210.281575 
L 610.847073 -211.827549 
L 610.844645 -213.373523 
L 610.836626 -214.919497 
L 610.823689 -216.465471 
L 610.806548 -218.011445 
L 610.785949 -219.557419 
L 610.762667 -221.103393 
L 610.737504 -222.649367 
L 610.71128 -224.195341 
L 610.684825 -225.741315 
L 610.65898 -227.287289 
L 610.63458 -228.833263 
L 610.612454 -230.379237 
L 610.593414 -231.925211 
L 610.578247 -233.471185 
L 610.567707 -235.017159 
L 610.562508 -236.563133 
L 610.563317 -238.109107 
L 610.570747 -239.655081 
L 610.585348 -241.201055 
L 610.607606 -242.747029 
L 610.637932 -244.293003 
L 610.676664 -245.838977 
L 610.724058 -247.384951 
L 610.78029 -248.930925 
L 610.845453 -250.476899 
L 610.919555 -252.022873 
L 611.002523 -253.568847 
L 611.094203 -255.114821 
L 622.065797 -255.114821 
L 622.065797 -255.114821 
L 622.157477 -253.568847 
L 622.240445 -252.022873 
L 622.314547 -250.476899 
L 622.37971 -248.930925 
L 622.435942 -247.384951 
L 622.483336 -245.838977 
L 622.522068 -244.293003 
L 622.552394 -242.747029 
L 622.574652 -241.201055 
L 622.589253 -239.655081 
L 622.596683 -238.109107 
L 622.597492 -236.563133 
L 622.592293 -235.017159 
L 622.581753 -233.471185 
L 622.566586 -231.925211 
L 622.547546 -230.379237 
L 622.52542 -228.833263 
L 622.50102 -227.287289 
L 622.475175 -225.741315 
L 622.44872 -224.195341 
L 622.422496 -222.649367 
L 622.397333 -221.103393 
L 622.374051 -219.557419 
L 622.353452 -218.011445 
L 622.336311 -216.465471 
L 622.323374 -214.919497 
L 622.315355 -213.373523 
L 622.312927 -211.827549 
L 622.316728 -210.281575 
L 622.327349 -208.735601 
L 622.345343 -207.189627 
L 622.371217 -205.643653 
L 622.405436 -204.097679 
L 622.448422 -202.551705 
L 622.500559 -201.005731 
L 622.56219 -199.459756 
L 622.633623 -197.913782 
L 622.715132 -196.367808 
L 622.806958 -194.821834 
L 622.909316 -193.27586 
L 623.022392 -191.729886 
L 623.14635 -190.183912 
L 623.281329 -188.637938 
L 623.427449 -187.091964 
L 623.58481 -185.54599 
L 623.753491 -184.000016 
L 623.933552 -182.454042 
L 624.125031 -180.908068 
L 624.327945 -179.362094 
L 624.542283 -177.81612 
L 624.768008 -176.270146 
L 625.005051 -174.724172 
L 625.253305 -173.178198 
L 625.512624 -171.632224 
L 625.782812 -170.08625 
L 626.063625 -168.540276 
L 626.354758 -166.994302 
L 626.655841 -165.448328 
L 626.966436 -163.902354 
L 627.286029 -162.35638 
L 627.614022 -160.810406 
L 627.949732 -159.264432 
L 628.292387 -157.718458 
L 628.641118 -156.172484 
L 628.99496 -154.62651 
L 629.352851 -153.080536 
L 629.713629 -151.534562 
L 630.076036 -149.988588 
L 630.438718 -148.442614 
L 630.80023 -146.89664 
L 631.159042 -145.350666 
L 631.513543 -143.804692 
L 631.862056 -142.258718 
L 632.202839 -140.712744 
L 632.534103 -139.166769 
L 632.854025 -137.620795 
L 633.160755 -136.074821 
L 633.45244 -134.528847 
L 633.727232 -132.982873 
L 633.983311 -131.436899 
L 634.218897 -129.890925 
L 634.432271 -128.344951 
L 634.621791 -126.798977 
L 634.78591 -125.253003 
L 634.923191 -123.707029 
L 635.032327 -122.161055 
L 635.112151 -120.615081 
L 635.161655 -119.069107 
L 635.18 -117.523133 
L 635.166529 -115.977159 
L 635.120774 -114.431185 
L 635.042465 -112.885211 
L 634.931535 -111.339237 
L 634.788124 -109.793263 
L 634.612578 -108.247289 
L 634.405448 -106.701315 
L 634.16749 -105.155341 
L 633.899654 -103.609367 
L 633.603078 -102.063393 
z
" id="m1d9c0e59a0" style="stroke:#000000;stroke-opacity:0.3;"/>
    </defs>
    <g clip-path="url(#pc8b0c3826a)">
     <use style="fill:#bfbf00;fill-opacity:0.3;stroke:#000000;stroke-opacity:0.3;" x="0.0" xlink:href="#m1d9c0e59a0" y="465.868"/>
    </g>
   </g>
   <g id="LineCollection_1">
    <path clip-path="url(#pc8b0c3826a)" d="M 86.48 324.307464 
L 105.08 324.307464 
" style="fill:none;stroke:#ff0000;"/>
    <path clip-path="url(#pc8b0c3826a)" d="M 160.88 336.650321 
L 179.48 336.650321 
" style="fill:none;stroke:#ff0000;"/>
    <path clip-path="url(#pc8b0c3826a)" d="M 235.28 344.056036 
L 253.88 344.056036 
" style="fill:none;stroke:#ff0000;"/>
    <path clip-path="url(#pc8b0c3826a)" d="M 309.68 336.650321 
L 328.28 336.650321 
" style="fill:none;stroke:#ff0000;"/>
    <path clip-path="url(#pc8b0c3826a)" d="M 384.08 311.964607 
L 402.68 311.964607 
" style="fill:none;stroke:#ff0000;"/>
    <path clip-path="url(#pc8b0c3826a)" d="M 458.48 316.90175 
L 477.08 316.90175 
" style="fill:none;stroke:#ff0000;"/>
    <path clip-path="url(#pc8b0c3826a)" d="M 532.88 329.244607 
L 551.48 329.244607 
" style="fill:none;stroke:#ff0000;"/>
    <path clip-path="url(#pc8b0c3826a)" d="M 607.28 339.118893 
L 625.88 339.118893 
" style="fill:none;stroke:#ff0000;"/>
   </g>
   <g id="patch_3">
    <path d="M 21.38 368.74175 
L 690.98 368.74175 
" style="fill:none;stroke:#000000;stroke-linecap:square;stroke-linejoin:miter;"/>
   </g>
   <g id="patch_4">
    <path d="M 690.98 368.74175 
L 690.98 23.14175 
" style="fill:none;stroke:#000000;stroke-linecap:square;stroke-linejoin:miter;"/>
   </g>
   <g id="patch_5">
    <path d="M 21.38 368.74175 
L 21.38 23.14175 
" style="fill:none;stroke:#000000;stroke-linecap:square;stroke-linejoin:miter;"/>
   </g>
   <g id="patch_6">
    <path d="M 21.38 23.14175 
L 690.98 23.14175 
" style="fill:none;stroke:#000000;stroke-linecap:square;stroke-linejoin:miter;"/>
   </g>
   <g id="matplotlib.axis_1">
    <g id="xtick_1">
     <g id="line2d_1">
      <defs>
       <path d="M 0 0 
L 0 -4 
" id="m15b6b641a5" style="stroke:#000000;stroke-width:0.5;"/>
      </defs>
      <g>
       <use style="stroke:#000000;stroke-width:0.5;" x="95.78" xlink:href="#m15b6b641a5" y="368.74175"/>
      </g>
     </g>
     <g id="line2d_2">
      <defs>
       <path d="M 0 0 
L 0 4 
" id="mf20aa4b20d" style="stroke:#000000;stroke-width:0.5;"/>
      </defs>
      <g>
       <use style="stroke:#000000;stroke-width:0.5;" x="95.78" xlink:href="#mf20aa4b20d" y="23.14175"/>
      </g>
     </g>
     <g id="text_1">
      <!-- Defector -->
      <defs>
       <path d="M 19.671875 64.796875 
L 19.671875 8.109375 
L 31.59375 8.109375 
Q 46.6875 8.109375 53.6875 14.9375 
Q 60.6875 21.78125 60.6875 36.53125 
Q 60.6875 51.171875 53.6875 57.984375 
Q 46.6875 64.796875 31.59375 64.796875 
z
M 9.8125 72.90625 
L 30.078125 72.90625 
Q 51.265625 72.90625 61.171875 64.09375 
Q 71.09375 55.28125 71.09375 36.53125 
Q 71.09375 17.671875 61.125 8.828125 
Q 51.171875 0 30.078125 0 
L 9.8125 0 
z
" id="BitstreamVeraSans-Roman-44"/>
       <path d="M 18.3125 70.21875 
L 18.3125 54.6875 
L 36.8125 54.6875 
L 36.8125 47.703125 
L 18.3125 47.703125 
L 18.3125 18.015625 
Q 18.3125 11.328125 20.140625 9.421875 
Q 21.96875 7.515625 27.59375 7.515625 
L 36.8125 7.515625 
L 36.8125 0 
L 27.59375 0 
Q 17.1875 0 13.234375 3.875 
Q 9.28125 7.765625 9.28125 18.015625 
L 9.28125 47.703125 
L 2.6875 47.703125 
L 2.6875 54.6875 
L 9.28125 54.6875 
L 9.28125 70.21875 
z
" id="BitstreamVeraSans-Roman-74"/>
       <path d="M 30.609375 48.390625 
Q 23.390625 48.390625 19.1875 42.75 
Q 14.984375 37.109375 14.984375 27.296875 
Q 14.984375 17.484375 19.15625 11.84375 
Q 23.34375 6.203125 30.609375 6.203125 
Q 37.796875 6.203125 41.984375 11.859375 
Q 46.1875 17.53125 46.1875 27.296875 
Q 46.1875 37.015625 41.984375 42.703125 
Q 37.796875 48.390625 30.609375 48.390625 
M 30.609375 56 
Q 42.328125 56 49.015625 48.375 
Q 55.71875 40.765625 55.71875 27.296875 
Q 55.71875 13.875 49.015625 6.21875 
Q 42.328125 -1.421875 30.609375 -1.421875 
Q 18.84375 -1.421875 12.171875 6.21875 
Q 5.515625 13.875 5.515625 27.296875 
Q 5.515625 40.765625 12.171875 48.375 
Q 18.84375 56 30.609375 56 
" id="BitstreamVeraSans-Roman-6f"/>
       <path d="M 37.109375 75.984375 
L 37.109375 68.5 
L 28.515625 68.5 
Q 23.6875 68.5 21.796875 66.546875 
Q 19.921875 64.59375 19.921875 59.515625 
L 19.921875 54.6875 
L 34.71875 54.6875 
L 34.71875 47.703125 
L 19.921875 47.703125 
L 19.921875 0 
L 10.890625 0 
L 10.890625 47.703125 
L 2.296875 47.703125 
L 2.296875 54.6875 
L 10.890625 54.6875 
L 10.890625 58.5 
Q 10.890625 67.625 15.140625 71.796875 
Q 19.390625 75.984375 28.609375 75.984375 
z
" id="BitstreamVeraSans-Roman-66"/>
       <path d="M 56.203125 29.59375 
L 56.203125 25.203125 
L 14.890625 25.203125 
Q 15.484375 15.921875 20.484375 11.0625 
Q 25.484375 6.203125 34.421875 6.203125 
Q 39.59375 6.203125 44.453125 7.46875 
Q 49.3125 8.734375 54.109375 11.28125 
L 54.109375 2.78125 
Q 49.265625 0.734375 44.1875 -0.34375 
Q 39.109375 -1.421875 33.890625 -1.421875 
Q 20.796875 -1.421875 13.15625 6.1875 
Q 5.515625 13.8125 5.515625 26.8125 
Q 5.515625 40.234375 12.765625 48.109375 
Q 20.015625 56 32.328125 56 
Q 43.359375 56 49.78125 48.890625 
Q 56.203125 41.796875 56.203125 29.59375 
M 47.21875 32.234375 
Q 47.125 39.59375 43.09375 43.984375 
Q 39.0625 48.390625 32.421875 48.390625 
Q 24.90625 48.390625 20.390625 44.140625 
Q 15.875 39.890625 15.1875 32.171875 
z
" id="BitstreamVeraSans-Roman-65"/>
       <path d="M 41.109375 46.296875 
Q 39.59375 47.171875 37.8125 47.578125 
Q 36.03125 48 33.890625 48 
Q 26.265625 48 22.1875 43.046875 
Q 18.109375 38.09375 18.109375 28.8125 
L 18.109375 0 
L 9.078125 0 
L 9.078125 54.6875 
L 18.109375 54.6875 
L 18.109375 46.1875 
Q 20.953125 51.171875 25.484375 53.578125 
Q 30.03125 56 36.53125 56 
Q 37.453125 56 38.578125 55.875 
Q 39.703125 55.765625 41.0625 55.515625 
z
" id="BitstreamVeraSans-Roman-72"/>
       <path d="M 48.78125 52.59375 
L 48.78125 44.1875 
Q 44.96875 46.296875 41.140625 47.34375 
Q 37.3125 48.390625 33.40625 48.390625 
Q 24.65625 48.390625 19.8125 42.84375 
Q 14.984375 37.3125 14.984375 27.296875 
Q 14.984375 17.28125 19.8125 11.734375 
Q 24.65625 6.203125 33.40625 6.203125 
Q 37.3125 6.203125 41.140625 7.25 
Q 44.96875 8.296875 48.78125 10.40625 
L 48.78125 2.09375 
Q 45.015625 0.34375 40.984375 -0.53125 
Q 36.96875 -1.421875 32.421875 -1.421875 
Q 20.0625 -1.421875 12.78125 6.34375 
Q 5.515625 14.109375 5.515625 27.296875 
Q 5.515625 40.671875 12.859375 48.328125 
Q 20.21875 56 33.015625 56 
Q 37.15625 56 41.109375 55.140625 
Q 45.0625 54.296875 48.78125 52.59375 
" id="BitstreamVeraSans-Roman-63"/>
      </defs>
      <g transform="translate(97.9875 407.28175)rotate(-90.0)scale(0.08 -0.08)">
       <use xlink:href="#BitstreamVeraSans-Roman-44"/>
       <use x="77.001953125" xlink:href="#BitstreamVeraSans-Roman-65"/>
       <use x="138.525390625" xlink:href="#BitstreamVeraSans-Roman-66"/>
       <use x="173.73046875" xlink:href="#BitstreamVeraSans-Roman-65"/>
       <use x="235.25390625" xlink:href="#BitstreamVeraSans-Roman-63"/>
       <use x="290.234375" xlink:href="#BitstreamVeraSans-Roman-74"/>
       <use x="329.443359375" xlink:href="#BitstreamVeraSans-Roman-6f"/>
       <use x="390.625" xlink:href="#BitstreamVeraSans-Roman-72"/>
      </g>
     </g>
    </g>
    <g id="xtick_2">
     <g id="line2d_3">
      <g>
       <use style="stroke:#000000;stroke-width:0.5;" x="170.18" xlink:href="#m15b6b641a5" y="368.74175"/>
      </g>
     </g>
     <g id="line2d_4">
      <g>
       <use style="stroke:#000000;stroke-width:0.5;" x="170.18" xlink:href="#mf20aa4b20d" y="23.14175"/>
      </g>
     </g>
     <g id="text_2">
      <!-- Bully -->
      <defs>
       <path d="M 32.171875 -5.078125 
Q 28.375 -14.84375 24.75 -17.8125 
Q 21.140625 -20.796875 15.09375 -20.796875 
L 7.90625 -20.796875 
L 7.90625 -13.28125 
L 13.1875 -13.28125 
Q 16.890625 -13.28125 18.9375 -11.515625 
Q 21 -9.765625 23.484375 -3.21875 
L 25.09375 0.875 
L 2.984375 54.6875 
L 12.5 54.6875 
L 29.59375 11.921875 
L 46.6875 54.6875 
L 56.203125 54.6875 
z
" id="BitstreamVeraSans-Roman-79"/>
       <path d="M 19.671875 34.8125 
L 19.671875 8.109375 
L 35.5 8.109375 
Q 43.453125 8.109375 47.28125 11.40625 
Q 51.125 14.703125 51.125 21.484375 
Q 51.125 28.328125 47.28125 31.5625 
Q 43.453125 34.8125 35.5 34.8125 
z
M 19.671875 64.796875 
L 19.671875 42.828125 
L 34.28125 42.828125 
Q 41.5 42.828125 45.03125 45.53125 
Q 48.578125 48.25 48.578125 53.8125 
Q 48.578125 59.328125 45.03125 62.0625 
Q 41.5 64.796875 34.28125 64.796875 
z
M 9.8125 72.90625 
L 35.015625 72.90625 
Q 46.296875 72.90625 52.390625 68.21875 
Q 58.5 63.53125 58.5 54.890625 
Q 58.5 48.1875 55.375 44.234375 
Q 52.25 40.28125 46.1875 39.3125 
Q 53.46875 37.75 57.5 32.78125 
Q 61.53125 27.828125 61.53125 20.40625 
Q 61.53125 10.640625 54.890625 5.3125 
Q 48.25 0 35.984375 0 
L 9.8125 0 
z
" id="BitstreamVeraSans-Roman-42"/>
       <path d="M 8.5 21.578125 
L 8.5 54.6875 
L 17.484375 54.6875 
L 17.484375 21.921875 
Q 17.484375 14.15625 20.5 10.265625 
Q 23.53125 6.390625 29.59375 6.390625 
Q 36.859375 6.390625 41.078125 11.03125 
Q 45.3125 15.671875 45.3125 23.6875 
L 45.3125 54.6875 
L 54.296875 54.6875 
L 54.296875 0 
L 45.3125 0 
L 45.3125 8.40625 
Q 42.046875 3.421875 37.71875 1 
Q 33.40625 -1.421875 27.6875 -1.421875 
Q 18.265625 -1.421875 13.375 4.4375 
Q 8.5 10.296875 8.5 21.578125 
" id="BitstreamVeraSans-Roman-75"/>
       <path d="M 9.421875 75.984375 
L 18.40625 75.984375 
L 18.40625 0 
L 9.421875 0 
z
" id="BitstreamVeraSans-Roman-6c"/>
      </defs>
      <g transform="translate(172.3875 392.4805)rotate(-90.0)scale(0.08 -0.08)">
       <use xlink:href="#BitstreamVeraSans-Roman-42"/>
       <use x="68.603515625" xlink:href="#BitstreamVeraSans-Roman-75"/>
       <use x="131.982421875" xlink:href="#BitstreamVeraSans-Roman-6c"/>
       <use x="159.765625" xlink:href="#BitstreamVeraSans-Roman-6c"/>
       <use x="187.548828125" xlink:href="#BitstreamVeraSans-Roman-79"/>
      </g>
     </g>
    </g>
    <g id="xtick_3">
     <g id="line2d_5">
      <g>
       <use style="stroke:#000000;stroke-width:0.5;" x="244.58" xlink:href="#m15b6b641a5" y="368.74175"/>
      </g>
     </g>
     <g id="line2d_6">
      <g>
       <use style="stroke:#000000;stroke-width:0.5;" x="244.58" xlink:href="#mf20aa4b20d" y="23.14175"/>
      </g>
     </g>
     <g id="text_3">
      <!-- Suspicious Tit For Tat -->
      <defs>
       <path id="BitstreamVeraSans-Roman-20"/>
       <path d="M 9.8125 72.90625 
L 51.703125 72.90625 
L 51.703125 64.59375 
L 19.671875 64.59375 
L 19.671875 43.109375 
L 48.578125 43.109375 
L 48.578125 34.8125 
L 19.671875 34.8125 
L 19.671875 0 
L 9.8125 0 
z
" id="BitstreamVeraSans-Roman-46"/>
       <path d="M 34.28125 27.484375 
Q 23.390625 27.484375 19.1875 25 
Q 14.984375 22.515625 14.984375 16.5 
Q 14.984375 11.71875 18.140625 8.90625 
Q 21.296875 6.109375 26.703125 6.109375 
Q 34.1875 6.109375 38.703125 11.40625 
Q 43.21875 16.703125 43.21875 25.484375 
L 43.21875 27.484375 
z
M 52.203125 31.203125 
L 52.203125 0 
L 43.21875 0 
L 43.21875 8.296875 
Q 40.140625 3.328125 35.546875 0.953125 
Q 30.953125 -1.421875 24.3125 -1.421875 
Q 15.921875 -1.421875 10.953125 3.296875 
Q 6 8.015625 6 15.921875 
Q 6 25.140625 12.171875 29.828125 
Q 18.359375 34.515625 30.609375 34.515625 
L 43.21875 34.515625 
L 43.21875 35.40625 
Q 43.21875 41.609375 39.140625 45 
Q 35.0625 48.390625 27.6875 48.390625 
Q 23 48.390625 18.546875 47.265625 
Q 14.109375 46.140625 10.015625 43.890625 
L 10.015625 52.203125 
Q 14.9375 54.109375 19.578125 55.046875 
Q 24.21875 56 28.609375 56 
Q 40.484375 56 46.34375 49.84375 
Q 52.203125 43.703125 52.203125 31.203125 
" id="BitstreamVeraSans-Roman-61"/>
       <path d="M 44.28125 53.078125 
L 44.28125 44.578125 
Q 40.484375 46.53125 36.375 47.5 
Q 32.28125 48.484375 27.875 48.484375 
Q 21.1875 48.484375 17.84375 46.4375 
Q 14.5 44.390625 14.5 40.28125 
Q 14.5 37.15625 16.890625 35.375 
Q 19.28125 33.59375 26.515625 31.984375 
L 29.59375 31.296875 
Q 39.15625 29.25 43.1875 25.515625 
Q 47.21875 21.78125 47.21875 15.09375 
Q 47.21875 7.46875 41.1875 3.015625 
Q 35.15625 -1.421875 24.609375 -1.421875 
Q 20.21875 -1.421875 15.453125 -0.5625 
Q 10.6875 0.296875 5.421875 2 
L 5.421875 11.28125 
Q 10.40625 8.6875 15.234375 7.390625 
Q 20.0625 6.109375 24.8125 6.109375 
Q 31.15625 6.109375 34.5625 8.28125 
Q 37.984375 10.453125 37.984375 14.40625 
Q 37.984375 18.0625 35.515625 20.015625 
Q 33.0625 21.96875 24.703125 23.78125 
L 21.578125 24.515625 
Q 13.234375 26.265625 9.515625 29.90625 
Q 5.8125 33.546875 5.8125 39.890625 
Q 5.8125 47.609375 11.28125 51.796875 
Q 16.75 56 26.8125 56 
Q 31.78125 56 36.171875 55.265625 
Q 40.578125 54.546875 44.28125 53.078125 
" id="BitstreamVeraSans-Roman-73"/>
       <path d="M 18.109375 8.203125 
L 18.109375 -20.796875 
L 9.078125 -20.796875 
L 9.078125 54.6875 
L 18.109375 54.6875 
L 18.109375 46.390625 
Q 20.953125 51.265625 25.265625 53.625 
Q 29.59375 56 35.59375 56 
Q 45.5625 56 51.78125 48.09375 
Q 58.015625 40.1875 58.015625 27.296875 
Q 58.015625 14.40625 51.78125 6.484375 
Q 45.5625 -1.421875 35.59375 -1.421875 
Q 29.59375 -1.421875 25.265625 0.953125 
Q 20.953125 3.328125 18.109375 8.203125 
M 48.6875 27.296875 
Q 48.6875 37.203125 44.609375 42.84375 
Q 40.53125 48.484375 33.40625 48.484375 
Q 26.265625 48.484375 22.1875 42.84375 
Q 18.109375 37.203125 18.109375 27.296875 
Q 18.109375 17.390625 22.1875 11.75 
Q 26.265625 6.109375 33.40625 6.109375 
Q 40.53125 6.109375 44.609375 11.75 
Q 48.6875 17.390625 48.6875 27.296875 
" id="BitstreamVeraSans-Roman-70"/>
       <path d="M 9.421875 54.6875 
L 18.40625 54.6875 
L 18.40625 0 
L 9.421875 0 
z
M 9.421875 75.984375 
L 18.40625 75.984375 
L 18.40625 64.59375 
L 9.421875 64.59375 
z
" id="BitstreamVeraSans-Roman-69"/>
       <path d="M -0.296875 72.90625 
L 61.375 72.90625 
L 61.375 64.59375 
L 35.5 64.59375 
L 35.5 0 
L 25.59375 0 
L 25.59375 64.59375 
L -0.296875 64.59375 
z
" id="BitstreamVeraSans-Roman-54"/>
       <path d="M 53.515625 70.515625 
L 53.515625 60.890625 
Q 47.90625 63.578125 42.921875 64.890625 
Q 37.9375 66.21875 33.296875 66.21875 
Q 25.25 66.21875 20.875 63.09375 
Q 16.5 59.96875 16.5 54.203125 
Q 16.5 49.359375 19.40625 46.890625 
Q 22.3125 44.4375 30.421875 42.921875 
L 36.375 41.703125 
Q 47.40625 39.59375 52.65625 34.296875 
Q 57.90625 29 57.90625 20.125 
Q 57.90625 9.515625 50.796875 4.046875 
Q 43.703125 -1.421875 29.984375 -1.421875 
Q 24.8125 -1.421875 18.96875 -0.25 
Q 13.140625 0.921875 6.890625 3.21875 
L 6.890625 13.375 
Q 12.890625 10.015625 18.65625 8.296875 
Q 24.421875 6.59375 29.984375 6.59375 
Q 38.421875 6.59375 43.015625 9.90625 
Q 47.609375 13.234375 47.609375 19.390625 
Q 47.609375 24.75 44.3125 27.78125 
Q 41.015625 30.8125 33.5 32.328125 
L 27.484375 33.5 
Q 16.453125 35.6875 11.515625 40.375 
Q 6.59375 45.0625 6.59375 53.421875 
Q 6.59375 63.09375 13.40625 68.65625 
Q 20.21875 74.21875 32.171875 74.21875 
Q 37.3125 74.21875 42.625 73.28125 
Q 47.953125 72.359375 53.515625 70.515625 
" id="BitstreamVeraSans-Roman-53"/>
      </defs>
      <g transform="translate(246.7875 458.668)rotate(-90.0)scale(0.08 -0.08)">
       <use xlink:href="#BitstreamVeraSans-Roman-53"/>
       <use x="63.4765625" xlink:href="#BitstreamVeraSans-Roman-75"/>
       <use x="126.85546875" xlink:href="#BitstreamVeraSans-Roman-73"/>
       <use x="178.955078125" xlink:href="#BitstreamVeraSans-Roman-70"/>
       <use x="242.431640625" xlink:href="#BitstreamVeraSans-Roman-69"/>
       <use x="270.21484375" xlink:href="#BitstreamVeraSans-Roman-63"/>
       <use x="325.1953125" xlink:href="#BitstreamVeraSans-Roman-69"/>
       <use x="352.978515625" xlink:href="#BitstreamVeraSans-Roman-6f"/>
       <use x="414.16015625" xlink:href="#BitstreamVeraSans-Roman-75"/>
       <use x="477.5390625" xlink:href="#BitstreamVeraSans-Roman-73"/>
       <use x="529.638671875" xlink:href="#BitstreamVeraSans-Roman-20"/>
       <use x="561.42578125" xlink:href="#BitstreamVeraSans-Roman-54"/>
       <use x="622.462890625" xlink:href="#BitstreamVeraSans-Roman-69"/>
       <use x="650.24609375" xlink:href="#BitstreamVeraSans-Roman-74"/>
       <use x="689.455078125" xlink:href="#BitstreamVeraSans-Roman-20"/>
       <use x="721.2421875" xlink:href="#BitstreamVeraSans-Roman-46"/>
       <use x="778.71484375" xlink:href="#BitstreamVeraSans-Roman-6f"/>
       <use x="839.896484375" xlink:href="#BitstreamVeraSans-Roman-72"/>
       <use x="881.009765625" xlink:href="#BitstreamVeraSans-Roman-20"/>
       <use x="912.796875" xlink:href="#BitstreamVeraSans-Roman-54"/>
       <use x="973.630859375" xlink:href="#BitstreamVeraSans-Roman-61"/>
       <use x="1034.91015625" xlink:href="#BitstreamVeraSans-Roman-74"/>
      </g>
     </g>
    </g>
    <g id="xtick_4">
     <g id="line2d_7">
      <g>
       <use style="stroke:#000000;stroke-width:0.5;" x="318.98" xlink:href="#m15b6b641a5" y="368.74175"/>
      </g>
     </g>
     <g id="line2d_8">
      <g>
       <use style="stroke:#000000;stroke-width:0.5;" x="318.98" xlink:href="#mf20aa4b20d" y="23.14175"/>
      </g>
     </g>
     <g id="text_4">
      <!-- Tit For Tat -->
      <g transform="translate(321.1875 413.75425)rotate(-90.0)scale(0.08 -0.08)">
       <use xlink:href="#BitstreamVeraSans-Roman-54"/>
       <use x="61.037109375" xlink:href="#BitstreamVeraSans-Roman-69"/>
       <use x="88.8203125" xlink:href="#BitstreamVeraSans-Roman-74"/>
       <use x="128.029296875" xlink:href="#BitstreamVeraSans-Roman-20"/>
       <use x="159.81640625" xlink:href="#BitstreamVeraSans-Roman-46"/>
       <use x="217.2890625" xlink:href="#BitstreamVeraSans-Roman-6f"/>
       <use x="278.470703125" xlink:href="#BitstreamVeraSans-Roman-72"/>
       <use x="319.583984375" xlink:href="#BitstreamVeraSans-Roman-20"/>
       <use x="351.37109375" xlink:href="#BitstreamVeraSans-Roman-54"/>
       <use x="412.205078125" xlink:href="#BitstreamVeraSans-Roman-61"/>
       <use x="473.484375" xlink:href="#BitstreamVeraSans-Roman-74"/>
      </g>
     </g>
    </g>
    <g id="xtick_5">
     <g id="line2d_9">
      <g>
       <use style="stroke:#000000;stroke-width:0.5;" x="393.38" xlink:href="#m15b6b641a5" y="368.74175"/>
      </g>
     </g>
     <g id="line2d_10">
      <g>
       <use style="stroke:#000000;stroke-width:0.5;" x="393.38" xlink:href="#mf20aa4b20d" y="23.14175"/>
      </g>
     </g>
     <g id="text_5">
      <!-- Anti Tit For Tat -->
      <defs>
       <path d="M 34.1875 63.1875 
L 20.796875 26.90625 
L 47.609375 26.90625 
z
M 28.609375 72.90625 
L 39.796875 72.90625 
L 67.578125 0 
L 57.328125 0 
L 50.6875 18.703125 
L 17.828125 18.703125 
L 11.1875 0 
L 0.78125 0 
z
" id="BitstreamVeraSans-Roman-41"/>
       <path d="M 54.890625 33.015625 
L 54.890625 0 
L 45.90625 0 
L 45.90625 32.71875 
Q 45.90625 40.484375 42.875 44.328125 
Q 39.84375 48.1875 33.796875 48.1875 
Q 26.515625 48.1875 22.3125 43.546875 
Q 18.109375 38.921875 18.109375 30.90625 
L 18.109375 0 
L 9.078125 0 
L 9.078125 54.6875 
L 18.109375 54.6875 
L 18.109375 46.1875 
Q 21.34375 51.125 25.703125 53.5625 
Q 30.078125 56 35.796875 56 
Q 45.21875 56 50.046875 50.171875 
Q 54.890625 44.34375 54.890625 33.015625 
" id="BitstreamVeraSans-Roman-6e"/>
      </defs>
      <g transform="translate(395.5875 432.198)rotate(-90.0)scale(0.08 -0.08)">
       <use xlink:href="#BitstreamVeraSans-Roman-41"/>
       <use x="68.408203125" xlink:href="#BitstreamVeraSans-Roman-6e"/>
       <use x="131.787109375" xlink:href="#BitstreamVeraSans-Roman-74"/>
       <use x="170.99609375" xlink:href="#BitstreamVeraSans-Roman-69"/>
       <use x="198.779296875" xlink:href="#BitstreamVeraSans-Roman-20"/>
       <use x="230.56640625" xlink:href="#BitstreamVeraSans-Roman-54"/>
       <use x="291.603515625" xlink:href="#BitstreamVeraSans-Roman-69"/>
       <use x="319.38671875" xlink:href="#BitstreamVeraSans-Roman-74"/>
       <use x="358.595703125" xlink:href="#BitstreamVeraSans-Roman-20"/>
       <use x="390.3828125" xlink:href="#BitstreamVeraSans-Roman-46"/>
       <use x="447.85546875" xlink:href="#BitstreamVeraSans-Roman-6f"/>
       <use x="509.037109375" xlink:href="#BitstreamVeraSans-Roman-72"/>
       <use x="550.150390625" xlink:href="#BitstreamVeraSans-Roman-20"/>
       <use x="581.9375" xlink:href="#BitstreamVeraSans-Roman-54"/>
       <use x="642.771484375" xlink:href="#BitstreamVeraSans-Roman-61"/>
       <use x="704.05078125" xlink:href="#BitstreamVeraSans-Roman-74"/>
      </g>
     </g>
    </g>
    <g id="xtick_6">
     <g id="line2d_11">
      <g>
       <use style="stroke:#000000;stroke-width:0.5;" x="467.78" xlink:href="#m15b6b641a5" y="368.74175"/>
      </g>
     </g>
     <g id="line2d_12">
      <g>
       <use style="stroke:#000000;stroke-width:0.5;" x="467.78" xlink:href="#mf20aa4b20d" y="23.14175"/>
      </g>
     </g>
     <g id="text_6">
      <!-- Win-Stay Lose-Shift -->
      <defs>
       <path d="M 9.8125 72.90625 
L 19.671875 72.90625 
L 19.671875 8.296875 
L 55.171875 8.296875 
L 55.171875 0 
L 9.8125 0 
z
" id="BitstreamVeraSans-Roman-4c"/>
       <path d="M 54.890625 33.015625 
L 54.890625 0 
L 45.90625 0 
L 45.90625 32.71875 
Q 45.90625 40.484375 42.875 44.328125 
Q 39.84375 48.1875 33.796875 48.1875 
Q 26.515625 48.1875 22.3125 43.546875 
Q 18.109375 38.921875 18.109375 30.90625 
L 18.109375 0 
L 9.078125 0 
L 9.078125 75.984375 
L 18.109375 75.984375 
L 18.109375 46.1875 
Q 21.34375 51.125 25.703125 53.5625 
Q 30.078125 56 35.796875 56 
Q 45.21875 56 50.046875 50.171875 
Q 54.890625 44.34375 54.890625 33.015625 
" id="BitstreamVeraSans-Roman-68"/>
       <path d="M 3.328125 72.90625 
L 13.28125 72.90625 
L 28.609375 11.28125 
L 43.890625 72.90625 
L 54.984375 72.90625 
L 70.3125 11.28125 
L 85.59375 72.90625 
L 95.609375 72.90625 
L 77.296875 0 
L 64.890625 0 
L 49.515625 63.28125 
L 33.984375 0 
L 21.578125 0 
z
" id="BitstreamVeraSans-Roman-57"/>
       <path d="M 4.890625 31.390625 
L 31.203125 31.390625 
L 31.203125 23.390625 
L 4.890625 23.390625 
z
" id="BitstreamVeraSans-Roman-2d"/>
      </defs>
      <g transform="translate(469.9875 450.873)rotate(-90.0)scale(0.08 -0.08)">
       <use xlink:href="#BitstreamVeraSans-Roman-57"/>
       <use x="98.845703125" xlink:href="#BitstreamVeraSans-Roman-69"/>
       <use x="126.62890625" xlink:href="#BitstreamVeraSans-Roman-6e"/>
       <use x="190.0078125" xlink:href="#BitstreamVeraSans-Roman-2d"/>
       <use x="226.091796875" xlink:href="#BitstreamVeraSans-Roman-53"/>
       <use x="289.568359375" xlink:href="#BitstreamVeraSans-Roman-74"/>
       <use x="328.77734375" xlink:href="#BitstreamVeraSans-Roman-61"/>
       <use x="390.056640625" xlink:href="#BitstreamVeraSans-Roman-79"/>
       <use x="449.236328125" xlink:href="#BitstreamVeraSans-Roman-20"/>
       <use x="481.0234375" xlink:href="#BitstreamVeraSans-Roman-4c"/>
       <use x="536.720703125" xlink:href="#BitstreamVeraSans-Roman-6f"/>
       <use x="597.90234375" xlink:href="#BitstreamVeraSans-Roman-73"/>
       <use x="650.001953125" xlink:href="#BitstreamVeraSans-Roman-65"/>
       <use x="711.525390625" xlink:href="#BitstreamVeraSans-Roman-2d"/>
       <use x="747.609375" xlink:href="#BitstreamVeraSans-Roman-53"/>
       <use x="811.0859375" xlink:href="#BitstreamVeraSans-Roman-68"/>
       <use x="874.46484375" xlink:href="#BitstreamVeraSans-Roman-69"/>
       <use x="902.248046875" xlink:href="#BitstreamVeraSans-Roman-66"/>
       <use x="937.4375" xlink:href="#BitstreamVeraSans-Roman-74"/>
      </g>
     </g>
    </g>
    <g id="xtick_7">
     <g id="line2d_13">
      <g>
       <use style="stroke:#000000;stroke-width:0.5;" x="542.18" xlink:href="#m15b6b641a5" y="368.74175"/>
      </g>
     </g>
     <g id="line2d_14">
      <g>
       <use style="stroke:#000000;stroke-width:0.5;" x="542.18" xlink:href="#mf20aa4b20d" y="23.14175"/>
      </g>
     </g>
     <g id="text_7">
      <!-- Alternator -->
      <g transform="translate(544.3875 413.0755)rotate(-90.0)scale(0.08 -0.08)">
       <use xlink:href="#BitstreamVeraSans-Roman-41"/>
       <use x="68.408203125" xlink:href="#BitstreamVeraSans-Roman-6c"/>
       <use x="96.19140625" xlink:href="#BitstreamVeraSans-Roman-74"/>
       <use x="135.400390625" xlink:href="#BitstreamVeraSans-Roman-65"/>
       <use x="196.923828125" xlink:href="#BitstreamVeraSans-Roman-72"/>
       <use x="238.021484375" xlink:href="#BitstreamVeraSans-Roman-6e"/>
       <use x="301.400390625" xlink:href="#BitstreamVeraSans-Roman-61"/>
       <use x="362.6796875" xlink:href="#BitstreamVeraSans-Roman-74"/>
       <use x="401.888671875" xlink:href="#BitstreamVeraSans-Roman-6f"/>
       <use x="463.0703125" xlink:href="#BitstreamVeraSans-Roman-72"/>
      </g>
     </g>
    </g>
    <g id="xtick_8">
     <g id="line2d_15">
      <g>
       <use style="stroke:#000000;stroke-width:0.5;" x="616.58" xlink:href="#m15b6b641a5" y="368.74175"/>
      </g>
     </g>
     <g id="line2d_16">
      <g>
       <use style="stroke:#000000;stroke-width:0.5;" x="616.58" xlink:href="#mf20aa4b20d" y="23.14175"/>
      </g>
     </g>
     <g id="text_8">
      <!-- Cooperator -->
      <defs>
       <path d="M 64.40625 67.28125 
L 64.40625 56.890625 
Q 59.421875 61.53125 53.78125 63.8125 
Q 48.140625 66.109375 41.796875 66.109375 
Q 29.296875 66.109375 22.65625 58.46875 
Q 16.015625 50.828125 16.015625 36.375 
Q 16.015625 21.96875 22.65625 14.328125 
Q 29.296875 6.6875 41.796875 6.6875 
Q 48.140625 6.6875 53.78125 8.984375 
Q 59.421875 11.28125 64.40625 15.921875 
L 64.40625 5.609375 
Q 59.234375 2.09375 53.4375 0.328125 
Q 47.65625 -1.421875 41.21875 -1.421875 
Q 24.65625 -1.421875 15.125 8.703125 
Q 5.609375 18.84375 5.609375 36.375 
Q 5.609375 53.953125 15.125 64.078125 
Q 24.65625 74.21875 41.21875 74.21875 
Q 47.75 74.21875 53.53125 72.484375 
Q 59.328125 70.75 64.40625 67.28125 
" id="BitstreamVeraSans-Roman-43"/>
      </defs>
      <g transform="translate(618.7875 417.6305)rotate(-90.0)scale(0.08 -0.08)">
       <use xlink:href="#BitstreamVeraSans-Roman-43"/>
       <use x="69.82421875" xlink:href="#BitstreamVeraSans-Roman-6f"/>
       <use x="131.005859375" xlink:href="#BitstreamVeraSans-Roman-6f"/>
       <use x="192.1875" xlink:href="#BitstreamVeraSans-Roman-70"/>
       <use x="255.6640625" xlink:href="#BitstreamVeraSans-Roman-65"/>
       <use x="317.1875" xlink:href="#BitstreamVeraSans-Roman-72"/>
       <use x="358.30078125" xlink:href="#BitstreamVeraSans-Roman-61"/>
       <use x="419.580078125" xlink:href="#BitstreamVeraSans-Roman-74"/>
       <use x="458.7890625" xlink:href="#BitstreamVeraSans-Roman-6f"/>
       <use x="519.970703125" xlink:href="#BitstreamVeraSans-Roman-72"/>
      </g>
     </g>
    </g>
   </g>
   <g id="matplotlib.axis_2">
    <g id="ytick_1">
     <g id="line2d_17">
      <defs>
       <path d="M 0 0 
L 4 0 
" id="m3bdee93877" style="stroke:#000000;stroke-width:0.5;"/>
      </defs>
      <g>
       <use style="stroke:#000000;stroke-width:0.5;" x="21.38" xlink:href="#m3bdee93877" y="368.74175"/>
      </g>
     </g>
     <g id="line2d_18">
      <defs>
       <path d="M 0 0 
L -4 0 
" id="m6f58af53ab" style="stroke:#000000;stroke-width:0.5;"/>
      </defs>
      <g>
       <use style="stroke:#000000;stroke-width:0.5;" x="690.98" xlink:href="#m6f58af53ab" y="368.74175"/>
      </g>
     </g>
     <g id="text_9">
      <!-- 0 -->
      <defs>
       <path d="M 31.78125 66.40625 
Q 24.171875 66.40625 20.328125 58.90625 
Q 16.5 51.421875 16.5 36.375 
Q 16.5 21.390625 20.328125 13.890625 
Q 24.171875 6.390625 31.78125 6.390625 
Q 39.453125 6.390625 43.28125 13.890625 
Q 47.125 21.390625 47.125 36.375 
Q 47.125 51.421875 43.28125 58.90625 
Q 39.453125 66.40625 31.78125 66.40625 
M 31.78125 74.21875 
Q 44.046875 74.21875 50.515625 64.515625 
Q 56.984375 54.828125 56.984375 36.375 
Q 56.984375 17.96875 50.515625 8.265625 
Q 44.046875 -1.421875 31.78125 -1.421875 
Q 19.53125 -1.421875 13.0625 8.265625 
Q 6.59375 17.96875 6.59375 36.375 
Q 6.59375 54.828125 13.0625 64.515625 
Q 19.53125 74.21875 31.78125 74.21875 
" id="BitstreamVeraSans-Roman-30"/>
      </defs>
      <g transform="translate(12.29 370.94925)scale(0.08 -0.08)">
       <use xlink:href="#BitstreamVeraSans-Roman-30"/>
      </g>
     </g>
    </g>
    <g id="ytick_2">
     <g id="line2d_19">
      <g>
       <use style="stroke:#000000;stroke-width:0.5;" x="21.38" xlink:href="#m3bdee93877" y="319.370321429"/>
      </g>
     </g>
     <g id="line2d_20">
      <g>
       <use style="stroke:#000000;stroke-width:0.5;" x="690.98" xlink:href="#m6f58af53ab" y="319.370321429"/>
      </g>
     </g>
     <g id="text_10">
      <!-- 10 -->
      <defs>
       <path d="M 12.40625 8.296875 
L 28.515625 8.296875 
L 28.515625 63.921875 
L 10.984375 60.40625 
L 10.984375 69.390625 
L 28.421875 72.90625 
L 38.28125 72.90625 
L 38.28125 8.296875 
L 54.390625 8.296875 
L 54.390625 0 
L 12.40625 0 
z
" id="BitstreamVeraSans-Roman-31"/>
      </defs>
      <g transform="translate(7.2 321.577821429)scale(0.08 -0.08)">
       <use xlink:href="#BitstreamVeraSans-Roman-31"/>
       <use x="63.623046875" xlink:href="#BitstreamVeraSans-Roman-30"/>
      </g>
     </g>
    </g>
    <g id="ytick_3">
     <g id="line2d_21">
      <g>
       <use style="stroke:#000000;stroke-width:0.5;" x="21.38" xlink:href="#m3bdee93877" y="269.998892857"/>
      </g>
     </g>
     <g id="line2d_22">
      <g>
       <use style="stroke:#000000;stroke-width:0.5;" x="690.98" xlink:href="#m6f58af53ab" y="269.998892857"/>
      </g>
     </g>
     <g id="text_11">
      <!-- 20 -->
      <defs>
       <path d="M 19.1875 8.296875 
L 53.609375 8.296875 
L 53.609375 0 
L 7.328125 0 
L 7.328125 8.296875 
Q 12.9375 14.109375 22.625 23.890625 
Q 32.328125 33.6875 34.8125 36.53125 
Q 39.546875 41.84375 41.421875 45.53125 
Q 43.3125 49.21875 43.3125 52.78125 
Q 43.3125 58.59375 39.234375 62.25 
Q 35.15625 65.921875 28.609375 65.921875 
Q 23.96875 65.921875 18.8125 64.3125 
Q 13.671875 62.703125 7.8125 59.421875 
L 7.8125 69.390625 
Q 13.765625 71.78125 18.9375 73 
Q 24.125 74.21875 28.421875 74.21875 
Q 39.75 74.21875 46.484375 68.546875 
Q 53.21875 62.890625 53.21875 53.421875 
Q 53.21875 48.921875 51.53125 44.890625 
Q 49.859375 40.875 45.40625 35.40625 
Q 44.1875 33.984375 37.640625 27.21875 
Q 31.109375 20.453125 19.1875 8.296875 
" id="BitstreamVeraSans-Roman-32"/>
      </defs>
      <g transform="translate(7.2 272.206392857)scale(0.08 -0.08)">
       <use xlink:href="#BitstreamVeraSans-Roman-32"/>
       <use x="63.623046875" xlink:href="#BitstreamVeraSans-Roman-30"/>
      </g>
     </g>
    </g>
    <g id="ytick_4">
     <g id="line2d_23">
      <g>
       <use style="stroke:#000000;stroke-width:0.5;" x="21.38" xlink:href="#m3bdee93877" y="220.627464286"/>
      </g>
     </g>
     <g id="line2d_24">
      <g>
       <use style="stroke:#000000;stroke-width:0.5;" x="690.98" xlink:href="#m6f58af53ab" y="220.627464286"/>
      </g>
     </g>
     <g id="text_12">
      <!-- 30 -->
      <defs>
       <path d="M 40.578125 39.3125 
Q 47.65625 37.796875 51.625 33 
Q 55.609375 28.21875 55.609375 21.1875 
Q 55.609375 10.40625 48.1875 4.484375 
Q 40.765625 -1.421875 27.09375 -1.421875 
Q 22.515625 -1.421875 17.65625 -0.515625 
Q 12.796875 0.390625 7.625 2.203125 
L 7.625 11.71875 
Q 11.71875 9.328125 16.59375 8.109375 
Q 21.484375 6.890625 26.8125 6.890625 
Q 36.078125 6.890625 40.9375 10.546875 
Q 45.796875 14.203125 45.796875 21.1875 
Q 45.796875 27.640625 41.28125 31.265625 
Q 36.765625 34.90625 28.71875 34.90625 
L 20.21875 34.90625 
L 20.21875 43.015625 
L 29.109375 43.015625 
Q 36.375 43.015625 40.234375 45.921875 
Q 44.09375 48.828125 44.09375 54.296875 
Q 44.09375 59.90625 40.109375 62.90625 
Q 36.140625 65.921875 28.71875 65.921875 
Q 24.65625 65.921875 20.015625 65.03125 
Q 15.375 64.15625 9.8125 62.3125 
L 9.8125 71.09375 
Q 15.4375 72.65625 20.34375 73.4375 
Q 25.25 74.21875 29.59375 74.21875 
Q 40.828125 74.21875 47.359375 69.109375 
Q 53.90625 64.015625 53.90625 55.328125 
Q 53.90625 49.265625 50.4375 45.09375 
Q 46.96875 40.921875 40.578125 39.3125 
" id="BitstreamVeraSans-Roman-33"/>
      </defs>
      <g transform="translate(7.2 222.834964286)scale(0.08 -0.08)">
       <use xlink:href="#BitstreamVeraSans-Roman-33"/>
       <use x="63.623046875" xlink:href="#BitstreamVeraSans-Roman-30"/>
      </g>
     </g>
    </g>
    <g id="ytick_5">
     <g id="line2d_25">
      <g>
       <use style="stroke:#000000;stroke-width:0.5;" x="21.38" xlink:href="#m3bdee93877" y="171.256035714"/>
      </g>
     </g>
     <g id="line2d_26">
      <g>
       <use style="stroke:#000000;stroke-width:0.5;" x="690.98" xlink:href="#m6f58af53ab" y="171.256035714"/>
      </g>
     </g>
     <g id="text_13">
      <!-- 40 -->
      <defs>
       <path d="M 37.796875 64.3125 
L 12.890625 25.390625 
L 37.796875 25.390625 
z
M 35.203125 72.90625 
L 47.609375 72.90625 
L 47.609375 25.390625 
L 58.015625 25.390625 
L 58.015625 17.1875 
L 47.609375 17.1875 
L 47.609375 0 
L 37.796875 0 
L 37.796875 17.1875 
L 4.890625 17.1875 
L 4.890625 26.703125 
z
" id="BitstreamVeraSans-Roman-34"/>
      </defs>
      <g transform="translate(7.2 173.463535714)scale(0.08 -0.08)">
       <use xlink:href="#BitstreamVeraSans-Roman-34"/>
       <use x="63.623046875" xlink:href="#BitstreamVeraSans-Roman-30"/>
      </g>
     </g>
    </g>
    <g id="ytick_6">
     <g id="line2d_27">
      <g>
       <use style="stroke:#000000;stroke-width:0.5;" x="21.38" xlink:href="#m3bdee93877" y="121.884607143"/>
      </g>
     </g>
     <g id="line2d_28">
      <g>
       <use style="stroke:#000000;stroke-width:0.5;" x="690.98" xlink:href="#m6f58af53ab" y="121.884607143"/>
      </g>
     </g>
     <g id="text_14">
      <!-- 50 -->
      <defs>
       <path d="M 10.796875 72.90625 
L 49.515625 72.90625 
L 49.515625 64.59375 
L 19.828125 64.59375 
L 19.828125 46.734375 
Q 21.96875 47.46875 24.109375 47.828125 
Q 26.265625 48.1875 28.421875 48.1875 
Q 40.625 48.1875 47.75 41.5 
Q 54.890625 34.8125 54.890625 23.390625 
Q 54.890625 11.625 47.5625 5.09375 
Q 40.234375 -1.421875 26.90625 -1.421875 
Q 22.3125 -1.421875 17.546875 -0.640625 
Q 12.796875 0.140625 7.71875 1.703125 
L 7.71875 11.625 
Q 12.109375 9.234375 16.796875 8.0625 
Q 21.484375 6.890625 26.703125 6.890625 
Q 35.15625 6.890625 40.078125 11.328125 
Q 45.015625 15.765625 45.015625 23.390625 
Q 45.015625 31 40.078125 35.4375 
Q 35.15625 39.890625 26.703125 39.890625 
Q 22.75 39.890625 18.8125 39.015625 
Q 14.890625 38.140625 10.796875 36.28125 
z
" id="BitstreamVeraSans-Roman-35"/>
      </defs>
      <g transform="translate(7.2 124.092107143)scale(0.08 -0.08)">
       <use xlink:href="#BitstreamVeraSans-Roman-35"/>
       <use x="63.623046875" xlink:href="#BitstreamVeraSans-Roman-30"/>
      </g>
     </g>
    </g>
    <g id="ytick_7">
     <g id="line2d_29">
      <g>
       <use style="stroke:#000000;stroke-width:0.5;" x="21.38" xlink:href="#m3bdee93877" y="72.5131785714"/>
      </g>
     </g>
     <g id="line2d_30">
      <g>
       <use style="stroke:#000000;stroke-width:0.5;" x="690.98" xlink:href="#m6f58af53ab" y="72.5131785714"/>
      </g>
     </g>
     <g id="text_15">
      <!-- 60 -->
      <defs>
       <path d="M 33.015625 40.375 
Q 26.375 40.375 22.484375 35.828125 
Q 18.609375 31.296875 18.609375 23.390625 
Q 18.609375 15.53125 22.484375 10.953125 
Q 26.375 6.390625 33.015625 6.390625 
Q 39.65625 6.390625 43.53125 10.953125 
Q 47.40625 15.53125 47.40625 23.390625 
Q 47.40625 31.296875 43.53125 35.828125 
Q 39.65625 40.375 33.015625 40.375 
M 52.59375 71.296875 
L 52.59375 62.3125 
Q 48.875 64.0625 45.09375 64.984375 
Q 41.3125 65.921875 37.59375 65.921875 
Q 27.828125 65.921875 22.671875 59.328125 
Q 17.53125 52.734375 16.796875 39.40625 
Q 19.671875 43.65625 24.015625 45.921875 
Q 28.375 48.1875 33.59375 48.1875 
Q 44.578125 48.1875 50.953125 41.515625 
Q 57.328125 34.859375 57.328125 23.390625 
Q 57.328125 12.15625 50.6875 5.359375 
Q 44.046875 -1.421875 33.015625 -1.421875 
Q 20.359375 -1.421875 13.671875 8.265625 
Q 6.984375 17.96875 6.984375 36.375 
Q 6.984375 53.65625 15.1875 63.9375 
Q 23.390625 74.21875 37.203125 74.21875 
Q 40.921875 74.21875 44.703125 73.484375 
Q 48.484375 72.75 52.59375 71.296875 
" id="BitstreamVeraSans-Roman-36"/>
      </defs>
      <g transform="translate(7.2 74.7206785714)scale(0.08 -0.08)">
       <use xlink:href="#BitstreamVeraSans-Roman-36"/>
       <use x="63.623046875" xlink:href="#BitstreamVeraSans-Roman-30"/>
      </g>
     </g>
    </g>
    <g id="ytick_8">
     <g id="line2d_31">
      <g>
       <use style="stroke:#000000;stroke-width:0.5;" x="21.38" xlink:href="#m3bdee93877" y="23.14175"/>
      </g>
     </g>
     <g id="line2d_32">
      <g>
       <use style="stroke:#000000;stroke-width:0.5;" x="690.98" xlink:href="#m6f58af53ab" y="23.14175"/>
      </g>
     </g>
     <g id="text_16">
      <!-- 70 -->
      <defs>
       <path d="M 8.203125 72.90625 
L 55.078125 72.90625 
L 55.078125 68.703125 
L 28.609375 0 
L 18.3125 0 
L 43.21875 64.59375 
L 8.203125 64.59375 
z
" id="BitstreamVeraSans-Roman-37"/>
      </defs>
      <g transform="translate(7.2 25.34925)scale(0.08 -0.08)">
       <use xlink:href="#BitstreamVeraSans-Roman-37"/>
       <use x="63.623046875" xlink:href="#BitstreamVeraSans-Roman-30"/>
      </g>
     </g>
    </g>
   </g>
   <g id="text_17">
    <!-- Lengths. Prob end: 0.1, Repetitions: 2, Strategies: 8. -->
    <defs>
     <path d="M 45.40625 46.390625 
L 45.40625 75.984375 
L 54.390625 75.984375 
L 54.390625 0 
L 45.40625 0 
L 45.40625 8.203125 
Q 42.578125 3.328125 38.25 0.953125 
Q 33.9375 -1.421875 27.875 -1.421875 
Q 17.96875 -1.421875 11.734375 6.484375 
Q 5.515625 14.40625 5.515625 27.296875 
Q 5.515625 40.1875 11.734375 48.09375 
Q 17.96875 56 27.875 56 
Q 33.9375 56 38.25 53.625 
Q 42.578125 51.265625 45.40625 46.390625 
M 14.796875 27.296875 
Q 14.796875 17.390625 18.875 11.75 
Q 22.953125 6.109375 30.078125 6.109375 
Q 37.203125 6.109375 41.296875 11.75 
Q 45.40625 17.390625 45.40625 27.296875 
Q 45.40625 37.203125 41.296875 42.84375 
Q 37.203125 48.484375 30.078125 48.484375 
Q 22.953125 48.484375 18.875 42.84375 
Q 14.796875 37.203125 14.796875 27.296875 
" id="BitstreamVeraSans-Roman-64"/>
     <path d="M 44.390625 34.1875 
Q 47.5625 33.109375 50.5625 29.59375 
Q 53.5625 26.078125 56.59375 19.921875 
L 66.609375 0 
L 56 0 
L 46.6875 18.703125 
Q 43.0625 26.03125 39.671875 28.421875 
Q 36.28125 30.8125 30.421875 30.8125 
L 19.671875 30.8125 
L 19.671875 0 
L 9.8125 0 
L 9.8125 72.90625 
L 32.078125 72.90625 
Q 44.578125 72.90625 50.734375 67.671875 
Q 56.890625 62.453125 56.890625 51.90625 
Q 56.890625 45.015625 53.6875 40.46875 
Q 50.484375 35.9375 44.390625 34.1875 
M 19.671875 64.796875 
L 19.671875 38.921875 
L 32.078125 38.921875 
Q 39.203125 38.921875 42.84375 42.21875 
Q 46.484375 45.515625 46.484375 51.90625 
Q 46.484375 58.296875 42.84375 61.546875 
Q 39.203125 64.796875 32.078125 64.796875 
z
" id="BitstreamVeraSans-Roman-52"/>
     <path d="M 10.6875 12.40625 
L 21 12.40625 
L 21 0 
L 10.6875 0 
z
" id="BitstreamVeraSans-Roman-2e"/>
     <path d="M 11.71875 12.40625 
L 22.015625 12.40625 
L 22.015625 4 
L 14.015625 -11.625 
L 7.71875 -11.625 
L 11.71875 4 
z
" id="BitstreamVeraSans-Roman-2c"/>
     <path d="M 11.71875 12.40625 
L 22.015625 12.40625 
L 22.015625 0 
L 11.71875 0 
z
M 11.71875 51.703125 
L 22.015625 51.703125 
L 22.015625 39.3125 
L 11.71875 39.3125 
z
" id="BitstreamVeraSans-Roman-3a"/>
     <path d="M 31.78125 34.625 
Q 24.75 34.625 20.71875 30.859375 
Q 16.703125 27.09375 16.703125 20.515625 
Q 16.703125 13.921875 20.71875 10.15625 
Q 24.75 6.390625 31.78125 6.390625 
Q 38.8125 6.390625 42.859375 10.171875 
Q 46.921875 13.96875 46.921875 20.515625 
Q 46.921875 27.09375 42.890625 30.859375 
Q 38.875 34.625 31.78125 34.625 
M 21.921875 38.8125 
Q 15.578125 40.375 12.03125 44.71875 
Q 8.5 49.078125 8.5 55.328125 
Q 8.5 64.0625 14.71875 69.140625 
Q 20.953125 74.21875 31.78125 74.21875 
Q 42.671875 74.21875 48.875 69.140625 
Q 55.078125 64.0625 55.078125 55.328125 
Q 55.078125 49.078125 51.53125 44.71875 
Q 48 40.375 41.703125 38.8125 
Q 48.828125 37.15625 52.796875 32.3125 
Q 56.78125 27.484375 56.78125 20.515625 
Q 56.78125 9.90625 50.3125 4.234375 
Q 43.84375 -1.421875 31.78125 -1.421875 
Q 19.734375 -1.421875 13.25 4.234375 
Q 6.78125 9.90625 6.78125 20.515625 
Q 6.78125 27.484375 10.78125 32.3125 
Q 14.796875 37.15625 21.921875 38.8125 
M 18.3125 54.390625 
Q 18.3125 48.734375 21.84375 45.5625 
Q 25.390625 42.390625 31.78125 42.390625 
Q 38.140625 42.390625 41.71875 45.5625 
Q 45.3125 48.734375 45.3125 54.390625 
Q 45.3125 60.0625 41.71875 63.234375 
Q 38.140625 66.40625 31.78125 66.40625 
Q 25.390625 66.40625 21.84375 63.234375 
Q 18.3125 60.0625 18.3125 54.390625 
" id="BitstreamVeraSans-Roman-38"/>
     <path d="M 45.40625 27.984375 
Q 45.40625 37.75 41.375 43.109375 
Q 37.359375 48.484375 30.078125 48.484375 
Q 22.859375 48.484375 18.828125 43.109375 
Q 14.796875 37.75 14.796875 27.984375 
Q 14.796875 18.265625 18.828125 12.890625 
Q 22.859375 7.515625 30.078125 7.515625 
Q 37.359375 7.515625 41.375 12.890625 
Q 45.40625 18.265625 45.40625 27.984375 
M 54.390625 6.78125 
Q 54.390625 -7.171875 48.1875 -13.984375 
Q 42 -20.796875 29.203125 -20.796875 
Q 24.46875 -20.796875 20.265625 -20.09375 
Q 16.0625 -19.390625 12.109375 -17.921875 
L 12.109375 -9.1875 
Q 16.0625 -11.328125 19.921875 -12.34375 
Q 23.78125 -13.375 27.78125 -13.375 
Q 36.625 -13.375 41.015625 -8.765625 
Q 45.40625 -4.15625 45.40625 5.171875 
L 45.40625 9.625 
Q 42.625 4.78125 38.28125 2.390625 
Q 33.9375 0 27.875 0 
Q 17.828125 0 11.671875 7.65625 
Q 5.515625 15.328125 5.515625 27.984375 
Q 5.515625 40.671875 11.671875 48.328125 
Q 17.828125 56 27.875 56 
Q 33.9375 56 38.28125 53.609375 
Q 42.625 51.21875 45.40625 46.390625 
L 45.40625 54.6875 
L 54.390625 54.6875 
z
" id="BitstreamVeraSans-Roman-67"/>
     <path d="M 48.6875 27.296875 
Q 48.6875 37.203125 44.609375 42.84375 
Q 40.53125 48.484375 33.40625 48.484375 
Q 26.265625 48.484375 22.1875 42.84375 
Q 18.109375 37.203125 18.109375 27.296875 
Q 18.109375 17.390625 22.1875 11.75 
Q 26.265625 6.109375 33.40625 6.109375 
Q 40.53125 6.109375 44.609375 11.75 
Q 48.6875 17.390625 48.6875 27.296875 
M 18.109375 46.390625 
Q 20.953125 51.265625 25.265625 53.625 
Q 29.59375 56 35.59375 56 
Q 45.5625 56 51.78125 48.09375 
Q 58.015625 40.1875 58.015625 27.296875 
Q 58.015625 14.40625 51.78125 6.484375 
Q 45.5625 -1.421875 35.59375 -1.421875 
Q 29.59375 -1.421875 25.265625 0.953125 
Q 20.953125 3.328125 18.109375 8.203125 
L 18.109375 0 
L 9.078125 0 
L 9.078125 75.984375 
L 18.109375 75.984375 
z
" id="BitstreamVeraSans-Roman-62"/>
     <path d="M 19.671875 64.796875 
L 19.671875 37.40625 
L 32.078125 37.40625 
Q 38.96875 37.40625 42.71875 40.96875 
Q 46.484375 44.53125 46.484375 51.125 
Q 46.484375 57.671875 42.71875 61.234375 
Q 38.96875 64.796875 32.078125 64.796875 
z
M 9.8125 72.90625 
L 32.078125 72.90625 
Q 44.34375 72.90625 50.609375 67.359375 
Q 56.890625 61.8125 56.890625 51.125 
Q 56.890625 40.328125 50.609375 34.8125 
Q 44.34375 29.296875 32.078125 29.296875 
L 19.671875 29.296875 
L 19.671875 0 
L 9.8125 0 
z
" id="BitstreamVeraSans-Roman-50"/>
    </defs>
    <g transform="translate(167.005625 18.14175)scale(0.144 -0.144)">
     <use xlink:href="#BitstreamVeraSans-Roman-4c"/>
     <use x="55.697265625" xlink:href="#BitstreamVeraSans-Roman-65"/>
     <use x="117.220703125" xlink:href="#BitstreamVeraSans-Roman-6e"/>
     <use x="180.599609375" xlink:href="#BitstreamVeraSans-Roman-67"/>
     <use x="244.076171875" xlink:href="#BitstreamVeraSans-Roman-74"/>
     <use x="283.28515625" xlink:href="#BitstreamVeraSans-Roman-68"/>
     <use x="346.6640625" xlink:href="#BitstreamVeraSans-Roman-73"/>
     <use x="398.763671875" xlink:href="#BitstreamVeraSans-Roman-2e"/>
     <use x="430.55078125" xlink:href="#BitstreamVeraSans-Roman-20"/>
     <use x="462.337890625" xlink:href="#BitstreamVeraSans-Roman-50"/>
     <use x="522.625" xlink:href="#BitstreamVeraSans-Roman-72"/>
     <use x="563.70703125" xlink:href="#BitstreamVeraSans-Roman-6f"/>
     <use x="624.888671875" xlink:href="#BitstreamVeraSans-Roman-62"/>
     <use x="688.365234375" xlink:href="#BitstreamVeraSans-Roman-20"/>
     <use x="720.15234375" xlink:href="#BitstreamVeraSans-Roman-65"/>
     <use x="781.67578125" xlink:href="#BitstreamVeraSans-Roman-6e"/>
     <use x="845.0546875" xlink:href="#BitstreamVeraSans-Roman-64"/>
     <use x="908.53125" xlink:href="#BitstreamVeraSans-Roman-3a"/>
     <use x="942.22265625" xlink:href="#BitstreamVeraSans-Roman-20"/>
     <use x="974.009765625" xlink:href="#BitstreamVeraSans-Roman-30"/>
     <use x="1037.6328125" xlink:href="#BitstreamVeraSans-Roman-2e"/>
     <use x="1069.419921875" xlink:href="#BitstreamVeraSans-Roman-31"/>
     <use x="1133.04296875" xlink:href="#BitstreamVeraSans-Roman-2c"/>
     <use x="1164.830078125" xlink:href="#BitstreamVeraSans-Roman-20"/>
     <use x="1196.6171875" xlink:href="#BitstreamVeraSans-Roman-52"/>
     <use x="1266.037109375" xlink:href="#BitstreamVeraSans-Roman-65"/>
     <use x="1327.560546875" xlink:href="#BitstreamVeraSans-Roman-70"/>
     <use x="1391.037109375" xlink:href="#BitstreamVeraSans-Roman-65"/>
     <use x="1452.560546875" xlink:href="#BitstreamVeraSans-Roman-74"/>
     <use x="1491.76953125" xlink:href="#BitstreamVeraSans-Roman-69"/>
     <use x="1519.552734375" xlink:href="#BitstreamVeraSans-Roman-74"/>
     <use x="1558.76171875" xlink:href="#BitstreamVeraSans-Roman-69"/>
     <use x="1586.544921875" xlink:href="#BitstreamVeraSans-Roman-6f"/>
     <use x="1647.7265625" xlink:href="#BitstreamVeraSans-Roman-6e"/>
     <use x="1711.10546875" xlink:href="#BitstreamVeraSans-Roman-73"/>
     <use x="1763.205078125" xlink:href="#BitstreamVeraSans-Roman-3a"/>
     <use x="1796.896484375" xlink:href="#BitstreamVeraSans-Roman-20"/>
     <use x="1828.68359375" xlink:href="#BitstreamVeraSans-Roman-32"/>
     <use x="1892.306640625" xlink:href="#BitstreamVeraSans-Roman-2c"/>
     <use x="1924.09375" xlink:href="#BitstreamVeraSans-Roman-20"/>
     <use x="1955.880859375" xlink:href="#BitstreamVeraSans-Roman-53"/>
     <use x="2019.357421875" xlink:href="#BitstreamVeraSans-Roman-74"/>
     <use x="2058.56640625" xlink:href="#BitstreamVeraSans-Roman-72"/>
     <use x="2099.6796875" xlink:href="#BitstreamVeraSans-Roman-61"/>
     <use x="2160.958984375" xlink:href="#BitstreamVeraSans-Roman-74"/>
     <use x="2200.16796875" xlink:href="#BitstreamVeraSans-Roman-65"/>
     <use x="2261.69140625" xlink:href="#BitstreamVeraSans-Roman-67"/>
     <use x="2325.16796875" xlink:href="#BitstreamVeraSans-Roman-69"/>
     <use x="2352.951171875" xlink:href="#BitstreamVeraSans-Roman-65"/>
     <use x="2414.474609375" xlink:href="#BitstreamVeraSans-Roman-73"/>
     <use x="2466.57421875" xlink:href="#BitstreamVeraSans-Roman-3a"/>
     <use x="2500.265625" xlink:href="#BitstreamVeraSans-Roman-20"/>
     <use x="2532.052734375" xlink:href="#BitstreamVeraSans-Roman-38"/>
     <use x="2595.67578125" xlink:href="#BitstreamVeraSans-Roman-2e"/>
    </g>
   </g>
  </g>
 </g>
 <defs>
  <clipPath id="pc8b0c3826a">
   <rect height="345.6" width="669.6" x="21.38" y="23.14175"/>
  </clipPath>
 </defs>
</svg>
