<?xml version="1.0" encoding="utf-8" standalone="no"?>
<!DOCTYPE svg PUBLIC "-//W3C//DTD SVG 1.1//EN"
  "http://www.w3.org/Graphics/SVG/1.1/DTD/svg11.dtd">
<!-- Created with matplotlib (http://matplotlib.org/) -->
<svg height="465pt" version="1.1" viewBox="0 0 698 465" width="698pt" xmlns="http://www.w3.org/2000/svg" xmlns:xlink="http://www.w3.org/1999/xlink">
 <defs>
  <style type="text/css">
*{stroke-linecap:butt;stroke-linejoin:round;stroke-miterlimit:100000;}
  </style>
 </defs>
 <g id="figure_1">
  <g id="patch_1">
   <path d="M -0 465.868 
L 698.18 465.868 
L 698.18 0 
L -0 0 
z
" style="fill:#ffffff;"/>
  </g>
  <g id="axes_1">
   <g id="patch_2">
    <path d="M 21.38 368.74175 
L 690.98 368.74175 
L 690.98 23.14175 
L 21.38 23.14175 
z
" style="fill:#ffffff;"/>
   </g>
   <g id="PolyCollection_1">
    <defs>
     <path d="M 105.057373 -109.223041 
L 86.502627 -109.223041 
L 85.534192 -111.748028 
L 84.562331 -114.273015 
L 83.601471 -116.798002 
L 82.66624 -119.322989 
L 81.770972 -121.847976 
L 80.929224 -124.372962 
L 80.153329 -126.897949 
L 79.454022 -129.422936 
L 78.840142 -131.947923 
L 78.31844 -134.47291 
L 77.893485 -136.997897 
L 77.567689 -139.522884 
L 77.341423 -142.047871 
L 77.213212 -144.572858 
L 77.18 -147.097844 
L 77.237443 -149.622831 
L 77.380217 -152.147818 
L 77.602301 -154.672805 
L 77.897226 -157.197792 
L 78.258269 -159.722779 
L 78.678578 -162.247766 
L 79.151244 -164.772753 
L 79.66931 -167.297739 
L 80.225751 -169.822726 
L 80.813433 -172.347713 
L 81.425082 -174.8727 
L 82.053274 -177.397687 
L 82.690471 -179.922674 
L 83.32911 -182.447661 
L 83.961737 -184.972648 
L 84.581195 -187.497634 
L 85.180833 -190.022621 
L 85.754737 -192.547608 
L 86.297933 -195.072595 
L 86.806573 -197.597582 
L 87.278059 -200.122569 
L 87.711096 -202.647556 
L 88.105684 -205.172543 
L 88.46303 -207.697529 
L 88.78539 -210.222516 
L 89.075867 -212.747503 
L 89.338173 -215.27249 
L 89.576366 -217.797477 
L 89.794602 -220.322464 
L 89.996898 -222.847451 
L 90.186939 -225.372438 
L 90.367919 -227.897425 
L 90.542444 -230.422411 
L 90.712479 -232.947398 
L 90.879345 -235.472385 
L 91.04376 -237.997372 
L 91.205909 -240.522359 
L 91.365544 -243.047346 
L 91.522088 -245.572333 
L 91.674745 -248.09732 
L 91.822611 -250.622306 
L 91.964761 -253.147293 
L 92.100331 -255.67228 
L 92.228575 -258.197267 
L 92.348913 -260.722254 
L 92.460957 -263.247241 
L 92.564528 -265.772228 
L 92.659666 -268.297215 
L 92.746633 -270.822201 
L 92.82591 -273.347188 
L 92.898191 -275.872175 
L 92.964374 -278.397162 
L 93.02554 -280.922149 
L 93.08293 -283.447136 
L 93.137906 -285.972123 
L 93.191899 -288.49711 
L 93.246347 -291.022096 
L 93.302625 -293.547083 
L 93.361964 -296.07207 
L 93.425373 -298.597057 
L 93.493571 -301.122044 
L 93.566931 -303.647031 
L 93.645443 -306.172018 
L 93.728711 -308.697005 
L 93.815972 -311.221992 
L 93.906147 -313.746978 
L 93.997924 -316.271965 
L 94.089849 -318.796952 
L 94.180438 -321.321939 
L 94.268289 -323.846926 
L 94.35218 -326.371913 
L 94.431158 -328.8969 
L 94.504597 -331.421887 
L 94.57223 -333.946873 
L 94.634149 -336.47186 
L 94.690774 -338.996847 
L 94.742799 -341.521834 
L 94.791118 -344.046821 
L 94.836737 -346.571808 
L 94.880689 -349.096795 
L 94.923944 -351.621782 
L 94.967342 -354.146768 
L 95.01153 -356.671755 
L 95.056935 -359.196742 
L 96.503065 -359.196742 
L 96.503065 -359.196742 
L 96.54847 -356.671755 
L 96.592658 -354.146768 
L 96.636056 -351.621782 
L 96.679311 -349.096795 
L 96.723263 -346.571808 
L 96.768882 -344.046821 
L 96.817201 -341.521834 
L 96.869226 -338.996847 
L 96.925851 -336.47186 
L 96.98777 -333.946873 
L 97.055403 -331.421887 
L 97.128842 -328.8969 
L 97.20782 -326.371913 
L 97.291711 -323.846926 
L 97.379562 -321.321939 
L 97.470151 -318.796952 
L 97.562076 -316.271965 
L 97.653853 -313.746978 
L 97.744028 -311.221992 
L 97.831289 -308.697005 
L 97.914557 -306.172018 
L 97.993069 -303.647031 
L 98.066429 -301.122044 
L 98.134627 -298.597057 
L 98.198036 -296.07207 
L 98.257375 -293.547083 
L 98.313653 -291.022096 
L 98.368101 -288.49711 
L 98.422094 -285.972123 
L 98.47707 -283.447136 
L 98.53446 -280.922149 
L 98.595626 -278.397162 
L 98.661809 -275.872175 
L 98.73409 -273.347188 
L 98.813367 -270.822201 
L 98.900334 -268.297215 
L 98.995472 -265.772228 
L 99.099043 -263.247241 
L 99.211087 -260.722254 
L 99.331425 -258.197267 
L 99.459669 -255.67228 
L 99.595239 -253.147293 
L 99.737389 -250.622306 
L 99.885255 -248.09732 
L 100.037912 -245.572333 
L 100.194456 -243.047346 
L 100.354091 -240.522359 
L 100.51624 -237.997372 
L 100.680655 -235.472385 
L 100.847521 -232.947398 
L 101.017556 -230.422411 
L 101.192081 -227.897425 
L 101.373061 -225.372438 
L 101.563102 -222.847451 
L 101.765398 -220.322464 
L 101.983634 -217.797477 
L 102.221827 -215.27249 
L 102.484133 -212.747503 
L 102.77461 -210.222516 
L 103.09697 -207.697529 
L 103.454316 -205.172543 
L 103.848904 -202.647556 
L 104.281941 -200.122569 
L 104.753427 -197.597582 
L 105.262067 -195.072595 
L 105.805263 -192.547608 
L 106.379167 -190.022621 
L 106.978805 -187.497634 
L 107.598263 -184.972648 
L 108.23089 -182.447661 
L 108.869529 -179.922674 
L 109.506726 -177.397687 
L 110.134918 -174.8727 
L 110.746567 -172.347713 
L 111.334249 -169.822726 
L 111.89069 -167.297739 
L 112.408756 -164.772753 
L 112.881422 -162.247766 
L 113.301731 -159.722779 
L 113.662774 -157.197792 
L 113.957699 -154.672805 
L 114.179783 -152.147818 
L 114.322557 -149.622831 
L 114.38 -147.097844 
L 114.346788 -144.572858 
L 114.218577 -142.047871 
L 113.992311 -139.522884 
L 113.666515 -136.997897 
L 113.24156 -134.47291 
L 112.719858 -131.947923 
L 112.105978 -129.422936 
L 111.406671 -126.897949 
L 110.630776 -124.372962 
L 109.789028 -121.847976 
L 108.89376 -119.322989 
L 107.958529 -116.798002 
L 106.997669 -114.273015 
L 106.025808 -111.748028 
L 105.057373 -109.223041 
z
" id="mbd603e7b78" style="stroke:#000000;stroke-opacity:0.3;"/>
    </defs>
    <g clip-path="url(#pcb4a323258)">
     <use style="fill:#bfbf00;fill-opacity:0.3;stroke:#000000;stroke-opacity:0.3;" x="0.0" xlink:href="#mbd603e7b78" y="465.868"/>
    </g>
   </g>
   <g id="PolyCollection_2">
    <defs>
     <path d="M 181.056633 -109.768184 
L 159.303367 -109.768184 
L 158.172635 -111.586422 
L 157.063958 -113.404661 
L 156.001787 -115.222899 
L 155.01048 -117.041138 
L 154.113165 -118.859376 
L 153.330601 -120.677615 
L 152.68011 -122.495853 
L 152.174654 -124.314091 
L 151.822133 -126.13233 
L 151.624969 -127.950568 
L 151.58 -129.768807 
L 151.678707 -131.587045 
L 151.907768 -133.405284 
L 152.249896 -135.223522 
L 152.6849 -137.04176 
L 153.190899 -138.859999 
L 153.745592 -140.678237 
L 154.32749 -142.496476 
L 154.917029 -144.314714 
L 155.497474 -146.132952 
L 156.055576 -147.951191 
L 156.581918 -149.769429 
L 157.070967 -151.587668 
L 157.52084 -153.405906 
L 157.932818 -155.224145 
L 158.310672 -157.042383 
L 158.659871 -158.860621 
L 158.986756 -160.67886 
L 159.297736 -162.497098 
L 159.598593 -164.315337 
L 159.893935 -166.133575 
L 160.186834 -167.951813 
L 160.478663 -169.770052 
L 160.769134 -171.58829 
L 161.0565 -173.406529 
L 161.337897 -175.224767 
L 161.60978 -177.043006 
L 161.868392 -178.861244 
L 162.110231 -180.679482 
L 162.332473 -182.497721 
L 162.533294 -184.315959 
L 162.7121 -186.134198 
L 162.869628 -187.952436 
L 163.007926 -189.770675 
L 163.13023 -191.588913 
L 163.24074 -193.407151 
L 163.344335 -195.22539 
L 163.446246 -197.043628 
L 163.551712 -198.861867 
L 163.66566 -200.680105 
L 163.792405 -202.498343 
L 163.935419 -204.316582 
L 164.097154 -206.13482 
L 164.278937 -207.953059 
L 164.480943 -209.771297 
L 164.702232 -211.589536 
L 164.940848 -213.407774 
L 165.193976 -215.226012 
L 165.45813 -217.044251 
L 165.729381 -218.862489 
L 166.003588 -220.680728 
L 166.27663 -222.498966 
L 166.54463 -224.317204 
L 166.804141 -226.135443 
L 167.052305 -227.953681 
L 167.286951 -229.77192 
L 167.506655 -231.590158 
L 167.710736 -233.408397 
L 167.899208 -235.226635 
L 168.072686 -237.044873 
L 168.232258 -238.863112 
L 168.379332 -240.68135 
L 168.515483 -242.499589 
L 168.642295 -244.317827 
L 168.76123 -246.136065 
L 168.873509 -247.954304 
L 168.980043 -249.772542 
L 169.081386 -251.590781 
L 169.177733 -253.409019 
L 169.268947 -255.227258 
L 169.354615 -257.045496 
L 169.434128 -258.863734 
L 169.506773 -260.681973 
L 169.571824 -262.500211 
L 169.628644 -264.31845 
L 169.676764 -266.136688 
L 169.715956 -267.954927 
L 169.746283 -269.773165 
L 169.768122 -271.591403 
L 169.782171 -273.409642 
L 169.789424 -275.22788 
L 169.791129 -277.046119 
L 169.788721 -278.864357 
L 169.783749 -280.682595 
L 169.777781 -282.500834 
L 169.772323 -284.319072 
L 169.768727 -286.137311 
L 169.768123 -287.955549 
L 169.771361 -289.773788 
L 170.588639 -289.773788 
L 170.588639 -289.773788 
L 170.591877 -287.955549 
L 170.591273 -286.137311 
L 170.587677 -284.319072 
L 170.582219 -282.500834 
L 170.576251 -280.682595 
L 170.571279 -278.864357 
L 170.568871 -277.046119 
L 170.570576 -275.22788 
L 170.577829 -273.409642 
L 170.591878 -271.591403 
L 170.613717 -269.773165 
L 170.644044 -267.954927 
L 170.683236 -266.136688 
L 170.731356 -264.31845 
L 170.788176 -262.500211 
L 170.853227 -260.681973 
L 170.925872 -258.863734 
L 171.005385 -257.045496 
L 171.091053 -255.227258 
L 171.182267 -253.409019 
L 171.278614 -251.590781 
L 171.379957 -249.772542 
L 171.486491 -247.954304 
L 171.59877 -246.136065 
L 171.717705 -244.317827 
L 171.844517 -242.499589 
L 171.980668 -240.68135 
L 172.127742 -238.863112 
L 172.287314 -237.044873 
L 172.460792 -235.226635 
L 172.649264 -233.408397 
L 172.853345 -231.590158 
L 173.073049 -229.77192 
L 173.307695 -227.953681 
L 173.555859 -226.135443 
L 173.81537 -224.317204 
L 174.08337 -222.498966 
L 174.356412 -220.680728 
L 174.630619 -218.862489 
L 174.90187 -217.044251 
L 175.166024 -215.226012 
L 175.419152 -213.407774 
L 175.657768 -211.589536 
L 175.879057 -209.771297 
L 176.081063 -207.953059 
L 176.262846 -206.13482 
L 176.424581 -204.316582 
L 176.567595 -202.498343 
L 176.69434 -200.680105 
L 176.808288 -198.861867 
L 176.913754 -197.043628 
L 177.015665 -195.22539 
L 177.11926 -193.407151 
L 177.22977 -191.588913 
L 177.352074 -189.770675 
L 177.490372 -187.952436 
L 177.6479 -186.134198 
L 177.826706 -184.315959 
L 178.027527 -182.497721 
L 178.249769 -180.679482 
L 178.491608 -178.861244 
L 178.75022 -177.043006 
L 179.022103 -175.224767 
L 179.3035 -173.406529 
L 179.590866 -171.58829 
L 179.881337 -169.770052 
L 180.173166 -167.951813 
L 180.466065 -166.133575 
L 180.761407 -164.315337 
L 181.062264 -162.497098 
L 181.373244 -160.67886 
L 181.700129 -158.860621 
L 182.049328 -157.042383 
L 182.427182 -155.224145 
L 182.83916 -153.405906 
L 183.289033 -151.587668 
L 183.778082 -149.769429 
L 184.304424 -147.951191 
L 184.862526 -146.132952 
L 185.442971 -144.314714 
L 186.03251 -142.496476 
L 186.614408 -140.678237 
L 187.169101 -138.859999 
L 187.6751 -137.04176 
L 188.110104 -135.223522 
L 188.452232 -133.405284 
L 188.681293 -131.587045 
L 188.78 -129.768807 
L 188.735031 -127.950568 
L 188.537867 -126.13233 
L 188.185346 -124.314091 
L 187.67989 -122.495853 
L 187.029399 -120.677615 
L 186.246835 -118.859376 
L 185.34952 -117.041138 
L 184.358213 -115.222899 
L 183.296042 -113.404661 
L 182.187365 -111.586422 
L 181.056633 -109.768184 
z
" id="m24c7f45959" style="stroke:#000000;stroke-opacity:0.3;"/>
    </defs>
    <g clip-path="url(#pcb4a323258)">
     <use style="fill:#bfbf00;fill-opacity:0.3;stroke:#000000;stroke-opacity:0.3;" x="0.0" xlink:href="#m24c7f45959" y="465.868"/>
    </g>
   </g>
   <g id="PolyCollection_3">
    <defs>
     <path d="M 254.956693 -108.308291 
L 234.203307 -108.308291 
L 233.143238 -110.289847 
L 232.10322 -112.271403 
L 231.101744 -114.252959 
L 230.156299 -116.234515 
L 229.282737 -118.216071 
L 228.494755 -120.197627 
L 227.80354 -122.179183 
L 227.21757 -124.160739 
L 226.742583 -126.142295 
L 226.38168 -128.123852 
L 226.135541 -130.105408 
L 226.002724 -132.086964 
L 225.98 -134.06852 
L 226.062698 -136.050076 
L 226.245026 -138.031632 
L 226.520348 -140.013188 
L 226.881399 -141.994744 
L 227.320439 -143.9763 
L 227.829348 -145.957856 
L 228.399672 -147.939412 
L 229.022637 -149.920968 
L 229.689155 -151.902524 
L 230.389841 -153.88408 
L 231.115049 -155.865637 
L 231.854959 -157.847193 
L 232.599698 -159.828749 
L 233.339512 -161.810305 
L 234.06498 -163.791861 
L 234.767245 -165.773417 
L 235.43827 -167.754973 
L 236.071075 -169.736529 
L 236.659964 -171.718085 
L 237.200709 -173.699641 
L 237.69068 -175.681197 
L 238.128919 -177.662753 
L 238.51614 -179.644309 
L 238.854649 -181.625865 
L 239.14819 -183.607422 
L 239.401717 -185.588978 
L 239.621106 -187.570534 
L 239.812809 -189.55209 
L 239.983495 -191.533646 
L 240.139682 -193.515202 
L 240.287396 -195.496758 
L 240.431887 -197.478314 
L 240.577409 -199.45987 
L 240.72709 -201.441426 
L 240.882898 -203.422982 
L 241.045679 -205.404538 
L 241.21528 -207.386094 
L 241.390713 -209.36765 
L 241.570356 -211.349207 
L 241.752157 -213.330763 
L 241.933829 -215.312319 
L 242.113016 -217.293875 
L 242.287427 -219.275431 
L 242.454938 -221.256987 
L 242.613656 -223.238543 
L 242.761965 -225.220099 
L 242.898547 -227.201655 
L 243.022404 -229.183211 
L 243.132865 -231.164767 
L 243.229608 -233.146323 
L 243.312664 -235.127879 
L 243.382434 -237.109435 
L 243.43969 -239.090992 
L 243.485557 -241.072548 
L 243.521489 -243.054104 
L 243.549202 -245.03566 
L 243.570598 -247.017216 
L 243.587656 -248.998772 
L 243.602313 -250.980328 
L 243.616335 -252.961884 
L 243.631203 -254.94344 
L 243.648013 -256.924996 
L 243.667414 -258.906552 
L 243.689585 -260.888108 
L 243.714258 -262.869664 
L 243.740785 -264.85122 
L 243.768238 -266.832777 
L 243.795537 -268.814333 
L 243.821584 -270.795889 
L 243.845386 -272.777445 
L 243.866166 -274.759001 
L 243.883437 -276.740557 
L 243.897043 -278.722113 
L 243.907162 -280.703669 
L 243.914277 -282.685225 
L 243.919122 -284.666781 
L 243.92261 -286.648337 
L 243.925757 -288.629893 
L 243.9296 -290.611449 
L 243.935131 -292.593005 
L 243.943235 -294.574561 
L 243.954641 -296.556118 
L 243.969889 -298.537674 
L 243.989304 -300.51923 
L 244.01299 -302.500786 
L 244.040826 -304.482342 
L 245.119174 -304.482342 
L 245.119174 -304.482342 
L 245.14701 -302.500786 
L 245.170696 -300.51923 
L 245.190111 -298.537674 
L 245.205359 -296.556118 
L 245.216765 -294.574561 
L 245.224869 -292.593005 
L 245.2304 -290.611449 
L 245.234243 -288.629893 
L 245.23739 -286.648337 
L 245.240878 -284.666781 
L 245.245723 -282.685225 
L 245.252838 -280.703669 
L 245.262957 -278.722113 
L 245.276563 -276.740557 
L 245.293834 -274.759001 
L 245.314614 -272.777445 
L 245.338416 -270.795889 
L 245.364463 -268.814333 
L 245.391762 -266.832777 
L 245.419215 -264.85122 
L 245.445742 -262.869664 
L 245.470415 -260.888108 
L 245.492586 -258.906552 
L 245.511987 -256.924996 
L 245.528797 -254.94344 
L 245.543665 -252.961884 
L 245.557687 -250.980328 
L 245.572344 -248.998772 
L 245.589402 -247.017216 
L 245.610798 -245.03566 
L 245.638511 -243.054104 
L 245.674443 -241.072548 
L 245.72031 -239.090992 
L 245.777566 -237.109435 
L 245.847336 -235.127879 
L 245.930392 -233.146323 
L 246.027135 -231.164767 
L 246.137596 -229.183211 
L 246.261453 -227.201655 
L 246.398035 -225.220099 
L 246.546344 -223.238543 
L 246.705062 -221.256987 
L 246.872573 -219.275431 
L 247.046984 -217.293875 
L 247.226171 -215.312319 
L 247.407843 -213.330763 
L 247.589644 -211.349207 
L 247.769287 -209.36765 
L 247.94472 -207.386094 
L 248.114321 -205.404538 
L 248.277102 -203.422982 
L 248.43291 -201.441426 
L 248.582591 -199.45987 
L 248.728113 -197.478314 
L 248.872604 -195.496758 
L 249.020318 -193.515202 
L 249.176505 -191.533646 
L 249.347191 -189.55209 
L 249.538894 -187.570534 
L 249.758283 -185.588978 
L 250.01181 -183.607422 
L 250.305351 -181.625865 
L 250.64386 -179.644309 
L 251.031081 -177.662753 
L 251.46932 -175.681197 
L 251.959291 -173.699641 
L 252.500036 -171.718085 
L 253.088925 -169.736529 
L 253.72173 -167.754973 
L 254.392755 -165.773417 
L 255.09502 -163.791861 
L 255.820488 -161.810305 
L 256.560302 -159.828749 
L 257.305041 -157.847193 
L 258.044951 -155.865637 
L 258.770159 -153.88408 
L 259.470845 -151.902524 
L 260.137363 -149.920968 
L 260.760328 -147.939412 
L 261.330652 -145.957856 
L 261.839561 -143.9763 
L 262.278601 -141.994744 
L 262.639652 -140.013188 
L 262.914974 -138.031632 
L 263.097302 -136.050076 
L 263.18 -134.06852 
L 263.157276 -132.086964 
L 263.024459 -130.105408 
L 262.77832 -128.123852 
L 262.417417 -126.142295 
L 261.94243 -124.160739 
L 261.35646 -122.179183 
L 260.665245 -120.197627 
L 259.877263 -118.216071 
L 259.003701 -116.234515 
L 258.058256 -114.252959 
L 257.05678 -112.271403 
L 256.016762 -110.289847 
L 254.956693 -108.308291 
z
" id="mcd1feb765a" style="stroke:#000000;stroke-opacity:0.3;"/>
    </defs>
    <g clip-path="url(#pcb4a323258)">
     <use style="fill:#bfbf00;fill-opacity:0.3;stroke:#000000;stroke-opacity:0.3;" x="0.0" xlink:href="#mcd1feb765a" y="465.868"/>
    </g>
   </g>
   <g id="PolyCollection_4">
    <defs>
     <path d="M 329.464588 -104.538362 
L 308.495412 -104.538362 
L 307.490594 -106.413886 
L 306.497585 -108.28941 
L 305.532776 -110.164934 
L 304.612525 -112.040458 
L 303.752607 -113.915982 
L 302.96768 -115.791506 
L 302.270795 -117.667029 
L 301.672974 -119.542553 
L 301.182873 -121.418077 
L 300.806551 -123.293601 
L 300.547341 -125.169125 
L 300.40584 -127.044649 
L 300.38 -128.920173 
L 300.465315 -130.795697 
L 300.655092 -132.671221 
L 300.940789 -134.546745 
L 301.31239 -136.422269 
L 301.758815 -138.297793 
L 302.268324 -140.173316 
L 302.828917 -142.04884 
L 303.4287 -143.924364 
L 304.056202 -145.799888 
L 304.700659 -147.675412 
L 305.352219 -149.550936 
L 306.002101 -151.42646 
L 306.642698 -153.301984 
L 307.267616 -155.177508 
L 307.871677 -157.053032 
L 308.450874 -158.928556 
L 309.002307 -160.80408 
L 309.524081 -162.679603 
L 310.015203 -164.555127 
L 310.475463 -166.430651 
L 310.905315 -168.306175 
L 311.305761 -170.181699 
L 311.678235 -172.057223 
L 312.024494 -173.932747 
L 312.34652 -175.808271 
L 312.646426 -177.683795 
L 312.926364 -179.559319 
L 313.188456 -181.434843 
L 313.434718 -183.310366 
L 313.667004 -185.18589 
L 313.886954 -187.061414 
L 314.09596 -188.936938 
L 314.295144 -190.812462 
L 314.485346 -192.687986 
L 314.667139 -194.56351 
L 314.840846 -196.439034 
L 315.006587 -198.314558 
L 315.164325 -200.190082 
L 315.31393 -202.065606 
L 315.455248 -203.94113 
L 315.588162 -205.816653 
L 315.712654 -207.692177 
L 315.82885 -209.567701 
L 315.937047 -211.443225 
L 316.037723 -213.318749 
L 316.131518 -215.194273 
L 316.219201 -217.069797 
L 316.301615 -218.945321 
L 316.379608 -220.820845 
L 316.453969 -222.696369 
L 316.525357 -224.571893 
L 316.594249 -226.447417 
L 316.660905 -228.32294 
L 316.725357 -230.198464 
L 316.787424 -232.073988 
L 316.846751 -233.949512 
L 316.90287 -235.825036 
L 316.955272 -237.70056 
L 317.00349 -239.576084 
L 317.047173 -241.451608 
L 317.086151 -243.327132 
L 317.120483 -245.202656 
L 317.150473 -247.07818 
L 317.17667 -248.953703 
L 317.199836 -250.829227 
L 317.220896 -252.704751 
L 317.240874 -254.580275 
L 317.260816 -256.455799 
L 317.281726 -258.331323 
L 317.304494 -260.206847 
L 317.329852 -262.082371 
L 317.358346 -263.957895 
L 317.39032 -265.833419 
L 317.42593 -267.708943 
L 317.465168 -269.584467 
L 317.507895 -271.45999 
L 317.553886 -273.335514 
L 317.602871 -275.211038 
L 317.654565 -277.086562 
L 317.708697 -278.962086 
L 317.765022 -280.83761 
L 317.823322 -282.713134 
L 317.883398 -284.588658 
L 317.945046 -286.464182 
L 318.008046 -288.339706 
L 318.072133 -290.21523 
L 319.887867 -290.21523 
L 319.887867 -290.21523 
L 319.951954 -288.339706 
L 320.014954 -286.464182 
L 320.076602 -284.588658 
L 320.136678 -282.713134 
L 320.194978 -280.83761 
L 320.251303 -278.962086 
L 320.305435 -277.086562 
L 320.357129 -275.211038 
L 320.406114 -273.335514 
L 320.452105 -271.45999 
L 320.494832 -269.584467 
L 320.53407 -267.708943 
L 320.56968 -265.833419 
L 320.601654 -263.957895 
L 320.630148 -262.082371 
L 320.655506 -260.206847 
L 320.678274 -258.331323 
L 320.699184 -256.455799 
L 320.719126 -254.580275 
L 320.739104 -252.704751 
L 320.760164 -250.829227 
L 320.78333 -248.953703 
L 320.809527 -247.07818 
L 320.839517 -245.202656 
L 320.873849 -243.327132 
L 320.912827 -241.451608 
L 320.95651 -239.576084 
L 321.004728 -237.70056 
L 321.05713 -235.825036 
L 321.113249 -233.949512 
L 321.172576 -232.073988 
L 321.234643 -230.198464 
L 321.299095 -228.32294 
L 321.365751 -226.447417 
L 321.434643 -224.571893 
L 321.506031 -222.696369 
L 321.580392 -220.820845 
L 321.658385 -218.945321 
L 321.740799 -217.069797 
L 321.828482 -215.194273 
L 321.922277 -213.318749 
L 322.022953 -211.443225 
L 322.13115 -209.567701 
L 322.247346 -207.692177 
L 322.371838 -205.816653 
L 322.504752 -203.94113 
L 322.64607 -202.065606 
L 322.795675 -200.190082 
L 322.953413 -198.314558 
L 323.119154 -196.439034 
L 323.292861 -194.56351 
L 323.474654 -192.687986 
L 323.664856 -190.812462 
L 323.86404 -188.936938 
L 324.073046 -187.061414 
L 324.292996 -185.18589 
L 324.525282 -183.310366 
L 324.771544 -181.434843 
L 325.033636 -179.559319 
L 325.313574 -177.683795 
L 325.61348 -175.808271 
L 325.935506 -173.932747 
L 326.281765 -172.057223 
L 326.654239 -170.181699 
L 327.054685 -168.306175 
L 327.484537 -166.430651 
L 327.944797 -164.555127 
L 328.435919 -162.679603 
L 328.957693 -160.80408 
L 329.509126 -158.928556 
L 330.088323 -157.053032 
L 330.692384 -155.177508 
L 331.317302 -153.301984 
L 331.957899 -151.42646 
L 332.607781 -149.550936 
L 333.259341 -147.675412 
L 333.903798 -145.799888 
L 334.5313 -143.924364 
L 335.131083 -142.04884 
L 335.691676 -140.173316 
L 336.201185 -138.297793 
L 336.64761 -136.422269 
L 337.019211 -134.546745 
L 337.304908 -132.671221 
L 337.494685 -130.795697 
L 337.58 -128.920173 
L 337.55416 -127.044649 
L 337.412659 -125.169125 
L 337.153449 -123.293601 
L 336.777127 -121.418077 
L 336.287026 -119.542553 
L 335.689205 -117.667029 
L 334.99232 -115.791506 
L 334.207393 -113.915982 
L 333.347475 -112.040458 
L 332.427224 -110.164934 
L 331.462415 -108.28941 
L 330.469406 -106.413886 
L 329.464588 -104.538362 
z
" id="m969f797644" style="stroke:#000000;stroke-opacity:0.3;"/>
    </defs>
    <g clip-path="url(#pcb4a323258)">
     <use style="fill:#bfbf00;fill-opacity:0.3;stroke:#000000;stroke-opacity:0.3;" x="0.0" xlink:href="#m969f797644" y="465.868"/>
    </g>
   </g>
   <g id="PolyCollection_5">
    <defs>
     <path d="M 404.249763 -105.678087 
L 382.510237 -105.678087 
L 381.486089 -107.146198 
L 380.483364 -108.614309 
L 379.519477 -110.082421 
L 378.611309 -111.550532 
L 377.77459 -113.018643 
L 377.023342 -114.486755 
L 376.369385 -115.954866 
L 375.821962 -117.422977 
L 375.387452 -118.891089 
L 375.06923 -120.3592 
L 374.867622 -121.827311 
L 374.78 -123.295423 
L 374.800967 -124.763534 
L 374.922648 -126.231645 
L 375.135054 -127.699756 
L 375.426517 -129.167868 
L 375.784176 -130.635979 
L 376.194481 -132.10409 
L 376.643728 -133.572202 
L 377.118575 -135.040313 
L 377.606533 -136.508424 
L 378.096412 -137.976536 
L 378.578694 -139.444647 
L 379.04582 -140.912758 
L 379.492376 -142.38087 
L 379.915155 -143.848981 
L 380.313117 -145.317092 
L 380.68722 -146.785204 
L 381.040154 -148.253315 
L 381.375996 -149.721426 
L 381.699793 -151.189538 
L 382.017127 -152.657649 
L 382.333662 -154.12576 
L 382.654733 -155.593872 
L 382.984973 -157.061983 
L 383.328013 -158.530094 
L 383.686265 -159.998205 
L 384.060792 -161.466317 
L 384.451266 -162.934428 
L 384.856005 -164.402539 
L 385.272087 -165.870651 
L 385.695518 -167.338762 
L 386.121458 -168.806873 
L 386.544465 -170.274985 
L 386.958783 -171.743096 
L 387.358616 -173.211207 
L 387.738422 -174.679319 
L 388.09318 -176.14743 
L 388.418639 -177.615541 
L 388.711533 -179.083653 
L 388.969747 -180.551764 
L 389.192426 -182.019875 
L 389.380022 -183.487987 
L 389.534267 -184.956098 
L 389.658075 -186.424209 
L 389.755372 -187.892321 
L 389.830864 -189.360432 
L 389.889764 -190.828543 
L 389.937482 -192.296654 
L 389.979316 -193.764766 
L 390.020157 -195.232877 
L 390.064233 -196.700988 
L 390.114915 -198.1691 
L 390.174596 -199.637211 
L 390.244645 -201.105322 
L 390.325448 -202.573434 
L 390.416507 -204.041545 
L 390.516609 -205.509656 
L 390.624018 -206.977768 
L 390.736689 -208.445879 
L 390.852469 -209.91399 
L 390.969279 -211.382102 
L 391.085249 -212.850213 
L 391.198811 -214.318324 
L 391.308746 -215.786436 
L 391.414181 -217.254547 
L 391.514555 -218.722658 
L 391.609562 -220.190769 
L 391.699083 -221.658881 
L 391.783121 -223.126992 
L 391.861744 -224.595103 
L 391.935049 -226.063215 
L 392.003147 -227.531326 
L 392.066158 -228.999437 
L 392.124233 -230.467549 
L 392.177574 -231.93566 
L 392.22646 -233.403771 
L 392.271272 -234.871883 
L 392.312504 -236.339994 
L 392.35076 -237.808105 
L 392.386742 -239.276217 
L 392.421221 -240.744328 
L 392.454996 -242.212439 
L 392.488851 -243.680551 
L 392.523504 -245.148662 
L 392.559565 -246.616773 
L 392.597493 -248.084885 
L 392.637572 -249.552996 
L 392.679892 -251.021107 
L 394.080108 -251.021107 
L 394.080108 -251.021107 
L 394.122428 -249.552996 
L 394.162507 -248.084885 
L 394.200435 -246.616773 
L 394.236496 -245.148662 
L 394.271149 -243.680551 
L 394.305004 -242.212439 
L 394.338779 -240.744328 
L 394.373258 -239.276217 
L 394.40924 -237.808105 
L 394.447496 -236.339994 
L 394.488728 -234.871883 
L 394.53354 -233.403771 
L 394.582426 -231.93566 
L 394.635767 -230.467549 
L 394.693842 -228.999437 
L 394.756853 -227.531326 
L 394.824951 -226.063215 
L 394.898256 -224.595103 
L 394.976879 -223.126992 
L 395.060917 -221.658881 
L 395.150438 -220.190769 
L 395.245445 -218.722658 
L 395.345819 -217.254547 
L 395.451254 -215.786436 
L 395.561189 -214.318324 
L 395.674751 -212.850213 
L 395.790721 -211.382102 
L 395.907531 -209.91399 
L 396.023311 -208.445879 
L 396.135982 -206.977768 
L 396.243391 -205.509656 
L 396.343493 -204.041545 
L 396.434552 -202.573434 
L 396.515355 -201.105322 
L 396.585404 -199.637211 
L 396.645085 -198.1691 
L 396.695767 -196.700988 
L 396.739843 -195.232877 
L 396.780684 -193.764766 
L 396.822518 -192.296654 
L 396.870236 -190.828543 
L 396.929136 -189.360432 
L 397.004628 -187.892321 
L 397.101925 -186.424209 
L 397.225733 -184.956098 
L 397.379978 -183.487987 
L 397.567574 -182.019875 
L 397.790253 -180.551764 
L 398.048467 -179.083653 
L 398.341361 -177.615541 
L 398.66682 -176.14743 
L 399.021578 -174.679319 
L 399.401384 -173.211207 
L 399.801217 -171.743096 
L 400.215535 -170.274985 
L 400.638542 -168.806873 
L 401.064482 -167.338762 
L 401.487913 -165.870651 
L 401.903995 -164.402539 
L 402.308734 -162.934428 
L 402.699208 -161.466317 
L 403.073735 -159.998205 
L 403.431987 -158.530094 
L 403.775027 -157.061983 
L 404.105267 -155.593872 
L 404.426338 -154.12576 
L 404.742873 -152.657649 
L 405.060207 -151.189538 
L 405.384004 -149.721426 
L 405.719846 -148.253315 
L 406.07278 -146.785204 
L 406.446883 -145.317092 
L 406.844845 -143.848981 
L 407.267624 -142.38087 
L 407.71418 -140.912758 
L 408.181306 -139.444647 
L 408.663588 -137.976536 
L 409.153467 -136.508424 
L 409.641425 -135.040313 
L 410.116272 -133.572202 
L 410.565519 -132.10409 
L 410.975824 -130.635979 
L 411.333483 -129.167868 
L 411.624946 -127.699756 
L 411.837352 -126.231645 
L 411.959033 -124.763534 
L 411.98 -123.295423 
L 411.892378 -121.827311 
L 411.69077 -120.3592 
L 411.372548 -118.891089 
L 410.938038 -117.422977 
L 410.390615 -115.954866 
L 409.736658 -114.486755 
L 408.98541 -113.018643 
L 408.148691 -111.550532 
L 407.240523 -110.082421 
L 406.276636 -108.614309 
L 405.273911 -107.146198 
L 404.249763 -105.678087 
z
" id="m1bc6124ceb" style="stroke:#000000;stroke-opacity:0.3;"/>
    </defs>
    <g clip-path="url(#pcb4a323258)">
     <use style="fill:#bfbf00;fill-opacity:0.3;stroke:#000000;stroke-opacity:0.3;" x="0.0" xlink:href="#m1bc6124ceb" y="465.868"/>
    </g>
   </g>
   <g id="PolyCollection_6">
    <defs>
     <path d="M 480.620074 -101.598285 
L 454.939926 -101.598285 
L 453.661901 -104.699503 
L 452.487009 -107.80072 
L 451.45227 -110.901938 
L 450.588819 -114.003156 
L 449.920024 -117.104373 
L 449.460332 -120.205591 
L 449.214897 -123.306808 
L 449.18 -126.408026 
L 449.344133 -129.509243 
L 449.689561 -132.610461 
L 450.194136 -135.711678 
L 450.833127 -138.812896 
L 451.580893 -141.914113 
L 452.412247 -145.015331 
L 453.303449 -148.116548 
L 454.232851 -151.217766 
L 455.181213 -154.318984 
L 456.13179 -157.420201 
L 457.070269 -160.521419 
L 457.98463 -163.622636 
L 458.864975 -166.723854 
L 459.703369 -169.825071 
L 460.493679 -172.926289 
L 461.231424 -176.027506 
L 461.913616 -179.128724 
L 462.538586 -182.229941 
L 463.105803 -185.331159 
L 463.615679 -188.432376 
L 464.069386 -191.533594 
L 464.468689 -194.634811 
L 464.815811 -197.736029 
L 465.11333 -200.837247 
L 465.36411 -203.938464 
L 465.57126 -207.039682 
L 465.738113 -210.140899 
L 465.86821 -213.242117 
L 465.965277 -216.343334 
L 466.033203 -219.444552 
L 466.075993 -222.545769 
L 466.097712 -225.646987 
L 466.102425 -228.748204 
L 466.094123 -231.849422 
L 466.076659 -234.950639 
L 466.053685 -238.051857 
L 466.028595 -241.153075 
L 466.004489 -244.254292 
L 465.984128 -247.35551 
L 465.969903 -250.456727 
L 465.963803 -253.557945 
L 465.967384 -256.659162 
L 465.981727 -259.76038 
L 466.007419 -262.861597 
L 466.04452 -265.962815 
L 466.092569 -269.064032 
L 466.150599 -272.16525 
L 466.217187 -275.266467 
L 466.29054 -278.367685 
L 466.368603 -281.468902 
L 466.44919 -284.57012 
L 466.530128 -287.671338 
L 466.609396 -290.772555 
L 466.685249 -293.873773 
L 466.756309 -296.97499 
L 466.821632 -300.076208 
L 466.880727 -303.177425 
L 466.933547 -306.278643 
L 466.980438 -309.37986 
L 467.022078 -312.481078 
L 467.059385 -315.582295 
L 467.093425 -318.683513 
L 467.125324 -321.78473 
L 467.156168 -324.885948 
L 467.18693 -327.987166 
L 467.218398 -331.088383 
L 467.251121 -334.189601 
L 467.285371 -337.290818 
L 467.32113 -340.392036 
L 467.358091 -343.493253 
L 467.395679 -346.594471 
L 467.4331 -349.695688 
L 467.469398 -352.796906 
L 467.503524 -355.898123 
L 467.534417 -358.999341 
L 467.561082 -362.100558 
L 467.582664 -365.201776 
L 467.598515 -368.302993 
L 467.608245 -371.404211 
L 467.611764 -374.505429 
L 467.609302 -377.606646 
L 467.601412 -380.707864 
L 467.588953 -383.809081 
L 467.573051 -386.910299 
L 467.555043 -390.011516 
L 467.536397 -393.112734 
L 467.518615 -396.213951 
L 467.50314 -399.315169 
L 467.491247 -402.416386 
L 467.483951 -405.517604 
L 467.481939 -408.618821 
L 468.078061 -408.618821 
L 468.078061 -408.618821 
L 468.076049 -405.517604 
L 468.068753 -402.416386 
L 468.05686 -399.315169 
L 468.041385 -396.213951 
L 468.023603 -393.112734 
L 468.004957 -390.011516 
L 467.986949 -386.910299 
L 467.971047 -383.809081 
L 467.958588 -380.707864 
L 467.950698 -377.606646 
L 467.948236 -374.505429 
L 467.951755 -371.404211 
L 467.961485 -368.302993 
L 467.977336 -365.201776 
L 467.998918 -362.100558 
L 468.025583 -358.999341 
L 468.056476 -355.898123 
L 468.090602 -352.796906 
L 468.1269 -349.695688 
L 468.164321 -346.594471 
L 468.201909 -343.493253 
L 468.23887 -340.392036 
L 468.274629 -337.290818 
L 468.308879 -334.189601 
L 468.341602 -331.088383 
L 468.37307 -327.987166 
L 468.403832 -324.885948 
L 468.434676 -321.78473 
L 468.466575 -318.683513 
L 468.500615 -315.582295 
L 468.537922 -312.481078 
L 468.579562 -309.37986 
L 468.626453 -306.278643 
L 468.679273 -303.177425 
L 468.738368 -300.076208 
L 468.803691 -296.97499 
L 468.874751 -293.873773 
L 468.950604 -290.772555 
L 469.029872 -287.671338 
L 469.11081 -284.57012 
L 469.191397 -281.468902 
L 469.26946 -278.367685 
L 469.342813 -275.266467 
L 469.409401 -272.16525 
L 469.467431 -269.064032 
L 469.51548 -265.962815 
L 469.552581 -262.861597 
L 469.578273 -259.76038 
L 469.592616 -256.659162 
L 469.596197 -253.557945 
L 469.590097 -250.456727 
L 469.575872 -247.35551 
L 469.555511 -244.254292 
L 469.531405 -241.153075 
L 469.506315 -238.051857 
L 469.483341 -234.950639 
L 469.465877 -231.849422 
L 469.457575 -228.748204 
L 469.462288 -225.646987 
L 469.484007 -222.545769 
L 469.526797 -219.444552 
L 469.594723 -216.343334 
L 469.69179 -213.242117 
L 469.821887 -210.140899 
L 469.98874 -207.039682 
L 470.19589 -203.938464 
L 470.44667 -200.837247 
L 470.744189 -197.736029 
L 471.091311 -194.634811 
L 471.490614 -191.533594 
L 471.944321 -188.432376 
L 472.454197 -185.331159 
L 473.021414 -182.229941 
L 473.646384 -179.128724 
L 474.328576 -176.027506 
L 475.066321 -172.926289 
L 475.856631 -169.825071 
L 476.695025 -166.723854 
L 477.57537 -163.622636 
L 478.489731 -160.521419 
L 479.42821 -157.420201 
L 480.378787 -154.318984 
L 481.327149 -151.217766 
L 482.256551 -148.116548 
L 483.147753 -145.015331 
L 483.979107 -141.914113 
L 484.726873 -138.812896 
L 485.365864 -135.711678 
L 485.870439 -132.610461 
L 486.215867 -129.509243 
L 486.38 -126.408026 
L 486.345103 -123.306808 
L 486.099668 -120.205591 
L 485.639976 -117.104373 
L 484.971181 -114.003156 
L 484.10773 -110.901938 
L 483.072991 -107.80072 
L 481.898099 -104.699503 
L 480.620074 -101.598285 
z
" id="m54ed02208f" style="stroke:#000000;stroke-opacity:0.3;"/>
    </defs>
    <g clip-path="url(#pcb4a323258)">
     <use style="fill:#bfbf00;fill-opacity:0.3;stroke:#000000;stroke-opacity:0.3;" x="0.0" xlink:href="#m54ed02208f" y="465.868"/>
    </g>
   </g>
   <g id="PolyCollection_7">
    <defs>
     <path d="M 552.960682 -103.584598 
L 531.399318 -103.584598 
L 529.957829 -105.716525 
L 528.559142 -107.848452 
L 527.253539 -109.980379 
L 526.089728 -112.112306 
L 525.111282 -114.244233 
L 524.353364 -116.37616 
L 523.840106 -118.508087 
L 523.582929 -120.640014 
L 523.58 -122.771941 
L 523.816847 -124.903868 
L 524.268054 -127.035795 
L 524.899801 -129.167722 
L 525.672937 -131.299649 
L 526.54622 -133.431576 
L 527.479386 -135.563503 
L 528.435725 -137.69543 
L 529.383967 -139.827357 
L 530.299368 -141.959284 
L 531.164012 -144.091211 
L 531.966412 -146.223138 
L 532.700619 -148.355065 
L 533.36502 -150.486992 
L 533.961059 -152.618919 
L 534.492069 -154.750846 
L 534.962335 -156.882773 
L 535.376472 -159.0147 
L 535.739117 -161.146627 
L 536.054879 -163.278554 
L 536.328472 -165.410481 
L 536.564913 -167.542408 
L 536.769695 -169.674335 
L 536.948861 -171.806262 
L 537.108941 -173.938189 
L 537.256738 -176.070116 
L 537.398998 -178.202043 
L 537.542006 -180.33397 
L 537.69117 -182.465897 
L 537.850638 -184.597824 
L 538.023012 -186.729751 
L 538.209179 -188.861678 
L 538.408288 -190.993605 
L 538.617873 -193.125532 
L 538.834118 -195.257459 
L 539.052244 -197.389386 
L 539.266975 -199.521313 
L 539.473059 -201.65324 
L 539.665777 -203.785167 
L 539.841399 -205.917094 
L 539.997538 -208.049021 
L 540.133358 -210.180948 
L 540.249619 -212.312875 
L 540.348552 -214.444802 
L 540.433583 -216.576729 
L 540.508936 -218.708656 
L 540.579165 -220.840583 
L 540.648682 -222.97251 
L 540.721313 -225.104437 
L 540.799952 -227.236364 
L 540.886335 -229.368291 
L 540.980954 -231.500218 
L 541.083109 -233.632145 
L 541.191087 -235.764072 
L 541.302424 -237.895999 
L 541.414224 -240.027926 
L 541.523486 -242.159853 
L 541.627405 -244.29178 
L 541.723611 -246.423707 
L 541.810332 -248.555634 
L 541.886469 -250.687561 
L 541.951594 -252.819488 
L 542.00588 -254.951415 
L 542.049982 -257.083342 
L 542.0849 -259.215269 
L 542.111829 -261.347196 
L 542.132032 -263.479123 
L 542.146727 -265.61105 
L 542.157005 -267.742977 
L 542.163778 -269.874904 
L 542.167748 -272.006831 
L 542.1694 -274.138758 
L 542.169006 -276.270685 
L 542.166645 -278.402612 
L 542.162228 -280.534539 
L 542.155533 -282.666466 
L 542.146252 -284.798393 
L 542.134047 -286.93032 
L 542.118613 -289.062247 
L 542.099755 -291.194174 
L 542.077459 -293.326101 
L 542.051962 -295.458028 
L 542.023805 -297.589955 
L 541.993854 -299.721882 
L 541.963285 -301.853809 
L 541.933529 -303.985736 
L 541.906167 -306.117663 
L 541.882803 -308.24959 
L 541.864903 -310.381517 
L 541.853649 -312.513444 
L 541.84981 -314.645371 
L 542.51019 -314.645371 
L 542.51019 -314.645371 
L 542.506351 -312.513444 
L 542.495097 -310.381517 
L 542.477197 -308.24959 
L 542.453833 -306.117663 
L 542.426471 -303.985736 
L 542.396715 -301.853809 
L 542.366146 -299.721882 
L 542.336195 -297.589955 
L 542.308038 -295.458028 
L 542.282541 -293.326101 
L 542.260245 -291.194174 
L 542.241387 -289.062247 
L 542.225953 -286.93032 
L 542.213748 -284.798393 
L 542.204467 -282.666466 
L 542.197772 -280.534539 
L 542.193355 -278.402612 
L 542.190994 -276.270685 
L 542.1906 -274.138758 
L 542.192252 -272.006831 
L 542.196222 -269.874904 
L 542.202995 -267.742977 
L 542.213273 -265.61105 
L 542.227968 -263.479123 
L 542.248171 -261.347196 
L 542.2751 -259.215269 
L 542.310018 -257.083342 
L 542.35412 -254.951415 
L 542.408406 -252.819488 
L 542.473531 -250.687561 
L 542.549668 -248.555634 
L 542.636389 -246.423707 
L 542.732595 -244.29178 
L 542.836514 -242.159853 
L 542.945776 -240.027926 
L 543.057576 -237.895999 
L 543.168913 -235.764072 
L 543.276891 -233.632145 
L 543.379046 -231.500218 
L 543.473665 -229.368291 
L 543.560048 -227.236364 
L 543.638687 -225.104437 
L 543.711318 -222.97251 
L 543.780835 -220.840583 
L 543.851064 -218.708656 
L 543.926417 -216.576729 
L 544.011448 -214.444802 
L 544.110381 -212.312875 
L 544.226642 -210.180948 
L 544.362462 -208.049021 
L 544.518601 -205.917094 
L 544.694223 -203.785167 
L 544.886941 -201.65324 
L 545.093025 -199.521313 
L 545.307756 -197.389386 
L 545.525882 -195.257459 
L 545.742127 -193.125532 
L 545.951712 -190.993605 
L 546.150821 -188.861678 
L 546.336988 -186.729751 
L 546.509362 -184.597824 
L 546.66883 -182.465897 
L 546.817994 -180.33397 
L 546.961002 -178.202043 
L 547.103262 -176.070116 
L 547.251059 -173.938189 
L 547.411139 -171.806262 
L 547.590305 -169.674335 
L 547.795087 -167.542408 
L 548.031528 -165.410481 
L 548.305121 -163.278554 
L 548.620883 -161.146627 
L 548.983528 -159.0147 
L 549.397665 -156.882773 
L 549.867931 -154.750846 
L 550.398941 -152.618919 
L 550.99498 -150.486992 
L 551.659381 -148.355065 
L 552.393588 -146.223138 
L 553.195988 -144.091211 
L 554.060632 -141.959284 
L 554.976033 -139.827357 
L 555.924275 -137.69543 
L 556.880614 -135.563503 
L 557.81378 -133.431576 
L 558.687063 -131.299649 
L 559.460199 -129.167722 
L 560.091946 -127.035795 
L 560.543153 -124.903868 
L 560.78 -122.771941 
L 560.777071 -120.640014 
L 560.519894 -118.508087 
L 560.006636 -116.37616 
L 559.248718 -114.244233 
L 558.270272 -112.112306 
L 557.106461 -109.980379 
L 555.800858 -107.848452 
L 554.402171 -105.716525 
L 552.960682 -103.584598 
z
" id="mc94c3eb3fa" style="stroke:#000000;stroke-opacity:0.3;"/>
    </defs>
    <g clip-path="url(#pcb4a323258)">
     <use style="fill:#bfbf00;fill-opacity:0.3;stroke:#000000;stroke-opacity:0.3;" x="0.0" xlink:href="#mc94c3eb3fa" y="465.868"/>
    </g>
   </g>
   <g id="PolyCollection_8">
    <defs>
     <path d="M 627.739762 -101.293124 
L 605.420238 -101.293124 
L 604.461797 -102.442054 
L 603.521926 -103.590984 
L 602.61533 -104.739914 
L 601.756574 -105.888844 
L 600.95963 -107.037774 
L 600.237439 -108.186704 
L 599.601508 -109.335634 
L 599.061557 -110.484564 
L 598.62524 -111.633494 
L 598.297942 -112.782424 
L 598.082665 -113.931354 
L 597.98 -115.080284 
L 597.988192 -116.229214 
L 598.103277 -117.378144 
L 598.319289 -118.527074 
L 598.628531 -119.676004 
L 599.021879 -120.824934 
L 599.489115 -121.973864 
L 600.019278 -123.122794 
L 600.601005 -124.271724 
L 601.222853 -125.420653 
L 601.873608 -126.569583 
L 602.542541 -127.718513 
L 603.219633 -128.867443 
L 603.895744 -130.016373 
L 604.562743 -131.165303 
L 605.213578 -132.314233 
L 605.842311 -133.463163 
L 606.444102 -134.612093 
L 607.015168 -135.761023 
L 607.552701 -136.909953 
L 608.054781 -138.058883 
L 608.520258 -139.207813 
L 608.948644 -140.356743 
L 609.34 -141.505673 
L 609.694825 -142.654603 
L 610.013966 -143.803533 
L 610.298537 -144.952463 
L 610.549853 -146.101393 
L 610.769385 -147.250323 
L 610.958729 -148.399253 
L 611.11959 -149.548183 
L 611.253783 -150.697113 
L 611.363232 -151.846043 
L 611.449994 -152.994972 
L 611.516268 -154.143902 
L 611.564417 -155.292832 
L 611.596979 -156.441762 
L 611.616673 -157.590692 
L 611.626392 -158.739622 
L 611.629186 -159.888552 
L 611.628227 -161.037482 
L 611.62676 -162.186412 
L 611.62803 -163.335342 
L 611.635207 -164.484272 
L 611.651287 -165.633202 
L 611.678995 -166.782132 
L 611.720679 -167.931062 
L 611.778216 -169.079992 
L 611.852926 -170.228922 
L 611.945504 -171.377852 
L 612.055979 -172.526782 
L 612.183702 -173.675712 
L 612.327364 -174.824642 
L 612.485045 -175.973572 
L 612.654297 -177.122502 
L 612.832247 -178.271432 
L 613.015726 -179.420362 
L 613.201406 -180.569291 
L 613.385941 -181.718221 
L 613.56611 -182.867151 
L 613.738937 -184.016081 
L 613.901805 -185.165011 
L 614.052541 -186.313941 
L 614.189469 -187.462871 
L 614.31145 -188.611801 
L 614.417883 -189.760731 
L 614.508686 -190.909661 
L 614.58426 -192.058591 
L 614.645434 -193.207521 
L 614.693399 -194.356451 
L 614.729641 -195.505381 
L 614.755861 -196.654311 
L 614.773912 -197.803241 
L 614.785726 -198.952171 
L 614.793258 -200.101101 
L 614.798427 -201.250031 
L 614.803075 -202.398961 
L 614.808923 -203.547891 
L 614.81754 -204.696821 
L 614.830308 -205.845751 
L 614.848408 -206.994681 
L 614.872789 -208.143611 
L 614.904161 -209.29254 
L 614.942982 -210.44147 
L 614.989451 -211.5904 
L 615.04351 -212.73933 
L 615.104854 -213.88826 
L 615.172942 -215.03719 
L 617.987058 -215.03719 
L 617.987058 -215.03719 
L 618.055146 -213.88826 
L 618.11649 -212.73933 
L 618.170549 -211.5904 
L 618.217018 -210.44147 
L 618.255839 -209.29254 
L 618.287211 -208.143611 
L 618.311592 -206.994681 
L 618.329692 -205.845751 
L 618.34246 -204.696821 
L 618.351077 -203.547891 
L 618.356925 -202.398961 
L 618.361573 -201.250031 
L 618.366742 -200.101101 
L 618.374274 -198.952171 
L 618.386088 -197.803241 
L 618.404139 -196.654311 
L 618.430359 -195.505381 
L 618.466601 -194.356451 
L 618.514566 -193.207521 
L 618.57574 -192.058591 
L 618.651314 -190.909661 
L 618.742117 -189.760731 
L 618.84855 -188.611801 
L 618.970531 -187.462871 
L 619.107459 -186.313941 
L 619.258195 -185.165011 
L 619.421063 -184.016081 
L 619.59389 -182.867151 
L 619.774059 -181.718221 
L 619.958594 -180.569291 
L 620.144274 -179.420362 
L 620.327753 -178.271432 
L 620.505703 -177.122502 
L 620.674955 -175.973572 
L 620.832636 -174.824642 
L 620.976298 -173.675712 
L 621.104021 -172.526782 
L 621.214496 -171.377852 
L 621.307074 -170.228922 
L 621.381784 -169.079992 
L 621.439321 -167.931062 
L 621.481005 -166.782132 
L 621.508713 -165.633202 
L 621.524793 -164.484272 
L 621.53197 -163.335342 
L 621.53324 -162.186412 
L 621.531773 -161.037482 
L 621.530814 -159.888552 
L 621.533608 -158.739622 
L 621.543327 -157.590692 
L 621.563021 -156.441762 
L 621.595583 -155.292832 
L 621.643732 -154.143902 
L 621.710006 -152.994972 
L 621.796768 -151.846043 
L 621.906217 -150.697113 
L 622.04041 -149.548183 
L 622.201271 -148.399253 
L 622.390615 -147.250323 
L 622.610147 -146.101393 
L 622.861463 -144.952463 
L 623.146034 -143.803533 
L 623.465175 -142.654603 
L 623.82 -141.505673 
L 624.211356 -140.356743 
L 624.639742 -139.207813 
L 625.105219 -138.058883 
L 625.607299 -136.909953 
L 626.144832 -135.761023 
L 626.715898 -134.612093 
L 627.317689 -133.463163 
L 627.946422 -132.314233 
L 628.597257 -131.165303 
L 629.264256 -130.016373 
L 629.940367 -128.867443 
L 630.617459 -127.718513 
L 631.286392 -126.569583 
L 631.937147 -125.420653 
L 632.558995 -124.271724 
L 633.140722 -123.122794 
L 633.670885 -121.973864 
L 634.138121 -120.824934 
L 634.531469 -119.676004 
L 634.840711 -118.527074 
L 635.056723 -117.378144 
L 635.171808 -116.229214 
L 635.18 -115.080284 
L 635.077335 -113.931354 
L 634.862058 -112.782424 
L 634.53476 -111.633494 
L 634.098443 -110.484564 
L 633.558492 -109.335634 
L 632.922561 -108.186704 
L 632.20037 -107.037774 
L 631.403426 -105.888844 
L 630.54467 -104.739914 
L 629.638074 -103.590984 
L 628.698203 -102.442054 
L 627.739762 -101.293124 
z
" id="mb45ea6b7d2" style="stroke:#000000;stroke-opacity:0.3;"/>
    </defs>
    <g clip-path="url(#pcb4a323258)">
     <use style="fill:#bfbf00;fill-opacity:0.3;stroke:#000000;stroke-opacity:0.3;" x="0.0" xlink:href="#mb45ea6b7d2" y="465.868"/>
    </g>
   </g>
   <g id="LineCollection_1">
    <path clip-path="url(#pcb4a323258)" d="M 86.48 305.107829 
L 105.08 305.107829 
" style="fill:none;stroke:#ff0000;"/>
    <path clip-path="url(#pcb4a323258)" d="M 160.88 324.561949 
L 179.48 324.561949 
" style="fill:none;stroke:#ff0000;"/>
    <path clip-path="url(#pcb4a323258)" d="M 235.28 325.843039 
L 253.88 325.843039 
" style="fill:none;stroke:#ff0000;"/>
    <path clip-path="url(#pcb4a323258)" d="M 309.68 328.690381 
L 328.28 328.690381 
" style="fill:none;stroke:#ff0000;"/>
    <path clip-path="url(#pcb4a323258)" d="M 384.08 331.914355 
L 402.68 331.914355 
" style="fill:none;stroke:#ff0000;"/>
    <path clip-path="url(#pcb4a323258)" d="M 458.48 333.00624 
L 477.08 333.00624 
" style="fill:none;stroke:#ff0000;"/>
    <path clip-path="url(#pcb4a323258)" d="M 532.88 337.984285 
L 551.48 337.984285 
" style="fill:none;stroke:#ff0000;"/>
    <path clip-path="url(#pcb4a323258)" d="M 607.28 344.199245 
L 625.88 344.199245 
" style="fill:none;stroke:#ff0000;"/>
   </g>
   <g id="patch_3">
    <path d="M 21.38 23.14175 
L 690.98 23.14175 
" style="fill:none;stroke:#000000;stroke-linecap:square;stroke-linejoin:miter;"/>
   </g>
   <g id="patch_4">
    <path d="M 21.38 368.74175 
L 21.38 23.14175 
" style="fill:none;stroke:#000000;stroke-linecap:square;stroke-linejoin:miter;"/>
   </g>
   <g id="patch_5">
    <path d="M 21.38 368.74175 
L 690.98 368.74175 
" style="fill:none;stroke:#000000;stroke-linecap:square;stroke-linejoin:miter;"/>
   </g>
   <g id="patch_6">
    <path d="M 690.98 368.74175 
L 690.98 23.14175 
" style="fill:none;stroke:#000000;stroke-linecap:square;stroke-linejoin:miter;"/>
   </g>
   <g id="matplotlib.axis_1">
    <g id="xtick_1">
     <g id="line2d_1">
      <defs>
       <path d="M 0 0 
L 0 -4 
" id="mbc5965b732" style="stroke:#000000;stroke-width:0.5;"/>
      </defs>
      <g>
       <use style="stroke:#000000;stroke-width:0.5;" x="95.78" xlink:href="#mbc5965b732" y="368.74175"/>
      </g>
     </g>
     <g id="line2d_2">
      <defs>
       <path d="M 0 0 
L 0 4 
" id="m4866c132c9" style="stroke:#000000;stroke-width:0.5;"/>
      </defs>
      <g>
       <use style="stroke:#000000;stroke-width:0.5;" x="95.78" xlink:href="#m4866c132c9" y="23.14175"/>
      </g>
     </g>
     <g id="text_1">
      <!-- Defector -->
      <defs>
       <path d="M 19.671875 64.796875 
L 19.671875 8.109375 
L 31.59375 8.109375 
Q 46.6875 8.109375 53.6875 14.9375 
Q 60.6875 21.78125 60.6875 36.53125 
Q 60.6875 51.171875 53.6875 57.984375 
Q 46.6875 64.796875 31.59375 64.796875 
z
M 9.8125 72.90625 
L 30.078125 72.90625 
Q 51.265625 72.90625 61.171875 64.09375 
Q 71.09375 55.28125 71.09375 36.53125 
Q 71.09375 17.671875 61.125 8.828125 
Q 51.171875 0 30.078125 0 
L 9.8125 0 
z
" id="BitstreamVeraSans-Roman-44"/>
       <path d="M 41.109375 46.296875 
Q 39.59375 47.171875 37.8125 47.578125 
Q 36.03125 48 33.890625 48 
Q 26.265625 48 22.1875 43.046875 
Q 18.109375 38.09375 18.109375 28.8125 
L 18.109375 0 
L 9.078125 0 
L 9.078125 54.6875 
L 18.109375 54.6875 
L 18.109375 46.1875 
Q 20.953125 51.171875 25.484375 53.578125 
Q 30.03125 56 36.53125 56 
Q 37.453125 56 38.578125 55.875 
Q 39.703125 55.765625 41.0625 55.515625 
z
" id="BitstreamVeraSans-Roman-72"/>
       <path d="M 18.3125 70.21875 
L 18.3125 54.6875 
L 36.8125 54.6875 
L 36.8125 47.703125 
L 18.3125 47.703125 
L 18.3125 18.015625 
Q 18.3125 11.328125 20.140625 9.421875 
Q 21.96875 7.515625 27.59375 7.515625 
L 36.8125 7.515625 
L 36.8125 0 
L 27.59375 0 
Q 17.1875 0 13.234375 3.875 
Q 9.28125 7.765625 9.28125 18.015625 
L 9.28125 47.703125 
L 2.6875 47.703125 
L 2.6875 54.6875 
L 9.28125 54.6875 
L 9.28125 70.21875 
z
" id="BitstreamVeraSans-Roman-74"/>
       <path d="M 30.609375 48.390625 
Q 23.390625 48.390625 19.1875 42.75 
Q 14.984375 37.109375 14.984375 27.296875 
Q 14.984375 17.484375 19.15625 11.84375 
Q 23.34375 6.203125 30.609375 6.203125 
Q 37.796875 6.203125 41.984375 11.859375 
Q 46.1875 17.53125 46.1875 27.296875 
Q 46.1875 37.015625 41.984375 42.703125 
Q 37.796875 48.390625 30.609375 48.390625 
M 30.609375 56 
Q 42.328125 56 49.015625 48.375 
Q 55.71875 40.765625 55.71875 27.296875 
Q 55.71875 13.875 49.015625 6.21875 
Q 42.328125 -1.421875 30.609375 -1.421875 
Q 18.84375 -1.421875 12.171875 6.21875 
Q 5.515625 13.875 5.515625 27.296875 
Q 5.515625 40.765625 12.171875 48.375 
Q 18.84375 56 30.609375 56 
" id="BitstreamVeraSans-Roman-6f"/>
       <path d="M 37.109375 75.984375 
L 37.109375 68.5 
L 28.515625 68.5 
Q 23.6875 68.5 21.796875 66.546875 
Q 19.921875 64.59375 19.921875 59.515625 
L 19.921875 54.6875 
L 34.71875 54.6875 
L 34.71875 47.703125 
L 19.921875 47.703125 
L 19.921875 0 
L 10.890625 0 
L 10.890625 47.703125 
L 2.296875 47.703125 
L 2.296875 54.6875 
L 10.890625 54.6875 
L 10.890625 58.5 
Q 10.890625 67.625 15.140625 71.796875 
Q 19.390625 75.984375 28.609375 75.984375 
z
" id="BitstreamVeraSans-Roman-66"/>
       <path d="M 48.78125 52.59375 
L 48.78125 44.1875 
Q 44.96875 46.296875 41.140625 47.34375 
Q 37.3125 48.390625 33.40625 48.390625 
Q 24.65625 48.390625 19.8125 42.84375 
Q 14.984375 37.3125 14.984375 27.296875 
Q 14.984375 17.28125 19.8125 11.734375 
Q 24.65625 6.203125 33.40625 6.203125 
Q 37.3125 6.203125 41.140625 7.25 
Q 44.96875 8.296875 48.78125 10.40625 
L 48.78125 2.09375 
Q 45.015625 0.34375 40.984375 -0.53125 
Q 36.96875 -1.421875 32.421875 -1.421875 
Q 20.0625 -1.421875 12.78125 6.34375 
Q 5.515625 14.109375 5.515625 27.296875 
Q 5.515625 40.671875 12.859375 48.328125 
Q 20.21875 56 33.015625 56 
Q 37.15625 56 41.109375 55.140625 
Q 45.0625 54.296875 48.78125 52.59375 
" id="BitstreamVeraSans-Roman-63"/>
       <path d="M 56.203125 29.59375 
L 56.203125 25.203125 
L 14.890625 25.203125 
Q 15.484375 15.921875 20.484375 11.0625 
Q 25.484375 6.203125 34.421875 6.203125 
Q 39.59375 6.203125 44.453125 7.46875 
Q 49.3125 8.734375 54.109375 11.28125 
L 54.109375 2.78125 
Q 49.265625 0.734375 44.1875 -0.34375 
Q 39.109375 -1.421875 33.890625 -1.421875 
Q 20.796875 -1.421875 13.15625 6.1875 
Q 5.515625 13.8125 5.515625 26.8125 
Q 5.515625 40.234375 12.765625 48.109375 
Q 20.015625 56 32.328125 56 
Q 43.359375 56 49.78125 48.890625 
Q 56.203125 41.796875 56.203125 29.59375 
M 47.21875 32.234375 
Q 47.125 39.59375 43.09375 43.984375 
Q 39.0625 48.390625 32.421875 48.390625 
Q 24.90625 48.390625 20.390625 44.140625 
Q 15.875 39.890625 15.1875 32.171875 
z
" id="BitstreamVeraSans-Roman-65"/>
      </defs>
      <g transform="translate(97.9875 407.28175)rotate(-90.0)scale(0.08 -0.08)">
       <use xlink:href="#BitstreamVeraSans-Roman-44"/>
       <use x="77.001953125" xlink:href="#BitstreamVeraSans-Roman-65"/>
       <use x="138.525390625" xlink:href="#BitstreamVeraSans-Roman-66"/>
       <use x="173.73046875" xlink:href="#BitstreamVeraSans-Roman-65"/>
       <use x="235.25390625" xlink:href="#BitstreamVeraSans-Roman-63"/>
       <use x="290.234375" xlink:href="#BitstreamVeraSans-Roman-74"/>
       <use x="329.443359375" xlink:href="#BitstreamVeraSans-Roman-6f"/>
       <use x="390.625" xlink:href="#BitstreamVeraSans-Roman-72"/>
      </g>
     </g>
    </g>
    <g id="xtick_2">
     <g id="line2d_3">
      <g>
       <use style="stroke:#000000;stroke-width:0.5;" x="170.18" xlink:href="#mbc5965b732" y="368.74175"/>
      </g>
     </g>
     <g id="line2d_4">
      <g>
       <use style="stroke:#000000;stroke-width:0.5;" x="170.18" xlink:href="#m4866c132c9" y="23.14175"/>
      </g>
     </g>
     <g id="text_2">
      <!-- Bully -->
      <defs>
       <path d="M 19.671875 34.8125 
L 19.671875 8.109375 
L 35.5 8.109375 
Q 43.453125 8.109375 47.28125 11.40625 
Q 51.125 14.703125 51.125 21.484375 
Q 51.125 28.328125 47.28125 31.5625 
Q 43.453125 34.8125 35.5 34.8125 
z
M 19.671875 64.796875 
L 19.671875 42.828125 
L 34.28125 42.828125 
Q 41.5 42.828125 45.03125 45.53125 
Q 48.578125 48.25 48.578125 53.8125 
Q 48.578125 59.328125 45.03125 62.0625 
Q 41.5 64.796875 34.28125 64.796875 
z
M 9.8125 72.90625 
L 35.015625 72.90625 
Q 46.296875 72.90625 52.390625 68.21875 
Q 58.5 63.53125 58.5 54.890625 
Q 58.5 48.1875 55.375 44.234375 
Q 52.25 40.28125 46.1875 39.3125 
Q 53.46875 37.75 57.5 32.78125 
Q 61.53125 27.828125 61.53125 20.40625 
Q 61.53125 10.640625 54.890625 5.3125 
Q 48.25 0 35.984375 0 
L 9.8125 0 
z
" id="BitstreamVeraSans-Roman-42"/>
       <path d="M 9.421875 75.984375 
L 18.40625 75.984375 
L 18.40625 0 
L 9.421875 0 
z
" id="BitstreamVeraSans-Roman-6c"/>
       <path d="M 8.5 21.578125 
L 8.5 54.6875 
L 17.484375 54.6875 
L 17.484375 21.921875 
Q 17.484375 14.15625 20.5 10.265625 
Q 23.53125 6.390625 29.59375 6.390625 
Q 36.859375 6.390625 41.078125 11.03125 
Q 45.3125 15.671875 45.3125 23.6875 
L 45.3125 54.6875 
L 54.296875 54.6875 
L 54.296875 0 
L 45.3125 0 
L 45.3125 8.40625 
Q 42.046875 3.421875 37.71875 1 
Q 33.40625 -1.421875 27.6875 -1.421875 
Q 18.265625 -1.421875 13.375 4.4375 
Q 8.5 10.296875 8.5 21.578125 
" id="BitstreamVeraSans-Roman-75"/>
       <path d="M 32.171875 -5.078125 
Q 28.375 -14.84375 24.75 -17.8125 
Q 21.140625 -20.796875 15.09375 -20.796875 
L 7.90625 -20.796875 
L 7.90625 -13.28125 
L 13.1875 -13.28125 
Q 16.890625 -13.28125 18.9375 -11.515625 
Q 21 -9.765625 23.484375 -3.21875 
L 25.09375 0.875 
L 2.984375 54.6875 
L 12.5 54.6875 
L 29.59375 11.921875 
L 46.6875 54.6875 
L 56.203125 54.6875 
z
" id="BitstreamVeraSans-Roman-79"/>
      </defs>
      <g transform="translate(172.3875 392.4805)rotate(-90.0)scale(0.08 -0.08)">
       <use xlink:href="#BitstreamVeraSans-Roman-42"/>
       <use x="68.603515625" xlink:href="#BitstreamVeraSans-Roman-75"/>
       <use x="131.982421875" xlink:href="#BitstreamVeraSans-Roman-6c"/>
       <use x="159.765625" xlink:href="#BitstreamVeraSans-Roman-6c"/>
       <use x="187.548828125" xlink:href="#BitstreamVeraSans-Roman-79"/>
      </g>
     </g>
    </g>
    <g id="xtick_3">
     <g id="line2d_5">
      <g>
       <use style="stroke:#000000;stroke-width:0.5;" x="244.58" xlink:href="#mbc5965b732" y="368.74175"/>
      </g>
     </g>
     <g id="line2d_6">
      <g>
       <use style="stroke:#000000;stroke-width:0.5;" x="244.58" xlink:href="#m4866c132c9" y="23.14175"/>
      </g>
     </g>
     <g id="text_3">
      <!-- Suspicious Tit For Tat -->
      <defs>
       <path d="M 34.28125 27.484375 
Q 23.390625 27.484375 19.1875 25 
Q 14.984375 22.515625 14.984375 16.5 
Q 14.984375 11.71875 18.140625 8.90625 
Q 21.296875 6.109375 26.703125 6.109375 
Q 34.1875 6.109375 38.703125 11.40625 
Q 43.21875 16.703125 43.21875 25.484375 
L 43.21875 27.484375 
z
M 52.203125 31.203125 
L 52.203125 0 
L 43.21875 0 
L 43.21875 8.296875 
Q 40.140625 3.328125 35.546875 0.953125 
Q 30.953125 -1.421875 24.3125 -1.421875 
Q 15.921875 -1.421875 10.953125 3.296875 
Q 6 8.015625 6 15.921875 
Q 6 25.140625 12.171875 29.828125 
Q 18.359375 34.515625 30.609375 34.515625 
L 43.21875 34.515625 
L 43.21875 35.40625 
Q 43.21875 41.609375 39.140625 45 
Q 35.0625 48.390625 27.6875 48.390625 
Q 23 48.390625 18.546875 47.265625 
Q 14.109375 46.140625 10.015625 43.890625 
L 10.015625 52.203125 
Q 14.9375 54.109375 19.578125 55.046875 
Q 24.21875 56 28.609375 56 
Q 40.484375 56 46.34375 49.84375 
Q 52.203125 43.703125 52.203125 31.203125 
" id="BitstreamVeraSans-Roman-61"/>
       <path d="M 18.109375 8.203125 
L 18.109375 -20.796875 
L 9.078125 -20.796875 
L 9.078125 54.6875 
L 18.109375 54.6875 
L 18.109375 46.390625 
Q 20.953125 51.265625 25.265625 53.625 
Q 29.59375 56 35.59375 56 
Q 45.5625 56 51.78125 48.09375 
Q 58.015625 40.1875 58.015625 27.296875 
Q 58.015625 14.40625 51.78125 6.484375 
Q 45.5625 -1.421875 35.59375 -1.421875 
Q 29.59375 -1.421875 25.265625 0.953125 
Q 20.953125 3.328125 18.109375 8.203125 
M 48.6875 27.296875 
Q 48.6875 37.203125 44.609375 42.84375 
Q 40.53125 48.484375 33.40625 48.484375 
Q 26.265625 48.484375 22.1875 42.84375 
Q 18.109375 37.203125 18.109375 27.296875 
Q 18.109375 17.390625 22.1875 11.75 
Q 26.265625 6.109375 33.40625 6.109375 
Q 40.53125 6.109375 44.609375 11.75 
Q 48.6875 17.390625 48.6875 27.296875 
" id="BitstreamVeraSans-Roman-70"/>
       <path d="M 44.28125 53.078125 
L 44.28125 44.578125 
Q 40.484375 46.53125 36.375 47.5 
Q 32.28125 48.484375 27.875 48.484375 
Q 21.1875 48.484375 17.84375 46.4375 
Q 14.5 44.390625 14.5 40.28125 
Q 14.5 37.15625 16.890625 35.375 
Q 19.28125 33.59375 26.515625 31.984375 
L 29.59375 31.296875 
Q 39.15625 29.25 43.1875 25.515625 
Q 47.21875 21.78125 47.21875 15.09375 
Q 47.21875 7.46875 41.1875 3.015625 
Q 35.15625 -1.421875 24.609375 -1.421875 
Q 20.21875 -1.421875 15.453125 -0.5625 
Q 10.6875 0.296875 5.421875 2 
L 5.421875 11.28125 
Q 10.40625 8.6875 15.234375 7.390625 
Q 20.0625 6.109375 24.8125 6.109375 
Q 31.15625 6.109375 34.5625 8.28125 
Q 37.984375 10.453125 37.984375 14.40625 
Q 37.984375 18.0625 35.515625 20.015625 
Q 33.0625 21.96875 24.703125 23.78125 
L 21.578125 24.515625 
Q 13.234375 26.265625 9.515625 29.90625 
Q 5.8125 33.546875 5.8125 39.890625 
Q 5.8125 47.609375 11.28125 51.796875 
Q 16.75 56 26.8125 56 
Q 31.78125 56 36.171875 55.265625 
Q 40.578125 54.546875 44.28125 53.078125 
" id="BitstreamVeraSans-Roman-73"/>
       <path d="M -0.296875 72.90625 
L 61.375 72.90625 
L 61.375 64.59375 
L 35.5 64.59375 
L 35.5 0 
L 25.59375 0 
L 25.59375 64.59375 
L -0.296875 64.59375 
z
" id="BitstreamVeraSans-Roman-54"/>
       <path id="BitstreamVeraSans-Roman-20"/>
       <path d="M 9.421875 54.6875 
L 18.40625 54.6875 
L 18.40625 0 
L 9.421875 0 
z
M 9.421875 75.984375 
L 18.40625 75.984375 
L 18.40625 64.59375 
L 9.421875 64.59375 
z
" id="BitstreamVeraSans-Roman-69"/>
       <path d="M 9.8125 72.90625 
L 51.703125 72.90625 
L 51.703125 64.59375 
L 19.671875 64.59375 
L 19.671875 43.109375 
L 48.578125 43.109375 
L 48.578125 34.8125 
L 19.671875 34.8125 
L 19.671875 0 
L 9.8125 0 
z
" id="BitstreamVeraSans-Roman-46"/>
       <path d="M 53.515625 70.515625 
L 53.515625 60.890625 
Q 47.90625 63.578125 42.921875 64.890625 
Q 37.9375 66.21875 33.296875 66.21875 
Q 25.25 66.21875 20.875 63.09375 
Q 16.5 59.96875 16.5 54.203125 
Q 16.5 49.359375 19.40625 46.890625 
Q 22.3125 44.4375 30.421875 42.921875 
L 36.375 41.703125 
Q 47.40625 39.59375 52.65625 34.296875 
Q 57.90625 29 57.90625 20.125 
Q 57.90625 9.515625 50.796875 4.046875 
Q 43.703125 -1.421875 29.984375 -1.421875 
Q 24.8125 -1.421875 18.96875 -0.25 
Q 13.140625 0.921875 6.890625 3.21875 
L 6.890625 13.375 
Q 12.890625 10.015625 18.65625 8.296875 
Q 24.421875 6.59375 29.984375 6.59375 
Q 38.421875 6.59375 43.015625 9.90625 
Q 47.609375 13.234375 47.609375 19.390625 
Q 47.609375 24.75 44.3125 27.78125 
Q 41.015625 30.8125 33.5 32.328125 
L 27.484375 33.5 
Q 16.453125 35.6875 11.515625 40.375 
Q 6.59375 45.0625 6.59375 53.421875 
Q 6.59375 63.09375 13.40625 68.65625 
Q 20.21875 74.21875 32.171875 74.21875 
Q 37.3125 74.21875 42.625 73.28125 
Q 47.953125 72.359375 53.515625 70.515625 
" id="BitstreamVeraSans-Roman-53"/>
      </defs>
      <g transform="translate(246.7875 458.668)rotate(-90.0)scale(0.08 -0.08)">
       <use xlink:href="#BitstreamVeraSans-Roman-53"/>
       <use x="63.4765625" xlink:href="#BitstreamVeraSans-Roman-75"/>
       <use x="126.85546875" xlink:href="#BitstreamVeraSans-Roman-73"/>
       <use x="178.955078125" xlink:href="#BitstreamVeraSans-Roman-70"/>
       <use x="242.431640625" xlink:href="#BitstreamVeraSans-Roman-69"/>
       <use x="270.21484375" xlink:href="#BitstreamVeraSans-Roman-63"/>
       <use x="325.1953125" xlink:href="#BitstreamVeraSans-Roman-69"/>
       <use x="352.978515625" xlink:href="#BitstreamVeraSans-Roman-6f"/>
       <use x="414.16015625" xlink:href="#BitstreamVeraSans-Roman-75"/>
       <use x="477.5390625" xlink:href="#BitstreamVeraSans-Roman-73"/>
       <use x="529.638671875" xlink:href="#BitstreamVeraSans-Roman-20"/>
       <use x="561.42578125" xlink:href="#BitstreamVeraSans-Roman-54"/>
       <use x="622.462890625" xlink:href="#BitstreamVeraSans-Roman-69"/>
       <use x="650.24609375" xlink:href="#BitstreamVeraSans-Roman-74"/>
       <use x="689.455078125" xlink:href="#BitstreamVeraSans-Roman-20"/>
       <use x="721.2421875" xlink:href="#BitstreamVeraSans-Roman-46"/>
       <use x="778.71484375" xlink:href="#BitstreamVeraSans-Roman-6f"/>
       <use x="839.896484375" xlink:href="#BitstreamVeraSans-Roman-72"/>
       <use x="881.009765625" xlink:href="#BitstreamVeraSans-Roman-20"/>
       <use x="912.796875" xlink:href="#BitstreamVeraSans-Roman-54"/>
       <use x="973.630859375" xlink:href="#BitstreamVeraSans-Roman-61"/>
       <use x="1034.91015625" xlink:href="#BitstreamVeraSans-Roman-74"/>
      </g>
     </g>
    </g>
    <g id="xtick_4">
     <g id="line2d_7">
      <g>
       <use style="stroke:#000000;stroke-width:0.5;" x="318.98" xlink:href="#mbc5965b732" y="368.74175"/>
      </g>
     </g>
     <g id="line2d_8">
      <g>
       <use style="stroke:#000000;stroke-width:0.5;" x="318.98" xlink:href="#m4866c132c9" y="23.14175"/>
      </g>
     </g>
     <g id="text_4">
      <!-- Tit For Tat -->
      <g transform="translate(321.1875 413.75425)rotate(-90.0)scale(0.08 -0.08)">
       <use xlink:href="#BitstreamVeraSans-Roman-54"/>
       <use x="61.037109375" xlink:href="#BitstreamVeraSans-Roman-69"/>
       <use x="88.8203125" xlink:href="#BitstreamVeraSans-Roman-74"/>
       <use x="128.029296875" xlink:href="#BitstreamVeraSans-Roman-20"/>
       <use x="159.81640625" xlink:href="#BitstreamVeraSans-Roman-46"/>
       <use x="217.2890625" xlink:href="#BitstreamVeraSans-Roman-6f"/>
       <use x="278.470703125" xlink:href="#BitstreamVeraSans-Roman-72"/>
       <use x="319.583984375" xlink:href="#BitstreamVeraSans-Roman-20"/>
       <use x="351.37109375" xlink:href="#BitstreamVeraSans-Roman-54"/>
       <use x="412.205078125" xlink:href="#BitstreamVeraSans-Roman-61"/>
       <use x="473.484375" xlink:href="#BitstreamVeraSans-Roman-74"/>
      </g>
     </g>
    </g>
    <g id="xtick_5">
     <g id="line2d_9">
      <g>
       <use style="stroke:#000000;stroke-width:0.5;" x="393.38" xlink:href="#mbc5965b732" y="368.74175"/>
      </g>
     </g>
     <g id="line2d_10">
      <g>
       <use style="stroke:#000000;stroke-width:0.5;" x="393.38" xlink:href="#m4866c132c9" y="23.14175"/>
      </g>
     </g>
     <g id="text_5">
      <!-- Alternator -->
      <defs>
       <path d="M 54.890625 33.015625 
L 54.890625 0 
L 45.90625 0 
L 45.90625 32.71875 
Q 45.90625 40.484375 42.875 44.328125 
Q 39.84375 48.1875 33.796875 48.1875 
Q 26.515625 48.1875 22.3125 43.546875 
Q 18.109375 38.921875 18.109375 30.90625 
L 18.109375 0 
L 9.078125 0 
L 9.078125 54.6875 
L 18.109375 54.6875 
L 18.109375 46.1875 
Q 21.34375 51.125 25.703125 53.5625 
Q 30.078125 56 35.796875 56 
Q 45.21875 56 50.046875 50.171875 
Q 54.890625 44.34375 54.890625 33.015625 
" id="BitstreamVeraSans-Roman-6e"/>
       <path d="M 34.1875 63.1875 
L 20.796875 26.90625 
L 47.609375 26.90625 
z
M 28.609375 72.90625 
L 39.796875 72.90625 
L 67.578125 0 
L 57.328125 0 
L 50.6875 18.703125 
L 17.828125 18.703125 
L 11.1875 0 
L 0.78125 0 
z
" id="BitstreamVeraSans-Roman-41"/>
      </defs>
      <g transform="translate(395.5875 413.0755)rotate(-90.0)scale(0.08 -0.08)">
       <use xlink:href="#BitstreamVeraSans-Roman-41"/>
       <use x="68.408203125" xlink:href="#BitstreamVeraSans-Roman-6c"/>
       <use x="96.19140625" xlink:href="#BitstreamVeraSans-Roman-74"/>
       <use x="135.400390625" xlink:href="#BitstreamVeraSans-Roman-65"/>
       <use x="196.923828125" xlink:href="#BitstreamVeraSans-Roman-72"/>
       <use x="238.021484375" xlink:href="#BitstreamVeraSans-Roman-6e"/>
       <use x="301.400390625" xlink:href="#BitstreamVeraSans-Roman-61"/>
       <use x="362.6796875" xlink:href="#BitstreamVeraSans-Roman-74"/>
       <use x="401.888671875" xlink:href="#BitstreamVeraSans-Roman-6f"/>
       <use x="463.0703125" xlink:href="#BitstreamVeraSans-Roman-72"/>
      </g>
     </g>
    </g>
    <g id="xtick_6">
     <g id="line2d_11">
      <g>
       <use style="stroke:#000000;stroke-width:0.5;" x="467.78" xlink:href="#mbc5965b732" y="368.74175"/>
      </g>
     </g>
     <g id="line2d_12">
      <g>
       <use style="stroke:#000000;stroke-width:0.5;" x="467.78" xlink:href="#m4866c132c9" y="23.14175"/>
      </g>
     </g>
     <g id="text_6">
      <!-- Anti Tit For Tat -->
      <g transform="translate(469.9875 432.198)rotate(-90.0)scale(0.08 -0.08)">
       <use xlink:href="#BitstreamVeraSans-Roman-41"/>
       <use x="68.408203125" xlink:href="#BitstreamVeraSans-Roman-6e"/>
       <use x="131.787109375" xlink:href="#BitstreamVeraSans-Roman-74"/>
       <use x="170.99609375" xlink:href="#BitstreamVeraSans-Roman-69"/>
       <use x="198.779296875" xlink:href="#BitstreamVeraSans-Roman-20"/>
       <use x="230.56640625" xlink:href="#BitstreamVeraSans-Roman-54"/>
       <use x="291.603515625" xlink:href="#BitstreamVeraSans-Roman-69"/>
       <use x="319.38671875" xlink:href="#BitstreamVeraSans-Roman-74"/>
       <use x="358.595703125" xlink:href="#BitstreamVeraSans-Roman-20"/>
       <use x="390.3828125" xlink:href="#BitstreamVeraSans-Roman-46"/>
       <use x="447.85546875" xlink:href="#BitstreamVeraSans-Roman-6f"/>
       <use x="509.037109375" xlink:href="#BitstreamVeraSans-Roman-72"/>
       <use x="550.150390625" xlink:href="#BitstreamVeraSans-Roman-20"/>
       <use x="581.9375" xlink:href="#BitstreamVeraSans-Roman-54"/>
       <use x="642.771484375" xlink:href="#BitstreamVeraSans-Roman-61"/>
       <use x="704.05078125" xlink:href="#BitstreamVeraSans-Roman-74"/>
      </g>
     </g>
    </g>
    <g id="xtick_7">
     <g id="line2d_13">
      <g>
       <use style="stroke:#000000;stroke-width:0.5;" x="542.18" xlink:href="#mbc5965b732" y="368.74175"/>
      </g>
     </g>
     <g id="line2d_14">
      <g>
       <use style="stroke:#000000;stroke-width:0.5;" x="542.18" xlink:href="#m4866c132c9" y="23.14175"/>
      </g>
     </g>
     <g id="text_7">
      <!-- Win-Stay Lose-Shift -->
      <defs>
       <path d="M 9.8125 72.90625 
L 19.671875 72.90625 
L 19.671875 8.296875 
L 55.171875 8.296875 
L 55.171875 0 
L 9.8125 0 
z
" id="BitstreamVeraSans-Roman-4c"/>
       <path d="M 4.890625 31.390625 
L 31.203125 31.390625 
L 31.203125 23.390625 
L 4.890625 23.390625 
z
" id="BitstreamVeraSans-Roman-2d"/>
       <path d="M 3.328125 72.90625 
L 13.28125 72.90625 
L 28.609375 11.28125 
L 43.890625 72.90625 
L 54.984375 72.90625 
L 70.3125 11.28125 
L 85.59375 72.90625 
L 95.609375 72.90625 
L 77.296875 0 
L 64.890625 0 
L 49.515625 63.28125 
L 33.984375 0 
L 21.578125 0 
z
" id="BitstreamVeraSans-Roman-57"/>
       <path d="M 54.890625 33.015625 
L 54.890625 0 
L 45.90625 0 
L 45.90625 32.71875 
Q 45.90625 40.484375 42.875 44.328125 
Q 39.84375 48.1875 33.796875 48.1875 
Q 26.515625 48.1875 22.3125 43.546875 
Q 18.109375 38.921875 18.109375 30.90625 
L 18.109375 0 
L 9.078125 0 
L 9.078125 75.984375 
L 18.109375 75.984375 
L 18.109375 46.1875 
Q 21.34375 51.125 25.703125 53.5625 
Q 30.078125 56 35.796875 56 
Q 45.21875 56 50.046875 50.171875 
Q 54.890625 44.34375 54.890625 33.015625 
" id="BitstreamVeraSans-Roman-68"/>
      </defs>
      <g transform="translate(544.3875 450.873)rotate(-90.0)scale(0.08 -0.08)">
       <use xlink:href="#BitstreamVeraSans-Roman-57"/>
       <use x="98.845703125" xlink:href="#BitstreamVeraSans-Roman-69"/>
       <use x="126.62890625" xlink:href="#BitstreamVeraSans-Roman-6e"/>
       <use x="190.0078125" xlink:href="#BitstreamVeraSans-Roman-2d"/>
       <use x="226.091796875" xlink:href="#BitstreamVeraSans-Roman-53"/>
       <use x="289.568359375" xlink:href="#BitstreamVeraSans-Roman-74"/>
       <use x="328.77734375" xlink:href="#BitstreamVeraSans-Roman-61"/>
       <use x="390.056640625" xlink:href="#BitstreamVeraSans-Roman-79"/>
       <use x="449.236328125" xlink:href="#BitstreamVeraSans-Roman-20"/>
       <use x="481.0234375" xlink:href="#BitstreamVeraSans-Roman-4c"/>
       <use x="536.720703125" xlink:href="#BitstreamVeraSans-Roman-6f"/>
       <use x="597.90234375" xlink:href="#BitstreamVeraSans-Roman-73"/>
       <use x="650.001953125" xlink:href="#BitstreamVeraSans-Roman-65"/>
       <use x="711.525390625" xlink:href="#BitstreamVeraSans-Roman-2d"/>
       <use x="747.609375" xlink:href="#BitstreamVeraSans-Roman-53"/>
       <use x="811.0859375" xlink:href="#BitstreamVeraSans-Roman-68"/>
       <use x="874.46484375" xlink:href="#BitstreamVeraSans-Roman-69"/>
       <use x="902.248046875" xlink:href="#BitstreamVeraSans-Roman-66"/>
       <use x="937.4375" xlink:href="#BitstreamVeraSans-Roman-74"/>
      </g>
     </g>
    </g>
    <g id="xtick_8">
     <g id="line2d_15">
      <g>
       <use style="stroke:#000000;stroke-width:0.5;" x="616.58" xlink:href="#mbc5965b732" y="368.74175"/>
      </g>
     </g>
     <g id="line2d_16">
      <g>
       <use style="stroke:#000000;stroke-width:0.5;" x="616.58" xlink:href="#m4866c132c9" y="23.14175"/>
      </g>
     </g>
     <g id="text_8">
      <!-- Cooperator -->
      <defs>
       <path d="M 64.40625 67.28125 
L 64.40625 56.890625 
Q 59.421875 61.53125 53.78125 63.8125 
Q 48.140625 66.109375 41.796875 66.109375 
Q 29.296875 66.109375 22.65625 58.46875 
Q 16.015625 50.828125 16.015625 36.375 
Q 16.015625 21.96875 22.65625 14.328125 
Q 29.296875 6.6875 41.796875 6.6875 
Q 48.140625 6.6875 53.78125 8.984375 
Q 59.421875 11.28125 64.40625 15.921875 
L 64.40625 5.609375 
Q 59.234375 2.09375 53.4375 0.328125 
Q 47.65625 -1.421875 41.21875 -1.421875 
Q 24.65625 -1.421875 15.125 8.703125 
Q 5.609375 18.84375 5.609375 36.375 
Q 5.609375 53.953125 15.125 64.078125 
Q 24.65625 74.21875 41.21875 74.21875 
Q 47.75 74.21875 53.53125 72.484375 
Q 59.328125 70.75 64.40625 67.28125 
" id="BitstreamVeraSans-Roman-43"/>
      </defs>
      <g transform="translate(618.7875 417.6305)rotate(-90.0)scale(0.08 -0.08)">
       <use xlink:href="#BitstreamVeraSans-Roman-43"/>
       <use x="69.82421875" xlink:href="#BitstreamVeraSans-Roman-6f"/>
       <use x="131.005859375" xlink:href="#BitstreamVeraSans-Roman-6f"/>
       <use x="192.1875" xlink:href="#BitstreamVeraSans-Roman-70"/>
       <use x="255.6640625" xlink:href="#BitstreamVeraSans-Roman-65"/>
       <use x="317.1875" xlink:href="#BitstreamVeraSans-Roman-72"/>
       <use x="358.30078125" xlink:href="#BitstreamVeraSans-Roman-61"/>
       <use x="419.580078125" xlink:href="#BitstreamVeraSans-Roman-74"/>
       <use x="458.7890625" xlink:href="#BitstreamVeraSans-Roman-6f"/>
       <use x="519.970703125" xlink:href="#BitstreamVeraSans-Roman-72"/>
      </g>
     </g>
    </g>
   </g>
   <g id="matplotlib.axis_2">
    <g id="ytick_1">
     <g id="line2d_17">
      <defs>
       <path d="M 0 0 
L 4 0 
" id="me3b7411ddb" style="stroke:#000000;stroke-width:0.5;"/>
      </defs>
      <g>
       <use style="stroke:#000000;stroke-width:0.5;" x="21.38" xlink:href="#me3b7411ddb" y="368.74175"/>
      </g>
     </g>
     <g id="line2d_18">
      <defs>
       <path d="M 0 0 
L -4 0 
" id="m92fd4d4f6f" style="stroke:#000000;stroke-width:0.5;"/>
      </defs>
      <g>
       <use style="stroke:#000000;stroke-width:0.5;" x="690.98" xlink:href="#m92fd4d4f6f" y="368.74175"/>
      </g>
     </g>
     <g id="text_9">
      <!-- 0 -->
      <defs>
       <path d="M 31.78125 66.40625 
Q 24.171875 66.40625 20.328125 58.90625 
Q 16.5 51.421875 16.5 36.375 
Q 16.5 21.390625 20.328125 13.890625 
Q 24.171875 6.390625 31.78125 6.390625 
Q 39.453125 6.390625 43.28125 13.890625 
Q 47.125 21.390625 47.125 36.375 
Q 47.125 51.421875 43.28125 58.90625 
Q 39.453125 66.40625 31.78125 66.40625 
M 31.78125 74.21875 
Q 44.046875 74.21875 50.515625 64.515625 
Q 56.984375 54.828125 56.984375 36.375 
Q 56.984375 17.96875 50.515625 8.265625 
Q 44.046875 -1.421875 31.78125 -1.421875 
Q 19.53125 -1.421875 13.0625 8.265625 
Q 6.59375 17.96875 6.59375 36.375 
Q 6.59375 54.828125 13.0625 64.515625 
Q 19.53125 74.21875 31.78125 74.21875 
" id="BitstreamVeraSans-Roman-30"/>
      </defs>
      <g transform="translate(12.29 370.94925)scale(0.08 -0.08)">
       <use xlink:href="#BitstreamVeraSans-Roman-30"/>
      </g>
     </g>
    </g>
    <g id="ytick_2">
     <g id="line2d_19">
      <g>
       <use style="stroke:#000000;stroke-width:0.5;" x="21.38" xlink:href="#me3b7411ddb" y="325.54175"/>
      </g>
     </g>
     <g id="line2d_20">
      <g>
       <use style="stroke:#000000;stroke-width:0.5;" x="690.98" xlink:href="#m92fd4d4f6f" y="325.54175"/>
      </g>
     </g>
     <g id="text_10">
      <!-- 5 -->
      <defs>
       <path d="M 10.796875 72.90625 
L 49.515625 72.90625 
L 49.515625 64.59375 
L 19.828125 64.59375 
L 19.828125 46.734375 
Q 21.96875 47.46875 24.109375 47.828125 
Q 26.265625 48.1875 28.421875 48.1875 
Q 40.625 48.1875 47.75 41.5 
Q 54.890625 34.8125 54.890625 23.390625 
Q 54.890625 11.625 47.5625 5.09375 
Q 40.234375 -1.421875 26.90625 -1.421875 
Q 22.3125 -1.421875 17.546875 -0.640625 
Q 12.796875 0.140625 7.71875 1.703125 
L 7.71875 11.625 
Q 12.109375 9.234375 16.796875 8.0625 
Q 21.484375 6.890625 26.703125 6.890625 
Q 35.15625 6.890625 40.078125 11.328125 
Q 45.015625 15.765625 45.015625 23.390625 
Q 45.015625 31 40.078125 35.4375 
Q 35.15625 39.890625 26.703125 39.890625 
Q 22.75 39.890625 18.8125 39.015625 
Q 14.890625 38.140625 10.796875 36.28125 
z
" id="BitstreamVeraSans-Roman-35"/>
      </defs>
      <g transform="translate(12.29 327.74925)scale(0.08 -0.08)">
       <use xlink:href="#BitstreamVeraSans-Roman-35"/>
      </g>
     </g>
    </g>
    <g id="ytick_3">
     <g id="line2d_21">
      <g>
       <use style="stroke:#000000;stroke-width:0.5;" x="21.38" xlink:href="#me3b7411ddb" y="282.34175"/>
      </g>
     </g>
     <g id="line2d_22">
      <g>
       <use style="stroke:#000000;stroke-width:0.5;" x="690.98" xlink:href="#m92fd4d4f6f" y="282.34175"/>
      </g>
     </g>
     <g id="text_11">
      <!-- 10 -->
      <defs>
       <path d="M 12.40625 8.296875 
L 28.515625 8.296875 
L 28.515625 63.921875 
L 10.984375 60.40625 
L 10.984375 69.390625 
L 28.421875 72.90625 
L 38.28125 72.90625 
L 38.28125 8.296875 
L 54.390625 8.296875 
L 54.390625 0 
L 12.40625 0 
z
" id="BitstreamVeraSans-Roman-31"/>
      </defs>
      <g transform="translate(7.2 284.54925)scale(0.08 -0.08)">
       <use xlink:href="#BitstreamVeraSans-Roman-31"/>
       <use x="63.623046875" xlink:href="#BitstreamVeraSans-Roman-30"/>
      </g>
     </g>
    </g>
    <g id="ytick_4">
     <g id="line2d_23">
      <g>
       <use style="stroke:#000000;stroke-width:0.5;" x="21.38" xlink:href="#me3b7411ddb" y="239.14175"/>
      </g>
     </g>
     <g id="line2d_24">
      <g>
       <use style="stroke:#000000;stroke-width:0.5;" x="690.98" xlink:href="#m92fd4d4f6f" y="239.14175"/>
      </g>
     </g>
     <g id="text_12">
      <!-- 15 -->
      <g transform="translate(7.2 241.34925)scale(0.08 -0.08)">
       <use xlink:href="#BitstreamVeraSans-Roman-31"/>
       <use x="63.623046875" xlink:href="#BitstreamVeraSans-Roman-35"/>
      </g>
     </g>
    </g>
    <g id="ytick_5">
     <g id="line2d_25">
      <g>
       <use style="stroke:#000000;stroke-width:0.5;" x="21.38" xlink:href="#me3b7411ddb" y="195.94175"/>
      </g>
     </g>
     <g id="line2d_26">
      <g>
       <use style="stroke:#000000;stroke-width:0.5;" x="690.98" xlink:href="#m92fd4d4f6f" y="195.94175"/>
      </g>
     </g>
     <g id="text_13">
      <!-- 20 -->
      <defs>
       <path d="M 19.1875 8.296875 
L 53.609375 8.296875 
L 53.609375 0 
L 7.328125 0 
L 7.328125 8.296875 
Q 12.9375 14.109375 22.625 23.890625 
Q 32.328125 33.6875 34.8125 36.53125 
Q 39.546875 41.84375 41.421875 45.53125 
Q 43.3125 49.21875 43.3125 52.78125 
Q 43.3125 58.59375 39.234375 62.25 
Q 35.15625 65.921875 28.609375 65.921875 
Q 23.96875 65.921875 18.8125 64.3125 
Q 13.671875 62.703125 7.8125 59.421875 
L 7.8125 69.390625 
Q 13.765625 71.78125 18.9375 73 
Q 24.125 74.21875 28.421875 74.21875 
Q 39.75 74.21875 46.484375 68.546875 
Q 53.21875 62.890625 53.21875 53.421875 
Q 53.21875 48.921875 51.53125 44.890625 
Q 49.859375 40.875 45.40625 35.40625 
Q 44.1875 33.984375 37.640625 27.21875 
Q 31.109375 20.453125 19.1875 8.296875 
" id="BitstreamVeraSans-Roman-32"/>
      </defs>
      <g transform="translate(7.2 198.14925)scale(0.08 -0.08)">
       <use xlink:href="#BitstreamVeraSans-Roman-32"/>
       <use x="63.623046875" xlink:href="#BitstreamVeraSans-Roman-30"/>
      </g>
     </g>
    </g>
    <g id="ytick_6">
     <g id="line2d_27">
      <g>
       <use style="stroke:#000000;stroke-width:0.5;" x="21.38" xlink:href="#me3b7411ddb" y="152.74175"/>
      </g>
     </g>
     <g id="line2d_28">
      <g>
       <use style="stroke:#000000;stroke-width:0.5;" x="690.98" xlink:href="#m92fd4d4f6f" y="152.74175"/>
      </g>
     </g>
     <g id="text_14">
      <!-- 25 -->
      <g transform="translate(7.2 154.94925)scale(0.08 -0.08)">
       <use xlink:href="#BitstreamVeraSans-Roman-32"/>
       <use x="63.623046875" xlink:href="#BitstreamVeraSans-Roman-35"/>
      </g>
     </g>
    </g>
    <g id="ytick_7">
     <g id="line2d_29">
      <g>
       <use style="stroke:#000000;stroke-width:0.5;" x="21.38" xlink:href="#me3b7411ddb" y="109.54175"/>
      </g>
     </g>
     <g id="line2d_30">
      <g>
       <use style="stroke:#000000;stroke-width:0.5;" x="690.98" xlink:href="#m92fd4d4f6f" y="109.54175"/>
      </g>
     </g>
     <g id="text_15">
      <!-- 30 -->
      <defs>
       <path d="M 40.578125 39.3125 
Q 47.65625 37.796875 51.625 33 
Q 55.609375 28.21875 55.609375 21.1875 
Q 55.609375 10.40625 48.1875 4.484375 
Q 40.765625 -1.421875 27.09375 -1.421875 
Q 22.515625 -1.421875 17.65625 -0.515625 
Q 12.796875 0.390625 7.625 2.203125 
L 7.625 11.71875 
Q 11.71875 9.328125 16.59375 8.109375 
Q 21.484375 6.890625 26.8125 6.890625 
Q 36.078125 6.890625 40.9375 10.546875 
Q 45.796875 14.203125 45.796875 21.1875 
Q 45.796875 27.640625 41.28125 31.265625 
Q 36.765625 34.90625 28.71875 34.90625 
L 20.21875 34.90625 
L 20.21875 43.015625 
L 29.109375 43.015625 
Q 36.375 43.015625 40.234375 45.921875 
Q 44.09375 48.828125 44.09375 54.296875 
Q 44.09375 59.90625 40.109375 62.90625 
Q 36.140625 65.921875 28.71875 65.921875 
Q 24.65625 65.921875 20.015625 65.03125 
Q 15.375 64.15625 9.8125 62.3125 
L 9.8125 71.09375 
Q 15.4375 72.65625 20.34375 73.4375 
Q 25.25 74.21875 29.59375 74.21875 
Q 40.828125 74.21875 47.359375 69.109375 
Q 53.90625 64.015625 53.90625 55.328125 
Q 53.90625 49.265625 50.4375 45.09375 
Q 46.96875 40.921875 40.578125 39.3125 
" id="BitstreamVeraSans-Roman-33"/>
      </defs>
      <g transform="translate(7.2 111.74925)scale(0.08 -0.08)">
       <use xlink:href="#BitstreamVeraSans-Roman-33"/>
       <use x="63.623046875" xlink:href="#BitstreamVeraSans-Roman-30"/>
      </g>
     </g>
    </g>
    <g id="ytick_8">
     <g id="line2d_31">
      <g>
       <use style="stroke:#000000;stroke-width:0.5;" x="21.38" xlink:href="#me3b7411ddb" y="66.34175"/>
      </g>
     </g>
     <g id="line2d_32">
      <g>
       <use style="stroke:#000000;stroke-width:0.5;" x="690.98" xlink:href="#m92fd4d4f6f" y="66.34175"/>
      </g>
     </g>
     <g id="text_16">
      <!-- 35 -->
      <g transform="translate(7.2 68.54925)scale(0.08 -0.08)">
       <use xlink:href="#BitstreamVeraSans-Roman-33"/>
       <use x="63.623046875" xlink:href="#BitstreamVeraSans-Roman-35"/>
      </g>
     </g>
    </g>
    <g id="ytick_9">
     <g id="line2d_33">
      <g>
       <use style="stroke:#000000;stroke-width:0.5;" x="21.38" xlink:href="#me3b7411ddb" y="23.14175"/>
      </g>
     </g>
     <g id="line2d_34">
      <g>
       <use style="stroke:#000000;stroke-width:0.5;" x="690.98" xlink:href="#m92fd4d4f6f" y="23.14175"/>
      </g>
     </g>
     <g id="text_17">
      <!-- 40 -->
      <defs>
       <path d="M 37.796875 64.3125 
L 12.890625 25.390625 
L 37.796875 25.390625 
z
M 35.203125 72.90625 
L 47.609375 72.90625 
L 47.609375 25.390625 
L 58.015625 25.390625 
L 58.015625 17.1875 
L 47.609375 17.1875 
L 47.609375 0 
L 37.796875 0 
L 37.796875 17.1875 
L 4.890625 17.1875 
L 4.890625 26.703125 
z
" id="BitstreamVeraSans-Roman-34"/>
      </defs>
      <g transform="translate(7.2 25.34925)scale(0.08 -0.08)">
       <use xlink:href="#BitstreamVeraSans-Roman-34"/>
       <use x="63.623046875" xlink:href="#BitstreamVeraSans-Roman-30"/>
      </g>
     </g>
    </g>
   </g>
   <g id="text_18">
    <!-- Payoffs. Prob end: 0.1, Repetitions: 100, Strategies: 8. -->
    <defs>
     <path d="M 48.6875 27.296875 
Q 48.6875 37.203125 44.609375 42.84375 
Q 40.53125 48.484375 33.40625 48.484375 
Q 26.265625 48.484375 22.1875 42.84375 
Q 18.109375 37.203125 18.109375 27.296875 
Q 18.109375 17.390625 22.1875 11.75 
Q 26.265625 6.109375 33.40625 6.109375 
Q 40.53125 6.109375 44.609375 11.75 
Q 48.6875 17.390625 48.6875 27.296875 
M 18.109375 46.390625 
Q 20.953125 51.265625 25.265625 53.625 
Q 29.59375 56 35.59375 56 
Q 45.5625 56 51.78125 48.09375 
Q 58.015625 40.1875 58.015625 27.296875 
Q 58.015625 14.40625 51.78125 6.484375 
Q 45.5625 -1.421875 35.59375 -1.421875 
Q 29.59375 -1.421875 25.265625 0.953125 
Q 20.953125 3.328125 18.109375 8.203125 
L 18.109375 0 
L 9.078125 0 
L 9.078125 75.984375 
L 18.109375 75.984375 
z
" id="BitstreamVeraSans-Roman-62"/>
     <path d="M 44.390625 34.1875 
Q 47.5625 33.109375 50.5625 29.59375 
Q 53.5625 26.078125 56.59375 19.921875 
L 66.609375 0 
L 56 0 
L 46.6875 18.703125 
Q 43.0625 26.03125 39.671875 28.421875 
Q 36.28125 30.8125 30.421875 30.8125 
L 19.671875 30.8125 
L 19.671875 0 
L 9.8125 0 
L 9.8125 72.90625 
L 32.078125 72.90625 
Q 44.578125 72.90625 50.734375 67.671875 
Q 56.890625 62.453125 56.890625 51.90625 
Q 56.890625 45.015625 53.6875 40.46875 
Q 50.484375 35.9375 44.390625 34.1875 
M 19.671875 64.796875 
L 19.671875 38.921875 
L 32.078125 38.921875 
Q 39.203125 38.921875 42.84375 42.21875 
Q 46.484375 45.515625 46.484375 51.90625 
Q 46.484375 58.296875 42.84375 61.546875 
Q 39.203125 64.796875 32.078125 64.796875 
z
" id="BitstreamVeraSans-Roman-52"/>
     <path d="M 11.71875 12.40625 
L 22.015625 12.40625 
L 22.015625 0 
L 11.71875 0 
z
M 11.71875 51.703125 
L 22.015625 51.703125 
L 22.015625 39.3125 
L 11.71875 39.3125 
z
" id="BitstreamVeraSans-Roman-3a"/>
     <path d="M 45.40625 27.984375 
Q 45.40625 37.75 41.375 43.109375 
Q 37.359375 48.484375 30.078125 48.484375 
Q 22.859375 48.484375 18.828125 43.109375 
Q 14.796875 37.75 14.796875 27.984375 
Q 14.796875 18.265625 18.828125 12.890625 
Q 22.859375 7.515625 30.078125 7.515625 
Q 37.359375 7.515625 41.375 12.890625 
Q 45.40625 18.265625 45.40625 27.984375 
M 54.390625 6.78125 
Q 54.390625 -7.171875 48.1875 -13.984375 
Q 42 -20.796875 29.203125 -20.796875 
Q 24.46875 -20.796875 20.265625 -20.09375 
Q 16.0625 -19.390625 12.109375 -17.921875 
L 12.109375 -9.1875 
Q 16.0625 -11.328125 19.921875 -12.34375 
Q 23.78125 -13.375 27.78125 -13.375 
Q 36.625 -13.375 41.015625 -8.765625 
Q 45.40625 -4.15625 45.40625 5.171875 
L 45.40625 9.625 
Q 42.625 4.78125 38.28125 2.390625 
Q 33.9375 0 27.875 0 
Q 17.828125 0 11.671875 7.65625 
Q 5.515625 15.328125 5.515625 27.984375 
Q 5.515625 40.671875 11.671875 48.328125 
Q 17.828125 56 27.875 56 
Q 33.9375 56 38.28125 53.609375 
Q 42.625 51.21875 45.40625 46.390625 
L 45.40625 54.6875 
L 54.390625 54.6875 
z
" id="BitstreamVeraSans-Roman-67"/>
     <path d="M 11.71875 12.40625 
L 22.015625 12.40625 
L 22.015625 4 
L 14.015625 -11.625 
L 7.71875 -11.625 
L 11.71875 4 
z
" id="BitstreamVeraSans-Roman-2c"/>
     <path d="M 19.671875 64.796875 
L 19.671875 37.40625 
L 32.078125 37.40625 
Q 38.96875 37.40625 42.71875 40.96875 
Q 46.484375 44.53125 46.484375 51.125 
Q 46.484375 57.671875 42.71875 61.234375 
Q 38.96875 64.796875 32.078125 64.796875 
z
M 9.8125 72.90625 
L 32.078125 72.90625 
Q 44.34375 72.90625 50.609375 67.359375 
Q 56.890625 61.8125 56.890625 51.125 
Q 56.890625 40.328125 50.609375 34.8125 
Q 44.34375 29.296875 32.078125 29.296875 
L 19.671875 29.296875 
L 19.671875 0 
L 9.8125 0 
z
" id="BitstreamVeraSans-Roman-50"/>
     <path d="M 31.78125 34.625 
Q 24.75 34.625 20.71875 30.859375 
Q 16.703125 27.09375 16.703125 20.515625 
Q 16.703125 13.921875 20.71875 10.15625 
Q 24.75 6.390625 31.78125 6.390625 
Q 38.8125 6.390625 42.859375 10.171875 
Q 46.921875 13.96875 46.921875 20.515625 
Q 46.921875 27.09375 42.890625 30.859375 
Q 38.875 34.625 31.78125 34.625 
M 21.921875 38.8125 
Q 15.578125 40.375 12.03125 44.71875 
Q 8.5 49.078125 8.5 55.328125 
Q 8.5 64.0625 14.71875 69.140625 
Q 20.953125 74.21875 31.78125 74.21875 
Q 42.671875 74.21875 48.875 69.140625 
Q 55.078125 64.0625 55.078125 55.328125 
Q 55.078125 49.078125 51.53125 44.71875 
Q 48 40.375 41.703125 38.8125 
Q 48.828125 37.15625 52.796875 32.3125 
Q 56.78125 27.484375 56.78125 20.515625 
Q 56.78125 9.90625 50.3125 4.234375 
Q 43.84375 -1.421875 31.78125 -1.421875 
Q 19.734375 -1.421875 13.25 4.234375 
Q 6.78125 9.90625 6.78125 20.515625 
Q 6.78125 27.484375 10.78125 32.3125 
Q 14.796875 37.15625 21.921875 38.8125 
M 18.3125 54.390625 
Q 18.3125 48.734375 21.84375 45.5625 
Q 25.390625 42.390625 31.78125 42.390625 
Q 38.140625 42.390625 41.71875 45.5625 
Q 45.3125 48.734375 45.3125 54.390625 
Q 45.3125 60.0625 41.71875 63.234375 
Q 38.140625 66.40625 31.78125 66.40625 
Q 25.390625 66.40625 21.84375 63.234375 
Q 18.3125 60.0625 18.3125 54.390625 
" id="BitstreamVeraSans-Roman-38"/>
     <path d="M 10.6875 12.40625 
L 21 12.40625 
L 21 0 
L 10.6875 0 
z
" id="BitstreamVeraSans-Roman-2e"/>
     <path d="M 45.40625 46.390625 
L 45.40625 75.984375 
L 54.390625 75.984375 
L 54.390625 0 
L 45.40625 0 
L 45.40625 8.203125 
Q 42.578125 3.328125 38.25 0.953125 
Q 33.9375 -1.421875 27.875 -1.421875 
Q 17.96875 -1.421875 11.734375 6.484375 
Q 5.515625 14.40625 5.515625 27.296875 
Q 5.515625 40.1875 11.734375 48.09375 
Q 17.96875 56 27.875 56 
Q 33.9375 56 38.25 53.625 
Q 42.578125 51.265625 45.40625 46.390625 
M 14.796875 27.296875 
Q 14.796875 17.390625 18.875 11.75 
Q 22.953125 6.109375 30.078125 6.109375 
Q 37.203125 6.109375 41.296875 11.75 
Q 45.40625 17.390625 45.40625 27.296875 
Q 45.40625 37.203125 41.296875 42.84375 
Q 37.203125 48.484375 30.078125 48.484375 
Q 22.953125 48.484375 18.875 42.84375 
Q 14.796875 37.203125 14.796875 27.296875 
" id="BitstreamVeraSans-Roman-64"/>
    </defs>
    <g transform="translate(160.318625 18.14175)scale(0.144 -0.144)">
     <use xlink:href="#BitstreamVeraSans-Roman-50"/>
     <use x="60.240234375" xlink:href="#BitstreamVeraSans-Roman-61"/>
     <use x="121.51953125" xlink:href="#BitstreamVeraSans-Roman-79"/>
     <use x="180.69921875" xlink:href="#BitstreamVeraSans-Roman-6f"/>
     <use x="241.880859375" xlink:href="#BitstreamVeraSans-Roman-66"/>
     <use x="277.0859375" xlink:href="#BitstreamVeraSans-Roman-66"/>
     <use x="312.291015625" xlink:href="#BitstreamVeraSans-Roman-73"/>
     <use x="364.390625" xlink:href="#BitstreamVeraSans-Roman-2e"/>
     <use x="396.177734375" xlink:href="#BitstreamVeraSans-Roman-20"/>
     <use x="427.96484375" xlink:href="#BitstreamVeraSans-Roman-50"/>
     <use x="488.251953125" xlink:href="#BitstreamVeraSans-Roman-72"/>
     <use x="529.333984375" xlink:href="#BitstreamVeraSans-Roman-6f"/>
     <use x="590.515625" xlink:href="#BitstreamVeraSans-Roman-62"/>
     <use x="653.9921875" xlink:href="#BitstreamVeraSans-Roman-20"/>
     <use x="685.779296875" xlink:href="#BitstreamVeraSans-Roman-65"/>
     <use x="747.302734375" xlink:href="#BitstreamVeraSans-Roman-6e"/>
     <use x="810.681640625" xlink:href="#BitstreamVeraSans-Roman-64"/>
     <use x="874.158203125" xlink:href="#BitstreamVeraSans-Roman-3a"/>
     <use x="907.849609375" xlink:href="#BitstreamVeraSans-Roman-20"/>
     <use x="939.63671875" xlink:href="#BitstreamVeraSans-Roman-30"/>
     <use x="1003.259765625" xlink:href="#BitstreamVeraSans-Roman-2e"/>
     <use x="1035.046875" xlink:href="#BitstreamVeraSans-Roman-31"/>
     <use x="1098.669921875" xlink:href="#BitstreamVeraSans-Roman-2c"/>
     <use x="1130.45703125" xlink:href="#BitstreamVeraSans-Roman-20"/>
     <use x="1162.244140625" xlink:href="#BitstreamVeraSans-Roman-52"/>
     <use x="1231.6640625" xlink:href="#BitstreamVeraSans-Roman-65"/>
     <use x="1293.1875" xlink:href="#BitstreamVeraSans-Roman-70"/>
     <use x="1356.6640625" xlink:href="#BitstreamVeraSans-Roman-65"/>
     <use x="1418.1875" xlink:href="#BitstreamVeraSans-Roman-74"/>
     <use x="1457.396484375" xlink:href="#BitstreamVeraSans-Roman-69"/>
     <use x="1485.1796875" xlink:href="#BitstreamVeraSans-Roman-74"/>
     <use x="1524.388671875" xlink:href="#BitstreamVeraSans-Roman-69"/>
     <use x="1552.171875" xlink:href="#BitstreamVeraSans-Roman-6f"/>
     <use x="1613.353515625" xlink:href="#BitstreamVeraSans-Roman-6e"/>
     <use x="1676.732421875" xlink:href="#BitstreamVeraSans-Roman-73"/>
     <use x="1728.83203125" xlink:href="#BitstreamVeraSans-Roman-3a"/>
     <use x="1762.5234375" xlink:href="#BitstreamVeraSans-Roman-20"/>
     <use x="1794.310546875" xlink:href="#BitstreamVeraSans-Roman-31"/>
     <use x="1857.93359375" xlink:href="#BitstreamVeraSans-Roman-30"/>
     <use x="1921.556640625" xlink:href="#BitstreamVeraSans-Roman-30"/>
     <use x="1985.1796875" xlink:href="#BitstreamVeraSans-Roman-2c"/>
     <use x="2016.966796875" xlink:href="#BitstreamVeraSans-Roman-20"/>
     <use x="2048.75390625" xlink:href="#BitstreamVeraSans-Roman-53"/>
     <use x="2112.23046875" xlink:href="#BitstreamVeraSans-Roman-74"/>
     <use x="2151.439453125" xlink:href="#BitstreamVeraSans-Roman-72"/>
     <use x="2192.552734375" xlink:href="#BitstreamVeraSans-Roman-61"/>
     <use x="2253.83203125" xlink:href="#BitstreamVeraSans-Roman-74"/>
     <use x="2293.041015625" xlink:href="#BitstreamVeraSans-Roman-65"/>
     <use x="2354.564453125" xlink:href="#BitstreamVeraSans-Roman-67"/>
     <use x="2418.041015625" xlink:href="#BitstreamVeraSans-Roman-69"/>
     <use x="2445.82421875" xlink:href="#BitstreamVeraSans-Roman-65"/>
     <use x="2507.34765625" xlink:href="#BitstreamVeraSans-Roman-73"/>
     <use x="2559.447265625" xlink:href="#BitstreamVeraSans-Roman-3a"/>
     <use x="2593.138671875" xlink:href="#BitstreamVeraSans-Roman-20"/>
     <use x="2624.92578125" xlink:href="#BitstreamVeraSans-Roman-38"/>
     <use x="2688.548828125" xlink:href="#BitstreamVeraSans-Roman-2e"/>
    </g>
   </g>
  </g>
 </g>
 <defs>
  <clipPath id="pcb4a323258">
   <rect height="345.6" width="669.6" x="21.38" y="23.14175"/>
  </clipPath>
 </defs>
</svg>
