<?xml version="1.0" encoding="utf-8" standalone="no"?>
<!DOCTYPE svg PUBLIC "-//W3C//DTD SVG 1.1//EN"
  "http://www.w3.org/Graphics/SVG/1.1/DTD/svg11.dtd">
<!-- Created with matplotlib (http://matplotlib.org/) -->
<svg height="465pt" version="1.1" viewBox="0 0 699 465" width="699pt" xmlns="http://www.w3.org/2000/svg" xmlns:xlink="http://www.w3.org/1999/xlink">
 <defs>
  <style type="text/css">
*{stroke-linecap:butt;stroke-linejoin:round;stroke-miterlimit:100000;}
  </style>
 </defs>
 <g id="figure_1">
  <g id="patch_1">
   <path d="M 0 465.868 
L 699.79375 465.868 
L 699.79375 0 
L 0 0 
z
" style="fill:#ffffff;"/>
  </g>
  <g id="axes_1">
   <g id="patch_2">
    <path d="M 22.99375 368.74175 
L 692.59375 368.74175 
L 692.59375 23.14175 
L 22.99375 23.14175 
z
" style="fill:#ffffff;"/>
   </g>
   <g id="PolyCollection_1">
    <defs>
     <path d="M 109.035347 -260.56625 
L 85.752153 -260.56625 
L 84.591398 -262.057159 
L 83.464764 -263.548068 
L 82.40058 -265.038977 
L 81.42748 -266.529886 
L 80.573159 -268.020795 
L 79.863069 -269.511705 
L 79.319171 -271.002614 
L 78.958802 -272.493523 
L 78.79375 -273.984432 
L 78.829603 -275.475341 
L 79.065414 -276.96625 
L 79.493716 -278.457159 
L 80.100881 -279.948068 
L 80.867792 -281.438977 
L 81.770782 -282.929886 
L 82.782773 -284.420795 
L 83.874519 -285.911705 
L 85.015883 -287.402614 
L 86.177049 -288.893523 
L 87.329605 -290.384432 
L 88.447431 -291.875341 
L 89.507363 -293.36625 
L 90.48961 -294.857159 
L 91.377936 -296.348068 
L 92.159625 -297.838977 
L 92.825279 -299.329886 
L 93.368494 -300.820795 
L 93.785474 -302.311705 
L 94.074633 -303.802614 
L 94.236241 -305.293523 
L 94.272149 -306.784432 
L 94.185612 -308.275341 
L 93.981237 -309.76625 
L 93.665022 -311.257159 
L 93.244496 -312.748068 
L 92.728906 -314.238977 
L 92.129407 -315.729886 
L 91.459232 -317.220795 
L 90.733765 -318.711705 
L 89.970498 -320.202614 
L 89.188834 -321.693523 
L 88.409713 -323.184432 
L 87.655075 -324.675341 
L 86.947155 -326.16625 
L 86.30767 -327.657159 
L 85.756922 -329.148068 
L 85.312896 -330.638977 
L 84.990407 -332.129886 
L 84.80036 -333.620795 
L 84.74919 -335.111705 
L 84.838517 -336.602614 
L 85.065049 -338.093523 
L 85.420741 -339.584432 
L 85.893194 -341.075341 
L 86.466271 -342.56625 
L 87.120872 -344.057159 
L 87.835812 -345.548068 
L 88.588745 -347.038977 
L 89.357056 -348.529886 
L 90.118683 -350.020795 
L 90.852805 -351.511705 
L 91.540373 -353.002614 
L 92.164479 -354.493523 
L 92.710553 -355.984432 
L 93.166407 -357.475341 
L 93.522168 -358.96625 
L 93.770125 -360.457159 
L 93.904541 -361.948068 
L 93.921465 -363.438977 
L 93.818579 -364.929886 
L 93.595122 -366.420795 
L 93.251876 -367.911705 
L 92.791258 -369.402614 
L 92.217473 -370.893523 
L 91.536727 -372.384432 
L 90.757466 -373.875341 
L 89.890596 -375.36625 
L 88.949657 -376.857159 
L 87.950889 -378.348068 
L 86.913179 -379.838977 
L 85.857839 -381.329886 
L 84.808212 -382.820795 
L 83.789107 -384.311705 
L 82.826061 -385.802614 
L 81.944477 -387.293523 
L 81.16867 -388.784432 
L 80.520878 -390.275341 
L 80.020303 -391.76625 
L 79.682239 -393.257159 
L 79.517355 -394.748068 
L 79.53118 -396.238977 
L 79.723832 -397.729886 
L 80.090007 -399.220795 
L 80.619242 -400.711705 
L 81.296424 -402.202614 
L 82.10252 -403.693523 
L 83.015477 -405.184432 
L 84.01123 -406.675341 
L 85.064763 -408.16625 
L 109.722737 -408.16625 
L 109.722737 -408.16625 
L 110.77627 -406.675341 
L 111.772023 -405.184432 
L 112.68498 -403.693523 
L 113.491076 -402.202614 
L 114.168258 -400.711705 
L 114.697493 -399.220795 
L 115.063668 -397.729886 
L 115.25632 -396.238977 
L 115.270145 -394.748068 
L 115.105261 -393.257159 
L 114.767197 -391.76625 
L 114.266622 -390.275341 
L 113.61883 -388.784432 
L 112.843023 -387.293523 
L 111.961439 -385.802614 
L 110.998393 -384.311705 
L 109.979288 -382.820795 
L 108.929661 -381.329886 
L 107.874321 -379.838977 
L 106.836611 -378.348068 
L 105.837843 -376.857159 
L 104.896904 -375.36625 
L 104.030034 -373.875341 
L 103.250773 -372.384432 
L 102.570027 -370.893523 
L 101.996242 -369.402614 
L 101.535624 -367.911705 
L 101.192378 -366.420795 
L 100.968921 -364.929886 
L 100.866035 -363.438977 
L 100.882959 -361.948068 
L 101.017375 -360.457159 
L 101.265332 -358.96625 
L 101.621093 -357.475341 
L 102.076947 -355.984432 
L 102.623021 -354.493523 
L 103.247127 -353.002614 
L 103.934695 -351.511705 
L 104.668817 -350.020795 
L 105.430444 -348.529886 
L 106.198755 -347.038977 
L 106.951688 -345.548068 
L 107.666628 -344.057159 
L 108.321229 -342.56625 
L 108.894306 -341.075341 
L 109.366759 -339.584432 
L 109.722451 -338.093523 
L 109.948983 -336.602614 
L 110.03831 -335.111705 
L 109.98714 -333.620795 
L 109.797093 -332.129886 
L 109.474604 -330.638977 
L 109.030578 -329.148068 
L 108.47983 -327.657159 
L 107.840345 -326.16625 
L 107.132425 -324.675341 
L 106.377787 -323.184432 
L 105.598666 -321.693523 
L 104.817002 -320.202614 
L 104.053735 -318.711705 
L 103.328268 -317.220795 
L 102.658093 -315.729886 
L 102.058594 -314.238977 
L 101.543004 -312.748068 
L 101.122478 -311.257159 
L 100.806263 -309.76625 
L 100.601888 -308.275341 
L 100.515351 -306.784432 
L 100.551259 -305.293523 
L 100.712867 -303.802614 
L 101.002026 -302.311705 
L 101.419006 -300.820795 
L 101.962221 -299.329886 
L 102.627875 -297.838977 
L 103.409564 -296.348068 
L 104.29789 -294.857159 
L 105.280137 -293.36625 
L 106.340069 -291.875341 
L 107.457895 -290.384432 
L 108.610451 -288.893523 
L 109.771617 -287.402614 
L 110.912981 -285.911705 
L 112.004727 -284.420795 
L 113.016718 -282.929886 
L 113.919708 -281.438977 
L 114.686619 -279.948068 
L 115.293784 -278.457159 
L 115.722086 -276.96625 
L 115.957897 -275.475341 
L 115.99375 -273.984432 
L 115.828698 -272.493523 
L 115.468329 -271.002614 
L 114.924431 -269.511705 
L 114.214341 -268.020795 
L 113.36002 -266.529886 
L 112.38692 -265.038977 
L 111.322736 -263.548068 
L 110.196102 -262.057159 
L 109.035347 -260.56625 
z
" id="m1949df0f0b" style="stroke:#000000;stroke-opacity:0.3;"/>
    </defs>
    <g clip-path="url(#p4d0544093d)">
     <use style="fill:#bfbf00;fill-opacity:0.3;stroke:#000000;stroke-opacity:0.3;" x="0.0" xlink:href="#m1949df0f0b" y="465.868"/>
    </g>
   </g>
   <g id="PolyCollection_2">
    <defs>
     <path d="M 175.310704 -138.16625 
L 168.276796 -138.16625 
L 168.021086 -140.835341 
L 167.841349 -143.504432 
L 167.749392 -146.173523 
L 167.751079 -148.842614 
L 167.845666 -151.511705 
L 168.025915 -154.180795 
L 168.278939 -156.849886 
L 168.587658 -159.518977 
L 168.932621 -162.188068 
L 169.293929 -164.857159 
L 169.652978 -167.52625 
L 169.993839 -170.195341 
L 170.304125 -172.864432 
L 170.57533 -175.533523 
L 170.802698 -178.202614 
L 170.984721 -180.871705 
L 171.122423 -183.540795 
L 171.218558 -186.209886 
L 171.276852 -188.878977 
L 171.30135 -191.548068 
L 171.295915 -194.217159 
L 171.263886 -196.88625 
L 171.207856 -199.555341 
L 171.129555 -202.224432 
L 171.029774 -204.893523 
L 170.908298 -207.562614 
L 170.763822 -210.231705 
L 170.593808 -212.900795 
L 170.394293 -215.569886 
L 170.159654 -218.238977 
L 169.882354 -220.908068 
L 169.55275 -223.577159 
L 169.159042 -226.24625 
L 168.687494 -228.915341 
L 168.12304 -231.584432 
L 167.450401 -234.253523 
L 166.655776 -236.922614 
L 165.729073 -239.591705 
L 164.666527 -242.260795 
L 163.473426 -244.929886 
L 162.166511 -247.598977 
L 160.775557 -250.268068 
L 159.343649 -252.937159 
L 157.925765 -255.60625 
L 156.585543 -258.275341 
L 155.390361 -260.944432 
L 154.405255 -263.613523 
L 153.686416 -266.282614 
L 153.27523 -268.951705 
L 153.19375 -271.620795 
L 153.442362 -274.289886 
L 153.999988 -276.958977 
L 154.826801 -279.628068 
L 155.868973 -282.297159 
L 157.064674 -284.96625 
L 158.350396 -287.635341 
L 159.666686 -290.304432 
L 160.962607 -292.973523 
L 162.198495 -295.642614 
L 163.346958 -298.311705 
L 164.392325 -300.980795 
L 165.328946 -303.649886 
L 166.15885 -306.318977 
L 166.889219 -308.988068 
L 167.530073 -311.657159 
L 168.09239 -314.32625 
L 168.58676 -316.995341 
L 169.022584 -319.664432 
L 169.407699 -322.333523 
L 169.748332 -325.002614 
L 170.049236 -327.671705 
L 170.313911 -330.340795 
L 170.544826 -333.009886 
L 170.743594 -335.678977 
L 170.911068 -338.348068 
L 171.04738 -341.017159 
L 171.151925 -343.68625 
L 171.223325 -346.355341 
L 171.259433 -349.024432 
L 171.257405 -351.693523 
L 171.213909 -354.362614 
L 171.125493 -357.031705 
L 170.989132 -359.700795 
L 170.80295 -362.369886 
L 170.567033 -365.038977 
L 170.284259 -367.708068 
L 169.960988 -370.377159 
L 169.607486 -373.04625 
L 169.237908 -375.715341 
L 168.869787 -378.384432 
L 168.522957 -381.053523 
L 168.218018 -383.722614 
L 167.974469 -386.391705 
L 167.80877 -389.060795 
L 167.732587 -391.729886 
L 167.75151 -394.398977 
L 167.864418 -397.068068 
L 168.063631 -399.737159 
L 168.335792 -402.40625 
L 175.251708 -402.40625 
L 175.251708 -402.40625 
L 175.523869 -399.737159 
L 175.723082 -397.068068 
L 175.83599 -394.398977 
L 175.854913 -391.729886 
L 175.77873 -389.060795 
L 175.613031 -386.391705 
L 175.369482 -383.722614 
L 175.064543 -381.053523 
L 174.717713 -378.384432 
L 174.349592 -375.715341 
L 173.980014 -373.04625 
L 173.626512 -370.377159 
L 173.303241 -367.708068 
L 173.020467 -365.038977 
L 172.78455 -362.369886 
L 172.598368 -359.700795 
L 172.462007 -357.031705 
L 172.373591 -354.362614 
L 172.330095 -351.693523 
L 172.328067 -349.024432 
L 172.364175 -346.355341 
L 172.435575 -343.68625 
L 172.54012 -341.017159 
L 172.676432 -338.348068 
L 172.843906 -335.678977 
L 173.042674 -333.009886 
L 173.273589 -330.340795 
L 173.538264 -327.671705 
L 173.839168 -325.002614 
L 174.179801 -322.333523 
L 174.564916 -319.664432 
L 175.00074 -316.995341 
L 175.49511 -314.32625 
L 176.057427 -311.657159 
L 176.698281 -308.988068 
L 177.42865 -306.318977 
L 178.258554 -303.649886 
L 179.195175 -300.980795 
L 180.240542 -298.311705 
L 181.389005 -295.642614 
L 182.624893 -292.973523 
L 183.920814 -290.304432 
L 185.237104 -287.635341 
L 186.522826 -284.96625 
L 187.718527 -282.297159 
L 188.760699 -279.628068 
L 189.587512 -276.958977 
L 190.145138 -274.289886 
L 190.39375 -271.620795 
L 190.31227 -268.951705 
L 189.901084 -266.282614 
L 189.182245 -263.613523 
L 188.197139 -260.944432 
L 187.001957 -258.275341 
L 185.661735 -255.60625 
L 184.243851 -252.937159 
L 182.811943 -250.268068 
L 181.420989 -247.598977 
L 180.114074 -244.929886 
L 178.920973 -242.260795 
L 177.858427 -239.591705 
L 176.931724 -236.922614 
L 176.137099 -234.253523 
L 175.46446 -231.584432 
L 174.900006 -228.915341 
L 174.428458 -226.24625 
L 174.03475 -223.577159 
L 173.705146 -220.908068 
L 173.427846 -218.238977 
L 173.193207 -215.569886 
L 172.993692 -212.900795 
L 172.823678 -210.231705 
L 172.679202 -207.562614 
L 172.557726 -204.893523 
L 172.457945 -202.224432 
L 172.379644 -199.555341 
L 172.323614 -196.88625 
L 172.291585 -194.217159 
L 172.28615 -191.548068 
L 172.310648 -188.878977 
L 172.368942 -186.209886 
L 172.465077 -183.540795 
L 172.602779 -180.871705 
L 172.784802 -178.202614 
L 173.01217 -175.533523 
L 173.283375 -172.864432 
L 173.593661 -170.195341 
L 173.934522 -167.52625 
L 174.293571 -164.857159 
L 174.654879 -162.188068 
L 174.999842 -159.518977 
L 175.308561 -156.849886 
L 175.561585 -154.180795 
L 175.741834 -151.511705 
L 175.836421 -148.842614 
L 175.838108 -146.173523 
L 175.746151 -143.504432 
L 175.566414 -140.835341 
L 175.310704 -138.16625 
z
" id="m6fff504bdf" style="stroke:#000000;stroke-opacity:0.3;"/>
    </defs>
    <g clip-path="url(#p4d0544093d)">
     <use style="fill:#bfbf00;fill-opacity:0.3;stroke:#000000;stroke-opacity:0.3;" x="0.0" xlink:href="#m6fff504bdf" y="465.868"/>
    </g>
   </g>
   <g id="PolyCollection_3">
    <defs>
     <path d="M 249.408476 -134.56625 
L 242.979024 -134.56625 
L 242.670982 -137.278977 
L 242.42469 -139.991705 
L 242.256352 -142.704432 
L 242.177376 -145.417159 
L 242.19307 -148.129886 
L 242.302025 -150.842614 
L 242.496273 -153.555341 
L 242.762186 -156.268068 
L 243.081977 -158.980795 
L 243.435557 -161.693523 
L 243.802466 -164.40625 
L 244.163634 -167.118977 
L 244.502737 -169.831705 
L 244.807055 -172.544432 
L 245.067797 -175.257159 
L 245.279955 -177.969886 
L 245.441799 -180.682614 
L 245.554171 -183.395341 
L 245.619697 -186.108068 
L 245.642044 -188.820795 
L 245.62529 -191.533523 
L 245.573431 -194.24625 
L 245.490042 -196.958977 
L 245.378048 -199.671705 
L 245.239583 -202.384432 
L 245.075904 -205.097159 
L 244.887303 -207.809886 
L 244.673019 -210.522614 
L 244.431109 -213.235341 
L 244.158273 -215.948068 
L 243.849648 -218.660795 
L 243.498573 -221.373523 
L 243.096403 -224.08625 
L 242.632455 -226.798977 
L 242.094208 -229.511705 
L 241.467906 -232.224432 
L 240.739709 -234.937159 
L 239.897452 -237.649886 
L 238.933004 -240.362614 
L 237.845045 -243.075341 
L 236.641915 -245.788068 
L 235.344055 -248.500795 
L 233.98545 -251.213523 
L 232.613563 -253.92625 
L 231.287358 -256.638977 
L 230.073341 -259.351705 
L 229.039891 -262.064432 
L 228.250535 -264.777159 
L 227.757094 -267.489886 
L 227.59375 -270.202614 
L 227.77301 -272.915341 
L 228.284227 -275.628068 
L 229.094925 -278.340795 
L 230.154691 -281.053523 
L 231.400948 -283.76625 
L 232.765675 -286.478977 
L 234.182041 -289.191705 
L 235.590038 -291.904432 
L 236.940502 -294.617159 
L 238.19722 -297.329886 
L 239.33722 -300.042614 
L 240.349562 -302.755341 
L 241.233142 -305.468068 
L 241.994041 -308.180795 
L 242.642885 -310.893523 
L 243.19255 -313.60625 
L 243.656393 -316.318977 
L 244.047067 -319.031705 
L 244.375846 -321.744432 
L 244.652354 -324.457159 
L 244.884553 -327.169886 
L 245.078865 -329.882614 
L 245.240336 -332.595341 
L 245.372768 -335.308068 
L 245.478792 -338.020795 
L 245.559893 -340.733523 
L 245.616386 -343.44625 
L 245.647401 -346.158977 
L 245.650904 -348.871705 
L 245.62382 -351.584432 
L 245.562292 -354.297159 
L 245.462121 -357.009886 
L 245.319389 -359.722614 
L 245.131254 -362.435341 
L 244.896846 -365.148068 
L 244.618163 -367.860795 
L 244.30082 -370.573523 
L 243.954503 -373.28625 
L 243.592975 -375.998977 
L 243.233533 -378.711705 
L 242.895902 -381.424432 
L 242.600632 -384.137159 
L 242.367165 -386.849886 
L 242.211839 -389.562614 
L 242.146094 -392.275341 
L 242.175175 -394.988068 
L 242.29753 -397.700795 
L 242.504999 -400.413523 
L 242.783779 -403.12625 
L 249.603721 -403.12625 
L 249.603721 -403.12625 
L 249.882501 -400.413523 
L 250.08997 -397.700795 
L 250.212325 -394.988068 
L 250.241406 -392.275341 
L 250.175661 -389.562614 
L 250.020335 -386.849886 
L 249.786868 -384.137159 
L 249.491598 -381.424432 
L 249.153967 -378.711705 
L 248.794525 -375.998977 
L 248.432997 -373.28625 
L 248.08668 -370.573523 
L 247.769337 -367.860795 
L 247.490654 -365.148068 
L 247.256246 -362.435341 
L 247.068111 -359.722614 
L 246.925379 -357.009886 
L 246.825208 -354.297159 
L 246.76368 -351.584432 
L 246.736596 -348.871705 
L 246.740099 -346.158977 
L 246.771114 -343.44625 
L 246.827607 -340.733523 
L 246.908708 -338.020795 
L 247.014732 -335.308068 
L 247.147164 -332.595341 
L 247.308635 -329.882614 
L 247.502947 -327.169886 
L 247.735146 -324.457159 
L 248.011654 -321.744432 
L 248.340433 -319.031705 
L 248.731107 -316.318977 
L 249.19495 -313.60625 
L 249.744615 -310.893523 
L 250.393459 -308.180795 
L 251.154358 -305.468068 
L 252.037938 -302.755341 
L 253.05028 -300.042614 
L 254.19028 -297.329886 
L 255.446998 -294.617159 
L 256.797462 -291.904432 
L 258.205459 -289.191705 
L 259.621825 -286.478977 
L 260.986552 -283.76625 
L 262.232809 -281.053523 
L 263.292575 -278.340795 
L 264.103273 -275.628068 
L 264.61449 -272.915341 
L 264.79375 -270.202614 
L 264.630406 -267.489886 
L 264.136965 -264.777159 
L 263.347609 -262.064432 
L 262.314159 -259.351705 
L 261.100142 -256.638977 
L 259.773937 -253.92625 
L 258.40205 -251.213523 
L 257.043445 -248.500795 
L 255.745585 -245.788068 
L 254.542455 -243.075341 
L 253.454496 -240.362614 
L 252.490048 -237.649886 
L 251.647791 -234.937159 
L 250.919594 -232.224432 
L 250.293292 -229.511705 
L 249.755045 -226.798977 
L 249.291097 -224.08625 
L 248.888927 -221.373523 
L 248.537852 -218.660795 
L 248.229227 -215.948068 
L 247.956391 -213.235341 
L 247.714481 -210.522614 
L 247.500197 -207.809886 
L 247.311596 -205.097159 
L 247.147917 -202.384432 
L 247.009452 -199.671705 
L 246.897458 -196.958977 
L 246.814069 -194.24625 
L 246.76221 -191.533523 
L 246.745456 -188.820795 
L 246.767803 -186.108068 
L 246.833329 -183.395341 
L 246.945701 -180.682614 
L 247.107545 -177.969886 
L 247.319703 -175.257159 
L 247.580445 -172.544432 
L 247.884763 -169.831705 
L 248.223866 -167.118977 
L 248.585034 -164.40625 
L 248.951943 -161.693523 
L 249.305523 -158.980795 
L 249.625314 -156.268068 
L 249.891227 -153.555341 
L 250.085475 -150.842614 
L 250.19443 -148.129886 
L 250.210124 -145.417159 
L 250.131148 -142.704432 
L 249.96281 -139.991705 
L 249.716518 -137.278977 
L 249.408476 -134.56625 
z
" id="m62ed2f6dc2" style="stroke:#000000;stroke-opacity:0.3;"/>
    </defs>
    <g clip-path="url(#p4d0544093d)">
     <use style="fill:#bfbf00;fill-opacity:0.3;stroke:#000000;stroke-opacity:0.3;" x="0.0" xlink:href="#m62ed2f6dc2" y="465.868"/>
    </g>
   </g>
   <g id="PolyCollection_4">
    <defs>
     <path d="M 323.3787 -200.80625 
L 317.8088 -200.80625 
L 317.632507 -202.209886 
L 317.522956 -203.613523 
L 317.487958 -205.017159 
L 317.529921 -206.420795 
L 317.645575 -207.824432 
L 317.826396 -209.228068 
L 318.059641 -210.631705 
L 318.329825 -212.035341 
L 318.620412 -213.438977 
L 318.915446 -214.842614 
L 319.200926 -216.24625 
L 319.465761 -217.649886 
L 319.702246 -219.053523 
L 319.906084 -220.457159 
L 320.07603 -221.860795 
L 320.213289 -223.264432 
L 320.320807 -224.668068 
L 320.40255 -226.071705 
L 320.46288 -227.475341 
L 320.506059 -228.878977 
L 320.535903 -230.282614 
L 320.555552 -231.68625 
L 320.567346 -233.089886 
L 320.57273 -234.493523 
L 320.57216 -235.897159 
L 320.564963 -237.300795 
L 320.549103 -238.704432 
L 320.520838 -240.108068 
L 320.474271 -241.511705 
L 320.400811 -242.915341 
L 320.288622 -244.318977 
L 320.122159 -245.722614 
L 319.881972 -247.12625 
L 319.544957 -248.529886 
L 319.085288 -249.933523 
L 318.476188 -251.337159 
L 317.692667 -252.740795 
L 316.715137 -254.144432 
L 315.533665 -255.548068 
L 314.152366 -256.951705 
L 312.593235 -258.355341 
L 310.898631 -259.758977 
L 309.131609 -261.162614 
L 307.373533 -262.56625 
L 305.718783 -263.969886 
L 304.266839 -265.373523 
L 303.112596 -266.777159 
L 302.336178 -268.180795 
L 301.99375 -269.584432 
L 302.110802 -270.988068 
L 302.679014 -272.391705 
L 303.657233 -273.795341 
L 304.976414 -275.198977 
L 306.54769 -276.602614 
L 308.272256 -278.00625 
L 310.05156 -279.409886 
L 311.796335 -280.813523 
L 313.433388 -282.217159 
L 314.90954 -283.620795 
L 316.192655 -285.024432 
L 317.270159 -286.428068 
L 318.145747 -287.831705 
L 318.835112 -289.235341 
L 319.361484 -290.638977 
L 319.751573 -292.042614 
L 320.032322 -293.44625 
L 320.228633 -294.849886 
L 320.362016 -296.253523 
L 320.450034 -297.657159 
L 320.506322 -299.060795 
L 320.54096 -300.464432 
L 320.561021 -301.868068 
L 320.571139 -303.271705 
L 320.574017 -304.675341 
L 320.570831 -306.078977 
L 320.56151 -307.482614 
L 320.544911 -308.88625 
L 320.518936 -310.289886 
L 320.480617 -311.693523 
L 320.426231 -313.097159 
L 320.351501 -314.500795 
L 320.251914 -315.904432 
L 320.123189 -317.308068 
L 319.961898 -318.711705 
L 319.766187 -320.115341 
L 319.536531 -321.518977 
L 319.276402 -322.922614 
L 318.992714 -324.32625 
L 318.695907 -325.729886 
L 318.399579 -327.133523 
L 318.11961 -328.537159 
L 317.872847 -329.940795 
L 317.675461 -331.344432 
L 317.54121 -332.748068 
L 317.479864 -334.151705 
L 317.496023 -335.555341 
L 317.588554 -336.958977 
L 317.750717 -338.362614 
L 317.970977 -339.76625 
L 323.216523 -339.76625 
L 323.216523 -339.76625 
L 323.436783 -338.362614 
L 323.598946 -336.958977 
L 323.691477 -335.555341 
L 323.707636 -334.151705 
L 323.64629 -332.748068 
L 323.512039 -331.344432 
L 323.314653 -329.940795 
L 323.06789 -328.537159 
L 322.787921 -327.133523 
L 322.491593 -325.729886 
L 322.194786 -324.32625 
L 321.911098 -322.922614 
L 321.650969 -321.518977 
L 321.421313 -320.115341 
L 321.225602 -318.711705 
L 321.064311 -317.308068 
L 320.935586 -315.904432 
L 320.835999 -314.500795 
L 320.761269 -313.097159 
L 320.706883 -311.693523 
L 320.668564 -310.289886 
L 320.642589 -308.88625 
L 320.62599 -307.482614 
L 320.616669 -306.078977 
L 320.613483 -304.675341 
L 320.616361 -303.271705 
L 320.626479 -301.868068 
L 320.64654 -300.464432 
L 320.681178 -299.060795 
L 320.737466 -297.657159 
L 320.825484 -296.253523 
L 320.958867 -294.849886 
L 321.155178 -293.44625 
L 321.435927 -292.042614 
L 321.826016 -290.638977 
L 322.352388 -289.235341 
L 323.041753 -287.831705 
L 323.917341 -286.428068 
L 324.994845 -285.024432 
L 326.27796 -283.620795 
L 327.754112 -282.217159 
L 329.391165 -280.813523 
L 331.13594 -279.409886 
L 332.915244 -278.00625 
L 334.63981 -276.602614 
L 336.211086 -275.198977 
L 337.530267 -273.795341 
L 338.508486 -272.391705 
L 339.076698 -270.988068 
L 339.19375 -269.584432 
L 338.851322 -268.180795 
L 338.074904 -266.777159 
L 336.920661 -265.373523 
L 335.468717 -263.969886 
L 333.813967 -262.56625 
L 332.055891 -261.162614 
L 330.288869 -259.758977 
L 328.594265 -258.355341 
L 327.035134 -256.951705 
L 325.653835 -255.548068 
L 324.472363 -254.144432 
L 323.494833 -252.740795 
L 322.711312 -251.337159 
L 322.102212 -249.933523 
L 321.642543 -248.529886 
L 321.305528 -247.12625 
L 321.065341 -245.722614 
L 320.898878 -244.318977 
L 320.786689 -242.915341 
L 320.713229 -241.511705 
L 320.666662 -240.108068 
L 320.638397 -238.704432 
L 320.622537 -237.300795 
L 320.61534 -235.897159 
L 320.61477 -234.493523 
L 320.620154 -233.089886 
L 320.631948 -231.68625 
L 320.651597 -230.282614 
L 320.681441 -228.878977 
L 320.72462 -227.475341 
L 320.78495 -226.071705 
L 320.866693 -224.668068 
L 320.974211 -223.264432 
L 321.11147 -221.860795 
L 321.281416 -220.457159 
L 321.485254 -219.053523 
L 321.721739 -217.649886 
L 321.986574 -216.24625 
L 322.272054 -214.842614 
L 322.567088 -213.438977 
L 322.857675 -212.035341 
L 323.127859 -210.631705 
L 323.361104 -209.228068 
L 323.541925 -207.824432 
L 323.657579 -206.420795 
L 323.699542 -205.017159 
L 323.664544 -203.613523 
L 323.554993 -202.209886 
L 323.3787 -200.80625 
z
" id="m1eff79c24a" style="stroke:#000000;stroke-opacity:0.3;"/>
    </defs>
    <g clip-path="url(#p4d0544093d)">
     <use style="fill:#bfbf00;fill-opacity:0.3;stroke:#000000;stroke-opacity:0.3;" x="0.0" xlink:href="#m1eff79c24a" y="465.868"/>
    </g>
   </g>
   <g id="PolyCollection_5">
    <defs>
     <path d="M 398.232378 -198.64625 
L 391.755122 -198.64625 
L 391.388709 -200.48625 
L 391.122689 -202.32625 
L 390.98258 -204.16625 
L 390.980701 -206.00625 
L 391.113759 -207.84625 
L 391.363179 -209.68625 
L 391.698114 -211.52625 
L 392.080439 -213.36625 
L 392.470607 -215.20625 
L 392.833134 -217.04625 
L 393.140696 -218.88625 
L 393.376282 -220.72625 
L 393.533337 -222.56625 
L 393.61427 -224.40625 
L 393.627942 -226.24625 
L 393.586804 -228.08625 
L 393.504233 -229.92625 
L 393.392406 -231.76625 
L 393.260821 -233.60625 
L 393.115355 -235.44625 
L 392.957624 -237.28625 
L 392.784374 -239.12625 
L 392.586676 -240.96625 
L 392.348912 -242.80625 
L 392.047798 -244.64625 
L 391.651995 -246.48625 
L 391.123116 -248.32625 
L 390.418973 -250.16625 
L 389.49964 -252.00625 
L 388.336273 -253.84625 
L 386.921683 -255.68625 
L 385.28061 -257.52625 
L 383.476894 -259.36625 
L 381.614644 -261.20625 
L 379.831299 -263.04625 
L 378.282266 -264.88625 
L 377.119049 -266.72625 
L 376.464967 -268.56625 
L 376.39375 -270.40625 
L 376.91611 -272.24625 
L 377.97762 -274.08625 
L 379.468452 -275.92625 
L 381.242534 -277.76625 
L 383.141507 -279.60625 
L 385.018044 -281.44625 
L 386.753885 -283.28625 
L 388.269827 -285.12625 
L 389.527261 -286.96625 
L 390.522807 -288.80625 
L 391.278818 -290.64625 
L 391.832632 -292.48625 
L 392.226968 -294.32625 
L 392.502791 -296.16625 
L 392.695061 -298.00625 
L 392.830994 -299.84625 
L 392.930135 -301.68625 
L 393.005433 -303.52625 
L 393.064715 -305.36625 
L 393.112131 -307.20625 
L 393.149394 -309.04625 
L 393.176775 -310.88625 
L 393.193876 -312.72625 
L 393.200237 -314.56625 
L 393.195784 -316.40625 
L 393.181129 -318.24625 
L 393.157701 -320.08625 
L 393.127724 -321.92625 
L 393.094036 -323.76625 
L 393.059834 -325.60625 
L 393.028383 -327.44625 
L 393.002754 -329.28625 
L 392.985643 -331.12625 
L 392.979255 -332.96625 
L 392.98525 -334.80625 
L 393.004708 -336.64625 
L 393.038089 -338.48625 
L 393.0852 -340.32625 
L 393.145181 -342.16625 
L 393.216574 -344.00625 
L 393.29749 -345.84625 
L 393.385881 -347.68625 
L 393.479847 -349.52625 
L 393.57791 -351.36625 
L 393.679141 -353.20625 
L 393.78311 -355.04625 
L 393.889635 -356.88625 
L 393.998436 -358.72625 
L 394.108779 -360.56625 
L 394.219257 -362.40625 
L 394.327774 -364.24625 
L 394.431742 -366.08625 
L 394.528457 -367.92625 
L 394.615524 -369.76625 
L 394.69124 -371.60625 
L 394.754826 -373.44625 
L 394.806472 -375.28625 
L 394.847208 -377.12625 
L 394.878635 -378.96625 
L 394.902618 -380.80625 
L 395.084882 -380.80625 
L 395.084882 -380.80625 
L 395.108865 -378.96625 
L 395.140292 -377.12625 
L 395.181028 -375.28625 
L 395.232674 -373.44625 
L 395.29626 -371.60625 
L 395.371976 -369.76625 
L 395.459043 -367.92625 
L 395.555758 -366.08625 
L 395.659726 -364.24625 
L 395.768243 -362.40625 
L 395.878721 -360.56625 
L 395.989064 -358.72625 
L 396.097865 -356.88625 
L 396.20439 -355.04625 
L 396.308359 -353.20625 
L 396.40959 -351.36625 
L 396.507653 -349.52625 
L 396.601619 -347.68625 
L 396.69001 -345.84625 
L 396.770926 -344.00625 
L 396.842319 -342.16625 
L 396.9023 -340.32625 
L 396.949411 -338.48625 
L 396.982792 -336.64625 
L 397.00225 -334.80625 
L 397.008245 -332.96625 
L 397.001857 -331.12625 
L 396.984746 -329.28625 
L 396.959117 -327.44625 
L 396.927666 -325.60625 
L 396.893464 -323.76625 
L 396.859776 -321.92625 
L 396.829799 -320.08625 
L 396.806371 -318.24625 
L 396.791716 -316.40625 
L 396.787263 -314.56625 
L 396.793624 -312.72625 
L 396.810725 -310.88625 
L 396.838106 -309.04625 
L 396.875369 -307.20625 
L 396.922785 -305.36625 
L 396.982067 -303.52625 
L 397.057365 -301.68625 
L 397.156506 -299.84625 
L 397.292439 -298.00625 
L 397.484709 -296.16625 
L 397.760532 -294.32625 
L 398.154868 -292.48625 
L 398.708682 -290.64625 
L 399.464693 -288.80625 
L 400.460239 -286.96625 
L 401.717673 -285.12625 
L 403.233615 -283.28625 
L 404.969456 -281.44625 
L 406.845993 -279.60625 
L 408.744966 -277.76625 
L 410.519048 -275.92625 
L 412.00988 -274.08625 
L 413.07139 -272.24625 
L 413.59375 -270.40625 
L 413.522533 -268.56625 
L 412.868451 -266.72625 
L 411.705234 -264.88625 
L 410.156201 -263.04625 
L 408.372856 -261.20625 
L 406.510606 -259.36625 
L 404.70689 -257.52625 
L 403.065817 -255.68625 
L 401.651227 -253.84625 
L 400.48786 -252.00625 
L 399.568527 -250.16625 
L 398.864384 -248.32625 
L 398.335505 -246.48625 
L 397.939702 -244.64625 
L 397.638588 -242.80625 
L 397.400824 -240.96625 
L 397.203126 -239.12625 
L 397.029876 -237.28625 
L 396.872145 -235.44625 
L 396.726679 -233.60625 
L 396.595094 -231.76625 
L 396.483267 -229.92625 
L 396.400696 -228.08625 
L 396.359558 -226.24625 
L 396.37323 -224.40625 
L 396.454163 -222.56625 
L 396.611218 -220.72625 
L 396.846804 -218.88625 
L 397.154366 -217.04625 
L 397.516893 -215.20625 
L 397.907061 -213.36625 
L 398.289386 -211.52625 
L 398.624321 -209.68625 
L 398.873741 -207.84625 
L 399.006799 -206.00625 
L 399.00492 -204.16625 
L 398.864811 -202.32625 
L 398.598791 -200.48625 
L 398.232378 -198.64625 
z
" id="mabbef503ab" style="stroke:#000000;stroke-opacity:0.3;"/>
    </defs>
    <g clip-path="url(#p4d0544093d)">
     <use style="fill:#bfbf00;fill-opacity:0.3;stroke:#000000;stroke-opacity:0.3;" x="0.0" xlink:href="#mabbef503ab" y="465.868"/>
    </g>
   </g>
   <g id="PolyCollection_6">
    <defs>
     <path d="M 469.474466 -256.96625 
L 469.313034 -256.96625 
L 469.303728 -257.228068 
L 469.290892 -257.489886 
L 469.270211 -257.751705 
L 469.236351 -258.013523 
L 469.183604 -258.275341 
L 469.106694 -258.537159 
L 469.001649 -258.798977 
L 468.866589 -259.060795 
L 468.702247 -259.322614 
L 468.511984 -259.584432 
L 468.301145 -259.84625 
L 468.075799 -260.108068 
L 467.841232 -260.369886 
L 467.600815 -260.631705 
L 467.355844 -260.893523 
L 467.106577 -261.155341 
L 466.854095 -261.417159 
L 466.602088 -261.678977 
L 466.357593 -261.940795 
L 466.130099 -262.202614 
L 465.929238 -262.464432 
L 465.761965 -262.72625 
L 465.630382 -262.988068 
L 465.531018 -263.249886 
L 465.455689 -263.511705 
L 465.393313 -263.773523 
L 465.331739 -264.035341 
L 465.258728 -264.297159 
L 465.161693 -264.558977 
L 465.026386 -264.820795 
L 464.835229 -265.082614 
L 464.566357 -265.344432 
L 464.194402 -265.60625 
L 463.693641 -265.868068 
L 463.043249 -266.129886 
L 462.233314 -266.391705 
L 461.269596 -266.653523 
L 460.175121 -266.915341 
L 458.987705 -267.177159 
L 457.754056 -267.438977 
L 456.522425 -267.700795 
L 455.336327 -267.962614 
L 454.23134 -268.224432 
L 453.235696 -268.48625 
L 452.373795 -268.748068 
L 451.670467 -269.009886 
L 451.153478 -269.271705 
L 450.852411 -269.533523 
L 450.79375 -269.795341 
L 450.993861 -270.057159 
L 451.452786 -270.318977 
L 452.151641 -270.580795 
L 453.054849 -270.842614 
L 454.11625 -271.104432 
L 455.286429 -271.36625 
L 456.51841 -271.628068 
L 457.770111 -271.889886 
L 459.004001 -272.151705 
L 460.185851 -272.413523 
L 461.284601 -272.675341 
L 462.27417 -272.937159 
L 463.136446 -273.198977 
L 463.863686 -273.460795 
L 464.458815 -273.722614 
L 464.933198 -273.984432 
L 465.302777 -274.24625 
L 465.584108 -274.508068 
L 465.791718 -274.769886 
L 465.937431 -275.031705 
L 466.031444 -275.293523 
L 466.084292 -275.555341 
L 466.108593 -275.817159 
L 466.119679 -276.078977 
L 466.134644 -276.340795 
L 466.170019 -276.602614 
L 466.238797 -276.864432 
L 466.347885 -277.12625 
L 466.496931 -277.388068 
L 466.679017 -277.649886 
L 466.882989 -277.911705 
L 467.096598 -278.173523 
L 467.309386 -278.435341 
L 467.514436 -278.697159 
L 467.708673 -278.958977 
L 467.891956 -279.220795 
L 468.065617 -279.482614 
L 468.231085 -279.744432 
L 468.389019 -280.00625 
L 468.538997 -280.268068 
L 468.679622 -280.529886 
L 468.808825 -280.791705 
L 468.924272 -281.053523 
L 469.023837 -281.315341 
L 469.106126 -281.577159 
L 469.17095 -281.838977 
L 469.21958 -282.100795 
L 469.254634 -282.362614 
L 469.279587 -282.624432 
L 469.298043 -282.88625 
L 469.489457 -282.88625 
L 469.489457 -282.88625 
L 469.507913 -282.624432 
L 469.532866 -282.362614 
L 469.56792 -282.100795 
L 469.61655 -281.838977 
L 469.681374 -281.577159 
L 469.763663 -281.315341 
L 469.863228 -281.053523 
L 469.978675 -280.791705 
L 470.107878 -280.529886 
L 470.248503 -280.268068 
L 470.398481 -280.00625 
L 470.556415 -279.744432 
L 470.721883 -279.482614 
L 470.895544 -279.220795 
L 471.078827 -278.958977 
L 471.273064 -278.697159 
L 471.478114 -278.435341 
L 471.690902 -278.173523 
L 471.904511 -277.911705 
L 472.108483 -277.649886 
L 472.290569 -277.388068 
L 472.439615 -277.12625 
L 472.548703 -276.864432 
L 472.617481 -276.602614 
L 472.652856 -276.340795 
L 472.667821 -276.078977 
L 472.678907 -275.817159 
L 472.703208 -275.555341 
L 472.756056 -275.293523 
L 472.850069 -275.031705 
L 472.995782 -274.769886 
L 473.203392 -274.508068 
L 473.484723 -274.24625 
L 473.854302 -273.984432 
L 474.328685 -273.722614 
L 474.923814 -273.460795 
L 475.651054 -273.198977 
L 476.51333 -272.937159 
L 477.502899 -272.675341 
L 478.601649 -272.413523 
L 479.783499 -272.151705 
L 481.017389 -271.889886 
L 482.26909 -271.628068 
L 483.501071 -271.36625 
L 484.67125 -271.104432 
L 485.732651 -270.842614 
L 486.635859 -270.580795 
L 487.334714 -270.318977 
L 487.793639 -270.057159 
L 487.99375 -269.795341 
L 487.935089 -269.533523 
L 487.634022 -269.271705 
L 487.117033 -269.009886 
L 486.413705 -268.748068 
L 485.551804 -268.48625 
L 484.55616 -268.224432 
L 483.451173 -267.962614 
L 482.265075 -267.700795 
L 481.033444 -267.438977 
L 479.799795 -267.177159 
L 478.612379 -266.915341 
L 477.517904 -266.653523 
L 476.554186 -266.391705 
L 475.744251 -266.129886 
L 475.093859 -265.868068 
L 474.593098 -265.60625 
L 474.221143 -265.344432 
L 473.952271 -265.082614 
L 473.761114 -264.820795 
L 473.625807 -264.558977 
L 473.528772 -264.297159 
L 473.455761 -264.035341 
L 473.394187 -263.773523 
L 473.331811 -263.511705 
L 473.256482 -263.249886 
L 473.157118 -262.988068 
L 473.025535 -262.72625 
L 472.858262 -262.464432 
L 472.657401 -262.202614 
L 472.429907 -261.940795 
L 472.185412 -261.678977 
L 471.933405 -261.417159 
L 471.680923 -261.155341 
L 471.431656 -260.893523 
L 471.186685 -260.631705 
L 470.946268 -260.369886 
L 470.711701 -260.108068 
L 470.486355 -259.84625 
L 470.275516 -259.584432 
L 470.085253 -259.322614 
L 469.920911 -259.060795 
L 469.785851 -258.798977 
L 469.680806 -258.537159 
L 469.603896 -258.275341 
L 469.551149 -258.013523 
L 469.517289 -257.751705 
L 469.496608 -257.489886 
L 469.483772 -257.228068 
L 469.474466 -256.96625 
z
" id="m2458601f24" style="stroke:#000000;stroke-opacity:0.3;"/>
    </defs>
    <g clip-path="url(#p4d0544093d)">
     <use style="fill:#bfbf00;fill-opacity:0.3;stroke:#000000;stroke-opacity:0.3;" x="0.0" xlink:href="#m2458601f24" y="465.868"/>
    </g>
   </g>
   <g id="PolyCollection_7">
    <defs>
     <path d="M 544.538606 -259.84625 
L 543.048894 -259.84625 
L 542.911866 -260.08625 
L 542.768991 -260.32625 
L 542.617541 -260.56625 
L 542.452172 -260.80625 
L 542.266203 -261.04625 
L 542.053745 -261.28625 
L 541.812122 -261.52625 
L 541.543852 -261.76625 
L 541.257486 -262.00625 
L 540.966941 -262.24625 
L 540.689375 -262.48625 
L 540.442159 -262.72625 
L 540.239729 -262.96625 
L 540.091166 -263.20625 
L 539.999029 -263.44625 
L 539.959568 -263.68625 
L 539.963986 -263.92625 
L 540.000091 -264.16625 
L 540.053703 -264.40625 
L 540.109347 -264.64625 
L 540.150191 -264.88625 
L 540.157552 -265.12625 
L 540.110515 -265.36625 
L 539.986229 -265.60625 
L 539.761164 -265.84625 
L 539.413291 -266.08625 
L 538.924768 -266.32625 
L 538.284529 -266.56625 
L 537.4902 -266.80625 
L 536.548981 -267.04625 
L 535.477496 -267.28625 
L 534.3009 -267.52625 
L 533.051644 -267.76625 
L 531.768181 -268.00625 
L 530.493553 -268.24625 
L 529.273519 -268.48625 
L 528.153818 -268.72625 
L 527.176475 -268.96625 
L 526.37563 -269.20625 
L 525.773964 -269.44625 
L 525.380943 -269.68625 
L 525.19375 -269.92625 
L 525.20079 -270.16625 
L 525.38662 -270.40625 
L 525.73644 -270.64625 
L 526.238386 -270.88625 
L 526.882715 -271.12625 
L 527.658382 -271.36625 
L 528.548643 -271.60625 
L 529.527862 -271.84625 
L 530.561217 -272.08625 
L 531.607853 -272.32625 
L 532.626654 -272.56625 
L 533.582844 -272.80625 
L 534.453358 -273.04625 
L 535.229448 -273.28625 
L 535.915977 -273.52625 
L 536.527854 -273.76625 
L 537.08481 -274.00625 
L 537.605957 -274.24625 
L 538.105395 -274.48625 
L 538.589642 -274.72625 
L 539.05715 -274.96625 
L 539.49966 -275.20625 
L 539.90489 -275.44625 
L 540.259884 -275.68625 
L 540.554324 -275.92625 
L 540.783164 -276.16625 
L 540.948091 -276.40625 
L 541.057505 -276.64625 
L 541.125056 -276.88625 
L 541.167076 -277.12625 
L 541.199564 -277.36625 
L 541.235503 -277.60625 
L 541.283182 -277.84625 
L 541.345878 -278.08625 
L 541.422825 -278.32625 
L 541.511006 -278.56625 
L 541.607078 -278.80625 
L 541.708821 -279.04625 
L 541.815719 -279.28625 
L 541.928663 -279.52625 
L 542.049078 -279.76625 
L 542.177914 -280.00625 
L 542.314898 -280.24625 
L 542.458285 -280.48625 
L 542.605071 -280.72625 
L 542.751524 -280.96625 
L 542.893769 -281.20625 
L 543.028269 -281.44625 
L 543.152115 -281.68625 
L 543.263152 -281.92625 
L 543.360035 -282.16625 
L 543.442247 -282.40625 
L 543.510121 -282.64625 
L 543.564797 -282.88625 
L 543.608085 -283.12625 
L 543.642206 -283.36625 
L 543.669453 -283.60625 
L 543.918047 -283.60625 
L 543.918047 -283.60625 
L 543.945294 -283.36625 
L 543.979415 -283.12625 
L 544.022703 -282.88625 
L 544.077379 -282.64625 
L 544.145253 -282.40625 
L 544.227465 -282.16625 
L 544.324348 -281.92625 
L 544.435385 -281.68625 
L 544.559231 -281.44625 
L 544.693731 -281.20625 
L 544.835976 -280.96625 
L 544.982429 -280.72625 
L 545.129215 -280.48625 
L 545.272602 -280.24625 
L 545.409586 -280.00625 
L 545.538422 -279.76625 
L 545.658837 -279.52625 
L 545.771781 -279.28625 
L 545.878679 -279.04625 
L 545.980422 -278.80625 
L 546.076494 -278.56625 
L 546.164675 -278.32625 
L 546.241622 -278.08625 
L 546.304318 -277.84625 
L 546.351997 -277.60625 
L 546.387936 -277.36625 
L 546.420424 -277.12625 
L 546.462444 -276.88625 
L 546.529995 -276.64625 
L 546.639409 -276.40625 
L 546.804336 -276.16625 
L 547.033176 -275.92625 
L 547.327616 -275.68625 
L 547.68261 -275.44625 
L 548.08784 -275.20625 
L 548.53035 -274.96625 
L 548.997858 -274.72625 
L 549.482105 -274.48625 
L 549.981543 -274.24625 
L 550.50269 -274.00625 
L 551.059646 -273.76625 
L 551.671523 -273.52625 
L 552.358052 -273.28625 
L 553.134142 -273.04625 
L 554.004656 -272.80625 
L 554.960846 -272.56625 
L 555.979647 -272.32625 
L 557.026283 -272.08625 
L 558.059638 -271.84625 
L 559.038857 -271.60625 
L 559.929118 -271.36625 
L 560.704785 -271.12625 
L 561.349114 -270.88625 
L 561.85106 -270.64625 
L 562.20088 -270.40625 
L 562.38671 -270.16625 
L 562.39375 -269.92625 
L 562.206557 -269.68625 
L 561.813536 -269.44625 
L 561.21187 -269.20625 
L 560.411025 -268.96625 
L 559.433682 -268.72625 
L 558.313981 -268.48625 
L 557.093947 -268.24625 
L 555.819319 -268.00625 
L 554.535856 -267.76625 
L 553.2866 -267.52625 
L 552.110004 -267.28625 
L 551.038519 -267.04625 
L 550.0973 -266.80625 
L 549.302971 -266.56625 
L 548.662732 -266.32625 
L 548.174209 -266.08625 
L 547.826336 -265.84625 
L 547.601271 -265.60625 
L 547.476985 -265.36625 
L 547.429948 -265.12625 
L 547.437309 -264.88625 
L 547.478153 -264.64625 
L 547.533797 -264.40625 
L 547.587409 -264.16625 
L 547.623514 -263.92625 
L 547.627932 -263.68625 
L 547.588471 -263.44625 
L 547.496334 -263.20625 
L 547.347771 -262.96625 
L 547.145341 -262.72625 
L 546.898125 -262.48625 
L 546.620559 -262.24625 
L 546.330014 -262.00625 
L 546.043648 -261.76625 
L 545.775378 -261.52625 
L 545.533755 -261.28625 
L 545.321297 -261.04625 
L 545.135328 -260.80625 
L 544.969959 -260.56625 
L 544.818509 -260.32625 
L 544.675634 -260.08625 
L 544.538606 -259.84625 
z
" id="m19e2557d3a" style="stroke:#000000;stroke-opacity:0.3;"/>
    </defs>
    <g clip-path="url(#p4d0544093d)">
     <use style="fill:#bfbf00;fill-opacity:0.3;stroke:#000000;stroke-opacity:0.3;" x="0.0" xlink:href="#m19e2557d3a" y="465.868"/>
    </g>
   </g>
   <g id="PolyCollection_8">
    <defs>
     <path d="M 630.484065 -131.68625 
L 605.903435 -131.68625 
L 604.861561 -133.155341 
L 603.871611 -134.624432 
L 602.956979 -136.093523 
L 602.140316 -137.562614 
L 601.442587 -139.031705 
L 600.882149 -140.500795 
L 600.473923 -141.969886 
L 600.228689 -143.438977 
L 600.152577 -144.908068 
L 600.246758 -146.377159 
L 600.507374 -147.84625 
L 600.925697 -149.315341 
L 601.488523 -150.784432 
L 602.178755 -152.253523 
L 602.976143 -153.722614 
L 603.85815 -155.191705 
L 604.800861 -156.660795 
L 605.779905 -158.129886 
L 606.771332 -159.598977 
L 607.752394 -161.068068 
L 608.702207 -162.537159 
L 609.602256 -164.00625 
L 610.436743 -165.475341 
L 611.192775 -166.944432 
L 611.860401 -168.413523 
L 612.432523 -169.882614 
L 612.904703 -171.351705 
L 613.274906 -172.820795 
L 613.543204 -174.289886 
L 613.711474 -175.758977 
L 613.783115 -177.228068 
L 613.762808 -178.697159 
L 613.65633 -180.16625 
L 613.470417 -181.635341 
L 613.212691 -183.104432 
L 612.891617 -184.573523 
L 612.516497 -186.042614 
L 612.097454 -187.511705 
L 611.645415 -188.980795 
L 611.172043 -190.449886 
L 610.689621 -191.918977 
L 610.210866 -193.388068 
L 609.748681 -194.857159 
L 609.315833 -196.32625 
L 608.924583 -197.795341 
L 608.586279 -199.264432 
L 608.310951 -200.733523 
L 608.106909 -202.202614 
L 607.980409 -203.671705 
L 607.935375 -205.140795 
L 607.973236 -206.609886 
L 608.092857 -208.078977 
L 608.290596 -209.548068 
L 608.560462 -211.017159 
L 608.894383 -212.48625 
L 609.282534 -213.955341 
L 609.713732 -215.424432 
L 610.17584 -216.893523 
L 610.65617 -218.362614 
L 611.141847 -219.831705 
L 611.620126 -221.300795 
L 612.078634 -222.769886 
L 612.505546 -224.238977 
L 612.88969 -225.708068 
L 613.220594 -227.177159 
L 613.488502 -228.64625 
L 613.684365 -230.115341 
L 613.799851 -231.584432 
L 613.827384 -233.053523 
L 613.760238 -234.522614 
L 613.592695 -235.991705 
L 613.320287 -237.460795 
L 612.940095 -238.929886 
L 612.451111 -240.398977 
L 611.854631 -241.868068 
L 611.154641 -243.337159 
L 610.358172 -244.80625 
L 609.475564 -246.275341 
L 608.520611 -247.744432 
L 607.510547 -249.213523 
L 606.465837 -250.682614 
L 605.409771 -252.151705 
L 604.367848 -253.620795 
L 603.366978 -255.089886 
L 602.434517 -256.558977 
L 601.5972 -258.028068 
L 600.88003 -259.497159 
L 600.305177 -260.96625 
L 599.89097 -262.435341 
L 599.651055 -263.904432 
L 599.59375 -265.373523 
L 599.721679 -266.842614 
L 600.031675 -268.311705 
L 600.514979 -269.780795 
L 601.15772 -271.249886 
L 601.941623 -272.718977 
L 602.844923 -274.188068 
L 603.843401 -275.657159 
L 604.911483 -277.12625 
L 631.476017 -277.12625 
L 631.476017 -277.12625 
L 632.544099 -275.657159 
L 633.542577 -274.188068 
L 634.445877 -272.718977 
L 635.22978 -271.249886 
L 635.872521 -269.780795 
L 636.355825 -268.311705 
L 636.665821 -266.842614 
L 636.79375 -265.373523 
L 636.736445 -263.904432 
L 636.49653 -262.435341 
L 636.082323 -260.96625 
L 635.50747 -259.497159 
L 634.7903 -258.028068 
L 633.952983 -256.558977 
L 633.020522 -255.089886 
L 632.019652 -253.620795 
L 630.977729 -252.151705 
L 629.921663 -250.682614 
L 628.876953 -249.213523 
L 627.866889 -247.744432 
L 626.911936 -246.275341 
L 626.029328 -244.80625 
L 625.232859 -243.337159 
L 624.532869 -241.868068 
L 623.936389 -240.398977 
L 623.447405 -238.929886 
L 623.067213 -237.460795 
L 622.794805 -235.991705 
L 622.627262 -234.522614 
L 622.560116 -233.053523 
L 622.587649 -231.584432 
L 622.703135 -230.115341 
L 622.898998 -228.64625 
L 623.166906 -227.177159 
L 623.49781 -225.708068 
L 623.881954 -224.238977 
L 624.308866 -222.769886 
L 624.767374 -221.300795 
L 625.245653 -219.831705 
L 625.73133 -218.362614 
L 626.21166 -216.893523 
L 626.673768 -215.424432 
L 627.104966 -213.955341 
L 627.493117 -212.48625 
L 627.827038 -211.017159 
L 628.096904 -209.548068 
L 628.294643 -208.078977 
L 628.414264 -206.609886 
L 628.452125 -205.140795 
L 628.407091 -203.671705 
L 628.280591 -202.202614 
L 628.076549 -200.733523 
L 627.801221 -199.264432 
L 627.462917 -197.795341 
L 627.071667 -196.32625 
L 626.638819 -194.857159 
L 626.176634 -193.388068 
L 625.697879 -191.918977 
L 625.215457 -190.449886 
L 624.742085 -188.980795 
L 624.290046 -187.511705 
L 623.871003 -186.042614 
L 623.495883 -184.573523 
L 623.174809 -183.104432 
L 622.917083 -181.635341 
L 622.73117 -180.16625 
L 622.624692 -178.697159 
L 622.604385 -177.228068 
L 622.676026 -175.758977 
L 622.844296 -174.289886 
L 623.112594 -172.820795 
L 623.482797 -171.351705 
L 623.954977 -169.882614 
L 624.527099 -168.413523 
L 625.194725 -166.944432 
L 625.950757 -165.475341 
L 626.785244 -164.00625 
L 627.685293 -162.537159 
L 628.635106 -161.068068 
L 629.616168 -159.598977 
L 630.607595 -158.129886 
L 631.586639 -156.660795 
L 632.52935 -155.191705 
L 633.411357 -153.722614 
L 634.208745 -152.253523 
L 634.898977 -150.784432 
L 635.461803 -149.315341 
L 635.880126 -147.84625 
L 636.140742 -146.377159 
L 636.234923 -144.908068 
L 636.158811 -143.438977 
L 635.913577 -141.969886 
L 635.505351 -140.500795 
L 634.944913 -139.031705 
L 634.247184 -137.562614 
L 633.430521 -136.093523 
L 632.515889 -134.624432 
L 631.525939 -133.155341 
L 630.484065 -131.68625 
z
" id="m6d4a187e98" style="stroke:#000000;stroke-opacity:0.3;"/>
    </defs>
    <g clip-path="url(#p4d0544093d)">
     <use style="fill:#bfbf00;fill-opacity:0.3;stroke:#000000;stroke-opacity:0.3;" x="0.0" xlink:href="#m6d4a187e98" y="465.868"/>
    </g>
   </g>
   <g id="LineCollection_1">
    <path clip-path="url(#p4d0544093d)" d="M 88.09375 130.42175 
L 106.69375 130.42175 
" style="fill:none;stroke:#ff0000;"/>
    <path clip-path="url(#p4d0544093d)" d="M 162.49375 195.22175 
L 181.09375 195.22175 
" style="fill:none;stroke:#ff0000;"/>
    <path clip-path="url(#p4d0544093d)" d="M 236.89375 195.94175 
L 255.49375 195.94175 
" style="fill:none;stroke:#ff0000;"/>
    <path clip-path="url(#p4d0544093d)" d="M 311.29375 195.94175 
L 329.89375 195.94175 
" style="fill:none;stroke:#ff0000;"/>
    <path clip-path="url(#p4d0544093d)" d="M 385.69375 195.94175 
L 404.29375 195.94175 
" style="fill:none;stroke:#ff0000;"/>
    <path clip-path="url(#p4d0544093d)" d="M 460.09375 195.94175 
L 478.69375 195.94175 
" style="fill:none;stroke:#ff0000;"/>
    <path clip-path="url(#p4d0544093d)" d="M 534.49375 195.94175 
L 553.09375 195.94175 
" style="fill:none;stroke:#ff0000;"/>
    <path clip-path="url(#p4d0544093d)" d="M 608.89375 260.74175 
L 627.49375 260.74175 
" style="fill:none;stroke:#ff0000;"/>
   </g>
   <g id="patch_3">
    <path d="M 692.59375 368.74175 
L 692.59375 23.14175 
" style="fill:none;stroke:#000000;stroke-linecap:square;stroke-linejoin:miter;"/>
   </g>
   <g id="patch_4">
    <path d="M 22.99375 23.14175 
L 692.59375 23.14175 
" style="fill:none;stroke:#000000;stroke-linecap:square;stroke-linejoin:miter;"/>
   </g>
   <g id="patch_5">
    <path d="M 22.99375 368.74175 
L 22.99375 23.14175 
" style="fill:none;stroke:#000000;stroke-linecap:square;stroke-linejoin:miter;"/>
   </g>
   <g id="patch_6">
    <path d="M 22.99375 368.74175 
L 692.59375 368.74175 
" style="fill:none;stroke:#000000;stroke-linecap:square;stroke-linejoin:miter;"/>
   </g>
   <g id="matplotlib.axis_1">
    <g id="xtick_1">
     <g id="line2d_1">
      <defs>
       <path d="M 0 0 
L 0 -4 
" id="mce01b28418" style="stroke:#000000;stroke-width:0.5;"/>
      </defs>
      <g>
       <use style="stroke:#000000;stroke-width:0.5;" x="97.39375" xlink:href="#mce01b28418" y="368.74175"/>
      </g>
     </g>
     <g id="line2d_2">
      <defs>
       <path d="M 0 0 
L 0 4 
" id="m520d1150f6" style="stroke:#000000;stroke-width:0.5;"/>
      </defs>
      <g>
       <use style="stroke:#000000;stroke-width:0.5;" x="97.39375" xlink:href="#m520d1150f6" y="23.14175"/>
      </g>
     </g>
     <g id="text_1">
      <!-- Defector -->
      <defs>
       <path d="M 30.609375 48.390625 
Q 23.390625 48.390625 19.1875 42.75 
Q 14.984375 37.109375 14.984375 27.296875 
Q 14.984375 17.484375 19.15625 11.84375 
Q 23.34375 6.203125 30.609375 6.203125 
Q 37.796875 6.203125 41.984375 11.859375 
Q 46.1875 17.53125 46.1875 27.296875 
Q 46.1875 37.015625 41.984375 42.703125 
Q 37.796875 48.390625 30.609375 48.390625 
M 30.609375 56 
Q 42.328125 56 49.015625 48.375 
Q 55.71875 40.765625 55.71875 27.296875 
Q 55.71875 13.875 49.015625 6.21875 
Q 42.328125 -1.421875 30.609375 -1.421875 
Q 18.84375 -1.421875 12.171875 6.21875 
Q 5.515625 13.875 5.515625 27.296875 
Q 5.515625 40.765625 12.171875 48.375 
Q 18.84375 56 30.609375 56 
" id="BitstreamVeraSans-Roman-6f"/>
       <path d="M 48.78125 52.59375 
L 48.78125 44.1875 
Q 44.96875 46.296875 41.140625 47.34375 
Q 37.3125 48.390625 33.40625 48.390625 
Q 24.65625 48.390625 19.8125 42.84375 
Q 14.984375 37.3125 14.984375 27.296875 
Q 14.984375 17.28125 19.8125 11.734375 
Q 24.65625 6.203125 33.40625 6.203125 
Q 37.3125 6.203125 41.140625 7.25 
Q 44.96875 8.296875 48.78125 10.40625 
L 48.78125 2.09375 
Q 45.015625 0.34375 40.984375 -0.53125 
Q 36.96875 -1.421875 32.421875 -1.421875 
Q 20.0625 -1.421875 12.78125 6.34375 
Q 5.515625 14.109375 5.515625 27.296875 
Q 5.515625 40.671875 12.859375 48.328125 
Q 20.21875 56 33.015625 56 
Q 37.15625 56 41.109375 55.140625 
Q 45.0625 54.296875 48.78125 52.59375 
" id="BitstreamVeraSans-Roman-63"/>
       <path d="M 18.3125 70.21875 
L 18.3125 54.6875 
L 36.8125 54.6875 
L 36.8125 47.703125 
L 18.3125 47.703125 
L 18.3125 18.015625 
Q 18.3125 11.328125 20.140625 9.421875 
Q 21.96875 7.515625 27.59375 7.515625 
L 36.8125 7.515625 
L 36.8125 0 
L 27.59375 0 
Q 17.1875 0 13.234375 3.875 
Q 9.28125 7.765625 9.28125 18.015625 
L 9.28125 47.703125 
L 2.6875 47.703125 
L 2.6875 54.6875 
L 9.28125 54.6875 
L 9.28125 70.21875 
z
" id="BitstreamVeraSans-Roman-74"/>
       <path d="M 41.109375 46.296875 
Q 39.59375 47.171875 37.8125 47.578125 
Q 36.03125 48 33.890625 48 
Q 26.265625 48 22.1875 43.046875 
Q 18.109375 38.09375 18.109375 28.8125 
L 18.109375 0 
L 9.078125 0 
L 9.078125 54.6875 
L 18.109375 54.6875 
L 18.109375 46.1875 
Q 20.953125 51.171875 25.484375 53.578125 
Q 30.03125 56 36.53125 56 
Q 37.453125 56 38.578125 55.875 
Q 39.703125 55.765625 41.0625 55.515625 
z
" id="BitstreamVeraSans-Roman-72"/>
       <path d="M 19.671875 64.796875 
L 19.671875 8.109375 
L 31.59375 8.109375 
Q 46.6875 8.109375 53.6875 14.9375 
Q 60.6875 21.78125 60.6875 36.53125 
Q 60.6875 51.171875 53.6875 57.984375 
Q 46.6875 64.796875 31.59375 64.796875 
z
M 9.8125 72.90625 
L 30.078125 72.90625 
Q 51.265625 72.90625 61.171875 64.09375 
Q 71.09375 55.28125 71.09375 36.53125 
Q 71.09375 17.671875 61.125 8.828125 
Q 51.171875 0 30.078125 0 
L 9.8125 0 
z
" id="BitstreamVeraSans-Roman-44"/>
       <path d="M 37.109375 75.984375 
L 37.109375 68.5 
L 28.515625 68.5 
Q 23.6875 68.5 21.796875 66.546875 
Q 19.921875 64.59375 19.921875 59.515625 
L 19.921875 54.6875 
L 34.71875 54.6875 
L 34.71875 47.703125 
L 19.921875 47.703125 
L 19.921875 0 
L 10.890625 0 
L 10.890625 47.703125 
L 2.296875 47.703125 
L 2.296875 54.6875 
L 10.890625 54.6875 
L 10.890625 58.5 
Q 10.890625 67.625 15.140625 71.796875 
Q 19.390625 75.984375 28.609375 75.984375 
z
" id="BitstreamVeraSans-Roman-66"/>
       <path d="M 56.203125 29.59375 
L 56.203125 25.203125 
L 14.890625 25.203125 
Q 15.484375 15.921875 20.484375 11.0625 
Q 25.484375 6.203125 34.421875 6.203125 
Q 39.59375 6.203125 44.453125 7.46875 
Q 49.3125 8.734375 54.109375 11.28125 
L 54.109375 2.78125 
Q 49.265625 0.734375 44.1875 -0.34375 
Q 39.109375 -1.421875 33.890625 -1.421875 
Q 20.796875 -1.421875 13.15625 6.1875 
Q 5.515625 13.8125 5.515625 26.8125 
Q 5.515625 40.234375 12.765625 48.109375 
Q 20.015625 56 32.328125 56 
Q 43.359375 56 49.78125 48.890625 
Q 56.203125 41.796875 56.203125 29.59375 
M 47.21875 32.234375 
Q 47.125 39.59375 43.09375 43.984375 
Q 39.0625 48.390625 32.421875 48.390625 
Q 24.90625 48.390625 20.390625 44.140625 
Q 15.875 39.890625 15.1875 32.171875 
z
" id="BitstreamVeraSans-Roman-65"/>
      </defs>
      <g transform="translate(99.60125 407.28175)rotate(-90.0)scale(0.08 -0.08)">
       <use xlink:href="#BitstreamVeraSans-Roman-44"/>
       <use x="77.001953125" xlink:href="#BitstreamVeraSans-Roman-65"/>
       <use x="138.525390625" xlink:href="#BitstreamVeraSans-Roman-66"/>
       <use x="173.73046875" xlink:href="#BitstreamVeraSans-Roman-65"/>
       <use x="235.25390625" xlink:href="#BitstreamVeraSans-Roman-63"/>
       <use x="290.234375" xlink:href="#BitstreamVeraSans-Roman-74"/>
       <use x="329.443359375" xlink:href="#BitstreamVeraSans-Roman-6f"/>
       <use x="390.625" xlink:href="#BitstreamVeraSans-Roman-72"/>
      </g>
     </g>
    </g>
    <g id="xtick_2">
     <g id="line2d_3">
      <g>
       <use style="stroke:#000000;stroke-width:0.5;" x="171.79375" xlink:href="#mce01b28418" y="368.74175"/>
      </g>
     </g>
     <g id="line2d_4">
      <g>
       <use style="stroke:#000000;stroke-width:0.5;" x="171.79375" xlink:href="#m520d1150f6" y="23.14175"/>
      </g>
     </g>
     <g id="text_2">
      <!-- Bully -->
      <defs>
       <path d="M 8.5 21.578125 
L 8.5 54.6875 
L 17.484375 54.6875 
L 17.484375 21.921875 
Q 17.484375 14.15625 20.5 10.265625 
Q 23.53125 6.390625 29.59375 6.390625 
Q 36.859375 6.390625 41.078125 11.03125 
Q 45.3125 15.671875 45.3125 23.6875 
L 45.3125 54.6875 
L 54.296875 54.6875 
L 54.296875 0 
L 45.3125 0 
L 45.3125 8.40625 
Q 42.046875 3.421875 37.71875 1 
Q 33.40625 -1.421875 27.6875 -1.421875 
Q 18.265625 -1.421875 13.375 4.4375 
Q 8.5 10.296875 8.5 21.578125 
" id="BitstreamVeraSans-Roman-75"/>
       <path d="M 9.421875 75.984375 
L 18.40625 75.984375 
L 18.40625 0 
L 9.421875 0 
z
" id="BitstreamVeraSans-Roman-6c"/>
       <path d="M 19.671875 34.8125 
L 19.671875 8.109375 
L 35.5 8.109375 
Q 43.453125 8.109375 47.28125 11.40625 
Q 51.125 14.703125 51.125 21.484375 
Q 51.125 28.328125 47.28125 31.5625 
Q 43.453125 34.8125 35.5 34.8125 
z
M 19.671875 64.796875 
L 19.671875 42.828125 
L 34.28125 42.828125 
Q 41.5 42.828125 45.03125 45.53125 
Q 48.578125 48.25 48.578125 53.8125 
Q 48.578125 59.328125 45.03125 62.0625 
Q 41.5 64.796875 34.28125 64.796875 
z
M 9.8125 72.90625 
L 35.015625 72.90625 
Q 46.296875 72.90625 52.390625 68.21875 
Q 58.5 63.53125 58.5 54.890625 
Q 58.5 48.1875 55.375 44.234375 
Q 52.25 40.28125 46.1875 39.3125 
Q 53.46875 37.75 57.5 32.78125 
Q 61.53125 27.828125 61.53125 20.40625 
Q 61.53125 10.640625 54.890625 5.3125 
Q 48.25 0 35.984375 0 
L 9.8125 0 
z
" id="BitstreamVeraSans-Roman-42"/>
       <path d="M 32.171875 -5.078125 
Q 28.375 -14.84375 24.75 -17.8125 
Q 21.140625 -20.796875 15.09375 -20.796875 
L 7.90625 -20.796875 
L 7.90625 -13.28125 
L 13.1875 -13.28125 
Q 16.890625 -13.28125 18.9375 -11.515625 
Q 21 -9.765625 23.484375 -3.21875 
L 25.09375 0.875 
L 2.984375 54.6875 
L 12.5 54.6875 
L 29.59375 11.921875 
L 46.6875 54.6875 
L 56.203125 54.6875 
z
" id="BitstreamVeraSans-Roman-79"/>
      </defs>
      <g transform="translate(174.00125 392.4805)rotate(-90.0)scale(0.08 -0.08)">
       <use xlink:href="#BitstreamVeraSans-Roman-42"/>
       <use x="68.603515625" xlink:href="#BitstreamVeraSans-Roman-75"/>
       <use x="131.982421875" xlink:href="#BitstreamVeraSans-Roman-6c"/>
       <use x="159.765625" xlink:href="#BitstreamVeraSans-Roman-6c"/>
       <use x="187.548828125" xlink:href="#BitstreamVeraSans-Roman-79"/>
      </g>
     </g>
    </g>
    <g id="xtick_3">
     <g id="line2d_5">
      <g>
       <use style="stroke:#000000;stroke-width:0.5;" x="246.19375" xlink:href="#mce01b28418" y="368.74175"/>
      </g>
     </g>
     <g id="line2d_6">
      <g>
       <use style="stroke:#000000;stroke-width:0.5;" x="246.19375" xlink:href="#m520d1150f6" y="23.14175"/>
      </g>
     </g>
     <g id="text_3">
      <!-- Anti Tit For Tat -->
      <defs>
       <path d="M 54.890625 33.015625 
L 54.890625 0 
L 45.90625 0 
L 45.90625 32.71875 
Q 45.90625 40.484375 42.875 44.328125 
Q 39.84375 48.1875 33.796875 48.1875 
Q 26.515625 48.1875 22.3125 43.546875 
Q 18.109375 38.921875 18.109375 30.90625 
L 18.109375 0 
L 9.078125 0 
L 9.078125 54.6875 
L 18.109375 54.6875 
L 18.109375 46.1875 
Q 21.34375 51.125 25.703125 53.5625 
Q 30.078125 56 35.796875 56 
Q 45.21875 56 50.046875 50.171875 
Q 54.890625 44.34375 54.890625 33.015625 
" id="BitstreamVeraSans-Roman-6e"/>
       <path d="M 34.28125 27.484375 
Q 23.390625 27.484375 19.1875 25 
Q 14.984375 22.515625 14.984375 16.5 
Q 14.984375 11.71875 18.140625 8.90625 
Q 21.296875 6.109375 26.703125 6.109375 
Q 34.1875 6.109375 38.703125 11.40625 
Q 43.21875 16.703125 43.21875 25.484375 
L 43.21875 27.484375 
z
M 52.203125 31.203125 
L 52.203125 0 
L 43.21875 0 
L 43.21875 8.296875 
Q 40.140625 3.328125 35.546875 0.953125 
Q 30.953125 -1.421875 24.3125 -1.421875 
Q 15.921875 -1.421875 10.953125 3.296875 
Q 6 8.015625 6 15.921875 
Q 6 25.140625 12.171875 29.828125 
Q 18.359375 34.515625 30.609375 34.515625 
L 43.21875 34.515625 
L 43.21875 35.40625 
Q 43.21875 41.609375 39.140625 45 
Q 35.0625 48.390625 27.6875 48.390625 
Q 23 48.390625 18.546875 47.265625 
Q 14.109375 46.140625 10.015625 43.890625 
L 10.015625 52.203125 
Q 14.9375 54.109375 19.578125 55.046875 
Q 24.21875 56 28.609375 56 
Q 40.484375 56 46.34375 49.84375 
Q 52.203125 43.703125 52.203125 31.203125 
" id="BitstreamVeraSans-Roman-61"/>
       <path d="M 34.1875 63.1875 
L 20.796875 26.90625 
L 47.609375 26.90625 
z
M 28.609375 72.90625 
L 39.796875 72.90625 
L 67.578125 0 
L 57.328125 0 
L 50.6875 18.703125 
L 17.828125 18.703125 
L 11.1875 0 
L 0.78125 0 
z
" id="BitstreamVeraSans-Roman-41"/>
       <path d="M -0.296875 72.90625 
L 61.375 72.90625 
L 61.375 64.59375 
L 35.5 64.59375 
L 35.5 0 
L 25.59375 0 
L 25.59375 64.59375 
L -0.296875 64.59375 
z
" id="BitstreamVeraSans-Roman-54"/>
       <path id="BitstreamVeraSans-Roman-20"/>
       <path d="M 9.8125 72.90625 
L 51.703125 72.90625 
L 51.703125 64.59375 
L 19.671875 64.59375 
L 19.671875 43.109375 
L 48.578125 43.109375 
L 48.578125 34.8125 
L 19.671875 34.8125 
L 19.671875 0 
L 9.8125 0 
z
" id="BitstreamVeraSans-Roman-46"/>
       <path d="M 9.421875 54.6875 
L 18.40625 54.6875 
L 18.40625 0 
L 9.421875 0 
z
M 9.421875 75.984375 
L 18.40625 75.984375 
L 18.40625 64.59375 
L 9.421875 64.59375 
z
" id="BitstreamVeraSans-Roman-69"/>
      </defs>
      <g transform="translate(248.40125 432.198)rotate(-90.0)scale(0.08 -0.08)">
       <use xlink:href="#BitstreamVeraSans-Roman-41"/>
       <use x="68.408203125" xlink:href="#BitstreamVeraSans-Roman-6e"/>
       <use x="131.787109375" xlink:href="#BitstreamVeraSans-Roman-74"/>
       <use x="170.99609375" xlink:href="#BitstreamVeraSans-Roman-69"/>
       <use x="198.779296875" xlink:href="#BitstreamVeraSans-Roman-20"/>
       <use x="230.56640625" xlink:href="#BitstreamVeraSans-Roman-54"/>
       <use x="291.603515625" xlink:href="#BitstreamVeraSans-Roman-69"/>
       <use x="319.38671875" xlink:href="#BitstreamVeraSans-Roman-74"/>
       <use x="358.595703125" xlink:href="#BitstreamVeraSans-Roman-20"/>
       <use x="390.3828125" xlink:href="#BitstreamVeraSans-Roman-46"/>
       <use x="447.85546875" xlink:href="#BitstreamVeraSans-Roman-6f"/>
       <use x="509.037109375" xlink:href="#BitstreamVeraSans-Roman-72"/>
       <use x="550.150390625" xlink:href="#BitstreamVeraSans-Roman-20"/>
       <use x="581.9375" xlink:href="#BitstreamVeraSans-Roman-54"/>
       <use x="642.771484375" xlink:href="#BitstreamVeraSans-Roman-61"/>
       <use x="704.05078125" xlink:href="#BitstreamVeraSans-Roman-74"/>
      </g>
     </g>
    </g>
    <g id="xtick_4">
     <g id="line2d_7">
      <g>
       <use style="stroke:#000000;stroke-width:0.5;" x="320.59375" xlink:href="#mce01b28418" y="368.74175"/>
      </g>
     </g>
     <g id="line2d_8">
      <g>
       <use style="stroke:#000000;stroke-width:0.5;" x="320.59375" xlink:href="#m520d1150f6" y="23.14175"/>
      </g>
     </g>
     <g id="text_4">
      <!-- Alternator -->
      <g transform="translate(322.80125 413.0755)rotate(-90.0)scale(0.08 -0.08)">
       <use xlink:href="#BitstreamVeraSans-Roman-41"/>
       <use x="68.408203125" xlink:href="#BitstreamVeraSans-Roman-6c"/>
       <use x="96.19140625" xlink:href="#BitstreamVeraSans-Roman-74"/>
       <use x="135.400390625" xlink:href="#BitstreamVeraSans-Roman-65"/>
       <use x="196.923828125" xlink:href="#BitstreamVeraSans-Roman-72"/>
       <use x="238.021484375" xlink:href="#BitstreamVeraSans-Roman-6e"/>
       <use x="301.400390625" xlink:href="#BitstreamVeraSans-Roman-61"/>
       <use x="362.6796875" xlink:href="#BitstreamVeraSans-Roman-74"/>
       <use x="401.888671875" xlink:href="#BitstreamVeraSans-Roman-6f"/>
       <use x="463.0703125" xlink:href="#BitstreamVeraSans-Roman-72"/>
      </g>
     </g>
    </g>
    <g id="xtick_5">
     <g id="line2d_9">
      <g>
       <use style="stroke:#000000;stroke-width:0.5;" x="394.99375" xlink:href="#mce01b28418" y="368.74175"/>
      </g>
     </g>
     <g id="line2d_10">
      <g>
       <use style="stroke:#000000;stroke-width:0.5;" x="394.99375" xlink:href="#m520d1150f6" y="23.14175"/>
      </g>
     </g>
     <g id="text_5">
      <!-- Win-Stay Lose-Shift -->
      <defs>
       <path d="M 3.328125 72.90625 
L 13.28125 72.90625 
L 28.609375 11.28125 
L 43.890625 72.90625 
L 54.984375 72.90625 
L 70.3125 11.28125 
L 85.59375 72.90625 
L 95.609375 72.90625 
L 77.296875 0 
L 64.890625 0 
L 49.515625 63.28125 
L 33.984375 0 
L 21.578125 0 
z
" id="BitstreamVeraSans-Roman-57"/>
       <path d="M 53.515625 70.515625 
L 53.515625 60.890625 
Q 47.90625 63.578125 42.921875 64.890625 
Q 37.9375 66.21875 33.296875 66.21875 
Q 25.25 66.21875 20.875 63.09375 
Q 16.5 59.96875 16.5 54.203125 
Q 16.5 49.359375 19.40625 46.890625 
Q 22.3125 44.4375 30.421875 42.921875 
L 36.375 41.703125 
Q 47.40625 39.59375 52.65625 34.296875 
Q 57.90625 29 57.90625 20.125 
Q 57.90625 9.515625 50.796875 4.046875 
Q 43.703125 -1.421875 29.984375 -1.421875 
Q 24.8125 -1.421875 18.96875 -0.25 
Q 13.140625 0.921875 6.890625 3.21875 
L 6.890625 13.375 
Q 12.890625 10.015625 18.65625 8.296875 
Q 24.421875 6.59375 29.984375 6.59375 
Q 38.421875 6.59375 43.015625 9.90625 
Q 47.609375 13.234375 47.609375 19.390625 
Q 47.609375 24.75 44.3125 27.78125 
Q 41.015625 30.8125 33.5 32.328125 
L 27.484375 33.5 
Q 16.453125 35.6875 11.515625 40.375 
Q 6.59375 45.0625 6.59375 53.421875 
Q 6.59375 63.09375 13.40625 68.65625 
Q 20.21875 74.21875 32.171875 74.21875 
Q 37.3125 74.21875 42.625 73.28125 
Q 47.953125 72.359375 53.515625 70.515625 
" id="BitstreamVeraSans-Roman-53"/>
       <path d="M 9.8125 72.90625 
L 19.671875 72.90625 
L 19.671875 8.296875 
L 55.171875 8.296875 
L 55.171875 0 
L 9.8125 0 
z
" id="BitstreamVeraSans-Roman-4c"/>
       <path d="M 54.890625 33.015625 
L 54.890625 0 
L 45.90625 0 
L 45.90625 32.71875 
Q 45.90625 40.484375 42.875 44.328125 
Q 39.84375 48.1875 33.796875 48.1875 
Q 26.515625 48.1875 22.3125 43.546875 
Q 18.109375 38.921875 18.109375 30.90625 
L 18.109375 0 
L 9.078125 0 
L 9.078125 75.984375 
L 18.109375 75.984375 
L 18.109375 46.1875 
Q 21.34375 51.125 25.703125 53.5625 
Q 30.078125 56 35.796875 56 
Q 45.21875 56 50.046875 50.171875 
Q 54.890625 44.34375 54.890625 33.015625 
" id="BitstreamVeraSans-Roman-68"/>
       <path d="M 44.28125 53.078125 
L 44.28125 44.578125 
Q 40.484375 46.53125 36.375 47.5 
Q 32.28125 48.484375 27.875 48.484375 
Q 21.1875 48.484375 17.84375 46.4375 
Q 14.5 44.390625 14.5 40.28125 
Q 14.5 37.15625 16.890625 35.375 
Q 19.28125 33.59375 26.515625 31.984375 
L 29.59375 31.296875 
Q 39.15625 29.25 43.1875 25.515625 
Q 47.21875 21.78125 47.21875 15.09375 
Q 47.21875 7.46875 41.1875 3.015625 
Q 35.15625 -1.421875 24.609375 -1.421875 
Q 20.21875 -1.421875 15.453125 -0.5625 
Q 10.6875 0.296875 5.421875 2 
L 5.421875 11.28125 
Q 10.40625 8.6875 15.234375 7.390625 
Q 20.0625 6.109375 24.8125 6.109375 
Q 31.15625 6.109375 34.5625 8.28125 
Q 37.984375 10.453125 37.984375 14.40625 
Q 37.984375 18.0625 35.515625 20.015625 
Q 33.0625 21.96875 24.703125 23.78125 
L 21.578125 24.515625 
Q 13.234375 26.265625 9.515625 29.90625 
Q 5.8125 33.546875 5.8125 39.890625 
Q 5.8125 47.609375 11.28125 51.796875 
Q 16.75 56 26.8125 56 
Q 31.78125 56 36.171875 55.265625 
Q 40.578125 54.546875 44.28125 53.078125 
" id="BitstreamVeraSans-Roman-73"/>
       <path d="M 4.890625 31.390625 
L 31.203125 31.390625 
L 31.203125 23.390625 
L 4.890625 23.390625 
z
" id="BitstreamVeraSans-Roman-2d"/>
      </defs>
      <g transform="translate(397.20125 450.873)rotate(-90.0)scale(0.08 -0.08)">
       <use xlink:href="#BitstreamVeraSans-Roman-57"/>
       <use x="98.845703125" xlink:href="#BitstreamVeraSans-Roman-69"/>
       <use x="126.62890625" xlink:href="#BitstreamVeraSans-Roman-6e"/>
       <use x="190.0078125" xlink:href="#BitstreamVeraSans-Roman-2d"/>
       <use x="226.091796875" xlink:href="#BitstreamVeraSans-Roman-53"/>
       <use x="289.568359375" xlink:href="#BitstreamVeraSans-Roman-74"/>
       <use x="328.77734375" xlink:href="#BitstreamVeraSans-Roman-61"/>
       <use x="390.056640625" xlink:href="#BitstreamVeraSans-Roman-79"/>
       <use x="449.236328125" xlink:href="#BitstreamVeraSans-Roman-20"/>
       <use x="481.0234375" xlink:href="#BitstreamVeraSans-Roman-4c"/>
       <use x="536.720703125" xlink:href="#BitstreamVeraSans-Roman-6f"/>
       <use x="597.90234375" xlink:href="#BitstreamVeraSans-Roman-73"/>
       <use x="650.001953125" xlink:href="#BitstreamVeraSans-Roman-65"/>
       <use x="711.525390625" xlink:href="#BitstreamVeraSans-Roman-2d"/>
       <use x="747.609375" xlink:href="#BitstreamVeraSans-Roman-53"/>
       <use x="811.0859375" xlink:href="#BitstreamVeraSans-Roman-68"/>
       <use x="874.46484375" xlink:href="#BitstreamVeraSans-Roman-69"/>
       <use x="902.248046875" xlink:href="#BitstreamVeraSans-Roman-66"/>
       <use x="937.4375" xlink:href="#BitstreamVeraSans-Roman-74"/>
      </g>
     </g>
    </g>
    <g id="xtick_6">
     <g id="line2d_11">
      <g>
       <use style="stroke:#000000;stroke-width:0.5;" x="469.39375" xlink:href="#mce01b28418" y="368.74175"/>
      </g>
     </g>
     <g id="line2d_12">
      <g>
       <use style="stroke:#000000;stroke-width:0.5;" x="469.39375" xlink:href="#m520d1150f6" y="23.14175"/>
      </g>
     </g>
     <g id="text_6">
      <!-- Tit For Tat -->
      <g transform="translate(471.60125 413.75425)rotate(-90.0)scale(0.08 -0.08)">
       <use xlink:href="#BitstreamVeraSans-Roman-54"/>
       <use x="61.037109375" xlink:href="#BitstreamVeraSans-Roman-69"/>
       <use x="88.8203125" xlink:href="#BitstreamVeraSans-Roman-74"/>
       <use x="128.029296875" xlink:href="#BitstreamVeraSans-Roman-20"/>
       <use x="159.81640625" xlink:href="#BitstreamVeraSans-Roman-46"/>
       <use x="217.2890625" xlink:href="#BitstreamVeraSans-Roman-6f"/>
       <use x="278.470703125" xlink:href="#BitstreamVeraSans-Roman-72"/>
       <use x="319.583984375" xlink:href="#BitstreamVeraSans-Roman-20"/>
       <use x="351.37109375" xlink:href="#BitstreamVeraSans-Roman-54"/>
       <use x="412.205078125" xlink:href="#BitstreamVeraSans-Roman-61"/>
       <use x="473.484375" xlink:href="#BitstreamVeraSans-Roman-74"/>
      </g>
     </g>
    </g>
    <g id="xtick_7">
     <g id="line2d_13">
      <g>
       <use style="stroke:#000000;stroke-width:0.5;" x="543.79375" xlink:href="#mce01b28418" y="368.74175"/>
      </g>
     </g>
     <g id="line2d_14">
      <g>
       <use style="stroke:#000000;stroke-width:0.5;" x="543.79375" xlink:href="#m520d1150f6" y="23.14175"/>
      </g>
     </g>
     <g id="text_7">
      <!-- Suspicious Tit For Tat -->
      <defs>
       <path d="M 18.109375 8.203125 
L 18.109375 -20.796875 
L 9.078125 -20.796875 
L 9.078125 54.6875 
L 18.109375 54.6875 
L 18.109375 46.390625 
Q 20.953125 51.265625 25.265625 53.625 
Q 29.59375 56 35.59375 56 
Q 45.5625 56 51.78125 48.09375 
Q 58.015625 40.1875 58.015625 27.296875 
Q 58.015625 14.40625 51.78125 6.484375 
Q 45.5625 -1.421875 35.59375 -1.421875 
Q 29.59375 -1.421875 25.265625 0.953125 
Q 20.953125 3.328125 18.109375 8.203125 
M 48.6875 27.296875 
Q 48.6875 37.203125 44.609375 42.84375 
Q 40.53125 48.484375 33.40625 48.484375 
Q 26.265625 48.484375 22.1875 42.84375 
Q 18.109375 37.203125 18.109375 27.296875 
Q 18.109375 17.390625 22.1875 11.75 
Q 26.265625 6.109375 33.40625 6.109375 
Q 40.53125 6.109375 44.609375 11.75 
Q 48.6875 17.390625 48.6875 27.296875 
" id="BitstreamVeraSans-Roman-70"/>
      </defs>
      <g transform="translate(546.00125 458.668)rotate(-90.0)scale(0.08 -0.08)">
       <use xlink:href="#BitstreamVeraSans-Roman-53"/>
       <use x="63.4765625" xlink:href="#BitstreamVeraSans-Roman-75"/>
       <use x="126.85546875" xlink:href="#BitstreamVeraSans-Roman-73"/>
       <use x="178.955078125" xlink:href="#BitstreamVeraSans-Roman-70"/>
       <use x="242.431640625" xlink:href="#BitstreamVeraSans-Roman-69"/>
       <use x="270.21484375" xlink:href="#BitstreamVeraSans-Roman-63"/>
       <use x="325.1953125" xlink:href="#BitstreamVeraSans-Roman-69"/>
       <use x="352.978515625" xlink:href="#BitstreamVeraSans-Roman-6f"/>
       <use x="414.16015625" xlink:href="#BitstreamVeraSans-Roman-75"/>
       <use x="477.5390625" xlink:href="#BitstreamVeraSans-Roman-73"/>
       <use x="529.638671875" xlink:href="#BitstreamVeraSans-Roman-20"/>
       <use x="561.42578125" xlink:href="#BitstreamVeraSans-Roman-54"/>
       <use x="622.462890625" xlink:href="#BitstreamVeraSans-Roman-69"/>
       <use x="650.24609375" xlink:href="#BitstreamVeraSans-Roman-74"/>
       <use x="689.455078125" xlink:href="#BitstreamVeraSans-Roman-20"/>
       <use x="721.2421875" xlink:href="#BitstreamVeraSans-Roman-46"/>
       <use x="778.71484375" xlink:href="#BitstreamVeraSans-Roman-6f"/>
       <use x="839.896484375" xlink:href="#BitstreamVeraSans-Roman-72"/>
       <use x="881.009765625" xlink:href="#BitstreamVeraSans-Roman-20"/>
       <use x="912.796875" xlink:href="#BitstreamVeraSans-Roman-54"/>
       <use x="973.630859375" xlink:href="#BitstreamVeraSans-Roman-61"/>
       <use x="1034.91015625" xlink:href="#BitstreamVeraSans-Roman-74"/>
      </g>
     </g>
    </g>
    <g id="xtick_8">
     <g id="line2d_15">
      <g>
       <use style="stroke:#000000;stroke-width:0.5;" x="618.19375" xlink:href="#mce01b28418" y="368.74175"/>
      </g>
     </g>
     <g id="line2d_16">
      <g>
       <use style="stroke:#000000;stroke-width:0.5;" x="618.19375" xlink:href="#m520d1150f6" y="23.14175"/>
      </g>
     </g>
     <g id="text_8">
      <!-- Cooperator -->
      <defs>
       <path d="M 64.40625 67.28125 
L 64.40625 56.890625 
Q 59.421875 61.53125 53.78125 63.8125 
Q 48.140625 66.109375 41.796875 66.109375 
Q 29.296875 66.109375 22.65625 58.46875 
Q 16.015625 50.828125 16.015625 36.375 
Q 16.015625 21.96875 22.65625 14.328125 
Q 29.296875 6.6875 41.796875 6.6875 
Q 48.140625 6.6875 53.78125 8.984375 
Q 59.421875 11.28125 64.40625 15.921875 
L 64.40625 5.609375 
Q 59.234375 2.09375 53.4375 0.328125 
Q 47.65625 -1.421875 41.21875 -1.421875 
Q 24.65625 -1.421875 15.125 8.703125 
Q 5.609375 18.84375 5.609375 36.375 
Q 5.609375 53.953125 15.125 64.078125 
Q 24.65625 74.21875 41.21875 74.21875 
Q 47.75 74.21875 53.53125 72.484375 
Q 59.328125 70.75 64.40625 67.28125 
" id="BitstreamVeraSans-Roman-43"/>
      </defs>
      <g transform="translate(620.40125 417.6305)rotate(-90.0)scale(0.08 -0.08)">
       <use xlink:href="#BitstreamVeraSans-Roman-43"/>
       <use x="69.82421875" xlink:href="#BitstreamVeraSans-Roman-6f"/>
       <use x="131.005859375" xlink:href="#BitstreamVeraSans-Roman-6f"/>
       <use x="192.1875" xlink:href="#BitstreamVeraSans-Roman-70"/>
       <use x="255.6640625" xlink:href="#BitstreamVeraSans-Roman-65"/>
       <use x="317.1875" xlink:href="#BitstreamVeraSans-Roman-72"/>
       <use x="358.30078125" xlink:href="#BitstreamVeraSans-Roman-61"/>
       <use x="419.580078125" xlink:href="#BitstreamVeraSans-Roman-74"/>
       <use x="458.7890625" xlink:href="#BitstreamVeraSans-Roman-6f"/>
       <use x="519.970703125" xlink:href="#BitstreamVeraSans-Roman-72"/>
      </g>
     </g>
    </g>
   </g>
   <g id="matplotlib.axis_2">
    <g id="ytick_1">
     <g id="line2d_17">
      <defs>
       <path d="M 0 0 
L 4 0 
" id="mfbb7737d36" style="stroke:#000000;stroke-width:0.5;"/>
      </defs>
      <g>
       <use style="stroke:#000000;stroke-width:0.5;" x="22.99375" xlink:href="#mfbb7737d36" y="368.74175"/>
      </g>
     </g>
     <g id="line2d_18">
      <defs>
       <path d="M 0 0 
L -4 0 
" id="m8efe185a59" style="stroke:#000000;stroke-width:0.5;"/>
      </defs>
      <g>
       <use style="stroke:#000000;stroke-width:0.5;" x="692.59375" xlink:href="#m8efe185a59" y="368.74175"/>
      </g>
     </g>
     <g id="text_9">
      <!-- 6 -->
      <defs>
       <path d="M 10.59375 35.5 
L 73.1875 35.5 
L 73.1875 27.203125 
L 10.59375 27.203125 
z
" id="BitstreamVeraSans-Roman-2212"/>
       <path d="M 33.015625 40.375 
Q 26.375 40.375 22.484375 35.828125 
Q 18.609375 31.296875 18.609375 23.390625 
Q 18.609375 15.53125 22.484375 10.953125 
Q 26.375 6.390625 33.015625 6.390625 
Q 39.65625 6.390625 43.53125 10.953125 
Q 47.40625 15.53125 47.40625 23.390625 
Q 47.40625 31.296875 43.53125 35.828125 
Q 39.65625 40.375 33.015625 40.375 
M 52.59375 71.296875 
L 52.59375 62.3125 
Q 48.875 64.0625 45.09375 64.984375 
Q 41.3125 65.921875 37.59375 65.921875 
Q 27.828125 65.921875 22.671875 59.328125 
Q 17.53125 52.734375 16.796875 39.40625 
Q 19.671875 43.65625 24.015625 45.921875 
Q 28.375 48.1875 33.59375 48.1875 
Q 44.578125 48.1875 50.953125 41.515625 
Q 57.328125 34.859375 57.328125 23.390625 
Q 57.328125 12.15625 50.6875 5.359375 
Q 44.046875 -1.421875 33.015625 -1.421875 
Q 20.359375 -1.421875 13.671875 8.265625 
Q 6.984375 17.96875 6.984375 36.375 
Q 6.984375 53.65625 15.1875 63.9375 
Q 23.390625 74.21875 37.203125 74.21875 
Q 40.921875 74.21875 44.703125 73.484375 
Q 48.484375 72.75 52.59375 71.296875 
" id="BitstreamVeraSans-Roman-36"/>
      </defs>
      <g transform="translate(7.2 370.94925)scale(0.08 -0.08)">
       <use xlink:href="#BitstreamVeraSans-Roman-2212"/>
       <use x="83.7890625" xlink:href="#BitstreamVeraSans-Roman-36"/>
      </g>
     </g>
    </g>
    <g id="ytick_2">
     <g id="line2d_19">
      <g>
       <use style="stroke:#000000;stroke-width:0.5;" x="22.99375" xlink:href="#mfbb7737d36" y="311.14175"/>
      </g>
     </g>
     <g id="line2d_20">
      <g>
       <use style="stroke:#000000;stroke-width:0.5;" x="692.59375" xlink:href="#m8efe185a59" y="311.14175"/>
      </g>
     </g>
     <g id="text_10">
      <!-- 4 -->
      <defs>
       <path d="M 37.796875 64.3125 
L 12.890625 25.390625 
L 37.796875 25.390625 
z
M 35.203125 72.90625 
L 47.609375 72.90625 
L 47.609375 25.390625 
L 58.015625 25.390625 
L 58.015625 17.1875 
L 47.609375 17.1875 
L 47.609375 0 
L 37.796875 0 
L 37.796875 17.1875 
L 4.890625 17.1875 
L 4.890625 26.703125 
z
" id="BitstreamVeraSans-Roman-34"/>
      </defs>
      <g transform="translate(7.2 313.34925)scale(0.08 -0.08)">
       <use xlink:href="#BitstreamVeraSans-Roman-2212"/>
       <use x="83.7890625" xlink:href="#BitstreamVeraSans-Roman-34"/>
      </g>
     </g>
    </g>
    <g id="ytick_3">
     <g id="line2d_21">
      <g>
       <use style="stroke:#000000;stroke-width:0.5;" x="22.99375" xlink:href="#mfbb7737d36" y="253.54175"/>
      </g>
     </g>
     <g id="line2d_22">
      <g>
       <use style="stroke:#000000;stroke-width:0.5;" x="692.59375" xlink:href="#m8efe185a59" y="253.54175"/>
      </g>
     </g>
     <g id="text_11">
      <!-- 2 -->
      <defs>
       <path d="M 19.1875 8.296875 
L 53.609375 8.296875 
L 53.609375 0 
L 7.328125 0 
L 7.328125 8.296875 
Q 12.9375 14.109375 22.625 23.890625 
Q 32.328125 33.6875 34.8125 36.53125 
Q 39.546875 41.84375 41.421875 45.53125 
Q 43.3125 49.21875 43.3125 52.78125 
Q 43.3125 58.59375 39.234375 62.25 
Q 35.15625 65.921875 28.609375 65.921875 
Q 23.96875 65.921875 18.8125 64.3125 
Q 13.671875 62.703125 7.8125 59.421875 
L 7.8125 69.390625 
Q 13.765625 71.78125 18.9375 73 
Q 24.125 74.21875 28.421875 74.21875 
Q 39.75 74.21875 46.484375 68.546875 
Q 53.21875 62.890625 53.21875 53.421875 
Q 53.21875 48.921875 51.53125 44.890625 
Q 49.859375 40.875 45.40625 35.40625 
Q 44.1875 33.984375 37.640625 27.21875 
Q 31.109375 20.453125 19.1875 8.296875 
" id="BitstreamVeraSans-Roman-32"/>
      </defs>
      <g transform="translate(7.2 255.74925)scale(0.08 -0.08)">
       <use xlink:href="#BitstreamVeraSans-Roman-2212"/>
       <use x="83.7890625" xlink:href="#BitstreamVeraSans-Roman-32"/>
      </g>
     </g>
    </g>
    <g id="ytick_4">
     <g id="line2d_23">
      <g>
       <use style="stroke:#000000;stroke-width:0.5;" x="22.99375" xlink:href="#mfbb7737d36" y="195.94175"/>
      </g>
     </g>
     <g id="line2d_24">
      <g>
       <use style="stroke:#000000;stroke-width:0.5;" x="692.59375" xlink:href="#m8efe185a59" y="195.94175"/>
      </g>
     </g>
     <g id="text_12">
      <!-- 0 -->
      <defs>
       <path d="M 31.78125 66.40625 
Q 24.171875 66.40625 20.328125 58.90625 
Q 16.5 51.421875 16.5 36.375 
Q 16.5 21.390625 20.328125 13.890625 
Q 24.171875 6.390625 31.78125 6.390625 
Q 39.453125 6.390625 43.28125 13.890625 
Q 47.125 21.390625 47.125 36.375 
Q 47.125 51.421875 43.28125 58.90625 
Q 39.453125 66.40625 31.78125 66.40625 
M 31.78125 74.21875 
Q 44.046875 74.21875 50.515625 64.515625 
Q 56.984375 54.828125 56.984375 36.375 
Q 56.984375 17.96875 50.515625 8.265625 
Q 44.046875 -1.421875 31.78125 -1.421875 
Q 19.53125 -1.421875 13.0625 8.265625 
Q 6.59375 17.96875 6.59375 36.375 
Q 6.59375 54.828125 13.0625 64.515625 
Q 19.53125 74.21875 31.78125 74.21875 
" id="BitstreamVeraSans-Roman-30"/>
      </defs>
      <g transform="translate(13.90375 198.14925)scale(0.08 -0.08)">
       <use xlink:href="#BitstreamVeraSans-Roman-30"/>
      </g>
     </g>
    </g>
    <g id="ytick_5">
     <g id="line2d_25">
      <g>
       <use style="stroke:#000000;stroke-width:0.5;" x="22.99375" xlink:href="#mfbb7737d36" y="138.34175"/>
      </g>
     </g>
     <g id="line2d_26">
      <g>
       <use style="stroke:#000000;stroke-width:0.5;" x="692.59375" xlink:href="#m8efe185a59" y="138.34175"/>
      </g>
     </g>
     <g id="text_13">
      <!-- 2 -->
      <g transform="translate(13.90375 140.54925)scale(0.08 -0.08)">
       <use xlink:href="#BitstreamVeraSans-Roman-32"/>
      </g>
     </g>
    </g>
    <g id="ytick_6">
     <g id="line2d_27">
      <g>
       <use style="stroke:#000000;stroke-width:0.5;" x="22.99375" xlink:href="#mfbb7737d36" y="80.74175"/>
      </g>
     </g>
     <g id="line2d_28">
      <g>
       <use style="stroke:#000000;stroke-width:0.5;" x="692.59375" xlink:href="#m8efe185a59" y="80.74175"/>
      </g>
     </g>
     <g id="text_14">
      <!-- 4 -->
      <g transform="translate(13.90375 82.94925)scale(0.08 -0.08)">
       <use xlink:href="#BitstreamVeraSans-Roman-34"/>
      </g>
     </g>
    </g>
    <g id="ytick_7">
     <g id="line2d_29">
      <g>
       <use style="stroke:#000000;stroke-width:0.5;" x="22.99375" xlink:href="#mfbb7737d36" y="23.14175"/>
      </g>
     </g>
     <g id="line2d_30">
      <g>
       <use style="stroke:#000000;stroke-width:0.5;" x="692.59375" xlink:href="#m8efe185a59" y="23.14175"/>
      </g>
     </g>
     <g id="text_15">
      <!-- 6 -->
      <g transform="translate(13.90375 25.34925)scale(0.08 -0.08)">
       <use xlink:href="#BitstreamVeraSans-Roman-36"/>
      </g>
     </g>
    </g>
   </g>
   <g id="text_16">
    <!-- Std Payoffs. Turns: 200, Repetitions: 100, Strategies: 8. -->
    <defs>
     <path d="M 11.71875 12.40625 
L 22.015625 12.40625 
L 22.015625 4 
L 14.015625 -11.625 
L 7.71875 -11.625 
L 11.71875 4 
z
" id="BitstreamVeraSans-Roman-2c"/>
     <path d="M 10.6875 12.40625 
L 21 12.40625 
L 21 0 
L 10.6875 0 
z
" id="BitstreamVeraSans-Roman-2e"/>
     <path d="M 11.71875 12.40625 
L 22.015625 12.40625 
L 22.015625 0 
L 11.71875 0 
z
M 11.71875 51.703125 
L 22.015625 51.703125 
L 22.015625 39.3125 
L 11.71875 39.3125 
z
" id="BitstreamVeraSans-Roman-3a"/>
     <path d="M 45.40625 46.390625 
L 45.40625 75.984375 
L 54.390625 75.984375 
L 54.390625 0 
L 45.40625 0 
L 45.40625 8.203125 
Q 42.578125 3.328125 38.25 0.953125 
Q 33.9375 -1.421875 27.875 -1.421875 
Q 17.96875 -1.421875 11.734375 6.484375 
Q 5.515625 14.40625 5.515625 27.296875 
Q 5.515625 40.1875 11.734375 48.09375 
Q 17.96875 56 27.875 56 
Q 33.9375 56 38.25 53.625 
Q 42.578125 51.265625 45.40625 46.390625 
M 14.796875 27.296875 
Q 14.796875 17.390625 18.875 11.75 
Q 22.953125 6.109375 30.078125 6.109375 
Q 37.203125 6.109375 41.296875 11.75 
Q 45.40625 17.390625 45.40625 27.296875 
Q 45.40625 37.203125 41.296875 42.84375 
Q 37.203125 48.484375 30.078125 48.484375 
Q 22.953125 48.484375 18.875 42.84375 
Q 14.796875 37.203125 14.796875 27.296875 
" id="BitstreamVeraSans-Roman-64"/>
     <path d="M 31.78125 34.625 
Q 24.75 34.625 20.71875 30.859375 
Q 16.703125 27.09375 16.703125 20.515625 
Q 16.703125 13.921875 20.71875 10.15625 
Q 24.75 6.390625 31.78125 6.390625 
Q 38.8125 6.390625 42.859375 10.171875 
Q 46.921875 13.96875 46.921875 20.515625 
Q 46.921875 27.09375 42.890625 30.859375 
Q 38.875 34.625 31.78125 34.625 
M 21.921875 38.8125 
Q 15.578125 40.375 12.03125 44.71875 
Q 8.5 49.078125 8.5 55.328125 
Q 8.5 64.0625 14.71875 69.140625 
Q 20.953125 74.21875 31.78125 74.21875 
Q 42.671875 74.21875 48.875 69.140625 
Q 55.078125 64.0625 55.078125 55.328125 
Q 55.078125 49.078125 51.53125 44.71875 
Q 48 40.375 41.703125 38.8125 
Q 48.828125 37.15625 52.796875 32.3125 
Q 56.78125 27.484375 56.78125 20.515625 
Q 56.78125 9.90625 50.3125 4.234375 
Q 43.84375 -1.421875 31.78125 -1.421875 
Q 19.734375 -1.421875 13.25 4.234375 
Q 6.78125 9.90625 6.78125 20.515625 
Q 6.78125 27.484375 10.78125 32.3125 
Q 14.796875 37.15625 21.921875 38.8125 
M 18.3125 54.390625 
Q 18.3125 48.734375 21.84375 45.5625 
Q 25.390625 42.390625 31.78125 42.390625 
Q 38.140625 42.390625 41.71875 45.5625 
Q 45.3125 48.734375 45.3125 54.390625 
Q 45.3125 60.0625 41.71875 63.234375 
Q 38.140625 66.40625 31.78125 66.40625 
Q 25.390625 66.40625 21.84375 63.234375 
Q 18.3125 60.0625 18.3125 54.390625 
" id="BitstreamVeraSans-Roman-38"/>
     <path d="M 12.40625 8.296875 
L 28.515625 8.296875 
L 28.515625 63.921875 
L 10.984375 60.40625 
L 10.984375 69.390625 
L 28.421875 72.90625 
L 38.28125 72.90625 
L 38.28125 8.296875 
L 54.390625 8.296875 
L 54.390625 0 
L 12.40625 0 
z
" id="BitstreamVeraSans-Roman-31"/>
     <path d="M 45.40625 27.984375 
Q 45.40625 37.75 41.375 43.109375 
Q 37.359375 48.484375 30.078125 48.484375 
Q 22.859375 48.484375 18.828125 43.109375 
Q 14.796875 37.75 14.796875 27.984375 
Q 14.796875 18.265625 18.828125 12.890625 
Q 22.859375 7.515625 30.078125 7.515625 
Q 37.359375 7.515625 41.375 12.890625 
Q 45.40625 18.265625 45.40625 27.984375 
M 54.390625 6.78125 
Q 54.390625 -7.171875 48.1875 -13.984375 
Q 42 -20.796875 29.203125 -20.796875 
Q 24.46875 -20.796875 20.265625 -20.09375 
Q 16.0625 -19.390625 12.109375 -17.921875 
L 12.109375 -9.1875 
Q 16.0625 -11.328125 19.921875 -12.34375 
Q 23.78125 -13.375 27.78125 -13.375 
Q 36.625 -13.375 41.015625 -8.765625 
Q 45.40625 -4.15625 45.40625 5.171875 
L 45.40625 9.625 
Q 42.625 4.78125 38.28125 2.390625 
Q 33.9375 0 27.875 0 
Q 17.828125 0 11.671875 7.65625 
Q 5.515625 15.328125 5.515625 27.984375 
Q 5.515625 40.671875 11.671875 48.328125 
Q 17.828125 56 27.875 56 
Q 33.9375 56 38.28125 53.609375 
Q 42.625 51.21875 45.40625 46.390625 
L 45.40625 54.6875 
L 54.390625 54.6875 
z
" id="BitstreamVeraSans-Roman-67"/>
     <path d="M 19.671875 64.796875 
L 19.671875 37.40625 
L 32.078125 37.40625 
Q 38.96875 37.40625 42.71875 40.96875 
Q 46.484375 44.53125 46.484375 51.125 
Q 46.484375 57.671875 42.71875 61.234375 
Q 38.96875 64.796875 32.078125 64.796875 
z
M 9.8125 72.90625 
L 32.078125 72.90625 
Q 44.34375 72.90625 50.609375 67.359375 
Q 56.890625 61.8125 56.890625 51.125 
Q 56.890625 40.328125 50.609375 34.8125 
Q 44.34375 29.296875 32.078125 29.296875 
L 19.671875 29.296875 
L 19.671875 0 
L 9.8125 0 
z
" id="BitstreamVeraSans-Roman-50"/>
     <path d="M 44.390625 34.1875 
Q 47.5625 33.109375 50.5625 29.59375 
Q 53.5625 26.078125 56.59375 19.921875 
L 66.609375 0 
L 56 0 
L 46.6875 18.703125 
Q 43.0625 26.03125 39.671875 28.421875 
Q 36.28125 30.8125 30.421875 30.8125 
L 19.671875 30.8125 
L 19.671875 0 
L 9.8125 0 
L 9.8125 72.90625 
L 32.078125 72.90625 
Q 44.578125 72.90625 50.734375 67.671875 
Q 56.890625 62.453125 56.890625 51.90625 
Q 56.890625 45.015625 53.6875 40.46875 
Q 50.484375 35.9375 44.390625 34.1875 
M 19.671875 64.796875 
L 19.671875 38.921875 
L 32.078125 38.921875 
Q 39.203125 38.921875 42.84375 42.21875 
Q 46.484375 45.515625 46.484375 51.90625 
Q 46.484375 58.296875 42.84375 61.546875 
Q 39.203125 64.796875 32.078125 64.796875 
z
" id="BitstreamVeraSans-Roman-52"/>
    </defs>
    <g transform="translate(157.297375 18.14175)scale(0.144 -0.144)">
     <use xlink:href="#BitstreamVeraSans-Roman-53"/>
     <use x="63.4765625" xlink:href="#BitstreamVeraSans-Roman-74"/>
     <use x="102.685546875" xlink:href="#BitstreamVeraSans-Roman-64"/>
     <use x="166.162109375" xlink:href="#BitstreamVeraSans-Roman-20"/>
     <use x="197.94921875" xlink:href="#BitstreamVeraSans-Roman-50"/>
     <use x="258.189453125" xlink:href="#BitstreamVeraSans-Roman-61"/>
     <use x="319.46875" xlink:href="#BitstreamVeraSans-Roman-79"/>
     <use x="378.6484375" xlink:href="#BitstreamVeraSans-Roman-6f"/>
     <use x="439.830078125" xlink:href="#BitstreamVeraSans-Roman-66"/>
     <use x="475.03515625" xlink:href="#BitstreamVeraSans-Roman-66"/>
     <use x="510.240234375" xlink:href="#BitstreamVeraSans-Roman-73"/>
     <use x="562.33984375" xlink:href="#BitstreamVeraSans-Roman-2e"/>
     <use x="594.126953125" xlink:href="#BitstreamVeraSans-Roman-20"/>
     <use x="625.9140625" xlink:href="#BitstreamVeraSans-Roman-54"/>
     <use x="686.763671875" xlink:href="#BitstreamVeraSans-Roman-75"/>
     <use x="750.142578125" xlink:href="#BitstreamVeraSans-Roman-72"/>
     <use x="791.240234375" xlink:href="#BitstreamVeraSans-Roman-6e"/>
     <use x="854.619140625" xlink:href="#BitstreamVeraSans-Roman-73"/>
     <use x="906.71875" xlink:href="#BitstreamVeraSans-Roman-3a"/>
     <use x="940.41015625" xlink:href="#BitstreamVeraSans-Roman-20"/>
     <use x="972.197265625" xlink:href="#BitstreamVeraSans-Roman-32"/>
     <use x="1035.8203125" xlink:href="#BitstreamVeraSans-Roman-30"/>
     <use x="1099.443359375" xlink:href="#BitstreamVeraSans-Roman-30"/>
     <use x="1163.06640625" xlink:href="#BitstreamVeraSans-Roman-2c"/>
     <use x="1194.853515625" xlink:href="#BitstreamVeraSans-Roman-20"/>
     <use x="1226.640625" xlink:href="#BitstreamVeraSans-Roman-52"/>
     <use x="1296.060546875" xlink:href="#BitstreamVeraSans-Roman-65"/>
     <use x="1357.583984375" xlink:href="#BitstreamVeraSans-Roman-70"/>
     <use x="1421.060546875" xlink:href="#BitstreamVeraSans-Roman-65"/>
     <use x="1482.583984375" xlink:href="#BitstreamVeraSans-Roman-74"/>
     <use x="1521.79296875" xlink:href="#BitstreamVeraSans-Roman-69"/>
     <use x="1549.576171875" xlink:href="#BitstreamVeraSans-Roman-74"/>
     <use x="1588.78515625" xlink:href="#BitstreamVeraSans-Roman-69"/>
     <use x="1616.568359375" xlink:href="#BitstreamVeraSans-Roman-6f"/>
     <use x="1677.75" xlink:href="#BitstreamVeraSans-Roman-6e"/>
     <use x="1741.12890625" xlink:href="#BitstreamVeraSans-Roman-73"/>
     <use x="1793.228515625" xlink:href="#BitstreamVeraSans-Roman-3a"/>
     <use x="1826.919921875" xlink:href="#BitstreamVeraSans-Roman-20"/>
     <use x="1858.70703125" xlink:href="#BitstreamVeraSans-Roman-31"/>
     <use x="1922.330078125" xlink:href="#BitstreamVeraSans-Roman-30"/>
     <use x="1985.953125" xlink:href="#BitstreamVeraSans-Roman-30"/>
     <use x="2049.576171875" xlink:href="#BitstreamVeraSans-Roman-2c"/>
     <use x="2081.36328125" xlink:href="#BitstreamVeraSans-Roman-20"/>
     <use x="2113.150390625" xlink:href="#BitstreamVeraSans-Roman-53"/>
     <use x="2176.626953125" xlink:href="#BitstreamVeraSans-Roman-74"/>
     <use x="2215.8359375" xlink:href="#BitstreamVeraSans-Roman-72"/>
     <use x="2256.94921875" xlink:href="#BitstreamVeraSans-Roman-61"/>
     <use x="2318.228515625" xlink:href="#BitstreamVeraSans-Roman-74"/>
     <use x="2357.4375" xlink:href="#BitstreamVeraSans-Roman-65"/>
     <use x="2418.9609375" xlink:href="#BitstreamVeraSans-Roman-67"/>
     <use x="2482.4375" xlink:href="#BitstreamVeraSans-Roman-69"/>
     <use x="2510.220703125" xlink:href="#BitstreamVeraSans-Roman-65"/>
     <use x="2571.744140625" xlink:href="#BitstreamVeraSans-Roman-73"/>
     <use x="2623.84375" xlink:href="#BitstreamVeraSans-Roman-3a"/>
     <use x="2657.53515625" xlink:href="#BitstreamVeraSans-Roman-20"/>
     <use x="2689.322265625" xlink:href="#BitstreamVeraSans-Roman-38"/>
     <use x="2752.9453125" xlink:href="#BitstreamVeraSans-Roman-2e"/>
    </g>
   </g>
  </g>
 </g>
 <defs>
  <clipPath id="p4d0544093d">
   <rect height="345.6" width="669.6" x="22.99375" y="23.14175"/>
  </clipPath>
 </defs>
</svg>
