<?xml version="1.0" encoding="utf-8" standalone="no"?>
<!DOCTYPE svg PUBLIC "-//W3C//DTD SVG 1.1//EN"
  "http://www.w3.org/Graphics/SVG/1.1/DTD/svg11.dtd">
<!-- Created with matplotlib (http://matplotlib.org/) -->
<svg height="465pt" version="1.1" viewBox="0 0 699 465" width="699pt" xmlns="http://www.w3.org/2000/svg" xmlns:xlink="http://www.w3.org/1999/xlink">
 <defs>
  <style type="text/css">
*{stroke-linecap:butt;stroke-linejoin:round;stroke-miterlimit:100000;}
  </style>
 </defs>
 <g id="figure_1">
  <g id="patch_1">
   <path d="M 0 465.868 
L 699.79375 465.868 
L 699.79375 0 
L 0 0 
z
" style="fill:#ffffff;"/>
  </g>
  <g id="axes_1">
   <g id="patch_2">
    <path d="M 22.99375 368.74175 
L 692.59375 368.74175 
L 692.59375 23.14175 
L 22.99375 23.14175 
z
" style="fill:#ffffff;"/>
   </g>
   <g id="PolyCollection_1">
    <defs>
     <path d="M 109.128875 -269.92625 
L 85.658625 -269.92625 
L 85.536903 -271.380795 
L 85.425079 -272.835341 
L 85.322488 -274.289886 
L 85.228367 -275.744432 
L 85.141863 -277.198977 
L 85.062039 -278.653523 
L 84.987887 -280.108068 
L 84.918342 -281.562614 
L 84.852294 -283.017159 
L 84.788598 -284.471705 
L 84.726096 -285.92625 
L 84.663625 -287.380795 
L 84.600039 -288.835341 
L 84.534216 -290.289886 
L 84.465083 -291.744432 
L 84.391621 -293.198977 
L 84.312889 -294.653523 
L 84.228028 -296.108068 
L 84.136281 -297.562614 
L 84.036998 -299.017159 
L 83.92965 -300.471705 
L 83.813836 -301.92625 
L 83.689288 -303.380795 
L 83.555878 -304.835341 
L 83.413617 -306.289886 
L 83.26266 -307.744432 
L 83.103303 -309.198977 
L 82.935979 -310.653523 
L 82.761252 -312.108068 
L 82.579812 -313.562614 
L 82.392465 -315.017159 
L 82.200122 -316.471705 
L 82.003786 -317.92625 
L 81.804539 -319.380795 
L 81.603529 -320.835341 
L 81.401949 -322.289886 
L 81.201024 -323.744432 
L 81.001995 -325.198977 
L 80.806098 -326.653523 
L 80.614546 -328.108068 
L 80.428517 -329.562614 
L 80.249132 -331.017159 
L 80.077442 -332.471705 
L 79.914413 -333.92625 
L 79.760909 -335.380795 
L 79.617687 -336.835341 
L 79.485379 -338.289886 
L 79.364488 -339.744432 
L 79.255382 -341.198977 
L 79.158287 -342.653523 
L 79.073287 -344.108068 
L 79.000322 -345.562614 
L 78.939194 -347.017159 
L 78.889566 -348.471705 
L 78.850977 -349.92625 
L 78.82284 -351.380795 
L 78.804464 -352.835341 
L 78.795058 -354.289886 
L 78.79375 -355.744432 
L 78.799599 -357.198977 
L 78.811614 -358.653523 
L 78.82877 -360.108068 
L 78.850029 -361.562614 
L 78.874351 -363.017159 
L 78.900722 -364.471705 
L 78.928162 -365.92625 
L 78.955752 -367.380795 
L 78.982642 -368.835341 
L 79.008072 -370.289886 
L 79.031383 -371.744432 
L 79.052031 -373.198977 
L 79.069598 -374.653523 
L 79.083799 -376.108068 
L 79.094491 -377.562614 
L 79.101673 -379.017159 
L 79.105495 -380.471705 
L 79.106251 -381.92625 
L 79.104381 -383.380795 
L 79.100466 -384.835341 
L 79.095218 -386.289886 
L 79.089476 -387.744432 
L 79.084189 -389.198977 
L 79.080411 -390.653523 
L 79.07928 -392.108068 
L 79.082006 -393.562614 
L 79.089854 -395.017159 
L 79.104128 -396.471705 
L 79.126149 -397.92625 
L 79.157242 -399.380795 
L 79.198712 -400.835341 
L 79.251831 -402.289886 
L 79.317819 -403.744432 
L 79.397824 -405.198977 
L 79.492912 -406.653523 
L 79.604047 -408.108068 
L 79.73208 -409.562614 
L 79.87774 -411.017159 
L 80.041617 -412.471705 
L 80.224163 -413.92625 
L 114.563337 -413.92625 
L 114.563337 -413.92625 
L 114.745883 -412.471705 
L 114.90976 -411.017159 
L 115.05542 -409.562614 
L 115.183453 -408.108068 
L 115.294588 -406.653523 
L 115.389676 -405.198977 
L 115.469681 -403.744432 
L 115.535669 -402.289886 
L 115.588788 -400.835341 
L 115.630258 -399.380795 
L 115.661351 -397.92625 
L 115.683372 -396.471705 
L 115.697646 -395.017159 
L 115.705494 -393.562614 
L 115.70822 -392.108068 
L 115.707089 -390.653523 
L 115.703311 -389.198977 
L 115.698024 -387.744432 
L 115.692282 -386.289886 
L 115.687034 -384.835341 
L 115.683119 -383.380795 
L 115.681249 -381.92625 
L 115.682005 -380.471705 
L 115.685827 -379.017159 
L 115.693009 -377.562614 
L 115.703701 -376.108068 
L 115.717902 -374.653523 
L 115.735469 -373.198977 
L 115.756117 -371.744432 
L 115.779428 -370.289886 
L 115.804858 -368.835341 
L 115.831748 -367.380795 
L 115.859338 -365.92625 
L 115.886778 -364.471705 
L 115.913149 -363.017159 
L 115.937471 -361.562614 
L 115.95873 -360.108068 
L 115.975886 -358.653523 
L 115.987901 -357.198977 
L 115.99375 -355.744432 
L 115.992442 -354.289886 
L 115.983036 -352.835341 
L 115.96466 -351.380795 
L 115.936523 -349.92625 
L 115.897934 -348.471705 
L 115.848306 -347.017159 
L 115.787178 -345.562614 
L 115.714213 -344.108068 
L 115.629213 -342.653523 
L 115.532118 -341.198977 
L 115.423012 -339.744432 
L 115.302121 -338.289886 
L 115.169813 -336.835341 
L 115.026591 -335.380795 
L 114.873087 -333.92625 
L 114.710058 -332.471705 
L 114.538368 -331.017159 
L 114.358983 -329.562614 
L 114.172954 -328.108068 
L 113.981402 -326.653523 
L 113.785505 -325.198977 
L 113.586476 -323.744432 
L 113.385551 -322.289886 
L 113.183971 -320.835341 
L 112.982961 -319.380795 
L 112.783714 -317.92625 
L 112.587378 -316.471705 
L 112.395035 -315.017159 
L 112.207688 -313.562614 
L 112.026248 -312.108068 
L 111.851521 -310.653523 
L 111.684197 -309.198977 
L 111.52484 -307.744432 
L 111.373883 -306.289886 
L 111.231622 -304.835341 
L 111.098212 -303.380795 
L 110.973664 -301.92625 
L 110.85785 -300.471705 
L 110.750502 -299.017159 
L 110.651219 -297.562614 
L 110.559472 -296.108068 
L 110.474611 -294.653523 
L 110.395879 -293.198977 
L 110.322417 -291.744432 
L 110.253284 -290.289886 
L 110.187461 -288.835341 
L 110.123875 -287.380795 
L 110.061404 -285.92625 
L 109.998902 -284.471705 
L 109.935206 -283.017159 
L 109.869158 -281.562614 
L 109.799613 -280.108068 
L 109.725461 -278.653523 
L 109.645637 -277.198977 
L 109.559133 -275.744432 
L 109.465012 -274.289886 
L 109.362421 -272.835341 
L 109.250597 -271.380795 
L 109.128875 -269.92625 
z
" id="ma2da79432a" style="stroke:#000000;stroke-opacity:0.3;"/>
    </defs>
    <g clip-path="url(#pd62589981f)">
     <use style="fill:#bfbf00;fill-opacity:0.3;stroke:#000000;stroke-opacity:0.3;" x="0.0" xlink:href="#ma2da79432a" y="465.868"/>
    </g>
   </g>
   <g id="PolyCollection_2">
    <defs>
     <path d="M 176.742777 -128.286906 
L 166.844723 -128.286906 
L 166.76693 -131.172152 
L 166.693994 -134.057398 
L 166.625143 -136.942643 
L 166.559459 -139.827889 
L 166.495888 -142.713135 
L 166.433246 -145.598381 
L 166.370235 -148.483627 
L 166.305453 -151.368873 
L 166.23741 -154.254119 
L 166.164552 -157.139365 
L 166.085274 -160.024611 
L 165.997946 -162.909857 
L 165.900938 -165.795102 
L 165.792638 -168.680348 
L 165.671485 -171.565594 
L 165.535986 -174.45084 
L 165.384749 -177.336086 
L 165.216501 -180.221332 
L 165.030118 -183.106578 
L 164.824642 -185.991824 
L 164.599305 -188.87707 
L 164.35355 -191.762316 
L 164.08704 -194.647561 
L 163.799682 -197.532807 
L 163.491628 -200.418053 
L 163.163291 -203.303299 
L 162.815343 -206.188545 
L 162.448718 -209.073791 
L 162.06461 -211.959037 
L 161.664465 -214.844283 
L 161.249968 -217.729529 
L 160.823034 -220.614775 
L 160.385784 -223.50002 
L 159.94053 -226.385266 
L 159.489745 -229.270512 
L 159.036038 -232.155758 
L 158.582127 -235.041004 
L 158.130804 -237.92625 
L 157.6849 -240.811496 
L 157.247256 -243.696742 
L 156.820684 -246.581988 
L 156.407932 -249.467234 
L 156.011649 -252.35248 
L 155.634352 -255.237725 
L 155.278395 -258.122971 
L 154.945933 -261.008217 
L 154.638901 -263.893463 
L 154.358983 -266.778709 
L 154.107594 -269.663955 
L 153.885861 -272.549201 
L 153.694609 -275.434447 
L 153.534349 -278.319693 
L 153.405277 -281.204939 
L 153.307269 -284.090184 
L 153.23989 -286.97543 
L 153.202395 -289.860676 
L 153.19375 -292.745922 
L 153.212642 -295.631168 
L 153.257505 -298.516414 
L 153.326542 -301.40166 
L 153.417754 -304.286906 
L 153.528972 -307.172152 
L 153.657888 -310.057398 
L 153.802092 -312.942643 
L 153.959108 -315.827889 
L 154.126434 -318.713135 
L 154.301574 -321.598381 
L 154.48208 -324.483627 
L 154.665588 -327.368873 
L 154.849852 -330.254119 
L 155.032775 -333.139365 
L 155.212443 -336.024611 
L 155.387149 -338.909857 
L 155.55542 -341.795102 
L 155.716032 -344.680348 
L 155.868031 -347.565594 
L 156.010739 -350.45084 
L 156.143768 -353.336086 
L 156.267012 -356.221332 
L 156.380653 -359.106578 
L 156.485148 -361.991824 
L 156.58122 -364.87707 
L 156.669837 -367.762316 
L 156.752198 -370.647561 
L 156.829702 -373.532807 
L 156.903925 -376.418053 
L 156.976585 -379.303299 
L 157.049514 -382.188545 
L 157.124619 -385.073791 
L 157.203851 -387.959037 
L 157.289164 -390.844283 
L 157.382483 -393.729529 
L 157.485666 -396.614775 
L 157.600473 -399.50002 
L 157.728534 -402.385266 
L 157.871318 -405.270512 
L 158.030113 -408.155758 
L 158.205995 -411.041004 
L 158.399819 -413.92625 
L 185.187681 -413.92625 
L 185.187681 -413.92625 
L 185.381505 -411.041004 
L 185.557387 -408.155758 
L 185.716182 -405.270512 
L 185.858966 -402.385266 
L 185.987027 -399.50002 
L 186.101834 -396.614775 
L 186.205017 -393.729529 
L 186.298336 -390.844283 
L 186.383649 -387.959037 
L 186.462881 -385.073791 
L 186.537986 -382.188545 
L 186.610915 -379.303299 
L 186.683575 -376.418053 
L 186.757798 -373.532807 
L 186.835302 -370.647561 
L 186.917663 -367.762316 
L 187.00628 -364.87707 
L 187.102352 -361.991824 
L 187.206847 -359.106578 
L 187.320488 -356.221332 
L 187.443732 -353.336086 
L 187.576761 -350.45084 
L 187.719469 -347.565594 
L 187.871468 -344.680348 
L 188.03208 -341.795102 
L 188.200351 -338.909857 
L 188.375057 -336.024611 
L 188.554725 -333.139365 
L 188.737648 -330.254119 
L 188.921912 -327.368873 
L 189.10542 -324.483627 
L 189.285926 -321.598381 
L 189.461066 -318.713135 
L 189.628392 -315.827889 
L 189.785408 -312.942643 
L 189.929612 -310.057398 
L 190.058528 -307.172152 
L 190.169746 -304.286906 
L 190.260958 -301.40166 
L 190.329995 -298.516414 
L 190.374858 -295.631168 
L 190.39375 -292.745922 
L 190.385105 -289.860676 
L 190.34761 -286.97543 
L 190.280231 -284.090184 
L 190.182223 -281.204939 
L 190.053151 -278.319693 
L 189.892891 -275.434447 
L 189.701639 -272.549201 
L 189.479906 -269.663955 
L 189.228517 -266.778709 
L 188.948599 -263.893463 
L 188.641567 -261.008217 
L 188.309105 -258.122971 
L 187.953148 -255.237725 
L 187.575851 -252.35248 
L 187.179568 -249.467234 
L 186.766816 -246.581988 
L 186.340244 -243.696742 
L 185.9026 -240.811496 
L 185.456696 -237.92625 
L 185.005373 -235.041004 
L 184.551462 -232.155758 
L 184.097755 -229.270512 
L 183.64697 -226.385266 
L 183.201716 -223.50002 
L 182.764466 -220.614775 
L 182.337532 -217.729529 
L 181.923035 -214.844283 
L 181.52289 -211.959037 
L 181.138782 -209.073791 
L 180.772157 -206.188545 
L 180.424209 -203.303299 
L 180.095872 -200.418053 
L 179.787818 -197.532807 
L 179.50046 -194.647561 
L 179.23395 -191.762316 
L 178.988195 -188.87707 
L 178.762858 -185.991824 
L 178.557382 -183.106578 
L 178.370999 -180.221332 
L 178.202751 -177.336086 
L 178.051514 -174.45084 
L 177.916015 -171.565594 
L 177.794862 -168.680348 
L 177.686562 -165.795102 
L 177.589554 -162.909857 
L 177.502226 -160.024611 
L 177.422948 -157.139365 
L 177.35009 -154.254119 
L 177.282047 -151.368873 
L 177.217265 -148.483627 
L 177.154254 -145.598381 
L 177.091612 -142.713135 
L 177.028041 -139.827889 
L 176.962357 -136.942643 
L 176.893506 -134.057398 
L 176.82057 -131.172152 
L 176.742777 -128.286906 
z
" id="m8c114c0a72" style="stroke:#000000;stroke-opacity:0.3;"/>
    </defs>
    <g clip-path="url(#pd62589981f)">
     <use style="fill:#bfbf00;fill-opacity:0.3;stroke:#000000;stroke-opacity:0.3;" x="0.0" xlink:href="#m8c114c0a72" y="465.868"/>
    </g>
   </g>
   <g id="PolyCollection_3">
    <defs>
     <path d="M 264.684105 -269.92625 
L 227.703395 -269.92625 
L 227.637994 -271.380795 
L 227.601397 -272.835341 
L 227.59375 -274.289886 
L 227.61506 -275.744432 
L 227.665198 -277.198977 
L 227.743896 -278.653523 
L 227.850754 -280.108068 
L 227.985238 -281.562614 
L 228.14669 -283.017159 
L 228.334327 -284.471705 
L 228.547248 -285.92625 
L 228.784443 -287.380795 
L 229.044801 -288.835341 
L 229.327112 -290.289886 
L 229.630082 -291.744432 
L 229.95234 -293.198977 
L 230.292445 -294.653523 
L 230.648899 -296.108068 
L 231.020156 -297.562614 
L 231.404631 -299.017159 
L 231.800711 -300.471705 
L 232.206765 -301.92625 
L 232.621154 -303.380795 
L 233.042238 -304.835341 
L 233.46839 -306.289886 
L 233.898 -307.744432 
L 234.329486 -309.198977 
L 234.761302 -310.653523 
L 235.191945 -312.108068 
L 235.619958 -313.562614 
L 236.043942 -315.017159 
L 236.462558 -316.471705 
L 236.874532 -317.92625 
L 237.278659 -319.380795 
L 237.673806 -320.835341 
L 238.058917 -322.289886 
L 238.43301 -323.744432 
L 238.795185 -325.198977 
L 239.14462 -326.653523 
L 239.480572 -328.108068 
L 239.802378 -329.562614 
L 240.109455 -331.017159 
L 240.401296 -332.471705 
L 240.677471 -333.92625 
L 240.937625 -335.380795 
L 241.181476 -336.835341 
L 241.408809 -338.289886 
L 241.619481 -339.744432 
L 241.81341 -341.198977 
L 241.99058 -342.653523 
L 242.151034 -344.108068 
L 242.294869 -345.562614 
L 242.422241 -347.017159 
L 242.533354 -348.471705 
L 242.628462 -349.92625 
L 242.707867 -351.380795 
L 242.771912 -352.835341 
L 242.820985 -354.289886 
L 242.855511 -355.744432 
L 242.875953 -357.198977 
L 242.882809 -358.653523 
L 242.876611 -360.108068 
L 242.857922 -361.562614 
L 242.827334 -363.017159 
L 242.785466 -364.471705 
L 242.732964 -365.92625 
L 242.6705 -367.380795 
L 242.598764 -368.835341 
L 242.51847 -370.289886 
L 242.43035 -371.744432 
L 242.335151 -373.198977 
L 242.233637 -374.653523 
L 242.126584 -376.108068 
L 242.014778 -377.562614 
L 241.899013 -379.017159 
L 241.780088 -380.471705 
L 241.658806 -381.92625 
L 241.53597 -383.380795 
L 241.412379 -384.835341 
L 241.288828 -386.289886 
L 241.166102 -387.744432 
L 241.044974 -389.198977 
L 240.926202 -390.653523 
L 240.810525 -392.108068 
L 240.698662 -393.562614 
L 240.591304 -395.017159 
L 240.489115 -396.471705 
L 240.392728 -397.92625 
L 240.302738 -399.380795 
L 240.219706 -400.835341 
L 240.14415 -402.289886 
L 240.076544 -403.744432 
L 240.017319 -405.198977 
L 239.966855 -406.653523 
L 239.925485 -408.108068 
L 239.893487 -409.562614 
L 239.87109 -411.017159 
L 239.858466 -412.471705 
L 239.855736 -413.92625 
L 252.531764 -413.92625 
L 252.531764 -413.92625 
L 252.529034 -412.471705 
L 252.51641 -411.017159 
L 252.494013 -409.562614 
L 252.462015 -408.108068 
L 252.420645 -406.653523 
L 252.370181 -405.198977 
L 252.310956 -403.744432 
L 252.24335 -402.289886 
L 252.167794 -400.835341 
L 252.084762 -399.380795 
L 251.994772 -397.92625 
L 251.898385 -396.471705 
L 251.796196 -395.017159 
L 251.688838 -393.562614 
L 251.576975 -392.108068 
L 251.461298 -390.653523 
L 251.342526 -389.198977 
L 251.221398 -387.744432 
L 251.098672 -386.289886 
L 250.975121 -384.835341 
L 250.85153 -383.380795 
L 250.728694 -381.92625 
L 250.607412 -380.471705 
L 250.488487 -379.017159 
L 250.372722 -377.562614 
L 250.260916 -376.108068 
L 250.153863 -374.653523 
L 250.052349 -373.198977 
L 249.95715 -371.744432 
L 249.86903 -370.289886 
L 249.788736 -368.835341 
L 249.717 -367.380795 
L 249.654536 -365.92625 
L 249.602034 -364.471705 
L 249.560166 -363.017159 
L 249.529578 -361.562614 
L 249.510889 -360.108068 
L 249.504691 -358.653523 
L 249.511547 -357.198977 
L 249.531989 -355.744432 
L 249.566515 -354.289886 
L 249.615588 -352.835341 
L 249.679633 -351.380795 
L 249.759038 -349.92625 
L 249.854146 -348.471705 
L 249.965259 -347.017159 
L 250.092631 -345.562614 
L 250.236466 -344.108068 
L 250.39692 -342.653523 
L 250.57409 -341.198977 
L 250.768019 -339.744432 
L 250.978691 -338.289886 
L 251.206024 -336.835341 
L 251.449875 -335.380795 
L 251.710029 -333.92625 
L 251.986204 -332.471705 
L 252.278045 -331.017159 
L 252.585122 -329.562614 
L 252.906928 -328.108068 
L 253.24288 -326.653523 
L 253.592315 -325.198977 
L 253.95449 -323.744432 
L 254.328583 -322.289886 
L 254.713694 -320.835341 
L 255.108841 -319.380795 
L 255.512968 -317.92625 
L 255.924942 -316.471705 
L 256.343558 -315.017159 
L 256.767542 -313.562614 
L 257.195555 -312.108068 
L 257.626198 -310.653523 
L 258.058014 -309.198977 
L 258.4895 -307.744432 
L 258.91911 -306.289886 
L 259.345262 -304.835341 
L 259.766346 -303.380795 
L 260.180735 -301.92625 
L 260.586789 -300.471705 
L 260.982869 -299.017159 
L 261.367344 -297.562614 
L 261.738601 -296.108068 
L 262.095055 -294.653523 
L 262.43516 -293.198977 
L 262.757418 -291.744432 
L 263.060388 -290.289886 
L 263.342699 -288.835341 
L 263.603057 -287.380795 
L 263.840252 -285.92625 
L 264.053173 -284.471705 
L 264.24081 -283.017159 
L 264.402262 -281.562614 
L 264.536746 -280.108068 
L 264.643604 -278.653523 
L 264.722302 -277.198977 
L 264.77244 -275.744432 
L 264.79375 -274.289886 
L 264.786103 -272.835341 
L 264.749506 -271.380795 
L 264.684105 -269.92625 
z
" id="m6eccb6d09c" style="stroke:#000000;stroke-opacity:0.3;"/>
    </defs>
    <g clip-path="url(#pd62589981f)">
     <use style="fill:#bfbf00;fill-opacity:0.3;stroke:#000000;stroke-opacity:0.3;" x="0.0" xlink:href="#m6eccb6d09c" y="465.868"/>
    </g>
   </g>
   <g id="PolyCollection_4">
    <defs>
     <path d="M 323.684824 -197.92625 
L 317.502676 -197.92625 
L 317.506071 -198.653523 
L 317.517947 -199.380795 
L 317.538163 -200.108068 
L 317.566499 -200.835341 
L 317.602662 -201.562614 
L 317.646287 -202.289886 
L 317.696941 -203.017159 
L 317.754127 -203.744432 
L 317.81729 -204.471705 
L 317.885821 -205.198977 
L 317.959067 -205.92625 
L 318.036331 -206.653523 
L 318.116884 -207.380795 
L 318.199969 -208.108068 
L 318.284809 -208.835341 
L 318.370611 -209.562614 
L 318.456575 -210.289886 
L 318.541898 -211.017159 
L 318.625781 -211.744432 
L 318.707429 -212.471705 
L 318.786064 -213.198977 
L 318.86092 -213.92625 
L 318.931251 -214.653523 
L 318.996332 -215.380795 
L 319.055463 -216.108068 
L 319.107966 -216.835341 
L 319.153191 -217.562614 
L 319.190513 -218.289886 
L 319.219335 -219.017159 
L 319.239083 -219.744432 
L 319.249212 -220.471705 
L 319.2492 -221.198977 
L 319.238549 -221.92625 
L 319.216786 -222.653523 
L 319.183458 -223.380795 
L 319.138137 -224.108068 
L 319.080413 -224.835341 
L 319.0099 -225.562614 
L 318.926231 -226.289886 
L 318.829061 -227.017159 
L 318.718065 -227.744432 
L 318.592942 -228.471705 
L 318.453414 -229.198977 
L 318.299228 -229.92625 
L 318.130155 -230.653523 
L 317.945997 -231.380795 
L 317.746586 -232.108068 
L 317.531788 -232.835341 
L 317.301505 -233.562614 
L 317.055676 -234.289886 
L 316.794286 -235.017159 
L 316.517364 -235.744432 
L 316.22499 -236.471705 
L 315.917295 -237.198977 
L 315.59447 -237.92625 
L 315.256766 -238.653523 
L 314.9045 -239.380795 
L 314.538058 -240.108068 
L 314.157901 -240.835341 
L 313.764566 -241.562614 
L 313.358671 -242.289886 
L 312.940924 -243.017159 
L 312.512116 -243.744432 
L 312.073135 -244.471705 
L 311.624964 -245.198977 
L 311.168682 -245.92625 
L 310.70547 -246.653523 
L 310.236611 -247.380795 
L 309.763487 -248.108068 
L 309.287586 -248.835341 
L 308.810493 -249.562614 
L 308.333892 -250.289886 
L 307.859561 -251.017159 
L 307.389367 -251.744432 
L 306.92526 -252.471705 
L 306.469262 -253.198977 
L 306.023459 -253.92625 
L 305.589993 -254.653523 
L 305.171041 -255.380795 
L 304.768808 -256.108068 
L 304.385504 -256.835341 
L 304.023334 -257.562614 
L 303.684469 -258.289886 
L 303.371037 -259.017159 
L 303.085092 -259.744432 
L 302.8286 -260.471705 
L 302.603411 -261.198977 
L 302.411242 -261.92625 
L 302.253655 -262.653523 
L 302.132033 -263.380795 
L 302.047564 -264.108068 
L 302.001222 -264.835341 
L 301.99375 -265.562614 
L 302.025648 -266.289886 
L 302.097159 -267.017159 
L 302.208265 -267.744432 
L 302.358677 -268.471705 
L 302.547836 -269.198977 
L 302.77491 -269.92625 
L 338.41259 -269.92625 
L 338.41259 -269.92625 
L 338.639664 -269.198977 
L 338.828823 -268.471705 
L 338.979235 -267.744432 
L 339.090341 -267.017159 
L 339.161852 -266.289886 
L 339.19375 -265.562614 
L 339.186278 -264.835341 
L 339.139936 -264.108068 
L 339.055467 -263.380795 
L 338.933845 -262.653523 
L 338.776258 -261.92625 
L 338.584089 -261.198977 
L 338.3589 -260.471705 
L 338.102408 -259.744432 
L 337.816463 -259.017159 
L 337.503031 -258.289886 
L 337.164166 -257.562614 
L 336.801996 -256.835341 
L 336.418692 -256.108068 
L 336.016459 -255.380795 
L 335.597507 -254.653523 
L 335.164041 -253.92625 
L 334.718238 -253.198977 
L 334.26224 -252.471705 
L 333.798133 -251.744432 
L 333.327939 -251.017159 
L 332.853608 -250.289886 
L 332.377007 -249.562614 
L 331.899914 -248.835341 
L 331.424013 -248.108068 
L 330.950889 -247.380795 
L 330.48203 -246.653523 
L 330.018818 -245.92625 
L 329.562536 -245.198977 
L 329.114365 -244.471705 
L 328.675384 -243.744432 
L 328.246576 -243.017159 
L 327.828829 -242.289886 
L 327.422934 -241.562614 
L 327.029599 -240.835341 
L 326.649442 -240.108068 
L 326.283 -239.380795 
L 325.930734 -238.653523 
L 325.59303 -237.92625 
L 325.270205 -237.198977 
L 324.96251 -236.471705 
L 324.670136 -235.744432 
L 324.393214 -235.017159 
L 324.131824 -234.289886 
L 323.885995 -233.562614 
L 323.655712 -232.835341 
L 323.440914 -232.108068 
L 323.241503 -231.380795 
L 323.057345 -230.653523 
L 322.888272 -229.92625 
L 322.734086 -229.198977 
L 322.594558 -228.471705 
L 322.469435 -227.744432 
L 322.358439 -227.017159 
L 322.261269 -226.289886 
L 322.1776 -225.562614 
L 322.107087 -224.835341 
L 322.049363 -224.108068 
L 322.004042 -223.380795 
L 321.970714 -222.653523 
L 321.948951 -221.92625 
L 321.9383 -221.198977 
L 321.938288 -220.471705 
L 321.948417 -219.744432 
L 321.968165 -219.017159 
L 321.996987 -218.289886 
L 322.034309 -217.562614 
L 322.079534 -216.835341 
L 322.132037 -216.108068 
L 322.191168 -215.380795 
L 322.256249 -214.653523 
L 322.32658 -213.92625 
L 322.401436 -213.198977 
L 322.480071 -212.471705 
L 322.561719 -211.744432 
L 322.645602 -211.017159 
L 322.730925 -210.289886 
L 322.816889 -209.562614 
L 322.902691 -208.835341 
L 322.987531 -208.108068 
L 323.070616 -207.380795 
L 323.151169 -206.653523 
L 323.228433 -205.92625 
L 323.301679 -205.198977 
L 323.37021 -204.471705 
L 323.433373 -203.744432 
L 323.490559 -203.017159 
L 323.541213 -202.289886 
L 323.584838 -201.562614 
L 323.621001 -200.835341 
L 323.649337 -200.108068 
L 323.669553 -199.380795 
L 323.681429 -198.653523 
L 323.684824 -197.92625 
z
" id="m12d8b09512" style="stroke:#000000;stroke-opacity:0.3;"/>
    </defs>
    <g clip-path="url(#pd62589981f)">
     <use style="fill:#bfbf00;fill-opacity:0.3;stroke:#000000;stroke-opacity:0.3;" x="0.0" xlink:href="#m12d8b09512" y="465.868"/>
    </g>
   </g>
   <g id="PolyCollection_5">
    <defs>
     <path d="M 406.102618 -125.92625 
L 383.884882 -125.92625 
L 383.829313 -128.786856 
L 383.794007 -131.647462 
L 383.777825 -134.508068 
L 383.779368 -137.368674 
L 383.796984 -140.22928 
L 383.828793 -143.089886 
L 383.8727 -145.950492 
L 383.926421 -148.811098 
L 383.987513 -151.671705 
L 384.053401 -154.532311 
L 384.12141 -157.392917 
L 384.188804 -160.253523 
L 384.252818 -163.114129 
L 384.310697 -165.974735 
L 384.359735 -168.835341 
L 384.397309 -171.695947 
L 384.420923 -174.556553 
L 384.428237 -177.417159 
L 384.417106 -180.277765 
L 384.38561 -183.138371 
L 384.332088 -185.998977 
L 384.255158 -188.859583 
L 384.153745 -191.720189 
L 384.027098 -194.580795 
L 383.874805 -197.441402 
L 383.696807 -200.302008 
L 383.493397 -203.162614 
L 383.265228 -206.02322 
L 383.013303 -208.883826 
L 382.738973 -211.744432 
L 382.443919 -214.605038 
L 382.130136 -217.465644 
L 381.799908 -220.32625 
L 381.455787 -223.186856 
L 381.10056 -226.047462 
L 380.737214 -228.908068 
L 380.368901 -231.768674 
L 379.998905 -234.62928 
L 379.630591 -237.489886 
L 379.267373 -240.350492 
L 378.912667 -243.211098 
L 378.569851 -246.071705 
L 378.242221 -248.932311 
L 377.932954 -251.792917 
L 377.645065 -254.653523 
L 377.381376 -257.514129 
L 377.144477 -260.374735 
L 376.936701 -263.235341 
L 376.760092 -266.095947 
L 376.61639 -268.956553 
L 376.507006 -271.817159 
L 376.433012 -274.677765 
L 376.395136 -277.538371 
L 376.39375 -280.398977 
L 376.428879 -283.259583 
L 376.500205 -286.120189 
L 376.607073 -288.980795 
L 376.748512 -291.841402 
L 376.923253 -294.702008 
L 377.129746 -297.562614 
L 377.366195 -300.42322 
L 377.630576 -303.283826 
L 377.920679 -306.144432 
L 378.23413 -309.005038 
L 378.568435 -311.865644 
L 378.921006 -314.72625 
L 379.289202 -317.586856 
L 379.670357 -320.447462 
L 380.061822 -323.308068 
L 380.460987 -326.168674 
L 380.865319 -329.02928 
L 381.272387 -331.889886 
L 381.679884 -334.750492 
L 382.085656 -337.611098 
L 382.487716 -340.471705 
L 382.884261 -343.332311 
L 383.273685 -346.192917 
L 383.65459 -349.053523 
L 384.025787 -351.914129 
L 384.386301 -354.774735 
L 384.73537 -357.635341 
L 385.072439 -360.495947 
L 385.397154 -363.356553 
L 385.709351 -366.217159 
L 386.009046 -369.077765 
L 386.296417 -371.938371 
L 386.571789 -374.798977 
L 386.83562 -377.659583 
L 387.088477 -380.520189 
L 387.331022 -383.380795 
L 387.563986 -386.241402 
L 387.788158 -389.102008 
L 388.004359 -391.962614 
L 388.213428 -394.82322 
L 388.416201 -397.683826 
L 388.613497 -400.544432 
L 388.806105 -403.405038 
L 388.994768 -406.265644 
L 389.180172 -409.12625 
L 400.807328 -409.12625 
L 400.807328 -409.12625 
L 400.992732 -406.265644 
L 401.181395 -403.405038 
L 401.374003 -400.544432 
L 401.571299 -397.683826 
L 401.774072 -394.82322 
L 401.983141 -391.962614 
L 402.199342 -389.102008 
L 402.423514 -386.241402 
L 402.656478 -383.380795 
L 402.899023 -380.520189 
L 403.15188 -377.659583 
L 403.415711 -374.798977 
L 403.691083 -371.938371 
L 403.978454 -369.077765 
L 404.278149 -366.217159 
L 404.590346 -363.356553 
L 404.915061 -360.495947 
L 405.25213 -357.635341 
L 405.601199 -354.774735 
L 405.961713 -351.914129 
L 406.33291 -349.053523 
L 406.713815 -346.192917 
L 407.103239 -343.332311 
L 407.499784 -340.471705 
L 407.901844 -337.611098 
L 408.307616 -334.750492 
L 408.715113 -331.889886 
L 409.122181 -329.02928 
L 409.526513 -326.168674 
L 409.925678 -323.308068 
L 410.317143 -320.447462 
L 410.698298 -317.586856 
L 411.066494 -314.72625 
L 411.419065 -311.865644 
L 411.75337 -309.005038 
L 412.066821 -306.144432 
L 412.356924 -303.283826 
L 412.621305 -300.42322 
L 412.857754 -297.562614 
L 413.064247 -294.702008 
L 413.238988 -291.841402 
L 413.380427 -288.980795 
L 413.487295 -286.120189 
L 413.558621 -283.259583 
L 413.59375 -280.398977 
L 413.592364 -277.538371 
L 413.554488 -274.677765 
L 413.480494 -271.817159 
L 413.37111 -268.956553 
L 413.227408 -266.095947 
L 413.050799 -263.235341 
L 412.843023 -260.374735 
L 412.606124 -257.514129 
L 412.342435 -254.653523 
L 412.054546 -251.792917 
L 411.745279 -248.932311 
L 411.417649 -246.071705 
L 411.074833 -243.211098 
L 410.720127 -240.350492 
L 410.356909 -237.489886 
L 409.988595 -234.62928 
L 409.618599 -231.768674 
L 409.250286 -228.908068 
L 408.88694 -226.047462 
L 408.531713 -223.186856 
L 408.187592 -220.32625 
L 407.857364 -217.465644 
L 407.543581 -214.605038 
L 407.248527 -211.744432 
L 406.974197 -208.883826 
L 406.722272 -206.02322 
L 406.494103 -203.162614 
L 406.290693 -200.302008 
L 406.112695 -197.441402 
L 405.960402 -194.580795 
L 405.833755 -191.720189 
L 405.732342 -188.859583 
L 405.655412 -185.998977 
L 405.60189 -183.138371 
L 405.570394 -180.277765 
L 405.559263 -177.417159 
L 405.566577 -174.556553 
L 405.590191 -171.695947 
L 405.627765 -168.835341 
L 405.676803 -165.974735 
L 405.734682 -163.114129 
L 405.798696 -160.253523 
L 405.86609 -157.392917 
L 405.934099 -154.532311 
L 405.999987 -151.671705 
L 406.061079 -148.811098 
L 406.1148 -145.950492 
L 406.158707 -143.089886 
L 406.190516 -140.22928 
L 406.208132 -137.368674 
L 406.209675 -134.508068 
L 406.193493 -131.647462 
L 406.158187 -128.786856 
L 406.102618 -125.92625 
z
" id="mdc5a848e56" style="stroke:#000000;stroke-opacity:0.3;"/>
    </defs>
    <g clip-path="url(#pd62589981f)">
     <use style="fill:#bfbf00;fill-opacity:0.3;stroke:#000000;stroke-opacity:0.3;" x="0.0" xlink:href="#mdc5a848e56" y="465.868"/>
    </g>
   </g>
   <g id="PolyCollection_6">
    <defs>
     <path d="M 476.113625 -189.92625 
L 462.673875 -189.92625 
L 462.513389 -190.734331 
L 462.358126 -191.542412 
L 462.208475 -192.350492 
L 462.0648 -193.158573 
L 461.927438 -193.966654 
L 461.796703 -194.774735 
L 461.672879 -195.582816 
L 461.55622 -196.390896 
L 461.446953 -197.198977 
L 461.345273 -198.007058 
L 461.251345 -198.815139 
L 461.165302 -199.62322 
L 461.087248 -200.431301 
L 461.017254 -201.239381 
L 460.955361 -202.047462 
L 460.901579 -202.855543 
L 460.855887 -203.663624 
L 460.818235 -204.471705 
L 460.788542 -205.279785 
L 460.766696 -206.087866 
L 460.752558 -206.895947 
L 460.745957 -207.704028 
L 460.746692 -208.512109 
L 460.754533 -209.320189 
L 460.769221 -210.12827 
L 460.790464 -210.936351 
L 460.81794 -211.744432 
L 460.851296 -212.552513 
L 460.890147 -213.360593 
L 460.934072 -214.168674 
L 460.982622 -214.976755 
L 461.035309 -215.784836 
L 461.091612 -216.592917 
L 461.150974 -217.400997 
L 461.212805 -218.209078 
L 461.276474 -219.017159 
L 461.341319 -219.82524 
L 461.406638 -220.633321 
L 461.471698 -221.441402 
L 461.535727 -222.249482 
L 461.597925 -223.057563 
L 461.657459 -223.865644 
L 461.713468 -224.673725 
L 461.765065 -225.481806 
L 461.811342 -226.289886 
L 461.851372 -227.097967 
L 461.884218 -227.906048 
L 461.908932 -228.714129 
L 461.924565 -229.52221 
L 461.930175 -230.33029 
L 461.92483 -231.138371 
L 461.907617 -231.946452 
L 461.877653 -232.754533 
L 461.83409 -233.562614 
L 461.776124 -234.370694 
L 461.703007 -235.178775 
L 461.614054 -235.986856 
L 461.508651 -236.794937 
L 461.386269 -237.603018 
L 461.246468 -238.411098 
L 461.08891 -239.219179 
L 460.913364 -240.02726 
L 460.719718 -240.835341 
L 460.507982 -241.643422 
L 460.278298 -242.451503 
L 460.030944 -243.259583 
L 459.766339 -244.067664 
L 459.485046 -244.875745 
L 459.187776 -245.683826 
L 458.875389 -246.491907 
L 458.548889 -247.299987 
L 458.20943 -248.108068 
L 457.858307 -248.916149 
L 457.496951 -249.72423 
L 457.126928 -250.532311 
L 456.749924 -251.340391 
L 456.367742 -252.148472 
L 455.982286 -252.956553 
L 455.595552 -253.764634 
L 455.209615 -254.572715 
L 454.826611 -255.380795 
L 454.448725 -256.188876 
L 454.07817 -256.996957 
L 453.717176 -257.805038 
L 453.367967 -258.613119 
L 453.032743 -259.421199 
L 452.713664 -260.22928 
L 452.412833 -261.037361 
L 452.132271 -261.845442 
L 451.873909 -262.653523 
L 451.639561 -263.461604 
L 451.430917 -264.269684 
L 451.249521 -265.077765 
L 451.096763 -265.885846 
L 450.973863 -266.693927 
L 450.881859 -267.502008 
L 450.821603 -268.310088 
L 450.79375 -269.118169 
L 450.798753 -269.92625 
L 487.988747 -269.92625 
L 487.988747 -269.92625 
L 487.99375 -269.118169 
L 487.965897 -268.310088 
L 487.905641 -267.502008 
L 487.813637 -266.693927 
L 487.690737 -265.885846 
L 487.537979 -265.077765 
L 487.356583 -264.269684 
L 487.147939 -263.461604 
L 486.913591 -262.653523 
L 486.655229 -261.845442 
L 486.374667 -261.037361 
L 486.073836 -260.22928 
L 485.754757 -259.421199 
L 485.419533 -258.613119 
L 485.070324 -257.805038 
L 484.70933 -256.996957 
L 484.338775 -256.188876 
L 483.960889 -255.380795 
L 483.577885 -254.572715 
L 483.191948 -253.764634 
L 482.805214 -252.956553 
L 482.419758 -252.148472 
L 482.037576 -251.340391 
L 481.660572 -250.532311 
L 481.290549 -249.72423 
L 480.929193 -248.916149 
L 480.57807 -248.108068 
L 480.238611 -247.299987 
L 479.912111 -246.491907 
L 479.599724 -245.683826 
L 479.302454 -244.875745 
L 479.021161 -244.067664 
L 478.756556 -243.259583 
L 478.509202 -242.451503 
L 478.279518 -241.643422 
L 478.067782 -240.835341 
L 477.874136 -240.02726 
L 477.69859 -239.219179 
L 477.541032 -238.411098 
L 477.401231 -237.603018 
L 477.278849 -236.794937 
L 477.173446 -235.986856 
L 477.084493 -235.178775 
L 477.011376 -234.370694 
L 476.95341 -233.562614 
L 476.909847 -232.754533 
L 476.879883 -231.946452 
L 476.86267 -231.138371 
L 476.857325 -230.33029 
L 476.862935 -229.52221 
L 476.878568 -228.714129 
L 476.903282 -227.906048 
L 476.936128 -227.097967 
L 476.976158 -226.289886 
L 477.022435 -225.481806 
L 477.074032 -224.673725 
L 477.130041 -223.865644 
L 477.189575 -223.057563 
L 477.251773 -222.249482 
L 477.315802 -221.441402 
L 477.380862 -220.633321 
L 477.446181 -219.82524 
L 477.511026 -219.017159 
L 477.574695 -218.209078 
L 477.636526 -217.400997 
L 477.695888 -216.592917 
L 477.752191 -215.784836 
L 477.804878 -214.976755 
L 477.853428 -214.168674 
L 477.897353 -213.360593 
L 477.936204 -212.552513 
L 477.96956 -211.744432 
L 477.997036 -210.936351 
L 478.018279 -210.12827 
L 478.032967 -209.320189 
L 478.040808 -208.512109 
L 478.041543 -207.704028 
L 478.034942 -206.895947 
L 478.020804 -206.087866 
L 477.998958 -205.279785 
L 477.969265 -204.471705 
L 477.931613 -203.663624 
L 477.885921 -202.855543 
L 477.832139 -202.047462 
L 477.770246 -201.239381 
L 477.700252 -200.431301 
L 477.622198 -199.62322 
L 477.536155 -198.815139 
L 477.442227 -198.007058 
L 477.340547 -197.198977 
L 477.23128 -196.390896 
L 477.114621 -195.582816 
L 476.990797 -194.774735 
L 476.860062 -193.966654 
L 476.7227 -193.158573 
L 476.579025 -192.350492 
L 476.429374 -191.542412 
L 476.274111 -190.734331 
L 476.113625 -189.92625 
z
" id="mfa017a5c13" style="stroke:#000000;stroke-opacity:0.3;"/>
    </defs>
    <g clip-path="url(#pd62589981f)">
     <use style="fill:#bfbf00;fill-opacity:0.3;stroke:#000000;stroke-opacity:0.3;" x="0.0" xlink:href="#mfa017a5c13" y="465.868"/>
    </g>
   </g>
   <g id="PolyCollection_7">
    <defs>
     <path d="M 549.870087 -125.92625 
L 537.717413 -125.92625 
L 537.654264 -128.108068 
L 537.603532 -130.289886 
L 537.564719 -132.471705 
L 537.537171 -134.653523 
L 537.520087 -136.835341 
L 537.512536 -139.017159 
L 537.513467 -141.198977 
L 537.521732 -143.380795 
L 537.536096 -145.562614 
L 537.555262 -147.744432 
L 537.577883 -149.92625 
L 537.602584 -152.108068 
L 537.627976 -154.289886 
L 537.652672 -156.471705 
L 537.6753 -158.653523 
L 537.694514 -160.835341 
L 537.709001 -163.017159 
L 537.717493 -165.198977 
L 537.718765 -167.380795 
L 537.711645 -169.562614 
L 537.695005 -171.744432 
L 537.667769 -173.92625 
L 537.628906 -176.108068 
L 537.577425 -178.289886 
L 537.51238 -180.471705 
L 537.432856 -182.653523 
L 537.337977 -184.835341 
L 537.226899 -187.017159 
L 537.098814 -189.198977 
L 536.952952 -191.380795 
L 536.788589 -193.562614 
L 536.605053 -195.744432 
L 536.401737 -197.92625 
L 536.178116 -200.108068 
L 535.933759 -202.289886 
L 535.668353 -204.471705 
L 535.381724 -206.653523 
L 535.073859 -208.835341 
L 534.744931 -211.017159 
L 534.395321 -213.198977 
L 534.025644 -215.380795 
L 533.636771 -217.562614 
L 533.229844 -219.744432 
L 532.806294 -221.92625 
L 532.367853 -224.108068 
L 531.916557 -226.289886 
L 531.45475 -228.471705 
L 530.985076 -230.653523 
L 530.510464 -232.835341 
L 530.034111 -235.017159 
L 529.559457 -237.198977 
L 529.090146 -239.380795 
L 528.62999 -241.562614 
L 528.182923 -243.744432 
L 527.752946 -245.92625 
L 527.344079 -248.108068 
L 526.960297 -250.289886 
L 526.605472 -252.471705 
L 526.283311 -254.653523 
L 525.997301 -256.835341 
L 525.750643 -259.017159 
L 525.546208 -261.198977 
L 525.386479 -263.380795 
L 525.273513 -265.562614 
L 525.208903 -267.744432 
L 525.19375 -269.92625 
L 525.228644 -272.108068 
L 525.313652 -274.289886 
L 525.44832 -276.471705 
L 525.631677 -278.653523 
L 525.862257 -280.835341 
L 526.138122 -283.017159 
L 526.456898 -285.198977 
L 526.815815 -287.380795 
L 527.211757 -289.562614 
L 527.641314 -291.744432 
L 528.100836 -293.92625 
L 528.586499 -296.108068 
L 529.094356 -298.289886 
L 529.620406 -300.471705 
L 530.160647 -302.653523 
L 530.711136 -304.835341 
L 531.268038 -307.017159 
L 531.827677 -309.198977 
L 532.386578 -311.380795 
L 532.941501 -313.562614 
L 533.489475 -315.744432 
L 534.027816 -317.92625 
L 534.554148 -320.108068 
L 535.066412 -322.289886 
L 535.562865 -324.471705 
L 536.042083 -326.653523 
L 536.502948 -328.835341 
L 536.944637 -331.017159 
L 537.366603 -333.198977 
L 537.768555 -335.380795 
L 538.150433 -337.562614 
L 538.512385 -339.744432 
L 538.854735 -341.92625 
L 548.732765 -341.92625 
L 548.732765 -341.92625 
L 549.075115 -339.744432 
L 549.437067 -337.562614 
L 549.818945 -335.380795 
L 550.220897 -333.198977 
L 550.642863 -331.017159 
L 551.084552 -328.835341 
L 551.545417 -326.653523 
L 552.024635 -324.471705 
L 552.521088 -322.289886 
L 553.033352 -320.108068 
L 553.559684 -317.92625 
L 554.098025 -315.744432 
L 554.645999 -313.562614 
L 555.200922 -311.380795 
L 555.759823 -309.198977 
L 556.319462 -307.017159 
L 556.876364 -304.835341 
L 557.426853 -302.653523 
L 557.967094 -300.471705 
L 558.493144 -298.289886 
L 559.001001 -296.108068 
L 559.486664 -293.92625 
L 559.946186 -291.744432 
L 560.375743 -289.562614 
L 560.771685 -287.380795 
L 561.130602 -285.198977 
L 561.449378 -283.017159 
L 561.725243 -280.835341 
L 561.955823 -278.653523 
L 562.13918 -276.471705 
L 562.273848 -274.289886 
L 562.358856 -272.108068 
L 562.39375 -269.92625 
L 562.378597 -267.744432 
L 562.313987 -265.562614 
L 562.201021 -263.380795 
L 562.041292 -261.198977 
L 561.836857 -259.017159 
L 561.590199 -256.835341 
L 561.304189 -254.653523 
L 560.982028 -252.471705 
L 560.627203 -250.289886 
L 560.243421 -248.108068 
L 559.834554 -245.92625 
L 559.404577 -243.744432 
L 558.95751 -241.562614 
L 558.497354 -239.380795 
L 558.028043 -237.198977 
L 557.553389 -235.017159 
L 557.077036 -232.835341 
L 556.602424 -230.653523 
L 556.13275 -228.471705 
L 555.670943 -226.289886 
L 555.219647 -224.108068 
L 554.781206 -221.92625 
L 554.357656 -219.744432 
L 553.950729 -217.562614 
L 553.561856 -215.380795 
L 553.192179 -213.198977 
L 552.842569 -211.017159 
L 552.513641 -208.835341 
L 552.205776 -206.653523 
L 551.919147 -204.471705 
L 551.653741 -202.289886 
L 551.409384 -200.108068 
L 551.185763 -197.92625 
L 550.982447 -195.744432 
L 550.798911 -193.562614 
L 550.634548 -191.380795 
L 550.488686 -189.198977 
L 550.360601 -187.017159 
L 550.249523 -184.835341 
L 550.154644 -182.653523 
L 550.07512 -180.471705 
L 550.010075 -178.289886 
L 549.958594 -176.108068 
L 549.919731 -173.92625 
L 549.892495 -171.744432 
L 549.875855 -169.562614 
L 549.868735 -167.380795 
L 549.870007 -165.198977 
L 549.878499 -163.017159 
L 549.892986 -160.835341 
L 549.9122 -158.653523 
L 549.934828 -156.471705 
L 549.959524 -154.289886 
L 549.984916 -152.108068 
L 550.009617 -149.92625 
L 550.032238 -147.744432 
L 550.051404 -145.562614 
L 550.065768 -143.380795 
L 550.074033 -141.198977 
L 550.074964 -139.017159 
L 550.067413 -136.835341 
L 550.050329 -134.653523 
L 550.022781 -132.471705 
L 549.983968 -130.289886 
L 549.933236 -128.108068 
L 549.870087 -125.92625 
z
" id="m6f3b8305a2" style="stroke:#000000;stroke-opacity:0.3;"/>
    </defs>
    <g clip-path="url(#pd62589981f)">
     <use style="fill:#bfbf00;fill-opacity:0.3;stroke:#000000;stroke-opacity:0.3;" x="0.0" xlink:href="#m6f3b8305a2" y="465.868"/>
    </g>
   </g>
   <g id="PolyCollection_8">
    <defs>
     <path d="M 634.397232 -125.92625 
L 601.990268 -125.92625 
L 601.930545 -127.380795 
L 601.889189 -128.835341 
L 601.866154 -130.289886 
L 601.861313 -131.744432 
L 601.874463 -133.198977 
L 601.905322 -134.653523 
L 601.953532 -136.108068 
L 602.018661 -137.562614 
L 602.100206 -139.017159 
L 602.197591 -140.471705 
L 602.310176 -141.92625 
L 602.437256 -143.380795 
L 602.578069 -144.835341 
L 602.731794 -146.289886 
L 602.89756 -147.744432 
L 603.074449 -149.198977 
L 603.261501 -150.653523 
L 603.457717 -152.108068 
L 603.662067 -153.562614 
L 603.873492 -155.017159 
L 604.090912 -156.471705 
L 604.313227 -157.92625 
L 604.539328 -159.380795 
L 604.768095 -160.835341 
L 604.998407 -162.289886 
L 605.229146 -163.744432 
L 605.459199 -165.198977 
L 605.687466 -166.653523 
L 605.912862 -168.108068 
L 606.134322 -169.562614 
L 606.350804 -171.017159 
L 606.561295 -172.471705 
L 606.764812 -173.92625 
L 606.960407 -175.380795 
L 607.147169 -176.835341 
L 607.324228 -178.289886 
L 607.490756 -179.744432 
L 607.645973 -181.198977 
L 607.789144 -182.653523 
L 607.919585 -184.108068 
L 608.036664 -185.562614 
L 608.139804 -187.017159 
L 608.22848 -188.471705 
L 608.302227 -189.92625 
L 608.360635 -191.380795 
L 608.403355 -192.835341 
L 608.430097 -194.289886 
L 608.440634 -195.744432 
L 608.434797 -197.198977 
L 608.412484 -198.653523 
L 608.373653 -200.108068 
L 608.318327 -201.562614 
L 608.246593 -203.017159 
L 608.1586 -204.471705 
L 608.054564 -205.92625 
L 607.934765 -207.380795 
L 607.799545 -208.835341 
L 607.649311 -210.289886 
L 607.484534 -211.744432 
L 607.305746 -213.198977 
L 607.113542 -214.653523 
L 606.908576 -216.108068 
L 606.691561 -217.562614 
L 606.46327 -219.017159 
L 606.22453 -220.471705 
L 605.976221 -221.92625 
L 605.719274 -223.380795 
L 605.45467 -224.835341 
L 605.183434 -226.289886 
L 604.906634 -227.744432 
L 604.625376 -229.198977 
L 604.340801 -230.653523 
L 604.05408 -232.108068 
L 603.766409 -233.562614 
L 603.479006 -235.017159 
L 603.193107 -236.471705 
L 602.909956 -237.92625 
L 602.630803 -239.380795 
L 602.356899 -240.835341 
L 602.089487 -242.289886 
L 601.829801 -243.744432 
L 601.579054 -245.198977 
L 601.338438 -246.653523 
L 601.109111 -248.108068 
L 600.892199 -249.562614 
L 600.688785 -251.017159 
L 600.499904 -252.471705 
L 600.326536 -253.92625 
L 600.169607 -255.380795 
L 600.029975 -256.835341 
L 599.908433 -258.289886 
L 599.805698 -259.744432 
L 599.722414 -261.198977 
L 599.659142 -262.653523 
L 599.61636 -264.108068 
L 599.594461 -265.562614 
L 599.59375 -267.017159 
L 599.614441 -268.471705 
L 599.656658 -269.92625 
L 636.730842 -269.92625 
L 636.730842 -269.92625 
L 636.773059 -268.471705 
L 636.79375 -267.017159 
L 636.793039 -265.562614 
L 636.77114 -264.108068 
L 636.728358 -262.653523 
L 636.665086 -261.198977 
L 636.581802 -259.744432 
L 636.479067 -258.289886 
L 636.357525 -256.835341 
L 636.217893 -255.380795 
L 636.060964 -253.92625 
L 635.887596 -252.471705 
L 635.698715 -251.017159 
L 635.495301 -249.562614 
L 635.278389 -248.108068 
L 635.049062 -246.653523 
L 634.808446 -245.198977 
L 634.557699 -243.744432 
L 634.298013 -242.289886 
L 634.030601 -240.835341 
L 633.756697 -239.380795 
L 633.477544 -237.92625 
L 633.194393 -236.471705 
L 632.908494 -235.017159 
L 632.621091 -233.562614 
L 632.33342 -232.108068 
L 632.046699 -230.653523 
L 631.762124 -229.198977 
L 631.480866 -227.744432 
L 631.204066 -226.289886 
L 630.93283 -224.835341 
L 630.668226 -223.380795 
L 630.411279 -221.92625 
L 630.16297 -220.471705 
L 629.92423 -219.017159 
L 629.695939 -217.562614 
L 629.478924 -216.108068 
L 629.273958 -214.653523 
L 629.081754 -213.198977 
L 628.902966 -211.744432 
L 628.738189 -210.289886 
L 628.587955 -208.835341 
L 628.452735 -207.380795 
L 628.332936 -205.92625 
L 628.2289 -204.471705 
L 628.140907 -203.017159 
L 628.069173 -201.562614 
L 628.013847 -200.108068 
L 627.975016 -198.653523 
L 627.952703 -197.198977 
L 627.946866 -195.744432 
L 627.957403 -194.289886 
L 627.984145 -192.835341 
L 628.026865 -191.380795 
L 628.085273 -189.92625 
L 628.15902 -188.471705 
L 628.247696 -187.017159 
L 628.350836 -185.562614 
L 628.467915 -184.108068 
L 628.598356 -182.653523 
L 628.741527 -181.198977 
L 628.896744 -179.744432 
L 629.063272 -178.289886 
L 629.240331 -176.835341 
L 629.427093 -175.380795 
L 629.622688 -173.92625 
L 629.826205 -172.471705 
L 630.036696 -171.017159 
L 630.253178 -169.562614 
L 630.474638 -168.108068 
L 630.700034 -166.653523 
L 630.928301 -165.198977 
L 631.158354 -163.744432 
L 631.389093 -162.289886 
L 631.619405 -160.835341 
L 631.848172 -159.380795 
L 632.074273 -157.92625 
L 632.296588 -156.471705 
L 632.514008 -155.017159 
L 632.725433 -153.562614 
L 632.929783 -152.108068 
L 633.125999 -150.653523 
L 633.313051 -149.198977 
L 633.48994 -147.744432 
L 633.655706 -146.289886 
L 633.809431 -144.835341 
L 633.950244 -143.380795 
L 634.077324 -141.92625 
L 634.189909 -140.471705 
L 634.287294 -139.017159 
L 634.368839 -137.562614 
L 634.433968 -136.108068 
L 634.482178 -134.653523 
L 634.513037 -133.198977 
L 634.526187 -131.744432 
L 634.521346 -130.289886 
L 634.498311 -128.835341 
L 634.456955 -127.380795 
L 634.397232 -125.92625 
z
" id="m6162131c97" style="stroke:#000000;stroke-opacity:0.3;"/>
    </defs>
    <g clip-path="url(#pd62589981f)">
     <use style="fill:#bfbf00;fill-opacity:0.3;stroke:#000000;stroke-opacity:0.3;" x="0.0" xlink:href="#m6162131c97" y="465.868"/>
    </g>
   </g>
   <g id="LineCollection_1">
    <path clip-path="url(#pd62589981f)" d="M 88.09375 122.850841 
L 106.69375 122.850841 
" style="fill:none;stroke:#ff0000;"/>
    <path clip-path="url(#pd62589981f)" d="M 162.49375 174.94175 
L 181.09375 174.94175 
" style="fill:none;stroke:#ff0000;"/>
    <path clip-path="url(#pd62589981f)" d="M 236.89375 193.824103 
L 255.49375 193.824103 
" style="fill:none;stroke:#ff0000;"/>
    <path clip-path="url(#pd62589981f)" d="M 311.29375 199.072185 
L 329.89375 199.072185 
" style="fill:none;stroke:#ff0000;"/>
    <path clip-path="url(#pd62589981f)" d="M 385.69375 195.94175 
L 404.29375 195.94175 
" style="fill:none;stroke:#ff0000;"/>
    <path clip-path="url(#pd62589981f)" d="M 460.09375 195.94175 
L 478.69375 195.94175 
" style="fill:none;stroke:#ff0000;"/>
    <path clip-path="url(#pd62589981f)" d="M 534.49375 195.94175 
L 553.09375 195.94175 
" style="fill:none;stroke:#ff0000;"/>
    <path clip-path="url(#pd62589981f)" d="M 608.89375 236.74175 
L 627.49375 236.74175 
" style="fill:none;stroke:#ff0000;"/>
   </g>
   <g id="patch_3">
    <path d="M 22.99375 368.74175 
L 692.59375 368.74175 
" style="fill:none;stroke:#000000;stroke-linecap:square;stroke-linejoin:miter;"/>
   </g>
   <g id="patch_4">
    <path d="M 692.59375 368.74175 
L 692.59375 23.14175 
" style="fill:none;stroke:#000000;stroke-linecap:square;stroke-linejoin:miter;"/>
   </g>
   <g id="patch_5">
    <path d="M 22.99375 368.74175 
L 22.99375 23.14175 
" style="fill:none;stroke:#000000;stroke-linecap:square;stroke-linejoin:miter;"/>
   </g>
   <g id="patch_6">
    <path d="M 22.99375 23.14175 
L 692.59375 23.14175 
" style="fill:none;stroke:#000000;stroke-linecap:square;stroke-linejoin:miter;"/>
   </g>
   <g id="matplotlib.axis_1">
    <g id="xtick_1">
     <g id="line2d_1">
      <defs>
       <path d="M 0 0 
L 0 -4 
" id="m0ba5e97466" style="stroke:#000000;stroke-width:0.5;"/>
      </defs>
      <g>
       <use style="stroke:#000000;stroke-width:0.5;" x="97.39375" xlink:href="#m0ba5e97466" y="368.74175"/>
      </g>
     </g>
     <g id="line2d_2">
      <defs>
       <path d="M 0 0 
L 0 4 
" id="m3052778e21" style="stroke:#000000;stroke-width:0.5;"/>
      </defs>
      <g>
       <use style="stroke:#000000;stroke-width:0.5;" x="97.39375" xlink:href="#m3052778e21" y="23.14175"/>
      </g>
     </g>
     <g id="text_1">
      <!-- Defector -->
      <defs>
       <path d="M 19.671875 64.796875 
L 19.671875 8.109375 
L 31.59375 8.109375 
Q 46.6875 8.109375 53.6875 14.9375 
Q 60.6875 21.78125 60.6875 36.53125 
Q 60.6875 51.171875 53.6875 57.984375 
Q 46.6875 64.796875 31.59375 64.796875 
z
M 9.8125 72.90625 
L 30.078125 72.90625 
Q 51.265625 72.90625 61.171875 64.09375 
Q 71.09375 55.28125 71.09375 36.53125 
Q 71.09375 17.671875 61.125 8.828125 
Q 51.171875 0 30.078125 0 
L 9.8125 0 
z
" id="BitstreamVeraSans-Roman-44"/>
       <path d="M 18.3125 70.21875 
L 18.3125 54.6875 
L 36.8125 54.6875 
L 36.8125 47.703125 
L 18.3125 47.703125 
L 18.3125 18.015625 
Q 18.3125 11.328125 20.140625 9.421875 
Q 21.96875 7.515625 27.59375 7.515625 
L 36.8125 7.515625 
L 36.8125 0 
L 27.59375 0 
Q 17.1875 0 13.234375 3.875 
Q 9.28125 7.765625 9.28125 18.015625 
L 9.28125 47.703125 
L 2.6875 47.703125 
L 2.6875 54.6875 
L 9.28125 54.6875 
L 9.28125 70.21875 
z
" id="BitstreamVeraSans-Roman-74"/>
       <path d="M 30.609375 48.390625 
Q 23.390625 48.390625 19.1875 42.75 
Q 14.984375 37.109375 14.984375 27.296875 
Q 14.984375 17.484375 19.15625 11.84375 
Q 23.34375 6.203125 30.609375 6.203125 
Q 37.796875 6.203125 41.984375 11.859375 
Q 46.1875 17.53125 46.1875 27.296875 
Q 46.1875 37.015625 41.984375 42.703125 
Q 37.796875 48.390625 30.609375 48.390625 
M 30.609375 56 
Q 42.328125 56 49.015625 48.375 
Q 55.71875 40.765625 55.71875 27.296875 
Q 55.71875 13.875 49.015625 6.21875 
Q 42.328125 -1.421875 30.609375 -1.421875 
Q 18.84375 -1.421875 12.171875 6.21875 
Q 5.515625 13.875 5.515625 27.296875 
Q 5.515625 40.765625 12.171875 48.375 
Q 18.84375 56 30.609375 56 
" id="BitstreamVeraSans-Roman-6f"/>
       <path d="M 37.109375 75.984375 
L 37.109375 68.5 
L 28.515625 68.5 
Q 23.6875 68.5 21.796875 66.546875 
Q 19.921875 64.59375 19.921875 59.515625 
L 19.921875 54.6875 
L 34.71875 54.6875 
L 34.71875 47.703125 
L 19.921875 47.703125 
L 19.921875 0 
L 10.890625 0 
L 10.890625 47.703125 
L 2.296875 47.703125 
L 2.296875 54.6875 
L 10.890625 54.6875 
L 10.890625 58.5 
Q 10.890625 67.625 15.140625 71.796875 
Q 19.390625 75.984375 28.609375 75.984375 
z
" id="BitstreamVeraSans-Roman-66"/>
       <path d="M 56.203125 29.59375 
L 56.203125 25.203125 
L 14.890625 25.203125 
Q 15.484375 15.921875 20.484375 11.0625 
Q 25.484375 6.203125 34.421875 6.203125 
Q 39.59375 6.203125 44.453125 7.46875 
Q 49.3125 8.734375 54.109375 11.28125 
L 54.109375 2.78125 
Q 49.265625 0.734375 44.1875 -0.34375 
Q 39.109375 -1.421875 33.890625 -1.421875 
Q 20.796875 -1.421875 13.15625 6.1875 
Q 5.515625 13.8125 5.515625 26.8125 
Q 5.515625 40.234375 12.765625 48.109375 
Q 20.015625 56 32.328125 56 
Q 43.359375 56 49.78125 48.890625 
Q 56.203125 41.796875 56.203125 29.59375 
M 47.21875 32.234375 
Q 47.125 39.59375 43.09375 43.984375 
Q 39.0625 48.390625 32.421875 48.390625 
Q 24.90625 48.390625 20.390625 44.140625 
Q 15.875 39.890625 15.1875 32.171875 
z
" id="BitstreamVeraSans-Roman-65"/>
       <path d="M 41.109375 46.296875 
Q 39.59375 47.171875 37.8125 47.578125 
Q 36.03125 48 33.890625 48 
Q 26.265625 48 22.1875 43.046875 
Q 18.109375 38.09375 18.109375 28.8125 
L 18.109375 0 
L 9.078125 0 
L 9.078125 54.6875 
L 18.109375 54.6875 
L 18.109375 46.1875 
Q 20.953125 51.171875 25.484375 53.578125 
Q 30.03125 56 36.53125 56 
Q 37.453125 56 38.578125 55.875 
Q 39.703125 55.765625 41.0625 55.515625 
z
" id="BitstreamVeraSans-Roman-72"/>
       <path d="M 48.78125 52.59375 
L 48.78125 44.1875 
Q 44.96875 46.296875 41.140625 47.34375 
Q 37.3125 48.390625 33.40625 48.390625 
Q 24.65625 48.390625 19.8125 42.84375 
Q 14.984375 37.3125 14.984375 27.296875 
Q 14.984375 17.28125 19.8125 11.734375 
Q 24.65625 6.203125 33.40625 6.203125 
Q 37.3125 6.203125 41.140625 7.25 
Q 44.96875 8.296875 48.78125 10.40625 
L 48.78125 2.09375 
Q 45.015625 0.34375 40.984375 -0.53125 
Q 36.96875 -1.421875 32.421875 -1.421875 
Q 20.0625 -1.421875 12.78125 6.34375 
Q 5.515625 14.109375 5.515625 27.296875 
Q 5.515625 40.671875 12.859375 48.328125 
Q 20.21875 56 33.015625 56 
Q 37.15625 56 41.109375 55.140625 
Q 45.0625 54.296875 48.78125 52.59375 
" id="BitstreamVeraSans-Roman-63"/>
      </defs>
      <g transform="translate(99.60125 407.28175)rotate(-90.0)scale(0.08 -0.08)">
       <use xlink:href="#BitstreamVeraSans-Roman-44"/>
       <use x="77.001953125" xlink:href="#BitstreamVeraSans-Roman-65"/>
       <use x="138.525390625" xlink:href="#BitstreamVeraSans-Roman-66"/>
       <use x="173.73046875" xlink:href="#BitstreamVeraSans-Roman-65"/>
       <use x="235.25390625" xlink:href="#BitstreamVeraSans-Roman-63"/>
       <use x="290.234375" xlink:href="#BitstreamVeraSans-Roman-74"/>
       <use x="329.443359375" xlink:href="#BitstreamVeraSans-Roman-6f"/>
       <use x="390.625" xlink:href="#BitstreamVeraSans-Roman-72"/>
      </g>
     </g>
    </g>
    <g id="xtick_2">
     <g id="line2d_3">
      <g>
       <use style="stroke:#000000;stroke-width:0.5;" x="171.79375" xlink:href="#m0ba5e97466" y="368.74175"/>
      </g>
     </g>
     <g id="line2d_4">
      <g>
       <use style="stroke:#000000;stroke-width:0.5;" x="171.79375" xlink:href="#m3052778e21" y="23.14175"/>
      </g>
     </g>
     <g id="text_2">
      <!-- Bully -->
      <defs>
       <path d="M 32.171875 -5.078125 
Q 28.375 -14.84375 24.75 -17.8125 
Q 21.140625 -20.796875 15.09375 -20.796875 
L 7.90625 -20.796875 
L 7.90625 -13.28125 
L 13.1875 -13.28125 
Q 16.890625 -13.28125 18.9375 -11.515625 
Q 21 -9.765625 23.484375 -3.21875 
L 25.09375 0.875 
L 2.984375 54.6875 
L 12.5 54.6875 
L 29.59375 11.921875 
L 46.6875 54.6875 
L 56.203125 54.6875 
z
" id="BitstreamVeraSans-Roman-79"/>
       <path d="M 19.671875 34.8125 
L 19.671875 8.109375 
L 35.5 8.109375 
Q 43.453125 8.109375 47.28125 11.40625 
Q 51.125 14.703125 51.125 21.484375 
Q 51.125 28.328125 47.28125 31.5625 
Q 43.453125 34.8125 35.5 34.8125 
z
M 19.671875 64.796875 
L 19.671875 42.828125 
L 34.28125 42.828125 
Q 41.5 42.828125 45.03125 45.53125 
Q 48.578125 48.25 48.578125 53.8125 
Q 48.578125 59.328125 45.03125 62.0625 
Q 41.5 64.796875 34.28125 64.796875 
z
M 9.8125 72.90625 
L 35.015625 72.90625 
Q 46.296875 72.90625 52.390625 68.21875 
Q 58.5 63.53125 58.5 54.890625 
Q 58.5 48.1875 55.375 44.234375 
Q 52.25 40.28125 46.1875 39.3125 
Q 53.46875 37.75 57.5 32.78125 
Q 61.53125 27.828125 61.53125 20.40625 
Q 61.53125 10.640625 54.890625 5.3125 
Q 48.25 0 35.984375 0 
L 9.8125 0 
z
" id="BitstreamVeraSans-Roman-42"/>
       <path d="M 8.5 21.578125 
L 8.5 54.6875 
L 17.484375 54.6875 
L 17.484375 21.921875 
Q 17.484375 14.15625 20.5 10.265625 
Q 23.53125 6.390625 29.59375 6.390625 
Q 36.859375 6.390625 41.078125 11.03125 
Q 45.3125 15.671875 45.3125 23.6875 
L 45.3125 54.6875 
L 54.296875 54.6875 
L 54.296875 0 
L 45.3125 0 
L 45.3125 8.40625 
Q 42.046875 3.421875 37.71875 1 
Q 33.40625 -1.421875 27.6875 -1.421875 
Q 18.265625 -1.421875 13.375 4.4375 
Q 8.5 10.296875 8.5 21.578125 
" id="BitstreamVeraSans-Roman-75"/>
       <path d="M 9.421875 75.984375 
L 18.40625 75.984375 
L 18.40625 0 
L 9.421875 0 
z
" id="BitstreamVeraSans-Roman-6c"/>
      </defs>
      <g transform="translate(174.00125 392.4805)rotate(-90.0)scale(0.08 -0.08)">
       <use xlink:href="#BitstreamVeraSans-Roman-42"/>
       <use x="68.603515625" xlink:href="#BitstreamVeraSans-Roman-75"/>
       <use x="131.982421875" xlink:href="#BitstreamVeraSans-Roman-6c"/>
       <use x="159.765625" xlink:href="#BitstreamVeraSans-Roman-6c"/>
       <use x="187.548828125" xlink:href="#BitstreamVeraSans-Roman-79"/>
      </g>
     </g>
    </g>
    <g id="xtick_3">
     <g id="line2d_5">
      <g>
       <use style="stroke:#000000;stroke-width:0.5;" x="246.19375" xlink:href="#m0ba5e97466" y="368.74175"/>
      </g>
     </g>
     <g id="line2d_6">
      <g>
       <use style="stroke:#000000;stroke-width:0.5;" x="246.19375" xlink:href="#m3052778e21" y="23.14175"/>
      </g>
     </g>
     <g id="text_3">
      <!-- Suspicious Tit For Tat -->
      <defs>
       <path id="BitstreamVeraSans-Roman-20"/>
       <path d="M 9.8125 72.90625 
L 51.703125 72.90625 
L 51.703125 64.59375 
L 19.671875 64.59375 
L 19.671875 43.109375 
L 48.578125 43.109375 
L 48.578125 34.8125 
L 19.671875 34.8125 
L 19.671875 0 
L 9.8125 0 
z
" id="BitstreamVeraSans-Roman-46"/>
       <path d="M 34.28125 27.484375 
Q 23.390625 27.484375 19.1875 25 
Q 14.984375 22.515625 14.984375 16.5 
Q 14.984375 11.71875 18.140625 8.90625 
Q 21.296875 6.109375 26.703125 6.109375 
Q 34.1875 6.109375 38.703125 11.40625 
Q 43.21875 16.703125 43.21875 25.484375 
L 43.21875 27.484375 
z
M 52.203125 31.203125 
L 52.203125 0 
L 43.21875 0 
L 43.21875 8.296875 
Q 40.140625 3.328125 35.546875 0.953125 
Q 30.953125 -1.421875 24.3125 -1.421875 
Q 15.921875 -1.421875 10.953125 3.296875 
Q 6 8.015625 6 15.921875 
Q 6 25.140625 12.171875 29.828125 
Q 18.359375 34.515625 30.609375 34.515625 
L 43.21875 34.515625 
L 43.21875 35.40625 
Q 43.21875 41.609375 39.140625 45 
Q 35.0625 48.390625 27.6875 48.390625 
Q 23 48.390625 18.546875 47.265625 
Q 14.109375 46.140625 10.015625 43.890625 
L 10.015625 52.203125 
Q 14.9375 54.109375 19.578125 55.046875 
Q 24.21875 56 28.609375 56 
Q 40.484375 56 46.34375 49.84375 
Q 52.203125 43.703125 52.203125 31.203125 
" id="BitstreamVeraSans-Roman-61"/>
       <path d="M 44.28125 53.078125 
L 44.28125 44.578125 
Q 40.484375 46.53125 36.375 47.5 
Q 32.28125 48.484375 27.875 48.484375 
Q 21.1875 48.484375 17.84375 46.4375 
Q 14.5 44.390625 14.5 40.28125 
Q 14.5 37.15625 16.890625 35.375 
Q 19.28125 33.59375 26.515625 31.984375 
L 29.59375 31.296875 
Q 39.15625 29.25 43.1875 25.515625 
Q 47.21875 21.78125 47.21875 15.09375 
Q 47.21875 7.46875 41.1875 3.015625 
Q 35.15625 -1.421875 24.609375 -1.421875 
Q 20.21875 -1.421875 15.453125 -0.5625 
Q 10.6875 0.296875 5.421875 2 
L 5.421875 11.28125 
Q 10.40625 8.6875 15.234375 7.390625 
Q 20.0625 6.109375 24.8125 6.109375 
Q 31.15625 6.109375 34.5625 8.28125 
Q 37.984375 10.453125 37.984375 14.40625 
Q 37.984375 18.0625 35.515625 20.015625 
Q 33.0625 21.96875 24.703125 23.78125 
L 21.578125 24.515625 
Q 13.234375 26.265625 9.515625 29.90625 
Q 5.8125 33.546875 5.8125 39.890625 
Q 5.8125 47.609375 11.28125 51.796875 
Q 16.75 56 26.8125 56 
Q 31.78125 56 36.171875 55.265625 
Q 40.578125 54.546875 44.28125 53.078125 
" id="BitstreamVeraSans-Roman-73"/>
       <path d="M 18.109375 8.203125 
L 18.109375 -20.796875 
L 9.078125 -20.796875 
L 9.078125 54.6875 
L 18.109375 54.6875 
L 18.109375 46.390625 
Q 20.953125 51.265625 25.265625 53.625 
Q 29.59375 56 35.59375 56 
Q 45.5625 56 51.78125 48.09375 
Q 58.015625 40.1875 58.015625 27.296875 
Q 58.015625 14.40625 51.78125 6.484375 
Q 45.5625 -1.421875 35.59375 -1.421875 
Q 29.59375 -1.421875 25.265625 0.953125 
Q 20.953125 3.328125 18.109375 8.203125 
M 48.6875 27.296875 
Q 48.6875 37.203125 44.609375 42.84375 
Q 40.53125 48.484375 33.40625 48.484375 
Q 26.265625 48.484375 22.1875 42.84375 
Q 18.109375 37.203125 18.109375 27.296875 
Q 18.109375 17.390625 22.1875 11.75 
Q 26.265625 6.109375 33.40625 6.109375 
Q 40.53125 6.109375 44.609375 11.75 
Q 48.6875 17.390625 48.6875 27.296875 
" id="BitstreamVeraSans-Roman-70"/>
       <path d="M 9.421875 54.6875 
L 18.40625 54.6875 
L 18.40625 0 
L 9.421875 0 
z
M 9.421875 75.984375 
L 18.40625 75.984375 
L 18.40625 64.59375 
L 9.421875 64.59375 
z
" id="BitstreamVeraSans-Roman-69"/>
       <path d="M -0.296875 72.90625 
L 61.375 72.90625 
L 61.375 64.59375 
L 35.5 64.59375 
L 35.5 0 
L 25.59375 0 
L 25.59375 64.59375 
L -0.296875 64.59375 
z
" id="BitstreamVeraSans-Roman-54"/>
       <path d="M 53.515625 70.515625 
L 53.515625 60.890625 
Q 47.90625 63.578125 42.921875 64.890625 
Q 37.9375 66.21875 33.296875 66.21875 
Q 25.25 66.21875 20.875 63.09375 
Q 16.5 59.96875 16.5 54.203125 
Q 16.5 49.359375 19.40625 46.890625 
Q 22.3125 44.4375 30.421875 42.921875 
L 36.375 41.703125 
Q 47.40625 39.59375 52.65625 34.296875 
Q 57.90625 29 57.90625 20.125 
Q 57.90625 9.515625 50.796875 4.046875 
Q 43.703125 -1.421875 29.984375 -1.421875 
Q 24.8125 -1.421875 18.96875 -0.25 
Q 13.140625 0.921875 6.890625 3.21875 
L 6.890625 13.375 
Q 12.890625 10.015625 18.65625 8.296875 
Q 24.421875 6.59375 29.984375 6.59375 
Q 38.421875 6.59375 43.015625 9.90625 
Q 47.609375 13.234375 47.609375 19.390625 
Q 47.609375 24.75 44.3125 27.78125 
Q 41.015625 30.8125 33.5 32.328125 
L 27.484375 33.5 
Q 16.453125 35.6875 11.515625 40.375 
Q 6.59375 45.0625 6.59375 53.421875 
Q 6.59375 63.09375 13.40625 68.65625 
Q 20.21875 74.21875 32.171875 74.21875 
Q 37.3125 74.21875 42.625 73.28125 
Q 47.953125 72.359375 53.515625 70.515625 
" id="BitstreamVeraSans-Roman-53"/>
      </defs>
      <g transform="translate(248.40125 458.668)rotate(-90.0)scale(0.08 -0.08)">
       <use xlink:href="#BitstreamVeraSans-Roman-53"/>
       <use x="63.4765625" xlink:href="#BitstreamVeraSans-Roman-75"/>
       <use x="126.85546875" xlink:href="#BitstreamVeraSans-Roman-73"/>
       <use x="178.955078125" xlink:href="#BitstreamVeraSans-Roman-70"/>
       <use x="242.431640625" xlink:href="#BitstreamVeraSans-Roman-69"/>
       <use x="270.21484375" xlink:href="#BitstreamVeraSans-Roman-63"/>
       <use x="325.1953125" xlink:href="#BitstreamVeraSans-Roman-69"/>
       <use x="352.978515625" xlink:href="#BitstreamVeraSans-Roman-6f"/>
       <use x="414.16015625" xlink:href="#BitstreamVeraSans-Roman-75"/>
       <use x="477.5390625" xlink:href="#BitstreamVeraSans-Roman-73"/>
       <use x="529.638671875" xlink:href="#BitstreamVeraSans-Roman-20"/>
       <use x="561.42578125" xlink:href="#BitstreamVeraSans-Roman-54"/>
       <use x="622.462890625" xlink:href="#BitstreamVeraSans-Roman-69"/>
       <use x="650.24609375" xlink:href="#BitstreamVeraSans-Roman-74"/>
       <use x="689.455078125" xlink:href="#BitstreamVeraSans-Roman-20"/>
       <use x="721.2421875" xlink:href="#BitstreamVeraSans-Roman-46"/>
       <use x="778.71484375" xlink:href="#BitstreamVeraSans-Roman-6f"/>
       <use x="839.896484375" xlink:href="#BitstreamVeraSans-Roman-72"/>
       <use x="881.009765625" xlink:href="#BitstreamVeraSans-Roman-20"/>
       <use x="912.796875" xlink:href="#BitstreamVeraSans-Roman-54"/>
       <use x="973.630859375" xlink:href="#BitstreamVeraSans-Roman-61"/>
       <use x="1034.91015625" xlink:href="#BitstreamVeraSans-Roman-74"/>
      </g>
     </g>
    </g>
    <g id="xtick_4">
     <g id="line2d_7">
      <g>
       <use style="stroke:#000000;stroke-width:0.5;" x="320.59375" xlink:href="#m0ba5e97466" y="368.74175"/>
      </g>
     </g>
     <g id="line2d_8">
      <g>
       <use style="stroke:#000000;stroke-width:0.5;" x="320.59375" xlink:href="#m3052778e21" y="23.14175"/>
      </g>
     </g>
     <g id="text_4">
      <!-- Tit For Tat -->
      <g transform="translate(322.80125 413.75425)rotate(-90.0)scale(0.08 -0.08)">
       <use xlink:href="#BitstreamVeraSans-Roman-54"/>
       <use x="61.037109375" xlink:href="#BitstreamVeraSans-Roman-69"/>
       <use x="88.8203125" xlink:href="#BitstreamVeraSans-Roman-74"/>
       <use x="128.029296875" xlink:href="#BitstreamVeraSans-Roman-20"/>
       <use x="159.81640625" xlink:href="#BitstreamVeraSans-Roman-46"/>
       <use x="217.2890625" xlink:href="#BitstreamVeraSans-Roman-6f"/>
       <use x="278.470703125" xlink:href="#BitstreamVeraSans-Roman-72"/>
       <use x="319.583984375" xlink:href="#BitstreamVeraSans-Roman-20"/>
       <use x="351.37109375" xlink:href="#BitstreamVeraSans-Roman-54"/>
       <use x="412.205078125" xlink:href="#BitstreamVeraSans-Roman-61"/>
       <use x="473.484375" xlink:href="#BitstreamVeraSans-Roman-74"/>
      </g>
     </g>
    </g>
    <g id="xtick_5">
     <g id="line2d_9">
      <g>
       <use style="stroke:#000000;stroke-width:0.5;" x="394.99375" xlink:href="#m0ba5e97466" y="368.74175"/>
      </g>
     </g>
     <g id="line2d_10">
      <g>
       <use style="stroke:#000000;stroke-width:0.5;" x="394.99375" xlink:href="#m3052778e21" y="23.14175"/>
      </g>
     </g>
     <g id="text_5">
      <!-- Anti Tit For Tat -->
      <defs>
       <path d="M 34.1875 63.1875 
L 20.796875 26.90625 
L 47.609375 26.90625 
z
M 28.609375 72.90625 
L 39.796875 72.90625 
L 67.578125 0 
L 57.328125 0 
L 50.6875 18.703125 
L 17.828125 18.703125 
L 11.1875 0 
L 0.78125 0 
z
" id="BitstreamVeraSans-Roman-41"/>
       <path d="M 54.890625 33.015625 
L 54.890625 0 
L 45.90625 0 
L 45.90625 32.71875 
Q 45.90625 40.484375 42.875 44.328125 
Q 39.84375 48.1875 33.796875 48.1875 
Q 26.515625 48.1875 22.3125 43.546875 
Q 18.109375 38.921875 18.109375 30.90625 
L 18.109375 0 
L 9.078125 0 
L 9.078125 54.6875 
L 18.109375 54.6875 
L 18.109375 46.1875 
Q 21.34375 51.125 25.703125 53.5625 
Q 30.078125 56 35.796875 56 
Q 45.21875 56 50.046875 50.171875 
Q 54.890625 44.34375 54.890625 33.015625 
" id="BitstreamVeraSans-Roman-6e"/>
      </defs>
      <g transform="translate(397.20125 432.198)rotate(-90.0)scale(0.08 -0.08)">
       <use xlink:href="#BitstreamVeraSans-Roman-41"/>
       <use x="68.408203125" xlink:href="#BitstreamVeraSans-Roman-6e"/>
       <use x="131.787109375" xlink:href="#BitstreamVeraSans-Roman-74"/>
       <use x="170.99609375" xlink:href="#BitstreamVeraSans-Roman-69"/>
       <use x="198.779296875" xlink:href="#BitstreamVeraSans-Roman-20"/>
       <use x="230.56640625" xlink:href="#BitstreamVeraSans-Roman-54"/>
       <use x="291.603515625" xlink:href="#BitstreamVeraSans-Roman-69"/>
       <use x="319.38671875" xlink:href="#BitstreamVeraSans-Roman-74"/>
       <use x="358.595703125" xlink:href="#BitstreamVeraSans-Roman-20"/>
       <use x="390.3828125" xlink:href="#BitstreamVeraSans-Roman-46"/>
       <use x="447.85546875" xlink:href="#BitstreamVeraSans-Roman-6f"/>
       <use x="509.037109375" xlink:href="#BitstreamVeraSans-Roman-72"/>
       <use x="550.150390625" xlink:href="#BitstreamVeraSans-Roman-20"/>
       <use x="581.9375" xlink:href="#BitstreamVeraSans-Roman-54"/>
       <use x="642.771484375" xlink:href="#BitstreamVeraSans-Roman-61"/>
       <use x="704.05078125" xlink:href="#BitstreamVeraSans-Roman-74"/>
      </g>
     </g>
    </g>
    <g id="xtick_6">
     <g id="line2d_11">
      <g>
       <use style="stroke:#000000;stroke-width:0.5;" x="469.39375" xlink:href="#m0ba5e97466" y="368.74175"/>
      </g>
     </g>
     <g id="line2d_12">
      <g>
       <use style="stroke:#000000;stroke-width:0.5;" x="469.39375" xlink:href="#m3052778e21" y="23.14175"/>
      </g>
     </g>
     <g id="text_6">
      <!-- Win-Stay Lose-Shift -->
      <defs>
       <path d="M 9.8125 72.90625 
L 19.671875 72.90625 
L 19.671875 8.296875 
L 55.171875 8.296875 
L 55.171875 0 
L 9.8125 0 
z
" id="BitstreamVeraSans-Roman-4c"/>
       <path d="M 54.890625 33.015625 
L 54.890625 0 
L 45.90625 0 
L 45.90625 32.71875 
Q 45.90625 40.484375 42.875 44.328125 
Q 39.84375 48.1875 33.796875 48.1875 
Q 26.515625 48.1875 22.3125 43.546875 
Q 18.109375 38.921875 18.109375 30.90625 
L 18.109375 0 
L 9.078125 0 
L 9.078125 75.984375 
L 18.109375 75.984375 
L 18.109375 46.1875 
Q 21.34375 51.125 25.703125 53.5625 
Q 30.078125 56 35.796875 56 
Q 45.21875 56 50.046875 50.171875 
Q 54.890625 44.34375 54.890625 33.015625 
" id="BitstreamVeraSans-Roman-68"/>
       <path d="M 3.328125 72.90625 
L 13.28125 72.90625 
L 28.609375 11.28125 
L 43.890625 72.90625 
L 54.984375 72.90625 
L 70.3125 11.28125 
L 85.59375 72.90625 
L 95.609375 72.90625 
L 77.296875 0 
L 64.890625 0 
L 49.515625 63.28125 
L 33.984375 0 
L 21.578125 0 
z
" id="BitstreamVeraSans-Roman-57"/>
       <path d="M 4.890625 31.390625 
L 31.203125 31.390625 
L 31.203125 23.390625 
L 4.890625 23.390625 
z
" id="BitstreamVeraSans-Roman-2d"/>
      </defs>
      <g transform="translate(471.60125 450.873)rotate(-90.0)scale(0.08 -0.08)">
       <use xlink:href="#BitstreamVeraSans-Roman-57"/>
       <use x="98.845703125" xlink:href="#BitstreamVeraSans-Roman-69"/>
       <use x="126.62890625" xlink:href="#BitstreamVeraSans-Roman-6e"/>
       <use x="190.0078125" xlink:href="#BitstreamVeraSans-Roman-2d"/>
       <use x="226.091796875" xlink:href="#BitstreamVeraSans-Roman-53"/>
       <use x="289.568359375" xlink:href="#BitstreamVeraSans-Roman-74"/>
       <use x="328.77734375" xlink:href="#BitstreamVeraSans-Roman-61"/>
       <use x="390.056640625" xlink:href="#BitstreamVeraSans-Roman-79"/>
       <use x="449.236328125" xlink:href="#BitstreamVeraSans-Roman-20"/>
       <use x="481.0234375" xlink:href="#BitstreamVeraSans-Roman-4c"/>
       <use x="536.720703125" xlink:href="#BitstreamVeraSans-Roman-6f"/>
       <use x="597.90234375" xlink:href="#BitstreamVeraSans-Roman-73"/>
       <use x="650.001953125" xlink:href="#BitstreamVeraSans-Roman-65"/>
       <use x="711.525390625" xlink:href="#BitstreamVeraSans-Roman-2d"/>
       <use x="747.609375" xlink:href="#BitstreamVeraSans-Roman-53"/>
       <use x="811.0859375" xlink:href="#BitstreamVeraSans-Roman-68"/>
       <use x="874.46484375" xlink:href="#BitstreamVeraSans-Roman-69"/>
       <use x="902.248046875" xlink:href="#BitstreamVeraSans-Roman-66"/>
       <use x="937.4375" xlink:href="#BitstreamVeraSans-Roman-74"/>
      </g>
     </g>
    </g>
    <g id="xtick_7">
     <g id="line2d_13">
      <g>
       <use style="stroke:#000000;stroke-width:0.5;" x="543.79375" xlink:href="#m0ba5e97466" y="368.74175"/>
      </g>
     </g>
     <g id="line2d_14">
      <g>
       <use style="stroke:#000000;stroke-width:0.5;" x="543.79375" xlink:href="#m3052778e21" y="23.14175"/>
      </g>
     </g>
     <g id="text_7">
      <!-- Alternator -->
      <g transform="translate(546.00125 413.0755)rotate(-90.0)scale(0.08 -0.08)">
       <use xlink:href="#BitstreamVeraSans-Roman-41"/>
       <use x="68.408203125" xlink:href="#BitstreamVeraSans-Roman-6c"/>
       <use x="96.19140625" xlink:href="#BitstreamVeraSans-Roman-74"/>
       <use x="135.400390625" xlink:href="#BitstreamVeraSans-Roman-65"/>
       <use x="196.923828125" xlink:href="#BitstreamVeraSans-Roman-72"/>
       <use x="238.021484375" xlink:href="#BitstreamVeraSans-Roman-6e"/>
       <use x="301.400390625" xlink:href="#BitstreamVeraSans-Roman-61"/>
       <use x="362.6796875" xlink:href="#BitstreamVeraSans-Roman-74"/>
       <use x="401.888671875" xlink:href="#BitstreamVeraSans-Roman-6f"/>
       <use x="463.0703125" xlink:href="#BitstreamVeraSans-Roman-72"/>
      </g>
     </g>
    </g>
    <g id="xtick_8">
     <g id="line2d_15">
      <g>
       <use style="stroke:#000000;stroke-width:0.5;" x="618.19375" xlink:href="#m0ba5e97466" y="368.74175"/>
      </g>
     </g>
     <g id="line2d_16">
      <g>
       <use style="stroke:#000000;stroke-width:0.5;" x="618.19375" xlink:href="#m3052778e21" y="23.14175"/>
      </g>
     </g>
     <g id="text_8">
      <!-- Cooperator -->
      <defs>
       <path d="M 64.40625 67.28125 
L 64.40625 56.890625 
Q 59.421875 61.53125 53.78125 63.8125 
Q 48.140625 66.109375 41.796875 66.109375 
Q 29.296875 66.109375 22.65625 58.46875 
Q 16.015625 50.828125 16.015625 36.375 
Q 16.015625 21.96875 22.65625 14.328125 
Q 29.296875 6.6875 41.796875 6.6875 
Q 48.140625 6.6875 53.78125 8.984375 
Q 59.421875 11.28125 64.40625 15.921875 
L 64.40625 5.609375 
Q 59.234375 2.09375 53.4375 0.328125 
Q 47.65625 -1.421875 41.21875 -1.421875 
Q 24.65625 -1.421875 15.125 8.703125 
Q 5.609375 18.84375 5.609375 36.375 
Q 5.609375 53.953125 15.125 64.078125 
Q 24.65625 74.21875 41.21875 74.21875 
Q 47.75 74.21875 53.53125 72.484375 
Q 59.328125 70.75 64.40625 67.28125 
" id="BitstreamVeraSans-Roman-43"/>
      </defs>
      <g transform="translate(620.40125 417.6305)rotate(-90.0)scale(0.08 -0.08)">
       <use xlink:href="#BitstreamVeraSans-Roman-43"/>
       <use x="69.82421875" xlink:href="#BitstreamVeraSans-Roman-6f"/>
       <use x="131.005859375" xlink:href="#BitstreamVeraSans-Roman-6f"/>
       <use x="192.1875" xlink:href="#BitstreamVeraSans-Roman-70"/>
       <use x="255.6640625" xlink:href="#BitstreamVeraSans-Roman-65"/>
       <use x="317.1875" xlink:href="#BitstreamVeraSans-Roman-72"/>
       <use x="358.30078125" xlink:href="#BitstreamVeraSans-Roman-61"/>
       <use x="419.580078125" xlink:href="#BitstreamVeraSans-Roman-74"/>
       <use x="458.7890625" xlink:href="#BitstreamVeraSans-Roman-6f"/>
       <use x="519.970703125" xlink:href="#BitstreamVeraSans-Roman-72"/>
      </g>
     </g>
    </g>
   </g>
   <g id="matplotlib.axis_2">
    <g id="ytick_1">
     <g id="line2d_17">
      <defs>
       <path d="M 0 0 
L 4 0 
" id="m5b6a2b80ae" style="stroke:#000000;stroke-width:0.5;"/>
      </defs>
      <g>
       <use style="stroke:#000000;stroke-width:0.5;" x="22.99375" xlink:href="#m5b6a2b80ae" y="368.74175"/>
      </g>
     </g>
     <g id="line2d_18">
      <defs>
       <path d="M 0 0 
L -4 0 
" id="m77d4122d2a" style="stroke:#000000;stroke-width:0.5;"/>
      </defs>
      <g>
       <use style="stroke:#000000;stroke-width:0.5;" x="692.59375" xlink:href="#m77d4122d2a" y="368.74175"/>
      </g>
     </g>
     <g id="text_9">
      <!-- 6 -->
      <defs>
       <path d="M 33.015625 40.375 
Q 26.375 40.375 22.484375 35.828125 
Q 18.609375 31.296875 18.609375 23.390625 
Q 18.609375 15.53125 22.484375 10.953125 
Q 26.375 6.390625 33.015625 6.390625 
Q 39.65625 6.390625 43.53125 10.953125 
Q 47.40625 15.53125 47.40625 23.390625 
Q 47.40625 31.296875 43.53125 35.828125 
Q 39.65625 40.375 33.015625 40.375 
M 52.59375 71.296875 
L 52.59375 62.3125 
Q 48.875 64.0625 45.09375 64.984375 
Q 41.3125 65.921875 37.59375 65.921875 
Q 27.828125 65.921875 22.671875 59.328125 
Q 17.53125 52.734375 16.796875 39.40625 
Q 19.671875 43.65625 24.015625 45.921875 
Q 28.375 48.1875 33.59375 48.1875 
Q 44.578125 48.1875 50.953125 41.515625 
Q 57.328125 34.859375 57.328125 23.390625 
Q 57.328125 12.15625 50.6875 5.359375 
Q 44.046875 -1.421875 33.015625 -1.421875 
Q 20.359375 -1.421875 13.671875 8.265625 
Q 6.984375 17.96875 6.984375 36.375 
Q 6.984375 53.65625 15.1875 63.9375 
Q 23.390625 74.21875 37.203125 74.21875 
Q 40.921875 74.21875 44.703125 73.484375 
Q 48.484375 72.75 52.59375 71.296875 
" id="BitstreamVeraSans-Roman-36"/>
       <path d="M 10.59375 35.5 
L 73.1875 35.5 
L 73.1875 27.203125 
L 10.59375 27.203125 
z
" id="BitstreamVeraSans-Roman-2212"/>
      </defs>
      <g transform="translate(7.2 370.94925)scale(0.08 -0.08)">
       <use xlink:href="#BitstreamVeraSans-Roman-2212"/>
       <use x="83.7890625" xlink:href="#BitstreamVeraSans-Roman-36"/>
      </g>
     </g>
    </g>
    <g id="ytick_2">
     <g id="line2d_19">
      <g>
       <use style="stroke:#000000;stroke-width:0.5;" x="22.99375" xlink:href="#m5b6a2b80ae" y="311.14175"/>
      </g>
     </g>
     <g id="line2d_20">
      <g>
       <use style="stroke:#000000;stroke-width:0.5;" x="692.59375" xlink:href="#m77d4122d2a" y="311.14175"/>
      </g>
     </g>
     <g id="text_10">
      <!-- 4 -->
      <defs>
       <path d="M 37.796875 64.3125 
L 12.890625 25.390625 
L 37.796875 25.390625 
z
M 35.203125 72.90625 
L 47.609375 72.90625 
L 47.609375 25.390625 
L 58.015625 25.390625 
L 58.015625 17.1875 
L 47.609375 17.1875 
L 47.609375 0 
L 37.796875 0 
L 37.796875 17.1875 
L 4.890625 17.1875 
L 4.890625 26.703125 
z
" id="BitstreamVeraSans-Roman-34"/>
      </defs>
      <g transform="translate(7.2 313.34925)scale(0.08 -0.08)">
       <use xlink:href="#BitstreamVeraSans-Roman-2212"/>
       <use x="83.7890625" xlink:href="#BitstreamVeraSans-Roman-34"/>
      </g>
     </g>
    </g>
    <g id="ytick_3">
     <g id="line2d_21">
      <g>
       <use style="stroke:#000000;stroke-width:0.5;" x="22.99375" xlink:href="#m5b6a2b80ae" y="253.54175"/>
      </g>
     </g>
     <g id="line2d_22">
      <g>
       <use style="stroke:#000000;stroke-width:0.5;" x="692.59375" xlink:href="#m77d4122d2a" y="253.54175"/>
      </g>
     </g>
     <g id="text_11">
      <!-- 2 -->
      <defs>
       <path d="M 19.1875 8.296875 
L 53.609375 8.296875 
L 53.609375 0 
L 7.328125 0 
L 7.328125 8.296875 
Q 12.9375 14.109375 22.625 23.890625 
Q 32.328125 33.6875 34.8125 36.53125 
Q 39.546875 41.84375 41.421875 45.53125 
Q 43.3125 49.21875 43.3125 52.78125 
Q 43.3125 58.59375 39.234375 62.25 
Q 35.15625 65.921875 28.609375 65.921875 
Q 23.96875 65.921875 18.8125 64.3125 
Q 13.671875 62.703125 7.8125 59.421875 
L 7.8125 69.390625 
Q 13.765625 71.78125 18.9375 73 
Q 24.125 74.21875 28.421875 74.21875 
Q 39.75 74.21875 46.484375 68.546875 
Q 53.21875 62.890625 53.21875 53.421875 
Q 53.21875 48.921875 51.53125 44.890625 
Q 49.859375 40.875 45.40625 35.40625 
Q 44.1875 33.984375 37.640625 27.21875 
Q 31.109375 20.453125 19.1875 8.296875 
" id="BitstreamVeraSans-Roman-32"/>
      </defs>
      <g transform="translate(7.2 255.74925)scale(0.08 -0.08)">
       <use xlink:href="#BitstreamVeraSans-Roman-2212"/>
       <use x="83.7890625" xlink:href="#BitstreamVeraSans-Roman-32"/>
      </g>
     </g>
    </g>
    <g id="ytick_4">
     <g id="line2d_23">
      <g>
       <use style="stroke:#000000;stroke-width:0.5;" x="22.99375" xlink:href="#m5b6a2b80ae" y="195.94175"/>
      </g>
     </g>
     <g id="line2d_24">
      <g>
       <use style="stroke:#000000;stroke-width:0.5;" x="692.59375" xlink:href="#m77d4122d2a" y="195.94175"/>
      </g>
     </g>
     <g id="text_12">
      <!-- 0 -->
      <defs>
       <path d="M 31.78125 66.40625 
Q 24.171875 66.40625 20.328125 58.90625 
Q 16.5 51.421875 16.5 36.375 
Q 16.5 21.390625 20.328125 13.890625 
Q 24.171875 6.390625 31.78125 6.390625 
Q 39.453125 6.390625 43.28125 13.890625 
Q 47.125 21.390625 47.125 36.375 
Q 47.125 51.421875 43.28125 58.90625 
Q 39.453125 66.40625 31.78125 66.40625 
M 31.78125 74.21875 
Q 44.046875 74.21875 50.515625 64.515625 
Q 56.984375 54.828125 56.984375 36.375 
Q 56.984375 17.96875 50.515625 8.265625 
Q 44.046875 -1.421875 31.78125 -1.421875 
Q 19.53125 -1.421875 13.0625 8.265625 
Q 6.59375 17.96875 6.59375 36.375 
Q 6.59375 54.828125 13.0625 64.515625 
Q 19.53125 74.21875 31.78125 74.21875 
" id="BitstreamVeraSans-Roman-30"/>
      </defs>
      <g transform="translate(13.90375 198.14925)scale(0.08 -0.08)">
       <use xlink:href="#BitstreamVeraSans-Roman-30"/>
      </g>
     </g>
    </g>
    <g id="ytick_5">
     <g id="line2d_25">
      <g>
       <use style="stroke:#000000;stroke-width:0.5;" x="22.99375" xlink:href="#m5b6a2b80ae" y="138.34175"/>
      </g>
     </g>
     <g id="line2d_26">
      <g>
       <use style="stroke:#000000;stroke-width:0.5;" x="692.59375" xlink:href="#m77d4122d2a" y="138.34175"/>
      </g>
     </g>
     <g id="text_13">
      <!-- 2 -->
      <g transform="translate(13.90375 140.54925)scale(0.08 -0.08)">
       <use xlink:href="#BitstreamVeraSans-Roman-32"/>
      </g>
     </g>
    </g>
    <g id="ytick_6">
     <g id="line2d_27">
      <g>
       <use style="stroke:#000000;stroke-width:0.5;" x="22.99375" xlink:href="#m5b6a2b80ae" y="80.74175"/>
      </g>
     </g>
     <g id="line2d_28">
      <g>
       <use style="stroke:#000000;stroke-width:0.5;" x="692.59375" xlink:href="#m77d4122d2a" y="80.74175"/>
      </g>
     </g>
     <g id="text_14">
      <!-- 4 -->
      <g transform="translate(13.90375 82.94925)scale(0.08 -0.08)">
       <use xlink:href="#BitstreamVeraSans-Roman-34"/>
      </g>
     </g>
    </g>
    <g id="ytick_7">
     <g id="line2d_29">
      <g>
       <use style="stroke:#000000;stroke-width:0.5;" x="22.99375" xlink:href="#m5b6a2b80ae" y="23.14175"/>
      </g>
     </g>
     <g id="line2d_30">
      <g>
       <use style="stroke:#000000;stroke-width:0.5;" x="692.59375" xlink:href="#m77d4122d2a" y="23.14175"/>
      </g>
     </g>
     <g id="text_15">
      <!-- 6 -->
      <g transform="translate(13.90375 25.34925)scale(0.08 -0.08)">
       <use xlink:href="#BitstreamVeraSans-Roman-36"/>
      </g>
     </g>
    </g>
   </g>
   <g id="text_16">
    <!-- Std Payoffs. Prob end: 0.1, Repetitions: 2, Strategies: 8. -->
    <defs>
     <path d="M 12.40625 8.296875 
L 28.515625 8.296875 
L 28.515625 63.921875 
L 10.984375 60.40625 
L 10.984375 69.390625 
L 28.421875 72.90625 
L 38.28125 72.90625 
L 38.28125 8.296875 
L 54.390625 8.296875 
L 54.390625 0 
L 12.40625 0 
z
" id="BitstreamVeraSans-Roman-31"/>
     <path d="M 45.40625 46.390625 
L 45.40625 75.984375 
L 54.390625 75.984375 
L 54.390625 0 
L 45.40625 0 
L 45.40625 8.203125 
Q 42.578125 3.328125 38.25 0.953125 
Q 33.9375 -1.421875 27.875 -1.421875 
Q 17.96875 -1.421875 11.734375 6.484375 
Q 5.515625 14.40625 5.515625 27.296875 
Q 5.515625 40.1875 11.734375 48.09375 
Q 17.96875 56 27.875 56 
Q 33.9375 56 38.25 53.625 
Q 42.578125 51.265625 45.40625 46.390625 
M 14.796875 27.296875 
Q 14.796875 17.390625 18.875 11.75 
Q 22.953125 6.109375 30.078125 6.109375 
Q 37.203125 6.109375 41.296875 11.75 
Q 45.40625 17.390625 45.40625 27.296875 
Q 45.40625 37.203125 41.296875 42.84375 
Q 37.203125 48.484375 30.078125 48.484375 
Q 22.953125 48.484375 18.875 42.84375 
Q 14.796875 37.203125 14.796875 27.296875 
" id="BitstreamVeraSans-Roman-64"/>
     <path d="M 44.390625 34.1875 
Q 47.5625 33.109375 50.5625 29.59375 
Q 53.5625 26.078125 56.59375 19.921875 
L 66.609375 0 
L 56 0 
L 46.6875 18.703125 
Q 43.0625 26.03125 39.671875 28.421875 
Q 36.28125 30.8125 30.421875 30.8125 
L 19.671875 30.8125 
L 19.671875 0 
L 9.8125 0 
L 9.8125 72.90625 
L 32.078125 72.90625 
Q 44.578125 72.90625 50.734375 67.671875 
Q 56.890625 62.453125 56.890625 51.90625 
Q 56.890625 45.015625 53.6875 40.46875 
Q 50.484375 35.9375 44.390625 34.1875 
M 19.671875 64.796875 
L 19.671875 38.921875 
L 32.078125 38.921875 
Q 39.203125 38.921875 42.84375 42.21875 
Q 46.484375 45.515625 46.484375 51.90625 
Q 46.484375 58.296875 42.84375 61.546875 
Q 39.203125 64.796875 32.078125 64.796875 
z
" id="BitstreamVeraSans-Roman-52"/>
     <path d="M 10.6875 12.40625 
L 21 12.40625 
L 21 0 
L 10.6875 0 
z
" id="BitstreamVeraSans-Roman-2e"/>
     <path d="M 11.71875 12.40625 
L 22.015625 12.40625 
L 22.015625 4 
L 14.015625 -11.625 
L 7.71875 -11.625 
L 11.71875 4 
z
" id="BitstreamVeraSans-Roman-2c"/>
     <path d="M 11.71875 12.40625 
L 22.015625 12.40625 
L 22.015625 0 
L 11.71875 0 
z
M 11.71875 51.703125 
L 22.015625 51.703125 
L 22.015625 39.3125 
L 11.71875 39.3125 
z
" id="BitstreamVeraSans-Roman-3a"/>
     <path d="M 31.78125 34.625 
Q 24.75 34.625 20.71875 30.859375 
Q 16.703125 27.09375 16.703125 20.515625 
Q 16.703125 13.921875 20.71875 10.15625 
Q 24.75 6.390625 31.78125 6.390625 
Q 38.8125 6.390625 42.859375 10.171875 
Q 46.921875 13.96875 46.921875 20.515625 
Q 46.921875 27.09375 42.890625 30.859375 
Q 38.875 34.625 31.78125 34.625 
M 21.921875 38.8125 
Q 15.578125 40.375 12.03125 44.71875 
Q 8.5 49.078125 8.5 55.328125 
Q 8.5 64.0625 14.71875 69.140625 
Q 20.953125 74.21875 31.78125 74.21875 
Q 42.671875 74.21875 48.875 69.140625 
Q 55.078125 64.0625 55.078125 55.328125 
Q 55.078125 49.078125 51.53125 44.71875 
Q 48 40.375 41.703125 38.8125 
Q 48.828125 37.15625 52.796875 32.3125 
Q 56.78125 27.484375 56.78125 20.515625 
Q 56.78125 9.90625 50.3125 4.234375 
Q 43.84375 -1.421875 31.78125 -1.421875 
Q 19.734375 -1.421875 13.25 4.234375 
Q 6.78125 9.90625 6.78125 20.515625 
Q 6.78125 27.484375 10.78125 32.3125 
Q 14.796875 37.15625 21.921875 38.8125 
M 18.3125 54.390625 
Q 18.3125 48.734375 21.84375 45.5625 
Q 25.390625 42.390625 31.78125 42.390625 
Q 38.140625 42.390625 41.71875 45.5625 
Q 45.3125 48.734375 45.3125 54.390625 
Q 45.3125 60.0625 41.71875 63.234375 
Q 38.140625 66.40625 31.78125 66.40625 
Q 25.390625 66.40625 21.84375 63.234375 
Q 18.3125 60.0625 18.3125 54.390625 
" id="BitstreamVeraSans-Roman-38"/>
     <path d="M 19.671875 64.796875 
L 19.671875 37.40625 
L 32.078125 37.40625 
Q 38.96875 37.40625 42.71875 40.96875 
Q 46.484375 44.53125 46.484375 51.125 
Q 46.484375 57.671875 42.71875 61.234375 
Q 38.96875 64.796875 32.078125 64.796875 
z
M 9.8125 72.90625 
L 32.078125 72.90625 
Q 44.34375 72.90625 50.609375 67.359375 
Q 56.890625 61.8125 56.890625 51.125 
Q 56.890625 40.328125 50.609375 34.8125 
Q 44.34375 29.296875 32.078125 29.296875 
L 19.671875 29.296875 
L 19.671875 0 
L 9.8125 0 
z
" id="BitstreamVeraSans-Roman-50"/>
     <path d="M 48.6875 27.296875 
Q 48.6875 37.203125 44.609375 42.84375 
Q 40.53125 48.484375 33.40625 48.484375 
Q 26.265625 48.484375 22.1875 42.84375 
Q 18.109375 37.203125 18.109375 27.296875 
Q 18.109375 17.390625 22.1875 11.75 
Q 26.265625 6.109375 33.40625 6.109375 
Q 40.53125 6.109375 44.609375 11.75 
Q 48.6875 17.390625 48.6875 27.296875 
M 18.109375 46.390625 
Q 20.953125 51.265625 25.265625 53.625 
Q 29.59375 56 35.59375 56 
Q 45.5625 56 51.78125 48.09375 
Q 58.015625 40.1875 58.015625 27.296875 
Q 58.015625 14.40625 51.78125 6.484375 
Q 45.5625 -1.421875 35.59375 -1.421875 
Q 29.59375 -1.421875 25.265625 0.953125 
Q 20.953125 3.328125 18.109375 8.203125 
L 18.109375 0 
L 9.078125 0 
L 9.078125 75.984375 
L 18.109375 75.984375 
z
" id="BitstreamVeraSans-Roman-62"/>
     <path d="M 45.40625 27.984375 
Q 45.40625 37.75 41.375 43.109375 
Q 37.359375 48.484375 30.078125 48.484375 
Q 22.859375 48.484375 18.828125 43.109375 
Q 14.796875 37.75 14.796875 27.984375 
Q 14.796875 18.265625 18.828125 12.890625 
Q 22.859375 7.515625 30.078125 7.515625 
Q 37.359375 7.515625 41.375 12.890625 
Q 45.40625 18.265625 45.40625 27.984375 
M 54.390625 6.78125 
Q 54.390625 -7.171875 48.1875 -13.984375 
Q 42 -20.796875 29.203125 -20.796875 
Q 24.46875 -20.796875 20.265625 -20.09375 
Q 16.0625 -19.390625 12.109375 -17.921875 
L 12.109375 -9.1875 
Q 16.0625 -11.328125 19.921875 -12.34375 
Q 23.78125 -13.375 27.78125 -13.375 
Q 36.625 -13.375 41.015625 -8.765625 
Q 45.40625 -4.15625 45.40625 5.171875 
L 45.40625 9.625 
Q 42.625 4.78125 38.28125 2.390625 
Q 33.9375 0 27.875 0 
Q 17.828125 0 11.671875 7.65625 
Q 5.515625 15.328125 5.515625 27.984375 
Q 5.515625 40.671875 11.671875 48.328125 
Q 17.828125 56 27.875 56 
Q 33.9375 56 38.28125 53.609375 
Q 42.625 51.21875 45.40625 46.390625 
L 45.40625 54.6875 
L 54.390625 54.6875 
z
" id="BitstreamVeraSans-Roman-67"/>
    </defs>
    <g transform="translate(156.84175 18.14175)scale(0.144 -0.144)">
     <use xlink:href="#BitstreamVeraSans-Roman-53"/>
     <use x="63.4765625" xlink:href="#BitstreamVeraSans-Roman-74"/>
     <use x="102.685546875" xlink:href="#BitstreamVeraSans-Roman-64"/>
     <use x="166.162109375" xlink:href="#BitstreamVeraSans-Roman-20"/>
     <use x="197.94921875" xlink:href="#BitstreamVeraSans-Roman-50"/>
     <use x="258.189453125" xlink:href="#BitstreamVeraSans-Roman-61"/>
     <use x="319.46875" xlink:href="#BitstreamVeraSans-Roman-79"/>
     <use x="378.6484375" xlink:href="#BitstreamVeraSans-Roman-6f"/>
     <use x="439.830078125" xlink:href="#BitstreamVeraSans-Roman-66"/>
     <use x="475.03515625" xlink:href="#BitstreamVeraSans-Roman-66"/>
     <use x="510.240234375" xlink:href="#BitstreamVeraSans-Roman-73"/>
     <use x="562.33984375" xlink:href="#BitstreamVeraSans-Roman-2e"/>
     <use x="594.126953125" xlink:href="#BitstreamVeraSans-Roman-20"/>
     <use x="625.9140625" xlink:href="#BitstreamVeraSans-Roman-50"/>
     <use x="686.201171875" xlink:href="#BitstreamVeraSans-Roman-72"/>
     <use x="727.283203125" xlink:href="#BitstreamVeraSans-Roman-6f"/>
     <use x="788.46484375" xlink:href="#BitstreamVeraSans-Roman-62"/>
     <use x="851.94140625" xlink:href="#BitstreamVeraSans-Roman-20"/>
     <use x="883.728515625" xlink:href="#BitstreamVeraSans-Roman-65"/>
     <use x="945.251953125" xlink:href="#BitstreamVeraSans-Roman-6e"/>
     <use x="1008.630859375" xlink:href="#BitstreamVeraSans-Roman-64"/>
     <use x="1072.107421875" xlink:href="#BitstreamVeraSans-Roman-3a"/>
     <use x="1105.798828125" xlink:href="#BitstreamVeraSans-Roman-20"/>
     <use x="1137.5859375" xlink:href="#BitstreamVeraSans-Roman-30"/>
     <use x="1201.208984375" xlink:href="#BitstreamVeraSans-Roman-2e"/>
     <use x="1232.99609375" xlink:href="#BitstreamVeraSans-Roman-31"/>
     <use x="1296.619140625" xlink:href="#BitstreamVeraSans-Roman-2c"/>
     <use x="1328.40625" xlink:href="#BitstreamVeraSans-Roman-20"/>
     <use x="1360.193359375" xlink:href="#BitstreamVeraSans-Roman-52"/>
     <use x="1429.61328125" xlink:href="#BitstreamVeraSans-Roman-65"/>
     <use x="1491.13671875" xlink:href="#BitstreamVeraSans-Roman-70"/>
     <use x="1554.61328125" xlink:href="#BitstreamVeraSans-Roman-65"/>
     <use x="1616.13671875" xlink:href="#BitstreamVeraSans-Roman-74"/>
     <use x="1655.345703125" xlink:href="#BitstreamVeraSans-Roman-69"/>
     <use x="1683.12890625" xlink:href="#BitstreamVeraSans-Roman-74"/>
     <use x="1722.337890625" xlink:href="#BitstreamVeraSans-Roman-69"/>
     <use x="1750.12109375" xlink:href="#BitstreamVeraSans-Roman-6f"/>
     <use x="1811.302734375" xlink:href="#BitstreamVeraSans-Roman-6e"/>
     <use x="1874.681640625" xlink:href="#BitstreamVeraSans-Roman-73"/>
     <use x="1926.78125" xlink:href="#BitstreamVeraSans-Roman-3a"/>
     <use x="1960.47265625" xlink:href="#BitstreamVeraSans-Roman-20"/>
     <use x="1992.259765625" xlink:href="#BitstreamVeraSans-Roman-32"/>
     <use x="2055.8828125" xlink:href="#BitstreamVeraSans-Roman-2c"/>
     <use x="2087.669921875" xlink:href="#BitstreamVeraSans-Roman-20"/>
     <use x="2119.45703125" xlink:href="#BitstreamVeraSans-Roman-53"/>
     <use x="2182.93359375" xlink:href="#BitstreamVeraSans-Roman-74"/>
     <use x="2222.142578125" xlink:href="#BitstreamVeraSans-Roman-72"/>
     <use x="2263.255859375" xlink:href="#BitstreamVeraSans-Roman-61"/>
     <use x="2324.53515625" xlink:href="#BitstreamVeraSans-Roman-74"/>
     <use x="2363.744140625" xlink:href="#BitstreamVeraSans-Roman-65"/>
     <use x="2425.267578125" xlink:href="#BitstreamVeraSans-Roman-67"/>
     <use x="2488.744140625" xlink:href="#BitstreamVeraSans-Roman-69"/>
     <use x="2516.52734375" xlink:href="#BitstreamVeraSans-Roman-65"/>
     <use x="2578.05078125" xlink:href="#BitstreamVeraSans-Roman-73"/>
     <use x="2630.150390625" xlink:href="#BitstreamVeraSans-Roman-3a"/>
     <use x="2663.841796875" xlink:href="#BitstreamVeraSans-Roman-20"/>
     <use x="2695.62890625" xlink:href="#BitstreamVeraSans-Roman-38"/>
     <use x="2759.251953125" xlink:href="#BitstreamVeraSans-Roman-2e"/>
    </g>
   </g>
  </g>
 </g>
 <defs>
  <clipPath id="pd62589981f">
   <rect height="345.6" width="669.6" x="22.99375" y="23.14175"/>
  </clipPath>
 </defs>
</svg>
