<?xml version="1.0" encoding="utf-8" standalone="no"?>
<!DOCTYPE svg PUBLIC "-//W3C//DTD SVG 1.1//EN"
  "http://www.w3.org/Graphics/SVG/1.1/DTD/svg11.dtd">
<!-- Created with matplotlib (http://matplotlib.org/) -->
<svg height="465pt" version="1.1" viewBox="0 0 699 465" width="699pt" xmlns="http://www.w3.org/2000/svg" xmlns:xlink="http://www.w3.org/1999/xlink">
 <defs>
  <style type="text/css">
*{stroke-linecap:butt;stroke-linejoin:round;stroke-miterlimit:100000;}
  </style>
 </defs>
 <g id="figure_1">
  <g id="patch_1">
   <path d="M 0 465.868 
L 699.79375 465.868 
L 699.79375 0 
L 0 0 
z
" style="fill:#ffffff;"/>
  </g>
  <g id="axes_1">
   <g id="patch_2">
    <path d="M 22.99375 368.74175 
L 692.59375 368.74175 
L 692.59375 23.14175 
L 22.99375 23.14175 
z
" style="fill:#ffffff;"/>
   </g>
   <g id="PolyCollection_1">
    <defs>
     <path d="M 115.99375 -269.92625 
L 78.79375 -269.92625 
L 78.842727 -271.380795 
L 79.037498 -272.835341 
L 79.373397 -274.289886 
L 79.842479 -275.744432 
L 80.43382 -277.198977 
L 81.133924 -278.653523 
L 81.927206 -280.108068 
L 82.796545 -281.562614 
L 83.723854 -283.017159 
L 84.690662 -284.471705 
L 85.678664 -285.92625 
L 86.670215 -287.380795 
L 87.648766 -288.835341 
L 88.599199 -290.289886 
L 89.508085 -291.744432 
L 90.363833 -293.198977 
L 91.156753 -294.653523 
L 91.879033 -296.108068 
L 92.524644 -297.562614 
L 93.089196 -299.017159 
L 93.569745 -300.471705 
L 93.96459 -301.92625 
L 94.273067 -303.380795 
L 94.495351 -304.835341 
L 94.632293 -306.289886 
L 94.685291 -307.744432 
L 94.656206 -309.198977 
L 94.547328 -310.653523 
L 94.361385 -312.108068 
L 94.101594 -313.562614 
L 93.771743 -315.017159 
L 93.376301 -316.471705 
L 92.92053 -317.92625 
L 92.410598 -319.380795 
L 91.853662 -320.835341 
L 91.257935 -322.289886 
L 90.632688 -323.744432 
L 89.988214 -325.198977 
L 89.335716 -326.653523 
L 88.687147 -328.108068 
L 88.054975 -329.562614 
L 87.451901 -331.017159 
L 86.890529 -332.471705 
L 86.383004 -333.92625 
L 85.94064 -335.380795 
L 85.57355 -336.835341 
L 85.2903 -338.289886 
L 85.097602 -339.744432 
L 85.000076 -341.198977 
L 85.000076 -342.653523 
L 85.097602 -344.108068 
L 85.2903 -345.562614 
L 85.57355 -347.017159 
L 85.94064 -348.471705 
L 86.383004 -349.92625 
L 86.890529 -351.380795 
L 87.451901 -352.835341 
L 88.054975 -354.289886 
L 88.687147 -355.744432 
L 89.335716 -357.198977 
L 89.988214 -358.653523 
L 90.632688 -360.108068 
L 91.257935 -361.562614 
L 91.853662 -363.017159 
L 92.410598 -364.471705 
L 92.92053 -365.92625 
L 93.376301 -367.380795 
L 93.771743 -368.835341 
L 94.101594 -370.289886 
L 94.361385 -371.744432 
L 94.547328 -373.198977 
L 94.656206 -374.653523 
L 94.685291 -376.108068 
L 94.632293 -377.562614 
L 94.495351 -379.017159 
L 94.273067 -380.471705 
L 93.96459 -381.92625 
L 93.569745 -383.380795 
L 93.089196 -384.835341 
L 92.524644 -386.289886 
L 91.879033 -387.744432 
L 91.156753 -389.198977 
L 90.363833 -390.653523 
L 89.508085 -392.108068 
L 88.599199 -393.562614 
L 87.648766 -395.017159 
L 86.670215 -396.471705 
L 85.678664 -397.92625 
L 84.690662 -399.380795 
L 83.723854 -400.835341 
L 82.796545 -402.289886 
L 81.927206 -403.744432 
L 81.133924 -405.198977 
L 80.43382 -406.653523 
L 79.842479 -408.108068 
L 79.373397 -409.562614 
L 79.037498 -411.017159 
L 78.842727 -412.471705 
L 78.79375 -413.92625 
L 115.99375 -413.92625 
L 115.99375 -413.92625 
L 115.944773 -412.471705 
L 115.750002 -411.017159 
L 115.414103 -409.562614 
L 114.945021 -408.108068 
L 114.35368 -406.653523 
L 113.653576 -405.198977 
L 112.860294 -403.744432 
L 111.990955 -402.289886 
L 111.063646 -400.835341 
L 110.096838 -399.380795 
L 109.108836 -397.92625 
L 108.117285 -396.471705 
L 107.138734 -395.017159 
L 106.188301 -393.562614 
L 105.279415 -392.108068 
L 104.423667 -390.653523 
L 103.630747 -389.198977 
L 102.908467 -387.744432 
L 102.262856 -386.289886 
L 101.698304 -384.835341 
L 101.217755 -383.380795 
L 100.82291 -381.92625 
L 100.514433 -380.471705 
L 100.292149 -379.017159 
L 100.155207 -377.562614 
L 100.102209 -376.108068 
L 100.131294 -374.653523 
L 100.240172 -373.198977 
L 100.426115 -371.744432 
L 100.685906 -370.289886 
L 101.015757 -368.835341 
L 101.411199 -367.380795 
L 101.86697 -365.92625 
L 102.376902 -364.471705 
L 102.933838 -363.017159 
L 103.529565 -361.562614 
L 104.154812 -360.108068 
L 104.799286 -358.653523 
L 105.451784 -357.198977 
L 106.100353 -355.744432 
L 106.732525 -354.289886 
L 107.335599 -352.835341 
L 107.896971 -351.380795 
L 108.404496 -349.92625 
L 108.84686 -348.471705 
L 109.21395 -347.017159 
L 109.4972 -345.562614 
L 109.689898 -344.108068 
L 109.787424 -342.653523 
L 109.787424 -341.198977 
L 109.689898 -339.744432 
L 109.4972 -338.289886 
L 109.21395 -336.835341 
L 108.84686 -335.380795 
L 108.404496 -333.92625 
L 107.896971 -332.471705 
L 107.335599 -331.017159 
L 106.732525 -329.562614 
L 106.100353 -328.108068 
L 105.451784 -326.653523 
L 104.799286 -325.198977 
L 104.154812 -323.744432 
L 103.529565 -322.289886 
L 102.933838 -320.835341 
L 102.376902 -319.380795 
L 101.86697 -317.92625 
L 101.411199 -316.471705 
L 101.015757 -315.017159 
L 100.685906 -313.562614 
L 100.426115 -312.108068 
L 100.240172 -310.653523 
L 100.131294 -309.198977 
L 100.102209 -307.744432 
L 100.155207 -306.289886 
L 100.292149 -304.835341 
L 100.514433 -303.380795 
L 100.82291 -301.92625 
L 101.217755 -300.471705 
L 101.698304 -299.017159 
L 102.262856 -297.562614 
L 102.908467 -296.108068 
L 103.630747 -294.653523 
L 104.423667 -293.198977 
L 105.279415 -291.744432 
L 106.188301 -290.289886 
L 107.138734 -288.835341 
L 108.117285 -287.380795 
L 109.108836 -285.92625 
L 110.096838 -284.471705 
L 111.063646 -283.017159 
L 111.990955 -281.562614 
L 112.860294 -280.108068 
L 113.653576 -278.653523 
L 114.35368 -277.198977 
L 114.945021 -275.744432 
L 115.414103 -274.289886 
L 115.750002 -272.835341 
L 115.944773 -271.380795 
L 115.99375 -269.92625 
z
" id="md30b36d84c" style="stroke:#000000;stroke-opacity:0.3;"/>
    </defs>
    <g clip-path="url(#p073675894d)">
     <use style="fill:#bfbf00;fill-opacity:0.3;stroke:#000000;stroke-opacity:0.3;" x="0.0" xlink:href="#md30b36d84c" y="465.868"/>
    </g>
   </g>
   <g id="PolyCollection_2">
    <defs>
     <path d="M 176.316428 -126.64625 
L 167.271072 -126.64625 
L 167.3079 -129.548068 
L 167.416594 -132.449886 
L 167.59193 -135.351705 
L 167.825665 -138.253523 
L 168.107178 -141.155341 
L 168.42427 -144.057159 
L 168.764037 -146.958977 
L 169.113725 -149.860795 
L 169.461495 -152.762614 
L 169.79704 -155.664432 
L 170.112004 -158.56625 
L 170.400201 -161.468068 
L 170.657633 -164.369886 
L 170.882339 -167.271705 
L 171.074118 -170.173523 
L 171.234163 -173.075341 
L 171.364652 -175.977159 
L 171.468333 -178.878977 
L 171.54813 -181.780795 
L 171.606786 -184.682614 
L 171.646546 -187.584432 
L 171.668877 -190.48625 
L 171.674224 -193.388068 
L 171.661787 -196.289886 
L 171.629316 -199.191705 
L 171.572929 -202.093523 
L 171.486955 -204.995341 
L 171.36384 -207.897159 
L 171.194135 -210.798977 
L 170.966611 -213.700795 
L 170.668556 -216.602614 
L 170.286289 -219.504432 
L 169.805919 -222.40625 
L 169.214373 -225.308068 
L 168.500658 -228.209886 
L 167.657301 -231.111705 
L 166.68186 -234.013523 
L 165.57837 -236.915341 
L 164.358539 -239.817159 
L 163.042517 -242.718977 
L 161.659053 -245.620795 
L 160.244921 -248.522614 
L 158.843523 -251.424432 
L 157.502714 -254.32625 
L 156.271946 -257.228068 
L 155.198959 -260.129886 
L 154.326314 -263.031705 
L 153.688124 -265.933523 
L 153.307313 -268.835341 
L 153.19375 -271.737159 
L 153.343459 -274.638977 
L 153.739029 -277.540795 
L 154.351189 -280.442614 
L 155.141393 -283.344432 
L 156.065125 -286.24625 
L 157.075558 -289.148068 
L 158.127199 -292.049886 
L 159.179117 -294.951705 
L 160.197476 -297.853523 
L 161.157149 -300.755341 
L 162.04234 -303.657159 
L 162.846244 -306.558977 
L 163.569898 -309.460795 
L 164.220433 -312.362614 
L 164.808997 -315.264432 
L 165.348621 -318.16625 
L 165.852263 -321.068068 
L 166.331214 -323.969886 
L 166.793978 -326.871705 
L 167.245668 -329.773523 
L 167.687886 -332.675341 
L 168.118996 -335.577159 
L 168.534683 -338.478977 
L 168.928662 -341.380795 
L 169.293414 -344.282614 
L 169.620856 -347.184432 
L 169.902871 -350.08625 
L 170.131687 -352.988068 
L 170.300098 -355.889886 
L 170.401579 -358.791705 
L 170.430348 -361.693523 
L 170.381444 -364.595341 
L 170.250871 -367.497159 
L 170.035862 -370.398977 
L 169.735274 -373.300795 
L 169.350089 -376.202614 
L 168.88399 -379.104432 
L 168.343922 -382.00625 
L 167.740553 -384.908068 
L 167.088526 -387.809886 
L 166.406422 -390.711705 
L 165.716345 -393.613523 
L 165.043132 -396.515341 
L 164.413169 -399.417159 
L 163.852913 -402.318977 
L 163.38723 -405.220795 
L 163.037689 -408.122614 
L 162.821005 -411.024432 
L 162.747779 -413.92625 
L 180.839721 -413.92625 
L 180.839721 -413.92625 
L 180.766495 -411.024432 
L 180.549811 -408.122614 
L 180.20027 -405.220795 
L 179.734587 -402.318977 
L 179.174331 -399.417159 
L 178.544368 -396.515341 
L 177.871155 -393.613523 
L 177.181078 -390.711705 
L 176.498974 -387.809886 
L 175.846947 -384.908068 
L 175.243578 -382.00625 
L 174.70351 -379.104432 
L 174.237411 -376.202614 
L 173.852226 -373.300795 
L 173.551638 -370.398977 
L 173.336629 -367.497159 
L 173.206056 -364.595341 
L 173.157152 -361.693523 
L 173.185921 -358.791705 
L 173.287402 -355.889886 
L 173.455813 -352.988068 
L 173.684629 -350.08625 
L 173.966644 -347.184432 
L 174.294086 -344.282614 
L 174.658838 -341.380795 
L 175.052817 -338.478977 
L 175.468504 -335.577159 
L 175.899614 -332.675341 
L 176.341832 -329.773523 
L 176.793522 -326.871705 
L 177.256286 -323.969886 
L 177.735237 -321.068068 
L 178.238879 -318.16625 
L 178.778503 -315.264432 
L 179.367067 -312.362614 
L 180.017602 -309.460795 
L 180.741256 -306.558977 
L 181.54516 -303.657159 
L 182.430351 -300.755341 
L 183.390024 -297.853523 
L 184.408383 -294.951705 
L 185.460301 -292.049886 
L 186.511942 -289.148068 
L 187.522375 -286.24625 
L 188.446107 -283.344432 
L 189.236311 -280.442614 
L 189.848471 -277.540795 
L 190.244041 -274.638977 
L 190.39375 -271.737159 
L 190.280187 -268.835341 
L 189.899376 -265.933523 
L 189.261186 -263.031705 
L 188.388541 -260.129886 
L 187.315554 -257.228068 
L 186.084786 -254.32625 
L 184.743977 -251.424432 
L 183.342579 -248.522614 
L 181.928447 -245.620795 
L 180.544983 -242.718977 
L 179.228961 -239.817159 
L 178.00913 -236.915341 
L 176.90564 -234.013523 
L 175.930199 -231.111705 
L 175.086842 -228.209886 
L 174.373127 -225.308068 
L 173.781581 -222.40625 
L 173.301211 -219.504432 
L 172.918944 -216.602614 
L 172.620889 -213.700795 
L 172.393365 -210.798977 
L 172.22366 -207.897159 
L 172.100545 -204.995341 
L 172.014571 -202.093523 
L 171.958184 -199.191705 
L 171.925713 -196.289886 
L 171.913276 -193.388068 
L 171.918623 -190.48625 
L 171.940954 -187.584432 
L 171.980714 -184.682614 
L 172.03937 -181.780795 
L 172.119167 -178.878977 
L 172.222848 -175.977159 
L 172.353337 -173.075341 
L 172.513382 -170.173523 
L 172.705161 -167.271705 
L 172.929867 -164.369886 
L 173.187299 -161.468068 
L 173.475496 -158.56625 
L 173.79046 -155.664432 
L 174.126005 -152.762614 
L 174.473775 -149.860795 
L 174.823463 -146.958977 
L 175.16323 -144.057159 
L 175.480322 -141.155341 
L 175.761835 -138.253523 
L 175.99557 -135.351705 
L 176.170906 -132.449886 
L 176.2796 -129.548068 
L 176.316428 -126.64625 
z
" id="m3be03e4521" style="stroke:#000000;stroke-opacity:0.3;"/>
    </defs>
    <g clip-path="url(#p073675894d)">
     <use style="fill:#bfbf00;fill-opacity:0.3;stroke:#000000;stroke-opacity:0.3;" x="0.0" xlink:href="#m3be03e4521" y="465.868"/>
    </g>
   </g>
   <g id="PolyCollection_3">
    <defs>
     <path d="M 252.39375 -269.20625 
L 239.99375 -269.20625 
L 240.018124 -269.213523 
L 240.090673 -269.220795 
L 240.209698 -269.228068 
L 240.372445 -269.235341 
L 240.575203 -269.242614 
L 240.813453 -269.249886 
L 241.08203 -269.257159 
L 241.37531 -269.264432 
L 241.687405 -269.271705 
L 242.012356 -269.278977 
L 242.344322 -269.28625 
L 242.677741 -269.293523 
L 243.007482 -269.300795 
L 243.328957 -269.308068 
L 243.638209 -269.315341 
L 243.931967 -269.322614 
L 244.207666 -269.329886 
L 244.463444 -269.337159 
L 244.698111 -269.344432 
L 244.911097 -269.351705 
L 245.102384 -269.358977 
L 245.272431 -269.36625 
L 245.422086 -269.373523 
L 245.552504 -269.380795 
L 245.665061 -269.388068 
L 245.761282 -269.395341 
L 245.842766 -269.402614 
L 245.911133 -269.409886 
L 245.967969 -269.417159 
L 246.01479 -269.424432 
L 246.053014 -269.431705 
L 246.083943 -269.438977 
L 246.108747 -269.44625 
L 246.128464 -269.453523 
L 246.144 -269.460795 
L 246.156136 -269.468068 
L 246.165533 -269.475341 
L 246.172746 -269.482614 
L 246.178234 -269.489886 
L 246.182372 -269.497159 
L 246.185463 -269.504432 
L 246.187746 -269.511705 
L 246.189411 -269.518977 
L 246.190602 -269.52625 
L 246.19143 -269.533523 
L 246.191971 -269.540795 
L 246.192278 -269.548068 
L 246.19238 -269.555341 
L 246.192282 -269.562614 
L 246.19197 -269.569886 
L 246.191401 -269.577159 
L 246.190509 -269.584432 
L 246.18919 -269.591705 
L 246.187299 -269.598977 
L 246.184639 -269.60625 
L 246.180947 -269.613523 
L 246.175875 -269.620795 
L 246.168975 -269.628068 
L 246.159672 -269.635341 
L 246.147238 -269.642614 
L 246.13076 -269.649886 
L 246.109112 -269.657159 
L 246.080916 -269.664432 
L 246.044505 -269.671705 
L 245.997894 -269.678977 
L 245.938742 -269.68625 
L 245.86433 -269.693523 
L 245.771544 -269.700795 
L 245.65687 -269.708068 
L 245.516406 -269.715341 
L 245.3459 -269.722614 
L 245.140799 -269.729886 
L 244.896345 -269.737159 
L 244.607683 -269.744432 
L 244.270011 -269.751705 
L 243.878759 -269.758977 
L 243.429794 -269.76625 
L 242.919653 -269.773523 
L 242.345791 -269.780795 
L 241.706833 -269.788068 
L 241.002833 -269.795341 
L 240.235498 -269.802614 
L 239.408402 -269.809886 
L 238.527128 -269.817159 
L 237.599371 -269.824432 
L 236.634945 -269.831705 
L 235.645723 -269.838977 
L 234.645465 -269.84625 
L 233.649569 -269.853523 
L 232.674714 -269.860795 
L 231.738429 -269.868068 
L 230.858589 -269.875341 
L 230.052858 -269.882614 
L 229.338108 -269.889886 
L 228.729834 -269.897159 
L 228.241595 -269.904432 
L 227.884518 -269.911705 
L 227.666872 -269.918977 
L 227.59375 -269.92625 
L 264.79375 -269.92625 
L 264.79375 -269.92625 
L 264.720628 -269.918977 
L 264.502982 -269.911705 
L 264.145905 -269.904432 
L 263.657666 -269.897159 
L 263.049392 -269.889886 
L 262.334642 -269.882614 
L 261.528911 -269.875341 
L 260.649071 -269.868068 
L 259.712786 -269.860795 
L 258.737931 -269.853523 
L 257.742035 -269.84625 
L 256.741777 -269.838977 
L 255.752555 -269.831705 
L 254.788129 -269.824432 
L 253.860372 -269.817159 
L 252.979098 -269.809886 
L 252.152002 -269.802614 
L 251.384667 -269.795341 
L 250.680667 -269.788068 
L 250.041709 -269.780795 
L 249.467847 -269.773523 
L 248.957706 -269.76625 
L 248.508741 -269.758977 
L 248.117489 -269.751705 
L 247.779817 -269.744432 
L 247.491155 -269.737159 
L 247.246701 -269.729886 
L 247.0416 -269.722614 
L 246.871094 -269.715341 
L 246.73063 -269.708068 
L 246.615956 -269.700795 
L 246.52317 -269.693523 
L 246.448758 -269.68625 
L 246.389606 -269.678977 
L 246.342995 -269.671705 
L 246.306584 -269.664432 
L 246.278388 -269.657159 
L 246.25674 -269.649886 
L 246.240262 -269.642614 
L 246.227828 -269.635341 
L 246.218525 -269.628068 
L 246.211625 -269.620795 
L 246.206553 -269.613523 
L 246.202861 -269.60625 
L 246.200201 -269.598977 
L 246.19831 -269.591705 
L 246.196991 -269.584432 
L 246.196099 -269.577159 
L 246.19553 -269.569886 
L 246.195218 -269.562614 
L 246.19512 -269.555341 
L 246.195222 -269.548068 
L 246.195529 -269.540795 
L 246.19607 -269.533523 
L 246.196898 -269.52625 
L 246.198089 -269.518977 
L 246.199754 -269.511705 
L 246.202037 -269.504432 
L 246.205128 -269.497159 
L 246.209266 -269.489886 
L 246.214754 -269.482614 
L 246.221967 -269.475341 
L 246.231364 -269.468068 
L 246.2435 -269.460795 
L 246.259036 -269.453523 
L 246.278753 -269.44625 
L 246.303557 -269.438977 
L 246.334486 -269.431705 
L 246.37271 -269.424432 
L 246.419531 -269.417159 
L 246.476367 -269.409886 
L 246.544734 -269.402614 
L 246.626218 -269.395341 
L 246.722439 -269.388068 
L 246.834996 -269.380795 
L 246.965414 -269.373523 
L 247.115069 -269.36625 
L 247.285116 -269.358977 
L 247.476403 -269.351705 
L 247.689389 -269.344432 
L 247.924056 -269.337159 
L 248.179834 -269.329886 
L 248.455533 -269.322614 
L 248.749291 -269.315341 
L 249.058543 -269.308068 
L 249.380018 -269.300795 
L 249.709759 -269.293523 
L 250.043178 -269.28625 
L 250.375144 -269.278977 
L 250.700095 -269.271705 
L 251.01219 -269.264432 
L 251.30547 -269.257159 
L 251.574047 -269.249886 
L 251.812297 -269.242614 
L 252.015055 -269.235341 
L 252.177802 -269.228068 
L 252.296827 -269.220795 
L 252.369376 -269.213523 
L 252.39375 -269.20625 
z
" id="m608dd85a79" style="stroke:#000000;stroke-opacity:0.3;"/>
    </defs>
    <g clip-path="url(#p073675894d)">
     <use style="fill:#bfbf00;fill-opacity:0.3;stroke:#000000;stroke-opacity:0.3;" x="0.0" xlink:href="#m608dd85a79" y="465.868"/>
    </g>
   </g>
   <g id="PolyCollection_4">
    <defs>
     <path d="M 323.705902 -197.92625 
L 317.481598 -197.92625 
L 317.518154 -199.380795 
L 317.625268 -200.835341 
L 317.795565 -202.289886 
L 318.017695 -203.744432 
L 318.277579 -205.198977 
L 318.559881 -206.653523 
L 318.849486 -208.108068 
L 319.132791 -209.562614 
L 319.398659 -211.017159 
L 319.638976 -212.471705 
L 319.848783 -213.92625 
L 320.026061 -215.380795 
L 320.171254 -216.835341 
L 320.286653 -218.289886 
L 320.375739 -219.744432 
L 320.44258 -221.198977 
L 320.491342 -222.653523 
L 320.525922 -224.108068 
L 320.549722 -225.562614 
L 320.56553 -227.017159 
L 320.575476 -228.471705 
L 320.581035 -229.92625 
L 320.583025 -231.380795 
L 320.581587 -232.835341 
L 320.576098 -234.289886 
L 320.565003 -235.744432 
L 320.54555 -237.198977 
L 320.51342 -238.653523 
L 320.462262 -240.108068 
L 320.383172 -241.562614 
L 320.264191 -243.017159 
L 320.089923 -244.471705 
L 319.841418 -245.92625 
L 319.49651 -247.380795 
L 319.030774 -248.835341 
L 318.419247 -250.289886 
L 317.638973 -251.744432 
L 316.672307 -253.198977 
L 315.510707 -254.653523 
L 314.158608 -256.108068 
L 312.636755 -257.562614 
L 310.984342 -259.017159 
L 309.259293 -260.471705 
L 307.536211 -261.92625 
L 305.90183 -263.380795 
L 304.44822 -264.835341 
L 303.264386 -266.289886 
L 302.427324 -267.744432 
L 301.99375 -269.198977 
L 301.99375 -270.653523 
L 302.427324 -272.108068 
L 303.264386 -273.562614 
L 304.44822 -275.017159 
L 305.90183 -276.471705 
L 307.536211 -277.92625 
L 309.259293 -279.380795 
L 310.984342 -280.835341 
L 312.636755 -282.289886 
L 314.158608 -283.744432 
L 315.510707 -285.198977 
L 316.672307 -286.653523 
L 317.638973 -288.108068 
L 318.419247 -289.562614 
L 319.030774 -291.017159 
L 319.49651 -292.471705 
L 319.841418 -293.92625 
L 320.089923 -295.380795 
L 320.264191 -296.835341 
L 320.383172 -298.289886 
L 320.462262 -299.744432 
L 320.51342 -301.198977 
L 320.54555 -302.653523 
L 320.565003 -304.108068 
L 320.576098 -305.562614 
L 320.581587 -307.017159 
L 320.583025 -308.471705 
L 320.581035 -309.92625 
L 320.575476 -311.380795 
L 320.56553 -312.835341 
L 320.549722 -314.289886 
L 320.525922 -315.744432 
L 320.491342 -317.198977 
L 320.44258 -318.653523 
L 320.375739 -320.108068 
L 320.286653 -321.562614 
L 320.171254 -323.017159 
L 320.026061 -324.471705 
L 319.848783 -325.92625 
L 319.638976 -327.380795 
L 319.398659 -328.835341 
L 319.132791 -330.289886 
L 318.849486 -331.744432 
L 318.559881 -333.198977 
L 318.277579 -334.653523 
L 318.017695 -336.108068 
L 317.795565 -337.562614 
L 317.625268 -339.017159 
L 317.518154 -340.471705 
L 317.481598 -341.92625 
L 323.705902 -341.92625 
L 323.705902 -341.92625 
L 323.669346 -340.471705 
L 323.562232 -339.017159 
L 323.391935 -337.562614 
L 323.169805 -336.108068 
L 322.909921 -334.653523 
L 322.627619 -333.198977 
L 322.338014 -331.744432 
L 322.054709 -330.289886 
L 321.788841 -328.835341 
L 321.548524 -327.380795 
L 321.338717 -325.92625 
L 321.161439 -324.471705 
L 321.016246 -323.017159 
L 320.900847 -321.562614 
L 320.811761 -320.108068 
L 320.74492 -318.653523 
L 320.696158 -317.198977 
L 320.661578 -315.744432 
L 320.637778 -314.289886 
L 320.62197 -312.835341 
L 320.612024 -311.380795 
L 320.606465 -309.92625 
L 320.604475 -308.471705 
L 320.605913 -307.017159 
L 320.611402 -305.562614 
L 320.622497 -304.108068 
L 320.64195 -302.653523 
L 320.67408 -301.198977 
L 320.725238 -299.744432 
L 320.804328 -298.289886 
L 320.923309 -296.835341 
L 321.097577 -295.380795 
L 321.346082 -293.92625 
L 321.69099 -292.471705 
L 322.156726 -291.017159 
L 322.768253 -289.562614 
L 323.548527 -288.108068 
L 324.515193 -286.653523 
L 325.676793 -285.198977 
L 327.028892 -283.744432 
L 328.550745 -282.289886 
L 330.203158 -280.835341 
L 331.928207 -279.380795 
L 333.651289 -277.92625 
L 335.28567 -276.471705 
L 336.73928 -275.017159 
L 337.923114 -273.562614 
L 338.760176 -272.108068 
L 339.19375 -270.653523 
L 339.19375 -269.198977 
L 338.760176 -267.744432 
L 337.923114 -266.289886 
L 336.73928 -264.835341 
L 335.28567 -263.380795 
L 333.651289 -261.92625 
L 331.928207 -260.471705 
L 330.203158 -259.017159 
L 328.550745 -257.562614 
L 327.028892 -256.108068 
L 325.676793 -254.653523 
L 324.515193 -253.198977 
L 323.548527 -251.744432 
L 322.768253 -250.289886 
L 322.156726 -248.835341 
L 321.69099 -247.380795 
L 321.346082 -245.92625 
L 321.097577 -244.471705 
L 320.923309 -243.017159 
L 320.804328 -241.562614 
L 320.725238 -240.108068 
L 320.67408 -238.653523 
L 320.64195 -237.198977 
L 320.622497 -235.744432 
L 320.611402 -234.289886 
L 320.605913 -232.835341 
L 320.604475 -231.380795 
L 320.606465 -229.92625 
L 320.612024 -228.471705 
L 320.62197 -227.017159 
L 320.637778 -225.562614 
L 320.661578 -224.108068 
L 320.696158 -222.653523 
L 320.74492 -221.198977 
L 320.811761 -219.744432 
L 320.900847 -218.289886 
L 321.016246 -216.835341 
L 321.161439 -215.380795 
L 321.338717 -213.92625 
L 321.548524 -212.471705 
L 321.788841 -211.017159 
L 322.054709 -209.562614 
L 322.338014 -208.108068 
L 322.627619 -206.653523 
L 322.909921 -205.198977 
L 323.169805 -203.744432 
L 323.391935 -202.289886 
L 323.562232 -200.835341 
L 323.669346 -199.380795 
L 323.705902 -197.92625 
z
" id="mf3ef17dfe5" style="stroke:#000000;stroke-opacity:0.3;"/>
    </defs>
    <g clip-path="url(#p073675894d)">
     <use style="fill:#bfbf00;fill-opacity:0.3;stroke:#000000;stroke-opacity:0.3;" x="0.0" xlink:href="#mf3ef17dfe5" y="465.868"/>
    </g>
   </g>
   <g id="PolyCollection_5">
    <defs>
     <path d="M 413.59375 -269.92625 
L 376.39375 -269.92625 
L 376.518926 -269.933523 
L 376.889423 -269.940795 
L 377.49048 -269.948068 
L 378.298585 -269.955341 
L 379.282998 -269.962614 
L 380.407692 -269.969886 
L 381.63353 -269.977159 
L 382.920505 -269.984432 
L 384.229862 -269.991705 
L 385.525951 -269.998977 
L 386.77769 -270.00625 
L 387.95958 -270.013523 
L 389.052239 -270.020795 
L 390.042491 -270.028068 
L 390.92305 -270.035341 
L 391.6919 -270.042614 
L 392.351462 -270.049886 
L 392.907637 -270.057159 
L 393.368837 -270.064432 
L 393.745053 -270.071705 
L 394.047036 -270.078977 
L 394.285616 -270.08625 
L 394.471177 -270.093523 
L 394.613287 -270.100795 
L 394.720467 -270.108068 
L 394.800086 -270.115341 
L 394.85835 -270.122614 
L 394.900355 -270.129886 
L 394.930193 -270.137159 
L 394.951079 -270.144432 
L 394.965485 -270.151705 
L 394.975279 -270.158977 
L 394.981841 -270.16625 
L 394.986175 -270.173523 
L 394.988996 -270.180795 
L 394.990807 -270.188068 
L 394.991952 -270.195341 
L 394.992667 -270.202614 
L 394.993106 -270.209886 
L 394.993372 -270.217159 
L 394.993531 -270.224432 
L 394.993625 -270.231705 
L 394.99368 -270.238977 
L 394.993711 -270.24625 
L 394.993729 -270.253523 
L 394.993738 -270.260795 
L 394.993744 -270.268068 
L 394.993747 -270.275341 
L 394.993748 -270.282614 
L 394.993749 -270.289886 
L 394.993749 -270.297159 
L 394.993749 -270.304432 
L 394.993748 -270.311705 
L 394.993747 -270.318977 
L 394.993744 -270.32625 
L 394.99374 -270.333523 
L 394.993732 -270.340795 
L 394.993719 -270.348068 
L 394.993696 -270.355341 
L 394.993658 -270.362614 
L 394.993595 -270.369886 
L 394.993493 -270.377159 
L 394.99333 -270.384432 
L 394.993071 -270.391705 
L 394.992668 -270.398977 
L 394.992049 -270.40625 
L 394.991111 -270.413523 
L 394.989712 -270.420795 
L 394.987654 -270.428068 
L 394.98467 -270.435341 
L 394.980408 -270.442614 
L 394.974407 -270.449886 
L 394.966084 -270.457159 
L 394.95471 -270.464432 
L 394.939398 -270.471705 
L 394.919097 -270.478977 
L 394.892588 -270.48625 
L 394.858505 -270.493523 
L 394.815365 -270.500795 
L 394.76162 -270.508068 
L 394.695734 -270.515341 
L 394.61628 -270.522614 
L 394.522057 -270.529886 
L 394.412221 -270.537159 
L 394.286427 -270.544432 
L 394.144963 -270.551705 
L 393.988869 -270.558977 
L 393.820027 -270.56625 
L 393.641207 -270.573523 
L 393.456052 -270.580795 
L 393.269001 -270.588068 
L 393.085147 -270.595341 
L 392.910027 -270.602614 
L 392.749357 -270.609886 
L 392.608726 -270.617159 
L 392.493283 -270.624432 
L 392.407418 -270.631705 
L 392.354489 -270.638977 
L 392.336607 -270.64625 
L 397.650893 -270.64625 
L 397.650893 -270.64625 
L 397.633011 -270.638977 
L 397.580082 -270.631705 
L 397.494217 -270.624432 
L 397.378774 -270.617159 
L 397.238143 -270.609886 
L 397.077473 -270.602614 
L 396.902353 -270.595341 
L 396.718499 -270.588068 
L 396.531448 -270.580795 
L 396.346293 -270.573523 
L 396.167473 -270.56625 
L 395.998631 -270.558977 
L 395.842537 -270.551705 
L 395.701073 -270.544432 
L 395.575279 -270.537159 
L 395.465443 -270.529886 
L 395.37122 -270.522614 
L 395.291766 -270.515341 
L 395.22588 -270.508068 
L 395.172135 -270.500795 
L 395.128995 -270.493523 
L 395.094912 -270.48625 
L 395.068403 -270.478977 
L 395.048102 -270.471705 
L 395.03279 -270.464432 
L 395.021416 -270.457159 
L 395.013093 -270.449886 
L 395.007092 -270.442614 
L 395.00283 -270.435341 
L 394.999846 -270.428068 
L 394.997788 -270.420795 
L 394.996389 -270.413523 
L 394.995451 -270.40625 
L 394.994832 -270.398977 
L 394.994429 -270.391705 
L 394.99417 -270.384432 
L 394.994007 -270.377159 
L 394.993905 -270.369886 
L 394.993842 -270.362614 
L 394.993804 -270.355341 
L 394.993781 -270.348068 
L 394.993768 -270.340795 
L 394.99376 -270.333523 
L 394.993756 -270.32625 
L 394.993753 -270.318977 
L 394.993752 -270.311705 
L 394.993751 -270.304432 
L 394.993751 -270.297159 
L 394.993751 -270.289886 
L 394.993752 -270.282614 
L 394.993753 -270.275341 
L 394.993756 -270.268068 
L 394.993762 -270.260795 
L 394.993771 -270.253523 
L 394.993789 -270.24625 
L 394.99382 -270.238977 
L 394.993875 -270.231705 
L 394.993969 -270.224432 
L 394.994128 -270.217159 
L 394.994394 -270.209886 
L 394.994833 -270.202614 
L 394.995548 -270.195341 
L 394.996693 -270.188068 
L 394.998504 -270.180795 
L 395.001325 -270.173523 
L 395.005659 -270.16625 
L 395.012221 -270.158977 
L 395.022015 -270.151705 
L 395.036421 -270.144432 
L 395.057307 -270.137159 
L 395.087145 -270.129886 
L 395.12915 -270.122614 
L 395.187414 -270.115341 
L 395.267033 -270.108068 
L 395.374213 -270.100795 
L 395.516323 -270.093523 
L 395.701884 -270.08625 
L 395.940464 -270.078977 
L 396.242447 -270.071705 
L 396.618663 -270.064432 
L 397.079863 -270.057159 
L 397.636038 -270.049886 
L 398.2956 -270.042614 
L 399.06445 -270.035341 
L 399.945009 -270.028068 
L 400.935261 -270.020795 
L 402.02792 -270.013523 
L 403.20981 -270.00625 
L 404.461549 -269.998977 
L 405.757638 -269.991705 
L 407.066995 -269.984432 
L 408.35397 -269.977159 
L 409.579808 -269.969886 
L 410.704502 -269.962614 
L 411.688915 -269.955341 
L 412.49702 -269.948068 
L 413.098077 -269.940795 
L 413.468574 -269.933523 
L 413.59375 -269.92625 
z
" id="meee0387198" style="stroke:#000000;stroke-opacity:0.3;"/>
    </defs>
    <g clip-path="url(#p073675894d)">
     <use style="fill:#bfbf00;fill-opacity:0.3;stroke:#000000;stroke-opacity:0.3;" x="0.0" xlink:href="#meee0387198" y="465.868"/>
    </g>
   </g>
   <g id="PolyCollection_6">
    <defs>
     <path d="M 478.409933 -125.92625 
L 460.377567 -125.92625 
L 460.446904 -128.828068 
L 460.651732 -131.729886 
L 460.982745 -134.631705 
L 461.425213 -137.533523 
L 461.96007 -140.435341 
L 462.565275 -143.337159 
L 463.217309 -146.238977 
L 463.892669 -149.140795 
L 464.569236 -152.042614 
L 465.227392 -154.944432 
L 465.850839 -157.84625 
L 466.427061 -160.748068 
L 466.947462 -163.649886 
L 467.407197 -166.551705 
L 467.804755 -169.453523 
L 468.14139 -172.355341 
L 468.420436 -175.257159 
L 468.646611 -178.158977 
L 468.825328 -181.060795 
L 468.962086 -183.962614 
L 469.061924 -186.864432 
L 469.128983 -189.76625 
L 469.166133 -192.668068 
L 469.174694 -195.569886 
L 469.154217 -198.471705 
L 469.10232 -201.373523 
L 469.014601 -204.275341 
L 468.884622 -207.177159 
L 468.70399 -210.078977 
L 468.462573 -212.980795 
L 468.148874 -215.882614 
L 467.750596 -218.784432 
L 467.255422 -221.68625 
L 466.651996 -224.588068 
L 465.931092 -227.489886 
L 465.086901 -230.391705 
L 464.118351 -233.293523 
L 463.030332 -236.195341 
L 461.834678 -239.097159 
L 460.550762 -241.998977 
L 459.205563 -244.900795 
L 457.833099 -247.802614 
L 456.473179 -250.704432 
L 455.169492 -253.60625 
L 453.967148 -256.508068 
L 452.909823 -259.409886 
L 452.036788 -262.311705 
L 451.380067 -265.213523 
L 450.962043 -268.115341 
L 450.79375 -271.017159 
L 450.874063 -273.918977 
L 451.189876 -276.820795 
L 451.717271 -279.722614 
L 452.423557 -282.624432 
L 453.269971 -285.52625 
L 454.214759 -288.428068 
L 455.216313 -291.329886 
L 456.236063 -294.231705 
L 457.240852 -297.133523 
L 458.2046 -300.035341 
L 459.109148 -302.937159 
L 459.9443 -305.838977 
L 460.707115 -308.740795 
L 461.400645 -311.642614 
L 462.032292 -314.544432 
L 462.612025 -317.44625 
L 463.150655 -320.348068 
L 463.65834 -323.249886 
L 464.143446 -326.151705 
L 464.611819 -329.053523 
L 465.066477 -331.955341 
L 465.507672 -334.857159 
L 465.933247 -337.758977 
L 466.339179 -340.660795 
L 466.720215 -343.562614 
L 467.070509 -346.464432 
L 467.384178 -349.36625 
L 467.655749 -352.268068 
L 467.880468 -355.169886 
L 468.054491 -358.071705 
L 468.174978 -360.973523 
L 468.240117 -363.875341 
L 468.249149 -366.777159 
L 468.202381 -369.678977 
L 468.101253 -372.580795 
L 467.948436 -375.482614 
L 467.747954 -378.384432 
L 467.50532 -381.28625 
L 467.227628 -384.188068 
L 466.923578 -387.089886 
L 466.603389 -389.991705 
L 466.278568 -392.893523 
L 465.961538 -395.795341 
L 465.66511 -398.697159 
L 465.401853 -401.598977 
L 465.183392 -404.500795 
L 465.019697 -407.402614 
L 464.918448 -410.304432 
L 464.884517 -413.20625 
L 473.902983 -413.20625 
L 473.902983 -413.20625 
L 473.869052 -410.304432 
L 473.767803 -407.402614 
L 473.604108 -404.500795 
L 473.385647 -401.598977 
L 473.12239 -398.697159 
L 472.825962 -395.795341 
L 472.508932 -392.893523 
L 472.184111 -389.991705 
L 471.863922 -387.089886 
L 471.559872 -384.188068 
L 471.28218 -381.28625 
L 471.039546 -378.384432 
L 470.839064 -375.482614 
L 470.686247 -372.580795 
L 470.585119 -369.678977 
L 470.538351 -366.777159 
L 470.547383 -363.875341 
L 470.612522 -360.973523 
L 470.733009 -358.071705 
L 470.907032 -355.169886 
L 471.131751 -352.268068 
L 471.403322 -349.36625 
L 471.716991 -346.464432 
L 472.067285 -343.562614 
L 472.448321 -340.660795 
L 472.854253 -337.758977 
L 473.279828 -334.857159 
L 473.721023 -331.955341 
L 474.175681 -329.053523 
L 474.644054 -326.151705 
L 475.12916 -323.249886 
L 475.636845 -320.348068 
L 476.175475 -317.44625 
L 476.755208 -314.544432 
L 477.386855 -311.642614 
L 478.080385 -308.740795 
L 478.8432 -305.838977 
L 479.678352 -302.937159 
L 480.5829 -300.035341 
L 481.546648 -297.133523 
L 482.551437 -294.231705 
L 483.571187 -291.329886 
L 484.572741 -288.428068 
L 485.517529 -285.52625 
L 486.363943 -282.624432 
L 487.070229 -279.722614 
L 487.597624 -276.820795 
L 487.913437 -273.918977 
L 487.99375 -271.017159 
L 487.825457 -268.115341 
L 487.407433 -265.213523 
L 486.750712 -262.311705 
L 485.877677 -259.409886 
L 484.820352 -256.508068 
L 483.618008 -253.60625 
L 482.314321 -250.704432 
L 480.954401 -247.802614 
L 479.581937 -244.900795 
L 478.236738 -241.998977 
L 476.952822 -239.097159 
L 475.757168 -236.195341 
L 474.669149 -233.293523 
L 473.700599 -230.391705 
L 472.856408 -227.489886 
L 472.135504 -224.588068 
L 471.532078 -221.68625 
L 471.036904 -218.784432 
L 470.638626 -215.882614 
L 470.324927 -212.980795 
L 470.08351 -210.078977 
L 469.902878 -207.177159 
L 469.772899 -204.275341 
L 469.68518 -201.373523 
L 469.633283 -198.471705 
L 469.612806 -195.569886 
L 469.621367 -192.668068 
L 469.658517 -189.76625 
L 469.725576 -186.864432 
L 469.825414 -183.962614 
L 469.962172 -181.060795 
L 470.140889 -178.158977 
L 470.367064 -175.257159 
L 470.64611 -172.355341 
L 470.982745 -169.453523 
L 471.380303 -166.551705 
L 471.840038 -163.649886 
L 472.360439 -160.748068 
L 472.936661 -157.84625 
L 473.560108 -154.944432 
L 474.218264 -152.042614 
L 474.894831 -149.140795 
L 475.570191 -146.238977 
L 476.222225 -143.337159 
L 476.82743 -140.435341 
L 477.362287 -137.533523 
L 477.804755 -134.631705 
L 478.135768 -131.729886 
L 478.340596 -128.828068 
L 478.409933 -125.92625 
z
" id="m4652e6bbae" style="stroke:#000000;stroke-opacity:0.3;"/>
    </defs>
    <g clip-path="url(#p073675894d)">
     <use style="fill:#bfbf00;fill-opacity:0.3;stroke:#000000;stroke-opacity:0.3;" x="0.0" xlink:href="#m4652e6bbae" y="465.868"/>
    </g>
   </g>
   <g id="PolyCollection_7">
    <defs>
     <path d="M 547.554896 -197.92625 
L 540.032604 -197.92625 
L 540.035535 -198.653523 
L 540.06926 -199.380795 
L 540.130971 -200.108068 
L 540.216684 -200.835341 
L 540.32134 -201.562614 
L 540.438958 -202.289886 
L 540.562828 -203.017159 
L 540.685735 -203.744432 
L 540.800202 -204.471705 
L 540.89875 -205.198977 
L 540.974162 -205.92625 
L 541.019745 -206.653523 
L 541.02958 -207.380795 
L 540.998759 -208.108068 
L 540.923593 -208.835341 
L 540.801798 -209.562614 
L 540.632637 -210.289886 
L 540.417026 -211.017159 
L 540.157591 -211.744432 
L 539.858663 -212.471705 
L 539.526221 -213.198977 
L 539.167767 -213.92625 
L 538.792129 -214.653523 
L 538.409216 -215.380795 
L 538.029691 -216.108068 
L 537.664617 -216.835341 
L 537.325051 -217.562614 
L 537.021626 -218.289886 
L 536.764134 -219.017159 
L 536.561129 -219.744432 
L 536.419581 -220.471705 
L 536.34459 -221.198977 
L 536.339182 -221.92625 
L 536.404203 -222.653523 
L 536.538316 -223.380795 
L 536.738091 -224.108068 
L 536.998203 -224.835341 
L 537.311699 -225.562614 
L 537.670341 -226.289886 
L 538.064989 -227.017159 
L 538.486001 -227.744432 
L 538.923637 -228.471705 
L 539.368433 -229.198977 
L 539.811534 -229.92625 
L 540.244969 -230.653523 
L 540.661857 -231.380795 
L 541.056541 -232.108068 
L 541.424652 -232.835341 
L 541.763105 -233.562614 
L 542.070037 -234.289886 
L 542.3447 -235.017159 
L 542.587312 -235.744432 
L 542.798898 -236.471705 
L 542.981107 -237.198977 
L 543.136038 -237.92625 
L 543.266074 -238.653523 
L 543.373722 -239.380795 
L 543.461482 -240.108068 
L 543.531726 -240.835341 
L 543.586605 -241.562614 
L 543.627966 -242.289886 
L 543.657286 -243.017159 
L 543.675617 -243.744432 
L 543.683544 -244.471705 
L 543.681134 -245.198977 
L 543.667906 -245.92625 
L 543.642782 -246.653523 
L 543.604059 -247.380795 
L 543.54937 -248.108068 
L 543.475662 -248.835341 
L 543.379178 -249.562614 
L 543.255469 -250.289886 
L 543.099422 -251.017159 
L 542.905333 -251.744432 
L 542.667014 -252.471705 
L 542.37796 -253.198977 
L 542.031566 -253.92625 
L 541.621404 -254.653523 
L 541.141551 -255.380795 
L 540.586973 -256.108068 
L 539.953941 -256.835341 
L 539.240464 -257.562614 
L 538.446719 -258.289886 
L 537.575446 -259.017159 
L 536.632282 -259.744432 
L 535.625993 -260.471705 
L 534.568588 -261.198977 
L 533.475273 -261.92625 
L 532.364243 -262.653523 
L 531.256286 -263.380795 
L 530.174216 -264.108068 
L 529.14215 -264.835341 
L 528.184639 -265.562614 
L 527.325723 -266.289886 
L 526.587934 -267.017159 
L 525.991322 -267.744432 
L 525.552545 -268.471705 
L 525.284105 -269.198977 
L 525.19375 -269.92625 
L 562.39375 -269.92625 
L 562.39375 -269.92625 
L 562.303395 -269.198977 
L 562.034955 -268.471705 
L 561.596178 -267.744432 
L 560.999566 -267.017159 
L 560.261777 -266.289886 
L 559.402861 -265.562614 
L 558.44535 -264.835341 
L 557.413284 -264.108068 
L 556.331214 -263.380795 
L 555.223257 -262.653523 
L 554.112227 -261.92625 
L 553.018912 -261.198977 
L 551.961507 -260.471705 
L 550.955218 -259.744432 
L 550.012054 -259.017159 
L 549.140781 -258.289886 
L 548.347036 -257.562614 
L 547.633559 -256.835341 
L 547.000527 -256.108068 
L 546.445949 -255.380795 
L 545.966096 -254.653523 
L 545.555934 -253.92625 
L 545.20954 -253.198977 
L 544.920486 -252.471705 
L 544.682167 -251.744432 
L 544.488078 -251.017159 
L 544.332031 -250.289886 
L 544.208322 -249.562614 
L 544.111838 -248.835341 
L 544.03813 -248.108068 
L 543.983441 -247.380795 
L 543.944718 -246.653523 
L 543.919594 -245.92625 
L 543.906366 -245.198977 
L 543.903956 -244.471705 
L 543.911883 -243.744432 
L 543.930214 -243.017159 
L 543.959534 -242.289886 
L 544.000895 -241.562614 
L 544.055774 -240.835341 
L 544.126018 -240.108068 
L 544.213778 -239.380795 
L 544.321426 -238.653523 
L 544.451462 -237.92625 
L 544.606393 -237.198977 
L 544.788602 -236.471705 
L 545.000188 -235.744432 
L 545.2428 -235.017159 
L 545.517463 -234.289886 
L 545.824395 -233.562614 
L 546.162848 -232.835341 
L 546.530959 -232.108068 
L 546.925643 -231.380795 
L 547.342531 -230.653523 
L 547.775966 -229.92625 
L 548.219067 -229.198977 
L 548.663863 -228.471705 
L 549.101499 -227.744432 
L 549.522511 -227.017159 
L 549.917159 -226.289886 
L 550.275801 -225.562614 
L 550.589297 -224.835341 
L 550.849409 -224.108068 
L 551.049184 -223.380795 
L 551.183297 -222.653523 
L 551.248318 -221.92625 
L 551.24291 -221.198977 
L 551.167919 -220.471705 
L 551.026371 -219.744432 
L 550.823366 -219.017159 
L 550.565874 -218.289886 
L 550.262449 -217.562614 
L 549.922883 -216.835341 
L 549.557809 -216.108068 
L 549.178284 -215.380795 
L 548.795371 -214.653523 
L 548.419733 -213.92625 
L 548.061279 -213.198977 
L 547.728837 -212.471705 
L 547.429909 -211.744432 
L 547.170474 -211.017159 
L 546.954863 -210.289886 
L 546.785702 -209.562614 
L 546.663907 -208.835341 
L 546.588741 -208.108068 
L 546.55792 -207.380795 
L 546.567755 -206.653523 
L 546.613338 -205.92625 
L 546.68875 -205.198977 
L 546.787298 -204.471705 
L 546.901765 -203.744432 
L 547.024672 -203.017159 
L 547.148542 -202.289886 
L 547.26616 -201.562614 
L 547.370816 -200.835341 
L 547.456529 -200.108068 
L 547.51824 -199.380795 
L 547.551965 -198.653523 
L 547.554896 -197.92625 
z
" id="m06bc5d4747" style="stroke:#000000;stroke-opacity:0.3;"/>
    </defs>
    <g clip-path="url(#p073675894d)">
     <use style="fill:#bfbf00;fill-opacity:0.3;stroke:#000000;stroke-opacity:0.3;" x="0.0" xlink:href="#m06bc5d4747" y="465.868"/>
    </g>
   </g>
   <g id="PolyCollection_8">
    <defs>
     <path d="M 632.143009 -125.92625 
L 604.244491 -125.92625 
L 604.276366 -127.380795 
L 604.403667 -128.835341 
L 604.623715 -130.289886 
L 604.931941 -131.744432 
L 605.322039 -133.198977 
L 605.786168 -134.653523 
L 606.315202 -136.108068 
L 606.899014 -137.562614 
L 607.526781 -139.017159 
L 608.187295 -140.471705 
L 608.869269 -141.92625 
L 609.561624 -143.380795 
L 610.253753 -144.835341 
L 610.935744 -146.289886 
L 611.59856 -147.744432 
L 612.234176 -149.198977 
L 612.835674 -150.653523 
L 613.39728 -152.108068 
L 613.914375 -153.562614 
L 614.38346 -155.017159 
L 614.802094 -156.471705 
L 615.168815 -157.92625 
L 615.483039 -159.380795 
L 615.744958 -160.835341 
L 615.955435 -162.289886 
L 616.115902 -163.744432 
L 616.228274 -165.198977 
L 616.294867 -166.653523 
L 616.318338 -168.108068 
L 616.301635 -169.562614 
L 616.247962 -171.017159 
L 616.160752 -172.471705 
L 616.043652 -173.92625 
L 615.900508 -175.380795 
L 615.73536 -176.835341 
L 615.552419 -178.289886 
L 615.356052 -179.744432 
L 615.150753 -181.198977 
L 614.941098 -182.653523 
L 614.731696 -184.108068 
L 614.527126 -185.562614 
L 614.331862 -187.017159 
L 614.150188 -188.471705 
L 613.986117 -189.92625 
L 613.843294 -191.380795 
L 613.724912 -192.835341 
L 613.63363 -194.289886 
L 613.571504 -195.744432 
L 613.539929 -197.198977 
L 613.539594 -198.653523 
L 613.570469 -200.108068 
L 613.631794 -201.562614 
L 613.722103 -203.017159 
L 613.839255 -204.471705 
L 613.980493 -205.92625 
L 614.1425 -207.380795 
L 614.321486 -208.835341 
L 614.513261 -210.289886 
L 614.713322 -211.744432 
L 614.916935 -213.198977 
L 615.119207 -214.653523 
L 615.315159 -216.108068 
L 615.499779 -217.562614 
L 615.66807 -219.017159 
L 615.815085 -220.471705 
L 615.935957 -221.92625 
L 616.025916 -223.380795 
L 616.080309 -224.835341 
L 616.094614 -226.289886 
L 616.064466 -227.744432 
L 615.985688 -229.198977 
L 615.854334 -230.653523 
L 615.666753 -232.108068 
L 615.419668 -233.562614 
L 615.110273 -235.017159 
L 614.736355 -236.471705 
L 614.296421 -237.92625 
L 613.789852 -239.380795 
L 613.217045 -240.835341 
L 612.579569 -242.289886 
L 611.8803 -243.744432 
L 611.123537 -245.198977 
L 610.315093 -246.653523 
L 609.462341 -248.108068 
L 608.57421 -249.562614 
L 607.66113 -251.017159 
L 606.734914 -252.471705 
L 605.808576 -253.92625 
L 604.896091 -255.380795 
L 604.012094 -256.835341 
L 603.171536 -258.289886 
L 602.389293 -259.744432 
L 601.679761 -261.198977 
L 601.056437 -262.653523 
L 600.531508 -264.108068 
L 600.115474 -265.562614 
L 599.816807 -267.017159 
L 599.641678 -268.471705 
L 599.59375 -269.92625 
L 636.79375 -269.92625 
L 636.79375 -269.92625 
L 636.745822 -268.471705 
L 636.570693 -267.017159 
L 636.272026 -265.562614 
L 635.855992 -264.108068 
L 635.331063 -262.653523 
L 634.707739 -261.198977 
L 633.998207 -259.744432 
L 633.215964 -258.289886 
L 632.375406 -256.835341 
L 631.491409 -255.380795 
L 630.578924 -253.92625 
L 629.652586 -252.471705 
L 628.72637 -251.017159 
L 627.81329 -249.562614 
L 626.925159 -248.108068 
L 626.072407 -246.653523 
L 625.263963 -245.198977 
L 624.5072 -243.744432 
L 623.807931 -242.289886 
L 623.170455 -240.835341 
L 622.597648 -239.380795 
L 622.091079 -237.92625 
L 621.651145 -236.471705 
L 621.277227 -235.017159 
L 620.967832 -233.562614 
L 620.720747 -232.108068 
L 620.533166 -230.653523 
L 620.401812 -229.198977 
L 620.323034 -227.744432 
L 620.292886 -226.289886 
L 620.307191 -224.835341 
L 620.361584 -223.380795 
L 620.451543 -221.92625 
L 620.572415 -220.471705 
L 620.71943 -219.017159 
L 620.887721 -217.562614 
L 621.072341 -216.108068 
L 621.268293 -214.653523 
L 621.470565 -213.198977 
L 621.674178 -211.744432 
L 621.874239 -210.289886 
L 622.066014 -208.835341 
L 622.245 -207.380795 
L 622.407007 -205.92625 
L 622.548245 -204.471705 
L 622.665397 -203.017159 
L 622.755706 -201.562614 
L 622.817031 -200.108068 
L 622.847906 -198.653523 
L 622.847571 -197.198977 
L 622.815996 -195.744432 
L 622.75387 -194.289886 
L 622.662588 -192.835341 
L 622.544206 -191.380795 
L 622.401383 -189.92625 
L 622.237312 -188.471705 
L 622.055638 -187.017159 
L 621.860374 -185.562614 
L 621.655804 -184.108068 
L 621.446402 -182.653523 
L 621.236747 -181.198977 
L 621.031448 -179.744432 
L 620.835081 -178.289886 
L 620.65214 -176.835341 
L 620.486992 -175.380795 
L 620.343848 -173.92625 
L 620.226748 -172.471705 
L 620.139538 -171.017159 
L 620.085865 -169.562614 
L 620.069162 -168.108068 
L 620.092633 -166.653523 
L 620.159226 -165.198977 
L 620.271598 -163.744432 
L 620.432065 -162.289886 
L 620.642542 -160.835341 
L 620.904461 -159.380795 
L 621.218685 -157.92625 
L 621.585406 -156.471705 
L 622.00404 -155.017159 
L 622.473125 -153.562614 
L 622.99022 -152.108068 
L 623.551826 -150.653523 
L 624.153324 -149.198977 
L 624.78894 -147.744432 
L 625.451756 -146.289886 
L 626.133747 -144.835341 
L 626.825876 -143.380795 
L 627.518231 -141.92625 
L 628.200205 -140.471705 
L 628.860719 -139.017159 
L 629.488486 -137.562614 
L 630.072298 -136.108068 
L 630.601332 -134.653523 
L 631.065461 -133.198977 
L 631.455559 -131.744432 
L 631.763785 -130.289886 
L 631.983833 -128.835341 
L 632.111134 -127.380795 
L 632.143009 -125.92625 
z
" id="m2b88a569d8" style="stroke:#000000;stroke-opacity:0.3;"/>
    </defs>
    <g clip-path="url(#p073675894d)">
     <use style="fill:#bfbf00;fill-opacity:0.3;stroke:#000000;stroke-opacity:0.3;" x="0.0" xlink:href="#m2b88a569d8" y="465.868"/>
    </g>
   </g>
   <g id="LineCollection_1">
    <path clip-path="url(#p073675894d)" d="M 88.09375 123.94175 
L 106.69375 123.94175 
" style="fill:none;stroke:#ff0000;"/>
    <path clip-path="url(#p073675894d)" d="M 162.49375 195.58175 
L 181.09375 195.58175 
" style="fill:none;stroke:#ff0000;"/>
    <path clip-path="url(#p073675894d)" d="M 236.89375 195.94175 
L 255.49375 195.94175 
" style="fill:none;stroke:#ff0000;"/>
    <path clip-path="url(#p073675894d)" d="M 311.29375 195.94175 
L 329.89375 195.94175 
" style="fill:none;stroke:#ff0000;"/>
    <path clip-path="url(#p073675894d)" d="M 385.69375 195.94175 
L 404.29375 195.94175 
" style="fill:none;stroke:#ff0000;"/>
    <path clip-path="url(#p073675894d)" d="M 460.09375 195.94175 
L 478.69375 195.94175 
" style="fill:none;stroke:#ff0000;"/>
    <path clip-path="url(#p073675894d)" d="M 534.49375 195.94175 
L 553.09375 195.94175 
" style="fill:none;stroke:#ff0000;"/>
    <path clip-path="url(#p073675894d)" d="M 608.89375 232.30175 
L 627.49375 232.30175 
" style="fill:none;stroke:#ff0000;"/>
   </g>
   <g id="patch_3">
    <path d="M 22.99375 23.14175 
L 692.59375 23.14175 
" style="fill:none;stroke:#000000;stroke-linecap:square;stroke-linejoin:miter;"/>
   </g>
   <g id="patch_4">
    <path d="M 692.59375 368.74175 
L 692.59375 23.14175 
" style="fill:none;stroke:#000000;stroke-linecap:square;stroke-linejoin:miter;"/>
   </g>
   <g id="patch_5">
    <path d="M 22.99375 368.74175 
L 692.59375 368.74175 
" style="fill:none;stroke:#000000;stroke-linecap:square;stroke-linejoin:miter;"/>
   </g>
   <g id="patch_6">
    <path d="M 22.99375 368.74175 
L 22.99375 23.14175 
" style="fill:none;stroke:#000000;stroke-linecap:square;stroke-linejoin:miter;"/>
   </g>
   <g id="matplotlib.axis_1">
    <g id="xtick_1">
     <g id="line2d_1">
      <defs>
       <path d="M 0 0 
L 0 -4 
" id="m9ae06cb84b" style="stroke:#000000;stroke-width:0.5;"/>
      </defs>
      <g>
       <use style="stroke:#000000;stroke-width:0.5;" x="97.39375" xlink:href="#m9ae06cb84b" y="368.74175"/>
      </g>
     </g>
     <g id="line2d_2">
      <defs>
       <path d="M 0 0 
L 0 4 
" id="mbe03ba58dc" style="stroke:#000000;stroke-width:0.5;"/>
      </defs>
      <g>
       <use style="stroke:#000000;stroke-width:0.5;" x="97.39375" xlink:href="#mbe03ba58dc" y="23.14175"/>
      </g>
     </g>
     <g id="text_1">
      <!-- Defector -->
      <defs>
       <path d="M 30.609375 48.390625 
Q 23.390625 48.390625 19.1875 42.75 
Q 14.984375 37.109375 14.984375 27.296875 
Q 14.984375 17.484375 19.15625 11.84375 
Q 23.34375 6.203125 30.609375 6.203125 
Q 37.796875 6.203125 41.984375 11.859375 
Q 46.1875 17.53125 46.1875 27.296875 
Q 46.1875 37.015625 41.984375 42.703125 
Q 37.796875 48.390625 30.609375 48.390625 
M 30.609375 56 
Q 42.328125 56 49.015625 48.375 
Q 55.71875 40.765625 55.71875 27.296875 
Q 55.71875 13.875 49.015625 6.21875 
Q 42.328125 -1.421875 30.609375 -1.421875 
Q 18.84375 -1.421875 12.171875 6.21875 
Q 5.515625 13.875 5.515625 27.296875 
Q 5.515625 40.765625 12.171875 48.375 
Q 18.84375 56 30.609375 56 
" id="BitstreamVeraSans-Roman-6f"/>
       <path d="M 19.671875 64.796875 
L 19.671875 8.109375 
L 31.59375 8.109375 
Q 46.6875 8.109375 53.6875 14.9375 
Q 60.6875 21.78125 60.6875 36.53125 
Q 60.6875 51.171875 53.6875 57.984375 
Q 46.6875 64.796875 31.59375 64.796875 
z
M 9.8125 72.90625 
L 30.078125 72.90625 
Q 51.265625 72.90625 61.171875 64.09375 
Q 71.09375 55.28125 71.09375 36.53125 
Q 71.09375 17.671875 61.125 8.828125 
Q 51.171875 0 30.078125 0 
L 9.8125 0 
z
" id="BitstreamVeraSans-Roman-44"/>
       <path d="M 56.203125 29.59375 
L 56.203125 25.203125 
L 14.890625 25.203125 
Q 15.484375 15.921875 20.484375 11.0625 
Q 25.484375 6.203125 34.421875 6.203125 
Q 39.59375 6.203125 44.453125 7.46875 
Q 49.3125 8.734375 54.109375 11.28125 
L 54.109375 2.78125 
Q 49.265625 0.734375 44.1875 -0.34375 
Q 39.109375 -1.421875 33.890625 -1.421875 
Q 20.796875 -1.421875 13.15625 6.1875 
Q 5.515625 13.8125 5.515625 26.8125 
Q 5.515625 40.234375 12.765625 48.109375 
Q 20.015625 56 32.328125 56 
Q 43.359375 56 49.78125 48.890625 
Q 56.203125 41.796875 56.203125 29.59375 
M 47.21875 32.234375 
Q 47.125 39.59375 43.09375 43.984375 
Q 39.0625 48.390625 32.421875 48.390625 
Q 24.90625 48.390625 20.390625 44.140625 
Q 15.875 39.890625 15.1875 32.171875 
z
" id="BitstreamVeraSans-Roman-65"/>
       <path d="M 18.3125 70.21875 
L 18.3125 54.6875 
L 36.8125 54.6875 
L 36.8125 47.703125 
L 18.3125 47.703125 
L 18.3125 18.015625 
Q 18.3125 11.328125 20.140625 9.421875 
Q 21.96875 7.515625 27.59375 7.515625 
L 36.8125 7.515625 
L 36.8125 0 
L 27.59375 0 
Q 17.1875 0 13.234375 3.875 
Q 9.28125 7.765625 9.28125 18.015625 
L 9.28125 47.703125 
L 2.6875 47.703125 
L 2.6875 54.6875 
L 9.28125 54.6875 
L 9.28125 70.21875 
z
" id="BitstreamVeraSans-Roman-74"/>
       <path d="M 37.109375 75.984375 
L 37.109375 68.5 
L 28.515625 68.5 
Q 23.6875 68.5 21.796875 66.546875 
Q 19.921875 64.59375 19.921875 59.515625 
L 19.921875 54.6875 
L 34.71875 54.6875 
L 34.71875 47.703125 
L 19.921875 47.703125 
L 19.921875 0 
L 10.890625 0 
L 10.890625 47.703125 
L 2.296875 47.703125 
L 2.296875 54.6875 
L 10.890625 54.6875 
L 10.890625 58.5 
Q 10.890625 67.625 15.140625 71.796875 
Q 19.390625 75.984375 28.609375 75.984375 
z
" id="BitstreamVeraSans-Roman-66"/>
       <path d="M 41.109375 46.296875 
Q 39.59375 47.171875 37.8125 47.578125 
Q 36.03125 48 33.890625 48 
Q 26.265625 48 22.1875 43.046875 
Q 18.109375 38.09375 18.109375 28.8125 
L 18.109375 0 
L 9.078125 0 
L 9.078125 54.6875 
L 18.109375 54.6875 
L 18.109375 46.1875 
Q 20.953125 51.171875 25.484375 53.578125 
Q 30.03125 56 36.53125 56 
Q 37.453125 56 38.578125 55.875 
Q 39.703125 55.765625 41.0625 55.515625 
z
" id="BitstreamVeraSans-Roman-72"/>
       <path d="M 48.78125 52.59375 
L 48.78125 44.1875 
Q 44.96875 46.296875 41.140625 47.34375 
Q 37.3125 48.390625 33.40625 48.390625 
Q 24.65625 48.390625 19.8125 42.84375 
Q 14.984375 37.3125 14.984375 27.296875 
Q 14.984375 17.28125 19.8125 11.734375 
Q 24.65625 6.203125 33.40625 6.203125 
Q 37.3125 6.203125 41.140625 7.25 
Q 44.96875 8.296875 48.78125 10.40625 
L 48.78125 2.09375 
Q 45.015625 0.34375 40.984375 -0.53125 
Q 36.96875 -1.421875 32.421875 -1.421875 
Q 20.0625 -1.421875 12.78125 6.34375 
Q 5.515625 14.109375 5.515625 27.296875 
Q 5.515625 40.671875 12.859375 48.328125 
Q 20.21875 56 33.015625 56 
Q 37.15625 56 41.109375 55.140625 
Q 45.0625 54.296875 48.78125 52.59375 
" id="BitstreamVeraSans-Roman-63"/>
      </defs>
      <g transform="translate(99.60125 407.28175)rotate(-90.0)scale(0.08 -0.08)">
       <use xlink:href="#BitstreamVeraSans-Roman-44"/>
       <use x="77.001953125" xlink:href="#BitstreamVeraSans-Roman-65"/>
       <use x="138.525390625" xlink:href="#BitstreamVeraSans-Roman-66"/>
       <use x="173.73046875" xlink:href="#BitstreamVeraSans-Roman-65"/>
       <use x="235.25390625" xlink:href="#BitstreamVeraSans-Roman-63"/>
       <use x="290.234375" xlink:href="#BitstreamVeraSans-Roman-74"/>
       <use x="329.443359375" xlink:href="#BitstreamVeraSans-Roman-6f"/>
       <use x="390.625" xlink:href="#BitstreamVeraSans-Roman-72"/>
      </g>
     </g>
    </g>
    <g id="xtick_2">
     <g id="line2d_3">
      <g>
       <use style="stroke:#000000;stroke-width:0.5;" x="171.79375" xlink:href="#m9ae06cb84b" y="368.74175"/>
      </g>
     </g>
     <g id="line2d_4">
      <g>
       <use style="stroke:#000000;stroke-width:0.5;" x="171.79375" xlink:href="#mbe03ba58dc" y="23.14175"/>
      </g>
     </g>
     <g id="text_2">
      <!-- Bully -->
      <defs>
       <path d="M 8.5 21.578125 
L 8.5 54.6875 
L 17.484375 54.6875 
L 17.484375 21.921875 
Q 17.484375 14.15625 20.5 10.265625 
Q 23.53125 6.390625 29.59375 6.390625 
Q 36.859375 6.390625 41.078125 11.03125 
Q 45.3125 15.671875 45.3125 23.6875 
L 45.3125 54.6875 
L 54.296875 54.6875 
L 54.296875 0 
L 45.3125 0 
L 45.3125 8.40625 
Q 42.046875 3.421875 37.71875 1 
Q 33.40625 -1.421875 27.6875 -1.421875 
Q 18.265625 -1.421875 13.375 4.4375 
Q 8.5 10.296875 8.5 21.578125 
" id="BitstreamVeraSans-Roman-75"/>
       <path d="M 19.671875 34.8125 
L 19.671875 8.109375 
L 35.5 8.109375 
Q 43.453125 8.109375 47.28125 11.40625 
Q 51.125 14.703125 51.125 21.484375 
Q 51.125 28.328125 47.28125 31.5625 
Q 43.453125 34.8125 35.5 34.8125 
z
M 19.671875 64.796875 
L 19.671875 42.828125 
L 34.28125 42.828125 
Q 41.5 42.828125 45.03125 45.53125 
Q 48.578125 48.25 48.578125 53.8125 
Q 48.578125 59.328125 45.03125 62.0625 
Q 41.5 64.796875 34.28125 64.796875 
z
M 9.8125 72.90625 
L 35.015625 72.90625 
Q 46.296875 72.90625 52.390625 68.21875 
Q 58.5 63.53125 58.5 54.890625 
Q 58.5 48.1875 55.375 44.234375 
Q 52.25 40.28125 46.1875 39.3125 
Q 53.46875 37.75 57.5 32.78125 
Q 61.53125 27.828125 61.53125 20.40625 
Q 61.53125 10.640625 54.890625 5.3125 
Q 48.25 0 35.984375 0 
L 9.8125 0 
z
" id="BitstreamVeraSans-Roman-42"/>
       <path d="M 9.421875 75.984375 
L 18.40625 75.984375 
L 18.40625 0 
L 9.421875 0 
z
" id="BitstreamVeraSans-Roman-6c"/>
       <path d="M 32.171875 -5.078125 
Q 28.375 -14.84375 24.75 -17.8125 
Q 21.140625 -20.796875 15.09375 -20.796875 
L 7.90625 -20.796875 
L 7.90625 -13.28125 
L 13.1875 -13.28125 
Q 16.890625 -13.28125 18.9375 -11.515625 
Q 21 -9.765625 23.484375 -3.21875 
L 25.09375 0.875 
L 2.984375 54.6875 
L 12.5 54.6875 
L 29.59375 11.921875 
L 46.6875 54.6875 
L 56.203125 54.6875 
z
" id="BitstreamVeraSans-Roman-79"/>
      </defs>
      <g transform="translate(174.00125 392.4805)rotate(-90.0)scale(0.08 -0.08)">
       <use xlink:href="#BitstreamVeraSans-Roman-42"/>
       <use x="68.603515625" xlink:href="#BitstreamVeraSans-Roman-75"/>
       <use x="131.982421875" xlink:href="#BitstreamVeraSans-Roman-6c"/>
       <use x="159.765625" xlink:href="#BitstreamVeraSans-Roman-6c"/>
       <use x="187.548828125" xlink:href="#BitstreamVeraSans-Roman-79"/>
      </g>
     </g>
    </g>
    <g id="xtick_3">
     <g id="line2d_5">
      <g>
       <use style="stroke:#000000;stroke-width:0.5;" x="246.19375" xlink:href="#m9ae06cb84b" y="368.74175"/>
      </g>
     </g>
     <g id="line2d_6">
      <g>
       <use style="stroke:#000000;stroke-width:0.5;" x="246.19375" xlink:href="#mbe03ba58dc" y="23.14175"/>
      </g>
     </g>
     <g id="text_3">
      <!-- Tit For Tat -->
      <defs>
       <path d="M 9.421875 54.6875 
L 18.40625 54.6875 
L 18.40625 0 
L 9.421875 0 
z
M 9.421875 75.984375 
L 18.40625 75.984375 
L 18.40625 64.59375 
L 9.421875 64.59375 
z
" id="BitstreamVeraSans-Roman-69"/>
       <path d="M 34.28125 27.484375 
Q 23.390625 27.484375 19.1875 25 
Q 14.984375 22.515625 14.984375 16.5 
Q 14.984375 11.71875 18.140625 8.90625 
Q 21.296875 6.109375 26.703125 6.109375 
Q 34.1875 6.109375 38.703125 11.40625 
Q 43.21875 16.703125 43.21875 25.484375 
L 43.21875 27.484375 
z
M 52.203125 31.203125 
L 52.203125 0 
L 43.21875 0 
L 43.21875 8.296875 
Q 40.140625 3.328125 35.546875 0.953125 
Q 30.953125 -1.421875 24.3125 -1.421875 
Q 15.921875 -1.421875 10.953125 3.296875 
Q 6 8.015625 6 15.921875 
Q 6 25.140625 12.171875 29.828125 
Q 18.359375 34.515625 30.609375 34.515625 
L 43.21875 34.515625 
L 43.21875 35.40625 
Q 43.21875 41.609375 39.140625 45 
Q 35.0625 48.390625 27.6875 48.390625 
Q 23 48.390625 18.546875 47.265625 
Q 14.109375 46.140625 10.015625 43.890625 
L 10.015625 52.203125 
Q 14.9375 54.109375 19.578125 55.046875 
Q 24.21875 56 28.609375 56 
Q 40.484375 56 46.34375 49.84375 
Q 52.203125 43.703125 52.203125 31.203125 
" id="BitstreamVeraSans-Roman-61"/>
       <path d="M -0.296875 72.90625 
L 61.375 72.90625 
L 61.375 64.59375 
L 35.5 64.59375 
L 35.5 0 
L 25.59375 0 
L 25.59375 64.59375 
L -0.296875 64.59375 
z
" id="BitstreamVeraSans-Roman-54"/>
       <path d="M 9.8125 72.90625 
L 51.703125 72.90625 
L 51.703125 64.59375 
L 19.671875 64.59375 
L 19.671875 43.109375 
L 48.578125 43.109375 
L 48.578125 34.8125 
L 19.671875 34.8125 
L 19.671875 0 
L 9.8125 0 
z
" id="BitstreamVeraSans-Roman-46"/>
       <path id="BitstreamVeraSans-Roman-20"/>
      </defs>
      <g transform="translate(248.40125 413.75425)rotate(-90.0)scale(0.08 -0.08)">
       <use xlink:href="#BitstreamVeraSans-Roman-54"/>
       <use x="61.037109375" xlink:href="#BitstreamVeraSans-Roman-69"/>
       <use x="88.8203125" xlink:href="#BitstreamVeraSans-Roman-74"/>
       <use x="128.029296875" xlink:href="#BitstreamVeraSans-Roman-20"/>
       <use x="159.81640625" xlink:href="#BitstreamVeraSans-Roman-46"/>
       <use x="217.2890625" xlink:href="#BitstreamVeraSans-Roman-6f"/>
       <use x="278.470703125" xlink:href="#BitstreamVeraSans-Roman-72"/>
       <use x="319.583984375" xlink:href="#BitstreamVeraSans-Roman-20"/>
       <use x="351.37109375" xlink:href="#BitstreamVeraSans-Roman-54"/>
       <use x="412.205078125" xlink:href="#BitstreamVeraSans-Roman-61"/>
       <use x="473.484375" xlink:href="#BitstreamVeraSans-Roman-74"/>
      </g>
     </g>
    </g>
    <g id="xtick_4">
     <g id="line2d_7">
      <g>
       <use style="stroke:#000000;stroke-width:0.5;" x="320.59375" xlink:href="#m9ae06cb84b" y="368.74175"/>
      </g>
     </g>
     <g id="line2d_8">
      <g>
       <use style="stroke:#000000;stroke-width:0.5;" x="320.59375" xlink:href="#mbe03ba58dc" y="23.14175"/>
      </g>
     </g>
     <g id="text_4">
      <!-- Alternator -->
      <defs>
       <path d="M 54.890625 33.015625 
L 54.890625 0 
L 45.90625 0 
L 45.90625 32.71875 
Q 45.90625 40.484375 42.875 44.328125 
Q 39.84375 48.1875 33.796875 48.1875 
Q 26.515625 48.1875 22.3125 43.546875 
Q 18.109375 38.921875 18.109375 30.90625 
L 18.109375 0 
L 9.078125 0 
L 9.078125 54.6875 
L 18.109375 54.6875 
L 18.109375 46.1875 
Q 21.34375 51.125 25.703125 53.5625 
Q 30.078125 56 35.796875 56 
Q 45.21875 56 50.046875 50.171875 
Q 54.890625 44.34375 54.890625 33.015625 
" id="BitstreamVeraSans-Roman-6e"/>
       <path d="M 34.1875 63.1875 
L 20.796875 26.90625 
L 47.609375 26.90625 
z
M 28.609375 72.90625 
L 39.796875 72.90625 
L 67.578125 0 
L 57.328125 0 
L 50.6875 18.703125 
L 17.828125 18.703125 
L 11.1875 0 
L 0.78125 0 
z
" id="BitstreamVeraSans-Roman-41"/>
      </defs>
      <g transform="translate(322.80125 413.0755)rotate(-90.0)scale(0.08 -0.08)">
       <use xlink:href="#BitstreamVeraSans-Roman-41"/>
       <use x="68.408203125" xlink:href="#BitstreamVeraSans-Roman-6c"/>
       <use x="96.19140625" xlink:href="#BitstreamVeraSans-Roman-74"/>
       <use x="135.400390625" xlink:href="#BitstreamVeraSans-Roman-65"/>
       <use x="196.923828125" xlink:href="#BitstreamVeraSans-Roman-72"/>
       <use x="238.021484375" xlink:href="#BitstreamVeraSans-Roman-6e"/>
       <use x="301.400390625" xlink:href="#BitstreamVeraSans-Roman-61"/>
       <use x="362.6796875" xlink:href="#BitstreamVeraSans-Roman-74"/>
       <use x="401.888671875" xlink:href="#BitstreamVeraSans-Roman-6f"/>
       <use x="463.0703125" xlink:href="#BitstreamVeraSans-Roman-72"/>
      </g>
     </g>
    </g>
    <g id="xtick_5">
     <g id="line2d_9">
      <g>
       <use style="stroke:#000000;stroke-width:0.5;" x="394.99375" xlink:href="#m9ae06cb84b" y="368.74175"/>
      </g>
     </g>
     <g id="line2d_10">
      <g>
       <use style="stroke:#000000;stroke-width:0.5;" x="394.99375" xlink:href="#mbe03ba58dc" y="23.14175"/>
      </g>
     </g>
     <g id="text_5">
      <!-- Suspicious Tit For Tat -->
      <defs>
       <path d="M 53.515625 70.515625 
L 53.515625 60.890625 
Q 47.90625 63.578125 42.921875 64.890625 
Q 37.9375 66.21875 33.296875 66.21875 
Q 25.25 66.21875 20.875 63.09375 
Q 16.5 59.96875 16.5 54.203125 
Q 16.5 49.359375 19.40625 46.890625 
Q 22.3125 44.4375 30.421875 42.921875 
L 36.375 41.703125 
Q 47.40625 39.59375 52.65625 34.296875 
Q 57.90625 29 57.90625 20.125 
Q 57.90625 9.515625 50.796875 4.046875 
Q 43.703125 -1.421875 29.984375 -1.421875 
Q 24.8125 -1.421875 18.96875 -0.25 
Q 13.140625 0.921875 6.890625 3.21875 
L 6.890625 13.375 
Q 12.890625 10.015625 18.65625 8.296875 
Q 24.421875 6.59375 29.984375 6.59375 
Q 38.421875 6.59375 43.015625 9.90625 
Q 47.609375 13.234375 47.609375 19.390625 
Q 47.609375 24.75 44.3125 27.78125 
Q 41.015625 30.8125 33.5 32.328125 
L 27.484375 33.5 
Q 16.453125 35.6875 11.515625 40.375 
Q 6.59375 45.0625 6.59375 53.421875 
Q 6.59375 63.09375 13.40625 68.65625 
Q 20.21875 74.21875 32.171875 74.21875 
Q 37.3125 74.21875 42.625 73.28125 
Q 47.953125 72.359375 53.515625 70.515625 
" id="BitstreamVeraSans-Roman-53"/>
       <path d="M 44.28125 53.078125 
L 44.28125 44.578125 
Q 40.484375 46.53125 36.375 47.5 
Q 32.28125 48.484375 27.875 48.484375 
Q 21.1875 48.484375 17.84375 46.4375 
Q 14.5 44.390625 14.5 40.28125 
Q 14.5 37.15625 16.890625 35.375 
Q 19.28125 33.59375 26.515625 31.984375 
L 29.59375 31.296875 
Q 39.15625 29.25 43.1875 25.515625 
Q 47.21875 21.78125 47.21875 15.09375 
Q 47.21875 7.46875 41.1875 3.015625 
Q 35.15625 -1.421875 24.609375 -1.421875 
Q 20.21875 -1.421875 15.453125 -0.5625 
Q 10.6875 0.296875 5.421875 2 
L 5.421875 11.28125 
Q 10.40625 8.6875 15.234375 7.390625 
Q 20.0625 6.109375 24.8125 6.109375 
Q 31.15625 6.109375 34.5625 8.28125 
Q 37.984375 10.453125 37.984375 14.40625 
Q 37.984375 18.0625 35.515625 20.015625 
Q 33.0625 21.96875 24.703125 23.78125 
L 21.578125 24.515625 
Q 13.234375 26.265625 9.515625 29.90625 
Q 5.8125 33.546875 5.8125 39.890625 
Q 5.8125 47.609375 11.28125 51.796875 
Q 16.75 56 26.8125 56 
Q 31.78125 56 36.171875 55.265625 
Q 40.578125 54.546875 44.28125 53.078125 
" id="BitstreamVeraSans-Roman-73"/>
       <path d="M 18.109375 8.203125 
L 18.109375 -20.796875 
L 9.078125 -20.796875 
L 9.078125 54.6875 
L 18.109375 54.6875 
L 18.109375 46.390625 
Q 20.953125 51.265625 25.265625 53.625 
Q 29.59375 56 35.59375 56 
Q 45.5625 56 51.78125 48.09375 
Q 58.015625 40.1875 58.015625 27.296875 
Q 58.015625 14.40625 51.78125 6.484375 
Q 45.5625 -1.421875 35.59375 -1.421875 
Q 29.59375 -1.421875 25.265625 0.953125 
Q 20.953125 3.328125 18.109375 8.203125 
M 48.6875 27.296875 
Q 48.6875 37.203125 44.609375 42.84375 
Q 40.53125 48.484375 33.40625 48.484375 
Q 26.265625 48.484375 22.1875 42.84375 
Q 18.109375 37.203125 18.109375 27.296875 
Q 18.109375 17.390625 22.1875 11.75 
Q 26.265625 6.109375 33.40625 6.109375 
Q 40.53125 6.109375 44.609375 11.75 
Q 48.6875 17.390625 48.6875 27.296875 
" id="BitstreamVeraSans-Roman-70"/>
      </defs>
      <g transform="translate(397.20125 458.668)rotate(-90.0)scale(0.08 -0.08)">
       <use xlink:href="#BitstreamVeraSans-Roman-53"/>
       <use x="63.4765625" xlink:href="#BitstreamVeraSans-Roman-75"/>
       <use x="126.85546875" xlink:href="#BitstreamVeraSans-Roman-73"/>
       <use x="178.955078125" xlink:href="#BitstreamVeraSans-Roman-70"/>
       <use x="242.431640625" xlink:href="#BitstreamVeraSans-Roman-69"/>
       <use x="270.21484375" xlink:href="#BitstreamVeraSans-Roman-63"/>
       <use x="325.1953125" xlink:href="#BitstreamVeraSans-Roman-69"/>
       <use x="352.978515625" xlink:href="#BitstreamVeraSans-Roman-6f"/>
       <use x="414.16015625" xlink:href="#BitstreamVeraSans-Roman-75"/>
       <use x="477.5390625" xlink:href="#BitstreamVeraSans-Roman-73"/>
       <use x="529.638671875" xlink:href="#BitstreamVeraSans-Roman-20"/>
       <use x="561.42578125" xlink:href="#BitstreamVeraSans-Roman-54"/>
       <use x="622.462890625" xlink:href="#BitstreamVeraSans-Roman-69"/>
       <use x="650.24609375" xlink:href="#BitstreamVeraSans-Roman-74"/>
       <use x="689.455078125" xlink:href="#BitstreamVeraSans-Roman-20"/>
       <use x="721.2421875" xlink:href="#BitstreamVeraSans-Roman-46"/>
       <use x="778.71484375" xlink:href="#BitstreamVeraSans-Roman-6f"/>
       <use x="839.896484375" xlink:href="#BitstreamVeraSans-Roman-72"/>
       <use x="881.009765625" xlink:href="#BitstreamVeraSans-Roman-20"/>
       <use x="912.796875" xlink:href="#BitstreamVeraSans-Roman-54"/>
       <use x="973.630859375" xlink:href="#BitstreamVeraSans-Roman-61"/>
       <use x="1034.91015625" xlink:href="#BitstreamVeraSans-Roman-74"/>
      </g>
     </g>
    </g>
    <g id="xtick_6">
     <g id="line2d_11">
      <g>
       <use style="stroke:#000000;stroke-width:0.5;" x="469.39375" xlink:href="#m9ae06cb84b" y="368.74175"/>
      </g>
     </g>
     <g id="line2d_12">
      <g>
       <use style="stroke:#000000;stroke-width:0.5;" x="469.39375" xlink:href="#mbe03ba58dc" y="23.14175"/>
      </g>
     </g>
     <g id="text_6">
      <!-- Anti Tit For Tat -->
      <g transform="translate(471.60125 432.198)rotate(-90.0)scale(0.08 -0.08)">
       <use xlink:href="#BitstreamVeraSans-Roman-41"/>
       <use x="68.408203125" xlink:href="#BitstreamVeraSans-Roman-6e"/>
       <use x="131.787109375" xlink:href="#BitstreamVeraSans-Roman-74"/>
       <use x="170.99609375" xlink:href="#BitstreamVeraSans-Roman-69"/>
       <use x="198.779296875" xlink:href="#BitstreamVeraSans-Roman-20"/>
       <use x="230.56640625" xlink:href="#BitstreamVeraSans-Roman-54"/>
       <use x="291.603515625" xlink:href="#BitstreamVeraSans-Roman-69"/>
       <use x="319.38671875" xlink:href="#BitstreamVeraSans-Roman-74"/>
       <use x="358.595703125" xlink:href="#BitstreamVeraSans-Roman-20"/>
       <use x="390.3828125" xlink:href="#BitstreamVeraSans-Roman-46"/>
       <use x="447.85546875" xlink:href="#BitstreamVeraSans-Roman-6f"/>
       <use x="509.037109375" xlink:href="#BitstreamVeraSans-Roman-72"/>
       <use x="550.150390625" xlink:href="#BitstreamVeraSans-Roman-20"/>
       <use x="581.9375" xlink:href="#BitstreamVeraSans-Roman-54"/>
       <use x="642.771484375" xlink:href="#BitstreamVeraSans-Roman-61"/>
       <use x="704.05078125" xlink:href="#BitstreamVeraSans-Roman-74"/>
      </g>
     </g>
    </g>
    <g id="xtick_7">
     <g id="line2d_13">
      <g>
       <use style="stroke:#000000;stroke-width:0.5;" x="543.79375" xlink:href="#m9ae06cb84b" y="368.74175"/>
      </g>
     </g>
     <g id="line2d_14">
      <g>
       <use style="stroke:#000000;stroke-width:0.5;" x="543.79375" xlink:href="#mbe03ba58dc" y="23.14175"/>
      </g>
     </g>
     <g id="text_7">
      <!-- Win-Stay Lose-Shift -->
      <defs>
       <path d="M 54.890625 33.015625 
L 54.890625 0 
L 45.90625 0 
L 45.90625 32.71875 
Q 45.90625 40.484375 42.875 44.328125 
Q 39.84375 48.1875 33.796875 48.1875 
Q 26.515625 48.1875 22.3125 43.546875 
Q 18.109375 38.921875 18.109375 30.90625 
L 18.109375 0 
L 9.078125 0 
L 9.078125 75.984375 
L 18.109375 75.984375 
L 18.109375 46.1875 
Q 21.34375 51.125 25.703125 53.5625 
Q 30.078125 56 35.796875 56 
Q 45.21875 56 50.046875 50.171875 
Q 54.890625 44.34375 54.890625 33.015625 
" id="BitstreamVeraSans-Roman-68"/>
       <path d="M 9.8125 72.90625 
L 19.671875 72.90625 
L 19.671875 8.296875 
L 55.171875 8.296875 
L 55.171875 0 
L 9.8125 0 
z
" id="BitstreamVeraSans-Roman-4c"/>
       <path d="M 4.890625 31.390625 
L 31.203125 31.390625 
L 31.203125 23.390625 
L 4.890625 23.390625 
z
" id="BitstreamVeraSans-Roman-2d"/>
       <path d="M 3.328125 72.90625 
L 13.28125 72.90625 
L 28.609375 11.28125 
L 43.890625 72.90625 
L 54.984375 72.90625 
L 70.3125 11.28125 
L 85.59375 72.90625 
L 95.609375 72.90625 
L 77.296875 0 
L 64.890625 0 
L 49.515625 63.28125 
L 33.984375 0 
L 21.578125 0 
z
" id="BitstreamVeraSans-Roman-57"/>
      </defs>
      <g transform="translate(546.00125 450.873)rotate(-90.0)scale(0.08 -0.08)">
       <use xlink:href="#BitstreamVeraSans-Roman-57"/>
       <use x="98.845703125" xlink:href="#BitstreamVeraSans-Roman-69"/>
       <use x="126.62890625" xlink:href="#BitstreamVeraSans-Roman-6e"/>
       <use x="190.0078125" xlink:href="#BitstreamVeraSans-Roman-2d"/>
       <use x="226.091796875" xlink:href="#BitstreamVeraSans-Roman-53"/>
       <use x="289.568359375" xlink:href="#BitstreamVeraSans-Roman-74"/>
       <use x="328.77734375" xlink:href="#BitstreamVeraSans-Roman-61"/>
       <use x="390.056640625" xlink:href="#BitstreamVeraSans-Roman-79"/>
       <use x="449.236328125" xlink:href="#BitstreamVeraSans-Roman-20"/>
       <use x="481.0234375" xlink:href="#BitstreamVeraSans-Roman-4c"/>
       <use x="536.720703125" xlink:href="#BitstreamVeraSans-Roman-6f"/>
       <use x="597.90234375" xlink:href="#BitstreamVeraSans-Roman-73"/>
       <use x="650.001953125" xlink:href="#BitstreamVeraSans-Roman-65"/>
       <use x="711.525390625" xlink:href="#BitstreamVeraSans-Roman-2d"/>
       <use x="747.609375" xlink:href="#BitstreamVeraSans-Roman-53"/>
       <use x="811.0859375" xlink:href="#BitstreamVeraSans-Roman-68"/>
       <use x="874.46484375" xlink:href="#BitstreamVeraSans-Roman-69"/>
       <use x="902.248046875" xlink:href="#BitstreamVeraSans-Roman-66"/>
       <use x="937.4375" xlink:href="#BitstreamVeraSans-Roman-74"/>
      </g>
     </g>
    </g>
    <g id="xtick_8">
     <g id="line2d_15">
      <g>
       <use style="stroke:#000000;stroke-width:0.5;" x="618.19375" xlink:href="#m9ae06cb84b" y="368.74175"/>
      </g>
     </g>
     <g id="line2d_16">
      <g>
       <use style="stroke:#000000;stroke-width:0.5;" x="618.19375" xlink:href="#mbe03ba58dc" y="23.14175"/>
      </g>
     </g>
     <g id="text_8">
      <!-- Cooperator -->
      <defs>
       <path d="M 64.40625 67.28125 
L 64.40625 56.890625 
Q 59.421875 61.53125 53.78125 63.8125 
Q 48.140625 66.109375 41.796875 66.109375 
Q 29.296875 66.109375 22.65625 58.46875 
Q 16.015625 50.828125 16.015625 36.375 
Q 16.015625 21.96875 22.65625 14.328125 
Q 29.296875 6.6875 41.796875 6.6875 
Q 48.140625 6.6875 53.78125 8.984375 
Q 59.421875 11.28125 64.40625 15.921875 
L 64.40625 5.609375 
Q 59.234375 2.09375 53.4375 0.328125 
Q 47.65625 -1.421875 41.21875 -1.421875 
Q 24.65625 -1.421875 15.125 8.703125 
Q 5.609375 18.84375 5.609375 36.375 
Q 5.609375 53.953125 15.125 64.078125 
Q 24.65625 74.21875 41.21875 74.21875 
Q 47.75 74.21875 53.53125 72.484375 
Q 59.328125 70.75 64.40625 67.28125 
" id="BitstreamVeraSans-Roman-43"/>
      </defs>
      <g transform="translate(620.40125 417.6305)rotate(-90.0)scale(0.08 -0.08)">
       <use xlink:href="#BitstreamVeraSans-Roman-43"/>
       <use x="69.82421875" xlink:href="#BitstreamVeraSans-Roman-6f"/>
       <use x="131.005859375" xlink:href="#BitstreamVeraSans-Roman-6f"/>
       <use x="192.1875" xlink:href="#BitstreamVeraSans-Roman-70"/>
       <use x="255.6640625" xlink:href="#BitstreamVeraSans-Roman-65"/>
       <use x="317.1875" xlink:href="#BitstreamVeraSans-Roman-72"/>
       <use x="358.30078125" xlink:href="#BitstreamVeraSans-Roman-61"/>
       <use x="419.580078125" xlink:href="#BitstreamVeraSans-Roman-74"/>
       <use x="458.7890625" xlink:href="#BitstreamVeraSans-Roman-6f"/>
       <use x="519.970703125" xlink:href="#BitstreamVeraSans-Roman-72"/>
      </g>
     </g>
    </g>
   </g>
   <g id="matplotlib.axis_2">
    <g id="ytick_1">
     <g id="line2d_17">
      <defs>
       <path d="M 0 0 
L 4 0 
" id="me2edf08fdf" style="stroke:#000000;stroke-width:0.5;"/>
      </defs>
      <g>
       <use style="stroke:#000000;stroke-width:0.5;" x="22.99375" xlink:href="#me2edf08fdf" y="368.74175"/>
      </g>
     </g>
     <g id="line2d_18">
      <defs>
       <path d="M 0 0 
L -4 0 
" id="mdbd0ab1cec" style="stroke:#000000;stroke-width:0.5;"/>
      </defs>
      <g>
       <use style="stroke:#000000;stroke-width:0.5;" x="692.59375" xlink:href="#mdbd0ab1cec" y="368.74175"/>
      </g>
     </g>
     <g id="text_9">
      <!-- 6 -->
      <defs>
       <path d="M 10.59375 35.5 
L 73.1875 35.5 
L 73.1875 27.203125 
L 10.59375 27.203125 
z
" id="BitstreamVeraSans-Roman-2212"/>
       <path d="M 33.015625 40.375 
Q 26.375 40.375 22.484375 35.828125 
Q 18.609375 31.296875 18.609375 23.390625 
Q 18.609375 15.53125 22.484375 10.953125 
Q 26.375 6.390625 33.015625 6.390625 
Q 39.65625 6.390625 43.53125 10.953125 
Q 47.40625 15.53125 47.40625 23.390625 
Q 47.40625 31.296875 43.53125 35.828125 
Q 39.65625 40.375 33.015625 40.375 
M 52.59375 71.296875 
L 52.59375 62.3125 
Q 48.875 64.0625 45.09375 64.984375 
Q 41.3125 65.921875 37.59375 65.921875 
Q 27.828125 65.921875 22.671875 59.328125 
Q 17.53125 52.734375 16.796875 39.40625 
Q 19.671875 43.65625 24.015625 45.921875 
Q 28.375 48.1875 33.59375 48.1875 
Q 44.578125 48.1875 50.953125 41.515625 
Q 57.328125 34.859375 57.328125 23.390625 
Q 57.328125 12.15625 50.6875 5.359375 
Q 44.046875 -1.421875 33.015625 -1.421875 
Q 20.359375 -1.421875 13.671875 8.265625 
Q 6.984375 17.96875 6.984375 36.375 
Q 6.984375 53.65625 15.1875 63.9375 
Q 23.390625 74.21875 37.203125 74.21875 
Q 40.921875 74.21875 44.703125 73.484375 
Q 48.484375 72.75 52.59375 71.296875 
" id="BitstreamVeraSans-Roman-36"/>
      </defs>
      <g transform="translate(7.2 370.94925)scale(0.08 -0.08)">
       <use xlink:href="#BitstreamVeraSans-Roman-2212"/>
       <use x="83.7890625" xlink:href="#BitstreamVeraSans-Roman-36"/>
      </g>
     </g>
    </g>
    <g id="ytick_2">
     <g id="line2d_19">
      <g>
       <use style="stroke:#000000;stroke-width:0.5;" x="22.99375" xlink:href="#me2edf08fdf" y="311.14175"/>
      </g>
     </g>
     <g id="line2d_20">
      <g>
       <use style="stroke:#000000;stroke-width:0.5;" x="692.59375" xlink:href="#mdbd0ab1cec" y="311.14175"/>
      </g>
     </g>
     <g id="text_10">
      <!-- 4 -->
      <defs>
       <path d="M 37.796875 64.3125 
L 12.890625 25.390625 
L 37.796875 25.390625 
z
M 35.203125 72.90625 
L 47.609375 72.90625 
L 47.609375 25.390625 
L 58.015625 25.390625 
L 58.015625 17.1875 
L 47.609375 17.1875 
L 47.609375 0 
L 37.796875 0 
L 37.796875 17.1875 
L 4.890625 17.1875 
L 4.890625 26.703125 
z
" id="BitstreamVeraSans-Roman-34"/>
      </defs>
      <g transform="translate(7.2 313.34925)scale(0.08 -0.08)">
       <use xlink:href="#BitstreamVeraSans-Roman-2212"/>
       <use x="83.7890625" xlink:href="#BitstreamVeraSans-Roman-34"/>
      </g>
     </g>
    </g>
    <g id="ytick_3">
     <g id="line2d_21">
      <g>
       <use style="stroke:#000000;stroke-width:0.5;" x="22.99375" xlink:href="#me2edf08fdf" y="253.54175"/>
      </g>
     </g>
     <g id="line2d_22">
      <g>
       <use style="stroke:#000000;stroke-width:0.5;" x="692.59375" xlink:href="#mdbd0ab1cec" y="253.54175"/>
      </g>
     </g>
     <g id="text_11">
      <!-- 2 -->
      <defs>
       <path d="M 19.1875 8.296875 
L 53.609375 8.296875 
L 53.609375 0 
L 7.328125 0 
L 7.328125 8.296875 
Q 12.9375 14.109375 22.625 23.890625 
Q 32.328125 33.6875 34.8125 36.53125 
Q 39.546875 41.84375 41.421875 45.53125 
Q 43.3125 49.21875 43.3125 52.78125 
Q 43.3125 58.59375 39.234375 62.25 
Q 35.15625 65.921875 28.609375 65.921875 
Q 23.96875 65.921875 18.8125 64.3125 
Q 13.671875 62.703125 7.8125 59.421875 
L 7.8125 69.390625 
Q 13.765625 71.78125 18.9375 73 
Q 24.125 74.21875 28.421875 74.21875 
Q 39.75 74.21875 46.484375 68.546875 
Q 53.21875 62.890625 53.21875 53.421875 
Q 53.21875 48.921875 51.53125 44.890625 
Q 49.859375 40.875 45.40625 35.40625 
Q 44.1875 33.984375 37.640625 27.21875 
Q 31.109375 20.453125 19.1875 8.296875 
" id="BitstreamVeraSans-Roman-32"/>
      </defs>
      <g transform="translate(7.2 255.74925)scale(0.08 -0.08)">
       <use xlink:href="#BitstreamVeraSans-Roman-2212"/>
       <use x="83.7890625" xlink:href="#BitstreamVeraSans-Roman-32"/>
      </g>
     </g>
    </g>
    <g id="ytick_4">
     <g id="line2d_23">
      <g>
       <use style="stroke:#000000;stroke-width:0.5;" x="22.99375" xlink:href="#me2edf08fdf" y="195.94175"/>
      </g>
     </g>
     <g id="line2d_24">
      <g>
       <use style="stroke:#000000;stroke-width:0.5;" x="692.59375" xlink:href="#mdbd0ab1cec" y="195.94175"/>
      </g>
     </g>
     <g id="text_12">
      <!-- 0 -->
      <defs>
       <path d="M 31.78125 66.40625 
Q 24.171875 66.40625 20.328125 58.90625 
Q 16.5 51.421875 16.5 36.375 
Q 16.5 21.390625 20.328125 13.890625 
Q 24.171875 6.390625 31.78125 6.390625 
Q 39.453125 6.390625 43.28125 13.890625 
Q 47.125 21.390625 47.125 36.375 
Q 47.125 51.421875 43.28125 58.90625 
Q 39.453125 66.40625 31.78125 66.40625 
M 31.78125 74.21875 
Q 44.046875 74.21875 50.515625 64.515625 
Q 56.984375 54.828125 56.984375 36.375 
Q 56.984375 17.96875 50.515625 8.265625 
Q 44.046875 -1.421875 31.78125 -1.421875 
Q 19.53125 -1.421875 13.0625 8.265625 
Q 6.59375 17.96875 6.59375 36.375 
Q 6.59375 54.828125 13.0625 64.515625 
Q 19.53125 74.21875 31.78125 74.21875 
" id="BitstreamVeraSans-Roman-30"/>
      </defs>
      <g transform="translate(13.90375 198.14925)scale(0.08 -0.08)">
       <use xlink:href="#BitstreamVeraSans-Roman-30"/>
      </g>
     </g>
    </g>
    <g id="ytick_5">
     <g id="line2d_25">
      <g>
       <use style="stroke:#000000;stroke-width:0.5;" x="22.99375" xlink:href="#me2edf08fdf" y="138.34175"/>
      </g>
     </g>
     <g id="line2d_26">
      <g>
       <use style="stroke:#000000;stroke-width:0.5;" x="692.59375" xlink:href="#mdbd0ab1cec" y="138.34175"/>
      </g>
     </g>
     <g id="text_13">
      <!-- 2 -->
      <g transform="translate(13.90375 140.54925)scale(0.08 -0.08)">
       <use xlink:href="#BitstreamVeraSans-Roman-32"/>
      </g>
     </g>
    </g>
    <g id="ytick_6">
     <g id="line2d_27">
      <g>
       <use style="stroke:#000000;stroke-width:0.5;" x="22.99375" xlink:href="#me2edf08fdf" y="80.74175"/>
      </g>
     </g>
     <g id="line2d_28">
      <g>
       <use style="stroke:#000000;stroke-width:0.5;" x="692.59375" xlink:href="#mdbd0ab1cec" y="80.74175"/>
      </g>
     </g>
     <g id="text_14">
      <!-- 4 -->
      <g transform="translate(13.90375 82.94925)scale(0.08 -0.08)">
       <use xlink:href="#BitstreamVeraSans-Roman-34"/>
      </g>
     </g>
    </g>
    <g id="ytick_7">
     <g id="line2d_29">
      <g>
       <use style="stroke:#000000;stroke-width:0.5;" x="22.99375" xlink:href="#me2edf08fdf" y="23.14175"/>
      </g>
     </g>
     <g id="line2d_30">
      <g>
       <use style="stroke:#000000;stroke-width:0.5;" x="692.59375" xlink:href="#mdbd0ab1cec" y="23.14175"/>
      </g>
     </g>
     <g id="text_15">
      <!-- 6 -->
      <g transform="translate(13.90375 25.34925)scale(0.08 -0.08)">
       <use xlink:href="#BitstreamVeraSans-Roman-36"/>
      </g>
     </g>
    </g>
   </g>
   <g id="text_16">
    <!-- Std Payoffs. Turns: 200, Repetitions: 100, Strategies: 8. -->
    <defs>
     <path d="M 12.40625 8.296875 
L 28.515625 8.296875 
L 28.515625 63.921875 
L 10.984375 60.40625 
L 10.984375 69.390625 
L 28.421875 72.90625 
L 38.28125 72.90625 
L 38.28125 8.296875 
L 54.390625 8.296875 
L 54.390625 0 
L 12.40625 0 
z
" id="BitstreamVeraSans-Roman-31"/>
     <path d="M 31.78125 34.625 
Q 24.75 34.625 20.71875 30.859375 
Q 16.703125 27.09375 16.703125 20.515625 
Q 16.703125 13.921875 20.71875 10.15625 
Q 24.75 6.390625 31.78125 6.390625 
Q 38.8125 6.390625 42.859375 10.171875 
Q 46.921875 13.96875 46.921875 20.515625 
Q 46.921875 27.09375 42.890625 30.859375 
Q 38.875 34.625 31.78125 34.625 
M 21.921875 38.8125 
Q 15.578125 40.375 12.03125 44.71875 
Q 8.5 49.078125 8.5 55.328125 
Q 8.5 64.0625 14.71875 69.140625 
Q 20.953125 74.21875 31.78125 74.21875 
Q 42.671875 74.21875 48.875 69.140625 
Q 55.078125 64.0625 55.078125 55.328125 
Q 55.078125 49.078125 51.53125 44.71875 
Q 48 40.375 41.703125 38.8125 
Q 48.828125 37.15625 52.796875 32.3125 
Q 56.78125 27.484375 56.78125 20.515625 
Q 56.78125 9.90625 50.3125 4.234375 
Q 43.84375 -1.421875 31.78125 -1.421875 
Q 19.734375 -1.421875 13.25 4.234375 
Q 6.78125 9.90625 6.78125 20.515625 
Q 6.78125 27.484375 10.78125 32.3125 
Q 14.796875 37.15625 21.921875 38.8125 
M 18.3125 54.390625 
Q 18.3125 48.734375 21.84375 45.5625 
Q 25.390625 42.390625 31.78125 42.390625 
Q 38.140625 42.390625 41.71875 45.5625 
Q 45.3125 48.734375 45.3125 54.390625 
Q 45.3125 60.0625 41.71875 63.234375 
Q 38.140625 66.40625 31.78125 66.40625 
Q 25.390625 66.40625 21.84375 63.234375 
Q 18.3125 60.0625 18.3125 54.390625 
" id="BitstreamVeraSans-Roman-38"/>
     <path d="M 44.390625 34.1875 
Q 47.5625 33.109375 50.5625 29.59375 
Q 53.5625 26.078125 56.59375 19.921875 
L 66.609375 0 
L 56 0 
L 46.6875 18.703125 
Q 43.0625 26.03125 39.671875 28.421875 
Q 36.28125 30.8125 30.421875 30.8125 
L 19.671875 30.8125 
L 19.671875 0 
L 9.8125 0 
L 9.8125 72.90625 
L 32.078125 72.90625 
Q 44.578125 72.90625 50.734375 67.671875 
Q 56.890625 62.453125 56.890625 51.90625 
Q 56.890625 45.015625 53.6875 40.46875 
Q 50.484375 35.9375 44.390625 34.1875 
M 19.671875 64.796875 
L 19.671875 38.921875 
L 32.078125 38.921875 
Q 39.203125 38.921875 42.84375 42.21875 
Q 46.484375 45.515625 46.484375 51.90625 
Q 46.484375 58.296875 42.84375 61.546875 
Q 39.203125 64.796875 32.078125 64.796875 
z
" id="BitstreamVeraSans-Roman-52"/>
     <path d="M 19.671875 64.796875 
L 19.671875 37.40625 
L 32.078125 37.40625 
Q 38.96875 37.40625 42.71875 40.96875 
Q 46.484375 44.53125 46.484375 51.125 
Q 46.484375 57.671875 42.71875 61.234375 
Q 38.96875 64.796875 32.078125 64.796875 
z
M 9.8125 72.90625 
L 32.078125 72.90625 
Q 44.34375 72.90625 50.609375 67.359375 
Q 56.890625 61.8125 56.890625 51.125 
Q 56.890625 40.328125 50.609375 34.8125 
Q 44.34375 29.296875 32.078125 29.296875 
L 19.671875 29.296875 
L 19.671875 0 
L 9.8125 0 
z
" id="BitstreamVeraSans-Roman-50"/>
     <path d="M 11.71875 12.40625 
L 22.015625 12.40625 
L 22.015625 4 
L 14.015625 -11.625 
L 7.71875 -11.625 
L 11.71875 4 
z
" id="BitstreamVeraSans-Roman-2c"/>
     <path d="M 11.71875 12.40625 
L 22.015625 12.40625 
L 22.015625 0 
L 11.71875 0 
z
M 11.71875 51.703125 
L 22.015625 51.703125 
L 22.015625 39.3125 
L 11.71875 39.3125 
z
" id="BitstreamVeraSans-Roman-3a"/>
     <path d="M 10.6875 12.40625 
L 21 12.40625 
L 21 0 
L 10.6875 0 
z
" id="BitstreamVeraSans-Roman-2e"/>
     <path d="M 45.40625 46.390625 
L 45.40625 75.984375 
L 54.390625 75.984375 
L 54.390625 0 
L 45.40625 0 
L 45.40625 8.203125 
Q 42.578125 3.328125 38.25 0.953125 
Q 33.9375 -1.421875 27.875 -1.421875 
Q 17.96875 -1.421875 11.734375 6.484375 
Q 5.515625 14.40625 5.515625 27.296875 
Q 5.515625 40.1875 11.734375 48.09375 
Q 17.96875 56 27.875 56 
Q 33.9375 56 38.25 53.625 
Q 42.578125 51.265625 45.40625 46.390625 
M 14.796875 27.296875 
Q 14.796875 17.390625 18.875 11.75 
Q 22.953125 6.109375 30.078125 6.109375 
Q 37.203125 6.109375 41.296875 11.75 
Q 45.40625 17.390625 45.40625 27.296875 
Q 45.40625 37.203125 41.296875 42.84375 
Q 37.203125 48.484375 30.078125 48.484375 
Q 22.953125 48.484375 18.875 42.84375 
Q 14.796875 37.203125 14.796875 27.296875 
" id="BitstreamVeraSans-Roman-64"/>
     <path d="M 45.40625 27.984375 
Q 45.40625 37.75 41.375 43.109375 
Q 37.359375 48.484375 30.078125 48.484375 
Q 22.859375 48.484375 18.828125 43.109375 
Q 14.796875 37.75 14.796875 27.984375 
Q 14.796875 18.265625 18.828125 12.890625 
Q 22.859375 7.515625 30.078125 7.515625 
Q 37.359375 7.515625 41.375 12.890625 
Q 45.40625 18.265625 45.40625 27.984375 
M 54.390625 6.78125 
Q 54.390625 -7.171875 48.1875 -13.984375 
Q 42 -20.796875 29.203125 -20.796875 
Q 24.46875 -20.796875 20.265625 -20.09375 
Q 16.0625 -19.390625 12.109375 -17.921875 
L 12.109375 -9.1875 
Q 16.0625 -11.328125 19.921875 -12.34375 
Q 23.78125 -13.375 27.78125 -13.375 
Q 36.625 -13.375 41.015625 -8.765625 
Q 45.40625 -4.15625 45.40625 5.171875 
L 45.40625 9.625 
Q 42.625 4.78125 38.28125 2.390625 
Q 33.9375 0 27.875 0 
Q 17.828125 0 11.671875 7.65625 
Q 5.515625 15.328125 5.515625 27.984375 
Q 5.515625 40.671875 11.671875 48.328125 
Q 17.828125 56 27.875 56 
Q 33.9375 56 38.28125 53.609375 
Q 42.625 51.21875 45.40625 46.390625 
L 45.40625 54.6875 
L 54.390625 54.6875 
z
" id="BitstreamVeraSans-Roman-67"/>
    </defs>
    <g transform="translate(157.297375 18.14175)scale(0.144 -0.144)">
     <use xlink:href="#BitstreamVeraSans-Roman-53"/>
     <use x="63.4765625" xlink:href="#BitstreamVeraSans-Roman-74"/>
     <use x="102.685546875" xlink:href="#BitstreamVeraSans-Roman-64"/>
     <use x="166.162109375" xlink:href="#BitstreamVeraSans-Roman-20"/>
     <use x="197.94921875" xlink:href="#BitstreamVeraSans-Roman-50"/>
     <use x="258.189453125" xlink:href="#BitstreamVeraSans-Roman-61"/>
     <use x="319.46875" xlink:href="#BitstreamVeraSans-Roman-79"/>
     <use x="378.6484375" xlink:href="#BitstreamVeraSans-Roman-6f"/>
     <use x="439.830078125" xlink:href="#BitstreamVeraSans-Roman-66"/>
     <use x="475.03515625" xlink:href="#BitstreamVeraSans-Roman-66"/>
     <use x="510.240234375" xlink:href="#BitstreamVeraSans-Roman-73"/>
     <use x="562.33984375" xlink:href="#BitstreamVeraSans-Roman-2e"/>
     <use x="594.126953125" xlink:href="#BitstreamVeraSans-Roman-20"/>
     <use x="625.9140625" xlink:href="#BitstreamVeraSans-Roman-54"/>
     <use x="686.763671875" xlink:href="#BitstreamVeraSans-Roman-75"/>
     <use x="750.142578125" xlink:href="#BitstreamVeraSans-Roman-72"/>
     <use x="791.240234375" xlink:href="#BitstreamVeraSans-Roman-6e"/>
     <use x="854.619140625" xlink:href="#BitstreamVeraSans-Roman-73"/>
     <use x="906.71875" xlink:href="#BitstreamVeraSans-Roman-3a"/>
     <use x="940.41015625" xlink:href="#BitstreamVeraSans-Roman-20"/>
     <use x="972.197265625" xlink:href="#BitstreamVeraSans-Roman-32"/>
     <use x="1035.8203125" xlink:href="#BitstreamVeraSans-Roman-30"/>
     <use x="1099.44335938" xlink:href="#BitstreamVeraSans-Roman-30"/>
     <use x="1163.06640625" xlink:href="#BitstreamVeraSans-Roman-2c"/>
     <use x="1194.85351562" xlink:href="#BitstreamVeraSans-Roman-20"/>
     <use x="1226.640625" xlink:href="#BitstreamVeraSans-Roman-52"/>
     <use x="1296.06054688" xlink:href="#BitstreamVeraSans-Roman-65"/>
     <use x="1357.58398438" xlink:href="#BitstreamVeraSans-Roman-70"/>
     <use x="1421.06054688" xlink:href="#BitstreamVeraSans-Roman-65"/>
     <use x="1482.58398438" xlink:href="#BitstreamVeraSans-Roman-74"/>
     <use x="1521.79296875" xlink:href="#BitstreamVeraSans-Roman-69"/>
     <use x="1549.57617188" xlink:href="#BitstreamVeraSans-Roman-74"/>
     <use x="1588.78515625" xlink:href="#BitstreamVeraSans-Roman-69"/>
     <use x="1616.56835938" xlink:href="#BitstreamVeraSans-Roman-6f"/>
     <use x="1677.75" xlink:href="#BitstreamVeraSans-Roman-6e"/>
     <use x="1741.12890625" xlink:href="#BitstreamVeraSans-Roman-73"/>
     <use x="1793.22851562" xlink:href="#BitstreamVeraSans-Roman-3a"/>
     <use x="1826.91992188" xlink:href="#BitstreamVeraSans-Roman-20"/>
     <use x="1858.70703125" xlink:href="#BitstreamVeraSans-Roman-31"/>
     <use x="1922.33007812" xlink:href="#BitstreamVeraSans-Roman-30"/>
     <use x="1985.953125" xlink:href="#BitstreamVeraSans-Roman-30"/>
     <use x="2049.57617188" xlink:href="#BitstreamVeraSans-Roman-2c"/>
     <use x="2081.36328125" xlink:href="#BitstreamVeraSans-Roman-20"/>
     <use x="2113.15039062" xlink:href="#BitstreamVeraSans-Roman-53"/>
     <use x="2176.62695312" xlink:href="#BitstreamVeraSans-Roman-74"/>
     <use x="2215.8359375" xlink:href="#BitstreamVeraSans-Roman-72"/>
     <use x="2256.94921875" xlink:href="#BitstreamVeraSans-Roman-61"/>
     <use x="2318.22851562" xlink:href="#BitstreamVeraSans-Roman-74"/>
     <use x="2357.4375" xlink:href="#BitstreamVeraSans-Roman-65"/>
     <use x="2418.9609375" xlink:href="#BitstreamVeraSans-Roman-67"/>
     <use x="2482.4375" xlink:href="#BitstreamVeraSans-Roman-69"/>
     <use x="2510.22070312" xlink:href="#BitstreamVeraSans-Roman-65"/>
     <use x="2571.74414062" xlink:href="#BitstreamVeraSans-Roman-73"/>
     <use x="2623.84375" xlink:href="#BitstreamVeraSans-Roman-3a"/>
     <use x="2657.53515625" xlink:href="#BitstreamVeraSans-Roman-20"/>
     <use x="2689.32226562" xlink:href="#BitstreamVeraSans-Roman-38"/>
     <use x="2752.9453125" xlink:href="#BitstreamVeraSans-Roman-2e"/>
    </g>
   </g>
  </g>
 </g>
 <defs>
  <clipPath id="p073675894d">
   <rect height="345.6" width="669.6" x="22.99375" y="23.14175"/>
  </clipPath>
 </defs>
</svg>
