<?xml version="1.0" encoding="utf-8" standalone="no"?>
<!DOCTYPE svg PUBLIC "-//W3C//DTD SVG 1.1//EN"
  "http://www.w3.org/Graphics/SVG/1.1/DTD/svg11.dtd">
<!-- Created with matplotlib (http://matplotlib.org/) -->
<svg height="465pt" version="1.1" viewBox="0 0 693 465" width="693pt" xmlns="http://www.w3.org/2000/svg" xmlns:xlink="http://www.w3.org/1999/xlink">
 <defs>
  <style type="text/css">
*{stroke-linecap:butt;stroke-linejoin:round;stroke-miterlimit:100000;}
  </style>
 </defs>
 <g id="figure_1">
  <g id="patch_1">
   <path d="M 0 465.868 
L 693.09 465.868 
L 693.09 0 
L 0 0 
z
" style="fill:#ffffff;"/>
  </g>
  <g id="axes_1">
   <g id="patch_2">
    <path d="M 16.29 368.74175 
L 685.89 368.74175 
L 685.89 23.14175 
L 16.29 23.14175 
z
" style="fill:#ffffff;"/>
   </g>
   <g id="PolyCollection_1">
    <defs>
     <path d="M 109.29 -418.040536 
L 72.09 -418.040536 
L 72.09 -418.040536 
L 72.09 -418.040536 
L 72.09 -418.040536 
L 72.09 -418.040536 
L 72.09 -418.040536 
L 72.09 -418.040536 
L 72.09 -418.040536 
L 72.09 -418.040536 
L 72.09 -418.040536 
L 72.09 -418.040536 
L 72.09 -418.040536 
L 72.09 -418.040536 
L 72.09 -418.040536 
L 72.09 -418.040536 
L 72.09 -418.040536 
L 72.09 -418.040536 
L 72.09 -418.040536 
L 72.09 -418.040536 
L 72.09 -418.040536 
L 72.09 -418.040536 
L 72.09 -418.040536 
L 72.09 -418.040536 
L 72.09 -418.040536 
L 72.09 -418.040536 
L 72.09 -418.040536 
L 72.09 -418.040536 
L 72.09 -418.040536 
L 72.09 -418.040536 
L 72.09 -418.040536 
L 72.09 -418.040536 
L 72.09 -418.040536 
L 72.09 -418.040536 
L 72.09 -418.040536 
L 72.09 -418.040536 
L 72.09 -418.040536 
L 72.09 -418.040536 
L 72.09 -418.040536 
L 72.09 -418.040536 
L 72.09 -418.040536 
L 72.09 -418.040536 
L 72.09 -418.040536 
L 72.09 -418.040536 
L 72.09 -418.040536 
L 72.09 -418.040536 
L 72.09 -418.040536 
L 72.09 -418.040536 
L 72.09 -418.040536 
L 72.09 -418.040536 
L 72.09 -418.040536 
L 72.09 -418.040536 
L 72.09 -418.040536 
L 72.09 -418.040536 
L 72.09 -418.040536 
L 72.09 -418.040536 
L 72.09 -418.040536 
L 72.09 -418.040536 
L 72.09 -418.040536 
L 72.09 -418.040536 
L 72.09 -418.040536 
L 72.09 -418.040536 
L 72.09 -418.040536 
L 72.09 -418.040536 
L 72.09 -418.040536 
L 72.09 -418.040536 
L 72.09 -418.040536 
L 72.09 -418.040536 
L 72.09 -418.040536 
L 72.09 -418.040536 
L 72.09 -418.040536 
L 72.09 -418.040536 
L 72.09 -418.040536 
L 72.09 -418.040536 
L 72.09 -418.040536 
L 72.09 -418.040536 
L 72.09 -418.040536 
L 72.09 -418.040536 
L 72.09 -418.040536 
L 72.09 -418.040536 
L 72.09 -418.040536 
L 72.09 -418.040536 
L 72.09 -418.040536 
L 72.09 -418.040536 
L 72.09 -418.040536 
L 72.09 -418.040536 
L 72.09 -418.040536 
L 72.09 -418.040536 
L 72.09 -418.040536 
L 72.09 -418.040536 
L 72.09 -418.040536 
L 72.09 -418.040536 
L 72.09 -418.040536 
L 72.09 -418.040536 
L 72.09 -418.040536 
L 72.09 -418.040536 
L 72.09 -418.040536 
L 72.09 -418.040536 
L 72.09 -418.040536 
L 72.09 -418.040536 
L 72.09 -418.040536 
L 109.29 -418.040536 
L 109.29 -418.040536 
L 109.29 -418.040536 
L 109.29 -418.040536 
L 109.29 -418.040536 
L 109.29 -418.040536 
L 109.29 -418.040536 
L 109.29 -418.040536 
L 109.29 -418.040536 
L 109.29 -418.040536 
L 109.29 -418.040536 
L 109.29 -418.040536 
L 109.29 -418.040536 
L 109.29 -418.040536 
L 109.29 -418.040536 
L 109.29 -418.040536 
L 109.29 -418.040536 
L 109.29 -418.040536 
L 109.29 -418.040536 
L 109.29 -418.040536 
L 109.29 -418.040536 
L 109.29 -418.040536 
L 109.29 -418.040536 
L 109.29 -418.040536 
L 109.29 -418.040536 
L 109.29 -418.040536 
L 109.29 -418.040536 
L 109.29 -418.040536 
L 109.29 -418.040536 
L 109.29 -418.040536 
L 109.29 -418.040536 
L 109.29 -418.040536 
L 109.29 -418.040536 
L 109.29 -418.040536 
L 109.29 -418.040536 
L 109.29 -418.040536 
L 109.29 -418.040536 
L 109.29 -418.040536 
L 109.29 -418.040536 
L 109.29 -418.040536 
L 109.29 -418.040536 
L 109.29 -418.040536 
L 109.29 -418.040536 
L 109.29 -418.040536 
L 109.29 -418.040536 
L 109.29 -418.040536 
L 109.29 -418.040536 
L 109.29 -418.040536 
L 109.29 -418.040536 
L 109.29 -418.040536 
L 109.29 -418.040536 
L 109.29 -418.040536 
L 109.29 -418.040536 
L 109.29 -418.040536 
L 109.29 -418.040536 
L 109.29 -418.040536 
L 109.29 -418.040536 
L 109.29 -418.040536 
L 109.29 -418.040536 
L 109.29 -418.040536 
L 109.29 -418.040536 
L 109.29 -418.040536 
L 109.29 -418.040536 
L 109.29 -418.040536 
L 109.29 -418.040536 
L 109.29 -418.040536 
L 109.29 -418.040536 
L 109.29 -418.040536 
L 109.29 -418.040536 
L 109.29 -418.040536 
L 109.29 -418.040536 
L 109.29 -418.040536 
L 109.29 -418.040536 
L 109.29 -418.040536 
L 109.29 -418.040536 
L 109.29 -418.040536 
L 109.29 -418.040536 
L 109.29 -418.040536 
L 109.29 -418.040536 
L 109.29 -418.040536 
L 109.29 -418.040536 
L 109.29 -418.040536 
L 109.29 -418.040536 
L 109.29 -418.040536 
L 109.29 -418.040536 
L 109.29 -418.040536 
L 109.29 -418.040536 
L 109.29 -418.040536 
L 109.29 -418.040536 
L 109.29 -418.040536 
L 109.29 -418.040536 
L 109.29 -418.040536 
L 109.29 -418.040536 
L 109.29 -418.040536 
L 109.29 -418.040536 
L 109.29 -418.040536 
L 109.29 -418.040536 
L 109.29 -418.040536 
L 109.29 -418.040536 
L 109.29 -418.040536 
L 109.29 -418.040536 
z
" id="ma42f2adcec" style="stroke:#000000;stroke-opacity:0.3;"/>
    </defs>
    <g clip-path="url(#p559b9ad078)">
     <use style="fill:#bfbf00;fill-opacity:0.3;stroke:#000000;stroke-opacity:0.3;" x="0.0" xlink:href="#ma42f2adcec" y="465.868"/>
    </g>
   </g>
   <g id="PolyCollection_2">
    <defs>
     <path d="M 181.481539 -319.297679 
L 148.698461 -319.297679 
L 148.607289 -320.295081 
L 148.518083 -321.292484 
L 148.430849 -322.289886 
L 148.345593 -323.287289 
L 148.262319 -324.284692 
L 148.181031 -325.282094 
L 148.101731 -326.279497 
L 148.024419 -327.276899 
L 147.949097 -328.274302 
L 147.875762 -329.271705 
L 147.804412 -330.269107 
L 147.735045 -331.26651 
L 147.667656 -332.263912 
L 147.602241 -333.261315 
L 147.538794 -334.258718 
L 147.477309 -335.25612 
L 147.417778 -336.253523 
L 147.360196 -337.250925 
L 147.304553 -338.248328 
L 147.250841 -339.245731 
L 147.19905 -340.243133 
L 147.149172 -341.240536 
L 147.101197 -342.237938 
L 147.055114 -343.235341 
L 147.010914 -344.232744 
L 146.968587 -345.230146 
L 146.928121 -346.227549 
L 146.889507 -347.224951 
L 146.852734 -348.222354 
L 146.817791 -349.219756 
L 146.784669 -350.217159 
L 146.753357 -351.214562 
L 146.723845 -352.211964 
L 146.696125 -353.209367 
L 146.670186 -354.206769 
L 146.64602 -355.204172 
L 146.623618 -356.201575 
L 146.602972 -357.198977 
L 146.584074 -358.19638 
L 146.566919 -359.193782 
L 146.551498 -360.191185 
L 146.537806 -361.188588 
L 146.525837 -362.18599 
L 146.515588 -363.183393 
L 146.507053 -364.180795 
L 146.500229 -365.178198 
L 146.495113 -366.175601 
L 146.491704 -367.173003 
L 146.49 -368.170406 
L 146.49 -369.167808 
L 146.491704 -370.165211 
L 146.495113 -371.162614 
L 146.500229 -372.160016 
L 146.507053 -373.157419 
L 146.515588 -374.154821 
L 146.525837 -375.152224 
L 146.537806 -376.149627 
L 146.551498 -377.147029 
L 146.566919 -378.144432 
L 146.584074 -379.141834 
L 146.602972 -380.139237 
L 146.623618 -381.13664 
L 146.64602 -382.134042 
L 146.670186 -383.131445 
L 146.696125 -384.128847 
L 146.723845 -385.12625 
L 146.753357 -386.123653 
L 146.784669 -387.121055 
L 146.817791 -388.118458 
L 146.852734 -389.11586 
L 146.889507 -390.113263 
L 146.928121 -391.110666 
L 146.968587 -392.108068 
L 147.010914 -393.105471 
L 147.055114 -394.102873 
L 147.101197 -395.100276 
L 147.149172 -396.097679 
L 147.19905 -397.095081 
L 147.250841 -398.092484 
L 147.304553 -399.089886 
L 147.360196 -400.087289 
L 147.417778 -401.084692 
L 147.477309 -402.082094 
L 147.538794 -403.079497 
L 147.602241 -404.076899 
L 147.667656 -405.074302 
L 147.735045 -406.071705 
L 147.804412 -407.069107 
L 147.875762 -408.06651 
L 147.949097 -409.063912 
L 148.024419 -410.061315 
L 148.101731 -411.058718 
L 148.181031 -412.05612 
L 148.262319 -413.053523 
L 148.345593 -414.050925 
L 148.430849 -415.048328 
L 148.518083 -416.045731 
L 148.607289 -417.043133 
L 148.698461 -418.040536 
L 181.481539 -418.040536 
L 181.481539 -418.040536 
L 181.572711 -417.043133 
L 181.661917 -416.045731 
L 181.749151 -415.048328 
L 181.834407 -414.050925 
L 181.917681 -413.053523 
L 181.998969 -412.05612 
L 182.078269 -411.058718 
L 182.155581 -410.061315 
L 182.230903 -409.063912 
L 182.304238 -408.06651 
L 182.375588 -407.069107 
L 182.444955 -406.071705 
L 182.512344 -405.074302 
L 182.577759 -404.076899 
L 182.641206 -403.079497 
L 182.702691 -402.082094 
L 182.762222 -401.084692 
L 182.819804 -400.087289 
L 182.875447 -399.089886 
L 182.929159 -398.092484 
L 182.98095 -397.095081 
L 183.030828 -396.097679 
L 183.078803 -395.100276 
L 183.124886 -394.102873 
L 183.169086 -393.105471 
L 183.211413 -392.108068 
L 183.251879 -391.110666 
L 183.290493 -390.113263 
L 183.327266 -389.11586 
L 183.362209 -388.118458 
L 183.395331 -387.121055 
L 183.426643 -386.123653 
L 183.456155 -385.12625 
L 183.483875 -384.128847 
L 183.509814 -383.131445 
L 183.53398 -382.134042 
L 183.556382 -381.13664 
L 183.577028 -380.139237 
L 183.595926 -379.141834 
L 183.613081 -378.144432 
L 183.628502 -377.147029 
L 183.642194 -376.149627 
L 183.654163 -375.152224 
L 183.664412 -374.154821 
L 183.672947 -373.157419 
L 183.679771 -372.160016 
L 183.684887 -371.162614 
L 183.688296 -370.165211 
L 183.69 -369.167808 
L 183.69 -368.170406 
L 183.688296 -367.173003 
L 183.684887 -366.175601 
L 183.679771 -365.178198 
L 183.672947 -364.180795 
L 183.664412 -363.183393 
L 183.654163 -362.18599 
L 183.642194 -361.188588 
L 183.628502 -360.191185 
L 183.613081 -359.193782 
L 183.595926 -358.19638 
L 183.577028 -357.198977 
L 183.556382 -356.201575 
L 183.53398 -355.204172 
L 183.509814 -354.206769 
L 183.483875 -353.209367 
L 183.456155 -352.211964 
L 183.426643 -351.214562 
L 183.395331 -350.217159 
L 183.362209 -349.219756 
L 183.327266 -348.222354 
L 183.290493 -347.224951 
L 183.251879 -346.227549 
L 183.211413 -345.230146 
L 183.169086 -344.232744 
L 183.124886 -343.235341 
L 183.078803 -342.237938 
L 183.030828 -341.240536 
L 182.98095 -340.243133 
L 182.929159 -339.245731 
L 182.875447 -338.248328 
L 182.819804 -337.250925 
L 182.762222 -336.253523 
L 182.702691 -335.25612 
L 182.641206 -334.258718 
L 182.577759 -333.261315 
L 182.512344 -332.263912 
L 182.444955 -331.26651 
L 182.375588 -330.269107 
L 182.304238 -329.271705 
L 182.230903 -328.274302 
L 182.155581 -327.276899 
L 182.078269 -326.279497 
L 181.998969 -325.282094 
L 181.917681 -324.284692 
L 181.834407 -323.287289 
L 181.749151 -322.289886 
L 181.661917 -321.292484 
L 181.572711 -320.295081 
L 181.481539 -319.297679 
z
" id="mc61fc75736" style="stroke:#000000;stroke-opacity:0.3;"/>
    </defs>
    <g clip-path="url(#p559b9ad078)">
     <use style="fill:#bfbf00;fill-opacity:0.3;stroke:#000000;stroke-opacity:0.3;" x="0.0" xlink:href="#mc61fc75736" y="465.868"/>
    </g>
   </g>
   <g id="PolyCollection_3">
    <defs>
     <path d="M 255.881539 -319.297679 
L 223.098461 -319.297679 
L 223.007289 -319.79638 
L 222.918083 -320.295081 
L 222.830849 -320.793782 
L 222.745593 -321.292484 
L 222.662319 -321.791185 
L 222.581031 -322.289886 
L 222.501731 -322.788588 
L 222.424419 -323.287289 
L 222.349097 -323.78599 
L 222.275762 -324.284692 
L 222.204412 -324.783393 
L 222.135045 -325.282094 
L 222.067656 -325.780795 
L 222.002241 -326.279497 
L 221.938794 -326.778198 
L 221.877309 -327.276899 
L 221.817778 -327.775601 
L 221.760196 -328.274302 
L 221.704553 -328.773003 
L 221.650841 -329.271705 
L 221.59905 -329.770406 
L 221.549172 -330.269107 
L 221.501197 -330.767808 
L 221.455114 -331.26651 
L 221.410914 -331.765211 
L 221.368587 -332.263912 
L 221.328121 -332.762614 
L 221.289507 -333.261315 
L 221.252734 -333.760016 
L 221.217791 -334.258718 
L 221.184669 -334.757419 
L 221.153357 -335.25612 
L 221.123845 -335.754821 
L 221.096125 -336.253523 
L 221.070186 -336.752224 
L 221.04602 -337.250925 
L 221.023618 -337.749627 
L 221.002972 -338.248328 
L 220.984074 -338.747029 
L 220.966919 -339.245731 
L 220.951498 -339.744432 
L 220.937806 -340.243133 
L 220.925837 -340.741834 
L 220.915588 -341.240536 
L 220.907053 -341.739237 
L 220.900229 -342.237938 
L 220.895113 -342.73664 
L 220.891704 -343.235341 
L 220.89 -343.734042 
L 220.89 -344.232744 
L 220.891704 -344.731445 
L 220.895113 -345.230146 
L 220.900229 -345.728847 
L 220.907053 -346.227549 
L 220.915588 -346.72625 
L 220.925837 -347.224951 
L 220.937806 -347.723653 
L 220.951498 -348.222354 
L 220.966919 -348.721055 
L 220.984074 -349.219756 
L 221.002972 -349.718458 
L 221.023618 -350.217159 
L 221.04602 -350.71586 
L 221.070186 -351.214562 
L 221.096125 -351.713263 
L 221.123845 -352.211964 
L 221.153357 -352.710666 
L 221.184669 -353.209367 
L 221.217791 -353.708068 
L 221.252734 -354.206769 
L 221.289507 -354.705471 
L 221.328121 -355.204172 
L 221.368587 -355.702873 
L 221.410914 -356.201575 
L 221.455114 -356.700276 
L 221.501197 -357.198977 
L 221.549172 -357.697679 
L 221.59905 -358.19638 
L 221.650841 -358.695081 
L 221.704553 -359.193782 
L 221.760196 -359.692484 
L 221.817778 -360.191185 
L 221.877309 -360.689886 
L 221.938794 -361.188588 
L 222.002241 -361.687289 
L 222.067656 -362.18599 
L 222.135045 -362.684692 
L 222.204412 -363.183393 
L 222.275762 -363.682094 
L 222.349097 -364.180795 
L 222.424419 -364.679497 
L 222.501731 -365.178198 
L 222.581031 -365.676899 
L 222.662319 -366.175601 
L 222.745593 -366.674302 
L 222.830849 -367.173003 
L 222.918083 -367.671705 
L 223.007289 -368.170406 
L 223.098461 -368.669107 
L 255.881539 -368.669107 
L 255.881539 -368.669107 
L 255.972711 -368.170406 
L 256.061917 -367.671705 
L 256.149151 -367.173003 
L 256.234407 -366.674302 
L 256.317681 -366.175601 
L 256.398969 -365.676899 
L 256.478269 -365.178198 
L 256.555581 -364.679497 
L 256.630903 -364.180795 
L 256.704238 -363.682094 
L 256.775588 -363.183393 
L 256.844955 -362.684692 
L 256.912344 -362.18599 
L 256.977759 -361.687289 
L 257.041206 -361.188588 
L 257.102691 -360.689886 
L 257.162222 -360.191185 
L 257.219804 -359.692484 
L 257.275447 -359.193782 
L 257.329159 -358.695081 
L 257.38095 -358.19638 
L 257.430828 -357.697679 
L 257.478803 -357.198977 
L 257.524886 -356.700276 
L 257.569086 -356.201575 
L 257.611413 -355.702873 
L 257.651879 -355.204172 
L 257.690493 -354.705471 
L 257.727266 -354.206769 
L 257.762209 -353.708068 
L 257.795331 -353.209367 
L 257.826643 -352.710666 
L 257.856155 -352.211964 
L 257.883875 -351.713263 
L 257.909814 -351.214562 
L 257.93398 -350.71586 
L 257.956382 -350.217159 
L 257.977028 -349.718458 
L 257.995926 -349.219756 
L 258.013081 -348.721055 
L 258.028502 -348.222354 
L 258.042194 -347.723653 
L 258.054163 -347.224951 
L 258.064412 -346.72625 
L 258.072947 -346.227549 
L 258.079771 -345.728847 
L 258.084887 -345.230146 
L 258.088296 -344.731445 
L 258.09 -344.232744 
L 258.09 -343.734042 
L 258.088296 -343.235341 
L 258.084887 -342.73664 
L 258.079771 -342.237938 
L 258.072947 -341.739237 
L 258.064412 -341.240536 
L 258.054163 -340.741834 
L 258.042194 -340.243133 
L 258.028502 -339.744432 
L 258.013081 -339.245731 
L 257.995926 -338.747029 
L 257.977028 -338.248328 
L 257.956382 -337.749627 
L 257.93398 -337.250925 
L 257.909814 -336.752224 
L 257.883875 -336.253523 
L 257.856155 -335.754821 
L 257.826643 -335.25612 
L 257.795331 -334.757419 
L 257.762209 -334.258718 
L 257.727266 -333.760016 
L 257.690493 -333.261315 
L 257.651879 -332.762614 
L 257.611413 -332.263912 
L 257.569086 -331.765211 
L 257.524886 -331.26651 
L 257.478803 -330.767808 
L 257.430828 -330.269107 
L 257.38095 -329.770406 
L 257.329159 -329.271705 
L 257.275447 -328.773003 
L 257.219804 -328.274302 
L 257.162222 -327.775601 
L 257.102691 -327.276899 
L 257.041206 -326.778198 
L 256.977759 -326.279497 
L 256.912344 -325.780795 
L 256.844955 -325.282094 
L 256.775588 -324.783393 
L 256.704238 -324.284692 
L 256.630903 -323.78599 
L 256.555581 -323.287289 
L 256.478269 -322.788588 
L 256.398969 -322.289886 
L 256.317681 -321.791185 
L 256.234407 -321.292484 
L 256.149151 -320.793782 
L 256.061917 -320.295081 
L 255.972711 -319.79638 
L 255.881539 -319.297679 
z
" id="m2496df01ce" style="stroke:#000000;stroke-opacity:0.3;"/>
    </defs>
    <g clip-path="url(#p559b9ad078)">
     <use style="fill:#bfbf00;fill-opacity:0.3;stroke:#000000;stroke-opacity:0.3;" x="0.0" xlink:href="#m2496df01ce" y="465.868"/>
    </g>
   </g>
   <g id="PolyCollection_4">
    <defs>
     <path d="M 330.281539 -171.183393 
L 297.498461 -171.183393 
L 297.407289 -172.180795 
L 297.318083 -173.178198 
L 297.230849 -174.175601 
L 297.145593 -175.173003 
L 297.062319 -176.170406 
L 296.981031 -177.167808 
L 296.901731 -178.165211 
L 296.824419 -179.162614 
L 296.749097 -180.160016 
L 296.675762 -181.157419 
L 296.604412 -182.154821 
L 296.535045 -183.152224 
L 296.467656 -184.149627 
L 296.402241 -185.147029 
L 296.338794 -186.144432 
L 296.277309 -187.141834 
L 296.217778 -188.139237 
L 296.160196 -189.13664 
L 296.104553 -190.134042 
L 296.050841 -191.131445 
L 295.99905 -192.128847 
L 295.949172 -193.12625 
L 295.901197 -194.123653 
L 295.855114 -195.121055 
L 295.810914 -196.118458 
L 295.768587 -197.11586 
L 295.728121 -198.113263 
L 295.689507 -199.110666 
L 295.652734 -200.108068 
L 295.617791 -201.105471 
L 295.584669 -202.102873 
L 295.553357 -203.100276 
L 295.523845 -204.097679 
L 295.496125 -205.095081 
L 295.470186 -206.092484 
L 295.44602 -207.089886 
L 295.423618 -208.087289 
L 295.402972 -209.084692 
L 295.384074 -210.082094 
L 295.366919 -211.079497 
L 295.351498 -212.076899 
L 295.337806 -213.074302 
L 295.325837 -214.071705 
L 295.315588 -215.069107 
L 295.307053 -216.06651 
L 295.300229 -217.063912 
L 295.295113 -218.061315 
L 295.291704 -219.058718 
L 295.29 -220.05612 
L 295.29 -221.053523 
L 295.291704 -222.050925 
L 295.295113 -223.048328 
L 295.300229 -224.045731 
L 295.307053 -225.043133 
L 295.315588 -226.040536 
L 295.325837 -227.037938 
L 295.337806 -228.035341 
L 295.351498 -229.032744 
L 295.366919 -230.030146 
L 295.384074 -231.027549 
L 295.402972 -232.024951 
L 295.423618 -233.022354 
L 295.44602 -234.019756 
L 295.470186 -235.017159 
L 295.496125 -236.014562 
L 295.523845 -237.011964 
L 295.553357 -238.009367 
L 295.584669 -239.006769 
L 295.617791 -240.004172 
L 295.652734 -241.001575 
L 295.689507 -241.998977 
L 295.728121 -242.99638 
L 295.768587 -243.993782 
L 295.810914 -244.991185 
L 295.855114 -245.988588 
L 295.901197 -246.98599 
L 295.949172 -247.983393 
L 295.99905 -248.980795 
L 296.050841 -249.978198 
L 296.104553 -250.975601 
L 296.160196 -251.973003 
L 296.217778 -252.970406 
L 296.277309 -253.967808 
L 296.338794 -254.965211 
L 296.402241 -255.962614 
L 296.467656 -256.960016 
L 296.535045 -257.957419 
L 296.604412 -258.954821 
L 296.675762 -259.952224 
L 296.749097 -260.949627 
L 296.824419 -261.947029 
L 296.901731 -262.944432 
L 296.981031 -263.941834 
L 297.062319 -264.939237 
L 297.145593 -265.93664 
L 297.230849 -266.934042 
L 297.318083 -267.931445 
L 297.407289 -268.928847 
L 297.498461 -269.92625 
L 330.281539 -269.92625 
L 330.281539 -269.92625 
L 330.372711 -268.928847 
L 330.461917 -267.931445 
L 330.549151 -266.934042 
L 330.634407 -265.93664 
L 330.717681 -264.939237 
L 330.798969 -263.941834 
L 330.878269 -262.944432 
L 330.955581 -261.947029 
L 331.030903 -260.949627 
L 331.104238 -259.952224 
L 331.175588 -258.954821 
L 331.244955 -257.957419 
L 331.312344 -256.960016 
L 331.377759 -255.962614 
L 331.441206 -254.965211 
L 331.502691 -253.967808 
L 331.562222 -252.970406 
L 331.619804 -251.973003 
L 331.675447 -250.975601 
L 331.729159 -249.978198 
L 331.78095 -248.980795 
L 331.830828 -247.983393 
L 331.878803 -246.98599 
L 331.924886 -245.988588 
L 331.969086 -244.991185 
L 332.011413 -243.993782 
L 332.051879 -242.99638 
L 332.090493 -241.998977 
L 332.127266 -241.001575 
L 332.162209 -240.004172 
L 332.195331 -239.006769 
L 332.226643 -238.009367 
L 332.256155 -237.011964 
L 332.283875 -236.014562 
L 332.309814 -235.017159 
L 332.33398 -234.019756 
L 332.356382 -233.022354 
L 332.377028 -232.024951 
L 332.395926 -231.027549 
L 332.413081 -230.030146 
L 332.428502 -229.032744 
L 332.442194 -228.035341 
L 332.454163 -227.037938 
L 332.464412 -226.040536 
L 332.472947 -225.043133 
L 332.479771 -224.045731 
L 332.484887 -223.048328 
L 332.488296 -222.050925 
L 332.49 -221.053523 
L 332.49 -220.05612 
L 332.488296 -219.058718 
L 332.484887 -218.061315 
L 332.479771 -217.063912 
L 332.472947 -216.06651 
L 332.464412 -215.069107 
L 332.454163 -214.071705 
L 332.442194 -213.074302 
L 332.428502 -212.076899 
L 332.413081 -211.079497 
L 332.395926 -210.082094 
L 332.377028 -209.084692 
L 332.356382 -208.087289 
L 332.33398 -207.089886 
L 332.309814 -206.092484 
L 332.283875 -205.095081 
L 332.256155 -204.097679 
L 332.226643 -203.100276 
L 332.195331 -202.102873 
L 332.162209 -201.105471 
L 332.127266 -200.108068 
L 332.090493 -199.110666 
L 332.051879 -198.113263 
L 332.011413 -197.11586 
L 331.969086 -196.118458 
L 331.924886 -195.121055 
L 331.878803 -194.123653 
L 331.830828 -193.12625 
L 331.78095 -192.128847 
L 331.729159 -191.131445 
L 331.675447 -190.134042 
L 331.619804 -189.13664 
L 331.562222 -188.139237 
L 331.502691 -187.141834 
L 331.441206 -186.144432 
L 331.377759 -185.147029 
L 331.312344 -184.149627 
L 331.244955 -183.152224 
L 331.175588 -182.154821 
L 331.104238 -181.157419 
L 331.030903 -180.160016 
L 330.955581 -179.162614 
L 330.878269 -178.165211 
L 330.798969 -177.167808 
L 330.717681 -176.170406 
L 330.634407 -175.173003 
L 330.549151 -174.175601 
L 330.461917 -173.178198 
L 330.372711 -172.180795 
L 330.281539 -171.183393 
z
" id="m849412c2b6" style="stroke:#000000;stroke-opacity:0.3;"/>
    </defs>
    <g clip-path="url(#p559b9ad078)">
     <use style="fill:#bfbf00;fill-opacity:0.3;stroke:#000000;stroke-opacity:0.3;" x="0.0" xlink:href="#m849412c2b6" y="465.868"/>
    </g>
   </g>
   <g id="PolyCollection_5">
    <defs>
     <path d="M 404.681539 -171.183393 
L 371.898461 -171.183393 
L 371.807289 -171.682094 
L 371.718083 -172.180795 
L 371.630849 -172.679497 
L 371.545593 -173.178198 
L 371.462319 -173.676899 
L 371.381031 -174.175601 
L 371.301731 -174.674302 
L 371.224419 -175.173003 
L 371.149097 -175.671705 
L 371.075762 -176.170406 
L 371.004412 -176.669107 
L 370.935045 -177.167808 
L 370.867656 -177.66651 
L 370.802241 -178.165211 
L 370.738794 -178.663912 
L 370.677309 -179.162614 
L 370.617778 -179.661315 
L 370.560196 -180.160016 
L 370.504553 -180.658718 
L 370.450841 -181.157419 
L 370.39905 -181.65612 
L 370.349172 -182.154821 
L 370.301197 -182.653523 
L 370.255114 -183.152224 
L 370.210914 -183.650925 
L 370.168587 -184.149627 
L 370.128121 -184.648328 
L 370.089507 -185.147029 
L 370.052734 -185.645731 
L 370.017791 -186.144432 
L 369.984669 -186.643133 
L 369.953357 -187.141834 
L 369.923845 -187.640536 
L 369.896125 -188.139237 
L 369.870186 -188.637938 
L 369.84602 -189.13664 
L 369.823618 -189.635341 
L 369.802972 -190.134042 
L 369.784074 -190.632744 
L 369.766919 -191.131445 
L 369.751498 -191.630146 
L 369.737806 -192.128847 
L 369.725837 -192.627549 
L 369.715588 -193.12625 
L 369.707053 -193.624951 
L 369.700229 -194.123653 
L 369.695113 -194.622354 
L 369.691704 -195.121055 
L 369.69 -195.619756 
L 369.69 -196.118458 
L 369.691704 -196.617159 
L 369.695113 -197.11586 
L 369.700229 -197.614562 
L 369.707053 -198.113263 
L 369.715588 -198.611964 
L 369.725837 -199.110666 
L 369.737806 -199.609367 
L 369.751498 -200.108068 
L 369.766919 -200.606769 
L 369.784074 -201.105471 
L 369.802972 -201.604172 
L 369.823618 -202.102873 
L 369.84602 -202.601575 
L 369.870186 -203.100276 
L 369.896125 -203.598977 
L 369.923845 -204.097679 
L 369.953357 -204.59638 
L 369.984669 -205.095081 
L 370.017791 -205.593782 
L 370.052734 -206.092484 
L 370.089507 -206.591185 
L 370.128121 -207.089886 
L 370.168587 -207.588588 
L 370.210914 -208.087289 
L 370.255114 -208.58599 
L 370.301197 -209.084692 
L 370.349172 -209.583393 
L 370.39905 -210.082094 
L 370.450841 -210.580795 
L 370.504553 -211.079497 
L 370.560196 -211.578198 
L 370.617778 -212.076899 
L 370.677309 -212.575601 
L 370.738794 -213.074302 
L 370.802241 -213.573003 
L 370.867656 -214.071705 
L 370.935045 -214.570406 
L 371.004412 -215.069107 
L 371.075762 -215.567808 
L 371.149097 -216.06651 
L 371.224419 -216.565211 
L 371.301731 -217.063912 
L 371.381031 -217.562614 
L 371.462319 -218.061315 
L 371.545593 -218.560016 
L 371.630849 -219.058718 
L 371.718083 -219.557419 
L 371.807289 -220.05612 
L 371.898461 -220.554821 
L 404.681539 -220.554821 
L 404.681539 -220.554821 
L 404.772711 -220.05612 
L 404.861917 -219.557419 
L 404.949151 -219.058718 
L 405.034407 -218.560016 
L 405.117681 -218.061315 
L 405.198969 -217.562614 
L 405.278269 -217.063912 
L 405.355581 -216.565211 
L 405.430903 -216.06651 
L 405.504238 -215.567808 
L 405.575588 -215.069107 
L 405.644955 -214.570406 
L 405.712344 -214.071705 
L 405.777759 -213.573003 
L 405.841206 -213.074302 
L 405.902691 -212.575601 
L 405.962222 -212.076899 
L 406.019804 -211.578198 
L 406.075447 -211.079497 
L 406.129159 -210.580795 
L 406.18095 -210.082094 
L 406.230828 -209.583393 
L 406.278803 -209.084692 
L 406.324886 -208.58599 
L 406.369086 -208.087289 
L 406.411413 -207.588588 
L 406.451879 -207.089886 
L 406.490493 -206.591185 
L 406.527266 -206.092484 
L 406.562209 -205.593782 
L 406.595331 -205.095081 
L 406.626643 -204.59638 
L 406.656155 -204.097679 
L 406.683875 -203.598977 
L 406.709814 -203.100276 
L 406.73398 -202.601575 
L 406.756382 -202.102873 
L 406.777028 -201.604172 
L 406.795926 -201.105471 
L 406.813081 -200.606769 
L 406.828502 -200.108068 
L 406.842194 -199.609367 
L 406.854163 -199.110666 
L 406.864412 -198.611964 
L 406.872947 -198.113263 
L 406.879771 -197.614562 
L 406.884887 -197.11586 
L 406.888296 -196.617159 
L 406.89 -196.118458 
L 406.89 -195.619756 
L 406.888296 -195.121055 
L 406.884887 -194.622354 
L 406.879771 -194.123653 
L 406.872947 -193.624951 
L 406.864412 -193.12625 
L 406.854163 -192.627549 
L 406.842194 -192.128847 
L 406.828502 -191.630146 
L 406.813081 -191.131445 
L 406.795926 -190.632744 
L 406.777028 -190.134042 
L 406.756382 -189.635341 
L 406.73398 -189.13664 
L 406.709814 -188.637938 
L 406.683875 -188.139237 
L 406.656155 -187.640536 
L 406.626643 -187.141834 
L 406.595331 -186.643133 
L 406.562209 -186.144432 
L 406.527266 -185.645731 
L 406.490493 -185.147029 
L 406.451879 -184.648328 
L 406.411413 -184.149627 
L 406.369086 -183.650925 
L 406.324886 -183.152224 
L 406.278803 -182.653523 
L 406.230828 -182.154821 
L 406.18095 -181.65612 
L 406.129159 -181.157419 
L 406.075447 -180.658718 
L 406.019804 -180.160016 
L 405.962222 -179.661315 
L 405.902691 -179.162614 
L 405.841206 -178.663912 
L 405.777759 -178.165211 
L 405.712344 -177.66651 
L 405.644955 -177.167808 
L 405.575588 -176.669107 
L 405.504238 -176.170406 
L 405.430903 -175.671705 
L 405.355581 -175.173003 
L 405.278269 -174.674302 
L 405.198969 -174.175601 
L 405.117681 -173.676899 
L 405.034407 -173.178198 
L 404.949151 -172.679497 
L 404.861917 -172.180795 
L 404.772711 -171.682094 
L 404.681539 -171.183393 
z
" id="mc02c53515d" style="stroke:#000000;stroke-opacity:0.3;"/>
    </defs>
    <g clip-path="url(#p559b9ad078)">
     <use style="fill:#bfbf00;fill-opacity:0.3;stroke:#000000;stroke-opacity:0.3;" x="0.0" xlink:href="#mc02c53515d" y="465.868"/>
    </g>
   </g>
   <g id="PolyCollection_6">
    <defs>
     <path d="M 481.29 -121.811964 
L 444.09 -121.811964 
L 444.09 -121.811964 
L 444.09 -121.811964 
L 444.09 -121.811964 
L 444.09 -121.811964 
L 444.09 -121.811964 
L 444.09 -121.811964 
L 444.09 -121.811964 
L 444.09 -121.811964 
L 444.09 -121.811964 
L 444.09 -121.811964 
L 444.09 -121.811964 
L 444.09 -121.811964 
L 444.09 -121.811964 
L 444.09 -121.811964 
L 444.09 -121.811964 
L 444.09 -121.811964 
L 444.09 -121.811964 
L 444.09 -121.811964 
L 444.09 -121.811964 
L 444.09 -121.811964 
L 444.09 -121.811964 
L 444.09 -121.811964 
L 444.09 -121.811964 
L 444.09 -121.811964 
L 444.09 -121.811964 
L 444.09 -121.811964 
L 444.09 -121.811964 
L 444.09 -121.811964 
L 444.09 -121.811964 
L 444.09 -121.811964 
L 444.09 -121.811964 
L 444.09 -121.811964 
L 444.09 -121.811964 
L 444.09 -121.811964 
L 444.09 -121.811964 
L 444.09 -121.811964 
L 444.09 -121.811964 
L 444.09 -121.811964 
L 444.09 -121.811964 
L 444.09 -121.811964 
L 444.09 -121.811964 
L 444.09 -121.811964 
L 444.09 -121.811964 
L 444.09 -121.811964 
L 444.09 -121.811964 
L 444.09 -121.811964 
L 444.09 -121.811964 
L 444.09 -121.811964 
L 444.09 -121.811964 
L 444.09 -121.811964 
L 444.09 -121.811964 
L 444.09 -121.811964 
L 444.09 -121.811964 
L 444.09 -121.811964 
L 444.09 -121.811964 
L 444.09 -121.811964 
L 444.09 -121.811964 
L 444.09 -121.811964 
L 444.09 -121.811964 
L 444.09 -121.811964 
L 444.09 -121.811964 
L 444.09 -121.811964 
L 444.09 -121.811964 
L 444.09 -121.811964 
L 444.09 -121.811964 
L 444.09 -121.811964 
L 444.09 -121.811964 
L 444.09 -121.811964 
L 444.09 -121.811964 
L 444.09 -121.811964 
L 444.09 -121.811964 
L 444.09 -121.811964 
L 444.09 -121.811964 
L 444.09 -121.811964 
L 444.09 -121.811964 
L 444.09 -121.811964 
L 444.09 -121.811964 
L 444.09 -121.811964 
L 444.09 -121.811964 
L 444.09 -121.811964 
L 444.09 -121.811964 
L 444.09 -121.811964 
L 444.09 -121.811964 
L 444.09 -121.811964 
L 444.09 -121.811964 
L 444.09 -121.811964 
L 444.09 -121.811964 
L 444.09 -121.811964 
L 444.09 -121.811964 
L 444.09 -121.811964 
L 444.09 -121.811964 
L 444.09 -121.811964 
L 444.09 -121.811964 
L 444.09 -121.811964 
L 444.09 -121.811964 
L 444.09 -121.811964 
L 444.09 -121.811964 
L 444.09 -121.811964 
L 444.09 -121.811964 
L 481.29 -121.811964 
L 481.29 -121.811964 
L 481.29 -121.811964 
L 481.29 -121.811964 
L 481.29 -121.811964 
L 481.29 -121.811964 
L 481.29 -121.811964 
L 481.29 -121.811964 
L 481.29 -121.811964 
L 481.29 -121.811964 
L 481.29 -121.811964 
L 481.29 -121.811964 
L 481.29 -121.811964 
L 481.29 -121.811964 
L 481.29 -121.811964 
L 481.29 -121.811964 
L 481.29 -121.811964 
L 481.29 -121.811964 
L 481.29 -121.811964 
L 481.29 -121.811964 
L 481.29 -121.811964 
L 481.29 -121.811964 
L 481.29 -121.811964 
L 481.29 -121.811964 
L 481.29 -121.811964 
L 481.29 -121.811964 
L 481.29 -121.811964 
L 481.29 -121.811964 
L 481.29 -121.811964 
L 481.29 -121.811964 
L 481.29 -121.811964 
L 481.29 -121.811964 
L 481.29 -121.811964 
L 481.29 -121.811964 
L 481.29 -121.811964 
L 481.29 -121.811964 
L 481.29 -121.811964 
L 481.29 -121.811964 
L 481.29 -121.811964 
L 481.29 -121.811964 
L 481.29 -121.811964 
L 481.29 -121.811964 
L 481.29 -121.811964 
L 481.29 -121.811964 
L 481.29 -121.811964 
L 481.29 -121.811964 
L 481.29 -121.811964 
L 481.29 -121.811964 
L 481.29 -121.811964 
L 481.29 -121.811964 
L 481.29 -121.811964 
L 481.29 -121.811964 
L 481.29 -121.811964 
L 481.29 -121.811964 
L 481.29 -121.811964 
L 481.29 -121.811964 
L 481.29 -121.811964 
L 481.29 -121.811964 
L 481.29 -121.811964 
L 481.29 -121.811964 
L 481.29 -121.811964 
L 481.29 -121.811964 
L 481.29 -121.811964 
L 481.29 -121.811964 
L 481.29 -121.811964 
L 481.29 -121.811964 
L 481.29 -121.811964 
L 481.29 -121.811964 
L 481.29 -121.811964 
L 481.29 -121.811964 
L 481.29 -121.811964 
L 481.29 -121.811964 
L 481.29 -121.811964 
L 481.29 -121.811964 
L 481.29 -121.811964 
L 481.29 -121.811964 
L 481.29 -121.811964 
L 481.29 -121.811964 
L 481.29 -121.811964 
L 481.29 -121.811964 
L 481.29 -121.811964 
L 481.29 -121.811964 
L 481.29 -121.811964 
L 481.29 -121.811964 
L 481.29 -121.811964 
L 481.29 -121.811964 
L 481.29 -121.811964 
L 481.29 -121.811964 
L 481.29 -121.811964 
L 481.29 -121.811964 
L 481.29 -121.811964 
L 481.29 -121.811964 
L 481.29 -121.811964 
L 481.29 -121.811964 
L 481.29 -121.811964 
L 481.29 -121.811964 
L 481.29 -121.811964 
L 481.29 -121.811964 
L 481.29 -121.811964 
L 481.29 -121.811964 
L 481.29 -121.811964 
z
" id="m043c3429f7" style="stroke:#000000;stroke-opacity:0.3;"/>
    </defs>
    <g clip-path="url(#p559b9ad078)">
     <use style="fill:#bfbf00;fill-opacity:0.3;stroke:#000000;stroke-opacity:0.3;" x="0.0" xlink:href="#m043c3429f7" y="465.868"/>
    </g>
   </g>
   <g id="PolyCollection_7">
    <defs>
     <path d="M 555.69 -121.811964 
L 518.49 -121.811964 
L 518.49 -121.811964 
L 518.49 -121.811964 
L 518.49 -121.811964 
L 518.49 -121.811964 
L 518.49 -121.811964 
L 518.49 -121.811964 
L 518.49 -121.811964 
L 518.49 -121.811964 
L 518.49 -121.811964 
L 518.49 -121.811964 
L 518.49 -121.811964 
L 518.49 -121.811964 
L 518.49 -121.811964 
L 518.49 -121.811964 
L 518.49 -121.811964 
L 518.49 -121.811964 
L 518.49 -121.811964 
L 518.49 -121.811964 
L 518.49 -121.811964 
L 518.49 -121.811964 
L 518.49 -121.811964 
L 518.49 -121.811964 
L 518.49 -121.811964 
L 518.49 -121.811964 
L 518.49 -121.811964 
L 518.49 -121.811964 
L 518.49 -121.811964 
L 518.49 -121.811964 
L 518.49 -121.811964 
L 518.49 -121.811964 
L 518.49 -121.811964 
L 518.49 -121.811964 
L 518.49 -121.811964 
L 518.49 -121.811964 
L 518.49 -121.811964 
L 518.49 -121.811964 
L 518.49 -121.811964 
L 518.49 -121.811964 
L 518.49 -121.811964 
L 518.49 -121.811964 
L 518.49 -121.811964 
L 518.49 -121.811964 
L 518.49 -121.811964 
L 518.49 -121.811964 
L 518.49 -121.811964 
L 518.49 -121.811964 
L 518.49 -121.811964 
L 518.49 -121.811964 
L 518.49 -121.811964 
L 518.49 -121.811964 
L 518.49 -121.811964 
L 518.49 -121.811964 
L 518.49 -121.811964 
L 518.49 -121.811964 
L 518.49 -121.811964 
L 518.49 -121.811964 
L 518.49 -121.811964 
L 518.49 -121.811964 
L 518.49 -121.811964 
L 518.49 -121.811964 
L 518.49 -121.811964 
L 518.49 -121.811964 
L 518.49 -121.811964 
L 518.49 -121.811964 
L 518.49 -121.811964 
L 518.49 -121.811964 
L 518.49 -121.811964 
L 518.49 -121.811964 
L 518.49 -121.811964 
L 518.49 -121.811964 
L 518.49 -121.811964 
L 518.49 -121.811964 
L 518.49 -121.811964 
L 518.49 -121.811964 
L 518.49 -121.811964 
L 518.49 -121.811964 
L 518.49 -121.811964 
L 518.49 -121.811964 
L 518.49 -121.811964 
L 518.49 -121.811964 
L 518.49 -121.811964 
L 518.49 -121.811964 
L 518.49 -121.811964 
L 518.49 -121.811964 
L 518.49 -121.811964 
L 518.49 -121.811964 
L 518.49 -121.811964 
L 518.49 -121.811964 
L 518.49 -121.811964 
L 518.49 -121.811964 
L 518.49 -121.811964 
L 518.49 -121.811964 
L 518.49 -121.811964 
L 518.49 -121.811964 
L 518.49 -121.811964 
L 518.49 -121.811964 
L 518.49 -121.811964 
L 518.49 -121.811964 
L 518.49 -121.811964 
L 555.69 -121.811964 
L 555.69 -121.811964 
L 555.69 -121.811964 
L 555.69 -121.811964 
L 555.69 -121.811964 
L 555.69 -121.811964 
L 555.69 -121.811964 
L 555.69 -121.811964 
L 555.69 -121.811964 
L 555.69 -121.811964 
L 555.69 -121.811964 
L 555.69 -121.811964 
L 555.69 -121.811964 
L 555.69 -121.811964 
L 555.69 -121.811964 
L 555.69 -121.811964 
L 555.69 -121.811964 
L 555.69 -121.811964 
L 555.69 -121.811964 
L 555.69 -121.811964 
L 555.69 -121.811964 
L 555.69 -121.811964 
L 555.69 -121.811964 
L 555.69 -121.811964 
L 555.69 -121.811964 
L 555.69 -121.811964 
L 555.69 -121.811964 
L 555.69 -121.811964 
L 555.69 -121.811964 
L 555.69 -121.811964 
L 555.69 -121.811964 
L 555.69 -121.811964 
L 555.69 -121.811964 
L 555.69 -121.811964 
L 555.69 -121.811964 
L 555.69 -121.811964 
L 555.69 -121.811964 
L 555.69 -121.811964 
L 555.69 -121.811964 
L 555.69 -121.811964 
L 555.69 -121.811964 
L 555.69 -121.811964 
L 555.69 -121.811964 
L 555.69 -121.811964 
L 555.69 -121.811964 
L 555.69 -121.811964 
L 555.69 -121.811964 
L 555.69 -121.811964 
L 555.69 -121.811964 
L 555.69 -121.811964 
L 555.69 -121.811964 
L 555.69 -121.811964 
L 555.69 -121.811964 
L 555.69 -121.811964 
L 555.69 -121.811964 
L 555.69 -121.811964 
L 555.69 -121.811964 
L 555.69 -121.811964 
L 555.69 -121.811964 
L 555.69 -121.811964 
L 555.69 -121.811964 
L 555.69 -121.811964 
L 555.69 -121.811964 
L 555.69 -121.811964 
L 555.69 -121.811964 
L 555.69 -121.811964 
L 555.69 -121.811964 
L 555.69 -121.811964 
L 555.69 -121.811964 
L 555.69 -121.811964 
L 555.69 -121.811964 
L 555.69 -121.811964 
L 555.69 -121.811964 
L 555.69 -121.811964 
L 555.69 -121.811964 
L 555.69 -121.811964 
L 555.69 -121.811964 
L 555.69 -121.811964 
L 555.69 -121.811964 
L 555.69 -121.811964 
L 555.69 -121.811964 
L 555.69 -121.811964 
L 555.69 -121.811964 
L 555.69 -121.811964 
L 555.69 -121.811964 
L 555.69 -121.811964 
L 555.69 -121.811964 
L 555.69 -121.811964 
L 555.69 -121.811964 
L 555.69 -121.811964 
L 555.69 -121.811964 
L 555.69 -121.811964 
L 555.69 -121.811964 
L 555.69 -121.811964 
L 555.69 -121.811964 
L 555.69 -121.811964 
L 555.69 -121.811964 
L 555.69 -121.811964 
L 555.69 -121.811964 
L 555.69 -121.811964 
L 555.69 -121.811964 
z
" id="mc63bf8651a" style="stroke:#000000;stroke-opacity:0.3;"/>
    </defs>
    <g clip-path="url(#p559b9ad078)">
     <use style="fill:#bfbf00;fill-opacity:0.3;stroke:#000000;stroke-opacity:0.3;" x="0.0" xlink:href="#mc63bf8651a" y="465.868"/>
    </g>
   </g>
   <g id="PolyCollection_8">
    <defs>
     <path d="M 630.09 -121.811964 
L 592.89 -121.811964 
L 592.89 -121.811964 
L 592.89 -121.811964 
L 592.89 -121.811964 
L 592.89 -121.811964 
L 592.89 -121.811964 
L 592.89 -121.811964 
L 592.89 -121.811964 
L 592.89 -121.811964 
L 592.89 -121.811964 
L 592.89 -121.811964 
L 592.89 -121.811964 
L 592.89 -121.811964 
L 592.89 -121.811964 
L 592.89 -121.811964 
L 592.89 -121.811964 
L 592.89 -121.811964 
L 592.89 -121.811964 
L 592.89 -121.811964 
L 592.89 -121.811964 
L 592.89 -121.811964 
L 592.89 -121.811964 
L 592.89 -121.811964 
L 592.89 -121.811964 
L 592.89 -121.811964 
L 592.89 -121.811964 
L 592.89 -121.811964 
L 592.89 -121.811964 
L 592.89 -121.811964 
L 592.89 -121.811964 
L 592.89 -121.811964 
L 592.89 -121.811964 
L 592.89 -121.811964 
L 592.89 -121.811964 
L 592.89 -121.811964 
L 592.89 -121.811964 
L 592.89 -121.811964 
L 592.89 -121.811964 
L 592.89 -121.811964 
L 592.89 -121.811964 
L 592.89 -121.811964 
L 592.89 -121.811964 
L 592.89 -121.811964 
L 592.89 -121.811964 
L 592.89 -121.811964 
L 592.89 -121.811964 
L 592.89 -121.811964 
L 592.89 -121.811964 
L 592.89 -121.811964 
L 592.89 -121.811964 
L 592.89 -121.811964 
L 592.89 -121.811964 
L 592.89 -121.811964 
L 592.89 -121.811964 
L 592.89 -121.811964 
L 592.89 -121.811964 
L 592.89 -121.811964 
L 592.89 -121.811964 
L 592.89 -121.811964 
L 592.89 -121.811964 
L 592.89 -121.811964 
L 592.89 -121.811964 
L 592.89 -121.811964 
L 592.89 -121.811964 
L 592.89 -121.811964 
L 592.89 -121.811964 
L 592.89 -121.811964 
L 592.89 -121.811964 
L 592.89 -121.811964 
L 592.89 -121.811964 
L 592.89 -121.811964 
L 592.89 -121.811964 
L 592.89 -121.811964 
L 592.89 -121.811964 
L 592.89 -121.811964 
L 592.89 -121.811964 
L 592.89 -121.811964 
L 592.89 -121.811964 
L 592.89 -121.811964 
L 592.89 -121.811964 
L 592.89 -121.811964 
L 592.89 -121.811964 
L 592.89 -121.811964 
L 592.89 -121.811964 
L 592.89 -121.811964 
L 592.89 -121.811964 
L 592.89 -121.811964 
L 592.89 -121.811964 
L 592.89 -121.811964 
L 592.89 -121.811964 
L 592.89 -121.811964 
L 592.89 -121.811964 
L 592.89 -121.811964 
L 592.89 -121.811964 
L 592.89 -121.811964 
L 592.89 -121.811964 
L 592.89 -121.811964 
L 592.89 -121.811964 
L 592.89 -121.811964 
L 592.89 -121.811964 
L 630.09 -121.811964 
L 630.09 -121.811964 
L 630.09 -121.811964 
L 630.09 -121.811964 
L 630.09 -121.811964 
L 630.09 -121.811964 
L 630.09 -121.811964 
L 630.09 -121.811964 
L 630.09 -121.811964 
L 630.09 -121.811964 
L 630.09 -121.811964 
L 630.09 -121.811964 
L 630.09 -121.811964 
L 630.09 -121.811964 
L 630.09 -121.811964 
L 630.09 -121.811964 
L 630.09 -121.811964 
L 630.09 -121.811964 
L 630.09 -121.811964 
L 630.09 -121.811964 
L 630.09 -121.811964 
L 630.09 -121.811964 
L 630.09 -121.811964 
L 630.09 -121.811964 
L 630.09 -121.811964 
L 630.09 -121.811964 
L 630.09 -121.811964 
L 630.09 -121.811964 
L 630.09 -121.811964 
L 630.09 -121.811964 
L 630.09 -121.811964 
L 630.09 -121.811964 
L 630.09 -121.811964 
L 630.09 -121.811964 
L 630.09 -121.811964 
L 630.09 -121.811964 
L 630.09 -121.811964 
L 630.09 -121.811964 
L 630.09 -121.811964 
L 630.09 -121.811964 
L 630.09 -121.811964 
L 630.09 -121.811964 
L 630.09 -121.811964 
L 630.09 -121.811964 
L 630.09 -121.811964 
L 630.09 -121.811964 
L 630.09 -121.811964 
L 630.09 -121.811964 
L 630.09 -121.811964 
L 630.09 -121.811964 
L 630.09 -121.811964 
L 630.09 -121.811964 
L 630.09 -121.811964 
L 630.09 -121.811964 
L 630.09 -121.811964 
L 630.09 -121.811964 
L 630.09 -121.811964 
L 630.09 -121.811964 
L 630.09 -121.811964 
L 630.09 -121.811964 
L 630.09 -121.811964 
L 630.09 -121.811964 
L 630.09 -121.811964 
L 630.09 -121.811964 
L 630.09 -121.811964 
L 630.09 -121.811964 
L 630.09 -121.811964 
L 630.09 -121.811964 
L 630.09 -121.811964 
L 630.09 -121.811964 
L 630.09 -121.811964 
L 630.09 -121.811964 
L 630.09 -121.811964 
L 630.09 -121.811964 
L 630.09 -121.811964 
L 630.09 -121.811964 
L 630.09 -121.811964 
L 630.09 -121.811964 
L 630.09 -121.811964 
L 630.09 -121.811964 
L 630.09 -121.811964 
L 630.09 -121.811964 
L 630.09 -121.811964 
L 630.09 -121.811964 
L 630.09 -121.811964 
L 630.09 -121.811964 
L 630.09 -121.811964 
L 630.09 -121.811964 
L 630.09 -121.811964 
L 630.09 -121.811964 
L 630.09 -121.811964 
L 630.09 -121.811964 
L 630.09 -121.811964 
L 630.09 -121.811964 
L 630.09 -121.811964 
L 630.09 -121.811964 
L 630.09 -121.811964 
L 630.09 -121.811964 
L 630.09 -121.811964 
L 630.09 -121.811964 
L 630.09 -121.811964 
z
" id="md48aed3be8" style="stroke:#000000;stroke-opacity:0.3;"/>
    </defs>
    <g clip-path="url(#p559b9ad078)">
     <use style="fill:#bfbf00;fill-opacity:0.3;stroke:#000000;stroke-opacity:0.3;" x="0.0" xlink:href="#md48aed3be8" y="465.868"/>
    </g>
   </g>
   <g id="LineCollection_1">
    <path clip-path="url(#p559b9ad078)" d="M 81.39 47.827464 
L 99.99 47.827464 
" style="fill:none;stroke:#ff0000;"/>
    <path clip-path="url(#p559b9ad078)" d="M 155.79 97.198893 
L 174.39 97.198893 
" style="fill:none;stroke:#ff0000;"/>
    <path clip-path="url(#p559b9ad078)" d="M 230.19 121.884607 
L 248.79 121.884607 
" style="fill:none;stroke:#ff0000;"/>
    <path clip-path="url(#p559b9ad078)" d="M 304.59 245.313179 
L 323.19 245.313179 
" style="fill:none;stroke:#ff0000;"/>
    <path clip-path="url(#p559b9ad078)" d="M 378.99 269.998893 
L 397.59 269.998893 
" style="fill:none;stroke:#ff0000;"/>
    <path clip-path="url(#p559b9ad078)" d="M 453.39 344.056036 
L 471.99 344.056036 
" style="fill:none;stroke:#ff0000;"/>
    <path clip-path="url(#p559b9ad078)" d="M 527.79 344.056036 
L 546.39 344.056036 
" style="fill:none;stroke:#ff0000;"/>
    <path clip-path="url(#p559b9ad078)" d="M 602.19 344.056036 
L 620.79 344.056036 
" style="fill:none;stroke:#ff0000;"/>
   </g>
   <g id="patch_3">
    <path d="M 16.29 23.14175 
L 685.89 23.14175 
" style="fill:none;stroke:#000000;stroke-linecap:square;stroke-linejoin:miter;"/>
   </g>
   <g id="patch_4">
    <path d="M 685.89 368.74175 
L 685.89 23.14175 
" style="fill:none;stroke:#000000;stroke-linecap:square;stroke-linejoin:miter;"/>
   </g>
   <g id="patch_5">
    <path d="M 16.29 368.74175 
L 16.29 23.14175 
" style="fill:none;stroke:#000000;stroke-linecap:square;stroke-linejoin:miter;"/>
   </g>
   <g id="patch_6">
    <path d="M 16.29 368.74175 
L 685.89 368.74175 
" style="fill:none;stroke:#000000;stroke-linecap:square;stroke-linejoin:miter;"/>
   </g>
   <g id="matplotlib.axis_1">
    <g id="xtick_1">
     <g id="line2d_1">
      <defs>
       <path d="M 0 0 
L 0 -4 
" id="m167158c812" style="stroke:#000000;stroke-width:0.5;"/>
      </defs>
      <g>
       <use style="stroke:#000000;stroke-width:0.5;" x="90.69" xlink:href="#m167158c812" y="368.74175"/>
      </g>
     </g>
     <g id="line2d_2">
      <defs>
       <path d="M 0 0 
L 0 4 
" id="m99a82c7211" style="stroke:#000000;stroke-width:0.5;"/>
      </defs>
      <g>
       <use style="stroke:#000000;stroke-width:0.5;" x="90.69" xlink:href="#m99a82c7211" y="23.14175"/>
      </g>
     </g>
     <g id="text_1">
      <!-- Defector -->
      <defs>
       <path d="M 48.78125 52.59375 
L 48.78125 44.1875 
Q 44.96875 46.296875 41.140625 47.34375 
Q 37.3125 48.390625 33.40625 48.390625 
Q 24.65625 48.390625 19.8125 42.84375 
Q 14.984375 37.3125 14.984375 27.296875 
Q 14.984375 17.28125 19.8125 11.734375 
Q 24.65625 6.203125 33.40625 6.203125 
Q 37.3125 6.203125 41.140625 7.25 
Q 44.96875 8.296875 48.78125 10.40625 
L 48.78125 2.09375 
Q 45.015625 0.34375 40.984375 -0.53125 
Q 36.96875 -1.421875 32.421875 -1.421875 
Q 20.0625 -1.421875 12.78125 6.34375 
Q 5.515625 14.109375 5.515625 27.296875 
Q 5.515625 40.671875 12.859375 48.328125 
Q 20.21875 56 33.015625 56 
Q 37.15625 56 41.109375 55.140625 
Q 45.0625 54.296875 48.78125 52.59375 
" id="BitstreamVeraSans-Roman-63"/>
       <path d="M 19.671875 64.796875 
L 19.671875 8.109375 
L 31.59375 8.109375 
Q 46.6875 8.109375 53.6875 14.9375 
Q 60.6875 21.78125 60.6875 36.53125 
Q 60.6875 51.171875 53.6875 57.984375 
Q 46.6875 64.796875 31.59375 64.796875 
z
M 9.8125 72.90625 
L 30.078125 72.90625 
Q 51.265625 72.90625 61.171875 64.09375 
Q 71.09375 55.28125 71.09375 36.53125 
Q 71.09375 17.671875 61.125 8.828125 
Q 51.171875 0 30.078125 0 
L 9.8125 0 
z
" id="BitstreamVeraSans-Roman-44"/>
       <path d="M 37.109375 75.984375 
L 37.109375 68.5 
L 28.515625 68.5 
Q 23.6875 68.5 21.796875 66.546875 
Q 19.921875 64.59375 19.921875 59.515625 
L 19.921875 54.6875 
L 34.71875 54.6875 
L 34.71875 47.703125 
L 19.921875 47.703125 
L 19.921875 0 
L 10.890625 0 
L 10.890625 47.703125 
L 2.296875 47.703125 
L 2.296875 54.6875 
L 10.890625 54.6875 
L 10.890625 58.5 
Q 10.890625 67.625 15.140625 71.796875 
Q 19.390625 75.984375 28.609375 75.984375 
z
" id="BitstreamVeraSans-Roman-66"/>
       <path d="M 56.203125 29.59375 
L 56.203125 25.203125 
L 14.890625 25.203125 
Q 15.484375 15.921875 20.484375 11.0625 
Q 25.484375 6.203125 34.421875 6.203125 
Q 39.59375 6.203125 44.453125 7.46875 
Q 49.3125 8.734375 54.109375 11.28125 
L 54.109375 2.78125 
Q 49.265625 0.734375 44.1875 -0.34375 
Q 39.109375 -1.421875 33.890625 -1.421875 
Q 20.796875 -1.421875 13.15625 6.1875 
Q 5.515625 13.8125 5.515625 26.8125 
Q 5.515625 40.234375 12.765625 48.109375 
Q 20.015625 56 32.328125 56 
Q 43.359375 56 49.78125 48.890625 
Q 56.203125 41.796875 56.203125 29.59375 
M 47.21875 32.234375 
Q 47.125 39.59375 43.09375 43.984375 
Q 39.0625 48.390625 32.421875 48.390625 
Q 24.90625 48.390625 20.390625 44.140625 
Q 15.875 39.890625 15.1875 32.171875 
z
" id="BitstreamVeraSans-Roman-65"/>
       <path d="M 41.109375 46.296875 
Q 39.59375 47.171875 37.8125 47.578125 
Q 36.03125 48 33.890625 48 
Q 26.265625 48 22.1875 43.046875 
Q 18.109375 38.09375 18.109375 28.8125 
L 18.109375 0 
L 9.078125 0 
L 9.078125 54.6875 
L 18.109375 54.6875 
L 18.109375 46.1875 
Q 20.953125 51.171875 25.484375 53.578125 
Q 30.03125 56 36.53125 56 
Q 37.453125 56 38.578125 55.875 
Q 39.703125 55.765625 41.0625 55.515625 
z
" id="BitstreamVeraSans-Roman-72"/>
       <path d="M 30.609375 48.390625 
Q 23.390625 48.390625 19.1875 42.75 
Q 14.984375 37.109375 14.984375 27.296875 
Q 14.984375 17.484375 19.15625 11.84375 
Q 23.34375 6.203125 30.609375 6.203125 
Q 37.796875 6.203125 41.984375 11.859375 
Q 46.1875 17.53125 46.1875 27.296875 
Q 46.1875 37.015625 41.984375 42.703125 
Q 37.796875 48.390625 30.609375 48.390625 
M 30.609375 56 
Q 42.328125 56 49.015625 48.375 
Q 55.71875 40.765625 55.71875 27.296875 
Q 55.71875 13.875 49.015625 6.21875 
Q 42.328125 -1.421875 30.609375 -1.421875 
Q 18.84375 -1.421875 12.171875 6.21875 
Q 5.515625 13.875 5.515625 27.296875 
Q 5.515625 40.765625 12.171875 48.375 
Q 18.84375 56 30.609375 56 
" id="BitstreamVeraSans-Roman-6f"/>
       <path d="M 18.3125 70.21875 
L 18.3125 54.6875 
L 36.8125 54.6875 
L 36.8125 47.703125 
L 18.3125 47.703125 
L 18.3125 18.015625 
Q 18.3125 11.328125 20.140625 9.421875 
Q 21.96875 7.515625 27.59375 7.515625 
L 36.8125 7.515625 
L 36.8125 0 
L 27.59375 0 
Q 17.1875 0 13.234375 3.875 
Q 9.28125 7.765625 9.28125 18.015625 
L 9.28125 47.703125 
L 2.6875 47.703125 
L 2.6875 54.6875 
L 9.28125 54.6875 
L 9.28125 70.21875 
z
" id="BitstreamVeraSans-Roman-74"/>
      </defs>
      <g transform="translate(92.8975 407.28175)rotate(-90.0)scale(0.08 -0.08)">
       <use xlink:href="#BitstreamVeraSans-Roman-44"/>
       <use x="77.001953125" xlink:href="#BitstreamVeraSans-Roman-65"/>
       <use x="138.525390625" xlink:href="#BitstreamVeraSans-Roman-66"/>
       <use x="173.73046875" xlink:href="#BitstreamVeraSans-Roman-65"/>
       <use x="235.25390625" xlink:href="#BitstreamVeraSans-Roman-63"/>
       <use x="290.234375" xlink:href="#BitstreamVeraSans-Roman-74"/>
       <use x="329.443359375" xlink:href="#BitstreamVeraSans-Roman-6f"/>
       <use x="390.625" xlink:href="#BitstreamVeraSans-Roman-72"/>
      </g>
     </g>
    </g>
    <g id="xtick_2">
     <g id="line2d_3">
      <g>
       <use style="stroke:#000000;stroke-width:0.5;" x="165.09" xlink:href="#m167158c812" y="368.74175"/>
      </g>
     </g>
     <g id="line2d_4">
      <g>
       <use style="stroke:#000000;stroke-width:0.5;" x="165.09" xlink:href="#m99a82c7211" y="23.14175"/>
      </g>
     </g>
     <g id="text_2">
      <!-- Suspicious Tit For Tat -->
      <defs>
       <path d="M 18.109375 8.203125 
L 18.109375 -20.796875 
L 9.078125 -20.796875 
L 9.078125 54.6875 
L 18.109375 54.6875 
L 18.109375 46.390625 
Q 20.953125 51.265625 25.265625 53.625 
Q 29.59375 56 35.59375 56 
Q 45.5625 56 51.78125 48.09375 
Q 58.015625 40.1875 58.015625 27.296875 
Q 58.015625 14.40625 51.78125 6.484375 
Q 45.5625 -1.421875 35.59375 -1.421875 
Q 29.59375 -1.421875 25.265625 0.953125 
Q 20.953125 3.328125 18.109375 8.203125 
M 48.6875 27.296875 
Q 48.6875 37.203125 44.609375 42.84375 
Q 40.53125 48.484375 33.40625 48.484375 
Q 26.265625 48.484375 22.1875 42.84375 
Q 18.109375 37.203125 18.109375 27.296875 
Q 18.109375 17.390625 22.1875 11.75 
Q 26.265625 6.109375 33.40625 6.109375 
Q 40.53125 6.109375 44.609375 11.75 
Q 48.6875 17.390625 48.6875 27.296875 
" id="BitstreamVeraSans-Roman-70"/>
       <path d="M 9.421875 54.6875 
L 18.40625 54.6875 
L 18.40625 0 
L 9.421875 0 
z
M 9.421875 75.984375 
L 18.40625 75.984375 
L 18.40625 64.59375 
L 9.421875 64.59375 
z
" id="BitstreamVeraSans-Roman-69"/>
       <path d="M 44.28125 53.078125 
L 44.28125 44.578125 
Q 40.484375 46.53125 36.375 47.5 
Q 32.28125 48.484375 27.875 48.484375 
Q 21.1875 48.484375 17.84375 46.4375 
Q 14.5 44.390625 14.5 40.28125 
Q 14.5 37.15625 16.890625 35.375 
Q 19.28125 33.59375 26.515625 31.984375 
L 29.59375 31.296875 
Q 39.15625 29.25 43.1875 25.515625 
Q 47.21875 21.78125 47.21875 15.09375 
Q 47.21875 7.46875 41.1875 3.015625 
Q 35.15625 -1.421875 24.609375 -1.421875 
Q 20.21875 -1.421875 15.453125 -0.5625 
Q 10.6875 0.296875 5.421875 2 
L 5.421875 11.28125 
Q 10.40625 8.6875 15.234375 7.390625 
Q 20.0625 6.109375 24.8125 6.109375 
Q 31.15625 6.109375 34.5625 8.28125 
Q 37.984375 10.453125 37.984375 14.40625 
Q 37.984375 18.0625 35.515625 20.015625 
Q 33.0625 21.96875 24.703125 23.78125 
L 21.578125 24.515625 
Q 13.234375 26.265625 9.515625 29.90625 
Q 5.8125 33.546875 5.8125 39.890625 
Q 5.8125 47.609375 11.28125 51.796875 
Q 16.75 56 26.8125 56 
Q 31.78125 56 36.171875 55.265625 
Q 40.578125 54.546875 44.28125 53.078125 
" id="BitstreamVeraSans-Roman-73"/>
       <path d="M 8.5 21.578125 
L 8.5 54.6875 
L 17.484375 54.6875 
L 17.484375 21.921875 
Q 17.484375 14.15625 20.5 10.265625 
Q 23.53125 6.390625 29.59375 6.390625 
Q 36.859375 6.390625 41.078125 11.03125 
Q 45.3125 15.671875 45.3125 23.6875 
L 45.3125 54.6875 
L 54.296875 54.6875 
L 54.296875 0 
L 45.3125 0 
L 45.3125 8.40625 
Q 42.046875 3.421875 37.71875 1 
Q 33.40625 -1.421875 27.6875 -1.421875 
Q 18.265625 -1.421875 13.375 4.4375 
Q 8.5 10.296875 8.5 21.578125 
" id="BitstreamVeraSans-Roman-75"/>
       <path d="M 9.8125 72.90625 
L 51.703125 72.90625 
L 51.703125 64.59375 
L 19.671875 64.59375 
L 19.671875 43.109375 
L 48.578125 43.109375 
L 48.578125 34.8125 
L 19.671875 34.8125 
L 19.671875 0 
L 9.8125 0 
z
" id="BitstreamVeraSans-Roman-46"/>
       <path d="M 34.28125 27.484375 
Q 23.390625 27.484375 19.1875 25 
Q 14.984375 22.515625 14.984375 16.5 
Q 14.984375 11.71875 18.140625 8.90625 
Q 21.296875 6.109375 26.703125 6.109375 
Q 34.1875 6.109375 38.703125 11.40625 
Q 43.21875 16.703125 43.21875 25.484375 
L 43.21875 27.484375 
z
M 52.203125 31.203125 
L 52.203125 0 
L 43.21875 0 
L 43.21875 8.296875 
Q 40.140625 3.328125 35.546875 0.953125 
Q 30.953125 -1.421875 24.3125 -1.421875 
Q 15.921875 -1.421875 10.953125 3.296875 
Q 6 8.015625 6 15.921875 
Q 6 25.140625 12.171875 29.828125 
Q 18.359375 34.515625 30.609375 34.515625 
L 43.21875 34.515625 
L 43.21875 35.40625 
Q 43.21875 41.609375 39.140625 45 
Q 35.0625 48.390625 27.6875 48.390625 
Q 23 48.390625 18.546875 47.265625 
Q 14.109375 46.140625 10.015625 43.890625 
L 10.015625 52.203125 
Q 14.9375 54.109375 19.578125 55.046875 
Q 24.21875 56 28.609375 56 
Q 40.484375 56 46.34375 49.84375 
Q 52.203125 43.703125 52.203125 31.203125 
" id="BitstreamVeraSans-Roman-61"/>
       <path id="BitstreamVeraSans-Roman-20"/>
       <path d="M 53.515625 70.515625 
L 53.515625 60.890625 
Q 47.90625 63.578125 42.921875 64.890625 
Q 37.9375 66.21875 33.296875 66.21875 
Q 25.25 66.21875 20.875 63.09375 
Q 16.5 59.96875 16.5 54.203125 
Q 16.5 49.359375 19.40625 46.890625 
Q 22.3125 44.4375 30.421875 42.921875 
L 36.375 41.703125 
Q 47.40625 39.59375 52.65625 34.296875 
Q 57.90625 29 57.90625 20.125 
Q 57.90625 9.515625 50.796875 4.046875 
Q 43.703125 -1.421875 29.984375 -1.421875 
Q 24.8125 -1.421875 18.96875 -0.25 
Q 13.140625 0.921875 6.890625 3.21875 
L 6.890625 13.375 
Q 12.890625 10.015625 18.65625 8.296875 
Q 24.421875 6.59375 29.984375 6.59375 
Q 38.421875 6.59375 43.015625 9.90625 
Q 47.609375 13.234375 47.609375 19.390625 
Q 47.609375 24.75 44.3125 27.78125 
Q 41.015625 30.8125 33.5 32.328125 
L 27.484375 33.5 
Q 16.453125 35.6875 11.515625 40.375 
Q 6.59375 45.0625 6.59375 53.421875 
Q 6.59375 63.09375 13.40625 68.65625 
Q 20.21875 74.21875 32.171875 74.21875 
Q 37.3125 74.21875 42.625 73.28125 
Q 47.953125 72.359375 53.515625 70.515625 
" id="BitstreamVeraSans-Roman-53"/>
       <path d="M -0.296875 72.90625 
L 61.375 72.90625 
L 61.375 64.59375 
L 35.5 64.59375 
L 35.5 0 
L 25.59375 0 
L 25.59375 64.59375 
L -0.296875 64.59375 
z
" id="BitstreamVeraSans-Roman-54"/>
      </defs>
      <g transform="translate(167.2975 458.668)rotate(-90.0)scale(0.08 -0.08)">
       <use xlink:href="#BitstreamVeraSans-Roman-53"/>
       <use x="63.4765625" xlink:href="#BitstreamVeraSans-Roman-75"/>
       <use x="126.85546875" xlink:href="#BitstreamVeraSans-Roman-73"/>
       <use x="178.955078125" xlink:href="#BitstreamVeraSans-Roman-70"/>
       <use x="242.431640625" xlink:href="#BitstreamVeraSans-Roman-69"/>
       <use x="270.21484375" xlink:href="#BitstreamVeraSans-Roman-63"/>
       <use x="325.1953125" xlink:href="#BitstreamVeraSans-Roman-69"/>
       <use x="352.978515625" xlink:href="#BitstreamVeraSans-Roman-6f"/>
       <use x="414.16015625" xlink:href="#BitstreamVeraSans-Roman-75"/>
       <use x="477.5390625" xlink:href="#BitstreamVeraSans-Roman-73"/>
       <use x="529.638671875" xlink:href="#BitstreamVeraSans-Roman-20"/>
       <use x="561.42578125" xlink:href="#BitstreamVeraSans-Roman-54"/>
       <use x="622.462890625" xlink:href="#BitstreamVeraSans-Roman-69"/>
       <use x="650.24609375" xlink:href="#BitstreamVeraSans-Roman-74"/>
       <use x="689.455078125" xlink:href="#BitstreamVeraSans-Roman-20"/>
       <use x="721.2421875" xlink:href="#BitstreamVeraSans-Roman-46"/>
       <use x="778.71484375" xlink:href="#BitstreamVeraSans-Roman-6f"/>
       <use x="839.896484375" xlink:href="#BitstreamVeraSans-Roman-72"/>
       <use x="881.009765625" xlink:href="#BitstreamVeraSans-Roman-20"/>
       <use x="912.796875" xlink:href="#BitstreamVeraSans-Roman-54"/>
       <use x="973.630859375" xlink:href="#BitstreamVeraSans-Roman-61"/>
       <use x="1034.91015625" xlink:href="#BitstreamVeraSans-Roman-74"/>
      </g>
     </g>
    </g>
    <g id="xtick_3">
     <g id="line2d_5">
      <g>
       <use style="stroke:#000000;stroke-width:0.5;" x="239.49" xlink:href="#m167158c812" y="368.74175"/>
      </g>
     </g>
     <g id="line2d_6">
      <g>
       <use style="stroke:#000000;stroke-width:0.5;" x="239.49" xlink:href="#m99a82c7211" y="23.14175"/>
      </g>
     </g>
     <g id="text_3">
      <!-- Bully -->
      <defs>
       <path d="M 19.671875 34.8125 
L 19.671875 8.109375 
L 35.5 8.109375 
Q 43.453125 8.109375 47.28125 11.40625 
Q 51.125 14.703125 51.125 21.484375 
Q 51.125 28.328125 47.28125 31.5625 
Q 43.453125 34.8125 35.5 34.8125 
z
M 19.671875 64.796875 
L 19.671875 42.828125 
L 34.28125 42.828125 
Q 41.5 42.828125 45.03125 45.53125 
Q 48.578125 48.25 48.578125 53.8125 
Q 48.578125 59.328125 45.03125 62.0625 
Q 41.5 64.796875 34.28125 64.796875 
z
M 9.8125 72.90625 
L 35.015625 72.90625 
Q 46.296875 72.90625 52.390625 68.21875 
Q 58.5 63.53125 58.5 54.890625 
Q 58.5 48.1875 55.375 44.234375 
Q 52.25 40.28125 46.1875 39.3125 
Q 53.46875 37.75 57.5 32.78125 
Q 61.53125 27.828125 61.53125 20.40625 
Q 61.53125 10.640625 54.890625 5.3125 
Q 48.25 0 35.984375 0 
L 9.8125 0 
z
" id="BitstreamVeraSans-Roman-42"/>
       <path d="M 32.171875 -5.078125 
Q 28.375 -14.84375 24.75 -17.8125 
Q 21.140625 -20.796875 15.09375 -20.796875 
L 7.90625 -20.796875 
L 7.90625 -13.28125 
L 13.1875 -13.28125 
Q 16.890625 -13.28125 18.9375 -11.515625 
Q 21 -9.765625 23.484375 -3.21875 
L 25.09375 0.875 
L 2.984375 54.6875 
L 12.5 54.6875 
L 29.59375 11.921875 
L 46.6875 54.6875 
L 56.203125 54.6875 
z
" id="BitstreamVeraSans-Roman-79"/>
       <path d="M 9.421875 75.984375 
L 18.40625 75.984375 
L 18.40625 0 
L 9.421875 0 
z
" id="BitstreamVeraSans-Roman-6c"/>
      </defs>
      <g transform="translate(241.6975 392.4805)rotate(-90.0)scale(0.08 -0.08)">
       <use xlink:href="#BitstreamVeraSans-Roman-42"/>
       <use x="68.603515625" xlink:href="#BitstreamVeraSans-Roman-75"/>
       <use x="131.982421875" xlink:href="#BitstreamVeraSans-Roman-6c"/>
       <use x="159.765625" xlink:href="#BitstreamVeraSans-Roman-6c"/>
       <use x="187.548828125" xlink:href="#BitstreamVeraSans-Roman-79"/>
      </g>
     </g>
    </g>
    <g id="xtick_4">
     <g id="line2d_7">
      <g>
       <use style="stroke:#000000;stroke-width:0.5;" x="313.89" xlink:href="#m167158c812" y="368.74175"/>
      </g>
     </g>
     <g id="line2d_8">
      <g>
       <use style="stroke:#000000;stroke-width:0.5;" x="313.89" xlink:href="#m99a82c7211" y="23.14175"/>
      </g>
     </g>
     <g id="text_4">
      <!-- Anti Tit For Tat -->
      <defs>
       <path d="M 34.1875 63.1875 
L 20.796875 26.90625 
L 47.609375 26.90625 
z
M 28.609375 72.90625 
L 39.796875 72.90625 
L 67.578125 0 
L 57.328125 0 
L 50.6875 18.703125 
L 17.828125 18.703125 
L 11.1875 0 
L 0.78125 0 
z
" id="BitstreamVeraSans-Roman-41"/>
       <path d="M 54.890625 33.015625 
L 54.890625 0 
L 45.90625 0 
L 45.90625 32.71875 
Q 45.90625 40.484375 42.875 44.328125 
Q 39.84375 48.1875 33.796875 48.1875 
Q 26.515625 48.1875 22.3125 43.546875 
Q 18.109375 38.921875 18.109375 30.90625 
L 18.109375 0 
L 9.078125 0 
L 9.078125 54.6875 
L 18.109375 54.6875 
L 18.109375 46.1875 
Q 21.34375 51.125 25.703125 53.5625 
Q 30.078125 56 35.796875 56 
Q 45.21875 56 50.046875 50.171875 
Q 54.890625 44.34375 54.890625 33.015625 
" id="BitstreamVeraSans-Roman-6e"/>
      </defs>
      <g transform="translate(316.0975 432.198)rotate(-90.0)scale(0.08 -0.08)">
       <use xlink:href="#BitstreamVeraSans-Roman-41"/>
       <use x="68.408203125" xlink:href="#BitstreamVeraSans-Roman-6e"/>
       <use x="131.787109375" xlink:href="#BitstreamVeraSans-Roman-74"/>
       <use x="170.99609375" xlink:href="#BitstreamVeraSans-Roman-69"/>
       <use x="198.779296875" xlink:href="#BitstreamVeraSans-Roman-20"/>
       <use x="230.56640625" xlink:href="#BitstreamVeraSans-Roman-54"/>
       <use x="291.603515625" xlink:href="#BitstreamVeraSans-Roman-69"/>
       <use x="319.38671875" xlink:href="#BitstreamVeraSans-Roman-74"/>
       <use x="358.595703125" xlink:href="#BitstreamVeraSans-Roman-20"/>
       <use x="390.3828125" xlink:href="#BitstreamVeraSans-Roman-46"/>
       <use x="447.85546875" xlink:href="#BitstreamVeraSans-Roman-6f"/>
       <use x="509.037109375" xlink:href="#BitstreamVeraSans-Roman-72"/>
       <use x="550.150390625" xlink:href="#BitstreamVeraSans-Roman-20"/>
       <use x="581.9375" xlink:href="#BitstreamVeraSans-Roman-54"/>
       <use x="642.771484375" xlink:href="#BitstreamVeraSans-Roman-61"/>
       <use x="704.05078125" xlink:href="#BitstreamVeraSans-Roman-74"/>
      </g>
     </g>
    </g>
    <g id="xtick_5">
     <g id="line2d_9">
      <g>
       <use style="stroke:#000000;stroke-width:0.5;" x="388.29" xlink:href="#m167158c812" y="368.74175"/>
      </g>
     </g>
     <g id="line2d_10">
      <g>
       <use style="stroke:#000000;stroke-width:0.5;" x="388.29" xlink:href="#m99a82c7211" y="23.14175"/>
      </g>
     </g>
     <g id="text_5">
      <!-- Alternator -->
      <g transform="translate(390.4975 413.0755)rotate(-90.0)scale(0.08 -0.08)">
       <use xlink:href="#BitstreamVeraSans-Roman-41"/>
       <use x="68.408203125" xlink:href="#BitstreamVeraSans-Roman-6c"/>
       <use x="96.19140625" xlink:href="#BitstreamVeraSans-Roman-74"/>
       <use x="135.400390625" xlink:href="#BitstreamVeraSans-Roman-65"/>
       <use x="196.923828125" xlink:href="#BitstreamVeraSans-Roman-72"/>
       <use x="238.021484375" xlink:href="#BitstreamVeraSans-Roman-6e"/>
       <use x="301.400390625" xlink:href="#BitstreamVeraSans-Roman-61"/>
       <use x="362.6796875" xlink:href="#BitstreamVeraSans-Roman-74"/>
       <use x="401.888671875" xlink:href="#BitstreamVeraSans-Roman-6f"/>
       <use x="463.0703125" xlink:href="#BitstreamVeraSans-Roman-72"/>
      </g>
     </g>
    </g>
    <g id="xtick_6">
     <g id="line2d_11">
      <g>
       <use style="stroke:#000000;stroke-width:0.5;" x="462.69" xlink:href="#m167158c812" y="368.74175"/>
      </g>
     </g>
     <g id="line2d_12">
      <g>
       <use style="stroke:#000000;stroke-width:0.5;" x="462.69" xlink:href="#m99a82c7211" y="23.14175"/>
      </g>
     </g>
     <g id="text_6">
      <!-- Win-Stay Lose-Shift -->
      <defs>
       <path d="M 4.890625 31.390625 
L 31.203125 31.390625 
L 31.203125 23.390625 
L 4.890625 23.390625 
z
" id="BitstreamVeraSans-Roman-2d"/>
       <path d="M 3.328125 72.90625 
L 13.28125 72.90625 
L 28.609375 11.28125 
L 43.890625 72.90625 
L 54.984375 72.90625 
L 70.3125 11.28125 
L 85.59375 72.90625 
L 95.609375 72.90625 
L 77.296875 0 
L 64.890625 0 
L 49.515625 63.28125 
L 33.984375 0 
L 21.578125 0 
z
" id="BitstreamVeraSans-Roman-57"/>
       <path d="M 9.8125 72.90625 
L 19.671875 72.90625 
L 19.671875 8.296875 
L 55.171875 8.296875 
L 55.171875 0 
L 9.8125 0 
z
" id="BitstreamVeraSans-Roman-4c"/>
       <path d="M 54.890625 33.015625 
L 54.890625 0 
L 45.90625 0 
L 45.90625 32.71875 
Q 45.90625 40.484375 42.875 44.328125 
Q 39.84375 48.1875 33.796875 48.1875 
Q 26.515625 48.1875 22.3125 43.546875 
Q 18.109375 38.921875 18.109375 30.90625 
L 18.109375 0 
L 9.078125 0 
L 9.078125 75.984375 
L 18.109375 75.984375 
L 18.109375 46.1875 
Q 21.34375 51.125 25.703125 53.5625 
Q 30.078125 56 35.796875 56 
Q 45.21875 56 50.046875 50.171875 
Q 54.890625 44.34375 54.890625 33.015625 
" id="BitstreamVeraSans-Roman-68"/>
      </defs>
      <g transform="translate(464.8975 450.873)rotate(-90.0)scale(0.08 -0.08)">
       <use xlink:href="#BitstreamVeraSans-Roman-57"/>
       <use x="98.845703125" xlink:href="#BitstreamVeraSans-Roman-69"/>
       <use x="126.62890625" xlink:href="#BitstreamVeraSans-Roman-6e"/>
       <use x="190.0078125" xlink:href="#BitstreamVeraSans-Roman-2d"/>
       <use x="226.091796875" xlink:href="#BitstreamVeraSans-Roman-53"/>
       <use x="289.568359375" xlink:href="#BitstreamVeraSans-Roman-74"/>
       <use x="328.77734375" xlink:href="#BitstreamVeraSans-Roman-61"/>
       <use x="390.056640625" xlink:href="#BitstreamVeraSans-Roman-79"/>
       <use x="449.236328125" xlink:href="#BitstreamVeraSans-Roman-20"/>
       <use x="481.0234375" xlink:href="#BitstreamVeraSans-Roman-4c"/>
       <use x="536.720703125" xlink:href="#BitstreamVeraSans-Roman-6f"/>
       <use x="597.90234375" xlink:href="#BitstreamVeraSans-Roman-73"/>
       <use x="650.001953125" xlink:href="#BitstreamVeraSans-Roman-65"/>
       <use x="711.525390625" xlink:href="#BitstreamVeraSans-Roman-2d"/>
       <use x="747.609375" xlink:href="#BitstreamVeraSans-Roman-53"/>
       <use x="811.0859375" xlink:href="#BitstreamVeraSans-Roman-68"/>
       <use x="874.46484375" xlink:href="#BitstreamVeraSans-Roman-69"/>
       <use x="902.248046875" xlink:href="#BitstreamVeraSans-Roman-66"/>
       <use x="937.4375" xlink:href="#BitstreamVeraSans-Roman-74"/>
      </g>
     </g>
    </g>
    <g id="xtick_7">
     <g id="line2d_13">
      <g>
       <use style="stroke:#000000;stroke-width:0.5;" x="537.09" xlink:href="#m167158c812" y="368.74175"/>
      </g>
     </g>
     <g id="line2d_14">
      <g>
       <use style="stroke:#000000;stroke-width:0.5;" x="537.09" xlink:href="#m99a82c7211" y="23.14175"/>
      </g>
     </g>
     <g id="text_7">
      <!-- Tit For Tat -->
      <g transform="translate(539.2975 413.75425)rotate(-90.0)scale(0.08 -0.08)">
       <use xlink:href="#BitstreamVeraSans-Roman-54"/>
       <use x="61.037109375" xlink:href="#BitstreamVeraSans-Roman-69"/>
       <use x="88.8203125" xlink:href="#BitstreamVeraSans-Roman-74"/>
       <use x="128.029296875" xlink:href="#BitstreamVeraSans-Roman-20"/>
       <use x="159.81640625" xlink:href="#BitstreamVeraSans-Roman-46"/>
       <use x="217.2890625" xlink:href="#BitstreamVeraSans-Roman-6f"/>
       <use x="278.470703125" xlink:href="#BitstreamVeraSans-Roman-72"/>
       <use x="319.583984375" xlink:href="#BitstreamVeraSans-Roman-20"/>
       <use x="351.37109375" xlink:href="#BitstreamVeraSans-Roman-54"/>
       <use x="412.205078125" xlink:href="#BitstreamVeraSans-Roman-61"/>
       <use x="473.484375" xlink:href="#BitstreamVeraSans-Roman-74"/>
      </g>
     </g>
    </g>
    <g id="xtick_8">
     <g id="line2d_15">
      <g>
       <use style="stroke:#000000;stroke-width:0.5;" x="611.49" xlink:href="#m167158c812" y="368.74175"/>
      </g>
     </g>
     <g id="line2d_16">
      <g>
       <use style="stroke:#000000;stroke-width:0.5;" x="611.49" xlink:href="#m99a82c7211" y="23.14175"/>
      </g>
     </g>
     <g id="text_8">
      <!-- Cooperator -->
      <defs>
       <path d="M 64.40625 67.28125 
L 64.40625 56.890625 
Q 59.421875 61.53125 53.78125 63.8125 
Q 48.140625 66.109375 41.796875 66.109375 
Q 29.296875 66.109375 22.65625 58.46875 
Q 16.015625 50.828125 16.015625 36.375 
Q 16.015625 21.96875 22.65625 14.328125 
Q 29.296875 6.6875 41.796875 6.6875 
Q 48.140625 6.6875 53.78125 8.984375 
Q 59.421875 11.28125 64.40625 15.921875 
L 64.40625 5.609375 
Q 59.234375 2.09375 53.4375 0.328125 
Q 47.65625 -1.421875 41.21875 -1.421875 
Q 24.65625 -1.421875 15.125 8.703125 
Q 5.609375 18.84375 5.609375 36.375 
Q 5.609375 53.953125 15.125 64.078125 
Q 24.65625 74.21875 41.21875 74.21875 
Q 47.75 74.21875 53.53125 72.484375 
Q 59.328125 70.75 64.40625 67.28125 
" id="BitstreamVeraSans-Roman-43"/>
      </defs>
      <g transform="translate(613.6975 417.6305)rotate(-90.0)scale(0.08 -0.08)">
       <use xlink:href="#BitstreamVeraSans-Roman-43"/>
       <use x="69.82421875" xlink:href="#BitstreamVeraSans-Roman-6f"/>
       <use x="131.005859375" xlink:href="#BitstreamVeraSans-Roman-6f"/>
       <use x="192.1875" xlink:href="#BitstreamVeraSans-Roman-70"/>
       <use x="255.6640625" xlink:href="#BitstreamVeraSans-Roman-65"/>
       <use x="317.1875" xlink:href="#BitstreamVeraSans-Roman-72"/>
       <use x="358.30078125" xlink:href="#BitstreamVeraSans-Roman-61"/>
       <use x="419.580078125" xlink:href="#BitstreamVeraSans-Roman-74"/>
       <use x="458.7890625" xlink:href="#BitstreamVeraSans-Roman-6f"/>
       <use x="519.970703125" xlink:href="#BitstreamVeraSans-Roman-72"/>
      </g>
     </g>
    </g>
   </g>
   <g id="matplotlib.axis_2">
    <g id="ytick_1">
     <g id="line2d_17">
      <defs>
       <path d="M 0 0 
L 4 0 
" id="mf49fbf2e60" style="stroke:#000000;stroke-width:0.5;"/>
      </defs>
      <g>
       <use style="stroke:#000000;stroke-width:0.5;" x="16.29" xlink:href="#mf49fbf2e60" y="344.056035714"/>
      </g>
     </g>
     <g id="line2d_18">
      <defs>
       <path d="M 0 0 
L -4 0 
" id="m352f70008e" style="stroke:#000000;stroke-width:0.5;"/>
      </defs>
      <g>
       <use style="stroke:#000000;stroke-width:0.5;" x="685.89" xlink:href="#m352f70008e" y="344.056035714"/>
      </g>
     </g>
     <g id="text_9">
      <!-- 0 -->
      <defs>
       <path d="M 31.78125 66.40625 
Q 24.171875 66.40625 20.328125 58.90625 
Q 16.5 51.421875 16.5 36.375 
Q 16.5 21.390625 20.328125 13.890625 
Q 24.171875 6.390625 31.78125 6.390625 
Q 39.453125 6.390625 43.28125 13.890625 
Q 47.125 21.390625 47.125 36.375 
Q 47.125 51.421875 43.28125 58.90625 
Q 39.453125 66.40625 31.78125 66.40625 
M 31.78125 74.21875 
Q 44.046875 74.21875 50.515625 64.515625 
Q 56.984375 54.828125 56.984375 36.375 
Q 56.984375 17.96875 50.515625 8.265625 
Q 44.046875 -1.421875 31.78125 -1.421875 
Q 19.53125 -1.421875 13.0625 8.265625 
Q 6.59375 17.96875 6.59375 36.375 
Q 6.59375 54.828125 13.0625 64.515625 
Q 19.53125 74.21875 31.78125 74.21875 
" id="BitstreamVeraSans-Roman-30"/>
      </defs>
      <g transform="translate(7.2 346.263535714)scale(0.08 -0.08)">
       <use xlink:href="#BitstreamVeraSans-Roman-30"/>
      </g>
     </g>
    </g>
    <g id="ytick_2">
     <g id="line2d_19">
      <g>
       <use style="stroke:#000000;stroke-width:0.5;" x="16.29" xlink:href="#mf49fbf2e60" y="294.684607143"/>
      </g>
     </g>
     <g id="line2d_20">
      <g>
       <use style="stroke:#000000;stroke-width:0.5;" x="685.89" xlink:href="#m352f70008e" y="294.684607143"/>
      </g>
     </g>
     <g id="text_10">
      <!-- 1 -->
      <defs>
       <path d="M 12.40625 8.296875 
L 28.515625 8.296875 
L 28.515625 63.921875 
L 10.984375 60.40625 
L 10.984375 69.390625 
L 28.421875 72.90625 
L 38.28125 72.90625 
L 38.28125 8.296875 
L 54.390625 8.296875 
L 54.390625 0 
L 12.40625 0 
z
" id="BitstreamVeraSans-Roman-31"/>
      </defs>
      <g transform="translate(7.2 296.892107143)scale(0.08 -0.08)">
       <use xlink:href="#BitstreamVeraSans-Roman-31"/>
      </g>
     </g>
    </g>
    <g id="ytick_3">
     <g id="line2d_21">
      <g>
       <use style="stroke:#000000;stroke-width:0.5;" x="16.29" xlink:href="#mf49fbf2e60" y="245.313178571"/>
      </g>
     </g>
     <g id="line2d_22">
      <g>
       <use style="stroke:#000000;stroke-width:0.5;" x="685.89" xlink:href="#m352f70008e" y="245.313178571"/>
      </g>
     </g>
     <g id="text_11">
      <!-- 2 -->
      <defs>
       <path d="M 19.1875 8.296875 
L 53.609375 8.296875 
L 53.609375 0 
L 7.328125 0 
L 7.328125 8.296875 
Q 12.9375 14.109375 22.625 23.890625 
Q 32.328125 33.6875 34.8125 36.53125 
Q 39.546875 41.84375 41.421875 45.53125 
Q 43.3125 49.21875 43.3125 52.78125 
Q 43.3125 58.59375 39.234375 62.25 
Q 35.15625 65.921875 28.609375 65.921875 
Q 23.96875 65.921875 18.8125 64.3125 
Q 13.671875 62.703125 7.8125 59.421875 
L 7.8125 69.390625 
Q 13.765625 71.78125 18.9375 73 
Q 24.125 74.21875 28.421875 74.21875 
Q 39.75 74.21875 46.484375 68.546875 
Q 53.21875 62.890625 53.21875 53.421875 
Q 53.21875 48.921875 51.53125 44.890625 
Q 49.859375 40.875 45.40625 35.40625 
Q 44.1875 33.984375 37.640625 27.21875 
Q 31.109375 20.453125 19.1875 8.296875 
" id="BitstreamVeraSans-Roman-32"/>
      </defs>
      <g transform="translate(7.2 247.520678571)scale(0.08 -0.08)">
       <use xlink:href="#BitstreamVeraSans-Roman-32"/>
      </g>
     </g>
    </g>
    <g id="ytick_4">
     <g id="line2d_23">
      <g>
       <use style="stroke:#000000;stroke-width:0.5;" x="16.29" xlink:href="#mf49fbf2e60" y="195.94175"/>
      </g>
     </g>
     <g id="line2d_24">
      <g>
       <use style="stroke:#000000;stroke-width:0.5;" x="685.89" xlink:href="#m352f70008e" y="195.94175"/>
      </g>
     </g>
     <g id="text_12">
      <!-- 3 -->
      <defs>
       <path d="M 40.578125 39.3125 
Q 47.65625 37.796875 51.625 33 
Q 55.609375 28.21875 55.609375 21.1875 
Q 55.609375 10.40625 48.1875 4.484375 
Q 40.765625 -1.421875 27.09375 -1.421875 
Q 22.515625 -1.421875 17.65625 -0.515625 
Q 12.796875 0.390625 7.625 2.203125 
L 7.625 11.71875 
Q 11.71875 9.328125 16.59375 8.109375 
Q 21.484375 6.890625 26.8125 6.890625 
Q 36.078125 6.890625 40.9375 10.546875 
Q 45.796875 14.203125 45.796875 21.1875 
Q 45.796875 27.640625 41.28125 31.265625 
Q 36.765625 34.90625 28.71875 34.90625 
L 20.21875 34.90625 
L 20.21875 43.015625 
L 29.109375 43.015625 
Q 36.375 43.015625 40.234375 45.921875 
Q 44.09375 48.828125 44.09375 54.296875 
Q 44.09375 59.90625 40.109375 62.90625 
Q 36.140625 65.921875 28.71875 65.921875 
Q 24.65625 65.921875 20.015625 65.03125 
Q 15.375 64.15625 9.8125 62.3125 
L 9.8125 71.09375 
Q 15.4375 72.65625 20.34375 73.4375 
Q 25.25 74.21875 29.59375 74.21875 
Q 40.828125 74.21875 47.359375 69.109375 
Q 53.90625 64.015625 53.90625 55.328125 
Q 53.90625 49.265625 50.4375 45.09375 
Q 46.96875 40.921875 40.578125 39.3125 
" id="BitstreamVeraSans-Roman-33"/>
      </defs>
      <g transform="translate(7.2 198.14925)scale(0.08 -0.08)">
       <use xlink:href="#BitstreamVeraSans-Roman-33"/>
      </g>
     </g>
    </g>
    <g id="ytick_5">
     <g id="line2d_25">
      <g>
       <use style="stroke:#000000;stroke-width:0.5;" x="16.29" xlink:href="#mf49fbf2e60" y="146.570321429"/>
      </g>
     </g>
     <g id="line2d_26">
      <g>
       <use style="stroke:#000000;stroke-width:0.5;" x="685.89" xlink:href="#m352f70008e" y="146.570321429"/>
      </g>
     </g>
     <g id="text_13">
      <!-- 4 -->
      <defs>
       <path d="M 37.796875 64.3125 
L 12.890625 25.390625 
L 37.796875 25.390625 
z
M 35.203125 72.90625 
L 47.609375 72.90625 
L 47.609375 25.390625 
L 58.015625 25.390625 
L 58.015625 17.1875 
L 47.609375 17.1875 
L 47.609375 0 
L 37.796875 0 
L 37.796875 17.1875 
L 4.890625 17.1875 
L 4.890625 26.703125 
z
" id="BitstreamVeraSans-Roman-34"/>
      </defs>
      <g transform="translate(7.2 148.777821429)scale(0.08 -0.08)">
       <use xlink:href="#BitstreamVeraSans-Roman-34"/>
      </g>
     </g>
    </g>
    <g id="ytick_6">
     <g id="line2d_27">
      <g>
       <use style="stroke:#000000;stroke-width:0.5;" x="16.29" xlink:href="#mf49fbf2e60" y="97.1988928571"/>
      </g>
     </g>
     <g id="line2d_28">
      <g>
       <use style="stroke:#000000;stroke-width:0.5;" x="685.89" xlink:href="#m352f70008e" y="97.1988928571"/>
      </g>
     </g>
     <g id="text_14">
      <!-- 5 -->
      <defs>
       <path d="M 10.796875 72.90625 
L 49.515625 72.90625 
L 49.515625 64.59375 
L 19.828125 64.59375 
L 19.828125 46.734375 
Q 21.96875 47.46875 24.109375 47.828125 
Q 26.265625 48.1875 28.421875 48.1875 
Q 40.625 48.1875 47.75 41.5 
Q 54.890625 34.8125 54.890625 23.390625 
Q 54.890625 11.625 47.5625 5.09375 
Q 40.234375 -1.421875 26.90625 -1.421875 
Q 22.3125 -1.421875 17.546875 -0.640625 
Q 12.796875 0.140625 7.71875 1.703125 
L 7.71875 11.625 
Q 12.109375 9.234375 16.796875 8.0625 
Q 21.484375 6.890625 26.703125 6.890625 
Q 35.15625 6.890625 40.078125 11.328125 
Q 45.015625 15.765625 45.015625 23.390625 
Q 45.015625 31 40.078125 35.4375 
Q 35.15625 39.890625 26.703125 39.890625 
Q 22.75 39.890625 18.8125 39.015625 
Q 14.890625 38.140625 10.796875 36.28125 
z
" id="BitstreamVeraSans-Roman-35"/>
      </defs>
      <g transform="translate(7.2 99.4063928571)scale(0.08 -0.08)">
       <use xlink:href="#BitstreamVeraSans-Roman-35"/>
      </g>
     </g>
    </g>
    <g id="ytick_7">
     <g id="line2d_29">
      <g>
       <use style="stroke:#000000;stroke-width:0.5;" x="16.29" xlink:href="#mf49fbf2e60" y="47.8274642857"/>
      </g>
     </g>
     <g id="line2d_30">
      <g>
       <use style="stroke:#000000;stroke-width:0.5;" x="685.89" xlink:href="#m352f70008e" y="47.8274642857"/>
      </g>
     </g>
     <g id="text_15">
      <!-- 6 -->
      <defs>
       <path d="M 33.015625 40.375 
Q 26.375 40.375 22.484375 35.828125 
Q 18.609375 31.296875 18.609375 23.390625 
Q 18.609375 15.53125 22.484375 10.953125 
Q 26.375 6.390625 33.015625 6.390625 
Q 39.65625 6.390625 43.53125 10.953125 
Q 47.40625 15.53125 47.40625 23.390625 
Q 47.40625 31.296875 43.53125 35.828125 
Q 39.65625 40.375 33.015625 40.375 
M 52.59375 71.296875 
L 52.59375 62.3125 
Q 48.875 64.0625 45.09375 64.984375 
Q 41.3125 65.921875 37.59375 65.921875 
Q 27.828125 65.921875 22.671875 59.328125 
Q 17.53125 52.734375 16.796875 39.40625 
Q 19.671875 43.65625 24.015625 45.921875 
Q 28.375 48.1875 33.59375 48.1875 
Q 44.578125 48.1875 50.953125 41.515625 
Q 57.328125 34.859375 57.328125 23.390625 
Q 57.328125 12.15625 50.6875 5.359375 
Q 44.046875 -1.421875 33.015625 -1.421875 
Q 20.359375 -1.421875 13.671875 8.265625 
Q 6.984375 17.96875 6.984375 36.375 
Q 6.984375 53.65625 15.1875 63.9375 
Q 23.390625 74.21875 37.203125 74.21875 
Q 40.921875 74.21875 44.703125 73.484375 
Q 48.484375 72.75 52.59375 71.296875 
" id="BitstreamVeraSans-Roman-36"/>
      </defs>
      <g transform="translate(7.2 50.0349642857)scale(0.08 -0.08)">
       <use xlink:href="#BitstreamVeraSans-Roman-36"/>
      </g>
     </g>
    </g>
   </g>
   <g id="text_16">
    <!-- Wins. Prob end: 0.1, Repetitions: 2, Strategies: 8. -->
    <defs>
     <path d="M 11.71875 12.40625 
L 22.015625 12.40625 
L 22.015625 4 
L 14.015625 -11.625 
L 7.71875 -11.625 
L 11.71875 4 
z
" id="BitstreamVeraSans-Roman-2c"/>
     <path d="M 31.78125 34.625 
Q 24.75 34.625 20.71875 30.859375 
Q 16.703125 27.09375 16.703125 20.515625 
Q 16.703125 13.921875 20.71875 10.15625 
Q 24.75 6.390625 31.78125 6.390625 
Q 38.8125 6.390625 42.859375 10.171875 
Q 46.921875 13.96875 46.921875 20.515625 
Q 46.921875 27.09375 42.890625 30.859375 
Q 38.875 34.625 31.78125 34.625 
M 21.921875 38.8125 
Q 15.578125 40.375 12.03125 44.71875 
Q 8.5 49.078125 8.5 55.328125 
Q 8.5 64.0625 14.71875 69.140625 
Q 20.953125 74.21875 31.78125 74.21875 
Q 42.671875 74.21875 48.875 69.140625 
Q 55.078125 64.0625 55.078125 55.328125 
Q 55.078125 49.078125 51.53125 44.71875 
Q 48 40.375 41.703125 38.8125 
Q 48.828125 37.15625 52.796875 32.3125 
Q 56.78125 27.484375 56.78125 20.515625 
Q 56.78125 9.90625 50.3125 4.234375 
Q 43.84375 -1.421875 31.78125 -1.421875 
Q 19.734375 -1.421875 13.25 4.234375 
Q 6.78125 9.90625 6.78125 20.515625 
Q 6.78125 27.484375 10.78125 32.3125 
Q 14.796875 37.15625 21.921875 38.8125 
M 18.3125 54.390625 
Q 18.3125 48.734375 21.84375 45.5625 
Q 25.390625 42.390625 31.78125 42.390625 
Q 38.140625 42.390625 41.71875 45.5625 
Q 45.3125 48.734375 45.3125 54.390625 
Q 45.3125 60.0625 41.71875 63.234375 
Q 38.140625 66.40625 31.78125 66.40625 
Q 25.390625 66.40625 21.84375 63.234375 
Q 18.3125 60.0625 18.3125 54.390625 
" id="BitstreamVeraSans-Roman-38"/>
     <path d="M 45.40625 46.390625 
L 45.40625 75.984375 
L 54.390625 75.984375 
L 54.390625 0 
L 45.40625 0 
L 45.40625 8.203125 
Q 42.578125 3.328125 38.25 0.953125 
Q 33.9375 -1.421875 27.875 -1.421875 
Q 17.96875 -1.421875 11.734375 6.484375 
Q 5.515625 14.40625 5.515625 27.296875 
Q 5.515625 40.1875 11.734375 48.09375 
Q 17.96875 56 27.875 56 
Q 33.9375 56 38.25 53.625 
Q 42.578125 51.265625 45.40625 46.390625 
M 14.796875 27.296875 
Q 14.796875 17.390625 18.875 11.75 
Q 22.953125 6.109375 30.078125 6.109375 
Q 37.203125 6.109375 41.296875 11.75 
Q 45.40625 17.390625 45.40625 27.296875 
Q 45.40625 37.203125 41.296875 42.84375 
Q 37.203125 48.484375 30.078125 48.484375 
Q 22.953125 48.484375 18.875 42.84375 
Q 14.796875 37.203125 14.796875 27.296875 
" id="BitstreamVeraSans-Roman-64"/>
     <path d="M 11.71875 12.40625 
L 22.015625 12.40625 
L 22.015625 0 
L 11.71875 0 
z
M 11.71875 51.703125 
L 22.015625 51.703125 
L 22.015625 39.3125 
L 11.71875 39.3125 
z
" id="BitstreamVeraSans-Roman-3a"/>
     <path d="M 48.6875 27.296875 
Q 48.6875 37.203125 44.609375 42.84375 
Q 40.53125 48.484375 33.40625 48.484375 
Q 26.265625 48.484375 22.1875 42.84375 
Q 18.109375 37.203125 18.109375 27.296875 
Q 18.109375 17.390625 22.1875 11.75 
Q 26.265625 6.109375 33.40625 6.109375 
Q 40.53125 6.109375 44.609375 11.75 
Q 48.6875 17.390625 48.6875 27.296875 
M 18.109375 46.390625 
Q 20.953125 51.265625 25.265625 53.625 
Q 29.59375 56 35.59375 56 
Q 45.5625 56 51.78125 48.09375 
Q 58.015625 40.1875 58.015625 27.296875 
Q 58.015625 14.40625 51.78125 6.484375 
Q 45.5625 -1.421875 35.59375 -1.421875 
Q 29.59375 -1.421875 25.265625 0.953125 
Q 20.953125 3.328125 18.109375 8.203125 
L 18.109375 0 
L 9.078125 0 
L 9.078125 75.984375 
L 18.109375 75.984375 
z
" id="BitstreamVeraSans-Roman-62"/>
     <path d="M 10.6875 12.40625 
L 21 12.40625 
L 21 0 
L 10.6875 0 
z
" id="BitstreamVeraSans-Roman-2e"/>
     <path d="M 44.390625 34.1875 
Q 47.5625 33.109375 50.5625 29.59375 
Q 53.5625 26.078125 56.59375 19.921875 
L 66.609375 0 
L 56 0 
L 46.6875 18.703125 
Q 43.0625 26.03125 39.671875 28.421875 
Q 36.28125 30.8125 30.421875 30.8125 
L 19.671875 30.8125 
L 19.671875 0 
L 9.8125 0 
L 9.8125 72.90625 
L 32.078125 72.90625 
Q 44.578125 72.90625 50.734375 67.671875 
Q 56.890625 62.453125 56.890625 51.90625 
Q 56.890625 45.015625 53.6875 40.46875 
Q 50.484375 35.9375 44.390625 34.1875 
M 19.671875 64.796875 
L 19.671875 38.921875 
L 32.078125 38.921875 
Q 39.203125 38.921875 42.84375 42.21875 
Q 46.484375 45.515625 46.484375 51.90625 
Q 46.484375 58.296875 42.84375 61.546875 
Q 39.203125 64.796875 32.078125 64.796875 
z
" id="BitstreamVeraSans-Roman-52"/>
     <path d="M 45.40625 27.984375 
Q 45.40625 37.75 41.375 43.109375 
Q 37.359375 48.484375 30.078125 48.484375 
Q 22.859375 48.484375 18.828125 43.109375 
Q 14.796875 37.75 14.796875 27.984375 
Q 14.796875 18.265625 18.828125 12.890625 
Q 22.859375 7.515625 30.078125 7.515625 
Q 37.359375 7.515625 41.375 12.890625 
Q 45.40625 18.265625 45.40625 27.984375 
M 54.390625 6.78125 
Q 54.390625 -7.171875 48.1875 -13.984375 
Q 42 -20.796875 29.203125 -20.796875 
Q 24.46875 -20.796875 20.265625 -20.09375 
Q 16.0625 -19.390625 12.109375 -17.921875 
L 12.109375 -9.1875 
Q 16.0625 -11.328125 19.921875 -12.34375 
Q 23.78125 -13.375 27.78125 -13.375 
Q 36.625 -13.375 41.015625 -8.765625 
Q 45.40625 -4.15625 45.40625 5.171875 
L 45.40625 9.625 
Q 42.625 4.78125 38.28125 2.390625 
Q 33.9375 0 27.875 0 
Q 17.828125 0 11.671875 7.65625 
Q 5.515625 15.328125 5.515625 27.984375 
Q 5.515625 40.671875 11.671875 48.328125 
Q 17.828125 56 27.875 56 
Q 33.9375 56 38.28125 53.609375 
Q 42.625 51.21875 45.40625 46.390625 
L 45.40625 54.6875 
L 54.390625 54.6875 
z
" id="BitstreamVeraSans-Roman-67"/>
     <path d="M 19.671875 64.796875 
L 19.671875 37.40625 
L 32.078125 37.40625 
Q 38.96875 37.40625 42.71875 40.96875 
Q 46.484375 44.53125 46.484375 51.125 
Q 46.484375 57.671875 42.71875 61.234375 
Q 38.96875 64.796875 32.078125 64.796875 
z
M 9.8125 72.90625 
L 32.078125 72.90625 
Q 44.34375 72.90625 50.609375 67.359375 
Q 56.890625 61.8125 56.890625 51.125 
Q 56.890625 40.328125 50.609375 34.8125 
Q 44.34375 29.296875 32.078125 29.296875 
L 19.671875 29.296875 
L 19.671875 0 
L 9.8125 0 
z
" id="BitstreamVeraSans-Roman-50"/>
    </defs>
    <g transform="translate(173.196 18.14175)scale(0.144 -0.144)">
     <use xlink:href="#BitstreamVeraSans-Roman-57"/>
     <use x="98.845703125" xlink:href="#BitstreamVeraSans-Roman-69"/>
     <use x="126.62890625" xlink:href="#BitstreamVeraSans-Roman-6e"/>
     <use x="190.0078125" xlink:href="#BitstreamVeraSans-Roman-73"/>
     <use x="242.107421875" xlink:href="#BitstreamVeraSans-Roman-2e"/>
     <use x="273.89453125" xlink:href="#BitstreamVeraSans-Roman-20"/>
     <use x="305.681640625" xlink:href="#BitstreamVeraSans-Roman-50"/>
     <use x="365.96875" xlink:href="#BitstreamVeraSans-Roman-72"/>
     <use x="407.05078125" xlink:href="#BitstreamVeraSans-Roman-6f"/>
     <use x="468.232421875" xlink:href="#BitstreamVeraSans-Roman-62"/>
     <use x="531.708984375" xlink:href="#BitstreamVeraSans-Roman-20"/>
     <use x="563.49609375" xlink:href="#BitstreamVeraSans-Roman-65"/>
     <use x="625.01953125" xlink:href="#BitstreamVeraSans-Roman-6e"/>
     <use x="688.3984375" xlink:href="#BitstreamVeraSans-Roman-64"/>
     <use x="751.875" xlink:href="#BitstreamVeraSans-Roman-3a"/>
     <use x="785.56640625" xlink:href="#BitstreamVeraSans-Roman-20"/>
     <use x="817.353515625" xlink:href="#BitstreamVeraSans-Roman-30"/>
     <use x="880.9765625" xlink:href="#BitstreamVeraSans-Roman-2e"/>
     <use x="912.763671875" xlink:href="#BitstreamVeraSans-Roman-31"/>
     <use x="976.38671875" xlink:href="#BitstreamVeraSans-Roman-2c"/>
     <use x="1008.173828125" xlink:href="#BitstreamVeraSans-Roman-20"/>
     <use x="1039.9609375" xlink:href="#BitstreamVeraSans-Roman-52"/>
     <use x="1109.380859375" xlink:href="#BitstreamVeraSans-Roman-65"/>
     <use x="1170.904296875" xlink:href="#BitstreamVeraSans-Roman-70"/>
     <use x="1234.380859375" xlink:href="#BitstreamVeraSans-Roman-65"/>
     <use x="1295.904296875" xlink:href="#BitstreamVeraSans-Roman-74"/>
     <use x="1335.11328125" xlink:href="#BitstreamVeraSans-Roman-69"/>
     <use x="1362.896484375" xlink:href="#BitstreamVeraSans-Roman-74"/>
     <use x="1402.10546875" xlink:href="#BitstreamVeraSans-Roman-69"/>
     <use x="1429.888671875" xlink:href="#BitstreamVeraSans-Roman-6f"/>
     <use x="1491.0703125" xlink:href="#BitstreamVeraSans-Roman-6e"/>
     <use x="1554.44921875" xlink:href="#BitstreamVeraSans-Roman-73"/>
     <use x="1606.548828125" xlink:href="#BitstreamVeraSans-Roman-3a"/>
     <use x="1640.240234375" xlink:href="#BitstreamVeraSans-Roman-20"/>
     <use x="1672.02734375" xlink:href="#BitstreamVeraSans-Roman-32"/>
     <use x="1735.650390625" xlink:href="#BitstreamVeraSans-Roman-2c"/>
     <use x="1767.4375" xlink:href="#BitstreamVeraSans-Roman-20"/>
     <use x="1799.224609375" xlink:href="#BitstreamVeraSans-Roman-53"/>
     <use x="1862.701171875" xlink:href="#BitstreamVeraSans-Roman-74"/>
     <use x="1901.91015625" xlink:href="#BitstreamVeraSans-Roman-72"/>
     <use x="1943.0234375" xlink:href="#BitstreamVeraSans-Roman-61"/>
     <use x="2004.302734375" xlink:href="#BitstreamVeraSans-Roman-74"/>
     <use x="2043.51171875" xlink:href="#BitstreamVeraSans-Roman-65"/>
     <use x="2105.03515625" xlink:href="#BitstreamVeraSans-Roman-67"/>
     <use x="2168.51171875" xlink:href="#BitstreamVeraSans-Roman-69"/>
     <use x="2196.294921875" xlink:href="#BitstreamVeraSans-Roman-65"/>
     <use x="2257.818359375" xlink:href="#BitstreamVeraSans-Roman-73"/>
     <use x="2309.91796875" xlink:href="#BitstreamVeraSans-Roman-3a"/>
     <use x="2343.609375" xlink:href="#BitstreamVeraSans-Roman-20"/>
     <use x="2375.396484375" xlink:href="#BitstreamVeraSans-Roman-38"/>
     <use x="2439.01953125" xlink:href="#BitstreamVeraSans-Roman-2e"/>
    </g>
   </g>
  </g>
 </g>
 <defs>
  <clipPath id="p559b9ad078">
   <rect height="345.6" width="669.6" x="16.29" y="23.14175"/>
  </clipPath>
 </defs>
</svg>
