<?xml version="1.0" encoding="utf-8" standalone="no"?>
<!DOCTYPE svg PUBLIC "-//W3C//DTD SVG 1.1//EN"
  "http://www.w3.org/Graphics/SVG/1.1/DTD/svg11.dtd">
<!-- Created with matplotlib (http://matplotlib.org/) -->
<svg height="465pt" version="1.1" viewBox="0 0 693 465" width="693pt" xmlns="http://www.w3.org/2000/svg" xmlns:xlink="http://www.w3.org/1999/xlink">
 <defs>
  <style type="text/css">
*{stroke-linecap:butt;stroke-linejoin:round;stroke-miterlimit:100000;}
  </style>
 </defs>
 <g id="figure_1">
  <g id="patch_1">
   <path d="M 0 465.868 
L 693.09 465.868 
L 693.09 0 
L 0 0 
z
" style="fill:#ffffff;"/>
  </g>
  <g id="axes_1">
   <g id="patch_2">
    <path d="M 16.29 368.74175 
L 685.89 368.74175 
L 685.89 23.14175 
L 16.29 23.14175 
z
" style="fill:#ffffff;"/>
   </g>
   <g id="PolyCollection_1">
    <defs>
     <path d="M 92.756667 -368.669107 
L 88.623333 -368.669107 
L 88.630638 -369.167808 
L 88.652397 -369.66651 
L 88.688153 -370.165211 
L 88.737159 -370.663912 
L 88.798408 -371.162614 
L 88.870665 -371.661315 
L 88.95251 -372.160016 
L 89.042382 -372.658718 
L 89.13863 -373.157419 
L 89.239564 -373.65612 
L 89.343499 -374.154821 
L 89.448808 -374.653523 
L 89.553953 -375.152224 
L 89.657529 -375.650925 
L 89.758283 -376.149627 
L 89.855138 -376.648328 
L 89.947203 -377.147029 
L 90.033779 -377.645731 
L 90.114356 -378.144432 
L 90.188601 -378.643133 
L 90.256352 -379.141834 
L 90.317595 -379.640536 
L 90.372446 -380.139237 
L 90.421128 -380.637938 
L 90.463954 -381.13664 
L 90.501299 -381.635341 
L 90.533586 -382.134042 
L 90.561264 -382.632744 
L 90.584791 -383.131445 
L 90.604625 -383.630146 
L 90.621209 -384.128847 
L 90.634962 -384.627549 
L 90.646275 -385.12625 
L 90.655506 -385.624951 
L 90.662978 -386.123653 
L 90.668977 -386.622354 
L 90.673754 -387.121055 
L 90.677525 -387.619756 
L 90.680475 -388.118458 
L 90.682757 -388.617159 
L 90.6845 -389.11586 
L 90.685806 -389.614562 
L 90.686755 -390.113263 
L 90.687406 -390.611964 
L 90.6878 -391.110666 
L 90.687957 -391.609367 
L 90.687878 -392.108068 
L 90.687546 -392.606769 
L 90.686918 -393.105471 
L 90.685925 -393.604172 
L 90.684465 -394.102873 
L 90.682397 -394.601575 
L 90.679533 -395.100276 
L 90.675622 -395.598977 
L 90.670343 -396.097679 
L 90.663284 -396.59638 
L 90.653923 -397.095081 
L 90.641612 -397.593782 
L 90.625549 -398.092484 
L 90.604754 -398.591185 
L 90.57804 -399.089886 
L 90.543989 -399.588588 
L 90.500925 -400.087289 
L 90.446886 -400.58599 
L 90.379607 -401.084692 
L 90.296505 -401.583393 
L 90.194675 -402.082094 
L 90.070892 -402.580795 
L 89.921636 -403.079497 
L 89.743126 -403.578198 
L 89.531377 -404.076899 
L 89.282278 -404.575601 
L 88.991695 -405.074302 
L 88.655586 -405.573003 
L 88.270155 -406.071705 
L 87.832013 -406.570406 
L 87.338358 -407.069107 
L 86.787172 -407.567808 
L 86.17741 -408.06651 
L 85.5092 -408.565211 
L 84.784014 -409.063912 
L 84.004829 -409.562614 
L 83.176242 -410.061315 
L 82.304548 -410.560016 
L 81.397763 -411.058718 
L 80.465581 -411.557419 
L 79.519269 -412.05612 
L 78.571493 -412.554821 
L 77.636073 -413.053523 
L 76.727673 -413.552224 
L 75.861439 -414.050925 
L 75.052592 -414.549627 
L 74.315988 -415.048328 
L 73.665671 -415.547029 
L 73.114428 -416.045731 
L 72.673373 -416.544432 
L 72.351573 -417.043133 
L 72.155741 -417.541834 
L 72.09 -418.040536 
L 109.29 -418.040536 
L 109.29 -418.040536 
L 109.224259 -417.541834 
L 109.028427 -417.043133 
L 108.706627 -416.544432 
L 108.265572 -416.045731 
L 107.714329 -415.547029 
L 107.064012 -415.048328 
L 106.327408 -414.549627 
L 105.518561 -414.050925 
L 104.652327 -413.552224 
L 103.743927 -413.053523 
L 102.808507 -412.554821 
L 101.860731 -412.05612 
L 100.914419 -411.557419 
L 99.982237 -411.058718 
L 99.075452 -410.560016 
L 98.203758 -410.061315 
L 97.375171 -409.562614 
L 96.595986 -409.063912 
L 95.8708 -408.565211 
L 95.20259 -408.06651 
L 94.592828 -407.567808 
L 94.041642 -407.069107 
L 93.547987 -406.570406 
L 93.109845 -406.071705 
L 92.724414 -405.573003 
L 92.388305 -405.074302 
L 92.097722 -404.575601 
L 91.848623 -404.076899 
L 91.636874 -403.578198 
L 91.458364 -403.079497 
L 91.309108 -402.580795 
L 91.185325 -402.082094 
L 91.083495 -401.583393 
L 91.000393 -401.084692 
L 90.933114 -400.58599 
L 90.879075 -400.087289 
L 90.836011 -399.588588 
L 90.80196 -399.089886 
L 90.775246 -398.591185 
L 90.754451 -398.092484 
L 90.738388 -397.593782 
L 90.726077 -397.095081 
L 90.716716 -396.59638 
L 90.709657 -396.097679 
L 90.704378 -395.598977 
L 90.700467 -395.100276 
L 90.697603 -394.601575 
L 90.695535 -394.102873 
L 90.694075 -393.604172 
L 90.693082 -393.105471 
L 90.692454 -392.606769 
L 90.692122 -392.108068 
L 90.692043 -391.609367 
L 90.6922 -391.110666 
L 90.692594 -390.611964 
L 90.693245 -390.113263 
L 90.694194 -389.614562 
L 90.6955 -389.11586 
L 90.697243 -388.617159 
L 90.699525 -388.118458 
L 90.702475 -387.619756 
L 90.706246 -387.121055 
L 90.711023 -386.622354 
L 90.717022 -386.123653 
L 90.724494 -385.624951 
L 90.733725 -385.12625 
L 90.745038 -384.627549 
L 90.758791 -384.128847 
L 90.775375 -383.630146 
L 90.795209 -383.131445 
L 90.818736 -382.632744 
L 90.846414 -382.134042 
L 90.878701 -381.635341 
L 90.916046 -381.13664 
L 90.958872 -380.637938 
L 91.007554 -380.139237 
L 91.062405 -379.640536 
L 91.123648 -379.141834 
L 91.191399 -378.643133 
L 91.265644 -378.144432 
L 91.346221 -377.645731 
L 91.432797 -377.147029 
L 91.524862 -376.648328 
L 91.621717 -376.149627 
L 91.722471 -375.650925 
L 91.826047 -375.152224 
L 91.931192 -374.653523 
L 92.036501 -374.154821 
L 92.140436 -373.65612 
L 92.24137 -373.157419 
L 92.337618 -372.658718 
L 92.42749 -372.160016 
L 92.509335 -371.661315 
L 92.581592 -371.162614 
L 92.642841 -370.663912 
L 92.691847 -370.165211 
L 92.727603 -369.66651 
L 92.749362 -369.167808 
L 92.756667 -368.669107 
z
" id="m635a9248c8" style="stroke:#000000;stroke-opacity:0.3;"/>
    </defs>
    <g clip-path="url(#pd3fba0a4c6)">
     <use style="fill:#bfbf00;fill-opacity:0.3;stroke:#000000;stroke-opacity:0.3;" x="0.0" xlink:href="#m635a9248c8" y="465.868"/>
    </g>
   </g>
   <g id="PolyCollection_2">
    <defs>
     <path d="M 176.981825 -319.297679 
L 153.198175 -319.297679 
L 153.214082 -319.79638 
L 153.261695 -320.295081 
L 153.340631 -320.793782 
L 153.450259 -321.292484 
L 153.589707 -321.791185 
L 153.757875 -322.289886 
L 153.953446 -322.788588 
L 154.174907 -323.287289 
L 154.420566 -323.78599 
L 154.688574 -324.284692 
L 154.976947 -324.783393 
L 155.283591 -325.282094 
L 155.606328 -325.780795 
L 155.942918 -326.279497 
L 156.291086 -326.778198 
L 156.648547 -327.276899 
L 157.013028 -327.775601 
L 157.382295 -328.274302 
L 157.754167 -328.773003 
L 158.12654 -329.271705 
L 158.497404 -329.770406 
L 158.864856 -330.269107 
L 159.227114 -330.767808 
L 159.582525 -331.26651 
L 159.929575 -331.765211 
L 160.266892 -332.263912 
L 160.593249 -332.762614 
L 160.907563 -333.261315 
L 161.208897 -333.760016 
L 161.496449 -334.258718 
L 161.76955 -334.757419 
L 162.027657 -335.25612 
L 162.270339 -335.754821 
L 162.49727 -336.253523 
L 162.708214 -336.752224 
L 162.903017 -337.250925 
L 163.08159 -337.749627 
L 163.243895 -338.248328 
L 163.389935 -338.747029 
L 163.519739 -339.245731 
L 163.633348 -339.744432 
L 163.730803 -340.243133 
L 163.812137 -340.741834 
L 163.87736 -341.240536 
L 163.926451 -341.739237 
L 163.959352 -342.237938 
L 163.975959 -342.73664 
L 163.976118 -343.235341 
L 163.959621 -343.734042 
L 163.926204 -344.232744 
L 163.87555 -344.731445 
L 163.807285 -345.230146 
L 163.720988 -345.728847 
L 163.616192 -346.227549 
L 163.492391 -346.72625 
L 163.349055 -347.224951 
L 163.185634 -347.723653 
L 163.001573 -348.222354 
L 162.796328 -348.721055 
L 162.569376 -349.219756 
L 162.320238 -349.718458 
L 162.048492 -350.217159 
L 161.753792 -350.71586 
L 161.435888 -351.214562 
L 161.094643 -351.713263 
L 160.730054 -352.211964 
L 160.342268 -352.710666 
L 159.9316 -353.209367 
L 159.498553 -353.708068 
L 159.043825 -354.206769 
L 158.568332 -354.705471 
L 158.073209 -355.204172 
L 157.559825 -355.702873 
L 157.029786 -356.201575 
L 156.484934 -356.700276 
L 155.927352 -357.198977 
L 155.359353 -357.697679 
L 154.783473 -358.19638 
L 154.202461 -358.695081 
L 153.619258 -359.193782 
L 153.036982 -359.692484 
L 152.458896 -360.191185 
L 151.888391 -360.689886 
L 151.328947 -361.188588 
L 150.784103 -361.687289 
L 150.257422 -362.18599 
L 149.752451 -362.684692 
L 149.272686 -363.183393 
L 148.821527 -363.682094 
L 148.402245 -364.180795 
L 148.017937 -364.679497 
L 147.671492 -365.178198 
L 147.365554 -365.676899 
L 147.102487 -366.175601 
L 146.884348 -366.674302 
L 146.712856 -367.173003 
L 146.589375 -367.671705 
L 146.514891 -368.170406 
L 146.49 -368.669107 
L 183.69 -368.669107 
L 183.69 -368.669107 
L 183.665109 -368.170406 
L 183.590625 -367.671705 
L 183.467144 -367.173003 
L 183.295652 -366.674302 
L 183.077513 -366.175601 
L 182.814446 -365.676899 
L 182.508508 -365.178198 
L 182.162063 -364.679497 
L 181.777755 -364.180795 
L 181.358473 -363.682094 
L 180.907314 -363.183393 
L 180.427549 -362.684692 
L 179.922578 -362.18599 
L 179.395897 -361.687289 
L 178.851053 -361.188588 
L 178.291609 -360.689886 
L 177.721104 -360.191185 
L 177.143018 -359.692484 
L 176.560742 -359.193782 
L 175.977539 -358.695081 
L 175.396527 -358.19638 
L 174.820647 -357.697679 
L 174.252648 -357.198977 
L 173.695066 -356.700276 
L 173.150214 -356.201575 
L 172.620175 -355.702873 
L 172.106791 -355.204172 
L 171.611668 -354.705471 
L 171.136175 -354.206769 
L 170.681447 -353.708068 
L 170.2484 -353.209367 
L 169.837732 -352.710666 
L 169.449946 -352.211964 
L 169.085357 -351.713263 
L 168.744112 -351.214562 
L 168.426208 -350.71586 
L 168.131508 -350.217159 
L 167.859762 -349.718458 
L 167.610624 -349.219756 
L 167.383672 -348.721055 
L 167.178427 -348.222354 
L 166.994366 -347.723653 
L 166.830945 -347.224951 
L 166.687609 -346.72625 
L 166.563808 -346.227549 
L 166.459012 -345.728847 
L 166.372715 -345.230146 
L 166.30445 -344.731445 
L 166.253796 -344.232744 
L 166.220379 -343.734042 
L 166.203882 -343.235341 
L 166.204041 -342.73664 
L 166.220648 -342.237938 
L 166.253549 -341.739237 
L 166.30264 -341.240536 
L 166.367863 -340.741834 
L 166.449197 -340.243133 
L 166.546652 -339.744432 
L 166.660261 -339.245731 
L 166.790065 -338.747029 
L 166.936105 -338.248328 
L 167.09841 -337.749627 
L 167.276983 -337.250925 
L 167.471786 -336.752224 
L 167.68273 -336.253523 
L 167.909661 -335.754821 
L 168.152343 -335.25612 
L 168.41045 -334.757419 
L 168.683551 -334.258718 
L 168.971103 -333.760016 
L 169.272437 -333.261315 
L 169.586751 -332.762614 
L 169.913108 -332.263912 
L 170.250425 -331.765211 
L 170.597475 -331.26651 
L 170.952886 -330.767808 
L 171.315144 -330.269107 
L 171.682596 -329.770406 
L 172.05346 -329.271705 
L 172.425833 -328.773003 
L 172.797705 -328.274302 
L 173.166972 -327.775601 
L 173.531453 -327.276899 
L 173.888914 -326.778198 
L 174.237082 -326.279497 
L 174.573672 -325.780795 
L 174.896409 -325.282094 
L 175.203053 -324.783393 
L 175.491426 -324.284692 
L 175.759434 -323.78599 
L 176.005093 -323.287289 
L 176.226554 -322.788588 
L 176.422125 -322.289886 
L 176.590293 -321.791185 
L 176.729741 -321.292484 
L 176.839369 -320.793782 
L 176.918305 -320.295081 
L 176.965918 -319.79638 
L 176.981825 -319.297679 
z
" id="mf979aefdb4" style="stroke:#000000;stroke-opacity:0.3;"/>
    </defs>
    <g clip-path="url(#pd3fba0a4c6)">
     <use style="fill:#bfbf00;fill-opacity:0.3;stroke:#000000;stroke-opacity:0.3;" x="0.0" xlink:href="#mf979aefdb4" y="465.868"/>
    </g>
   </g>
   <g id="PolyCollection_3">
    <defs>
     <path d="M 241.329955 -171.183393 
L 237.650045 -171.183393 
L 237.519275 -173.676899 
L 237.372743 -176.170406 
L 237.203539 -178.663912 
L 237.004393 -181.157419 
L 236.768305 -183.650925 
L 236.489266 -186.144432 
L 236.16301 -188.637938 
L 235.787717 -191.131445 
L 235.364597 -193.624951 
L 234.898261 -196.118458 
L 234.396813 -198.611964 
L 233.871611 -201.105471 
L 233.336681 -203.598977 
L 232.807785 -206.092484 
L 232.301202 -208.58599 
L 231.832322 -211.079497 
L 231.414164 -213.573003 
L 231.055962 -216.06651 
L 230.761995 -218.560016 
L 230.530778 -221.053523 
L 230.354757 -223.547029 
L 230.220563 -226.040536 
L 230.109876 -228.534042 
L 230.000839 -231.027549 
L 229.869928 -233.521055 
L 229.694139 -236.014562 
L 229.453275 -238.508068 
L 229.132123 -241.001575 
L 228.722289 -243.495081 
L 228.22349 -245.988588 
L 227.644131 -248.482094 
L 227.001072 -250.975601 
L 226.318549 -253.469107 
L 225.626321 -255.962614 
L 224.957174 -258.45612 
L 224.344008 -260.949627 
L 223.81676 -263.443133 
L 223.399492 -265.93664 
L 223.107914 -268.430146 
L 222.947633 -270.923653 
L 222.913311 -273.417159 
L 222.988868 -275.910666 
L 223.148737 -278.404172 
L 223.360074 -280.897679 
L 223.585747 -283.391185 
L 223.787808 -285.884692 
L 223.93115 -288.378198 
L 223.986959 -290.871705 
L 223.935656 -293.365211 
L 223.769013 -295.858718 
L 223.491243 -298.352224 
L 223.11893 -300.845731 
L 222.679816 -303.339237 
L 222.210537 -305.832744 
L 221.753524 -308.32625 
L 221.353369 -310.819756 
L 221.052995 -313.313263 
L 220.89 -315.806769 
L 220.893512 -318.300276 
L 221.081847 -320.793782 
L 221.461169 -323.287289 
L 222.025252 -325.780795 
L 222.756319 -328.274302 
L 223.626844 -330.767808 
L 224.602096 -333.261315 
L 225.643157 -335.754821 
L 226.710089 -338.248328 
L 227.764973 -340.741834 
L 228.774529 -343.235341 
L 229.712122 -345.728847 
L 230.559028 -348.222354 
L 231.304908 -350.71586 
L 231.947524 -353.209367 
L 232.49181 -355.702873 
L 232.948444 -358.19638 
L 233.332109 -360.689886 
L 233.659638 -363.183393 
L 233.94822 -365.676899 
L 234.213828 -368.170406 
L 234.469982 -370.663912 
L 234.726915 -373.157419 
L 234.991167 -375.650925 
L 235.265588 -378.144432 
L 235.549694 -380.637938 
L 235.840289 -383.131445 
L 236.132259 -385.624951 
L 236.419446 -388.118458 
L 236.695486 -390.611964 
L 236.954556 -393.105471 
L 237.191957 -395.598977 
L 237.404503 -398.092484 
L 237.590705 -400.58599 
L 237.750759 -403.079497 
L 237.886374 -405.573003 
L 238.00047 -408.06651 
L 238.096798 -410.560016 
L 238.179531 -413.053523 
L 238.252867 -415.547029 
L 238.320687 -418.040536 
L 240.659313 -418.040536 
L 240.659313 -418.040536 
L 240.727133 -415.547029 
L 240.800469 -413.053523 
L 240.883202 -410.560016 
L 240.97953 -408.06651 
L 241.093626 -405.573003 
L 241.229241 -403.079497 
L 241.389295 -400.58599 
L 241.575497 -398.092484 
L 241.788043 -395.598977 
L 242.025444 -393.105471 
L 242.284514 -390.611964 
L 242.560554 -388.118458 
L 242.847741 -385.624951 
L 243.139711 -383.131445 
L 243.430306 -380.637938 
L 243.714412 -378.144432 
L 243.988833 -375.650925 
L 244.253085 -373.157419 
L 244.510018 -370.663912 
L 244.766172 -368.170406 
L 245.03178 -365.676899 
L 245.320362 -363.183393 
L 245.647891 -360.689886 
L 246.031556 -358.19638 
L 246.48819 -355.702873 
L 247.032476 -353.209367 
L 247.675092 -350.71586 
L 248.420972 -348.222354 
L 249.267878 -345.728847 
L 250.205471 -343.235341 
L 251.215027 -340.741834 
L 252.269911 -338.248328 
L 253.336843 -335.754821 
L 254.377904 -333.261315 
L 255.353156 -330.767808 
L 256.223681 -328.274302 
L 256.954748 -325.780795 
L 257.518831 -323.287289 
L 257.898153 -320.793782 
L 258.086488 -318.300276 
L 258.09 -315.806769 
L 257.927005 -313.313263 
L 257.626631 -310.819756 
L 257.226476 -308.32625 
L 256.769463 -305.832744 
L 256.300184 -303.339237 
L 255.86107 -300.845731 
L 255.488757 -298.352224 
L 255.210987 -295.858718 
L 255.044344 -293.365211 
L 254.993041 -290.871705 
L 255.04885 -288.378198 
L 255.192192 -285.884692 
L 255.394253 -283.391185 
L 255.619926 -280.897679 
L 255.831263 -278.404172 
L 255.991132 -275.910666 
L 256.066689 -273.417159 
L 256.032367 -270.923653 
L 255.872086 -268.430146 
L 255.580508 -265.93664 
L 255.16324 -263.443133 
L 254.635992 -260.949627 
L 254.022826 -258.45612 
L 253.353679 -255.962614 
L 252.661451 -253.469107 
L 251.978928 -250.975601 
L 251.335869 -248.482094 
L 250.75651 -245.988588 
L 250.257711 -243.495081 
L 249.847877 -241.001575 
L 249.526725 -238.508068 
L 249.285861 -236.014562 
L 249.110072 -233.521055 
L 248.979161 -231.027549 
L 248.870124 -228.534042 
L 248.759437 -226.040536 
L 248.625243 -223.547029 
L 248.449222 -221.053523 
L 248.218005 -218.560016 
L 247.924038 -216.06651 
L 247.565836 -213.573003 
L 247.147678 -211.079497 
L 246.678798 -208.58599 
L 246.172215 -206.092484 
L 245.643319 -203.598977 
L 245.108389 -201.105471 
L 244.583187 -198.611964 
L 244.081739 -196.118458 
L 243.615403 -193.624951 
L 243.192283 -191.131445 
L 242.81699 -188.637938 
L 242.490734 -186.144432 
L 242.211695 -183.650925 
L 241.975607 -181.157419 
L 241.776461 -178.663912 
L 241.607257 -176.170406 
L 241.460725 -173.676899 
L 241.329955 -171.183393 
z
" id="m847253ab31" style="stroke:#000000;stroke-opacity:0.3;"/>
    </defs>
    <g clip-path="url(#pd3fba0a4c6)">
     <use style="fill:#bfbf00;fill-opacity:0.3;stroke:#000000;stroke-opacity:0.3;" x="0.0" xlink:href="#m847253ab31" y="465.868"/>
    </g>
   </g>
   <g id="PolyCollection_4">
    <defs>
     <path d="M 315.63616 -171.183393 
L 312.14384 -171.183393 
L 312.150871 -172.180795 
L 312.172254 -173.178198 
L 312.207378 -174.175601 
L 312.25527 -175.173003 
L 312.314618 -176.170406 
L 312.383813 -177.167808 
L 312.460991 -178.165211 
L 312.544078 -179.162614 
L 312.630835 -180.160016 
L 312.718901 -181.157419 
L 312.80582 -182.154821 
L 312.889066 -183.152224 
L 312.96605 -184.149627 
L 313.034115 -185.147029 
L 313.090518 -186.144432 
L 313.132404 -187.141834 
L 313.156764 -188.139237 
L 313.160396 -189.13664 
L 313.13986 -190.134042 
L 313.09145 -191.131445 
L 313.011165 -192.128847 
L 312.894711 -193.12625 
L 312.737527 -194.123653 
L 312.534842 -195.121055 
L 312.281769 -196.118458 
L 311.973443 -197.11586 
L 311.605199 -198.113263 
L 311.172787 -199.110666 
L 310.672629 -200.108068 
L 310.102098 -201.105471 
L 309.459812 -202.102873 
L 308.745931 -203.100276 
L 307.962439 -204.097679 
L 307.113387 -205.095081 
L 306.205086 -206.092484 
L 305.246221 -207.089886 
L 304.247875 -208.087289 
L 303.223451 -209.084692 
L 302.188477 -210.082094 
L 301.160292 -211.079497 
L 300.157624 -212.076899 
L 299.200065 -213.074302 
L 298.307459 -214.071705 
L 297.499241 -215.069107 
L 296.793742 -216.06651 
L 296.207505 -217.063912 
L 295.754644 -218.061315 
L 295.446282 -219.058718 
L 295.290096 -220.05612 
L 295.29 -221.053523 
L 295.44598 -222.050925 
L 295.754091 -223.048328 
L 296.206621 -224.045731 
L 296.792403 -225.043133 
L 297.497267 -226.040536 
L 298.304593 -227.037938 
L 299.195954 -228.035341 
L 300.151785 -229.032744 
L 301.152072 -230.030146 
L 302.177007 -231.027549 
L 303.207582 -232.024951 
L 304.226104 -233.022354 
L 305.216606 -234.019756 
L 306.165139 -235.017159 
L 307.059955 -236.014562 
L 307.891571 -237.011964 
L 308.652725 -238.009367 
L 309.338258 -239.006769 
L 309.944903 -240.004172 
L 310.471051 -241.001575 
L 310.916462 -241.998977 
L 311.281997 -242.99638 
L 311.569337 -243.993782 
L 311.780746 -244.991185 
L 311.918875 -245.988588 
L 311.986602 -246.98599 
L 311.986944 -247.983393 
L 311.923009 -248.980795 
L 311.798011 -249.978198 
L 311.615316 -250.975601 
L 311.378539 -251.973003 
L 311.091648 -252.970406 
L 310.759092 -253.967808 
L 310.385913 -254.965211 
L 309.977844 -255.962614 
L 309.541382 -256.960016 
L 309.08381 -257.957419 
L 308.613176 -258.954821 
L 308.13821 -259.952224 
L 307.668196 -260.949627 
L 307.212777 -261.947029 
L 306.781723 -262.944432 
L 306.384654 -263.941834 
L 306.030748 -264.939237 
L 305.728434 -265.93664 
L 305.485092 -266.934042 
L 305.306786 -267.931445 
L 305.198035 -268.928847 
L 305.161635 -269.92625 
L 322.618365 -269.92625 
L 322.618365 -269.92625 
L 322.581965 -268.928847 
L 322.473214 -267.931445 
L 322.294908 -266.934042 
L 322.051566 -265.93664 
L 321.749252 -264.939237 
L 321.395346 -263.941834 
L 320.998277 -262.944432 
L 320.567223 -261.947029 
L 320.111804 -260.949627 
L 319.64179 -259.952224 
L 319.166824 -258.954821 
L 318.69619 -257.957419 
L 318.238618 -256.960016 
L 317.802156 -255.962614 
L 317.394087 -254.965211 
L 317.020908 -253.967808 
L 316.688352 -252.970406 
L 316.401461 -251.973003 
L 316.164684 -250.975601 
L 315.981989 -249.978198 
L 315.856991 -248.980795 
L 315.793056 -247.983393 
L 315.793398 -246.98599 
L 315.861125 -245.988588 
L 315.999254 -244.991185 
L 316.210663 -243.993782 
L 316.498003 -242.99638 
L 316.863538 -241.998977 
L 317.308949 -241.001575 
L 317.835097 -240.004172 
L 318.441742 -239.006769 
L 319.127275 -238.009367 
L 319.888429 -237.011964 
L 320.720045 -236.014562 
L 321.614861 -235.017159 
L 322.563394 -234.019756 
L 323.553896 -233.022354 
L 324.572418 -232.024951 
L 325.602993 -231.027549 
L 326.627928 -230.030146 
L 327.628215 -229.032744 
L 328.584046 -228.035341 
L 329.475407 -227.037938 
L 330.282733 -226.040536 
L 330.987597 -225.043133 
L 331.573379 -224.045731 
L 332.025909 -223.048328 
L 332.33402 -222.050925 
L 332.49 -221.053523 
L 332.489904 -220.05612 
L 332.333718 -219.058718 
L 332.025356 -218.061315 
L 331.572495 -217.063912 
L 330.986258 -216.06651 
L 330.280759 -215.069107 
L 329.472541 -214.071705 
L 328.579935 -213.074302 
L 327.622376 -212.076899 
L 326.619708 -211.079497 
L 325.591523 -210.082094 
L 324.556549 -209.084692 
L 323.532125 -208.087289 
L 322.533779 -207.089886 
L 321.574914 -206.092484 
L 320.666613 -205.095081 
L 319.817561 -204.097679 
L 319.034069 -203.100276 
L 318.320188 -202.102873 
L 317.677902 -201.105471 
L 317.107371 -200.108068 
L 316.607213 -199.110666 
L 316.174801 -198.113263 
L 315.806557 -197.11586 
L 315.498231 -196.118458 
L 315.245158 -195.121055 
L 315.042473 -194.123653 
L 314.885289 -193.12625 
L 314.768835 -192.128847 
L 314.68855 -191.131445 
L 314.64014 -190.134042 
L 314.619604 -189.13664 
L 314.623236 -188.139237 
L 314.647596 -187.141834 
L 314.689482 -186.144432 
L 314.745885 -185.147029 
L 314.81395 -184.149627 
L 314.890934 -183.152224 
L 314.97418 -182.154821 
L 315.061099 -181.157419 
L 315.149165 -180.160016 
L 315.235922 -179.162614 
L 315.319009 -178.165211 
L 315.396187 -177.167808 
L 315.465382 -176.170406 
L 315.52473 -175.173003 
L 315.572622 -174.175601 
L 315.607746 -173.178198 
L 315.629129 -172.180795 
L 315.63616 -171.183393 
z
" id="m11323aeb75" style="stroke:#000000;stroke-opacity:0.3;"/>
    </defs>
    <g clip-path="url(#pd3fba0a4c6)">
     <use style="fill:#bfbf00;fill-opacity:0.3;stroke:#000000;stroke-opacity:0.3;" x="0.0" xlink:href="#m11323aeb75" y="465.868"/>
    </g>
   </g>
   <g id="PolyCollection_5">
    <defs>
     <path d="M 390.245885 -121.811964 
L 386.334115 -121.811964 
L 386.318401 -123.308068 
L 386.313052 -124.804172 
L 386.314512 -126.300276 
L 386.318098 -127.79638 
L 386.318007 -129.292484 
L 386.307373 -130.788588 
L 386.278366 -132.284692 
L 386.222322 -133.780795 
L 386.129939 -135.276899 
L 385.991512 -136.773003 
L 385.797221 -138.269107 
L 385.537478 -139.765211 
L 385.20332 -141.261315 
L 384.786849 -142.757419 
L 384.281713 -144.253523 
L 383.683596 -145.749627 
L 382.990713 -147.245731 
L 382.204266 -148.741834 
L 381.328841 -150.237938 
L 380.372697 -151.734042 
L 379.347922 -153.230146 
L 378.270417 -154.72625 
L 377.159682 -156.222354 
L 376.038392 -157.718458 
L 374.931761 -159.214562 
L 373.866697 -160.710666 
L 372.870803 -162.206769 
L 371.971237 -163.702873 
L 371.193518 -165.198977 
L 370.560334 -166.695081 
L 370.090419 -168.191185 
L 369.797594 -169.687289 
L 369.69 -171.183393 
L 369.769608 -172.679497 
L 370.032019 -174.175601 
L 370.466573 -175.671705 
L 371.05676 -177.167808 
L 371.780902 -178.663912 
L 372.613064 -180.160016 
L 373.524131 -181.65612 
L 374.482997 -183.152224 
L 375.457782 -184.648328 
L 376.417034 -186.144432 
L 377.330841 -187.640536 
L 378.171833 -189.13664 
L 378.916019 -190.632744 
L 379.543469 -192.128847 
L 380.038808 -193.624951 
L 380.391546 -195.121055 
L 380.596253 -196.617159 
L 380.652571 -198.113263 
L 380.565099 -199.609367 
L 380.343156 -201.105471 
L 380.000414 -202.601575 
L 379.554427 -204.097679 
L 379.026055 -205.593782 
L 378.438778 -207.089886 
L 377.817923 -208.58599 
L 377.189808 -210.082094 
L 376.580836 -211.578198 
L 376.016548 -213.074302 
L 375.520694 -214.570406 
L 375.114351 -216.06651 
L 374.815126 -217.562614 
L 374.636505 -219.058718 
L 374.587369 -220.554821 
L 374.671714 -222.050925 
L 374.888598 -223.547029 
L 375.232307 -225.043133 
L 375.692745 -226.539237 
L 376.256001 -228.035341 
L 376.905089 -229.531445 
L 377.620779 -231.027549 
L 378.382496 -232.523653 
L 379.169223 -234.019756 
L 379.960354 -235.51586 
L 380.736473 -237.011964 
L 381.480009 -238.508068 
L 382.175749 -240.004172 
L 382.81121 -241.500276 
L 383.376853 -242.99638 
L 383.866166 -244.492484 
L 384.275612 -245.988588 
L 384.604485 -247.484692 
L 384.854674 -248.980795 
L 385.030373 -250.476899 
L 385.137743 -251.973003 
L 385.184561 -253.469107 
L 385.179842 -254.965211 
L 385.133469 -256.461315 
L 385.055826 -257.957419 
L 384.95744 -259.453523 
L 384.848646 -260.949627 
L 384.739264 -262.445731 
L 384.638316 -263.941834 
L 384.55377 -265.437938 
L 384.492331 -266.934042 
L 384.459278 -268.430146 
L 384.458366 -269.92625 
L 392.121634 -269.92625 
L 392.121634 -269.92625 
L 392.120722 -268.430146 
L 392.087669 -266.934042 
L 392.02623 -265.437938 
L 391.941684 -263.941834 
L 391.840736 -262.445731 
L 391.731354 -260.949627 
L 391.62256 -259.453523 
L 391.524174 -257.957419 
L 391.446531 -256.461315 
L 391.400158 -254.965211 
L 391.395439 -253.469107 
L 391.442257 -251.973003 
L 391.549627 -250.476899 
L 391.725326 -248.980795 
L 391.975515 -247.484692 
L 392.304388 -245.988588 
L 392.713834 -244.492484 
L 393.203147 -242.99638 
L 393.76879 -241.500276 
L 394.404251 -240.004172 
L 395.099991 -238.508068 
L 395.843527 -237.011964 
L 396.619646 -235.51586 
L 397.410777 -234.019756 
L 398.197504 -232.523653 
L 398.959221 -231.027549 
L 399.674911 -229.531445 
L 400.323999 -228.035341 
L 400.887255 -226.539237 
L 401.347693 -225.043133 
L 401.691402 -223.547029 
L 401.908286 -222.050925 
L 401.992631 -220.554821 
L 401.943495 -219.058718 
L 401.764874 -217.562614 
L 401.465649 -216.06651 
L 401.059306 -214.570406 
L 400.563452 -213.074302 
L 399.999164 -211.578198 
L 399.390192 -210.082094 
L 398.762077 -208.58599 
L 398.141222 -207.089886 
L 397.553945 -205.593782 
L 397.025573 -204.097679 
L 396.579586 -202.601575 
L 396.236844 -201.105471 
L 396.014901 -199.609367 
L 395.927429 -198.113263 
L 395.983747 -196.617159 
L 396.188454 -195.121055 
L 396.541192 -193.624951 
L 397.036531 -192.128847 
L 397.663981 -190.632744 
L 398.408167 -189.13664 
L 399.249159 -187.640536 
L 400.162966 -186.144432 
L 401.122218 -184.648328 
L 402.097003 -183.152224 
L 403.055869 -181.65612 
L 403.966936 -180.160016 
L 404.799098 -178.663912 
L 405.52324 -177.167808 
L 406.113427 -175.671705 
L 406.547981 -174.175601 
L 406.810392 -172.679497 
L 406.89 -171.183393 
L 406.782406 -169.687289 
L 406.489581 -168.191185 
L 406.019666 -166.695081 
L 405.386482 -165.198977 
L 404.608763 -163.702873 
L 403.709197 -162.206769 
L 402.713303 -160.710666 
L 401.648239 -159.214562 
L 400.541608 -157.718458 
L 399.420318 -156.222354 
L 398.309583 -154.72625 
L 397.232078 -153.230146 
L 396.207303 -151.734042 
L 395.251159 -150.237938 
L 394.375734 -148.741834 
L 393.589287 -147.245731 
L 392.896404 -145.749627 
L 392.298287 -144.253523 
L 391.793151 -142.757419 
L 391.37668 -141.261315 
L 391.042522 -139.765211 
L 390.782779 -138.269107 
L 390.588488 -136.773003 
L 390.450061 -135.276899 
L 390.357678 -133.780795 
L 390.301634 -132.284692 
L 390.272627 -130.788588 
L 390.261993 -129.292484 
L 390.261902 -127.79638 
L 390.265488 -126.300276 
L 390.266948 -124.804172 
L 390.261599 -123.308068 
L 390.245885 -121.811964 
z
" id="m0b1257a1d3" style="stroke:#000000;stroke-opacity:0.3;"/>
    </defs>
    <g clip-path="url(#pd3fba0a4c6)">
     <use style="fill:#bfbf00;fill-opacity:0.3;stroke:#000000;stroke-opacity:0.3;" x="0.0" xlink:href="#m0b1257a1d3" y="465.868"/>
    </g>
   </g>
   <g id="PolyCollection_6">
    <defs>
     <path d="M 481.29 -121.811964 
L 444.09 -121.811964 
L 444.09 -121.811964 
L 444.09 -121.811964 
L 444.09 -121.811964 
L 444.09 -121.811964 
L 444.09 -121.811964 
L 444.09 -121.811964 
L 444.09 -121.811964 
L 444.09 -121.811964 
L 444.09 -121.811964 
L 444.09 -121.811964 
L 444.09 -121.811964 
L 444.09 -121.811964 
L 444.09 -121.811964 
L 444.09 -121.811964 
L 444.09 -121.811964 
L 444.09 -121.811964 
L 444.09 -121.811964 
L 444.09 -121.811964 
L 444.09 -121.811964 
L 444.09 -121.811964 
L 444.09 -121.811964 
L 444.09 -121.811964 
L 444.09 -121.811964 
L 444.09 -121.811964 
L 444.09 -121.811964 
L 444.09 -121.811964 
L 444.09 -121.811964 
L 444.09 -121.811964 
L 444.09 -121.811964 
L 444.09 -121.811964 
L 444.09 -121.811964 
L 444.09 -121.811964 
L 444.09 -121.811964 
L 444.09 -121.811964 
L 444.09 -121.811964 
L 444.09 -121.811964 
L 444.09 -121.811964 
L 444.09 -121.811964 
L 444.09 -121.811964 
L 444.09 -121.811964 
L 444.09 -121.811964 
L 444.09 -121.811964 
L 444.09 -121.811964 
L 444.09 -121.811964 
L 444.09 -121.811964 
L 444.09 -121.811964 
L 444.09 -121.811964 
L 444.09 -121.811964 
L 444.09 -121.811964 
L 444.09 -121.811964 
L 444.09 -121.811964 
L 444.09 -121.811964 
L 444.09 -121.811964 
L 444.09 -121.811964 
L 444.09 -121.811964 
L 444.09 -121.811964 
L 444.09 -121.811964 
L 444.09 -121.811964 
L 444.09 -121.811964 
L 444.09 -121.811964 
L 444.09 -121.811964 
L 444.09 -121.811964 
L 444.09 -121.811964 
L 444.09 -121.811964 
L 444.09 -121.811964 
L 444.09 -121.811964 
L 444.09 -121.811964 
L 444.09 -121.811964 
L 444.09 -121.811964 
L 444.09 -121.811964 
L 444.09 -121.811964 
L 444.09 -121.811964 
L 444.09 -121.811964 
L 444.09 -121.811964 
L 444.09 -121.811964 
L 444.09 -121.811964 
L 444.09 -121.811964 
L 444.09 -121.811964 
L 444.09 -121.811964 
L 444.09 -121.811964 
L 444.09 -121.811964 
L 444.09 -121.811964 
L 444.09 -121.811964 
L 444.09 -121.811964 
L 444.09 -121.811964 
L 444.09 -121.811964 
L 444.09 -121.811964 
L 444.09 -121.811964 
L 444.09 -121.811964 
L 444.09 -121.811964 
L 444.09 -121.811964 
L 444.09 -121.811964 
L 444.09 -121.811964 
L 444.09 -121.811964 
L 444.09 -121.811964 
L 444.09 -121.811964 
L 444.09 -121.811964 
L 444.09 -121.811964 
L 444.09 -121.811964 
L 481.29 -121.811964 
L 481.29 -121.811964 
L 481.29 -121.811964 
L 481.29 -121.811964 
L 481.29 -121.811964 
L 481.29 -121.811964 
L 481.29 -121.811964 
L 481.29 -121.811964 
L 481.29 -121.811964 
L 481.29 -121.811964 
L 481.29 -121.811964 
L 481.29 -121.811964 
L 481.29 -121.811964 
L 481.29 -121.811964 
L 481.29 -121.811964 
L 481.29 -121.811964 
L 481.29 -121.811964 
L 481.29 -121.811964 
L 481.29 -121.811964 
L 481.29 -121.811964 
L 481.29 -121.811964 
L 481.29 -121.811964 
L 481.29 -121.811964 
L 481.29 -121.811964 
L 481.29 -121.811964 
L 481.29 -121.811964 
L 481.29 -121.811964 
L 481.29 -121.811964 
L 481.29 -121.811964 
L 481.29 -121.811964 
L 481.29 -121.811964 
L 481.29 -121.811964 
L 481.29 -121.811964 
L 481.29 -121.811964 
L 481.29 -121.811964 
L 481.29 -121.811964 
L 481.29 -121.811964 
L 481.29 -121.811964 
L 481.29 -121.811964 
L 481.29 -121.811964 
L 481.29 -121.811964 
L 481.29 -121.811964 
L 481.29 -121.811964 
L 481.29 -121.811964 
L 481.29 -121.811964 
L 481.29 -121.811964 
L 481.29 -121.811964 
L 481.29 -121.811964 
L 481.29 -121.811964 
L 481.29 -121.811964 
L 481.29 -121.811964 
L 481.29 -121.811964 
L 481.29 -121.811964 
L 481.29 -121.811964 
L 481.29 -121.811964 
L 481.29 -121.811964 
L 481.29 -121.811964 
L 481.29 -121.811964 
L 481.29 -121.811964 
L 481.29 -121.811964 
L 481.29 -121.811964 
L 481.29 -121.811964 
L 481.29 -121.811964 
L 481.29 -121.811964 
L 481.29 -121.811964 
L 481.29 -121.811964 
L 481.29 -121.811964 
L 481.29 -121.811964 
L 481.29 -121.811964 
L 481.29 -121.811964 
L 481.29 -121.811964 
L 481.29 -121.811964 
L 481.29 -121.811964 
L 481.29 -121.811964 
L 481.29 -121.811964 
L 481.29 -121.811964 
L 481.29 -121.811964 
L 481.29 -121.811964 
L 481.29 -121.811964 
L 481.29 -121.811964 
L 481.29 -121.811964 
L 481.29 -121.811964 
L 481.29 -121.811964 
L 481.29 -121.811964 
L 481.29 -121.811964 
L 481.29 -121.811964 
L 481.29 -121.811964 
L 481.29 -121.811964 
L 481.29 -121.811964 
L 481.29 -121.811964 
L 481.29 -121.811964 
L 481.29 -121.811964 
L 481.29 -121.811964 
L 481.29 -121.811964 
L 481.29 -121.811964 
L 481.29 -121.811964 
L 481.29 -121.811964 
L 481.29 -121.811964 
L 481.29 -121.811964 
L 481.29 -121.811964 
L 481.29 -121.811964 
z
" id="m2c96823a07" style="stroke:#000000;stroke-opacity:0.3;"/>
    </defs>
    <g clip-path="url(#pd3fba0a4c6)">
     <use style="fill:#bfbf00;fill-opacity:0.3;stroke:#000000;stroke-opacity:0.3;" x="0.0" xlink:href="#m2c96823a07" y="465.868"/>
    </g>
   </g>
   <g id="PolyCollection_7">
    <defs>
     <path d="M 555.69 -121.811964 
L 518.49 -121.811964 
L 518.49 -121.811964 
L 518.49 -121.811964 
L 518.49 -121.811964 
L 518.49 -121.811964 
L 518.49 -121.811964 
L 518.49 -121.811964 
L 518.49 -121.811964 
L 518.49 -121.811964 
L 518.49 -121.811964 
L 518.49 -121.811964 
L 518.49 -121.811964 
L 518.49 -121.811964 
L 518.49 -121.811964 
L 518.49 -121.811964 
L 518.49 -121.811964 
L 518.49 -121.811964 
L 518.49 -121.811964 
L 518.49 -121.811964 
L 518.49 -121.811964 
L 518.49 -121.811964 
L 518.49 -121.811964 
L 518.49 -121.811964 
L 518.49 -121.811964 
L 518.49 -121.811964 
L 518.49 -121.811964 
L 518.49 -121.811964 
L 518.49 -121.811964 
L 518.49 -121.811964 
L 518.49 -121.811964 
L 518.49 -121.811964 
L 518.49 -121.811964 
L 518.49 -121.811964 
L 518.49 -121.811964 
L 518.49 -121.811964 
L 518.49 -121.811964 
L 518.49 -121.811964 
L 518.49 -121.811964 
L 518.49 -121.811964 
L 518.49 -121.811964 
L 518.49 -121.811964 
L 518.49 -121.811964 
L 518.49 -121.811964 
L 518.49 -121.811964 
L 518.49 -121.811964 
L 518.49 -121.811964 
L 518.49 -121.811964 
L 518.49 -121.811964 
L 518.49 -121.811964 
L 518.49 -121.811964 
L 518.49 -121.811964 
L 518.49 -121.811964 
L 518.49 -121.811964 
L 518.49 -121.811964 
L 518.49 -121.811964 
L 518.49 -121.811964 
L 518.49 -121.811964 
L 518.49 -121.811964 
L 518.49 -121.811964 
L 518.49 -121.811964 
L 518.49 -121.811964 
L 518.49 -121.811964 
L 518.49 -121.811964 
L 518.49 -121.811964 
L 518.49 -121.811964 
L 518.49 -121.811964 
L 518.49 -121.811964 
L 518.49 -121.811964 
L 518.49 -121.811964 
L 518.49 -121.811964 
L 518.49 -121.811964 
L 518.49 -121.811964 
L 518.49 -121.811964 
L 518.49 -121.811964 
L 518.49 -121.811964 
L 518.49 -121.811964 
L 518.49 -121.811964 
L 518.49 -121.811964 
L 518.49 -121.811964 
L 518.49 -121.811964 
L 518.49 -121.811964 
L 518.49 -121.811964 
L 518.49 -121.811964 
L 518.49 -121.811964 
L 518.49 -121.811964 
L 518.49 -121.811964 
L 518.49 -121.811964 
L 518.49 -121.811964 
L 518.49 -121.811964 
L 518.49 -121.811964 
L 518.49 -121.811964 
L 518.49 -121.811964 
L 518.49 -121.811964 
L 518.49 -121.811964 
L 518.49 -121.811964 
L 518.49 -121.811964 
L 518.49 -121.811964 
L 518.49 -121.811964 
L 518.49 -121.811964 
L 518.49 -121.811964 
L 555.69 -121.811964 
L 555.69 -121.811964 
L 555.69 -121.811964 
L 555.69 -121.811964 
L 555.69 -121.811964 
L 555.69 -121.811964 
L 555.69 -121.811964 
L 555.69 -121.811964 
L 555.69 -121.811964 
L 555.69 -121.811964 
L 555.69 -121.811964 
L 555.69 -121.811964 
L 555.69 -121.811964 
L 555.69 -121.811964 
L 555.69 -121.811964 
L 555.69 -121.811964 
L 555.69 -121.811964 
L 555.69 -121.811964 
L 555.69 -121.811964 
L 555.69 -121.811964 
L 555.69 -121.811964 
L 555.69 -121.811964 
L 555.69 -121.811964 
L 555.69 -121.811964 
L 555.69 -121.811964 
L 555.69 -121.811964 
L 555.69 -121.811964 
L 555.69 -121.811964 
L 555.69 -121.811964 
L 555.69 -121.811964 
L 555.69 -121.811964 
L 555.69 -121.811964 
L 555.69 -121.811964 
L 555.69 -121.811964 
L 555.69 -121.811964 
L 555.69 -121.811964 
L 555.69 -121.811964 
L 555.69 -121.811964 
L 555.69 -121.811964 
L 555.69 -121.811964 
L 555.69 -121.811964 
L 555.69 -121.811964 
L 555.69 -121.811964 
L 555.69 -121.811964 
L 555.69 -121.811964 
L 555.69 -121.811964 
L 555.69 -121.811964 
L 555.69 -121.811964 
L 555.69 -121.811964 
L 555.69 -121.811964 
L 555.69 -121.811964 
L 555.69 -121.811964 
L 555.69 -121.811964 
L 555.69 -121.811964 
L 555.69 -121.811964 
L 555.69 -121.811964 
L 555.69 -121.811964 
L 555.69 -121.811964 
L 555.69 -121.811964 
L 555.69 -121.811964 
L 555.69 -121.811964 
L 555.69 -121.811964 
L 555.69 -121.811964 
L 555.69 -121.811964 
L 555.69 -121.811964 
L 555.69 -121.811964 
L 555.69 -121.811964 
L 555.69 -121.811964 
L 555.69 -121.811964 
L 555.69 -121.811964 
L 555.69 -121.811964 
L 555.69 -121.811964 
L 555.69 -121.811964 
L 555.69 -121.811964 
L 555.69 -121.811964 
L 555.69 -121.811964 
L 555.69 -121.811964 
L 555.69 -121.811964 
L 555.69 -121.811964 
L 555.69 -121.811964 
L 555.69 -121.811964 
L 555.69 -121.811964 
L 555.69 -121.811964 
L 555.69 -121.811964 
L 555.69 -121.811964 
L 555.69 -121.811964 
L 555.69 -121.811964 
L 555.69 -121.811964 
L 555.69 -121.811964 
L 555.69 -121.811964 
L 555.69 -121.811964 
L 555.69 -121.811964 
L 555.69 -121.811964 
L 555.69 -121.811964 
L 555.69 -121.811964 
L 555.69 -121.811964 
L 555.69 -121.811964 
L 555.69 -121.811964 
L 555.69 -121.811964 
L 555.69 -121.811964 
L 555.69 -121.811964 
z
" id="mf7b5a0ce34" style="stroke:#000000;stroke-opacity:0.3;"/>
    </defs>
    <g clip-path="url(#pd3fba0a4c6)">
     <use style="fill:#bfbf00;fill-opacity:0.3;stroke:#000000;stroke-opacity:0.3;" x="0.0" xlink:href="#mf7b5a0ce34" y="465.868"/>
    </g>
   </g>
   <g id="PolyCollection_8">
    <defs>
     <path d="M 630.09 -121.811964 
L 592.89 -121.811964 
L 592.89 -121.811964 
L 592.89 -121.811964 
L 592.89 -121.811964 
L 592.89 -121.811964 
L 592.89 -121.811964 
L 592.89 -121.811964 
L 592.89 -121.811964 
L 592.89 -121.811964 
L 592.89 -121.811964 
L 592.89 -121.811964 
L 592.89 -121.811964 
L 592.89 -121.811964 
L 592.89 -121.811964 
L 592.89 -121.811964 
L 592.89 -121.811964 
L 592.89 -121.811964 
L 592.89 -121.811964 
L 592.89 -121.811964 
L 592.89 -121.811964 
L 592.89 -121.811964 
L 592.89 -121.811964 
L 592.89 -121.811964 
L 592.89 -121.811964 
L 592.89 -121.811964 
L 592.89 -121.811964 
L 592.89 -121.811964 
L 592.89 -121.811964 
L 592.89 -121.811964 
L 592.89 -121.811964 
L 592.89 -121.811964 
L 592.89 -121.811964 
L 592.89 -121.811964 
L 592.89 -121.811964 
L 592.89 -121.811964 
L 592.89 -121.811964 
L 592.89 -121.811964 
L 592.89 -121.811964 
L 592.89 -121.811964 
L 592.89 -121.811964 
L 592.89 -121.811964 
L 592.89 -121.811964 
L 592.89 -121.811964 
L 592.89 -121.811964 
L 592.89 -121.811964 
L 592.89 -121.811964 
L 592.89 -121.811964 
L 592.89 -121.811964 
L 592.89 -121.811964 
L 592.89 -121.811964 
L 592.89 -121.811964 
L 592.89 -121.811964 
L 592.89 -121.811964 
L 592.89 -121.811964 
L 592.89 -121.811964 
L 592.89 -121.811964 
L 592.89 -121.811964 
L 592.89 -121.811964 
L 592.89 -121.811964 
L 592.89 -121.811964 
L 592.89 -121.811964 
L 592.89 -121.811964 
L 592.89 -121.811964 
L 592.89 -121.811964 
L 592.89 -121.811964 
L 592.89 -121.811964 
L 592.89 -121.811964 
L 592.89 -121.811964 
L 592.89 -121.811964 
L 592.89 -121.811964 
L 592.89 -121.811964 
L 592.89 -121.811964 
L 592.89 -121.811964 
L 592.89 -121.811964 
L 592.89 -121.811964 
L 592.89 -121.811964 
L 592.89 -121.811964 
L 592.89 -121.811964 
L 592.89 -121.811964 
L 592.89 -121.811964 
L 592.89 -121.811964 
L 592.89 -121.811964 
L 592.89 -121.811964 
L 592.89 -121.811964 
L 592.89 -121.811964 
L 592.89 -121.811964 
L 592.89 -121.811964 
L 592.89 -121.811964 
L 592.89 -121.811964 
L 592.89 -121.811964 
L 592.89 -121.811964 
L 592.89 -121.811964 
L 592.89 -121.811964 
L 592.89 -121.811964 
L 592.89 -121.811964 
L 592.89 -121.811964 
L 592.89 -121.811964 
L 592.89 -121.811964 
L 592.89 -121.811964 
L 592.89 -121.811964 
L 630.09 -121.811964 
L 630.09 -121.811964 
L 630.09 -121.811964 
L 630.09 -121.811964 
L 630.09 -121.811964 
L 630.09 -121.811964 
L 630.09 -121.811964 
L 630.09 -121.811964 
L 630.09 -121.811964 
L 630.09 -121.811964 
L 630.09 -121.811964 
L 630.09 -121.811964 
L 630.09 -121.811964 
L 630.09 -121.811964 
L 630.09 -121.811964 
L 630.09 -121.811964 
L 630.09 -121.811964 
L 630.09 -121.811964 
L 630.09 -121.811964 
L 630.09 -121.811964 
L 630.09 -121.811964 
L 630.09 -121.811964 
L 630.09 -121.811964 
L 630.09 -121.811964 
L 630.09 -121.811964 
L 630.09 -121.811964 
L 630.09 -121.811964 
L 630.09 -121.811964 
L 630.09 -121.811964 
L 630.09 -121.811964 
L 630.09 -121.811964 
L 630.09 -121.811964 
L 630.09 -121.811964 
L 630.09 -121.811964 
L 630.09 -121.811964 
L 630.09 -121.811964 
L 630.09 -121.811964 
L 630.09 -121.811964 
L 630.09 -121.811964 
L 630.09 -121.811964 
L 630.09 -121.811964 
L 630.09 -121.811964 
L 630.09 -121.811964 
L 630.09 -121.811964 
L 630.09 -121.811964 
L 630.09 -121.811964 
L 630.09 -121.811964 
L 630.09 -121.811964 
L 630.09 -121.811964 
L 630.09 -121.811964 
L 630.09 -121.811964 
L 630.09 -121.811964 
L 630.09 -121.811964 
L 630.09 -121.811964 
L 630.09 -121.811964 
L 630.09 -121.811964 
L 630.09 -121.811964 
L 630.09 -121.811964 
L 630.09 -121.811964 
L 630.09 -121.811964 
L 630.09 -121.811964 
L 630.09 -121.811964 
L 630.09 -121.811964 
L 630.09 -121.811964 
L 630.09 -121.811964 
L 630.09 -121.811964 
L 630.09 -121.811964 
L 630.09 -121.811964 
L 630.09 -121.811964 
L 630.09 -121.811964 
L 630.09 -121.811964 
L 630.09 -121.811964 
L 630.09 -121.811964 
L 630.09 -121.811964 
L 630.09 -121.811964 
L 630.09 -121.811964 
L 630.09 -121.811964 
L 630.09 -121.811964 
L 630.09 -121.811964 
L 630.09 -121.811964 
L 630.09 -121.811964 
L 630.09 -121.811964 
L 630.09 -121.811964 
L 630.09 -121.811964 
L 630.09 -121.811964 
L 630.09 -121.811964 
L 630.09 -121.811964 
L 630.09 -121.811964 
L 630.09 -121.811964 
L 630.09 -121.811964 
L 630.09 -121.811964 
L 630.09 -121.811964 
L 630.09 -121.811964 
L 630.09 -121.811964 
L 630.09 -121.811964 
L 630.09 -121.811964 
L 630.09 -121.811964 
L 630.09 -121.811964 
L 630.09 -121.811964 
L 630.09 -121.811964 
L 630.09 -121.811964 
z
" id="mca80a2f3e4" style="stroke:#000000;stroke-opacity:0.3;"/>
    </defs>
    <g clip-path="url(#pd3fba0a4c6)">
     <use style="fill:#bfbf00;fill-opacity:0.3;stroke:#000000;stroke-opacity:0.3;" x="0.0" xlink:href="#mca80a2f3e4" y="465.868"/>
    </g>
   </g>
   <g id="LineCollection_1">
    <path clip-path="url(#pd3fba0a4c6)" d="M 81.39 47.827464 
L 99.99 47.827464 
" style="fill:none;stroke:#ff0000;"/>
    <path clip-path="url(#pd3fba0a4c6)" d="M 155.79 97.198893 
L 174.39 97.198893 
" style="fill:none;stroke:#ff0000;"/>
    <path clip-path="url(#pd3fba0a4c6)" d="M 230.19 195.94175 
L 248.79 195.94175 
" style="fill:none;stroke:#ff0000;"/>
    <path clip-path="url(#pd3fba0a4c6)" d="M 304.59 245.313179 
L 323.19 245.313179 
" style="fill:none;stroke:#ff0000;"/>
    <path clip-path="url(#pd3fba0a4c6)" d="M 378.99 294.684607 
L 397.59 294.684607 
" style="fill:none;stroke:#ff0000;"/>
    <path clip-path="url(#pd3fba0a4c6)" d="M 453.39 344.056036 
L 471.99 344.056036 
" style="fill:none;stroke:#ff0000;"/>
    <path clip-path="url(#pd3fba0a4c6)" d="M 527.79 344.056036 
L 546.39 344.056036 
" style="fill:none;stroke:#ff0000;"/>
    <path clip-path="url(#pd3fba0a4c6)" d="M 602.19 344.056036 
L 620.79 344.056036 
" style="fill:none;stroke:#ff0000;"/>
   </g>
   <g id="patch_3">
    <path d="M 16.29 23.14175 
L 685.89 23.14175 
" style="fill:none;stroke:#000000;stroke-linecap:square;stroke-linejoin:miter;"/>
   </g>
   <g id="patch_4">
    <path d="M 16.29 368.74175 
L 16.29 23.14175 
" style="fill:none;stroke:#000000;stroke-linecap:square;stroke-linejoin:miter;"/>
   </g>
   <g id="patch_5">
    <path d="M 685.89 368.74175 
L 685.89 23.14175 
" style="fill:none;stroke:#000000;stroke-linecap:square;stroke-linejoin:miter;"/>
   </g>
   <g id="patch_6">
    <path d="M 16.29 368.74175 
L 685.89 368.74175 
" style="fill:none;stroke:#000000;stroke-linecap:square;stroke-linejoin:miter;"/>
   </g>
   <g id="matplotlib.axis_1">
    <g id="xtick_1">
     <g id="line2d_1">
      <defs>
       <path d="M 0 0 
L 0 -4 
" id="m8da3c5e989" style="stroke:#000000;stroke-width:0.5;"/>
      </defs>
      <g>
       <use style="stroke:#000000;stroke-width:0.5;" x="90.69" xlink:href="#m8da3c5e989" y="368.74175"/>
      </g>
     </g>
     <g id="line2d_2">
      <defs>
       <path d="M 0 0 
L 0 4 
" id="m686d4d319e" style="stroke:#000000;stroke-width:0.5;"/>
      </defs>
      <g>
       <use style="stroke:#000000;stroke-width:0.5;" x="90.69" xlink:href="#m686d4d319e" y="23.14175"/>
      </g>
     </g>
     <g id="text_1">
      <!-- Defector -->
      <defs>
       <path d="M 56.203125 29.59375 
L 56.203125 25.203125 
L 14.890625 25.203125 
Q 15.484375 15.921875 20.484375 11.0625 
Q 25.484375 6.203125 34.421875 6.203125 
Q 39.59375 6.203125 44.453125 7.46875 
Q 49.3125 8.734375 54.109375 11.28125 
L 54.109375 2.78125 
Q 49.265625 0.734375 44.1875 -0.34375 
Q 39.109375 -1.421875 33.890625 -1.421875 
Q 20.796875 -1.421875 13.15625 6.1875 
Q 5.515625 13.8125 5.515625 26.8125 
Q 5.515625 40.234375 12.765625 48.109375 
Q 20.015625 56 32.328125 56 
Q 43.359375 56 49.78125 48.890625 
Q 56.203125 41.796875 56.203125 29.59375 
M 47.21875 32.234375 
Q 47.125 39.59375 43.09375 43.984375 
Q 39.0625 48.390625 32.421875 48.390625 
Q 24.90625 48.390625 20.390625 44.140625 
Q 15.875 39.890625 15.1875 32.171875 
z
" id="BitstreamVeraSans-Roman-65"/>
       <path d="M 37.109375 75.984375 
L 37.109375 68.5 
L 28.515625 68.5 
Q 23.6875 68.5 21.796875 66.546875 
Q 19.921875 64.59375 19.921875 59.515625 
L 19.921875 54.6875 
L 34.71875 54.6875 
L 34.71875 47.703125 
L 19.921875 47.703125 
L 19.921875 0 
L 10.890625 0 
L 10.890625 47.703125 
L 2.296875 47.703125 
L 2.296875 54.6875 
L 10.890625 54.6875 
L 10.890625 58.5 
Q 10.890625 67.625 15.140625 71.796875 
Q 19.390625 75.984375 28.609375 75.984375 
z
" id="BitstreamVeraSans-Roman-66"/>
       <path d="M 30.609375 48.390625 
Q 23.390625 48.390625 19.1875 42.75 
Q 14.984375 37.109375 14.984375 27.296875 
Q 14.984375 17.484375 19.15625 11.84375 
Q 23.34375 6.203125 30.609375 6.203125 
Q 37.796875 6.203125 41.984375 11.859375 
Q 46.1875 17.53125 46.1875 27.296875 
Q 46.1875 37.015625 41.984375 42.703125 
Q 37.796875 48.390625 30.609375 48.390625 
M 30.609375 56 
Q 42.328125 56 49.015625 48.375 
Q 55.71875 40.765625 55.71875 27.296875 
Q 55.71875 13.875 49.015625 6.21875 
Q 42.328125 -1.421875 30.609375 -1.421875 
Q 18.84375 -1.421875 12.171875 6.21875 
Q 5.515625 13.875 5.515625 27.296875 
Q 5.515625 40.765625 12.171875 48.375 
Q 18.84375 56 30.609375 56 
" id="BitstreamVeraSans-Roman-6f"/>
       <path d="M 18.3125 70.21875 
L 18.3125 54.6875 
L 36.8125 54.6875 
L 36.8125 47.703125 
L 18.3125 47.703125 
L 18.3125 18.015625 
Q 18.3125 11.328125 20.140625 9.421875 
Q 21.96875 7.515625 27.59375 7.515625 
L 36.8125 7.515625 
L 36.8125 0 
L 27.59375 0 
Q 17.1875 0 13.234375 3.875 
Q 9.28125 7.765625 9.28125 18.015625 
L 9.28125 47.703125 
L 2.6875 47.703125 
L 2.6875 54.6875 
L 9.28125 54.6875 
L 9.28125 70.21875 
z
" id="BitstreamVeraSans-Roman-74"/>
       <path d="M 19.671875 64.796875 
L 19.671875 8.109375 
L 31.59375 8.109375 
Q 46.6875 8.109375 53.6875 14.9375 
Q 60.6875 21.78125 60.6875 36.53125 
Q 60.6875 51.171875 53.6875 57.984375 
Q 46.6875 64.796875 31.59375 64.796875 
z
M 9.8125 72.90625 
L 30.078125 72.90625 
Q 51.265625 72.90625 61.171875 64.09375 
Q 71.09375 55.28125 71.09375 36.53125 
Q 71.09375 17.671875 61.125 8.828125 
Q 51.171875 0 30.078125 0 
L 9.8125 0 
z
" id="BitstreamVeraSans-Roman-44"/>
       <path d="M 41.109375 46.296875 
Q 39.59375 47.171875 37.8125 47.578125 
Q 36.03125 48 33.890625 48 
Q 26.265625 48 22.1875 43.046875 
Q 18.109375 38.09375 18.109375 28.8125 
L 18.109375 0 
L 9.078125 0 
L 9.078125 54.6875 
L 18.109375 54.6875 
L 18.109375 46.1875 
Q 20.953125 51.171875 25.484375 53.578125 
Q 30.03125 56 36.53125 56 
Q 37.453125 56 38.578125 55.875 
Q 39.703125 55.765625 41.0625 55.515625 
z
" id="BitstreamVeraSans-Roman-72"/>
       <path d="M 48.78125 52.59375 
L 48.78125 44.1875 
Q 44.96875 46.296875 41.140625 47.34375 
Q 37.3125 48.390625 33.40625 48.390625 
Q 24.65625 48.390625 19.8125 42.84375 
Q 14.984375 37.3125 14.984375 27.296875 
Q 14.984375 17.28125 19.8125 11.734375 
Q 24.65625 6.203125 33.40625 6.203125 
Q 37.3125 6.203125 41.140625 7.25 
Q 44.96875 8.296875 48.78125 10.40625 
L 48.78125 2.09375 
Q 45.015625 0.34375 40.984375 -0.53125 
Q 36.96875 -1.421875 32.421875 -1.421875 
Q 20.0625 -1.421875 12.78125 6.34375 
Q 5.515625 14.109375 5.515625 27.296875 
Q 5.515625 40.671875 12.859375 48.328125 
Q 20.21875 56 33.015625 56 
Q 37.15625 56 41.109375 55.140625 
Q 45.0625 54.296875 48.78125 52.59375 
" id="BitstreamVeraSans-Roman-63"/>
      </defs>
      <g transform="translate(92.8975 407.28175)rotate(-90.0)scale(0.08 -0.08)">
       <use xlink:href="#BitstreamVeraSans-Roman-44"/>
       <use x="77.001953125" xlink:href="#BitstreamVeraSans-Roman-65"/>
       <use x="138.525390625" xlink:href="#BitstreamVeraSans-Roman-66"/>
       <use x="173.73046875" xlink:href="#BitstreamVeraSans-Roman-65"/>
       <use x="235.25390625" xlink:href="#BitstreamVeraSans-Roman-63"/>
       <use x="290.234375" xlink:href="#BitstreamVeraSans-Roman-74"/>
       <use x="329.443359375" xlink:href="#BitstreamVeraSans-Roman-6f"/>
       <use x="390.625" xlink:href="#BitstreamVeraSans-Roman-72"/>
      </g>
     </g>
    </g>
    <g id="xtick_2">
     <g id="line2d_3">
      <g>
       <use style="stroke:#000000;stroke-width:0.5;" x="165.09" xlink:href="#m8da3c5e989" y="368.74175"/>
      </g>
     </g>
     <g id="line2d_4">
      <g>
       <use style="stroke:#000000;stroke-width:0.5;" x="165.09" xlink:href="#m686d4d319e" y="23.14175"/>
      </g>
     </g>
     <g id="text_2">
      <!-- Bully -->
      <defs>
       <path d="M 8.5 21.578125 
L 8.5 54.6875 
L 17.484375 54.6875 
L 17.484375 21.921875 
Q 17.484375 14.15625 20.5 10.265625 
Q 23.53125 6.390625 29.59375 6.390625 
Q 36.859375 6.390625 41.078125 11.03125 
Q 45.3125 15.671875 45.3125 23.6875 
L 45.3125 54.6875 
L 54.296875 54.6875 
L 54.296875 0 
L 45.3125 0 
L 45.3125 8.40625 
Q 42.046875 3.421875 37.71875 1 
Q 33.40625 -1.421875 27.6875 -1.421875 
Q 18.265625 -1.421875 13.375 4.4375 
Q 8.5 10.296875 8.5 21.578125 
" id="BitstreamVeraSans-Roman-75"/>
       <path d="M 9.421875 75.984375 
L 18.40625 75.984375 
L 18.40625 0 
L 9.421875 0 
z
" id="BitstreamVeraSans-Roman-6c"/>
       <path d="M 32.171875 -5.078125 
Q 28.375 -14.84375 24.75 -17.8125 
Q 21.140625 -20.796875 15.09375 -20.796875 
L 7.90625 -20.796875 
L 7.90625 -13.28125 
L 13.1875 -13.28125 
Q 16.890625 -13.28125 18.9375 -11.515625 
Q 21 -9.765625 23.484375 -3.21875 
L 25.09375 0.875 
L 2.984375 54.6875 
L 12.5 54.6875 
L 29.59375 11.921875 
L 46.6875 54.6875 
L 56.203125 54.6875 
z
" id="BitstreamVeraSans-Roman-79"/>
       <path d="M 19.671875 34.8125 
L 19.671875 8.109375 
L 35.5 8.109375 
Q 43.453125 8.109375 47.28125 11.40625 
Q 51.125 14.703125 51.125 21.484375 
Q 51.125 28.328125 47.28125 31.5625 
Q 43.453125 34.8125 35.5 34.8125 
z
M 19.671875 64.796875 
L 19.671875 42.828125 
L 34.28125 42.828125 
Q 41.5 42.828125 45.03125 45.53125 
Q 48.578125 48.25 48.578125 53.8125 
Q 48.578125 59.328125 45.03125 62.0625 
Q 41.5 64.796875 34.28125 64.796875 
z
M 9.8125 72.90625 
L 35.015625 72.90625 
Q 46.296875 72.90625 52.390625 68.21875 
Q 58.5 63.53125 58.5 54.890625 
Q 58.5 48.1875 55.375 44.234375 
Q 52.25 40.28125 46.1875 39.3125 
Q 53.46875 37.75 57.5 32.78125 
Q 61.53125 27.828125 61.53125 20.40625 
Q 61.53125 10.640625 54.890625 5.3125 
Q 48.25 0 35.984375 0 
L 9.8125 0 
z
" id="BitstreamVeraSans-Roman-42"/>
      </defs>
      <g transform="translate(167.2975 392.4805)rotate(-90.0)scale(0.08 -0.08)">
       <use xlink:href="#BitstreamVeraSans-Roman-42"/>
       <use x="68.603515625" xlink:href="#BitstreamVeraSans-Roman-75"/>
       <use x="131.982421875" xlink:href="#BitstreamVeraSans-Roman-6c"/>
       <use x="159.765625" xlink:href="#BitstreamVeraSans-Roman-6c"/>
       <use x="187.548828125" xlink:href="#BitstreamVeraSans-Roman-79"/>
      </g>
     </g>
    </g>
    <g id="xtick_3">
     <g id="line2d_5">
      <g>
       <use style="stroke:#000000;stroke-width:0.5;" x="239.49" xlink:href="#m8da3c5e989" y="368.74175"/>
      </g>
     </g>
     <g id="line2d_6">
      <g>
       <use style="stroke:#000000;stroke-width:0.5;" x="239.49" xlink:href="#m686d4d319e" y="23.14175"/>
      </g>
     </g>
     <g id="text_3">
      <!-- Suspicious Tit For Tat -->
      <defs>
       <path d="M 44.28125 53.078125 
L 44.28125 44.578125 
Q 40.484375 46.53125 36.375 47.5 
Q 32.28125 48.484375 27.875 48.484375 
Q 21.1875 48.484375 17.84375 46.4375 
Q 14.5 44.390625 14.5 40.28125 
Q 14.5 37.15625 16.890625 35.375 
Q 19.28125 33.59375 26.515625 31.984375 
L 29.59375 31.296875 
Q 39.15625 29.25 43.1875 25.515625 
Q 47.21875 21.78125 47.21875 15.09375 
Q 47.21875 7.46875 41.1875 3.015625 
Q 35.15625 -1.421875 24.609375 -1.421875 
Q 20.21875 -1.421875 15.453125 -0.5625 
Q 10.6875 0.296875 5.421875 2 
L 5.421875 11.28125 
Q 10.40625 8.6875 15.234375 7.390625 
Q 20.0625 6.109375 24.8125 6.109375 
Q 31.15625 6.109375 34.5625 8.28125 
Q 37.984375 10.453125 37.984375 14.40625 
Q 37.984375 18.0625 35.515625 20.015625 
Q 33.0625 21.96875 24.703125 23.78125 
L 21.578125 24.515625 
Q 13.234375 26.265625 9.515625 29.90625 
Q 5.8125 33.546875 5.8125 39.890625 
Q 5.8125 47.609375 11.28125 51.796875 
Q 16.75 56 26.8125 56 
Q 31.78125 56 36.171875 55.265625 
Q 40.578125 54.546875 44.28125 53.078125 
" id="BitstreamVeraSans-Roman-73"/>
       <path d="M 18.109375 8.203125 
L 18.109375 -20.796875 
L 9.078125 -20.796875 
L 9.078125 54.6875 
L 18.109375 54.6875 
L 18.109375 46.390625 
Q 20.953125 51.265625 25.265625 53.625 
Q 29.59375 56 35.59375 56 
Q 45.5625 56 51.78125 48.09375 
Q 58.015625 40.1875 58.015625 27.296875 
Q 58.015625 14.40625 51.78125 6.484375 
Q 45.5625 -1.421875 35.59375 -1.421875 
Q 29.59375 -1.421875 25.265625 0.953125 
Q 20.953125 3.328125 18.109375 8.203125 
M 48.6875 27.296875 
Q 48.6875 37.203125 44.609375 42.84375 
Q 40.53125 48.484375 33.40625 48.484375 
Q 26.265625 48.484375 22.1875 42.84375 
Q 18.109375 37.203125 18.109375 27.296875 
Q 18.109375 17.390625 22.1875 11.75 
Q 26.265625 6.109375 33.40625 6.109375 
Q 40.53125 6.109375 44.609375 11.75 
Q 48.6875 17.390625 48.6875 27.296875 
" id="BitstreamVeraSans-Roman-70"/>
       <path id="BitstreamVeraSans-Roman-20"/>
       <path d="M 53.515625 70.515625 
L 53.515625 60.890625 
Q 47.90625 63.578125 42.921875 64.890625 
Q 37.9375 66.21875 33.296875 66.21875 
Q 25.25 66.21875 20.875 63.09375 
Q 16.5 59.96875 16.5 54.203125 
Q 16.5 49.359375 19.40625 46.890625 
Q 22.3125 44.4375 30.421875 42.921875 
L 36.375 41.703125 
Q 47.40625 39.59375 52.65625 34.296875 
Q 57.90625 29 57.90625 20.125 
Q 57.90625 9.515625 50.796875 4.046875 
Q 43.703125 -1.421875 29.984375 -1.421875 
Q 24.8125 -1.421875 18.96875 -0.25 
Q 13.140625 0.921875 6.890625 3.21875 
L 6.890625 13.375 
Q 12.890625 10.015625 18.65625 8.296875 
Q 24.421875 6.59375 29.984375 6.59375 
Q 38.421875 6.59375 43.015625 9.90625 
Q 47.609375 13.234375 47.609375 19.390625 
Q 47.609375 24.75 44.3125 27.78125 
Q 41.015625 30.8125 33.5 32.328125 
L 27.484375 33.5 
Q 16.453125 35.6875 11.515625 40.375 
Q 6.59375 45.0625 6.59375 53.421875 
Q 6.59375 63.09375 13.40625 68.65625 
Q 20.21875 74.21875 32.171875 74.21875 
Q 37.3125 74.21875 42.625 73.28125 
Q 47.953125 72.359375 53.515625 70.515625 
" id="BitstreamVeraSans-Roman-53"/>
       <path d="M -0.296875 72.90625 
L 61.375 72.90625 
L 61.375 64.59375 
L 35.5 64.59375 
L 35.5 0 
L 25.59375 0 
L 25.59375 64.59375 
L -0.296875 64.59375 
z
" id="BitstreamVeraSans-Roman-54"/>
       <path d="M 9.8125 72.90625 
L 51.703125 72.90625 
L 51.703125 64.59375 
L 19.671875 64.59375 
L 19.671875 43.109375 
L 48.578125 43.109375 
L 48.578125 34.8125 
L 19.671875 34.8125 
L 19.671875 0 
L 9.8125 0 
z
" id="BitstreamVeraSans-Roman-46"/>
       <path d="M 34.28125 27.484375 
Q 23.390625 27.484375 19.1875 25 
Q 14.984375 22.515625 14.984375 16.5 
Q 14.984375 11.71875 18.140625 8.90625 
Q 21.296875 6.109375 26.703125 6.109375 
Q 34.1875 6.109375 38.703125 11.40625 
Q 43.21875 16.703125 43.21875 25.484375 
L 43.21875 27.484375 
z
M 52.203125 31.203125 
L 52.203125 0 
L 43.21875 0 
L 43.21875 8.296875 
Q 40.140625 3.328125 35.546875 0.953125 
Q 30.953125 -1.421875 24.3125 -1.421875 
Q 15.921875 -1.421875 10.953125 3.296875 
Q 6 8.015625 6 15.921875 
Q 6 25.140625 12.171875 29.828125 
Q 18.359375 34.515625 30.609375 34.515625 
L 43.21875 34.515625 
L 43.21875 35.40625 
Q 43.21875 41.609375 39.140625 45 
Q 35.0625 48.390625 27.6875 48.390625 
Q 23 48.390625 18.546875 47.265625 
Q 14.109375 46.140625 10.015625 43.890625 
L 10.015625 52.203125 
Q 14.9375 54.109375 19.578125 55.046875 
Q 24.21875 56 28.609375 56 
Q 40.484375 56 46.34375 49.84375 
Q 52.203125 43.703125 52.203125 31.203125 
" id="BitstreamVeraSans-Roman-61"/>
       <path d="M 9.421875 54.6875 
L 18.40625 54.6875 
L 18.40625 0 
L 9.421875 0 
z
M 9.421875 75.984375 
L 18.40625 75.984375 
L 18.40625 64.59375 
L 9.421875 64.59375 
z
" id="BitstreamVeraSans-Roman-69"/>
      </defs>
      <g transform="translate(241.6975 458.668)rotate(-90.0)scale(0.08 -0.08)">
       <use xlink:href="#BitstreamVeraSans-Roman-53"/>
       <use x="63.4765625" xlink:href="#BitstreamVeraSans-Roman-75"/>
       <use x="126.85546875" xlink:href="#BitstreamVeraSans-Roman-73"/>
       <use x="178.955078125" xlink:href="#BitstreamVeraSans-Roman-70"/>
       <use x="242.431640625" xlink:href="#BitstreamVeraSans-Roman-69"/>
       <use x="270.21484375" xlink:href="#BitstreamVeraSans-Roman-63"/>
       <use x="325.1953125" xlink:href="#BitstreamVeraSans-Roman-69"/>
       <use x="352.978515625" xlink:href="#BitstreamVeraSans-Roman-6f"/>
       <use x="414.16015625" xlink:href="#BitstreamVeraSans-Roman-75"/>
       <use x="477.5390625" xlink:href="#BitstreamVeraSans-Roman-73"/>
       <use x="529.638671875" xlink:href="#BitstreamVeraSans-Roman-20"/>
       <use x="561.42578125" xlink:href="#BitstreamVeraSans-Roman-54"/>
       <use x="622.462890625" xlink:href="#BitstreamVeraSans-Roman-69"/>
       <use x="650.24609375" xlink:href="#BitstreamVeraSans-Roman-74"/>
       <use x="689.455078125" xlink:href="#BitstreamVeraSans-Roman-20"/>
       <use x="721.2421875" xlink:href="#BitstreamVeraSans-Roman-46"/>
       <use x="778.71484375" xlink:href="#BitstreamVeraSans-Roman-6f"/>
       <use x="839.896484375" xlink:href="#BitstreamVeraSans-Roman-72"/>
       <use x="881.009765625" xlink:href="#BitstreamVeraSans-Roman-20"/>
       <use x="912.796875" xlink:href="#BitstreamVeraSans-Roman-54"/>
       <use x="973.630859375" xlink:href="#BitstreamVeraSans-Roman-61"/>
       <use x="1034.91015625" xlink:href="#BitstreamVeraSans-Roman-74"/>
      </g>
     </g>
    </g>
    <g id="xtick_4">
     <g id="line2d_7">
      <g>
       <use style="stroke:#000000;stroke-width:0.5;" x="313.89" xlink:href="#m8da3c5e989" y="368.74175"/>
      </g>
     </g>
     <g id="line2d_8">
      <g>
       <use style="stroke:#000000;stroke-width:0.5;" x="313.89" xlink:href="#m686d4d319e" y="23.14175"/>
      </g>
     </g>
     <g id="text_4">
      <!-- Anti Tit For Tat -->
      <defs>
       <path d="M 34.1875 63.1875 
L 20.796875 26.90625 
L 47.609375 26.90625 
z
M 28.609375 72.90625 
L 39.796875 72.90625 
L 67.578125 0 
L 57.328125 0 
L 50.6875 18.703125 
L 17.828125 18.703125 
L 11.1875 0 
L 0.78125 0 
z
" id="BitstreamVeraSans-Roman-41"/>
       <path d="M 54.890625 33.015625 
L 54.890625 0 
L 45.90625 0 
L 45.90625 32.71875 
Q 45.90625 40.484375 42.875 44.328125 
Q 39.84375 48.1875 33.796875 48.1875 
Q 26.515625 48.1875 22.3125 43.546875 
Q 18.109375 38.921875 18.109375 30.90625 
L 18.109375 0 
L 9.078125 0 
L 9.078125 54.6875 
L 18.109375 54.6875 
L 18.109375 46.1875 
Q 21.34375 51.125 25.703125 53.5625 
Q 30.078125 56 35.796875 56 
Q 45.21875 56 50.046875 50.171875 
Q 54.890625 44.34375 54.890625 33.015625 
" id="BitstreamVeraSans-Roman-6e"/>
      </defs>
      <g transform="translate(316.0975 432.198)rotate(-90.0)scale(0.08 -0.08)">
       <use xlink:href="#BitstreamVeraSans-Roman-41"/>
       <use x="68.408203125" xlink:href="#BitstreamVeraSans-Roman-6e"/>
       <use x="131.787109375" xlink:href="#BitstreamVeraSans-Roman-74"/>
       <use x="170.99609375" xlink:href="#BitstreamVeraSans-Roman-69"/>
       <use x="198.779296875" xlink:href="#BitstreamVeraSans-Roman-20"/>
       <use x="230.56640625" xlink:href="#BitstreamVeraSans-Roman-54"/>
       <use x="291.603515625" xlink:href="#BitstreamVeraSans-Roman-69"/>
       <use x="319.38671875" xlink:href="#BitstreamVeraSans-Roman-74"/>
       <use x="358.595703125" xlink:href="#BitstreamVeraSans-Roman-20"/>
       <use x="390.3828125" xlink:href="#BitstreamVeraSans-Roman-46"/>
       <use x="447.85546875" xlink:href="#BitstreamVeraSans-Roman-6f"/>
       <use x="509.037109375" xlink:href="#BitstreamVeraSans-Roman-72"/>
       <use x="550.150390625" xlink:href="#BitstreamVeraSans-Roman-20"/>
       <use x="581.9375" xlink:href="#BitstreamVeraSans-Roman-54"/>
       <use x="642.771484375" xlink:href="#BitstreamVeraSans-Roman-61"/>
       <use x="704.05078125" xlink:href="#BitstreamVeraSans-Roman-74"/>
      </g>
     </g>
    </g>
    <g id="xtick_5">
     <g id="line2d_9">
      <g>
       <use style="stroke:#000000;stroke-width:0.5;" x="388.29" xlink:href="#m8da3c5e989" y="368.74175"/>
      </g>
     </g>
     <g id="line2d_10">
      <g>
       <use style="stroke:#000000;stroke-width:0.5;" x="388.29" xlink:href="#m686d4d319e" y="23.14175"/>
      </g>
     </g>
     <g id="text_5">
      <!-- Alternator -->
      <g transform="translate(390.4975 413.0755)rotate(-90.0)scale(0.08 -0.08)">
       <use xlink:href="#BitstreamVeraSans-Roman-41"/>
       <use x="68.408203125" xlink:href="#BitstreamVeraSans-Roman-6c"/>
       <use x="96.19140625" xlink:href="#BitstreamVeraSans-Roman-74"/>
       <use x="135.400390625" xlink:href="#BitstreamVeraSans-Roman-65"/>
       <use x="196.923828125" xlink:href="#BitstreamVeraSans-Roman-72"/>
       <use x="238.021484375" xlink:href="#BitstreamVeraSans-Roman-6e"/>
       <use x="301.400390625" xlink:href="#BitstreamVeraSans-Roman-61"/>
       <use x="362.6796875" xlink:href="#BitstreamVeraSans-Roman-74"/>
       <use x="401.888671875" xlink:href="#BitstreamVeraSans-Roman-6f"/>
       <use x="463.0703125" xlink:href="#BitstreamVeraSans-Roman-72"/>
      </g>
     </g>
    </g>
    <g id="xtick_6">
     <g id="line2d_11">
      <g>
       <use style="stroke:#000000;stroke-width:0.5;" x="462.69" xlink:href="#m8da3c5e989" y="368.74175"/>
      </g>
     </g>
     <g id="line2d_12">
      <g>
       <use style="stroke:#000000;stroke-width:0.5;" x="462.69" xlink:href="#m686d4d319e" y="23.14175"/>
      </g>
     </g>
     <g id="text_6">
      <!-- Win-Stay Lose-Shift -->
      <defs>
       <path d="M 4.890625 31.390625 
L 31.203125 31.390625 
L 31.203125 23.390625 
L 4.890625 23.390625 
z
" id="BitstreamVeraSans-Roman-2d"/>
       <path d="M 54.890625 33.015625 
L 54.890625 0 
L 45.90625 0 
L 45.90625 32.71875 
Q 45.90625 40.484375 42.875 44.328125 
Q 39.84375 48.1875 33.796875 48.1875 
Q 26.515625 48.1875 22.3125 43.546875 
Q 18.109375 38.921875 18.109375 30.90625 
L 18.109375 0 
L 9.078125 0 
L 9.078125 75.984375 
L 18.109375 75.984375 
L 18.109375 46.1875 
Q 21.34375 51.125 25.703125 53.5625 
Q 30.078125 56 35.796875 56 
Q 45.21875 56 50.046875 50.171875 
Q 54.890625 44.34375 54.890625 33.015625 
" id="BitstreamVeraSans-Roman-68"/>
       <path d="M 3.328125 72.90625 
L 13.28125 72.90625 
L 28.609375 11.28125 
L 43.890625 72.90625 
L 54.984375 72.90625 
L 70.3125 11.28125 
L 85.59375 72.90625 
L 95.609375 72.90625 
L 77.296875 0 
L 64.890625 0 
L 49.515625 63.28125 
L 33.984375 0 
L 21.578125 0 
z
" id="BitstreamVeraSans-Roman-57"/>
       <path d="M 9.8125 72.90625 
L 19.671875 72.90625 
L 19.671875 8.296875 
L 55.171875 8.296875 
L 55.171875 0 
L 9.8125 0 
z
" id="BitstreamVeraSans-Roman-4c"/>
      </defs>
      <g transform="translate(464.8975 450.873)rotate(-90.0)scale(0.08 -0.08)">
       <use xlink:href="#BitstreamVeraSans-Roman-57"/>
       <use x="98.845703125" xlink:href="#BitstreamVeraSans-Roman-69"/>
       <use x="126.62890625" xlink:href="#BitstreamVeraSans-Roman-6e"/>
       <use x="190.0078125" xlink:href="#BitstreamVeraSans-Roman-2d"/>
       <use x="226.091796875" xlink:href="#BitstreamVeraSans-Roman-53"/>
       <use x="289.568359375" xlink:href="#BitstreamVeraSans-Roman-74"/>
       <use x="328.77734375" xlink:href="#BitstreamVeraSans-Roman-61"/>
       <use x="390.056640625" xlink:href="#BitstreamVeraSans-Roman-79"/>
       <use x="449.236328125" xlink:href="#BitstreamVeraSans-Roman-20"/>
       <use x="481.0234375" xlink:href="#BitstreamVeraSans-Roman-4c"/>
       <use x="536.720703125" xlink:href="#BitstreamVeraSans-Roman-6f"/>
       <use x="597.90234375" xlink:href="#BitstreamVeraSans-Roman-73"/>
       <use x="650.001953125" xlink:href="#BitstreamVeraSans-Roman-65"/>
       <use x="711.525390625" xlink:href="#BitstreamVeraSans-Roman-2d"/>
       <use x="747.609375" xlink:href="#BitstreamVeraSans-Roman-53"/>
       <use x="811.0859375" xlink:href="#BitstreamVeraSans-Roman-68"/>
       <use x="874.46484375" xlink:href="#BitstreamVeraSans-Roman-69"/>
       <use x="902.248046875" xlink:href="#BitstreamVeraSans-Roman-66"/>
       <use x="937.4375" xlink:href="#BitstreamVeraSans-Roman-74"/>
      </g>
     </g>
    </g>
    <g id="xtick_7">
     <g id="line2d_13">
      <g>
       <use style="stroke:#000000;stroke-width:0.5;" x="537.09" xlink:href="#m8da3c5e989" y="368.74175"/>
      </g>
     </g>
     <g id="line2d_14">
      <g>
       <use style="stroke:#000000;stroke-width:0.5;" x="537.09" xlink:href="#m686d4d319e" y="23.14175"/>
      </g>
     </g>
     <g id="text_7">
      <!-- Tit For Tat -->
      <g transform="translate(539.2975 413.75425)rotate(-90.0)scale(0.08 -0.08)">
       <use xlink:href="#BitstreamVeraSans-Roman-54"/>
       <use x="61.037109375" xlink:href="#BitstreamVeraSans-Roman-69"/>
       <use x="88.8203125" xlink:href="#BitstreamVeraSans-Roman-74"/>
       <use x="128.029296875" xlink:href="#BitstreamVeraSans-Roman-20"/>
       <use x="159.81640625" xlink:href="#BitstreamVeraSans-Roman-46"/>
       <use x="217.2890625" xlink:href="#BitstreamVeraSans-Roman-6f"/>
       <use x="278.470703125" xlink:href="#BitstreamVeraSans-Roman-72"/>
       <use x="319.583984375" xlink:href="#BitstreamVeraSans-Roman-20"/>
       <use x="351.37109375" xlink:href="#BitstreamVeraSans-Roman-54"/>
       <use x="412.205078125" xlink:href="#BitstreamVeraSans-Roman-61"/>
       <use x="473.484375" xlink:href="#BitstreamVeraSans-Roman-74"/>
      </g>
     </g>
    </g>
    <g id="xtick_8">
     <g id="line2d_15">
      <g>
       <use style="stroke:#000000;stroke-width:0.5;" x="611.49" xlink:href="#m8da3c5e989" y="368.74175"/>
      </g>
     </g>
     <g id="line2d_16">
      <g>
       <use style="stroke:#000000;stroke-width:0.5;" x="611.49" xlink:href="#m686d4d319e" y="23.14175"/>
      </g>
     </g>
     <g id="text_8">
      <!-- Cooperator -->
      <defs>
       <path d="M 64.40625 67.28125 
L 64.40625 56.890625 
Q 59.421875 61.53125 53.78125 63.8125 
Q 48.140625 66.109375 41.796875 66.109375 
Q 29.296875 66.109375 22.65625 58.46875 
Q 16.015625 50.828125 16.015625 36.375 
Q 16.015625 21.96875 22.65625 14.328125 
Q 29.296875 6.6875 41.796875 6.6875 
Q 48.140625 6.6875 53.78125 8.984375 
Q 59.421875 11.28125 64.40625 15.921875 
L 64.40625 5.609375 
Q 59.234375 2.09375 53.4375 0.328125 
Q 47.65625 -1.421875 41.21875 -1.421875 
Q 24.65625 -1.421875 15.125 8.703125 
Q 5.609375 18.84375 5.609375 36.375 
Q 5.609375 53.953125 15.125 64.078125 
Q 24.65625 74.21875 41.21875 74.21875 
Q 47.75 74.21875 53.53125 72.484375 
Q 59.328125 70.75 64.40625 67.28125 
" id="BitstreamVeraSans-Roman-43"/>
      </defs>
      <g transform="translate(613.6975 417.6305)rotate(-90.0)scale(0.08 -0.08)">
       <use xlink:href="#BitstreamVeraSans-Roman-43"/>
       <use x="69.82421875" xlink:href="#BitstreamVeraSans-Roman-6f"/>
       <use x="131.005859375" xlink:href="#BitstreamVeraSans-Roman-6f"/>
       <use x="192.1875" xlink:href="#BitstreamVeraSans-Roman-70"/>
       <use x="255.6640625" xlink:href="#BitstreamVeraSans-Roman-65"/>
       <use x="317.1875" xlink:href="#BitstreamVeraSans-Roman-72"/>
       <use x="358.30078125" xlink:href="#BitstreamVeraSans-Roman-61"/>
       <use x="419.580078125" xlink:href="#BitstreamVeraSans-Roman-74"/>
       <use x="458.7890625" xlink:href="#BitstreamVeraSans-Roman-6f"/>
       <use x="519.970703125" xlink:href="#BitstreamVeraSans-Roman-72"/>
      </g>
     </g>
    </g>
   </g>
   <g id="matplotlib.axis_2">
    <g id="ytick_1">
     <g id="line2d_17">
      <defs>
       <path d="M 0 0 
L 4 0 
" id="m8f4f881fcc" style="stroke:#000000;stroke-width:0.5;"/>
      </defs>
      <g>
       <use style="stroke:#000000;stroke-width:0.5;" x="16.29" xlink:href="#m8f4f881fcc" y="344.056035714"/>
      </g>
     </g>
     <g id="line2d_18">
      <defs>
       <path d="M 0 0 
L -4 0 
" id="me6c59c6ab3" style="stroke:#000000;stroke-width:0.5;"/>
      </defs>
      <g>
       <use style="stroke:#000000;stroke-width:0.5;" x="685.89" xlink:href="#me6c59c6ab3" y="344.056035714"/>
      </g>
     </g>
     <g id="text_9">
      <!-- 0 -->
      <defs>
       <path d="M 31.78125 66.40625 
Q 24.171875 66.40625 20.328125 58.90625 
Q 16.5 51.421875 16.5 36.375 
Q 16.5 21.390625 20.328125 13.890625 
Q 24.171875 6.390625 31.78125 6.390625 
Q 39.453125 6.390625 43.28125 13.890625 
Q 47.125 21.390625 47.125 36.375 
Q 47.125 51.421875 43.28125 58.90625 
Q 39.453125 66.40625 31.78125 66.40625 
M 31.78125 74.21875 
Q 44.046875 74.21875 50.515625 64.515625 
Q 56.984375 54.828125 56.984375 36.375 
Q 56.984375 17.96875 50.515625 8.265625 
Q 44.046875 -1.421875 31.78125 -1.421875 
Q 19.53125 -1.421875 13.0625 8.265625 
Q 6.59375 17.96875 6.59375 36.375 
Q 6.59375 54.828125 13.0625 64.515625 
Q 19.53125 74.21875 31.78125 74.21875 
" id="BitstreamVeraSans-Roman-30"/>
      </defs>
      <g transform="translate(7.2 346.263535714)scale(0.08 -0.08)">
       <use xlink:href="#BitstreamVeraSans-Roman-30"/>
      </g>
     </g>
    </g>
    <g id="ytick_2">
     <g id="line2d_19">
      <g>
       <use style="stroke:#000000;stroke-width:0.5;" x="16.29" xlink:href="#m8f4f881fcc" y="294.684607143"/>
      </g>
     </g>
     <g id="line2d_20">
      <g>
       <use style="stroke:#000000;stroke-width:0.5;" x="685.89" xlink:href="#me6c59c6ab3" y="294.684607143"/>
      </g>
     </g>
     <g id="text_10">
      <!-- 1 -->
      <defs>
       <path d="M 12.40625 8.296875 
L 28.515625 8.296875 
L 28.515625 63.921875 
L 10.984375 60.40625 
L 10.984375 69.390625 
L 28.421875 72.90625 
L 38.28125 72.90625 
L 38.28125 8.296875 
L 54.390625 8.296875 
L 54.390625 0 
L 12.40625 0 
z
" id="BitstreamVeraSans-Roman-31"/>
      </defs>
      <g transform="translate(7.2 296.892107143)scale(0.08 -0.08)">
       <use xlink:href="#BitstreamVeraSans-Roman-31"/>
      </g>
     </g>
    </g>
    <g id="ytick_3">
     <g id="line2d_21">
      <g>
       <use style="stroke:#000000;stroke-width:0.5;" x="16.29" xlink:href="#m8f4f881fcc" y="245.313178571"/>
      </g>
     </g>
     <g id="line2d_22">
      <g>
       <use style="stroke:#000000;stroke-width:0.5;" x="685.89" xlink:href="#me6c59c6ab3" y="245.313178571"/>
      </g>
     </g>
     <g id="text_11">
      <!-- 2 -->
      <defs>
       <path d="M 19.1875 8.296875 
L 53.609375 8.296875 
L 53.609375 0 
L 7.328125 0 
L 7.328125 8.296875 
Q 12.9375 14.109375 22.625 23.890625 
Q 32.328125 33.6875 34.8125 36.53125 
Q 39.546875 41.84375 41.421875 45.53125 
Q 43.3125 49.21875 43.3125 52.78125 
Q 43.3125 58.59375 39.234375 62.25 
Q 35.15625 65.921875 28.609375 65.921875 
Q 23.96875 65.921875 18.8125 64.3125 
Q 13.671875 62.703125 7.8125 59.421875 
L 7.8125 69.390625 
Q 13.765625 71.78125 18.9375 73 
Q 24.125 74.21875 28.421875 74.21875 
Q 39.75 74.21875 46.484375 68.546875 
Q 53.21875 62.890625 53.21875 53.421875 
Q 53.21875 48.921875 51.53125 44.890625 
Q 49.859375 40.875 45.40625 35.40625 
Q 44.1875 33.984375 37.640625 27.21875 
Q 31.109375 20.453125 19.1875 8.296875 
" id="BitstreamVeraSans-Roman-32"/>
      </defs>
      <g transform="translate(7.2 247.520678571)scale(0.08 -0.08)">
       <use xlink:href="#BitstreamVeraSans-Roman-32"/>
      </g>
     </g>
    </g>
    <g id="ytick_4">
     <g id="line2d_23">
      <g>
       <use style="stroke:#000000;stroke-width:0.5;" x="16.29" xlink:href="#m8f4f881fcc" y="195.94175"/>
      </g>
     </g>
     <g id="line2d_24">
      <g>
       <use style="stroke:#000000;stroke-width:0.5;" x="685.89" xlink:href="#me6c59c6ab3" y="195.94175"/>
      </g>
     </g>
     <g id="text_12">
      <!-- 3 -->
      <defs>
       <path d="M 40.578125 39.3125 
Q 47.65625 37.796875 51.625 33 
Q 55.609375 28.21875 55.609375 21.1875 
Q 55.609375 10.40625 48.1875 4.484375 
Q 40.765625 -1.421875 27.09375 -1.421875 
Q 22.515625 -1.421875 17.65625 -0.515625 
Q 12.796875 0.390625 7.625 2.203125 
L 7.625 11.71875 
Q 11.71875 9.328125 16.59375 8.109375 
Q 21.484375 6.890625 26.8125 6.890625 
Q 36.078125 6.890625 40.9375 10.546875 
Q 45.796875 14.203125 45.796875 21.1875 
Q 45.796875 27.640625 41.28125 31.265625 
Q 36.765625 34.90625 28.71875 34.90625 
L 20.21875 34.90625 
L 20.21875 43.015625 
L 29.109375 43.015625 
Q 36.375 43.015625 40.234375 45.921875 
Q 44.09375 48.828125 44.09375 54.296875 
Q 44.09375 59.90625 40.109375 62.90625 
Q 36.140625 65.921875 28.71875 65.921875 
Q 24.65625 65.921875 20.015625 65.03125 
Q 15.375 64.15625 9.8125 62.3125 
L 9.8125 71.09375 
Q 15.4375 72.65625 20.34375 73.4375 
Q 25.25 74.21875 29.59375 74.21875 
Q 40.828125 74.21875 47.359375 69.109375 
Q 53.90625 64.015625 53.90625 55.328125 
Q 53.90625 49.265625 50.4375 45.09375 
Q 46.96875 40.921875 40.578125 39.3125 
" id="BitstreamVeraSans-Roman-33"/>
      </defs>
      <g transform="translate(7.2 198.14925)scale(0.08 -0.08)">
       <use xlink:href="#BitstreamVeraSans-Roman-33"/>
      </g>
     </g>
    </g>
    <g id="ytick_5">
     <g id="line2d_25">
      <g>
       <use style="stroke:#000000;stroke-width:0.5;" x="16.29" xlink:href="#m8f4f881fcc" y="146.570321429"/>
      </g>
     </g>
     <g id="line2d_26">
      <g>
       <use style="stroke:#000000;stroke-width:0.5;" x="685.89" xlink:href="#me6c59c6ab3" y="146.570321429"/>
      </g>
     </g>
     <g id="text_13">
      <!-- 4 -->
      <defs>
       <path d="M 37.796875 64.3125 
L 12.890625 25.390625 
L 37.796875 25.390625 
z
M 35.203125 72.90625 
L 47.609375 72.90625 
L 47.609375 25.390625 
L 58.015625 25.390625 
L 58.015625 17.1875 
L 47.609375 17.1875 
L 47.609375 0 
L 37.796875 0 
L 37.796875 17.1875 
L 4.890625 17.1875 
L 4.890625 26.703125 
z
" id="BitstreamVeraSans-Roman-34"/>
      </defs>
      <g transform="translate(7.2 148.777821429)scale(0.08 -0.08)">
       <use xlink:href="#BitstreamVeraSans-Roman-34"/>
      </g>
     </g>
    </g>
    <g id="ytick_6">
     <g id="line2d_27">
      <g>
       <use style="stroke:#000000;stroke-width:0.5;" x="16.29" xlink:href="#m8f4f881fcc" y="97.1988928571"/>
      </g>
     </g>
     <g id="line2d_28">
      <g>
       <use style="stroke:#000000;stroke-width:0.5;" x="685.89" xlink:href="#me6c59c6ab3" y="97.1988928571"/>
      </g>
     </g>
     <g id="text_14">
      <!-- 5 -->
      <defs>
       <path d="M 10.796875 72.90625 
L 49.515625 72.90625 
L 49.515625 64.59375 
L 19.828125 64.59375 
L 19.828125 46.734375 
Q 21.96875 47.46875 24.109375 47.828125 
Q 26.265625 48.1875 28.421875 48.1875 
Q 40.625 48.1875 47.75 41.5 
Q 54.890625 34.8125 54.890625 23.390625 
Q 54.890625 11.625 47.5625 5.09375 
Q 40.234375 -1.421875 26.90625 -1.421875 
Q 22.3125 -1.421875 17.546875 -0.640625 
Q 12.796875 0.140625 7.71875 1.703125 
L 7.71875 11.625 
Q 12.109375 9.234375 16.796875 8.0625 
Q 21.484375 6.890625 26.703125 6.890625 
Q 35.15625 6.890625 40.078125 11.328125 
Q 45.015625 15.765625 45.015625 23.390625 
Q 45.015625 31 40.078125 35.4375 
Q 35.15625 39.890625 26.703125 39.890625 
Q 22.75 39.890625 18.8125 39.015625 
Q 14.890625 38.140625 10.796875 36.28125 
z
" id="BitstreamVeraSans-Roman-35"/>
      </defs>
      <g transform="translate(7.2 99.4063928571)scale(0.08 -0.08)">
       <use xlink:href="#BitstreamVeraSans-Roman-35"/>
      </g>
     </g>
    </g>
    <g id="ytick_7">
     <g id="line2d_29">
      <g>
       <use style="stroke:#000000;stroke-width:0.5;" x="16.29" xlink:href="#m8f4f881fcc" y="47.8274642857"/>
      </g>
     </g>
     <g id="line2d_30">
      <g>
       <use style="stroke:#000000;stroke-width:0.5;" x="685.89" xlink:href="#me6c59c6ab3" y="47.8274642857"/>
      </g>
     </g>
     <g id="text_15">
      <!-- 6 -->
      <defs>
       <path d="M 33.015625 40.375 
Q 26.375 40.375 22.484375 35.828125 
Q 18.609375 31.296875 18.609375 23.390625 
Q 18.609375 15.53125 22.484375 10.953125 
Q 26.375 6.390625 33.015625 6.390625 
Q 39.65625 6.390625 43.53125 10.953125 
Q 47.40625 15.53125 47.40625 23.390625 
Q 47.40625 31.296875 43.53125 35.828125 
Q 39.65625 40.375 33.015625 40.375 
M 52.59375 71.296875 
L 52.59375 62.3125 
Q 48.875 64.0625 45.09375 64.984375 
Q 41.3125 65.921875 37.59375 65.921875 
Q 27.828125 65.921875 22.671875 59.328125 
Q 17.53125 52.734375 16.796875 39.40625 
Q 19.671875 43.65625 24.015625 45.921875 
Q 28.375 48.1875 33.59375 48.1875 
Q 44.578125 48.1875 50.953125 41.515625 
Q 57.328125 34.859375 57.328125 23.390625 
Q 57.328125 12.15625 50.6875 5.359375 
Q 44.046875 -1.421875 33.015625 -1.421875 
Q 20.359375 -1.421875 13.671875 8.265625 
Q 6.984375 17.96875 6.984375 36.375 
Q 6.984375 53.65625 15.1875 63.9375 
Q 23.390625 74.21875 37.203125 74.21875 
Q 40.921875 74.21875 44.703125 73.484375 
Q 48.484375 72.75 52.59375 71.296875 
" id="BitstreamVeraSans-Roman-36"/>
      </defs>
      <g transform="translate(7.2 50.0349642857)scale(0.08 -0.08)">
       <use xlink:href="#BitstreamVeraSans-Roman-36"/>
      </g>
     </g>
    </g>
   </g>
   <g id="text_16">
    <!-- Wins. Prob end: 0.1, Repetitions: 100, Strategies: 8. -->
    <defs>
     <path d="M 45.40625 27.984375 
Q 45.40625 37.75 41.375 43.109375 
Q 37.359375 48.484375 30.078125 48.484375 
Q 22.859375 48.484375 18.828125 43.109375 
Q 14.796875 37.75 14.796875 27.984375 
Q 14.796875 18.265625 18.828125 12.890625 
Q 22.859375 7.515625 30.078125 7.515625 
Q 37.359375 7.515625 41.375 12.890625 
Q 45.40625 18.265625 45.40625 27.984375 
M 54.390625 6.78125 
Q 54.390625 -7.171875 48.1875 -13.984375 
Q 42 -20.796875 29.203125 -20.796875 
Q 24.46875 -20.796875 20.265625 -20.09375 
Q 16.0625 -19.390625 12.109375 -17.921875 
L 12.109375 -9.1875 
Q 16.0625 -11.328125 19.921875 -12.34375 
Q 23.78125 -13.375 27.78125 -13.375 
Q 36.625 -13.375 41.015625 -8.765625 
Q 45.40625 -4.15625 45.40625 5.171875 
L 45.40625 9.625 
Q 42.625 4.78125 38.28125 2.390625 
Q 33.9375 0 27.875 0 
Q 17.828125 0 11.671875 7.65625 
Q 5.515625 15.328125 5.515625 27.984375 
Q 5.515625 40.671875 11.671875 48.328125 
Q 17.828125 56 27.875 56 
Q 33.9375 56 38.28125 53.609375 
Q 42.625 51.21875 45.40625 46.390625 
L 45.40625 54.6875 
L 54.390625 54.6875 
z
" id="BitstreamVeraSans-Roman-67"/>
     <path d="M 31.78125 34.625 
Q 24.75 34.625 20.71875 30.859375 
Q 16.703125 27.09375 16.703125 20.515625 
Q 16.703125 13.921875 20.71875 10.15625 
Q 24.75 6.390625 31.78125 6.390625 
Q 38.8125 6.390625 42.859375 10.171875 
Q 46.921875 13.96875 46.921875 20.515625 
Q 46.921875 27.09375 42.890625 30.859375 
Q 38.875 34.625 31.78125 34.625 
M 21.921875 38.8125 
Q 15.578125 40.375 12.03125 44.71875 
Q 8.5 49.078125 8.5 55.328125 
Q 8.5 64.0625 14.71875 69.140625 
Q 20.953125 74.21875 31.78125 74.21875 
Q 42.671875 74.21875 48.875 69.140625 
Q 55.078125 64.0625 55.078125 55.328125 
Q 55.078125 49.078125 51.53125 44.71875 
Q 48 40.375 41.703125 38.8125 
Q 48.828125 37.15625 52.796875 32.3125 
Q 56.78125 27.484375 56.78125 20.515625 
Q 56.78125 9.90625 50.3125 4.234375 
Q 43.84375 -1.421875 31.78125 -1.421875 
Q 19.734375 -1.421875 13.25 4.234375 
Q 6.78125 9.90625 6.78125 20.515625 
Q 6.78125 27.484375 10.78125 32.3125 
Q 14.796875 37.15625 21.921875 38.8125 
M 18.3125 54.390625 
Q 18.3125 48.734375 21.84375 45.5625 
Q 25.390625 42.390625 31.78125 42.390625 
Q 38.140625 42.390625 41.71875 45.5625 
Q 45.3125 48.734375 45.3125 54.390625 
Q 45.3125 60.0625 41.71875 63.234375 
Q 38.140625 66.40625 31.78125 66.40625 
Q 25.390625 66.40625 21.84375 63.234375 
Q 18.3125 60.0625 18.3125 54.390625 
" id="BitstreamVeraSans-Roman-38"/>
     <path d="M 11.71875 12.40625 
L 22.015625 12.40625 
L 22.015625 0 
L 11.71875 0 
z
M 11.71875 51.703125 
L 22.015625 51.703125 
L 22.015625 39.3125 
L 11.71875 39.3125 
z
" id="BitstreamVeraSans-Roman-3a"/>
     <path d="M 11.71875 12.40625 
L 22.015625 12.40625 
L 22.015625 4 
L 14.015625 -11.625 
L 7.71875 -11.625 
L 11.71875 4 
z
" id="BitstreamVeraSans-Roman-2c"/>
     <path d="M 19.671875 64.796875 
L 19.671875 37.40625 
L 32.078125 37.40625 
Q 38.96875 37.40625 42.71875 40.96875 
Q 46.484375 44.53125 46.484375 51.125 
Q 46.484375 57.671875 42.71875 61.234375 
Q 38.96875 64.796875 32.078125 64.796875 
z
M 9.8125 72.90625 
L 32.078125 72.90625 
Q 44.34375 72.90625 50.609375 67.359375 
Q 56.890625 61.8125 56.890625 51.125 
Q 56.890625 40.328125 50.609375 34.8125 
Q 44.34375 29.296875 32.078125 29.296875 
L 19.671875 29.296875 
L 19.671875 0 
L 9.8125 0 
z
" id="BitstreamVeraSans-Roman-50"/>
     <path d="M 48.6875 27.296875 
Q 48.6875 37.203125 44.609375 42.84375 
Q 40.53125 48.484375 33.40625 48.484375 
Q 26.265625 48.484375 22.1875 42.84375 
Q 18.109375 37.203125 18.109375 27.296875 
Q 18.109375 17.390625 22.1875 11.75 
Q 26.265625 6.109375 33.40625 6.109375 
Q 40.53125 6.109375 44.609375 11.75 
Q 48.6875 17.390625 48.6875 27.296875 
M 18.109375 46.390625 
Q 20.953125 51.265625 25.265625 53.625 
Q 29.59375 56 35.59375 56 
Q 45.5625 56 51.78125 48.09375 
Q 58.015625 40.1875 58.015625 27.296875 
Q 58.015625 14.40625 51.78125 6.484375 
Q 45.5625 -1.421875 35.59375 -1.421875 
Q 29.59375 -1.421875 25.265625 0.953125 
Q 20.953125 3.328125 18.109375 8.203125 
L 18.109375 0 
L 9.078125 0 
L 9.078125 75.984375 
L 18.109375 75.984375 
z
" id="BitstreamVeraSans-Roman-62"/>
     <path d="M 44.390625 34.1875 
Q 47.5625 33.109375 50.5625 29.59375 
Q 53.5625 26.078125 56.59375 19.921875 
L 66.609375 0 
L 56 0 
L 46.6875 18.703125 
Q 43.0625 26.03125 39.671875 28.421875 
Q 36.28125 30.8125 30.421875 30.8125 
L 19.671875 30.8125 
L 19.671875 0 
L 9.8125 0 
L 9.8125 72.90625 
L 32.078125 72.90625 
Q 44.578125 72.90625 50.734375 67.671875 
Q 56.890625 62.453125 56.890625 51.90625 
Q 56.890625 45.015625 53.6875 40.46875 
Q 50.484375 35.9375 44.390625 34.1875 
M 19.671875 64.796875 
L 19.671875 38.921875 
L 32.078125 38.921875 
Q 39.203125 38.921875 42.84375 42.21875 
Q 46.484375 45.515625 46.484375 51.90625 
Q 46.484375 58.296875 42.84375 61.546875 
Q 39.203125 64.796875 32.078125 64.796875 
z
" id="BitstreamVeraSans-Roman-52"/>
     <path d="M 45.40625 46.390625 
L 45.40625 75.984375 
L 54.390625 75.984375 
L 54.390625 0 
L 45.40625 0 
L 45.40625 8.203125 
Q 42.578125 3.328125 38.25 0.953125 
Q 33.9375 -1.421875 27.875 -1.421875 
Q 17.96875 -1.421875 11.734375 6.484375 
Q 5.515625 14.40625 5.515625 27.296875 
Q 5.515625 40.1875 11.734375 48.09375 
Q 17.96875 56 27.875 56 
Q 33.9375 56 38.25 53.625 
Q 42.578125 51.265625 45.40625 46.390625 
M 14.796875 27.296875 
Q 14.796875 17.390625 18.875 11.75 
Q 22.953125 6.109375 30.078125 6.109375 
Q 37.203125 6.109375 41.296875 11.75 
Q 45.40625 17.390625 45.40625 27.296875 
Q 45.40625 37.203125 41.296875 42.84375 
Q 37.203125 48.484375 30.078125 48.484375 
Q 22.953125 48.484375 18.875 42.84375 
Q 14.796875 37.203125 14.796875 27.296875 
" id="BitstreamVeraSans-Roman-64"/>
     <path d="M 10.6875 12.40625 
L 21 12.40625 
L 21 0 
L 10.6875 0 
z
" id="BitstreamVeraSans-Roman-2e"/>
    </defs>
    <g transform="translate(164.034 18.14175)scale(0.144 -0.144)">
     <use xlink:href="#BitstreamVeraSans-Roman-57"/>
     <use x="98.845703125" xlink:href="#BitstreamVeraSans-Roman-69"/>
     <use x="126.62890625" xlink:href="#BitstreamVeraSans-Roman-6e"/>
     <use x="190.0078125" xlink:href="#BitstreamVeraSans-Roman-73"/>
     <use x="242.107421875" xlink:href="#BitstreamVeraSans-Roman-2e"/>
     <use x="273.89453125" xlink:href="#BitstreamVeraSans-Roman-20"/>
     <use x="305.681640625" xlink:href="#BitstreamVeraSans-Roman-50"/>
     <use x="365.96875" xlink:href="#BitstreamVeraSans-Roman-72"/>
     <use x="407.05078125" xlink:href="#BitstreamVeraSans-Roman-6f"/>
     <use x="468.232421875" xlink:href="#BitstreamVeraSans-Roman-62"/>
     <use x="531.708984375" xlink:href="#BitstreamVeraSans-Roman-20"/>
     <use x="563.49609375" xlink:href="#BitstreamVeraSans-Roman-65"/>
     <use x="625.01953125" xlink:href="#BitstreamVeraSans-Roman-6e"/>
     <use x="688.3984375" xlink:href="#BitstreamVeraSans-Roman-64"/>
     <use x="751.875" xlink:href="#BitstreamVeraSans-Roman-3a"/>
     <use x="785.56640625" xlink:href="#BitstreamVeraSans-Roman-20"/>
     <use x="817.353515625" xlink:href="#BitstreamVeraSans-Roman-30"/>
     <use x="880.9765625" xlink:href="#BitstreamVeraSans-Roman-2e"/>
     <use x="912.763671875" xlink:href="#BitstreamVeraSans-Roman-31"/>
     <use x="976.38671875" xlink:href="#BitstreamVeraSans-Roman-2c"/>
     <use x="1008.173828125" xlink:href="#BitstreamVeraSans-Roman-20"/>
     <use x="1039.9609375" xlink:href="#BitstreamVeraSans-Roman-52"/>
     <use x="1109.380859375" xlink:href="#BitstreamVeraSans-Roman-65"/>
     <use x="1170.904296875" xlink:href="#BitstreamVeraSans-Roman-70"/>
     <use x="1234.380859375" xlink:href="#BitstreamVeraSans-Roman-65"/>
     <use x="1295.904296875" xlink:href="#BitstreamVeraSans-Roman-74"/>
     <use x="1335.11328125" xlink:href="#BitstreamVeraSans-Roman-69"/>
     <use x="1362.896484375" xlink:href="#BitstreamVeraSans-Roman-74"/>
     <use x="1402.10546875" xlink:href="#BitstreamVeraSans-Roman-69"/>
     <use x="1429.888671875" xlink:href="#BitstreamVeraSans-Roman-6f"/>
     <use x="1491.0703125" xlink:href="#BitstreamVeraSans-Roman-6e"/>
     <use x="1554.44921875" xlink:href="#BitstreamVeraSans-Roman-73"/>
     <use x="1606.548828125" xlink:href="#BitstreamVeraSans-Roman-3a"/>
     <use x="1640.240234375" xlink:href="#BitstreamVeraSans-Roman-20"/>
     <use x="1672.02734375" xlink:href="#BitstreamVeraSans-Roman-31"/>
     <use x="1735.650390625" xlink:href="#BitstreamVeraSans-Roman-30"/>
     <use x="1799.2734375" xlink:href="#BitstreamVeraSans-Roman-30"/>
     <use x="1862.896484375" xlink:href="#BitstreamVeraSans-Roman-2c"/>
     <use x="1894.68359375" xlink:href="#BitstreamVeraSans-Roman-20"/>
     <use x="1926.470703125" xlink:href="#BitstreamVeraSans-Roman-53"/>
     <use x="1989.947265625" xlink:href="#BitstreamVeraSans-Roman-74"/>
     <use x="2029.15625" xlink:href="#BitstreamVeraSans-Roman-72"/>
     <use x="2070.26953125" xlink:href="#BitstreamVeraSans-Roman-61"/>
     <use x="2131.548828125" xlink:href="#BitstreamVeraSans-Roman-74"/>
     <use x="2170.7578125" xlink:href="#BitstreamVeraSans-Roman-65"/>
     <use x="2232.28125" xlink:href="#BitstreamVeraSans-Roman-67"/>
     <use x="2295.7578125" xlink:href="#BitstreamVeraSans-Roman-69"/>
     <use x="2323.541015625" xlink:href="#BitstreamVeraSans-Roman-65"/>
     <use x="2385.064453125" xlink:href="#BitstreamVeraSans-Roman-73"/>
     <use x="2437.1640625" xlink:href="#BitstreamVeraSans-Roman-3a"/>
     <use x="2470.85546875" xlink:href="#BitstreamVeraSans-Roman-20"/>
     <use x="2502.642578125" xlink:href="#BitstreamVeraSans-Roman-38"/>
     <use x="2566.265625" xlink:href="#BitstreamVeraSans-Roman-2e"/>
    </g>
   </g>
  </g>
 </g>
 <defs>
  <clipPath id="pd3fba0a4c6">
   <rect height="345.6" width="669.6" x="16.29" y="23.14175"/>
  </clipPath>
 </defs>
</svg>
