<?xml version="1.0" encoding="utf-8" standalone="no"?>
<!DOCTYPE svg PUBLIC "-//W3C//DTD SVG 1.1//EN"
  "http://www.w3.org/Graphics/SVG/1.1/DTD/svg11.dtd">
<!-- Created with matplotlib (http://matplotlib.org/) -->
<svg height="465pt" version="1.1" viewBox="0 0 698 465" width="698pt" xmlns="http://www.w3.org/2000/svg" xmlns:xlink="http://www.w3.org/1999/xlink">
 <defs>
  <style type="text/css">
*{stroke-linecap:butt;stroke-linejoin:round;stroke-miterlimit:100000;}
  </style>
 </defs>
 <g id="figure_1">
  <g id="patch_1">
   <path d="M -0 465.868 
L 698.18 465.868 
L 698.18 0 
L -0 0 
z
" style="fill:#ffffff;"/>
  </g>
  <g id="axes_1">
   <g id="patch_2">
    <path d="M 21.38 368.74175 
L 690.98 368.74175 
L 690.98 23.14175 
L 21.38 23.14175 
z
" style="fill:#ffffff;"/>
   </g>
   <g id="PolyCollection_1">
    <defs>
     <path d="M 110.046332 -102.063393 
L 81.513668 -102.063393 
L 79.703912 -105.205211 
L 78.344526 -108.347029 
L 77.504677 -111.488847 
L 77.18 -114.630666 
L 77.303969 -117.772484 
L 77.771994 -120.914302 
L 78.4694 -124.05612 
L 79.294769 -127.197938 
L 80.173399 -130.339756 
L 81.059928 -133.481575 
L 81.932762 -136.623393 
L 82.784668 -139.765211 
L 83.613709 -142.907029 
L 84.417229 -146.048847 
L 85.189682 -149.190666 
L 85.923506 -152.332484 
L 86.611415 -155.474302 
L 87.24849 -158.61612 
L 87.83306 -161.757938 
L 88.366286 -164.899756 
L 88.851066 -168.041575 
L 89.291115 -171.183393 
L 89.690783 -174.325211 
L 90.055559 -177.467029 
L 90.392653 -180.608847 
L 90.710894 -183.750666 
L 91.019548 -186.892484 
L 91.326287 -190.034302 
L 91.635152 -193.17612 
L 91.945476 -196.317938 
L 92.25237 -199.459756 
L 92.548587 -202.601575 
L 92.826968 -205.743393 
L 93.082413 -208.885211 
L 93.312651 -212.027029 
L 93.517751 -215.168847 
L 93.698869 -218.310666 
L 93.857005 -221.452484 
L 93.992333 -224.594302 
L 94.10428 -227.73612 
L 94.192176 -230.877938 
L 94.256087 -234.019756 
L 94.297523 -237.161575 
L 94.319797 -240.303393 
L 94.327976 -243.445211 
L 94.328428 -246.587029 
L 94.328045 -249.728847 
L 94.333298 -252.870666 
L 94.349361 -256.012484 
L 94.379522 -259.154302 
L 94.425035 -262.29612 
L 94.485387 -265.437938 
L 94.558808 -268.579756 
L 94.642796 -271.721575 
L 94.73449 -274.863393 
L 94.830826 -278.005211 
L 94.928578 -281.147029 
L 95.024404 -284.288847 
L 95.115009 -287.430666 
L 95.197467 -290.572484 
L 95.269591 -293.714302 
L 95.330247 -296.85612 
L 95.379455 -299.997938 
L 95.418208 -303.139756 
L 95.448075 -306.281575 
L 95.470723 -309.423393 
L 95.487557 -312.565211 
L 95.499603 -315.707029 
L 95.507672 -318.848847 
L 95.512652 -321.990666 
L 95.515759 -325.132484 
L 95.518561 -328.274302 
L 95.522722 -331.41612 
L 95.529567 -334.557938 
L 95.539678 -337.699756 
L 95.552715 -340.841575 
L 95.567572 -343.983393 
L 95.582782 -347.125211 
L 95.597013 -350.267029 
L 95.609416 -353.408847 
L 95.619742 -356.550666 
L 95.628207 -359.692484 
L 95.635241 -362.834302 
L 95.641256 -365.97612 
L 95.646524 -369.117938 
L 95.651189 -372.259756 
L 95.655342 -375.401575 
L 95.659105 -378.543393 
L 95.662658 -381.685211 
L 95.666207 -384.827029 
L 95.669921 -387.968847 
L 95.673866 -391.110666 
L 95.677993 -394.252484 
L 95.682189 -397.394302 
L 95.686383 -400.53612 
L 95.690655 -403.677938 
L 95.695281 -406.819756 
L 95.700677 -409.961575 
L 95.707246 -413.103393 
L 95.852754 -413.103393 
L 95.852754 -413.103393 
L 95.859323 -409.961575 
L 95.864719 -406.819756 
L 95.869345 -403.677938 
L 95.873617 -400.53612 
L 95.877811 -397.394302 
L 95.882007 -394.252484 
L 95.886134 -391.110666 
L 95.890079 -387.968847 
L 95.893793 -384.827029 
L 95.897342 -381.685211 
L 95.900895 -378.543393 
L 95.904658 -375.401575 
L 95.908811 -372.259756 
L 95.913476 -369.117938 
L 95.918744 -365.97612 
L 95.924759 -362.834302 
L 95.931793 -359.692484 
L 95.940258 -356.550666 
L 95.950584 -353.408847 
L 95.962987 -350.267029 
L 95.977218 -347.125211 
L 95.992428 -343.983393 
L 96.007285 -340.841575 
L 96.020322 -337.699756 
L 96.030433 -334.557938 
L 96.037278 -331.41612 
L 96.041439 -328.274302 
L 96.044241 -325.132484 
L 96.047348 -321.990666 
L 96.052328 -318.848847 
L 96.060397 -315.707029 
L 96.072443 -312.565211 
L 96.089277 -309.423393 
L 96.111925 -306.281575 
L 96.141792 -303.139756 
L 96.180545 -299.997938 
L 96.229753 -296.85612 
L 96.290409 -293.714302 
L 96.362533 -290.572484 
L 96.444991 -287.430666 
L 96.535596 -284.288847 
L 96.631422 -281.147029 
L 96.729174 -278.005211 
L 96.82551 -274.863393 
L 96.917204 -271.721575 
L 97.001192 -268.579756 
L 97.074613 -265.437938 
L 97.134965 -262.29612 
L 97.180478 -259.154302 
L 97.210639 -256.012484 
L 97.226702 -252.870666 
L 97.231955 -249.728847 
L 97.231572 -246.587029 
L 97.232024 -243.445211 
L 97.240203 -240.303393 
L 97.262477 -237.161575 
L 97.303913 -234.019756 
L 97.367824 -230.877938 
L 97.45572 -227.73612 
L 97.567667 -224.594302 
L 97.702995 -221.452484 
L 97.861131 -218.310666 
L 98.042249 -215.168847 
L 98.247349 -212.027029 
L 98.477587 -208.885211 
L 98.733032 -205.743393 
L 99.011413 -202.601575 
L 99.30763 -199.459756 
L 99.614524 -196.317938 
L 99.924848 -193.17612 
L 100.233713 -190.034302 
L 100.540452 -186.892484 
L 100.849106 -183.750666 
L 101.167347 -180.608847 
L 101.504441 -177.467029 
L 101.869217 -174.325211 
L 102.268885 -171.183393 
L 102.708934 -168.041575 
L 103.193714 -164.899756 
L 103.72694 -161.757938 
L 104.31151 -158.61612 
L 104.948585 -155.474302 
L 105.636494 -152.332484 
L 106.370318 -149.190666 
L 107.142771 -146.048847 
L 107.946291 -142.907029 
L 108.775332 -139.765211 
L 109.627238 -136.623393 
L 110.500072 -133.481575 
L 111.386601 -130.339756 
L 112.265231 -127.197938 
L 113.0906 -124.05612 
L 113.788006 -120.914302 
L 114.256031 -117.772484 
L 114.38 -114.630666 
L 114.055323 -111.488847 
L 113.215474 -108.347029 
L 111.856088 -105.205211 
L 110.046332 -102.063393 
z
" id="m5a1ed2d611" style="stroke:#000000;stroke-opacity:0.3;"/>
    </defs>
    <g clip-path="url(#p7fb8df7a08)">
     <use style="fill:#bfbf00;fill-opacity:0.3;stroke:#000000;stroke-opacity:0.3;" x="0.0" xlink:href="#m5a1ed2d611" y="465.868"/>
    </g>
   </g>
   <g id="PolyCollection_2">
    <defs>
     <path d="M 184.345924 -102.063393 
L 156.014076 -102.063393 
L 154.263699 -104.85612 
L 152.902548 -107.648847 
L 152.002515 -110.441575 
L 151.58 -113.234302 
L 151.600582 -116.027029 
L 151.992423 -118.819756 
L 152.663603 -121.612484 
L 153.518719 -124.405211 
L 154.471593 -127.197938 
L 155.452815 -129.990666 
L 156.412355 -132.783393 
L 157.318328 -135.57612 
L 158.15334 -138.368847 
L 158.909928 -141.161575 
L 159.586534 -143.954302 
L 160.18498 -146.747029 
L 160.709761 -149.539756 
L 161.168565 -152.332484 
L 161.572912 -155.125211 
L 161.937772 -157.917938 
L 162.279677 -160.710666 
L 162.613737 -163.503393 
L 162.950668 -166.29612 
L 163.295059 -169.088847 
L 163.645584 -171.881575 
L 163.997005 -174.674302 
L 164.343064 -177.467029 
L 164.679089 -180.259756 
L 165.003332 -183.052484 
L 165.316706 -185.845211 
L 165.621251 -188.637938 
L 165.918132 -191.430666 
L 166.206089 -194.223393 
L 166.481021 -197.01612 
L 166.736904 -199.808847 
L 166.967667 -202.601575 
L 167.169324 -205.394302 
L 167.341497 -208.187029 
L 167.487771 -210.979756 
L 167.614778 -213.772484 
L 167.730372 -216.565211 
L 167.841607 -219.357938 
L 167.953147 -222.150666 
L 168.066548 -224.943393 
L 168.180444 -227.73612 
L 168.291411 -230.528847 
L 168.39519 -233.321575 
L 168.487947 -236.114302 
L 168.567342 -238.907029 
L 168.633266 -241.699756 
L 168.688087 -244.492484 
L 168.736321 -247.285211 
L 168.783707 -250.077938 
L 168.835861 -252.870666 
L 168.896843 -255.663393 
L 168.96809 -258.45612 
L 169.048097 -261.248847 
L 169.132985 -264.041575 
L 169.217759 -266.834302 
L 169.297799 -269.627029 
L 169.370044 -272.419756 
L 169.433476 -275.212484 
L 169.488844 -278.005211 
L 169.537856 -280.797938 
L 169.582278 -283.590666 
L 169.623332 -286.383393 
L 169.661569 -289.17612 
L 169.69715 -291.968847 
L 169.730295 -294.761575 
L 169.761582 -297.554302 
L 169.791956 -300.347029 
L 169.822438 -303.139756 
L 169.853702 -305.932484 
L 169.885719 -308.725211 
L 169.91764 -311.517938 
L 169.947949 -314.310666 
L 169.974806 -317.103393 
L 169.996455 -319.89612 
L 170.011591 -322.688847 
L 170.019625 -325.481575 
L 170.020845 -328.274302 
L 170.016479 -331.067029 
L 170.008636 -333.859756 
L 170.000071 -336.652484 
L 169.993755 -339.445211 
L 169.992302 -342.237938 
L 169.997372 -345.030666 
L 170.009267 -347.823393 
L 170.026845 -350.61612 
L 170.047818 -353.408847 
L 170.06934 -356.201575 
L 170.088699 -358.994302 
L 170.103916 -361.787029 
L 170.114094 -364.579756 
L 170.119469 -367.372484 
L 170.121192 -370.165211 
L 170.12094 -372.957938 
L 170.120465 -375.750666 
L 170.121196 -378.543393 
L 170.238804 -378.543393 
L 170.238804 -378.543393 
L 170.239535 -375.750666 
L 170.23906 -372.957938 
L 170.238808 -370.165211 
L 170.240531 -367.372484 
L 170.245906 -364.579756 
L 170.256084 -361.787029 
L 170.271301 -358.994302 
L 170.29066 -356.201575 
L 170.312182 -353.408847 
L 170.333155 -350.61612 
L 170.350733 -347.823393 
L 170.362628 -345.030666 
L 170.367698 -342.237938 
L 170.366245 -339.445211 
L 170.359929 -336.652484 
L 170.351364 -333.859756 
L 170.343521 -331.067029 
L 170.339155 -328.274302 
L 170.340375 -325.481575 
L 170.348409 -322.688847 
L 170.363545 -319.89612 
L 170.385194 -317.103393 
L 170.412051 -314.310666 
L 170.44236 -311.517938 
L 170.474281 -308.725211 
L 170.506298 -305.932484 
L 170.537562 -303.139756 
L 170.568044 -300.347029 
L 170.598418 -297.554302 
L 170.629705 -294.761575 
L 170.66285 -291.968847 
L 170.698431 -289.17612 
L 170.736668 -286.383393 
L 170.777722 -283.590666 
L 170.822144 -280.797938 
L 170.871156 -278.005211 
L 170.926524 -275.212484 
L 170.989956 -272.419756 
L 171.062201 -269.627029 
L 171.142241 -266.834302 
L 171.227015 -264.041575 
L 171.311903 -261.248847 
L 171.39191 -258.45612 
L 171.463157 -255.663393 
L 171.524139 -252.870666 
L 171.576293 -250.077938 
L 171.623679 -247.285211 
L 171.671913 -244.492484 
L 171.726734 -241.699756 
L 171.792658 -238.907029 
L 171.872053 -236.114302 
L 171.96481 -233.321575 
L 172.068589 -230.528847 
L 172.179556 -227.73612 
L 172.293452 -224.943393 
L 172.406853 -222.150666 
L 172.518393 -219.357938 
L 172.629628 -216.565211 
L 172.745222 -213.772484 
L 172.872229 -210.979756 
L 173.018503 -208.187029 
L 173.190676 -205.394302 
L 173.392333 -202.601575 
L 173.623096 -199.808847 
L 173.878979 -197.01612 
L 174.153911 -194.223393 
L 174.441868 -191.430666 
L 174.738749 -188.637938 
L 175.043294 -185.845211 
L 175.356668 -183.052484 
L 175.680911 -180.259756 
L 176.016936 -177.467029 
L 176.362995 -174.674302 
L 176.714416 -171.881575 
L 177.064941 -169.088847 
L 177.409332 -166.29612 
L 177.746263 -163.503393 
L 178.080323 -160.710666 
L 178.422228 -157.917938 
L 178.787088 -155.125211 
L 179.191435 -152.332484 
L 179.650239 -149.539756 
L 180.17502 -146.747029 
L 180.773466 -143.954302 
L 181.450072 -141.161575 
L 182.20666 -138.368847 
L 183.041672 -135.57612 
L 183.947645 -132.783393 
L 184.907185 -129.990666 
L 185.888407 -127.197938 
L 186.841281 -124.405211 
L 187.696397 -121.612484 
L 188.367577 -118.819756 
L 188.759418 -116.027029 
L 188.78 -113.234302 
L 188.357485 -110.441575 
L 187.457452 -107.648847 
L 186.096301 -104.85612 
L 184.345924 -102.063393 
z
" id="me6066ebdfb" style="stroke:#000000;stroke-opacity:0.3;"/>
    </defs>
    <g clip-path="url(#p7fb8df7a08)">
     <use style="fill:#bfbf00;fill-opacity:0.3;stroke:#000000;stroke-opacity:0.3;" x="0.0" xlink:href="#me6066ebdfb" y="465.868"/>
    </g>
   </g>
   <g id="PolyCollection_3">
    <defs>
     <path d="M 258.392791 -102.063393 
L 230.767209 -102.063393 
L 229.064152 -104.95586 
L 227.689359 -107.848328 
L 226.708994 -110.740795 
L 226.145465 -113.633263 
L 225.98 -116.525731 
L 226.161781 -119.418198 
L 226.620447 -122.310666 
L 227.278824 -125.203133 
L 228.063583 -128.095601 
L 228.912681 -130.988068 
L 229.779282 -133.880536 
L 230.632458 -136.773003 
L 231.455221 -139.665471 
L 232.240771 -142.557938 
L 232.988037 -145.450406 
L 233.697712 -148.342873 
L 234.36976 -151.235341 
L 235.002819 -154.127808 
L 235.59523 -157.020276 
L 236.146822 -159.912744 
L 236.660411 -162.805211 
L 237.142175 -165.697679 
L 237.600674 -168.590146 
L 238.044843 -171.482614 
L 238.48166 -174.375081 
L 238.914265 -177.267549 
L 239.341028 -180.160016 
L 239.755721 -183.052484 
L 240.148635 -185.944951 
L 240.508285 -188.837419 
L 240.823341 -191.729886 
L 241.084458 -194.622354 
L 241.285811 -197.514821 
L 241.426191 -200.407289 
L 241.509589 -203.299756 
L 241.545194 -206.192224 
L 241.546738 -209.084692 
L 241.531129 -211.977159 
L 241.516421 -214.869627 
L 241.519322 -217.762094 
L 241.552677 -220.654562 
L 241.623482 -223.547029 
L 241.731983 -226.439497 
L 241.872166 -229.331964 
L 242.033547 -232.224432 
L 242.203789 -235.116899 
L 242.371412 -238.009367 
L 242.527904 -240.901834 
L 242.668771 -243.794302 
L 242.793437 -246.686769 
L 242.904262 -249.579237 
L 243.005103 -252.471705 
L 243.099902 -255.364172 
L 243.191641 -258.25664 
L 243.281859 -261.149107 
L 243.37072 -264.041575 
L 243.457512 -266.934042 
L 243.541345 -269.82651 
L 243.621795 -272.718977 
L 243.699262 -275.611445 
L 243.77491 -278.503912 
L 243.850219 -281.39638 
L 243.926298 -284.288847 
L 244.003231 -287.181315 
L 244.07971 -290.073782 
L 244.1531 -292.96625 
L 244.219948 -295.858718 
L 244.276766 -298.751185 
L 244.320863 -301.643653 
L 244.350974 -304.53612 
L 244.36753 -307.428588 
L 244.372538 -310.321055 
L 244.369141 -313.213523 
L 244.361001 -316.10599 
L 244.351687 -318.998458 
L 244.344165 -321.890925 
L 244.340479 -324.783393 
L 244.341607 -327.67586 
L 244.347472 -330.568328 
L 244.35707 -333.460795 
L 244.368691 -336.353263 
L 244.380222 -339.245731 
L 244.389505 -342.138198 
L 244.394725 -345.030666 
L 244.394752 -347.923133 
L 244.389375 -350.815601 
L 244.379363 -353.708068 
L 244.36635 -356.600536 
L 244.352535 -359.493003 
L 244.34029 -362.385471 
L 244.331745 -365.277938 
L 244.32845 -368.170406 
L 244.331181 -371.062873 
L 244.339924 -373.955341 
L 244.354012 -376.847808 
L 244.372357 -379.740276 
L 244.393691 -382.632744 
L 244.416759 -385.525211 
L 244.440426 -388.417679 
L 244.719574 -388.417679 
L 244.719574 -388.417679 
L 244.743241 -385.525211 
L 244.766309 -382.632744 
L 244.787643 -379.740276 
L 244.805988 -376.847808 
L 244.820076 -373.955341 
L 244.828819 -371.062873 
L 244.83155 -368.170406 
L 244.828255 -365.277938 
L 244.81971 -362.385471 
L 244.807465 -359.493003 
L 244.79365 -356.600536 
L 244.780637 -353.708068 
L 244.770625 -350.815601 
L 244.765248 -347.923133 
L 244.765275 -345.030666 
L 244.770495 -342.138198 
L 244.779778 -339.245731 
L 244.791309 -336.353263 
L 244.80293 -333.460795 
L 244.812528 -330.568328 
L 244.818393 -327.67586 
L 244.819521 -324.783393 
L 244.815835 -321.890925 
L 244.808313 -318.998458 
L 244.798999 -316.10599 
L 244.790859 -313.213523 
L 244.787462 -310.321055 
L 244.79247 -307.428588 
L 244.809026 -304.53612 
L 244.839137 -301.643653 
L 244.883234 -298.751185 
L 244.940052 -295.858718 
L 245.0069 -292.96625 
L 245.08029 -290.073782 
L 245.156769 -287.181315 
L 245.233702 -284.288847 
L 245.309781 -281.39638 
L 245.38509 -278.503912 
L 245.460738 -275.611445 
L 245.538205 -272.718977 
L 245.618655 -269.82651 
L 245.702488 -266.934042 
L 245.78928 -264.041575 
L 245.878141 -261.149107 
L 245.968359 -258.25664 
L 246.060098 -255.364172 
L 246.154897 -252.471705 
L 246.255738 -249.579237 
L 246.366563 -246.686769 
L 246.491229 -243.794302 
L 246.632096 -240.901834 
L 246.788588 -238.009367 
L 246.956211 -235.116899 
L 247.126453 -232.224432 
L 247.287834 -229.331964 
L 247.428017 -226.439497 
L 247.536518 -223.547029 
L 247.607323 -220.654562 
L 247.640678 -217.762094 
L 247.643579 -214.869627 
L 247.628871 -211.977159 
L 247.613262 -209.084692 
L 247.614806 -206.192224 
L 247.650411 -203.299756 
L 247.733809 -200.407289 
L 247.874189 -197.514821 
L 248.075542 -194.622354 
L 248.336659 -191.729886 
L 248.651715 -188.837419 
L 249.011365 -185.944951 
L 249.404279 -183.052484 
L 249.818972 -180.160016 
L 250.245735 -177.267549 
L 250.67834 -174.375081 
L 251.115157 -171.482614 
L 251.559326 -168.590146 
L 252.017825 -165.697679 
L 252.499589 -162.805211 
L 253.013178 -159.912744 
L 253.56477 -157.020276 
L 254.157181 -154.127808 
L 254.79024 -151.235341 
L 255.462288 -148.342873 
L 256.171963 -145.450406 
L 256.919229 -142.557938 
L 257.704779 -139.665471 
L 258.527542 -136.773003 
L 259.380718 -133.880536 
L 260.247319 -130.988068 
L 261.096417 -128.095601 
L 261.881176 -125.203133 
L 262.539553 -122.310666 
L 262.998219 -119.418198 
L 263.18 -116.525731 
L 263.014535 -113.633263 
L 262.451006 -110.740795 
L 261.470641 -107.848328 
L 260.095848 -104.95586 
L 258.392791 -102.063393 
z
" id="me8e221b964" style="stroke:#000000;stroke-opacity:0.3;"/>
    </defs>
    <g clip-path="url(#p7fb8df7a08)">
     <use style="fill:#bfbf00;fill-opacity:0.3;stroke:#000000;stroke-opacity:0.3;" x="0.0" xlink:href="#me8e221b964" y="465.868"/>
    </g>
   </g>
   <g id="PolyCollection_4">
    <defs>
     <path d="M 332.816953 -102.063393 
L 305.143047 -102.063393 
L 303.31411 -105.304951 
L 301.883562 -108.54651 
L 300.922505 -111.788068 
L 300.43741 -115.029627 
L 300.38 -118.271185 
L 300.668543 -121.512744 
L 301.21233 -124.754302 
L 301.931275 -127.99586 
L 302.765746 -131.237419 
L 303.676153 -134.478977 
L 304.635587 -137.720536 
L 305.620655 -140.962094 
L 306.605136 -144.203653 
L 307.558921 -147.445211 
L 308.451897 -150.686769 
L 309.260328 -153.928328 
L 309.972487 -157.169886 
L 310.59105 -160.411445 
L 311.131316 -163.653003 
L 311.616062 -166.894562 
L 312.068908 -170.13612 
L 312.50833 -173.377679 
L 312.943898 -176.619237 
L 313.375442 -179.860795 
L 313.794892 -183.102354 
L 314.18992 -186.343912 
L 314.54817 -189.585471 
L 314.860934 -192.827029 
L 315.125404 -196.068588 
L 315.345152 -199.310146 
L 315.528951 -202.551705 
L 315.688526 -205.793263 
L 315.836003 -209.034821 
L 315.981787 -212.27638 
L 316.133236 -215.517938 
L 316.294154 -218.759497 
L 316.464817 -222.001055 
L 316.642252 -225.242614 
L 316.820679 -228.484172 
L 316.992257 -231.725731 
L 317.148352 -234.967289 
L 317.281327 -238.208847 
L 317.386545 -241.450406 
L 317.463945 -244.691964 
L 317.51858 -247.933523 
L 317.559735 -251.175081 
L 317.598789 -254.41664 
L 317.646387 -257.658198 
L 317.709778 -260.899756 
L 317.791124 -264.141315 
L 317.88725 -267.382873 
L 317.990851 -270.624432 
L 318.092739 -273.86599 
L 318.184394 -277.107549 
L 318.260061 -280.349107 
L 318.317788 -283.590666 
L 318.359243 -286.832224 
L 318.388486 -290.073782 
L 318.41028 -293.315341 
L 318.428545 -296.556899 
L 318.445479 -299.798458 
L 318.461527 -303.040016 
L 318.476035 -306.281575 
L 318.48821 -309.523133 
L 318.497916 -312.764692 
L 318.506008 -316.00625 
L 318.51412 -319.247808 
L 318.52408 -322.489367 
L 318.537264 -325.730925 
L 318.554183 -328.972484 
L 318.57444 -332.214042 
L 318.59702 -335.455601 
L 318.620742 -338.697159 
L 318.644659 -341.938718 
L 318.668285 -345.180276 
L 318.691613 -348.421834 
L 318.714969 -351.663393 
L 318.738789 -354.904951 
L 318.76336 -358.14651 
L 318.788603 -361.388068 
L 318.813944 -364.629627 
L 318.838335 -367.871185 
L 318.860436 -371.112744 
L 318.878939 -374.354302 
L 318.892925 -377.59586 
L 318.902113 -380.837419 
L 318.906916 -384.078977 
L 318.908254 -387.320536 
L 318.907203 -390.562094 
L 318.904628 -393.803653 
L 318.900966 -397.045211 
L 318.896249 -400.286769 
L 318.890369 -403.528328 
L 318.883449 -406.769886 
L 318.87614 -410.011445 
L 318.869675 -413.253003 
L 318.865632 -416.494562 
L 318.865483 -419.73612 
L 318.870116 -422.977679 
L 319.089884 -422.977679 
L 319.089884 -422.977679 
L 319.094517 -419.73612 
L 319.094368 -416.494562 
L 319.090325 -413.253003 
L 319.08386 -410.011445 
L 319.076551 -406.769886 
L 319.069631 -403.528328 
L 319.063751 -400.286769 
L 319.059034 -397.045211 
L 319.055372 -393.803653 
L 319.052797 -390.562094 
L 319.051746 -387.320536 
L 319.053084 -384.078977 
L 319.057887 -380.837419 
L 319.067075 -377.59586 
L 319.081061 -374.354302 
L 319.099564 -371.112744 
L 319.121665 -367.871185 
L 319.146056 -364.629627 
L 319.171397 -361.388068 
L 319.19664 -358.14651 
L 319.221211 -354.904951 
L 319.245031 -351.663393 
L 319.268387 -348.421834 
L 319.291715 -345.180276 
L 319.315341 -341.938718 
L 319.339258 -338.697159 
L 319.36298 -335.455601 
L 319.38556 -332.214042 
L 319.405817 -328.972484 
L 319.422736 -325.730925 
L 319.43592 -322.489367 
L 319.44588 -319.247808 
L 319.453992 -316.00625 
L 319.462084 -312.764692 
L 319.47179 -309.523133 
L 319.483965 -306.281575 
L 319.498473 -303.040016 
L 319.514521 -299.798458 
L 319.531455 -296.556899 
L 319.54972 -293.315341 
L 319.571514 -290.073782 
L 319.600757 -286.832224 
L 319.642212 -283.590666 
L 319.699939 -280.349107 
L 319.775606 -277.107549 
L 319.867261 -273.86599 
L 319.969149 -270.624432 
L 320.07275 -267.382873 
L 320.168876 -264.141315 
L 320.250222 -260.899756 
L 320.313613 -257.658198 
L 320.361211 -254.41664 
L 320.400265 -251.175081 
L 320.44142 -247.933523 
L 320.496055 -244.691964 
L 320.573455 -241.450406 
L 320.678673 -238.208847 
L 320.811648 -234.967289 
L 320.967743 -231.725731 
L 321.139321 -228.484172 
L 321.317748 -225.242614 
L 321.495183 -222.001055 
L 321.665846 -218.759497 
L 321.826764 -215.517938 
L 321.978213 -212.27638 
L 322.123997 -209.034821 
L 322.271474 -205.793263 
L 322.431049 -202.551705 
L 322.614848 -199.310146 
L 322.834596 -196.068588 
L 323.099066 -192.827029 
L 323.41183 -189.585471 
L 323.77008 -186.343912 
L 324.165108 -183.102354 
L 324.584558 -179.860795 
L 325.016102 -176.619237 
L 325.45167 -173.377679 
L 325.891092 -170.13612 
L 326.343938 -166.894562 
L 326.828684 -163.653003 
L 327.36895 -160.411445 
L 327.987513 -157.169886 
L 328.699672 -153.928328 
L 329.508103 -150.686769 
L 330.401079 -147.445211 
L 331.354864 -144.203653 
L 332.339345 -140.962094 
L 333.324413 -137.720536 
L 334.283847 -134.478977 
L 335.194254 -131.237419 
L 336.028725 -127.99586 
L 336.74767 -124.754302 
L 337.291457 -121.512744 
L 337.58 -118.271185 
L 337.52259 -115.029627 
L 337.037495 -111.788068 
L 336.076438 -108.54651 
L 334.64589 -105.304951 
L 332.816953 -102.063393 
z
" id="m070dfb60f2" style="stroke:#000000;stroke-opacity:0.3;"/>
    </defs>
    <g clip-path="url(#p7fb8df7a08)">
     <use style="fill:#bfbf00;fill-opacity:0.3;stroke:#000000;stroke-opacity:0.3;" x="0.0" xlink:href="#m070dfb60f2" y="465.868"/>
    </g>
   </g>
   <g id="PolyCollection_5">
    <defs>
     <path d="M 407.850386 -102.063393 
L 378.909614 -102.063393 
L 377.283741 -104.85612 
L 376.020704 -107.648847 
L 375.181052 -110.441575 
L 374.78 -113.234302 
L 374.790483 -116.027029 
L 375.152682 -118.819756 
L 375.786954 -121.612484 
L 376.606985 -124.405211 
L 377.530795 -127.197938 
L 378.488337 -129.990666 
L 379.425525 -132.783393 
L 380.305246 -135.57612 
L 381.106272 -138.368847 
L 381.820964 -141.161575 
L 382.452484 -143.954302 
L 383.011901 -146.747029 
L 383.515332 -149.539756 
L 383.981113 -152.332484 
L 384.426992 -155.125211 
L 384.867522 -157.917938 
L 385.311977 -160.710666 
L 385.763213 -163.503393 
L 386.217796 -166.29612 
L 386.667467 -169.088847 
L 387.101615 -171.881575 
L 387.510155 -174.674302 
L 387.886028 -177.467029 
L 388.226654 -180.259756 
L 388.533981 -183.052484 
L 388.813218 -185.845211 
L 389.070765 -188.637938 
L 389.312064 -191.430666 
L 389.540129 -194.223393 
L 389.755194 -197.01612 
L 389.955529 -199.808847 
L 390.139045 -202.601575 
L 390.305019 -205.394302 
L 390.455268 -208.187029 
L 390.594292 -210.979756 
L 390.728302 -213.772484 
L 390.863439 -216.565211 
L 391.003801 -219.357938 
L 391.149962 -222.150666 
L 391.298519 -224.943393 
L 391.442865 -227.73612 
L 391.574979 -230.528847 
L 391.687699 -233.321575 
L 391.776799 -236.114302 
L 391.842297 -238.907029 
L 391.888633 -241.699756 
L 391.923741 -244.492484 
L 391.957298 -247.285211 
L 391.998658 -250.077938 
L 392.05499 -252.870666 
L 392.130056 -255.663393 
L 392.223845 -258.45612 
L 392.333032 -261.248847 
L 392.452026 -264.041575 
L 392.574242 -266.834302 
L 392.693263 -269.627029 
L 392.803644 -272.419756 
L 392.901296 -275.212484 
L 392.983531 -278.005211 
L 393.048903 -280.797938 
L 393.097013 -283.590666 
L 393.128343 -286.383393 
L 393.144133 -289.17612 
L 393.146268 -291.968847 
L 393.137138 -294.761575 
L 393.119449 -297.554302 
L 393.096032 -300.347029 
L 393.069669 -303.139756 
L 393.042989 -305.932484 
L 393.018421 -308.725211 
L 392.998159 -311.517938 
L 392.984092 -314.310666 
L 392.977657 -317.103393 
L 392.979638 -319.89612 
L 392.989961 -322.688847 
L 393.007594 -325.481575 
L 393.03062 -328.274302 
L 393.056491 -331.067029 
L 393.08243 -333.859756 
L 393.105855 -336.652484 
L 393.124745 -339.445211 
L 393.137848 -342.237938 
L 393.144734 -345.030666 
L 393.145712 -347.823393 
L 393.141684 -350.61612 
L 393.133991 -353.408847 
L 393.124285 -356.201575 
L 393.114415 -358.994302 
L 393.106326 -361.787029 
L 393.101901 -364.579756 
L 393.102774 -367.372484 
L 393.110093 -370.165211 
L 393.124311 -372.957938 
L 393.145061 -375.750666 
L 393.17117 -378.543393 
L 393.58883 -378.543393 
L 393.58883 -378.543393 
L 393.614939 -375.750666 
L 393.635689 -372.957938 
L 393.649907 -370.165211 
L 393.657226 -367.372484 
L 393.658099 -364.579756 
L 393.653674 -361.787029 
L 393.645585 -358.994302 
L 393.635715 -356.201575 
L 393.626009 -353.408847 
L 393.618316 -350.61612 
L 393.614288 -347.823393 
L 393.615266 -345.030666 
L 393.622152 -342.237938 
L 393.635255 -339.445211 
L 393.654145 -336.652484 
L 393.67757 -333.859756 
L 393.703509 -331.067029 
L 393.72938 -328.274302 
L 393.752406 -325.481575 
L 393.770039 -322.688847 
L 393.780362 -319.89612 
L 393.782343 -317.103393 
L 393.775908 -314.310666 
L 393.761841 -311.517938 
L 393.741579 -308.725211 
L 393.717011 -305.932484 
L 393.690331 -303.139756 
L 393.663968 -300.347029 
L 393.640551 -297.554302 
L 393.622862 -294.761575 
L 393.613732 -291.968847 
L 393.615867 -289.17612 
L 393.631657 -286.383393 
L 393.662987 -283.590666 
L 393.711097 -280.797938 
L 393.776469 -278.005211 
L 393.858704 -275.212484 
L 393.956356 -272.419756 
L 394.066737 -269.627029 
L 394.185758 -266.834302 
L 394.307974 -264.041575 
L 394.426968 -261.248847 
L 394.536155 -258.45612 
L 394.629944 -255.663393 
L 394.70501 -252.870666 
L 394.761342 -250.077938 
L 394.802702 -247.285211 
L 394.836259 -244.492484 
L 394.871367 -241.699756 
L 394.917703 -238.907029 
L 394.983201 -236.114302 
L 395.072301 -233.321575 
L 395.185021 -230.528847 
L 395.317135 -227.73612 
L 395.461481 -224.943393 
L 395.610038 -222.150666 
L 395.756199 -219.357938 
L 395.896561 -216.565211 
L 396.031698 -213.772484 
L 396.165708 -210.979756 
L 396.304732 -208.187029 
L 396.454981 -205.394302 
L 396.620955 -202.601575 
L 396.804471 -199.808847 
L 397.004806 -197.01612 
L 397.219871 -194.223393 
L 397.447936 -191.430666 
L 397.689235 -188.637938 
L 397.946782 -185.845211 
L 398.226019 -183.052484 
L 398.533346 -180.259756 
L 398.873972 -177.467029 
L 399.249845 -174.674302 
L 399.658385 -171.881575 
L 400.092533 -169.088847 
L 400.542204 -166.29612 
L 400.996787 -163.503393 
L 401.448023 -160.710666 
L 401.892478 -157.917938 
L 402.333008 -155.125211 
L 402.778887 -152.332484 
L 403.244668 -149.539756 
L 403.748099 -146.747029 
L 404.307516 -143.954302 
L 404.939036 -141.161575 
L 405.653728 -138.368847 
L 406.454754 -135.57612 
L 407.334475 -132.783393 
L 408.271663 -129.990666 
L 409.229205 -127.197938 
L 410.153015 -124.405211 
L 410.973046 -121.612484 
L 411.607318 -118.819756 
L 411.969517 -116.027029 
L 411.98 -113.234302 
L 411.578948 -110.441575 
L 410.739296 -107.648847 
L 409.476259 -104.85612 
L 407.850386 -102.063393 
z
" id="m9ebdc42813" style="stroke:#000000;stroke-opacity:0.3;"/>
    </defs>
    <g clip-path="url(#p7fb8df7a08)">
     <use style="fill:#bfbf00;fill-opacity:0.3;stroke:#000000;stroke-opacity:0.3;" x="0.0" xlink:href="#m9ebdc42813" y="465.868"/>
    </g>
   </g>
   <g id="PolyCollection_6">
    <defs>
     <path d="M 482.011347 -102.063393 
L 453.548653 -102.063393 
L 451.758793 -105.304951 
L 450.390882 -108.54651 
L 449.525315 -111.788068 
L 449.18 -115.029627 
L 449.315042 -118.271185 
L 449.847822 -121.512744 
L 450.672836 -124.754302 
L 451.680692 -127.99586 
L 452.772509 -131.237419 
L 453.868471 -134.478977 
L 454.91132 -137.720536 
L 455.866408 -140.962094 
L 456.719773 -144.203653 
L 457.474958 -147.445211 
L 458.148673 -150.686769 
L 458.765306 -153.928328 
L 459.350664 -157.169886 
L 459.925936 -160.411445 
L 460.50318 -163.653003 
L 461.083462 -166.894562 
L 461.657978 -170.13612 
L 462.211595 -173.377679 
L 462.727504 -176.619237 
L 463.191503 -179.860795 
L 463.594822 -183.102354 
L 463.935061 -186.343912 
L 464.215499 -189.585471 
L 464.44343 -192.827029 
L 464.628221 -196.068588 
L 464.779649 -199.310146 
L 464.906786 -202.551705 
L 465.017486 -205.793263 
L 465.118322 -209.034821 
L 465.214735 -212.27638 
L 465.311119 -215.517938 
L 465.410658 -218.759497 
L 465.514939 -222.001055 
L 465.623553 -225.242614 
L 465.734008 -228.484172 
L 465.842225 -231.725731 
L 465.943607 -234.967289 
L 466.034412 -238.208847 
L 466.112936 -241.450406 
L 466.180061 -244.691964 
L 466.238942 -247.933523 
L 466.29398 -251.175081 
L 466.349507 -254.41664 
L 466.40868 -257.658198 
L 466.472965 -260.899756 
L 466.542287 -264.141315 
L 466.615667 -267.382873 
L 466.691993 -270.624432 
L 466.770597 -273.86599 
L 466.851448 -277.107549 
L 466.934927 -280.349107 
L 467.021337 -283.590666 
L 467.110338 -286.832224 
L 467.200523 -290.073782 
L 467.289294 -293.315341 
L 467.373092 -296.556899 
L 467.447926 -299.798458 
L 467.510041 -303.040016 
L 467.556555 -306.281575 
L 467.585903 -309.523133 
L 467.598023 -312.764692 
L 467.594301 -316.00625 
L 467.577384 -319.247808 
L 467.550893 -322.489367 
L 467.519106 -325.730925 
L 467.486545 -328.972484 
L 467.457489 -332.214042 
L 467.435425 -335.455601 
L 467.422552 -338.697159 
L 467.419489 -341.938718 
L 467.425307 -345.180276 
L 467.437887 -348.421834 
L 467.454527 -351.663393 
L 467.472614 -354.904951 
L 467.490177 -358.14651 
L 467.506192 -361.388068 
L 467.520588 -364.629627 
L 467.534007 -367.871185 
L 467.54741 -371.112744 
L 467.561669 -374.354302 
L 467.577271 -377.59586 
L 467.594167 -380.837419 
L 467.611806 -384.078977 
L 467.629276 -387.320536 
L 467.64549 -390.562094 
L 467.659368 -393.803653 
L 467.670004 -397.045211 
L 467.676823 -400.286769 
L 467.679737 -403.528328 
L 467.679269 -406.769886 
L 467.676575 -410.011445 
L 467.673308 -413.253003 
L 467.671309 -416.494562 
L 467.672191 -419.73612 
L 467.676951 -422.977679 
L 467.883049 -422.977679 
L 467.883049 -422.977679 
L 467.887809 -419.73612 
L 467.888691 -416.494562 
L 467.886692 -413.253003 
L 467.883425 -410.011445 
L 467.880731 -406.769886 
L 467.880263 -403.528328 
L 467.883177 -400.286769 
L 467.889996 -397.045211 
L 467.900632 -393.803653 
L 467.91451 -390.562094 
L 467.930724 -387.320536 
L 467.948194 -384.078977 
L 467.965833 -380.837419 
L 467.982729 -377.59586 
L 467.998331 -374.354302 
L 468.01259 -371.112744 
L 468.025993 -367.871185 
L 468.039412 -364.629627 
L 468.053808 -361.388068 
L 468.069823 -358.14651 
L 468.087386 -354.904951 
L 468.105473 -351.663393 
L 468.122113 -348.421834 
L 468.134693 -345.180276 
L 468.140511 -341.938718 
L 468.137448 -338.697159 
L 468.124575 -335.455601 
L 468.102511 -332.214042 
L 468.073455 -328.972484 
L 468.040894 -325.730925 
L 468.009107 -322.489367 
L 467.982616 -319.247808 
L 467.965699 -316.00625 
L 467.961977 -312.764692 
L 467.974097 -309.523133 
L 468.003445 -306.281575 
L 468.049959 -303.040016 
L 468.112074 -299.798458 
L 468.186908 -296.556899 
L 468.270706 -293.315341 
L 468.359477 -290.073782 
L 468.449662 -286.832224 
L 468.538663 -283.590666 
L 468.625073 -280.349107 
L 468.708552 -277.107549 
L 468.789403 -273.86599 
L 468.868007 -270.624432 
L 468.944333 -267.382873 
L 469.017713 -264.141315 
L 469.087035 -260.899756 
L 469.15132 -257.658198 
L 469.210493 -254.41664 
L 469.26602 -251.175081 
L 469.321058 -247.933523 
L 469.379939 -244.691964 
L 469.447064 -241.450406 
L 469.525588 -238.208847 
L 469.616393 -234.967289 
L 469.717775 -231.725731 
L 469.825992 -228.484172 
L 469.936447 -225.242614 
L 470.045061 -222.001055 
L 470.149342 -218.759497 
L 470.248881 -215.517938 
L 470.345265 -212.27638 
L 470.441678 -209.034821 
L 470.542514 -205.793263 
L 470.653214 -202.551705 
L 470.780351 -199.310146 
L 470.931779 -196.068588 
L 471.11657 -192.827029 
L 471.344501 -189.585471 
L 471.624939 -186.343912 
L 471.965178 -183.102354 
L 472.368497 -179.860795 
L 472.832496 -176.619237 
L 473.348405 -173.377679 
L 473.902022 -170.13612 
L 474.476538 -166.894562 
L 475.05682 -163.653003 
L 475.634064 -160.411445 
L 476.209336 -157.169886 
L 476.794694 -153.928328 
L 477.411327 -150.686769 
L 478.085042 -147.445211 
L 478.840227 -144.203653 
L 479.693592 -140.962094 
L 480.64868 -137.720536 
L 481.691529 -134.478977 
L 482.787491 -131.237419 
L 483.879308 -127.99586 
L 484.887164 -124.754302 
L 485.712178 -121.512744 
L 486.244958 -118.271185 
L 486.38 -115.029627 
L 486.034685 -111.788068 
L 485.169118 -108.54651 
L 483.801207 -105.304951 
L 482.011347 -102.063393 
z
" id="m5b02e4f6a2" style="stroke:#000000;stroke-opacity:0.3;"/>
    </defs>
    <g clip-path="url(#p7fb8df7a08)">
     <use style="fill:#bfbf00;fill-opacity:0.3;stroke:#000000;stroke-opacity:0.3;" x="0.0" xlink:href="#m5b02e4f6a2" y="465.868"/>
    </g>
   </g>
   <g id="PolyCollection_7">
    <defs>
     <path d="M 556.637188 -102.063393 
L 527.722812 -102.063393 
L 525.974955 -104.95586 
L 524.665703 -107.848328 
L 523.865678 -110.740795 
L 523.58 -113.633263 
L 523.755096 -116.525731 
L 524.296281 -119.418198 
L 525.090116 -122.310666 
L 526.025522 -125.203133 
L 527.009296 -128.095601 
L 527.974118 -130.988068 
L 528.879388 -133.880536 
L 529.706761 -136.773003 
L 530.453081 -139.665471 
L 531.123355 -142.557938 
L 531.725728 -145.450406 
L 532.269218 -148.342873 
L 532.763637 -151.235341 
L 533.2203 -154.127808 
L 533.65204 -157.020276 
L 534.071837 -159.912744 
L 534.490444 -162.805211 
L 534.91414 -165.697679 
L 535.343767 -168.590146 
L 535.775503 -171.482614 
L 536.202909 -174.375081 
L 536.619193 -177.267549 
L 537.018728 -180.160016 
L 537.397373 -183.052484 
L 537.751878 -185.944951 
L 538.079038 -188.837419 
L 538.375267 -191.729886 
L 538.636883 -194.622354 
L 538.861032 -197.514821 
L 539.046818 -200.407289 
L 539.196221 -203.299756 
L 539.314424 -206.192224 
L 539.409432 -209.084692 
L 539.491003 -211.977159 
L 539.569107 -214.869627 
L 539.652219 -217.762094 
L 539.745817 -220.654562 
L 539.851462 -223.547029 
L 539.966724 -226.439497 
L 540.086032 -229.331964 
L 540.202278 -232.224432 
L 540.308786 -235.116899 
L 540.401116 -238.009367 
L 540.478211 -240.901834 
L 540.542564 -243.794302 
L 540.599373 -246.686769 
L 540.654992 -249.579237 
L 540.715191 -252.471705 
L 540.78376 -255.364172 
L 540.861825 -258.25664 
L 540.94792 -261.149107 
L 541.038649 -264.041575 
L 541.129608 -266.934042 
L 541.216339 -269.82651 
L 541.295145 -272.718977 
L 541.363745 -275.611445 
L 541.421693 -278.503912 
L 541.470498 -281.39638 
L 541.513331 -284.288847 
L 541.554327 -287.181315 
L 541.59759 -290.073782 
L 541.646165 -292.96625 
L 541.701289 -295.858718 
L 541.762129 -298.751185 
L 541.82607 -301.643653 
L 541.889393 -304.53612 
L 541.948124 -307.428588 
L 541.998775 -310.321055 
L 542.038838 -313.213523 
L 542.067001 -316.10599 
L 542.083132 -318.998458 
L 542.088152 -321.890925 
L 542.083852 -324.783393 
L 542.072695 -327.67586 
L 542.057585 -330.568328 
L 542.041576 -333.460795 
L 542.027514 -336.353263 
L 542.017655 -339.245731 
L 542.013348 -342.138198 
L 542.014877 -345.030666 
L 542.021538 -347.923133 
L 542.031932 -350.815601 
L 542.044395 -353.708068 
L 542.057404 -356.600536 
L 542.06984 -359.493003 
L 542.081036 -362.385471 
L 542.090661 -365.277938 
L 542.098552 -368.170406 
L 542.104604 -371.062873 
L 542.108798 -373.955341 
L 542.111302 -376.847808 
L 542.11258 -379.740276 
L 542.113397 -382.632744 
L 542.114679 -385.525211 
L 542.117273 -388.417679 
L 542.242727 -388.417679 
L 542.242727 -388.417679 
L 542.245321 -385.525211 
L 542.246603 -382.632744 
L 542.24742 -379.740276 
L 542.248698 -376.847808 
L 542.251202 -373.955341 
L 542.255396 -371.062873 
L 542.261448 -368.170406 
L 542.269339 -365.277938 
L 542.278964 -362.385471 
L 542.29016 -359.493003 
L 542.302596 -356.600536 
L 542.315605 -353.708068 
L 542.328068 -350.815601 
L 542.338462 -347.923133 
L 542.345123 -345.030666 
L 542.346652 -342.138198 
L 542.342345 -339.245731 
L 542.332486 -336.353263 
L 542.318424 -333.460795 
L 542.302415 -330.568328 
L 542.287305 -327.67586 
L 542.276148 -324.783393 
L 542.271848 -321.890925 
L 542.276868 -318.998458 
L 542.292999 -316.10599 
L 542.321162 -313.213523 
L 542.361225 -310.321055 
L 542.411876 -307.428588 
L 542.470607 -304.53612 
L 542.53393 -301.643653 
L 542.597871 -298.751185 
L 542.658711 -295.858718 
L 542.713835 -292.96625 
L 542.76241 -290.073782 
L 542.805673 -287.181315 
L 542.846669 -284.288847 
L 542.889502 -281.39638 
L 542.938307 -278.503912 
L 542.996255 -275.611445 
L 543.064855 -272.718977 
L 543.143661 -269.82651 
L 543.230392 -266.934042 
L 543.321351 -264.041575 
L 543.41208 -261.149107 
L 543.498175 -258.25664 
L 543.57624 -255.364172 
L 543.644809 -252.471705 
L 543.705008 -249.579237 
L 543.760627 -246.686769 
L 543.817436 -243.794302 
L 543.881789 -240.901834 
L 543.958884 -238.009367 
L 544.051214 -235.116899 
L 544.157722 -232.224432 
L 544.273968 -229.331964 
L 544.393276 -226.439497 
L 544.508538 -223.547029 
L 544.614183 -220.654562 
L 544.707781 -217.762094 
L 544.790893 -214.869627 
L 544.868997 -211.977159 
L 544.950568 -209.084692 
L 545.045576 -206.192224 
L 545.163779 -203.299756 
L 545.313182 -200.407289 
L 545.498968 -197.514821 
L 545.723117 -194.622354 
L 545.984733 -191.729886 
L 546.280962 -188.837419 
L 546.608122 -185.944951 
L 546.962627 -183.052484 
L 547.341272 -180.160016 
L 547.740807 -177.267549 
L 548.157091 -174.375081 
L 548.584497 -171.482614 
L 549.016233 -168.590146 
L 549.44586 -165.697679 
L 549.869556 -162.805211 
L 550.288163 -159.912744 
L 550.70796 -157.020276 
L 551.1397 -154.127808 
L 551.596363 -151.235341 
L 552.090782 -148.342873 
L 552.634272 -145.450406 
L 553.236645 -142.557938 
L 553.906919 -139.665471 
L 554.653239 -136.773003 
L 555.480612 -133.880536 
L 556.385882 -130.988068 
L 557.350704 -128.095601 
L 558.334478 -125.203133 
L 559.269884 -122.310666 
L 560.063719 -119.418198 
L 560.604904 -116.525731 
L 560.78 -113.633263 
L 560.494322 -110.740795 
L 559.694297 -107.848328 
L 558.385045 -104.95586 
L 556.637188 -102.063393 
z
" id="md0805801f0" style="stroke:#000000;stroke-opacity:0.3;"/>
    </defs>
    <g clip-path="url(#p7fb8df7a08)">
     <use style="fill:#bfbf00;fill-opacity:0.3;stroke:#000000;stroke-opacity:0.3;" x="0.0" xlink:href="#md0805801f0" y="465.868"/>
    </g>
   </g>
   <g id="PolyCollection_8">
    <defs>
     <path d="M 631.237102 -102.063393 
L 601.922898 -102.063393 
L 600.167226 -105.205211 
L 598.887524 -108.347029 
L 598.157809 -111.488847 
L 597.98 -114.630666 
L 598.291596 -117.772484 
L 598.985259 -120.914302 
L 599.933478 -124.05612 
L 601.011461 -127.197938 
L 602.113595 -130.339756 
L 603.161881 -133.481575 
L 604.107408 -136.623393 
L 604.927292 -139.765211 
L 605.619599 -142.907029 
L 606.19781 -146.048847 
L 606.685373 -149.190666 
L 607.110277 -152.332484 
L 607.499732 -155.474302 
L 607.875559 -158.61612 
L 608.25132 -161.757938 
L 608.631993 -164.899756 
L 609.016207 -168.041575 
L 609.400041 -171.183393 
L 609.78077 -174.325211 
L 610.159045 -177.467029 
L 610.538808 -180.608847 
L 610.925278 -183.750666 
L 611.322122 -186.892484 
L 611.729115 -190.034302 
L 612.141185 -193.17612 
L 612.549058 -196.317938 
L 612.941112 -199.459756 
L 613.305733 -202.601575 
L 613.633497 -205.743393 
L 613.918735 -208.885211 
L 614.160275 -212.027029 
L 614.361303 -215.168847 
L 614.528422 -218.310666 
L 614.670035 -221.452484 
L 614.794385 -224.594302 
L 614.907684 -227.73612 
L 615.012876 -230.877938 
L 615.109404 -234.019756 
L 615.194085 -237.161575 
L 615.262815 -240.303393 
L 615.31255 -243.445211 
L 615.342955 -246.587029 
L 615.357243 -249.728847 
L 615.36196 -252.870666 
L 615.365794 -256.012484 
L 615.377648 -259.154302 
L 615.404498 -262.29612 
L 615.449611 -265.437938 
L 615.511721 -268.579756 
L 615.585517 -271.721575 
L 615.663365 -274.863393 
L 615.73772 -278.005211 
L 615.803378 -281.147029 
L 615.858743 -284.288847 
L 615.905707 -287.430666 
L 615.948269 -290.572484 
L 615.990535 -293.714302 
L 616.034932 -296.85612 
L 616.081309 -299.997938 
L 616.127202 -303.139756 
L 616.169031 -306.281575 
L 616.203655 -309.423393 
L 616.229638 -312.565211 
L 616.247749 -315.707029 
L 616.260582 -318.848847 
L 616.271565 -321.990666 
L 616.283784 -325.132484 
L 616.299095 -328.274302 
L 616.317744 -331.41612 
L 616.338529 -334.557938 
L 616.359313 -337.699756 
L 616.377654 -340.841575 
L 616.391397 -343.983393 
L 616.399116 -347.125211 
L 616.400415 -350.267029 
L 616.396046 -353.408847 
L 616.387822 -356.550666 
L 616.378293 -359.692484 
L 616.370218 -362.834302 
L 616.365952 -365.97612 
L 616.366941 -369.117938 
L 616.373463 -372.259756 
L 616.384715 -375.401575 
L 616.399161 -378.543393 
L 616.415026 -381.685211 
L 616.430719 -384.827029 
L 616.445107 -387.968847 
L 616.457575 -391.110666 
L 616.46796 -394.252484 
L 616.476425 -397.394302 
L 616.48336 -400.53612 
L 616.489312 -403.677938 
L 616.494935 -406.819756 
L 616.500889 -409.961575 
L 616.507714 -413.103393 
L 616.652286 -413.103393 
L 616.652286 -413.103393 
L 616.659111 -409.961575 
L 616.665065 -406.819756 
L 616.670688 -403.677938 
L 616.67664 -400.53612 
L 616.683575 -397.394302 
L 616.69204 -394.252484 
L 616.702425 -391.110666 
L 616.714893 -387.968847 
L 616.729281 -384.827029 
L 616.744974 -381.685211 
L 616.760839 -378.543393 
L 616.775285 -375.401575 
L 616.786537 -372.259756 
L 616.793059 -369.117938 
L 616.794048 -365.97612 
L 616.789782 -362.834302 
L 616.781707 -359.692484 
L 616.772178 -356.550666 
L 616.763954 -353.408847 
L 616.759585 -350.267029 
L 616.760884 -347.125211 
L 616.768603 -343.983393 
L 616.782346 -340.841575 
L 616.800687 -337.699756 
L 616.821471 -334.557938 
L 616.842256 -331.41612 
L 616.860905 -328.274302 
L 616.876216 -325.132484 
L 616.888435 -321.990666 
L 616.899418 -318.848847 
L 616.912251 -315.707029 
L 616.930362 -312.565211 
L 616.956345 -309.423393 
L 616.990969 -306.281575 
L 617.032798 -303.139756 
L 617.078691 -299.997938 
L 617.125068 -296.85612 
L 617.169465 -293.714302 
L 617.211731 -290.572484 
L 617.254293 -287.430666 
L 617.301257 -284.288847 
L 617.356622 -281.147029 
L 617.42228 -278.005211 
L 617.496635 -274.863393 
L 617.574483 -271.721575 
L 617.648279 -268.579756 
L 617.710389 -265.437938 
L 617.755502 -262.29612 
L 617.782352 -259.154302 
L 617.794206 -256.012484 
L 617.79804 -252.870666 
L 617.802757 -249.728847 
L 617.817045 -246.587029 
L 617.84745 -243.445211 
L 617.897185 -240.303393 
L 617.965915 -237.161575 
L 618.050596 -234.019756 
L 618.147124 -230.877938 
L 618.252316 -227.73612 
L 618.365615 -224.594302 
L 618.489965 -221.452484 
L 618.631578 -218.310666 
L 618.798697 -215.168847 
L 618.999725 -212.027029 
L 619.241265 -208.885211 
L 619.526503 -205.743393 
L 619.854267 -202.601575 
L 620.218888 -199.459756 
L 620.610942 -196.317938 
L 621.018815 -193.17612 
L 621.430885 -190.034302 
L 621.837878 -186.892484 
L 622.234722 -183.750666 
L 622.621192 -180.608847 
L 623.000955 -177.467029 
L 623.37923 -174.325211 
L 623.759959 -171.183393 
L 624.143793 -168.041575 
L 624.528007 -164.899756 
L 624.90868 -161.757938 
L 625.284441 -158.61612 
L 625.660268 -155.474302 
L 626.049723 -152.332484 
L 626.474627 -149.190666 
L 626.96219 -146.048847 
L 627.540401 -142.907029 
L 628.232708 -139.765211 
L 629.052592 -136.623393 
L 629.998119 -133.481575 
L 631.046405 -130.339756 
L 632.148539 -127.197938 
L 633.226522 -124.05612 
L 634.174741 -120.914302 
L 634.868404 -117.772484 
L 635.18 -114.630666 
L 635.002191 -111.488847 
L 634.272476 -108.347029 
L 632.992774 -105.205211 
L 631.237102 -102.063393 
z
" id="m4f95f7dfc8" style="stroke:#000000;stroke-opacity:0.3;"/>
    </defs>
    <g clip-path="url(#p7fb8df7a08)">
     <use style="fill:#bfbf00;fill-opacity:0.3;stroke:#000000;stroke-opacity:0.3;" x="0.0" xlink:href="#m4f95f7dfc8" y="465.868"/>
    </g>
   </g>
   <g id="LineCollection_1">
    <path clip-path="url(#p7fb8df7a08)" d="M 86.48 334.18175 
L 105.08 334.18175 
" style="fill:none;stroke:#ff0000;"/>
    <path clip-path="url(#p7fb8df7a08)" d="M 160.88 334.18175 
L 179.48 334.18175 
" style="fill:none;stroke:#ff0000;"/>
    <path clip-path="url(#p7fb8df7a08)" d="M 235.28 334.18175 
L 253.88 334.18175 
" style="fill:none;stroke:#ff0000;"/>
    <path clip-path="url(#p7fb8df7a08)" d="M 309.68 334.18175 
L 328.28 334.18175 
" style="fill:none;stroke:#ff0000;"/>
    <path clip-path="url(#p7fb8df7a08)" d="M 384.08 334.18175 
L 402.68 334.18175 
" style="fill:none;stroke:#ff0000;"/>
    <path clip-path="url(#p7fb8df7a08)" d="M 458.48 334.18175 
L 477.08 334.18175 
" style="fill:none;stroke:#ff0000;"/>
    <path clip-path="url(#p7fb8df7a08)" d="M 532.88 334.18175 
L 551.48 334.18175 
" style="fill:none;stroke:#ff0000;"/>
    <path clip-path="url(#p7fb8df7a08)" d="M 607.28 334.18175 
L 625.88 334.18175 
" style="fill:none;stroke:#ff0000;"/>
   </g>
   <g id="patch_3">
    <path d="M 21.38 23.14175 
L 690.98 23.14175 
" style="fill:none;stroke:#000000;stroke-linecap:square;stroke-linejoin:miter;"/>
   </g>
   <g id="patch_4">
    <path d="M 21.38 368.74175 
L 21.38 23.14175 
" style="fill:none;stroke:#000000;stroke-linecap:square;stroke-linejoin:miter;"/>
   </g>
   <g id="patch_5">
    <path d="M 21.38 368.74175 
L 690.98 368.74175 
" style="fill:none;stroke:#000000;stroke-linecap:square;stroke-linejoin:miter;"/>
   </g>
   <g id="patch_6">
    <path d="M 690.98 368.74175 
L 690.98 23.14175 
" style="fill:none;stroke:#000000;stroke-linecap:square;stroke-linejoin:miter;"/>
   </g>
   <g id="matplotlib.axis_1">
    <g id="xtick_1">
     <g id="line2d_1">
      <defs>
       <path d="M 0 0 
L 0 -4 
" id="m3d65d82d9a" style="stroke:#000000;stroke-width:0.5;"/>
      </defs>
      <g>
       <use style="stroke:#000000;stroke-width:0.5;" x="95.78" xlink:href="#m3d65d82d9a" y="368.74175"/>
      </g>
     </g>
     <g id="line2d_2">
      <defs>
       <path d="M 0 0 
L 0 4 
" id="mcec9ac9447" style="stroke:#000000;stroke-width:0.5;"/>
      </defs>
      <g>
       <use style="stroke:#000000;stroke-width:0.5;" x="95.78" xlink:href="#mcec9ac9447" y="23.14175"/>
      </g>
     </g>
     <g id="text_1">
      <!-- Defector -->
      <defs>
       <path d="M 19.671875 64.796875 
L 19.671875 8.109375 
L 31.59375 8.109375 
Q 46.6875 8.109375 53.6875 14.9375 
Q 60.6875 21.78125 60.6875 36.53125 
Q 60.6875 51.171875 53.6875 57.984375 
Q 46.6875 64.796875 31.59375 64.796875 
z
M 9.8125 72.90625 
L 30.078125 72.90625 
Q 51.265625 72.90625 61.171875 64.09375 
Q 71.09375 55.28125 71.09375 36.53125 
Q 71.09375 17.671875 61.125 8.828125 
Q 51.171875 0 30.078125 0 
L 9.8125 0 
z
" id="BitstreamVeraSans-Roman-44"/>
       <path d="M 41.109375 46.296875 
Q 39.59375 47.171875 37.8125 47.578125 
Q 36.03125 48 33.890625 48 
Q 26.265625 48 22.1875 43.046875 
Q 18.109375 38.09375 18.109375 28.8125 
L 18.109375 0 
L 9.078125 0 
L 9.078125 54.6875 
L 18.109375 54.6875 
L 18.109375 46.1875 
Q 20.953125 51.171875 25.484375 53.578125 
Q 30.03125 56 36.53125 56 
Q 37.453125 56 38.578125 55.875 
Q 39.703125 55.765625 41.0625 55.515625 
z
" id="BitstreamVeraSans-Roman-72"/>
       <path d="M 18.3125 70.21875 
L 18.3125 54.6875 
L 36.8125 54.6875 
L 36.8125 47.703125 
L 18.3125 47.703125 
L 18.3125 18.015625 
Q 18.3125 11.328125 20.140625 9.421875 
Q 21.96875 7.515625 27.59375 7.515625 
L 36.8125 7.515625 
L 36.8125 0 
L 27.59375 0 
Q 17.1875 0 13.234375 3.875 
Q 9.28125 7.765625 9.28125 18.015625 
L 9.28125 47.703125 
L 2.6875 47.703125 
L 2.6875 54.6875 
L 9.28125 54.6875 
L 9.28125 70.21875 
z
" id="BitstreamVeraSans-Roman-74"/>
       <path d="M 30.609375 48.390625 
Q 23.390625 48.390625 19.1875 42.75 
Q 14.984375 37.109375 14.984375 27.296875 
Q 14.984375 17.484375 19.15625 11.84375 
Q 23.34375 6.203125 30.609375 6.203125 
Q 37.796875 6.203125 41.984375 11.859375 
Q 46.1875 17.53125 46.1875 27.296875 
Q 46.1875 37.015625 41.984375 42.703125 
Q 37.796875 48.390625 30.609375 48.390625 
M 30.609375 56 
Q 42.328125 56 49.015625 48.375 
Q 55.71875 40.765625 55.71875 27.296875 
Q 55.71875 13.875 49.015625 6.21875 
Q 42.328125 -1.421875 30.609375 -1.421875 
Q 18.84375 -1.421875 12.171875 6.21875 
Q 5.515625 13.875 5.515625 27.296875 
Q 5.515625 40.765625 12.171875 48.375 
Q 18.84375 56 30.609375 56 
" id="BitstreamVeraSans-Roman-6f"/>
       <path d="M 37.109375 75.984375 
L 37.109375 68.5 
L 28.515625 68.5 
Q 23.6875 68.5 21.796875 66.546875 
Q 19.921875 64.59375 19.921875 59.515625 
L 19.921875 54.6875 
L 34.71875 54.6875 
L 34.71875 47.703125 
L 19.921875 47.703125 
L 19.921875 0 
L 10.890625 0 
L 10.890625 47.703125 
L 2.296875 47.703125 
L 2.296875 54.6875 
L 10.890625 54.6875 
L 10.890625 58.5 
Q 10.890625 67.625 15.140625 71.796875 
Q 19.390625 75.984375 28.609375 75.984375 
z
" id="BitstreamVeraSans-Roman-66"/>
       <path d="M 48.78125 52.59375 
L 48.78125 44.1875 
Q 44.96875 46.296875 41.140625 47.34375 
Q 37.3125 48.390625 33.40625 48.390625 
Q 24.65625 48.390625 19.8125 42.84375 
Q 14.984375 37.3125 14.984375 27.296875 
Q 14.984375 17.28125 19.8125 11.734375 
Q 24.65625 6.203125 33.40625 6.203125 
Q 37.3125 6.203125 41.140625 7.25 
Q 44.96875 8.296875 48.78125 10.40625 
L 48.78125 2.09375 
Q 45.015625 0.34375 40.984375 -0.53125 
Q 36.96875 -1.421875 32.421875 -1.421875 
Q 20.0625 -1.421875 12.78125 6.34375 
Q 5.515625 14.109375 5.515625 27.296875 
Q 5.515625 40.671875 12.859375 48.328125 
Q 20.21875 56 33.015625 56 
Q 37.15625 56 41.109375 55.140625 
Q 45.0625 54.296875 48.78125 52.59375 
" id="BitstreamVeraSans-Roman-63"/>
       <path d="M 56.203125 29.59375 
L 56.203125 25.203125 
L 14.890625 25.203125 
Q 15.484375 15.921875 20.484375 11.0625 
Q 25.484375 6.203125 34.421875 6.203125 
Q 39.59375 6.203125 44.453125 7.46875 
Q 49.3125 8.734375 54.109375 11.28125 
L 54.109375 2.78125 
Q 49.265625 0.734375 44.1875 -0.34375 
Q 39.109375 -1.421875 33.890625 -1.421875 
Q 20.796875 -1.421875 13.15625 6.1875 
Q 5.515625 13.8125 5.515625 26.8125 
Q 5.515625 40.234375 12.765625 48.109375 
Q 20.015625 56 32.328125 56 
Q 43.359375 56 49.78125 48.890625 
Q 56.203125 41.796875 56.203125 29.59375 
M 47.21875 32.234375 
Q 47.125 39.59375 43.09375 43.984375 
Q 39.0625 48.390625 32.421875 48.390625 
Q 24.90625 48.390625 20.390625 44.140625 
Q 15.875 39.890625 15.1875 32.171875 
z
" id="BitstreamVeraSans-Roman-65"/>
      </defs>
      <g transform="translate(97.9875 407.28175)rotate(-90.0)scale(0.08 -0.08)">
       <use xlink:href="#BitstreamVeraSans-Roman-44"/>
       <use x="77.001953125" xlink:href="#BitstreamVeraSans-Roman-65"/>
       <use x="138.525390625" xlink:href="#BitstreamVeraSans-Roman-66"/>
       <use x="173.73046875" xlink:href="#BitstreamVeraSans-Roman-65"/>
       <use x="235.25390625" xlink:href="#BitstreamVeraSans-Roman-63"/>
       <use x="290.234375" xlink:href="#BitstreamVeraSans-Roman-74"/>
       <use x="329.443359375" xlink:href="#BitstreamVeraSans-Roman-6f"/>
       <use x="390.625" xlink:href="#BitstreamVeraSans-Roman-72"/>
      </g>
     </g>
    </g>
    <g id="xtick_2">
     <g id="line2d_3">
      <g>
       <use style="stroke:#000000;stroke-width:0.5;" x="170.18" xlink:href="#m3d65d82d9a" y="368.74175"/>
      </g>
     </g>
     <g id="line2d_4">
      <g>
       <use style="stroke:#000000;stroke-width:0.5;" x="170.18" xlink:href="#mcec9ac9447" y="23.14175"/>
      </g>
     </g>
     <g id="text_2">
      <!-- Bully -->
      <defs>
       <path d="M 19.671875 34.8125 
L 19.671875 8.109375 
L 35.5 8.109375 
Q 43.453125 8.109375 47.28125 11.40625 
Q 51.125 14.703125 51.125 21.484375 
Q 51.125 28.328125 47.28125 31.5625 
Q 43.453125 34.8125 35.5 34.8125 
z
M 19.671875 64.796875 
L 19.671875 42.828125 
L 34.28125 42.828125 
Q 41.5 42.828125 45.03125 45.53125 
Q 48.578125 48.25 48.578125 53.8125 
Q 48.578125 59.328125 45.03125 62.0625 
Q 41.5 64.796875 34.28125 64.796875 
z
M 9.8125 72.90625 
L 35.015625 72.90625 
Q 46.296875 72.90625 52.390625 68.21875 
Q 58.5 63.53125 58.5 54.890625 
Q 58.5 48.1875 55.375 44.234375 
Q 52.25 40.28125 46.1875 39.3125 
Q 53.46875 37.75 57.5 32.78125 
Q 61.53125 27.828125 61.53125 20.40625 
Q 61.53125 10.640625 54.890625 5.3125 
Q 48.25 0 35.984375 0 
L 9.8125 0 
z
" id="BitstreamVeraSans-Roman-42"/>
       <path d="M 9.421875 75.984375 
L 18.40625 75.984375 
L 18.40625 0 
L 9.421875 0 
z
" id="BitstreamVeraSans-Roman-6c"/>
       <path d="M 8.5 21.578125 
L 8.5 54.6875 
L 17.484375 54.6875 
L 17.484375 21.921875 
Q 17.484375 14.15625 20.5 10.265625 
Q 23.53125 6.390625 29.59375 6.390625 
Q 36.859375 6.390625 41.078125 11.03125 
Q 45.3125 15.671875 45.3125 23.6875 
L 45.3125 54.6875 
L 54.296875 54.6875 
L 54.296875 0 
L 45.3125 0 
L 45.3125 8.40625 
Q 42.046875 3.421875 37.71875 1 
Q 33.40625 -1.421875 27.6875 -1.421875 
Q 18.265625 -1.421875 13.375 4.4375 
Q 8.5 10.296875 8.5 21.578125 
" id="BitstreamVeraSans-Roman-75"/>
       <path d="M 32.171875 -5.078125 
Q 28.375 -14.84375 24.75 -17.8125 
Q 21.140625 -20.796875 15.09375 -20.796875 
L 7.90625 -20.796875 
L 7.90625 -13.28125 
L 13.1875 -13.28125 
Q 16.890625 -13.28125 18.9375 -11.515625 
Q 21 -9.765625 23.484375 -3.21875 
L 25.09375 0.875 
L 2.984375 54.6875 
L 12.5 54.6875 
L 29.59375 11.921875 
L 46.6875 54.6875 
L 56.203125 54.6875 
z
" id="BitstreamVeraSans-Roman-79"/>
      </defs>
      <g transform="translate(172.3875 392.4805)rotate(-90.0)scale(0.08 -0.08)">
       <use xlink:href="#BitstreamVeraSans-Roman-42"/>
       <use x="68.603515625" xlink:href="#BitstreamVeraSans-Roman-75"/>
       <use x="131.982421875" xlink:href="#BitstreamVeraSans-Roman-6c"/>
       <use x="159.765625" xlink:href="#BitstreamVeraSans-Roman-6c"/>
       <use x="187.548828125" xlink:href="#BitstreamVeraSans-Roman-79"/>
      </g>
     </g>
    </g>
    <g id="xtick_3">
     <g id="line2d_5">
      <g>
       <use style="stroke:#000000;stroke-width:0.5;" x="244.58" xlink:href="#m3d65d82d9a" y="368.74175"/>
      </g>
     </g>
     <g id="line2d_6">
      <g>
       <use style="stroke:#000000;stroke-width:0.5;" x="244.58" xlink:href="#mcec9ac9447" y="23.14175"/>
      </g>
     </g>
     <g id="text_3">
      <!-- Suspicious Tit For Tat -->
      <defs>
       <path d="M 34.28125 27.484375 
Q 23.390625 27.484375 19.1875 25 
Q 14.984375 22.515625 14.984375 16.5 
Q 14.984375 11.71875 18.140625 8.90625 
Q 21.296875 6.109375 26.703125 6.109375 
Q 34.1875 6.109375 38.703125 11.40625 
Q 43.21875 16.703125 43.21875 25.484375 
L 43.21875 27.484375 
z
M 52.203125 31.203125 
L 52.203125 0 
L 43.21875 0 
L 43.21875 8.296875 
Q 40.140625 3.328125 35.546875 0.953125 
Q 30.953125 -1.421875 24.3125 -1.421875 
Q 15.921875 -1.421875 10.953125 3.296875 
Q 6 8.015625 6 15.921875 
Q 6 25.140625 12.171875 29.828125 
Q 18.359375 34.515625 30.609375 34.515625 
L 43.21875 34.515625 
L 43.21875 35.40625 
Q 43.21875 41.609375 39.140625 45 
Q 35.0625 48.390625 27.6875 48.390625 
Q 23 48.390625 18.546875 47.265625 
Q 14.109375 46.140625 10.015625 43.890625 
L 10.015625 52.203125 
Q 14.9375 54.109375 19.578125 55.046875 
Q 24.21875 56 28.609375 56 
Q 40.484375 56 46.34375 49.84375 
Q 52.203125 43.703125 52.203125 31.203125 
" id="BitstreamVeraSans-Roman-61"/>
       <path d="M 18.109375 8.203125 
L 18.109375 -20.796875 
L 9.078125 -20.796875 
L 9.078125 54.6875 
L 18.109375 54.6875 
L 18.109375 46.390625 
Q 20.953125 51.265625 25.265625 53.625 
Q 29.59375 56 35.59375 56 
Q 45.5625 56 51.78125 48.09375 
Q 58.015625 40.1875 58.015625 27.296875 
Q 58.015625 14.40625 51.78125 6.484375 
Q 45.5625 -1.421875 35.59375 -1.421875 
Q 29.59375 -1.421875 25.265625 0.953125 
Q 20.953125 3.328125 18.109375 8.203125 
M 48.6875 27.296875 
Q 48.6875 37.203125 44.609375 42.84375 
Q 40.53125 48.484375 33.40625 48.484375 
Q 26.265625 48.484375 22.1875 42.84375 
Q 18.109375 37.203125 18.109375 27.296875 
Q 18.109375 17.390625 22.1875 11.75 
Q 26.265625 6.109375 33.40625 6.109375 
Q 40.53125 6.109375 44.609375 11.75 
Q 48.6875 17.390625 48.6875 27.296875 
" id="BitstreamVeraSans-Roman-70"/>
       <path d="M 44.28125 53.078125 
L 44.28125 44.578125 
Q 40.484375 46.53125 36.375 47.5 
Q 32.28125 48.484375 27.875 48.484375 
Q 21.1875 48.484375 17.84375 46.4375 
Q 14.5 44.390625 14.5 40.28125 
Q 14.5 37.15625 16.890625 35.375 
Q 19.28125 33.59375 26.515625 31.984375 
L 29.59375 31.296875 
Q 39.15625 29.25 43.1875 25.515625 
Q 47.21875 21.78125 47.21875 15.09375 
Q 47.21875 7.46875 41.1875 3.015625 
Q 35.15625 -1.421875 24.609375 -1.421875 
Q 20.21875 -1.421875 15.453125 -0.5625 
Q 10.6875 0.296875 5.421875 2 
L 5.421875 11.28125 
Q 10.40625 8.6875 15.234375 7.390625 
Q 20.0625 6.109375 24.8125 6.109375 
Q 31.15625 6.109375 34.5625 8.28125 
Q 37.984375 10.453125 37.984375 14.40625 
Q 37.984375 18.0625 35.515625 20.015625 
Q 33.0625 21.96875 24.703125 23.78125 
L 21.578125 24.515625 
Q 13.234375 26.265625 9.515625 29.90625 
Q 5.8125 33.546875 5.8125 39.890625 
Q 5.8125 47.609375 11.28125 51.796875 
Q 16.75 56 26.8125 56 
Q 31.78125 56 36.171875 55.265625 
Q 40.578125 54.546875 44.28125 53.078125 
" id="BitstreamVeraSans-Roman-73"/>
       <path d="M -0.296875 72.90625 
L 61.375 72.90625 
L 61.375 64.59375 
L 35.5 64.59375 
L 35.5 0 
L 25.59375 0 
L 25.59375 64.59375 
L -0.296875 64.59375 
z
" id="BitstreamVeraSans-Roman-54"/>
       <path id="BitstreamVeraSans-Roman-20"/>
       <path d="M 9.421875 54.6875 
L 18.40625 54.6875 
L 18.40625 0 
L 9.421875 0 
z
M 9.421875 75.984375 
L 18.40625 75.984375 
L 18.40625 64.59375 
L 9.421875 64.59375 
z
" id="BitstreamVeraSans-Roman-69"/>
       <path d="M 9.8125 72.90625 
L 51.703125 72.90625 
L 51.703125 64.59375 
L 19.671875 64.59375 
L 19.671875 43.109375 
L 48.578125 43.109375 
L 48.578125 34.8125 
L 19.671875 34.8125 
L 19.671875 0 
L 9.8125 0 
z
" id="BitstreamVeraSans-Roman-46"/>
       <path d="M 53.515625 70.515625 
L 53.515625 60.890625 
Q 47.90625 63.578125 42.921875 64.890625 
Q 37.9375 66.21875 33.296875 66.21875 
Q 25.25 66.21875 20.875 63.09375 
Q 16.5 59.96875 16.5 54.203125 
Q 16.5 49.359375 19.40625 46.890625 
Q 22.3125 44.4375 30.421875 42.921875 
L 36.375 41.703125 
Q 47.40625 39.59375 52.65625 34.296875 
Q 57.90625 29 57.90625 20.125 
Q 57.90625 9.515625 50.796875 4.046875 
Q 43.703125 -1.421875 29.984375 -1.421875 
Q 24.8125 -1.421875 18.96875 -0.25 
Q 13.140625 0.921875 6.890625 3.21875 
L 6.890625 13.375 
Q 12.890625 10.015625 18.65625 8.296875 
Q 24.421875 6.59375 29.984375 6.59375 
Q 38.421875 6.59375 43.015625 9.90625 
Q 47.609375 13.234375 47.609375 19.390625 
Q 47.609375 24.75 44.3125 27.78125 
Q 41.015625 30.8125 33.5 32.328125 
L 27.484375 33.5 
Q 16.453125 35.6875 11.515625 40.375 
Q 6.59375 45.0625 6.59375 53.421875 
Q 6.59375 63.09375 13.40625 68.65625 
Q 20.21875 74.21875 32.171875 74.21875 
Q 37.3125 74.21875 42.625 73.28125 
Q 47.953125 72.359375 53.515625 70.515625 
" id="BitstreamVeraSans-Roman-53"/>
      </defs>
      <g transform="translate(246.7875 458.668)rotate(-90.0)scale(0.08 -0.08)">
       <use xlink:href="#BitstreamVeraSans-Roman-53"/>
       <use x="63.4765625" xlink:href="#BitstreamVeraSans-Roman-75"/>
       <use x="126.85546875" xlink:href="#BitstreamVeraSans-Roman-73"/>
       <use x="178.955078125" xlink:href="#BitstreamVeraSans-Roman-70"/>
       <use x="242.431640625" xlink:href="#BitstreamVeraSans-Roman-69"/>
       <use x="270.21484375" xlink:href="#BitstreamVeraSans-Roman-63"/>
       <use x="325.1953125" xlink:href="#BitstreamVeraSans-Roman-69"/>
       <use x="352.978515625" xlink:href="#BitstreamVeraSans-Roman-6f"/>
       <use x="414.16015625" xlink:href="#BitstreamVeraSans-Roman-75"/>
       <use x="477.5390625" xlink:href="#BitstreamVeraSans-Roman-73"/>
       <use x="529.638671875" xlink:href="#BitstreamVeraSans-Roman-20"/>
       <use x="561.42578125" xlink:href="#BitstreamVeraSans-Roman-54"/>
       <use x="622.462890625" xlink:href="#BitstreamVeraSans-Roman-69"/>
       <use x="650.24609375" xlink:href="#BitstreamVeraSans-Roman-74"/>
       <use x="689.455078125" xlink:href="#BitstreamVeraSans-Roman-20"/>
       <use x="721.2421875" xlink:href="#BitstreamVeraSans-Roman-46"/>
       <use x="778.71484375" xlink:href="#BitstreamVeraSans-Roman-6f"/>
       <use x="839.896484375" xlink:href="#BitstreamVeraSans-Roman-72"/>
       <use x="881.009765625" xlink:href="#BitstreamVeraSans-Roman-20"/>
       <use x="912.796875" xlink:href="#BitstreamVeraSans-Roman-54"/>
       <use x="973.630859375" xlink:href="#BitstreamVeraSans-Roman-61"/>
       <use x="1034.91015625" xlink:href="#BitstreamVeraSans-Roman-74"/>
      </g>
     </g>
    </g>
    <g id="xtick_4">
     <g id="line2d_7">
      <g>
       <use style="stroke:#000000;stroke-width:0.5;" x="318.98" xlink:href="#m3d65d82d9a" y="368.74175"/>
      </g>
     </g>
     <g id="line2d_8">
      <g>
       <use style="stroke:#000000;stroke-width:0.5;" x="318.98" xlink:href="#mcec9ac9447" y="23.14175"/>
      </g>
     </g>
     <g id="text_4">
      <!-- Tit For Tat -->
      <g transform="translate(321.1875 413.75425)rotate(-90.0)scale(0.08 -0.08)">
       <use xlink:href="#BitstreamVeraSans-Roman-54"/>
       <use x="61.037109375" xlink:href="#BitstreamVeraSans-Roman-69"/>
       <use x="88.8203125" xlink:href="#BitstreamVeraSans-Roman-74"/>
       <use x="128.029296875" xlink:href="#BitstreamVeraSans-Roman-20"/>
       <use x="159.81640625" xlink:href="#BitstreamVeraSans-Roman-46"/>
       <use x="217.2890625" xlink:href="#BitstreamVeraSans-Roman-6f"/>
       <use x="278.470703125" xlink:href="#BitstreamVeraSans-Roman-72"/>
       <use x="319.583984375" xlink:href="#BitstreamVeraSans-Roman-20"/>
       <use x="351.37109375" xlink:href="#BitstreamVeraSans-Roman-54"/>
       <use x="412.205078125" xlink:href="#BitstreamVeraSans-Roman-61"/>
       <use x="473.484375" xlink:href="#BitstreamVeraSans-Roman-74"/>
      </g>
     </g>
    </g>
    <g id="xtick_5">
     <g id="line2d_9">
      <g>
       <use style="stroke:#000000;stroke-width:0.5;" x="393.38" xlink:href="#m3d65d82d9a" y="368.74175"/>
      </g>
     </g>
     <g id="line2d_10">
      <g>
       <use style="stroke:#000000;stroke-width:0.5;" x="393.38" xlink:href="#mcec9ac9447" y="23.14175"/>
      </g>
     </g>
     <g id="text_5">
      <!-- Alternator -->
      <defs>
       <path d="M 54.890625 33.015625 
L 54.890625 0 
L 45.90625 0 
L 45.90625 32.71875 
Q 45.90625 40.484375 42.875 44.328125 
Q 39.84375 48.1875 33.796875 48.1875 
Q 26.515625 48.1875 22.3125 43.546875 
Q 18.109375 38.921875 18.109375 30.90625 
L 18.109375 0 
L 9.078125 0 
L 9.078125 54.6875 
L 18.109375 54.6875 
L 18.109375 46.1875 
Q 21.34375 51.125 25.703125 53.5625 
Q 30.078125 56 35.796875 56 
Q 45.21875 56 50.046875 50.171875 
Q 54.890625 44.34375 54.890625 33.015625 
" id="BitstreamVeraSans-Roman-6e"/>
       <path d="M 34.1875 63.1875 
L 20.796875 26.90625 
L 47.609375 26.90625 
z
M 28.609375 72.90625 
L 39.796875 72.90625 
L 67.578125 0 
L 57.328125 0 
L 50.6875 18.703125 
L 17.828125 18.703125 
L 11.1875 0 
L 0.78125 0 
z
" id="BitstreamVeraSans-Roman-41"/>
      </defs>
      <g transform="translate(395.5875 413.0755)rotate(-90.0)scale(0.08 -0.08)">
       <use xlink:href="#BitstreamVeraSans-Roman-41"/>
       <use x="68.408203125" xlink:href="#BitstreamVeraSans-Roman-6c"/>
       <use x="96.19140625" xlink:href="#BitstreamVeraSans-Roman-74"/>
       <use x="135.400390625" xlink:href="#BitstreamVeraSans-Roman-65"/>
       <use x="196.923828125" xlink:href="#BitstreamVeraSans-Roman-72"/>
       <use x="238.021484375" xlink:href="#BitstreamVeraSans-Roman-6e"/>
       <use x="301.400390625" xlink:href="#BitstreamVeraSans-Roman-61"/>
       <use x="362.6796875" xlink:href="#BitstreamVeraSans-Roman-74"/>
       <use x="401.888671875" xlink:href="#BitstreamVeraSans-Roman-6f"/>
       <use x="463.0703125" xlink:href="#BitstreamVeraSans-Roman-72"/>
      </g>
     </g>
    </g>
    <g id="xtick_6">
     <g id="line2d_11">
      <g>
       <use style="stroke:#000000;stroke-width:0.5;" x="467.78" xlink:href="#m3d65d82d9a" y="368.74175"/>
      </g>
     </g>
     <g id="line2d_12">
      <g>
       <use style="stroke:#000000;stroke-width:0.5;" x="467.78" xlink:href="#mcec9ac9447" y="23.14175"/>
      </g>
     </g>
     <g id="text_6">
      <!-- Anti Tit For Tat -->
      <g transform="translate(469.9875 432.198)rotate(-90.0)scale(0.08 -0.08)">
       <use xlink:href="#BitstreamVeraSans-Roman-41"/>
       <use x="68.408203125" xlink:href="#BitstreamVeraSans-Roman-6e"/>
       <use x="131.787109375" xlink:href="#BitstreamVeraSans-Roman-74"/>
       <use x="170.99609375" xlink:href="#BitstreamVeraSans-Roman-69"/>
       <use x="198.779296875" xlink:href="#BitstreamVeraSans-Roman-20"/>
       <use x="230.56640625" xlink:href="#BitstreamVeraSans-Roman-54"/>
       <use x="291.603515625" xlink:href="#BitstreamVeraSans-Roman-69"/>
       <use x="319.38671875" xlink:href="#BitstreamVeraSans-Roman-74"/>
       <use x="358.595703125" xlink:href="#BitstreamVeraSans-Roman-20"/>
       <use x="390.3828125" xlink:href="#BitstreamVeraSans-Roman-46"/>
       <use x="447.85546875" xlink:href="#BitstreamVeraSans-Roman-6f"/>
       <use x="509.037109375" xlink:href="#BitstreamVeraSans-Roman-72"/>
       <use x="550.150390625" xlink:href="#BitstreamVeraSans-Roman-20"/>
       <use x="581.9375" xlink:href="#BitstreamVeraSans-Roman-54"/>
       <use x="642.771484375" xlink:href="#BitstreamVeraSans-Roman-61"/>
       <use x="704.05078125" xlink:href="#BitstreamVeraSans-Roman-74"/>
      </g>
     </g>
    </g>
    <g id="xtick_7">
     <g id="line2d_13">
      <g>
       <use style="stroke:#000000;stroke-width:0.5;" x="542.18" xlink:href="#m3d65d82d9a" y="368.74175"/>
      </g>
     </g>
     <g id="line2d_14">
      <g>
       <use style="stroke:#000000;stroke-width:0.5;" x="542.18" xlink:href="#mcec9ac9447" y="23.14175"/>
      </g>
     </g>
     <g id="text_7">
      <!-- Win-Stay Lose-Shift -->
      <defs>
       <path d="M 9.8125 72.90625 
L 19.671875 72.90625 
L 19.671875 8.296875 
L 55.171875 8.296875 
L 55.171875 0 
L 9.8125 0 
z
" id="BitstreamVeraSans-Roman-4c"/>
       <path d="M 4.890625 31.390625 
L 31.203125 31.390625 
L 31.203125 23.390625 
L 4.890625 23.390625 
z
" id="BitstreamVeraSans-Roman-2d"/>
       <path d="M 3.328125 72.90625 
L 13.28125 72.90625 
L 28.609375 11.28125 
L 43.890625 72.90625 
L 54.984375 72.90625 
L 70.3125 11.28125 
L 85.59375 72.90625 
L 95.609375 72.90625 
L 77.296875 0 
L 64.890625 0 
L 49.515625 63.28125 
L 33.984375 0 
L 21.578125 0 
z
" id="BitstreamVeraSans-Roman-57"/>
       <path d="M 54.890625 33.015625 
L 54.890625 0 
L 45.90625 0 
L 45.90625 32.71875 
Q 45.90625 40.484375 42.875 44.328125 
Q 39.84375 48.1875 33.796875 48.1875 
Q 26.515625 48.1875 22.3125 43.546875 
Q 18.109375 38.921875 18.109375 30.90625 
L 18.109375 0 
L 9.078125 0 
L 9.078125 75.984375 
L 18.109375 75.984375 
L 18.109375 46.1875 
Q 21.34375 51.125 25.703125 53.5625 
Q 30.078125 56 35.796875 56 
Q 45.21875 56 50.046875 50.171875 
Q 54.890625 44.34375 54.890625 33.015625 
" id="BitstreamVeraSans-Roman-68"/>
      </defs>
      <g transform="translate(544.3875 450.873)rotate(-90.0)scale(0.08 -0.08)">
       <use xlink:href="#BitstreamVeraSans-Roman-57"/>
       <use x="98.845703125" xlink:href="#BitstreamVeraSans-Roman-69"/>
       <use x="126.62890625" xlink:href="#BitstreamVeraSans-Roman-6e"/>
       <use x="190.0078125" xlink:href="#BitstreamVeraSans-Roman-2d"/>
       <use x="226.091796875" xlink:href="#BitstreamVeraSans-Roman-53"/>
       <use x="289.568359375" xlink:href="#BitstreamVeraSans-Roman-74"/>
       <use x="328.77734375" xlink:href="#BitstreamVeraSans-Roman-61"/>
       <use x="390.056640625" xlink:href="#BitstreamVeraSans-Roman-79"/>
       <use x="449.236328125" xlink:href="#BitstreamVeraSans-Roman-20"/>
       <use x="481.0234375" xlink:href="#BitstreamVeraSans-Roman-4c"/>
       <use x="536.720703125" xlink:href="#BitstreamVeraSans-Roman-6f"/>
       <use x="597.90234375" xlink:href="#BitstreamVeraSans-Roman-73"/>
       <use x="650.001953125" xlink:href="#BitstreamVeraSans-Roman-65"/>
       <use x="711.525390625" xlink:href="#BitstreamVeraSans-Roman-2d"/>
       <use x="747.609375" xlink:href="#BitstreamVeraSans-Roman-53"/>
       <use x="811.0859375" xlink:href="#BitstreamVeraSans-Roman-68"/>
       <use x="874.46484375" xlink:href="#BitstreamVeraSans-Roman-69"/>
       <use x="902.248046875" xlink:href="#BitstreamVeraSans-Roman-66"/>
       <use x="937.4375" xlink:href="#BitstreamVeraSans-Roman-74"/>
      </g>
     </g>
    </g>
    <g id="xtick_8">
     <g id="line2d_15">
      <g>
       <use style="stroke:#000000;stroke-width:0.5;" x="616.58" xlink:href="#m3d65d82d9a" y="368.74175"/>
      </g>
     </g>
     <g id="line2d_16">
      <g>
       <use style="stroke:#000000;stroke-width:0.5;" x="616.58" xlink:href="#mcec9ac9447" y="23.14175"/>
      </g>
     </g>
     <g id="text_8">
      <!-- Cooperator -->
      <defs>
       <path d="M 64.40625 67.28125 
L 64.40625 56.890625 
Q 59.421875 61.53125 53.78125 63.8125 
Q 48.140625 66.109375 41.796875 66.109375 
Q 29.296875 66.109375 22.65625 58.46875 
Q 16.015625 50.828125 16.015625 36.375 
Q 16.015625 21.96875 22.65625 14.328125 
Q 29.296875 6.6875 41.796875 6.6875 
Q 48.140625 6.6875 53.78125 8.984375 
Q 59.421875 11.28125 64.40625 15.921875 
L 64.40625 5.609375 
Q 59.234375 2.09375 53.4375 0.328125 
Q 47.65625 -1.421875 41.21875 -1.421875 
Q 24.65625 -1.421875 15.125 8.703125 
Q 5.609375 18.84375 5.609375 36.375 
Q 5.609375 53.953125 15.125 64.078125 
Q 24.65625 74.21875 41.21875 74.21875 
Q 47.75 74.21875 53.53125 72.484375 
Q 59.328125 70.75 64.40625 67.28125 
" id="BitstreamVeraSans-Roman-43"/>
      </defs>
      <g transform="translate(618.7875 417.6305)rotate(-90.0)scale(0.08 -0.08)">
       <use xlink:href="#BitstreamVeraSans-Roman-43"/>
       <use x="69.82421875" xlink:href="#BitstreamVeraSans-Roman-6f"/>
       <use x="131.005859375" xlink:href="#BitstreamVeraSans-Roman-6f"/>
       <use x="192.1875" xlink:href="#BitstreamVeraSans-Roman-70"/>
       <use x="255.6640625" xlink:href="#BitstreamVeraSans-Roman-65"/>
       <use x="317.1875" xlink:href="#BitstreamVeraSans-Roman-72"/>
       <use x="358.30078125" xlink:href="#BitstreamVeraSans-Roman-61"/>
       <use x="419.580078125" xlink:href="#BitstreamVeraSans-Roman-74"/>
       <use x="458.7890625" xlink:href="#BitstreamVeraSans-Roman-6f"/>
       <use x="519.970703125" xlink:href="#BitstreamVeraSans-Roman-72"/>
      </g>
     </g>
    </g>
   </g>
   <g id="matplotlib.axis_2">
    <g id="ytick_1">
     <g id="line2d_17">
      <defs>
       <path d="M 0 0 
L 4 0 
" id="mc91dcd8e17" style="stroke:#000000;stroke-width:0.5;"/>
      </defs>
      <g>
       <use style="stroke:#000000;stroke-width:0.5;" x="21.38" xlink:href="#mc91dcd8e17" y="368.74175"/>
      </g>
     </g>
     <g id="line2d_18">
      <defs>
       <path d="M 0 0 
L -4 0 
" id="m3865bf780e" style="stroke:#000000;stroke-width:0.5;"/>
      </defs>
      <g>
       <use style="stroke:#000000;stroke-width:0.5;" x="690.98" xlink:href="#m3865bf780e" y="368.74175"/>
      </g>
     </g>
     <g id="text_9">
      <!-- 0 -->
      <defs>
       <path d="M 31.78125 66.40625 
Q 24.171875 66.40625 20.328125 58.90625 
Q 16.5 51.421875 16.5 36.375 
Q 16.5 21.390625 20.328125 13.890625 
Q 24.171875 6.390625 31.78125 6.390625 
Q 39.453125 6.390625 43.28125 13.890625 
Q 47.125 21.390625 47.125 36.375 
Q 47.125 51.421875 43.28125 58.90625 
Q 39.453125 66.40625 31.78125 66.40625 
M 31.78125 74.21875 
Q 44.046875 74.21875 50.515625 64.515625 
Q 56.984375 54.828125 56.984375 36.375 
Q 56.984375 17.96875 50.515625 8.265625 
Q 44.046875 -1.421875 31.78125 -1.421875 
Q 19.53125 -1.421875 13.0625 8.265625 
Q 6.59375 17.96875 6.59375 36.375 
Q 6.59375 54.828125 13.0625 64.515625 
Q 19.53125 74.21875 31.78125 74.21875 
" id="BitstreamVeraSans-Roman-30"/>
      </defs>
      <g transform="translate(12.29 370.94925)scale(0.08 -0.08)">
       <use xlink:href="#BitstreamVeraSans-Roman-30"/>
      </g>
     </g>
    </g>
    <g id="ytick_2">
     <g id="line2d_19">
      <g>
       <use style="stroke:#000000;stroke-width:0.5;" x="21.38" xlink:href="#mc91dcd8e17" y="319.370321429"/>
      </g>
     </g>
     <g id="line2d_20">
      <g>
       <use style="stroke:#000000;stroke-width:0.5;" x="690.98" xlink:href="#m3865bf780e" y="319.370321429"/>
      </g>
     </g>
     <g id="text_10">
      <!-- 10 -->
      <defs>
       <path d="M 12.40625 8.296875 
L 28.515625 8.296875 
L 28.515625 63.921875 
L 10.984375 60.40625 
L 10.984375 69.390625 
L 28.421875 72.90625 
L 38.28125 72.90625 
L 38.28125 8.296875 
L 54.390625 8.296875 
L 54.390625 0 
L 12.40625 0 
z
" id="BitstreamVeraSans-Roman-31"/>
      </defs>
      <g transform="translate(7.2 321.577821429)scale(0.08 -0.08)">
       <use xlink:href="#BitstreamVeraSans-Roman-31"/>
       <use x="63.623046875" xlink:href="#BitstreamVeraSans-Roman-30"/>
      </g>
     </g>
    </g>
    <g id="ytick_3">
     <g id="line2d_21">
      <g>
       <use style="stroke:#000000;stroke-width:0.5;" x="21.38" xlink:href="#mc91dcd8e17" y="269.998892857"/>
      </g>
     </g>
     <g id="line2d_22">
      <g>
       <use style="stroke:#000000;stroke-width:0.5;" x="690.98" xlink:href="#m3865bf780e" y="269.998892857"/>
      </g>
     </g>
     <g id="text_11">
      <!-- 20 -->
      <defs>
       <path d="M 19.1875 8.296875 
L 53.609375 8.296875 
L 53.609375 0 
L 7.328125 0 
L 7.328125 8.296875 
Q 12.9375 14.109375 22.625 23.890625 
Q 32.328125 33.6875 34.8125 36.53125 
Q 39.546875 41.84375 41.421875 45.53125 
Q 43.3125 49.21875 43.3125 52.78125 
Q 43.3125 58.59375 39.234375 62.25 
Q 35.15625 65.921875 28.609375 65.921875 
Q 23.96875 65.921875 18.8125 64.3125 
Q 13.671875 62.703125 7.8125 59.421875 
L 7.8125 69.390625 
Q 13.765625 71.78125 18.9375 73 
Q 24.125 74.21875 28.421875 74.21875 
Q 39.75 74.21875 46.484375 68.546875 
Q 53.21875 62.890625 53.21875 53.421875 
Q 53.21875 48.921875 51.53125 44.890625 
Q 49.859375 40.875 45.40625 35.40625 
Q 44.1875 33.984375 37.640625 27.21875 
Q 31.109375 20.453125 19.1875 8.296875 
" id="BitstreamVeraSans-Roman-32"/>
      </defs>
      <g transform="translate(7.2 272.206392857)scale(0.08 -0.08)">
       <use xlink:href="#BitstreamVeraSans-Roman-32"/>
       <use x="63.623046875" xlink:href="#BitstreamVeraSans-Roman-30"/>
      </g>
     </g>
    </g>
    <g id="ytick_4">
     <g id="line2d_23">
      <g>
       <use style="stroke:#000000;stroke-width:0.5;" x="21.38" xlink:href="#mc91dcd8e17" y="220.627464286"/>
      </g>
     </g>
     <g id="line2d_24">
      <g>
       <use style="stroke:#000000;stroke-width:0.5;" x="690.98" xlink:href="#m3865bf780e" y="220.627464286"/>
      </g>
     </g>
     <g id="text_12">
      <!-- 30 -->
      <defs>
       <path d="M 40.578125 39.3125 
Q 47.65625 37.796875 51.625 33 
Q 55.609375 28.21875 55.609375 21.1875 
Q 55.609375 10.40625 48.1875 4.484375 
Q 40.765625 -1.421875 27.09375 -1.421875 
Q 22.515625 -1.421875 17.65625 -0.515625 
Q 12.796875 0.390625 7.625 2.203125 
L 7.625 11.71875 
Q 11.71875 9.328125 16.59375 8.109375 
Q 21.484375 6.890625 26.8125 6.890625 
Q 36.078125 6.890625 40.9375 10.546875 
Q 45.796875 14.203125 45.796875 21.1875 
Q 45.796875 27.640625 41.28125 31.265625 
Q 36.765625 34.90625 28.71875 34.90625 
L 20.21875 34.90625 
L 20.21875 43.015625 
L 29.109375 43.015625 
Q 36.375 43.015625 40.234375 45.921875 
Q 44.09375 48.828125 44.09375 54.296875 
Q 44.09375 59.90625 40.109375 62.90625 
Q 36.140625 65.921875 28.71875 65.921875 
Q 24.65625 65.921875 20.015625 65.03125 
Q 15.375 64.15625 9.8125 62.3125 
L 9.8125 71.09375 
Q 15.4375 72.65625 20.34375 73.4375 
Q 25.25 74.21875 29.59375 74.21875 
Q 40.828125 74.21875 47.359375 69.109375 
Q 53.90625 64.015625 53.90625 55.328125 
Q 53.90625 49.265625 50.4375 45.09375 
Q 46.96875 40.921875 40.578125 39.3125 
" id="BitstreamVeraSans-Roman-33"/>
      </defs>
      <g transform="translate(7.2 222.834964286)scale(0.08 -0.08)">
       <use xlink:href="#BitstreamVeraSans-Roman-33"/>
       <use x="63.623046875" xlink:href="#BitstreamVeraSans-Roman-30"/>
      </g>
     </g>
    </g>
    <g id="ytick_5">
     <g id="line2d_25">
      <g>
       <use style="stroke:#000000;stroke-width:0.5;" x="21.38" xlink:href="#mc91dcd8e17" y="171.256035714"/>
      </g>
     </g>
     <g id="line2d_26">
      <g>
       <use style="stroke:#000000;stroke-width:0.5;" x="690.98" xlink:href="#m3865bf780e" y="171.256035714"/>
      </g>
     </g>
     <g id="text_13">
      <!-- 40 -->
      <defs>
       <path d="M 37.796875 64.3125 
L 12.890625 25.390625 
L 37.796875 25.390625 
z
M 35.203125 72.90625 
L 47.609375 72.90625 
L 47.609375 25.390625 
L 58.015625 25.390625 
L 58.015625 17.1875 
L 47.609375 17.1875 
L 47.609375 0 
L 37.796875 0 
L 37.796875 17.1875 
L 4.890625 17.1875 
L 4.890625 26.703125 
z
" id="BitstreamVeraSans-Roman-34"/>
      </defs>
      <g transform="translate(7.2 173.463535714)scale(0.08 -0.08)">
       <use xlink:href="#BitstreamVeraSans-Roman-34"/>
       <use x="63.623046875" xlink:href="#BitstreamVeraSans-Roman-30"/>
      </g>
     </g>
    </g>
    <g id="ytick_6">
     <g id="line2d_27">
      <g>
       <use style="stroke:#000000;stroke-width:0.5;" x="21.38" xlink:href="#mc91dcd8e17" y="121.884607143"/>
      </g>
     </g>
     <g id="line2d_28">
      <g>
       <use style="stroke:#000000;stroke-width:0.5;" x="690.98" xlink:href="#m3865bf780e" y="121.884607143"/>
      </g>
     </g>
     <g id="text_14">
      <!-- 50 -->
      <defs>
       <path d="M 10.796875 72.90625 
L 49.515625 72.90625 
L 49.515625 64.59375 
L 19.828125 64.59375 
L 19.828125 46.734375 
Q 21.96875 47.46875 24.109375 47.828125 
Q 26.265625 48.1875 28.421875 48.1875 
Q 40.625 48.1875 47.75 41.5 
Q 54.890625 34.8125 54.890625 23.390625 
Q 54.890625 11.625 47.5625 5.09375 
Q 40.234375 -1.421875 26.90625 -1.421875 
Q 22.3125 -1.421875 17.546875 -0.640625 
Q 12.796875 0.140625 7.71875 1.703125 
L 7.71875 11.625 
Q 12.109375 9.234375 16.796875 8.0625 
Q 21.484375 6.890625 26.703125 6.890625 
Q 35.15625 6.890625 40.078125 11.328125 
Q 45.015625 15.765625 45.015625 23.390625 
Q 45.015625 31 40.078125 35.4375 
Q 35.15625 39.890625 26.703125 39.890625 
Q 22.75 39.890625 18.8125 39.015625 
Q 14.890625 38.140625 10.796875 36.28125 
z
" id="BitstreamVeraSans-Roman-35"/>
      </defs>
      <g transform="translate(7.2 124.092107143)scale(0.08 -0.08)">
       <use xlink:href="#BitstreamVeraSans-Roman-35"/>
       <use x="63.623046875" xlink:href="#BitstreamVeraSans-Roman-30"/>
      </g>
     </g>
    </g>
    <g id="ytick_7">
     <g id="line2d_29">
      <g>
       <use style="stroke:#000000;stroke-width:0.5;" x="21.38" xlink:href="#mc91dcd8e17" y="72.5131785714"/>
      </g>
     </g>
     <g id="line2d_30">
      <g>
       <use style="stroke:#000000;stroke-width:0.5;" x="690.98" xlink:href="#m3865bf780e" y="72.5131785714"/>
      </g>
     </g>
     <g id="text_15">
      <!-- 60 -->
      <defs>
       <path d="M 33.015625 40.375 
Q 26.375 40.375 22.484375 35.828125 
Q 18.609375 31.296875 18.609375 23.390625 
Q 18.609375 15.53125 22.484375 10.953125 
Q 26.375 6.390625 33.015625 6.390625 
Q 39.65625 6.390625 43.53125 10.953125 
Q 47.40625 15.53125 47.40625 23.390625 
Q 47.40625 31.296875 43.53125 35.828125 
Q 39.65625 40.375 33.015625 40.375 
M 52.59375 71.296875 
L 52.59375 62.3125 
Q 48.875 64.0625 45.09375 64.984375 
Q 41.3125 65.921875 37.59375 65.921875 
Q 27.828125 65.921875 22.671875 59.328125 
Q 17.53125 52.734375 16.796875 39.40625 
Q 19.671875 43.65625 24.015625 45.921875 
Q 28.375 48.1875 33.59375 48.1875 
Q 44.578125 48.1875 50.953125 41.515625 
Q 57.328125 34.859375 57.328125 23.390625 
Q 57.328125 12.15625 50.6875 5.359375 
Q 44.046875 -1.421875 33.015625 -1.421875 
Q 20.359375 -1.421875 13.671875 8.265625 
Q 6.984375 17.96875 6.984375 36.375 
Q 6.984375 53.65625 15.1875 63.9375 
Q 23.390625 74.21875 37.203125 74.21875 
Q 40.921875 74.21875 44.703125 73.484375 
Q 48.484375 72.75 52.59375 71.296875 
" id="BitstreamVeraSans-Roman-36"/>
      </defs>
      <g transform="translate(7.2 74.7206785714)scale(0.08 -0.08)">
       <use xlink:href="#BitstreamVeraSans-Roman-36"/>
       <use x="63.623046875" xlink:href="#BitstreamVeraSans-Roman-30"/>
      </g>
     </g>
    </g>
    <g id="ytick_8">
     <g id="line2d_31">
      <g>
       <use style="stroke:#000000;stroke-width:0.5;" x="21.38" xlink:href="#mc91dcd8e17" y="23.14175"/>
      </g>
     </g>
     <g id="line2d_32">
      <g>
       <use style="stroke:#000000;stroke-width:0.5;" x="690.98" xlink:href="#m3865bf780e" y="23.14175"/>
      </g>
     </g>
     <g id="text_16">
      <!-- 70 -->
      <defs>
       <path d="M 8.203125 72.90625 
L 55.078125 72.90625 
L 55.078125 68.703125 
L 28.609375 0 
L 18.3125 0 
L 43.21875 64.59375 
L 8.203125 64.59375 
z
" id="BitstreamVeraSans-Roman-37"/>
      </defs>
      <g transform="translate(7.2 25.34925)scale(0.08 -0.08)">
       <use xlink:href="#BitstreamVeraSans-Roman-37"/>
       <use x="63.623046875" xlink:href="#BitstreamVeraSans-Roman-30"/>
      </g>
     </g>
    </g>
   </g>
   <g id="text_17">
    <!-- Lengths. Prob end: 0.1, Repetitions: 100, Strategies: 8. -->
    <defs>
     <path d="M 48.6875 27.296875 
Q 48.6875 37.203125 44.609375 42.84375 
Q 40.53125 48.484375 33.40625 48.484375 
Q 26.265625 48.484375 22.1875 42.84375 
Q 18.109375 37.203125 18.109375 27.296875 
Q 18.109375 17.390625 22.1875 11.75 
Q 26.265625 6.109375 33.40625 6.109375 
Q 40.53125 6.109375 44.609375 11.75 
Q 48.6875 17.390625 48.6875 27.296875 
M 18.109375 46.390625 
Q 20.953125 51.265625 25.265625 53.625 
Q 29.59375 56 35.59375 56 
Q 45.5625 56 51.78125 48.09375 
Q 58.015625 40.1875 58.015625 27.296875 
Q 58.015625 14.40625 51.78125 6.484375 
Q 45.5625 -1.421875 35.59375 -1.421875 
Q 29.59375 -1.421875 25.265625 0.953125 
Q 20.953125 3.328125 18.109375 8.203125 
L 18.109375 0 
L 9.078125 0 
L 9.078125 75.984375 
L 18.109375 75.984375 
z
" id="BitstreamVeraSans-Roman-62"/>
     <path d="M 44.390625 34.1875 
Q 47.5625 33.109375 50.5625 29.59375 
Q 53.5625 26.078125 56.59375 19.921875 
L 66.609375 0 
L 56 0 
L 46.6875 18.703125 
Q 43.0625 26.03125 39.671875 28.421875 
Q 36.28125 30.8125 30.421875 30.8125 
L 19.671875 30.8125 
L 19.671875 0 
L 9.8125 0 
L 9.8125 72.90625 
L 32.078125 72.90625 
Q 44.578125 72.90625 50.734375 67.671875 
Q 56.890625 62.453125 56.890625 51.90625 
Q 56.890625 45.015625 53.6875 40.46875 
Q 50.484375 35.9375 44.390625 34.1875 
M 19.671875 64.796875 
L 19.671875 38.921875 
L 32.078125 38.921875 
Q 39.203125 38.921875 42.84375 42.21875 
Q 46.484375 45.515625 46.484375 51.90625 
Q 46.484375 58.296875 42.84375 61.546875 
Q 39.203125 64.796875 32.078125 64.796875 
z
" id="BitstreamVeraSans-Roman-52"/>
     <path d="M 19.671875 64.796875 
L 19.671875 37.40625 
L 32.078125 37.40625 
Q 38.96875 37.40625 42.71875 40.96875 
Q 46.484375 44.53125 46.484375 51.125 
Q 46.484375 57.671875 42.71875 61.234375 
Q 38.96875 64.796875 32.078125 64.796875 
z
M 9.8125 72.90625 
L 32.078125 72.90625 
Q 44.34375 72.90625 50.609375 67.359375 
Q 56.890625 61.8125 56.890625 51.125 
Q 56.890625 40.328125 50.609375 34.8125 
Q 44.34375 29.296875 32.078125 29.296875 
L 19.671875 29.296875 
L 19.671875 0 
L 9.8125 0 
z
" id="BitstreamVeraSans-Roman-50"/>
     <path d="M 45.40625 27.984375 
Q 45.40625 37.75 41.375 43.109375 
Q 37.359375 48.484375 30.078125 48.484375 
Q 22.859375 48.484375 18.828125 43.109375 
Q 14.796875 37.75 14.796875 27.984375 
Q 14.796875 18.265625 18.828125 12.890625 
Q 22.859375 7.515625 30.078125 7.515625 
Q 37.359375 7.515625 41.375 12.890625 
Q 45.40625 18.265625 45.40625 27.984375 
M 54.390625 6.78125 
Q 54.390625 -7.171875 48.1875 -13.984375 
Q 42 -20.796875 29.203125 -20.796875 
Q 24.46875 -20.796875 20.265625 -20.09375 
Q 16.0625 -19.390625 12.109375 -17.921875 
L 12.109375 -9.1875 
Q 16.0625 -11.328125 19.921875 -12.34375 
Q 23.78125 -13.375 27.78125 -13.375 
Q 36.625 -13.375 41.015625 -8.765625 
Q 45.40625 -4.15625 45.40625 5.171875 
L 45.40625 9.625 
Q 42.625 4.78125 38.28125 2.390625 
Q 33.9375 0 27.875 0 
Q 17.828125 0 11.671875 7.65625 
Q 5.515625 15.328125 5.515625 27.984375 
Q 5.515625 40.671875 11.671875 48.328125 
Q 17.828125 56 27.875 56 
Q 33.9375 56 38.28125 53.609375 
Q 42.625 51.21875 45.40625 46.390625 
L 45.40625 54.6875 
L 54.390625 54.6875 
z
" id="BitstreamVeraSans-Roman-67"/>
     <path d="M 11.71875 12.40625 
L 22.015625 12.40625 
L 22.015625 4 
L 14.015625 -11.625 
L 7.71875 -11.625 
L 11.71875 4 
z
" id="BitstreamVeraSans-Roman-2c"/>
     <path d="M 11.71875 12.40625 
L 22.015625 12.40625 
L 22.015625 0 
L 11.71875 0 
z
M 11.71875 51.703125 
L 22.015625 51.703125 
L 22.015625 39.3125 
L 11.71875 39.3125 
z
" id="BitstreamVeraSans-Roman-3a"/>
     <path d="M 31.78125 34.625 
Q 24.75 34.625 20.71875 30.859375 
Q 16.703125 27.09375 16.703125 20.515625 
Q 16.703125 13.921875 20.71875 10.15625 
Q 24.75 6.390625 31.78125 6.390625 
Q 38.8125 6.390625 42.859375 10.171875 
Q 46.921875 13.96875 46.921875 20.515625 
Q 46.921875 27.09375 42.890625 30.859375 
Q 38.875 34.625 31.78125 34.625 
M 21.921875 38.8125 
Q 15.578125 40.375 12.03125 44.71875 
Q 8.5 49.078125 8.5 55.328125 
Q 8.5 64.0625 14.71875 69.140625 
Q 20.953125 74.21875 31.78125 74.21875 
Q 42.671875 74.21875 48.875 69.140625 
Q 55.078125 64.0625 55.078125 55.328125 
Q 55.078125 49.078125 51.53125 44.71875 
Q 48 40.375 41.703125 38.8125 
Q 48.828125 37.15625 52.796875 32.3125 
Q 56.78125 27.484375 56.78125 20.515625 
Q 56.78125 9.90625 50.3125 4.234375 
Q 43.84375 -1.421875 31.78125 -1.421875 
Q 19.734375 -1.421875 13.25 4.234375 
Q 6.78125 9.90625 6.78125 20.515625 
Q 6.78125 27.484375 10.78125 32.3125 
Q 14.796875 37.15625 21.921875 38.8125 
M 18.3125 54.390625 
Q 18.3125 48.734375 21.84375 45.5625 
Q 25.390625 42.390625 31.78125 42.390625 
Q 38.140625 42.390625 41.71875 45.5625 
Q 45.3125 48.734375 45.3125 54.390625 
Q 45.3125 60.0625 41.71875 63.234375 
Q 38.140625 66.40625 31.78125 66.40625 
Q 25.390625 66.40625 21.84375 63.234375 
Q 18.3125 60.0625 18.3125 54.390625 
" id="BitstreamVeraSans-Roman-38"/>
     <path d="M 10.6875 12.40625 
L 21 12.40625 
L 21 0 
L 10.6875 0 
z
" id="BitstreamVeraSans-Roman-2e"/>
     <path d="M 45.40625 46.390625 
L 45.40625 75.984375 
L 54.390625 75.984375 
L 54.390625 0 
L 45.40625 0 
L 45.40625 8.203125 
Q 42.578125 3.328125 38.25 0.953125 
Q 33.9375 -1.421875 27.875 -1.421875 
Q 17.96875 -1.421875 11.734375 6.484375 
Q 5.515625 14.40625 5.515625 27.296875 
Q 5.515625 40.1875 11.734375 48.09375 
Q 17.96875 56 27.875 56 
Q 33.9375 56 38.25 53.625 
Q 42.578125 51.265625 45.40625 46.390625 
M 14.796875 27.296875 
Q 14.796875 17.390625 18.875 11.75 
Q 22.953125 6.109375 30.078125 6.109375 
Q 37.203125 6.109375 41.296875 11.75 
Q 45.40625 17.390625 45.40625 27.296875 
Q 45.40625 37.203125 41.296875 42.84375 
Q 37.203125 48.484375 30.078125 48.484375 
Q 22.953125 48.484375 18.875 42.84375 
Q 14.796875 37.203125 14.796875 27.296875 
" id="BitstreamVeraSans-Roman-64"/>
    </defs>
    <g transform="translate(157.843625 18.14175)scale(0.144 -0.144)">
     <use xlink:href="#BitstreamVeraSans-Roman-4c"/>
     <use x="55.697265625" xlink:href="#BitstreamVeraSans-Roman-65"/>
     <use x="117.220703125" xlink:href="#BitstreamVeraSans-Roman-6e"/>
     <use x="180.599609375" xlink:href="#BitstreamVeraSans-Roman-67"/>
     <use x="244.076171875" xlink:href="#BitstreamVeraSans-Roman-74"/>
     <use x="283.28515625" xlink:href="#BitstreamVeraSans-Roman-68"/>
     <use x="346.6640625" xlink:href="#BitstreamVeraSans-Roman-73"/>
     <use x="398.763671875" xlink:href="#BitstreamVeraSans-Roman-2e"/>
     <use x="430.55078125" xlink:href="#BitstreamVeraSans-Roman-20"/>
     <use x="462.337890625" xlink:href="#BitstreamVeraSans-Roman-50"/>
     <use x="522.625" xlink:href="#BitstreamVeraSans-Roman-72"/>
     <use x="563.70703125" xlink:href="#BitstreamVeraSans-Roman-6f"/>
     <use x="624.888671875" xlink:href="#BitstreamVeraSans-Roman-62"/>
     <use x="688.365234375" xlink:href="#BitstreamVeraSans-Roman-20"/>
     <use x="720.15234375" xlink:href="#BitstreamVeraSans-Roman-65"/>
     <use x="781.67578125" xlink:href="#BitstreamVeraSans-Roman-6e"/>
     <use x="845.0546875" xlink:href="#BitstreamVeraSans-Roman-64"/>
     <use x="908.53125" xlink:href="#BitstreamVeraSans-Roman-3a"/>
     <use x="942.22265625" xlink:href="#BitstreamVeraSans-Roman-20"/>
     <use x="974.009765625" xlink:href="#BitstreamVeraSans-Roman-30"/>
     <use x="1037.6328125" xlink:href="#BitstreamVeraSans-Roman-2e"/>
     <use x="1069.419921875" xlink:href="#BitstreamVeraSans-Roman-31"/>
     <use x="1133.04296875" xlink:href="#BitstreamVeraSans-Roman-2c"/>
     <use x="1164.830078125" xlink:href="#BitstreamVeraSans-Roman-20"/>
     <use x="1196.6171875" xlink:href="#BitstreamVeraSans-Roman-52"/>
     <use x="1266.037109375" xlink:href="#BitstreamVeraSans-Roman-65"/>
     <use x="1327.560546875" xlink:href="#BitstreamVeraSans-Roman-70"/>
     <use x="1391.037109375" xlink:href="#BitstreamVeraSans-Roman-65"/>
     <use x="1452.560546875" xlink:href="#BitstreamVeraSans-Roman-74"/>
     <use x="1491.76953125" xlink:href="#BitstreamVeraSans-Roman-69"/>
     <use x="1519.552734375" xlink:href="#BitstreamVeraSans-Roman-74"/>
     <use x="1558.76171875" xlink:href="#BitstreamVeraSans-Roman-69"/>
     <use x="1586.544921875" xlink:href="#BitstreamVeraSans-Roman-6f"/>
     <use x="1647.7265625" xlink:href="#BitstreamVeraSans-Roman-6e"/>
     <use x="1711.10546875" xlink:href="#BitstreamVeraSans-Roman-73"/>
     <use x="1763.205078125" xlink:href="#BitstreamVeraSans-Roman-3a"/>
     <use x="1796.896484375" xlink:href="#BitstreamVeraSans-Roman-20"/>
     <use x="1828.68359375" xlink:href="#BitstreamVeraSans-Roman-31"/>
     <use x="1892.306640625" xlink:href="#BitstreamVeraSans-Roman-30"/>
     <use x="1955.9296875" xlink:href="#BitstreamVeraSans-Roman-30"/>
     <use x="2019.552734375" xlink:href="#BitstreamVeraSans-Roman-2c"/>
     <use x="2051.33984375" xlink:href="#BitstreamVeraSans-Roman-20"/>
     <use x="2083.126953125" xlink:href="#BitstreamVeraSans-Roman-53"/>
     <use x="2146.603515625" xlink:href="#BitstreamVeraSans-Roman-74"/>
     <use x="2185.8125" xlink:href="#BitstreamVeraSans-Roman-72"/>
     <use x="2226.92578125" xlink:href="#BitstreamVeraSans-Roman-61"/>
     <use x="2288.205078125" xlink:href="#BitstreamVeraSans-Roman-74"/>
     <use x="2327.4140625" xlink:href="#BitstreamVeraSans-Roman-65"/>
     <use x="2388.9375" xlink:href="#BitstreamVeraSans-Roman-67"/>
     <use x="2452.4140625" xlink:href="#BitstreamVeraSans-Roman-69"/>
     <use x="2480.197265625" xlink:href="#BitstreamVeraSans-Roman-65"/>
     <use x="2541.720703125" xlink:href="#BitstreamVeraSans-Roman-73"/>
     <use x="2593.8203125" xlink:href="#BitstreamVeraSans-Roman-3a"/>
     <use x="2627.51171875" xlink:href="#BitstreamVeraSans-Roman-20"/>
     <use x="2659.298828125" xlink:href="#BitstreamVeraSans-Roman-38"/>
     <use x="2722.921875" xlink:href="#BitstreamVeraSans-Roman-2e"/>
    </g>
   </g>
  </g>
 </g>
 <defs>
  <clipPath id="p7fb8df7a08">
   <rect height="345.6" width="669.6" x="21.38" y="23.14175"/>
  </clipPath>
 </defs>
</svg>
