<?xml version="1.0" encoding="utf-8" standalone="no"?>
<!DOCTYPE svg PUBLIC "-//W3C//DTD SVG 1.1//EN"
  "http://www.w3.org/Graphics/SVG/1.1/DTD/svg11.dtd">
<!-- Created with matplotlib (http://matplotlib.org/) -->
<svg height="465pt" version="1.1" viewBox="0 0 699 465" width="699pt" xmlns="http://www.w3.org/2000/svg" xmlns:xlink="http://www.w3.org/1999/xlink">
 <defs>
  <style type="text/css">
*{stroke-linecap:butt;stroke-linejoin:round;stroke-miterlimit:100000;}
  </style>
 </defs>
 <g id="figure_1">
  <g id="patch_1">
   <path d="M 0 465.868 
L 699.79375 465.868 
L 699.79375 0 
L 0 0 
z
" style="fill:#ffffff;"/>
  </g>
  <g id="axes_1">
   <g id="patch_2">
    <path d="M 22.99375 368.74175 
L 692.59375 368.74175 
L 692.59375 23.14175 
L 22.99375 23.14175 
z
" style="fill:#ffffff;"/>
   </g>
   <g id="PolyCollection_1">
    <defs>
     <path d="M 115.262867 -269.92625 
L 79.524633 -269.92625 
L 79.369981 -271.380795 
L 79.234484 -272.835341 
L 79.117959 -274.289886 
L 79.020116 -275.744432 
L 78.940555 -277.198977 
L 78.878777 -278.653523 
L 78.834187 -280.108068 
L 78.8061 -281.562614 
L 78.79375 -283.017159 
L 78.796297 -284.471705 
L 78.812835 -285.92625 
L 78.842404 -287.380795 
L 78.883997 -288.835341 
L 78.936571 -290.289886 
L 78.999059 -291.744432 
L 79.070376 -293.198977 
L 79.149434 -294.653523 
L 79.235146 -296.108068 
L 79.326442 -297.562614 
L 79.422274 -299.017159 
L 79.521624 -300.471705 
L 79.623513 -301.92625 
L 79.72701 -303.380795 
L 79.831233 -304.835341 
L 79.935359 -306.289886 
L 80.038627 -307.744432 
L 80.140338 -309.198977 
L 80.239862 -310.653523 
L 80.336636 -312.108068 
L 80.430164 -313.562614 
L 80.520019 -315.017159 
L 80.60584 -316.471705 
L 80.687326 -317.92625 
L 80.764239 -319.380795 
L 80.836394 -320.835341 
L 80.903658 -322.289886 
L 80.965944 -323.744432 
L 81.023204 -325.198977 
L 81.075426 -326.653523 
L 81.122624 -328.108068 
L 81.164835 -329.562614 
L 81.202114 -331.017159 
L 81.234524 -332.471705 
L 81.262134 -333.92625 
L 81.285015 -335.380795 
L 81.30323 -336.835341 
L 81.316838 -338.289886 
L 81.325883 -339.744432 
L 81.330398 -341.198977 
L 81.330398 -342.653523 
L 81.325883 -344.108068 
L 81.316838 -345.562614 
L 81.30323 -347.017159 
L 81.285015 -348.471705 
L 81.262134 -349.92625 
L 81.234524 -351.380795 
L 81.202114 -352.835341 
L 81.164835 -354.289886 
L 81.122624 -355.744432 
L 81.075426 -357.198977 
L 81.023204 -358.653523 
L 80.965944 -360.108068 
L 80.903658 -361.562614 
L 80.836394 -363.017159 
L 80.764239 -364.471705 
L 80.687326 -365.92625 
L 80.60584 -367.380795 
L 80.520019 -368.835341 
L 80.430164 -370.289886 
L 80.336636 -371.744432 
L 80.239862 -373.198977 
L 80.140338 -374.653523 
L 80.038627 -376.108068 
L 79.935359 -377.562614 
L 79.831233 -379.017159 
L 79.72701 -380.471705 
L 79.623513 -381.92625 
L 79.521624 -383.380795 
L 79.422274 -384.835341 
L 79.326442 -386.289886 
L 79.235146 -387.744432 
L 79.149434 -389.198977 
L 79.070376 -390.653523 
L 78.999059 -392.108068 
L 78.936571 -393.562614 
L 78.883997 -395.017159 
L 78.842404 -396.471705 
L 78.812835 -397.92625 
L 78.796297 -399.380795 
L 78.79375 -400.835341 
L 78.8061 -402.289886 
L 78.834187 -403.744432 
L 78.878777 -405.198977 
L 78.940555 -406.653523 
L 79.020116 -408.108068 
L 79.117959 -409.562614 
L 79.234484 -411.017159 
L 79.369981 -412.471705 
L 79.524633 -413.92625 
L 115.262867 -413.92625 
L 115.262867 -413.92625 
L 115.417519 -412.471705 
L 115.553016 -411.017159 
L 115.669541 -409.562614 
L 115.767384 -408.108068 
L 115.846945 -406.653523 
L 115.908723 -405.198977 
L 115.953313 -403.744432 
L 115.9814 -402.289886 
L 115.99375 -400.835341 
L 115.991203 -399.380795 
L 115.974665 -397.92625 
L 115.945096 -396.471705 
L 115.903503 -395.017159 
L 115.850929 -393.562614 
L 115.788441 -392.108068 
L 115.717124 -390.653523 
L 115.638066 -389.198977 
L 115.552354 -387.744432 
L 115.461058 -386.289886 
L 115.365226 -384.835341 
L 115.265876 -383.380795 
L 115.163987 -381.92625 
L 115.06049 -380.471705 
L 114.956267 -379.017159 
L 114.852141 -377.562614 
L 114.748873 -376.108068 
L 114.647162 -374.653523 
L 114.547638 -373.198977 
L 114.450864 -371.744432 
L 114.357336 -370.289886 
L 114.267481 -368.835341 
L 114.18166 -367.380795 
L 114.100174 -365.92625 
L 114.023261 -364.471705 
L 113.951106 -363.017159 
L 113.883842 -361.562614 
L 113.821556 -360.108068 
L 113.764296 -358.653523 
L 113.712074 -357.198977 
L 113.664876 -355.744432 
L 113.622665 -354.289886 
L 113.585386 -352.835341 
L 113.552976 -351.380795 
L 113.525366 -349.92625 
L 113.502485 -348.471705 
L 113.48427 -347.017159 
L 113.470662 -345.562614 
L 113.461617 -344.108068 
L 113.457102 -342.653523 
L 113.457102 -341.198977 
L 113.461617 -339.744432 
L 113.470662 -338.289886 
L 113.48427 -336.835341 
L 113.502485 -335.380795 
L 113.525366 -333.92625 
L 113.552976 -332.471705 
L 113.585386 -331.017159 
L 113.622665 -329.562614 
L 113.664876 -328.108068 
L 113.712074 -326.653523 
L 113.764296 -325.198977 
L 113.821556 -323.744432 
L 113.883842 -322.289886 
L 113.951106 -320.835341 
L 114.023261 -319.380795 
L 114.100174 -317.92625 
L 114.18166 -316.471705 
L 114.267481 -315.017159 
L 114.357336 -313.562614 
L 114.450864 -312.108068 
L 114.547638 -310.653523 
L 114.647162 -309.198977 
L 114.748873 -307.744432 
L 114.852141 -306.289886 
L 114.956267 -304.835341 
L 115.06049 -303.380795 
L 115.163987 -301.92625 
L 115.265876 -300.471705 
L 115.365226 -299.017159 
L 115.461058 -297.562614 
L 115.552354 -296.108068 
L 115.638066 -294.653523 
L 115.717124 -293.198977 
L 115.788441 -291.744432 
L 115.850929 -290.289886 
L 115.903503 -288.835341 
L 115.945096 -287.380795 
L 115.974665 -285.92625 
L 115.991203 -284.471705 
L 115.99375 -283.017159 
L 115.9814 -281.562614 
L 115.953313 -280.108068 
L 115.908723 -278.653523 
L 115.846945 -277.198977 
L 115.767384 -275.744432 
L 115.669541 -274.289886 
L 115.553016 -272.835341 
L 115.417519 -271.380795 
L 115.262867 -269.92625 
z
" id="macd33b40fd" style="stroke:#000000;stroke-opacity:0.3;"/>
    </defs>
    <g clip-path="url(#p8abbd6baa1)">
     <use style="fill:#bfbf00;fill-opacity:0.3;stroke:#000000;stroke-opacity:0.3;" x="0.0" xlink:href="#macd33b40fd" y="465.868"/>
    </g>
   </g>
   <g id="PolyCollection_2">
    <defs>
     <path d="M 176.078969 -133.12625 
L 167.508531 -133.12625 
L 167.455308 -135.962614 
L 167.406146 -138.798977 
L 167.359955 -141.635341 
L 167.315475 -144.471705 
L 167.271287 -147.308068 
L 167.225826 -150.144432 
L 167.177392 -152.980795 
L 167.124175 -155.817159 
L 167.064271 -158.653523 
L 166.995709 -161.489886 
L 166.916475 -164.32625 
L 166.824546 -167.162614 
L 166.717915 -169.998977 
L 166.594626 -172.835341 
L 166.452808 -175.671705 
L 166.290705 -178.508068 
L 166.106713 -181.344432 
L 165.899413 -184.180795 
L 165.6676 -187.017159 
L 165.410316 -189.853523 
L 165.126875 -192.689886 
L 164.816893 -195.52625 
L 164.480306 -198.362614 
L 164.117388 -201.198977 
L 163.728766 -204.035341 
L 163.315429 -206.871705 
L 162.878731 -209.708068 
L 162.420389 -212.544432 
L 161.942476 -215.380795 
L 161.447409 -218.217159 
L 160.937927 -221.053523 
L 160.417072 -223.889886 
L 159.888154 -226.72625 
L 159.354717 -229.562614 
L 158.8205 -232.398977 
L 158.289396 -235.235341 
L 157.765398 -238.071705 
L 157.252554 -240.908068 
L 156.754911 -243.744432 
L 156.276466 -246.580795 
L 155.821105 -249.417159 
L 155.392558 -252.253523 
L 154.994339 -255.089886 
L 154.629704 -257.92625 
L 154.301598 -260.762614 
L 154.012618 -263.598977 
L 153.764976 -266.435341 
L 153.560465 -269.271705 
L 153.400435 -272.108068 
L 153.285775 -274.944432 
L 153.2169 -277.780795 
L 153.19375 -280.617159 
L 153.215787 -283.453523 
L 153.282009 -286.289886 
L 153.390965 -289.12625 
L 153.540779 -291.962614 
L 153.729179 -294.798977 
L 153.95353 -297.635341 
L 154.210877 -300.471705 
L 154.497986 -303.308068 
L 154.811394 -306.144432 
L 155.147456 -308.980795 
L 155.502398 -311.817159 
L 155.872373 -314.653523 
L 156.253508 -317.489886 
L 156.64196 -320.32625 
L 157.033966 -323.162614 
L 157.425891 -325.998977 
L 157.814274 -328.835341 
L 158.195872 -331.671705 
L 158.567692 -334.508068 
L 158.927033 -337.344432 
L 159.271508 -340.180795 
L 159.599071 -343.017159 
L 159.908034 -345.853523 
L 160.197079 -348.689886 
L 160.465266 -351.52625 
L 160.712032 -354.362614 
L 160.937189 -357.198977 
L 161.140913 -360.035341 
L 161.323728 -362.871705 
L 161.486487 -365.708068 
L 161.630348 -368.544432 
L 161.756745 -371.380795 
L 161.867355 -374.217159 
L 161.964067 -377.053523 
L 162.048939 -379.889886 
L 162.124163 -382.72625 
L 162.192022 -385.562614 
L 162.254853 -388.398977 
L 162.315001 -391.235341 
L 162.374785 -394.071705 
L 162.436456 -396.908068 
L 162.502164 -399.744432 
L 162.573923 -402.580795 
L 162.653579 -405.417159 
L 162.74279 -408.253523 
L 162.842998 -411.089886 
L 162.955412 -413.92625 
L 180.632088 -413.92625 
L 180.632088 -413.92625 
L 180.744502 -411.089886 
L 180.84471 -408.253523 
L 180.933921 -405.417159 
L 181.013577 -402.580795 
L 181.085336 -399.744432 
L 181.151044 -396.908068 
L 181.212715 -394.071705 
L 181.272499 -391.235341 
L 181.332647 -388.398977 
L 181.395478 -385.562614 
L 181.463337 -382.72625 
L 181.538561 -379.889886 
L 181.623433 -377.053523 
L 181.720145 -374.217159 
L 181.830755 -371.380795 
L 181.957152 -368.544432 
L 182.101013 -365.708068 
L 182.263772 -362.871705 
L 182.446587 -360.035341 
L 182.650311 -357.198977 
L 182.875468 -354.362614 
L 183.122234 -351.52625 
L 183.390421 -348.689886 
L 183.679466 -345.853523 
L 183.988429 -343.017159 
L 184.315992 -340.180795 
L 184.660467 -337.344432 
L 185.019808 -334.508068 
L 185.391628 -331.671705 
L 185.773226 -328.835341 
L 186.161609 -325.998977 
L 186.553534 -323.162614 
L 186.94554 -320.32625 
L 187.333992 -317.489886 
L 187.715127 -314.653523 
L 188.085102 -311.817159 
L 188.440044 -308.980795 
L 188.776106 -306.144432 
L 189.089514 -303.308068 
L 189.376623 -300.471705 
L 189.63397 -297.635341 
L 189.858321 -294.798977 
L 190.046721 -291.962614 
L 190.196535 -289.12625 
L 190.305491 -286.289886 
L 190.371713 -283.453523 
L 190.39375 -280.617159 
L 190.3706 -277.780795 
L 190.301725 -274.944432 
L 190.187065 -272.108068 
L 190.027035 -269.271705 
L 189.822524 -266.435341 
L 189.574882 -263.598977 
L 189.285902 -260.762614 
L 188.957796 -257.92625 
L 188.593161 -255.089886 
L 188.194942 -252.253523 
L 187.766395 -249.417159 
L 187.311034 -246.580795 
L 186.832589 -243.744432 
L 186.334946 -240.908068 
L 185.822102 -238.071705 
L 185.298104 -235.235341 
L 184.767 -232.398977 
L 184.232783 -229.562614 
L 183.699346 -226.72625 
L 183.170428 -223.889886 
L 182.649573 -221.053523 
L 182.140091 -218.217159 
L 181.645024 -215.380795 
L 181.167111 -212.544432 
L 180.708769 -209.708068 
L 180.272071 -206.871705 
L 179.858734 -204.035341 
L 179.470112 -201.198977 
L 179.107194 -198.362614 
L 178.770607 -195.52625 
L 178.460625 -192.689886 
L 178.177184 -189.853523 
L 177.9199 -187.017159 
L 177.688087 -184.180795 
L 177.480787 -181.344432 
L 177.296795 -178.508068 
L 177.134692 -175.671705 
L 176.992874 -172.835341 
L 176.869585 -169.998977 
L 176.762954 -167.162614 
L 176.671025 -164.32625 
L 176.591791 -161.489886 
L 176.523229 -158.653523 
L 176.463325 -155.817159 
L 176.410108 -152.980795 
L 176.361674 -150.144432 
L 176.316213 -147.308068 
L 176.272025 -144.471705 
L 176.227545 -141.635341 
L 176.181354 -138.798977 
L 176.132192 -135.962614 
L 176.078969 -133.12625 
z
" id="m1252a4c535" style="stroke:#000000;stroke-opacity:0.3;"/>
    </defs>
    <g clip-path="url(#p8abbd6baa1)">
     <use style="fill:#bfbf00;fill-opacity:0.3;stroke:#000000;stroke-opacity:0.3;" x="0.0" xlink:href="#m1252a4c535" y="465.868"/>
    </g>
   </g>
   <g id="PolyCollection_3">
    <defs>
     <path d="M 252.402202 -262.72625 
L 239.985298 -262.72625 
L 239.988525 -262.798977 
L 240.001075 -262.871705 
L 240.022849 -262.944432 
L 240.053701 -263.017159 
L 240.093436 -263.089886 
L 240.141814 -263.162614 
L 240.198549 -263.235341 
L 240.263312 -263.308068 
L 240.335729 -263.380795 
L 240.415389 -263.453523 
L 240.501838 -263.52625 
L 240.59459 -263.598977 
L 240.693121 -263.671705 
L 240.796877 -263.744432 
L 240.905277 -263.817159 
L 241.017709 -263.889886 
L 241.133542 -263.962614 
L 241.252122 -264.035341 
L 241.372776 -264.108068 
L 241.494818 -264.180795 
L 241.617546 -264.253523 
L 241.740252 -264.32625 
L 241.862218 -264.398977 
L 241.98272 -264.471705 
L 242.101034 -264.544432 
L 242.216433 -264.617159 
L 242.328193 -264.689886 
L 242.435594 -264.762614 
L 242.537921 -264.835341 
L 242.634464 -264.908068 
L 242.724527 -264.980795 
L 242.80742 -265.053523 
L 242.882468 -265.12625 
L 242.949008 -265.198977 
L 243.006393 -265.271705 
L 243.053992 -265.344432 
L 243.091192 -265.417159 
L 243.117399 -265.489886 
L 243.132041 -265.562614 
L 243.134566 -265.635341 
L 243.12445 -265.708068 
L 243.101189 -265.780795 
L 243.064311 -265.853523 
L 243.013371 -265.92625 
L 242.947956 -265.998977 
L 242.867688 -266.071705 
L 242.772222 -266.144432 
L 242.661254 -266.217159 
L 242.53452 -266.289886 
L 242.391799 -266.362614 
L 242.232917 -266.435341 
L 242.05775 -266.508068 
L 241.866227 -266.580795 
L 241.658329 -266.653523 
L 241.4341 -266.72625 
L 241.193642 -266.798977 
L 240.937122 -266.871705 
L 240.664776 -266.944432 
L 240.376907 -267.017159 
L 240.073891 -267.089886 
L 239.756179 -267.162614 
L 239.424296 -267.235341 
L 239.078846 -267.308068 
L 238.720511 -267.380795 
L 238.350053 -267.453523 
L 237.968311 -267.52625 
L 237.576205 -267.598977 
L 237.174731 -267.671705 
L 236.76496 -267.744432 
L 236.348041 -267.817159 
L 235.925188 -267.889886 
L 235.497687 -267.962614 
L 235.066885 -268.035341 
L 234.634184 -268.108068 
L 234.201044 -268.180795 
L 233.768966 -268.253523 
L 233.339492 -268.32625 
L 232.914195 -268.398977 
L 232.494673 -268.471705 
L 232.082536 -268.544432 
L 231.679405 -268.617159 
L 231.286892 -268.689886 
L 230.906601 -268.762614 
L 230.540111 -268.835341 
L 230.18897 -268.908068 
L 229.854682 -268.980795 
L 229.538702 -269.053523 
L 229.242421 -269.12625 
L 228.96716 -269.198977 
L 228.714158 -269.271705 
L 228.484567 -269.344432 
L 228.279442 -269.417159 
L 228.099734 -269.489886 
L 227.946281 -269.562614 
L 227.819805 -269.635341 
L 227.720907 -269.708068 
L 227.650059 -269.780795 
L 227.607603 -269.853523 
L 227.59375 -269.92625 
L 264.79375 -269.92625 
L 264.79375 -269.92625 
L 264.779897 -269.853523 
L 264.737441 -269.780795 
L 264.666593 -269.708068 
L 264.567695 -269.635341 
L 264.441219 -269.562614 
L 264.287766 -269.489886 
L 264.108058 -269.417159 
L 263.902933 -269.344432 
L 263.673342 -269.271705 
L 263.42034 -269.198977 
L 263.145079 -269.12625 
L 262.848798 -269.053523 
L 262.532818 -268.980795 
L 262.19853 -268.908068 
L 261.847389 -268.835341 
L 261.480899 -268.762614 
L 261.100608 -268.689886 
L 260.708095 -268.617159 
L 260.304964 -268.544432 
L 259.892827 -268.471705 
L 259.473305 -268.398977 
L 259.048008 -268.32625 
L 258.618534 -268.253523 
L 258.186456 -268.180795 
L 257.753316 -268.108068 
L 257.320615 -268.035341 
L 256.889813 -267.962614 
L 256.462312 -267.889886 
L 256.039459 -267.817159 
L 255.62254 -267.744432 
L 255.212769 -267.671705 
L 254.811295 -267.598977 
L 254.419189 -267.52625 
L 254.037447 -267.453523 
L 253.666989 -267.380795 
L 253.308654 -267.308068 
L 252.963204 -267.235341 
L 252.631321 -267.162614 
L 252.313609 -267.089886 
L 252.010593 -267.017159 
L 251.722724 -266.944432 
L 251.450378 -266.871705 
L 251.193858 -266.798977 
L 250.9534 -266.72625 
L 250.729171 -266.653523 
L 250.521273 -266.580795 
L 250.32975 -266.508068 
L 250.154583 -266.435341 
L 249.995701 -266.362614 
L 249.85298 -266.289886 
L 249.726246 -266.217159 
L 249.615278 -266.144432 
L 249.519812 -266.071705 
L 249.439544 -265.998977 
L 249.374129 -265.92625 
L 249.323189 -265.853523 
L 249.286311 -265.780795 
L 249.26305 -265.708068 
L 249.252934 -265.635341 
L 249.255459 -265.562614 
L 249.270101 -265.489886 
L 249.296308 -265.417159 
L 249.333508 -265.344432 
L 249.381107 -265.271705 
L 249.438492 -265.198977 
L 249.505032 -265.12625 
L 249.58008 -265.053523 
L 249.662973 -264.980795 
L 249.753036 -264.908068 
L 249.849579 -264.835341 
L 249.951906 -264.762614 
L 250.059307 -264.689886 
L 250.171067 -264.617159 
L 250.286466 -264.544432 
L 250.40478 -264.471705 
L 250.525282 -264.398977 
L 250.647248 -264.32625 
L 250.769954 -264.253523 
L 250.892682 -264.180795 
L 251.014724 -264.108068 
L 251.135378 -264.035341 
L 251.253958 -263.962614 
L 251.369791 -263.889886 
L 251.482223 -263.817159 
L 251.590623 -263.744432 
L 251.694379 -263.671705 
L 251.79291 -263.598977 
L 251.885662 -263.52625 
L 251.972111 -263.453523 
L 252.051771 -263.380795 
L 252.124188 -263.308068 
L 252.188951 -263.235341 
L 252.245686 -263.162614 
L 252.294064 -263.089886 
L 252.333799 -263.017159 
L 252.364651 -262.944432 
L 252.386425 -262.871705 
L 252.398975 -262.798977 
L 252.402202 -262.72625 
z
" id="m2708d9d8a7" style="stroke:#000000;stroke-opacity:0.3;"/>
    </defs>
    <g clip-path="url(#p8abbd6baa1)">
     <use style="fill:#bfbf00;fill-opacity:0.3;stroke:#000000;stroke-opacity:0.3;" x="0.0" xlink:href="#m2708d9d8a7" y="465.868"/>
    </g>
   </g>
   <g id="PolyCollection_4">
    <defs>
     <path d="M 323.831164 -197.92625 
L 317.356336 -197.92625 
L 317.34372 -199.380795 
L 317.341231 -200.835341 
L 317.347804 -202.289886 
L 317.36208 -203.744432 
L 317.382405 -205.198977 
L 317.406845 -206.653523 
L 317.433196 -208.108068 
L 317.459002 -209.562614 
L 317.481582 -211.017159 
L 317.498054 -212.471705 
L 317.505371 -213.92625 
L 317.500353 -215.380795 
L 317.479734 -216.835341 
L 317.4402 -218.289886 
L 317.37844 -219.744432 
L 317.291196 -221.198977 
L 317.175318 -222.653523 
L 317.02782 -224.108068 
L 316.845936 -225.562614 
L 316.627185 -227.017159 
L 316.369427 -228.471705 
L 316.070925 -229.92625 
L 315.730405 -231.380795 
L 315.34711 -232.835341 
L 314.920857 -234.289886 
L 314.452084 -235.744432 
L 313.941886 -237.198977 
L 313.392055 -238.653523 
L 312.805097 -240.108068 
L 312.184245 -241.562614 
L 311.533453 -243.017159 
L 310.857386 -244.471705 
L 310.161381 -245.92625 
L 309.4514 -247.380795 
L 308.73397 -248.835341 
L 308.016096 -250.289886 
L 307.305172 -251.744432 
L 306.608866 -253.198977 
L 305.935006 -254.653523 
L 305.29144 -256.108068 
L 304.68591 -257.562614 
L 304.125899 -259.017159 
L 303.618502 -260.471705 
L 303.170278 -261.92625 
L 302.787127 -263.380795 
L 302.474164 -264.835341 
L 302.235619 -266.289886 
L 302.074745 -267.744432 
L 301.99375 -269.198977 
L 301.99375 -270.653523 
L 302.074745 -272.108068 
L 302.235619 -273.562614 
L 302.474164 -275.017159 
L 302.787127 -276.471705 
L 303.170278 -277.92625 
L 303.618502 -279.380795 
L 304.125899 -280.835341 
L 304.68591 -282.289886 
L 305.29144 -283.744432 
L 305.935006 -285.198977 
L 306.608866 -286.653523 
L 307.305172 -288.108068 
L 308.016096 -289.562614 
L 308.73397 -291.017159 
L 309.4514 -292.471705 
L 310.161381 -293.92625 
L 310.857386 -295.380795 
L 311.533453 -296.835341 
L 312.184245 -298.289886 
L 312.805097 -299.744432 
L 313.392055 -301.198977 
L 313.941886 -302.653523 
L 314.452084 -304.108068 
L 314.920857 -305.562614 
L 315.34711 -307.017159 
L 315.730405 -308.471705 
L 316.070925 -309.92625 
L 316.369427 -311.380795 
L 316.627185 -312.835341 
L 316.845936 -314.289886 
L 317.02782 -315.744432 
L 317.175318 -317.198977 
L 317.291196 -318.653523 
L 317.37844 -320.108068 
L 317.4402 -321.562614 
L 317.479734 -323.017159 
L 317.500353 -324.471705 
L 317.505371 -325.92625 
L 317.498054 -327.380795 
L 317.481582 -328.835341 
L 317.459002 -330.289886 
L 317.433196 -331.744432 
L 317.406845 -333.198977 
L 317.382405 -334.653523 
L 317.36208 -336.108068 
L 317.347804 -337.562614 
L 317.341231 -339.017159 
L 317.34372 -340.471705 
L 317.356336 -341.92625 
L 323.831164 -341.92625 
L 323.831164 -341.92625 
L 323.84378 -340.471705 
L 323.846269 -339.017159 
L 323.839696 -337.562614 
L 323.82542 -336.108068 
L 323.805095 -334.653523 
L 323.780655 -333.198977 
L 323.754304 -331.744432 
L 323.728498 -330.289886 
L 323.705918 -328.835341 
L 323.689446 -327.380795 
L 323.682129 -325.92625 
L 323.687147 -324.471705 
L 323.707766 -323.017159 
L 323.7473 -321.562614 
L 323.80906 -320.108068 
L 323.896304 -318.653523 
L 324.012182 -317.198977 
L 324.15968 -315.744432 
L 324.341564 -314.289886 
L 324.560315 -312.835341 
L 324.818073 -311.380795 
L 325.116575 -309.92625 
L 325.457095 -308.471705 
L 325.84039 -307.017159 
L 326.266643 -305.562614 
L 326.735416 -304.108068 
L 327.245614 -302.653523 
L 327.795445 -301.198977 
L 328.382403 -299.744432 
L 329.003255 -298.289886 
L 329.654047 -296.835341 
L 330.330114 -295.380795 
L 331.026119 -293.92625 
L 331.7361 -292.471705 
L 332.45353 -291.017159 
L 333.171404 -289.562614 
L 333.882328 -288.108068 
L 334.578634 -286.653523 
L 335.252494 -285.198977 
L 335.89606 -283.744432 
L 336.50159 -282.289886 
L 337.061601 -280.835341 
L 337.568998 -279.380795 
L 338.017222 -277.92625 
L 338.400373 -276.471705 
L 338.713336 -275.017159 
L 338.951881 -273.562614 
L 339.112755 -272.108068 
L 339.19375 -270.653523 
L 339.19375 -269.198977 
L 339.112755 -267.744432 
L 338.951881 -266.289886 
L 338.713336 -264.835341 
L 338.400373 -263.380795 
L 338.017222 -261.92625 
L 337.568998 -260.471705 
L 337.061601 -259.017159 
L 336.50159 -257.562614 
L 335.89606 -256.108068 
L 335.252494 -254.653523 
L 334.578634 -253.198977 
L 333.882328 -251.744432 
L 333.171404 -250.289886 
L 332.45353 -248.835341 
L 331.7361 -247.380795 
L 331.026119 -245.92625 
L 330.330114 -244.471705 
L 329.654047 -243.017159 
L 329.003255 -241.562614 
L 328.382403 -240.108068 
L 327.795445 -238.653523 
L 327.245614 -237.198977 
L 326.735416 -235.744432 
L 326.266643 -234.289886 
L 325.84039 -232.835341 
L 325.457095 -231.380795 
L 325.116575 -229.92625 
L 324.818073 -228.471705 
L 324.560315 -227.017159 
L 324.341564 -225.562614 
L 324.15968 -224.108068 
L 324.012182 -222.653523 
L 323.896304 -221.198977 
L 323.80906 -219.744432 
L 323.7473 -218.289886 
L 323.707766 -216.835341 
L 323.687147 -215.380795 
L 323.682129 -213.92625 
L 323.689446 -212.471705 
L 323.705918 -211.017159 
L 323.728498 -209.562614 
L 323.754304 -208.108068 
L 323.780655 -206.653523 
L 323.805095 -205.198977 
L 323.82542 -203.744432 
L 323.839696 -202.289886 
L 323.846269 -200.835341 
L 323.84378 -199.380795 
L 323.831164 -197.92625 
z
" id="mc5e0d56616" style="stroke:#000000;stroke-opacity:0.3;"/>
    </defs>
    <g clip-path="url(#p8abbd6baa1)">
     <use style="fill:#bfbf00;fill-opacity:0.3;stroke:#000000;stroke-opacity:0.3;" x="0.0" xlink:href="#mc5e0d56616" y="465.868"/>
    </g>
   </g>
   <g id="PolyCollection_5">
    <defs>
     <path d="M 413.59375 -269.92625 
L 376.39375 -269.92625 
L 376.418387 -269.998977 
L 376.492107 -270.071705 
L 376.614324 -270.144432 
L 376.784073 -270.217159 
L 377.00002 -270.289886 
L 377.26048 -270.362614 
L 377.56344 -270.435341 
L 377.906582 -270.508068 
L 378.287315 -270.580795 
L 378.702807 -270.653523 
L 379.15002 -270.72625 
L 379.625748 -270.798977 
L 380.12665 -270.871705 
L 380.649295 -270.944432 
L 381.190198 -271.017159 
L 381.745858 -271.089886 
L 382.312794 -271.162614 
L 382.887582 -271.235341 
L 383.466887 -271.308068 
L 384.047494 -271.380795 
L 384.626332 -271.453523 
L 385.200505 -271.52625 
L 385.767304 -271.598977 
L 386.324231 -271.671705 
L 386.86901 -271.744432 
L 387.399593 -271.817159 
L 387.914174 -271.889886 
L 388.411183 -271.962614 
L 388.889292 -272.035341 
L 389.347405 -272.108068 
L 389.784659 -272.180795 
L 390.200406 -272.253523 
L 390.594211 -272.32625 
L 390.96583 -272.398977 
L 391.315204 -272.471705 
L 391.642435 -272.544432 
L 391.947776 -272.617159 
L 392.231611 -272.689886 
L 392.494436 -272.762614 
L 392.736847 -272.835341 
L 392.959519 -272.908068 
L 393.163189 -272.980795 
L 393.348646 -273.053523 
L 393.516711 -273.12625 
L 393.668225 -273.198977 
L 393.804038 -273.271705 
L 393.924998 -273.344432 
L 394.03194 -273.417159 
L 394.125677 -273.489886 
L 394.206997 -273.562614 
L 394.276652 -273.635341 
L 394.335357 -273.708068 
L 394.383786 -273.780795 
L 394.422568 -273.853523 
L 394.452291 -273.92625 
L 394.473496 -273.998977 
L 394.486682 -274.071705 
L 394.492306 -274.144432 
L 394.490785 -274.217159 
L 394.482503 -274.289886 
L 394.467808 -274.362614 
L 394.447021 -274.435341 
L 394.42044 -274.508068 
L 394.388343 -274.580795 
L 394.350991 -274.653523 
L 394.308637 -274.72625 
L 394.261529 -274.798977 
L 394.209912 -274.871705 
L 394.154038 -274.944432 
L 394.094161 -275.017159 
L 394.030552 -275.089886 
L 393.963493 -275.162614 
L 393.893285 -275.235341 
L 393.820246 -275.308068 
L 393.74472 -275.380795 
L 393.667068 -275.453523 
L 393.587679 -275.52625 
L 393.506961 -275.598977 
L 393.425346 -275.671705 
L 393.343287 -275.744432 
L 393.261253 -275.817159 
L 393.179732 -275.889886 
L 393.099223 -275.962614 
L 393.020234 -276.035341 
L 392.94328 -276.108068 
L 392.868872 -276.180795 
L 392.797521 -276.253523 
L 392.729726 -276.32625 
L 392.665971 -276.398977 
L 392.606721 -276.471705 
L 392.552415 -276.544432 
L 392.503461 -276.617159 
L 392.460235 -276.689886 
L 392.423068 -276.762614 
L 392.392251 -276.835341 
L 392.368028 -276.908068 
L 392.350588 -276.980795 
L 392.340073 -277.053523 
L 392.336566 -277.12625 
L 397.650934 -277.12625 
L 397.650934 -277.12625 
L 397.647427 -277.053523 
L 397.636912 -276.980795 
L 397.619472 -276.908068 
L 397.595249 -276.835341 
L 397.564432 -276.762614 
L 397.527265 -276.689886 
L 397.484039 -276.617159 
L 397.435085 -276.544432 
L 397.380779 -276.471705 
L 397.321529 -276.398977 
L 397.257774 -276.32625 
L 397.189979 -276.253523 
L 397.118628 -276.180795 
L 397.04422 -276.108068 
L 396.967266 -276.035341 
L 396.888277 -275.962614 
L 396.807768 -275.889886 
L 396.726247 -275.817159 
L 396.644213 -275.744432 
L 396.562154 -275.671705 
L 396.480539 -275.598977 
L 396.399821 -275.52625 
L 396.320432 -275.453523 
L 396.24278 -275.380795 
L 396.167254 -275.308068 
L 396.094215 -275.235341 
L 396.024007 -275.162614 
L 395.956948 -275.089886 
L 395.893339 -275.017159 
L 395.833462 -274.944432 
L 395.777588 -274.871705 
L 395.725971 -274.798977 
L 395.678863 -274.72625 
L 395.636509 -274.653523 
L 395.599157 -274.580795 
L 395.56706 -274.508068 
L 395.540479 -274.435341 
L 395.519692 -274.362614 
L 395.504997 -274.289886 
L 395.496715 -274.217159 
L 395.495194 -274.144432 
L 395.500818 -274.071705 
L 395.514004 -273.998977 
L 395.535209 -273.92625 
L 395.564932 -273.853523 
L 395.603714 -273.780795 
L 395.652143 -273.708068 
L 395.710848 -273.635341 
L 395.780503 -273.562614 
L 395.861823 -273.489886 
L 395.95556 -273.417159 
L 396.062502 -273.344432 
L 396.183462 -273.271705 
L 396.319275 -273.198977 
L 396.470789 -273.12625 
L 396.638854 -273.053523 
L 396.824311 -272.980795 
L 397.027981 -272.908068 
L 397.250653 -272.835341 
L 397.493064 -272.762614 
L 397.755889 -272.689886 
L 398.039724 -272.617159 
L 398.345065 -272.544432 
L 398.672296 -272.471705 
L 399.02167 -272.398977 
L 399.393289 -272.32625 
L 399.787094 -272.253523 
L 400.202841 -272.180795 
L 400.640095 -272.108068 
L 401.098208 -272.035341 
L 401.576317 -271.962614 
L 402.073326 -271.889886 
L 402.587907 -271.817159 
L 403.11849 -271.744432 
L 403.663269 -271.671705 
L 404.220196 -271.598977 
L 404.786995 -271.52625 
L 405.361168 -271.453523 
L 405.940006 -271.380795 
L 406.520613 -271.308068 
L 407.099918 -271.235341 
L 407.674706 -271.162614 
L 408.241642 -271.089886 
L 408.797302 -271.017159 
L 409.338205 -270.944432 
L 409.86085 -270.871705 
L 410.361752 -270.798977 
L 410.83748 -270.72625 
L 411.284693 -270.653523 
L 411.700185 -270.580795 
L 412.080918 -270.508068 
L 412.42406 -270.435341 
L 412.72702 -270.362614 
L 412.98748 -270.289886 
L 413.203427 -270.217159 
L 413.373176 -270.144432 
L 413.495393 -270.071705 
L 413.569113 -269.998977 
L 413.59375 -269.92625 
z
" id="mf2cdfdc9e3" style="stroke:#000000;stroke-opacity:0.3;"/>
    </defs>
    <g clip-path="url(#p8abbd6baa1)">
     <use style="fill:#bfbf00;fill-opacity:0.3;stroke:#000000;stroke-opacity:0.3;" x="0.0" xlink:href="#mf2cdfdc9e3" y="465.868"/>
    </g>
   </g>
   <g id="PolyCollection_6">
    <defs>
     <path d="M 477.577941 -125.92625 
L 461.209559 -125.92625 
L 461.165768 -128.762614 
L 461.137568 -131.598977 
L 461.123839 -134.435341 
L 461.123211 -137.271705 
L 461.134075 -140.108068 
L 461.154601 -142.944432 
L 461.182753 -145.780795 
L 461.216313 -148.617159 
L 461.252906 -151.453523 
L 461.29003 -154.289886 
L 461.325089 -157.12625 
L 461.355424 -159.962614 
L 461.378349 -162.798977 
L 461.391192 -165.635341 
L 461.391329 -168.471705 
L 461.376226 -171.308068 
L 461.343473 -174.144432 
L 461.290827 -176.980795 
L 461.216243 -179.817159 
L 461.117912 -182.653523 
L 460.99429 -185.489886 
L 460.844128 -188.32625 
L 460.666499 -191.162614 
L 460.460817 -193.998977 
L 460.226857 -196.835341 
L 459.964765 -199.671705 
L 459.675067 -202.508068 
L 459.358675 -205.344432 
L 459.016879 -208.180795 
L 458.651343 -211.017159 
L 458.26409 -213.853523 
L 457.857486 -216.689886 
L 457.434214 -219.52625 
L 456.997247 -222.362614 
L 456.549815 -225.198977 
L 456.095371 -228.035341 
L 455.637543 -230.871705 
L 455.1801 -233.708068 
L 454.7269 -236.544432 
L 454.281843 -239.380795 
L 453.848825 -242.217159 
L 453.431686 -245.053523 
L 453.034163 -247.889886 
L 452.659844 -250.72625 
L 452.312119 -253.562614 
L 451.99414 -256.398977 
L 451.708783 -259.235341 
L 451.458608 -262.071705 
L 451.245835 -264.908068 
L 451.072309 -267.744432 
L 450.939491 -270.580795 
L 450.848434 -273.417159 
L 450.799779 -276.253523 
L 450.79375 -279.089886 
L 450.830161 -281.92625 
L 450.908419 -284.762614 
L 451.027545 -287.598977 
L 451.186188 -290.435341 
L 451.382656 -293.271705 
L 451.614937 -296.108068 
L 451.880739 -298.944432 
L 452.177522 -301.780795 
L 452.502537 -304.617159 
L 452.852868 -307.453523 
L 453.225471 -310.289886 
L 453.617216 -313.12625 
L 454.02493 -315.962614 
L 454.445436 -318.798977 
L 454.875594 -321.635341 
L 455.312338 -324.471705 
L 455.752708 -327.308068 
L 456.193885 -330.144432 
L 456.633219 -332.980795 
L 457.06825 -335.817159 
L 457.496734 -338.653523 
L 457.916657 -341.489886 
L 458.326248 -344.32625 
L 458.723989 -347.162614 
L 459.108616 -349.998977 
L 459.479126 -352.835341 
L 459.834766 -355.671705 
L 460.175033 -358.508068 
L 460.49966 -361.344432 
L 460.808604 -364.180795 
L 461.102032 -367.017159 
L 461.380301 -369.853523 
L 461.643938 -372.689886 
L 461.89362 -375.52625 
L 462.130154 -378.362614 
L 462.354449 -381.198977 
L 462.567495 -384.035341 
L 462.770341 -386.871705 
L 462.964071 -389.708068 
L 463.149783 -392.544432 
L 463.328569 -395.380795 
L 463.501492 -398.217159 
L 463.669576 -401.053523 
L 463.833782 -403.889886 
L 463.995 -406.72625 
L 474.7925 -406.72625 
L 474.7925 -406.72625 
L 474.953718 -403.889886 
L 475.117924 -401.053523 
L 475.286008 -398.217159 
L 475.458931 -395.380795 
L 475.637717 -392.544432 
L 475.823429 -389.708068 
L 476.017159 -386.871705 
L 476.220005 -384.035341 
L 476.433051 -381.198977 
L 476.657346 -378.362614 
L 476.89388 -375.52625 
L 477.143562 -372.689886 
L 477.407199 -369.853523 
L 477.685468 -367.017159 
L 477.978896 -364.180795 
L 478.28784 -361.344432 
L 478.612467 -358.508068 
L 478.952734 -355.671705 
L 479.308374 -352.835341 
L 479.678884 -349.998977 
L 480.063511 -347.162614 
L 480.461252 -344.32625 
L 480.870843 -341.489886 
L 481.290766 -338.653523 
L 481.71925 -335.817159 
L 482.154281 -332.980795 
L 482.593615 -330.144432 
L 483.034792 -327.308068 
L 483.475162 -324.471705 
L 483.911906 -321.635341 
L 484.342064 -318.798977 
L 484.76257 -315.962614 
L 485.170284 -313.12625 
L 485.562029 -310.289886 
L 485.934632 -307.453523 
L 486.284963 -304.617159 
L 486.609978 -301.780795 
L 486.906761 -298.944432 
L 487.172563 -296.108068 
L 487.404844 -293.271705 
L 487.601312 -290.435341 
L 487.759955 -287.598977 
L 487.879081 -284.762614 
L 487.957339 -281.92625 
L 487.99375 -279.089886 
L 487.987721 -276.253523 
L 487.939066 -273.417159 
L 487.848009 -270.580795 
L 487.715191 -267.744432 
L 487.541665 -264.908068 
L 487.328892 -262.071705 
L 487.078717 -259.235341 
L 486.79336 -256.398977 
L 486.475381 -253.562614 
L 486.127656 -250.72625 
L 485.753337 -247.889886 
L 485.355814 -245.053523 
L 484.938675 -242.217159 
L 484.505657 -239.380795 
L 484.0606 -236.544432 
L 483.6074 -233.708068 
L 483.149957 -230.871705 
L 482.692129 -228.035341 
L 482.237685 -225.198977 
L 481.790253 -222.362614 
L 481.353286 -219.52625 
L 480.930014 -216.689886 
L 480.52341 -213.853523 
L 480.136157 -211.017159 
L 479.770621 -208.180795 
L 479.428825 -205.344432 
L 479.112433 -202.508068 
L 478.822735 -199.671705 
L 478.560643 -196.835341 
L 478.326683 -193.998977 
L 478.121001 -191.162614 
L 477.943372 -188.32625 
L 477.79321 -185.489886 
L 477.669588 -182.653523 
L 477.571257 -179.817159 
L 477.496673 -176.980795 
L 477.444027 -174.144432 
L 477.411274 -171.308068 
L 477.396171 -168.471705 
L 477.396308 -165.635341 
L 477.409151 -162.798977 
L 477.432076 -159.962614 
L 477.462411 -157.12625 
L 477.49747 -154.289886 
L 477.534594 -151.453523 
L 477.571187 -148.617159 
L 477.604747 -145.780795 
L 477.632899 -142.944432 
L 477.653425 -140.108068 
L 477.664289 -137.271705 
L 477.663661 -134.435341 
L 477.649932 -131.598977 
L 477.621732 -128.762614 
L 477.577941 -125.92625 
z
" id="m4b199ee2ff" style="stroke:#000000;stroke-opacity:0.3;"/>
    </defs>
    <g clip-path="url(#p8abbd6baa1)">
     <use style="fill:#bfbf00;fill-opacity:0.3;stroke:#000000;stroke-opacity:0.3;" x="0.0" xlink:href="#m4b199ee2ff" y="465.868"/>
    </g>
   </g>
   <g id="PolyCollection_7">
    <defs>
     <path d="M 550.78536 -197.92625 
L 536.80214 -197.92625 
L 536.623545 -198.653523 
L 536.448367 -199.380795 
L 536.277059 -200.108068 
L 536.110075 -200.835341 
L 535.947876 -201.562614 
L 535.79092 -202.289886 
L 535.639666 -203.017159 
L 535.494569 -203.744432 
L 535.356079 -204.471705 
L 535.224636 -205.198977 
L 535.100671 -205.92625 
L 534.984601 -206.653523 
L 534.876825 -207.380795 
L 534.777721 -208.108068 
L 534.687644 -208.835341 
L 534.606921 -209.562614 
L 534.535845 -210.289886 
L 534.474677 -211.017159 
L 534.423636 -211.744432 
L 534.382897 -212.471705 
L 534.352589 -213.198977 
L 534.332787 -213.92625 
L 534.323515 -214.653523 
L 534.324734 -215.380795 
L 534.336346 -216.108068 
L 534.358187 -216.835341 
L 534.390025 -217.562614 
L 534.43156 -218.289886 
L 534.482418 -219.017159 
L 534.542156 -219.744432 
L 534.610255 -220.471705 
L 534.686123 -221.198977 
L 534.769094 -221.92625 
L 534.858433 -222.653523 
L 534.953331 -223.380795 
L 535.052914 -224.108068 
L 535.156243 -224.835341 
L 535.262316 -225.562614 
L 535.370076 -226.289886 
L 535.478415 -227.017159 
L 535.586178 -227.744432 
L 535.692171 -228.471705 
L 535.795167 -229.198977 
L 535.893916 -229.92625 
L 535.987148 -230.653523 
L 536.073587 -231.380795 
L 536.151955 -232.108068 
L 536.220984 -232.835341 
L 536.279427 -233.562614 
L 536.326063 -234.289886 
L 536.359712 -235.017159 
L 536.379239 -235.744432 
L 536.38357 -236.471705 
L 536.371701 -237.198977 
L 536.342701 -237.92625 
L 536.295732 -238.653523 
L 536.230049 -239.380795 
L 536.145014 -240.108068 
L 536.040103 -240.835341 
L 535.914914 -241.562614 
L 535.769173 -242.289886 
L 535.602741 -243.017159 
L 535.415618 -243.744432 
L 535.207953 -244.471705 
L 534.98004 -245.198977 
L 534.732326 -245.92625 
L 534.46541 -246.653523 
L 534.180044 -247.380795 
L 533.877134 -248.108068 
L 533.557735 -248.835341 
L 533.223046 -249.562614 
L 532.874413 -250.289886 
L 532.513314 -251.017159 
L 532.141358 -251.744432 
L 531.760272 -252.471705 
L 531.371897 -253.198977 
L 530.978169 -253.92625 
L 530.581116 -254.653523 
L 530.182837 -255.380795 
L 529.785492 -256.108068 
L 529.391288 -256.835341 
L 529.002462 -257.562614 
L 528.621262 -258.289886 
L 528.249936 -259.017159 
L 527.890711 -259.744432 
L 527.545779 -260.471705 
L 527.217276 -261.198977 
L 526.90727 -261.92625 
L 526.617742 -262.653523 
L 526.350569 -263.380795 
L 526.107513 -264.108068 
L 525.890202 -264.835341 
L 525.700123 -265.562614 
L 525.538604 -266.289886 
L 525.406806 -267.017159 
L 525.305714 -267.744432 
L 525.236132 -268.471705 
L 525.198671 -269.198977 
L 525.19375 -269.92625 
L 562.39375 -269.92625 
L 562.39375 -269.92625 
L 562.388829 -269.198977 
L 562.351368 -268.471705 
L 562.281786 -267.744432 
L 562.180694 -267.017159 
L 562.048896 -266.289886 
L 561.887377 -265.562614 
L 561.697298 -264.835341 
L 561.479987 -264.108068 
L 561.236931 -263.380795 
L 560.969758 -262.653523 
L 560.68023 -261.92625 
L 560.370224 -261.198977 
L 560.041721 -260.471705 
L 559.696789 -259.744432 
L 559.337564 -259.017159 
L 558.966238 -258.289886 
L 558.585038 -257.562614 
L 558.196212 -256.835341 
L 557.802008 -256.108068 
L 557.404663 -255.380795 
L 557.006384 -254.653523 
L 556.609331 -253.92625 
L 556.215603 -253.198977 
L 555.827228 -252.471705 
L 555.446142 -251.744432 
L 555.074186 -251.017159 
L 554.713087 -250.289886 
L 554.364454 -249.562614 
L 554.029765 -248.835341 
L 553.710366 -248.108068 
L 553.407456 -247.380795 
L 553.12209 -246.653523 
L 552.855174 -245.92625 
L 552.60746 -245.198977 
L 552.379547 -244.471705 
L 552.171882 -243.744432 
L 551.984759 -243.017159 
L 551.818327 -242.289886 
L 551.672586 -241.562614 
L 551.547397 -240.835341 
L 551.442486 -240.108068 
L 551.357451 -239.380795 
L 551.291768 -238.653523 
L 551.244799 -237.92625 
L 551.215799 -237.198977 
L 551.20393 -236.471705 
L 551.208261 -235.744432 
L 551.227788 -235.017159 
L 551.261437 -234.289886 
L 551.308073 -233.562614 
L 551.366516 -232.835341 
L 551.435545 -232.108068 
L 551.513913 -231.380795 
L 551.600352 -230.653523 
L 551.693584 -229.92625 
L 551.792333 -229.198977 
L 551.895329 -228.471705 
L 552.001322 -227.744432 
L 552.109085 -227.017159 
L 552.217424 -226.289886 
L 552.325184 -225.562614 
L 552.431257 -224.835341 
L 552.534586 -224.108068 
L 552.634169 -223.380795 
L 552.729067 -222.653523 
L 552.818406 -221.92625 
L 552.901377 -221.198977 
L 552.977245 -220.471705 
L 553.045344 -219.744432 
L 553.105082 -219.017159 
L 553.15594 -218.289886 
L 553.197475 -217.562614 
L 553.229313 -216.835341 
L 553.251154 -216.108068 
L 553.262766 -215.380795 
L 553.263985 -214.653523 
L 553.254713 -213.92625 
L 553.234911 -213.198977 
L 553.204603 -212.471705 
L 553.163864 -211.744432 
L 553.112823 -211.017159 
L 553.051655 -210.289886 
L 552.980579 -209.562614 
L 552.899856 -208.835341 
L 552.809779 -208.108068 
L 552.710675 -207.380795 
L 552.602899 -206.653523 
L 552.486829 -205.92625 
L 552.362864 -205.198977 
L 552.231421 -204.471705 
L 552.092931 -203.744432 
L 551.947834 -203.017159 
L 551.79658 -202.289886 
L 551.639624 -201.562614 
L 551.477425 -200.835341 
L 551.310441 -200.108068 
L 551.139133 -199.380795 
L 550.963955 -198.653523 
L 550.78536 -197.92625 
z
" id="m06fa6513de" style="stroke:#000000;stroke-opacity:0.3;"/>
    </defs>
    <g clip-path="url(#p8abbd6baa1)">
     <use style="fill:#bfbf00;fill-opacity:0.3;stroke:#000000;stroke-opacity:0.3;" x="0.0" xlink:href="#m06fa6513de" y="465.868"/>
    </g>
   </g>
   <g id="PolyCollection_8">
    <defs>
     <path d="M 632.194111 -125.92625 
L 604.193389 -125.92625 
L 604.113189 -127.380795 
L 604.048545 -128.835341 
L 603.999395 -130.289886 
L 603.965603 -131.744432 
L 603.94696 -133.198977 
L 603.943187 -134.653523 
L 603.953934 -136.108068 
L 603.978782 -137.562614 
L 604.017251 -139.017159 
L 604.068798 -140.471705 
L 604.132822 -141.92625 
L 604.208669 -143.380795 
L 604.295637 -144.835341 
L 604.392977 -146.289886 
L 604.4999 -147.744432 
L 604.615583 -149.198977 
L 604.739173 -150.653523 
L 604.86979 -152.108068 
L 605.006535 -153.562614 
L 605.148492 -155.017159 
L 605.294737 -156.471705 
L 605.444339 -157.92625 
L 605.596365 -159.380795 
L 605.749888 -160.835341 
L 605.903985 -162.289886 
L 606.057747 -163.744432 
L 606.21028 -165.198977 
L 606.360708 -166.653523 
L 606.508177 -168.108068 
L 606.651857 -169.562614 
L 606.790944 -171.017159 
L 606.924666 -172.471705 
L 607.052281 -173.92625 
L 607.173078 -175.380795 
L 607.286382 -176.835341 
L 607.391553 -178.289886 
L 607.487988 -179.744432 
L 607.575121 -181.198977 
L 607.652423 -182.653523 
L 607.719404 -184.108068 
L 607.775614 -185.562614 
L 607.820641 -187.017159 
L 607.854113 -188.471705 
L 607.875697 -189.92625 
L 607.885103 -191.380795 
L 607.88208 -192.835341 
L 607.866417 -194.289886 
L 607.837948 -195.744432 
L 607.796545 -197.198977 
L 607.742127 -198.653523 
L 607.674656 -200.108068 
L 607.594136 -201.562614 
L 607.500619 -203.017159 
L 607.394203 -204.471705 
L 607.275035 -205.92625 
L 607.143307 -207.380795 
L 606.999265 -208.835341 
L 606.843203 -210.289886 
L 606.675468 -211.744432 
L 606.49646 -213.198977 
L 606.306632 -214.653523 
L 606.106491 -216.108068 
L 605.896599 -217.562614 
L 605.677572 -219.017159 
L 605.450082 -220.471705 
L 605.214853 -221.92625 
L 604.972665 -223.380795 
L 604.724348 -224.835341 
L 604.470783 -226.289886 
L 604.212902 -227.744432 
L 603.95168 -229.198977 
L 603.688137 -230.653523 
L 603.423334 -232.108068 
L 603.158366 -233.562614 
L 602.894362 -235.017159 
L 602.632477 -236.471705 
L 602.37389 -237.92625 
L 602.119793 -239.380795 
L 601.871393 -240.835341 
L 601.629899 -242.289886 
L 601.396519 -243.744432 
L 601.172451 -245.198977 
L 600.958879 -246.653523 
L 600.756964 -248.108068 
L 600.567836 -249.562614 
L 600.392591 -251.017159 
L 600.232278 -252.471705 
L 600.087897 -253.92625 
L 599.960392 -255.380795 
L 599.850639 -256.835341 
L 599.75945 -258.289886 
L 599.687556 -259.744432 
L 599.635612 -261.198977 
L 599.604184 -262.653523 
L 599.59375 -264.108068 
L 599.604696 -265.562614 
L 599.637311 -267.017159 
L 599.691787 -268.471705 
L 599.768214 -269.92625 
L 636.619286 -269.92625 
L 636.619286 -269.92625 
L 636.695713 -268.471705 
L 636.750189 -267.017159 
L 636.782804 -265.562614 
L 636.79375 -264.108068 
L 636.783316 -262.653523 
L 636.751888 -261.198977 
L 636.699944 -259.744432 
L 636.62805 -258.289886 
L 636.536861 -256.835341 
L 636.427108 -255.380795 
L 636.299603 -253.92625 
L 636.155222 -252.471705 
L 635.994909 -251.017159 
L 635.819664 -249.562614 
L 635.630536 -248.108068 
L 635.428621 -246.653523 
L 635.215049 -245.198977 
L 634.990981 -243.744432 
L 634.757601 -242.289886 
L 634.516107 -240.835341 
L 634.267707 -239.380795 
L 634.01361 -237.92625 
L 633.755023 -236.471705 
L 633.493138 -235.017159 
L 633.229134 -233.562614 
L 632.964166 -232.108068 
L 632.699363 -230.653523 
L 632.43582 -229.198977 
L 632.174598 -227.744432 
L 631.916717 -226.289886 
L 631.663152 -224.835341 
L 631.414835 -223.380795 
L 631.172647 -221.92625 
L 630.937418 -220.471705 
L 630.709928 -219.017159 
L 630.490901 -217.562614 
L 630.281009 -216.108068 
L 630.080868 -214.653523 
L 629.89104 -213.198977 
L 629.712032 -211.744432 
L 629.544297 -210.289886 
L 629.388235 -208.835341 
L 629.244193 -207.380795 
L 629.112465 -205.92625 
L 628.993297 -204.471705 
L 628.886881 -203.017159 
L 628.793364 -201.562614 
L 628.712844 -200.108068 
L 628.645373 -198.653523 
L 628.590955 -197.198977 
L 628.549552 -195.744432 
L 628.521083 -194.289886 
L 628.50542 -192.835341 
L 628.502397 -191.380795 
L 628.511803 -189.92625 
L 628.533387 -188.471705 
L 628.566859 -187.017159 
L 628.611886 -185.562614 
L 628.668096 -184.108068 
L 628.735077 -182.653523 
L 628.812379 -181.198977 
L 628.899512 -179.744432 
L 628.995947 -178.289886 
L 629.101118 -176.835341 
L 629.214422 -175.380795 
L 629.335219 -173.92625 
L 629.462834 -172.471705 
L 629.596556 -171.017159 
L 629.735643 -169.562614 
L 629.879323 -168.108068 
L 630.026792 -166.653523 
L 630.17722 -165.198977 
L 630.329753 -163.744432 
L 630.483515 -162.289886 
L 630.637612 -160.835341 
L 630.791135 -159.380795 
L 630.943161 -157.92625 
L 631.092763 -156.471705 
L 631.239008 -155.017159 
L 631.380965 -153.562614 
L 631.51771 -152.108068 
L 631.648327 -150.653523 
L 631.771917 -149.198977 
L 631.8876 -147.744432 
L 631.994523 -146.289886 
L 632.091863 -144.835341 
L 632.178831 -143.380795 
L 632.254678 -141.92625 
L 632.318702 -140.471705 
L 632.370249 -139.017159 
L 632.408718 -137.562614 
L 632.433566 -136.108068 
L 632.444313 -134.653523 
L 632.44054 -133.198977 
L 632.421897 -131.744432 
L 632.388105 -130.289886 
L 632.338955 -128.835341 
L 632.274311 -127.380795 
L 632.194111 -125.92625 
z
" id="m2ced70b392" style="stroke:#000000;stroke-opacity:0.3;"/>
    </defs>
    <g clip-path="url(#p8abbd6baa1)">
     <use style="fill:#bfbf00;fill-opacity:0.3;stroke:#000000;stroke-opacity:0.3;" x="0.0" xlink:href="#m2ced70b392" y="465.868"/>
    </g>
   </g>
   <g id="LineCollection_1">
    <path clip-path="url(#p8abbd6baa1)" d="M 88.09375 123.94175 
L 106.69375 123.94175 
" style="fill:none;stroke:#ff0000;"/>
    <path clip-path="url(#p8abbd6baa1)" d="M 162.49375 192.34175 
L 181.09375 192.34175 
" style="fill:none;stroke:#ff0000;"/>
    <path clip-path="url(#p8abbd6baa1)" d="M 236.89375 195.94175 
L 255.49375 195.94175 
" style="fill:none;stroke:#ff0000;"/>
    <path clip-path="url(#p8abbd6baa1)" d="M 311.29375 195.94175 
L 329.89375 195.94175 
" style="fill:none;stroke:#ff0000;"/>
    <path clip-path="url(#p8abbd6baa1)" d="M 385.69375 195.94175 
L 404.29375 195.94175 
" style="fill:none;stroke:#ff0000;"/>
    <path clip-path="url(#p8abbd6baa1)" d="M 460.09375 195.94175 
L 478.69375 195.94175 
" style="fill:none;stroke:#ff0000;"/>
    <path clip-path="url(#p8abbd6baa1)" d="M 534.49375 195.94175 
L 553.09375 195.94175 
" style="fill:none;stroke:#ff0000;"/>
    <path clip-path="url(#p8abbd6baa1)" d="M 608.89375 235.54175 
L 627.49375 235.54175 
" style="fill:none;stroke:#ff0000;"/>
   </g>
   <g id="patch_3">
    <path d="M 692.59375 368.74175 
L 692.59375 23.14175 
" style="fill:none;stroke:#000000;stroke-linecap:square;stroke-linejoin:miter;"/>
   </g>
   <g id="patch_4">
    <path d="M 22.99375 23.14175 
L 692.59375 23.14175 
" style="fill:none;stroke:#000000;stroke-linecap:square;stroke-linejoin:miter;"/>
   </g>
   <g id="patch_5">
    <path d="M 22.99375 368.74175 
L 692.59375 368.74175 
" style="fill:none;stroke:#000000;stroke-linecap:square;stroke-linejoin:miter;"/>
   </g>
   <g id="patch_6">
    <path d="M 22.99375 368.74175 
L 22.99375 23.14175 
" style="fill:none;stroke:#000000;stroke-linecap:square;stroke-linejoin:miter;"/>
   </g>
   <g id="matplotlib.axis_1">
    <g id="xtick_1">
     <g id="line2d_1">
      <defs>
       <path d="M 0 0 
L 0 -4 
" id="m0131ae9b37" style="stroke:#000000;stroke-width:0.5;"/>
      </defs>
      <g>
       <use style="stroke:#000000;stroke-width:0.5;" x="97.39375" xlink:href="#m0131ae9b37" y="368.74175"/>
      </g>
     </g>
     <g id="line2d_2">
      <defs>
       <path d="M 0 0 
L 0 4 
" id="m664dca12c3" style="stroke:#000000;stroke-width:0.5;"/>
      </defs>
      <g>
       <use style="stroke:#000000;stroke-width:0.5;" x="97.39375" xlink:href="#m664dca12c3" y="23.14175"/>
      </g>
     </g>
     <g id="text_1">
      <!-- Defector -->
      <defs>
       <path d="M 30.609375 48.390625 
Q 23.390625 48.390625 19.1875 42.75 
Q 14.984375 37.109375 14.984375 27.296875 
Q 14.984375 17.484375 19.15625 11.84375 
Q 23.34375 6.203125 30.609375 6.203125 
Q 37.796875 6.203125 41.984375 11.859375 
Q 46.1875 17.53125 46.1875 27.296875 
Q 46.1875 37.015625 41.984375 42.703125 
Q 37.796875 48.390625 30.609375 48.390625 
M 30.609375 56 
Q 42.328125 56 49.015625 48.375 
Q 55.71875 40.765625 55.71875 27.296875 
Q 55.71875 13.875 49.015625 6.21875 
Q 42.328125 -1.421875 30.609375 -1.421875 
Q 18.84375 -1.421875 12.171875 6.21875 
Q 5.515625 13.875 5.515625 27.296875 
Q 5.515625 40.765625 12.171875 48.375 
Q 18.84375 56 30.609375 56 
" id="BitstreamVeraSans-Roman-6f"/>
       <path d="M 18.3125 70.21875 
L 18.3125 54.6875 
L 36.8125 54.6875 
L 36.8125 47.703125 
L 18.3125 47.703125 
L 18.3125 18.015625 
Q 18.3125 11.328125 20.140625 9.421875 
Q 21.96875 7.515625 27.59375 7.515625 
L 36.8125 7.515625 
L 36.8125 0 
L 27.59375 0 
Q 17.1875 0 13.234375 3.875 
Q 9.28125 7.765625 9.28125 18.015625 
L 9.28125 47.703125 
L 2.6875 47.703125 
L 2.6875 54.6875 
L 9.28125 54.6875 
L 9.28125 70.21875 
z
" id="BitstreamVeraSans-Roman-74"/>
       <path d="M 48.78125 52.59375 
L 48.78125 44.1875 
Q 44.96875 46.296875 41.140625 47.34375 
Q 37.3125 48.390625 33.40625 48.390625 
Q 24.65625 48.390625 19.8125 42.84375 
Q 14.984375 37.3125 14.984375 27.296875 
Q 14.984375 17.28125 19.8125 11.734375 
Q 24.65625 6.203125 33.40625 6.203125 
Q 37.3125 6.203125 41.140625 7.25 
Q 44.96875 8.296875 48.78125 10.40625 
L 48.78125 2.09375 
Q 45.015625 0.34375 40.984375 -0.53125 
Q 36.96875 -1.421875 32.421875 -1.421875 
Q 20.0625 -1.421875 12.78125 6.34375 
Q 5.515625 14.109375 5.515625 27.296875 
Q 5.515625 40.671875 12.859375 48.328125 
Q 20.21875 56 33.015625 56 
Q 37.15625 56 41.109375 55.140625 
Q 45.0625 54.296875 48.78125 52.59375 
" id="BitstreamVeraSans-Roman-63"/>
       <path d="M 41.109375 46.296875 
Q 39.59375 47.171875 37.8125 47.578125 
Q 36.03125 48 33.890625 48 
Q 26.265625 48 22.1875 43.046875 
Q 18.109375 38.09375 18.109375 28.8125 
L 18.109375 0 
L 9.078125 0 
L 9.078125 54.6875 
L 18.109375 54.6875 
L 18.109375 46.1875 
Q 20.953125 51.171875 25.484375 53.578125 
Q 30.03125 56 36.53125 56 
Q 37.453125 56 38.578125 55.875 
Q 39.703125 55.765625 41.0625 55.515625 
z
" id="BitstreamVeraSans-Roman-72"/>
       <path d="M 56.203125 29.59375 
L 56.203125 25.203125 
L 14.890625 25.203125 
Q 15.484375 15.921875 20.484375 11.0625 
Q 25.484375 6.203125 34.421875 6.203125 
Q 39.59375 6.203125 44.453125 7.46875 
Q 49.3125 8.734375 54.109375 11.28125 
L 54.109375 2.78125 
Q 49.265625 0.734375 44.1875 -0.34375 
Q 39.109375 -1.421875 33.890625 -1.421875 
Q 20.796875 -1.421875 13.15625 6.1875 
Q 5.515625 13.8125 5.515625 26.8125 
Q 5.515625 40.234375 12.765625 48.109375 
Q 20.015625 56 32.328125 56 
Q 43.359375 56 49.78125 48.890625 
Q 56.203125 41.796875 56.203125 29.59375 
M 47.21875 32.234375 
Q 47.125 39.59375 43.09375 43.984375 
Q 39.0625 48.390625 32.421875 48.390625 
Q 24.90625 48.390625 20.390625 44.140625 
Q 15.875 39.890625 15.1875 32.171875 
z
" id="BitstreamVeraSans-Roman-65"/>
       <path d="M 19.671875 64.796875 
L 19.671875 8.109375 
L 31.59375 8.109375 
Q 46.6875 8.109375 53.6875 14.9375 
Q 60.6875 21.78125 60.6875 36.53125 
Q 60.6875 51.171875 53.6875 57.984375 
Q 46.6875 64.796875 31.59375 64.796875 
z
M 9.8125 72.90625 
L 30.078125 72.90625 
Q 51.265625 72.90625 61.171875 64.09375 
Q 71.09375 55.28125 71.09375 36.53125 
Q 71.09375 17.671875 61.125 8.828125 
Q 51.171875 0 30.078125 0 
L 9.8125 0 
z
" id="BitstreamVeraSans-Roman-44"/>
       <path d="M 37.109375 75.984375 
L 37.109375 68.5 
L 28.515625 68.5 
Q 23.6875 68.5 21.796875 66.546875 
Q 19.921875 64.59375 19.921875 59.515625 
L 19.921875 54.6875 
L 34.71875 54.6875 
L 34.71875 47.703125 
L 19.921875 47.703125 
L 19.921875 0 
L 10.890625 0 
L 10.890625 47.703125 
L 2.296875 47.703125 
L 2.296875 54.6875 
L 10.890625 54.6875 
L 10.890625 58.5 
Q 10.890625 67.625 15.140625 71.796875 
Q 19.390625 75.984375 28.609375 75.984375 
z
" id="BitstreamVeraSans-Roman-66"/>
      </defs>
      <g transform="translate(99.60125 407.28175)rotate(-90.0)scale(0.08 -0.08)">
       <use xlink:href="#BitstreamVeraSans-Roman-44"/>
       <use x="77.001953125" xlink:href="#BitstreamVeraSans-Roman-65"/>
       <use x="138.525390625" xlink:href="#BitstreamVeraSans-Roman-66"/>
       <use x="173.73046875" xlink:href="#BitstreamVeraSans-Roman-65"/>
       <use x="235.25390625" xlink:href="#BitstreamVeraSans-Roman-63"/>
       <use x="290.234375" xlink:href="#BitstreamVeraSans-Roman-74"/>
       <use x="329.443359375" xlink:href="#BitstreamVeraSans-Roman-6f"/>
       <use x="390.625" xlink:href="#BitstreamVeraSans-Roman-72"/>
      </g>
     </g>
    </g>
    <g id="xtick_2">
     <g id="line2d_3">
      <g>
       <use style="stroke:#000000;stroke-width:0.5;" x="171.79375" xlink:href="#m0131ae9b37" y="368.74175"/>
      </g>
     </g>
     <g id="line2d_4">
      <g>
       <use style="stroke:#000000;stroke-width:0.5;" x="171.79375" xlink:href="#m664dca12c3" y="23.14175"/>
      </g>
     </g>
     <g id="text_2">
      <!-- Bully -->
      <defs>
       <path d="M 9.421875 75.984375 
L 18.40625 75.984375 
L 18.40625 0 
L 9.421875 0 
z
" id="BitstreamVeraSans-Roman-6c"/>
       <path d="M 19.671875 34.8125 
L 19.671875 8.109375 
L 35.5 8.109375 
Q 43.453125 8.109375 47.28125 11.40625 
Q 51.125 14.703125 51.125 21.484375 
Q 51.125 28.328125 47.28125 31.5625 
Q 43.453125 34.8125 35.5 34.8125 
z
M 19.671875 64.796875 
L 19.671875 42.828125 
L 34.28125 42.828125 
Q 41.5 42.828125 45.03125 45.53125 
Q 48.578125 48.25 48.578125 53.8125 
Q 48.578125 59.328125 45.03125 62.0625 
Q 41.5 64.796875 34.28125 64.796875 
z
M 9.8125 72.90625 
L 35.015625 72.90625 
Q 46.296875 72.90625 52.390625 68.21875 
Q 58.5 63.53125 58.5 54.890625 
Q 58.5 48.1875 55.375 44.234375 
Q 52.25 40.28125 46.1875 39.3125 
Q 53.46875 37.75 57.5 32.78125 
Q 61.53125 27.828125 61.53125 20.40625 
Q 61.53125 10.640625 54.890625 5.3125 
Q 48.25 0 35.984375 0 
L 9.8125 0 
z
" id="BitstreamVeraSans-Roman-42"/>
       <path d="M 8.5 21.578125 
L 8.5 54.6875 
L 17.484375 54.6875 
L 17.484375 21.921875 
Q 17.484375 14.15625 20.5 10.265625 
Q 23.53125 6.390625 29.59375 6.390625 
Q 36.859375 6.390625 41.078125 11.03125 
Q 45.3125 15.671875 45.3125 23.6875 
L 45.3125 54.6875 
L 54.296875 54.6875 
L 54.296875 0 
L 45.3125 0 
L 45.3125 8.40625 
Q 42.046875 3.421875 37.71875 1 
Q 33.40625 -1.421875 27.6875 -1.421875 
Q 18.265625 -1.421875 13.375 4.4375 
Q 8.5 10.296875 8.5 21.578125 
" id="BitstreamVeraSans-Roman-75"/>
       <path d="M 32.171875 -5.078125 
Q 28.375 -14.84375 24.75 -17.8125 
Q 21.140625 -20.796875 15.09375 -20.796875 
L 7.90625 -20.796875 
L 7.90625 -13.28125 
L 13.1875 -13.28125 
Q 16.890625 -13.28125 18.9375 -11.515625 
Q 21 -9.765625 23.484375 -3.21875 
L 25.09375 0.875 
L 2.984375 54.6875 
L 12.5 54.6875 
L 29.59375 11.921875 
L 46.6875 54.6875 
L 56.203125 54.6875 
z
" id="BitstreamVeraSans-Roman-79"/>
      </defs>
      <g transform="translate(174.00125 392.4805)rotate(-90.0)scale(0.08 -0.08)">
       <use xlink:href="#BitstreamVeraSans-Roman-42"/>
       <use x="68.603515625" xlink:href="#BitstreamVeraSans-Roman-75"/>
       <use x="131.982421875" xlink:href="#BitstreamVeraSans-Roman-6c"/>
       <use x="159.765625" xlink:href="#BitstreamVeraSans-Roman-6c"/>
       <use x="187.548828125" xlink:href="#BitstreamVeraSans-Roman-79"/>
      </g>
     </g>
    </g>
    <g id="xtick_3">
     <g id="line2d_5">
      <g>
       <use style="stroke:#000000;stroke-width:0.5;" x="246.19375" xlink:href="#m0131ae9b37" y="368.74175"/>
      </g>
     </g>
     <g id="line2d_6">
      <g>
       <use style="stroke:#000000;stroke-width:0.5;" x="246.19375" xlink:href="#m664dca12c3" y="23.14175"/>
      </g>
     </g>
     <g id="text_3">
      <!-- Tit For Tat -->
      <defs>
       <path d="M 34.28125 27.484375 
Q 23.390625 27.484375 19.1875 25 
Q 14.984375 22.515625 14.984375 16.5 
Q 14.984375 11.71875 18.140625 8.90625 
Q 21.296875 6.109375 26.703125 6.109375 
Q 34.1875 6.109375 38.703125 11.40625 
Q 43.21875 16.703125 43.21875 25.484375 
L 43.21875 27.484375 
z
M 52.203125 31.203125 
L 52.203125 0 
L 43.21875 0 
L 43.21875 8.296875 
Q 40.140625 3.328125 35.546875 0.953125 
Q 30.953125 -1.421875 24.3125 -1.421875 
Q 15.921875 -1.421875 10.953125 3.296875 
Q 6 8.015625 6 15.921875 
Q 6 25.140625 12.171875 29.828125 
Q 18.359375 34.515625 30.609375 34.515625 
L 43.21875 34.515625 
L 43.21875 35.40625 
Q 43.21875 41.609375 39.140625 45 
Q 35.0625 48.390625 27.6875 48.390625 
Q 23 48.390625 18.546875 47.265625 
Q 14.109375 46.140625 10.015625 43.890625 
L 10.015625 52.203125 
Q 14.9375 54.109375 19.578125 55.046875 
Q 24.21875 56 28.609375 56 
Q 40.484375 56 46.34375 49.84375 
Q 52.203125 43.703125 52.203125 31.203125 
" id="BitstreamVeraSans-Roman-61"/>
       <path d="M 9.421875 54.6875 
L 18.40625 54.6875 
L 18.40625 0 
L 9.421875 0 
z
M 9.421875 75.984375 
L 18.40625 75.984375 
L 18.40625 64.59375 
L 9.421875 64.59375 
z
" id="BitstreamVeraSans-Roman-69"/>
       <path id="BitstreamVeraSans-Roman-20"/>
       <path d="M 9.8125 72.90625 
L 51.703125 72.90625 
L 51.703125 64.59375 
L 19.671875 64.59375 
L 19.671875 43.109375 
L 48.578125 43.109375 
L 48.578125 34.8125 
L 19.671875 34.8125 
L 19.671875 0 
L 9.8125 0 
z
" id="BitstreamVeraSans-Roman-46"/>
       <path d="M -0.296875 72.90625 
L 61.375 72.90625 
L 61.375 64.59375 
L 35.5 64.59375 
L 35.5 0 
L 25.59375 0 
L 25.59375 64.59375 
L -0.296875 64.59375 
z
" id="BitstreamVeraSans-Roman-54"/>
      </defs>
      <g transform="translate(248.40125 413.75425)rotate(-90.0)scale(0.08 -0.08)">
       <use xlink:href="#BitstreamVeraSans-Roman-54"/>
       <use x="61.037109375" xlink:href="#BitstreamVeraSans-Roman-69"/>
       <use x="88.8203125" xlink:href="#BitstreamVeraSans-Roman-74"/>
       <use x="128.029296875" xlink:href="#BitstreamVeraSans-Roman-20"/>
       <use x="159.81640625" xlink:href="#BitstreamVeraSans-Roman-46"/>
       <use x="217.2890625" xlink:href="#BitstreamVeraSans-Roman-6f"/>
       <use x="278.470703125" xlink:href="#BitstreamVeraSans-Roman-72"/>
       <use x="319.583984375" xlink:href="#BitstreamVeraSans-Roman-20"/>
       <use x="351.37109375" xlink:href="#BitstreamVeraSans-Roman-54"/>
       <use x="412.205078125" xlink:href="#BitstreamVeraSans-Roman-61"/>
       <use x="473.484375" xlink:href="#BitstreamVeraSans-Roman-74"/>
      </g>
     </g>
    </g>
    <g id="xtick_4">
     <g id="line2d_7">
      <g>
       <use style="stroke:#000000;stroke-width:0.5;" x="320.59375" xlink:href="#m0131ae9b37" y="368.74175"/>
      </g>
     </g>
     <g id="line2d_8">
      <g>
       <use style="stroke:#000000;stroke-width:0.5;" x="320.59375" xlink:href="#m664dca12c3" y="23.14175"/>
      </g>
     </g>
     <g id="text_4">
      <!-- Alternator -->
      <defs>
       <path d="M 34.1875 63.1875 
L 20.796875 26.90625 
L 47.609375 26.90625 
z
M 28.609375 72.90625 
L 39.796875 72.90625 
L 67.578125 0 
L 57.328125 0 
L 50.6875 18.703125 
L 17.828125 18.703125 
L 11.1875 0 
L 0.78125 0 
z
" id="BitstreamVeraSans-Roman-41"/>
       <path d="M 54.890625 33.015625 
L 54.890625 0 
L 45.90625 0 
L 45.90625 32.71875 
Q 45.90625 40.484375 42.875 44.328125 
Q 39.84375 48.1875 33.796875 48.1875 
Q 26.515625 48.1875 22.3125 43.546875 
Q 18.109375 38.921875 18.109375 30.90625 
L 18.109375 0 
L 9.078125 0 
L 9.078125 54.6875 
L 18.109375 54.6875 
L 18.109375 46.1875 
Q 21.34375 51.125 25.703125 53.5625 
Q 30.078125 56 35.796875 56 
Q 45.21875 56 50.046875 50.171875 
Q 54.890625 44.34375 54.890625 33.015625 
" id="BitstreamVeraSans-Roman-6e"/>
      </defs>
      <g transform="translate(322.80125 413.0755)rotate(-90.0)scale(0.08 -0.08)">
       <use xlink:href="#BitstreamVeraSans-Roman-41"/>
       <use x="68.408203125" xlink:href="#BitstreamVeraSans-Roman-6c"/>
       <use x="96.19140625" xlink:href="#BitstreamVeraSans-Roman-74"/>
       <use x="135.400390625" xlink:href="#BitstreamVeraSans-Roman-65"/>
       <use x="196.923828125" xlink:href="#BitstreamVeraSans-Roman-72"/>
       <use x="238.021484375" xlink:href="#BitstreamVeraSans-Roman-6e"/>
       <use x="301.400390625" xlink:href="#BitstreamVeraSans-Roman-61"/>
       <use x="362.6796875" xlink:href="#BitstreamVeraSans-Roman-74"/>
       <use x="401.888671875" xlink:href="#BitstreamVeraSans-Roman-6f"/>
       <use x="463.0703125" xlink:href="#BitstreamVeraSans-Roman-72"/>
      </g>
     </g>
    </g>
    <g id="xtick_5">
     <g id="line2d_9">
      <g>
       <use style="stroke:#000000;stroke-width:0.5;" x="394.99375" xlink:href="#m0131ae9b37" y="368.74175"/>
      </g>
     </g>
     <g id="line2d_10">
      <g>
       <use style="stroke:#000000;stroke-width:0.5;" x="394.99375" xlink:href="#m664dca12c3" y="23.14175"/>
      </g>
     </g>
     <g id="text_5">
      <!-- Suspicious Tit For Tat -->
      <defs>
       <path d="M 53.515625 70.515625 
L 53.515625 60.890625 
Q 47.90625 63.578125 42.921875 64.890625 
Q 37.9375 66.21875 33.296875 66.21875 
Q 25.25 66.21875 20.875 63.09375 
Q 16.5 59.96875 16.5 54.203125 
Q 16.5 49.359375 19.40625 46.890625 
Q 22.3125 44.4375 30.421875 42.921875 
L 36.375 41.703125 
Q 47.40625 39.59375 52.65625 34.296875 
Q 57.90625 29 57.90625 20.125 
Q 57.90625 9.515625 50.796875 4.046875 
Q 43.703125 -1.421875 29.984375 -1.421875 
Q 24.8125 -1.421875 18.96875 -0.25 
Q 13.140625 0.921875 6.890625 3.21875 
L 6.890625 13.375 
Q 12.890625 10.015625 18.65625 8.296875 
Q 24.421875 6.59375 29.984375 6.59375 
Q 38.421875 6.59375 43.015625 9.90625 
Q 47.609375 13.234375 47.609375 19.390625 
Q 47.609375 24.75 44.3125 27.78125 
Q 41.015625 30.8125 33.5 32.328125 
L 27.484375 33.5 
Q 16.453125 35.6875 11.515625 40.375 
Q 6.59375 45.0625 6.59375 53.421875 
Q 6.59375 63.09375 13.40625 68.65625 
Q 20.21875 74.21875 32.171875 74.21875 
Q 37.3125 74.21875 42.625 73.28125 
Q 47.953125 72.359375 53.515625 70.515625 
" id="BitstreamVeraSans-Roman-53"/>
       <path d="M 18.109375 8.203125 
L 18.109375 -20.796875 
L 9.078125 -20.796875 
L 9.078125 54.6875 
L 18.109375 54.6875 
L 18.109375 46.390625 
Q 20.953125 51.265625 25.265625 53.625 
Q 29.59375 56 35.59375 56 
Q 45.5625 56 51.78125 48.09375 
Q 58.015625 40.1875 58.015625 27.296875 
Q 58.015625 14.40625 51.78125 6.484375 
Q 45.5625 -1.421875 35.59375 -1.421875 
Q 29.59375 -1.421875 25.265625 0.953125 
Q 20.953125 3.328125 18.109375 8.203125 
M 48.6875 27.296875 
Q 48.6875 37.203125 44.609375 42.84375 
Q 40.53125 48.484375 33.40625 48.484375 
Q 26.265625 48.484375 22.1875 42.84375 
Q 18.109375 37.203125 18.109375 27.296875 
Q 18.109375 17.390625 22.1875 11.75 
Q 26.265625 6.109375 33.40625 6.109375 
Q 40.53125 6.109375 44.609375 11.75 
Q 48.6875 17.390625 48.6875 27.296875 
" id="BitstreamVeraSans-Roman-70"/>
       <path d="M 44.28125 53.078125 
L 44.28125 44.578125 
Q 40.484375 46.53125 36.375 47.5 
Q 32.28125 48.484375 27.875 48.484375 
Q 21.1875 48.484375 17.84375 46.4375 
Q 14.5 44.390625 14.5 40.28125 
Q 14.5 37.15625 16.890625 35.375 
Q 19.28125 33.59375 26.515625 31.984375 
L 29.59375 31.296875 
Q 39.15625 29.25 43.1875 25.515625 
Q 47.21875 21.78125 47.21875 15.09375 
Q 47.21875 7.46875 41.1875 3.015625 
Q 35.15625 -1.421875 24.609375 -1.421875 
Q 20.21875 -1.421875 15.453125 -0.5625 
Q 10.6875 0.296875 5.421875 2 
L 5.421875 11.28125 
Q 10.40625 8.6875 15.234375 7.390625 
Q 20.0625 6.109375 24.8125 6.109375 
Q 31.15625 6.109375 34.5625 8.28125 
Q 37.984375 10.453125 37.984375 14.40625 
Q 37.984375 18.0625 35.515625 20.015625 
Q 33.0625 21.96875 24.703125 23.78125 
L 21.578125 24.515625 
Q 13.234375 26.265625 9.515625 29.90625 
Q 5.8125 33.546875 5.8125 39.890625 
Q 5.8125 47.609375 11.28125 51.796875 
Q 16.75 56 26.8125 56 
Q 31.78125 56 36.171875 55.265625 
Q 40.578125 54.546875 44.28125 53.078125 
" id="BitstreamVeraSans-Roman-73"/>
      </defs>
      <g transform="translate(397.20125 458.668)rotate(-90.0)scale(0.08 -0.08)">
       <use xlink:href="#BitstreamVeraSans-Roman-53"/>
       <use x="63.4765625" xlink:href="#BitstreamVeraSans-Roman-75"/>
       <use x="126.85546875" xlink:href="#BitstreamVeraSans-Roman-73"/>
       <use x="178.955078125" xlink:href="#BitstreamVeraSans-Roman-70"/>
       <use x="242.431640625" xlink:href="#BitstreamVeraSans-Roman-69"/>
       <use x="270.21484375" xlink:href="#BitstreamVeraSans-Roman-63"/>
       <use x="325.1953125" xlink:href="#BitstreamVeraSans-Roman-69"/>
       <use x="352.978515625" xlink:href="#BitstreamVeraSans-Roman-6f"/>
       <use x="414.16015625" xlink:href="#BitstreamVeraSans-Roman-75"/>
       <use x="477.5390625" xlink:href="#BitstreamVeraSans-Roman-73"/>
       <use x="529.638671875" xlink:href="#BitstreamVeraSans-Roman-20"/>
       <use x="561.42578125" xlink:href="#BitstreamVeraSans-Roman-54"/>
       <use x="622.462890625" xlink:href="#BitstreamVeraSans-Roman-69"/>
       <use x="650.24609375" xlink:href="#BitstreamVeraSans-Roman-74"/>
       <use x="689.455078125" xlink:href="#BitstreamVeraSans-Roman-20"/>
       <use x="721.2421875" xlink:href="#BitstreamVeraSans-Roman-46"/>
       <use x="778.71484375" xlink:href="#BitstreamVeraSans-Roman-6f"/>
       <use x="839.896484375" xlink:href="#BitstreamVeraSans-Roman-72"/>
       <use x="881.009765625" xlink:href="#BitstreamVeraSans-Roman-20"/>
       <use x="912.796875" xlink:href="#BitstreamVeraSans-Roman-54"/>
       <use x="973.630859375" xlink:href="#BitstreamVeraSans-Roman-61"/>
       <use x="1034.91015625" xlink:href="#BitstreamVeraSans-Roman-74"/>
      </g>
     </g>
    </g>
    <g id="xtick_6">
     <g id="line2d_11">
      <g>
       <use style="stroke:#000000;stroke-width:0.5;" x="469.39375" xlink:href="#m0131ae9b37" y="368.74175"/>
      </g>
     </g>
     <g id="line2d_12">
      <g>
       <use style="stroke:#000000;stroke-width:0.5;" x="469.39375" xlink:href="#m664dca12c3" y="23.14175"/>
      </g>
     </g>
     <g id="text_6">
      <!-- Anti Tit For Tat -->
      <g transform="translate(471.60125 432.198)rotate(-90.0)scale(0.08 -0.08)">
       <use xlink:href="#BitstreamVeraSans-Roman-41"/>
       <use x="68.408203125" xlink:href="#BitstreamVeraSans-Roman-6e"/>
       <use x="131.787109375" xlink:href="#BitstreamVeraSans-Roman-74"/>
       <use x="170.99609375" xlink:href="#BitstreamVeraSans-Roman-69"/>
       <use x="198.779296875" xlink:href="#BitstreamVeraSans-Roman-20"/>
       <use x="230.56640625" xlink:href="#BitstreamVeraSans-Roman-54"/>
       <use x="291.603515625" xlink:href="#BitstreamVeraSans-Roman-69"/>
       <use x="319.38671875" xlink:href="#BitstreamVeraSans-Roman-74"/>
       <use x="358.595703125" xlink:href="#BitstreamVeraSans-Roman-20"/>
       <use x="390.3828125" xlink:href="#BitstreamVeraSans-Roman-46"/>
       <use x="447.85546875" xlink:href="#BitstreamVeraSans-Roman-6f"/>
       <use x="509.037109375" xlink:href="#BitstreamVeraSans-Roman-72"/>
       <use x="550.150390625" xlink:href="#BitstreamVeraSans-Roman-20"/>
       <use x="581.9375" xlink:href="#BitstreamVeraSans-Roman-54"/>
       <use x="642.771484375" xlink:href="#BitstreamVeraSans-Roman-61"/>
       <use x="704.05078125" xlink:href="#BitstreamVeraSans-Roman-74"/>
      </g>
     </g>
    </g>
    <g id="xtick_7">
     <g id="line2d_13">
      <g>
       <use style="stroke:#000000;stroke-width:0.5;" x="543.79375" xlink:href="#m0131ae9b37" y="368.74175"/>
      </g>
     </g>
     <g id="line2d_14">
      <g>
       <use style="stroke:#000000;stroke-width:0.5;" x="543.79375" xlink:href="#m664dca12c3" y="23.14175"/>
      </g>
     </g>
     <g id="text_7">
      <!-- Win-Stay Lose-Shift -->
      <defs>
       <path d="M 4.890625 31.390625 
L 31.203125 31.390625 
L 31.203125 23.390625 
L 4.890625 23.390625 
z
" id="BitstreamVeraSans-Roman-2d"/>
       <path d="M 54.890625 33.015625 
L 54.890625 0 
L 45.90625 0 
L 45.90625 32.71875 
Q 45.90625 40.484375 42.875 44.328125 
Q 39.84375 48.1875 33.796875 48.1875 
Q 26.515625 48.1875 22.3125 43.546875 
Q 18.109375 38.921875 18.109375 30.90625 
L 18.109375 0 
L 9.078125 0 
L 9.078125 75.984375 
L 18.109375 75.984375 
L 18.109375 46.1875 
Q 21.34375 51.125 25.703125 53.5625 
Q 30.078125 56 35.796875 56 
Q 45.21875 56 50.046875 50.171875 
Q 54.890625 44.34375 54.890625 33.015625 
" id="BitstreamVeraSans-Roman-68"/>
       <path d="M 3.328125 72.90625 
L 13.28125 72.90625 
L 28.609375 11.28125 
L 43.890625 72.90625 
L 54.984375 72.90625 
L 70.3125 11.28125 
L 85.59375 72.90625 
L 95.609375 72.90625 
L 77.296875 0 
L 64.890625 0 
L 49.515625 63.28125 
L 33.984375 0 
L 21.578125 0 
z
" id="BitstreamVeraSans-Roman-57"/>
       <path d="M 9.8125 72.90625 
L 19.671875 72.90625 
L 19.671875 8.296875 
L 55.171875 8.296875 
L 55.171875 0 
L 9.8125 0 
z
" id="BitstreamVeraSans-Roman-4c"/>
      </defs>
      <g transform="translate(546.00125 450.873)rotate(-90.0)scale(0.08 -0.08)">
       <use xlink:href="#BitstreamVeraSans-Roman-57"/>
       <use x="98.845703125" xlink:href="#BitstreamVeraSans-Roman-69"/>
       <use x="126.62890625" xlink:href="#BitstreamVeraSans-Roman-6e"/>
       <use x="190.0078125" xlink:href="#BitstreamVeraSans-Roman-2d"/>
       <use x="226.091796875" xlink:href="#BitstreamVeraSans-Roman-53"/>
       <use x="289.568359375" xlink:href="#BitstreamVeraSans-Roman-74"/>
       <use x="328.77734375" xlink:href="#BitstreamVeraSans-Roman-61"/>
       <use x="390.056640625" xlink:href="#BitstreamVeraSans-Roman-79"/>
       <use x="449.236328125" xlink:href="#BitstreamVeraSans-Roman-20"/>
       <use x="481.0234375" xlink:href="#BitstreamVeraSans-Roman-4c"/>
       <use x="536.720703125" xlink:href="#BitstreamVeraSans-Roman-6f"/>
       <use x="597.90234375" xlink:href="#BitstreamVeraSans-Roman-73"/>
       <use x="650.001953125" xlink:href="#BitstreamVeraSans-Roman-65"/>
       <use x="711.525390625" xlink:href="#BitstreamVeraSans-Roman-2d"/>
       <use x="747.609375" xlink:href="#BitstreamVeraSans-Roman-53"/>
       <use x="811.0859375" xlink:href="#BitstreamVeraSans-Roman-68"/>
       <use x="874.46484375" xlink:href="#BitstreamVeraSans-Roman-69"/>
       <use x="902.248046875" xlink:href="#BitstreamVeraSans-Roman-66"/>
       <use x="937.4375" xlink:href="#BitstreamVeraSans-Roman-74"/>
      </g>
     </g>
    </g>
    <g id="xtick_8">
     <g id="line2d_15">
      <g>
       <use style="stroke:#000000;stroke-width:0.5;" x="618.19375" xlink:href="#m0131ae9b37" y="368.74175"/>
      </g>
     </g>
     <g id="line2d_16">
      <g>
       <use style="stroke:#000000;stroke-width:0.5;" x="618.19375" xlink:href="#m664dca12c3" y="23.14175"/>
      </g>
     </g>
     <g id="text_8">
      <!-- Cooperator -->
      <defs>
       <path d="M 64.40625 67.28125 
L 64.40625 56.890625 
Q 59.421875 61.53125 53.78125 63.8125 
Q 48.140625 66.109375 41.796875 66.109375 
Q 29.296875 66.109375 22.65625 58.46875 
Q 16.015625 50.828125 16.015625 36.375 
Q 16.015625 21.96875 22.65625 14.328125 
Q 29.296875 6.6875 41.796875 6.6875 
Q 48.140625 6.6875 53.78125 8.984375 
Q 59.421875 11.28125 64.40625 15.921875 
L 64.40625 5.609375 
Q 59.234375 2.09375 53.4375 0.328125 
Q 47.65625 -1.421875 41.21875 -1.421875 
Q 24.65625 -1.421875 15.125 8.703125 
Q 5.609375 18.84375 5.609375 36.375 
Q 5.609375 53.953125 15.125 64.078125 
Q 24.65625 74.21875 41.21875 74.21875 
Q 47.75 74.21875 53.53125 72.484375 
Q 59.328125 70.75 64.40625 67.28125 
" id="BitstreamVeraSans-Roman-43"/>
      </defs>
      <g transform="translate(620.40125 417.6305)rotate(-90.0)scale(0.08 -0.08)">
       <use xlink:href="#BitstreamVeraSans-Roman-43"/>
       <use x="69.82421875" xlink:href="#BitstreamVeraSans-Roman-6f"/>
       <use x="131.005859375" xlink:href="#BitstreamVeraSans-Roman-6f"/>
       <use x="192.1875" xlink:href="#BitstreamVeraSans-Roman-70"/>
       <use x="255.6640625" xlink:href="#BitstreamVeraSans-Roman-65"/>
       <use x="317.1875" xlink:href="#BitstreamVeraSans-Roman-72"/>
       <use x="358.30078125" xlink:href="#BitstreamVeraSans-Roman-61"/>
       <use x="419.580078125" xlink:href="#BitstreamVeraSans-Roman-74"/>
       <use x="458.7890625" xlink:href="#BitstreamVeraSans-Roman-6f"/>
       <use x="519.970703125" xlink:href="#BitstreamVeraSans-Roman-72"/>
      </g>
     </g>
    </g>
   </g>
   <g id="matplotlib.axis_2">
    <g id="ytick_1">
     <g id="line2d_17">
      <defs>
       <path d="M 0 0 
L 4 0 
" id="m51209559e8" style="stroke:#000000;stroke-width:0.5;"/>
      </defs>
      <g>
       <use style="stroke:#000000;stroke-width:0.5;" x="22.99375" xlink:href="#m51209559e8" y="368.74175"/>
      </g>
     </g>
     <g id="line2d_18">
      <defs>
       <path d="M 0 0 
L -4 0 
" id="m8e2e7d59ad" style="stroke:#000000;stroke-width:0.5;"/>
      </defs>
      <g>
       <use style="stroke:#000000;stroke-width:0.5;" x="692.59375" xlink:href="#m8e2e7d59ad" y="368.74175"/>
      </g>
     </g>
     <g id="text_9">
      <!-- 6 -->
      <defs>
       <path d="M 10.59375 35.5 
L 73.1875 35.5 
L 73.1875 27.203125 
L 10.59375 27.203125 
z
" id="BitstreamVeraSans-Roman-2212"/>
       <path d="M 33.015625 40.375 
Q 26.375 40.375 22.484375 35.828125 
Q 18.609375 31.296875 18.609375 23.390625 
Q 18.609375 15.53125 22.484375 10.953125 
Q 26.375 6.390625 33.015625 6.390625 
Q 39.65625 6.390625 43.53125 10.953125 
Q 47.40625 15.53125 47.40625 23.390625 
Q 47.40625 31.296875 43.53125 35.828125 
Q 39.65625 40.375 33.015625 40.375 
M 52.59375 71.296875 
L 52.59375 62.3125 
Q 48.875 64.0625 45.09375 64.984375 
Q 41.3125 65.921875 37.59375 65.921875 
Q 27.828125 65.921875 22.671875 59.328125 
Q 17.53125 52.734375 16.796875 39.40625 
Q 19.671875 43.65625 24.015625 45.921875 
Q 28.375 48.1875 33.59375 48.1875 
Q 44.578125 48.1875 50.953125 41.515625 
Q 57.328125 34.859375 57.328125 23.390625 
Q 57.328125 12.15625 50.6875 5.359375 
Q 44.046875 -1.421875 33.015625 -1.421875 
Q 20.359375 -1.421875 13.671875 8.265625 
Q 6.984375 17.96875 6.984375 36.375 
Q 6.984375 53.65625 15.1875 63.9375 
Q 23.390625 74.21875 37.203125 74.21875 
Q 40.921875 74.21875 44.703125 73.484375 
Q 48.484375 72.75 52.59375 71.296875 
" id="BitstreamVeraSans-Roman-36"/>
      </defs>
      <g transform="translate(7.2 370.94925)scale(0.08 -0.08)">
       <use xlink:href="#BitstreamVeraSans-Roman-2212"/>
       <use x="83.7890625" xlink:href="#BitstreamVeraSans-Roman-36"/>
      </g>
     </g>
    </g>
    <g id="ytick_2">
     <g id="line2d_19">
      <g>
       <use style="stroke:#000000;stroke-width:0.5;" x="22.99375" xlink:href="#m51209559e8" y="311.14175"/>
      </g>
     </g>
     <g id="line2d_20">
      <g>
       <use style="stroke:#000000;stroke-width:0.5;" x="692.59375" xlink:href="#m8e2e7d59ad" y="311.14175"/>
      </g>
     </g>
     <g id="text_10">
      <!-- 4 -->
      <defs>
       <path d="M 37.796875 64.3125 
L 12.890625 25.390625 
L 37.796875 25.390625 
z
M 35.203125 72.90625 
L 47.609375 72.90625 
L 47.609375 25.390625 
L 58.015625 25.390625 
L 58.015625 17.1875 
L 47.609375 17.1875 
L 47.609375 0 
L 37.796875 0 
L 37.796875 17.1875 
L 4.890625 17.1875 
L 4.890625 26.703125 
z
" id="BitstreamVeraSans-Roman-34"/>
      </defs>
      <g transform="translate(7.2 313.34925)scale(0.08 -0.08)">
       <use xlink:href="#BitstreamVeraSans-Roman-2212"/>
       <use x="83.7890625" xlink:href="#BitstreamVeraSans-Roman-34"/>
      </g>
     </g>
    </g>
    <g id="ytick_3">
     <g id="line2d_21">
      <g>
       <use style="stroke:#000000;stroke-width:0.5;" x="22.99375" xlink:href="#m51209559e8" y="253.54175"/>
      </g>
     </g>
     <g id="line2d_22">
      <g>
       <use style="stroke:#000000;stroke-width:0.5;" x="692.59375" xlink:href="#m8e2e7d59ad" y="253.54175"/>
      </g>
     </g>
     <g id="text_11">
      <!-- 2 -->
      <defs>
       <path d="M 19.1875 8.296875 
L 53.609375 8.296875 
L 53.609375 0 
L 7.328125 0 
L 7.328125 8.296875 
Q 12.9375 14.109375 22.625 23.890625 
Q 32.328125 33.6875 34.8125 36.53125 
Q 39.546875 41.84375 41.421875 45.53125 
Q 43.3125 49.21875 43.3125 52.78125 
Q 43.3125 58.59375 39.234375 62.25 
Q 35.15625 65.921875 28.609375 65.921875 
Q 23.96875 65.921875 18.8125 64.3125 
Q 13.671875 62.703125 7.8125 59.421875 
L 7.8125 69.390625 
Q 13.765625 71.78125 18.9375 73 
Q 24.125 74.21875 28.421875 74.21875 
Q 39.75 74.21875 46.484375 68.546875 
Q 53.21875 62.890625 53.21875 53.421875 
Q 53.21875 48.921875 51.53125 44.890625 
Q 49.859375 40.875 45.40625 35.40625 
Q 44.1875 33.984375 37.640625 27.21875 
Q 31.109375 20.453125 19.1875 8.296875 
" id="BitstreamVeraSans-Roman-32"/>
      </defs>
      <g transform="translate(7.2 255.74925)scale(0.08 -0.08)">
       <use xlink:href="#BitstreamVeraSans-Roman-2212"/>
       <use x="83.7890625" xlink:href="#BitstreamVeraSans-Roman-32"/>
      </g>
     </g>
    </g>
    <g id="ytick_4">
     <g id="line2d_23">
      <g>
       <use style="stroke:#000000;stroke-width:0.5;" x="22.99375" xlink:href="#m51209559e8" y="195.94175"/>
      </g>
     </g>
     <g id="line2d_24">
      <g>
       <use style="stroke:#000000;stroke-width:0.5;" x="692.59375" xlink:href="#m8e2e7d59ad" y="195.94175"/>
      </g>
     </g>
     <g id="text_12">
      <!-- 0 -->
      <defs>
       <path d="M 31.78125 66.40625 
Q 24.171875 66.40625 20.328125 58.90625 
Q 16.5 51.421875 16.5 36.375 
Q 16.5 21.390625 20.328125 13.890625 
Q 24.171875 6.390625 31.78125 6.390625 
Q 39.453125 6.390625 43.28125 13.890625 
Q 47.125 21.390625 47.125 36.375 
Q 47.125 51.421875 43.28125 58.90625 
Q 39.453125 66.40625 31.78125 66.40625 
M 31.78125 74.21875 
Q 44.046875 74.21875 50.515625 64.515625 
Q 56.984375 54.828125 56.984375 36.375 
Q 56.984375 17.96875 50.515625 8.265625 
Q 44.046875 -1.421875 31.78125 -1.421875 
Q 19.53125 -1.421875 13.0625 8.265625 
Q 6.59375 17.96875 6.59375 36.375 
Q 6.59375 54.828125 13.0625 64.515625 
Q 19.53125 74.21875 31.78125 74.21875 
" id="BitstreamVeraSans-Roman-30"/>
      </defs>
      <g transform="translate(13.90375 198.14925)scale(0.08 -0.08)">
       <use xlink:href="#BitstreamVeraSans-Roman-30"/>
      </g>
     </g>
    </g>
    <g id="ytick_5">
     <g id="line2d_25">
      <g>
       <use style="stroke:#000000;stroke-width:0.5;" x="22.99375" xlink:href="#m51209559e8" y="138.34175"/>
      </g>
     </g>
     <g id="line2d_26">
      <g>
       <use style="stroke:#000000;stroke-width:0.5;" x="692.59375" xlink:href="#m8e2e7d59ad" y="138.34175"/>
      </g>
     </g>
     <g id="text_13">
      <!-- 2 -->
      <g transform="translate(13.90375 140.54925)scale(0.08 -0.08)">
       <use xlink:href="#BitstreamVeraSans-Roman-32"/>
      </g>
     </g>
    </g>
    <g id="ytick_6">
     <g id="line2d_27">
      <g>
       <use style="stroke:#000000;stroke-width:0.5;" x="22.99375" xlink:href="#m51209559e8" y="80.74175"/>
      </g>
     </g>
     <g id="line2d_28">
      <g>
       <use style="stroke:#000000;stroke-width:0.5;" x="692.59375" xlink:href="#m8e2e7d59ad" y="80.74175"/>
      </g>
     </g>
     <g id="text_14">
      <!-- 4 -->
      <g transform="translate(13.90375 82.94925)scale(0.08 -0.08)">
       <use xlink:href="#BitstreamVeraSans-Roman-34"/>
      </g>
     </g>
    </g>
    <g id="ytick_7">
     <g id="line2d_29">
      <g>
       <use style="stroke:#000000;stroke-width:0.5;" x="22.99375" xlink:href="#m51209559e8" y="23.14175"/>
      </g>
     </g>
     <g id="line2d_30">
      <g>
       <use style="stroke:#000000;stroke-width:0.5;" x="692.59375" xlink:href="#m8e2e7d59ad" y="23.14175"/>
      </g>
     </g>
     <g id="text_15">
      <!-- 6 -->
      <g transform="translate(13.90375 25.34925)scale(0.08 -0.08)">
       <use xlink:href="#BitstreamVeraSans-Roman-36"/>
      </g>
     </g>
    </g>
   </g>
   <g id="text_16">
    <!-- Std Payoffs. Turns: 20, Repetitions: 2, Strategies: 8. -->
    <defs>
     <path d="M 11.71875 12.40625 
L 22.015625 12.40625 
L 22.015625 0 
L 11.71875 0 
z
M 11.71875 51.703125 
L 22.015625 51.703125 
L 22.015625 39.3125 
L 11.71875 39.3125 
z
" id="BitstreamVeraSans-Roman-3a"/>
     <path d="M 10.6875 12.40625 
L 21 12.40625 
L 21 0 
L 10.6875 0 
z
" id="BitstreamVeraSans-Roman-2e"/>
     <path d="M 44.390625 34.1875 
Q 47.5625 33.109375 50.5625 29.59375 
Q 53.5625 26.078125 56.59375 19.921875 
L 66.609375 0 
L 56 0 
L 46.6875 18.703125 
Q 43.0625 26.03125 39.671875 28.421875 
Q 36.28125 30.8125 30.421875 30.8125 
L 19.671875 30.8125 
L 19.671875 0 
L 9.8125 0 
L 9.8125 72.90625 
L 32.078125 72.90625 
Q 44.578125 72.90625 50.734375 67.671875 
Q 56.890625 62.453125 56.890625 51.90625 
Q 56.890625 45.015625 53.6875 40.46875 
Q 50.484375 35.9375 44.390625 34.1875 
M 19.671875 64.796875 
L 19.671875 38.921875 
L 32.078125 38.921875 
Q 39.203125 38.921875 42.84375 42.21875 
Q 46.484375 45.515625 46.484375 51.90625 
Q 46.484375 58.296875 42.84375 61.546875 
Q 39.203125 64.796875 32.078125 64.796875 
z
" id="BitstreamVeraSans-Roman-52"/>
     <path d="M 19.671875 64.796875 
L 19.671875 37.40625 
L 32.078125 37.40625 
Q 38.96875 37.40625 42.71875 40.96875 
Q 46.484375 44.53125 46.484375 51.125 
Q 46.484375 57.671875 42.71875 61.234375 
Q 38.96875 64.796875 32.078125 64.796875 
z
M 9.8125 72.90625 
L 32.078125 72.90625 
Q 44.34375 72.90625 50.609375 67.359375 
Q 56.890625 61.8125 56.890625 51.125 
Q 56.890625 40.328125 50.609375 34.8125 
Q 44.34375 29.296875 32.078125 29.296875 
L 19.671875 29.296875 
L 19.671875 0 
L 9.8125 0 
z
" id="BitstreamVeraSans-Roman-50"/>
     <path d="M 45.40625 46.390625 
L 45.40625 75.984375 
L 54.390625 75.984375 
L 54.390625 0 
L 45.40625 0 
L 45.40625 8.203125 
Q 42.578125 3.328125 38.25 0.953125 
Q 33.9375 -1.421875 27.875 -1.421875 
Q 17.96875 -1.421875 11.734375 6.484375 
Q 5.515625 14.40625 5.515625 27.296875 
Q 5.515625 40.1875 11.734375 48.09375 
Q 17.96875 56 27.875 56 
Q 33.9375 56 38.25 53.625 
Q 42.578125 51.265625 45.40625 46.390625 
M 14.796875 27.296875 
Q 14.796875 17.390625 18.875 11.75 
Q 22.953125 6.109375 30.078125 6.109375 
Q 37.203125 6.109375 41.296875 11.75 
Q 45.40625 17.390625 45.40625 27.296875 
Q 45.40625 37.203125 41.296875 42.84375 
Q 37.203125 48.484375 30.078125 48.484375 
Q 22.953125 48.484375 18.875 42.84375 
Q 14.796875 37.203125 14.796875 27.296875 
" id="BitstreamVeraSans-Roman-64"/>
     <path d="M 45.40625 27.984375 
Q 45.40625 37.75 41.375 43.109375 
Q 37.359375 48.484375 30.078125 48.484375 
Q 22.859375 48.484375 18.828125 43.109375 
Q 14.796875 37.75 14.796875 27.984375 
Q 14.796875 18.265625 18.828125 12.890625 
Q 22.859375 7.515625 30.078125 7.515625 
Q 37.359375 7.515625 41.375 12.890625 
Q 45.40625 18.265625 45.40625 27.984375 
M 54.390625 6.78125 
Q 54.390625 -7.171875 48.1875 -13.984375 
Q 42 -20.796875 29.203125 -20.796875 
Q 24.46875 -20.796875 20.265625 -20.09375 
Q 16.0625 -19.390625 12.109375 -17.921875 
L 12.109375 -9.1875 
Q 16.0625 -11.328125 19.921875 -12.34375 
Q 23.78125 -13.375 27.78125 -13.375 
Q 36.625 -13.375 41.015625 -8.765625 
Q 45.40625 -4.15625 45.40625 5.171875 
L 45.40625 9.625 
Q 42.625 4.78125 38.28125 2.390625 
Q 33.9375 0 27.875 0 
Q 17.828125 0 11.671875 7.65625 
Q 5.515625 15.328125 5.515625 27.984375 
Q 5.515625 40.671875 11.671875 48.328125 
Q 17.828125 56 27.875 56 
Q 33.9375 56 38.28125 53.609375 
Q 42.625 51.21875 45.40625 46.390625 
L 45.40625 54.6875 
L 54.390625 54.6875 
z
" id="BitstreamVeraSans-Roman-67"/>
     <path d="M 31.78125 34.625 
Q 24.75 34.625 20.71875 30.859375 
Q 16.703125 27.09375 16.703125 20.515625 
Q 16.703125 13.921875 20.71875 10.15625 
Q 24.75 6.390625 31.78125 6.390625 
Q 38.8125 6.390625 42.859375 10.171875 
Q 46.921875 13.96875 46.921875 20.515625 
Q 46.921875 27.09375 42.890625 30.859375 
Q 38.875 34.625 31.78125 34.625 
M 21.921875 38.8125 
Q 15.578125 40.375 12.03125 44.71875 
Q 8.5 49.078125 8.5 55.328125 
Q 8.5 64.0625 14.71875 69.140625 
Q 20.953125 74.21875 31.78125 74.21875 
Q 42.671875 74.21875 48.875 69.140625 
Q 55.078125 64.0625 55.078125 55.328125 
Q 55.078125 49.078125 51.53125 44.71875 
Q 48 40.375 41.703125 38.8125 
Q 48.828125 37.15625 52.796875 32.3125 
Q 56.78125 27.484375 56.78125 20.515625 
Q 56.78125 9.90625 50.3125 4.234375 
Q 43.84375 -1.421875 31.78125 -1.421875 
Q 19.734375 -1.421875 13.25 4.234375 
Q 6.78125 9.90625 6.78125 20.515625 
Q 6.78125 27.484375 10.78125 32.3125 
Q 14.796875 37.15625 21.921875 38.8125 
M 18.3125 54.390625 
Q 18.3125 48.734375 21.84375 45.5625 
Q 25.390625 42.390625 31.78125 42.390625 
Q 38.140625 42.390625 41.71875 45.5625 
Q 45.3125 48.734375 45.3125 54.390625 
Q 45.3125 60.0625 41.71875 63.234375 
Q 38.140625 66.40625 31.78125 66.40625 
Q 25.390625 66.40625 21.84375 63.234375 
Q 18.3125 60.0625 18.3125 54.390625 
" id="BitstreamVeraSans-Roman-38"/>
     <path d="M 11.71875 12.40625 
L 22.015625 12.40625 
L 22.015625 4 
L 14.015625 -11.625 
L 7.71875 -11.625 
L 11.71875 4 
z
" id="BitstreamVeraSans-Roman-2c"/>
    </defs>
    <g transform="translate(171.040375 18.14175)scale(0.144 -0.144)">
     <use xlink:href="#BitstreamVeraSans-Roman-53"/>
     <use x="63.4765625" xlink:href="#BitstreamVeraSans-Roman-74"/>
     <use x="102.685546875" xlink:href="#BitstreamVeraSans-Roman-64"/>
     <use x="166.162109375" xlink:href="#BitstreamVeraSans-Roman-20"/>
     <use x="197.94921875" xlink:href="#BitstreamVeraSans-Roman-50"/>
     <use x="258.189453125" xlink:href="#BitstreamVeraSans-Roman-61"/>
     <use x="319.46875" xlink:href="#BitstreamVeraSans-Roman-79"/>
     <use x="378.6484375" xlink:href="#BitstreamVeraSans-Roman-6f"/>
     <use x="439.830078125" xlink:href="#BitstreamVeraSans-Roman-66"/>
     <use x="475.03515625" xlink:href="#BitstreamVeraSans-Roman-66"/>
     <use x="510.240234375" xlink:href="#BitstreamVeraSans-Roman-73"/>
     <use x="562.33984375" xlink:href="#BitstreamVeraSans-Roman-2e"/>
     <use x="594.126953125" xlink:href="#BitstreamVeraSans-Roman-20"/>
     <use x="625.9140625" xlink:href="#BitstreamVeraSans-Roman-54"/>
     <use x="686.763671875" xlink:href="#BitstreamVeraSans-Roman-75"/>
     <use x="750.142578125" xlink:href="#BitstreamVeraSans-Roman-72"/>
     <use x="791.240234375" xlink:href="#BitstreamVeraSans-Roman-6e"/>
     <use x="854.619140625" xlink:href="#BitstreamVeraSans-Roman-73"/>
     <use x="906.71875" xlink:href="#BitstreamVeraSans-Roman-3a"/>
     <use x="940.41015625" xlink:href="#BitstreamVeraSans-Roman-20"/>
     <use x="972.197265625" xlink:href="#BitstreamVeraSans-Roman-32"/>
     <use x="1035.8203125" xlink:href="#BitstreamVeraSans-Roman-30"/>
     <use x="1099.443359375" xlink:href="#BitstreamVeraSans-Roman-2c"/>
     <use x="1131.23046875" xlink:href="#BitstreamVeraSans-Roman-20"/>
     <use x="1163.017578125" xlink:href="#BitstreamVeraSans-Roman-52"/>
     <use x="1232.4375" xlink:href="#BitstreamVeraSans-Roman-65"/>
     <use x="1293.9609375" xlink:href="#BitstreamVeraSans-Roman-70"/>
     <use x="1357.4375" xlink:href="#BitstreamVeraSans-Roman-65"/>
     <use x="1418.9609375" xlink:href="#BitstreamVeraSans-Roman-74"/>
     <use x="1458.169921875" xlink:href="#BitstreamVeraSans-Roman-69"/>
     <use x="1485.953125" xlink:href="#BitstreamVeraSans-Roman-74"/>
     <use x="1525.162109375" xlink:href="#BitstreamVeraSans-Roman-69"/>
     <use x="1552.9453125" xlink:href="#BitstreamVeraSans-Roman-6f"/>
     <use x="1614.126953125" xlink:href="#BitstreamVeraSans-Roman-6e"/>
     <use x="1677.505859375" xlink:href="#BitstreamVeraSans-Roman-73"/>
     <use x="1729.60546875" xlink:href="#BitstreamVeraSans-Roman-3a"/>
     <use x="1763.296875" xlink:href="#BitstreamVeraSans-Roman-20"/>
     <use x="1795.083984375" xlink:href="#BitstreamVeraSans-Roman-32"/>
     <use x="1858.70703125" xlink:href="#BitstreamVeraSans-Roman-2c"/>
     <use x="1890.494140625" xlink:href="#BitstreamVeraSans-Roman-20"/>
     <use x="1922.28125" xlink:href="#BitstreamVeraSans-Roman-53"/>
     <use x="1985.7578125" xlink:href="#BitstreamVeraSans-Roman-74"/>
     <use x="2024.966796875" xlink:href="#BitstreamVeraSans-Roman-72"/>
     <use x="2066.080078125" xlink:href="#BitstreamVeraSans-Roman-61"/>
     <use x="2127.359375" xlink:href="#BitstreamVeraSans-Roman-74"/>
     <use x="2166.568359375" xlink:href="#BitstreamVeraSans-Roman-65"/>
     <use x="2228.091796875" xlink:href="#BitstreamVeraSans-Roman-67"/>
     <use x="2291.568359375" xlink:href="#BitstreamVeraSans-Roman-69"/>
     <use x="2319.3515625" xlink:href="#BitstreamVeraSans-Roman-65"/>
     <use x="2380.875" xlink:href="#BitstreamVeraSans-Roman-73"/>
     <use x="2432.974609375" xlink:href="#BitstreamVeraSans-Roman-3a"/>
     <use x="2466.666015625" xlink:href="#BitstreamVeraSans-Roman-20"/>
     <use x="2498.453125" xlink:href="#BitstreamVeraSans-Roman-38"/>
     <use x="2562.076171875" xlink:href="#BitstreamVeraSans-Roman-2e"/>
    </g>
   </g>
  </g>
 </g>
 <defs>
  <clipPath id="p8abbd6baa1">
   <rect height="345.6" width="669.6" x="22.99375" y="23.14175"/>
  </clipPath>
 </defs>
</svg>
