<?xml version="1.0" encoding="utf-8" standalone="no"?>
<!DOCTYPE svg PUBLIC "-//W3C//DTD SVG 1.1//EN"
  "http://www.w3.org/Graphics/SVG/1.1/DTD/svg11.dtd">
<!-- Created with matplotlib (http://matplotlib.org/) -->
<svg height="463pt" version="1.1" viewBox="0 0 734 463" width="734pt" xmlns="http://www.w3.org/2000/svg" xmlns:xlink="http://www.w3.org/1999/xlink">
 <defs>
  <style type="text/css">
*{stroke-linecap:butt;stroke-linejoin:round;}
  </style>
 </defs>
 <g id="figure_1">
  <g id="patch_1">
   <path d="
M-5.32907e-15 463.844
L734.229 463.844
L734.229 5.68434e-14
L-5.32907e-15 5.68434e-14
z
" style="fill:#ffffff;"/>
  </g>
  <g id="axes_1">
   <g id="patch_2">
    <path d="
M32.3145 368.742
L701.914 368.742
L701.914 23.1418
L32.3145 23.1418
z
" style="fill:#ffffff;"/>
   </g>
   <g id="PolyCollection_1">
    <defs>
     <path d="
M125.314 -267.903
L88.1145 -267.903
L88.1635 -269.357
L88.3582 -270.812
L88.6941 -272.266
L89.1632 -273.721
L89.7546 -275.175
L90.4547 -276.63
L91.248 -278.084
L92.1173 -279.539
L93.0446 -280.993
L94.0114 -282.448
L94.9994 -283.903
L95.991 -285.357
L96.9695 -286.812
L97.9199 -288.266
L98.8288 -289.721
L99.6846 -291.175
L100.478 -292.63
L101.2 -294.084
L101.845 -295.539
L102.41 -296.993
L102.89 -298.448
L103.285 -299.903
L103.594 -301.357
L103.816 -302.812
L103.953 -304.266
L104.006 -305.721
L103.977 -307.175
L103.868 -308.63
L103.682 -310.084
L103.422 -311.539
L103.092 -312.993
L102.697 -314.448
L102.241 -315.903
L101.731 -317.357
L101.174 -318.812
L100.579 -320.266
L99.9534 -321.721
L99.309 -323.175
L98.6565 -324.63
L98.0079 -326.084
L97.3757 -327.539
L96.7727 -328.993
L96.2113 -330.448
L95.7038 -331.903
L95.2614 -333.357
L94.8943 -334.812
L94.611 -336.266
L94.4184 -337.721
L94.3208 -339.175
L94.3208 -340.63
L94.4184 -342.084
L94.611 -343.539
L94.8943 -344.993
L95.2614 -346.448
L95.7038 -347.903
L96.2113 -349.357
L96.7727 -350.812
L97.3757 -352.266
L98.0079 -353.721
L98.6565 -355.175
L99.309 -356.63
L99.9534 -358.084
L100.579 -359.539
L101.174 -360.993
L101.731 -362.448
L102.241 -363.903
L102.697 -365.357
L103.092 -366.812
L103.422 -368.266
L103.682 -369.721
L103.868 -371.175
L103.977 -372.63
L104.006 -374.084
L103.953 -375.539
L103.816 -376.993
L103.594 -378.448
L103.285 -379.903
L102.89 -381.357
L102.41 -382.812
L101.845 -384.266
L101.2 -385.721
L100.478 -387.175
L99.6846 -388.63
L98.8288 -390.084
L97.9199 -391.539
L96.9695 -392.993
L95.991 -394.448
L94.9994 -395.903
L94.0114 -397.357
L93.0446 -398.812
L92.1173 -400.266
L91.248 -401.721
L90.4547 -403.175
L89.7546 -404.63
L89.1632 -406.084
L88.6941 -407.539
L88.3582 -408.993
L88.1635 -410.448
L88.1145 -411.903
L125.314 -411.903
L125.314 -411.903
L125.266 -410.448
L125.071 -408.993
L124.735 -407.539
L124.266 -406.084
L123.674 -404.63
L122.974 -403.175
L122.181 -401.721
L121.312 -400.266
L120.384 -398.812
L119.418 -397.357
L118.43 -395.903
L117.438 -394.448
L116.459 -392.993
L115.509 -391.539
L114.6 -390.084
L113.744 -388.63
L112.951 -387.175
L112.229 -385.721
L111.584 -384.266
L111.019 -382.812
L110.539 -381.357
L110.144 -379.903
L109.835 -378.448
L109.613 -376.993
L109.476 -375.539
L109.423 -374.084
L109.452 -372.63
L109.561 -371.175
L109.747 -369.721
L110.007 -368.266
L110.337 -366.812
L110.732 -365.357
L111.188 -363.903
L111.698 -362.448
L112.255 -360.993
L112.85 -359.539
L113.476 -358.084
L114.12 -356.63
L114.773 -355.175
L115.421 -353.721
L116.053 -352.266
L116.656 -350.812
L117.218 -349.357
L117.725 -347.903
L118.168 -346.448
L118.535 -344.993
L118.818 -343.539
L119.011 -342.084
L119.108 -340.63
L119.108 -339.175
L119.011 -337.721
L118.818 -336.266
L118.535 -334.812
L118.168 -333.357
L117.725 -331.903
L117.218 -330.448
L116.656 -328.993
L116.053 -327.539
L115.421 -326.084
L114.773 -324.63
L114.12 -323.175
L113.476 -321.721
L112.85 -320.266
L112.255 -318.812
L111.698 -317.357
L111.188 -315.903
L110.732 -314.448
L110.337 -312.993
L110.007 -311.539
L109.747 -310.084
L109.561 -308.63
L109.452 -307.175
L109.423 -305.721
L109.476 -304.266
L109.613 -302.812
L109.835 -301.357
L110.144 -299.903
L110.539 -298.448
L111.019 -296.993
L111.584 -295.539
L112.229 -294.084
L112.951 -292.63
L113.744 -291.175
L114.6 -289.721
L115.509 -288.266
L116.459 -286.812
L117.438 -285.357
L118.43 -283.903
L119.418 -282.448
L120.384 -280.993
L121.312 -279.539
L122.181 -278.084
L122.974 -276.63
L123.674 -275.175
L124.266 -273.721
L124.735 -272.266
L125.071 -270.812
L125.266 -269.357
L125.314 -267.903
z
" id="mdabf340265" style="stroke:#000000;stroke-opacity:0.3;"/>
    </defs>
    <g clip-path="url(#p729dc12a58)">
     <use style="fill:#bfbf00;fill-opacity:0.3;stroke:#000000;stroke-opacity:0.3;" x="0.0" xlink:href="#mdabf340265" y="463.84425"/>
    </g>
   </g>
   <g id="PolyCollection_2">
    <defs>
     <path d="
M185.637 -124.623
L176.592 -124.623
L176.629 -127.524
L176.737 -130.426
L176.913 -133.328
L177.146 -136.23
L177.428 -139.132
L177.745 -142.033
L178.085 -144.935
L178.434 -147.837
L178.782 -150.739
L179.118 -153.641
L179.433 -156.543
L179.721 -159.444
L179.978 -162.346
L180.203 -165.248
L180.395 -168.15
L180.555 -171.052
L180.685 -173.953
L180.789 -176.855
L180.869 -179.757
L180.928 -182.659
L180.967 -185.561
L180.99 -188.463
L180.995 -191.364
L180.983 -194.266
L180.95 -197.168
L180.894 -200.07
L180.808 -202.972
L180.685 -205.873
L180.515 -208.775
L180.287 -211.677
L179.989 -214.579
L179.607 -217.481
L179.127 -220.383
L178.535 -223.284
L177.821 -226.186
L176.978 -229.088
L176.003 -231.99
L174.899 -234.892
L173.679 -237.793
L172.363 -240.695
L170.98 -243.597
L169.566 -246.499
L168.164 -249.401
L166.823 -252.303
L165.593 -255.204
L164.52 -258.106
L163.647 -261.008
L163.009 -263.91
L162.628 -266.812
L162.514 -269.713
L162.664 -272.615
L163.06 -275.517
L163.672 -278.419
L164.462 -281.321
L165.386 -284.223
L166.396 -287.124
L167.448 -290.026
L168.5 -292.928
L169.518 -295.83
L170.478 -298.732
L171.363 -301.633
L172.167 -304.535
L172.891 -307.437
L173.541 -310.339
L174.13 -313.241
L174.669 -316.143
L175.173 -319.044
L175.652 -321.946
L176.115 -324.848
L176.566 -327.75
L177.009 -330.652
L177.44 -333.553
L177.855 -336.455
L178.249 -339.357
L178.614 -342.259
L178.942 -345.161
L179.224 -348.063
L179.452 -350.964
L179.621 -353.866
L179.722 -356.768
L179.751 -359.67
L179.702 -362.572
L179.572 -365.473
L179.357 -368.375
L179.056 -371.277
L178.671 -374.179
L178.205 -377.081
L177.665 -379.983
L177.061 -382.884
L176.409 -385.786
L175.727 -388.688
L175.037 -391.59
L174.364 -394.492
L173.734 -397.393
L173.174 -400.295
L172.708 -403.197
L172.358 -406.099
L172.142 -409.001
L172.069 -411.903
L190.16 -411.903
L190.16 -411.903
L190.087 -409.001
L189.871 -406.099
L189.521 -403.197
L189.055 -400.295
L188.495 -397.393
L187.865 -394.492
L187.192 -391.59
L186.502 -388.688
L185.82 -385.786
L185.168 -382.884
L184.564 -379.983
L184.024 -377.081
L183.558 -374.179
L183.173 -371.277
L182.872 -368.375
L182.657 -365.473
L182.527 -362.572
L182.478 -359.67
L182.507 -356.768
L182.608 -353.866
L182.777 -350.964
L183.005 -348.063
L183.287 -345.161
L183.615 -342.259
L183.98 -339.357
L184.374 -336.455
L184.789 -333.553
L185.22 -330.652
L185.663 -327.75
L186.114 -324.848
L186.577 -321.946
L187.056 -319.044
L187.56 -316.143
L188.099 -313.241
L188.688 -310.339
L189.338 -307.437
L190.062 -304.535
L190.866 -301.633
L191.751 -298.732
L192.711 -295.83
L193.729 -292.928
L194.781 -290.026
L195.833 -287.124
L196.843 -284.223
L197.767 -281.321
L198.557 -278.419
L199.169 -275.517
L199.565 -272.615
L199.714 -269.713
L199.601 -266.812
L199.22 -263.91
L198.582 -261.008
L197.709 -258.106
L196.636 -255.204
L195.406 -252.303
L194.065 -249.401
L192.663 -246.499
L191.249 -243.597
L189.866 -240.695
L188.55 -237.793
L187.33 -234.892
L186.226 -231.99
L185.251 -229.088
L184.408 -226.186
L183.694 -223.284
L183.102 -220.383
L182.622 -217.481
L182.24 -214.579
L181.942 -211.677
L181.714 -208.775
L181.544 -205.873
L181.421 -202.972
L181.335 -200.07
L181.279 -197.168
L181.246 -194.266
L181.234 -191.364
L181.239 -188.463
L181.262 -185.561
L181.301 -182.659
L181.36 -179.757
L181.44 -176.855
L181.544 -173.953
L181.674 -171.052
L181.834 -168.15
L182.026 -165.248
L182.251 -162.346
L182.508 -159.444
L182.796 -156.543
L183.111 -153.641
L183.447 -150.739
L183.795 -147.837
L184.144 -144.935
L184.484 -142.033
L184.801 -139.132
L185.083 -136.23
L185.316 -133.328
L185.492 -130.426
L185.6 -127.524
L185.637 -124.623
z
" id="m644de9c9a4" style="stroke:#000000;stroke-opacity:0.3;"/>
    </defs>
    <g clip-path="url(#p729dc12a58)">
     <use style="fill:#bfbf00;fill-opacity:0.3;stroke:#000000;stroke-opacity:0.3;" x="0.0" xlink:href="#m644de9c9a4" y="463.84425"/>
    </g>
   </g>
   <g id="PolyCollection_3">
    <defs>
     <path d="
M261.714 -267.183
L249.314 -267.183
L249.339 -267.19
L249.411 -267.197
L249.53 -267.204
L249.693 -267.212
L249.896 -267.219
L250.134 -267.226
L250.403 -267.233
L250.696 -267.241
L251.008 -267.248
L251.333 -267.255
L251.665 -267.263
L251.998 -267.27
L252.328 -267.277
L252.65 -267.284
L252.959 -267.292
L253.253 -267.299
L253.528 -267.306
L253.784 -267.313
L254.019 -267.321
L254.232 -267.328
L254.423 -267.335
L254.593 -267.343
L254.743 -267.35
L254.873 -267.357
L254.986 -267.364
L255.082 -267.372
L255.164 -267.379
L255.232 -267.386
L255.289 -267.393
L255.336 -267.401
L255.374 -267.408
L255.405 -267.415
L255.429 -267.423
L255.449 -267.43
L255.465 -267.437
L255.477 -267.444
L255.486 -267.452
L255.493 -267.459
L255.499 -267.466
L255.503 -267.473
L255.506 -267.481
L255.508 -267.488
L255.51 -267.495
L255.511 -267.503
L255.512 -267.51
L255.513 -267.517
L255.513 -267.524
L255.513 -267.532
L255.513 -267.539
L255.513 -267.546
L255.512 -267.553
L255.511 -267.561
L255.51 -267.568
L255.508 -267.575
L255.505 -267.583
L255.502 -267.59
L255.497 -267.597
L255.49 -267.604
L255.48 -267.612
L255.468 -267.619
L255.452 -267.626
L255.43 -267.633
L255.402 -267.641
L255.365 -267.648
L255.319 -267.655
L255.259 -267.663
L255.185 -267.67
L255.092 -267.677
L254.978 -267.684
L254.837 -267.692
L254.667 -267.699
L254.462 -267.706
L254.217 -267.713
L253.928 -267.721
L253.591 -267.728
L253.2 -267.735
L252.751 -267.743
L252.24 -267.75
L251.667 -267.757
L251.028 -267.764
L250.324 -267.772
L249.556 -267.779
L248.729 -267.786
L247.848 -267.793
L246.92 -267.801
L245.956 -267.808
L244.966 -267.815
L243.966 -267.823
L242.97 -267.83
L241.995 -267.837
L241.059 -267.844
L240.179 -267.852
L239.374 -267.859
L238.659 -267.866
L238.051 -267.873
L237.562 -267.881
L237.205 -267.888
L236.988 -267.895
L236.914 -267.903
L274.114 -267.903
L274.114 -267.903
L274.041 -267.895
L273.824 -267.888
L273.467 -267.881
L272.978 -267.873
L272.37 -267.866
L271.655 -267.859
L270.85 -267.852
L269.97 -267.844
L269.034 -267.837
L268.059 -267.83
L267.063 -267.823
L266.063 -267.815
L265.073 -267.808
L264.109 -267.801
L263.181 -267.793
L262.3 -267.786
L261.473 -267.779
L260.705 -267.772
L260.001 -267.764
L259.362 -267.757
L258.789 -267.75
L258.278 -267.743
L257.829 -267.735
L257.438 -267.728
L257.101 -267.721
L256.812 -267.713
L256.567 -267.706
L256.362 -267.699
L256.192 -267.692
L256.051 -267.684
L255.937 -267.677
L255.844 -267.67
L255.77 -267.663
L255.71 -267.655
L255.664 -267.648
L255.627 -267.641
L255.599 -267.633
L255.577 -267.626
L255.561 -267.619
L255.549 -267.612
L255.539 -267.604
L255.532 -267.597
L255.527 -267.59
L255.524 -267.583
L255.521 -267.575
L255.519 -267.568
L255.518 -267.561
L255.517 -267.553
L255.516 -267.546
L255.516 -267.539
L255.516 -267.532
L255.516 -267.524
L255.516 -267.517
L255.517 -267.51
L255.518 -267.503
L255.519 -267.495
L255.521 -267.488
L255.523 -267.481
L255.526 -267.473
L255.53 -267.466
L255.536 -267.459
L255.543 -267.452
L255.552 -267.444
L255.564 -267.437
L255.58 -267.43
L255.6 -267.423
L255.624 -267.415
L255.655 -267.408
L255.693 -267.401
L255.74 -267.393
L255.797 -267.386
L255.865 -267.379
L255.947 -267.372
L256.043 -267.364
L256.156 -267.357
L256.286 -267.35
L256.436 -267.343
L256.606 -267.335
L256.797 -267.328
L257.01 -267.321
L257.245 -267.313
L257.501 -267.306
L257.776 -267.299
L258.07 -267.292
L258.379 -267.284
L258.701 -267.277
L259.031 -267.27
L259.364 -267.263
L259.696 -267.255
L260.021 -267.248
L260.333 -267.241
L260.626 -267.233
L260.895 -267.226
L261.133 -267.219
L261.336 -267.212
L261.499 -267.204
L261.618 -267.197
L261.69 -267.19
L261.714 -267.183
z
" id="mdca48ad37e" style="stroke:#000000;stroke-opacity:0.3;"/>
    </defs>
    <g clip-path="url(#p729dc12a58)">
     <use style="fill:#bfbf00;fill-opacity:0.3;stroke:#000000;stroke-opacity:0.3;" x="0.0" xlink:href="#mdca48ad37e" y="463.84425"/>
    </g>
   </g>
   <g id="PolyCollection_4">
    <defs>
     <path d="
M333.027 -195.903
L326.802 -195.903
L326.839 -197.357
L326.946 -198.812
L327.116 -200.266
L327.338 -201.721
L327.598 -203.175
L327.881 -204.63
L328.17 -206.084
L328.454 -207.539
L328.719 -208.993
L328.96 -210.448
L329.17 -211.903
L329.347 -213.357
L329.492 -214.812
L329.607 -216.266
L329.696 -217.721
L329.763 -219.175
L329.812 -220.63
L329.847 -222.084
L329.87 -223.539
L329.886 -224.993
L329.896 -226.448
L329.902 -227.903
L329.904 -229.357
L329.902 -230.812
L329.897 -232.266
L329.886 -233.721
L329.866 -235.175
L329.834 -236.63
L329.783 -238.084
L329.704 -239.539
L329.585 -240.993
L329.411 -242.448
L329.162 -243.903
L328.817 -245.357
L328.352 -246.812
L327.74 -248.266
L326.96 -249.721
L325.993 -251.175
L324.831 -252.63
L323.479 -254.084
L321.958 -255.539
L320.305 -256.993
L318.58 -258.448
L316.857 -259.903
L315.223 -261.357
L313.769 -262.812
L312.585 -264.266
L311.748 -265.721
L311.314 -267.175
L311.314 -268.63
L311.748 -270.084
L312.585 -271.539
L313.769 -272.993
L315.223 -274.448
L316.857 -275.903
L318.58 -277.357
L320.305 -278.812
L321.958 -280.266
L323.479 -281.721
L324.831 -283.175
L325.993 -284.63
L326.96 -286.084
L327.74 -287.539
L328.352 -288.993
L328.817 -290.448
L329.162 -291.903
L329.411 -293.357
L329.585 -294.812
L329.704 -296.266
L329.783 -297.721
L329.834 -299.175
L329.866 -300.63
L329.886 -302.084
L329.897 -303.539
L329.902 -304.993
L329.904 -306.448
L329.902 -307.903
L329.896 -309.357
L329.886 -310.812
L329.87 -312.266
L329.847 -313.721
L329.812 -315.175
L329.763 -316.63
L329.696 -318.084
L329.607 -319.539
L329.492 -320.993
L329.347 -322.448
L329.17 -323.903
L328.96 -325.357
L328.719 -326.812
L328.454 -328.266
L328.17 -329.721
L327.881 -331.175
L327.598 -332.63
L327.338 -334.084
L327.116 -335.539
L326.946 -336.993
L326.839 -338.448
L326.802 -339.903
L333.027 -339.903
L333.027 -339.903
L332.99 -338.448
L332.883 -336.993
L332.713 -335.539
L332.491 -334.084
L332.231 -332.63
L331.948 -331.175
L331.659 -329.721
L331.375 -328.266
L331.11 -326.812
L330.869 -325.357
L330.659 -323.903
L330.482 -322.448
L330.337 -320.993
L330.222 -319.539
L330.133 -318.084
L330.066 -316.63
L330.017 -315.175
L329.982 -313.721
L329.959 -312.266
L329.943 -310.812
L329.933 -309.357
L329.927 -307.903
L329.925 -306.448
L329.927 -304.993
L329.932 -303.539
L329.943 -302.084
L329.963 -300.63
L329.995 -299.175
L330.046 -297.721
L330.125 -296.266
L330.244 -294.812
L330.418 -293.357
L330.667 -291.903
L331.012 -290.448
L331.477 -288.993
L332.089 -287.539
L332.869 -286.084
L333.836 -284.63
L334.998 -283.175
L336.35 -281.721
L337.871 -280.266
L339.524 -278.812
L341.249 -277.357
L342.972 -275.903
L344.606 -274.448
L346.06 -272.993
L347.244 -271.539
L348.081 -270.084
L348.514 -268.63
L348.514 -267.175
L348.081 -265.721
L347.244 -264.266
L346.06 -262.812
L344.606 -261.357
L342.972 -259.903
L341.249 -258.448
L339.524 -256.993
L337.871 -255.539
L336.35 -254.084
L334.998 -252.63
L333.836 -251.175
L332.869 -249.721
L332.089 -248.266
L331.477 -246.812
L331.012 -245.357
L330.667 -243.903
L330.418 -242.448
L330.244 -240.993
L330.125 -239.539
L330.046 -238.084
L329.995 -236.63
L329.963 -235.175
L329.943 -233.721
L329.932 -232.266
L329.927 -230.812
L329.925 -229.357
L329.927 -227.903
L329.933 -226.448
L329.943 -224.993
L329.959 -223.539
L329.982 -222.084
L330.017 -220.63
L330.066 -219.175
L330.133 -217.721
L330.222 -216.266
L330.337 -214.812
L330.482 -213.357
L330.659 -211.903
L330.869 -210.448
L331.11 -208.993
L331.375 -207.539
L331.659 -206.084
L331.948 -204.63
L332.231 -203.175
L332.491 -201.721
L332.713 -200.266
L332.883 -198.812
L332.99 -197.357
L333.027 -195.903
z
" id="m15fd25e005" style="stroke:#000000;stroke-opacity:0.3;"/>
    </defs>
    <g clip-path="url(#p729dc12a58)">
     <use style="fill:#bfbf00;fill-opacity:0.3;stroke:#000000;stroke-opacity:0.3;" x="0.0" xlink:href="#m15fd25e005" y="463.84425"/>
    </g>
   </g>
   <g id="PolyCollection_5">
    <defs>
     <path d="
M422.914 -267.903
L385.714 -267.903
L385.84 -267.91
L386.21 -267.917
L386.811 -267.924
L387.619 -267.932
L388.604 -267.939
L389.728 -267.946
L390.954 -267.953
L392.241 -267.961
L393.551 -267.968
L394.847 -267.975
L396.098 -267.983
L397.28 -267.99
L398.373 -267.997
L399.363 -268.004
L400.244 -268.012
L401.013 -268.019
L401.672 -268.026
L402.228 -268.033
L402.69 -268.041
L403.066 -268.048
L403.368 -268.055
L403.606 -268.063
L403.792 -268.07
L403.934 -268.077
L404.041 -268.084
L404.121 -268.092
L404.179 -268.099
L404.221 -268.106
L404.251 -268.113
L404.272 -268.121
L404.286 -268.128
L404.296 -268.135
L404.303 -268.143
L404.307 -268.15
L404.31 -268.157
L404.312 -268.164
L404.313 -268.172
L404.313 -268.179
L404.314 -268.186
L404.314 -268.193
L404.314 -268.201
L404.314 -268.208
L404.314 -268.215
L404.314 -268.223
L404.314 -268.23
L404.314 -268.237
L404.314 -268.244
L404.314 -268.252
L404.314 -268.259
L404.314 -268.266
L404.314 -268.273
L404.314 -268.281
L404.314 -268.288
L404.314 -268.295
L404.314 -268.303
L404.314 -268.31
L404.314 -268.317
L404.314 -268.324
L404.314 -268.332
L404.314 -268.339
L404.314 -268.346
L404.314 -268.353
L404.314 -268.361
L404.314 -268.368
L404.313 -268.375
L404.313 -268.383
L404.312 -268.39
L404.31 -268.397
L404.308 -268.404
L404.305 -268.412
L404.301 -268.419
L404.295 -268.426
L404.287 -268.433
L404.275 -268.441
L404.26 -268.448
L404.24 -268.455
L404.213 -268.463
L404.179 -268.47
L404.136 -268.477
L404.082 -268.484
L404.016 -268.492
L403.937 -268.499
L403.843 -268.506
L403.733 -268.513
L403.607 -268.521
L403.466 -268.528
L403.31 -268.535
L403.141 -268.543
L402.962 -268.55
L402.777 -268.557
L402.59 -268.564
L402.406 -268.572
L402.231 -268.579
L402.07 -268.586
L401.929 -268.593
L401.814 -268.601
L401.728 -268.608
L401.675 -268.615
L401.657 -268.623
L406.972 -268.623
L406.972 -268.623
L406.954 -268.615
L406.901 -268.608
L406.815 -268.601
L406.7 -268.593
L406.559 -268.586
L406.398 -268.579
L406.223 -268.572
L406.039 -268.564
L405.852 -268.557
L405.667 -268.55
L405.488 -268.543
L405.319 -268.535
L405.163 -268.528
L405.022 -268.521
L404.896 -268.513
L404.786 -268.506
L404.692 -268.499
L404.613 -268.492
L404.547 -268.484
L404.493 -268.477
L404.45 -268.47
L404.416 -268.463
L404.389 -268.455
L404.369 -268.448
L404.354 -268.441
L404.342 -268.433
L404.334 -268.426
L404.328 -268.419
L404.324 -268.412
L404.321 -268.404
L404.319 -268.397
L404.317 -268.39
L404.316 -268.383
L404.316 -268.375
L404.315 -268.368
L404.315 -268.361
L404.315 -268.353
L404.315 -268.346
L404.315 -268.339
L404.315 -268.332
L404.315 -268.324
L404.315 -268.317
L404.315 -268.31
L404.315 -268.303
L404.315 -268.295
L404.315 -268.288
L404.315 -268.281
L404.315 -268.273
L404.315 -268.266
L404.315 -268.259
L404.315 -268.252
L404.315 -268.244
L404.315 -268.237
L404.315 -268.23
L404.315 -268.223
L404.315 -268.215
L404.315 -268.208
L404.315 -268.201
L404.315 -268.193
L404.315 -268.186
L404.316 -268.179
L404.316 -268.172
L404.317 -268.164
L404.319 -268.157
L404.322 -268.15
L404.326 -268.143
L404.333 -268.135
L404.343 -268.128
L404.357 -268.121
L404.378 -268.113
L404.408 -268.106
L404.45 -268.099
L404.508 -268.092
L404.588 -268.084
L404.695 -268.077
L404.837 -268.07
L405.023 -268.063
L405.261 -268.055
L405.563 -268.048
L405.939 -268.041
L406.401 -268.033
L406.957 -268.026
L407.616 -268.019
L408.385 -268.012
L409.266 -268.004
L410.256 -267.997
L411.349 -267.99
L412.531 -267.983
L413.782 -267.975
L415.078 -267.968
L416.388 -267.961
L417.675 -267.953
L418.901 -267.946
L420.025 -267.939
L421.01 -267.932
L421.818 -267.924
L422.419 -267.917
L422.789 -267.91
L422.914 -267.903
z
" id="m58bdd73801" style="stroke:#000000;stroke-opacity:0.3;"/>
    </defs>
    <g clip-path="url(#p729dc12a58)">
     <use style="fill:#bfbf00;fill-opacity:0.3;stroke:#000000;stroke-opacity:0.3;" x="0.0" xlink:href="#m58bdd73801" y="463.84425"/>
    </g>
   </g>
   <g id="PolyCollection_6">
    <defs>
     <path d="
M487.731 -123.903
L469.698 -123.903
L469.768 -126.804
L469.972 -129.706
L470.303 -132.608
L470.746 -135.51
L471.281 -138.412
L471.886 -141.313
L472.538 -144.215
L473.213 -147.117
L473.89 -150.019
L474.548 -152.921
L475.172 -155.823
L475.748 -158.724
L476.268 -161.626
L476.728 -164.528
L477.126 -167.43
L477.462 -170.332
L477.741 -173.233
L477.967 -176.135
L478.146 -179.037
L478.283 -181.939
L478.383 -184.841
L478.45 -187.743
L478.487 -190.644
L478.495 -193.546
L478.475 -196.448
L478.423 -199.35
L478.335 -202.252
L478.205 -205.153
L478.025 -208.055
L477.783 -210.957
L477.47 -213.859
L477.071 -216.761
L476.576 -219.663
L475.973 -222.564
L475.252 -225.466
L474.408 -228.368
L473.439 -231.27
L472.351 -234.172
L471.155 -237.073
L469.872 -239.975
L468.526 -242.877
L467.154 -245.779
L465.794 -248.681
L464.49 -251.583
L463.288 -254.484
L462.231 -257.386
L461.358 -260.288
L460.701 -263.19
L460.283 -266.092
L460.114 -268.993
L460.195 -271.895
L460.511 -274.797
L461.038 -277.699
L461.744 -280.601
L462.591 -283.502
L463.536 -286.404
L464.537 -289.306
L465.557 -292.208
L466.562 -295.11
L467.525 -298.012
L468.43 -300.913
L469.265 -303.815
L470.028 -306.717
L470.721 -309.619
L471.353 -312.521
L471.933 -315.423
L472.471 -318.324
L472.979 -321.226
L473.464 -324.128
L473.933 -327.03
L474.387 -329.932
L474.828 -332.833
L475.254 -335.735
L475.66 -338.637
L476.041 -341.539
L476.391 -344.441
L476.705 -347.343
L476.976 -350.244
L477.201 -353.146
L477.375 -356.048
L477.496 -358.95
L477.561 -361.852
L477.57 -364.753
L477.523 -367.655
L477.422 -370.557
L477.269 -373.459
L477.069 -376.361
L476.826 -379.263
L476.548 -382.164
L476.244 -385.066
L475.924 -387.968
L475.599 -390.87
L475.282 -393.772
L474.986 -396.673
L474.723 -399.575
L474.504 -402.477
L474.34 -405.379
L474.239 -408.281
L474.205 -411.183
L483.224 -411.183
L483.224 -411.183
L483.19 -408.281
L483.089 -405.379
L482.925 -402.477
L482.706 -399.575
L482.443 -396.673
L482.147 -393.772
L481.83 -390.87
L481.505 -387.968
L481.185 -385.066
L480.881 -382.164
L480.603 -379.263
L480.36 -376.361
L480.16 -373.459
L480.007 -370.557
L479.906 -367.655
L479.859 -364.753
L479.868 -361.852
L479.933 -358.95
L480.054 -356.048
L480.228 -353.146
L480.453 -350.244
L480.724 -347.343
L481.038 -344.441
L481.388 -341.539
L481.769 -338.637
L482.175 -335.735
L482.601 -332.833
L483.042 -329.932
L483.496 -327.03
L483.965 -324.128
L484.45 -321.226
L484.958 -318.324
L485.496 -315.423
L486.076 -312.521
L486.708 -309.619
L487.401 -306.717
L488.164 -303.815
L488.999 -300.913
L489.904 -298.012
L490.867 -295.11
L491.872 -292.208
L492.892 -289.306
L493.893 -286.404
L494.838 -283.502
L495.685 -280.601
L496.391 -277.699
L496.918 -274.797
L497.234 -271.895
L497.314 -268.993
L497.146 -266.092
L496.728 -263.19
L496.071 -260.288
L495.198 -257.386
L494.141 -254.484
L492.939 -251.583
L491.635 -248.681
L490.275 -245.779
L488.903 -242.877
L487.557 -239.975
L486.274 -237.073
L485.078 -234.172
L483.99 -231.27
L483.021 -228.368
L482.177 -225.466
L481.456 -222.564
L480.853 -219.663
L480.358 -216.761
L479.959 -213.859
L479.646 -210.957
L479.404 -208.055
L479.224 -205.153
L479.094 -202.252
L479.006 -199.35
L478.954 -196.448
L478.934 -193.546
L478.942 -190.644
L478.979 -187.743
L479.046 -184.841
L479.146 -181.939
L479.283 -179.037
L479.462 -176.135
L479.688 -173.233
L479.967 -170.332
L480.303 -167.43
L480.701 -164.528
L481.161 -161.626
L481.681 -158.724
L482.257 -155.823
L482.881 -152.921
L483.539 -150.019
L484.216 -147.117
L484.891 -144.215
L485.543 -141.313
L486.148 -138.412
L486.683 -135.51
L487.126 -132.608
L487.457 -129.706
L487.661 -126.804
L487.731 -123.903
z
" id="m2bd5a86853" style="stroke:#000000;stroke-opacity:0.3;"/>
    </defs>
    <g clip-path="url(#p729dc12a58)">
     <use style="fill:#bfbf00;fill-opacity:0.3;stroke:#000000;stroke-opacity:0.3;" x="0.0" xlink:href="#m2bd5a86853" y="463.84425"/>
    </g>
   </g>
   <g id="PolyCollection_7">
    <defs>
     <path d="
M556.876 -195.903
L549.353 -195.903
L549.356 -196.63
L549.39 -197.357
L549.452 -198.084
L549.537 -198.812
L549.642 -199.539
L549.76 -200.266
L549.884 -200.993
L550.006 -201.721
L550.121 -202.448
L550.22 -203.175
L550.295 -203.903
L550.34 -204.63
L550.35 -205.357
L550.32 -206.084
L550.244 -206.812
L550.123 -207.539
L549.953 -208.266
L549.738 -208.993
L549.478 -209.721
L549.179 -210.448
L548.847 -211.175
L548.489 -211.903
L548.113 -212.63
L547.73 -213.357
L547.35 -214.084
L546.985 -214.812
L546.646 -215.539
L546.342 -216.266
L546.085 -216.993
L545.882 -217.721
L545.74 -218.448
L545.665 -219.175
L545.66 -219.903
L545.725 -220.63
L545.859 -221.357
L546.059 -222.084
L546.319 -222.812
L546.632 -223.539
L546.991 -224.266
L547.386 -224.993
L547.807 -225.721
L548.244 -226.448
L548.689 -227.175
L549.132 -227.903
L549.566 -228.63
L549.983 -229.357
L550.377 -230.084
L550.745 -230.812
L551.084 -231.539
L551.391 -232.266
L551.665 -232.993
L551.908 -233.721
L552.12 -234.448
L552.302 -235.175
L552.457 -235.903
L552.587 -236.63
L552.694 -237.357
L552.782 -238.084
L552.852 -238.812
L552.907 -239.539
L552.949 -240.266
L552.978 -240.993
L552.996 -241.721
L553.004 -242.448
L553.002 -243.175
L552.989 -243.903
L552.964 -244.63
L552.925 -245.357
L552.87 -246.084
L552.796 -246.812
L552.7 -247.539
L552.576 -248.266
L552.42 -248.993
L552.226 -249.721
L551.988 -250.448
L551.699 -251.175
L551.352 -251.903
L550.942 -252.63
L550.462 -253.357
L549.908 -254.084
L549.275 -254.812
L548.561 -255.539
L547.767 -256.266
L546.896 -256.993
L545.953 -257.721
L544.947 -258.448
L543.889 -259.175
L542.796 -259.903
L541.685 -260.63
L540.577 -261.357
L539.495 -262.084
L538.463 -262.812
L537.505 -263.539
L536.646 -264.266
L535.909 -264.993
L535.312 -265.721
L534.873 -266.448
L534.605 -267.175
L534.514 -267.903
L571.714 -267.903
L571.714 -267.903
L571.624 -267.175
L571.356 -266.448
L570.917 -265.721
L570.32 -264.993
L569.583 -264.266
L568.724 -263.539
L567.766 -262.812
L566.734 -262.084
L565.652 -261.357
L564.544 -260.63
L563.433 -259.903
L562.34 -259.175
L561.282 -258.448
L560.276 -257.721
L559.333 -256.993
L558.462 -256.266
L557.668 -255.539
L556.954 -254.812
L556.321 -254.084
L555.767 -253.357
L555.287 -252.63
L554.877 -251.903
L554.53 -251.175
L554.241 -250.448
L554.003 -249.721
L553.809 -248.993
L553.653 -248.266
L553.529 -247.539
L553.433 -246.812
L553.359 -246.084
L553.304 -245.357
L553.265 -244.63
L553.24 -243.903
L553.227 -243.175
L553.225 -242.448
L553.233 -241.721
L553.251 -240.993
L553.28 -240.266
L553.322 -239.539
L553.377 -238.812
L553.447 -238.084
L553.535 -237.357
L553.642 -236.63
L553.772 -235.903
L553.927 -235.175
L554.109 -234.448
L554.321 -233.721
L554.564 -232.993
L554.838 -232.266
L555.145 -231.539
L555.484 -230.812
L555.852 -230.084
L556.246 -229.357
L556.663 -228.63
L557.097 -227.903
L557.54 -227.175
L557.985 -226.448
L558.422 -225.721
L558.843 -224.993
L559.238 -224.266
L559.597 -223.539
L559.91 -222.812
L560.17 -222.084
L560.37 -221.357
L560.504 -220.63
L560.569 -219.903
L560.564 -219.175
L560.489 -218.448
L560.347 -217.721
L560.144 -216.993
L559.887 -216.266
L559.583 -215.539
L559.244 -214.812
L558.879 -214.084
L558.499 -213.357
L558.116 -212.63
L557.74 -211.903
L557.382 -211.175
L557.05 -210.448
L556.751 -209.721
L556.491 -208.993
L556.276 -208.266
L556.106 -207.539
L555.985 -206.812
L555.909 -206.084
L555.879 -205.357
L555.889 -204.63
L555.934 -203.903
L556.009 -203.175
L556.108 -202.448
L556.223 -201.721
L556.345 -200.993
L556.469 -200.266
L556.587 -199.539
L556.692 -198.812
L556.777 -198.084
L556.839 -197.357
L556.873 -196.63
L556.876 -195.903
z
" id="m77e49799a6" style="stroke:#000000;stroke-opacity:0.3;"/>
    </defs>
    <g clip-path="url(#p729dc12a58)">
     <use style="fill:#bfbf00;fill-opacity:0.3;stroke:#000000;stroke-opacity:0.3;" x="0.0" xlink:href="#m77e49799a6" y="463.84425"/>
    </g>
   </g>
   <g id="PolyCollection_8">
    <defs>
     <path d="
M641.464 -123.903
L613.565 -123.903
L613.597 -125.357
L613.724 -126.812
L613.944 -128.266
L614.253 -129.721
L614.643 -131.175
L615.107 -132.63
L615.636 -134.084
L616.22 -135.539
L616.848 -136.993
L617.508 -138.448
L618.19 -139.903
L618.882 -141.357
L619.575 -142.812
L620.256 -144.266
L620.919 -145.721
L621.555 -147.175
L622.156 -148.63
L622.718 -150.084
L623.235 -151.539
L623.704 -152.993
L624.123 -154.448
L624.49 -155.903
L624.804 -157.357
L625.066 -158.812
L625.276 -160.266
L625.437 -161.721
L625.549 -163.175
L625.616 -164.63
L625.639 -166.084
L625.622 -167.539
L625.569 -168.993
L625.482 -170.448
L625.364 -171.903
L625.221 -173.357
L625.056 -174.812
L624.873 -176.266
L624.677 -177.721
L624.472 -179.175
L624.262 -180.63
L624.052 -182.084
L623.848 -183.539
L623.653 -184.993
L623.471 -186.448
L623.307 -187.903
L623.164 -189.357
L623.046 -190.812
L622.954 -192.266
L622.892 -193.721
L622.861 -195.175
L622.86 -196.63
L622.891 -198.084
L622.953 -199.539
L623.043 -200.993
L623.16 -202.448
L623.301 -203.903
L623.463 -205.357
L623.642 -206.812
L623.834 -208.266
L624.034 -209.721
L624.238 -211.175
L624.44 -212.63
L624.636 -214.084
L624.821 -215.539
L624.989 -216.993
L625.136 -218.448
L625.257 -219.903
L625.347 -221.357
L625.401 -222.812
L625.415 -224.266
L625.385 -225.721
L625.306 -227.175
L625.175 -228.63
L624.988 -230.084
L624.74 -231.539
L624.431 -232.993
L624.057 -234.448
L623.617 -235.903
L623.111 -237.357
L622.538 -238.812
L621.9 -240.266
L621.201 -241.721
L620.444 -243.175
L619.636 -244.63
L618.783 -246.084
L617.895 -247.539
L616.982 -248.993
L616.056 -250.448
L615.129 -251.903
L614.217 -253.357
L613.333 -254.812
L612.492 -256.266
L611.71 -257.721
L611.001 -259.175
L610.377 -260.63
L609.852 -262.084
L609.436 -263.539
L609.138 -264.993
L608.962 -266.448
L608.914 -267.903
L646.114 -267.903
L646.114 -267.903
L646.067 -266.448
L645.891 -264.993
L645.593 -263.539
L645.177 -262.084
L644.652 -260.63
L644.028 -259.175
L643.319 -257.721
L642.537 -256.266
L641.696 -254.812
L640.812 -253.357
L639.9 -251.903
L638.973 -250.448
L638.047 -248.993
L637.134 -247.539
L636.246 -246.084
L635.393 -244.63
L634.585 -243.175
L633.828 -241.721
L633.129 -240.266
L632.491 -238.812
L631.918 -237.357
L631.412 -235.903
L630.972 -234.448
L630.598 -232.993
L630.289 -231.539
L630.041 -230.084
L629.854 -228.63
L629.723 -227.175
L629.644 -225.721
L629.614 -224.266
L629.628 -222.812
L629.682 -221.357
L629.772 -219.903
L629.893 -218.448
L630.04 -216.993
L630.208 -215.539
L630.393 -214.084
L630.589 -212.63
L630.791 -211.175
L630.995 -209.721
L631.195 -208.266
L631.387 -206.812
L631.566 -205.357
L631.728 -203.903
L631.869 -202.448
L631.986 -200.993
L632.076 -199.539
L632.138 -198.084
L632.169 -196.63
L632.168 -195.175
L632.137 -193.721
L632.075 -192.266
L631.983 -190.812
L631.865 -189.357
L631.722 -187.903
L631.558 -186.448
L631.376 -184.993
L631.181 -183.539
L630.977 -182.084
L630.767 -180.63
L630.557 -179.175
L630.352 -177.721
L630.156 -176.266
L629.973 -174.812
L629.808 -173.357
L629.665 -171.903
L629.547 -170.448
L629.46 -168.993
L629.407 -167.539
L629.39 -166.084
L629.413 -164.63
L629.48 -163.175
L629.592 -161.721
L629.753 -160.266
L629.963 -158.812
L630.225 -157.357
L630.539 -155.903
L630.906 -154.448
L631.325 -152.993
L631.794 -151.539
L632.311 -150.084
L632.873 -148.63
L633.474 -147.175
L634.11 -145.721
L634.773 -144.266
L635.454 -142.812
L636.147 -141.357
L636.839 -139.903
L637.521 -138.448
L638.181 -136.993
L638.809 -135.539
L639.393 -134.084
L639.922 -132.63
L640.386 -131.175
L640.776 -129.721
L641.085 -128.266
L641.305 -126.812
L641.432 -125.357
L641.464 -123.903
z
" id="mce83f2d685" style="stroke:#000000;stroke-opacity:0.3;"/>
    </defs>
    <g clip-path="url(#p729dc12a58)">
     <use style="fill:#bfbf00;fill-opacity:0.3;stroke:#000000;stroke-opacity:0.3;" x="0.0" xlink:href="#mce83f2d685" y="463.84425"/>
    </g>
   </g>
   <g id="LineCollection_1">
    <defs>
     <path d="
M97.4145 -339.903
L116.014 -339.903" id="C0_0_0e0652f2de"/>
     <path d="
M171.814 -268.263
L190.414 -268.263" id="C0_1_67954fe610"/>
     <path d="
M246.214 -267.903
L264.814 -267.903" id="C0_2_b549245355"/>
     <path d="
M320.614 -267.903
L339.214 -267.903" id="C0_3_5865c0ca42"/>
     <path d="
M395.014 -267.903
L413.614 -267.903" id="C0_4_767dd06639"/>
     <path d="
M469.414 -267.903
L488.014 -267.903" id="C0_5_2e0339e71e"/>
     <path d="
M543.814 -267.903
L562.414 -267.903" id="C0_6_d219211abe"/>
     <path d="
M618.214 -231.543
L636.814 -231.543" id="C0_7_030632befe"/>
    </defs>
    <g clip-path="url(#p729dc12a58)">
     <use style="fill:none;stroke:#ff0000;" x="0.0" xlink:href="#C0_0_0e0652f2de" y="463.84425"/>
    </g>
    <g clip-path="url(#p729dc12a58)">
     <use style="fill:none;stroke:#ff0000;" x="0.0" xlink:href="#C0_1_67954fe610" y="463.84425"/>
    </g>
    <g clip-path="url(#p729dc12a58)">
     <use style="fill:none;stroke:#ff0000;" x="0.0" xlink:href="#C0_2_b549245355" y="463.84425"/>
    </g>
    <g clip-path="url(#p729dc12a58)">
     <use style="fill:none;stroke:#ff0000;" x="0.0" xlink:href="#C0_3_5865c0ca42" y="463.84425"/>
    </g>
    <g clip-path="url(#p729dc12a58)">
     <use style="fill:none;stroke:#ff0000;" x="0.0" xlink:href="#C0_4_767dd06639" y="463.84425"/>
    </g>
    <g clip-path="url(#p729dc12a58)">
     <use style="fill:none;stroke:#ff0000;" x="0.0" xlink:href="#C0_5_2e0339e71e" y="463.84425"/>
    </g>
    <g clip-path="url(#p729dc12a58)">
     <use style="fill:none;stroke:#ff0000;" x="0.0" xlink:href="#C0_6_d219211abe" y="463.84425"/>
    </g>
    <g clip-path="url(#p729dc12a58)">
     <use style="fill:none;stroke:#ff0000;" x="0.0" xlink:href="#C0_7_030632befe" y="463.84425"/>
    </g>
   </g>
   <g id="patch_3">
    <path d="
M32.3145 23.1418
L701.914 23.1418" style="fill:none;stroke:#000000;stroke-linecap:square;stroke-linejoin:miter;"/>
   </g>
   <g id="patch_4">
    <path d="
M701.914 368.742
L701.914 23.1417" style="fill:none;stroke:#000000;stroke-linecap:square;stroke-linejoin:miter;"/>
   </g>
   <g id="patch_5">
    <path d="
M32.3145 368.742
L701.914 368.742" style="fill:none;stroke:#000000;stroke-linecap:square;stroke-linejoin:miter;"/>
   </g>
   <g id="patch_6">
    <path d="
M32.3145 368.742
L32.3145 23.1417" style="fill:none;stroke:#000000;stroke-linecap:square;stroke-linejoin:miter;"/>
   </g>
   <g id="matplotlib.axis_1">
    <g id="xtick_1">
     <g id="line2d_1">
      <defs>
       <path d="
M0 0
L0 -4" id="m93b0483c22" style="stroke:#000000;stroke-width:0.5;"/>
      </defs>
      <g>
       <use style="stroke:#000000;stroke-width:0.5;" x="106.7145" xlink:href="#m93b0483c22" y="368.74175"/>
      </g>
     </g>
     <g id="line2d_2">
      <defs>
       <path d="
M0 0
L0 4" id="m741efc42ff" style="stroke:#000000;stroke-width:0.5;"/>
      </defs>
      <g>
       <use style="stroke:#000000;stroke-width:0.5;" x="106.7145" xlink:href="#m741efc42ff" y="23.14175"/>
      </g>
     </g>
     <g id="text_1">
      <!-- Defector -->
      <defs>
       <path d="
M30.6094 48.3906
Q23.3906 48.3906 19.1875 42.75
Q14.9844 37.1094 14.9844 27.2969
Q14.9844 17.4844 19.1562 11.8438
Q23.3438 6.20312 30.6094 6.20312
Q37.7969 6.20312 41.9844 11.8594
Q46.1875 17.5312 46.1875 27.2969
Q46.1875 37.0156 41.9844 42.7031
Q37.7969 48.3906 30.6094 48.3906
M30.6094 56
Q42.3281 56 49.0156 48.375
Q55.7188 40.7656 55.7188 27.2969
Q55.7188 13.875 49.0156 6.21875
Q42.3281 -1.42188 30.6094 -1.42188
Q18.8438 -1.42188 12.1719 6.21875
Q5.51562 13.875 5.51562 27.2969
Q5.51562 40.7656 12.1719 48.375
Q18.8438 56 30.6094 56" id="BitstreamVeraSans-Roman-6f"/>
       <path d="
M19.6719 64.7969
L19.6719 8.10938
L31.5938 8.10938
Q46.6875 8.10938 53.6875 14.9375
Q60.6875 21.7812 60.6875 36.5312
Q60.6875 51.1719 53.6875 57.9844
Q46.6875 64.7969 31.5938 64.7969
z

M9.8125 72.9062
L30.0781 72.9062
Q51.2656 72.9062 61.1719 64.0938
Q71.0938 55.2812 71.0938 36.5312
Q71.0938 17.6719 61.125 8.82812
Q51.1719 0 30.0781 0
L9.8125 0
z
" id="BitstreamVeraSans-Roman-44"/>
       <path d="
M56.2031 29.5938
L56.2031 25.2031
L14.8906 25.2031
Q15.4844 15.9219 20.4844 11.0625
Q25.4844 6.20312 34.4219 6.20312
Q39.5938 6.20312 44.4531 7.46875
Q49.3125 8.73438 54.1094 11.2812
L54.1094 2.78125
Q49.2656 0.734375 44.1875 -0.34375
Q39.1094 -1.42188 33.8906 -1.42188
Q20.7969 -1.42188 13.1562 6.1875
Q5.51562 13.8125 5.51562 26.8125
Q5.51562 40.2344 12.7656 48.1094
Q20.0156 56 32.3281 56
Q43.3594 56 49.7812 48.8906
Q56.2031 41.7969 56.2031 29.5938
M47.2188 32.2344
Q47.125 39.5938 43.0938 43.9844
Q39.0625 48.3906 32.4219 48.3906
Q24.9062 48.3906 20.3906 44.1406
Q15.875 39.8906 15.1875 32.1719
z
" id="BitstreamVeraSans-Roman-65"/>
       <path d="
M18.3125 70.2188
L18.3125 54.6875
L36.8125 54.6875
L36.8125 47.7031
L18.3125 47.7031
L18.3125 18.0156
Q18.3125 11.3281 20.1406 9.42188
Q21.9688 7.51562 27.5938 7.51562
L36.8125 7.51562
L36.8125 0
L27.5938 0
Q17.1875 0 13.2344 3.875
Q9.28125 7.76562 9.28125 18.0156
L9.28125 47.7031
L2.6875 47.7031
L2.6875 54.6875
L9.28125 54.6875
L9.28125 70.2188
z
" id="BitstreamVeraSans-Roman-74"/>
       <path d="
M37.1094 75.9844
L37.1094 68.5
L28.5156 68.5
Q23.6875 68.5 21.7969 66.5469
Q19.9219 64.5938 19.9219 59.5156
L19.9219 54.6875
L34.7188 54.6875
L34.7188 47.7031
L19.9219 47.7031
L19.9219 0
L10.8906 0
L10.8906 47.7031
L2.29688 47.7031
L2.29688 54.6875
L10.8906 54.6875
L10.8906 58.5
Q10.8906 67.625 15.1406 71.7969
Q19.3906 75.9844 28.6094 75.9844
z
" id="BitstreamVeraSans-Roman-66"/>
       <path d="
M41.1094 46.2969
Q39.5938 47.1719 37.8125 47.5781
Q36.0312 48 33.8906 48
Q26.2656 48 22.1875 43.0469
Q18.1094 38.0938 18.1094 28.8125
L18.1094 0
L9.07812 0
L9.07812 54.6875
L18.1094 54.6875
L18.1094 46.1875
Q20.9531 51.1719 25.4844 53.5781
Q30.0312 56 36.5312 56
Q37.4531 56 38.5781 55.875
Q39.7031 55.7656 41.0625 55.5156
z
" id="BitstreamVeraSans-Roman-72"/>
       <path d="
M48.7812 52.5938
L48.7812 44.1875
Q44.9688 46.2969 41.1406 47.3438
Q37.3125 48.3906 33.4062 48.3906
Q24.6562 48.3906 19.8125 42.8438
Q14.9844 37.3125 14.9844 27.2969
Q14.9844 17.2812 19.8125 11.7344
Q24.6562 6.20312 33.4062 6.20312
Q37.3125 6.20312 41.1406 7.25
Q44.9688 8.29688 48.7812 10.4062
L48.7812 2.09375
Q45.0156 0.34375 40.9844 -0.53125
Q36.9688 -1.42188 32.4219 -1.42188
Q20.0625 -1.42188 12.7812 6.34375
Q5.51562 14.1094 5.51562 27.2969
Q5.51562 40.6719 12.8594 48.3281
Q20.2188 56 33.0156 56
Q37.1562 56 41.1094 55.1406
Q45.0625 54.2969 48.7812 52.5938" id="BitstreamVeraSans-Roman-63"/>
      </defs>
      <g transform="translate(108.922 406.49675)rotate(-90.0)scale(0.08 -0.08)">
       <use xlink:href="#BitstreamVeraSans-Roman-44"/>
       <use x="77.001953125" xlink:href="#BitstreamVeraSans-Roman-65"/>
       <use x="138.525390625" xlink:href="#BitstreamVeraSans-Roman-66"/>
       <use x="173.73046875" xlink:href="#BitstreamVeraSans-Roman-65"/>
       <use x="235.25390625" xlink:href="#BitstreamVeraSans-Roman-63"/>
       <use x="290.234375" xlink:href="#BitstreamVeraSans-Roman-74"/>
       <use x="329.443359375" xlink:href="#BitstreamVeraSans-Roman-6f"/>
       <use x="390.625" xlink:href="#BitstreamVeraSans-Roman-72"/>
      </g>
     </g>
    </g>
    <g id="xtick_2">
     <g id="line2d_3">
      <g>
       <use style="stroke:#000000;stroke-width:0.5;" x="181.1145" xlink:href="#m93b0483c22" y="368.74175"/>
      </g>
     </g>
     <g id="line2d_4">
      <g>
       <use style="stroke:#000000;stroke-width:0.5;" x="181.1145" xlink:href="#m741efc42ff" y="23.14175"/>
      </g>
     </g>
     <g id="text_2">
      <!-- Bully -->
      <defs>
       <path d="
M8.5 21.5781
L8.5 54.6875
L17.4844 54.6875
L17.4844 21.9219
Q17.4844 14.1562 20.5 10.2656
Q23.5312 6.39062 29.5938 6.39062
Q36.8594 6.39062 41.0781 11.0312
Q45.3125 15.6719 45.3125 23.6875
L45.3125 54.6875
L54.2969 54.6875
L54.2969 0
L45.3125 0
L45.3125 8.40625
Q42.0469 3.42188 37.7188 1
Q33.4062 -1.42188 27.6875 -1.42188
Q18.2656 -1.42188 13.375 4.4375
Q8.5 10.2969 8.5 21.5781" id="BitstreamVeraSans-Roman-75"/>
       <path d="
M19.6719 34.8125
L19.6719 8.10938
L35.5 8.10938
Q43.4531 8.10938 47.2812 11.4062
Q51.125 14.7031 51.125 21.4844
Q51.125 28.3281 47.2812 31.5625
Q43.4531 34.8125 35.5 34.8125
z

M19.6719 64.7969
L19.6719 42.8281
L34.2812 42.8281
Q41.5 42.8281 45.0312 45.5312
Q48.5781 48.25 48.5781 53.8125
Q48.5781 59.3281 45.0312 62.0625
Q41.5 64.7969 34.2812 64.7969
z

M9.8125 72.9062
L35.0156 72.9062
Q46.2969 72.9062 52.3906 68.2188
Q58.5 63.5312 58.5 54.8906
Q58.5 48.1875 55.375 44.2344
Q52.25 40.2812 46.1875 39.3125
Q53.4688 37.75 57.5 32.7812
Q61.5312 27.8281 61.5312 20.4062
Q61.5312 10.6406 54.8906 5.3125
Q48.25 0 35.9844 0
L9.8125 0
z
" id="BitstreamVeraSans-Roman-42"/>
       <path d="
M9.42188 75.9844
L18.4062 75.9844
L18.4062 0
L9.42188 0
z
" id="BitstreamVeraSans-Roman-6c"/>
       <path d="
M32.1719 -5.07812
Q28.375 -14.8438 24.75 -17.8125
Q21.1406 -20.7969 15.0938 -20.7969
L7.90625 -20.7969
L7.90625 -13.2812
L13.1875 -13.2812
Q16.8906 -13.2812 18.9375 -11.5156
Q21 -9.76562 23.4844 -3.21875
L25.0938 0.875
L2.98438 54.6875
L12.5 54.6875
L29.5938 11.9219
L46.6875 54.6875
L56.2031 54.6875
z
" id="BitstreamVeraSans-Roman-79"/>
      </defs>
      <g transform="translate(183.322 391.45675)rotate(-90.0)scale(0.08 -0.08)">
       <use xlink:href="#BitstreamVeraSans-Roman-42"/>
       <use x="68.603515625" xlink:href="#BitstreamVeraSans-Roman-75"/>
       <use x="131.982421875" xlink:href="#BitstreamVeraSans-Roman-6c"/>
       <use x="159.765625" xlink:href="#BitstreamVeraSans-Roman-6c"/>
       <use x="187.548828125" xlink:href="#BitstreamVeraSans-Roman-79"/>
      </g>
     </g>
    </g>
    <g id="xtick_3">
     <g id="line2d_5">
      <g>
       <use style="stroke:#000000;stroke-width:0.5;" x="255.5145" xlink:href="#m93b0483c22" y="368.74175"/>
      </g>
     </g>
     <g id="line2d_6">
      <g>
       <use style="stroke:#000000;stroke-width:0.5;" x="255.5145" xlink:href="#m741efc42ff" y="23.14175"/>
      </g>
     </g>
     <g id="text_3">
      <!-- Tit For Tat -->
      <defs>
       <path d="
M9.42188 54.6875
L18.4062 54.6875
L18.4062 0
L9.42188 0
z

M9.42188 75.9844
L18.4062 75.9844
L18.4062 64.5938
L9.42188 64.5938
z
" id="BitstreamVeraSans-Roman-69"/>
       <path d="
M34.2812 27.4844
Q23.3906 27.4844 19.1875 25
Q14.9844 22.5156 14.9844 16.5
Q14.9844 11.7188 18.1406 8.90625
Q21.2969 6.10938 26.7031 6.10938
Q34.1875 6.10938 38.7031 11.4062
Q43.2188 16.7031 43.2188 25.4844
L43.2188 27.4844
z

M52.2031 31.2031
L52.2031 0
L43.2188 0
L43.2188 8.29688
Q40.1406 3.32812 35.5469 0.953125
Q30.9531 -1.42188 24.3125 -1.42188
Q15.9219 -1.42188 10.9531 3.29688
Q6 8.01562 6 15.9219
Q6 25.1406 12.1719 29.8281
Q18.3594 34.5156 30.6094 34.5156
L43.2188 34.5156
L43.2188 35.4062
Q43.2188 41.6094 39.1406 45
Q35.0625 48.3906 27.6875 48.3906
Q23 48.3906 18.5469 47.2656
Q14.1094 46.1406 10.0156 43.8906
L10.0156 52.2031
Q14.9375 54.1094 19.5781 55.0469
Q24.2188 56 28.6094 56
Q40.4844 56 46.3438 49.8438
Q52.2031 43.7031 52.2031 31.2031" id="BitstreamVeraSans-Roman-61"/>
       <path d="
M-0.296875 72.9062
L61.375 72.9062
L61.375 64.5938
L35.5 64.5938
L35.5 0
L25.5938 0
L25.5938 64.5938
L-0.296875 64.5938
z
" id="BitstreamVeraSans-Roman-54"/>
       <path d="
M9.8125 72.9062
L51.7031 72.9062
L51.7031 64.5938
L19.6719 64.5938
L19.6719 43.1094
L48.5781 43.1094
L48.5781 34.8125
L19.6719 34.8125
L19.6719 0
L9.8125 0
z
" id="BitstreamVeraSans-Roman-46"/>
       <path id="BitstreamVeraSans-Roman-20"/>
      </defs>
      <g transform="translate(257.722 411.75425)rotate(-90.0)scale(0.08 -0.08)">
       <use xlink:href="#BitstreamVeraSans-Roman-54"/>
       <use x="57.958984375" xlink:href="#BitstreamVeraSans-Roman-69"/>
       <use x="85.7421875" xlink:href="#BitstreamVeraSans-Roman-74"/>
       <use x="124.951171875" xlink:href="#BitstreamVeraSans-Roman-20"/>
       <use x="156.73828125" xlink:href="#BitstreamVeraSans-Roman-46"/>
       <use x="210.6328125" xlink:href="#BitstreamVeraSans-Roman-6f"/>
       <use x="271.814453125" xlink:href="#BitstreamVeraSans-Roman-72"/>
       <use x="312.927734375" xlink:href="#BitstreamVeraSans-Roman-20"/>
       <use x="344.71484375" xlink:href="#BitstreamVeraSans-Roman-54"/>
       <use x="389.298828125" xlink:href="#BitstreamVeraSans-Roman-61"/>
       <use x="450.578125" xlink:href="#BitstreamVeraSans-Roman-74"/>
      </g>
     </g>
    </g>
    <g id="xtick_4">
     <g id="line2d_7">
      <g>
       <use style="stroke:#000000;stroke-width:0.5;" x="329.9145" xlink:href="#m93b0483c22" y="368.74175"/>
      </g>
     </g>
     <g id="line2d_8">
      <g>
       <use style="stroke:#000000;stroke-width:0.5;" x="329.9145" xlink:href="#m741efc42ff" y="23.14175"/>
      </g>
     </g>
     <g id="text_4">
      <!-- Alternator -->
      <defs>
       <path d="
M54.8906 33.0156
L54.8906 0
L45.9062 0
L45.9062 32.7188
Q45.9062 40.4844 42.875 44.3281
Q39.8438 48.1875 33.7969 48.1875
Q26.5156 48.1875 22.3125 43.5469
Q18.1094 38.9219 18.1094 30.9062
L18.1094 0
L9.07812 0
L9.07812 54.6875
L18.1094 54.6875
L18.1094 46.1875
Q21.3438 51.125 25.7031 53.5625
Q30.0781 56 35.7969 56
Q45.2188 56 50.0469 50.1719
Q54.8906 44.3438 54.8906 33.0156" id="BitstreamVeraSans-Roman-6e"/>
       <path d="
M34.1875 63.1875
L20.7969 26.9062
L47.6094 26.9062
z

M28.6094 72.9062
L39.7969 72.9062
L67.5781 0
L57.3281 0
L50.6875 18.7031
L17.8281 18.7031
L11.1875 0
L0.78125 0
z
" id="BitstreamVeraSans-Roman-41"/>
      </defs>
      <g transform="translate(332.122 412.87425)rotate(-90.0)scale(0.08 -0.08)">
       <use xlink:href="#BitstreamVeraSans-Roman-41"/>
       <use x="68.408203125" xlink:href="#BitstreamVeraSans-Roman-6c"/>
       <use x="96.19140625" xlink:href="#BitstreamVeraSans-Roman-74"/>
       <use x="135.400390625" xlink:href="#BitstreamVeraSans-Roman-65"/>
       <use x="196.923828125" xlink:href="#BitstreamVeraSans-Roman-72"/>
       <use x="236.287109375" xlink:href="#BitstreamVeraSans-Roman-6e"/>
       <use x="299.666015625" xlink:href="#BitstreamVeraSans-Roman-61"/>
       <use x="360.9453125" xlink:href="#BitstreamVeraSans-Roman-74"/>
       <use x="400.154296875" xlink:href="#BitstreamVeraSans-Roman-6f"/>
       <use x="461.3359375" xlink:href="#BitstreamVeraSans-Roman-72"/>
      </g>
     </g>
    </g>
    <g id="xtick_5">
     <g id="line2d_9">
      <g>
       <use style="stroke:#000000;stroke-width:0.5;" x="404.3145" xlink:href="#m93b0483c22" y="368.74175"/>
      </g>
     </g>
     <g id="line2d_10">
      <g>
       <use style="stroke:#000000;stroke-width:0.5;" x="404.3145" xlink:href="#m741efc42ff" y="23.14175"/>
      </g>
     </g>
     <g id="text_5">
      <!-- Suspicious Tit For Tat -->
      <defs>
       <path d="
M53.5156 70.5156
L53.5156 60.8906
Q47.9062 63.5781 42.9219 64.8906
Q37.9375 66.2188 33.2969 66.2188
Q25.25 66.2188 20.875 63.0938
Q16.5 59.9688 16.5 54.2031
Q16.5 49.3594 19.4062 46.8906
Q22.3125 44.4375 30.4219 42.9219
L36.375 41.7031
Q47.4062 39.5938 52.6562 34.2969
Q57.9062 29 57.9062 20.125
Q57.9062 9.51562 50.7969 4.04688
Q43.7031 -1.42188 29.9844 -1.42188
Q24.8125 -1.42188 18.9688 -0.25
Q13.1406 0.921875 6.89062 3.21875
L6.89062 13.375
Q12.8906 10.0156 18.6562 8.29688
Q24.4219 6.59375 29.9844 6.59375
Q38.4219 6.59375 43.0156 9.90625
Q47.6094 13.2344 47.6094 19.3906
Q47.6094 24.75 44.3125 27.7812
Q41.0156 30.8125 33.5 32.3281
L27.4844 33.5
Q16.4531 35.6875 11.5156 40.375
Q6.59375 45.0625 6.59375 53.4219
Q6.59375 63.0938 13.4062 68.6562
Q20.2188 74.2188 32.1719 74.2188
Q37.3125 74.2188 42.625 73.2812
Q47.9531 72.3594 53.5156 70.5156" id="BitstreamVeraSans-Roman-53"/>
       <path d="
M44.2812 53.0781
L44.2812 44.5781
Q40.4844 46.5312 36.375 47.5
Q32.2812 48.4844 27.875 48.4844
Q21.1875 48.4844 17.8438 46.4375
Q14.5 44.3906 14.5 40.2812
Q14.5 37.1562 16.8906 35.375
Q19.2812 33.5938 26.5156 31.9844
L29.5938 31.2969
Q39.1562 29.25 43.1875 25.5156
Q47.2188 21.7812 47.2188 15.0938
Q47.2188 7.46875 41.1875 3.01562
Q35.1562 -1.42188 24.6094 -1.42188
Q20.2188 -1.42188 15.4531 -0.5625
Q10.6875 0.296875 5.42188 2
L5.42188 11.2812
Q10.4062 8.6875 15.2344 7.39062
Q20.0625 6.10938 24.8125 6.10938
Q31.1562 6.10938 34.5625 8.28125
Q37.9844 10.4531 37.9844 14.4062
Q37.9844 18.0625 35.5156 20.0156
Q33.0625 21.9688 24.7031 23.7812
L21.5781 24.5156
Q13.2344 26.2656 9.51562 29.9062
Q5.8125 33.5469 5.8125 39.8906
Q5.8125 47.6094 11.2812 51.7969
Q16.75 56 26.8125 56
Q31.7812 56 36.1719 55.2656
Q40.5781 54.5469 44.2812 53.0781" id="BitstreamVeraSans-Roman-73"/>
       <path d="
M18.1094 8.20312
L18.1094 -20.7969
L9.07812 -20.7969
L9.07812 54.6875
L18.1094 54.6875
L18.1094 46.3906
Q20.9531 51.2656 25.2656 53.625
Q29.5938 56 35.5938 56
Q45.5625 56 51.7812 48.0938
Q58.0156 40.1875 58.0156 27.2969
Q58.0156 14.4062 51.7812 6.48438
Q45.5625 -1.42188 35.5938 -1.42188
Q29.5938 -1.42188 25.2656 0.953125
Q20.9531 3.32812 18.1094 8.20312
M48.6875 27.2969
Q48.6875 37.2031 44.6094 42.8438
Q40.5312 48.4844 33.4062 48.4844
Q26.2656 48.4844 22.1875 42.8438
Q18.1094 37.2031 18.1094 27.2969
Q18.1094 17.3906 22.1875 11.75
Q26.2656 6.10938 33.4062 6.10938
Q40.5312 6.10938 44.6094 11.75
Q48.6875 17.3906 48.6875 27.2969" id="BitstreamVeraSans-Roman-70"/>
      </defs>
      <g transform="translate(406.522 456.64425)rotate(-90.0)scale(0.08 -0.08)">
       <use xlink:href="#BitstreamVeraSans-Roman-53"/>
       <use x="63.4765625" xlink:href="#BitstreamVeraSans-Roman-75"/>
       <use x="126.85546875" xlink:href="#BitstreamVeraSans-Roman-73"/>
       <use x="178.955078125" xlink:href="#BitstreamVeraSans-Roman-70"/>
       <use x="242.431640625" xlink:href="#BitstreamVeraSans-Roman-69"/>
       <use x="270.21484375" xlink:href="#BitstreamVeraSans-Roman-63"/>
       <use x="325.1953125" xlink:href="#BitstreamVeraSans-Roman-69"/>
       <use x="352.978515625" xlink:href="#BitstreamVeraSans-Roman-6f"/>
       <use x="414.16015625" xlink:href="#BitstreamVeraSans-Roman-75"/>
       <use x="477.5390625" xlink:href="#BitstreamVeraSans-Roman-73"/>
       <use x="529.638671875" xlink:href="#BitstreamVeraSans-Roman-20"/>
       <use x="561.42578125" xlink:href="#BitstreamVeraSans-Roman-54"/>
       <use x="619.384765625" xlink:href="#BitstreamVeraSans-Roman-69"/>
       <use x="647.16796875" xlink:href="#BitstreamVeraSans-Roman-74"/>
       <use x="686.376953125" xlink:href="#BitstreamVeraSans-Roman-20"/>
       <use x="718.1640625" xlink:href="#BitstreamVeraSans-Roman-46"/>
       <use x="772.05859375" xlink:href="#BitstreamVeraSans-Roman-6f"/>
       <use x="833.240234375" xlink:href="#BitstreamVeraSans-Roman-72"/>
       <use x="874.353515625" xlink:href="#BitstreamVeraSans-Roman-20"/>
       <use x="906.140625" xlink:href="#BitstreamVeraSans-Roman-54"/>
       <use x="950.724609375" xlink:href="#BitstreamVeraSans-Roman-61"/>
       <use x="1012.00390625" xlink:href="#BitstreamVeraSans-Roman-74"/>
      </g>
     </g>
    </g>
    <g id="xtick_6">
     <g id="line2d_11">
      <g>
       <use style="stroke:#000000;stroke-width:0.5;" x="478.7145" xlink:href="#m93b0483c22" y="368.74175"/>
      </g>
     </g>
     <g id="line2d_12">
      <g>
       <use style="stroke:#000000;stroke-width:0.5;" x="478.7145" xlink:href="#m741efc42ff" y="23.14175"/>
      </g>
     </g>
     <g id="text_6">
      <!-- Anti Tit For Tat -->
      <g transform="translate(480.922 430.17425)rotate(-90.0)scale(0.08 -0.08)">
       <use xlink:href="#BitstreamVeraSans-Roman-41"/>
       <use x="68.408203125" xlink:href="#BitstreamVeraSans-Roman-6e"/>
       <use x="131.787109375" xlink:href="#BitstreamVeraSans-Roman-74"/>
       <use x="170.99609375" xlink:href="#BitstreamVeraSans-Roman-69"/>
       <use x="198.779296875" xlink:href="#BitstreamVeraSans-Roman-20"/>
       <use x="230.56640625" xlink:href="#BitstreamVeraSans-Roman-54"/>
       <use x="288.525390625" xlink:href="#BitstreamVeraSans-Roman-69"/>
       <use x="316.30859375" xlink:href="#BitstreamVeraSans-Roman-74"/>
       <use x="355.517578125" xlink:href="#BitstreamVeraSans-Roman-20"/>
       <use x="387.3046875" xlink:href="#BitstreamVeraSans-Roman-46"/>
       <use x="441.19921875" xlink:href="#BitstreamVeraSans-Roman-6f"/>
       <use x="502.380859375" xlink:href="#BitstreamVeraSans-Roman-72"/>
       <use x="543.494140625" xlink:href="#BitstreamVeraSans-Roman-20"/>
       <use x="575.28125" xlink:href="#BitstreamVeraSans-Roman-54"/>
       <use x="619.865234375" xlink:href="#BitstreamVeraSans-Roman-61"/>
       <use x="681.14453125" xlink:href="#BitstreamVeraSans-Roman-74"/>
      </g>
     </g>
    </g>
    <g id="xtick_7">
     <g id="line2d_13">
      <g>
       <use style="stroke:#000000;stroke-width:0.5;" x="553.1145" xlink:href="#m93b0483c22" y="368.74175"/>
      </g>
     </g>
     <g id="line2d_14">
      <g>
       <use style="stroke:#000000;stroke-width:0.5;" x="553.1145" xlink:href="#m741efc42ff" y="23.14175"/>
      </g>
     </g>
     <g id="text_7">
      <!-- Win-Stay Lose-Shift -->
      <defs>
       <path d="
M54.8906 33.0156
L54.8906 0
L45.9062 0
L45.9062 32.7188
Q45.9062 40.4844 42.875 44.3281
Q39.8438 48.1875 33.7969 48.1875
Q26.5156 48.1875 22.3125 43.5469
Q18.1094 38.9219 18.1094 30.9062
L18.1094 0
L9.07812 0
L9.07812 75.9844
L18.1094 75.9844
L18.1094 46.1875
Q21.3438 51.125 25.7031 53.5625
Q30.0781 56 35.7969 56
Q45.2188 56 50.0469 50.1719
Q54.8906 44.3438 54.8906 33.0156" id="BitstreamVeraSans-Roman-68"/>
       <path d="
M9.8125 72.9062
L19.6719 72.9062
L19.6719 8.29688
L55.1719 8.29688
L55.1719 0
L9.8125 0
z
" id="BitstreamVeraSans-Roman-4c"/>
       <path d="
M4.89062 31.3906
L31.2031 31.3906
L31.2031 23.3906
L4.89062 23.3906
z
" id="BitstreamVeraSans-Roman-2d"/>
       <path d="
M3.32812 72.9062
L13.2812 72.9062
L28.6094 11.2812
L43.8906 72.9062
L54.9844 72.9062
L70.3125 11.2812
L85.5938 72.9062
L95.6094 72.9062
L77.2969 0
L64.8906 0
L49.5156 63.2812
L33.9844 0
L21.5781 0
z
" id="BitstreamVeraSans-Roman-57"/>
      </defs>
      <g transform="translate(555.322 450.22675)rotate(-90.0)scale(0.08 -0.08)">
       <use xlink:href="#BitstreamVeraSans-Roman-57"/>
       <use x="96.626953125" xlink:href="#BitstreamVeraSans-Roman-69"/>
       <use x="124.41015625" xlink:href="#BitstreamVeraSans-Roman-6e"/>
       <use x="187.7890625" xlink:href="#BitstreamVeraSans-Roman-2d"/>
       <use x="223.873046875" xlink:href="#BitstreamVeraSans-Roman-53"/>
       <use x="287.349609375" xlink:href="#BitstreamVeraSans-Roman-74"/>
       <use x="326.55859375" xlink:href="#BitstreamVeraSans-Roman-61"/>
       <use x="387.837890625" xlink:href="#BitstreamVeraSans-Roman-79"/>
       <use x="447.017578125" xlink:href="#BitstreamVeraSans-Roman-20"/>
       <use x="478.8046875" xlink:href="#BitstreamVeraSans-Roman-4c"/>
       <use x="532.767578125" xlink:href="#BitstreamVeraSans-Roman-6f"/>
       <use x="593.94921875" xlink:href="#BitstreamVeraSans-Roman-73"/>
       <use x="646.048828125" xlink:href="#BitstreamVeraSans-Roman-65"/>
       <use x="707.572265625" xlink:href="#BitstreamVeraSans-Roman-2d"/>
       <use x="743.65625" xlink:href="#BitstreamVeraSans-Roman-53"/>
       <use x="807.1328125" xlink:href="#BitstreamVeraSans-Roman-68"/>
       <use x="870.51171875" xlink:href="#BitstreamVeraSans-Roman-69"/>
       <use x="898.294921875" xlink:href="#BitstreamVeraSans-Roman-66"/>
       <use x="931.75" xlink:href="#BitstreamVeraSans-Roman-74"/>
      </g>
     </g>
    </g>
    <g id="xtick_8">
     <g id="line2d_15">
      <g>
       <use style="stroke:#000000;stroke-width:0.5;" x="627.5145" xlink:href="#m93b0483c22" y="368.74175"/>
      </g>
     </g>
     <g id="line2d_16">
      <g>
       <use style="stroke:#000000;stroke-width:0.5;" x="627.5145" xlink:href="#m741efc42ff" y="23.14175"/>
      </g>
     </g>
     <g id="text_8">
      <!-- Cooperator -->
      <defs>
       <path d="
M64.4062 67.2812
L64.4062 56.8906
Q59.4219 61.5312 53.7812 63.8125
Q48.1406 66.1094 41.7969 66.1094
Q29.2969 66.1094 22.6562 58.4688
Q16.0156 50.8281 16.0156 36.375
Q16.0156 21.9688 22.6562 14.3281
Q29.2969 6.6875 41.7969 6.6875
Q48.1406 6.6875 53.7812 8.98438
Q59.4219 11.2812 64.4062 15.9219
L64.4062 5.60938
Q59.2344 2.09375 53.4375 0.328125
Q47.6562 -1.42188 41.2188 -1.42188
Q24.6562 -1.42188 15.125 8.70312
Q5.60938 18.8438 5.60938 36.375
Q5.60938 53.9531 15.125 64.0781
Q24.6562 74.2188 41.2188 74.2188
Q47.75 74.2188 53.5312 72.4844
Q59.3281 70.75 64.4062 67.2812" id="BitstreamVeraSans-Roman-43"/>
      </defs>
      <g transform="translate(629.722 417.18175)rotate(-90.0)scale(0.08 -0.08)">
       <use xlink:href="#BitstreamVeraSans-Roman-43"/>
       <use x="69.82421875" xlink:href="#BitstreamVeraSans-Roman-6f"/>
       <use x="131.005859375" xlink:href="#BitstreamVeraSans-Roman-6f"/>
       <use x="192.1875" xlink:href="#BitstreamVeraSans-Roman-70"/>
       <use x="255.6640625" xlink:href="#BitstreamVeraSans-Roman-65"/>
       <use x="317.1875" xlink:href="#BitstreamVeraSans-Roman-72"/>
       <use x="358.30078125" xlink:href="#BitstreamVeraSans-Roman-61"/>
       <use x="419.580078125" xlink:href="#BitstreamVeraSans-Roman-74"/>
       <use x="458.7890625" xlink:href="#BitstreamVeraSans-Roman-6f"/>
       <use x="519.970703125" xlink:href="#BitstreamVeraSans-Roman-72"/>
      </g>
     </g>
    </g>
   </g>
   <g id="matplotlib.axis_2">
    <g id="ytick_1">
     <g id="line2d_17">
      <defs>
       <path d="
M0 0
L4 0" id="m728421d6d4" style="stroke:#000000;stroke-width:0.5;"/>
      </defs>
      <g>
       <use style="stroke:#000000;stroke-width:0.5;" x="32.3145" xlink:href="#m728421d6d4" y="368.74175"/>
      </g>
     </g>
     <g id="line2d_18">
      <defs>
       <path d="
M0 0
L-4 0" id="mcb0005524f" style="stroke:#000000;stroke-width:0.5;"/>
      </defs>
      <g>
       <use style="stroke:#000000;stroke-width:0.5;" x="701.9145" xlink:href="#mcb0005524f" y="368.74175"/>
      </g>
     </g>
     <g id="text_9">
      <!-- 6 -->
      <defs>
       <path d="
M10.5938 35.5
L73.1875 35.5
L73.1875 27.2031
L10.5938 27.2031
z
" id="BitstreamVeraSans-Roman-2212"/>
       <path d="
M33.0156 40.375
Q26.375 40.375 22.4844 35.8281
Q18.6094 31.2969 18.6094 23.3906
Q18.6094 15.5312 22.4844 10.9531
Q26.375 6.39062 33.0156 6.39062
Q39.6562 6.39062 43.5312 10.9531
Q47.4062 15.5312 47.4062 23.3906
Q47.4062 31.2969 43.5312 35.8281
Q39.6562 40.375 33.0156 40.375
M52.5938 71.2969
L52.5938 62.3125
Q48.875 64.0625 45.0938 64.9844
Q41.3125 65.9219 37.5938 65.9219
Q27.8281 65.9219 22.6719 59.3281
Q17.5312 52.7344 16.7969 39.4062
Q19.6719 43.6562 24.0156 45.9219
Q28.375 48.1875 33.5938 48.1875
Q44.5781 48.1875 50.9531 41.5156
Q57.3281 34.8594 57.3281 23.3906
Q57.3281 12.1562 50.6875 5.35938
Q44.0469 -1.42188 33.0156 -1.42188
Q20.3594 -1.42188 13.6719 8.26562
Q6.98438 17.9688 6.98438 36.375
Q6.98438 53.6562 15.1875 63.9375
Q23.3906 74.2188 37.2031 74.2188
Q40.9219 74.2188 44.7031 73.4844
Q48.4844 72.75 52.5938 71.2969" id="BitstreamVeraSans-Roman-36"/>
      </defs>
      <g transform="translate(17.872 370.94925)scale(0.08 -0.08)">
       <use xlink:href="#BitstreamVeraSans-Roman-2212"/>
       <use x="83.7890625" xlink:href="#BitstreamVeraSans-Roman-36"/>
      </g>
     </g>
    </g>
    <g id="ytick_2">
     <g id="line2d_19">
      <g>
       <use style="stroke:#000000;stroke-width:0.5;" x="32.3145" xlink:href="#m728421d6d4" y="311.14175"/>
      </g>
     </g>
     <g id="line2d_20">
      <g>
       <use style="stroke:#000000;stroke-width:0.5;" x="701.9145" xlink:href="#mcb0005524f" y="311.14175"/>
      </g>
     </g>
     <g id="text_10">
      <!-- 4 -->
      <defs>
       <path d="
M37.7969 64.3125
L12.8906 25.3906
L37.7969 25.3906
z

M35.2031 72.9062
L47.6094 72.9062
L47.6094 25.3906
L58.0156 25.3906
L58.0156 17.1875
L47.6094 17.1875
L47.6094 0
L37.7969 0
L37.7969 17.1875
L4.89062 17.1875
L4.89062 26.7031
z
" id="BitstreamVeraSans-Roman-34"/>
      </defs>
      <g transform="translate(17.817 313.34925)scale(0.08 -0.08)">
       <use xlink:href="#BitstreamVeraSans-Roman-2212"/>
       <use x="83.7890625" xlink:href="#BitstreamVeraSans-Roman-34"/>
      </g>
     </g>
    </g>
    <g id="ytick_3">
     <g id="line2d_21">
      <g>
       <use style="stroke:#000000;stroke-width:0.5;" x="32.3145" xlink:href="#m728421d6d4" y="253.54175"/>
      </g>
     </g>
     <g id="line2d_22">
      <g>
       <use style="stroke:#000000;stroke-width:0.5;" x="701.9145" xlink:href="#mcb0005524f" y="253.54175"/>
      </g>
     </g>
     <g id="text_11">
      <!-- 2 -->
      <defs>
       <path d="
M19.1875 8.29688
L53.6094 8.29688
L53.6094 0
L7.32812 0
L7.32812 8.29688
Q12.9375 14.1094 22.625 23.8906
Q32.3281 33.6875 34.8125 36.5312
Q39.5469 41.8438 41.4219 45.5312
Q43.3125 49.2188 43.3125 52.7812
Q43.3125 58.5938 39.2344 62.25
Q35.1562 65.9219 28.6094 65.9219
Q23.9688 65.9219 18.8125 64.3125
Q13.6719 62.7031 7.8125 59.4219
L7.8125 69.3906
Q13.7656 71.7812 18.9375 73
Q24.125 74.2188 28.4219 74.2188
Q39.75 74.2188 46.4844 68.5469
Q53.2188 62.8906 53.2188 53.4219
Q53.2188 48.9219 51.5312 44.8906
Q49.8594 40.875 45.4062 35.4062
Q44.1875 33.9844 37.6406 27.2188
Q31.1094 20.4531 19.1875 8.29688" id="BitstreamVeraSans-Roman-32"/>
      </defs>
      <g transform="translate(18.1695 255.74925)scale(0.08 -0.08)">
       <use xlink:href="#BitstreamVeraSans-Roman-2212"/>
       <use x="83.7890625" xlink:href="#BitstreamVeraSans-Roman-32"/>
      </g>
     </g>
    </g>
    <g id="ytick_4">
     <g id="line2d_23">
      <g>
       <use style="stroke:#000000;stroke-width:0.5;" x="32.3145" xlink:href="#m728421d6d4" y="195.94175"/>
      </g>
     </g>
     <g id="line2d_24">
      <g>
       <use style="stroke:#000000;stroke-width:0.5;" x="701.9145" xlink:href="#mcb0005524f" y="195.94175"/>
      </g>
     </g>
     <g id="text_12">
      <!-- 0 -->
      <defs>
       <path d="
M31.7812 66.4062
Q24.1719 66.4062 20.3281 58.9062
Q16.5 51.4219 16.5 36.375
Q16.5 21.3906 20.3281 13.8906
Q24.1719 6.39062 31.7812 6.39062
Q39.4531 6.39062 43.2812 13.8906
Q47.125 21.3906 47.125 36.375
Q47.125 51.4219 43.2812 58.9062
Q39.4531 66.4062 31.7812 66.4062
M31.7812 74.2188
Q44.0469 74.2188 50.5156 64.5156
Q56.9844 54.8281 56.9844 36.375
Q56.9844 17.9688 50.5156 8.26562
Q44.0469 -1.42188 31.7812 -1.42188
Q19.5312 -1.42188 13.0625 8.26562
Q6.59375 17.9688 6.59375 36.375
Q6.59375 54.8281 13.0625 64.5156
Q19.5312 74.2188 31.7812 74.2188" id="BitstreamVeraSans-Roman-30"/>
      </defs>
      <g transform="translate(24.28325 198.14925)scale(0.08 -0.08)">
       <use xlink:href="#BitstreamVeraSans-Roman-30"/>
      </g>
     </g>
    </g>
    <g id="ytick_5">
     <g id="line2d_25">
      <g>
       <use style="stroke:#000000;stroke-width:0.5;" x="32.3145" xlink:href="#m728421d6d4" y="138.34175"/>
      </g>
     </g>
     <g id="line2d_26">
      <g>
       <use style="stroke:#000000;stroke-width:0.5;" x="701.9145" xlink:href="#mcb0005524f" y="138.34175"/>
      </g>
     </g>
     <g id="text_13">
      <!-- 2 -->
      <g transform="translate(24.612 140.54925)scale(0.08 -0.08)">
       <use xlink:href="#BitstreamVeraSans-Roman-32"/>
      </g>
     </g>
    </g>
    <g id="ytick_6">
     <g id="line2d_27">
      <g>
       <use style="stroke:#000000;stroke-width:0.5;" x="32.3145" xlink:href="#m728421d6d4" y="80.74175"/>
      </g>
     </g>
     <g id="line2d_28">
      <g>
       <use style="stroke:#000000;stroke-width:0.5;" x="701.9145" xlink:href="#mcb0005524f" y="80.74175"/>
      </g>
     </g>
     <g id="text_14">
      <!-- 4 -->
      <g transform="translate(24.0645 82.94925)scale(0.08 -0.08)">
       <use xlink:href="#BitstreamVeraSans-Roman-34"/>
      </g>
     </g>
    </g>
    <g id="ytick_7">
     <g id="line2d_29">
      <g>
       <use style="stroke:#000000;stroke-width:0.5;" x="32.3145" xlink:href="#m728421d6d4" y="23.14175"/>
      </g>
     </g>
     <g id="line2d_30">
      <g>
       <use style="stroke:#000000;stroke-width:0.5;" x="701.9145" xlink:href="#mcb0005524f" y="23.14175"/>
      </g>
     </g>
     <g id="text_15">
      <!-- 6 -->
      <g transform="translate(24.287 25.34925)scale(0.08 -0.08)">
       <use xlink:href="#BitstreamVeraSans-Roman-36"/>
      </g>
     </g>
    </g>
   </g>
   <g id="text_16">
    <!-- Distributions of payoff differences per stage game over 200 turns repeated 100 times (8 strategies) -->
    <defs>
     <path d="
M12.4062 8.29688
L28.5156 8.29688
L28.5156 63.9219
L10.9844 60.4062
L10.9844 69.3906
L28.4219 72.9062
L38.2812 72.9062
L38.2812 8.29688
L54.3906 8.29688
L54.3906 0
L12.4062 0
z
" id="BitstreamVeraSans-Roman-31"/>
     <path d="
M8.01562 75.875
L15.8281 75.875
Q23.1406 64.3594 26.7812 53.3125
Q30.4219 42.2812 30.4219 31.3906
Q30.4219 20.4531 26.7812 9.375
Q23.1406 -1.70312 15.8281 -13.1875
L8.01562 -13.1875
Q14.5 -2 17.7031 9.0625
Q20.9062 20.125 20.9062 31.3906
Q20.9062 42.6719 17.7031 53.6562
Q14.5 64.6562 8.01562 75.875" id="BitstreamVeraSans-Roman-29"/>
     <path d="
M52 44.1875
Q55.375 50.25 60.0625 53.125
Q64.75 56 71.0938 56
Q79.6406 56 84.2812 50.0156
Q88.9219 44.0469 88.9219 33.0156
L88.9219 0
L79.8906 0
L79.8906 32.7188
Q79.8906 40.5781 77.0938 44.375
Q74.3125 48.1875 68.6094 48.1875
Q61.625 48.1875 57.5625 43.5469
Q53.5156 38.9219 53.5156 30.9062
L53.5156 0
L44.4844 0
L44.4844 32.7188
Q44.4844 40.625 41.7031 44.4062
Q38.9219 48.1875 33.1094 48.1875
Q26.2188 48.1875 22.1562 43.5312
Q18.1094 38.875 18.1094 30.9062
L18.1094 0
L9.07812 0
L9.07812 54.6875
L18.1094 54.6875
L18.1094 46.1875
Q21.1875 51.2188 25.4844 53.6094
Q29.7812 56 35.6875 56
Q41.6562 56 45.8281 52.9688
Q50 49.9531 52 44.1875" id="BitstreamVeraSans-Roman-6d"/>
     <path d="
M31.7812 34.625
Q24.75 34.625 20.7188 30.8594
Q16.7031 27.0938 16.7031 20.5156
Q16.7031 13.9219 20.7188 10.1562
Q24.75 6.39062 31.7812 6.39062
Q38.8125 6.39062 42.8594 10.1719
Q46.9219 13.9688 46.9219 20.5156
Q46.9219 27.0938 42.8906 30.8594
Q38.875 34.625 31.7812 34.625
M21.9219 38.8125
Q15.5781 40.375 12.0312 44.7188
Q8.5 49.0781 8.5 55.3281
Q8.5 64.0625 14.7188 69.1406
Q20.9531 74.2188 31.7812 74.2188
Q42.6719 74.2188 48.875 69.1406
Q55.0781 64.0625 55.0781 55.3281
Q55.0781 49.0781 51.5312 44.7188
Q48 40.375 41.7031 38.8125
Q48.8281 37.1562 52.7969 32.3125
Q56.7812 27.4844 56.7812 20.5156
Q56.7812 9.90625 50.3125 4.23438
Q43.8438 -1.42188 31.7812 -1.42188
Q19.7344 -1.42188 13.25 4.23438
Q6.78125 9.90625 6.78125 20.5156
Q6.78125 27.4844 10.7812 32.3125
Q14.7969 37.1562 21.9219 38.8125
M18.3125 54.3906
Q18.3125 48.7344 21.8438 45.5625
Q25.3906 42.3906 31.7812 42.3906
Q38.1406 42.3906 41.7188 45.5625
Q45.3125 48.7344 45.3125 54.3906
Q45.3125 60.0625 41.7188 63.2344
Q38.1406 66.4062 31.7812 66.4062
Q25.3906 66.4062 21.8438 63.2344
Q18.3125 60.0625 18.3125 54.3906" id="BitstreamVeraSans-Roman-38"/>
     <path d="
M31 75.875
Q24.4688 64.6562 21.2812 53.6562
Q18.1094 42.6719 18.1094 31.3906
Q18.1094 20.125 21.3125 9.0625
Q24.5156 -2 31 -13.1875
L23.1875 -13.1875
Q15.875 -1.70312 12.2344 9.375
Q8.59375 20.4531 8.59375 31.3906
Q8.59375 42.2812 12.2031 53.3125
Q15.8281 64.3594 23.1875 75.875
z
" id="BitstreamVeraSans-Roman-28"/>
     <path d="
M2.98438 54.6875
L12.5 54.6875
L29.5938 8.79688
L46.6875 54.6875
L56.2031 54.6875
L35.6875 0
L23.4844 0
z
" id="BitstreamVeraSans-Roman-76"/>
     <path d="
M45.4062 46.3906
L45.4062 75.9844
L54.3906 75.9844
L54.3906 0
L45.4062 0
L45.4062 8.20312
Q42.5781 3.32812 38.25 0.953125
Q33.9375 -1.42188 27.875 -1.42188
Q17.9688 -1.42188 11.7344 6.48438
Q5.51562 14.4062 5.51562 27.2969
Q5.51562 40.1875 11.7344 48.0938
Q17.9688 56 27.875 56
Q33.9375 56 38.25 53.625
Q42.5781 51.2656 45.4062 46.3906
M14.7969 27.2969
Q14.7969 17.3906 18.875 11.75
Q22.9531 6.10938 30.0781 6.10938
Q37.2031 6.10938 41.2969 11.75
Q45.4062 17.3906 45.4062 27.2969
Q45.4062 37.2031 41.2969 42.8438
Q37.2031 48.4844 30.0781 48.4844
Q22.9531 48.4844 18.875 42.8438
Q14.7969 37.2031 14.7969 27.2969" id="BitstreamVeraSans-Roman-64"/>
     <path d="
M45.4062 27.9844
Q45.4062 37.75 41.375 43.1094
Q37.3594 48.4844 30.0781 48.4844
Q22.8594 48.4844 18.8281 43.1094
Q14.7969 37.75 14.7969 27.9844
Q14.7969 18.2656 18.8281 12.8906
Q22.8594 7.51562 30.0781 7.51562
Q37.3594 7.51562 41.375 12.8906
Q45.4062 18.2656 45.4062 27.9844
M54.3906 6.78125
Q54.3906 -7.17188 48.1875 -13.9844
Q42 -20.7969 29.2031 -20.7969
Q24.4688 -20.7969 20.2656 -20.0938
Q16.0625 -19.3906 12.1094 -17.9219
L12.1094 -9.1875
Q16.0625 -11.3281 19.9219 -12.3438
Q23.7812 -13.375 27.7812 -13.375
Q36.625 -13.375 41.0156 -8.76562
Q45.4062 -4.15625 45.4062 5.17188
L45.4062 9.625
Q42.625 4.78125 38.2812 2.39062
Q33.9375 0 27.875 0
Q17.8281 0 11.6719 7.65625
Q5.51562 15.3281 5.51562 27.9844
Q5.51562 40.6719 11.6719 48.3281
Q17.8281 56 27.875 56
Q33.9375 56 38.2812 53.6094
Q42.625 51.2188 45.4062 46.3906
L45.4062 54.6875
L54.3906 54.6875
z
" id="BitstreamVeraSans-Roman-67"/>
     <path d="
M48.6875 27.2969
Q48.6875 37.2031 44.6094 42.8438
Q40.5312 48.4844 33.4062 48.4844
Q26.2656 48.4844 22.1875 42.8438
Q18.1094 37.2031 18.1094 27.2969
Q18.1094 17.3906 22.1875 11.75
Q26.2656 6.10938 33.4062 6.10938
Q40.5312 6.10938 44.6094 11.75
Q48.6875 17.3906 48.6875 27.2969
M18.1094 46.3906
Q20.9531 51.2656 25.2656 53.625
Q29.5938 56 35.5938 56
Q45.5625 56 51.7812 48.0938
Q58.0156 40.1875 58.0156 27.2969
Q58.0156 14.4062 51.7812 6.48438
Q45.5625 -1.42188 35.5938 -1.42188
Q29.5938 -1.42188 25.2656 0.953125
Q20.9531 3.32812 18.1094 8.20312
L18.1094 0
L9.07812 0
L9.07812 75.9844
L18.1094 75.9844
z
" id="BitstreamVeraSans-Roman-62"/>
    </defs>
    <g transform="translate(7.2 18.14175)scale(0.144 -0.144)">
     <use xlink:href="#BitstreamVeraSans-Roman-44"/>
     <use x="77.001953125" xlink:href="#BitstreamVeraSans-Roman-69"/>
     <use x="104.78515625" xlink:href="#BitstreamVeraSans-Roman-73"/>
     <use x="156.884765625" xlink:href="#BitstreamVeraSans-Roman-74"/>
     <use x="196.09375" xlink:href="#BitstreamVeraSans-Roman-72"/>
     <use x="237.20703125" xlink:href="#BitstreamVeraSans-Roman-69"/>
     <use x="264.990234375" xlink:href="#BitstreamVeraSans-Roman-62"/>
     <use x="328.466796875" xlink:href="#BitstreamVeraSans-Roman-75"/>
     <use x="391.845703125" xlink:href="#BitstreamVeraSans-Roman-74"/>
     <use x="431.0546875" xlink:href="#BitstreamVeraSans-Roman-69"/>
     <use x="458.837890625" xlink:href="#BitstreamVeraSans-Roman-6f"/>
     <use x="520.01953125" xlink:href="#BitstreamVeraSans-Roman-6e"/>
     <use x="583.3984375" xlink:href="#BitstreamVeraSans-Roman-73"/>
     <use x="635.498046875" xlink:href="#BitstreamVeraSans-Roman-20"/>
     <use x="667.28515625" xlink:href="#BitstreamVeraSans-Roman-6f"/>
     <use x="728.466796875" xlink:href="#BitstreamVeraSans-Roman-66"/>
     <use x="763.671875" xlink:href="#BitstreamVeraSans-Roman-20"/>
     <use x="795.458984375" xlink:href="#BitstreamVeraSans-Roman-70"/>
     <use x="858.935546875" xlink:href="#BitstreamVeraSans-Roman-61"/>
     <use x="920.21484375" xlink:href="#BitstreamVeraSans-Roman-79"/>
     <use x="979.39453125" xlink:href="#BitstreamVeraSans-Roman-6f"/>
     <use x="1040.57617188" xlink:href="#BitstreamVeraSans-Roman-66"/>
     <use x="1075.78125" xlink:href="#BitstreamVeraSans-Roman-66"/>
     <use x="1110.98632812" xlink:href="#BitstreamVeraSans-Roman-20"/>
     <use x="1142.7734375" xlink:href="#BitstreamVeraSans-Roman-64"/>
     <use x="1206.25" xlink:href="#BitstreamVeraSans-Roman-69"/>
     <use x="1234.03320312" xlink:href="#BitstreamVeraSans-Roman-66"/>
     <use x="1269.23828125" xlink:href="#BitstreamVeraSans-Roman-66"/>
     <use x="1304.44335938" xlink:href="#BitstreamVeraSans-Roman-65"/>
     <use x="1365.96679688" xlink:href="#BitstreamVeraSans-Roman-72"/>
     <use x="1404.83007812" xlink:href="#BitstreamVeraSans-Roman-65"/>
     <use x="1466.35351562" xlink:href="#BitstreamVeraSans-Roman-6e"/>
     <use x="1529.73242188" xlink:href="#BitstreamVeraSans-Roman-63"/>
     <use x="1584.71289062" xlink:href="#BitstreamVeraSans-Roman-65"/>
     <use x="1646.23632812" xlink:href="#BitstreamVeraSans-Roman-73"/>
     <use x="1698.3359375" xlink:href="#BitstreamVeraSans-Roman-20"/>
     <use x="1730.12304688" xlink:href="#BitstreamVeraSans-Roman-70"/>
     <use x="1793.59960938" xlink:href="#BitstreamVeraSans-Roman-65"/>
     <use x="1855.12304688" xlink:href="#BitstreamVeraSans-Roman-72"/>
     <use x="1896.23632812" xlink:href="#BitstreamVeraSans-Roman-20"/>
     <use x="1928.0234375" xlink:href="#BitstreamVeraSans-Roman-73"/>
     <use x="1980.12304688" xlink:href="#BitstreamVeraSans-Roman-74"/>
     <use x="2019.33203125" xlink:href="#BitstreamVeraSans-Roman-61"/>
     <use x="2080.61132812" xlink:href="#BitstreamVeraSans-Roman-67"/>
     <use x="2144.08789062" xlink:href="#BitstreamVeraSans-Roman-65"/>
     <use x="2205.61132812" xlink:href="#BitstreamVeraSans-Roman-20"/>
     <use x="2237.3984375" xlink:href="#BitstreamVeraSans-Roman-67"/>
     <use x="2300.875" xlink:href="#BitstreamVeraSans-Roman-61"/>
     <use x="2362.15429688" xlink:href="#BitstreamVeraSans-Roman-6d"/>
     <use x="2459.56640625" xlink:href="#BitstreamVeraSans-Roman-65"/>
     <use x="2521.08984375" xlink:href="#BitstreamVeraSans-Roman-20"/>
     <use x="2552.87695312" xlink:href="#BitstreamVeraSans-Roman-6f"/>
     <use x="2614.05859375" xlink:href="#BitstreamVeraSans-Roman-76"/>
     <use x="2673.23828125" xlink:href="#BitstreamVeraSans-Roman-65"/>
     <use x="2734.76171875" xlink:href="#BitstreamVeraSans-Roman-72"/>
     <use x="2775.875" xlink:href="#BitstreamVeraSans-Roman-20"/>
     <use x="2807.66210938" xlink:href="#BitstreamVeraSans-Roman-32"/>
     <use x="2871.28515625" xlink:href="#BitstreamVeraSans-Roman-30"/>
     <use x="2934.90820312" xlink:href="#BitstreamVeraSans-Roman-30"/>
     <use x="2998.53125" xlink:href="#BitstreamVeraSans-Roman-20"/>
     <use x="3030.31835938" xlink:href="#BitstreamVeraSans-Roman-74"/>
     <use x="3069.52734375" xlink:href="#BitstreamVeraSans-Roman-75"/>
     <use x="3132.90625" xlink:href="#BitstreamVeraSans-Roman-72"/>
     <use x="3172.26953125" xlink:href="#BitstreamVeraSans-Roman-6e"/>
     <use x="3235.6484375" xlink:href="#BitstreamVeraSans-Roman-73"/>
     <use x="3287.74804688" xlink:href="#BitstreamVeraSans-Roman-20"/>
     <use x="3319.53515625" xlink:href="#BitstreamVeraSans-Roman-72"/>
     <use x="3358.3984375" xlink:href="#BitstreamVeraSans-Roman-65"/>
     <use x="3419.921875" xlink:href="#BitstreamVeraSans-Roman-70"/>
     <use x="3483.3984375" xlink:href="#BitstreamVeraSans-Roman-65"/>
     <use x="3544.921875" xlink:href="#BitstreamVeraSans-Roman-61"/>
     <use x="3606.20117188" xlink:href="#BitstreamVeraSans-Roman-74"/>
     <use x="3645.41015625" xlink:href="#BitstreamVeraSans-Roman-65"/>
     <use x="3706.93359375" xlink:href="#BitstreamVeraSans-Roman-64"/>
     <use x="3770.41015625" xlink:href="#BitstreamVeraSans-Roman-20"/>
     <use x="3802.19726562" xlink:href="#BitstreamVeraSans-Roman-31"/>
     <use x="3865.8203125" xlink:href="#BitstreamVeraSans-Roman-30"/>
     <use x="3929.44335938" xlink:href="#BitstreamVeraSans-Roman-30"/>
     <use x="3993.06640625" xlink:href="#BitstreamVeraSans-Roman-20"/>
     <use x="4024.85351562" xlink:href="#BitstreamVeraSans-Roman-74"/>
     <use x="4064.0625" xlink:href="#BitstreamVeraSans-Roman-69"/>
     <use x="4091.84570312" xlink:href="#BitstreamVeraSans-Roman-6d"/>
     <use x="4189.2578125" xlink:href="#BitstreamVeraSans-Roman-65"/>
     <use x="4250.78125" xlink:href="#BitstreamVeraSans-Roman-73"/>
     <use x="4302.88085938" xlink:href="#BitstreamVeraSans-Roman-20"/>
     <use x="4334.66796875" xlink:href="#BitstreamVeraSans-Roman-28"/>
     <use x="4373.68164062" xlink:href="#BitstreamVeraSans-Roman-38"/>
     <use x="4437.3046875" xlink:href="#BitstreamVeraSans-Roman-20"/>
     <use x="4469.09179688" xlink:href="#BitstreamVeraSans-Roman-73"/>
     <use x="4521.19140625" xlink:href="#BitstreamVeraSans-Roman-74"/>
     <use x="4560.40039062" xlink:href="#BitstreamVeraSans-Roman-72"/>
     <use x="4601.51367188" xlink:href="#BitstreamVeraSans-Roman-61"/>
     <use x="4662.79296875" xlink:href="#BitstreamVeraSans-Roman-74"/>
     <use x="4702.00195312" xlink:href="#BitstreamVeraSans-Roman-65"/>
     <use x="4763.52539062" xlink:href="#BitstreamVeraSans-Roman-67"/>
     <use x="4827.00195312" xlink:href="#BitstreamVeraSans-Roman-69"/>
     <use x="4854.78515625" xlink:href="#BitstreamVeraSans-Roman-65"/>
     <use x="4916.30859375" xlink:href="#BitstreamVeraSans-Roman-73"/>
     <use x="4968.40820312" xlink:href="#BitstreamVeraSans-Roman-29"/>
    </g>
   </g>
  </g>
 </g>
 <defs>
  <clipPath id="p729dc12a58">
   <rect height="345.6" width="669.6" x="32.3145" y="23.14175"/>
  </clipPath>
 </defs>
</svg>
