<?xml version="1.0" encoding="utf-8" standalone="no"?>
<!DOCTYPE svg PUBLIC "-//W3C//DTD SVG 1.1//EN"
  "http://www.w3.org/Graphics/SVG/1.1/DTD/svg11.dtd">
<!-- Created with matplotlib (http://matplotlib.org/) -->
<svg height="465pt" version="1.1" viewBox="0 0 700 465" width="700pt" xmlns="http://www.w3.org/2000/svg" xmlns:xlink="http://www.w3.org/1999/xlink">
 <defs>
  <style type="text/css">
*{stroke-linecap:butt;stroke-linejoin:round;stroke-miterlimit:100000;}
  </style>
 </defs>
 <g id="figure_1">
  <g id="patch_1">
   <path d="M 0 465.868 
L 700.7225 465.868 
L 700.7225 0 
L 0 0 
z
" style="fill:#ffffff;"/>
  </g>
  <g id="axes_1">
   <g id="patch_2">
    <path d="M 23.9225 368.74175 
L 693.5225 368.74175 
L 693.5225 23.14175 
L 23.9225 23.14175 
z
" style="fill:#ffffff;"/>
   </g>
   <g id="PolyCollection_1">
    <defs>
     <path d="M 99.654563 -267.884574 
L 96.990437 -267.884574 
L 96.878529 -269.314792 
L 96.775564 -270.745009 
L 96.68211 -272.175227 
L 96.59743 -273.605444 
L 96.519347 -275.035662 
L 96.444225 -276.465879 
L 96.367056 -277.896097 
L 96.281682 -279.326314 
L 96.181124 -280.756532 
L 96.058012 -282.186749 
L 95.905094 -283.616967 
L 95.715765 -285.047184 
L 95.484595 -286.477402 
L 95.20777 -287.907619 
L 94.88341 -289.337836 
L 94.511702 -290.768054 
L 94.094807 -292.198271 
L 93.636544 -293.628489 
L 93.141846 -295.058706 
L 92.616072 -296.488924 
L 92.064239 -297.919141 
L 91.490301 -299.349359 
L 90.896588 -300.779576 
L 90.283511 -302.209794 
L 89.649626 -303.640011 
L 88.992069 -305.070229 
L 88.307359 -306.500446 
L 87.592472 -307.930664 
L 86.846062 -309.360881 
L 86.069669 -310.791099 
L 85.268734 -312.221316 
L 84.453254 -313.651534 
L 83.637968 -315.081751 
L 82.841986 -316.511968 
L 82.087849 -317.942186 
L 81.400109 -319.372403 
L 80.803521 -320.802621 
L 80.321068 -322.232838 
L 79.971993 -323.663056 
L 79.770101 -325.093273 
L 79.7225 -326.523491 
L 79.828955 -327.953708 
L 80.081933 -329.383926 
L 80.467334 -330.814143 
L 80.965827 -332.244361 
L 81.55462 -333.674578 
L 82.209461 -335.104796 
L 82.90663 -336.535013 
L 83.624699 -337.965231 
L 84.345876 -339.395448 
L 85.056828 -340.825666 
L 85.748927 -342.255883 
L 86.417962 -343.6861 
L 87.063402 -345.116318 
L 87.687364 -346.546535 
L 88.293424 -347.976753 
L 88.885462 -349.40697 
L 89.466647 -350.837188 
L 90.038691 -352.267405 
L 90.601423 -353.697623 
L 91.152693 -355.12784 
L 91.688589 -356.558058 
L 92.203903 -357.988275 
L 92.69276 -359.418493 
L 93.149322 -360.84871 
L 93.56847 -362.278928 
L 93.946396 -363.709145 
L 94.281031 -365.139363 
L 94.572278 -366.56958 
L 94.822034 -367.999798 
L 95.034019 -369.430015 
L 95.213424 -370.860232 
L 95.366449 -372.29045 
L 95.499759 -373.720667 
L 95.619943 -375.150885 
L 95.733014 -376.581102 
L 95.844009 -378.01132 
L 95.956715 -379.441537 
L 96.073538 -380.871755 
L 96.195517 -382.301972 
L 96.322459 -383.73219 
L 96.453166 -385.162407 
L 96.585715 -386.592625 
L 96.717757 -388.022842 
L 96.846798 -389.45306 
L 96.970443 -390.883277 
L 97.086588 -392.313495 
L 97.193559 -393.743712 
L 97.290201 -395.173929 
L 97.375917 -396.604147 
L 97.45068 -398.034364 
L 97.51501 -399.464582 
L 97.569913 -400.894799 
L 97.616803 -402.325017 
L 97.657386 -403.755234 
L 97.693524 -405.185452 
L 97.727084 -406.615669 
L 97.75978 -408.045887 
L 97.793038 -409.476104 
L 98.851962 -409.476104 
L 98.851962 -409.476104 
L 98.88522 -408.045887 
L 98.917916 -406.615669 
L 98.951476 -405.185452 
L 98.987614 -403.755234 
L 99.028197 -402.325017 
L 99.075087 -400.894799 
L 99.12999 -399.464582 
L 99.19432 -398.034364 
L 99.269083 -396.604147 
L 99.354799 -395.173929 
L 99.451441 -393.743712 
L 99.558412 -392.313495 
L 99.674557 -390.883277 
L 99.798202 -389.45306 
L 99.927243 -388.022842 
L 100.059285 -386.592625 
L 100.191834 -385.162407 
L 100.322541 -383.73219 
L 100.449483 -382.301972 
L 100.571462 -380.871755 
L 100.688285 -379.441537 
L 100.800991 -378.01132 
L 100.911986 -376.581102 
L 101.025057 -375.150885 
L 101.145241 -373.720667 
L 101.278551 -372.29045 
L 101.431576 -370.860232 
L 101.610981 -369.430015 
L 101.822966 -367.999798 
L 102.072722 -366.56958 
L 102.363969 -365.139363 
L 102.698604 -363.709145 
L 103.07653 -362.278928 
L 103.495678 -360.84871 
L 103.95224 -359.418493 
L 104.441097 -357.988275 
L 104.956411 -356.558058 
L 105.492307 -355.12784 
L 106.043577 -353.697623 
L 106.606309 -352.267405 
L 107.178353 -350.837188 
L 107.759538 -349.40697 
L 108.351576 -347.976753 
L 108.957636 -346.546535 
L 109.581598 -345.116318 
L 110.227038 -343.6861 
L 110.896073 -342.255883 
L 111.588172 -340.825666 
L 112.299124 -339.395448 
L 113.020301 -337.965231 
L 113.73837 -336.535013 
L 114.435539 -335.104796 
L 115.09038 -333.674578 
L 115.679173 -332.244361 
L 116.177666 -330.814143 
L 116.563067 -329.383926 
L 116.816045 -327.953708 
L 116.9225 -326.523491 
L 116.874899 -325.093273 
L 116.673007 -323.663056 
L 116.323932 -322.232838 
L 115.841479 -320.802621 
L 115.244891 -319.372403 
L 114.557151 -317.942186 
L 113.803014 -316.511968 
L 113.007032 -315.081751 
L 112.191746 -313.651534 
L 111.376266 -312.221316 
L 110.575331 -310.791099 
L 109.798938 -309.360881 
L 109.052528 -307.930664 
L 108.337641 -306.500446 
L 107.652931 -305.070229 
L 106.995374 -303.640011 
L 106.361489 -302.209794 
L 105.748412 -300.779576 
L 105.154699 -299.349359 
L 104.580761 -297.919141 
L 104.028928 -296.488924 
L 103.503154 -295.058706 
L 103.008456 -293.628489 
L 102.550193 -292.198271 
L 102.133298 -290.768054 
L 101.76159 -289.337836 
L 101.43723 -287.907619 
L 101.160405 -286.477402 
L 100.929235 -285.047184 
L 100.739906 -283.616967 
L 100.586988 -282.186749 
L 100.463876 -280.756532 
L 100.363318 -279.326314 
L 100.277944 -277.896097 
L 100.200775 -276.465879 
L 100.125653 -275.035662 
L 100.04757 -273.605444 
L 99.96289 -272.175227 
L 99.869436 -270.745009 
L 99.766471 -269.314792 
L 99.654563 -267.884574 
z
" id="mc263898f41" style="stroke:#000000;stroke-opacity:0.3;"/>
    </defs>
    <g clip-path="url(#pd4f7a8ad16)">
     <use style="fill:#bfbf00;fill-opacity:0.3;stroke:#000000;stroke-opacity:0.3;" x="0.0" xlink:href="#mc263898f41" y="465.868"/>
    </g>
   </g>
   <g id="PolyCollection_2">
    <defs>
     <path d="M 175.491619 -251.387793 
L 169.953381 -251.387793 
L 169.571624 -252.522582 
L 169.152983 -253.657372 
L 168.695166 -254.792161 
L 168.195989 -255.926951 
L 167.653536 -257.061741 
L 167.066363 -258.19653 
L 166.433732 -259.33132 
L 165.75586 -260.466109 
L 165.034164 -261.600899 
L 164.271485 -262.735689 
L 163.472273 -263.870478 
L 162.642704 -265.005268 
L 161.790719 -266.140058 
L 160.925976 -267.274847 
L 160.059691 -268.409637 
L 159.204393 -269.544426 
L 158.373575 -270.679216 
L 157.581284 -271.814006 
L 156.841646 -272.948795 
L 156.168373 -274.083585 
L 155.574267 -275.218374 
L 155.070757 -276.353164 
L 154.66749 -277.487954 
L 154.371995 -278.622743 
L 154.189445 -279.757533 
L 154.1225 -280.892322 
L 154.171259 -282.027112 
L 154.333289 -283.161902 
L 154.603737 -284.296691 
L 154.975505 -285.431481 
L 155.439478 -286.566271 
L 155.984779 -287.70106 
L 156.599068 -288.83585 
L 157.268843 -289.970639 
L 157.97977 -291.105429 
L 158.717018 -292.240219 
L 159.465605 -293.375008 
L 160.21076 -294.509798 
L 160.938295 -295.644587 
L 161.634977 -296.779377 
L 162.288913 -297.914167 
L 162.889916 -299.048956 
L 163.429853 -300.183746 
L 163.902951 -301.318536 
L 164.306045 -302.453325 
L 164.638728 -303.588115 
L 164.903411 -304.722904 
L 165.10524 -305.857694 
L 165.251889 -306.992484 
L 165.353197 -308.127273 
L 165.420677 -309.262063 
L 165.466914 -310.396852 
L 165.504878 -311.531642 
L 165.547197 -312.666432 
L 165.605445 -313.801221 
L 165.689494 -314.936011 
L 165.806978 -316.070801 
L 165.96291 -317.20559 
L 166.159481 -318.34038 
L 166.396055 -319.475169 
L 166.66935 -320.609959 
L 166.973784 -321.744749 
L 167.301964 -322.879538 
L 167.645248 -324.014328 
L 167.994357 -325.149117 
L 168.339971 -326.283907 
L 168.67328 -327.418697 
L 168.986444 -328.553486 
L 169.272948 -329.688276 
L 169.527842 -330.823065 
L 169.747857 -331.957855 
L 169.93142 -333.092645 
L 170.078574 -334.227434 
L 170.190826 -335.362224 
L 170.270939 -336.497014 
L 170.322693 -337.631803 
L 170.350627 -338.766593 
L 170.359776 -339.901382 
L 170.355419 -341.036172 
L 170.342834 -342.170962 
L 170.327086 -343.305751 
L 170.312834 -344.440541 
L 170.304173 -345.57533 
L 170.304515 -346.71012 
L 170.316505 -347.84491 
L 170.34198 -348.979699 
L 170.381969 -350.114489 
L 170.436734 -351.249279 
L 170.505838 -352.384068 
L 170.588249 -353.518858 
L 170.68246 -354.653647 
L 170.786616 -355.788437 
L 170.898651 -356.923227 
L 171.016405 -358.058016 
L 171.137741 -359.192806 
L 171.260625 -360.327595 
L 171.383203 -361.462385 
L 171.503836 -362.597175 
L 171.621125 -363.731964 
L 173.823875 -363.731964 
L 173.823875 -363.731964 
L 173.941164 -362.597175 
L 174.061797 -361.462385 
L 174.184375 -360.327595 
L 174.307259 -359.192806 
L 174.428595 -358.058016 
L 174.546349 -356.923227 
L 174.658384 -355.788437 
L 174.76254 -354.653647 
L 174.856751 -353.518858 
L 174.939162 -352.384068 
L 175.008266 -351.249279 
L 175.063031 -350.114489 
L 175.10302 -348.979699 
L 175.128495 -347.84491 
L 175.140485 -346.71012 
L 175.140827 -345.57533 
L 175.132166 -344.440541 
L 175.117914 -343.305751 
L 175.102166 -342.170962 
L 175.089581 -341.036172 
L 175.085224 -339.901382 
L 175.094373 -338.766593 
L 175.122307 -337.631803 
L 175.174061 -336.497014 
L 175.254174 -335.362224 
L 175.366426 -334.227434 
L 175.51358 -333.092645 
L 175.697143 -331.957855 
L 175.917158 -330.823065 
L 176.172052 -329.688276 
L 176.458556 -328.553486 
L 176.77172 -327.418697 
L 177.105029 -326.283907 
L 177.450643 -325.149117 
L 177.799752 -324.014328 
L 178.143036 -322.879538 
L 178.471216 -321.744749 
L 178.77565 -320.609959 
L 179.048945 -319.475169 
L 179.285519 -318.34038 
L 179.48209 -317.20559 
L 179.638022 -316.070801 
L 179.755506 -314.936011 
L 179.839555 -313.801221 
L 179.897803 -312.666432 
L 179.940122 -311.531642 
L 179.978086 -310.396852 
L 180.024323 -309.262063 
L 180.091803 -308.127273 
L 180.193111 -306.992484 
L 180.33976 -305.857694 
L 180.541589 -304.722904 
L 180.806272 -303.588115 
L 181.138955 -302.453325 
L 181.542049 -301.318536 
L 182.015147 -300.183746 
L 182.555084 -299.048956 
L 183.156087 -297.914167 
L 183.810023 -296.779377 
L 184.506705 -295.644587 
L 185.23424 -294.509798 
L 185.979395 -293.375008 
L 186.727982 -292.240219 
L 187.46523 -291.105429 
L 188.176157 -289.970639 
L 188.845932 -288.83585 
L 189.460221 -287.70106 
L 190.005522 -286.566271 
L 190.469495 -285.431481 
L 190.841263 -284.296691 
L 191.111711 -283.161902 
L 191.273741 -282.027112 
L 191.3225 -280.892322 
L 191.255555 -279.757533 
L 191.073005 -278.622743 
L 190.77751 -277.487954 
L 190.374243 -276.353164 
L 189.870733 -275.218374 
L 189.276627 -274.083585 
L 188.603354 -272.948795 
L 187.863716 -271.814006 
L 187.071425 -270.679216 
L 186.240607 -269.544426 
L 185.385309 -268.409637 
L 184.519024 -267.274847 
L 183.654281 -266.140058 
L 182.802296 -265.005268 
L 181.972727 -263.870478 
L 181.173515 -262.735689 
L 180.410836 -261.600899 
L 179.68914 -260.466109 
L 179.011268 -259.33132 
L 178.378637 -258.19653 
L 177.791464 -257.061741 
L 177.249011 -255.926951 
L 176.749834 -254.792161 
L 176.292017 -253.657372 
L 175.873376 -252.522582 
L 175.491619 -251.387793 
z
" id="m885894d4b4" style="stroke:#000000;stroke-opacity:0.3;"/>
    </defs>
    <g clip-path="url(#pd4f7a8ad16)">
     <use style="fill:#bfbf00;fill-opacity:0.3;stroke:#000000;stroke-opacity:0.3;" x="0.0" xlink:href="#m885894d4b4" y="465.868"/>
    </g>
   </g>
   <g id="PolyCollection_3">
    <defs>
     <path d="M 249.839303 -207.884943 
L 244.405697 -207.884943 
L 243.94778 -209.188431 
L 243.427264 -210.49192 
L 242.838758 -211.795409 
L 242.177874 -213.098898 
L 241.441849 -214.402387 
L 240.630207 -215.705875 
L 239.745399 -217.009364 
L 238.793362 -218.312853 
L 237.783917 -219.616342 
L 236.73094 -220.91983 
L 235.652242 -222.223319 
L 234.569142 -223.526808 
L 233.505705 -224.830297 
L 232.487687 -226.133786 
L 231.54124 -227.437274 
L 230.69147 -228.740763 
L 229.960951 -230.044252 
L 229.368325 -231.347741 
L 228.927115 -232.651229 
L 228.644835 -233.954718 
L 228.5225 -235.258207 
L 228.554573 -236.561696 
L 228.729346 -237.865185 
L 229.02973 -239.168673 
L 229.434377 -240.472162 
L 229.919037 -241.775651 
L 230.458036 -243.07914 
L 231.025762 -244.382628 
L 231.598046 -245.686117 
L 232.153344 -246.989606 
L 232.673672 -248.293095 
L 233.14524 -249.596584 
L 233.558773 -250.900072 
L 233.909559 -252.203561 
L 234.19723 -253.50705 
L 234.425333 -254.810539 
L 234.600751 -256.114027 
L 234.733018 -257.417516 
L 234.833578 -258.721005 
L 234.915036 -260.024494 
L 234.990435 -261.327983 
L 235.072578 -262.631471 
L 235.173424 -263.93496 
L 235.303565 -265.238449 
L 235.4718 -266.541938 
L 235.684796 -267.845426 
L 235.946868 -269.148915 
L 236.259859 -270.452404 
L 236.623128 -271.755893 
L 237.033656 -273.059382 
L 237.486251 -274.36287 
L 237.973856 -275.666359 
L 238.487938 -276.969848 
L 239.018945 -278.273337 
L 239.556792 -279.576825 
L 240.09137 -280.880314 
L 240.613017 -282.183803 
L 241.112962 -283.487292 
L 241.583671 -284.790781 
L 242.019124 -286.094269 
L 242.414981 -287.397758 
L 242.768652 -288.701247 
L 243.079266 -290.004736 
L 243.347574 -291.308224 
L 243.57577 -292.611713 
L 243.767275 -293.915202 
L 243.926485 -295.218691 
L 244.0585 -296.52218 
L 244.168849 -297.825668 
L 244.263214 -299.129157 
L 244.347161 -300.432646 
L 244.425893 -301.736135 
L 244.504014 -303.039623 
L 244.585335 -304.343112 
L 244.672718 -305.646601 
L 244.767965 -306.95009 
L 244.87178 -308.253579 
L 244.983791 -309.557067 
L 245.102639 -310.860556 
L 245.226143 -312.164045 
L 245.351516 -313.467534 
L 245.475617 -314.771022 
L 245.595234 -316.074511 
L 245.707357 -317.378 
L 245.809425 -318.681489 
L 245.899528 -319.984978 
L 245.97655 -321.288466 
L 246.04023 -322.591955 
L 246.091154 -323.895444 
L 246.130677 -325.198933 
L 246.160779 -326.502421 
L 246.18388 -327.80591 
L 246.202634 -329.109399 
L 246.219713 -330.412888 
L 246.237602 -331.716377 
L 246.258434 -333.019865 
L 246.283857 -334.323354 
L 246.314958 -335.626843 
L 246.35223 -336.930332 
L 247.89277 -336.930332 
L 247.89277 -336.930332 
L 247.930042 -335.626843 
L 247.961143 -334.323354 
L 247.986566 -333.019865 
L 248.007398 -331.716377 
L 248.025287 -330.412888 
L 248.042366 -329.109399 
L 248.06112 -327.80591 
L 248.084221 -326.502421 
L 248.114323 -325.198933 
L 248.153846 -323.895444 
L 248.20477 -322.591955 
L 248.26845 -321.288466 
L 248.345472 -319.984978 
L 248.435575 -318.681489 
L 248.537643 -317.378 
L 248.649766 -316.074511 
L 248.769383 -314.771022 
L 248.893484 -313.467534 
L 249.018857 -312.164045 
L 249.142361 -310.860556 
L 249.261209 -309.557067 
L 249.37322 -308.253579 
L 249.477035 -306.95009 
L 249.572282 -305.646601 
L 249.659665 -304.343112 
L 249.740986 -303.039623 
L 249.819107 -301.736135 
L 249.897839 -300.432646 
L 249.981786 -299.129157 
L 250.076151 -297.825668 
L 250.1865 -296.52218 
L 250.318515 -295.218691 
L 250.477725 -293.915202 
L 250.66923 -292.611713 
L 250.897426 -291.308224 
L 251.165734 -290.004736 
L 251.476348 -288.701247 
L 251.830019 -287.397758 
L 252.225876 -286.094269 
L 252.661329 -284.790781 
L 253.132038 -283.487292 
L 253.631983 -282.183803 
L 254.15363 -280.880314 
L 254.688208 -279.576825 
L 255.226055 -278.273337 
L 255.757062 -276.969848 
L 256.271144 -275.666359 
L 256.758749 -274.36287 
L 257.211344 -273.059382 
L 257.621872 -271.755893 
L 257.985141 -270.452404 
L 258.298132 -269.148915 
L 258.560204 -267.845426 
L 258.7732 -266.541938 
L 258.941435 -265.238449 
L 259.071576 -263.93496 
L 259.172422 -262.631471 
L 259.254565 -261.327983 
L 259.329964 -260.024494 
L 259.411422 -258.721005 
L 259.511982 -257.417516 
L 259.644249 -256.114027 
L 259.819667 -254.810539 
L 260.04777 -253.50705 
L 260.335441 -252.203561 
L 260.686227 -250.900072 
L 261.09976 -249.596584 
L 261.571328 -248.293095 
L 262.091656 -246.989606 
L 262.646954 -245.686117 
L 263.219238 -244.382628 
L 263.786964 -243.07914 
L 264.325963 -241.775651 
L 264.810623 -240.472162 
L 265.21527 -239.168673 
L 265.515654 -237.865185 
L 265.690427 -236.561696 
L 265.7225 -235.258207 
L 265.600165 -233.954718 
L 265.317885 -232.651229 
L 264.876675 -231.347741 
L 264.284049 -230.044252 
L 263.55353 -228.740763 
L 262.70376 -227.437274 
L 261.757313 -226.133786 
L 260.739295 -224.830297 
L 259.675858 -223.526808 
L 258.592758 -222.223319 
L 257.51406 -220.91983 
L 256.461083 -219.616342 
L 255.451638 -218.312853 
L 254.499601 -217.009364 
L 253.614793 -215.705875 
L 252.803151 -214.402387 
L 252.067126 -213.098898 
L 251.406242 -211.795409 
L 250.817736 -210.49192 
L 250.29722 -209.188431 
L 249.839303 -207.884943 
z
" id="mc57e36cf25" style="stroke:#000000;stroke-opacity:0.3;"/>
    </defs>
    <g clip-path="url(#pd4f7a8ad16)">
     <use style="fill:#bfbf00;fill-opacity:0.3;stroke:#000000;stroke-opacity:0.3;" x="0.0" xlink:href="#mc57e36cf25" y="465.868"/>
    </g>
   </g>
   <g id="PolyCollection_4">
    <defs>
     <path d="M 322.626923 -167.605002 
L 320.418077 -167.605002 
L 320.344744 -168.632521 
L 320.280429 -169.660041 
L 320.22289 -170.687561 
L 320.168323 -171.71508 
L 320.11166 -172.7426 
L 320.047051 -173.77012 
L 319.968486 -174.797639 
L 319.870451 -175.825159 
L 319.748571 -176.852679 
L 319.600117 -177.880199 
L 319.424328 -178.907718 
L 319.222523 -179.935238 
L 318.997975 -180.962758 
L 318.755611 -181.990277 
L 318.501577 -183.017797 
L 318.242735 -184.045317 
L 317.986158 -185.072837 
L 317.738658 -186.100356 
L 317.506349 -187.127876 
L 317.29425 -188.155396 
L 317.105877 -189.182915 
L 316.94282 -190.210435 
L 316.804285 -191.237955 
L 316.686646 -192.265474 
L 316.583071 -193.292994 
L 316.483311 -194.320514 
L 316.373784 -195.348034 
L 316.238025 -196.375553 
L 316.057575 -197.403073 
L 315.813272 -198.430593 
L 315.486891 -199.458112 
L 315.06295 -200.485632 
L 314.530492 -201.513152 
L 313.884616 -202.540672 
L 313.127544 -203.568191 
L 312.269071 -204.595711 
L 311.326296 -205.623231 
L 310.322659 -206.65075 
L 309.28636 -207.67827 
L 308.248357 -208.70579 
L 307.240162 -209.733309 
L 306.291703 -210.760829 
L 305.4295 -211.788349 
L 304.675344 -212.815869 
L 304.045621 -213.843388 
L 303.551273 -214.870908 
L 303.198354 -215.898428 
L 302.988987 -216.925947 
L 302.9225 -217.953467 
L 302.996512 -218.980987 
L 303.207732 -220.008507 
L 303.552333 -221.036026 
L 304.025864 -222.063546 
L 304.622742 -223.091066 
L 305.335497 -224.118585 
L 306.15397 -225.146105 
L 307.064698 -226.173625 
L 308.050672 -227.201145 
L 309.091576 -228.228664 
L 310.164538 -229.256184 
L 311.245287 -230.283704 
L 312.309572 -231.311223 
L 313.334646 -232.338743 
L 314.300606 -233.366263 
L 315.191448 -234.393782 
L 315.995728 -235.421302 
L 316.706803 -236.448822 
L 317.322706 -237.476342 
L 317.845702 -238.503861 
L 318.281643 -239.531381 
L 318.639201 -240.558901 
L 318.92905 -241.58642 
L 319.163046 -242.61394 
L 319.353437 -243.64146 
L 319.512123 -244.66898 
L 319.649989 -245.696499 
L 319.776338 -246.724019 
L 319.898454 -247.751539 
L 320.021344 -248.779058 
L 320.147667 -249.806578 
L 320.277868 -250.834098 
L 320.410503 -251.861617 
L 320.542706 -252.889137 
L 320.670748 -253.916657 
L 320.79061 -254.944177 
L 320.898518 -255.971696 
L 320.991374 -256.999216 
L 321.067066 -258.026736 
L 321.124633 -259.054255 
L 321.164299 -260.081775 
L 321.1874 -261.109295 
L 321.196217 -262.136815 
L 321.193751 -263.164334 
L 321.183458 -264.191854 
L 321.168968 -265.219374 
L 321.153801 -266.246893 
L 321.141112 -267.274413 
L 321.133466 -268.301933 
L 321.132682 -269.329453 
L 321.912318 -269.329453 
L 321.912318 -269.329453 
L 321.911534 -268.301933 
L 321.903888 -267.274413 
L 321.891199 -266.246893 
L 321.876032 -265.219374 
L 321.861542 -264.191854 
L 321.851249 -263.164334 
L 321.848783 -262.136815 
L 321.8576 -261.109295 
L 321.880701 -260.081775 
L 321.920367 -259.054255 
L 321.977934 -258.026736 
L 322.053626 -256.999216 
L 322.146482 -255.971696 
L 322.25439 -254.944177 
L 322.374252 -253.916657 
L 322.502294 -252.889137 
L 322.634497 -251.861617 
L 322.767132 -250.834098 
L 322.897333 -249.806578 
L 323.023656 -248.779058 
L 323.146546 -247.751539 
L 323.268662 -246.724019 
L 323.395011 -245.696499 
L 323.532877 -244.66898 
L 323.691563 -243.64146 
L 323.881954 -242.61394 
L 324.11595 -241.58642 
L 324.405799 -240.558901 
L 324.763357 -239.531381 
L 325.199298 -238.503861 
L 325.722294 -237.476342 
L 326.338197 -236.448822 
L 327.049272 -235.421302 
L 327.853552 -234.393782 
L 328.744394 -233.366263 
L 329.710354 -232.338743 
L 330.735428 -231.311223 
L 331.799713 -230.283704 
L 332.880462 -229.256184 
L 333.953424 -228.228664 
L 334.994328 -227.201145 
L 335.980302 -226.173625 
L 336.89103 -225.146105 
L 337.709503 -224.118585 
L 338.422258 -223.091066 
L 339.019136 -222.063546 
L 339.492667 -221.036026 
L 339.837268 -220.008507 
L 340.048488 -218.980987 
L 340.1225 -217.953467 
L 340.056013 -216.925947 
L 339.846646 -215.898428 
L 339.493727 -214.870908 
L 338.999379 -213.843388 
L 338.369656 -212.815869 
L 337.6155 -211.788349 
L 336.753297 -210.760829 
L 335.804838 -209.733309 
L 334.796643 -208.70579 
L 333.75864 -207.67827 
L 332.722341 -206.65075 
L 331.718704 -205.623231 
L 330.775929 -204.595711 
L 329.917456 -203.568191 
L 329.160384 -202.540672 
L 328.514508 -201.513152 
L 327.98205 -200.485632 
L 327.558109 -199.458112 
L 327.231728 -198.430593 
L 326.987425 -197.403073 
L 326.806975 -196.375553 
L 326.671216 -195.348034 
L 326.561689 -194.320514 
L 326.461929 -193.292994 
L 326.358354 -192.265474 
L 326.240715 -191.237955 
L 326.10218 -190.210435 
L 325.939123 -189.182915 
L 325.75075 -188.155396 
L 325.538651 -187.127876 
L 325.306342 -186.100356 
L 325.058842 -185.072837 
L 324.802265 -184.045317 
L 324.543423 -183.017797 
L 324.289389 -181.990277 
L 324.047025 -180.962758 
L 323.822477 -179.935238 
L 323.620672 -178.907718 
L 323.444883 -177.880199 
L 323.296429 -176.852679 
L 323.174549 -175.825159 
L 323.076514 -174.797639 
L 322.997949 -173.77012 
L 322.93334 -172.7426 
L 322.876677 -171.71508 
L 322.82211 -170.687561 
L 322.764571 -169.660041 
L 322.700256 -168.632521 
L 322.626923 -167.605002 
z
" id="m9ad289525a" style="stroke:#000000;stroke-opacity:0.3;"/>
    </defs>
    <g clip-path="url(#pd4f7a8ad16)">
     <use style="fill:#bfbf00;fill-opacity:0.3;stroke:#000000;stroke-opacity:0.3;" x="0.0" xlink:href="#m9ad289525a" y="465.868"/>
    </g>
   </g>
   <g id="PolyCollection_5">
    <defs>
     <path d="M 396.85061 -151.983393 
L 394.99439 -151.983393 
L 394.905417 -152.862057 
L 394.814302 -153.740721 
L 394.721966 -154.619385 
L 394.629591 -155.49805 
L 394.538633 -156.376714 
L 394.450811 -157.255378 
L 394.368066 -158.134042 
L 394.292474 -159.012706 
L 394.226132 -159.891371 
L 394.171006 -160.770035 
L 394.128762 -161.648699 
L 394.100585 -162.527363 
L 394.087013 -163.406027 
L 394.087784 -164.284692 
L 394.101729 -165.163356 
L 394.126707 -166.04202 
L 394.159607 -166.920684 
L 394.196395 -167.799348 
L 394.232225 -168.678013 
L 394.261596 -169.556677 
L 394.278546 -170.435341 
L 394.276872 -171.314005 
L 394.250359 -172.192669 
L 394.193014 -173.071333 
L 394.099287 -173.949998 
L 393.964282 -174.828662 
L 393.783941 -175.707326 
L 393.55522 -176.58599 
L 393.276231 -177.464654 
L 392.946367 -178.343319 
L 392.56641 -179.221983 
L 392.138602 -180.100647 
L 391.666685 -180.979311 
L 391.155902 -181.857975 
L 390.612943 -182.73664 
L 390.04583 -183.615304 
L 389.463736 -184.493968 
L 388.876728 -185.372632 
L 388.295443 -186.251296 
L 387.730701 -187.129961 
L 387.193064 -188.008625 
L 386.692382 -188.887289 
L 386.237321 -189.765953 
L 385.834931 -190.644617 
L 385.490266 -191.523282 
L 385.206089 -192.401946 
L 384.98268 -193.28061 
L 384.817771 -194.159274 
L 384.706613 -195.037938 
L 384.642168 -195.916603 
L 384.615433 -196.795267 
L 384.615858 -197.673931 
L 384.631855 -198.552595 
L 384.651355 -199.431259 
L 384.662385 -200.309923 
L 384.653631 -201.188588 
L 384.614953 -202.067252 
L 384.537821 -202.945916 
L 384.415656 -203.82458 
L 384.244039 -204.703244 
L 384.020807 -205.581909 
L 383.746014 -206.460573 
L 383.421782 -207.339237 
L 383.052067 -208.217901 
L 382.642354 -209.096565 
L 382.199333 -209.97523 
L 381.730578 -210.853894 
L 381.244266 -211.732558 
L 380.748954 -212.611222 
L 380.253436 -213.489886 
L 379.76667 -214.368551 
L 379.297775 -215.247215 
L 378.856061 -216.125879 
L 378.451066 -217.004543 
L 378.092573 -217.883207 
L 377.790559 -218.761872 
L 377.555058 -219.640536 
L 377.395926 -220.5192 
L 377.3225 -221.397864 
L 377.343177 -222.276528 
L 377.464935 -223.155192 
L 377.692844 -224.033857 
L 378.029613 -224.912521 
L 378.475221 -225.791185 
L 379.026681 -226.669849 
L 379.677962 -227.548513 
L 380.420094 -228.427178 
L 381.241448 -229.305842 
L 382.128182 -230.184506 
L 383.064815 -231.06317 
L 384.03489 -231.941834 
L 385.021668 -232.820499 
L 386.008814 -233.699163 
L 386.981017 -234.577827 
L 387.92451 -235.456491 
L 388.827466 -236.335155 
L 389.680253 -237.21382 
L 390.47555 -238.092484 
L 391.208332 -238.971148 
L 400.636668 -238.971148 
L 400.636668 -238.971148 
L 401.36945 -238.092484 
L 402.164747 -237.21382 
L 403.017534 -236.335155 
L 403.92049 -235.456491 
L 404.863983 -234.577827 
L 405.836186 -233.699163 
L 406.823332 -232.820499 
L 407.81011 -231.941834 
L 408.780185 -231.06317 
L 409.716818 -230.184506 
L 410.603552 -229.305842 
L 411.424906 -228.427178 
L 412.167038 -227.548513 
L 412.818319 -226.669849 
L 413.369779 -225.791185 
L 413.815387 -224.912521 
L 414.152156 -224.033857 
L 414.380065 -223.155192 
L 414.501823 -222.276528 
L 414.5225 -221.397864 
L 414.449074 -220.5192 
L 414.289942 -219.640536 
L 414.054441 -218.761872 
L 413.752427 -217.883207 
L 413.393934 -217.004543 
L 412.988939 -216.125879 
L 412.547225 -215.247215 
L 412.07833 -214.368551 
L 411.591564 -213.489886 
L 411.096046 -212.611222 
L 410.600734 -211.732558 
L 410.114422 -210.853894 
L 409.645667 -209.97523 
L 409.202646 -209.096565 
L 408.792933 -208.217901 
L 408.423218 -207.339237 
L 408.098986 -206.460573 
L 407.824193 -205.581909 
L 407.600961 -204.703244 
L 407.429344 -203.82458 
L 407.307179 -202.945916 
L 407.230047 -202.067252 
L 407.191369 -201.188588 
L 407.182615 -200.309923 
L 407.193645 -199.431259 
L 407.213145 -198.552595 
L 407.229142 -197.673931 
L 407.229567 -196.795267 
L 407.202832 -195.916603 
L 407.138387 -195.037938 
L 407.027229 -194.159274 
L 406.86232 -193.28061 
L 406.638911 -192.401946 
L 406.354734 -191.523282 
L 406.010069 -190.644617 
L 405.607679 -189.765953 
L 405.152618 -188.887289 
L 404.651936 -188.008625 
L 404.114299 -187.129961 
L 403.549557 -186.251296 
L 402.968272 -185.372632 
L 402.381264 -184.493968 
L 401.79917 -183.615304 
L 401.232057 -182.73664 
L 400.689098 -181.857975 
L 400.178315 -180.979311 
L 399.706398 -180.100647 
L 399.27859 -179.221983 
L 398.898633 -178.343319 
L 398.568769 -177.464654 
L 398.28978 -176.58599 
L 398.061059 -175.707326 
L 397.880718 -174.828662 
L 397.745713 -173.949998 
L 397.651986 -173.071333 
L 397.594641 -172.192669 
L 397.568128 -171.314005 
L 397.566454 -170.435341 
L 397.583404 -169.556677 
L 397.612775 -168.678013 
L 397.648605 -167.799348 
L 397.685393 -166.920684 
L 397.718293 -166.04202 
L 397.743271 -165.163356 
L 397.757216 -164.284692 
L 397.757987 -163.406027 
L 397.744415 -162.527363 
L 397.716238 -161.648699 
L 397.673994 -160.770035 
L 397.618868 -159.891371 
L 397.552526 -159.012706 
L 397.476934 -158.134042 
L 397.394189 -157.255378 
L 397.306367 -156.376714 
L 397.215409 -155.49805 
L 397.123034 -154.619385 
L 397.030698 -153.740721 
L 396.939583 -152.862057 
L 396.85061 -151.983393 
z
" id="m92062e154c" style="stroke:#000000;stroke-opacity:0.3;"/>
    </defs>
    <g clip-path="url(#pd4f7a8ad16)">
     <use style="fill:#bfbf00;fill-opacity:0.3;stroke:#000000;stroke-opacity:0.3;" x="0.0" xlink:href="#m92062e154c" y="465.868"/>
    </g>
   </g>
   <g id="PolyCollection_6">
    <defs>
     <path d="M 470.709168 -146.497679 
L 469.935832 -146.497679 
L 469.941472 -147.414123 
L 469.957934 -148.330568 
L 469.983764 -149.247012 
L 470.016753 -150.163457 
L 470.054212 -151.079902 
L 470.093258 -151.996346 
L 470.131075 -152.912791 
L 470.165087 -153.829235 
L 470.193026 -154.74568 
L 470.212878 -155.662125 
L 470.222758 -156.578569 
L 470.220726 -157.495014 
L 470.204623 -158.411458 
L 470.171973 -159.327903 
L 470.119994 -160.244347 
L 470.045759 -161.160792 
L 469.946499 -162.077237 
L 469.820023 -162.993681 
L 469.665191 -163.910126 
L 469.482353 -164.82657 
L 469.273665 -165.743015 
L 469.043176 -166.65946 
L 468.796648 -167.575904 
L 468.541092 -168.492349 
L 468.284072 -169.408793 
L 468.032893 -170.325238 
L 467.793804 -171.241683 
L 467.571353 -172.158127 
L 467.368012 -173.074572 
L 467.18412 -173.991016 
L 467.018116 -174.907461 
L 466.866984 -175.823906 
L 466.726779 -176.74035 
L 466.593108 -177.656795 
L 466.461434 -178.573239 
L 466.327165 -179.489684 
L 466.185521 -180.406129 
L 466.031241 -181.322573 
L 465.85825 -182.239018 
L 465.659385 -183.155462 
L 465.426303 -184.071907 
L 465.149642 -184.988352 
L 464.819437 -185.904796 
L 464.425793 -186.821241 
L 463.959721 -187.737685 
L 463.414071 -188.65413 
L 462.784453 -189.570575 
L 462.070053 -190.487019 
L 461.27427 -191.403464 
L 460.405095 -192.319908 
L 459.4752 -193.236353 
L 458.501704 -194.152797 
L 457.505633 -195.069242 
L 456.511135 -195.985687 
L 455.544494 -196.902131 
L 454.63307 -197.818576 
L 453.804204 -198.73502 
L 453.084163 -199.651465 
L 452.49711 -200.56791 
L 452.064088 -201.484354 
L 451.801985 -202.400799 
L 451.7225 -203.317243 
L 451.831183 -204.233688 
L 452.126708 -205.150133 
L 452.600561 -206.066577 
L 453.237322 -206.983022 
L 454.015628 -207.899466 
L 454.909766 -208.815911 
L 455.891701 -209.732356 
L 456.933222 -210.6488 
L 458.007852 -211.565245 
L 459.092211 -212.481689 
L 460.166681 -213.398134 
L 461.215355 -214.314579 
L 462.225458 -215.231023 
L 463.186522 -216.147468 
L 464.089597 -217.063912 
L 464.926773 -217.980357 
L 465.6911 -218.896802 
L 466.376911 -219.813246 
L 466.980388 -220.729691 
L 467.500164 -221.646135 
L 467.937754 -222.56258 
L 468.297647 -223.479024 
L 468.587004 -224.395469 
L 468.815005 -225.311914 
L 468.991952 -226.228358 
L 469.128309 -227.144803 
L 469.233845 -228.061247 
L 469.317012 -228.977692 
L 469.384614 -229.894137 
L 469.441794 -230.810581 
L 469.492244 -231.727026 
L 469.538559 -232.64347 
L 469.582607 -233.559915 
L 469.625835 -234.47636 
L 469.669448 -235.392804 
L 469.714447 -236.309249 
L 469.761561 -237.225693 
L 470.883439 -237.225693 
L 470.883439 -237.225693 
L 470.930553 -236.309249 
L 470.975552 -235.392804 
L 471.019165 -234.47636 
L 471.062393 -233.559915 
L 471.106441 -232.64347 
L 471.152756 -231.727026 
L 471.203206 -230.810581 
L 471.260386 -229.894137 
L 471.327988 -228.977692 
L 471.411155 -228.061247 
L 471.516691 -227.144803 
L 471.653048 -226.228358 
L 471.829995 -225.311914 
L 472.057996 -224.395469 
L 472.347353 -223.479024 
L 472.707246 -222.56258 
L 473.144836 -221.646135 
L 473.664612 -220.729691 
L 474.268089 -219.813246 
L 474.9539 -218.896802 
L 475.718227 -217.980357 
L 476.555403 -217.063912 
L 477.458478 -216.147468 
L 478.419542 -215.231023 
L 479.429645 -214.314579 
L 480.478319 -213.398134 
L 481.552789 -212.481689 
L 482.637148 -211.565245 
L 483.711778 -210.6488 
L 484.753299 -209.732356 
L 485.735234 -208.815911 
L 486.629372 -207.899466 
L 487.407678 -206.983022 
L 488.044439 -206.066577 
L 488.518292 -205.150133 
L 488.813817 -204.233688 
L 488.9225 -203.317243 
L 488.843015 -202.400799 
L 488.580912 -201.484354 
L 488.14789 -200.56791 
L 487.560837 -199.651465 
L 486.840796 -198.73502 
L 486.01193 -197.818576 
L 485.100506 -196.902131 
L 484.133865 -195.985687 
L 483.139367 -195.069242 
L 482.143296 -194.152797 
L 481.1698 -193.236353 
L 480.239905 -192.319908 
L 479.37073 -191.403464 
L 478.574947 -190.487019 
L 477.860547 -189.570575 
L 477.230929 -188.65413 
L 476.685279 -187.737685 
L 476.219207 -186.821241 
L 475.825563 -185.904796 
L 475.495358 -184.988352 
L 475.218697 -184.071907 
L 474.985615 -183.155462 
L 474.78675 -182.239018 
L 474.613759 -181.322573 
L 474.459479 -180.406129 
L 474.317835 -179.489684 
L 474.183566 -178.573239 
L 474.051892 -177.656795 
L 473.918221 -176.74035 
L 473.778016 -175.823906 
L 473.626884 -174.907461 
L 473.46088 -173.991016 
L 473.276988 -173.074572 
L 473.073647 -172.158127 
L 472.851196 -171.241683 
L 472.612107 -170.325238 
L 472.360928 -169.408793 
L 472.103908 -168.492349 
L 471.848352 -167.575904 
L 471.601824 -166.65946 
L 471.371335 -165.743015 
L 471.162647 -164.82657 
L 470.979809 -163.910126 
L 470.824977 -162.993681 
L 470.698501 -162.077237 
L 470.599241 -161.160792 
L 470.525006 -160.244347 
L 470.473027 -159.327903 
L 470.440377 -158.411458 
L 470.424274 -157.495014 
L 470.422242 -156.578569 
L 470.432122 -155.662125 
L 470.451974 -154.74568 
L 470.479913 -153.829235 
L 470.513925 -152.912791 
L 470.551742 -151.996346 
L 470.590788 -151.079902 
L 470.628247 -150.163457 
L 470.661236 -149.247012 
L 470.687066 -148.330568 
L 470.703528 -147.414123 
L 470.709168 -146.497679 
z
" id="m3b854df3d9" style="stroke:#000000;stroke-opacity:0.3;"/>
    </defs>
    <g clip-path="url(#pd4f7a8ad16)">
     <use style="fill:#bfbf00;fill-opacity:0.3;stroke:#000000;stroke-opacity:0.3;" x="0.0" xlink:href="#m3b854df3d9" y="465.868"/>
    </g>
   </g>
   <g id="PolyCollection_7">
    <defs>
     <path d="M 545.588738 -145.154238 
L 543.856262 -145.154238 
L 543.800033 -145.858866 
L 543.745022 -146.563494 
L 543.68963 -147.268121 
L 543.631818 -147.972749 
L 543.569309 -148.677376 
L 543.49984 -149.382004 
L 543.421442 -150.086632 
L 543.332728 -150.791259 
L 543.233131 -151.495887 
L 543.123076 -152.200515 
L 543.004049 -152.905142 
L 542.878542 -153.60977 
L 542.749882 -154.314397 
L 542.621936 -155.019025 
L 542.49873 -155.723653 
L 542.384026 -156.42828 
L 542.280883 -157.132908 
L 542.191261 -157.837535 
L 542.115725 -158.542163 
L 542.053246 -159.246791 
L 542.001164 -159.951418 
L 541.95528 -160.656046 
L 541.910075 -161.360674 
L 541.859038 -162.065301 
L 541.795048 -162.769929 
L 541.710775 -163.474556 
L 541.599065 -164.179184 
L 541.453255 -164.883812 
L 541.267429 -165.588439 
L 541.036566 -166.293067 
L 540.756621 -166.997694 
L 540.424529 -167.702322 
L 540.03817 -168.40695 
L 539.596326 -169.111577 
L 539.098632 -169.816205 
L 538.54558 -170.520833 
L 537.938547 -171.22546 
L 537.279877 -171.930088 
L 536.572999 -172.634715 
L 535.822553 -173.339343 
L 535.034523 -174.043971 
L 534.216329 -174.748598 
L 533.37687 -175.453226 
L 532.526493 -176.157853 
L 531.67688 -176.862481 
L 530.840844 -177.567109 
L 530.032043 -178.271736 
L 529.26462 -178.976364 
L 528.552789 -179.680992 
L 527.910374 -180.385619 
L 527.350339 -181.090247 
L 526.884316 -181.794874 
L 526.522152 -182.499502 
L 526.271505 -183.20413 
L 526.137506 -183.908757 
L 526.1225 -184.613385 
L 526.225904 -185.318013 
L 526.444186 -186.02264 
L 526.770987 -186.727268 
L 527.197385 -187.431895 
L 527.712298 -188.136523 
L 528.303006 -188.841151 
L 528.955755 -189.545778 
L 529.656396 -190.250406 
L 530.391011 -190.955033 
L 531.146472 -191.659661 
L 531.910873 -192.364289 
L 532.673818 -193.068916 
L 533.426536 -193.773544 
L 534.161838 -194.478172 
L 534.873932 -195.182799 
L 535.558153 -195.887427 
L 536.210653 -196.592054 
L 536.828108 -197.296682 
L 537.407496 -198.00131 
L 537.945977 -198.705937 
L 538.440885 -199.410565 
L 538.889844 -200.115192 
L 539.290968 -200.81982 
L 539.643106 -201.524448 
L 539.946114 -202.229075 
L 540.20107 -202.933703 
L 540.41043 -203.638331 
L 540.578074 -204.342958 
L 540.70924 -205.047586 
L 540.810345 -205.752213 
L 540.888702 -206.456841 
L 540.952165 -207.161469 
L 541.00872 -207.866096 
L 541.066066 -208.570724 
L 541.131203 -209.275352 
L 541.210079 -209.979979 
L 541.307289 -210.684607 
L 541.425884 -211.389234 
L 541.567266 -212.093862 
L 541.731195 -212.79849 
L 541.915907 -213.503117 
L 542.118316 -214.207745 
L 542.334297 -214.912372 
L 547.110703 -214.912372 
L 547.110703 -214.912372 
L 547.326684 -214.207745 
L 547.529093 -213.503117 
L 547.713805 -212.79849 
L 547.877734 -212.093862 
L 548.019116 -211.389234 
L 548.137711 -210.684607 
L 548.234921 -209.979979 
L 548.313797 -209.275352 
L 548.378934 -208.570724 
L 548.43628 -207.866096 
L 548.492835 -207.161469 
L 548.556298 -206.456841 
L 548.634655 -205.752213 
L 548.73576 -205.047586 
L 548.866926 -204.342958 
L 549.03457 -203.638331 
L 549.24393 -202.933703 
L 549.498886 -202.229075 
L 549.801894 -201.524448 
L 550.154032 -200.81982 
L 550.555156 -200.115192 
L 551.004115 -199.410565 
L 551.499023 -198.705937 
L 552.037504 -198.00131 
L 552.616892 -197.296682 
L 553.234347 -196.592054 
L 553.886847 -195.887427 
L 554.571068 -195.182799 
L 555.283162 -194.478172 
L 556.018464 -193.773544 
L 556.771182 -193.068916 
L 557.534127 -192.364289 
L 558.298528 -191.659661 
L 559.053989 -190.955033 
L 559.788604 -190.250406 
L 560.489245 -189.545778 
L 561.141994 -188.841151 
L 561.732702 -188.136523 
L 562.247615 -187.431895 
L 562.674013 -186.727268 
L 563.000814 -186.02264 
L 563.219096 -185.318013 
L 563.3225 -184.613385 
L 563.307494 -183.908757 
L 563.173495 -183.20413 
L 562.922848 -182.499502 
L 562.560684 -181.794874 
L 562.094661 -181.090247 
L 561.534626 -180.385619 
L 560.892211 -179.680992 
L 560.18038 -178.976364 
L 559.412957 -178.271736 
L 558.604156 -177.567109 
L 557.76812 -176.862481 
L 556.918507 -176.157853 
L 556.06813 -175.453226 
L 555.228671 -174.748598 
L 554.410477 -174.043971 
L 553.622447 -173.339343 
L 552.872001 -172.634715 
L 552.165123 -171.930088 
L 551.506453 -171.22546 
L 550.89942 -170.520833 
L 550.346368 -169.816205 
L 549.848674 -169.111577 
L 549.40683 -168.40695 
L 549.020471 -167.702322 
L 548.688379 -166.997694 
L 548.408434 -166.293067 
L 548.177571 -165.588439 
L 547.991745 -164.883812 
L 547.845935 -164.179184 
L 547.734225 -163.474556 
L 547.649952 -162.769929 
L 547.585962 -162.065301 
L 547.534925 -161.360674 
L 547.48972 -160.656046 
L 547.443836 -159.951418 
L 547.391754 -159.246791 
L 547.329275 -158.542163 
L 547.253739 -157.837535 
L 547.164117 -157.132908 
L 547.060974 -156.42828 
L 546.94627 -155.723653 
L 546.823064 -155.019025 
L 546.695118 -154.314397 
L 546.566458 -153.60977 
L 546.440951 -152.905142 
L 546.321924 -152.200515 
L 546.211869 -151.495887 
L 546.112272 -150.791259 
L 546.023558 -150.086632 
L 545.94516 -149.382004 
L 545.875691 -148.677376 
L 545.813182 -147.972749 
L 545.75537 -147.268121 
L 545.699978 -146.563494 
L 545.644967 -145.858866 
L 545.588738 -145.154238 
z
" id="m51619b3019" style="stroke:#000000;stroke-opacity:0.3;"/>
    </defs>
    <g clip-path="url(#pd4f7a8ad16)">
     <use style="fill:#bfbf00;fill-opacity:0.3;stroke:#000000;stroke-opacity:0.3;" x="0.0" xlink:href="#m51619b3019" y="465.868"/>
    </g>
   </g>
   <g id="PolyCollection_8">
    <defs>
     <path d="M 622.249323 -106.824209 
L 615.995677 -106.824209 
L 615.830817 -107.852781 
L 615.689587 -108.881352 
L 615.570758 -109.909923 
L 615.471061 -110.938495 
L 615.385331 -111.967066 
L 615.306801 -112.995638 
L 615.227548 -114.024209 
L 615.139024 -115.052781 
L 615.032642 -116.081352 
L 614.900349 -117.109923 
L 614.735129 -118.138495 
L 614.531401 -119.167066 
L 614.285263 -120.195638 
L 613.994578 -121.224209 
L 613.658885 -122.252781 
L 613.279176 -123.281352 
L 612.857552 -124.309923 
L 612.396828 -125.338495 
L 611.900115 -126.367066 
L 611.370468 -127.395638 
L 610.810611 -128.424209 
L 610.222808 -129.452781 
L 609.608892 -130.481352 
L 608.970437 -131.509923 
L 608.309092 -132.538495 
L 607.626993 -133.567066 
L 606.927252 -134.595638 
L 606.214412 -135.624209 
L 605.494836 -136.652781 
L 604.776958 -137.681352 
L 604.07134 -138.709923 
L 603.390516 -139.738495 
L 602.748595 -140.767066 
L 602.160664 -141.795638 
L 601.642007 -142.824209 
L 601.207215 -143.852781 
L 600.86926 -144.881352 
L 600.638613 -145.909923 
L 600.5225 -146.938495 
L 600.524353 -147.967066 
L 600.643523 -148.995638 
L 600.875277 -150.024209 
L 601.211081 -151.052781 
L 601.639151 -152.081352 
L 602.145204 -153.109923 
L 602.713354 -154.138495 
L 603.327071 -155.167066 
L 603.970108 -156.195638 
L 604.627332 -157.224209 
L 605.285393 -158.252781 
L 605.933178 -159.281352 
L 606.562044 -160.309923 
L 607.165824 -161.338495 
L 607.740631 -162.367066 
L 608.284501 -163.395638 
L 608.796939 -164.424209 
L 609.278418 -165.452781 
L 609.729902 -166.481352 
L 610.152446 -167.509923 
L 610.546914 -168.538495 
L 610.913843 -169.567066 
L 611.253455 -170.595638 
L 611.565804 -171.624209 
L 611.851033 -172.652781 
L 612.109668 -173.681352 
L 612.342933 -174.709923 
L 612.552987 -175.738495 
L 612.743076 -176.767066 
L 612.917535 -177.795638 
L 613.081648 -178.824209 
L 613.241368 -179.852781 
L 613.402915 -180.881352 
L 613.57232 -181.909923 
L 613.754938 -182.938495 
L 613.955016 -183.967066 
L 614.175346 -184.995638 
L 614.417042 -186.024209 
L 614.679473 -187.052781 
L 614.960341 -188.081352 
L 615.255892 -189.109923 
L 615.561242 -190.138495 
L 615.870763 -191.167066 
L 616.178504 -192.195638 
L 616.478598 -193.224209 
L 616.765627 -194.252781 
L 617.034924 -195.281352 
L 617.282791 -196.309923 
L 617.506629 -197.338495 
L 617.704985 -198.367066 
L 617.877523 -199.395638 
L 618.024932 -200.424209 
L 618.148779 -201.452781 
L 618.25133 -202.481352 
L 618.335351 -203.509923 
L 618.403896 -204.538495 
L 618.460107 -205.567066 
L 618.507031 -206.595638 
L 618.54746 -207.624209 
L 618.583809 -208.652781 
L 619.661191 -208.652781 
L 619.661191 -208.652781 
L 619.69754 -207.624209 
L 619.737969 -206.595638 
L 619.784893 -205.567066 
L 619.841104 -204.538495 
L 619.909649 -203.509923 
L 619.99367 -202.481352 
L 620.096221 -201.452781 
L 620.220068 -200.424209 
L 620.367477 -199.395638 
L 620.540015 -198.367066 
L 620.738371 -197.338495 
L 620.962209 -196.309923 
L 621.210076 -195.281352 
L 621.479373 -194.252781 
L 621.766402 -193.224209 
L 622.066496 -192.195638 
L 622.374237 -191.167066 
L 622.683758 -190.138495 
L 622.989108 -189.109923 
L 623.284659 -188.081352 
L 623.565527 -187.052781 
L 623.827958 -186.024209 
L 624.069654 -184.995638 
L 624.289984 -183.967066 
L 624.490062 -182.938495 
L 624.67268 -181.909923 
L 624.842085 -180.881352 
L 625.003632 -179.852781 
L 625.163352 -178.824209 
L 625.327465 -177.795638 
L 625.501924 -176.767066 
L 625.692013 -175.738495 
L 625.902067 -174.709923 
L 626.135332 -173.681352 
L 626.393967 -172.652781 
L 626.679196 -171.624209 
L 626.991545 -170.595638 
L 627.331157 -169.567066 
L 627.698086 -168.538495 
L 628.092554 -167.509923 
L 628.515098 -166.481352 
L 628.966582 -165.452781 
L 629.448061 -164.424209 
L 629.960499 -163.395638 
L 630.504369 -162.367066 
L 631.079176 -161.338495 
L 631.682956 -160.309923 
L 632.311822 -159.281352 
L 632.959607 -158.252781 
L 633.617668 -157.224209 
L 634.274892 -156.195638 
L 634.917929 -155.167066 
L 635.531646 -154.138495 
L 636.099796 -153.109923 
L 636.605849 -152.081352 
L 637.033919 -151.052781 
L 637.369723 -150.024209 
L 637.601477 -148.995638 
L 637.720647 -147.967066 
L 637.7225 -146.938495 
L 637.606387 -145.909923 
L 637.37574 -144.881352 
L 637.037785 -143.852781 
L 636.602993 -142.824209 
L 636.084336 -141.795638 
L 635.496405 -140.767066 
L 634.854484 -139.738495 
L 634.17366 -138.709923 
L 633.468042 -137.681352 
L 632.750164 -136.652781 
L 632.030588 -135.624209 
L 631.317748 -134.595638 
L 630.618007 -133.567066 
L 629.935908 -132.538495 
L 629.274563 -131.509923 
L 628.636108 -130.481352 
L 628.022192 -129.452781 
L 627.434389 -128.424209 
L 626.874532 -127.395638 
L 626.344885 -126.367066 
L 625.848172 -125.338495 
L 625.387448 -124.309923 
L 624.965824 -123.281352 
L 624.586115 -122.252781 
L 624.250422 -121.224209 
L 623.959737 -120.195638 
L 623.713599 -119.167066 
L 623.509871 -118.138495 
L 623.344651 -117.109923 
L 623.212358 -116.081352 
L 623.105976 -115.052781 
L 623.017452 -114.024209 
L 622.938199 -112.995638 
L 622.859669 -111.967066 
L 622.773939 -110.938495 
L 622.674242 -109.909923 
L 622.555413 -108.881352 
L 622.414183 -107.852781 
L 622.249323 -106.824209 
z
" id="m75cfbd7523" style="stroke:#000000;stroke-opacity:0.3;"/>
    </defs>
    <g clip-path="url(#pd4f7a8ad16)">
     <use style="fill:#bfbf00;fill-opacity:0.3;stroke:#000000;stroke-opacity:0.3;" x="0.0" xlink:href="#m75cfbd7523" y="465.868"/>
    </g>
   </g>
   <g id="LineCollection_1">
    <path clip-path="url(#pd4f7a8ad16)" d="M 89.0225 138.576852 
L 107.6225 138.576852 
" style="fill:none;stroke:#ff0000;"/>
    <path clip-path="url(#pd4f7a8ad16)" d="M 163.4225 180.072362 
L 182.0225 180.072362 
" style="fill:none;stroke:#ff0000;"/>
    <path clip-path="url(#pd4f7a8ad16)" d="M 237.8225 219.960833 
L 256.4225 219.960833 
" style="fill:none;stroke:#ff0000;"/>
    <path clip-path="url(#pd4f7a8ad16)" d="M 312.2225 249.377332 
L 330.8225 249.377332 
" style="fill:none;stroke:#ff0000;"/>
    <path clip-path="url(#pd4f7a8ad16)" d="M 386.6225 252.934732 
L 405.2225 252.934732 
" style="fill:none;stroke:#ff0000;"/>
    <path clip-path="url(#pd4f7a8ad16)" d="M 461.0225 263.835196 
L 479.6225 263.835196 
" style="fill:none;stroke:#ff0000;"/>
    <path clip-path="url(#pd4f7a8ad16)" d="M 535.4225 281.352046 
L 554.0225 281.352046 
" style="fill:none;stroke:#ff0000;"/>
    <path clip-path="url(#pd4f7a8ad16)" d="M 609.8225 317.461222 
L 628.4225 317.461222 
" style="fill:none;stroke:#ff0000;"/>
   </g>
   <g id="patch_3">
    <path d="M 23.9225 23.14175 
L 693.5225 23.14175 
" style="fill:none;stroke:#000000;stroke-linecap:square;stroke-linejoin:miter;"/>
   </g>
   <g id="patch_4">
    <path d="M 693.5225 368.74175 
L 693.5225 23.14175 
" style="fill:none;stroke:#000000;stroke-linecap:square;stroke-linejoin:miter;"/>
   </g>
   <g id="patch_5">
    <path d="M 23.9225 368.74175 
L 693.5225 368.74175 
" style="fill:none;stroke:#000000;stroke-linecap:square;stroke-linejoin:miter;"/>
   </g>
   <g id="patch_6">
    <path d="M 23.9225 368.74175 
L 23.9225 23.14175 
" style="fill:none;stroke:#000000;stroke-linecap:square;stroke-linejoin:miter;"/>
   </g>
   <g id="matplotlib.axis_1">
    <g id="xtick_1">
     <g id="line2d_1">
      <defs>
       <path d="M 0 0 
L 0 -4 
" id="md4ae65062e" style="stroke:#000000;stroke-width:0.5;"/>
      </defs>
      <g>
       <use style="stroke:#000000;stroke-width:0.5;" x="98.3225" xlink:href="#md4ae65062e" y="368.74175"/>
      </g>
     </g>
     <g id="line2d_2">
      <defs>
       <path d="M 0 0 
L 0 4 
" id="m7f99229fc1" style="stroke:#000000;stroke-width:0.5;"/>
      </defs>
      <g>
       <use style="stroke:#000000;stroke-width:0.5;" x="98.3225" xlink:href="#m7f99229fc1" y="23.14175"/>
      </g>
     </g>
     <g id="text_1">
      <!-- Defector -->
      <defs>
       <path d="M 30.609375 48.390625 
Q 23.390625 48.390625 19.1875 42.75 
Q 14.984375 37.109375 14.984375 27.296875 
Q 14.984375 17.484375 19.15625 11.84375 
Q 23.34375 6.203125 30.609375 6.203125 
Q 37.796875 6.203125 41.984375 11.859375 
Q 46.1875 17.53125 46.1875 27.296875 
Q 46.1875 37.015625 41.984375 42.703125 
Q 37.796875 48.390625 30.609375 48.390625 
M 30.609375 56 
Q 42.328125 56 49.015625 48.375 
Q 55.71875 40.765625 55.71875 27.296875 
Q 55.71875 13.875 49.015625 6.21875 
Q 42.328125 -1.421875 30.609375 -1.421875 
Q 18.84375 -1.421875 12.171875 6.21875 
Q 5.515625 13.875 5.515625 27.296875 
Q 5.515625 40.765625 12.171875 48.375 
Q 18.84375 56 30.609375 56 
" id="BitstreamVeraSans-Roman-6f"/>
       <path d="M 19.671875 64.796875 
L 19.671875 8.109375 
L 31.59375 8.109375 
Q 46.6875 8.109375 53.6875 14.9375 
Q 60.6875 21.78125 60.6875 36.53125 
Q 60.6875 51.171875 53.6875 57.984375 
Q 46.6875 64.796875 31.59375 64.796875 
z
M 9.8125 72.90625 
L 30.078125 72.90625 
Q 51.265625 72.90625 61.171875 64.09375 
Q 71.09375 55.28125 71.09375 36.53125 
Q 71.09375 17.671875 61.125 8.828125 
Q 51.171875 0 30.078125 0 
L 9.8125 0 
z
" id="BitstreamVeraSans-Roman-44"/>
       <path d="M 56.203125 29.59375 
L 56.203125 25.203125 
L 14.890625 25.203125 
Q 15.484375 15.921875 20.484375 11.0625 
Q 25.484375 6.203125 34.421875 6.203125 
Q 39.59375 6.203125 44.453125 7.46875 
Q 49.3125 8.734375 54.109375 11.28125 
L 54.109375 2.78125 
Q 49.265625 0.734375 44.1875 -0.34375 
Q 39.109375 -1.421875 33.890625 -1.421875 
Q 20.796875 -1.421875 13.15625 6.1875 
Q 5.515625 13.8125 5.515625 26.8125 
Q 5.515625 40.234375 12.765625 48.109375 
Q 20.015625 56 32.328125 56 
Q 43.359375 56 49.78125 48.890625 
Q 56.203125 41.796875 56.203125 29.59375 
M 47.21875 32.234375 
Q 47.125 39.59375 43.09375 43.984375 
Q 39.0625 48.390625 32.421875 48.390625 
Q 24.90625 48.390625 20.390625 44.140625 
Q 15.875 39.890625 15.1875 32.171875 
z
" id="BitstreamVeraSans-Roman-65"/>
       <path d="M 18.3125 70.21875 
L 18.3125 54.6875 
L 36.8125 54.6875 
L 36.8125 47.703125 
L 18.3125 47.703125 
L 18.3125 18.015625 
Q 18.3125 11.328125 20.140625 9.421875 
Q 21.96875 7.515625 27.59375 7.515625 
L 36.8125 7.515625 
L 36.8125 0 
L 27.59375 0 
Q 17.1875 0 13.234375 3.875 
Q 9.28125 7.765625 9.28125 18.015625 
L 9.28125 47.703125 
L 2.6875 47.703125 
L 2.6875 54.6875 
L 9.28125 54.6875 
L 9.28125 70.21875 
z
" id="BitstreamVeraSans-Roman-74"/>
       <path d="M 37.109375 75.984375 
L 37.109375 68.5 
L 28.515625 68.5 
Q 23.6875 68.5 21.796875 66.546875 
Q 19.921875 64.59375 19.921875 59.515625 
L 19.921875 54.6875 
L 34.71875 54.6875 
L 34.71875 47.703125 
L 19.921875 47.703125 
L 19.921875 0 
L 10.890625 0 
L 10.890625 47.703125 
L 2.296875 47.703125 
L 2.296875 54.6875 
L 10.890625 54.6875 
L 10.890625 58.5 
Q 10.890625 67.625 15.140625 71.796875 
Q 19.390625 75.984375 28.609375 75.984375 
z
" id="BitstreamVeraSans-Roman-66"/>
       <path d="M 41.109375 46.296875 
Q 39.59375 47.171875 37.8125 47.578125 
Q 36.03125 48 33.890625 48 
Q 26.265625 48 22.1875 43.046875 
Q 18.109375 38.09375 18.109375 28.8125 
L 18.109375 0 
L 9.078125 0 
L 9.078125 54.6875 
L 18.109375 54.6875 
L 18.109375 46.1875 
Q 20.953125 51.171875 25.484375 53.578125 
Q 30.03125 56 36.53125 56 
Q 37.453125 56 38.578125 55.875 
Q 39.703125 55.765625 41.0625 55.515625 
z
" id="BitstreamVeraSans-Roman-72"/>
       <path d="M 48.78125 52.59375 
L 48.78125 44.1875 
Q 44.96875 46.296875 41.140625 47.34375 
Q 37.3125 48.390625 33.40625 48.390625 
Q 24.65625 48.390625 19.8125 42.84375 
Q 14.984375 37.3125 14.984375 27.296875 
Q 14.984375 17.28125 19.8125 11.734375 
Q 24.65625 6.203125 33.40625 6.203125 
Q 37.3125 6.203125 41.140625 7.25 
Q 44.96875 8.296875 48.78125 10.40625 
L 48.78125 2.09375 
Q 45.015625 0.34375 40.984375 -0.53125 
Q 36.96875 -1.421875 32.421875 -1.421875 
Q 20.0625 -1.421875 12.78125 6.34375 
Q 5.515625 14.109375 5.515625 27.296875 
Q 5.515625 40.671875 12.859375 48.328125 
Q 20.21875 56 33.015625 56 
Q 37.15625 56 41.109375 55.140625 
Q 45.0625 54.296875 48.78125 52.59375 
" id="BitstreamVeraSans-Roman-63"/>
      </defs>
      <g transform="translate(100.53 407.28175)rotate(-90.0)scale(0.08 -0.08)">
       <use xlink:href="#BitstreamVeraSans-Roman-44"/>
       <use x="77.001953125" xlink:href="#BitstreamVeraSans-Roman-65"/>
       <use x="138.525390625" xlink:href="#BitstreamVeraSans-Roman-66"/>
       <use x="173.73046875" xlink:href="#BitstreamVeraSans-Roman-65"/>
       <use x="235.25390625" xlink:href="#BitstreamVeraSans-Roman-63"/>
       <use x="290.234375" xlink:href="#BitstreamVeraSans-Roman-74"/>
       <use x="329.443359375" xlink:href="#BitstreamVeraSans-Roman-6f"/>
       <use x="390.625" xlink:href="#BitstreamVeraSans-Roman-72"/>
      </g>
     </g>
    </g>
    <g id="xtick_2">
     <g id="line2d_3">
      <g>
       <use style="stroke:#000000;stroke-width:0.5;" x="172.7225" xlink:href="#md4ae65062e" y="368.74175"/>
      </g>
     </g>
     <g id="line2d_4">
      <g>
       <use style="stroke:#000000;stroke-width:0.5;" x="172.7225" xlink:href="#m7f99229fc1" y="23.14175"/>
      </g>
     </g>
     <g id="text_2">
      <!-- Bully -->
      <defs>
       <path d="M 8.5 21.578125 
L 8.5 54.6875 
L 17.484375 54.6875 
L 17.484375 21.921875 
Q 17.484375 14.15625 20.5 10.265625 
Q 23.53125 6.390625 29.59375 6.390625 
Q 36.859375 6.390625 41.078125 11.03125 
Q 45.3125 15.671875 45.3125 23.6875 
L 45.3125 54.6875 
L 54.296875 54.6875 
L 54.296875 0 
L 45.3125 0 
L 45.3125 8.40625 
Q 42.046875 3.421875 37.71875 1 
Q 33.40625 -1.421875 27.6875 -1.421875 
Q 18.265625 -1.421875 13.375 4.4375 
Q 8.5 10.296875 8.5 21.578125 
" id="BitstreamVeraSans-Roman-75"/>
       <path d="M 19.671875 34.8125 
L 19.671875 8.109375 
L 35.5 8.109375 
Q 43.453125 8.109375 47.28125 11.40625 
Q 51.125 14.703125 51.125 21.484375 
Q 51.125 28.328125 47.28125 31.5625 
Q 43.453125 34.8125 35.5 34.8125 
z
M 19.671875 64.796875 
L 19.671875 42.828125 
L 34.28125 42.828125 
Q 41.5 42.828125 45.03125 45.53125 
Q 48.578125 48.25 48.578125 53.8125 
Q 48.578125 59.328125 45.03125 62.0625 
Q 41.5 64.796875 34.28125 64.796875 
z
M 9.8125 72.90625 
L 35.015625 72.90625 
Q 46.296875 72.90625 52.390625 68.21875 
Q 58.5 63.53125 58.5 54.890625 
Q 58.5 48.1875 55.375 44.234375 
Q 52.25 40.28125 46.1875 39.3125 
Q 53.46875 37.75 57.5 32.78125 
Q 61.53125 27.828125 61.53125 20.40625 
Q 61.53125 10.640625 54.890625 5.3125 
Q 48.25 0 35.984375 0 
L 9.8125 0 
z
" id="BitstreamVeraSans-Roman-42"/>
       <path d="M 9.421875 75.984375 
L 18.40625 75.984375 
L 18.40625 0 
L 9.421875 0 
z
" id="BitstreamVeraSans-Roman-6c"/>
       <path d="M 32.171875 -5.078125 
Q 28.375 -14.84375 24.75 -17.8125 
Q 21.140625 -20.796875 15.09375 -20.796875 
L 7.90625 -20.796875 
L 7.90625 -13.28125 
L 13.1875 -13.28125 
Q 16.890625 -13.28125 18.9375 -11.515625 
Q 21 -9.765625 23.484375 -3.21875 
L 25.09375 0.875 
L 2.984375 54.6875 
L 12.5 54.6875 
L 29.59375 11.921875 
L 46.6875 54.6875 
L 56.203125 54.6875 
z
" id="BitstreamVeraSans-Roman-79"/>
      </defs>
      <g transform="translate(174.93 392.4805)rotate(-90.0)scale(0.08 -0.08)">
       <use xlink:href="#BitstreamVeraSans-Roman-42"/>
       <use x="68.603515625" xlink:href="#BitstreamVeraSans-Roman-75"/>
       <use x="131.982421875" xlink:href="#BitstreamVeraSans-Roman-6c"/>
       <use x="159.765625" xlink:href="#BitstreamVeraSans-Roman-6c"/>
       <use x="187.548828125" xlink:href="#BitstreamVeraSans-Roman-79"/>
      </g>
     </g>
    </g>
    <g id="xtick_3">
     <g id="line2d_5">
      <g>
       <use style="stroke:#000000;stroke-width:0.5;" x="247.1225" xlink:href="#md4ae65062e" y="368.74175"/>
      </g>
     </g>
     <g id="line2d_6">
      <g>
       <use style="stroke:#000000;stroke-width:0.5;" x="247.1225" xlink:href="#m7f99229fc1" y="23.14175"/>
      </g>
     </g>
     <g id="text_3">
      <!-- Suspicious Tit For Tat -->
      <defs>
       <path id="BitstreamVeraSans-Roman-20"/>
       <path d="M 9.8125 72.90625 
L 51.703125 72.90625 
L 51.703125 64.59375 
L 19.671875 64.59375 
L 19.671875 43.109375 
L 48.578125 43.109375 
L 48.578125 34.8125 
L 19.671875 34.8125 
L 19.671875 0 
L 9.8125 0 
z
" id="BitstreamVeraSans-Roman-46"/>
       <path d="M 53.515625 70.515625 
L 53.515625 60.890625 
Q 47.90625 63.578125 42.921875 64.890625 
Q 37.9375 66.21875 33.296875 66.21875 
Q 25.25 66.21875 20.875 63.09375 
Q 16.5 59.96875 16.5 54.203125 
Q 16.5 49.359375 19.40625 46.890625 
Q 22.3125 44.4375 30.421875 42.921875 
L 36.375 41.703125 
Q 47.40625 39.59375 52.65625 34.296875 
Q 57.90625 29 57.90625 20.125 
Q 57.90625 9.515625 50.796875 4.046875 
Q 43.703125 -1.421875 29.984375 -1.421875 
Q 24.8125 -1.421875 18.96875 -0.25 
Q 13.140625 0.921875 6.890625 3.21875 
L 6.890625 13.375 
Q 12.890625 10.015625 18.65625 8.296875 
Q 24.421875 6.59375 29.984375 6.59375 
Q 38.421875 6.59375 43.015625 9.90625 
Q 47.609375 13.234375 47.609375 19.390625 
Q 47.609375 24.75 44.3125 27.78125 
Q 41.015625 30.8125 33.5 32.328125 
L 27.484375 33.5 
Q 16.453125 35.6875 11.515625 40.375 
Q 6.59375 45.0625 6.59375 53.421875 
Q 6.59375 63.09375 13.40625 68.65625 
Q 20.21875 74.21875 32.171875 74.21875 
Q 37.3125 74.21875 42.625 73.28125 
Q 47.953125 72.359375 53.515625 70.515625 
" id="BitstreamVeraSans-Roman-53"/>
       <path d="M -0.296875 72.90625 
L 61.375 72.90625 
L 61.375 64.59375 
L 35.5 64.59375 
L 35.5 0 
L 25.59375 0 
L 25.59375 64.59375 
L -0.296875 64.59375 
z
" id="BitstreamVeraSans-Roman-54"/>
       <path d="M 9.421875 54.6875 
L 18.40625 54.6875 
L 18.40625 0 
L 9.421875 0 
z
M 9.421875 75.984375 
L 18.40625 75.984375 
L 18.40625 64.59375 
L 9.421875 64.59375 
z
" id="BitstreamVeraSans-Roman-69"/>
       <path d="M 34.28125 27.484375 
Q 23.390625 27.484375 19.1875 25 
Q 14.984375 22.515625 14.984375 16.5 
Q 14.984375 11.71875 18.140625 8.90625 
Q 21.296875 6.109375 26.703125 6.109375 
Q 34.1875 6.109375 38.703125 11.40625 
Q 43.21875 16.703125 43.21875 25.484375 
L 43.21875 27.484375 
z
M 52.203125 31.203125 
L 52.203125 0 
L 43.21875 0 
L 43.21875 8.296875 
Q 40.140625 3.328125 35.546875 0.953125 
Q 30.953125 -1.421875 24.3125 -1.421875 
Q 15.921875 -1.421875 10.953125 3.296875 
Q 6 8.015625 6 15.921875 
Q 6 25.140625 12.171875 29.828125 
Q 18.359375 34.515625 30.609375 34.515625 
L 43.21875 34.515625 
L 43.21875 35.40625 
Q 43.21875 41.609375 39.140625 45 
Q 35.0625 48.390625 27.6875 48.390625 
Q 23 48.390625 18.546875 47.265625 
Q 14.109375 46.140625 10.015625 43.890625 
L 10.015625 52.203125 
Q 14.9375 54.109375 19.578125 55.046875 
Q 24.21875 56 28.609375 56 
Q 40.484375 56 46.34375 49.84375 
Q 52.203125 43.703125 52.203125 31.203125 
" id="BitstreamVeraSans-Roman-61"/>
       <path d="M 44.28125 53.078125 
L 44.28125 44.578125 
Q 40.484375 46.53125 36.375 47.5 
Q 32.28125 48.484375 27.875 48.484375 
Q 21.1875 48.484375 17.84375 46.4375 
Q 14.5 44.390625 14.5 40.28125 
Q 14.5 37.15625 16.890625 35.375 
Q 19.28125 33.59375 26.515625 31.984375 
L 29.59375 31.296875 
Q 39.15625 29.25 43.1875 25.515625 
Q 47.21875 21.78125 47.21875 15.09375 
Q 47.21875 7.46875 41.1875 3.015625 
Q 35.15625 -1.421875 24.609375 -1.421875 
Q 20.21875 -1.421875 15.453125 -0.5625 
Q 10.6875 0.296875 5.421875 2 
L 5.421875 11.28125 
Q 10.40625 8.6875 15.234375 7.390625 
Q 20.0625 6.109375 24.8125 6.109375 
Q 31.15625 6.109375 34.5625 8.28125 
Q 37.984375 10.453125 37.984375 14.40625 
Q 37.984375 18.0625 35.515625 20.015625 
Q 33.0625 21.96875 24.703125 23.78125 
L 21.578125 24.515625 
Q 13.234375 26.265625 9.515625 29.90625 
Q 5.8125 33.546875 5.8125 39.890625 
Q 5.8125 47.609375 11.28125 51.796875 
Q 16.75 56 26.8125 56 
Q 31.78125 56 36.171875 55.265625 
Q 40.578125 54.546875 44.28125 53.078125 
" id="BitstreamVeraSans-Roman-73"/>
       <path d="M 18.109375 8.203125 
L 18.109375 -20.796875 
L 9.078125 -20.796875 
L 9.078125 54.6875 
L 18.109375 54.6875 
L 18.109375 46.390625 
Q 20.953125 51.265625 25.265625 53.625 
Q 29.59375 56 35.59375 56 
Q 45.5625 56 51.78125 48.09375 
Q 58.015625 40.1875 58.015625 27.296875 
Q 58.015625 14.40625 51.78125 6.484375 
Q 45.5625 -1.421875 35.59375 -1.421875 
Q 29.59375 -1.421875 25.265625 0.953125 
Q 20.953125 3.328125 18.109375 8.203125 
M 48.6875 27.296875 
Q 48.6875 37.203125 44.609375 42.84375 
Q 40.53125 48.484375 33.40625 48.484375 
Q 26.265625 48.484375 22.1875 42.84375 
Q 18.109375 37.203125 18.109375 27.296875 
Q 18.109375 17.390625 22.1875 11.75 
Q 26.265625 6.109375 33.40625 6.109375 
Q 40.53125 6.109375 44.609375 11.75 
Q 48.6875 17.390625 48.6875 27.296875 
" id="BitstreamVeraSans-Roman-70"/>
      </defs>
      <g transform="translate(249.33 458.668)rotate(-90.0)scale(0.08 -0.08)">
       <use xlink:href="#BitstreamVeraSans-Roman-53"/>
       <use x="63.4765625" xlink:href="#BitstreamVeraSans-Roman-75"/>
       <use x="126.85546875" xlink:href="#BitstreamVeraSans-Roman-73"/>
       <use x="178.955078125" xlink:href="#BitstreamVeraSans-Roman-70"/>
       <use x="242.431640625" xlink:href="#BitstreamVeraSans-Roman-69"/>
       <use x="270.21484375" xlink:href="#BitstreamVeraSans-Roman-63"/>
       <use x="325.1953125" xlink:href="#BitstreamVeraSans-Roman-69"/>
       <use x="352.978515625" xlink:href="#BitstreamVeraSans-Roman-6f"/>
       <use x="414.16015625" xlink:href="#BitstreamVeraSans-Roman-75"/>
       <use x="477.5390625" xlink:href="#BitstreamVeraSans-Roman-73"/>
       <use x="529.638671875" xlink:href="#BitstreamVeraSans-Roman-20"/>
       <use x="561.42578125" xlink:href="#BitstreamVeraSans-Roman-54"/>
       <use x="622.462890625" xlink:href="#BitstreamVeraSans-Roman-69"/>
       <use x="650.24609375" xlink:href="#BitstreamVeraSans-Roman-74"/>
       <use x="689.455078125" xlink:href="#BitstreamVeraSans-Roman-20"/>
       <use x="721.2421875" xlink:href="#BitstreamVeraSans-Roman-46"/>
       <use x="778.71484375" xlink:href="#BitstreamVeraSans-Roman-6f"/>
       <use x="839.896484375" xlink:href="#BitstreamVeraSans-Roman-72"/>
       <use x="881.009765625" xlink:href="#BitstreamVeraSans-Roman-20"/>
       <use x="912.796875" xlink:href="#BitstreamVeraSans-Roman-54"/>
       <use x="973.630859375" xlink:href="#BitstreamVeraSans-Roman-61"/>
       <use x="1034.91015625" xlink:href="#BitstreamVeraSans-Roman-74"/>
      </g>
     </g>
    </g>
    <g id="xtick_4">
     <g id="line2d_7">
      <g>
       <use style="stroke:#000000;stroke-width:0.5;" x="321.5225" xlink:href="#md4ae65062e" y="368.74175"/>
      </g>
     </g>
     <g id="line2d_8">
      <g>
       <use style="stroke:#000000;stroke-width:0.5;" x="321.5225" xlink:href="#m7f99229fc1" y="23.14175"/>
      </g>
     </g>
     <g id="text_4">
      <!-- Alternator -->
      <defs>
       <path d="M 54.890625 33.015625 
L 54.890625 0 
L 45.90625 0 
L 45.90625 32.71875 
Q 45.90625 40.484375 42.875 44.328125 
Q 39.84375 48.1875 33.796875 48.1875 
Q 26.515625 48.1875 22.3125 43.546875 
Q 18.109375 38.921875 18.109375 30.90625 
L 18.109375 0 
L 9.078125 0 
L 9.078125 54.6875 
L 18.109375 54.6875 
L 18.109375 46.1875 
Q 21.34375 51.125 25.703125 53.5625 
Q 30.078125 56 35.796875 56 
Q 45.21875 56 50.046875 50.171875 
Q 54.890625 44.34375 54.890625 33.015625 
" id="BitstreamVeraSans-Roman-6e"/>
       <path d="M 34.1875 63.1875 
L 20.796875 26.90625 
L 47.609375 26.90625 
z
M 28.609375 72.90625 
L 39.796875 72.90625 
L 67.578125 0 
L 57.328125 0 
L 50.6875 18.703125 
L 17.828125 18.703125 
L 11.1875 0 
L 0.78125 0 
z
" id="BitstreamVeraSans-Roman-41"/>
      </defs>
      <g transform="translate(323.73 413.0755)rotate(-90.0)scale(0.08 -0.08)">
       <use xlink:href="#BitstreamVeraSans-Roman-41"/>
       <use x="68.408203125" xlink:href="#BitstreamVeraSans-Roman-6c"/>
       <use x="96.19140625" xlink:href="#BitstreamVeraSans-Roman-74"/>
       <use x="135.400390625" xlink:href="#BitstreamVeraSans-Roman-65"/>
       <use x="196.923828125" xlink:href="#BitstreamVeraSans-Roman-72"/>
       <use x="238.021484375" xlink:href="#BitstreamVeraSans-Roman-6e"/>
       <use x="301.400390625" xlink:href="#BitstreamVeraSans-Roman-61"/>
       <use x="362.6796875" xlink:href="#BitstreamVeraSans-Roman-74"/>
       <use x="401.888671875" xlink:href="#BitstreamVeraSans-Roman-6f"/>
       <use x="463.0703125" xlink:href="#BitstreamVeraSans-Roman-72"/>
      </g>
     </g>
    </g>
    <g id="xtick_5">
     <g id="line2d_9">
      <g>
       <use style="stroke:#000000;stroke-width:0.5;" x="395.9225" xlink:href="#md4ae65062e" y="368.74175"/>
      </g>
     </g>
     <g id="line2d_10">
      <g>
       <use style="stroke:#000000;stroke-width:0.5;" x="395.9225" xlink:href="#m7f99229fc1" y="23.14175"/>
      </g>
     </g>
     <g id="text_5">
      <!-- Tit For Tat -->
      <g transform="translate(398.13 413.75425)rotate(-90.0)scale(0.08 -0.08)">
       <use xlink:href="#BitstreamVeraSans-Roman-54"/>
       <use x="61.037109375" xlink:href="#BitstreamVeraSans-Roman-69"/>
       <use x="88.8203125" xlink:href="#BitstreamVeraSans-Roman-74"/>
       <use x="128.029296875" xlink:href="#BitstreamVeraSans-Roman-20"/>
       <use x="159.81640625" xlink:href="#BitstreamVeraSans-Roman-46"/>
       <use x="217.2890625" xlink:href="#BitstreamVeraSans-Roman-6f"/>
       <use x="278.470703125" xlink:href="#BitstreamVeraSans-Roman-72"/>
       <use x="319.583984375" xlink:href="#BitstreamVeraSans-Roman-20"/>
       <use x="351.37109375" xlink:href="#BitstreamVeraSans-Roman-54"/>
       <use x="412.205078125" xlink:href="#BitstreamVeraSans-Roman-61"/>
       <use x="473.484375" xlink:href="#BitstreamVeraSans-Roman-74"/>
      </g>
     </g>
    </g>
    <g id="xtick_6">
     <g id="line2d_11">
      <g>
       <use style="stroke:#000000;stroke-width:0.5;" x="470.3225" xlink:href="#md4ae65062e" y="368.74175"/>
      </g>
     </g>
     <g id="line2d_12">
      <g>
       <use style="stroke:#000000;stroke-width:0.5;" x="470.3225" xlink:href="#m7f99229fc1" y="23.14175"/>
      </g>
     </g>
     <g id="text_6">
      <!-- Anti Tit For Tat -->
      <g transform="translate(472.53 432.198)rotate(-90.0)scale(0.08 -0.08)">
       <use xlink:href="#BitstreamVeraSans-Roman-41"/>
       <use x="68.408203125" xlink:href="#BitstreamVeraSans-Roman-6e"/>
       <use x="131.787109375" xlink:href="#BitstreamVeraSans-Roman-74"/>
       <use x="170.99609375" xlink:href="#BitstreamVeraSans-Roman-69"/>
       <use x="198.779296875" xlink:href="#BitstreamVeraSans-Roman-20"/>
       <use x="230.56640625" xlink:href="#BitstreamVeraSans-Roman-54"/>
       <use x="291.603515625" xlink:href="#BitstreamVeraSans-Roman-69"/>
       <use x="319.38671875" xlink:href="#BitstreamVeraSans-Roman-74"/>
       <use x="358.595703125" xlink:href="#BitstreamVeraSans-Roman-20"/>
       <use x="390.3828125" xlink:href="#BitstreamVeraSans-Roman-46"/>
       <use x="447.85546875" xlink:href="#BitstreamVeraSans-Roman-6f"/>
       <use x="509.037109375" xlink:href="#BitstreamVeraSans-Roman-72"/>
       <use x="550.150390625" xlink:href="#BitstreamVeraSans-Roman-20"/>
       <use x="581.9375" xlink:href="#BitstreamVeraSans-Roman-54"/>
       <use x="642.771484375" xlink:href="#BitstreamVeraSans-Roman-61"/>
       <use x="704.05078125" xlink:href="#BitstreamVeraSans-Roman-74"/>
      </g>
     </g>
    </g>
    <g id="xtick_7">
     <g id="line2d_13">
      <g>
       <use style="stroke:#000000;stroke-width:0.5;" x="544.7225" xlink:href="#md4ae65062e" y="368.74175"/>
      </g>
     </g>
     <g id="line2d_14">
      <g>
       <use style="stroke:#000000;stroke-width:0.5;" x="544.7225" xlink:href="#m7f99229fc1" y="23.14175"/>
      </g>
     </g>
     <g id="text_7">
      <!-- Win-Stay Lose-Shift -->
      <defs>
       <path d="M 54.890625 33.015625 
L 54.890625 0 
L 45.90625 0 
L 45.90625 32.71875 
Q 45.90625 40.484375 42.875 44.328125 
Q 39.84375 48.1875 33.796875 48.1875 
Q 26.515625 48.1875 22.3125 43.546875 
Q 18.109375 38.921875 18.109375 30.90625 
L 18.109375 0 
L 9.078125 0 
L 9.078125 75.984375 
L 18.109375 75.984375 
L 18.109375 46.1875 
Q 21.34375 51.125 25.703125 53.5625 
Q 30.078125 56 35.796875 56 
Q 45.21875 56 50.046875 50.171875 
Q 54.890625 44.34375 54.890625 33.015625 
" id="BitstreamVeraSans-Roman-68"/>
       <path d="M 9.8125 72.90625 
L 19.671875 72.90625 
L 19.671875 8.296875 
L 55.171875 8.296875 
L 55.171875 0 
L 9.8125 0 
z
" id="BitstreamVeraSans-Roman-4c"/>
       <path d="M 4.890625 31.390625 
L 31.203125 31.390625 
L 31.203125 23.390625 
L 4.890625 23.390625 
z
" id="BitstreamVeraSans-Roman-2d"/>
       <path d="M 3.328125 72.90625 
L 13.28125 72.90625 
L 28.609375 11.28125 
L 43.890625 72.90625 
L 54.984375 72.90625 
L 70.3125 11.28125 
L 85.59375 72.90625 
L 95.609375 72.90625 
L 77.296875 0 
L 64.890625 0 
L 49.515625 63.28125 
L 33.984375 0 
L 21.578125 0 
z
" id="BitstreamVeraSans-Roman-57"/>
      </defs>
      <g transform="translate(546.93 450.873)rotate(-90.0)scale(0.08 -0.08)">
       <use xlink:href="#BitstreamVeraSans-Roman-57"/>
       <use x="98.845703125" xlink:href="#BitstreamVeraSans-Roman-69"/>
       <use x="126.62890625" xlink:href="#BitstreamVeraSans-Roman-6e"/>
       <use x="190.0078125" xlink:href="#BitstreamVeraSans-Roman-2d"/>
       <use x="226.091796875" xlink:href="#BitstreamVeraSans-Roman-53"/>
       <use x="289.568359375" xlink:href="#BitstreamVeraSans-Roman-74"/>
       <use x="328.77734375" xlink:href="#BitstreamVeraSans-Roman-61"/>
       <use x="390.056640625" xlink:href="#BitstreamVeraSans-Roman-79"/>
       <use x="449.236328125" xlink:href="#BitstreamVeraSans-Roman-20"/>
       <use x="481.0234375" xlink:href="#BitstreamVeraSans-Roman-4c"/>
       <use x="536.720703125" xlink:href="#BitstreamVeraSans-Roman-6f"/>
       <use x="597.90234375" xlink:href="#BitstreamVeraSans-Roman-73"/>
       <use x="650.001953125" xlink:href="#BitstreamVeraSans-Roman-65"/>
       <use x="711.525390625" xlink:href="#BitstreamVeraSans-Roman-2d"/>
       <use x="747.609375" xlink:href="#BitstreamVeraSans-Roman-53"/>
       <use x="811.0859375" xlink:href="#BitstreamVeraSans-Roman-68"/>
       <use x="874.46484375" xlink:href="#BitstreamVeraSans-Roman-69"/>
       <use x="902.248046875" xlink:href="#BitstreamVeraSans-Roman-66"/>
       <use x="937.4375" xlink:href="#BitstreamVeraSans-Roman-74"/>
      </g>
     </g>
    </g>
    <g id="xtick_8">
     <g id="line2d_15">
      <g>
       <use style="stroke:#000000;stroke-width:0.5;" x="619.1225" xlink:href="#md4ae65062e" y="368.74175"/>
      </g>
     </g>
     <g id="line2d_16">
      <g>
       <use style="stroke:#000000;stroke-width:0.5;" x="619.1225" xlink:href="#m7f99229fc1" y="23.14175"/>
      </g>
     </g>
     <g id="text_8">
      <!-- Cooperator -->
      <defs>
       <path d="M 64.40625 67.28125 
L 64.40625 56.890625 
Q 59.421875 61.53125 53.78125 63.8125 
Q 48.140625 66.109375 41.796875 66.109375 
Q 29.296875 66.109375 22.65625 58.46875 
Q 16.015625 50.828125 16.015625 36.375 
Q 16.015625 21.96875 22.65625 14.328125 
Q 29.296875 6.6875 41.796875 6.6875 
Q 48.140625 6.6875 53.78125 8.984375 
Q 59.421875 11.28125 64.40625 15.921875 
L 64.40625 5.609375 
Q 59.234375 2.09375 53.4375 0.328125 
Q 47.65625 -1.421875 41.21875 -1.421875 
Q 24.65625 -1.421875 15.125 8.703125 
Q 5.609375 18.84375 5.609375 36.375 
Q 5.609375 53.953125 15.125 64.078125 
Q 24.65625 74.21875 41.21875 74.21875 
Q 47.75 74.21875 53.53125 72.484375 
Q 59.328125 70.75 64.40625 67.28125 
" id="BitstreamVeraSans-Roman-43"/>
      </defs>
      <g transform="translate(621.33 417.6305)rotate(-90.0)scale(0.08 -0.08)">
       <use xlink:href="#BitstreamVeraSans-Roman-43"/>
       <use x="69.82421875" xlink:href="#BitstreamVeraSans-Roman-6f"/>
       <use x="131.005859375" xlink:href="#BitstreamVeraSans-Roman-6f"/>
       <use x="192.1875" xlink:href="#BitstreamVeraSans-Roman-70"/>
       <use x="255.6640625" xlink:href="#BitstreamVeraSans-Roman-65"/>
       <use x="317.1875" xlink:href="#BitstreamVeraSans-Roman-72"/>
       <use x="358.30078125" xlink:href="#BitstreamVeraSans-Roman-61"/>
       <use x="419.580078125" xlink:href="#BitstreamVeraSans-Roman-74"/>
       <use x="458.7890625" xlink:href="#BitstreamVeraSans-Roman-6f"/>
       <use x="519.970703125" xlink:href="#BitstreamVeraSans-Roman-72"/>
      </g>
     </g>
    </g>
   </g>
   <g id="matplotlib.axis_2">
    <g id="ytick_1">
     <g id="line2d_17">
      <defs>
       <path d="M 0 0 
L 4 0 
" id="mc4fea23f5e" style="stroke:#000000;stroke-width:0.5;"/>
      </defs>
      <g>
       <use style="stroke:#000000;stroke-width:0.5;" x="23.9225" xlink:href="#mc4fea23f5e" y="368.74175"/>
      </g>
     </g>
     <g id="line2d_18">
      <defs>
       <path d="M 0 0 
L -4 0 
" id="mdb6f5d6132" style="stroke:#000000;stroke-width:0.5;"/>
      </defs>
      <g>
       <use style="stroke:#000000;stroke-width:0.5;" x="693.5225" xlink:href="#mdb6f5d6132" y="368.74175"/>
      </g>
     </g>
     <g id="text_9">
      <!-- 1.0 -->
      <defs>
       <path d="M 31.78125 66.40625 
Q 24.171875 66.40625 20.328125 58.90625 
Q 16.5 51.421875 16.5 36.375 
Q 16.5 21.390625 20.328125 13.890625 
Q 24.171875 6.390625 31.78125 6.390625 
Q 39.453125 6.390625 43.28125 13.890625 
Q 47.125 21.390625 47.125 36.375 
Q 47.125 51.421875 43.28125 58.90625 
Q 39.453125 66.40625 31.78125 66.40625 
M 31.78125 74.21875 
Q 44.046875 74.21875 50.515625 64.515625 
Q 56.984375 54.828125 56.984375 36.375 
Q 56.984375 17.96875 50.515625 8.265625 
Q 44.046875 -1.421875 31.78125 -1.421875 
Q 19.53125 -1.421875 13.0625 8.265625 
Q 6.59375 17.96875 6.59375 36.375 
Q 6.59375 54.828125 13.0625 64.515625 
Q 19.53125 74.21875 31.78125 74.21875 
" id="BitstreamVeraSans-Roman-30"/>
       <path d="M 12.40625 8.296875 
L 28.515625 8.296875 
L 28.515625 63.921875 
L 10.984375 60.40625 
L 10.984375 69.390625 
L 28.421875 72.90625 
L 38.28125 72.90625 
L 38.28125 8.296875 
L 54.390625 8.296875 
L 54.390625 0 
L 12.40625 0 
z
" id="BitstreamVeraSans-Roman-31"/>
       <path d="M 10.6875 12.40625 
L 21 12.40625 
L 21 0 
L 10.6875 0 
z
" id="BitstreamVeraSans-Roman-2e"/>
      </defs>
      <g transform="translate(7.2 370.94925)scale(0.08 -0.08)">
       <use xlink:href="#BitstreamVeraSans-Roman-31"/>
       <use x="63.623046875" xlink:href="#BitstreamVeraSans-Roman-2e"/>
       <use x="95.41015625" xlink:href="#BitstreamVeraSans-Roman-30"/>
      </g>
     </g>
    </g>
    <g id="ytick_2">
     <g id="line2d_19">
      <g>
       <use style="stroke:#000000;stroke-width:0.5;" x="23.9225" xlink:href="#mc4fea23f5e" y="319.370321429"/>
      </g>
     </g>
     <g id="line2d_20">
      <g>
       <use style="stroke:#000000;stroke-width:0.5;" x="693.5225" xlink:href="#mdb6f5d6132" y="319.370321429"/>
      </g>
     </g>
     <g id="text_10">
      <!-- 1.5 -->
      <defs>
       <path d="M 10.796875 72.90625 
L 49.515625 72.90625 
L 49.515625 64.59375 
L 19.828125 64.59375 
L 19.828125 46.734375 
Q 21.96875 47.46875 24.109375 47.828125 
Q 26.265625 48.1875 28.421875 48.1875 
Q 40.625 48.1875 47.75 41.5 
Q 54.890625 34.8125 54.890625 23.390625 
Q 54.890625 11.625 47.5625 5.09375 
Q 40.234375 -1.421875 26.90625 -1.421875 
Q 22.3125 -1.421875 17.546875 -0.640625 
Q 12.796875 0.140625 7.71875 1.703125 
L 7.71875 11.625 
Q 12.109375 9.234375 16.796875 8.0625 
Q 21.484375 6.890625 26.703125 6.890625 
Q 35.15625 6.890625 40.078125 11.328125 
Q 45.015625 15.765625 45.015625 23.390625 
Q 45.015625 31 40.078125 35.4375 
Q 35.15625 39.890625 26.703125 39.890625 
Q 22.75 39.890625 18.8125 39.015625 
Q 14.890625 38.140625 10.796875 36.28125 
z
" id="BitstreamVeraSans-Roman-35"/>
      </defs>
      <g transform="translate(7.2 321.577821429)scale(0.08 -0.08)">
       <use xlink:href="#BitstreamVeraSans-Roman-31"/>
       <use x="63.623046875" xlink:href="#BitstreamVeraSans-Roman-2e"/>
       <use x="95.41015625" xlink:href="#BitstreamVeraSans-Roman-35"/>
      </g>
     </g>
    </g>
    <g id="ytick_3">
     <g id="line2d_21">
      <g>
       <use style="stroke:#000000;stroke-width:0.5;" x="23.9225" xlink:href="#mc4fea23f5e" y="269.998892857"/>
      </g>
     </g>
     <g id="line2d_22">
      <g>
       <use style="stroke:#000000;stroke-width:0.5;" x="693.5225" xlink:href="#mdb6f5d6132" y="269.998892857"/>
      </g>
     </g>
     <g id="text_11">
      <!-- 2.0 -->
      <defs>
       <path d="M 19.1875 8.296875 
L 53.609375 8.296875 
L 53.609375 0 
L 7.328125 0 
L 7.328125 8.296875 
Q 12.9375 14.109375 22.625 23.890625 
Q 32.328125 33.6875 34.8125 36.53125 
Q 39.546875 41.84375 41.421875 45.53125 
Q 43.3125 49.21875 43.3125 52.78125 
Q 43.3125 58.59375 39.234375 62.25 
Q 35.15625 65.921875 28.609375 65.921875 
Q 23.96875 65.921875 18.8125 64.3125 
Q 13.671875 62.703125 7.8125 59.421875 
L 7.8125 69.390625 
Q 13.765625 71.78125 18.9375 73 
Q 24.125 74.21875 28.421875 74.21875 
Q 39.75 74.21875 46.484375 68.546875 
Q 53.21875 62.890625 53.21875 53.421875 
Q 53.21875 48.921875 51.53125 44.890625 
Q 49.859375 40.875 45.40625 35.40625 
Q 44.1875 33.984375 37.640625 27.21875 
Q 31.109375 20.453125 19.1875 8.296875 
" id="BitstreamVeraSans-Roman-32"/>
      </defs>
      <g transform="translate(7.2 272.206392857)scale(0.08 -0.08)">
       <use xlink:href="#BitstreamVeraSans-Roman-32"/>
       <use x="63.623046875" xlink:href="#BitstreamVeraSans-Roman-2e"/>
       <use x="95.41015625" xlink:href="#BitstreamVeraSans-Roman-30"/>
      </g>
     </g>
    </g>
    <g id="ytick_4">
     <g id="line2d_23">
      <g>
       <use style="stroke:#000000;stroke-width:0.5;" x="23.9225" xlink:href="#mc4fea23f5e" y="220.627464286"/>
      </g>
     </g>
     <g id="line2d_24">
      <g>
       <use style="stroke:#000000;stroke-width:0.5;" x="693.5225" xlink:href="#mdb6f5d6132" y="220.627464286"/>
      </g>
     </g>
     <g id="text_12">
      <!-- 2.5 -->
      <g transform="translate(7.2 222.834964286)scale(0.08 -0.08)">
       <use xlink:href="#BitstreamVeraSans-Roman-32"/>
       <use x="63.623046875" xlink:href="#BitstreamVeraSans-Roman-2e"/>
       <use x="95.41015625" xlink:href="#BitstreamVeraSans-Roman-35"/>
      </g>
     </g>
    </g>
    <g id="ytick_5">
     <g id="line2d_25">
      <g>
       <use style="stroke:#000000;stroke-width:0.5;" x="23.9225" xlink:href="#mc4fea23f5e" y="171.256035714"/>
      </g>
     </g>
     <g id="line2d_26">
      <g>
       <use style="stroke:#000000;stroke-width:0.5;" x="693.5225" xlink:href="#mdb6f5d6132" y="171.256035714"/>
      </g>
     </g>
     <g id="text_13">
      <!-- 3.0 -->
      <defs>
       <path d="M 40.578125 39.3125 
Q 47.65625 37.796875 51.625 33 
Q 55.609375 28.21875 55.609375 21.1875 
Q 55.609375 10.40625 48.1875 4.484375 
Q 40.765625 -1.421875 27.09375 -1.421875 
Q 22.515625 -1.421875 17.65625 -0.515625 
Q 12.796875 0.390625 7.625 2.203125 
L 7.625 11.71875 
Q 11.71875 9.328125 16.59375 8.109375 
Q 21.484375 6.890625 26.8125 6.890625 
Q 36.078125 6.890625 40.9375 10.546875 
Q 45.796875 14.203125 45.796875 21.1875 
Q 45.796875 27.640625 41.28125 31.265625 
Q 36.765625 34.90625 28.71875 34.90625 
L 20.21875 34.90625 
L 20.21875 43.015625 
L 29.109375 43.015625 
Q 36.375 43.015625 40.234375 45.921875 
Q 44.09375 48.828125 44.09375 54.296875 
Q 44.09375 59.90625 40.109375 62.90625 
Q 36.140625 65.921875 28.71875 65.921875 
Q 24.65625 65.921875 20.015625 65.03125 
Q 15.375 64.15625 9.8125 62.3125 
L 9.8125 71.09375 
Q 15.4375 72.65625 20.34375 73.4375 
Q 25.25 74.21875 29.59375 74.21875 
Q 40.828125 74.21875 47.359375 69.109375 
Q 53.90625 64.015625 53.90625 55.328125 
Q 53.90625 49.265625 50.4375 45.09375 
Q 46.96875 40.921875 40.578125 39.3125 
" id="BitstreamVeraSans-Roman-33"/>
      </defs>
      <g transform="translate(7.2 173.463535714)scale(0.08 -0.08)">
       <use xlink:href="#BitstreamVeraSans-Roman-33"/>
       <use x="63.623046875" xlink:href="#BitstreamVeraSans-Roman-2e"/>
       <use x="95.41015625" xlink:href="#BitstreamVeraSans-Roman-30"/>
      </g>
     </g>
    </g>
    <g id="ytick_6">
     <g id="line2d_27">
      <g>
       <use style="stroke:#000000;stroke-width:0.5;" x="23.9225" xlink:href="#mc4fea23f5e" y="121.884607143"/>
      </g>
     </g>
     <g id="line2d_28">
      <g>
       <use style="stroke:#000000;stroke-width:0.5;" x="693.5225" xlink:href="#mdb6f5d6132" y="121.884607143"/>
      </g>
     </g>
     <g id="text_14">
      <!-- 3.5 -->
      <g transform="translate(7.2 124.092107143)scale(0.08 -0.08)">
       <use xlink:href="#BitstreamVeraSans-Roman-33"/>
       <use x="63.623046875" xlink:href="#BitstreamVeraSans-Roman-2e"/>
       <use x="95.41015625" xlink:href="#BitstreamVeraSans-Roman-35"/>
      </g>
     </g>
    </g>
    <g id="ytick_7">
     <g id="line2d_29">
      <g>
       <use style="stroke:#000000;stroke-width:0.5;" x="23.9225" xlink:href="#mc4fea23f5e" y="72.5131785714"/>
      </g>
     </g>
     <g id="line2d_30">
      <g>
       <use style="stroke:#000000;stroke-width:0.5;" x="693.5225" xlink:href="#mdb6f5d6132" y="72.5131785714"/>
      </g>
     </g>
     <g id="text_15">
      <!-- 4.0 -->
      <defs>
       <path d="M 37.796875 64.3125 
L 12.890625 25.390625 
L 37.796875 25.390625 
z
M 35.203125 72.90625 
L 47.609375 72.90625 
L 47.609375 25.390625 
L 58.015625 25.390625 
L 58.015625 17.1875 
L 47.609375 17.1875 
L 47.609375 0 
L 37.796875 0 
L 37.796875 17.1875 
L 4.890625 17.1875 
L 4.890625 26.703125 
z
" id="BitstreamVeraSans-Roman-34"/>
      </defs>
      <g transform="translate(7.2 74.7206785714)scale(0.08 -0.08)">
       <use xlink:href="#BitstreamVeraSans-Roman-34"/>
       <use x="63.623046875" xlink:href="#BitstreamVeraSans-Roman-2e"/>
       <use x="95.41015625" xlink:href="#BitstreamVeraSans-Roman-30"/>
      </g>
     </g>
    </g>
    <g id="ytick_8">
     <g id="line2d_31">
      <g>
       <use style="stroke:#000000;stroke-width:0.5;" x="23.9225" xlink:href="#mc4fea23f5e" y="23.14175"/>
      </g>
     </g>
     <g id="line2d_32">
      <g>
       <use style="stroke:#000000;stroke-width:0.5;" x="693.5225" xlink:href="#mdb6f5d6132" y="23.14175"/>
      </g>
     </g>
     <g id="text_16">
      <!-- 4.5 -->
      <g transform="translate(7.2 25.34925)scale(0.08 -0.08)">
       <use xlink:href="#BitstreamVeraSans-Roman-34"/>
       <use x="63.623046875" xlink:href="#BitstreamVeraSans-Roman-2e"/>
       <use x="95.41015625" xlink:href="#BitstreamVeraSans-Roman-35"/>
      </g>
     </g>
    </g>
   </g>
   <g id="text_17">
    <!-- Payoffs. Prob end: 0.1, Repetitions: 100, Strategies: 8. -->
    <defs>
     <path d="M 31.78125 34.625 
Q 24.75 34.625 20.71875 30.859375 
Q 16.703125 27.09375 16.703125 20.515625 
Q 16.703125 13.921875 20.71875 10.15625 
Q 24.75 6.390625 31.78125 6.390625 
Q 38.8125 6.390625 42.859375 10.171875 
Q 46.921875 13.96875 46.921875 20.515625 
Q 46.921875 27.09375 42.890625 30.859375 
Q 38.875 34.625 31.78125 34.625 
M 21.921875 38.8125 
Q 15.578125 40.375 12.03125 44.71875 
Q 8.5 49.078125 8.5 55.328125 
Q 8.5 64.0625 14.71875 69.140625 
Q 20.953125 74.21875 31.78125 74.21875 
Q 42.671875 74.21875 48.875 69.140625 
Q 55.078125 64.0625 55.078125 55.328125 
Q 55.078125 49.078125 51.53125 44.71875 
Q 48 40.375 41.703125 38.8125 
Q 48.828125 37.15625 52.796875 32.3125 
Q 56.78125 27.484375 56.78125 20.515625 
Q 56.78125 9.90625 50.3125 4.234375 
Q 43.84375 -1.421875 31.78125 -1.421875 
Q 19.734375 -1.421875 13.25 4.234375 
Q 6.78125 9.90625 6.78125 20.515625 
Q 6.78125 27.484375 10.78125 32.3125 
Q 14.796875 37.15625 21.921875 38.8125 
M 18.3125 54.390625 
Q 18.3125 48.734375 21.84375 45.5625 
Q 25.390625 42.390625 31.78125 42.390625 
Q 38.140625 42.390625 41.71875 45.5625 
Q 45.3125 48.734375 45.3125 54.390625 
Q 45.3125 60.0625 41.71875 63.234375 
Q 38.140625 66.40625 31.78125 66.40625 
Q 25.390625 66.40625 21.84375 63.234375 
Q 18.3125 60.0625 18.3125 54.390625 
" id="BitstreamVeraSans-Roman-38"/>
     <path d="M 44.390625 34.1875 
Q 47.5625 33.109375 50.5625 29.59375 
Q 53.5625 26.078125 56.59375 19.921875 
L 66.609375 0 
L 56 0 
L 46.6875 18.703125 
Q 43.0625 26.03125 39.671875 28.421875 
Q 36.28125 30.8125 30.421875 30.8125 
L 19.671875 30.8125 
L 19.671875 0 
L 9.8125 0 
L 9.8125 72.90625 
L 32.078125 72.90625 
Q 44.578125 72.90625 50.734375 67.671875 
Q 56.890625 62.453125 56.890625 51.90625 
Q 56.890625 45.015625 53.6875 40.46875 
Q 50.484375 35.9375 44.390625 34.1875 
M 19.671875 64.796875 
L 19.671875 38.921875 
L 32.078125 38.921875 
Q 39.203125 38.921875 42.84375 42.21875 
Q 46.484375 45.515625 46.484375 51.90625 
Q 46.484375 58.296875 42.84375 61.546875 
Q 39.203125 64.796875 32.078125 64.796875 
z
" id="BitstreamVeraSans-Roman-52"/>
     <path d="M 19.671875 64.796875 
L 19.671875 37.40625 
L 32.078125 37.40625 
Q 38.96875 37.40625 42.71875 40.96875 
Q 46.484375 44.53125 46.484375 51.125 
Q 46.484375 57.671875 42.71875 61.234375 
Q 38.96875 64.796875 32.078125 64.796875 
z
M 9.8125 72.90625 
L 32.078125 72.90625 
Q 44.34375 72.90625 50.609375 67.359375 
Q 56.890625 61.8125 56.890625 51.125 
Q 56.890625 40.328125 50.609375 34.8125 
Q 44.34375 29.296875 32.078125 29.296875 
L 19.671875 29.296875 
L 19.671875 0 
L 9.8125 0 
z
" id="BitstreamVeraSans-Roman-50"/>
     <path d="M 11.71875 12.40625 
L 22.015625 12.40625 
L 22.015625 4 
L 14.015625 -11.625 
L 7.71875 -11.625 
L 11.71875 4 
z
" id="BitstreamVeraSans-Roman-2c"/>
     <path d="M 11.71875 12.40625 
L 22.015625 12.40625 
L 22.015625 0 
L 11.71875 0 
z
M 11.71875 51.703125 
L 22.015625 51.703125 
L 22.015625 39.3125 
L 11.71875 39.3125 
z
" id="BitstreamVeraSans-Roman-3a"/>
     <path d="M 45.40625 46.390625 
L 45.40625 75.984375 
L 54.390625 75.984375 
L 54.390625 0 
L 45.40625 0 
L 45.40625 8.203125 
Q 42.578125 3.328125 38.25 0.953125 
Q 33.9375 -1.421875 27.875 -1.421875 
Q 17.96875 -1.421875 11.734375 6.484375 
Q 5.515625 14.40625 5.515625 27.296875 
Q 5.515625 40.1875 11.734375 48.09375 
Q 17.96875 56 27.875 56 
Q 33.9375 56 38.25 53.625 
Q 42.578125 51.265625 45.40625 46.390625 
M 14.796875 27.296875 
Q 14.796875 17.390625 18.875 11.75 
Q 22.953125 6.109375 30.078125 6.109375 
Q 37.203125 6.109375 41.296875 11.75 
Q 45.40625 17.390625 45.40625 27.296875 
Q 45.40625 37.203125 41.296875 42.84375 
Q 37.203125 48.484375 30.078125 48.484375 
Q 22.953125 48.484375 18.875 42.84375 
Q 14.796875 37.203125 14.796875 27.296875 
" id="BitstreamVeraSans-Roman-64"/>
     <path d="M 45.40625 27.984375 
Q 45.40625 37.75 41.375 43.109375 
Q 37.359375 48.484375 30.078125 48.484375 
Q 22.859375 48.484375 18.828125 43.109375 
Q 14.796875 37.75 14.796875 27.984375 
Q 14.796875 18.265625 18.828125 12.890625 
Q 22.859375 7.515625 30.078125 7.515625 
Q 37.359375 7.515625 41.375 12.890625 
Q 45.40625 18.265625 45.40625 27.984375 
M 54.390625 6.78125 
Q 54.390625 -7.171875 48.1875 -13.984375 
Q 42 -20.796875 29.203125 -20.796875 
Q 24.46875 -20.796875 20.265625 -20.09375 
Q 16.0625 -19.390625 12.109375 -17.921875 
L 12.109375 -9.1875 
Q 16.0625 -11.328125 19.921875 -12.34375 
Q 23.78125 -13.375 27.78125 -13.375 
Q 36.625 -13.375 41.015625 -8.765625 
Q 45.40625 -4.15625 45.40625 5.171875 
L 45.40625 9.625 
Q 42.625 4.78125 38.28125 2.390625 
Q 33.9375 0 27.875 0 
Q 17.828125 0 11.671875 7.65625 
Q 5.515625 15.328125 5.515625 27.984375 
Q 5.515625 40.671875 11.671875 48.328125 
Q 17.828125 56 27.875 56 
Q 33.9375 56 38.28125 53.609375 
Q 42.625 51.21875 45.40625 46.390625 
L 45.40625 54.6875 
L 54.390625 54.6875 
z
" id="BitstreamVeraSans-Roman-67"/>
     <path d="M 48.6875 27.296875 
Q 48.6875 37.203125 44.609375 42.84375 
Q 40.53125 48.484375 33.40625 48.484375 
Q 26.265625 48.484375 22.1875 42.84375 
Q 18.109375 37.203125 18.109375 27.296875 
Q 18.109375 17.390625 22.1875 11.75 
Q 26.265625 6.109375 33.40625 6.109375 
Q 40.53125 6.109375 44.609375 11.75 
Q 48.6875 17.390625 48.6875 27.296875 
M 18.109375 46.390625 
Q 20.953125 51.265625 25.265625 53.625 
Q 29.59375 56 35.59375 56 
Q 45.5625 56 51.78125 48.09375 
Q 58.015625 40.1875 58.015625 27.296875 
Q 58.015625 14.40625 51.78125 6.484375 
Q 45.5625 -1.421875 35.59375 -1.421875 
Q 29.59375 -1.421875 25.265625 0.953125 
Q 20.953125 3.328125 18.109375 8.203125 
L 18.109375 0 
L 9.078125 0 
L 9.078125 75.984375 
L 18.109375 75.984375 
z
" id="BitstreamVeraSans-Roman-62"/>
    </defs>
    <g transform="translate(162.861125 18.14175)scale(0.144 -0.144)">
     <use xlink:href="#BitstreamVeraSans-Roman-50"/>
     <use x="60.240234375" xlink:href="#BitstreamVeraSans-Roman-61"/>
     <use x="121.51953125" xlink:href="#BitstreamVeraSans-Roman-79"/>
     <use x="180.69921875" xlink:href="#BitstreamVeraSans-Roman-6f"/>
     <use x="241.880859375" xlink:href="#BitstreamVeraSans-Roman-66"/>
     <use x="277.0859375" xlink:href="#BitstreamVeraSans-Roman-66"/>
     <use x="312.291015625" xlink:href="#BitstreamVeraSans-Roman-73"/>
     <use x="364.390625" xlink:href="#BitstreamVeraSans-Roman-2e"/>
     <use x="396.177734375" xlink:href="#BitstreamVeraSans-Roman-20"/>
     <use x="427.96484375" xlink:href="#BitstreamVeraSans-Roman-50"/>
     <use x="488.251953125" xlink:href="#BitstreamVeraSans-Roman-72"/>
     <use x="529.333984375" xlink:href="#BitstreamVeraSans-Roman-6f"/>
     <use x="590.515625" xlink:href="#BitstreamVeraSans-Roman-62"/>
     <use x="653.9921875" xlink:href="#BitstreamVeraSans-Roman-20"/>
     <use x="685.779296875" xlink:href="#BitstreamVeraSans-Roman-65"/>
     <use x="747.302734375" xlink:href="#BitstreamVeraSans-Roman-6e"/>
     <use x="810.681640625" xlink:href="#BitstreamVeraSans-Roman-64"/>
     <use x="874.158203125" xlink:href="#BitstreamVeraSans-Roman-3a"/>
     <use x="907.849609375" xlink:href="#BitstreamVeraSans-Roman-20"/>
     <use x="939.63671875" xlink:href="#BitstreamVeraSans-Roman-30"/>
     <use x="1003.25976562" xlink:href="#BitstreamVeraSans-Roman-2e"/>
     <use x="1035.046875" xlink:href="#BitstreamVeraSans-Roman-31"/>
     <use x="1098.66992188" xlink:href="#BitstreamVeraSans-Roman-2c"/>
     <use x="1130.45703125" xlink:href="#BitstreamVeraSans-Roman-20"/>
     <use x="1162.24414062" xlink:href="#BitstreamVeraSans-Roman-52"/>
     <use x="1231.6640625" xlink:href="#BitstreamVeraSans-Roman-65"/>
     <use x="1293.1875" xlink:href="#BitstreamVeraSans-Roman-70"/>
     <use x="1356.6640625" xlink:href="#BitstreamVeraSans-Roman-65"/>
     <use x="1418.1875" xlink:href="#BitstreamVeraSans-Roman-74"/>
     <use x="1457.39648438" xlink:href="#BitstreamVeraSans-Roman-69"/>
     <use x="1485.1796875" xlink:href="#BitstreamVeraSans-Roman-74"/>
     <use x="1524.38867188" xlink:href="#BitstreamVeraSans-Roman-69"/>
     <use x="1552.171875" xlink:href="#BitstreamVeraSans-Roman-6f"/>
     <use x="1613.35351562" xlink:href="#BitstreamVeraSans-Roman-6e"/>
     <use x="1676.73242188" xlink:href="#BitstreamVeraSans-Roman-73"/>
     <use x="1728.83203125" xlink:href="#BitstreamVeraSans-Roman-3a"/>
     <use x="1762.5234375" xlink:href="#BitstreamVeraSans-Roman-20"/>
     <use x="1794.31054688" xlink:href="#BitstreamVeraSans-Roman-31"/>
     <use x="1857.93359375" xlink:href="#BitstreamVeraSans-Roman-30"/>
     <use x="1921.55664062" xlink:href="#BitstreamVeraSans-Roman-30"/>
     <use x="1985.1796875" xlink:href="#BitstreamVeraSans-Roman-2c"/>
     <use x="2016.96679688" xlink:href="#BitstreamVeraSans-Roman-20"/>
     <use x="2048.75390625" xlink:href="#BitstreamVeraSans-Roman-53"/>
     <use x="2112.23046875" xlink:href="#BitstreamVeraSans-Roman-74"/>
     <use x="2151.43945312" xlink:href="#BitstreamVeraSans-Roman-72"/>
     <use x="2192.55273438" xlink:href="#BitstreamVeraSans-Roman-61"/>
     <use x="2253.83203125" xlink:href="#BitstreamVeraSans-Roman-74"/>
     <use x="2293.04101562" xlink:href="#BitstreamVeraSans-Roman-65"/>
     <use x="2354.56445312" xlink:href="#BitstreamVeraSans-Roman-67"/>
     <use x="2418.04101562" xlink:href="#BitstreamVeraSans-Roman-69"/>
     <use x="2445.82421875" xlink:href="#BitstreamVeraSans-Roman-65"/>
     <use x="2507.34765625" xlink:href="#BitstreamVeraSans-Roman-73"/>
     <use x="2559.44726562" xlink:href="#BitstreamVeraSans-Roman-3a"/>
     <use x="2593.13867188" xlink:href="#BitstreamVeraSans-Roman-20"/>
     <use x="2624.92578125" xlink:href="#BitstreamVeraSans-Roman-38"/>
     <use x="2688.54882812" xlink:href="#BitstreamVeraSans-Roman-2e"/>
    </g>
   </g>
  </g>
 </g>
 <defs>
  <clipPath id="pd4f7a8ad16">
   <rect height="345.6" width="669.6" x="23.9225" y="23.14175"/>
  </clipPath>
 </defs>
</svg>
