<?xml version="1.0" encoding="utf-8" standalone="no"?>
<!DOCTYPE svg PUBLIC "-//W3C//DTD SVG 1.1//EN"
  "http://www.w3.org/Graphics/SVG/1.1/DTD/svg11.dtd">
<!-- Created with matplotlib (http://matplotlib.org/) -->
<svg height="465pt" version="1.1" viewBox="0 0 700 465" width="700pt" xmlns="http://www.w3.org/2000/svg" xmlns:xlink="http://www.w3.org/1999/xlink">
 <defs>
  <style type="text/css">
*{stroke-linecap:butt;stroke-linejoin:round;stroke-miterlimit:100000;}
  </style>
 </defs>
 <g id="figure_1">
  <g id="patch_1">
   <path d="M 0 465.868 
L 700.7225 465.868 
L 700.7225 0 
L 0 0 
z
" style="fill:#ffffff;"/>
  </g>
  <g id="axes_1">
   <g id="patch_2">
    <path d="M 23.9225 368.74175 
L 693.5225 368.74175 
L 693.5225 23.14175 
L 23.9225 23.14175 
z
" style="fill:#ffffff;"/>
   </g>
   <g id="PolyCollection_1">
    <defs>
     <path d="M 99.554667 -388.516421 
L 97.090333 -388.516421 
L 96.997243 -388.705928 
L 96.90768 -388.895434 
L 96.821751 -389.084941 
L 96.739011 -389.274447 
L 96.658415 -389.463954 
L 96.578301 -389.65346 
L 96.496419 -389.842967 
L 96.409989 -390.032473 
L 96.315794 -390.22198 
L 96.210314 -390.411486 
L 96.089877 -390.600993 
L 95.950831 -390.790499 
L 95.789721 -390.980006 
L 95.603452 -391.169512 
L 95.389441 -391.359019 
L 95.14573 -391.548525 
L 94.871058 -391.738032 
L 94.564893 -391.927538 
L 94.227409 -392.117045 
L 93.859424 -392.306551 
L 93.462303 -392.496058 
L 93.037839 -392.685564 
L 92.588117 -392.875071 
L 92.115385 -393.064577 
L 91.621941 -393.254084 
L 91.110033 -393.44359 
L 90.581787 -393.633097 
L 90.039171 -393.822603 
L 89.48397 -394.01211 
L 88.917801 -394.201616 
L 88.342135 -394.391123 
L 87.758357 -394.580629 
L 87.167839 -394.770136 
L 86.572035 -394.959642 
L 85.972612 -395.149149 
L 85.371595 -395.338655 
L 84.77153 -395.528162 
L 84.175661 -395.717668 
L 83.588088 -395.907175 
L 83.013901 -396.096681 
L 82.459256 -396.286188 
L 81.931377 -396.475694 
L 81.438458 -396.665201 
L 80.989467 -396.854707 
L 80.593834 -397.044214 
L 80.26105 -397.23372 
L 80.000183 -397.423227 
L 79.81936 -397.612733 
L 79.725235 -397.80224 
L 79.7225 -397.991746 
L 79.813467 -398.181253 
L 79.997765 -398.370759 
L 80.272181 -398.560266 
L 80.630649 -398.749772 
L 81.064421 -398.939279 
L 81.562386 -399.128785 
L 82.111544 -399.318292 
L 82.697591 -399.507798 
L 83.305593 -399.697305 
L 83.920703 -399.886811 
L 84.528869 -400.076318 
L 85.117499 -400.265824 
L 85.676021 -400.455331 
L 86.196326 -400.644837 
L 86.673032 -400.834344 
L 87.103584 -401.02385 
L 87.488168 -401.213356 
L 87.829449 -401.402863 
L 88.132175 -401.592369 
L 88.402659 -401.781876 
L 88.648203 -401.971382 
L 88.876499 -402.160889 
L 89.095057 -402.350395 
L 89.310707 -402.539902 
L 89.529204 -402.729408 
L 89.754955 -402.918915 
L 89.990891 -403.108421 
L 90.23847 -403.297928 
L 90.497797 -403.487434 
L 90.767849 -403.676941 
L 91.04676 -403.866447 
L 91.332147 -404.055954 
L 91.621426 -404.24546 
L 91.912113 -404.434967 
L 92.20205 -404.624473 
L 92.489578 -404.81398 
L 92.77362 -405.003486 
L 93.053684 -405.192993 
L 93.329799 -405.382499 
L 93.602394 -405.572006 
L 93.872136 -405.761512 
L 94.139759 -405.951019 
L 94.405888 -406.140525 
L 94.670898 -406.330032 
L 94.934799 -406.519538 
L 95.197173 -406.709045 
L 95.457155 -406.898551 
L 95.713468 -407.088058 
L 95.964496 -407.277564 
L 100.680504 -407.277564 
L 100.680504 -407.277564 
L 100.931532 -407.088058 
L 101.187845 -406.898551 
L 101.447827 -406.709045 
L 101.710201 -406.519538 
L 101.974102 -406.330032 
L 102.239112 -406.140525 
L 102.505241 -405.951019 
L 102.772864 -405.761512 
L 103.042606 -405.572006 
L 103.315201 -405.382499 
L 103.591316 -405.192993 
L 103.87138 -405.003486 
L 104.155422 -404.81398 
L 104.44295 -404.624473 
L 104.732887 -404.434967 
L 105.023574 -404.24546 
L 105.312853 -404.055954 
L 105.59824 -403.866447 
L 105.877151 -403.676941 
L 106.147203 -403.487434 
L 106.40653 -403.297928 
L 106.654109 -403.108421 
L 106.890045 -402.918915 
L 107.115796 -402.729408 
L 107.334293 -402.539902 
L 107.549943 -402.350395 
L 107.768501 -402.160889 
L 107.996797 -401.971382 
L 108.242341 -401.781876 
L 108.512825 -401.592369 
L 108.815551 -401.402863 
L 109.156832 -401.213356 
L 109.541416 -401.02385 
L 109.971968 -400.834344 
L 110.448674 -400.644837 
L 110.968979 -400.455331 
L 111.527501 -400.265824 
L 112.116131 -400.076318 
L 112.724297 -399.886811 
L 113.339407 -399.697305 
L 113.947409 -399.507798 
L 114.533456 -399.318292 
L 115.082614 -399.128785 
L 115.580579 -398.939279 
L 116.014351 -398.749772 
L 116.372819 -398.560266 
L 116.647235 -398.370759 
L 116.831533 -398.181253 
L 116.9225 -397.991746 
L 116.919765 -397.80224 
L 116.82564 -397.612733 
L 116.644817 -397.423227 
L 116.38395 -397.23372 
L 116.051166 -397.044214 
L 115.655533 -396.854707 
L 115.206542 -396.665201 
L 114.713623 -396.475694 
L 114.185744 -396.286188 
L 113.631099 -396.096681 
L 113.056912 -395.907175 
L 112.469339 -395.717668 
L 111.87347 -395.528162 
L 111.273405 -395.338655 
L 110.672388 -395.149149 
L 110.072965 -394.959642 
L 109.477161 -394.770136 
L 108.886643 -394.580629 
L 108.302865 -394.391123 
L 107.727199 -394.201616 
L 107.16103 -394.01211 
L 106.605829 -393.822603 
L 106.063213 -393.633097 
L 105.534967 -393.44359 
L 105.023059 -393.254084 
L 104.529615 -393.064577 
L 104.056883 -392.875071 
L 103.607161 -392.685564 
L 103.182697 -392.496058 
L 102.785576 -392.306551 
L 102.417591 -392.117045 
L 102.080107 -391.927538 
L 101.773942 -391.738032 
L 101.49927 -391.548525 
L 101.255559 -391.359019 
L 101.041548 -391.169512 
L 100.855279 -390.980006 
L 100.694169 -390.790499 
L 100.555123 -390.600993 
L 100.434686 -390.411486 
L 100.329206 -390.22198 
L 100.235011 -390.032473 
L 100.148581 -389.842967 
L 100.066699 -389.65346 
L 99.986585 -389.463954 
L 99.905989 -389.274447 
L 99.823249 -389.084941 
L 99.73732 -388.895434 
L 99.647757 -388.705928 
L 99.554667 -388.516421 
z
" id="m647467b03e" style="stroke:#000000;stroke-opacity:0.3;"/>
    </defs>
    <g clip-path="url(#p528ae973ee)">
     <use style="fill:#bfbf00;fill-opacity:0.3;stroke:#000000;stroke-opacity:0.3;" x="0.0" xlink:href="#m647467b03e" y="465.868"/>
    </g>
   </g>
   <g id="PolyCollection_2">
    <defs>
     <path d="M 175.784422 -247.11665 
L 169.660578 -247.11665 
L 169.367585 -247.680182 
L 169.061329 -248.243715 
L 168.741344 -248.807247 
L 168.406961 -249.37078 
L 168.057366 -249.934312 
L 167.691684 -250.497845 
L 167.309081 -251.061377 
L 166.90888 -251.62491 
L 166.490687 -252.188442 
L 166.054502 -252.751975 
L 165.600819 -253.315507 
L 165.130693 -253.87904 
L 164.645773 -254.442572 
L 164.148298 -255.006105 
L 163.641052 -255.569637 
L 163.127269 -256.133169 
L 162.610525 -256.696702 
L 162.094589 -257.260234 
L 161.583272 -257.823767 
L 161.080279 -258.387299 
L 160.589068 -258.950832 
L 160.112737 -259.514364 
L 159.653942 -260.077897 
L 159.214848 -260.641429 
L 158.797116 -261.204962 
L 158.401927 -261.768494 
L 158.030017 -262.332027 
L 157.68174 -262.895559 
L 157.357133 -263.459092 
L 157.055968 -264.022624 
L 156.77781 -264.586156 
L 156.522039 -265.149689 
L 156.287869 -265.713221 
L 156.074347 -266.276754 
L 155.88034 -266.840286 
L 155.704523 -267.403819 
L 155.54537 -267.967351 
L 155.401167 -268.530884 
L 155.270039 -269.094416 
L 155.15001 -269.657949 
L 155.039082 -270.221481 
L 154.935348 -270.785014 
L 154.837109 -271.348546 
L 154.743009 -271.912079 
L 154.65215 -272.475611 
L 154.564197 -273.039144 
L 154.479445 -273.602676 
L 154.398848 -274.166208 
L 154.323988 -274.729741 
L 154.25701 -275.293273 
L 154.200492 -275.856806 
L 154.157291 -276.420338 
L 154.130349 -276.983871 
L 154.1225 -277.547403 
L 154.136271 -278.110936 
L 154.173717 -278.674468 
L 154.236285 -279.238001 
L 154.324732 -279.801533 
L 154.4391 -280.365066 
L 154.578743 -280.928598 
L 154.742416 -281.492131 
L 154.928399 -282.055663 
L 155.134662 -282.619195 
L 155.359041 -283.182728 
L 155.599409 -283.74626 
L 155.85384 -284.309793 
L 156.120732 -284.873325 
L 156.398897 -285.436858 
L 156.687593 -286.00039 
L 156.98652 -286.563923 
L 157.295764 -287.127455 
L 157.615702 -287.690988 
L 157.946887 -288.25452 
L 158.289917 -288.818053 
L 158.645307 -289.381585 
L 159.013367 -289.945118 
L 159.394119 -290.50865 
L 159.787234 -291.072182 
L 160.192008 -291.635715 
L 160.607382 -292.199247 
L 161.03199 -292.76278 
L 161.464235 -293.326312 
L 161.902381 -293.889845 
L 162.34466 -294.453377 
L 162.789362 -295.01691 
L 163.234926 -295.580442 
L 163.679995 -296.143975 
L 164.123449 -296.707507 
L 164.564412 -297.27104 
L 165.00222 -297.834572 
L 165.43637 -298.398105 
L 165.86645 -298.961637 
L 166.292057 -299.525169 
L 166.712715 -300.088702 
L 167.127805 -300.652234 
L 167.536506 -301.215767 
L 167.937765 -301.779299 
L 168.330289 -302.342832 
L 168.712569 -302.906364 
L 176.732431 -302.906364 
L 176.732431 -302.906364 
L 177.114711 -302.342832 
L 177.507235 -301.779299 
L 177.908494 -301.215767 
L 178.317195 -300.652234 
L 178.732285 -300.088702 
L 179.152943 -299.525169 
L 179.57855 -298.961637 
L 180.00863 -298.398105 
L 180.44278 -297.834572 
L 180.880588 -297.27104 
L 181.321551 -296.707507 
L 181.765005 -296.143975 
L 182.210074 -295.580442 
L 182.655638 -295.01691 
L 183.10034 -294.453377 
L 183.542619 -293.889845 
L 183.980765 -293.326312 
L 184.41301 -292.76278 
L 184.837618 -292.199247 
L 185.252992 -291.635715 
L 185.657766 -291.072182 
L 186.050881 -290.50865 
L 186.431633 -289.945118 
L 186.799693 -289.381585 
L 187.155083 -288.818053 
L 187.498113 -288.25452 
L 187.829298 -287.690988 
L 188.149236 -287.127455 
L 188.45848 -286.563923 
L 188.757407 -286.00039 
L 189.046103 -285.436858 
L 189.324268 -284.873325 
L 189.59116 -284.309793 
L 189.845591 -283.74626 
L 190.085959 -283.182728 
L 190.310338 -282.619195 
L 190.516601 -282.055663 
L 190.702584 -281.492131 
L 190.866257 -280.928598 
L 191.0059 -280.365066 
L 191.120268 -279.801533 
L 191.208715 -279.238001 
L 191.271283 -278.674468 
L 191.308729 -278.110936 
L 191.3225 -277.547403 
L 191.314651 -276.983871 
L 191.287709 -276.420338 
L 191.244508 -275.856806 
L 191.18799 -275.293273 
L 191.121012 -274.729741 
L 191.046152 -274.166208 
L 190.965555 -273.602676 
L 190.880803 -273.039144 
L 190.79285 -272.475611 
L 190.701991 -271.912079 
L 190.607891 -271.348546 
L 190.509652 -270.785014 
L 190.405918 -270.221481 
L 190.29499 -269.657949 
L 190.174961 -269.094416 
L 190.043833 -268.530884 
L 189.89963 -267.967351 
L 189.740477 -267.403819 
L 189.56466 -266.840286 
L 189.370653 -266.276754 
L 189.157131 -265.713221 
L 188.922961 -265.149689 
L 188.66719 -264.586156 
L 188.389032 -264.022624 
L 188.087867 -263.459092 
L 187.76326 -262.895559 
L 187.414983 -262.332027 
L 187.043073 -261.768494 
L 186.647884 -261.204962 
L 186.230152 -260.641429 
L 185.791058 -260.077897 
L 185.332263 -259.514364 
L 184.855932 -258.950832 
L 184.364721 -258.387299 
L 183.861728 -257.823767 
L 183.350411 -257.260234 
L 182.834475 -256.696702 
L 182.317731 -256.133169 
L 181.803948 -255.569637 
L 181.296702 -255.006105 
L 180.799227 -254.442572 
L 180.314307 -253.87904 
L 179.844181 -253.315507 
L 179.390498 -252.751975 
L 178.954313 -252.188442 
L 178.53612 -251.62491 
L 178.135919 -251.061377 
L 177.753316 -250.497845 
L 177.387634 -249.934312 
L 177.038039 -249.37078 
L 176.703656 -248.807247 
L 176.383671 -248.243715 
L 176.077415 -247.680182 
L 175.784422 -247.11665 
z
" id="me2b139af1a" style="stroke:#000000;stroke-opacity:0.3;"/>
    </defs>
    <g clip-path="url(#p528ae973ee)">
     <use style="fill:#bfbf00;fill-opacity:0.3;stroke:#000000;stroke-opacity:0.3;" x="0.0" xlink:href="#me2b139af1a" y="465.868"/>
    </g>
   </g>
   <g id="PolyCollection_3">
    <defs>
     <path d="M 248.745865 -242.27825 
L 245.499135 -242.27825 
L 245.3351 -242.980421 
L 245.169398 -243.682593 
L 245.000815 -244.384764 
L 244.826798 -245.086936 
L 244.643416 -245.789107 
L 244.445481 -246.491279 
L 244.226811 -247.19345 
L 243.980653 -247.895621 
L 243.700234 -248.597793 
L 243.379387 -249.299964 
L 243.013218 -250.002136 
L 242.598721 -250.704307 
L 242.135286 -251.406479 
L 241.625016 -252.10865 
L 241.07282 -252.810821 
L 240.486224 -253.512993 
L 239.874915 -254.215164 
L 239.250037 -254.917336 
L 238.6233 -255.619507 
L 238.005998 -256.321679 
L 237.408021 -257.02385 
L 236.836989 -257.726021 
L 236.297608 -258.428193 
L 235.791317 -259.130364 
L 235.316284 -259.832536 
L 234.867768 -260.534707 
L 234.438787 -261.236879 
L 234.021059 -261.93905 
L 233.606077 -262.641221 
L 233.186234 -263.343393 
L 232.755841 -264.045564 
L 232.311963 -264.747736 
L 231.854954 -265.449907 
L 231.38866 -266.152079 
L 230.920264 -266.85425 
L 230.459817 -267.556421 
L 230.019499 -268.258593 
L 229.612721 -268.960764 
L 229.253166 -269.662936 
L 228.95386 -270.365107 
L 228.726379 -271.067279 
L 228.580239 -271.76945 
L 228.5225 -272.471621 
L 228.557576 -273.173793 
L 228.687218 -273.875964 
L 228.910626 -274.578136 
L 229.224623 -275.280307 
L 229.623869 -275.982479 
L 230.101068 -276.68465 
L 230.647188 -277.386821 
L 231.25169 -278.088993 
L 231.90281 -278.791164 
L 232.587907 -279.493336 
L 233.293909 -280.195507 
L 234.007829 -280.897679 
L 234.717341 -281.59985 
L 235.411361 -282.302021 
L 236.080557 -283.004193 
L 236.717755 -283.706364 
L 237.318161 -284.408536 
L 237.87939 -285.110707 
L 238.401292 -285.812879 
L 238.885616 -286.51505 
L 239.335537 -287.217221 
L 239.755136 -287.919393 
L 240.148869 -288.621564 
L 240.52111 -289.323736 
L 240.875785 -290.025907 
L 241.216138 -290.728079 
L 241.544613 -291.43025 
L 241.862867 -292.132421 
L 242.171854 -292.834593 
L 242.471979 -293.536764 
L 242.763268 -294.238936 
L 243.045533 -294.941107 
L 243.318513 -295.643279 
L 243.581965 -296.34545 
L 243.835711 -297.047621 
L 244.079638 -297.749793 
L 244.313664 -298.451964 
L 244.537674 -299.154136 
L 244.751468 -299.856307 
L 244.954702 -300.558479 
L 245.146865 -301.26065 
L 245.327289 -301.962821 
L 245.495198 -302.664993 
L 245.649785 -303.367164 
L 245.790326 -304.069336 
L 245.916301 -304.771507 
L 246.027508 -305.473679 
L 246.124165 -306.17585 
L 246.206967 -306.878021 
L 246.277093 -307.580193 
L 246.336167 -308.282364 
L 246.386163 -308.984536 
L 246.429265 -309.686707 
L 246.467703 -310.388879 
L 246.503583 -311.09105 
L 246.538731 -311.793221 
L 247.706269 -311.793221 
L 247.706269 -311.793221 
L 247.741417 -311.09105 
L 247.777297 -310.388879 
L 247.815735 -309.686707 
L 247.858837 -308.984536 
L 247.908833 -308.282364 
L 247.967907 -307.580193 
L 248.038033 -306.878021 
L 248.120835 -306.17585 
L 248.217492 -305.473679 
L 248.328699 -304.771507 
L 248.454674 -304.069336 
L 248.595215 -303.367164 
L 248.749802 -302.664993 
L 248.917711 -301.962821 
L 249.098135 -301.26065 
L 249.290298 -300.558479 
L 249.493532 -299.856307 
L 249.707326 -299.154136 
L 249.931336 -298.451964 
L 250.165362 -297.749793 
L 250.409289 -297.047621 
L 250.663035 -296.34545 
L 250.926487 -295.643279 
L 251.199467 -294.941107 
L 251.481732 -294.238936 
L 251.773021 -293.536764 
L 252.073146 -292.834593 
L 252.382133 -292.132421 
L 252.700387 -291.43025 
L 253.028862 -290.728079 
L 253.369215 -290.025907 
L 253.72389 -289.323736 
L 254.096131 -288.621564 
L 254.489864 -287.919393 
L 254.909463 -287.217221 
L 255.359384 -286.51505 
L 255.843708 -285.812879 
L 256.36561 -285.110707 
L 256.926839 -284.408536 
L 257.527245 -283.706364 
L 258.164443 -283.004193 
L 258.833639 -282.302021 
L 259.527659 -281.59985 
L 260.237171 -280.897679 
L 260.951091 -280.195507 
L 261.657093 -279.493336 
L 262.34219 -278.791164 
L 262.99331 -278.088993 
L 263.597812 -277.386821 
L 264.143932 -276.68465 
L 264.621131 -275.982479 
L 265.020377 -275.280307 
L 265.334374 -274.578136 
L 265.557782 -273.875964 
L 265.687424 -273.173793 
L 265.7225 -272.471621 
L 265.664761 -271.76945 
L 265.518621 -271.067279 
L 265.29114 -270.365107 
L 264.991834 -269.662936 
L 264.632279 -268.960764 
L 264.225501 -268.258593 
L 263.785183 -267.556421 
L 263.324736 -266.85425 
L 262.85634 -266.152079 
L 262.390046 -265.449907 
L 261.933037 -264.747736 
L 261.489159 -264.045564 
L 261.058766 -263.343393 
L 260.638923 -262.641221 
L 260.223941 -261.93905 
L 259.806213 -261.236879 
L 259.377232 -260.534707 
L 258.928716 -259.832536 
L 258.453683 -259.130364 
L 257.947392 -258.428193 
L 257.408011 -257.726021 
L 256.836979 -257.02385 
L 256.239002 -256.321679 
L 255.6217 -255.619507 
L 254.994963 -254.917336 
L 254.370085 -254.215164 
L 253.758776 -253.512993 
L 253.17218 -252.810821 
L 252.619984 -252.10865 
L 252.109714 -251.406479 
L 251.646279 -250.704307 
L 251.231782 -250.002136 
L 250.865613 -249.299964 
L 250.544766 -248.597793 
L 250.264347 -247.895621 
L 250.018189 -247.19345 
L 249.799519 -246.491279 
L 249.601584 -245.789107 
L 249.418202 -245.086936 
L 249.244185 -244.384764 
L 249.075602 -243.682593 
L 248.9099 -242.980421 
L 248.745865 -242.27825 
z
" id="m37308b12cc" style="stroke:#000000;stroke-opacity:0.3;"/>
    </defs>
    <g clip-path="url(#p528ae973ee)">
     <use style="fill:#bfbf00;fill-opacity:0.3;stroke:#000000;stroke-opacity:0.3;" x="0.0" xlink:href="#m37308b12cc" y="465.868"/>
    </g>
   </g>
   <g id="PolyCollection_4">
    <defs>
     <path d="M 325.266842 -264.297907 
L 317.778158 -264.297907 
L 317.527964 -264.412608 
L 317.286672 -264.52731 
L 317.055014 -264.642011 
L 316.832899 -264.756712 
L 316.619379 -264.871414 
L 316.412657 -264.986115 
L 316.210141 -265.100816 
L 316.008538 -265.215518 
L 315.803983 -265.330219 
L 315.592194 -265.44492 
L 315.368651 -265.559621 
L 315.128789 -265.674323 
L 314.868193 -265.789024 
L 314.582792 -265.903725 
L 314.269046 -266.018427 
L 313.92411 -266.133128 
L 313.54598 -266.247829 
L 313.133614 -266.362531 
L 312.687012 -266.477232 
L 312.207268 -266.591933 
L 311.696578 -266.706634 
L 311.158209 -266.821336 
L 310.596429 -266.936037 
L 310.016396 -267.050738 
L 309.424015 -267.16544 
L 308.825763 -267.280141 
L 308.228491 -267.394842 
L 307.639212 -267.509544 
L 307.064881 -267.624245 
L 306.512174 -267.738946 
L 305.987289 -267.853647 
L 305.495751 -267.968349 
L 305.042261 -268.08305 
L 304.630569 -268.197751 
L 304.263391 -268.312453 
L 303.942373 -268.427154 
L 303.668095 -268.541855 
L 303.440124 -268.656556 
L 303.257105 -268.771258 
L 303.116892 -268.885959 
L 303.0167 -269.00066 
L 302.953279 -269.115362 
L 302.923095 -269.230063 
L 302.9225 -269.344764 
L 302.947885 -269.459466 
L 302.995808 -269.574167 
L 303.063087 -269.688868 
L 303.146848 -269.803569 
L 303.244542 -269.918271 
L 303.353921 -270.032972 
L 303.472991 -270.147673 
L 303.599946 -270.262375 
L 303.733107 -270.377076 
L 303.87086 -270.491777 
L 304.011626 -270.606479 
L 304.153858 -270.72118 
L 304.29608 -270.835881 
L 304.436952 -270.950582 
L 304.575376 -271.065284 
L 304.710617 -271.179985 
L 304.84244 -271.294686 
L 304.971224 -271.409388 
L 305.098067 -271.524089 
L 305.224847 -271.63879 
L 305.354226 -271.753492 
L 305.489609 -271.868193 
L 305.635032 -271.982894 
L 305.795011 -272.097595 
L 305.974328 -272.212297 
L 306.177801 -272.326998 
L 306.410026 -272.441699 
L 306.675124 -272.556401 
L 306.976503 -272.671102 
L 307.316647 -272.785803 
L 307.696954 -272.900505 
L 308.117617 -273.015206 
L 308.577562 -273.129907 
L 309.074443 -273.244608 
L 309.6047 -273.35931 
L 310.163657 -273.474011 
L 310.745685 -273.588712 
L 311.344391 -273.703414 
L 311.952855 -273.818115 
L 312.563883 -273.932816 
L 313.170277 -274.047518 
L 313.765107 -274.162219 
L 314.341973 -274.27692 
L 314.895237 -274.391621 
L 315.42022 -274.506323 
L 315.913354 -274.621024 
L 316.372267 -274.735725 
L 316.795808 -274.850427 
L 317.184004 -274.965128 
L 317.537956 -275.079829 
L 317.859682 -275.194531 
L 318.151909 -275.309232 
L 318.417854 -275.423933 
L 318.660974 -275.538634 
L 318.884746 -275.653336 
L 324.160254 -275.653336 
L 324.160254 -275.653336 
L 324.384026 -275.538634 
L 324.627146 -275.423933 
L 324.893091 -275.309232 
L 325.185318 -275.194531 
L 325.507044 -275.079829 
L 325.860996 -274.965128 
L 326.249192 -274.850427 
L 326.672733 -274.735725 
L 327.131646 -274.621024 
L 327.62478 -274.506323 
L 328.149763 -274.391621 
L 328.703027 -274.27692 
L 329.279893 -274.162219 
L 329.874723 -274.047518 
L 330.481117 -273.932816 
L 331.092145 -273.818115 
L 331.700609 -273.703414 
L 332.299315 -273.588712 
L 332.881343 -273.474011 
L 333.4403 -273.35931 
L 333.970557 -273.244608 
L 334.467438 -273.129907 
L 334.927383 -273.015206 
L 335.348046 -272.900505 
L 335.728353 -272.785803 
L 336.068497 -272.671102 
L 336.369876 -272.556401 
L 336.634974 -272.441699 
L 336.867199 -272.326998 
L 337.070672 -272.212297 
L 337.249989 -272.097595 
L 337.409968 -271.982894 
L 337.555391 -271.868193 
L 337.690774 -271.753492 
L 337.820153 -271.63879 
L 337.946933 -271.524089 
L 338.073776 -271.409388 
L 338.20256 -271.294686 
L 338.334383 -271.179985 
L 338.469624 -271.065284 
L 338.608048 -270.950582 
L 338.74892 -270.835881 
L 338.891142 -270.72118 
L 339.033374 -270.606479 
L 339.17414 -270.491777 
L 339.311893 -270.377076 
L 339.445054 -270.262375 
L 339.572009 -270.147673 
L 339.691079 -270.032972 
L 339.800458 -269.918271 
L 339.898152 -269.803569 
L 339.981913 -269.688868 
L 340.049192 -269.574167 
L 340.097115 -269.459466 
L 340.1225 -269.344764 
L 340.121905 -269.230063 
L 340.091721 -269.115362 
L 340.0283 -269.00066 
L 339.928108 -268.885959 
L 339.787895 -268.771258 
L 339.604876 -268.656556 
L 339.376905 -268.541855 
L 339.102627 -268.427154 
L 338.781609 -268.312453 
L 338.414431 -268.197751 
L 338.002739 -268.08305 
L 337.549249 -267.968349 
L 337.057711 -267.853647 
L 336.532826 -267.738946 
L 335.980119 -267.624245 
L 335.405788 -267.509544 
L 334.816509 -267.394842 
L 334.219237 -267.280141 
L 333.620985 -267.16544 
L 333.028604 -267.050738 
L 332.448571 -266.936037 
L 331.886791 -266.821336 
L 331.348422 -266.706634 
L 330.837732 -266.591933 
L 330.357988 -266.477232 
L 329.911386 -266.362531 
L 329.49902 -266.247829 
L 329.12089 -266.133128 
L 328.775954 -266.018427 
L 328.462208 -265.903725 
L 328.176807 -265.789024 
L 327.916211 -265.674323 
L 327.676349 -265.559621 
L 327.452806 -265.44492 
L 327.241017 -265.330219 
L 327.036462 -265.215518 
L 326.834859 -265.100816 
L 326.632343 -264.986115 
L 326.425621 -264.871414 
L 326.212101 -264.756712 
L 325.989986 -264.642011 
L 325.758328 -264.52731 
L 325.517036 -264.412608 
L 325.266842 -264.297907 
z
" id="m0ee8295588" style="stroke:#000000;stroke-opacity:0.3;"/>
    </defs>
    <g clip-path="url(#p528ae973ee)">
     <use style="fill:#bfbf00;fill-opacity:0.3;stroke:#000000;stroke-opacity:0.3;" x="0.0" xlink:href="#m0ee8295588" y="465.868"/>
    </g>
   </g>
   <g id="PolyCollection_5">
    <defs>
     <path d="M 396.85868 -234.378821 
L 394.98632 -234.378821 
L 394.875907 -235.044089 
L 394.752411 -235.709356 
L 394.613828 -236.374624 
L 394.458146 -237.039892 
L 394.283469 -237.705159 
L 394.088134 -238.370427 
L 393.870836 -239.035694 
L 393.630729 -239.700962 
L 393.367504 -240.366229 
L 393.081444 -241.031497 
L 392.773434 -241.696764 
L 392.444934 -242.362032 
L 392.097919 -243.027299 
L 391.734777 -243.692567 
L 391.358179 -244.357834 
L 390.970929 -245.023102 
L 390.575802 -245.688369 
L 390.175379 -246.353637 
L 389.771895 -247.018905 
L 389.36711 -247.684172 
L 388.962214 -248.34944 
L 388.557767 -249.014707 
L 388.153691 -249.679975 
L 387.749301 -250.345242 
L 387.343378 -251.01051 
L 386.934281 -251.675777 
L 386.520084 -252.341045 
L 386.098723 -253.006312 
L 385.668154 -253.67158 
L 385.226513 -254.336847 
L 384.772256 -255.002115 
L 384.304303 -255.667382 
L 383.822165 -256.33265 
L 383.32606 -256.997918 
L 382.817039 -257.663185 
L 382.297087 -258.328453 
L 381.769235 -258.99372 
L 381.23764 -259.658988 
L 380.707647 -260.324255 
L 380.185803 -260.989523 
L 379.679812 -261.65479 
L 379.198403 -262.320058 
L 378.751111 -262.985325 
L 378.347966 -263.650593 
L 377.999073 -264.31586 
L 377.714132 -264.981128 
L 377.501892 -265.646395 
L 377.369605 -266.311663 
L 377.3225 -266.976931 
L 377.363345 -267.642198 
L 377.492126 -268.307466 
L 377.705889 -268.972733 
L 377.998775 -269.638001 
L 378.362245 -270.303268 
L 378.785503 -270.968536 
L 379.256074 -271.633803 
L 379.760513 -272.299071 
L 380.285172 -272.964338 
L 380.816974 -273.629606 
L 381.344122 -274.294873 
L 381.856693 -274.960141 
L 382.347064 -275.625408 
L 382.810144 -276.290676 
L 383.243403 -276.955944 
L 383.646699 -277.621211 
L 384.021949 -278.286479 
L 384.372672 -278.951746 
L 384.703455 -279.617014 
L 385.019416 -280.282281 
L 385.32568 -280.947549 
L 385.626952 -281.612816 
L 385.927175 -282.278084 
L 386.229319 -282.943351 
L 386.535285 -283.608619 
L 386.845923 -284.273886 
L 387.161131 -284.939154 
L 387.480022 -285.604421 
L 387.801132 -286.269689 
L 388.122627 -286.934956 
L 388.44251 -287.600224 
L 388.758805 -288.265492 
L 389.069702 -288.930759 
L 389.37367 -289.596027 
L 389.669532 -290.261294 
L 389.956513 -290.926562 
L 390.234253 -291.591829 
L 390.502802 -292.257097 
L 390.762594 -292.922364 
L 391.014397 -293.587632 
L 391.25925 -294.252899 
L 391.498386 -294.918167 
L 391.733136 -295.583434 
L 391.964826 -296.248702 
L 392.194667 -296.913969 
L 392.423648 -297.579237 
L 392.652437 -298.244505 
L 392.881311 -298.909772 
L 393.110098 -299.57504 
L 393.338166 -300.240307 
L 398.506834 -300.240307 
L 398.506834 -300.240307 
L 398.734902 -299.57504 
L 398.963689 -298.909772 
L 399.192563 -298.244505 
L 399.421352 -297.579237 
L 399.650333 -296.913969 
L 399.880174 -296.248702 
L 400.111864 -295.583434 
L 400.346614 -294.918167 
L 400.58575 -294.252899 
L 400.830603 -293.587632 
L 401.082406 -292.922364 
L 401.342198 -292.257097 
L 401.610747 -291.591829 
L 401.888487 -290.926562 
L 402.175468 -290.261294 
L 402.47133 -289.596027 
L 402.775298 -288.930759 
L 403.086195 -288.265492 
L 403.40249 -287.600224 
L 403.722373 -286.934956 
L 404.043868 -286.269689 
L 404.364978 -285.604421 
L 404.683869 -284.939154 
L 404.999077 -284.273886 
L 405.309715 -283.608619 
L 405.615681 -282.943351 
L 405.917825 -282.278084 
L 406.218048 -281.612816 
L 406.51932 -280.947549 
L 406.825584 -280.282281 
L 407.141545 -279.617014 
L 407.472328 -278.951746 
L 407.823051 -278.286479 
L 408.198301 -277.621211 
L 408.601597 -276.955944 
L 409.034856 -276.290676 
L 409.497936 -275.625408 
L 409.988307 -274.960141 
L 410.500878 -274.294873 
L 411.028026 -273.629606 
L 411.559828 -272.964338 
L 412.084487 -272.299071 
L 412.588926 -271.633803 
L 413.059497 -270.968536 
L 413.482755 -270.303268 
L 413.846225 -269.638001 
L 414.139111 -268.972733 
L 414.352874 -268.307466 
L 414.481655 -267.642198 
L 414.5225 -266.976931 
L 414.475395 -266.311663 
L 414.343108 -265.646395 
L 414.130868 -264.981128 
L 413.845927 -264.31586 
L 413.497034 -263.650593 
L 413.093889 -262.985325 
L 412.646597 -262.320058 
L 412.165188 -261.65479 
L 411.659197 -260.989523 
L 411.137353 -260.324255 
L 410.60736 -259.658988 
L 410.075765 -258.99372 
L 409.547913 -258.328453 
L 409.027961 -257.663185 
L 408.51894 -256.997918 
L 408.022835 -256.33265 
L 407.540697 -255.667382 
L 407.072744 -255.002115 
L 406.618487 -254.336847 
L 406.176846 -253.67158 
L 405.746277 -253.006312 
L 405.324916 -252.341045 
L 404.910719 -251.675777 
L 404.501622 -251.01051 
L 404.095699 -250.345242 
L 403.691309 -249.679975 
L 403.287233 -249.014707 
L 402.882786 -248.34944 
L 402.47789 -247.684172 
L 402.073105 -247.018905 
L 401.669621 -246.353637 
L 401.269198 -245.688369 
L 400.874071 -245.023102 
L 400.486821 -244.357834 
L 400.110223 -243.692567 
L 399.747081 -243.027299 
L 399.400066 -242.362032 
L 399.071566 -241.696764 
L 398.763556 -241.031497 
L 398.477496 -240.366229 
L 398.214271 -239.700962 
L 397.974164 -239.035694 
L 397.756866 -238.370427 
L 397.561531 -237.705159 
L 397.386854 -237.039892 
L 397.231172 -236.374624 
L 397.092589 -235.709356 
L 396.969093 -235.044089 
L 396.85868 -234.378821 
z
" id="m6174e9aa20" style="stroke:#000000;stroke-opacity:0.3;"/>
    </defs>
    <g clip-path="url(#p528ae973ee)">
     <use style="fill:#bfbf00;fill-opacity:0.3;stroke:#000000;stroke-opacity:0.3;" x="0.0" xlink:href="#m6174e9aa20" y="465.868"/>
    </g>
   </g>
   <g id="PolyCollection_6">
    <defs>
     <path d="M 471.144271 -251.856307 
L 469.500729 -251.856307 
L 469.419432 -252.142562 
L 469.334738 -252.428816 
L 469.246638 -252.715071 
L 469.155231 -253.001325 
L 469.060761 -253.28758 
L 468.963602 -253.573834 
L 468.864204 -253.860089 
L 468.762985 -254.146344 
L 468.660192 -254.432598 
L 468.555729 -254.718853 
L 468.448997 -255.005107 
L 468.338751 -255.291362 
L 468.223007 -255.577616 
L 468.099028 -255.863871 
L 467.963375 -256.150125 
L 467.812045 -256.43638 
L 467.640675 -256.722634 
L 467.444795 -257.008889 
L 467.220103 -257.295144 
L 466.962749 -257.581398 
L 466.669588 -257.867653 
L 466.338415 -258.153907 
L 465.968142 -258.440162 
L 465.558938 -258.726416 
L 465.11232 -259.012671 
L 464.631206 -259.298925 
L 464.119911 -259.58518 
L 463.584108 -259.871434 
L 463.030711 -260.157689 
L 462.467692 -260.443944 
L 461.903799 -260.730198 
L 461.348179 -261.016453 
L 460.809901 -261.302707 
L 460.297401 -261.588962 
L 459.81788 -261.875216 
L 459.37671 -262.161471 
L 458.976918 -262.447725 
L 458.618801 -262.73398 
L 458.29975 -263.020234 
L 458.014321 -263.306489 
L 457.75457 -263.592744 
L 457.51064 -263.878998 
L 457.27156 -264.165253 
L 457.026181 -264.451507 
L 456.764148 -264.737762 
L 456.476828 -265.024016 
L 456.158092 -265.310271 
L 455.804887 -265.596525 
L 455.417562 -265.88278 
L 454.999934 -266.169034 
L 454.559115 -266.455289 
L 454.105152 -266.741544 
L 453.650514 -267.027798 
L 453.209512 -267.314053 
L 452.797658 -267.600307 
L 452.431031 -267.886562 
L 452.125639 -268.172816 
L 451.896779 -268.459071 
L 451.758409 -268.745325 
L 451.7225 -269.03158 
L 451.798405 -269.317834 
L 451.992245 -269.604089 
L 452.306374 -269.890344 
L 452.738972 -270.176598 
L 453.283827 -270.462853 
L 453.930375 -270.749107 
L 454.664024 -271.035362 
L 455.466783 -271.321616 
L 456.318176 -271.607871 
L 457.196368 -271.894125 
L 458.079424 -272.18038 
L 458.946593 -272.466634 
L 459.779477 -272.752889 
L 460.563012 -273.039144 
L 461.286141 -273.325398 
L 461.942152 -273.611653 
L 462.528656 -273.897907 
L 463.047236 -274.184162 
L 463.502828 -274.470416 
L 463.902903 -274.756671 
L 464.256566 -275.042925 
L 464.57364 -275.32918 
L 464.863833 -275.615434 
L 465.136044 -275.901689 
L 465.397846 -276.187944 
L 465.655168 -276.474198 
L 465.912163 -276.760453 
L 466.171247 -277.046707 
L 466.433269 -277.332962 
L 466.697776 -277.619216 
L 466.963334 -277.905471 
L 467.227855 -278.191725 
L 467.488914 -278.47798 
L 467.74402 -278.764234 
L 467.99083 -279.050489 
L 468.227298 -279.336744 
L 468.451767 -279.622998 
L 468.662993 -279.909253 
L 468.860139 -280.195507 
L 471.784861 -280.195507 
L 471.784861 -280.195507 
L 471.982007 -279.909253 
L 472.193233 -279.622998 
L 472.417702 -279.336744 
L 472.65417 -279.050489 
L 472.90098 -278.764234 
L 473.156086 -278.47798 
L 473.417145 -278.191725 
L 473.681666 -277.905471 
L 473.947224 -277.619216 
L 474.211731 -277.332962 
L 474.473753 -277.046707 
L 474.732837 -276.760453 
L 474.989832 -276.474198 
L 475.247154 -276.187944 
L 475.508956 -275.901689 
L 475.781167 -275.615434 
L 476.07136 -275.32918 
L 476.388434 -275.042925 
L 476.742097 -274.756671 
L 477.142172 -274.470416 
L 477.597764 -274.184162 
L 478.116344 -273.897907 
L 478.702848 -273.611653 
L 479.358859 -273.325398 
L 480.081988 -273.039144 
L 480.865523 -272.752889 
L 481.698407 -272.466634 
L 482.565576 -272.18038 
L 483.448632 -271.894125 
L 484.326824 -271.607871 
L 485.178217 -271.321616 
L 485.980976 -271.035362 
L 486.714625 -270.749107 
L 487.361173 -270.462853 
L 487.906028 -270.176598 
L 488.338626 -269.890344 
L 488.652755 -269.604089 
L 488.846595 -269.317834 
L 488.9225 -269.03158 
L 488.886591 -268.745325 
L 488.748221 -268.459071 
L 488.519361 -268.172816 
L 488.213969 -267.886562 
L 487.847342 -267.600307 
L 487.435488 -267.314053 
L 486.994486 -267.027798 
L 486.539848 -266.741544 
L 486.085885 -266.455289 
L 485.645066 -266.169034 
L 485.227438 -265.88278 
L 484.840113 -265.596525 
L 484.486908 -265.310271 
L 484.168172 -265.024016 
L 483.880852 -264.737762 
L 483.618819 -264.451507 
L 483.37344 -264.165253 
L 483.13436 -263.878998 
L 482.89043 -263.592744 
L 482.630679 -263.306489 
L 482.34525 -263.020234 
L 482.026199 -262.73398 
L 481.668082 -262.447725 
L 481.26829 -262.161471 
L 480.82712 -261.875216 
L 480.347599 -261.588962 
L 479.835099 -261.302707 
L 479.296821 -261.016453 
L 478.741201 -260.730198 
L 478.177308 -260.443944 
L 477.614289 -260.157689 
L 477.060892 -259.871434 
L 476.525089 -259.58518 
L 476.013794 -259.298925 
L 475.53268 -259.012671 
L 475.086062 -258.726416 
L 474.676858 -258.440162 
L 474.306585 -258.153907 
L 473.975412 -257.867653 
L 473.682251 -257.581398 
L 473.424897 -257.295144 
L 473.200205 -257.008889 
L 473.004325 -256.722634 
L 472.832955 -256.43638 
L 472.681625 -256.150125 
L 472.545972 -255.863871 
L 472.421993 -255.577616 
L 472.306249 -255.291362 
L 472.196003 -255.005107 
L 472.089271 -254.718853 
L 471.984808 -254.432598 
L 471.882015 -254.146344 
L 471.780796 -253.860089 
L 471.681398 -253.573834 
L 471.584239 -253.28758 
L 471.489769 -253.001325 
L 471.398362 -252.715071 
L 471.310262 -252.428816 
L 471.225568 -252.142562 
L 471.144271 -251.856307 
z
" id="m5f13a12ee5" style="stroke:#000000;stroke-opacity:0.3;"/>
    </defs>
    <g clip-path="url(#p528ae973ee)">
     <use style="fill:#bfbf00;fill-opacity:0.3;stroke:#000000;stroke-opacity:0.3;" x="0.0" xlink:href="#m5f13a12ee5" y="465.868"/>
    </g>
   </g>
   <g id="PolyCollection_7">
    <defs>
     <path d="M 545.577772 -252.744993 
L 543.867228 -252.744993 
L 543.800839 -253.00332 
L 543.735146 -253.261647 
L 543.670111 -253.519975 
L 543.605578 -253.778302 
L 543.541305 -254.036629 
L 543.476988 -254.294956 
L 543.412267 -254.553284 
L 543.3467 -254.811611 
L 543.279723 -255.069938 
L 543.210564 -255.328266 
L 543.13815 -255.586593 
L 543.060992 -255.84492 
L 542.977091 -256.103247 
L 542.883859 -256.361575 
L 542.778104 -256.619902 
L 542.656078 -256.878229 
L 542.513607 -257.136556 
L 542.346319 -257.394884 
L 542.149939 -257.653211 
L 541.920662 -257.911538 
L 541.655543 -258.169866 
L 541.352878 -258.428193 
L 541.01253 -258.68652 
L 540.636138 -258.944847 
L 540.227188 -259.203175 
L 539.790908 -259.461502 
L 539.333971 -259.719829 
L 538.864047 -259.978156 
L 538.389212 -260.236484 
L 537.917285 -260.494811 
L 537.455162 -260.753138 
L 537.00821 -261.011466 
L 536.579804 -261.269793 
L 536.171046 -261.52812 
L 535.780707 -261.786447 
L 535.405393 -262.044775 
L 535.039912 -262.303102 
L 534.677811 -262.561429 
L 534.312009 -262.819756 
L 533.935471 -263.078084 
L 533.541858 -263.336411 
L 533.126098 -263.594738 
L 532.684843 -263.853066 
L 532.216784 -264.111393 
L 531.722828 -264.36972 
L 531.206122 -264.628047 
L 530.671954 -264.886375 
L 530.12753 -265.144702 
L 529.581645 -265.403029 
L 529.044267 -265.661356 
L 528.52604 -265.919684 
L 528.037733 -266.178011 
L 527.589663 -266.436338 
L 527.191122 -266.694666 
L 526.849853 -266.952993 
L 526.571611 -267.21132 
L 526.359869 -267.469647 
L 526.215678 -267.727975 
L 526.137713 -267.986302 
L 526.1225 -268.244629 
L 526.164801 -268.502956 
L 526.258123 -268.761284 
L 526.395295 -269.019611 
L 526.569059 -269.277938 
L 526.77262 -269.536266 
L 527.000108 -269.794593 
L 527.246905 -270.05292 
L 527.509842 -270.311247 
L 527.787234 -270.569575 
L 528.078782 -270.827902 
L 528.385359 -271.086229 
L 528.708707 -271.344556 
L 529.051092 -271.602884 
L 529.414939 -271.861211 
L 529.802492 -272.119538 
L 530.215524 -272.377866 
L 530.655125 -272.636193 
L 531.121563 -272.89452 
L 531.614236 -273.152847 
L 532.131706 -273.411175 
L 532.671785 -273.669502 
L 533.231667 -273.927829 
L 533.808081 -274.186156 
L 534.397434 -274.444484 
L 534.995943 -274.702811 
L 535.599733 -274.961138 
L 536.204912 -275.219466 
L 536.807613 -275.477793 
L 537.404027 -275.73612 
L 537.990422 -275.994447 
L 538.563178 -276.252775 
L 539.11882 -276.511102 
L 539.654079 -276.769429 
L 540.165952 -277.027756 
L 540.65178 -277.286084 
L 541.109314 -277.544411 
L 541.536783 -277.802738 
L 541.932931 -278.061066 
L 542.297038 -278.319393 
L 547.147962 -278.319393 
L 547.147962 -278.319393 
L 547.512069 -278.061066 
L 547.908217 -277.802738 
L 548.335686 -277.544411 
L 548.79322 -277.286084 
L 549.279048 -277.027756 
L 549.790921 -276.769429 
L 550.32618 -276.511102 
L 550.881822 -276.252775 
L 551.454578 -275.994447 
L 552.040973 -275.73612 
L 552.637387 -275.477793 
L 553.240088 -275.219466 
L 553.845267 -274.961138 
L 554.449057 -274.702811 
L 555.047566 -274.444484 
L 555.636919 -274.186156 
L 556.213333 -273.927829 
L 556.773215 -273.669502 
L 557.313294 -273.411175 
L 557.830764 -273.152847 
L 558.323437 -272.89452 
L 558.789875 -272.636193 
L 559.229476 -272.377866 
L 559.642508 -272.119538 
L 560.030061 -271.861211 
L 560.393908 -271.602884 
L 560.736293 -271.344556 
L 561.059641 -271.086229 
L 561.366218 -270.827902 
L 561.657766 -270.569575 
L 561.935158 -270.311247 
L 562.198095 -270.05292 
L 562.444892 -269.794593 
L 562.67238 -269.536266 
L 562.875941 -269.277938 
L 563.049705 -269.019611 
L 563.186877 -268.761284 
L 563.280199 -268.502956 
L 563.3225 -268.244629 
L 563.307287 -267.986302 
L 563.229322 -267.727975 
L 563.085131 -267.469647 
L 562.873389 -267.21132 
L 562.595147 -266.952993 
L 562.253878 -266.694666 
L 561.855337 -266.436338 
L 561.407267 -266.178011 
L 560.91896 -265.919684 
L 560.400733 -265.661356 
L 559.863355 -265.403029 
L 559.31747 -265.144702 
L 558.773046 -264.886375 
L 558.238878 -264.628047 
L 557.722172 -264.36972 
L 557.228216 -264.111393 
L 556.760157 -263.853066 
L 556.318902 -263.594738 
L 555.903142 -263.336411 
L 555.509529 -263.078084 
L 555.132991 -262.819756 
L 554.767189 -262.561429 
L 554.405088 -262.303102 
L 554.039607 -262.044775 
L 553.664293 -261.786447 
L 553.273954 -261.52812 
L 552.865196 -261.269793 
L 552.43679 -261.011466 
L 551.989838 -260.753138 
L 551.527715 -260.494811 
L 551.055788 -260.236484 
L 550.580953 -259.978156 
L 550.111029 -259.719829 
L 549.654092 -259.461502 
L 549.217812 -259.203175 
L 548.808862 -258.944847 
L 548.43247 -258.68652 
L 548.092122 -258.428193 
L 547.789457 -258.169866 
L 547.524338 -257.911538 
L 547.295061 -257.653211 
L 547.098681 -257.394884 
L 546.931393 -257.136556 
L 546.788922 -256.878229 
L 546.666896 -256.619902 
L 546.561141 -256.361575 
L 546.467909 -256.103247 
L 546.384008 -255.84492 
L 546.30685 -255.586593 
L 546.234436 -255.328266 
L 546.165277 -255.069938 
L 546.0983 -254.811611 
L 546.032733 -254.553284 
L 545.968012 -254.294956 
L 545.903695 -254.036629 
L 545.839422 -253.778302 
L 545.774889 -253.519975 
L 545.709854 -253.261647 
L 545.644161 -253.00332 
L 545.577772 -252.744993 
z
" id="m2074deffdb" style="stroke:#000000;stroke-opacity:0.3;"/>
    </defs>
    <g clip-path="url(#p528ae973ee)">
     <use style="fill:#bfbf00;fill-opacity:0.3;stroke:#000000;stroke-opacity:0.3;" x="0.0" xlink:href="#m2074deffdb" y="465.868"/>
    </g>
   </g>
   <g id="PolyCollection_8">
    <defs>
     <path d="M 621.038627 -131.587507 
L 617.206373 -131.587507 
L 616.928096 -131.987466 
L 616.624942 -132.387424 
L 616.297462 -132.787382 
L 615.946846 -133.187341 
L 615.574948 -133.587299 
L 615.184251 -133.987258 
L 614.777784 -134.387216 
L 614.358979 -134.787175 
L 613.931472 -135.187133 
L 613.498875 -135.587092 
L 613.064535 -135.98705 
L 612.631296 -136.387008 
L 612.201304 -136.786967 
L 611.775865 -137.186925 
L 611.355383 -137.586884 
L 610.93938 -137.986842 
L 610.526607 -138.386801 
L 610.115228 -138.786759 
L 609.703068 -139.186718 
L 609.287893 -139.586676 
L 608.867694 -139.986634 
L 608.440946 -140.386593 
L 608.00681 -140.786551 
L 607.565259 -141.18651 
L 607.117118 -141.586468 
L 606.664014 -141.986427 
L 606.208254 -142.386385 
L 605.752642 -142.786344 
L 605.300274 -143.186302 
L 604.854337 -143.58626 
L 604.417938 -143.986219 
L 603.993982 -144.386177 
L 603.585117 -144.786136 
L 603.193726 -145.186094 
L 602.82197 -145.586053 
L 602.471853 -145.986011 
L 602.14529 -146.385969 
L 601.844142 -146.785928 
L 601.570238 -147.185886 
L 601.325336 -147.585845 
L 601.111065 -147.985803 
L 600.928835 -148.385762 
L 600.779747 -148.78572 
L 600.664515 -149.185679 
L 600.583413 -149.585637 
L 600.53627 -149.985595 
L 600.5225 -150.385554 
L 600.541182 -150.785512 
L 600.591176 -151.185471 
L 600.671263 -151.585429 
L 600.780308 -151.985388 
L 600.917419 -152.385346 
L 601.082098 -152.785305 
L 601.274366 -153.185263 
L 601.494836 -153.585221 
L 601.74474 -153.98518 
L 602.025876 -154.385138 
L 602.340476 -154.785097 
L 602.690998 -155.185055 
L 603.079853 -155.585014 
L 603.509072 -155.984972 
L 603.979966 -156.384931 
L 604.492794 -156.784889 
L 605.046491 -157.184847 
L 605.638479 -157.584806 
L 606.264604 -157.984764 
L 606.919198 -158.384723 
L 607.595273 -158.784681 
L 608.284834 -159.18464 
L 608.979283 -159.584598 
L 609.669868 -159.984556 
L 610.348149 -160.384515 
L 611.006427 -160.784473 
L 611.6381 -161.184432 
L 612.237931 -161.58439 
L 612.802188 -161.984349 
L 613.328677 -162.384307 
L 613.816648 -162.784266 
L 614.266624 -163.184224 
L 614.680141 -163.584182 
L 615.059459 -163.984141 
L 615.407263 -164.384099 
L 615.726372 -164.784058 
L 616.019506 -165.184016 
L 616.289103 -165.583975 
L 616.537213 -165.983933 
L 616.765465 -166.383892 
L 616.975097 -166.78385 
L 617.167042 -167.183808 
L 617.342044 -167.583767 
L 617.500795 -167.983725 
L 617.644054 -168.383684 
L 617.772742 -168.783642 
L 617.888 -169.183601 
L 617.991197 -169.583559 
L 618.083893 -169.983518 
L 618.167768 -170.383476 
L 618.244515 -170.783434 
L 618.315735 -171.183393 
L 619.929265 -171.183393 
L 619.929265 -171.183393 
L 620.000485 -170.783434 
L 620.077232 -170.383476 
L 620.161107 -169.983518 
L 620.253803 -169.583559 
L 620.357 -169.183601 
L 620.472258 -168.783642 
L 620.600946 -168.383684 
L 620.744205 -167.983725 
L 620.902956 -167.583767 
L 621.077958 -167.183808 
L 621.269903 -166.78385 
L 621.479535 -166.383892 
L 621.707787 -165.983933 
L 621.955897 -165.583975 
L 622.225494 -165.184016 
L 622.518628 -164.784058 
L 622.837737 -164.384099 
L 623.185541 -163.984141 
L 623.564859 -163.584182 
L 623.978376 -163.184224 
L 624.428352 -162.784266 
L 624.916323 -162.384307 
L 625.442812 -161.984349 
L 626.007069 -161.58439 
L 626.6069 -161.184432 
L 627.238573 -160.784473 
L 627.896851 -160.384515 
L 628.575132 -159.984556 
L 629.265717 -159.584598 
L 629.960166 -159.18464 
L 630.649727 -158.784681 
L 631.325802 -158.384723 
L 631.980396 -157.984764 
L 632.606521 -157.584806 
L 633.198509 -157.184847 
L 633.752206 -156.784889 
L 634.265034 -156.384931 
L 634.735928 -155.984972 
L 635.165147 -155.585014 
L 635.554002 -155.185055 
L 635.904524 -154.785097 
L 636.219124 -154.385138 
L 636.50026 -153.98518 
L 636.750164 -153.585221 
L 636.970634 -153.185263 
L 637.162902 -152.785305 
L 637.327581 -152.385346 
L 637.464692 -151.985388 
L 637.573737 -151.585429 
L 637.653824 -151.185471 
L 637.703818 -150.785512 
L 637.7225 -150.385554 
L 637.70873 -149.985595 
L 637.661587 -149.585637 
L 637.580485 -149.185679 
L 637.465253 -148.78572 
L 637.316165 -148.385762 
L 637.133935 -147.985803 
L 636.919664 -147.585845 
L 636.674762 -147.185886 
L 636.400858 -146.785928 
L 636.09971 -146.385969 
L 635.773147 -145.986011 
L 635.42303 -145.586053 
L 635.051274 -145.186094 
L 634.659883 -144.786136 
L 634.251018 -144.386177 
L 633.827062 -143.986219 
L 633.390663 -143.58626 
L 632.944726 -143.186302 
L 632.492358 -142.786344 
L 632.036746 -142.386385 
L 631.580986 -141.986427 
L 631.127882 -141.586468 
L 630.679741 -141.18651 
L 630.23819 -140.786551 
L 629.804054 -140.386593 
L 629.377306 -139.986634 
L 628.957107 -139.586676 
L 628.541932 -139.186718 
L 628.129772 -138.786759 
L 627.718393 -138.386801 
L 627.30562 -137.986842 
L 626.889617 -137.586884 
L 626.469135 -137.186925 
L 626.043696 -136.786967 
L 625.613704 -136.387008 
L 625.180465 -135.98705 
L 624.746125 -135.587092 
L 624.313528 -135.187133 
L 623.886021 -134.787175 
L 623.467216 -134.387216 
L 623.060749 -133.987258 
L 622.670052 -133.587299 
L 622.298154 -133.187341 
L 621.947538 -132.787382 
L 621.620058 -132.387424 
L 621.316904 -131.987466 
L 621.038627 -131.587507 
z
" id="m269dee6639" style="stroke:#000000;stroke-opacity:0.3;"/>
    </defs>
    <g clip-path="url(#p528ae973ee)">
     <use style="fill:#bfbf00;fill-opacity:0.3;stroke:#000000;stroke-opacity:0.3;" x="0.0" xlink:href="#m269dee6639" y="465.868"/>
    </g>
   </g>
   <g id="LineCollection_1">
    <path clip-path="url(#p528ae973ee)" d="M 89.0225 67.674779 
L 107.6225 67.674779 
" style="fill:none;stroke:#ff0000;"/>
    <path clip-path="url(#p528ae973ee)" d="M 163.4225 189.622207 
L 182.0225 189.622207 
" style="fill:none;stroke:#ff0000;"/>
    <path clip-path="url(#p528ae973ee)" d="M 237.8225 194.065636 
L 256.4225 194.065636 
" style="fill:none;stroke:#ff0000;"/>
    <path clip-path="url(#p528ae973ee)" d="M 312.2225 195.94175 
L 330.8225 195.94175 
" style="fill:none;stroke:#ff0000;"/>
    <path clip-path="url(#p528ae973ee)" d="M 386.6225 197.916607 
L 405.2225 197.916607 
" style="fill:none;stroke:#ff0000;"/>
    <path clip-path="url(#p528ae973ee)" d="M 461.0225 197.965979 
L 479.6225 197.965979 
" style="fill:none;stroke:#ff0000;"/>
    <path clip-path="url(#p528ae973ee)" d="M 535.4225 198.01535 
L 554.0225 198.01535 
" style="fill:none;stroke:#ff0000;"/>
    <path clip-path="url(#p528ae973ee)" d="M 609.8225 316.309293 
L 628.4225 316.309293 
" style="fill:none;stroke:#ff0000;"/>
   </g>
   <g id="patch_3">
    <path d="M 693.5225 368.74175 
L 693.5225 23.14175 
" style="fill:none;stroke:#000000;stroke-linecap:square;stroke-linejoin:miter;"/>
   </g>
   <g id="patch_4">
    <path d="M 23.9225 23.14175 
L 693.5225 23.14175 
" style="fill:none;stroke:#000000;stroke-linecap:square;stroke-linejoin:miter;"/>
   </g>
   <g id="patch_5">
    <path d="M 23.9225 368.74175 
L 23.9225 23.14175 
" style="fill:none;stroke:#000000;stroke-linecap:square;stroke-linejoin:miter;"/>
   </g>
   <g id="patch_6">
    <path d="M 23.9225 368.74175 
L 693.5225 368.74175 
" style="fill:none;stroke:#000000;stroke-linecap:square;stroke-linejoin:miter;"/>
   </g>
   <g id="matplotlib.axis_1">
    <g id="xtick_1">
     <g id="line2d_1">
      <defs>
       <path d="M 0 0 
L 0 -4 
" id="ma8211d0d09" style="stroke:#000000;stroke-width:0.5;"/>
      </defs>
      <g>
       <use style="stroke:#000000;stroke-width:0.5;" x="98.3225" xlink:href="#ma8211d0d09" y="368.74175"/>
      </g>
     </g>
     <g id="line2d_2">
      <defs>
       <path d="M 0 0 
L 0 4 
" id="m74ef1c427d" style="stroke:#000000;stroke-width:0.5;"/>
      </defs>
      <g>
       <use style="stroke:#000000;stroke-width:0.5;" x="98.3225" xlink:href="#m74ef1c427d" y="23.14175"/>
      </g>
     </g>
     <g id="text_1">
      <!-- Defector -->
      <defs>
       <path d="M 30.609375 48.390625 
Q 23.390625 48.390625 19.1875 42.75 
Q 14.984375 37.109375 14.984375 27.296875 
Q 14.984375 17.484375 19.15625 11.84375 
Q 23.34375 6.203125 30.609375 6.203125 
Q 37.796875 6.203125 41.984375 11.859375 
Q 46.1875 17.53125 46.1875 27.296875 
Q 46.1875 37.015625 41.984375 42.703125 
Q 37.796875 48.390625 30.609375 48.390625 
M 30.609375 56 
Q 42.328125 56 49.015625 48.375 
Q 55.71875 40.765625 55.71875 27.296875 
Q 55.71875 13.875 49.015625 6.21875 
Q 42.328125 -1.421875 30.609375 -1.421875 
Q 18.84375 -1.421875 12.171875 6.21875 
Q 5.515625 13.875 5.515625 27.296875 
Q 5.515625 40.765625 12.171875 48.375 
Q 18.84375 56 30.609375 56 
" id="BitstreamVeraSans-Roman-6f"/>
       <path d="M 48.78125 52.59375 
L 48.78125 44.1875 
Q 44.96875 46.296875 41.140625 47.34375 
Q 37.3125 48.390625 33.40625 48.390625 
Q 24.65625 48.390625 19.8125 42.84375 
Q 14.984375 37.3125 14.984375 27.296875 
Q 14.984375 17.28125 19.8125 11.734375 
Q 24.65625 6.203125 33.40625 6.203125 
Q 37.3125 6.203125 41.140625 7.25 
Q 44.96875 8.296875 48.78125 10.40625 
L 48.78125 2.09375 
Q 45.015625 0.34375 40.984375 -0.53125 
Q 36.96875 -1.421875 32.421875 -1.421875 
Q 20.0625 -1.421875 12.78125 6.34375 
Q 5.515625 14.109375 5.515625 27.296875 
Q 5.515625 40.671875 12.859375 48.328125 
Q 20.21875 56 33.015625 56 
Q 37.15625 56 41.109375 55.140625 
Q 45.0625 54.296875 48.78125 52.59375 
" id="BitstreamVeraSans-Roman-63"/>
       <path d="M 18.3125 70.21875 
L 18.3125 54.6875 
L 36.8125 54.6875 
L 36.8125 47.703125 
L 18.3125 47.703125 
L 18.3125 18.015625 
Q 18.3125 11.328125 20.140625 9.421875 
Q 21.96875 7.515625 27.59375 7.515625 
L 36.8125 7.515625 
L 36.8125 0 
L 27.59375 0 
Q 17.1875 0 13.234375 3.875 
Q 9.28125 7.765625 9.28125 18.015625 
L 9.28125 47.703125 
L 2.6875 47.703125 
L 2.6875 54.6875 
L 9.28125 54.6875 
L 9.28125 70.21875 
z
" id="BitstreamVeraSans-Roman-74"/>
       <path d="M 41.109375 46.296875 
Q 39.59375 47.171875 37.8125 47.578125 
Q 36.03125 48 33.890625 48 
Q 26.265625 48 22.1875 43.046875 
Q 18.109375 38.09375 18.109375 28.8125 
L 18.109375 0 
L 9.078125 0 
L 9.078125 54.6875 
L 18.109375 54.6875 
L 18.109375 46.1875 
Q 20.953125 51.171875 25.484375 53.578125 
Q 30.03125 56 36.53125 56 
Q 37.453125 56 38.578125 55.875 
Q 39.703125 55.765625 41.0625 55.515625 
z
" id="BitstreamVeraSans-Roman-72"/>
       <path d="M 19.671875 64.796875 
L 19.671875 8.109375 
L 31.59375 8.109375 
Q 46.6875 8.109375 53.6875 14.9375 
Q 60.6875 21.78125 60.6875 36.53125 
Q 60.6875 51.171875 53.6875 57.984375 
Q 46.6875 64.796875 31.59375 64.796875 
z
M 9.8125 72.90625 
L 30.078125 72.90625 
Q 51.265625 72.90625 61.171875 64.09375 
Q 71.09375 55.28125 71.09375 36.53125 
Q 71.09375 17.671875 61.125 8.828125 
Q 51.171875 0 30.078125 0 
L 9.8125 0 
z
" id="BitstreamVeraSans-Roman-44"/>
       <path d="M 37.109375 75.984375 
L 37.109375 68.5 
L 28.515625 68.5 
Q 23.6875 68.5 21.796875 66.546875 
Q 19.921875 64.59375 19.921875 59.515625 
L 19.921875 54.6875 
L 34.71875 54.6875 
L 34.71875 47.703125 
L 19.921875 47.703125 
L 19.921875 0 
L 10.890625 0 
L 10.890625 47.703125 
L 2.296875 47.703125 
L 2.296875 54.6875 
L 10.890625 54.6875 
L 10.890625 58.5 
Q 10.890625 67.625 15.140625 71.796875 
Q 19.390625 75.984375 28.609375 75.984375 
z
" id="BitstreamVeraSans-Roman-66"/>
       <path d="M 56.203125 29.59375 
L 56.203125 25.203125 
L 14.890625 25.203125 
Q 15.484375 15.921875 20.484375 11.0625 
Q 25.484375 6.203125 34.421875 6.203125 
Q 39.59375 6.203125 44.453125 7.46875 
Q 49.3125 8.734375 54.109375 11.28125 
L 54.109375 2.78125 
Q 49.265625 0.734375 44.1875 -0.34375 
Q 39.109375 -1.421875 33.890625 -1.421875 
Q 20.796875 -1.421875 13.15625 6.1875 
Q 5.515625 13.8125 5.515625 26.8125 
Q 5.515625 40.234375 12.765625 48.109375 
Q 20.015625 56 32.328125 56 
Q 43.359375 56 49.78125 48.890625 
Q 56.203125 41.796875 56.203125 29.59375 
M 47.21875 32.234375 
Q 47.125 39.59375 43.09375 43.984375 
Q 39.0625 48.390625 32.421875 48.390625 
Q 24.90625 48.390625 20.390625 44.140625 
Q 15.875 39.890625 15.1875 32.171875 
z
" id="BitstreamVeraSans-Roman-65"/>
      </defs>
      <g transform="translate(100.53 407.28175)rotate(-90.0)scale(0.08 -0.08)">
       <use xlink:href="#BitstreamVeraSans-Roman-44"/>
       <use x="77.001953125" xlink:href="#BitstreamVeraSans-Roman-65"/>
       <use x="138.525390625" xlink:href="#BitstreamVeraSans-Roman-66"/>
       <use x="173.73046875" xlink:href="#BitstreamVeraSans-Roman-65"/>
       <use x="235.25390625" xlink:href="#BitstreamVeraSans-Roman-63"/>
       <use x="290.234375" xlink:href="#BitstreamVeraSans-Roman-74"/>
       <use x="329.443359375" xlink:href="#BitstreamVeraSans-Roman-6f"/>
       <use x="390.625" xlink:href="#BitstreamVeraSans-Roman-72"/>
      </g>
     </g>
    </g>
    <g id="xtick_2">
     <g id="line2d_3">
      <g>
       <use style="stroke:#000000;stroke-width:0.5;" x="172.7225" xlink:href="#ma8211d0d09" y="368.74175"/>
      </g>
     </g>
     <g id="line2d_4">
      <g>
       <use style="stroke:#000000;stroke-width:0.5;" x="172.7225" xlink:href="#m74ef1c427d" y="23.14175"/>
      </g>
     </g>
     <g id="text_2">
      <!-- Bully -->
      <defs>
       <path d="M 8.5 21.578125 
L 8.5 54.6875 
L 17.484375 54.6875 
L 17.484375 21.921875 
Q 17.484375 14.15625 20.5 10.265625 
Q 23.53125 6.390625 29.59375 6.390625 
Q 36.859375 6.390625 41.078125 11.03125 
Q 45.3125 15.671875 45.3125 23.6875 
L 45.3125 54.6875 
L 54.296875 54.6875 
L 54.296875 0 
L 45.3125 0 
L 45.3125 8.40625 
Q 42.046875 3.421875 37.71875 1 
Q 33.40625 -1.421875 27.6875 -1.421875 
Q 18.265625 -1.421875 13.375 4.4375 
Q 8.5 10.296875 8.5 21.578125 
" id="BitstreamVeraSans-Roman-75"/>
       <path d="M 9.421875 75.984375 
L 18.40625 75.984375 
L 18.40625 0 
L 9.421875 0 
z
" id="BitstreamVeraSans-Roman-6c"/>
       <path d="M 19.671875 34.8125 
L 19.671875 8.109375 
L 35.5 8.109375 
Q 43.453125 8.109375 47.28125 11.40625 
Q 51.125 14.703125 51.125 21.484375 
Q 51.125 28.328125 47.28125 31.5625 
Q 43.453125 34.8125 35.5 34.8125 
z
M 19.671875 64.796875 
L 19.671875 42.828125 
L 34.28125 42.828125 
Q 41.5 42.828125 45.03125 45.53125 
Q 48.578125 48.25 48.578125 53.8125 
Q 48.578125 59.328125 45.03125 62.0625 
Q 41.5 64.796875 34.28125 64.796875 
z
M 9.8125 72.90625 
L 35.015625 72.90625 
Q 46.296875 72.90625 52.390625 68.21875 
Q 58.5 63.53125 58.5 54.890625 
Q 58.5 48.1875 55.375 44.234375 
Q 52.25 40.28125 46.1875 39.3125 
Q 53.46875 37.75 57.5 32.78125 
Q 61.53125 27.828125 61.53125 20.40625 
Q 61.53125 10.640625 54.890625 5.3125 
Q 48.25 0 35.984375 0 
L 9.8125 0 
z
" id="BitstreamVeraSans-Roman-42"/>
       <path d="M 32.171875 -5.078125 
Q 28.375 -14.84375 24.75 -17.8125 
Q 21.140625 -20.796875 15.09375 -20.796875 
L 7.90625 -20.796875 
L 7.90625 -13.28125 
L 13.1875 -13.28125 
Q 16.890625 -13.28125 18.9375 -11.515625 
Q 21 -9.765625 23.484375 -3.21875 
L 25.09375 0.875 
L 2.984375 54.6875 
L 12.5 54.6875 
L 29.59375 11.921875 
L 46.6875 54.6875 
L 56.203125 54.6875 
z
" id="BitstreamVeraSans-Roman-79"/>
      </defs>
      <g transform="translate(174.93 392.4805)rotate(-90.0)scale(0.08 -0.08)">
       <use xlink:href="#BitstreamVeraSans-Roman-42"/>
       <use x="68.603515625" xlink:href="#BitstreamVeraSans-Roman-75"/>
       <use x="131.982421875" xlink:href="#BitstreamVeraSans-Roman-6c"/>
       <use x="159.765625" xlink:href="#BitstreamVeraSans-Roman-6c"/>
       <use x="187.548828125" xlink:href="#BitstreamVeraSans-Roman-79"/>
      </g>
     </g>
    </g>
    <g id="xtick_3">
     <g id="line2d_5">
      <g>
       <use style="stroke:#000000;stroke-width:0.5;" x="247.1225" xlink:href="#ma8211d0d09" y="368.74175"/>
      </g>
     </g>
     <g id="line2d_6">
      <g>
       <use style="stroke:#000000;stroke-width:0.5;" x="247.1225" xlink:href="#m74ef1c427d" y="23.14175"/>
      </g>
     </g>
     <g id="text_3">
      <!-- Anti Tit For Tat -->
      <defs>
       <path d="M 54.890625 33.015625 
L 54.890625 0 
L 45.90625 0 
L 45.90625 32.71875 
Q 45.90625 40.484375 42.875 44.328125 
Q 39.84375 48.1875 33.796875 48.1875 
Q 26.515625 48.1875 22.3125 43.546875 
Q 18.109375 38.921875 18.109375 30.90625 
L 18.109375 0 
L 9.078125 0 
L 9.078125 54.6875 
L 18.109375 54.6875 
L 18.109375 46.1875 
Q 21.34375 51.125 25.703125 53.5625 
Q 30.078125 56 35.796875 56 
Q 45.21875 56 50.046875 50.171875 
Q 54.890625 44.34375 54.890625 33.015625 
" id="BitstreamVeraSans-Roman-6e"/>
       <path d="M 34.28125 27.484375 
Q 23.390625 27.484375 19.1875 25 
Q 14.984375 22.515625 14.984375 16.5 
Q 14.984375 11.71875 18.140625 8.90625 
Q 21.296875 6.109375 26.703125 6.109375 
Q 34.1875 6.109375 38.703125 11.40625 
Q 43.21875 16.703125 43.21875 25.484375 
L 43.21875 27.484375 
z
M 52.203125 31.203125 
L 52.203125 0 
L 43.21875 0 
L 43.21875 8.296875 
Q 40.140625 3.328125 35.546875 0.953125 
Q 30.953125 -1.421875 24.3125 -1.421875 
Q 15.921875 -1.421875 10.953125 3.296875 
Q 6 8.015625 6 15.921875 
Q 6 25.140625 12.171875 29.828125 
Q 18.359375 34.515625 30.609375 34.515625 
L 43.21875 34.515625 
L 43.21875 35.40625 
Q 43.21875 41.609375 39.140625 45 
Q 35.0625 48.390625 27.6875 48.390625 
Q 23 48.390625 18.546875 47.265625 
Q 14.109375 46.140625 10.015625 43.890625 
L 10.015625 52.203125 
Q 14.9375 54.109375 19.578125 55.046875 
Q 24.21875 56 28.609375 56 
Q 40.484375 56 46.34375 49.84375 
Q 52.203125 43.703125 52.203125 31.203125 
" id="BitstreamVeraSans-Roman-61"/>
       <path d="M 34.1875 63.1875 
L 20.796875 26.90625 
L 47.609375 26.90625 
z
M 28.609375 72.90625 
L 39.796875 72.90625 
L 67.578125 0 
L 57.328125 0 
L 50.6875 18.703125 
L 17.828125 18.703125 
L 11.1875 0 
L 0.78125 0 
z
" id="BitstreamVeraSans-Roman-41"/>
       <path d="M -0.296875 72.90625 
L 61.375 72.90625 
L 61.375 64.59375 
L 35.5 64.59375 
L 35.5 0 
L 25.59375 0 
L 25.59375 64.59375 
L -0.296875 64.59375 
z
" id="BitstreamVeraSans-Roman-54"/>
       <path id="BitstreamVeraSans-Roman-20"/>
       <path d="M 9.8125 72.90625 
L 51.703125 72.90625 
L 51.703125 64.59375 
L 19.671875 64.59375 
L 19.671875 43.109375 
L 48.578125 43.109375 
L 48.578125 34.8125 
L 19.671875 34.8125 
L 19.671875 0 
L 9.8125 0 
z
" id="BitstreamVeraSans-Roman-46"/>
       <path d="M 9.421875 54.6875 
L 18.40625 54.6875 
L 18.40625 0 
L 9.421875 0 
z
M 9.421875 75.984375 
L 18.40625 75.984375 
L 18.40625 64.59375 
L 9.421875 64.59375 
z
" id="BitstreamVeraSans-Roman-69"/>
      </defs>
      <g transform="translate(249.33 432.198)rotate(-90.0)scale(0.08 -0.08)">
       <use xlink:href="#BitstreamVeraSans-Roman-41"/>
       <use x="68.408203125" xlink:href="#BitstreamVeraSans-Roman-6e"/>
       <use x="131.787109375" xlink:href="#BitstreamVeraSans-Roman-74"/>
       <use x="170.99609375" xlink:href="#BitstreamVeraSans-Roman-69"/>
       <use x="198.779296875" xlink:href="#BitstreamVeraSans-Roman-20"/>
       <use x="230.56640625" xlink:href="#BitstreamVeraSans-Roman-54"/>
       <use x="291.603515625" xlink:href="#BitstreamVeraSans-Roman-69"/>
       <use x="319.38671875" xlink:href="#BitstreamVeraSans-Roman-74"/>
       <use x="358.595703125" xlink:href="#BitstreamVeraSans-Roman-20"/>
       <use x="390.3828125" xlink:href="#BitstreamVeraSans-Roman-46"/>
       <use x="447.85546875" xlink:href="#BitstreamVeraSans-Roman-6f"/>
       <use x="509.037109375" xlink:href="#BitstreamVeraSans-Roman-72"/>
       <use x="550.150390625" xlink:href="#BitstreamVeraSans-Roman-20"/>
       <use x="581.9375" xlink:href="#BitstreamVeraSans-Roman-54"/>
       <use x="642.771484375" xlink:href="#BitstreamVeraSans-Roman-61"/>
       <use x="704.05078125" xlink:href="#BitstreamVeraSans-Roman-74"/>
      </g>
     </g>
    </g>
    <g id="xtick_4">
     <g id="line2d_7">
      <g>
       <use style="stroke:#000000;stroke-width:0.5;" x="321.5225" xlink:href="#ma8211d0d09" y="368.74175"/>
      </g>
     </g>
     <g id="line2d_8">
      <g>
       <use style="stroke:#000000;stroke-width:0.5;" x="321.5225" xlink:href="#m74ef1c427d" y="23.14175"/>
      </g>
     </g>
     <g id="text_4">
      <!-- Alternator -->
      <g transform="translate(323.73 413.0755)rotate(-90.0)scale(0.08 -0.08)">
       <use xlink:href="#BitstreamVeraSans-Roman-41"/>
       <use x="68.408203125" xlink:href="#BitstreamVeraSans-Roman-6c"/>
       <use x="96.19140625" xlink:href="#BitstreamVeraSans-Roman-74"/>
       <use x="135.400390625" xlink:href="#BitstreamVeraSans-Roman-65"/>
       <use x="196.923828125" xlink:href="#BitstreamVeraSans-Roman-72"/>
       <use x="238.021484375" xlink:href="#BitstreamVeraSans-Roman-6e"/>
       <use x="301.400390625" xlink:href="#BitstreamVeraSans-Roman-61"/>
       <use x="362.6796875" xlink:href="#BitstreamVeraSans-Roman-74"/>
       <use x="401.888671875" xlink:href="#BitstreamVeraSans-Roman-6f"/>
       <use x="463.0703125" xlink:href="#BitstreamVeraSans-Roman-72"/>
      </g>
     </g>
    </g>
    <g id="xtick_5">
     <g id="line2d_9">
      <g>
       <use style="stroke:#000000;stroke-width:0.5;" x="395.9225" xlink:href="#ma8211d0d09" y="368.74175"/>
      </g>
     </g>
     <g id="line2d_10">
      <g>
       <use style="stroke:#000000;stroke-width:0.5;" x="395.9225" xlink:href="#m74ef1c427d" y="23.14175"/>
      </g>
     </g>
     <g id="text_5">
      <!-- Win-Stay Lose-Shift -->
      <defs>
       <path d="M 3.328125 72.90625 
L 13.28125 72.90625 
L 28.609375 11.28125 
L 43.890625 72.90625 
L 54.984375 72.90625 
L 70.3125 11.28125 
L 85.59375 72.90625 
L 95.609375 72.90625 
L 77.296875 0 
L 64.890625 0 
L 49.515625 63.28125 
L 33.984375 0 
L 21.578125 0 
z
" id="BitstreamVeraSans-Roman-57"/>
       <path d="M 53.515625 70.515625 
L 53.515625 60.890625 
Q 47.90625 63.578125 42.921875 64.890625 
Q 37.9375 66.21875 33.296875 66.21875 
Q 25.25 66.21875 20.875 63.09375 
Q 16.5 59.96875 16.5 54.203125 
Q 16.5 49.359375 19.40625 46.890625 
Q 22.3125 44.4375 30.421875 42.921875 
L 36.375 41.703125 
Q 47.40625 39.59375 52.65625 34.296875 
Q 57.90625 29 57.90625 20.125 
Q 57.90625 9.515625 50.796875 4.046875 
Q 43.703125 -1.421875 29.984375 -1.421875 
Q 24.8125 -1.421875 18.96875 -0.25 
Q 13.140625 0.921875 6.890625 3.21875 
L 6.890625 13.375 
Q 12.890625 10.015625 18.65625 8.296875 
Q 24.421875 6.59375 29.984375 6.59375 
Q 38.421875 6.59375 43.015625 9.90625 
Q 47.609375 13.234375 47.609375 19.390625 
Q 47.609375 24.75 44.3125 27.78125 
Q 41.015625 30.8125 33.5 32.328125 
L 27.484375 33.5 
Q 16.453125 35.6875 11.515625 40.375 
Q 6.59375 45.0625 6.59375 53.421875 
Q 6.59375 63.09375 13.40625 68.65625 
Q 20.21875 74.21875 32.171875 74.21875 
Q 37.3125 74.21875 42.625 73.28125 
Q 47.953125 72.359375 53.515625 70.515625 
" id="BitstreamVeraSans-Roman-53"/>
       <path d="M 9.8125 72.90625 
L 19.671875 72.90625 
L 19.671875 8.296875 
L 55.171875 8.296875 
L 55.171875 0 
L 9.8125 0 
z
" id="BitstreamVeraSans-Roman-4c"/>
       <path d="M 54.890625 33.015625 
L 54.890625 0 
L 45.90625 0 
L 45.90625 32.71875 
Q 45.90625 40.484375 42.875 44.328125 
Q 39.84375 48.1875 33.796875 48.1875 
Q 26.515625 48.1875 22.3125 43.546875 
Q 18.109375 38.921875 18.109375 30.90625 
L 18.109375 0 
L 9.078125 0 
L 9.078125 75.984375 
L 18.109375 75.984375 
L 18.109375 46.1875 
Q 21.34375 51.125 25.703125 53.5625 
Q 30.078125 56 35.796875 56 
Q 45.21875 56 50.046875 50.171875 
Q 54.890625 44.34375 54.890625 33.015625 
" id="BitstreamVeraSans-Roman-68"/>
       <path d="M 44.28125 53.078125 
L 44.28125 44.578125 
Q 40.484375 46.53125 36.375 47.5 
Q 32.28125 48.484375 27.875 48.484375 
Q 21.1875 48.484375 17.84375 46.4375 
Q 14.5 44.390625 14.5 40.28125 
Q 14.5 37.15625 16.890625 35.375 
Q 19.28125 33.59375 26.515625 31.984375 
L 29.59375 31.296875 
Q 39.15625 29.25 43.1875 25.515625 
Q 47.21875 21.78125 47.21875 15.09375 
Q 47.21875 7.46875 41.1875 3.015625 
Q 35.15625 -1.421875 24.609375 -1.421875 
Q 20.21875 -1.421875 15.453125 -0.5625 
Q 10.6875 0.296875 5.421875 2 
L 5.421875 11.28125 
Q 10.40625 8.6875 15.234375 7.390625 
Q 20.0625 6.109375 24.8125 6.109375 
Q 31.15625 6.109375 34.5625 8.28125 
Q 37.984375 10.453125 37.984375 14.40625 
Q 37.984375 18.0625 35.515625 20.015625 
Q 33.0625 21.96875 24.703125 23.78125 
L 21.578125 24.515625 
Q 13.234375 26.265625 9.515625 29.90625 
Q 5.8125 33.546875 5.8125 39.890625 
Q 5.8125 47.609375 11.28125 51.796875 
Q 16.75 56 26.8125 56 
Q 31.78125 56 36.171875 55.265625 
Q 40.578125 54.546875 44.28125 53.078125 
" id="BitstreamVeraSans-Roman-73"/>
       <path d="M 4.890625 31.390625 
L 31.203125 31.390625 
L 31.203125 23.390625 
L 4.890625 23.390625 
z
" id="BitstreamVeraSans-Roman-2d"/>
      </defs>
      <g transform="translate(398.13 450.873)rotate(-90.0)scale(0.08 -0.08)">
       <use xlink:href="#BitstreamVeraSans-Roman-57"/>
       <use x="98.845703125" xlink:href="#BitstreamVeraSans-Roman-69"/>
       <use x="126.62890625" xlink:href="#BitstreamVeraSans-Roman-6e"/>
       <use x="190.0078125" xlink:href="#BitstreamVeraSans-Roman-2d"/>
       <use x="226.091796875" xlink:href="#BitstreamVeraSans-Roman-53"/>
       <use x="289.568359375" xlink:href="#BitstreamVeraSans-Roman-74"/>
       <use x="328.77734375" xlink:href="#BitstreamVeraSans-Roman-61"/>
       <use x="390.056640625" xlink:href="#BitstreamVeraSans-Roman-79"/>
       <use x="449.236328125" xlink:href="#BitstreamVeraSans-Roman-20"/>
       <use x="481.0234375" xlink:href="#BitstreamVeraSans-Roman-4c"/>
       <use x="536.720703125" xlink:href="#BitstreamVeraSans-Roman-6f"/>
       <use x="597.90234375" xlink:href="#BitstreamVeraSans-Roman-73"/>
       <use x="650.001953125" xlink:href="#BitstreamVeraSans-Roman-65"/>
       <use x="711.525390625" xlink:href="#BitstreamVeraSans-Roman-2d"/>
       <use x="747.609375" xlink:href="#BitstreamVeraSans-Roman-53"/>
       <use x="811.0859375" xlink:href="#BitstreamVeraSans-Roman-68"/>
       <use x="874.46484375" xlink:href="#BitstreamVeraSans-Roman-69"/>
       <use x="902.248046875" xlink:href="#BitstreamVeraSans-Roman-66"/>
       <use x="937.4375" xlink:href="#BitstreamVeraSans-Roman-74"/>
      </g>
     </g>
    </g>
    <g id="xtick_6">
     <g id="line2d_11">
      <g>
       <use style="stroke:#000000;stroke-width:0.5;" x="470.3225" xlink:href="#ma8211d0d09" y="368.74175"/>
      </g>
     </g>
     <g id="line2d_12">
      <g>
       <use style="stroke:#000000;stroke-width:0.5;" x="470.3225" xlink:href="#m74ef1c427d" y="23.14175"/>
      </g>
     </g>
     <g id="text_6">
      <!-- Tit For Tat -->
      <g transform="translate(472.53 413.75425)rotate(-90.0)scale(0.08 -0.08)">
       <use xlink:href="#BitstreamVeraSans-Roman-54"/>
       <use x="61.037109375" xlink:href="#BitstreamVeraSans-Roman-69"/>
       <use x="88.8203125" xlink:href="#BitstreamVeraSans-Roman-74"/>
       <use x="128.029296875" xlink:href="#BitstreamVeraSans-Roman-20"/>
       <use x="159.81640625" xlink:href="#BitstreamVeraSans-Roman-46"/>
       <use x="217.2890625" xlink:href="#BitstreamVeraSans-Roman-6f"/>
       <use x="278.470703125" xlink:href="#BitstreamVeraSans-Roman-72"/>
       <use x="319.583984375" xlink:href="#BitstreamVeraSans-Roman-20"/>
       <use x="351.37109375" xlink:href="#BitstreamVeraSans-Roman-54"/>
       <use x="412.205078125" xlink:href="#BitstreamVeraSans-Roman-61"/>
       <use x="473.484375" xlink:href="#BitstreamVeraSans-Roman-74"/>
      </g>
     </g>
    </g>
    <g id="xtick_7">
     <g id="line2d_13">
      <g>
       <use style="stroke:#000000;stroke-width:0.5;" x="544.7225" xlink:href="#ma8211d0d09" y="368.74175"/>
      </g>
     </g>
     <g id="line2d_14">
      <g>
       <use style="stroke:#000000;stroke-width:0.5;" x="544.7225" xlink:href="#m74ef1c427d" y="23.14175"/>
      </g>
     </g>
     <g id="text_7">
      <!-- Suspicious Tit For Tat -->
      <defs>
       <path d="M 18.109375 8.203125 
L 18.109375 -20.796875 
L 9.078125 -20.796875 
L 9.078125 54.6875 
L 18.109375 54.6875 
L 18.109375 46.390625 
Q 20.953125 51.265625 25.265625 53.625 
Q 29.59375 56 35.59375 56 
Q 45.5625 56 51.78125 48.09375 
Q 58.015625 40.1875 58.015625 27.296875 
Q 58.015625 14.40625 51.78125 6.484375 
Q 45.5625 -1.421875 35.59375 -1.421875 
Q 29.59375 -1.421875 25.265625 0.953125 
Q 20.953125 3.328125 18.109375 8.203125 
M 48.6875 27.296875 
Q 48.6875 37.203125 44.609375 42.84375 
Q 40.53125 48.484375 33.40625 48.484375 
Q 26.265625 48.484375 22.1875 42.84375 
Q 18.109375 37.203125 18.109375 27.296875 
Q 18.109375 17.390625 22.1875 11.75 
Q 26.265625 6.109375 33.40625 6.109375 
Q 40.53125 6.109375 44.609375 11.75 
Q 48.6875 17.390625 48.6875 27.296875 
" id="BitstreamVeraSans-Roman-70"/>
      </defs>
      <g transform="translate(546.93 458.668)rotate(-90.0)scale(0.08 -0.08)">
       <use xlink:href="#BitstreamVeraSans-Roman-53"/>
       <use x="63.4765625" xlink:href="#BitstreamVeraSans-Roman-75"/>
       <use x="126.85546875" xlink:href="#BitstreamVeraSans-Roman-73"/>
       <use x="178.955078125" xlink:href="#BitstreamVeraSans-Roman-70"/>
       <use x="242.431640625" xlink:href="#BitstreamVeraSans-Roman-69"/>
       <use x="270.21484375" xlink:href="#BitstreamVeraSans-Roman-63"/>
       <use x="325.1953125" xlink:href="#BitstreamVeraSans-Roman-69"/>
       <use x="352.978515625" xlink:href="#BitstreamVeraSans-Roman-6f"/>
       <use x="414.16015625" xlink:href="#BitstreamVeraSans-Roman-75"/>
       <use x="477.5390625" xlink:href="#BitstreamVeraSans-Roman-73"/>
       <use x="529.638671875" xlink:href="#BitstreamVeraSans-Roman-20"/>
       <use x="561.42578125" xlink:href="#BitstreamVeraSans-Roman-54"/>
       <use x="622.462890625" xlink:href="#BitstreamVeraSans-Roman-69"/>
       <use x="650.24609375" xlink:href="#BitstreamVeraSans-Roman-74"/>
       <use x="689.455078125" xlink:href="#BitstreamVeraSans-Roman-20"/>
       <use x="721.2421875" xlink:href="#BitstreamVeraSans-Roman-46"/>
       <use x="778.71484375" xlink:href="#BitstreamVeraSans-Roman-6f"/>
       <use x="839.896484375" xlink:href="#BitstreamVeraSans-Roman-72"/>
       <use x="881.009765625" xlink:href="#BitstreamVeraSans-Roman-20"/>
       <use x="912.796875" xlink:href="#BitstreamVeraSans-Roman-54"/>
       <use x="973.630859375" xlink:href="#BitstreamVeraSans-Roman-61"/>
       <use x="1034.91015625" xlink:href="#BitstreamVeraSans-Roman-74"/>
      </g>
     </g>
    </g>
    <g id="xtick_8">
     <g id="line2d_15">
      <g>
       <use style="stroke:#000000;stroke-width:0.5;" x="619.1225" xlink:href="#ma8211d0d09" y="368.74175"/>
      </g>
     </g>
     <g id="line2d_16">
      <g>
       <use style="stroke:#000000;stroke-width:0.5;" x="619.1225" xlink:href="#m74ef1c427d" y="23.14175"/>
      </g>
     </g>
     <g id="text_8">
      <!-- Cooperator -->
      <defs>
       <path d="M 64.40625 67.28125 
L 64.40625 56.890625 
Q 59.421875 61.53125 53.78125 63.8125 
Q 48.140625 66.109375 41.796875 66.109375 
Q 29.296875 66.109375 22.65625 58.46875 
Q 16.015625 50.828125 16.015625 36.375 
Q 16.015625 21.96875 22.65625 14.328125 
Q 29.296875 6.6875 41.796875 6.6875 
Q 48.140625 6.6875 53.78125 8.984375 
Q 59.421875 11.28125 64.40625 15.921875 
L 64.40625 5.609375 
Q 59.234375 2.09375 53.4375 0.328125 
Q 47.65625 -1.421875 41.21875 -1.421875 
Q 24.65625 -1.421875 15.125 8.703125 
Q 5.609375 18.84375 5.609375 36.375 
Q 5.609375 53.953125 15.125 64.078125 
Q 24.65625 74.21875 41.21875 74.21875 
Q 47.75 74.21875 53.53125 72.484375 
Q 59.328125 70.75 64.40625 67.28125 
" id="BitstreamVeraSans-Roman-43"/>
      </defs>
      <g transform="translate(621.33 417.6305)rotate(-90.0)scale(0.08 -0.08)">
       <use xlink:href="#BitstreamVeraSans-Roman-43"/>
       <use x="69.82421875" xlink:href="#BitstreamVeraSans-Roman-6f"/>
       <use x="131.005859375" xlink:href="#BitstreamVeraSans-Roman-6f"/>
       <use x="192.1875" xlink:href="#BitstreamVeraSans-Roman-70"/>
       <use x="255.6640625" xlink:href="#BitstreamVeraSans-Roman-65"/>
       <use x="317.1875" xlink:href="#BitstreamVeraSans-Roman-72"/>
       <use x="358.30078125" xlink:href="#BitstreamVeraSans-Roman-61"/>
       <use x="419.580078125" xlink:href="#BitstreamVeraSans-Roman-74"/>
       <use x="458.7890625" xlink:href="#BitstreamVeraSans-Roman-6f"/>
       <use x="519.970703125" xlink:href="#BitstreamVeraSans-Roman-72"/>
      </g>
     </g>
    </g>
   </g>
   <g id="matplotlib.axis_2">
    <g id="ytick_1">
     <g id="line2d_17">
      <defs>
       <path d="M 0 0 
L 4 0 
" id="m59e47487f8" style="stroke:#000000;stroke-width:0.5;"/>
      </defs>
      <g>
       <use style="stroke:#000000;stroke-width:0.5;" x="23.9225" xlink:href="#m59e47487f8" y="368.74175"/>
      </g>
     </g>
     <g id="line2d_18">
      <defs>
       <path d="M 0 0 
L -4 0 
" id="m7359ea50bc" style="stroke:#000000;stroke-width:0.5;"/>
      </defs>
      <g>
       <use style="stroke:#000000;stroke-width:0.5;" x="693.5225" xlink:href="#m7359ea50bc" y="368.74175"/>
      </g>
     </g>
     <g id="text_9">
      <!-- 1.0 -->
      <defs>
       <path d="M 31.78125 66.40625 
Q 24.171875 66.40625 20.328125 58.90625 
Q 16.5 51.421875 16.5 36.375 
Q 16.5 21.390625 20.328125 13.890625 
Q 24.171875 6.390625 31.78125 6.390625 
Q 39.453125 6.390625 43.28125 13.890625 
Q 47.125 21.390625 47.125 36.375 
Q 47.125 51.421875 43.28125 58.90625 
Q 39.453125 66.40625 31.78125 66.40625 
M 31.78125 74.21875 
Q 44.046875 74.21875 50.515625 64.515625 
Q 56.984375 54.828125 56.984375 36.375 
Q 56.984375 17.96875 50.515625 8.265625 
Q 44.046875 -1.421875 31.78125 -1.421875 
Q 19.53125 -1.421875 13.0625 8.265625 
Q 6.59375 17.96875 6.59375 36.375 
Q 6.59375 54.828125 13.0625 64.515625 
Q 19.53125 74.21875 31.78125 74.21875 
" id="BitstreamVeraSans-Roman-30"/>
       <path d="M 10.6875 12.40625 
L 21 12.40625 
L 21 0 
L 10.6875 0 
z
" id="BitstreamVeraSans-Roman-2e"/>
       <path d="M 12.40625 8.296875 
L 28.515625 8.296875 
L 28.515625 63.921875 
L 10.984375 60.40625 
L 10.984375 69.390625 
L 28.421875 72.90625 
L 38.28125 72.90625 
L 38.28125 8.296875 
L 54.390625 8.296875 
L 54.390625 0 
L 12.40625 0 
z
" id="BitstreamVeraSans-Roman-31"/>
      </defs>
      <g transform="translate(7.2 370.94925)scale(0.08 -0.08)">
       <use xlink:href="#BitstreamVeraSans-Roman-31"/>
       <use x="63.623046875" xlink:href="#BitstreamVeraSans-Roman-2e"/>
       <use x="95.41015625" xlink:href="#BitstreamVeraSans-Roman-30"/>
      </g>
     </g>
    </g>
    <g id="ytick_2">
     <g id="line2d_19">
      <g>
       <use style="stroke:#000000;stroke-width:0.5;" x="23.9225" xlink:href="#m59e47487f8" y="299.62175"/>
      </g>
     </g>
     <g id="line2d_20">
      <g>
       <use style="stroke:#000000;stroke-width:0.5;" x="693.5225" xlink:href="#m7359ea50bc" y="299.62175"/>
      </g>
     </g>
     <g id="text_10">
      <!-- 1.5 -->
      <defs>
       <path d="M 10.796875 72.90625 
L 49.515625 72.90625 
L 49.515625 64.59375 
L 19.828125 64.59375 
L 19.828125 46.734375 
Q 21.96875 47.46875 24.109375 47.828125 
Q 26.265625 48.1875 28.421875 48.1875 
Q 40.625 48.1875 47.75 41.5 
Q 54.890625 34.8125 54.890625 23.390625 
Q 54.890625 11.625 47.5625 5.09375 
Q 40.234375 -1.421875 26.90625 -1.421875 
Q 22.3125 -1.421875 17.546875 -0.640625 
Q 12.796875 0.140625 7.71875 1.703125 
L 7.71875 11.625 
Q 12.109375 9.234375 16.796875 8.0625 
Q 21.484375 6.890625 26.703125 6.890625 
Q 35.15625 6.890625 40.078125 11.328125 
Q 45.015625 15.765625 45.015625 23.390625 
Q 45.015625 31 40.078125 35.4375 
Q 35.15625 39.890625 26.703125 39.890625 
Q 22.75 39.890625 18.8125 39.015625 
Q 14.890625 38.140625 10.796875 36.28125 
z
" id="BitstreamVeraSans-Roman-35"/>
      </defs>
      <g transform="translate(7.2 301.82925)scale(0.08 -0.08)">
       <use xlink:href="#BitstreamVeraSans-Roman-31"/>
       <use x="63.623046875" xlink:href="#BitstreamVeraSans-Roman-2e"/>
       <use x="95.41015625" xlink:href="#BitstreamVeraSans-Roman-35"/>
      </g>
     </g>
    </g>
    <g id="ytick_3">
     <g id="line2d_21">
      <g>
       <use style="stroke:#000000;stroke-width:0.5;" x="23.9225" xlink:href="#m59e47487f8" y="230.50175"/>
      </g>
     </g>
     <g id="line2d_22">
      <g>
       <use style="stroke:#000000;stroke-width:0.5;" x="693.5225" xlink:href="#m7359ea50bc" y="230.50175"/>
      </g>
     </g>
     <g id="text_11">
      <!-- 2.0 -->
      <defs>
       <path d="M 19.1875 8.296875 
L 53.609375 8.296875 
L 53.609375 0 
L 7.328125 0 
L 7.328125 8.296875 
Q 12.9375 14.109375 22.625 23.890625 
Q 32.328125 33.6875 34.8125 36.53125 
Q 39.546875 41.84375 41.421875 45.53125 
Q 43.3125 49.21875 43.3125 52.78125 
Q 43.3125 58.59375 39.234375 62.25 
Q 35.15625 65.921875 28.609375 65.921875 
Q 23.96875 65.921875 18.8125 64.3125 
Q 13.671875 62.703125 7.8125 59.421875 
L 7.8125 69.390625 
Q 13.765625 71.78125 18.9375 73 
Q 24.125 74.21875 28.421875 74.21875 
Q 39.75 74.21875 46.484375 68.546875 
Q 53.21875 62.890625 53.21875 53.421875 
Q 53.21875 48.921875 51.53125 44.890625 
Q 49.859375 40.875 45.40625 35.40625 
Q 44.1875 33.984375 37.640625 27.21875 
Q 31.109375 20.453125 19.1875 8.296875 
" id="BitstreamVeraSans-Roman-32"/>
      </defs>
      <g transform="translate(7.2 232.70925)scale(0.08 -0.08)">
       <use xlink:href="#BitstreamVeraSans-Roman-32"/>
       <use x="63.623046875" xlink:href="#BitstreamVeraSans-Roman-2e"/>
       <use x="95.41015625" xlink:href="#BitstreamVeraSans-Roman-30"/>
      </g>
     </g>
    </g>
    <g id="ytick_4">
     <g id="line2d_23">
      <g>
       <use style="stroke:#000000;stroke-width:0.5;" x="23.9225" xlink:href="#m59e47487f8" y="161.38175"/>
      </g>
     </g>
     <g id="line2d_24">
      <g>
       <use style="stroke:#000000;stroke-width:0.5;" x="693.5225" xlink:href="#m7359ea50bc" y="161.38175"/>
      </g>
     </g>
     <g id="text_12">
      <!-- 2.5 -->
      <g transform="translate(7.2 163.58925)scale(0.08 -0.08)">
       <use xlink:href="#BitstreamVeraSans-Roman-32"/>
       <use x="63.623046875" xlink:href="#BitstreamVeraSans-Roman-2e"/>
       <use x="95.41015625" xlink:href="#BitstreamVeraSans-Roman-35"/>
      </g>
     </g>
    </g>
    <g id="ytick_5">
     <g id="line2d_25">
      <g>
       <use style="stroke:#000000;stroke-width:0.5;" x="23.9225" xlink:href="#m59e47487f8" y="92.26175"/>
      </g>
     </g>
     <g id="line2d_26">
      <g>
       <use style="stroke:#000000;stroke-width:0.5;" x="693.5225" xlink:href="#m7359ea50bc" y="92.26175"/>
      </g>
     </g>
     <g id="text_13">
      <!-- 3.0 -->
      <defs>
       <path d="M 40.578125 39.3125 
Q 47.65625 37.796875 51.625 33 
Q 55.609375 28.21875 55.609375 21.1875 
Q 55.609375 10.40625 48.1875 4.484375 
Q 40.765625 -1.421875 27.09375 -1.421875 
Q 22.515625 -1.421875 17.65625 -0.515625 
Q 12.796875 0.390625 7.625 2.203125 
L 7.625 11.71875 
Q 11.71875 9.328125 16.59375 8.109375 
Q 21.484375 6.890625 26.8125 6.890625 
Q 36.078125 6.890625 40.9375 10.546875 
Q 45.796875 14.203125 45.796875 21.1875 
Q 45.796875 27.640625 41.28125 31.265625 
Q 36.765625 34.90625 28.71875 34.90625 
L 20.21875 34.90625 
L 20.21875 43.015625 
L 29.109375 43.015625 
Q 36.375 43.015625 40.234375 45.921875 
Q 44.09375 48.828125 44.09375 54.296875 
Q 44.09375 59.90625 40.109375 62.90625 
Q 36.140625 65.921875 28.71875 65.921875 
Q 24.65625 65.921875 20.015625 65.03125 
Q 15.375 64.15625 9.8125 62.3125 
L 9.8125 71.09375 
Q 15.4375 72.65625 20.34375 73.4375 
Q 25.25 74.21875 29.59375 74.21875 
Q 40.828125 74.21875 47.359375 69.109375 
Q 53.90625 64.015625 53.90625 55.328125 
Q 53.90625 49.265625 50.4375 45.09375 
Q 46.96875 40.921875 40.578125 39.3125 
" id="BitstreamVeraSans-Roman-33"/>
      </defs>
      <g transform="translate(7.2 94.46925)scale(0.08 -0.08)">
       <use xlink:href="#BitstreamVeraSans-Roman-33"/>
       <use x="63.623046875" xlink:href="#BitstreamVeraSans-Roman-2e"/>
       <use x="95.41015625" xlink:href="#BitstreamVeraSans-Roman-30"/>
      </g>
     </g>
    </g>
    <g id="ytick_6">
     <g id="line2d_27">
      <g>
       <use style="stroke:#000000;stroke-width:0.5;" x="23.9225" xlink:href="#m59e47487f8" y="23.14175"/>
      </g>
     </g>
     <g id="line2d_28">
      <g>
       <use style="stroke:#000000;stroke-width:0.5;" x="693.5225" xlink:href="#m7359ea50bc" y="23.14175"/>
      </g>
     </g>
     <g id="text_14">
      <!-- 3.5 -->
      <g transform="translate(7.2 25.34925)scale(0.08 -0.08)">
       <use xlink:href="#BitstreamVeraSans-Roman-33"/>
       <use x="63.623046875" xlink:href="#BitstreamVeraSans-Roman-2e"/>
       <use x="95.41015625" xlink:href="#BitstreamVeraSans-Roman-35"/>
      </g>
     </g>
    </g>
   </g>
   <g id="text_15">
    <!-- Payoffs. Turns: 200, Repetitions: 100, Strategies: 8. -->
    <defs>
     <path d="M 11.71875 12.40625 
L 22.015625 12.40625 
L 22.015625 4 
L 14.015625 -11.625 
L 7.71875 -11.625 
L 11.71875 4 
z
" id="BitstreamVeraSans-Roman-2c"/>
     <path d="M 11.71875 12.40625 
L 22.015625 12.40625 
L 22.015625 0 
L 11.71875 0 
z
M 11.71875 51.703125 
L 22.015625 51.703125 
L 22.015625 39.3125 
L 11.71875 39.3125 
z
" id="BitstreamVeraSans-Roman-3a"/>
     <path d="M 31.78125 34.625 
Q 24.75 34.625 20.71875 30.859375 
Q 16.703125 27.09375 16.703125 20.515625 
Q 16.703125 13.921875 20.71875 10.15625 
Q 24.75 6.390625 31.78125 6.390625 
Q 38.8125 6.390625 42.859375 10.171875 
Q 46.921875 13.96875 46.921875 20.515625 
Q 46.921875 27.09375 42.890625 30.859375 
Q 38.875 34.625 31.78125 34.625 
M 21.921875 38.8125 
Q 15.578125 40.375 12.03125 44.71875 
Q 8.5 49.078125 8.5 55.328125 
Q 8.5 64.0625 14.71875 69.140625 
Q 20.953125 74.21875 31.78125 74.21875 
Q 42.671875 74.21875 48.875 69.140625 
Q 55.078125 64.0625 55.078125 55.328125 
Q 55.078125 49.078125 51.53125 44.71875 
Q 48 40.375 41.703125 38.8125 
Q 48.828125 37.15625 52.796875 32.3125 
Q 56.78125 27.484375 56.78125 20.515625 
Q 56.78125 9.90625 50.3125 4.234375 
Q 43.84375 -1.421875 31.78125 -1.421875 
Q 19.734375 -1.421875 13.25 4.234375 
Q 6.78125 9.90625 6.78125 20.515625 
Q 6.78125 27.484375 10.78125 32.3125 
Q 14.796875 37.15625 21.921875 38.8125 
M 18.3125 54.390625 
Q 18.3125 48.734375 21.84375 45.5625 
Q 25.390625 42.390625 31.78125 42.390625 
Q 38.140625 42.390625 41.71875 45.5625 
Q 45.3125 48.734375 45.3125 54.390625 
Q 45.3125 60.0625 41.71875 63.234375 
Q 38.140625 66.40625 31.78125 66.40625 
Q 25.390625 66.40625 21.84375 63.234375 
Q 18.3125 60.0625 18.3125 54.390625 
" id="BitstreamVeraSans-Roman-38"/>
     <path d="M 45.40625 27.984375 
Q 45.40625 37.75 41.375 43.109375 
Q 37.359375 48.484375 30.078125 48.484375 
Q 22.859375 48.484375 18.828125 43.109375 
Q 14.796875 37.75 14.796875 27.984375 
Q 14.796875 18.265625 18.828125 12.890625 
Q 22.859375 7.515625 30.078125 7.515625 
Q 37.359375 7.515625 41.375 12.890625 
Q 45.40625 18.265625 45.40625 27.984375 
M 54.390625 6.78125 
Q 54.390625 -7.171875 48.1875 -13.984375 
Q 42 -20.796875 29.203125 -20.796875 
Q 24.46875 -20.796875 20.265625 -20.09375 
Q 16.0625 -19.390625 12.109375 -17.921875 
L 12.109375 -9.1875 
Q 16.0625 -11.328125 19.921875 -12.34375 
Q 23.78125 -13.375 27.78125 -13.375 
Q 36.625 -13.375 41.015625 -8.765625 
Q 45.40625 -4.15625 45.40625 5.171875 
L 45.40625 9.625 
Q 42.625 4.78125 38.28125 2.390625 
Q 33.9375 0 27.875 0 
Q 17.828125 0 11.671875 7.65625 
Q 5.515625 15.328125 5.515625 27.984375 
Q 5.515625 40.671875 11.671875 48.328125 
Q 17.828125 56 27.875 56 
Q 33.9375 56 38.28125 53.609375 
Q 42.625 51.21875 45.40625 46.390625 
L 45.40625 54.6875 
L 54.390625 54.6875 
z
" id="BitstreamVeraSans-Roman-67"/>
     <path d="M 19.671875 64.796875 
L 19.671875 37.40625 
L 32.078125 37.40625 
Q 38.96875 37.40625 42.71875 40.96875 
Q 46.484375 44.53125 46.484375 51.125 
Q 46.484375 57.671875 42.71875 61.234375 
Q 38.96875 64.796875 32.078125 64.796875 
z
M 9.8125 72.90625 
L 32.078125 72.90625 
Q 44.34375 72.90625 50.609375 67.359375 
Q 56.890625 61.8125 56.890625 51.125 
Q 56.890625 40.328125 50.609375 34.8125 
Q 44.34375 29.296875 32.078125 29.296875 
L 19.671875 29.296875 
L 19.671875 0 
L 9.8125 0 
z
" id="BitstreamVeraSans-Roman-50"/>
     <path d="M 44.390625 34.1875 
Q 47.5625 33.109375 50.5625 29.59375 
Q 53.5625 26.078125 56.59375 19.921875 
L 66.609375 0 
L 56 0 
L 46.6875 18.703125 
Q 43.0625 26.03125 39.671875 28.421875 
Q 36.28125 30.8125 30.421875 30.8125 
L 19.671875 30.8125 
L 19.671875 0 
L 9.8125 0 
L 9.8125 72.90625 
L 32.078125 72.90625 
Q 44.578125 72.90625 50.734375 67.671875 
Q 56.890625 62.453125 56.890625 51.90625 
Q 56.890625 45.015625 53.6875 40.46875 
Q 50.484375 35.9375 44.390625 34.1875 
M 19.671875 64.796875 
L 19.671875 38.921875 
L 32.078125 38.921875 
Q 39.203125 38.921875 42.84375 42.21875 
Q 46.484375 45.515625 46.484375 51.90625 
Q 46.484375 58.296875 42.84375 61.546875 
Q 39.203125 64.796875 32.078125 64.796875 
z
" id="BitstreamVeraSans-Roman-52"/>
    </defs>
    <g transform="translate(172.47875 18.14175)scale(0.144 -0.144)">
     <use xlink:href="#BitstreamVeraSans-Roman-50"/>
     <use x="60.240234375" xlink:href="#BitstreamVeraSans-Roman-61"/>
     <use x="121.51953125" xlink:href="#BitstreamVeraSans-Roman-79"/>
     <use x="180.69921875" xlink:href="#BitstreamVeraSans-Roman-6f"/>
     <use x="241.880859375" xlink:href="#BitstreamVeraSans-Roman-66"/>
     <use x="277.0859375" xlink:href="#BitstreamVeraSans-Roman-66"/>
     <use x="312.291015625" xlink:href="#BitstreamVeraSans-Roman-73"/>
     <use x="364.390625" xlink:href="#BitstreamVeraSans-Roman-2e"/>
     <use x="396.177734375" xlink:href="#BitstreamVeraSans-Roman-20"/>
     <use x="427.96484375" xlink:href="#BitstreamVeraSans-Roman-54"/>
     <use x="488.814453125" xlink:href="#BitstreamVeraSans-Roman-75"/>
     <use x="552.193359375" xlink:href="#BitstreamVeraSans-Roman-72"/>
     <use x="593.291015625" xlink:href="#BitstreamVeraSans-Roman-6e"/>
     <use x="656.669921875" xlink:href="#BitstreamVeraSans-Roman-73"/>
     <use x="708.76953125" xlink:href="#BitstreamVeraSans-Roman-3a"/>
     <use x="742.4609375" xlink:href="#BitstreamVeraSans-Roman-20"/>
     <use x="774.248046875" xlink:href="#BitstreamVeraSans-Roman-32"/>
     <use x="837.87109375" xlink:href="#BitstreamVeraSans-Roman-30"/>
     <use x="901.494140625" xlink:href="#BitstreamVeraSans-Roman-30"/>
     <use x="965.1171875" xlink:href="#BitstreamVeraSans-Roman-2c"/>
     <use x="996.904296875" xlink:href="#BitstreamVeraSans-Roman-20"/>
     <use x="1028.69140625" xlink:href="#BitstreamVeraSans-Roman-52"/>
     <use x="1098.111328125" xlink:href="#BitstreamVeraSans-Roman-65"/>
     <use x="1159.634765625" xlink:href="#BitstreamVeraSans-Roman-70"/>
     <use x="1223.111328125" xlink:href="#BitstreamVeraSans-Roman-65"/>
     <use x="1284.634765625" xlink:href="#BitstreamVeraSans-Roman-74"/>
     <use x="1323.84375" xlink:href="#BitstreamVeraSans-Roman-69"/>
     <use x="1351.626953125" xlink:href="#BitstreamVeraSans-Roman-74"/>
     <use x="1390.8359375" xlink:href="#BitstreamVeraSans-Roman-69"/>
     <use x="1418.619140625" xlink:href="#BitstreamVeraSans-Roman-6f"/>
     <use x="1479.80078125" xlink:href="#BitstreamVeraSans-Roman-6e"/>
     <use x="1543.1796875" xlink:href="#BitstreamVeraSans-Roman-73"/>
     <use x="1595.279296875" xlink:href="#BitstreamVeraSans-Roman-3a"/>
     <use x="1628.970703125" xlink:href="#BitstreamVeraSans-Roman-20"/>
     <use x="1660.7578125" xlink:href="#BitstreamVeraSans-Roman-31"/>
     <use x="1724.380859375" xlink:href="#BitstreamVeraSans-Roman-30"/>
     <use x="1788.00390625" xlink:href="#BitstreamVeraSans-Roman-30"/>
     <use x="1851.626953125" xlink:href="#BitstreamVeraSans-Roman-2c"/>
     <use x="1883.4140625" xlink:href="#BitstreamVeraSans-Roman-20"/>
     <use x="1915.201171875" xlink:href="#BitstreamVeraSans-Roman-53"/>
     <use x="1978.677734375" xlink:href="#BitstreamVeraSans-Roman-74"/>
     <use x="2017.88671875" xlink:href="#BitstreamVeraSans-Roman-72"/>
     <use x="2059.0" xlink:href="#BitstreamVeraSans-Roman-61"/>
     <use x="2120.279296875" xlink:href="#BitstreamVeraSans-Roman-74"/>
     <use x="2159.48828125" xlink:href="#BitstreamVeraSans-Roman-65"/>
     <use x="2221.01171875" xlink:href="#BitstreamVeraSans-Roman-67"/>
     <use x="2284.48828125" xlink:href="#BitstreamVeraSans-Roman-69"/>
     <use x="2312.271484375" xlink:href="#BitstreamVeraSans-Roman-65"/>
     <use x="2373.794921875" xlink:href="#BitstreamVeraSans-Roman-73"/>
     <use x="2425.89453125" xlink:href="#BitstreamVeraSans-Roman-3a"/>
     <use x="2459.5859375" xlink:href="#BitstreamVeraSans-Roman-20"/>
     <use x="2491.373046875" xlink:href="#BitstreamVeraSans-Roman-38"/>
     <use x="2554.99609375" xlink:href="#BitstreamVeraSans-Roman-2e"/>
    </g>
   </g>
  </g>
 </g>
 <defs>
  <clipPath id="p528ae973ee">
   <rect height="345.6" width="669.6" x="23.9225" y="23.14175"/>
  </clipPath>
 </defs>
</svg>
