<?xml version="1.0" encoding="utf-8" standalone="no"?>
<!DOCTYPE svg PUBLIC "-//W3C//DTD SVG 1.1//EN"
  "http://www.w3.org/Graphics/SVG/1.1/DTD/svg11.dtd">
<!-- Created with matplotlib (http://matplotlib.org/) -->
<svg height="465pt" version="1.1" viewBox="0 0 699 465" width="699pt" xmlns="http://www.w3.org/2000/svg" xmlns:xlink="http://www.w3.org/1999/xlink">
 <defs>
  <style type="text/css">
*{stroke-linecap:butt;stroke-linejoin:round;stroke-miterlimit:100000;}
  </style>
 </defs>
 <g id="figure_1">
  <g id="patch_1">
   <path d="M 0 465.868 
L 699.79375 465.868 
L 699.79375 0 
L 0 0 
z
" style="fill:#ffffff;"/>
  </g>
  <g id="axes_1">
   <g id="patch_2">
    <path d="M 22.99375 368.74175 
L 692.59375 368.74175 
L 692.59375 23.14175 
L 22.99375 23.14175 
z
" style="fill:#ffffff;"/>
   </g>
   <g id="PolyCollection_1">
    <defs>
     <path d="M 115.220847 -269.92625 
L 79.566653 -269.92625 
L 79.41332 -271.380795 
L 79.398735 -272.835341 
L 79.521096 -274.289886 
L 79.775245 -275.744432 
L 80.152921 -277.198977 
L 80.643145 -278.653523 
L 81.232687 -280.108068 
L 81.906616 -281.562614 
L 82.648876 -283.017159 
L 83.442871 -284.471705 
L 84.27203 -285.92625 
L 85.120304 -287.380795 
L 85.972603 -288.835341 
L 86.815136 -290.289886 
L 87.63565 -291.744432 
L 88.423573 -293.198977 
L 89.170054 -294.653523 
L 89.867921 -296.108068 
L 90.51156 -297.562614 
L 91.096745 -299.017159 
L 91.620424 -300.471705 
L 92.080491 -301.92625 
L 92.475555 -303.380795 
L 92.804731 -304.835341 
L 93.067461 -306.289886 
L 93.263372 -307.744432 
L 93.392199 -309.198977 
L 93.453745 -310.653523 
L 93.447912 -312.108068 
L 93.37477 -313.562614 
L 93.234685 -315.017159 
L 93.028467 -316.471705 
L 92.757552 -317.92625 
L 92.42419 -319.380795 
L 92.03162 -320.835341 
L 91.584228 -322.289886 
L 91.087664 -323.744432 
L 90.548905 -325.198977 
L 89.97626 -326.653523 
L 89.379296 -328.108068 
L 88.768699 -329.562614 
L 88.156047 -331.017159 
L 87.553535 -332.471705 
L 86.973626 -333.92625 
L 86.428671 -335.380795 
L 85.930505 -336.835341 
L 85.490037 -338.289886 
L 85.116866 -339.744432 
L 84.818938 -341.198977 
L 84.602259 -342.653523 
L 84.47069 -344.108068 
L 84.425826 -345.562614 
L 84.466971 -347.017159 
L 84.591206 -348.471705 
L 84.793535 -349.92625 
L 85.067125 -351.380795 
L 85.403586 -352.835341 
L 85.793312 -354.289886 
L 86.22583 -355.744432 
L 86.690157 -357.198977 
L 87.175146 -358.653523 
L 87.669787 -360.108068 
L 88.163468 -361.562614 
L 88.646184 -363.017159 
L 89.10868 -364.471705 
L 89.54254 -365.92625 
L 89.940214 -367.380795 
L 90.295006 -368.835341 
L 90.601016 -370.289886 
L 90.853069 -371.744432 
L 91.04662 -373.198977 
L 91.177676 -374.653523 
L 91.24272 -376.108068 
L 91.238677 -377.562614 
L 91.162906 -379.017159 
L 91.013237 -380.471705 
L 90.788057 -381.92625 
L 90.486433 -383.380795 
L 90.10828 -384.835341 
L 89.654555 -386.289886 
L 89.127472 -387.744432 
L 88.530711 -389.198977 
L 87.869624 -390.653523 
L 87.151392 -392.108068 
L 86.385135 -393.562614 
L 85.581949 -395.017159 
L 84.754852 -396.471705 
L 83.918632 -397.92625 
L 83.089591 -399.380795 
L 82.285183 -400.835341 
L 81.523559 -402.289886 
L 80.823022 -403.744432 
L 80.201436 -405.198977 
L 79.675589 -406.653523 
L 79.260566 -408.108068 
L 78.969155 -409.562614 
L 78.811315 -411.017159 
L 78.79375 -412.471705 
L 78.919608 -413.92625 
L 115.867892 -413.92625 
L 115.867892 -413.92625 
L 115.99375 -412.471705 
L 115.976185 -411.017159 
L 115.818345 -409.562614 
L 115.526934 -408.108068 
L 115.111911 -406.653523 
L 114.586064 -405.198977 
L 113.964478 -403.744432 
L 113.263941 -402.289886 
L 112.502317 -400.835341 
L 111.697909 -399.380795 
L 110.868868 -397.92625 
L 110.032648 -396.471705 
L 109.205551 -395.017159 
L 108.402365 -393.562614 
L 107.636108 -392.108068 
L 106.917876 -390.653523 
L 106.256789 -389.198977 
L 105.660028 -387.744432 
L 105.132945 -386.289886 
L 104.67922 -384.835341 
L 104.301067 -383.380795 
L 103.999443 -381.92625 
L 103.774263 -380.471705 
L 103.624594 -379.017159 
L 103.548823 -377.562614 
L 103.54478 -376.108068 
L 103.609824 -374.653523 
L 103.74088 -373.198977 
L 103.934431 -371.744432 
L 104.186484 -370.289886 
L 104.492494 -368.835341 
L 104.847286 -367.380795 
L 105.24496 -365.92625 
L 105.67882 -364.471705 
L 106.141316 -363.017159 
L 106.624032 -361.562614 
L 107.117713 -360.108068 
L 107.612354 -358.653523 
L 108.097343 -357.198977 
L 108.56167 -355.744432 
L 108.994188 -354.289886 
L 109.383914 -352.835341 
L 109.720375 -351.380795 
L 109.993965 -349.92625 
L 110.196294 -348.471705 
L 110.320529 -347.017159 
L 110.361674 -345.562614 
L 110.31681 -344.108068 
L 110.185241 -342.653523 
L 109.968562 -341.198977 
L 109.670634 -339.744432 
L 109.297463 -338.289886 
L 108.856995 -336.835341 
L 108.358829 -335.380795 
L 107.813874 -333.92625 
L 107.233965 -332.471705 
L 106.631453 -331.017159 
L 106.018801 -329.562614 
L 105.408204 -328.108068 
L 104.81124 -326.653523 
L 104.238595 -325.198977 
L 103.699836 -323.744432 
L 103.203272 -322.289886 
L 102.75588 -320.835341 
L 102.36331 -319.380795 
L 102.029948 -317.92625 
L 101.759033 -316.471705 
L 101.552815 -315.017159 
L 101.41273 -313.562614 
L 101.339588 -312.108068 
L 101.333755 -310.653523 
L 101.395301 -309.198977 
L 101.524128 -307.744432 
L 101.720039 -306.289886 
L 101.982769 -304.835341 
L 102.311945 -303.380795 
L 102.707009 -301.92625 
L 103.167076 -300.471705 
L 103.690755 -299.017159 
L 104.27594 -297.562614 
L 104.919579 -296.108068 
L 105.617446 -294.653523 
L 106.363927 -293.198977 
L 107.15185 -291.744432 
L 107.972364 -290.289886 
L 108.814897 -288.835341 
L 109.667196 -287.380795 
L 110.51547 -285.92625 
L 111.344629 -284.471705 
L 112.138624 -283.017159 
L 112.880884 -281.562614 
L 113.554813 -280.108068 
L 114.144355 -278.653523 
L 114.634579 -277.198977 
L 115.012255 -275.744432 
L 115.266404 -274.289886 
L 115.388765 -272.835341 
L 115.37418 -271.380795 
L 115.220847 -269.92625 
z
" id="ma3f6515c94" style="stroke:#000000;stroke-opacity:0.3;"/>
    </defs>
    <g clip-path="url(#p21efe57d88)">
     <use style="fill:#bfbf00;fill-opacity:0.3;stroke:#000000;stroke-opacity:0.3;" x="0.0" xlink:href="#ma3f6515c94" y="465.868"/>
    </g>
   </g>
   <g id="PolyCollection_2">
    <defs>
     <path d="M 174.855223 -128.92625 
L 168.732277 -128.92625 
L 168.502731 -131.805038 
L 168.302868 -134.683826 
L 168.138514 -137.562614 
L 168.014003 -140.441402 
L 167.931931 -143.320189 
L 167.89302 -146.198977 
L 167.896135 -149.077765 
L 167.938419 -151.956553 
L 168.015546 -154.835341 
L 168.122062 -157.714129 
L 168.251772 -160.592917 
L 168.398159 -163.471705 
L 168.554774 -166.350492 
L 168.715595 -169.22928 
L 168.875304 -172.108068 
L 169.029487 -174.986856 
L 169.174726 -177.865644 
L 169.308595 -180.744432 
L 169.429551 -183.62322 
L 169.536738 -186.502008 
L 169.629703 -189.380795 
L 169.708073 -192.259583 
L 169.771177 -195.138371 
L 169.817671 -198.017159 
L 169.845175 -200.895947 
L 169.84995 -203.774735 
L 169.826654 -206.653523 
L 169.768181 -209.532311 
L 169.665643 -212.411098 
L 169.508492 -215.289886 
L 169.284826 -218.168674 
L 168.9819 -221.047462 
L 168.58684 -223.92625 
L 168.087579 -226.805038 
L 167.47397 -229.683826 
L 166.739035 -232.562614 
L 165.880257 -235.441402 
L 164.900814 -238.320189 
L 163.810596 -241.198977 
L 162.626869 -244.077765 
L 161.374435 -246.956553 
L 160.085181 -249.835341 
L 158.796935 -252.714129 
L 157.551659 -255.592917 
L 156.393054 -258.471705 
L 155.363752 -261.350492 
L 154.502338 -264.22928 
L 153.840494 -267.108068 
L 153.400552 -269.986856 
L 153.19375 -272.865644 
L 153.219368 -275.744432 
L 153.464879 -278.62322 
L 153.907102 -281.502008 
L 154.514237 -284.380795 
L 155.248573 -287.259583 
L 156.069575 -290.138371 
L 156.93704 -293.017159 
L 157.813993 -295.895947 
L 158.669074 -298.774735 
L 159.478211 -301.653523 
L 160.22548 -304.532311 
L 160.903156 -307.411098 
L 161.511028 -310.289886 
L 162.055133 -313.168674 
L 162.546098 -316.047462 
L 162.9973 -318.92625 
L 163.423051 -321.805038 
L 163.836954 -324.683826 
L 164.250565 -327.562614 
L 164.672433 -330.441402 
L 165.107522 -333.320189 
L 165.557004 -336.198977 
L 166.018349 -339.077765 
L 166.485658 -341.956553 
L 166.950125 -344.835341 
L 167.400581 -347.714129 
L 167.824037 -350.592917 
L 168.206205 -353.471705 
L 168.53198 -356.350492 
L 168.785894 -359.22928 
L 168.952582 -362.108068 
L 169.017308 -364.986856 
L 168.966592 -367.865644 
L 168.78898 -370.744432 
L 168.475974 -373.62322 
L 168.023082 -376.502008 
L 167.430932 -379.380795 
L 166.706346 -382.259583 
L 165.863203 -385.138371 
L 164.922948 -388.017159 
L 163.914581 -390.895947 
L 162.873988 -393.774735 
L 161.84256 -396.653523 
L 160.865112 -399.532311 
L 159.987222 -402.411098 
L 159.252196 -405.289886 
L 158.697942 -408.168674 
L 158.354078 -411.047462 
L 158.239602 -413.92625 
L 185.347898 -413.92625 
L 185.347898 -413.92625 
L 185.233422 -411.047462 
L 184.889558 -408.168674 
L 184.335304 -405.289886 
L 183.600278 -402.411098 
L 182.722388 -399.532311 
L 181.74494 -396.653523 
L 180.713512 -393.774735 
L 179.672919 -390.895947 
L 178.664552 -388.017159 
L 177.724297 -385.138371 
L 176.881154 -382.259583 
L 176.156568 -379.380795 
L 175.564418 -376.502008 
L 175.111526 -373.62322 
L 174.79852 -370.744432 
L 174.620908 -367.865644 
L 174.570192 -364.986856 
L 174.634918 -362.108068 
L 174.801606 -359.22928 
L 175.05552 -356.350492 
L 175.381295 -353.471705 
L 175.763463 -350.592917 
L 176.186919 -347.714129 
L 176.637375 -344.835341 
L 177.101842 -341.956553 
L 177.569151 -339.077765 
L 178.030496 -336.198977 
L 178.479978 -333.320189 
L 178.915067 -330.441402 
L 179.336935 -327.562614 
L 179.750546 -324.683826 
L 180.164449 -321.805038 
L 180.5902 -318.92625 
L 181.041402 -316.047462 
L 181.532367 -313.168674 
L 182.076472 -310.289886 
L 182.684344 -307.411098 
L 183.36202 -304.532311 
L 184.109289 -301.653523 
L 184.918426 -298.774735 
L 185.773507 -295.895947 
L 186.65046 -293.017159 
L 187.517925 -290.138371 
L 188.338927 -287.259583 
L 189.073263 -284.380795 
L 189.680398 -281.502008 
L 190.122621 -278.62322 
L 190.368132 -275.744432 
L 190.39375 -272.865644 
L 190.186948 -269.986856 
L 189.747006 -267.108068 
L 189.085162 -264.22928 
L 188.223748 -261.350492 
L 187.194446 -258.471705 
L 186.035841 -255.592917 
L 184.790565 -252.714129 
L 183.502319 -249.835341 
L 182.213065 -246.956553 
L 180.960631 -244.077765 
L 179.776904 -241.198977 
L 178.686686 -238.320189 
L 177.707243 -235.441402 
L 176.848465 -232.562614 
L 176.11353 -229.683826 
L 175.499921 -226.805038 
L 175.00066 -223.92625 
L 174.6056 -221.047462 
L 174.302674 -218.168674 
L 174.079008 -215.289886 
L 173.921857 -212.411098 
L 173.819319 -209.532311 
L 173.760846 -206.653523 
L 173.73755 -203.774735 
L 173.742325 -200.895947 
L 173.769829 -198.017159 
L 173.816323 -195.138371 
L 173.879427 -192.259583 
L 173.957797 -189.380795 
L 174.050762 -186.502008 
L 174.157949 -183.62322 
L 174.278905 -180.744432 
L 174.412774 -177.865644 
L 174.558013 -174.986856 
L 174.712196 -172.108068 
L 174.871905 -169.22928 
L 175.032726 -166.350492 
L 175.189341 -163.471705 
L 175.335728 -160.592917 
L 175.465438 -157.714129 
L 175.571954 -154.835341 
L 175.649081 -151.956553 
L 175.691365 -149.077765 
L 175.69448 -146.198977 
L 175.655569 -143.320189 
L 175.573497 -140.441402 
L 175.448986 -137.562614 
L 175.284632 -134.683826 
L 175.084769 -131.805038 
L 174.855223 -128.92625 
z
" id="md8d5d7cef4" style="stroke:#000000;stroke-opacity:0.3;"/>
    </defs>
    <g clip-path="url(#p21efe57d88)">
     <use style="fill:#bfbf00;fill-opacity:0.3;stroke:#000000;stroke-opacity:0.3;" x="0.0" xlink:href="#md8d5d7cef4" y="465.868"/>
    </g>
   </g>
   <g id="PolyCollection_3">
    <defs>
     <path d="M 264.500739 -269.92625 
L 227.886761 -269.92625 
L 227.59375 -271.380795 
L 227.653698 -272.835341 
L 228.045608 -274.289886 
L 228.728476 -275.744432 
L 229.646516 -277.198977 
L 230.73558 -278.653523 
L 231.929769 -280.108068 
L 233.167355 -281.562614 
L 234.395336 -283.017159 
L 235.572233 -284.471705 
L 236.669115 -285.92625 
L 237.669072 -287.380795 
L 238.56554 -288.835341 
L 239.359969 -290.289886 
L 240.059286 -291.744432 
L 240.673506 -293.198977 
L 241.213746 -294.653523 
L 241.690744 -296.108068 
L 242.113906 -297.562614 
L 242.490844 -299.017159 
L 242.827297 -300.471705 
L 243.127356 -301.92625 
L 243.393872 -303.380795 
L 243.62897 -304.835341 
L 243.834558 -306.289886 
L 244.012777 -307.744432 
L 244.166303 -309.198977 
L 244.298473 -310.653523 
L 244.413209 -312.108068 
L 244.514751 -313.562614 
L 244.607254 -315.017159 
L 244.69431 -316.471705 
L 244.778498 -317.92625 
L 244.861034 -319.380795 
L 244.941616 -320.835341 
L 245.018486 -322.289886 
L 245.08874 -323.744432 
L 245.148827 -325.198977 
L 245.195188 -326.653523 
L 245.224923 -328.108068 
L 245.236405 -329.562614 
L 245.22972 -331.017159 
L 245.206883 -332.471705 
L 245.171783 -333.92625 
L 245.129854 -335.380795 
L 245.08752 -336.835341 
L 245.051491 -338.289886 
L 245.028009 -339.744432 
L 245.022144 -341.198977 
L 245.037254 -342.653523 
L 245.074666 -344.108068 
L 245.133618 -345.562614 
L 245.211465 -347.017159 
L 245.304093 -348.471705 
L 245.406468 -349.92625 
L 245.513238 -351.380795 
L 245.619297 -352.835341 
L 245.72024 -354.289886 
L 245.812665 -355.744432 
L 245.894312 -357.198977 
L 245.964047 -358.653523 
L 246.021726 -360.108068 
L 246.067983 -361.562614 
L 246.103987 -363.017159 
L 246.131207 -364.471705 
L 246.151208 -365.92625 
L 246.165498 -367.380795 
L 246.175427 -368.835341 
L 246.182134 -370.289886 
L 246.186531 -371.744432 
L 246.18931 -373.198977 
L 246.190968 -374.653523 
L 246.191832 -376.108068 
L 246.192084 -377.562614 
L 246.191773 -379.017159 
L 246.190818 -380.471705 
L 246.188996 -381.92625 
L 246.185917 -383.380795 
L 246.180988 -384.835341 
L 246.173373 -386.289886 
L 246.161949 -387.744432 
L 246.145284 -389.198977 
L 246.121637 -390.653523 
L 246.089001 -392.108068 
L 246.045216 -393.562614 
L 245.988139 -395.017159 
L 245.915904 -396.471705 
L 245.827226 -397.92625 
L 245.721752 -399.380795 
L 245.600392 -400.835341 
L 245.46558 -402.289886 
L 245.321406 -403.744432 
L 245.173557 -405.198977 
L 245.029044 -406.653523 
L 244.895706 -408.108068 
L 244.781531 -409.562614 
L 244.69388 -411.017159 
L 244.638698 -412.471705 
L 244.619857 -413.92625 
L 247.767643 -413.92625 
L 247.767643 -413.92625 
L 247.748802 -412.471705 
L 247.69362 -411.017159 
L 247.605969 -409.562614 
L 247.491794 -408.108068 
L 247.358456 -406.653523 
L 247.213943 -405.198977 
L 247.066094 -403.744432 
L 246.92192 -402.289886 
L 246.787108 -400.835341 
L 246.665748 -399.380795 
L 246.560274 -397.92625 
L 246.471596 -396.471705 
L 246.399361 -395.017159 
L 246.342284 -393.562614 
L 246.298499 -392.108068 
L 246.265863 -390.653523 
L 246.242216 -389.198977 
L 246.225551 -387.744432 
L 246.214127 -386.289886 
L 246.206512 -384.835341 
L 246.201583 -383.380795 
L 246.198504 -381.92625 
L 246.196682 -380.471705 
L 246.195727 -379.017159 
L 246.195416 -377.562614 
L 246.195668 -376.108068 
L 246.196532 -374.653523 
L 246.19819 -373.198977 
L 246.200969 -371.744432 
L 246.205366 -370.289886 
L 246.212073 -368.835341 
L 246.222002 -367.380795 
L 246.236292 -365.92625 
L 246.256293 -364.471705 
L 246.283513 -363.017159 
L 246.319517 -361.562614 
L 246.365774 -360.108068 
L 246.423453 -358.653523 
L 246.493188 -357.198977 
L 246.574835 -355.744432 
L 246.66726 -354.289886 
L 246.768203 -352.835341 
L 246.874262 -351.380795 
L 246.981032 -349.92625 
L 247.083407 -348.471705 
L 247.176035 -347.017159 
L 247.253882 -345.562614 
L 247.312834 -344.108068 
L 247.350246 -342.653523 
L 247.365356 -341.198977 
L 247.359491 -339.744432 
L 247.336009 -338.289886 
L 247.29998 -336.835341 
L 247.257646 -335.380795 
L 247.215717 -333.92625 
L 247.180617 -332.471705 
L 247.15778 -331.017159 
L 247.151095 -329.562614 
L 247.162577 -328.108068 
L 247.192312 -326.653523 
L 247.238673 -325.198977 
L 247.29876 -323.744432 
L 247.369014 -322.289886 
L 247.445884 -320.835341 
L 247.526466 -319.380795 
L 247.609002 -317.92625 
L 247.69319 -316.471705 
L 247.780246 -315.017159 
L 247.872749 -313.562614 
L 247.974291 -312.108068 
L 248.089027 -310.653523 
L 248.221197 -309.198977 
L 248.374723 -307.744432 
L 248.552942 -306.289886 
L 248.75853 -304.835341 
L 248.993628 -303.380795 
L 249.260144 -301.92625 
L 249.560203 -300.471705 
L 249.896656 -299.017159 
L 250.273594 -297.562614 
L 250.696756 -296.108068 
L 251.173754 -294.653523 
L 251.713994 -293.198977 
L 252.328214 -291.744432 
L 253.027531 -290.289886 
L 253.82196 -288.835341 
L 254.718428 -287.380795 
L 255.718385 -285.92625 
L 256.815267 -284.471705 
L 257.992164 -283.017159 
L 259.220145 -281.562614 
L 260.457731 -280.108068 
L 261.65192 -278.653523 
L 262.740984 -277.198977 
L 263.659024 -275.744432 
L 264.341892 -274.289886 
L 264.733802 -272.835341 
L 264.79375 -271.380795 
L 264.500739 -269.92625 
z
" id="mf5e2fb37a1" style="stroke:#000000;stroke-opacity:0.3;"/>
    </defs>
    <g clip-path="url(#p21efe57d88)">
     <use style="fill:#bfbf00;fill-opacity:0.3;stroke:#000000;stroke-opacity:0.3;" x="0.0" xlink:href="#mf5e2fb37a1" y="465.868"/>
    </g>
   </g>
   <g id="PolyCollection_4">
    <defs>
     <path d="M 322.002991 -125.92625 
L 319.184509 -125.92625 
L 319.205257 -128.108068 
L 319.265902 -130.289886 
L 319.361042 -132.471705 
L 319.482536 -134.653523 
L 319.620567 -136.835341 
L 319.764838 -139.017159 
L 319.905675 -141.198977 
L 320.034876 -143.380795 
L 320.1462 -145.562614 
L 320.235488 -147.744432 
L 320.300471 -149.92625 
L 320.340364 -152.108068 
L 320.355357 -154.289886 
L 320.346113 -156.471705 
L 320.313332 -158.653523 
L 320.257417 -160.835341 
L 320.178279 -163.017159 
L 320.075268 -165.198977 
L 319.947252 -167.380795 
L 319.792855 -169.562614 
L 319.610873 -171.744432 
L 319.400857 -173.92625 
L 319.163831 -176.108068 
L 318.90305 -178.289886 
L 318.624649 -180.471705 
L 318.338016 -182.653523 
L 318.055702 -184.835341 
L 317.792756 -187.017159 
L 317.565459 -189.198977 
L 317.389563 -191.380795 
L 317.278294 -193.562614 
L 317.240449 -195.744432 
L 317.278959 -197.92625 
L 317.390218 -200.108068 
L 317.564349 -202.289886 
L 317.786371 -204.471705 
L 318.038072 -206.653523 
L 318.300216 -208.835341 
L 318.554686 -211.017159 
L 318.786193 -213.198977 
L 318.983283 -215.380795 
L 319.138569 -217.562614 
L 319.248228 -219.744432 
L 319.310964 -221.92625 
L 319.326656 -224.108068 
L 319.29492 -226.289886 
L 319.213764 -228.471705 
L 319.078443 -230.653523 
L 318.880586 -232.835341 
L 318.607669 -235.017159 
L 318.242931 -237.198977 
L 317.765909 -239.380795 
L 317.153796 -241.562614 
L 316.383821 -243.744432 
L 315.436745 -245.92625 
L 314.301334 -248.108068 
L 312.979384 -250.289886 
L 311.490523 -252.471705 
L 309.875763 -254.653523 
L 308.198692 -256.835341 
L 306.543386 -259.017159 
L 305.008598 -261.198977 
L 303.698506 -263.380795 
L 302.711108 -265.562614 
L 302.126008 -267.744432 
L 301.99375 -269.92625 
L 302.328661 -272.108068 
L 303.106652 -274.289886 
L 304.268418 -276.471705 
L 305.72742 -278.653523 
L 307.381125 -280.835341 
L 309.12342 -283.017159 
L 310.856062 -285.198977 
L 312.497466 -287.380795 
L 313.987839 -289.562614 
L 315.290518 -291.744432 
L 316.390059 -293.92625 
L 317.288121 -296.108068 
L 317.998297 -298.289886 
L 318.540953 -300.471705 
L 318.938824 -302.653523 
L 319.213771 -304.835341 
L 319.384789 -307.017159 
L 319.467137 -309.198977 
L 319.47235 -311.380795 
L 319.408888 -313.562614 
L 319.283188 -315.744432 
L 319.100943 -317.92625 
L 318.868446 -320.108068 
L 318.593846 -322.289886 
L 318.288136 -324.471705 
L 317.965706 -326.653523 
L 317.64427 -328.835341 
L 317.344097 -331.017159 
L 317.086531 -333.198977 
L 316.891964 -335.380795 
L 316.777544 -337.562614 
L 316.755005 -339.744432 
L 316.829025 -341.92625 
L 324.358475 -341.92625 
L 324.358475 -341.92625 
L 324.432495 -339.744432 
L 324.409956 -337.562614 
L 324.295536 -335.380795 
L 324.100969 -333.198977 
L 323.843403 -331.017159 
L 323.54323 -328.835341 
L 323.221794 -326.653523 
L 322.899364 -324.471705 
L 322.593654 -322.289886 
L 322.319054 -320.108068 
L 322.086557 -317.92625 
L 321.904312 -315.744432 
L 321.778612 -313.562614 
L 321.71515 -311.380795 
L 321.720363 -309.198977 
L 321.802711 -307.017159 
L 321.973729 -304.835341 
L 322.248676 -302.653523 
L 322.646547 -300.471705 
L 323.189203 -298.289886 
L 323.899379 -296.108068 
L 324.797441 -293.92625 
L 325.896982 -291.744432 
L 327.199661 -289.562614 
L 328.690034 -287.380795 
L 330.331438 -285.198977 
L 332.06408 -283.017159 
L 333.806375 -280.835341 
L 335.46008 -278.653523 
L 336.919082 -276.471705 
L 338.080848 -274.289886 
L 338.858839 -272.108068 
L 339.19375 -269.92625 
L 339.061492 -267.744432 
L 338.476392 -265.562614 
L 337.488994 -263.380795 
L 336.178902 -261.198977 
L 334.644114 -259.017159 
L 332.988808 -256.835341 
L 331.311737 -254.653523 
L 329.696977 -252.471705 
L 328.208116 -250.289886 
L 326.886166 -248.108068 
L 325.750755 -245.92625 
L 324.803679 -243.744432 
L 324.033704 -241.562614 
L 323.421591 -239.380795 
L 322.944569 -237.198977 
L 322.579831 -235.017159 
L 322.306914 -232.835341 
L 322.109057 -230.653523 
L 321.973736 -228.471705 
L 321.89258 -226.289886 
L 321.860844 -224.108068 
L 321.876536 -221.92625 
L 321.939272 -219.744432 
L 322.048931 -217.562614 
L 322.204217 -215.380795 
L 322.401307 -213.198977 
L 322.632814 -211.017159 
L 322.887284 -208.835341 
L 323.149428 -206.653523 
L 323.401129 -204.471705 
L 323.623151 -202.289886 
L 323.797282 -200.108068 
L 323.908541 -197.92625 
L 323.947051 -195.744432 
L 323.909206 -193.562614 
L 323.797937 -191.380795 
L 323.622041 -189.198977 
L 323.394744 -187.017159 
L 323.131798 -184.835341 
L 322.849484 -182.653523 
L 322.562851 -180.471705 
L 322.28445 -178.289886 
L 322.023669 -176.108068 
L 321.786643 -173.92625 
L 321.576627 -171.744432 
L 321.394645 -169.562614 
L 321.240248 -167.380795 
L 321.112232 -165.198977 
L 321.009221 -163.017159 
L 320.930083 -160.835341 
L 320.874168 -158.653523 
L 320.841387 -156.471705 
L 320.832143 -154.289886 
L 320.847136 -152.108068 
L 320.887029 -149.92625 
L 320.952012 -147.744432 
L 321.0413 -145.562614 
L 321.152624 -143.380795 
L 321.281825 -141.198977 
L 321.422662 -139.017159 
L 321.566933 -136.835341 
L 321.704964 -134.653523 
L 321.826458 -132.471705 
L 321.921598 -130.289886 
L 321.982243 -128.108068 
L 322.002991 -125.92625 
z
" id="mf1e003cf53" style="stroke:#000000;stroke-opacity:0.3;"/>
    </defs>
    <g clip-path="url(#p21efe57d88)">
     <use style="fill:#bfbf00;fill-opacity:0.3;stroke:#000000;stroke-opacity:0.3;" x="0.0" xlink:href="#mf1e003cf53" y="465.868"/>
    </g>
   </g>
   <g id="PolyCollection_5">
    <defs>
     <path d="M 396.105237 -125.92625 
L 393.882263 -125.92625 
L 393.898852 -127.380795 
L 393.947148 -128.835341 
L 394.022952 -130.289886 
L 394.119945 -131.744432 
L 394.230549 -133.198977 
L 394.346902 -134.653523 
L 394.461759 -136.108068 
L 394.569184 -137.562614 
L 394.664955 -139.017159 
L 394.746667 -140.471705 
L 394.813573 -141.92625 
L 394.866254 -143.380795 
L 394.906205 -144.835341 
L 394.935418 -146.289886 
L 394.956035 -147.744432 
L 394.970087 -149.198977 
L 394.979343 -150.653523 
L 394.985239 -152.108068 
L 394.98887 -153.562614 
L 394.991034 -155.017159 
L 394.99228 -156.471705 
L 394.99297 -157.92625 
L 394.993333 -159.380795 
L 394.993498 -160.835341 
L 394.993532 -162.289886 
L 394.993448 -163.744432 
L 394.993214 -165.198977 
L 394.99274 -166.653523 
L 394.991862 -168.108068 
L 394.99031 -169.562614 
L 394.987661 -171.017159 
L 394.983289 -172.471705 
L 394.976307 -173.92625 
L 394.965527 -175.380795 
L 394.949438 -176.835341 
L 394.926239 -178.289886 
L 394.89394 -179.744432 
L 394.850559 -181.198977 
L 394.794409 -182.653523 
L 394.724458 -184.108068 
L 394.640731 -185.562614 
L 394.544667 -187.017159 
L 394.439356 -188.471705 
L 394.329563 -189.92625 
L 394.221483 -191.380795 
L 394.122199 -192.835341 
L 394.038894 -194.289886 
L 393.977929 -195.744432 
L 393.943918 -197.198977 
L 393.938989 -198.653523 
L 393.962369 -200.108068 
L 394.010379 -201.562614 
L 394.076859 -203.017159 
L 394.153947 -204.471705 
L 394.233088 -205.92625 
L 394.306091 -207.380795 
L 394.366083 -208.835341 
L 394.40822 -210.289886 
L 394.430048 -211.744432 
L 394.43152 -213.198977 
L 394.414661 -214.653523 
L 394.38297 -216.108068 
L 394.340651 -217.562614 
L 394.291797 -219.017159 
L 394.239649 -220.471705 
L 394.186031 -221.92625 
L 394.131047 -223.380795 
L 394.073074 -224.835341 
L 394.009032 -226.289886 
L 393.934879 -227.744432 
L 393.846223 -229.198977 
L 393.738936 -230.653523 
L 393.60967 -232.108068 
L 393.45616 -233.562614 
L 393.27729 -235.017159 
L 393.072888 -236.471705 
L 392.843282 -237.92625 
L 392.588667 -239.380795 
L 392.308354 -240.835341 
L 391.999969 -242.289886 
L 391.658698 -243.744432 
L 391.276653 -245.198977 
L 390.842476 -246.653523 
L 390.341332 -248.108068 
L 389.755459 -249.562614 
L 389.065469 -251.017159 
L 388.252577 -252.471705 
L 387.301814 -253.92625 
L 386.206112 -255.380795 
L 384.970837 -256.835341 
L 383.61808 -258.289886 
L 382.189727 -259.744432 
L 380.748263 -261.198977 
L 379.374419 -262.653523 
L 378.161246 -264.108068 
L 377.204892 -265.562614 
L 376.593179 -267.017159 
L 376.39375 -268.471705 
L 376.64392 -269.92625 
L 413.34358 -269.92625 
L 413.34358 -269.92625 
L 413.59375 -268.471705 
L 413.394321 -267.017159 
L 412.782608 -265.562614 
L 411.826254 -264.108068 
L 410.613081 -262.653523 
L 409.239237 -261.198977 
L 407.797773 -259.744432 
L 406.36942 -258.289886 
L 405.016663 -256.835341 
L 403.781388 -255.380795 
L 402.685686 -253.92625 
L 401.734923 -252.471705 
L 400.922031 -251.017159 
L 400.232041 -249.562614 
L 399.646168 -248.108068 
L 399.145024 -246.653523 
L 398.710847 -245.198977 
L 398.328802 -243.744432 
L 397.987531 -242.289886 
L 397.679146 -240.835341 
L 397.398833 -239.380795 
L 397.144218 -237.92625 
L 396.914612 -236.471705 
L 396.71021 -235.017159 
L 396.53134 -233.562614 
L 396.37783 -232.108068 
L 396.248564 -230.653523 
L 396.141277 -229.198977 
L 396.052621 -227.744432 
L 395.978468 -226.289886 
L 395.914426 -224.835341 
L 395.856453 -223.380795 
L 395.801469 -221.92625 
L 395.747851 -220.471705 
L 395.695703 -219.017159 
L 395.646849 -217.562614 
L 395.60453 -216.108068 
L 395.572839 -214.653523 
L 395.55598 -213.198977 
L 395.557452 -211.744432 
L 395.57928 -210.289886 
L 395.621417 -208.835341 
L 395.681409 -207.380795 
L 395.754412 -205.92625 
L 395.833553 -204.471705 
L 395.910641 -203.017159 
L 395.977121 -201.562614 
L 396.025131 -200.108068 
L 396.048511 -198.653523 
L 396.043582 -197.198977 
L 396.009571 -195.744432 
L 395.948606 -194.289886 
L 395.865301 -192.835341 
L 395.766017 -191.380795 
L 395.657937 -189.92625 
L 395.548144 -188.471705 
L 395.442833 -187.017159 
L 395.346769 -185.562614 
L 395.263042 -184.108068 
L 395.193091 -182.653523 
L 395.136941 -181.198977 
L 395.09356 -179.744432 
L 395.061261 -178.289886 
L 395.038062 -176.835341 
L 395.021973 -175.380795 
L 395.011193 -173.92625 
L 395.004211 -172.471705 
L 394.999839 -171.017159 
L 394.99719 -169.562614 
L 394.995638 -168.108068 
L 394.99476 -166.653523 
L 394.994286 -165.198977 
L 394.994052 -163.744432 
L 394.993968 -162.289886 
L 394.994002 -160.835341 
L 394.994167 -159.380795 
L 394.99453 -157.92625 
L 394.99522 -156.471705 
L 394.996466 -155.017159 
L 394.99863 -153.562614 
L 395.002261 -152.108068 
L 395.008157 -150.653523 
L 395.017413 -149.198977 
L 395.031465 -147.744432 
L 395.052082 -146.289886 
L 395.081295 -144.835341 
L 395.121246 -143.380795 
L 395.173927 -141.92625 
L 395.240833 -140.471705 
L 395.322545 -139.017159 
L 395.418316 -137.562614 
L 395.525741 -136.108068 
L 395.640598 -134.653523 
L 395.756951 -133.198977 
L 395.867555 -131.744432 
L 395.964548 -130.289886 
L 396.040352 -128.835341 
L 396.088648 -127.380795 
L 396.105237 -125.92625 
z
" id="m615dca6138" style="stroke:#000000;stroke-opacity:0.3;"/>
    </defs>
    <g clip-path="url(#p21efe57d88)">
     <use style="fill:#bfbf00;fill-opacity:0.3;stroke:#000000;stroke-opacity:0.3;" x="0.0" xlink:href="#m615dca6138" y="465.868"/>
    </g>
   </g>
   <g id="PolyCollection_6">
    <defs>
     <path d="M 479.434583 -125.92625 
L 459.352917 -125.92625 
L 459.435674 -128.801514 
L 459.682252 -131.676779 
L 460.080054 -134.552043 
L 460.609325 -137.427307 
L 461.244712 -140.302571 
L 461.957198 -143.177836 
L 462.716212 -146.0531 
L 463.491697 -148.928364 
L 464.255945 -151.803628 
L 464.985061 -154.678893 
L 465.659962 -157.554157 
L 466.266875 -160.429421 
L 466.797383 -163.304686 
L 467.248058 -166.17995 
L 467.619805 -169.055214 
L 467.917008 -171.930478 
L 468.146586 -174.805743 
L 468.317043 -177.681007 
L 468.437586 -180.556271 
L 468.517333 -183.431535 
L 468.564653 -186.3068 
L 468.586626 -189.182064 
L 468.588616 -192.057328 
L 468.57396 -194.932592 
L 468.543732 -197.807857 
L 468.496603 -200.683121 
L 468.428768 -203.558385 
L 468.333967 -206.43365 
L 468.203587 -209.308914 
L 468.026896 -212.184178 
L 467.791403 -215.059442 
L 467.483394 -217.934707 
L 467.088649 -220.809971 
L 466.593362 -223.685235 
L 465.985258 -226.560499 
L 465.254856 -229.435764 
L 464.396841 -232.311028 
L 463.411412 -235.186292 
L 462.305502 -238.061557 
L 461.09369 -240.936821 
L 459.798666 -243.812085 
L 458.45109 -246.687349 
L 457.088753 -249.562614 
L 455.754986 -252.437878 
L 454.496385 -255.313142 
L 453.359973 -258.188406 
L 452.390019 -261.063671 
L 451.624818 -263.938935 
L 451.093751 -266.814199 
L 450.814935 -269.689464 
L 450.79375 -272.564728 
L 451.02241 -275.439992 
L 451.480655 -278.315256 
L 452.137492 -281.190521 
L 452.953811 -284.065785 
L 453.885582 -286.941049 
L 454.887307 -289.816313 
L 455.915353 -292.691578 
L 456.930862 -295.566842 
L 457.90197 -298.442106 
L 458.805177 -301.317371 
L 459.625825 -304.192635 
L 460.357741 -307.067899 
L 461.002172 -309.943163 
L 461.566226 -312.818428 
L 462.061035 -315.693692 
L 462.499876 -318.568956 
L 462.896427 -321.44422 
L 463.263322 -324.319485 
L 463.61108 -327.194749 
L 463.947448 -330.070013 
L 464.277137 -332.945277 
L 464.601894 -335.820542 
L 464.920842 -338.695806 
L 465.230986 -341.57107 
L 465.527819 -344.446335 
L 465.80594 -347.321599 
L 466.059652 -350.196863 
L 466.283495 -353.072127 
L 466.472688 -355.947392 
L 466.623501 -358.822656 
L 466.733529 -361.69792 
L 466.801901 -364.573184 
L 466.8294 -367.448449 
L 466.818527 -370.323713 
L 466.773475 -373.198977 
L 466.700022 -376.074242 
L 466.605345 -378.949506 
L 466.497733 -381.82477 
L 466.386216 -384.700034 
L 466.280121 -387.575299 
L 466.188573 -390.450563 
L 466.11998 -393.325827 
L 466.081527 -396.201091 
L 466.078747 -399.076356 
L 466.115177 -401.95162 
L 466.192168 -404.826884 
L 466.308833 -407.702149 
L 466.462178 -410.577413 
L 472.325322 -410.577413 
L 472.325322 -410.577413 
L 472.478667 -407.702149 
L 472.595332 -404.826884 
L 472.672323 -401.95162 
L 472.708753 -399.076356 
L 472.705973 -396.201091 
L 472.66752 -393.325827 
L 472.598927 -390.450563 
L 472.507379 -387.575299 
L 472.401284 -384.700034 
L 472.289767 -381.82477 
L 472.182155 -378.949506 
L 472.087478 -376.074242 
L 472.014025 -373.198977 
L 471.968973 -370.323713 
L 471.9581 -367.448449 
L 471.985599 -364.573184 
L 472.053971 -361.69792 
L 472.163999 -358.822656 
L 472.314812 -355.947392 
L 472.504005 -353.072127 
L 472.727848 -350.196863 
L 472.98156 -347.321599 
L 473.259681 -344.446335 
L 473.556514 -341.57107 
L 473.866658 -338.695806 
L 474.185606 -335.820542 
L 474.510363 -332.945277 
L 474.840052 -330.070013 
L 475.17642 -327.194749 
L 475.524178 -324.319485 
L 475.891073 -321.44422 
L 476.287624 -318.568956 
L 476.726465 -315.693692 
L 477.221274 -312.818428 
L 477.785328 -309.943163 
L 478.429759 -307.067899 
L 479.161675 -304.192635 
L 479.982323 -301.317371 
L 480.88553 -298.442106 
L 481.856638 -295.566842 
L 482.872147 -292.691578 
L 483.900193 -289.816313 
L 484.901918 -286.941049 
L 485.833689 -284.065785 
L 486.650008 -281.190521 
L 487.306845 -278.315256 
L 487.76509 -275.439992 
L 487.99375 -272.564728 
L 487.972565 -269.689464 
L 487.693749 -266.814199 
L 487.162682 -263.938935 
L 486.397481 -261.063671 
L 485.427527 -258.188406 
L 484.291115 -255.313142 
L 483.032514 -252.437878 
L 481.698747 -249.562614 
L 480.33641 -246.687349 
L 478.988834 -243.812085 
L 477.69381 -240.936821 
L 476.481998 -238.061557 
L 475.376088 -235.186292 
L 474.390659 -232.311028 
L 473.532644 -229.435764 
L 472.802242 -226.560499 
L 472.194138 -223.685235 
L 471.698851 -220.809971 
L 471.304106 -217.934707 
L 470.996097 -215.059442 
L 470.760604 -212.184178 
L 470.583913 -209.308914 
L 470.453533 -206.43365 
L 470.358732 -203.558385 
L 470.290897 -200.683121 
L 470.243768 -197.807857 
L 470.21354 -194.932592 
L 470.198884 -192.057328 
L 470.200874 -189.182064 
L 470.222847 -186.3068 
L 470.270167 -183.431535 
L 470.349914 -180.556271 
L 470.470457 -177.681007 
L 470.640914 -174.805743 
L 470.870492 -171.930478 
L 471.167695 -169.055214 
L 471.539442 -166.17995 
L 471.990117 -163.304686 
L 472.520625 -160.429421 
L 473.127538 -157.554157 
L 473.802439 -154.678893 
L 474.531555 -151.803628 
L 475.295803 -148.928364 
L 476.071288 -146.0531 
L 476.830302 -143.177836 
L 477.542788 -140.302571 
L 478.178175 -137.427307 
L 478.707446 -134.552043 
L 479.105248 -131.676779 
L 479.351826 -128.801514 
L 479.434583 -125.92625 
z
" id="m4c71b93219" style="stroke:#000000;stroke-opacity:0.3;"/>
    </defs>
    <g clip-path="url(#p21efe57d88)">
     <use style="fill:#bfbf00;fill-opacity:0.3;stroke:#000000;stroke-opacity:0.3;" x="0.0" xlink:href="#m4c71b93219" y="465.868"/>
    </g>
   </g>
   <g id="PolyCollection_7">
    <defs>
     <path d="M 544.762147 -125.92625 
L 542.825353 -125.92625 
L 542.836759 -127.380795 
L 542.870176 -128.835341 
L 542.923297 -130.289886 
L 542.992571 -131.744432 
L 543.073595 -133.198977 
L 543.16157 -134.653523 
L 543.25177 -136.108068 
L 543.339938 -137.562614 
L 543.422582 -139.017159 
L 543.497147 -140.471705 
L 543.562046 -141.92625 
L 543.616589 -143.380795 
L 543.66082 -144.835341 
L 543.695317 -146.289886 
L 543.720978 -147.744432 
L 543.738823 -149.198977 
L 543.749833 -150.653523 
L 543.754843 -152.108068 
L 543.754469 -153.562614 
L 543.749091 -155.017159 
L 543.738859 -156.471705 
L 543.723726 -157.92625 
L 543.703488 -159.380795 
L 543.677818 -160.835341 
L 543.646286 -162.289886 
L 543.608356 -163.744432 
L 543.563354 -165.198977 
L 543.510401 -166.653523 
L 543.448336 -168.108068 
L 543.375619 -169.562614 
L 543.290258 -171.017159 
L 543.18977 -172.471705 
L 543.071207 -173.92625 
L 542.931289 -175.380795 
L 542.766637 -176.835341 
L 542.574134 -178.289886 
L 542.35139 -179.744432 
L 542.097277 -181.198977 
L 541.812478 -182.653523 
L 541.499954 -184.108068 
L 541.165256 -185.562614 
L 540.816559 -187.017159 
L 540.464364 -188.471705 
L 540.120821 -189.92625 
L 539.798689 -191.380795 
L 539.510029 -192.835341 
L 539.264781 -194.289886 
L 539.069421 -195.744432 
L 538.925923 -197.198977 
L 538.831231 -198.653523 
L 538.777375 -200.108068 
L 538.752277 -201.562614 
L 538.741192 -203.017159 
L 538.728608 -204.471705 
L 538.700352 -205.92625 
L 538.645598 -207.380795 
L 538.558497 -208.835341 
L 538.439173 -210.289886 
L 538.293942 -211.744432 
L 538.134712 -213.198977 
L 537.977658 -214.653523 
L 537.841331 -216.108068 
L 537.74449 -217.562614 
L 537.703924 -219.017159 
L 537.732558 -220.471705 
L 537.838066 -221.92625 
L 538.022145 -223.380795 
L 538.280494 -224.835341 
L 538.603438 -226.289886 
L 538.977062 -227.744432 
L 539.384662 -229.198977 
L 539.808268 -230.653523 
L 540.230059 -232.108068 
L 540.633473 -233.562614 
L 541.00392 -235.017159 
L 541.329041 -236.471705 
L 541.598535 -237.92625 
L 541.803617 -239.380795 
L 541.936215 -240.835341 
L 541.988032 -242.289886 
L 541.949638 -243.744432 
L 541.809759 -245.198977 
L 541.554946 -246.653523 
L 541.169798 -248.108068 
L 540.637907 -249.562614 
L 539.943597 -251.017159 
L 539.074452 -252.471705 
L 538.024468 -253.92625 
L 536.797507 -255.380795 
L 535.410554 -256.835341 
L 533.896179 -258.289886 
L 532.303573 -259.744432 
L 530.697627 -261.198977 
L 529.155748 -262.653523 
L 527.762455 -264.108068 
L 526.602193 -265.562614 
L 525.751178 -267.017159 
L 525.269373 -268.471705 
L 525.19375 -269.92625 
L 562.39375 -269.92625 
L 562.39375 -269.92625 
L 562.318127 -268.471705 
L 561.836322 -267.017159 
L 560.985307 -265.562614 
L 559.825045 -264.108068 
L 558.431752 -262.653523 
L 556.889873 -261.198977 
L 555.283927 -259.744432 
L 553.691321 -258.289886 
L 552.176946 -256.835341 
L 550.789993 -255.380795 
L 549.563032 -253.92625 
L 548.513048 -252.471705 
L 547.643903 -251.017159 
L 546.949593 -249.562614 
L 546.417702 -248.108068 
L 546.032554 -246.653523 
L 545.777741 -245.198977 
L 545.637862 -243.744432 
L 545.599468 -242.289886 
L 545.651285 -240.835341 
L 545.783883 -239.380795 
L 545.988965 -237.92625 
L 546.258459 -236.471705 
L 546.58358 -235.017159 
L 546.954027 -233.562614 
L 547.357441 -232.108068 
L 547.779232 -230.653523 
L 548.202838 -229.198977 
L 548.610438 -227.744432 
L 548.984062 -226.289886 
L 549.307006 -224.835341 
L 549.565355 -223.380795 
L 549.749434 -221.92625 
L 549.854942 -220.471705 
L 549.883576 -219.017159 
L 549.84301 -217.562614 
L 549.746169 -216.108068 
L 549.609842 -214.653523 
L 549.452788 -213.198977 
L 549.293558 -211.744432 
L 549.148327 -210.289886 
L 549.029003 -208.835341 
L 548.941902 -207.380795 
L 548.887148 -205.92625 
L 548.858892 -204.471705 
L 548.846308 -203.017159 
L 548.835223 -201.562614 
L 548.810125 -200.108068 
L 548.756269 -198.653523 
L 548.661577 -197.198977 
L 548.518079 -195.744432 
L 548.322719 -194.289886 
L 548.077471 -192.835341 
L 547.788811 -191.380795 
L 547.466679 -189.92625 
L 547.123136 -188.471705 
L 546.770941 -187.017159 
L 546.422244 -185.562614 
L 546.087546 -184.108068 
L 545.775022 -182.653523 
L 545.490223 -181.198977 
L 545.23611 -179.744432 
L 545.013366 -178.289886 
L 544.820863 -176.835341 
L 544.656211 -175.380795 
L 544.516293 -173.92625 
L 544.39773 -172.471705 
L 544.297242 -171.017159 
L 544.211881 -169.562614 
L 544.139164 -168.108068 
L 544.077099 -166.653523 
L 544.024146 -165.198977 
L 543.979144 -163.744432 
L 543.941214 -162.289886 
L 543.909682 -160.835341 
L 543.884012 -159.380795 
L 543.863774 -157.92625 
L 543.848641 -156.471705 
L 543.838409 -155.017159 
L 543.833031 -153.562614 
L 543.832657 -152.108068 
L 543.837667 -150.653523 
L 543.848677 -149.198977 
L 543.866522 -147.744432 
L 543.892183 -146.289886 
L 543.92668 -144.835341 
L 543.970911 -143.380795 
L 544.025454 -141.92625 
L 544.090353 -140.471705 
L 544.164918 -139.017159 
L 544.247562 -137.562614 
L 544.33573 -136.108068 
L 544.42593 -134.653523 
L 544.513905 -133.198977 
L 544.594929 -131.744432 
L 544.664203 -130.289886 
L 544.717324 -128.835341 
L 544.750741 -127.380795 
L 544.762147 -125.92625 
z
" id="ma66b25ee57" style="stroke:#000000;stroke-opacity:0.3;"/>
    </defs>
    <g clip-path="url(#p21efe57d88)">
     <use style="fill:#bfbf00;fill-opacity:0.3;stroke:#000000;stroke-opacity:0.3;" x="0.0" xlink:href="#ma66b25ee57" y="465.868"/>
    </g>
   </g>
   <g id="PolyCollection_8">
    <defs>
     <path d="M 631.316504 -125.92625 
L 605.070996 -125.92625 
L 604.967657 -127.380795 
L 604.956766 -128.835341 
L 605.037638 -130.289886 
L 605.207596 -131.744432 
L 605.462078 -133.198977 
L 605.794823 -134.653523 
L 606.198099 -136.108068 
L 606.662979 -137.562614 
L 607.179648 -139.017159 
L 607.737719 -140.471705 
L 608.326548 -141.92625 
L 608.935533 -143.380795 
L 609.554395 -144.835341 
L 610.173408 -146.289886 
L 610.783596 -147.744432 
L 611.376877 -149.198977 
L 611.946166 -150.653523 
L 612.485418 -152.108068 
L 612.989641 -153.562614 
L 613.454864 -155.017159 
L 613.878075 -156.471705 
L 614.257141 -157.92625 
L 614.59071 -159.380795 
L 614.878106 -160.835341 
L 615.11923 -162.289886 
L 615.314464 -163.744432 
L 615.464587 -165.198977 
L 615.570712 -166.653523 
L 615.634236 -168.108068 
L 615.656809 -169.562614 
L 615.640322 -171.017159 
L 615.586909 -172.471705 
L 615.498958 -173.92625 
L 615.379133 -175.380795 
L 615.230397 -176.835341 
L 615.056027 -178.289886 
L 614.859629 -179.744432 
L 614.645134 -181.198977 
L 614.416784 -182.653523 
L 614.179092 -184.108068 
L 613.93679 -185.562614 
L 613.694753 -187.017159 
L 613.457905 -188.471705 
L 613.231115 -189.92625 
L 613.019073 -191.380795 
L 612.826168 -192.835341 
L 612.656367 -194.289886 
L 612.513093 -195.744432 
L 612.399123 -197.198977 
L 612.316497 -198.653523 
L 612.266457 -200.108068 
L 612.249402 -201.562614 
L 612.264876 -203.017159 
L 612.311584 -204.471705 
L 612.38743 -205.92625 
L 612.489579 -207.380795 
L 612.614538 -208.835341 
L 612.758255 -210.289886 
L 612.916224 -211.744432 
L 613.083587 -213.198977 
L 613.255246 -214.653523 
L 613.425956 -216.108068 
L 613.590417 -217.562614 
L 613.743344 -219.017159 
L 613.879529 -220.471705 
L 613.993885 -221.92625 
L 614.081477 -223.380795 
L 614.137546 -224.835341 
L 614.157525 -226.289886 
L 614.137054 -227.744432 
L 614.071999 -229.198977 
L 613.958483 -230.653523 
L 613.792926 -232.108068 
L 613.572112 -233.562614 
L 613.293263 -235.017159 
L 612.95415 -236.471705 
L 612.553216 -237.92625 
L 612.08972 -239.380795 
L 611.563889 -240.835341 
L 610.977082 -242.289886 
L 610.331948 -243.744432 
L 609.632563 -245.198977 
L 608.884548 -246.653523 
L 608.095142 -248.108068 
L 607.273228 -249.562614 
L 606.429293 -251.017159 
L 605.575326 -252.471705 
L 604.724639 -253.92625 
L 603.89161 -255.380795 
L 603.091364 -256.835341 
L 602.339387 -258.289886 
L 601.651087 -259.744432 
L 601.041329 -261.198977 
L 600.523953 -262.653523 
L 600.1113 -264.108068 
L 599.813771 -265.562614 
L 599.639442 -267.017159 
L 599.59375 -268.471705 
L 599.679275 -269.92625 
L 636.708225 -269.92625 
L 636.708225 -269.92625 
L 636.79375 -268.471705 
L 636.748058 -267.017159 
L 636.573729 -265.562614 
L 636.2762 -264.108068 
L 635.863547 -262.653523 
L 635.346171 -261.198977 
L 634.736413 -259.744432 
L 634.048113 -258.289886 
L 633.296136 -256.835341 
L 632.49589 -255.380795 
L 631.662861 -253.92625 
L 630.812174 -252.471705 
L 629.958207 -251.017159 
L 629.114272 -249.562614 
L 628.292358 -248.108068 
L 627.502952 -246.653523 
L 626.754937 -245.198977 
L 626.055552 -243.744432 
L 625.410418 -242.289886 
L 624.823611 -240.835341 
L 624.29778 -239.380795 
L 623.834284 -237.92625 
L 623.43335 -236.471705 
L 623.094237 -235.017159 
L 622.815388 -233.562614 
L 622.594574 -232.108068 
L 622.429017 -230.653523 
L 622.315501 -229.198977 
L 622.250446 -227.744432 
L 622.229975 -226.289886 
L 622.249954 -224.835341 
L 622.306023 -223.380795 
L 622.393615 -221.92625 
L 622.507971 -220.471705 
L 622.644156 -219.017159 
L 622.797083 -217.562614 
L 622.961544 -216.108068 
L 623.132254 -214.653523 
L 623.303913 -213.198977 
L 623.471276 -211.744432 
L 623.629245 -210.289886 
L 623.772962 -208.835341 
L 623.897921 -207.380795 
L 624.00007 -205.92625 
L 624.075916 -204.471705 
L 624.122624 -203.017159 
L 624.138098 -201.562614 
L 624.121043 -200.108068 
L 624.071003 -198.653523 
L 623.988377 -197.198977 
L 623.874407 -195.744432 
L 623.731133 -194.289886 
L 623.561332 -192.835341 
L 623.368427 -191.380795 
L 623.156385 -189.92625 
L 622.929595 -188.471705 
L 622.692747 -187.017159 
L 622.45071 -185.562614 
L 622.208408 -184.108068 
L 621.970716 -182.653523 
L 621.742366 -181.198977 
L 621.527871 -179.744432 
L 621.331473 -178.289886 
L 621.157103 -176.835341 
L 621.008367 -175.380795 
L 620.888542 -173.92625 
L 620.800591 -172.471705 
L 620.747178 -171.017159 
L 620.730691 -169.562614 
L 620.753264 -168.108068 
L 620.816788 -166.653523 
L 620.922913 -165.198977 
L 621.073036 -163.744432 
L 621.26827 -162.289886 
L 621.509394 -160.835341 
L 621.79679 -159.380795 
L 622.130359 -157.92625 
L 622.509425 -156.471705 
L 622.932636 -155.017159 
L 623.397859 -153.562614 
L 623.902082 -152.108068 
L 624.441334 -150.653523 
L 625.010623 -149.198977 
L 625.603904 -147.744432 
L 626.214092 -146.289886 
L 626.833105 -144.835341 
L 627.451967 -143.380795 
L 628.060952 -141.92625 
L 628.649781 -140.471705 
L 629.207852 -139.017159 
L 629.724521 -137.562614 
L 630.189401 -136.108068 
L 630.592677 -134.653523 
L 630.925422 -133.198977 
L 631.179904 -131.744432 
L 631.349862 -130.289886 
L 631.430734 -128.835341 
L 631.419843 -127.380795 
L 631.316504 -125.92625 
z
" id="m1deff3e17b" style="stroke:#000000;stroke-opacity:0.3;"/>
    </defs>
    <g clip-path="url(#p21efe57d88)">
     <use style="fill:#bfbf00;fill-opacity:0.3;stroke:#000000;stroke-opacity:0.3;" x="0.0" xlink:href="#m1deff3e17b" y="465.868"/>
    </g>
   </g>
   <g id="LineCollection_1">
    <path clip-path="url(#p21efe57d88)" d="M 88.09375 123.94175 
L 106.69375 123.94175 
" style="fill:none;stroke:#ff0000;"/>
    <path clip-path="url(#p21efe57d88)" d="M 162.49375 181.54175 
L 181.09375 181.54175 
" style="fill:none;stroke:#ff0000;"/>
    <path clip-path="url(#p21efe57d88)" d="M 236.89375 195.94175 
L 255.49375 195.94175 
" style="fill:none;stroke:#ff0000;"/>
    <path clip-path="url(#p21efe57d88)" d="M 311.29375 195.94175 
L 329.89375 195.94175 
" style="fill:none;stroke:#ff0000;"/>
    <path clip-path="url(#p21efe57d88)" d="M 385.69375 195.94175 
L 404.29375 195.94175 
" style="fill:none;stroke:#ff0000;"/>
    <path clip-path="url(#p21efe57d88)" d="M 460.09375 195.94175 
L 478.69375 195.94175 
" style="fill:none;stroke:#ff0000;"/>
    <path clip-path="url(#p21efe57d88)" d="M 534.49375 195.94175 
L 553.09375 195.94175 
" style="fill:none;stroke:#ff0000;"/>
    <path clip-path="url(#p21efe57d88)" d="M 608.89375 243.94175 
L 627.49375 243.94175 
" style="fill:none;stroke:#ff0000;"/>
   </g>
   <g id="patch_3">
    <path d="M 22.99375 23.14175 
L 692.59375 23.14175 
" style="fill:none;stroke:#000000;stroke-linecap:square;stroke-linejoin:miter;"/>
   </g>
   <g id="patch_4">
    <path d="M 692.59375 368.74175 
L 692.59375 23.14175 
" style="fill:none;stroke:#000000;stroke-linecap:square;stroke-linejoin:miter;"/>
   </g>
   <g id="patch_5">
    <path d="M 22.99375 368.74175 
L 692.59375 368.74175 
" style="fill:none;stroke:#000000;stroke-linecap:square;stroke-linejoin:miter;"/>
   </g>
   <g id="patch_6">
    <path d="M 22.99375 368.74175 
L 22.99375 23.14175 
" style="fill:none;stroke:#000000;stroke-linecap:square;stroke-linejoin:miter;"/>
   </g>
   <g id="matplotlib.axis_1">
    <g id="xtick_1">
     <g id="line2d_1">
      <defs>
       <path d="M 0 0 
L 0 -4 
" id="mabe2e61e42" style="stroke:#000000;stroke-width:0.5;"/>
      </defs>
      <g>
       <use style="stroke:#000000;stroke-width:0.5;" x="97.39375" xlink:href="#mabe2e61e42" y="368.74175"/>
      </g>
     </g>
     <g id="line2d_2">
      <defs>
       <path d="M 0 0 
L 0 4 
" id="m67d8c9de3c" style="stroke:#000000;stroke-width:0.5;"/>
      </defs>
      <g>
       <use style="stroke:#000000;stroke-width:0.5;" x="97.39375" xlink:href="#m67d8c9de3c" y="23.14175"/>
      </g>
     </g>
     <g id="text_1">
      <!-- Defector -->
      <defs>
       <path d="M 30.609375 48.390625 
Q 23.390625 48.390625 19.1875 42.75 
Q 14.984375 37.109375 14.984375 27.296875 
Q 14.984375 17.484375 19.15625 11.84375 
Q 23.34375 6.203125 30.609375 6.203125 
Q 37.796875 6.203125 41.984375 11.859375 
Q 46.1875 17.53125 46.1875 27.296875 
Q 46.1875 37.015625 41.984375 42.703125 
Q 37.796875 48.390625 30.609375 48.390625 
M 30.609375 56 
Q 42.328125 56 49.015625 48.375 
Q 55.71875 40.765625 55.71875 27.296875 
Q 55.71875 13.875 49.015625 6.21875 
Q 42.328125 -1.421875 30.609375 -1.421875 
Q 18.84375 -1.421875 12.171875 6.21875 
Q 5.515625 13.875 5.515625 27.296875 
Q 5.515625 40.765625 12.171875 48.375 
Q 18.84375 56 30.609375 56 
" id="BitstreamVeraSans-Roman-6f"/>
       <path d="M 19.671875 64.796875 
L 19.671875 8.109375 
L 31.59375 8.109375 
Q 46.6875 8.109375 53.6875 14.9375 
Q 60.6875 21.78125 60.6875 36.53125 
Q 60.6875 51.171875 53.6875 57.984375 
Q 46.6875 64.796875 31.59375 64.796875 
z
M 9.8125 72.90625 
L 30.078125 72.90625 
Q 51.265625 72.90625 61.171875 64.09375 
Q 71.09375 55.28125 71.09375 36.53125 
Q 71.09375 17.671875 61.125 8.828125 
Q 51.171875 0 30.078125 0 
L 9.8125 0 
z
" id="BitstreamVeraSans-Roman-44"/>
       <path d="M 56.203125 29.59375 
L 56.203125 25.203125 
L 14.890625 25.203125 
Q 15.484375 15.921875 20.484375 11.0625 
Q 25.484375 6.203125 34.421875 6.203125 
Q 39.59375 6.203125 44.453125 7.46875 
Q 49.3125 8.734375 54.109375 11.28125 
L 54.109375 2.78125 
Q 49.265625 0.734375 44.1875 -0.34375 
Q 39.109375 -1.421875 33.890625 -1.421875 
Q 20.796875 -1.421875 13.15625 6.1875 
Q 5.515625 13.8125 5.515625 26.8125 
Q 5.515625 40.234375 12.765625 48.109375 
Q 20.015625 56 32.328125 56 
Q 43.359375 56 49.78125 48.890625 
Q 56.203125 41.796875 56.203125 29.59375 
M 47.21875 32.234375 
Q 47.125 39.59375 43.09375 43.984375 
Q 39.0625 48.390625 32.421875 48.390625 
Q 24.90625 48.390625 20.390625 44.140625 
Q 15.875 39.890625 15.1875 32.171875 
z
" id="BitstreamVeraSans-Roman-65"/>
       <path d="M 18.3125 70.21875 
L 18.3125 54.6875 
L 36.8125 54.6875 
L 36.8125 47.703125 
L 18.3125 47.703125 
L 18.3125 18.015625 
Q 18.3125 11.328125 20.140625 9.421875 
Q 21.96875 7.515625 27.59375 7.515625 
L 36.8125 7.515625 
L 36.8125 0 
L 27.59375 0 
Q 17.1875 0 13.234375 3.875 
Q 9.28125 7.765625 9.28125 18.015625 
L 9.28125 47.703125 
L 2.6875 47.703125 
L 2.6875 54.6875 
L 9.28125 54.6875 
L 9.28125 70.21875 
z
" id="BitstreamVeraSans-Roman-74"/>
       <path d="M 37.109375 75.984375 
L 37.109375 68.5 
L 28.515625 68.5 
Q 23.6875 68.5 21.796875 66.546875 
Q 19.921875 64.59375 19.921875 59.515625 
L 19.921875 54.6875 
L 34.71875 54.6875 
L 34.71875 47.703125 
L 19.921875 47.703125 
L 19.921875 0 
L 10.890625 0 
L 10.890625 47.703125 
L 2.296875 47.703125 
L 2.296875 54.6875 
L 10.890625 54.6875 
L 10.890625 58.5 
Q 10.890625 67.625 15.140625 71.796875 
Q 19.390625 75.984375 28.609375 75.984375 
z
" id="BitstreamVeraSans-Roman-66"/>
       <path d="M 41.109375 46.296875 
Q 39.59375 47.171875 37.8125 47.578125 
Q 36.03125 48 33.890625 48 
Q 26.265625 48 22.1875 43.046875 
Q 18.109375 38.09375 18.109375 28.8125 
L 18.109375 0 
L 9.078125 0 
L 9.078125 54.6875 
L 18.109375 54.6875 
L 18.109375 46.1875 
Q 20.953125 51.171875 25.484375 53.578125 
Q 30.03125 56 36.53125 56 
Q 37.453125 56 38.578125 55.875 
Q 39.703125 55.765625 41.0625 55.515625 
z
" id="BitstreamVeraSans-Roman-72"/>
       <path d="M 48.78125 52.59375 
L 48.78125 44.1875 
Q 44.96875 46.296875 41.140625 47.34375 
Q 37.3125 48.390625 33.40625 48.390625 
Q 24.65625 48.390625 19.8125 42.84375 
Q 14.984375 37.3125 14.984375 27.296875 
Q 14.984375 17.28125 19.8125 11.734375 
Q 24.65625 6.203125 33.40625 6.203125 
Q 37.3125 6.203125 41.140625 7.25 
Q 44.96875 8.296875 48.78125 10.40625 
L 48.78125 2.09375 
Q 45.015625 0.34375 40.984375 -0.53125 
Q 36.96875 -1.421875 32.421875 -1.421875 
Q 20.0625 -1.421875 12.78125 6.34375 
Q 5.515625 14.109375 5.515625 27.296875 
Q 5.515625 40.671875 12.859375 48.328125 
Q 20.21875 56 33.015625 56 
Q 37.15625 56 41.109375 55.140625 
Q 45.0625 54.296875 48.78125 52.59375 
" id="BitstreamVeraSans-Roman-63"/>
      </defs>
      <g transform="translate(99.60125 407.28175)rotate(-90.0)scale(0.08 -0.08)">
       <use xlink:href="#BitstreamVeraSans-Roman-44"/>
       <use x="77.001953125" xlink:href="#BitstreamVeraSans-Roman-65"/>
       <use x="138.525390625" xlink:href="#BitstreamVeraSans-Roman-66"/>
       <use x="173.73046875" xlink:href="#BitstreamVeraSans-Roman-65"/>
       <use x="235.25390625" xlink:href="#BitstreamVeraSans-Roman-63"/>
       <use x="290.234375" xlink:href="#BitstreamVeraSans-Roman-74"/>
       <use x="329.443359375" xlink:href="#BitstreamVeraSans-Roman-6f"/>
       <use x="390.625" xlink:href="#BitstreamVeraSans-Roman-72"/>
      </g>
     </g>
    </g>
    <g id="xtick_2">
     <g id="line2d_3">
      <g>
       <use style="stroke:#000000;stroke-width:0.5;" x="171.79375" xlink:href="#mabe2e61e42" y="368.74175"/>
      </g>
     </g>
     <g id="line2d_4">
      <g>
       <use style="stroke:#000000;stroke-width:0.5;" x="171.79375" xlink:href="#m67d8c9de3c" y="23.14175"/>
      </g>
     </g>
     <g id="text_2">
      <!-- Bully -->
      <defs>
       <path d="M 8.5 21.578125 
L 8.5 54.6875 
L 17.484375 54.6875 
L 17.484375 21.921875 
Q 17.484375 14.15625 20.5 10.265625 
Q 23.53125 6.390625 29.59375 6.390625 
Q 36.859375 6.390625 41.078125 11.03125 
Q 45.3125 15.671875 45.3125 23.6875 
L 45.3125 54.6875 
L 54.296875 54.6875 
L 54.296875 0 
L 45.3125 0 
L 45.3125 8.40625 
Q 42.046875 3.421875 37.71875 1 
Q 33.40625 -1.421875 27.6875 -1.421875 
Q 18.265625 -1.421875 13.375 4.4375 
Q 8.5 10.296875 8.5 21.578125 
" id="BitstreamVeraSans-Roman-75"/>
       <path d="M 19.671875 34.8125 
L 19.671875 8.109375 
L 35.5 8.109375 
Q 43.453125 8.109375 47.28125 11.40625 
Q 51.125 14.703125 51.125 21.484375 
Q 51.125 28.328125 47.28125 31.5625 
Q 43.453125 34.8125 35.5 34.8125 
z
M 19.671875 64.796875 
L 19.671875 42.828125 
L 34.28125 42.828125 
Q 41.5 42.828125 45.03125 45.53125 
Q 48.578125 48.25 48.578125 53.8125 
Q 48.578125 59.328125 45.03125 62.0625 
Q 41.5 64.796875 34.28125 64.796875 
z
M 9.8125 72.90625 
L 35.015625 72.90625 
Q 46.296875 72.90625 52.390625 68.21875 
Q 58.5 63.53125 58.5 54.890625 
Q 58.5 48.1875 55.375 44.234375 
Q 52.25 40.28125 46.1875 39.3125 
Q 53.46875 37.75 57.5 32.78125 
Q 61.53125 27.828125 61.53125 20.40625 
Q 61.53125 10.640625 54.890625 5.3125 
Q 48.25 0 35.984375 0 
L 9.8125 0 
z
" id="BitstreamVeraSans-Roman-42"/>
       <path d="M 9.421875 75.984375 
L 18.40625 75.984375 
L 18.40625 0 
L 9.421875 0 
z
" id="BitstreamVeraSans-Roman-6c"/>
       <path d="M 32.171875 -5.078125 
Q 28.375 -14.84375 24.75 -17.8125 
Q 21.140625 -20.796875 15.09375 -20.796875 
L 7.90625 -20.796875 
L 7.90625 -13.28125 
L 13.1875 -13.28125 
Q 16.890625 -13.28125 18.9375 -11.515625 
Q 21 -9.765625 23.484375 -3.21875 
L 25.09375 0.875 
L 2.984375 54.6875 
L 12.5 54.6875 
L 29.59375 11.921875 
L 46.6875 54.6875 
L 56.203125 54.6875 
z
" id="BitstreamVeraSans-Roman-79"/>
      </defs>
      <g transform="translate(174.00125 392.4805)rotate(-90.0)scale(0.08 -0.08)">
       <use xlink:href="#BitstreamVeraSans-Roman-42"/>
       <use x="68.603515625" xlink:href="#BitstreamVeraSans-Roman-75"/>
       <use x="131.982421875" xlink:href="#BitstreamVeraSans-Roman-6c"/>
       <use x="159.765625" xlink:href="#BitstreamVeraSans-Roman-6c"/>
       <use x="187.548828125" xlink:href="#BitstreamVeraSans-Roman-79"/>
      </g>
     </g>
    </g>
    <g id="xtick_3">
     <g id="line2d_5">
      <g>
       <use style="stroke:#000000;stroke-width:0.5;" x="246.19375" xlink:href="#mabe2e61e42" y="368.74175"/>
      </g>
     </g>
     <g id="line2d_6">
      <g>
       <use style="stroke:#000000;stroke-width:0.5;" x="246.19375" xlink:href="#m67d8c9de3c" y="23.14175"/>
      </g>
     </g>
     <g id="text_3">
      <!-- Suspicious Tit For Tat -->
      <defs>
       <path id="BitstreamVeraSans-Roman-20"/>
       <path d="M 9.8125 72.90625 
L 51.703125 72.90625 
L 51.703125 64.59375 
L 19.671875 64.59375 
L 19.671875 43.109375 
L 48.578125 43.109375 
L 48.578125 34.8125 
L 19.671875 34.8125 
L 19.671875 0 
L 9.8125 0 
z
" id="BitstreamVeraSans-Roman-46"/>
       <path d="M 53.515625 70.515625 
L 53.515625 60.890625 
Q 47.90625 63.578125 42.921875 64.890625 
Q 37.9375 66.21875 33.296875 66.21875 
Q 25.25 66.21875 20.875 63.09375 
Q 16.5 59.96875 16.5 54.203125 
Q 16.5 49.359375 19.40625 46.890625 
Q 22.3125 44.4375 30.421875 42.921875 
L 36.375 41.703125 
Q 47.40625 39.59375 52.65625 34.296875 
Q 57.90625 29 57.90625 20.125 
Q 57.90625 9.515625 50.796875 4.046875 
Q 43.703125 -1.421875 29.984375 -1.421875 
Q 24.8125 -1.421875 18.96875 -0.25 
Q 13.140625 0.921875 6.890625 3.21875 
L 6.890625 13.375 
Q 12.890625 10.015625 18.65625 8.296875 
Q 24.421875 6.59375 29.984375 6.59375 
Q 38.421875 6.59375 43.015625 9.90625 
Q 47.609375 13.234375 47.609375 19.390625 
Q 47.609375 24.75 44.3125 27.78125 
Q 41.015625 30.8125 33.5 32.328125 
L 27.484375 33.5 
Q 16.453125 35.6875 11.515625 40.375 
Q 6.59375 45.0625 6.59375 53.421875 
Q 6.59375 63.09375 13.40625 68.65625 
Q 20.21875 74.21875 32.171875 74.21875 
Q 37.3125 74.21875 42.625 73.28125 
Q 47.953125 72.359375 53.515625 70.515625 
" id="BitstreamVeraSans-Roman-53"/>
       <path d="M -0.296875 72.90625 
L 61.375 72.90625 
L 61.375 64.59375 
L 35.5 64.59375 
L 35.5 0 
L 25.59375 0 
L 25.59375 64.59375 
L -0.296875 64.59375 
z
" id="BitstreamVeraSans-Roman-54"/>
       <path d="M 9.421875 54.6875 
L 18.40625 54.6875 
L 18.40625 0 
L 9.421875 0 
z
M 9.421875 75.984375 
L 18.40625 75.984375 
L 18.40625 64.59375 
L 9.421875 64.59375 
z
" id="BitstreamVeraSans-Roman-69"/>
       <path d="M 34.28125 27.484375 
Q 23.390625 27.484375 19.1875 25 
Q 14.984375 22.515625 14.984375 16.5 
Q 14.984375 11.71875 18.140625 8.90625 
Q 21.296875 6.109375 26.703125 6.109375 
Q 34.1875 6.109375 38.703125 11.40625 
Q 43.21875 16.703125 43.21875 25.484375 
L 43.21875 27.484375 
z
M 52.203125 31.203125 
L 52.203125 0 
L 43.21875 0 
L 43.21875 8.296875 
Q 40.140625 3.328125 35.546875 0.953125 
Q 30.953125 -1.421875 24.3125 -1.421875 
Q 15.921875 -1.421875 10.953125 3.296875 
Q 6 8.015625 6 15.921875 
Q 6 25.140625 12.171875 29.828125 
Q 18.359375 34.515625 30.609375 34.515625 
L 43.21875 34.515625 
L 43.21875 35.40625 
Q 43.21875 41.609375 39.140625 45 
Q 35.0625 48.390625 27.6875 48.390625 
Q 23 48.390625 18.546875 47.265625 
Q 14.109375 46.140625 10.015625 43.890625 
L 10.015625 52.203125 
Q 14.9375 54.109375 19.578125 55.046875 
Q 24.21875 56 28.609375 56 
Q 40.484375 56 46.34375 49.84375 
Q 52.203125 43.703125 52.203125 31.203125 
" id="BitstreamVeraSans-Roman-61"/>
       <path d="M 44.28125 53.078125 
L 44.28125 44.578125 
Q 40.484375 46.53125 36.375 47.5 
Q 32.28125 48.484375 27.875 48.484375 
Q 21.1875 48.484375 17.84375 46.4375 
Q 14.5 44.390625 14.5 40.28125 
Q 14.5 37.15625 16.890625 35.375 
Q 19.28125 33.59375 26.515625 31.984375 
L 29.59375 31.296875 
Q 39.15625 29.25 43.1875 25.515625 
Q 47.21875 21.78125 47.21875 15.09375 
Q 47.21875 7.46875 41.1875 3.015625 
Q 35.15625 -1.421875 24.609375 -1.421875 
Q 20.21875 -1.421875 15.453125 -0.5625 
Q 10.6875 0.296875 5.421875 2 
L 5.421875 11.28125 
Q 10.40625 8.6875 15.234375 7.390625 
Q 20.0625 6.109375 24.8125 6.109375 
Q 31.15625 6.109375 34.5625 8.28125 
Q 37.984375 10.453125 37.984375 14.40625 
Q 37.984375 18.0625 35.515625 20.015625 
Q 33.0625 21.96875 24.703125 23.78125 
L 21.578125 24.515625 
Q 13.234375 26.265625 9.515625 29.90625 
Q 5.8125 33.546875 5.8125 39.890625 
Q 5.8125 47.609375 11.28125 51.796875 
Q 16.75 56 26.8125 56 
Q 31.78125 56 36.171875 55.265625 
Q 40.578125 54.546875 44.28125 53.078125 
" id="BitstreamVeraSans-Roman-73"/>
       <path d="M 18.109375 8.203125 
L 18.109375 -20.796875 
L 9.078125 -20.796875 
L 9.078125 54.6875 
L 18.109375 54.6875 
L 18.109375 46.390625 
Q 20.953125 51.265625 25.265625 53.625 
Q 29.59375 56 35.59375 56 
Q 45.5625 56 51.78125 48.09375 
Q 58.015625 40.1875 58.015625 27.296875 
Q 58.015625 14.40625 51.78125 6.484375 
Q 45.5625 -1.421875 35.59375 -1.421875 
Q 29.59375 -1.421875 25.265625 0.953125 
Q 20.953125 3.328125 18.109375 8.203125 
M 48.6875 27.296875 
Q 48.6875 37.203125 44.609375 42.84375 
Q 40.53125 48.484375 33.40625 48.484375 
Q 26.265625 48.484375 22.1875 42.84375 
Q 18.109375 37.203125 18.109375 27.296875 
Q 18.109375 17.390625 22.1875 11.75 
Q 26.265625 6.109375 33.40625 6.109375 
Q 40.53125 6.109375 44.609375 11.75 
Q 48.6875 17.390625 48.6875 27.296875 
" id="BitstreamVeraSans-Roman-70"/>
      </defs>
      <g transform="translate(248.40125 458.668)rotate(-90.0)scale(0.08 -0.08)">
       <use xlink:href="#BitstreamVeraSans-Roman-53"/>
       <use x="63.4765625" xlink:href="#BitstreamVeraSans-Roman-75"/>
       <use x="126.85546875" xlink:href="#BitstreamVeraSans-Roman-73"/>
       <use x="178.955078125" xlink:href="#BitstreamVeraSans-Roman-70"/>
       <use x="242.431640625" xlink:href="#BitstreamVeraSans-Roman-69"/>
       <use x="270.21484375" xlink:href="#BitstreamVeraSans-Roman-63"/>
       <use x="325.1953125" xlink:href="#BitstreamVeraSans-Roman-69"/>
       <use x="352.978515625" xlink:href="#BitstreamVeraSans-Roman-6f"/>
       <use x="414.16015625" xlink:href="#BitstreamVeraSans-Roman-75"/>
       <use x="477.5390625" xlink:href="#BitstreamVeraSans-Roman-73"/>
       <use x="529.638671875" xlink:href="#BitstreamVeraSans-Roman-20"/>
       <use x="561.42578125" xlink:href="#BitstreamVeraSans-Roman-54"/>
       <use x="622.462890625" xlink:href="#BitstreamVeraSans-Roman-69"/>
       <use x="650.24609375" xlink:href="#BitstreamVeraSans-Roman-74"/>
       <use x="689.455078125" xlink:href="#BitstreamVeraSans-Roman-20"/>
       <use x="721.2421875" xlink:href="#BitstreamVeraSans-Roman-46"/>
       <use x="778.71484375" xlink:href="#BitstreamVeraSans-Roman-6f"/>
       <use x="839.896484375" xlink:href="#BitstreamVeraSans-Roman-72"/>
       <use x="881.009765625" xlink:href="#BitstreamVeraSans-Roman-20"/>
       <use x="912.796875" xlink:href="#BitstreamVeraSans-Roman-54"/>
       <use x="973.630859375" xlink:href="#BitstreamVeraSans-Roman-61"/>
       <use x="1034.91015625" xlink:href="#BitstreamVeraSans-Roman-74"/>
      </g>
     </g>
    </g>
    <g id="xtick_4">
     <g id="line2d_7">
      <g>
       <use style="stroke:#000000;stroke-width:0.5;" x="320.59375" xlink:href="#mabe2e61e42" y="368.74175"/>
      </g>
     </g>
     <g id="line2d_8">
      <g>
       <use style="stroke:#000000;stroke-width:0.5;" x="320.59375" xlink:href="#m67d8c9de3c" y="23.14175"/>
      </g>
     </g>
     <g id="text_4">
      <!-- Alternator -->
      <defs>
       <path d="M 54.890625 33.015625 
L 54.890625 0 
L 45.90625 0 
L 45.90625 32.71875 
Q 45.90625 40.484375 42.875 44.328125 
Q 39.84375 48.1875 33.796875 48.1875 
Q 26.515625 48.1875 22.3125 43.546875 
Q 18.109375 38.921875 18.109375 30.90625 
L 18.109375 0 
L 9.078125 0 
L 9.078125 54.6875 
L 18.109375 54.6875 
L 18.109375 46.1875 
Q 21.34375 51.125 25.703125 53.5625 
Q 30.078125 56 35.796875 56 
Q 45.21875 56 50.046875 50.171875 
Q 54.890625 44.34375 54.890625 33.015625 
" id="BitstreamVeraSans-Roman-6e"/>
       <path d="M 34.1875 63.1875 
L 20.796875 26.90625 
L 47.609375 26.90625 
z
M 28.609375 72.90625 
L 39.796875 72.90625 
L 67.578125 0 
L 57.328125 0 
L 50.6875 18.703125 
L 17.828125 18.703125 
L 11.1875 0 
L 0.78125 0 
z
" id="BitstreamVeraSans-Roman-41"/>
      </defs>
      <g transform="translate(322.80125 413.0755)rotate(-90.0)scale(0.08 -0.08)">
       <use xlink:href="#BitstreamVeraSans-Roman-41"/>
       <use x="68.408203125" xlink:href="#BitstreamVeraSans-Roman-6c"/>
       <use x="96.19140625" xlink:href="#BitstreamVeraSans-Roman-74"/>
       <use x="135.400390625" xlink:href="#BitstreamVeraSans-Roman-65"/>
       <use x="196.923828125" xlink:href="#BitstreamVeraSans-Roman-72"/>
       <use x="238.021484375" xlink:href="#BitstreamVeraSans-Roman-6e"/>
       <use x="301.400390625" xlink:href="#BitstreamVeraSans-Roman-61"/>
       <use x="362.6796875" xlink:href="#BitstreamVeraSans-Roman-74"/>
       <use x="401.888671875" xlink:href="#BitstreamVeraSans-Roman-6f"/>
       <use x="463.0703125" xlink:href="#BitstreamVeraSans-Roman-72"/>
      </g>
     </g>
    </g>
    <g id="xtick_5">
     <g id="line2d_9">
      <g>
       <use style="stroke:#000000;stroke-width:0.5;" x="394.99375" xlink:href="#mabe2e61e42" y="368.74175"/>
      </g>
     </g>
     <g id="line2d_10">
      <g>
       <use style="stroke:#000000;stroke-width:0.5;" x="394.99375" xlink:href="#m67d8c9de3c" y="23.14175"/>
      </g>
     </g>
     <g id="text_5">
      <!-- Tit For Tat -->
      <g transform="translate(397.20125 413.75425)rotate(-90.0)scale(0.08 -0.08)">
       <use xlink:href="#BitstreamVeraSans-Roman-54"/>
       <use x="61.037109375" xlink:href="#BitstreamVeraSans-Roman-69"/>
       <use x="88.8203125" xlink:href="#BitstreamVeraSans-Roman-74"/>
       <use x="128.029296875" xlink:href="#BitstreamVeraSans-Roman-20"/>
       <use x="159.81640625" xlink:href="#BitstreamVeraSans-Roman-46"/>
       <use x="217.2890625" xlink:href="#BitstreamVeraSans-Roman-6f"/>
       <use x="278.470703125" xlink:href="#BitstreamVeraSans-Roman-72"/>
       <use x="319.583984375" xlink:href="#BitstreamVeraSans-Roman-20"/>
       <use x="351.37109375" xlink:href="#BitstreamVeraSans-Roman-54"/>
       <use x="412.205078125" xlink:href="#BitstreamVeraSans-Roman-61"/>
       <use x="473.484375" xlink:href="#BitstreamVeraSans-Roman-74"/>
      </g>
     </g>
    </g>
    <g id="xtick_6">
     <g id="line2d_11">
      <g>
       <use style="stroke:#000000;stroke-width:0.5;" x="469.39375" xlink:href="#mabe2e61e42" y="368.74175"/>
      </g>
     </g>
     <g id="line2d_12">
      <g>
       <use style="stroke:#000000;stroke-width:0.5;" x="469.39375" xlink:href="#m67d8c9de3c" y="23.14175"/>
      </g>
     </g>
     <g id="text_6">
      <!-- Anti Tit For Tat -->
      <g transform="translate(471.60125 432.198)rotate(-90.0)scale(0.08 -0.08)">
       <use xlink:href="#BitstreamVeraSans-Roman-41"/>
       <use x="68.408203125" xlink:href="#BitstreamVeraSans-Roman-6e"/>
       <use x="131.787109375" xlink:href="#BitstreamVeraSans-Roman-74"/>
       <use x="170.99609375" xlink:href="#BitstreamVeraSans-Roman-69"/>
       <use x="198.779296875" xlink:href="#BitstreamVeraSans-Roman-20"/>
       <use x="230.56640625" xlink:href="#BitstreamVeraSans-Roman-54"/>
       <use x="291.603515625" xlink:href="#BitstreamVeraSans-Roman-69"/>
       <use x="319.38671875" xlink:href="#BitstreamVeraSans-Roman-74"/>
       <use x="358.595703125" xlink:href="#BitstreamVeraSans-Roman-20"/>
       <use x="390.3828125" xlink:href="#BitstreamVeraSans-Roman-46"/>
       <use x="447.85546875" xlink:href="#BitstreamVeraSans-Roman-6f"/>
       <use x="509.037109375" xlink:href="#BitstreamVeraSans-Roman-72"/>
       <use x="550.150390625" xlink:href="#BitstreamVeraSans-Roman-20"/>
       <use x="581.9375" xlink:href="#BitstreamVeraSans-Roman-54"/>
       <use x="642.771484375" xlink:href="#BitstreamVeraSans-Roman-61"/>
       <use x="704.05078125" xlink:href="#BitstreamVeraSans-Roman-74"/>
      </g>
     </g>
    </g>
    <g id="xtick_7">
     <g id="line2d_13">
      <g>
       <use style="stroke:#000000;stroke-width:0.5;" x="543.79375" xlink:href="#mabe2e61e42" y="368.74175"/>
      </g>
     </g>
     <g id="line2d_14">
      <g>
       <use style="stroke:#000000;stroke-width:0.5;" x="543.79375" xlink:href="#m67d8c9de3c" y="23.14175"/>
      </g>
     </g>
     <g id="text_7">
      <!-- Win-Stay Lose-Shift -->
      <defs>
       <path d="M 54.890625 33.015625 
L 54.890625 0 
L 45.90625 0 
L 45.90625 32.71875 
Q 45.90625 40.484375 42.875 44.328125 
Q 39.84375 48.1875 33.796875 48.1875 
Q 26.515625 48.1875 22.3125 43.546875 
Q 18.109375 38.921875 18.109375 30.90625 
L 18.109375 0 
L 9.078125 0 
L 9.078125 75.984375 
L 18.109375 75.984375 
L 18.109375 46.1875 
Q 21.34375 51.125 25.703125 53.5625 
Q 30.078125 56 35.796875 56 
Q 45.21875 56 50.046875 50.171875 
Q 54.890625 44.34375 54.890625 33.015625 
" id="BitstreamVeraSans-Roman-68"/>
       <path d="M 9.8125 72.90625 
L 19.671875 72.90625 
L 19.671875 8.296875 
L 55.171875 8.296875 
L 55.171875 0 
L 9.8125 0 
z
" id="BitstreamVeraSans-Roman-4c"/>
       <path d="M 4.890625 31.390625 
L 31.203125 31.390625 
L 31.203125 23.390625 
L 4.890625 23.390625 
z
" id="BitstreamVeraSans-Roman-2d"/>
       <path d="M 3.328125 72.90625 
L 13.28125 72.90625 
L 28.609375 11.28125 
L 43.890625 72.90625 
L 54.984375 72.90625 
L 70.3125 11.28125 
L 85.59375 72.90625 
L 95.609375 72.90625 
L 77.296875 0 
L 64.890625 0 
L 49.515625 63.28125 
L 33.984375 0 
L 21.578125 0 
z
" id="BitstreamVeraSans-Roman-57"/>
      </defs>
      <g transform="translate(546.00125 450.873)rotate(-90.0)scale(0.08 -0.08)">
       <use xlink:href="#BitstreamVeraSans-Roman-57"/>
       <use x="98.845703125" xlink:href="#BitstreamVeraSans-Roman-69"/>
       <use x="126.62890625" xlink:href="#BitstreamVeraSans-Roman-6e"/>
       <use x="190.0078125" xlink:href="#BitstreamVeraSans-Roman-2d"/>
       <use x="226.091796875" xlink:href="#BitstreamVeraSans-Roman-53"/>
       <use x="289.568359375" xlink:href="#BitstreamVeraSans-Roman-74"/>
       <use x="328.77734375" xlink:href="#BitstreamVeraSans-Roman-61"/>
       <use x="390.056640625" xlink:href="#BitstreamVeraSans-Roman-79"/>
       <use x="449.236328125" xlink:href="#BitstreamVeraSans-Roman-20"/>
       <use x="481.0234375" xlink:href="#BitstreamVeraSans-Roman-4c"/>
       <use x="536.720703125" xlink:href="#BitstreamVeraSans-Roman-6f"/>
       <use x="597.90234375" xlink:href="#BitstreamVeraSans-Roman-73"/>
       <use x="650.001953125" xlink:href="#BitstreamVeraSans-Roman-65"/>
       <use x="711.525390625" xlink:href="#BitstreamVeraSans-Roman-2d"/>
       <use x="747.609375" xlink:href="#BitstreamVeraSans-Roman-53"/>
       <use x="811.0859375" xlink:href="#BitstreamVeraSans-Roman-68"/>
       <use x="874.46484375" xlink:href="#BitstreamVeraSans-Roman-69"/>
       <use x="902.248046875" xlink:href="#BitstreamVeraSans-Roman-66"/>
       <use x="937.4375" xlink:href="#BitstreamVeraSans-Roman-74"/>
      </g>
     </g>
    </g>
    <g id="xtick_8">
     <g id="line2d_15">
      <g>
       <use style="stroke:#000000;stroke-width:0.5;" x="618.19375" xlink:href="#mabe2e61e42" y="368.74175"/>
      </g>
     </g>
     <g id="line2d_16">
      <g>
       <use style="stroke:#000000;stroke-width:0.5;" x="618.19375" xlink:href="#m67d8c9de3c" y="23.14175"/>
      </g>
     </g>
     <g id="text_8">
      <!-- Cooperator -->
      <defs>
       <path d="M 64.40625 67.28125 
L 64.40625 56.890625 
Q 59.421875 61.53125 53.78125 63.8125 
Q 48.140625 66.109375 41.796875 66.109375 
Q 29.296875 66.109375 22.65625 58.46875 
Q 16.015625 50.828125 16.015625 36.375 
Q 16.015625 21.96875 22.65625 14.328125 
Q 29.296875 6.6875 41.796875 6.6875 
Q 48.140625 6.6875 53.78125 8.984375 
Q 59.421875 11.28125 64.40625 15.921875 
L 64.40625 5.609375 
Q 59.234375 2.09375 53.4375 0.328125 
Q 47.65625 -1.421875 41.21875 -1.421875 
Q 24.65625 -1.421875 15.125 8.703125 
Q 5.609375 18.84375 5.609375 36.375 
Q 5.609375 53.953125 15.125 64.078125 
Q 24.65625 74.21875 41.21875 74.21875 
Q 47.75 74.21875 53.53125 72.484375 
Q 59.328125 70.75 64.40625 67.28125 
" id="BitstreamVeraSans-Roman-43"/>
      </defs>
      <g transform="translate(620.40125 417.6305)rotate(-90.0)scale(0.08 -0.08)">
       <use xlink:href="#BitstreamVeraSans-Roman-43"/>
       <use x="69.82421875" xlink:href="#BitstreamVeraSans-Roman-6f"/>
       <use x="131.005859375" xlink:href="#BitstreamVeraSans-Roman-6f"/>
       <use x="192.1875" xlink:href="#BitstreamVeraSans-Roman-70"/>
       <use x="255.6640625" xlink:href="#BitstreamVeraSans-Roman-65"/>
       <use x="317.1875" xlink:href="#BitstreamVeraSans-Roman-72"/>
       <use x="358.30078125" xlink:href="#BitstreamVeraSans-Roman-61"/>
       <use x="419.580078125" xlink:href="#BitstreamVeraSans-Roman-74"/>
       <use x="458.7890625" xlink:href="#BitstreamVeraSans-Roman-6f"/>
       <use x="519.970703125" xlink:href="#BitstreamVeraSans-Roman-72"/>
      </g>
     </g>
    </g>
   </g>
   <g id="matplotlib.axis_2">
    <g id="ytick_1">
     <g id="line2d_17">
      <defs>
       <path d="M 0 0 
L 4 0 
" id="m219bc12ed3" style="stroke:#000000;stroke-width:0.5;"/>
      </defs>
      <g>
       <use style="stroke:#000000;stroke-width:0.5;" x="22.99375" xlink:href="#m219bc12ed3" y="368.74175"/>
      </g>
     </g>
     <g id="line2d_18">
      <defs>
       <path d="M 0 0 
L -4 0 
" id="m1aecb857af" style="stroke:#000000;stroke-width:0.5;"/>
      </defs>
      <g>
       <use style="stroke:#000000;stroke-width:0.5;" x="692.59375" xlink:href="#m1aecb857af" y="368.74175"/>
      </g>
     </g>
     <g id="text_9">
      <!-- 6 -->
      <defs>
       <path d="M 10.59375 35.5 
L 73.1875 35.5 
L 73.1875 27.203125 
L 10.59375 27.203125 
z
" id="BitstreamVeraSans-Roman-2212"/>
       <path d="M 33.015625 40.375 
Q 26.375 40.375 22.484375 35.828125 
Q 18.609375 31.296875 18.609375 23.390625 
Q 18.609375 15.53125 22.484375 10.953125 
Q 26.375 6.390625 33.015625 6.390625 
Q 39.65625 6.390625 43.53125 10.953125 
Q 47.40625 15.53125 47.40625 23.390625 
Q 47.40625 31.296875 43.53125 35.828125 
Q 39.65625 40.375 33.015625 40.375 
M 52.59375 71.296875 
L 52.59375 62.3125 
Q 48.875 64.0625 45.09375 64.984375 
Q 41.3125 65.921875 37.59375 65.921875 
Q 27.828125 65.921875 22.671875 59.328125 
Q 17.53125 52.734375 16.796875 39.40625 
Q 19.671875 43.65625 24.015625 45.921875 
Q 28.375 48.1875 33.59375 48.1875 
Q 44.578125 48.1875 50.953125 41.515625 
Q 57.328125 34.859375 57.328125 23.390625 
Q 57.328125 12.15625 50.6875 5.359375 
Q 44.046875 -1.421875 33.015625 -1.421875 
Q 20.359375 -1.421875 13.671875 8.265625 
Q 6.984375 17.96875 6.984375 36.375 
Q 6.984375 53.65625 15.1875 63.9375 
Q 23.390625 74.21875 37.203125 74.21875 
Q 40.921875 74.21875 44.703125 73.484375 
Q 48.484375 72.75 52.59375 71.296875 
" id="BitstreamVeraSans-Roman-36"/>
      </defs>
      <g transform="translate(7.2 370.94925)scale(0.08 -0.08)">
       <use xlink:href="#BitstreamVeraSans-Roman-2212"/>
       <use x="83.7890625" xlink:href="#BitstreamVeraSans-Roman-36"/>
      </g>
     </g>
    </g>
    <g id="ytick_2">
     <g id="line2d_19">
      <g>
       <use style="stroke:#000000;stroke-width:0.5;" x="22.99375" xlink:href="#m219bc12ed3" y="311.14175"/>
      </g>
     </g>
     <g id="line2d_20">
      <g>
       <use style="stroke:#000000;stroke-width:0.5;" x="692.59375" xlink:href="#m1aecb857af" y="311.14175"/>
      </g>
     </g>
     <g id="text_10">
      <!-- 4 -->
      <defs>
       <path d="M 37.796875 64.3125 
L 12.890625 25.390625 
L 37.796875 25.390625 
z
M 35.203125 72.90625 
L 47.609375 72.90625 
L 47.609375 25.390625 
L 58.015625 25.390625 
L 58.015625 17.1875 
L 47.609375 17.1875 
L 47.609375 0 
L 37.796875 0 
L 37.796875 17.1875 
L 4.890625 17.1875 
L 4.890625 26.703125 
z
" id="BitstreamVeraSans-Roman-34"/>
      </defs>
      <g transform="translate(7.2 313.34925)scale(0.08 -0.08)">
       <use xlink:href="#BitstreamVeraSans-Roman-2212"/>
       <use x="83.7890625" xlink:href="#BitstreamVeraSans-Roman-34"/>
      </g>
     </g>
    </g>
    <g id="ytick_3">
     <g id="line2d_21">
      <g>
       <use style="stroke:#000000;stroke-width:0.5;" x="22.99375" xlink:href="#m219bc12ed3" y="253.54175"/>
      </g>
     </g>
     <g id="line2d_22">
      <g>
       <use style="stroke:#000000;stroke-width:0.5;" x="692.59375" xlink:href="#m1aecb857af" y="253.54175"/>
      </g>
     </g>
     <g id="text_11">
      <!-- 2 -->
      <defs>
       <path d="M 19.1875 8.296875 
L 53.609375 8.296875 
L 53.609375 0 
L 7.328125 0 
L 7.328125 8.296875 
Q 12.9375 14.109375 22.625 23.890625 
Q 32.328125 33.6875 34.8125 36.53125 
Q 39.546875 41.84375 41.421875 45.53125 
Q 43.3125 49.21875 43.3125 52.78125 
Q 43.3125 58.59375 39.234375 62.25 
Q 35.15625 65.921875 28.609375 65.921875 
Q 23.96875 65.921875 18.8125 64.3125 
Q 13.671875 62.703125 7.8125 59.421875 
L 7.8125 69.390625 
Q 13.765625 71.78125 18.9375 73 
Q 24.125 74.21875 28.421875 74.21875 
Q 39.75 74.21875 46.484375 68.546875 
Q 53.21875 62.890625 53.21875 53.421875 
Q 53.21875 48.921875 51.53125 44.890625 
Q 49.859375 40.875 45.40625 35.40625 
Q 44.1875 33.984375 37.640625 27.21875 
Q 31.109375 20.453125 19.1875 8.296875 
" id="BitstreamVeraSans-Roman-32"/>
      </defs>
      <g transform="translate(7.2 255.74925)scale(0.08 -0.08)">
       <use xlink:href="#BitstreamVeraSans-Roman-2212"/>
       <use x="83.7890625" xlink:href="#BitstreamVeraSans-Roman-32"/>
      </g>
     </g>
    </g>
    <g id="ytick_4">
     <g id="line2d_23">
      <g>
       <use style="stroke:#000000;stroke-width:0.5;" x="22.99375" xlink:href="#m219bc12ed3" y="195.94175"/>
      </g>
     </g>
     <g id="line2d_24">
      <g>
       <use style="stroke:#000000;stroke-width:0.5;" x="692.59375" xlink:href="#m1aecb857af" y="195.94175"/>
      </g>
     </g>
     <g id="text_12">
      <!-- 0 -->
      <defs>
       <path d="M 31.78125 66.40625 
Q 24.171875 66.40625 20.328125 58.90625 
Q 16.5 51.421875 16.5 36.375 
Q 16.5 21.390625 20.328125 13.890625 
Q 24.171875 6.390625 31.78125 6.390625 
Q 39.453125 6.390625 43.28125 13.890625 
Q 47.125 21.390625 47.125 36.375 
Q 47.125 51.421875 43.28125 58.90625 
Q 39.453125 66.40625 31.78125 66.40625 
M 31.78125 74.21875 
Q 44.046875 74.21875 50.515625 64.515625 
Q 56.984375 54.828125 56.984375 36.375 
Q 56.984375 17.96875 50.515625 8.265625 
Q 44.046875 -1.421875 31.78125 -1.421875 
Q 19.53125 -1.421875 13.0625 8.265625 
Q 6.59375 17.96875 6.59375 36.375 
Q 6.59375 54.828125 13.0625 64.515625 
Q 19.53125 74.21875 31.78125 74.21875 
" id="BitstreamVeraSans-Roman-30"/>
      </defs>
      <g transform="translate(13.90375 198.14925)scale(0.08 -0.08)">
       <use xlink:href="#BitstreamVeraSans-Roman-30"/>
      </g>
     </g>
    </g>
    <g id="ytick_5">
     <g id="line2d_25">
      <g>
       <use style="stroke:#000000;stroke-width:0.5;" x="22.99375" xlink:href="#m219bc12ed3" y="138.34175"/>
      </g>
     </g>
     <g id="line2d_26">
      <g>
       <use style="stroke:#000000;stroke-width:0.5;" x="692.59375" xlink:href="#m1aecb857af" y="138.34175"/>
      </g>
     </g>
     <g id="text_13">
      <!-- 2 -->
      <g transform="translate(13.90375 140.54925)scale(0.08 -0.08)">
       <use xlink:href="#BitstreamVeraSans-Roman-32"/>
      </g>
     </g>
    </g>
    <g id="ytick_6">
     <g id="line2d_27">
      <g>
       <use style="stroke:#000000;stroke-width:0.5;" x="22.99375" xlink:href="#m219bc12ed3" y="80.74175"/>
      </g>
     </g>
     <g id="line2d_28">
      <g>
       <use style="stroke:#000000;stroke-width:0.5;" x="692.59375" xlink:href="#m1aecb857af" y="80.74175"/>
      </g>
     </g>
     <g id="text_14">
      <!-- 4 -->
      <g transform="translate(13.90375 82.94925)scale(0.08 -0.08)">
       <use xlink:href="#BitstreamVeraSans-Roman-34"/>
      </g>
     </g>
    </g>
    <g id="ytick_7">
     <g id="line2d_29">
      <g>
       <use style="stroke:#000000;stroke-width:0.5;" x="22.99375" xlink:href="#m219bc12ed3" y="23.14175"/>
      </g>
     </g>
     <g id="line2d_30">
      <g>
       <use style="stroke:#000000;stroke-width:0.5;" x="692.59375" xlink:href="#m1aecb857af" y="23.14175"/>
      </g>
     </g>
     <g id="text_15">
      <!-- 6 -->
      <g transform="translate(13.90375 25.34925)scale(0.08 -0.08)">
       <use xlink:href="#BitstreamVeraSans-Roman-36"/>
      </g>
     </g>
    </g>
   </g>
   <g id="text_16">
    <!-- Std Payoffs. Prob end: 0.1, Repetitions: 100, Strategies: 8. -->
    <defs>
     <path d="M 12.40625 8.296875 
L 28.515625 8.296875 
L 28.515625 63.921875 
L 10.984375 60.40625 
L 10.984375 69.390625 
L 28.421875 72.90625 
L 38.28125 72.90625 
L 38.28125 8.296875 
L 54.390625 8.296875 
L 54.390625 0 
L 12.40625 0 
z
" id="BitstreamVeraSans-Roman-31"/>
     <path d="M 31.78125 34.625 
Q 24.75 34.625 20.71875 30.859375 
Q 16.703125 27.09375 16.703125 20.515625 
Q 16.703125 13.921875 20.71875 10.15625 
Q 24.75 6.390625 31.78125 6.390625 
Q 38.8125 6.390625 42.859375 10.171875 
Q 46.921875 13.96875 46.921875 20.515625 
Q 46.921875 27.09375 42.890625 30.859375 
Q 38.875 34.625 31.78125 34.625 
M 21.921875 38.8125 
Q 15.578125 40.375 12.03125 44.71875 
Q 8.5 49.078125 8.5 55.328125 
Q 8.5 64.0625 14.71875 69.140625 
Q 20.953125 74.21875 31.78125 74.21875 
Q 42.671875 74.21875 48.875 69.140625 
Q 55.078125 64.0625 55.078125 55.328125 
Q 55.078125 49.078125 51.53125 44.71875 
Q 48 40.375 41.703125 38.8125 
Q 48.828125 37.15625 52.796875 32.3125 
Q 56.78125 27.484375 56.78125 20.515625 
Q 56.78125 9.90625 50.3125 4.234375 
Q 43.84375 -1.421875 31.78125 -1.421875 
Q 19.734375 -1.421875 13.25 4.234375 
Q 6.78125 9.90625 6.78125 20.515625 
Q 6.78125 27.484375 10.78125 32.3125 
Q 14.796875 37.15625 21.921875 38.8125 
M 18.3125 54.390625 
Q 18.3125 48.734375 21.84375 45.5625 
Q 25.390625 42.390625 31.78125 42.390625 
Q 38.140625 42.390625 41.71875 45.5625 
Q 45.3125 48.734375 45.3125 54.390625 
Q 45.3125 60.0625 41.71875 63.234375 
Q 38.140625 66.40625 31.78125 66.40625 
Q 25.390625 66.40625 21.84375 63.234375 
Q 18.3125 60.0625 18.3125 54.390625 
" id="BitstreamVeraSans-Roman-38"/>
     <path d="M 44.390625 34.1875 
Q 47.5625 33.109375 50.5625 29.59375 
Q 53.5625 26.078125 56.59375 19.921875 
L 66.609375 0 
L 56 0 
L 46.6875 18.703125 
Q 43.0625 26.03125 39.671875 28.421875 
Q 36.28125 30.8125 30.421875 30.8125 
L 19.671875 30.8125 
L 19.671875 0 
L 9.8125 0 
L 9.8125 72.90625 
L 32.078125 72.90625 
Q 44.578125 72.90625 50.734375 67.671875 
Q 56.890625 62.453125 56.890625 51.90625 
Q 56.890625 45.015625 53.6875 40.46875 
Q 50.484375 35.9375 44.390625 34.1875 
M 19.671875 64.796875 
L 19.671875 38.921875 
L 32.078125 38.921875 
Q 39.203125 38.921875 42.84375 42.21875 
Q 46.484375 45.515625 46.484375 51.90625 
Q 46.484375 58.296875 42.84375 61.546875 
Q 39.203125 64.796875 32.078125 64.796875 
z
" id="BitstreamVeraSans-Roman-52"/>
     <path d="M 19.671875 64.796875 
L 19.671875 37.40625 
L 32.078125 37.40625 
Q 38.96875 37.40625 42.71875 40.96875 
Q 46.484375 44.53125 46.484375 51.125 
Q 46.484375 57.671875 42.71875 61.234375 
Q 38.96875 64.796875 32.078125 64.796875 
z
M 9.8125 72.90625 
L 32.078125 72.90625 
Q 44.34375 72.90625 50.609375 67.359375 
Q 56.890625 61.8125 56.890625 51.125 
Q 56.890625 40.328125 50.609375 34.8125 
Q 44.34375 29.296875 32.078125 29.296875 
L 19.671875 29.296875 
L 19.671875 0 
L 9.8125 0 
z
" id="BitstreamVeraSans-Roman-50"/>
     <path d="M 11.71875 12.40625 
L 22.015625 12.40625 
L 22.015625 4 
L 14.015625 -11.625 
L 7.71875 -11.625 
L 11.71875 4 
z
" id="BitstreamVeraSans-Roman-2c"/>
     <path d="M 11.71875 12.40625 
L 22.015625 12.40625 
L 22.015625 0 
L 11.71875 0 
z
M 11.71875 51.703125 
L 22.015625 51.703125 
L 22.015625 39.3125 
L 11.71875 39.3125 
z
" id="BitstreamVeraSans-Roman-3a"/>
     <path d="M 10.6875 12.40625 
L 21 12.40625 
L 21 0 
L 10.6875 0 
z
" id="BitstreamVeraSans-Roman-2e"/>
     <path d="M 45.40625 46.390625 
L 45.40625 75.984375 
L 54.390625 75.984375 
L 54.390625 0 
L 45.40625 0 
L 45.40625 8.203125 
Q 42.578125 3.328125 38.25 0.953125 
Q 33.9375 -1.421875 27.875 -1.421875 
Q 17.96875 -1.421875 11.734375 6.484375 
Q 5.515625 14.40625 5.515625 27.296875 
Q 5.515625 40.1875 11.734375 48.09375 
Q 17.96875 56 27.875 56 
Q 33.9375 56 38.25 53.625 
Q 42.578125 51.265625 45.40625 46.390625 
M 14.796875 27.296875 
Q 14.796875 17.390625 18.875 11.75 
Q 22.953125 6.109375 30.078125 6.109375 
Q 37.203125 6.109375 41.296875 11.75 
Q 45.40625 17.390625 45.40625 27.296875 
Q 45.40625 37.203125 41.296875 42.84375 
Q 37.203125 48.484375 30.078125 48.484375 
Q 22.953125 48.484375 18.875 42.84375 
Q 14.796875 37.203125 14.796875 27.296875 
" id="BitstreamVeraSans-Roman-64"/>
     <path d="M 45.40625 27.984375 
Q 45.40625 37.75 41.375 43.109375 
Q 37.359375 48.484375 30.078125 48.484375 
Q 22.859375 48.484375 18.828125 43.109375 
Q 14.796875 37.75 14.796875 27.984375 
Q 14.796875 18.265625 18.828125 12.890625 
Q 22.859375 7.515625 30.078125 7.515625 
Q 37.359375 7.515625 41.375 12.890625 
Q 45.40625 18.265625 45.40625 27.984375 
M 54.390625 6.78125 
Q 54.390625 -7.171875 48.1875 -13.984375 
Q 42 -20.796875 29.203125 -20.796875 
Q 24.46875 -20.796875 20.265625 -20.09375 
Q 16.0625 -19.390625 12.109375 -17.921875 
L 12.109375 -9.1875 
Q 16.0625 -11.328125 19.921875 -12.34375 
Q 23.78125 -13.375 27.78125 -13.375 
Q 36.625 -13.375 41.015625 -8.765625 
Q 45.40625 -4.15625 45.40625 5.171875 
L 45.40625 9.625 
Q 42.625 4.78125 38.28125 2.390625 
Q 33.9375 0 27.875 0 
Q 17.828125 0 11.671875 7.65625 
Q 5.515625 15.328125 5.515625 27.984375 
Q 5.515625 40.671875 11.671875 48.328125 
Q 17.828125 56 27.875 56 
Q 33.9375 56 38.28125 53.609375 
Q 42.625 51.21875 45.40625 46.390625 
L 45.40625 54.6875 
L 54.390625 54.6875 
z
" id="BitstreamVeraSans-Roman-67"/>
     <path d="M 48.6875 27.296875 
Q 48.6875 37.203125 44.609375 42.84375 
Q 40.53125 48.484375 33.40625 48.484375 
Q 26.265625 48.484375 22.1875 42.84375 
Q 18.109375 37.203125 18.109375 27.296875 
Q 18.109375 17.390625 22.1875 11.75 
Q 26.265625 6.109375 33.40625 6.109375 
Q 40.53125 6.109375 44.609375 11.75 
Q 48.6875 17.390625 48.6875 27.296875 
M 18.109375 46.390625 
Q 20.953125 51.265625 25.265625 53.625 
Q 29.59375 56 35.59375 56 
Q 45.5625 56 51.78125 48.09375 
Q 58.015625 40.1875 58.015625 27.296875 
Q 58.015625 14.40625 51.78125 6.484375 
Q 45.5625 -1.421875 35.59375 -1.421875 
Q 29.59375 -1.421875 25.265625 0.953125 
Q 20.953125 3.328125 18.109375 8.203125 
L 18.109375 0 
L 9.078125 0 
L 9.078125 75.984375 
L 18.109375 75.984375 
z
" id="BitstreamVeraSans-Roman-62"/>
    </defs>
    <g transform="translate(147.67975 18.14175)scale(0.144 -0.144)">
     <use xlink:href="#BitstreamVeraSans-Roman-53"/>
     <use x="63.4765625" xlink:href="#BitstreamVeraSans-Roman-74"/>
     <use x="102.685546875" xlink:href="#BitstreamVeraSans-Roman-64"/>
     <use x="166.162109375" xlink:href="#BitstreamVeraSans-Roman-20"/>
     <use x="197.94921875" xlink:href="#BitstreamVeraSans-Roman-50"/>
     <use x="258.189453125" xlink:href="#BitstreamVeraSans-Roman-61"/>
     <use x="319.46875" xlink:href="#BitstreamVeraSans-Roman-79"/>
     <use x="378.6484375" xlink:href="#BitstreamVeraSans-Roman-6f"/>
     <use x="439.830078125" xlink:href="#BitstreamVeraSans-Roman-66"/>
     <use x="475.03515625" xlink:href="#BitstreamVeraSans-Roman-66"/>
     <use x="510.240234375" xlink:href="#BitstreamVeraSans-Roman-73"/>
     <use x="562.33984375" xlink:href="#BitstreamVeraSans-Roman-2e"/>
     <use x="594.126953125" xlink:href="#BitstreamVeraSans-Roman-20"/>
     <use x="625.9140625" xlink:href="#BitstreamVeraSans-Roman-50"/>
     <use x="686.201171875" xlink:href="#BitstreamVeraSans-Roman-72"/>
     <use x="727.283203125" xlink:href="#BitstreamVeraSans-Roman-6f"/>
     <use x="788.46484375" xlink:href="#BitstreamVeraSans-Roman-62"/>
     <use x="851.94140625" xlink:href="#BitstreamVeraSans-Roman-20"/>
     <use x="883.728515625" xlink:href="#BitstreamVeraSans-Roman-65"/>
     <use x="945.251953125" xlink:href="#BitstreamVeraSans-Roman-6e"/>
     <use x="1008.63085938" xlink:href="#BitstreamVeraSans-Roman-64"/>
     <use x="1072.10742188" xlink:href="#BitstreamVeraSans-Roman-3a"/>
     <use x="1105.79882812" xlink:href="#BitstreamVeraSans-Roman-20"/>
     <use x="1137.5859375" xlink:href="#BitstreamVeraSans-Roman-30"/>
     <use x="1201.20898438" xlink:href="#BitstreamVeraSans-Roman-2e"/>
     <use x="1232.99609375" xlink:href="#BitstreamVeraSans-Roman-31"/>
     <use x="1296.61914062" xlink:href="#BitstreamVeraSans-Roman-2c"/>
     <use x="1328.40625" xlink:href="#BitstreamVeraSans-Roman-20"/>
     <use x="1360.19335938" xlink:href="#BitstreamVeraSans-Roman-52"/>
     <use x="1429.61328125" xlink:href="#BitstreamVeraSans-Roman-65"/>
     <use x="1491.13671875" xlink:href="#BitstreamVeraSans-Roman-70"/>
     <use x="1554.61328125" xlink:href="#BitstreamVeraSans-Roman-65"/>
     <use x="1616.13671875" xlink:href="#BitstreamVeraSans-Roman-74"/>
     <use x="1655.34570312" xlink:href="#BitstreamVeraSans-Roman-69"/>
     <use x="1683.12890625" xlink:href="#BitstreamVeraSans-Roman-74"/>
     <use x="1722.33789062" xlink:href="#BitstreamVeraSans-Roman-69"/>
     <use x="1750.12109375" xlink:href="#BitstreamVeraSans-Roman-6f"/>
     <use x="1811.30273438" xlink:href="#BitstreamVeraSans-Roman-6e"/>
     <use x="1874.68164062" xlink:href="#BitstreamVeraSans-Roman-73"/>
     <use x="1926.78125" xlink:href="#BitstreamVeraSans-Roman-3a"/>
     <use x="1960.47265625" xlink:href="#BitstreamVeraSans-Roman-20"/>
     <use x="1992.25976562" xlink:href="#BitstreamVeraSans-Roman-31"/>
     <use x="2055.8828125" xlink:href="#BitstreamVeraSans-Roman-30"/>
     <use x="2119.50585938" xlink:href="#BitstreamVeraSans-Roman-30"/>
     <use x="2183.12890625" xlink:href="#BitstreamVeraSans-Roman-2c"/>
     <use x="2214.91601562" xlink:href="#BitstreamVeraSans-Roman-20"/>
     <use x="2246.703125" xlink:href="#BitstreamVeraSans-Roman-53"/>
     <use x="2310.1796875" xlink:href="#BitstreamVeraSans-Roman-74"/>
     <use x="2349.38867188" xlink:href="#BitstreamVeraSans-Roman-72"/>
     <use x="2390.50195312" xlink:href="#BitstreamVeraSans-Roman-61"/>
     <use x="2451.78125" xlink:href="#BitstreamVeraSans-Roman-74"/>
     <use x="2490.99023438" xlink:href="#BitstreamVeraSans-Roman-65"/>
     <use x="2552.51367188" xlink:href="#BitstreamVeraSans-Roman-67"/>
     <use x="2615.99023438" xlink:href="#BitstreamVeraSans-Roman-69"/>
     <use x="2643.7734375" xlink:href="#BitstreamVeraSans-Roman-65"/>
     <use x="2705.296875" xlink:href="#BitstreamVeraSans-Roman-73"/>
     <use x="2757.39648438" xlink:href="#BitstreamVeraSans-Roman-3a"/>
     <use x="2791.08789062" xlink:href="#BitstreamVeraSans-Roman-20"/>
     <use x="2822.875" xlink:href="#BitstreamVeraSans-Roman-38"/>
     <use x="2886.49804688" xlink:href="#BitstreamVeraSans-Roman-2e"/>
    </g>
   </g>
  </g>
 </g>
 <defs>
  <clipPath id="p21efe57d88">
   <rect height="345.6" width="669.6" x="22.99375" y="23.14175"/>
  </clipPath>
 </defs>
</svg>
