<?xml version="1.0" encoding="utf-8" standalone="no"?>
<!DOCTYPE svg PUBLIC "-//W3C//DTD SVG 1.1//EN"
  "http://www.w3.org/Graphics/SVG/1.1/DTD/svg11.dtd">
<!-- Created with matplotlib (http://matplotlib.org/) -->
<svg height="463pt" version="1.1" viewBox="0 0 734 463" width="734pt" xmlns="http://www.w3.org/2000/svg" xmlns:xlink="http://www.w3.org/1999/xlink">
 <defs>
  <style type="text/css">
*{stroke-linecap:butt;stroke-linejoin:round;}
  </style>
 </defs>
 <g id="figure_1">
  <g id="patch_1">
   <path d="
M0 463.844
L734.229 463.844
L734.229 5.68434e-14
L0 5.68434e-14
z
" style="fill:#ffffff;"/>
  </g>
  <g id="axes_1">
   <g id="patch_2">
    <path d="
M32.3145 368.742
L701.914 368.742
L701.914 23.1418
L32.3145 23.1418
z
" style="fill:#ffffff;"/>
   </g>
   <g id="PolyCollection_1">
    <defs>
     <path d="
M116.014 -267.903
L82.5345 -267.903
L82.5688 -269.357
L82.7383 -270.812
L83.0389 -272.266
L83.4634 -273.721
L84.0016 -275.175
L84.6409 -276.63
L85.3667 -278.084
L86.1632 -279.539
L87.0132 -280.993
L87.8998 -282.448
L88.8058 -283.903
L89.715 -285.357
L90.6121 -286.812
L91.4834 -288.266
L92.317 -289.721
L93.1024 -291.175
L93.8315 -292.63
L94.4977 -294.084
L95.0962 -295.539
L95.6239 -296.993
L96.079 -298.448
L96.461 -299.903
L96.7702 -301.357
L97.0077 -302.812
L97.1753 -304.266
L97.275 -305.721
L97.3092 -307.175
L97.2807 -308.63
L97.1923 -310.084
L97.0471 -311.539
L96.8485 -312.993
L96.6002 -314.448
L96.3065 -315.903
L95.972 -317.357
L95.602 -318.812
L95.2026 -320.266
L94.7804 -321.721
L94.3427 -323.175
L93.8977 -324.63
L93.4536 -326.084
L93.0195 -327.539
L92.6042 -328.993
L92.2168 -330.448
L91.866 -331.903
L91.5598 -333.357
L91.3054 -334.812
L91.1089 -336.266
L90.9752 -337.721
L90.9075 -339.175
L90.9076 -340.63
L90.9755 -342.084
L91.1094 -343.539
L91.3062 -344.993
L91.561 -346.448
L91.8678 -347.903
L92.2195 -349.357
L92.6079 -350.812
L93.0246 -352.266
L93.4608 -353.721
L93.9075 -355.175
L94.3562 -356.63
L94.7986 -358.084
L95.227 -359.539
L95.6345 -360.993
L96.0149 -362.448
L96.3627 -363.903
L96.6732 -365.357
L96.9424 -366.812
L97.1671 -368.266
L97.3444 -369.721
L97.4718 -371.175
L97.5474 -372.63
L97.5695 -374.084
L97.5365 -375.539
L97.4471 -376.993
L97.3003 -378.448
L97.0954 -379.903
L96.8321 -381.357
L96.5105 -382.812
L96.1315 -384.266
L95.6969 -385.721
L95.2092 -387.175
L94.6724 -388.63
L94.0914 -390.084
L93.4727 -391.539
L92.8241 -392.993
L92.1547 -394.448
L91.4747 -395.903
L90.7958 -397.357
L90.1301 -398.812
L89.4904 -400.266
L88.8898 -401.721
L88.3408 -403.175
L87.8558 -404.63
L87.4457 -406.084
L87.1201 -407.539
L86.8868 -408.993
L86.7514 -410.448
L86.7173 -411.903
L111.832 -411.903
L111.832 -411.903
L111.798 -410.448
L111.662 -408.993
L111.429 -407.539
L111.103 -406.084
L110.693 -404.63
L110.208 -403.175
L109.659 -401.721
L109.059 -400.266
L108.419 -398.812
L107.753 -397.357
L107.074 -395.903
L106.394 -394.448
L105.725 -392.993
L105.076 -391.539
L104.458 -390.084
L103.877 -388.63
L103.34 -387.175
L102.852 -385.721
L102.417 -384.266
L102.039 -382.812
L101.717 -381.357
L101.454 -379.903
L101.249 -378.448
L101.102 -376.993
L101.013 -375.539
L100.979 -374.084
L101.002 -372.63
L101.077 -371.175
L101.205 -369.721
L101.382 -368.266
L101.607 -366.812
L101.876 -365.357
L102.186 -363.903
L102.534 -362.448
L102.914 -360.993
L103.322 -359.539
L103.75 -358.084
L104.193 -356.63
L104.641 -355.175
L105.088 -353.721
L105.524 -352.266
L105.941 -350.812
L106.33 -349.357
L106.681 -347.903
L106.988 -346.448
L107.243 -344.993
L107.44 -343.539
L107.574 -342.084
L107.641 -340.63
L107.641 -339.175
L107.574 -337.721
L107.44 -336.266
L107.244 -334.812
L106.989 -333.357
L106.683 -331.903
L106.332 -330.448
L105.945 -328.993
L105.53 -327.539
L105.095 -326.084
L104.651 -324.63
L104.206 -323.175
L103.769 -321.721
L103.346 -320.266
L102.947 -318.812
L102.577 -317.357
L102.243 -315.903
L101.949 -314.448
L101.7 -312.993
L101.502 -311.539
L101.357 -310.084
L101.268 -308.63
L101.24 -307.175
L101.274 -305.721
L101.374 -304.266
L101.541 -302.812
L101.779 -301.357
L102.088 -299.903
L102.47 -298.448
L102.925 -296.993
L103.453 -295.539
L104.051 -294.084
L104.717 -292.63
L105.447 -291.175
L106.232 -289.721
L107.066 -288.266
L107.937 -286.812
L108.834 -285.357
L109.743 -283.903
L110.649 -282.448
L111.536 -280.993
L112.386 -279.539
L113.182 -278.084
L113.908 -276.63
L114.547 -275.175
L115.086 -273.721
L115.51 -272.266
L115.811 -270.812
L115.98 -269.357
L116.014 -267.903
z
" id="md562882dde" style="stroke:#000000;stroke-opacity:0.3;"/>
    </defs>
    <g clip-path="url(#p729dc12a58)">
     <use style="fill:#bfbf00;fill-opacity:0.3;stroke:#000000;stroke-opacity:0.3;" x="0.0" xlink:href="#md562882dde" y="463.84425"/>
    </g>
   </g>
   <g id="PolyCollection_2">
    <defs>
     <path d="
M169.535 -124.623
L162.934 -124.623
L162.966 -127.524
L163.058 -130.426
L163.207 -133.328
L163.403 -136.23
L163.636 -139.132
L163.896 -142.033
L164.169 -144.935
L164.445 -147.837
L164.714 -150.739
L164.966 -153.641
L165.197 -156.543
L165.402 -159.444
L165.579 -162.346
L165.728 -165.248
L165.851 -168.15
L165.949 -171.052
L166.026 -173.953
L166.084 -176.855
L166.128 -179.757
L166.158 -182.659
L166.179 -185.561
L166.19 -188.463
L166.193 -191.364
L166.188 -194.266
L166.172 -197.168
L166.144 -200.07
L166.1 -202.972
L166.032 -205.873
L165.934 -208.775
L165.795 -211.677
L165.603 -214.579
L165.345 -217.481
L165.003 -220.383
L164.563 -223.284
L164.009 -226.186
L163.327 -229.088
L162.508 -231.99
L161.549 -234.892
L160.454 -237.793
L159.237 -240.695
L157.925 -243.597
L156.552 -246.499
L155.165 -249.401
L153.816 -252.303
L152.563 -255.204
L151.464 -258.106
L150.571 -261.008
L149.927 -263.91
L149.564 -266.812
L149.494 -269.713
L149.715 -272.615
L150.206 -275.517
L150.929 -278.419
L151.837 -281.321
L152.875 -284.223
L153.985 -287.124
L155.113 -290.026
L156.211 -292.928
L157.24 -295.83
L158.175 -298.732
L159.003 -301.633
L159.721 -304.535
L160.337 -307.437
L160.864 -310.339
L161.319 -313.241
L161.722 -316.143
L162.09 -319.044
L162.438 -321.946
L162.775 -324.848
L163.107 -327.75
L163.436 -330.652
L163.761 -333.553
L164.076 -336.455
L164.376 -339.357
L164.655 -342.259
L164.905 -345.161
L165.121 -348.062
L165.298 -350.964
L165.431 -353.866
L165.517 -356.768
L165.552 -359.67
L165.533 -362.572
L165.456 -365.473
L165.318 -368.375
L165.117 -371.277
L164.852 -374.179
L164.521 -377.081
L164.128 -379.983
L163.677 -382.884
L163.18 -385.786
L162.648 -388.688
L162.099 -391.59
L161.554 -394.492
L161.036 -397.393
L160.57 -400.295
L160.178 -403.197
L159.882 -406.099
L159.697 -409.001
L159.634 -411.903
L172.835 -411.903
L172.835 -411.903
L172.772 -409.001
L172.587 -406.099
L172.291 -403.197
L171.899 -400.295
L171.433 -397.393
L170.915 -394.492
L170.37 -391.59
L169.821 -388.688
L169.289 -385.786
L168.792 -382.884
L168.341 -379.983
L167.948 -377.081
L167.617 -374.179
L167.352 -371.277
L167.151 -368.375
L167.013 -365.473
L166.936 -362.572
L166.917 -359.67
L166.952 -356.768
L167.038 -353.866
L167.171 -350.964
L167.348 -348.062
L167.564 -345.161
L167.814 -342.259
L168.093 -339.357
L168.393 -336.455
L168.708 -333.553
L169.033 -330.652
L169.362 -327.75
L169.694 -324.848
L170.031 -321.946
L170.379 -319.044
L170.747 -316.143
L171.15 -313.241
L171.605 -310.339
L172.132 -307.437
L172.748 -304.535
L173.466 -301.633
L174.294 -298.732
L175.229 -295.83
L176.258 -292.928
L177.356 -290.026
L178.484 -287.124
L179.594 -284.223
L180.632 -281.321
L181.54 -278.419
L182.263 -275.517
L182.754 -272.615
L182.974 -269.713
L182.905 -266.812
L182.542 -263.91
L181.898 -261.008
L181.005 -258.106
L179.906 -255.204
L178.653 -252.303
L177.304 -249.401
L175.917 -246.499
L174.544 -243.597
L173.232 -240.695
L172.015 -237.793
L170.92 -234.892
L169.961 -231.99
L169.142 -229.088
L168.46 -226.186
L167.906 -223.284
L167.466 -220.383
L167.124 -217.481
L166.866 -214.579
L166.674 -211.677
L166.535 -208.775
L166.437 -205.873
L166.369 -202.972
L166.325 -200.07
L166.297 -197.168
L166.281 -194.266
L166.276 -191.364
L166.279 -188.463
L166.29 -185.561
L166.311 -182.659
L166.341 -179.757
L166.385 -176.855
L166.443 -173.953
L166.52 -171.052
L166.618 -168.15
L166.741 -165.248
L166.89 -162.346
L167.067 -159.444
L167.272 -156.543
L167.503 -153.641
L167.755 -150.739
L168.024 -147.837
L168.3 -144.935
L168.573 -142.033
L168.833 -139.132
L169.066 -136.23
L169.262 -133.328
L169.411 -130.426
L169.503 -127.524
L169.535 -124.623
z
" id="m3a9eaed65d" style="stroke:#000000;stroke-opacity:0.3;"/>
    </defs>
    <g clip-path="url(#p729dc12a58)">
     <use style="fill:#bfbf00;fill-opacity:0.3;stroke:#000000;stroke-opacity:0.3;" x="0.0" xlink:href="#m3a9eaed65d" y="463.84425"/>
    </g>
   </g>
   <g id="PolyCollection_3">
    <defs>
     <path d="
M235.993 -195.903
L230.396 -195.903
L230.422 -197.357
L230.502 -198.812
L230.628 -200.266
L230.796 -201.721
L230.995 -203.175
L231.217 -204.63
L231.45 -206.084
L231.685 -207.539
L231.913 -208.993
L232.128 -210.448
L232.324 -211.903
L232.497 -213.357
L232.646 -214.812
L232.772 -216.266
L232.875 -217.721
L232.957 -219.175
L233.022 -220.63
L233.07 -222.084
L233.106 -223.539
L233.132 -224.993
L233.148 -226.448
L233.157 -227.903
L233.158 -229.357
L233.152 -230.812
L233.136 -232.266
L233.108 -233.721
L233.064 -235.175
L232.998 -236.63
L232.901 -238.084
L232.764 -239.539
L232.573 -240.993
L232.316 -242.448
L231.976 -243.903
L231.536 -245.357
L230.98 -246.812
L230.295 -248.266
L229.47 -249.721
L228.501 -251.175
L227.393 -252.63
L226.16 -254.084
L224.828 -255.539
L223.434 -256.993
L222.025 -258.448
L220.656 -259.903
L219.388 -261.357
L218.282 -262.812
L217.395 -264.266
L216.774 -265.721
L216.455 -267.175
L216.454 -268.63
L216.774 -270.084
L217.395 -271.539
L218.282 -272.993
L219.388 -274.448
L220.656 -275.903
L222.025 -277.357
L223.434 -278.812
L224.828 -280.266
L226.16 -281.721
L227.393 -283.175
L228.501 -284.63
L229.47 -286.084
L230.295 -287.539
L230.98 -288.993
L231.536 -290.448
L231.976 -291.903
L232.316 -293.357
L232.573 -294.812
L232.763 -296.266
L232.9 -297.721
L232.996 -299.175
L233.062 -300.63
L233.104 -302.084
L233.129 -303.539
L233.141 -304.993
L233.141 -306.448
L233.131 -307.903
L233.108 -309.357
L233.073 -310.812
L233.02 -312.266
L232.948 -313.721
L232.849 -315.175
L232.721 -316.63
L232.556 -318.084
L232.35 -319.539
L232.098 -320.993
L231.799 -322.448
L231.453 -323.903
L231.061 -325.357
L230.632 -326.812
L230.176 -328.266
L229.706 -329.721
L229.239 -331.175
L228.796 -332.63
L228.397 -334.084
L228.062 -335.539
L227.809 -336.993
L227.65 -338.448
L227.597 -339.903
L238.792 -339.903
L238.792 -339.903
L238.739 -338.448
L238.58 -336.993
L238.327 -335.539
L237.992 -334.084
L237.593 -332.63
L237.15 -331.175
L236.683 -329.721
L236.213 -328.266
L235.757 -326.812
L235.328 -325.357
L234.936 -323.903
L234.59 -322.448
L234.291 -320.993
L234.039 -319.539
L233.833 -318.084
L233.668 -316.63
L233.54 -315.175
L233.441 -313.721
L233.369 -312.266
L233.316 -310.812
L233.281 -309.357
L233.258 -307.903
L233.248 -306.448
L233.248 -304.993
L233.26 -303.539
L233.285 -302.084
L233.327 -300.63
L233.393 -299.175
L233.489 -297.721
L233.626 -296.266
L233.816 -294.812
L234.073 -293.357
L234.413 -291.903
L234.853 -290.448
L235.409 -288.993
L236.094 -287.539
L236.919 -286.084
L237.888 -284.63
L238.996 -283.175
L240.229 -281.721
L241.561 -280.266
L242.955 -278.812
L244.364 -277.357
L245.733 -275.903
L247.001 -274.448
L248.107 -272.993
L248.994 -271.539
L249.615 -270.084
L249.935 -268.63
L249.934 -267.175
L249.615 -265.721
L248.994 -264.266
L248.107 -262.812
L247.001 -261.357
L245.733 -259.903
L244.364 -258.448
L242.955 -256.993
L241.561 -255.539
L240.229 -254.084
L238.996 -252.63
L237.888 -251.175
L236.919 -249.721
L236.094 -248.266
L235.409 -246.812
L234.853 -245.357
L234.413 -243.903
L234.073 -242.448
L233.816 -240.993
L233.625 -239.539
L233.488 -238.084
L233.391 -236.63
L233.325 -235.175
L233.281 -233.721
L233.253 -232.266
L233.237 -230.812
L233.231 -229.357
L233.232 -227.903
L233.241 -226.448
L233.257 -224.993
L233.283 -223.539
L233.319 -222.084
L233.367 -220.63
L233.432 -219.175
L233.514 -217.721
L233.617 -216.266
L233.743 -214.812
L233.892 -213.357
L234.065 -211.903
L234.261 -210.448
L234.476 -208.993
L234.704 -207.539
L234.939 -206.084
L235.172 -204.63
L235.394 -203.175
L235.593 -201.721
L235.761 -200.266
L235.887 -198.812
L235.967 -197.357
L235.993 -195.903
z
" id="m27349973b9" style="stroke:#000000;stroke-opacity:0.3;"/>
    </defs>
    <g clip-path="url(#p729dc12a58)">
     <use style="fill:#bfbf00;fill-opacity:0.3;stroke:#000000;stroke-opacity:0.3;" x="0.0" xlink:href="#m27349973b9" y="463.84425"/>
    </g>
   </g>
   <g id="PolyCollection_4">
    <defs>
     <path d="
M304.937 -267.183
L295.372 -267.183
L295.393 -267.19
L295.457 -267.197
L295.561 -267.204
L295.702 -267.212
L295.878 -267.219
L296.084 -267.226
L296.314 -267.233
L296.564 -267.241
L296.827 -267.248
L297.099 -267.255
L297.373 -267.263
L297.645 -267.27
L297.911 -267.277
L298.167 -267.284
L298.409 -267.292
L298.635 -267.299
L298.844 -267.306
L299.034 -267.313
L299.205 -267.321
L299.358 -267.328
L299.491 -267.335
L299.607 -267.343
L299.707 -267.35
L299.792 -267.357
L299.864 -267.364
L299.923 -267.372
L299.972 -267.379
L300.012 -267.386
L300.044 -267.393
L300.07 -267.401
L300.09 -267.408
L300.106 -267.415
L300.118 -267.423
L300.128 -267.43
L300.135 -267.437
L300.14 -267.444
L300.144 -267.452
L300.147 -267.459
L300.149 -267.466
L300.151 -267.473
L300.152 -267.481
L300.153 -267.488
L300.153 -267.495
L300.154 -267.503
L300.154 -267.51
L300.154 -267.517
L300.154 -267.524
L300.154 -267.532
L300.154 -267.539
L300.154 -267.546
L300.154 -267.553
L300.154 -267.561
L300.153 -267.568
L300.153 -267.575
L300.152 -267.583
L300.15 -267.59
L300.148 -267.597
L300.146 -267.604
L300.142 -267.612
L300.136 -267.619
L300.129 -267.626
L300.118 -267.633
L300.104 -267.641
L300.085 -267.648
L300.06 -267.655
L300.027 -267.663
L299.984 -267.67
L299.929 -267.677
L299.858 -267.684
L299.768 -267.692
L299.655 -267.699
L299.516 -267.706
L299.344 -267.713
L299.136 -267.721
L298.887 -267.728
L298.589 -267.735
L298.24 -267.743
L297.833 -267.75
L297.365 -267.757
L296.833 -267.764
L296.234 -267.772
L295.568 -267.779
L294.837 -267.786
L294.045 -267.793
L293.198 -267.801
L292.303 -267.808
L291.373 -267.815
L290.419 -267.823
L289.459 -267.83
L288.509 -267.837
L287.587 -267.844
L286.714 -267.852
L285.908 -267.859
L285.188 -267.866
L284.572 -267.873
L284.076 -267.881
L283.712 -267.888
L283.489 -267.895
L283.414 -267.903
L316.894 -267.903
L316.894 -267.903
L316.82 -267.895
L316.597 -267.888
L316.233 -267.881
L315.737 -267.873
L315.121 -267.866
L314.401 -267.859
L313.595 -267.852
L312.722 -267.844
L311.8 -267.837
L310.85 -267.83
L309.89 -267.823
L308.936 -267.815
L308.006 -267.808
L307.111 -267.801
L306.264 -267.793
L305.472 -267.786
L304.741 -267.779
L304.075 -267.772
L303.476 -267.764
L302.944 -267.757
L302.476 -267.75
L302.069 -267.743
L301.72 -267.735
L301.422 -267.728
L301.173 -267.721
L300.965 -267.713
L300.793 -267.706
L300.654 -267.699
L300.541 -267.692
L300.451 -267.684
L300.38 -267.677
L300.325 -267.67
L300.282 -267.663
L300.249 -267.655
L300.224 -267.648
L300.205 -267.641
L300.191 -267.633
L300.18 -267.626
L300.173 -267.619
L300.167 -267.612
L300.163 -267.604
L300.161 -267.597
L300.159 -267.59
L300.157 -267.583
L300.156 -267.575
L300.156 -267.568
L300.155 -267.561
L300.155 -267.553
L300.155 -267.546
L300.155 -267.539
L300.155 -267.532
L300.155 -267.524
L300.155 -267.517
L300.155 -267.51
L300.155 -267.503
L300.156 -267.495
L300.156 -267.488
L300.157 -267.481
L300.158 -267.473
L300.16 -267.466
L300.162 -267.459
L300.165 -267.452
L300.169 -267.444
L300.174 -267.437
L300.181 -267.43
L300.191 -267.423
L300.203 -267.415
L300.219 -267.408
L300.239 -267.401
L300.265 -267.393
L300.297 -267.386
L300.337 -267.379
L300.386 -267.372
L300.445 -267.364
L300.517 -267.357
L300.602 -267.35
L300.702 -267.343
L300.818 -267.335
L300.951 -267.328
L301.104 -267.321
L301.275 -267.313
L301.465 -267.306
L301.674 -267.299
L301.9 -267.292
L302.142 -267.284
L302.398 -267.277
L302.664 -267.27
L302.936 -267.263
L303.21 -267.255
L303.482 -267.248
L303.745 -267.241
L303.995 -267.233
L304.225 -267.226
L304.431 -267.219
L304.607 -267.212
L304.748 -267.204
L304.852 -267.197
L304.916 -267.19
L304.937 -267.183
z
" id="mc4ca80e5c4" style="stroke:#000000;stroke-opacity:0.3;"/>
    </defs>
    <g clip-path="url(#p729dc12a58)">
     <use style="fill:#bfbf00;fill-opacity:0.3;stroke:#000000;stroke-opacity:0.3;" x="0.0" xlink:href="#mc4ca80e5c4" y="463.84425"/>
    </g>
   </g>
   <g id="PolyCollection_5">
    <defs>
     <path d="
M369.213 -195.903
L365.016 -195.903
L365.032 -196.63
L365.081 -197.357
L365.16 -198.084
L365.265 -198.812
L365.392 -199.539
L365.535 -200.266
L365.689 -200.993
L365.849 -201.721
L366.008 -202.448
L366.162 -203.175
L366.307 -203.903
L366.441 -204.63
L366.562 -205.357
L366.668 -206.084
L366.76 -206.812
L366.837 -207.539
L366.9 -208.266
L366.952 -208.993
L366.993 -209.721
L367.025 -210.448
L367.05 -211.175
L367.069 -211.903
L367.082 -212.63
L367.092 -213.357
L367.099 -214.084
L367.104 -214.812
L367.108 -215.539
L367.11 -216.266
L367.112 -216.993
L367.113 -217.721
L367.113 -218.448
L367.114 -219.175
L367.114 -219.903
L367.114 -220.63
L367.114 -221.357
L367.114 -222.084
L367.114 -222.812
L367.114 -223.539
L367.114 -224.266
L367.114 -224.993
L367.114 -225.721
L367.114 -226.448
L367.114 -227.175
L367.114 -227.903
L367.114 -228.63
L367.114 -229.357
L367.114 -230.084
L367.114 -230.812
L367.114 -231.539
L367.114 -232.266
L367.114 -232.993
L367.114 -233.721
L367.114 -234.448
L367.114 -235.175
L367.114 -235.903
L367.114 -236.63
L367.114 -237.357
L367.114 -238.084
L367.114 -238.812
L367.114 -239.539
L367.114 -240.266
L367.114 -240.993
L367.114 -241.721
L367.113 -242.448
L367.112 -243.175
L367.111 -243.903
L367.108 -244.63
L367.104 -245.357
L367.098 -246.084
L367.088 -246.812
L367.073 -247.539
L367.051 -248.266
L367.019 -248.993
L366.973 -249.721
L366.907 -250.448
L366.816 -251.175
L366.692 -251.903
L366.526 -252.63
L366.306 -253.357
L366.022 -254.084
L365.662 -254.812
L365.212 -255.539
L364.662 -256.266
L364.003 -256.993
L363.229 -257.721
L362.337 -258.448
L361.332 -259.175
L360.226 -259.903
L359.035 -260.63
L357.787 -261.357
L356.514 -262.084
L355.255 -262.812
L354.055 -263.539
L352.957 -264.266
L352.006 -264.993
L351.244 -265.721
L350.703 -266.448
L350.409 -267.175
L350.375 -267.903
L383.854 -267.903
L383.854 -267.903
L383.82 -267.175
L383.526 -266.448
L382.985 -265.721
L382.223 -264.993
L381.272 -264.266
L380.174 -263.539
L378.974 -262.812
L377.715 -262.084
L376.442 -261.357
L375.194 -260.63
L374.003 -259.903
L372.897 -259.175
L371.892 -258.448
L371 -257.721
L370.226 -256.993
L369.567 -256.266
L369.017 -255.539
L368.567 -254.812
L368.207 -254.084
L367.923 -253.357
L367.703 -252.63
L367.537 -251.903
L367.413 -251.175
L367.322 -250.448
L367.256 -249.721
L367.21 -248.993
L367.178 -248.266
L367.156 -247.539
L367.141 -246.812
L367.131 -246.084
L367.125 -245.357
L367.121 -244.63
L367.118 -243.903
L367.117 -243.175
L367.116 -242.448
L367.115 -241.721
L367.115 -240.993
L367.115 -240.266
L367.115 -239.539
L367.115 -238.812
L367.115 -238.084
L367.115 -237.357
L367.115 -236.63
L367.115 -235.903
L367.115 -235.175
L367.115 -234.448
L367.115 -233.721
L367.115 -232.993
L367.115 -232.266
L367.115 -231.539
L367.115 -230.812
L367.115 -230.084
L367.115 -229.357
L367.115 -228.63
L367.115 -227.903
L367.115 -227.175
L367.115 -226.448
L367.115 -225.721
L367.115 -224.993
L367.115 -224.266
L367.115 -223.539
L367.115 -222.812
L367.115 -222.084
L367.115 -221.357
L367.115 -220.63
L367.115 -219.903
L367.115 -219.175
L367.116 -218.448
L367.116 -217.721
L367.117 -216.993
L367.119 -216.266
L367.121 -215.539
L367.125 -214.812
L367.13 -214.084
L367.137 -213.357
L367.147 -212.63
L367.16 -211.903
L367.179 -211.175
L367.204 -210.448
L367.236 -209.721
L367.277 -208.993
L367.329 -208.266
L367.392 -207.539
L367.469 -206.812
L367.561 -206.084
L367.667 -205.357
L367.788 -204.63
L367.922 -203.903
L368.067 -203.175
L368.221 -202.448
L368.38 -201.721
L368.54 -200.993
L368.694 -200.266
L368.837 -199.539
L368.964 -198.812
L369.069 -198.084
L369.148 -197.357
L369.197 -196.63
L369.213 -195.903
z
" id="m23659b320d" style="stroke:#000000;stroke-opacity:0.3;"/>
    </defs>
    <g clip-path="url(#p729dc12a58)">
     <use style="fill:#bfbf00;fill-opacity:0.3;stroke:#000000;stroke-opacity:0.3;" x="0.0" xlink:href="#m23659b320d" y="463.84425"/>
    </g>
   </g>
   <g id="PolyCollection_6">
    <defs>
     <path d="
M450.815 -267.903
L417.334 -267.903
L417.465 -267.91
L417.851 -267.917
L418.475 -267.924
L419.308 -267.932
L420.314 -267.939
L421.451 -267.946
L422.674 -267.953
L423.939 -267.961
L425.204 -267.968
L426.431 -267.975
L427.592 -267.983
L428.661 -267.99
L429.625 -267.997
L430.474 -268.004
L431.206 -268.012
L431.825 -268.019
L432.338 -268.026
L432.754 -268.033
L433.087 -268.041
L433.347 -268.048
L433.547 -268.055
L433.698 -268.063
L433.81 -268.07
L433.891 -268.077
L433.95 -268.084
L433.991 -268.092
L434.019 -268.099
L434.039 -268.106
L434.052 -268.113
L434.06 -268.121
L434.066 -268.128
L434.069 -268.135
L434.071 -268.143
L434.073 -268.15
L434.073 -268.157
L434.074 -268.164
L434.074 -268.172
L434.074 -268.179
L434.074 -268.186
L434.074 -268.193
L434.074 -268.201
L434.074 -268.208
L434.074 -268.215
L434.074 -268.223
L434.074 -268.23
L434.074 -268.237
L434.074 -268.244
L434.074 -268.252
L434.074 -268.259
L434.074 -268.266
L434.074 -268.273
L434.074 -268.281
L434.074 -268.288
L434.074 -268.295
L434.074 -268.303
L434.074 -268.31
L434.074 -268.317
L434.074 -268.324
L434.074 -268.332
L434.074 -268.339
L434.074 -268.346
L434.074 -268.353
L434.074 -268.361
L434.074 -268.368
L434.074 -268.375
L434.074 -268.383
L434.074 -268.39
L434.073 -268.397
L434.073 -268.404
L434.072 -268.412
L434.07 -268.419
L434.068 -268.426
L434.064 -268.433
L434.059 -268.441
L434.052 -268.448
L434.041 -268.455
L434.027 -268.463
L434.009 -268.47
L433.984 -268.477
L433.951 -268.484
L433.909 -268.492
L433.857 -268.499
L433.793 -268.506
L433.716 -268.513
L433.624 -268.521
L433.518 -268.528
L433.398 -268.535
L433.264 -268.543
L433.119 -268.55
L432.966 -268.557
L432.808 -268.564
L432.649 -268.572
L432.497 -268.579
L432.354 -268.586
L432.229 -268.593
L432.125 -268.601
L432.047 -268.608
L431.998 -268.615
L431.982 -268.623
L436.167 -268.623
L436.167 -268.623
L436.151 -268.615
L436.102 -268.608
L436.024 -268.601
L435.92 -268.593
L435.795 -268.586
L435.652 -268.579
L435.5 -268.572
L435.341 -268.564
L435.183 -268.557
L435.03 -268.55
L434.885 -268.543
L434.751 -268.535
L434.631 -268.528
L434.525 -268.521
L434.433 -268.513
L434.356 -268.506
L434.292 -268.499
L434.24 -268.492
L434.198 -268.484
L434.165 -268.477
L434.14 -268.47
L434.122 -268.463
L434.108 -268.455
L434.097 -268.448
L434.09 -268.441
L434.085 -268.433
L434.081 -268.426
L434.079 -268.419
L434.077 -268.412
L434.076 -268.404
L434.076 -268.397
L434.075 -268.39
L434.075 -268.383
L434.075 -268.375
L434.075 -268.368
L434.075 -268.361
L434.075 -268.353
L434.075 -268.346
L434.075 -268.339
L434.075 -268.332
L434.075 -268.324
L434.075 -268.317
L434.075 -268.31
L434.075 -268.303
L434.075 -268.295
L434.075 -268.288
L434.075 -268.281
L434.075 -268.273
L434.075 -268.266
L434.075 -268.259
L434.075 -268.252
L434.075 -268.244
L434.075 -268.237
L434.075 -268.23
L434.075 -268.223
L434.075 -268.215
L434.075 -268.208
L434.075 -268.201
L434.075 -268.193
L434.075 -268.186
L434.075 -268.179
L434.075 -268.172
L434.075 -268.164
L434.076 -268.157
L434.076 -268.15
L434.078 -268.143
L434.08 -268.135
L434.083 -268.128
L434.089 -268.121
L434.097 -268.113
L434.11 -268.106
L434.13 -268.099
L434.158 -268.092
L434.199 -268.084
L434.258 -268.077
L434.339 -268.07
L434.451 -268.063
L434.602 -268.055
L434.802 -268.048
L435.062 -268.041
L435.395 -268.033
L435.811 -268.026
L436.324 -268.019
L436.943 -268.012
L437.675 -268.004
L438.524 -267.997
L439.488 -267.99
L440.557 -267.983
L441.718 -267.975
L442.945 -267.968
L444.21 -267.961
L445.475 -267.953
L446.698 -267.946
L447.835 -267.939
L448.841 -267.932
L449.674 -267.924
L450.298 -267.917
L450.684 -267.91
L450.815 -267.903
z
" id="ma6c6d1c944" style="stroke:#000000;stroke-opacity:0.3;"/>
    </defs>
    <g clip-path="url(#p729dc12a58)">
     <use style="fill:#bfbf00;fill-opacity:0.3;stroke:#000000;stroke-opacity:0.3;" x="0.0" xlink:href="#ma6c6d1c944" y="463.84425"/>
    </g>
   </g>
   <g id="PolyCollection_7">
    <defs>
     <path d="
M507.618 -123.903
L494.451 -123.903
L494.511 -126.804
L494.686 -129.706
L494.968 -132.608
L495.342 -135.51
L495.789 -138.412
L496.288 -141.313
L496.816 -144.215
L497.354 -147.117
L497.88 -150.019
L498.38 -152.921
L498.841 -155.823
L499.255 -158.724
L499.616 -161.626
L499.925 -164.528
L500.182 -167.43
L500.391 -170.332
L500.557 -173.233
L500.686 -176.135
L500.783 -179.037
L500.855 -181.939
L500.905 -184.841
L500.938 -187.743
L500.955 -190.644
L500.958 -193.546
L500.947 -196.448
L500.919 -199.35
L500.871 -202.252
L500.798 -205.153
L500.692 -208.055
L500.543 -210.957
L500.34 -213.859
L500.07 -216.761
L499.717 -219.663
L499.267 -222.564
L498.706 -225.466
L498.022 -228.368
L497.207 -231.27
L496.259 -234.172
L495.183 -237.073
L493.994 -239.975
L492.715 -242.877
L491.379 -245.779
L490.029 -248.681
L488.713 -251.583
L487.485 -254.484
L486.397 -257.386
L485.499 -260.288
L484.831 -263.19
L484.425 -266.092
L484.295 -268.993
L484.44 -271.895
L484.846 -274.797
L485.483 -277.699
L486.308 -280.601
L487.273 -283.502
L488.325 -286.404
L489.414 -289.306
L490.493 -292.208
L491.523 -295.11
L492.478 -298.012
L493.339 -300.913
L494.1 -303.815
L494.764 -306.717
L495.339 -309.619
L495.84 -312.521
L496.283 -315.423
L496.683 -318.324
L497.054 -321.226
L497.407 -324.128
L497.75 -327.03
L498.086 -329.932
L498.415 -332.833
L498.734 -335.735
L499.04 -338.637
L499.327 -341.539
L499.59 -344.441
L499.824 -347.343
L500.025 -350.244
L500.189 -353.146
L500.316 -356.048
L500.403 -358.95
L500.449 -361.852
L500.455 -364.753
L500.42 -367.655
L500.345 -370.557
L500.23 -373.459
L500.079 -376.361
L499.893 -379.263
L499.678 -382.164
L499.438 -385.066
L499.181 -387.968
L498.917 -390.87
L498.656 -393.772
L498.409 -396.673
L498.186 -399.575
L498 -402.477
L497.86 -405.379
L497.772 -408.281
L497.743 -411.183
L504.326 -411.183
L504.326 -411.183
L504.297 -408.281
L504.209 -405.379
L504.069 -402.477
L503.883 -399.575
L503.66 -396.673
L503.413 -393.772
L503.152 -390.87
L502.888 -387.968
L502.631 -385.066
L502.391 -382.164
L502.176 -379.263
L501.99 -376.361
L501.839 -373.459
L501.724 -370.557
L501.649 -367.655
L501.614 -364.753
L501.62 -361.852
L501.666 -358.95
L501.753 -356.048
L501.88 -353.146
L502.044 -350.244
L502.245 -347.343
L502.479 -344.441
L502.742 -341.539
L503.029 -338.637
L503.335 -335.735
L503.654 -332.833
L503.983 -329.932
L504.319 -327.03
L504.662 -324.128
L505.015 -321.226
L505.386 -318.324
L505.786 -315.423
L506.229 -312.521
L506.73 -309.619
L507.305 -306.717
L507.969 -303.815
L508.73 -300.913
L509.591 -298.012
L510.546 -295.11
L511.576 -292.208
L512.655 -289.306
L513.744 -286.404
L514.796 -283.502
L515.761 -280.601
L516.586 -277.699
L517.223 -274.797
L517.629 -271.895
L517.774 -268.993
L517.644 -266.092
L517.238 -263.19
L516.57 -260.288
L515.672 -257.386
L514.584 -254.484
L513.356 -251.583
L512.04 -248.681
L510.69 -245.779
L509.354 -242.877
L508.075 -239.975
L506.886 -237.073
L505.81 -234.172
L504.862 -231.27
L504.047 -228.368
L503.363 -225.466
L502.802 -222.564
L502.352 -219.663
L501.999 -216.761
L501.729 -213.859
L501.526 -210.957
L501.377 -208.055
L501.271 -205.153
L501.198 -202.252
L501.15 -199.35
L501.122 -196.448
L501.111 -193.546
L501.114 -190.644
L501.131 -187.743
L501.164 -184.841
L501.214 -181.939
L501.286 -179.037
L501.383 -176.135
L501.512 -173.233
L501.678 -170.332
L501.887 -167.43
L502.144 -164.528
L502.453 -161.626
L502.814 -158.724
L503.228 -155.823
L503.689 -152.921
L504.189 -150.019
L504.715 -147.117
L505.253 -144.215
L505.781 -141.313
L506.28 -138.412
L506.727 -135.51
L507.101 -132.608
L507.383 -129.706
L507.558 -126.804
L507.618 -123.903
z
" id="me837331539" style="stroke:#000000;stroke-opacity:0.3;"/>
    </defs>
    <g clip-path="url(#p729dc12a58)">
     <use style="fill:#bfbf00;fill-opacity:0.3;stroke:#000000;stroke-opacity:0.3;" x="0.0" xlink:href="#me837331539" y="463.84425"/>
    </g>
   </g>
   <g id="PolyCollection_8">
    <defs>
     <path d="
M570.802 -195.903
L565.187 -195.903
L565.195 -196.63
L565.23 -197.357
L565.289 -198.084
L565.37 -198.812
L565.468 -199.539
L565.578 -200.266
L565.695 -200.993
L565.812 -201.721
L565.924 -202.448
L566.022 -203.175
L566.103 -203.903
L566.159 -204.63
L566.186 -205.357
L566.179 -206.084
L566.135 -206.812
L566.052 -207.539
L565.929 -208.266
L565.766 -208.993
L565.566 -209.721
L565.33 -210.448
L565.064 -211.175
L564.775 -211.903
L564.468 -212.63
L564.153 -213.357
L563.839 -214.084
L563.535 -214.812
L563.25 -215.539
L562.995 -216.266
L562.777 -216.993
L562.604 -217.721
L562.482 -218.448
L562.417 -219.175
L562.41 -219.903
L562.462 -220.63
L562.572 -221.357
L562.737 -222.084
L562.951 -222.812
L563.208 -223.539
L563.5 -224.266
L563.82 -224.993
L564.159 -225.721
L564.508 -226.448
L564.86 -227.175
L565.206 -227.903
L565.541 -228.63
L565.859 -229.357
L566.155 -230.084
L566.428 -230.812
L566.674 -231.539
L566.894 -232.266
L567.087 -232.993
L567.254 -233.721
L567.397 -234.448
L567.517 -235.175
L567.617 -235.903
L567.699 -236.63
L567.766 -237.357
L567.819 -238.084
L567.86 -238.812
L567.891 -239.539
L567.915 -240.266
L567.931 -240.993
L567.941 -241.721
L567.944 -242.448
L567.942 -243.175
L567.934 -243.903
L567.919 -244.63
L567.895 -245.357
L567.861 -246.084
L567.814 -246.812
L567.751 -247.539
L567.668 -248.266
L567.56 -248.993
L567.423 -249.721
L567.25 -250.448
L567.035 -251.175
L566.771 -251.903
L566.45 -252.63
L566.068 -253.357
L565.615 -254.084
L565.089 -254.812
L564.484 -255.539
L563.798 -256.266
L563.033 -256.993
L562.191 -257.721
L561.279 -258.448
L560.308 -259.175
L559.29 -259.903
L558.244 -260.63
L557.189 -261.357
L556.15 -262.084
L555.149 -262.812
L554.214 -263.539
L553.37 -264.266
L552.641 -264.993
L552.049 -265.721
L551.613 -266.448
L551.345 -267.175
L551.255 -267.903
L584.735 -267.903
L584.735 -267.903
L584.644 -267.175
L584.376 -266.448
L583.94 -265.721
L583.348 -264.993
L582.619 -264.266
L581.775 -263.539
L580.84 -262.812
L579.839 -262.084
L578.8 -261.357
L577.745 -260.63
L576.699 -259.903
L575.681 -259.175
L574.71 -258.448
L573.798 -257.721
L572.956 -256.993
L572.191 -256.266
L571.505 -255.539
L570.9 -254.812
L570.374 -254.084
L569.921 -253.357
L569.539 -252.63
L569.218 -251.903
L568.954 -251.175
L568.739 -250.448
L568.566 -249.721
L568.429 -248.993
L568.321 -248.266
L568.238 -247.539
L568.175 -246.812
L568.128 -246.084
L568.094 -245.357
L568.07 -244.63
L568.055 -243.903
L568.047 -243.175
L568.045 -242.448
L568.048 -241.721
L568.058 -240.993
L568.074 -240.266
L568.098 -239.539
L568.129 -238.812
L568.17 -238.084
L568.223 -237.357
L568.29 -236.63
L568.372 -235.903
L568.472 -235.175
L568.592 -234.448
L568.735 -233.721
L568.902 -232.993
L569.095 -232.266
L569.315 -231.539
L569.561 -230.812
L569.834 -230.084
L570.13 -229.357
L570.448 -228.63
L570.783 -227.903
L571.129 -227.175
L571.481 -226.448
L571.83 -225.721
L572.169 -224.993
L572.489 -224.266
L572.781 -223.539
L573.038 -222.812
L573.252 -222.084
L573.417 -221.357
L573.527 -220.63
L573.579 -219.903
L573.572 -219.175
L573.507 -218.448
L573.385 -217.721
L573.212 -216.993
L572.994 -216.266
L572.739 -215.539
L572.454 -214.812
L572.15 -214.084
L571.836 -213.357
L571.521 -212.63
L571.214 -211.903
L570.925 -211.175
L570.659 -210.448
L570.423 -209.721
L570.223 -208.993
L570.06 -208.266
L569.937 -207.539
L569.854 -206.812
L569.81 -206.084
L569.803 -205.357
L569.83 -204.63
L569.886 -203.903
L569.967 -203.175
L570.065 -202.448
L570.177 -201.721
L570.294 -200.993
L570.411 -200.266
L570.521 -199.539
L570.619 -198.812
L570.7 -198.084
L570.759 -197.357
L570.794 -196.63
L570.802 -195.903
z
" id="m64b65be003" style="stroke:#000000;stroke-opacity:0.3;"/>
    </defs>
    <g clip-path="url(#p729dc12a58)">
     <use style="fill:#bfbf00;fill-opacity:0.3;stroke:#000000;stroke-opacity:0.3;" x="0.0" xlink:href="#m64b65be003" y="463.84425"/>
    </g>
   </g>
   <g id="PolyCollection_9">
    <defs>
     <path d="
M644.997 -123.903
L624.912 -123.903
L624.936 -125.357
L625.035 -126.812
L625.205 -128.266
L625.442 -129.721
L625.743 -131.175
L626.099 -132.63
L626.504 -134.084
L626.95 -135.539
L627.427 -136.993
L627.927 -138.448
L628.441 -139.903
L628.961 -141.357
L629.477 -142.812
L629.984 -144.266
L630.472 -145.721
L630.938 -147.175
L631.376 -148.63
L631.782 -150.084
L632.152 -151.539
L632.486 -152.993
L632.781 -154.448
L633.037 -155.903
L633.254 -157.357
L633.432 -158.812
L633.573 -160.266
L633.677 -161.721
L633.747 -163.175
L633.783 -164.63
L633.789 -166.084
L633.767 -167.539
L633.718 -168.993
L633.645 -170.448
L633.55 -171.903
L633.437 -173.357
L633.307 -174.812
L633.165 -176.266
L633.013 -177.721
L632.854 -179.175
L632.692 -180.63
L632.53 -182.084
L632.372 -183.539
L632.221 -184.993
L632.08 -186.448
L631.953 -187.903
L631.842 -189.357
L631.75 -190.812
L631.679 -192.266
L631.631 -193.721
L631.606 -195.175
L631.606 -196.63
L631.63 -198.084
L631.677 -199.539
L631.748 -200.993
L631.839 -202.448
L631.948 -203.903
L632.073 -205.357
L632.212 -206.812
L632.359 -208.266
L632.513 -209.721
L632.669 -211.175
L632.823 -212.63
L632.971 -214.084
L633.11 -215.539
L633.236 -216.993
L633.345 -218.448
L633.432 -219.903
L633.495 -221.357
L633.528 -222.812
L633.529 -224.266
L633.494 -225.721
L633.418 -227.175
L633.298 -228.63
L633.131 -230.084
L632.913 -231.539
L632.641 -232.993
L632.312 -234.448
L631.924 -235.903
L631.476 -237.357
L630.967 -238.812
L630.397 -240.266
L629.768 -241.721
L629.083 -243.175
L628.347 -244.63
L627.565 -246.084
L626.746 -247.539
L625.899 -248.993
L625.035 -250.448
L624.166 -251.903
L623.306 -253.357
L622.468 -254.812
L621.668 -256.266
L620.92 -257.721
L620.239 -259.175
L619.639 -260.63
L619.131 -262.084
L618.727 -263.539
L618.436 -264.993
L618.264 -266.448
L618.215 -267.903
L651.695 -267.903
L651.695 -267.903
L651.645 -266.448
L651.473 -264.993
L651.182 -263.539
L650.778 -262.084
L650.27 -260.63
L649.67 -259.175
L648.989 -257.721
L648.241 -256.266
L647.441 -254.812
L646.603 -253.357
L645.743 -251.903
L644.874 -250.448
L644.01 -248.993
L643.163 -247.539
L642.344 -246.084
L641.562 -244.63
L640.826 -243.175
L640.141 -241.721
L639.512 -240.266
L638.942 -238.812
L638.433 -237.357
L637.985 -235.903
L637.597 -234.448
L637.268 -232.993
L636.996 -231.539
L636.778 -230.084
L636.611 -228.63
L636.491 -227.175
L636.415 -225.721
L636.38 -224.266
L636.381 -222.812
L636.414 -221.357
L636.477 -219.903
L636.564 -218.448
L636.673 -216.993
L636.799 -215.539
L636.938 -214.084
L637.086 -212.63
L637.24 -211.175
L637.396 -209.721
L637.55 -208.266
L637.697 -206.812
L637.836 -205.357
L637.961 -203.903
L638.07 -202.448
L638.161 -200.993
L638.232 -199.539
L638.279 -198.084
L638.303 -196.63
L638.303 -195.175
L638.278 -193.721
L638.23 -192.266
L638.159 -190.812
L638.067 -189.357
L637.956 -187.903
L637.829 -186.448
L637.688 -184.993
L637.537 -183.539
L637.379 -182.084
L637.217 -180.63
L637.055 -179.175
L636.896 -177.721
L636.744 -176.266
L636.602 -174.812
L636.472 -173.357
L636.359 -171.903
L636.264 -170.448
L636.191 -168.993
L636.142 -167.539
L636.12 -166.084
L636.126 -164.63
L636.162 -163.175
L636.232 -161.721
L636.336 -160.266
L636.477 -158.812
L636.655 -157.357
L636.872 -155.903
L637.128 -154.448
L637.423 -152.993
L637.757 -151.539
L638.127 -150.084
L638.533 -148.63
L638.971 -147.175
L639.437 -145.721
L639.925 -144.266
L640.432 -142.812
L640.948 -141.357
L641.468 -139.903
L641.982 -138.448
L642.482 -136.993
L642.959 -135.539
L643.405 -134.084
L643.81 -132.63
L644.166 -131.175
L644.467 -129.721
L644.704 -128.266
L644.874 -126.812
L644.973 -125.357
L644.997 -123.903
z
" id="mcb901027a6" style="stroke:#000000;stroke-opacity:0.3;"/>
    </defs>
    <g clip-path="url(#p729dc12a58)">
     <use style="fill:#bfbf00;fill-opacity:0.3;stroke:#000000;stroke-opacity:0.3;" x="0.0" xlink:href="#mcb901027a6" y="463.84425"/>
    </g>
   </g>
   <g id="LineCollection_1">
    <defs>
     <path d="
M90.9045 -339.903
L107.644 -339.903" id="C0_0_9ebfa262d3"/>
     <path d="
M157.864 -268.623
L174.604 -268.623" id="C0_1_10b35a5390"/>
     <path d="
M224.825 -267.903
L241.565 -267.903" id="C0_2_d800173543"/>
     <path d="
M291.784 -267.903
L308.524 -267.903" id="C0_3_41fbf8891e"/>
     <path d="
M358.745 -267.903
L375.484 -267.903" id="C0_4_f7e440ec41"/>
     <path d="
M425.704 -267.903
L442.445 -267.903" id="C0_5_e91a5d4b79"/>
     <path d="
M492.665 -267.903
L509.404 -267.903" id="C0_6_947989f081"/>
     <path d="
M559.625 -267.903
L576.365 -267.903" id="C0_7_9724700d58"/>
     <path d="
M626.585 -267.183
L643.325 -267.183" id="C0_8_b5326b9d2f"/>
    </defs>
    <g clip-path="url(#p729dc12a58)">
     <use style="fill:none;stroke:#ff0000;" x="0.0" xlink:href="#C0_0_9ebfa262d3" y="463.84425"/>
    </g>
    <g clip-path="url(#p729dc12a58)">
     <use style="fill:none;stroke:#ff0000;" x="0.0" xlink:href="#C0_1_10b35a5390" y="463.84425"/>
    </g>
    <g clip-path="url(#p729dc12a58)">
     <use style="fill:none;stroke:#ff0000;" x="0.0" xlink:href="#C0_2_d800173543" y="463.84425"/>
    </g>
    <g clip-path="url(#p729dc12a58)">
     <use style="fill:none;stroke:#ff0000;" x="0.0" xlink:href="#C0_3_41fbf8891e" y="463.84425"/>
    </g>
    <g clip-path="url(#p729dc12a58)">
     <use style="fill:none;stroke:#ff0000;" x="0.0" xlink:href="#C0_4_f7e440ec41" y="463.84425"/>
    </g>
    <g clip-path="url(#p729dc12a58)">
     <use style="fill:none;stroke:#ff0000;" x="0.0" xlink:href="#C0_5_e91a5d4b79" y="463.84425"/>
    </g>
    <g clip-path="url(#p729dc12a58)">
     <use style="fill:none;stroke:#ff0000;" x="0.0" xlink:href="#C0_6_947989f081" y="463.84425"/>
    </g>
    <g clip-path="url(#p729dc12a58)">
     <use style="fill:none;stroke:#ff0000;" x="0.0" xlink:href="#C0_7_9724700d58" y="463.84425"/>
    </g>
    <g clip-path="url(#p729dc12a58)">
     <use style="fill:none;stroke:#ff0000;" x="0.0" xlink:href="#C0_8_b5326b9d2f" y="463.84425"/>
    </g>
   </g>
   <g id="patch_3">
    <path d="
M32.3145 23.1418
L701.915 23.1418" style="fill:none;stroke:#000000;stroke-linecap:square;stroke-linejoin:miter;"/>
   </g>
   <g id="patch_4">
    <path d="
M701.914 368.742
L701.914 23.1417" style="fill:none;stroke:#000000;stroke-linecap:square;stroke-linejoin:miter;"/>
   </g>
   <g id="patch_5">
    <path d="
M32.3145 368.742
L701.915 368.742" style="fill:none;stroke:#000000;stroke-linecap:square;stroke-linejoin:miter;"/>
   </g>
   <g id="patch_6">
    <path d="
M32.3145 368.742
L32.3145 23.1417" style="fill:none;stroke:#000000;stroke-linecap:square;stroke-linejoin:miter;"/>
   </g>
   <g id="matplotlib.axis_1">
    <g id="xtick_1">
     <g id="line2d_1">
      <defs>
       <path d="
M0 0
L0 -4" id="m93b0483c22" style="stroke:#000000;stroke-width:0.5;"/>
      </defs>
      <g>
       <use style="stroke:#000000;stroke-width:0.5;" x="99.2745" xlink:href="#m93b0483c22" y="368.74175"/>
      </g>
     </g>
     <g id="line2d_2">
      <defs>
       <path d="
M0 0
L0 4" id="m741efc42ff" style="stroke:#000000;stroke-width:0.5;"/>
      </defs>
      <g>
       <use style="stroke:#000000;stroke-width:0.5;" x="99.2745" xlink:href="#m741efc42ff" y="23.14175"/>
      </g>
     </g>
     <g id="text_1">
      <!-- Defector -->
      <defs>
       <path d="
M30.6094 48.3906
Q23.3906 48.3906 19.1875 42.75
Q14.9844 37.1094 14.9844 27.2969
Q14.9844 17.4844 19.1562 11.8438
Q23.3438 6.20312 30.6094 6.20312
Q37.7969 6.20312 41.9844 11.8594
Q46.1875 17.5312 46.1875 27.2969
Q46.1875 37.0156 41.9844 42.7031
Q37.7969 48.3906 30.6094 48.3906
M30.6094 56
Q42.3281 56 49.0156 48.375
Q55.7188 40.7656 55.7188 27.2969
Q55.7188 13.875 49.0156 6.21875
Q42.3281 -1.42188 30.6094 -1.42188
Q18.8438 -1.42188 12.1719 6.21875
Q5.51562 13.875 5.51562 27.2969
Q5.51562 40.7656 12.1719 48.375
Q18.8438 56 30.6094 56" id="DejaVuSans-6f"/>
       <path d="
M19.6719 64.7969
L19.6719 8.10938
L31.5938 8.10938
Q46.6875 8.10938 53.6875 14.9375
Q60.6875 21.7812 60.6875 36.5312
Q60.6875 51.1719 53.6875 57.9844
Q46.6875 64.7969 31.5938 64.7969
z

M9.8125 72.9062
L30.0781 72.9062
Q51.2656 72.9062 61.1719 64.0938
Q71.0938 55.2812 71.0938 36.5312
Q71.0938 17.6719 61.125 8.82812
Q51.1719 0 30.0781 0
L9.8125 0
z
" id="DejaVuSans-44"/>
       <path d="
M37.1094 75.9844
L37.1094 68.5
L28.5156 68.5
Q23.6875 68.5 21.7969 66.5469
Q19.9219 64.5938 19.9219 59.5156
L19.9219 54.6875
L34.7188 54.6875
L34.7188 47.7031
L19.9219 47.7031
L19.9219 0
L10.8906 0
L10.8906 47.7031
L2.29688 47.7031
L2.29688 54.6875
L10.8906 54.6875
L10.8906 58.5
Q10.8906 67.625 15.1406 71.7969
Q19.3906 75.9844 28.6094 75.9844
z
" id="DejaVuSans-66"/>
       <path d="
M18.3125 70.2188
L18.3125 54.6875
L36.8125 54.6875
L36.8125 47.7031
L18.3125 47.7031
L18.3125 18.0156
Q18.3125 11.3281 20.1406 9.42188
Q21.9688 7.51562 27.5938 7.51562
L36.8125 7.51562
L36.8125 0
L27.5938 0
Q17.1875 0 13.2344 3.875
Q9.28125 7.76562 9.28125 18.0156
L9.28125 47.7031
L2.6875 47.7031
L2.6875 54.6875
L9.28125 54.6875
L9.28125 70.2188
z
" id="DejaVuSans-74"/>
       <path d="
M56.2031 29.5938
L56.2031 25.2031
L14.8906 25.2031
Q15.4844 15.9219 20.4844 11.0625
Q25.4844 6.20312 34.4219 6.20312
Q39.5938 6.20312 44.4531 7.46875
Q49.3125 8.73438 54.1094 11.2812
L54.1094 2.78125
Q49.2656 0.734375 44.1875 -0.34375
Q39.1094 -1.42188 33.8906 -1.42188
Q20.7969 -1.42188 13.1562 6.1875
Q5.51562 13.8125 5.51562 26.8125
Q5.51562 40.2344 12.7656 48.1094
Q20.0156 56 32.3281 56
Q43.3594 56 49.7812 48.8906
Q56.2031 41.7969 56.2031 29.5938
M47.2188 32.2344
Q47.125 39.5938 43.0938 43.9844
Q39.0625 48.3906 32.4219 48.3906
Q24.9062 48.3906 20.3906 44.1406
Q15.875 39.8906 15.1875 32.1719
z
" id="DejaVuSans-65"/>
       <path d="
M48.7812 52.5938
L48.7812 44.1875
Q44.9688 46.2969 41.1406 47.3438
Q37.3125 48.3906 33.4062 48.3906
Q24.6562 48.3906 19.8125 42.8438
Q14.9844 37.3125 14.9844 27.2969
Q14.9844 17.2812 19.8125 11.7344
Q24.6562 6.20312 33.4062 6.20312
Q37.3125 6.20312 41.1406 7.25
Q44.9688 8.29688 48.7812 10.4062
L48.7812 2.09375
Q45.0156 0.34375 40.9844 -0.53125
Q36.9688 -1.42188 32.4219 -1.42188
Q20.0625 -1.42188 12.7812 6.34375
Q5.51562 14.1094 5.51562 27.2969
Q5.51562 40.6719 12.8594 48.3281
Q20.2188 56 33.0156 56
Q37.1562 56 41.1094 55.1406
Q45.0625 54.2969 48.7812 52.5938" id="DejaVuSans-63"/>
       <path d="
M41.1094 46.2969
Q39.5938 47.1719 37.8125 47.5781
Q36.0312 48 33.8906 48
Q26.2656 48 22.1875 43.0469
Q18.1094 38.0938 18.1094 28.8125
L18.1094 0
L9.07812 0
L9.07812 54.6875
L18.1094 54.6875
L18.1094 46.1875
Q20.9531 51.1719 25.4844 53.5781
Q30.0312 56 36.5312 56
Q37.4531 56 38.5781 55.875
Q39.7031 55.7656 41.0625 55.5156
z
" id="DejaVuSans-72"/>
      </defs>
      <g transform="translate(101.482 406.49675)rotate(-90.0)scale(0.08 -0.08)">
       <use xlink:href="#DejaVuSans-44"/>
       <use x="77.001953125" xlink:href="#DejaVuSans-65"/>
       <use x="138.525390625" xlink:href="#DejaVuSans-66"/>
       <use x="173.73046875" xlink:href="#DejaVuSans-65"/>
       <use x="235.25390625" xlink:href="#DejaVuSans-63"/>
       <use x="290.234375" xlink:href="#DejaVuSans-74"/>
       <use x="329.443359375" xlink:href="#DejaVuSans-6f"/>
       <use x="390.625" xlink:href="#DejaVuSans-72"/>
      </g>
     </g>
    </g>
    <g id="xtick_2">
     <g id="line2d_3">
      <g>
       <use style="stroke:#000000;stroke-width:0.5;" x="166.2345" xlink:href="#m93b0483c22" y="368.74175"/>
      </g>
     </g>
     <g id="line2d_4">
      <g>
       <use style="stroke:#000000;stroke-width:0.5;" x="166.2345" xlink:href="#m741efc42ff" y="23.14175"/>
      </g>
     </g>
     <g id="text_2">
      <!-- Bully -->
      <defs>
       <path d="
M8.5 21.5781
L8.5 54.6875
L17.4844 54.6875
L17.4844 21.9219
Q17.4844 14.1562 20.5 10.2656
Q23.5312 6.39062 29.5938 6.39062
Q36.8594 6.39062 41.0781 11.0312
Q45.3125 15.6719 45.3125 23.6875
L45.3125 54.6875
L54.2969 54.6875
L54.2969 0
L45.3125 0
L45.3125 8.40625
Q42.0469 3.42188 37.7188 1
Q33.4062 -1.42188 27.6875 -1.42188
Q18.2656 -1.42188 13.375 4.4375
Q8.5 10.2969 8.5 21.5781
M31.1094 56
z
" id="DejaVuSans-75"/>
       <path d="
M32.1719 -5.07812
Q28.375 -14.8438 24.75 -17.8125
Q21.1406 -20.7969 15.0938 -20.7969
L7.90625 -20.7969
L7.90625 -13.2812
L13.1875 -13.2812
Q16.8906 -13.2812 18.9375 -11.5156
Q21 -9.76562 23.4844 -3.21875
L25.0938 0.875
L2.98438 54.6875
L12.5 54.6875
L29.5938 11.9219
L46.6875 54.6875
L56.2031 54.6875
z
" id="DejaVuSans-79"/>
       <path d="
M9.42188 75.9844
L18.4062 75.9844
L18.4062 0
L9.42188 0
z
" id="DejaVuSans-6c"/>
       <path d="
M19.6719 34.8125
L19.6719 8.10938
L35.5 8.10938
Q43.4531 8.10938 47.2812 11.4062
Q51.125 14.7031 51.125 21.4844
Q51.125 28.3281 47.2812 31.5625
Q43.4531 34.8125 35.5 34.8125
z

M19.6719 64.7969
L19.6719 42.8281
L34.2812 42.8281
Q41.5 42.8281 45.0312 45.5312
Q48.5781 48.25 48.5781 53.8125
Q48.5781 59.3281 45.0312 62.0625
Q41.5 64.7969 34.2812 64.7969
z

M9.8125 72.9062
L35.0156 72.9062
Q46.2969 72.9062 52.3906 68.2188
Q58.5 63.5312 58.5 54.8906
Q58.5 48.1875 55.375 44.2344
Q52.25 40.2812 46.1875 39.3125
Q53.4688 37.75 57.5 32.7812
Q61.5312 27.8281 61.5312 20.4062
Q61.5312 10.6406 54.8906 5.3125
Q48.25 0 35.9844 0
L9.8125 0
z
" id="DejaVuSans-42"/>
      </defs>
      <g transform="translate(168.442 391.45675)rotate(-90.0)scale(0.08 -0.08)">
       <use xlink:href="#DejaVuSans-42"/>
       <use x="68.603515625" xlink:href="#DejaVuSans-75"/>
       <use x="131.982421875" xlink:href="#DejaVuSans-6c"/>
       <use x="159.765625" xlink:href="#DejaVuSans-6c"/>
       <use x="187.548828125" xlink:href="#DejaVuSans-79"/>
      </g>
     </g>
    </g>
    <g id="xtick_3">
     <g id="line2d_5">
      <g>
       <use style="stroke:#000000;stroke-width:0.5;" x="233.1945" xlink:href="#m93b0483c22" y="368.74175"/>
      </g>
     </g>
     <g id="line2d_6">
      <g>
       <use style="stroke:#000000;stroke-width:0.5;" x="233.1945" xlink:href="#m741efc42ff" y="23.14175"/>
      </g>
     </g>
     <g id="text_3">
      <!-- Alternator -->
      <defs>
       <path d="
M54.8906 33.0156
L54.8906 0
L45.9062 0
L45.9062 32.7188
Q45.9062 40.4844 42.875 44.3281
Q39.8438 48.1875 33.7969 48.1875
Q26.5156 48.1875 22.3125 43.5469
Q18.1094 38.9219 18.1094 30.9062
L18.1094 0
L9.07812 0
L9.07812 54.6875
L18.1094 54.6875
L18.1094 46.1875
Q21.3438 51.125 25.7031 53.5625
Q30.0781 56 35.7969 56
Q45.2188 56 50.0469 50.1719
Q54.8906 44.3438 54.8906 33.0156" id="DejaVuSans-6e"/>
       <path d="
M34.1875 63.1875
L20.7969 26.9062
L47.6094 26.9062
z

M28.6094 72.9062
L39.7969 72.9062
L67.5781 0
L57.3281 0
L50.6875 18.7031
L17.8281 18.7031
L11.1875 0
L0.78125 0
z
" id="DejaVuSans-41"/>
       <path d="
M34.2812 27.4844
Q23.3906 27.4844 19.1875 25
Q14.9844 22.5156 14.9844 16.5
Q14.9844 11.7188 18.1406 8.90625
Q21.2969 6.10938 26.7031 6.10938
Q34.1875 6.10938 38.7031 11.4062
Q43.2188 16.7031 43.2188 25.4844
L43.2188 27.4844
z

M52.2031 31.2031
L52.2031 0
L43.2188 0
L43.2188 8.29688
Q40.1406 3.32812 35.5469 0.953125
Q30.9531 -1.42188 24.3125 -1.42188
Q15.9219 -1.42188 10.9531 3.29688
Q6 8.01562 6 15.9219
Q6 25.1406 12.1719 29.8281
Q18.3594 34.5156 30.6094 34.5156
L43.2188 34.5156
L43.2188 35.4062
Q43.2188 41.6094 39.1406 45
Q35.0625 48.3906 27.6875 48.3906
Q23 48.3906 18.5469 47.2656
Q14.1094 46.1406 10.0156 43.8906
L10.0156 52.2031
Q14.9375 54.1094 19.5781 55.0469
Q24.2188 56 28.6094 56
Q40.4844 56 46.3438 49.8438
Q52.2031 43.7031 52.2031 31.2031" id="DejaVuSans-61"/>
      </defs>
      <g transform="translate(235.402 412.87425)rotate(-90.0)scale(0.08 -0.08)">
       <use xlink:href="#DejaVuSans-41"/>
       <use x="68.408203125" xlink:href="#DejaVuSans-6c"/>
       <use x="96.19140625" xlink:href="#DejaVuSans-74"/>
       <use x="135.400390625" xlink:href="#DejaVuSans-65"/>
       <use x="196.923828125" xlink:href="#DejaVuSans-72"/>
       <use x="236.287109375" xlink:href="#DejaVuSans-6e"/>
       <use x="299.666015625" xlink:href="#DejaVuSans-61"/>
       <use x="360.9453125" xlink:href="#DejaVuSans-74"/>
       <use x="400.154296875" xlink:href="#DejaVuSans-6f"/>
       <use x="461.3359375" xlink:href="#DejaVuSans-72"/>
      </g>
     </g>
    </g>
    <g id="xtick_4">
     <g id="line2d_7">
      <g>
       <use style="stroke:#000000;stroke-width:0.5;" x="300.1545" xlink:href="#m93b0483c22" y="368.74175"/>
      </g>
     </g>
     <g id="line2d_8">
      <g>
       <use style="stroke:#000000;stroke-width:0.5;" x="300.1545" xlink:href="#m741efc42ff" y="23.14175"/>
      </g>
     </g>
     <g id="text_4">
      <!-- Tit For Tat -->
      <defs>
       <path id="DejaVuSans-20"/>
       <path d="
M9.42188 54.6875
L18.4062 54.6875
L18.4062 0
L9.42188 0
z

M9.42188 75.9844
L18.4062 75.9844
L18.4062 64.5938
L9.42188 64.5938
z
" id="DejaVuSans-69"/>
       <path d="
M9.8125 72.9062
L51.7031 72.9062
L51.7031 64.5938
L19.6719 64.5938
L19.6719 43.1094
L48.5781 43.1094
L48.5781 34.8125
L19.6719 34.8125
L19.6719 0
L9.8125 0
z
" id="DejaVuSans-46"/>
       <path d="
M-0.296875 72.9062
L61.375 72.9062
L61.375 64.5938
L35.5 64.5938
L35.5 0
L25.5938 0
L25.5938 64.5938
L-0.296875 64.5938
z
" id="DejaVuSans-54"/>
      </defs>
      <g transform="translate(302.362 411.75425)rotate(-90.0)scale(0.08 -0.08)">
       <use xlink:href="#DejaVuSans-54"/>
       <use x="57.958984375" xlink:href="#DejaVuSans-69"/>
       <use x="85.7421875" xlink:href="#DejaVuSans-74"/>
       <use x="124.951171875" xlink:href="#DejaVuSans-20"/>
       <use x="156.73828125" xlink:href="#DejaVuSans-46"/>
       <use x="210.6328125" xlink:href="#DejaVuSans-6f"/>
       <use x="271.814453125" xlink:href="#DejaVuSans-72"/>
       <use x="312.927734375" xlink:href="#DejaVuSans-20"/>
       <use x="344.71484375" xlink:href="#DejaVuSans-54"/>
       <use x="389.298828125" xlink:href="#DejaVuSans-61"/>
       <use x="450.578125" xlink:href="#DejaVuSans-74"/>
      </g>
     </g>
    </g>
    <g id="xtick_5">
     <g id="line2d_9">
      <g>
       <use style="stroke:#000000;stroke-width:0.5;" x="367.1145" xlink:href="#m93b0483c22" y="368.74175"/>
      </g>
     </g>
     <g id="line2d_10">
      <g>
       <use style="stroke:#000000;stroke-width:0.5;" x="367.1145" xlink:href="#m741efc42ff" y="23.14175"/>
      </g>
     </g>
     <g id="text_5">
      <!-- Soft Go By Majority -->
      <defs>
       <path d="
M53.5156 70.5156
L53.5156 60.8906
Q47.9062 63.5781 42.9219 64.8906
Q37.9375 66.2188 33.2969 66.2188
Q25.25 66.2188 20.875 63.0938
Q16.5 59.9688 16.5 54.2031
Q16.5 49.3594 19.4062 46.8906
Q22.3125 44.4375 30.4219 42.9219
L36.375 41.7031
Q47.4062 39.5938 52.6562 34.2969
Q57.9062 29 57.9062 20.125
Q57.9062 9.51562 50.7969 4.04688
Q43.7031 -1.42188 29.9844 -1.42188
Q24.8125 -1.42188 18.9688 -0.25
Q13.1406 0.921875 6.89062 3.21875
L6.89062 13.375
Q12.8906 10.0156 18.6562 8.29688
Q24.4219 6.59375 29.9844 6.59375
Q38.4219 6.59375 43.0156 9.90625
Q47.6094 13.2344 47.6094 19.3906
Q47.6094 24.75 44.3125 27.7812
Q41.0156 30.8125 33.5 32.3281
L27.4844 33.5
Q16.4531 35.6875 11.5156 40.375
Q6.59375 45.0625 6.59375 53.4219
Q6.59375 63.0938 13.4062 68.6562
Q20.2188 74.2188 32.1719 74.2188
Q37.3125 74.2188 42.625 73.2812
Q47.9531 72.3594 53.5156 70.5156" id="DejaVuSans-53"/>
       <path d="
M9.8125 72.9062
L24.5156 72.9062
L43.1094 23.2969
L61.8125 72.9062
L76.5156 72.9062
L76.5156 0
L66.8906 0
L66.8906 64.0156
L48.0938 14.0156
L38.1875 14.0156
L19.3906 64.0156
L19.3906 0
L9.8125 0
z
" id="DejaVuSans-4d"/>
       <path d="
M59.5156 10.4062
L59.5156 29.9844
L43.4062 29.9844
L43.4062 38.0938
L69.2812 38.0938
L69.2812 6.78125
Q63.5781 2.73438 56.6875 0.65625
Q49.8125 -1.42188 42 -1.42188
Q24.9062 -1.42188 15.25 8.5625
Q5.60938 18.5625 5.60938 36.375
Q5.60938 54.25 15.25 64.2344
Q24.9062 74.2188 42 74.2188
Q49.125 74.2188 55.5469 72.4531
Q61.9688 70.7031 67.3906 67.2812
L67.3906 56.7812
Q61.9219 61.4219 55.7656 63.7656
Q49.6094 66.1094 42.8281 66.1094
Q29.4375 66.1094 22.7188 58.6406
Q16.0156 51.1719 16.0156 36.375
Q16.0156 21.625 22.7188 14.1562
Q29.4375 6.6875 42.8281 6.6875
Q48.0469 6.6875 52.1406 7.59375
Q56.25 8.5 59.5156 10.4062" id="DejaVuSans-47"/>
       <path d="
M9.42188 54.6875
L18.4062 54.6875
L18.4062 -0.984375
Q18.4062 -11.4219 14.4219 -16.1094
Q10.4531 -20.7969 1.60938 -20.7969
L-1.8125 -20.7969
L-1.8125 -13.1875
L0.59375 -13.1875
Q5.71875 -13.1875 7.5625 -10.8125
Q9.42188 -8.45312 9.42188 -0.984375
z

M9.42188 75.9844
L18.4062 75.9844
L18.4062 64.5938
L9.42188 64.5938
z
" id="DejaVuSans-6a"/>
      </defs>
      <g transform="translate(369.322 449.53925)rotate(-90.0)scale(0.08 -0.08)">
       <use xlink:href="#DejaVuSans-53"/>
       <use x="63.4765625" xlink:href="#DejaVuSans-6f"/>
       <use x="124.658203125" xlink:href="#DejaVuSans-66"/>
       <use x="158.11328125" xlink:href="#DejaVuSans-74"/>
       <use x="197.322265625" xlink:href="#DejaVuSans-20"/>
       <use x="229.109375" xlink:href="#DejaVuSans-47"/>
       <use x="306.599609375" xlink:href="#DejaVuSans-6f"/>
       <use x="367.78125" xlink:href="#DejaVuSans-20"/>
       <use x="399.568359375" xlink:href="#DejaVuSans-42"/>
       <use x="468.171875" xlink:href="#DejaVuSans-79"/>
       <use x="527.3515625" xlink:href="#DejaVuSans-20"/>
       <use x="559.138671875" xlink:href="#DejaVuSans-4d"/>
       <use x="645.41796875" xlink:href="#DejaVuSans-61"/>
       <use x="706.697265625" xlink:href="#DejaVuSans-6a"/>
       <use x="734.48046875" xlink:href="#DejaVuSans-6f"/>
       <use x="795.662109375" xlink:href="#DejaVuSans-72"/>
       <use x="836.775390625" xlink:href="#DejaVuSans-69"/>
       <use x="864.55859375" xlink:href="#DejaVuSans-74"/>
       <use x="903.767578125" xlink:href="#DejaVuSans-79"/>
      </g>
     </g>
    </g>
    <g id="xtick_6">
     <g id="line2d_11">
      <g>
       <use style="stroke:#000000;stroke-width:0.5;" x="434.0745" xlink:href="#m93b0483c22" y="368.74175"/>
      </g>
     </g>
     <g id="line2d_12">
      <g>
       <use style="stroke:#000000;stroke-width:0.5;" x="434.0745" xlink:href="#m741efc42ff" y="23.14175"/>
      </g>
     </g>
     <g id="text_6">
      <!-- Suspicious Tit For Tat -->
      <defs>
       <path d="
M18.1094 8.20312
L18.1094 -20.7969
L9.07812 -20.7969
L9.07812 54.6875
L18.1094 54.6875
L18.1094 46.3906
Q20.9531 51.2656 25.2656 53.625
Q29.5938 56 35.5938 56
Q45.5625 56 51.7812 48.0938
Q58.0156 40.1875 58.0156 27.2969
Q58.0156 14.4062 51.7812 6.48438
Q45.5625 -1.42188 35.5938 -1.42188
Q29.5938 -1.42188 25.2656 0.953125
Q20.9531 3.32812 18.1094 8.20312
M48.6875 27.2969
Q48.6875 37.2031 44.6094 42.8438
Q40.5312 48.4844 33.4062 48.4844
Q26.2656 48.4844 22.1875 42.8438
Q18.1094 37.2031 18.1094 27.2969
Q18.1094 17.3906 22.1875 11.75
Q26.2656 6.10938 33.4062 6.10938
Q40.5312 6.10938 44.6094 11.75
Q48.6875 17.3906 48.6875 27.2969" id="DejaVuSans-70"/>
       <path d="
M44.2812 53.0781
L44.2812 44.5781
Q40.4844 46.5312 36.375 47.5
Q32.2812 48.4844 27.875 48.4844
Q21.1875 48.4844 17.8438 46.4375
Q14.5 44.3906 14.5 40.2812
Q14.5 37.1562 16.8906 35.375
Q19.2812 33.5938 26.5156 31.9844
L29.5938 31.2969
Q39.1562 29.25 43.1875 25.5156
Q47.2188 21.7812 47.2188 15.0938
Q47.2188 7.46875 41.1875 3.01562
Q35.1562 -1.42188 24.6094 -1.42188
Q20.2188 -1.42188 15.4531 -0.5625
Q10.6875 0.296875 5.42188 2
L5.42188 11.2812
Q10.4062 8.6875 15.2344 7.39062
Q20.0625 6.10938 24.8125 6.10938
Q31.1562 6.10938 34.5625 8.28125
Q37.9844 10.4531 37.9844 14.4062
Q37.9844 18.0625 35.5156 20.0156
Q33.0625 21.9688 24.7031 23.7812
L21.5781 24.5156
Q13.2344 26.2656 9.51562 29.9062
Q5.8125 33.5469 5.8125 39.8906
Q5.8125 47.6094 11.2812 51.7969
Q16.75 56 26.8125 56
Q31.7812 56 36.1719 55.2656
Q40.5781 54.5469 44.2812 53.0781" id="DejaVuSans-73"/>
      </defs>
      <g transform="translate(436.282 456.64425)rotate(-90.0)scale(0.08 -0.08)">
       <use xlink:href="#DejaVuSans-53"/>
       <use x="63.4765625" xlink:href="#DejaVuSans-75"/>
       <use x="126.85546875" xlink:href="#DejaVuSans-73"/>
       <use x="178.955078125" xlink:href="#DejaVuSans-70"/>
       <use x="242.431640625" xlink:href="#DejaVuSans-69"/>
       <use x="270.21484375" xlink:href="#DejaVuSans-63"/>
       <use x="325.1953125" xlink:href="#DejaVuSans-69"/>
       <use x="352.978515625" xlink:href="#DejaVuSans-6f"/>
       <use x="414.16015625" xlink:href="#DejaVuSans-75"/>
       <use x="477.5390625" xlink:href="#DejaVuSans-73"/>
       <use x="529.638671875" xlink:href="#DejaVuSans-20"/>
       <use x="561.42578125" xlink:href="#DejaVuSans-54"/>
       <use x="619.384765625" xlink:href="#DejaVuSans-69"/>
       <use x="647.16796875" xlink:href="#DejaVuSans-74"/>
       <use x="686.376953125" xlink:href="#DejaVuSans-20"/>
       <use x="718.1640625" xlink:href="#DejaVuSans-46"/>
       <use x="772.05859375" xlink:href="#DejaVuSans-6f"/>
       <use x="833.240234375" xlink:href="#DejaVuSans-72"/>
       <use x="874.353515625" xlink:href="#DejaVuSans-20"/>
       <use x="906.140625" xlink:href="#DejaVuSans-54"/>
       <use x="950.724609375" xlink:href="#DejaVuSans-61"/>
       <use x="1012.00390625" xlink:href="#DejaVuSans-74"/>
      </g>
     </g>
    </g>
    <g id="xtick_7">
     <g id="line2d_13">
      <g>
       <use style="stroke:#000000;stroke-width:0.5;" x="501.0345" xlink:href="#m93b0483c22" y="368.74175"/>
      </g>
     </g>
     <g id="line2d_14">
      <g>
       <use style="stroke:#000000;stroke-width:0.5;" x="501.0345" xlink:href="#m741efc42ff" y="23.14175"/>
      </g>
     </g>
     <g id="text_7">
      <!-- Anti Tit For Tat -->
      <g transform="translate(503.242 430.17425)rotate(-90.0)scale(0.08 -0.08)">
       <use xlink:href="#DejaVuSans-41"/>
       <use x="68.408203125" xlink:href="#DejaVuSans-6e"/>
       <use x="131.787109375" xlink:href="#DejaVuSans-74"/>
       <use x="170.99609375" xlink:href="#DejaVuSans-69"/>
       <use x="198.779296875" xlink:href="#DejaVuSans-20"/>
       <use x="230.56640625" xlink:href="#DejaVuSans-54"/>
       <use x="288.525390625" xlink:href="#DejaVuSans-69"/>
       <use x="316.30859375" xlink:href="#DejaVuSans-74"/>
       <use x="355.517578125" xlink:href="#DejaVuSans-20"/>
       <use x="387.3046875" xlink:href="#DejaVuSans-46"/>
       <use x="441.19921875" xlink:href="#DejaVuSans-6f"/>
       <use x="502.380859375" xlink:href="#DejaVuSans-72"/>
       <use x="543.494140625" xlink:href="#DejaVuSans-20"/>
       <use x="575.28125" xlink:href="#DejaVuSans-54"/>
       <use x="619.865234375" xlink:href="#DejaVuSans-61"/>
       <use x="681.14453125" xlink:href="#DejaVuSans-74"/>
      </g>
     </g>
    </g>
    <g id="xtick_8">
     <g id="line2d_15">
      <g>
       <use style="stroke:#000000;stroke-width:0.5;" x="567.9945" xlink:href="#m93b0483c22" y="368.74175"/>
      </g>
     </g>
     <g id="line2d_16">
      <g>
       <use style="stroke:#000000;stroke-width:0.5;" x="567.9945" xlink:href="#m741efc42ff" y="23.14175"/>
      </g>
     </g>
     <g id="text_8">
      <!-- Win-Stay Lose-Shift -->
      <defs>
       <path d="
M3.32812 72.9062
L13.2812 72.9062
L28.6094 11.2812
L43.8906 72.9062
L54.9844 72.9062
L70.3125 11.2812
L85.5938 72.9062
L95.6094 72.9062
L77.2969 0
L64.8906 0
L49.5156 63.2812
L33.9844 0
L21.5781 0
z
" id="DejaVuSans-57"/>
       <path d="
M54.8906 33.0156
L54.8906 0
L45.9062 0
L45.9062 32.7188
Q45.9062 40.4844 42.875 44.3281
Q39.8438 48.1875 33.7969 48.1875
Q26.5156 48.1875 22.3125 43.5469
Q18.1094 38.9219 18.1094 30.9062
L18.1094 0
L9.07812 0
L9.07812 75.9844
L18.1094 75.9844
L18.1094 46.1875
Q21.3438 51.125 25.7031 53.5625
Q30.0781 56 35.7969 56
Q45.2188 56 50.0469 50.1719
Q54.8906 44.3438 54.8906 33.0156" id="DejaVuSans-68"/>
       <path d="
M4.89062 31.3906
L31.2031 31.3906
L31.2031 23.3906
L4.89062 23.3906
z
" id="DejaVuSans-2d"/>
       <path d="
M9.8125 72.9062
L19.6719 72.9062
L19.6719 8.29688
L55.1719 8.29688
L55.1719 0
L9.8125 0
z
" id="DejaVuSans-4c"/>
      </defs>
      <g transform="translate(570.202 450.22675)rotate(-90.0)scale(0.08 -0.08)">
       <use xlink:href="#DejaVuSans-57"/>
       <use x="96.626953125" xlink:href="#DejaVuSans-69"/>
       <use x="124.41015625" xlink:href="#DejaVuSans-6e"/>
       <use x="187.7890625" xlink:href="#DejaVuSans-2d"/>
       <use x="223.873046875" xlink:href="#DejaVuSans-53"/>
       <use x="287.349609375" xlink:href="#DejaVuSans-74"/>
       <use x="326.55859375" xlink:href="#DejaVuSans-61"/>
       <use x="387.837890625" xlink:href="#DejaVuSans-79"/>
       <use x="447.017578125" xlink:href="#DejaVuSans-20"/>
       <use x="478.8046875" xlink:href="#DejaVuSans-4c"/>
       <use x="532.767578125" xlink:href="#DejaVuSans-6f"/>
       <use x="593.94921875" xlink:href="#DejaVuSans-73"/>
       <use x="646.048828125" xlink:href="#DejaVuSans-65"/>
       <use x="707.572265625" xlink:href="#DejaVuSans-2d"/>
       <use x="743.65625" xlink:href="#DejaVuSans-53"/>
       <use x="807.1328125" xlink:href="#DejaVuSans-68"/>
       <use x="870.51171875" xlink:href="#DejaVuSans-69"/>
       <use x="898.294921875" xlink:href="#DejaVuSans-66"/>
       <use x="931.75" xlink:href="#DejaVuSans-74"/>
      </g>
     </g>
    </g>
    <g id="xtick_9">
     <g id="line2d_17">
      <g>
       <use style="stroke:#000000;stroke-width:0.5;" x="634.9545" xlink:href="#m93b0483c22" y="368.74175"/>
      </g>
     </g>
     <g id="line2d_18">
      <g>
       <use style="stroke:#000000;stroke-width:0.5;" x="634.9545" xlink:href="#m741efc42ff" y="23.14175"/>
      </g>
     </g>
     <g id="text_9">
      <!-- Cooperator -->
      <defs>
       <path d="
M64.4062 67.2812
L64.4062 56.8906
Q59.4219 61.5312 53.7812 63.8125
Q48.1406 66.1094 41.7969 66.1094
Q29.2969 66.1094 22.6562 58.4688
Q16.0156 50.8281 16.0156 36.375
Q16.0156 21.9688 22.6562 14.3281
Q29.2969 6.6875 41.7969 6.6875
Q48.1406 6.6875 53.7812 8.98438
Q59.4219 11.2812 64.4062 15.9219
L64.4062 5.60938
Q59.2344 2.09375 53.4375 0.328125
Q47.6562 -1.42188 41.2188 -1.42188
Q24.6562 -1.42188 15.125 8.70312
Q5.60938 18.8438 5.60938 36.375
Q5.60938 53.9531 15.125 64.0781
Q24.6562 74.2188 41.2188 74.2188
Q47.75 74.2188 53.5312 72.4844
Q59.3281 70.75 64.4062 67.2812" id="DejaVuSans-43"/>
      </defs>
      <g transform="translate(637.162 417.18175)rotate(-90.0)scale(0.08 -0.08)">
       <use xlink:href="#DejaVuSans-43"/>
       <use x="69.82421875" xlink:href="#DejaVuSans-6f"/>
       <use x="131.005859375" xlink:href="#DejaVuSans-6f"/>
       <use x="192.1875" xlink:href="#DejaVuSans-70"/>
       <use x="255.6640625" xlink:href="#DejaVuSans-65"/>
       <use x="317.1875" xlink:href="#DejaVuSans-72"/>
       <use x="358.30078125" xlink:href="#DejaVuSans-61"/>
       <use x="419.580078125" xlink:href="#DejaVuSans-74"/>
       <use x="458.7890625" xlink:href="#DejaVuSans-6f"/>
       <use x="519.970703125" xlink:href="#DejaVuSans-72"/>
      </g>
     </g>
    </g>
   </g>
   <g id="matplotlib.axis_2">
    <g id="ytick_1">
     <g id="line2d_19">
      <defs>
       <path d="
M0 0
L4 0" id="m728421d6d4" style="stroke:#000000;stroke-width:0.5;"/>
      </defs>
      <g>
       <use style="stroke:#000000;stroke-width:0.5;" x="32.3145" xlink:href="#m728421d6d4" y="368.74175"/>
      </g>
     </g>
     <g id="line2d_20">
      <defs>
       <path d="
M0 0
L-4 0" id="mcb0005524f" style="stroke:#000000;stroke-width:0.5;"/>
      </defs>
      <g>
       <use style="stroke:#000000;stroke-width:0.5;" x="701.9145" xlink:href="#mcb0005524f" y="368.74175"/>
      </g>
     </g>
     <g id="text_10">
      <!-- 6 -->
      <defs>
       <path d="
M33.0156 40.375
Q26.375 40.375 22.4844 35.8281
Q18.6094 31.2969 18.6094 23.3906
Q18.6094 15.5312 22.4844 10.9531
Q26.375 6.39062 33.0156 6.39062
Q39.6562 6.39062 43.5312 10.9531
Q47.4062 15.5312 47.4062 23.3906
Q47.4062 31.2969 43.5312 35.8281
Q39.6562 40.375 33.0156 40.375
M52.5938 71.2969
L52.5938 62.3125
Q48.875 64.0625 45.0938 64.9844
Q41.3125 65.9219 37.5938 65.9219
Q27.8281 65.9219 22.6719 59.3281
Q17.5312 52.7344 16.7969 39.4062
Q19.6719 43.6562 24.0156 45.9219
Q28.375 48.1875 33.5938 48.1875
Q44.5781 48.1875 50.9531 41.5156
Q57.3281 34.8594 57.3281 23.3906
Q57.3281 12.1562 50.6875 5.35938
Q44.0469 -1.42188 33.0156 -1.42188
Q20.3594 -1.42188 13.6719 8.26562
Q6.98438 17.9688 6.98438 36.375
Q6.98438 53.6562 15.1875 63.9375
Q23.3906 74.2188 37.2031 74.2188
Q40.9219 74.2188 44.7031 73.4844
Q48.4844 72.75 52.5938 71.2969" id="DejaVuSans-36"/>
       <path d="
M10.5938 35.5
L73.1875 35.5
L73.1875 27.2031
L10.5938 27.2031
z
" id="DejaVuSans-2212"/>
      </defs>
      <g transform="translate(17.872 370.94925)scale(0.08 -0.08)">
       <use xlink:href="#DejaVuSans-2212"/>
       <use x="83.7890625" xlink:href="#DejaVuSans-36"/>
      </g>
     </g>
    </g>
    <g id="ytick_2">
     <g id="line2d_21">
      <g>
       <use style="stroke:#000000;stroke-width:0.5;" x="32.3145" xlink:href="#m728421d6d4" y="311.14175"/>
      </g>
     </g>
     <g id="line2d_22">
      <g>
       <use style="stroke:#000000;stroke-width:0.5;" x="701.9145" xlink:href="#mcb0005524f" y="311.14175"/>
      </g>
     </g>
     <g id="text_11">
      <!-- 4 -->
      <defs>
       <path d="
M37.7969 64.3125
L12.8906 25.3906
L37.7969 25.3906
z

M35.2031 72.9062
L47.6094 72.9062
L47.6094 25.3906
L58.0156 25.3906
L58.0156 17.1875
L47.6094 17.1875
L47.6094 0
L37.7969 0
L37.7969 17.1875
L4.89062 17.1875
L4.89062 26.7031
z
" id="DejaVuSans-34"/>
      </defs>
      <g transform="translate(17.817 313.34925)scale(0.08 -0.08)">
       <use xlink:href="#DejaVuSans-2212"/>
       <use x="83.7890625" xlink:href="#DejaVuSans-34"/>
      </g>
     </g>
    </g>
    <g id="ytick_3">
     <g id="line2d_23">
      <g>
       <use style="stroke:#000000;stroke-width:0.5;" x="32.3145" xlink:href="#m728421d6d4" y="253.54175"/>
      </g>
     </g>
     <g id="line2d_24">
      <g>
       <use style="stroke:#000000;stroke-width:0.5;" x="701.9145" xlink:href="#mcb0005524f" y="253.54175"/>
      </g>
     </g>
     <g id="text_12">
      <!-- 2 -->
      <defs>
       <path d="
M19.1875 8.29688
L53.6094 8.29688
L53.6094 0
L7.32812 0
L7.32812 8.29688
Q12.9375 14.1094 22.625 23.8906
Q32.3281 33.6875 34.8125 36.5312
Q39.5469 41.8438 41.4219 45.5312
Q43.3125 49.2188 43.3125 52.7812
Q43.3125 58.5938 39.2344 62.25
Q35.1562 65.9219 28.6094 65.9219
Q23.9688 65.9219 18.8125 64.3125
Q13.6719 62.7031 7.8125 59.4219
L7.8125 69.3906
Q13.7656 71.7812 18.9375 73
Q24.125 74.2188 28.4219 74.2188
Q39.75 74.2188 46.4844 68.5469
Q53.2188 62.8906 53.2188 53.4219
Q53.2188 48.9219 51.5312 44.8906
Q49.8594 40.875 45.4062 35.4062
Q44.1875 33.9844 37.6406 27.2188
Q31.1094 20.4531 19.1875 8.29688" id="DejaVuSans-32"/>
      </defs>
      <g transform="translate(18.1695 255.74925)scale(0.08 -0.08)">
       <use xlink:href="#DejaVuSans-2212"/>
       <use x="83.7890625" xlink:href="#DejaVuSans-32"/>
      </g>
     </g>
    </g>
    <g id="ytick_4">
     <g id="line2d_25">
      <g>
       <use style="stroke:#000000;stroke-width:0.5;" x="32.3145" xlink:href="#m728421d6d4" y="195.94175"/>
      </g>
     </g>
     <g id="line2d_26">
      <g>
       <use style="stroke:#000000;stroke-width:0.5;" x="701.9145" xlink:href="#mcb0005524f" y="195.94175"/>
      </g>
     </g>
     <g id="text_13">
      <!-- 0 -->
      <defs>
       <path d="
M31.7812 66.4062
Q24.1719 66.4062 20.3281 58.9062
Q16.5 51.4219 16.5 36.375
Q16.5 21.3906 20.3281 13.8906
Q24.1719 6.39062 31.7812 6.39062
Q39.4531 6.39062 43.2812 13.8906
Q47.125 21.3906 47.125 36.375
Q47.125 51.4219 43.2812 58.9062
Q39.4531 66.4062 31.7812 66.4062
M31.7812 74.2188
Q44.0469 74.2188 50.5156 64.5156
Q56.9844 54.8281 56.9844 36.375
Q56.9844 17.9688 50.5156 8.26562
Q44.0469 -1.42188 31.7812 -1.42188
Q19.5312 -1.42188 13.0625 8.26562
Q6.59375 17.9688 6.59375 36.375
Q6.59375 54.8281 13.0625 64.5156
Q19.5312 74.2188 31.7812 74.2188" id="DejaVuSans-30"/>
      </defs>
      <g transform="translate(24.28325 198.14925)scale(0.08 -0.08)">
       <use xlink:href="#DejaVuSans-30"/>
      </g>
     </g>
    </g>
    <g id="ytick_5">
     <g id="line2d_27">
      <g>
       <use style="stroke:#000000;stroke-width:0.5;" x="32.3145" xlink:href="#m728421d6d4" y="138.34175"/>
      </g>
     </g>
     <g id="line2d_28">
      <g>
       <use style="stroke:#000000;stroke-width:0.5;" x="701.9145" xlink:href="#mcb0005524f" y="138.34175"/>
      </g>
     </g>
     <g id="text_14">
      <!-- 2 -->
      <g transform="translate(24.612 140.54925)scale(0.08 -0.08)">
       <use xlink:href="#DejaVuSans-32"/>
      </g>
     </g>
    </g>
    <g id="ytick_6">
     <g id="line2d_29">
      <g>
       <use style="stroke:#000000;stroke-width:0.5;" x="32.3145" xlink:href="#m728421d6d4" y="80.74175"/>
      </g>
     </g>
     <g id="line2d_30">
      <g>
       <use style="stroke:#000000;stroke-width:0.5;" x="701.9145" xlink:href="#mcb0005524f" y="80.74175"/>
      </g>
     </g>
     <g id="text_15">
      <!-- 4 -->
      <g transform="translate(24.0645 82.94925)scale(0.08 -0.08)">
       <use xlink:href="#DejaVuSans-34"/>
      </g>
     </g>
    </g>
    <g id="ytick_7">
     <g id="line2d_31">
      <g>
       <use style="stroke:#000000;stroke-width:0.5;" x="32.3145" xlink:href="#m728421d6d4" y="23.14175"/>
      </g>
     </g>
     <g id="line2d_32">
      <g>
       <use style="stroke:#000000;stroke-width:0.5;" x="701.9145" xlink:href="#mcb0005524f" y="23.14175"/>
      </g>
     </g>
     <g id="text_16">
      <!-- 6 -->
      <g transform="translate(24.287 25.34925)scale(0.08 -0.08)">
       <use xlink:href="#DejaVuSans-36"/>
      </g>
     </g>
    </g>
   </g>
   <g id="text_17">
    <!-- Distributions of payoff differences per stage game over 200 turns repeated 100 times (9 strategies) -->
    <defs>
     <path d="
M8.01562 75.875
L15.8281 75.875
Q23.1406 64.3594 26.7812 53.3125
Q30.4219 42.2812 30.4219 31.3906
Q30.4219 20.4531 26.7812 9.375
Q23.1406 -1.70312 15.8281 -13.1875
L8.01562 -13.1875
Q14.5 -2 17.7031 9.0625
Q20.9062 20.125 20.9062 31.3906
Q20.9062 42.6719 17.7031 53.6562
Q14.5 64.6562 8.01562 75.875" id="DejaVuSans-29"/>
     <path d="
M52 44.1875
Q55.375 50.25 60.0625 53.125
Q64.75 56 71.0938 56
Q79.6406 56 84.2812 50.0156
Q88.9219 44.0469 88.9219 33.0156
L88.9219 0
L79.8906 0
L79.8906 32.7188
Q79.8906 40.5781 77.0938 44.375
Q74.3125 48.1875 68.6094 48.1875
Q61.625 48.1875 57.5625 43.5469
Q53.5156 38.9219 53.5156 30.9062
L53.5156 0
L44.4844 0
L44.4844 32.7188
Q44.4844 40.625 41.7031 44.4062
Q38.9219 48.1875 33.1094 48.1875
Q26.2188 48.1875 22.1562 43.5312
Q18.1094 38.875 18.1094 30.9062
L18.1094 0
L9.07812 0
L9.07812 54.6875
L18.1094 54.6875
L18.1094 46.1875
Q21.1875 51.2188 25.4844 53.6094
Q29.7812 56 35.6875 56
Q41.6562 56 45.8281 52.9688
Q50 49.9531 52 44.1875" id="DejaVuSans-6d"/>
     <path d="
M12.4062 8.29688
L28.5156 8.29688
L28.5156 63.9219
L10.9844 60.4062
L10.9844 69.3906
L28.4219 72.9062
L38.2812 72.9062
L38.2812 8.29688
L54.3906 8.29688
L54.3906 0
L12.4062 0
z
" id="DejaVuSans-31"/>
     <path d="
M10.9844 1.51562
L10.9844 10.5
Q14.7031 8.73438 18.5 7.8125
Q22.3125 6.89062 25.9844 6.89062
Q35.75 6.89062 40.8906 13.4531
Q46.0469 20.0156 46.7812 33.4062
Q43.9531 29.2031 39.5938 26.9531
Q35.25 24.7031 29.9844 24.7031
Q19.0469 24.7031 12.6719 31.3125
Q6.29688 37.9375 6.29688 49.4219
Q6.29688 60.6406 12.9375 67.4219
Q19.5781 74.2188 30.6094 74.2188
Q43.2656 74.2188 49.9219 64.5156
Q56.5938 54.8281 56.5938 36.375
Q56.5938 19.1406 48.4062 8.85938
Q40.2344 -1.42188 26.4219 -1.42188
Q22.7031 -1.42188 18.8906 -0.6875
Q15.0938 0.046875 10.9844 1.51562
M30.6094 32.4219
Q37.25 32.4219 41.125 36.9531
Q45.0156 41.5 45.0156 49.4219
Q45.0156 57.2812 41.125 61.8438
Q37.25 66.4062 30.6094 66.4062
Q23.9688 66.4062 20.0938 61.8438
Q16.2188 57.2812 16.2188 49.4219
Q16.2188 41.5 20.0938 36.9531
Q23.9688 32.4219 30.6094 32.4219" id="DejaVuSans-39"/>
     <path d="
M45.4062 27.9844
Q45.4062 37.75 41.375 43.1094
Q37.3594 48.4844 30.0781 48.4844
Q22.8594 48.4844 18.8281 43.1094
Q14.7969 37.75 14.7969 27.9844
Q14.7969 18.2656 18.8281 12.8906
Q22.8594 7.51562 30.0781 7.51562
Q37.3594 7.51562 41.375 12.8906
Q45.4062 18.2656 45.4062 27.9844
M54.3906 6.78125
Q54.3906 -7.17188 48.1875 -13.9844
Q42 -20.7969 29.2031 -20.7969
Q24.4688 -20.7969 20.2656 -20.0938
Q16.0625 -19.3906 12.1094 -17.9219
L12.1094 -9.1875
Q16.0625 -11.3281 19.9219 -12.3438
Q23.7812 -13.375 27.7812 -13.375
Q36.625 -13.375 41.0156 -8.76562
Q45.4062 -4.15625 45.4062 5.17188
L45.4062 9.625
Q42.625 4.78125 38.2812 2.39062
Q33.9375 0 27.875 0
Q17.8281 0 11.6719 7.65625
Q5.51562 15.3281 5.51562 27.9844
Q5.51562 40.6719 11.6719 48.3281
Q17.8281 56 27.875 56
Q33.9375 56 38.2812 53.6094
Q42.625 51.2188 45.4062 46.3906
L45.4062 54.6875
L54.3906 54.6875
z
" id="DejaVuSans-67"/>
     <path d="
M45.4062 46.3906
L45.4062 75.9844
L54.3906 75.9844
L54.3906 0
L45.4062 0
L45.4062 8.20312
Q42.5781 3.32812 38.25 0.953125
Q33.9375 -1.42188 27.875 -1.42188
Q17.9688 -1.42188 11.7344 6.48438
Q5.51562 14.4062 5.51562 27.2969
Q5.51562 40.1875 11.7344 48.0938
Q17.9688 56 27.875 56
Q33.9375 56 38.25 53.625
Q42.5781 51.2656 45.4062 46.3906
M14.7969 27.2969
Q14.7969 17.3906 18.875 11.75
Q22.9531 6.10938 30.0781 6.10938
Q37.2031 6.10938 41.2969 11.75
Q45.4062 17.3906 45.4062 27.2969
Q45.4062 37.2031 41.2969 42.8438
Q37.2031 48.4844 30.0781 48.4844
Q22.9531 48.4844 18.875 42.8438
Q14.7969 37.2031 14.7969 27.2969" id="DejaVuSans-64"/>
     <path d="
M2.98438 54.6875
L12.5 54.6875
L29.5938 8.79688
L46.6875 54.6875
L56.2031 54.6875
L35.6875 0
L23.4844 0
z
" id="DejaVuSans-76"/>
     <path d="
M48.6875 27.2969
Q48.6875 37.2031 44.6094 42.8438
Q40.5312 48.4844 33.4062 48.4844
Q26.2656 48.4844 22.1875 42.8438
Q18.1094 37.2031 18.1094 27.2969
Q18.1094 17.3906 22.1875 11.75
Q26.2656 6.10938 33.4062 6.10938
Q40.5312 6.10938 44.6094 11.75
Q48.6875 17.3906 48.6875 27.2969
M18.1094 46.3906
Q20.9531 51.2656 25.2656 53.625
Q29.5938 56 35.5938 56
Q45.5625 56 51.7812 48.0938
Q58.0156 40.1875 58.0156 27.2969
Q58.0156 14.4062 51.7812 6.48438
Q45.5625 -1.42188 35.5938 -1.42188
Q29.5938 -1.42188 25.2656 0.953125
Q20.9531 3.32812 18.1094 8.20312
L18.1094 0
L9.07812 0
L9.07812 75.9844
L18.1094 75.9844
z
" id="DejaVuSans-62"/>
     <path d="
M31 75.875
Q24.4688 64.6562 21.2812 53.6562
Q18.1094 42.6719 18.1094 31.3906
Q18.1094 20.125 21.3125 9.0625
Q24.5156 -2 31 -13.1875
L23.1875 -13.1875
Q15.875 -1.70312 12.2344 9.375
Q8.59375 20.4531 8.59375 31.3906
Q8.59375 42.2812 12.2031 53.3125
Q15.8281 64.3594 23.1875 75.875
z
" id="DejaVuSans-28"/>
    </defs>
    <g transform="translate(7.2 18.14175)scale(0.144 -0.144)">
     <use xlink:href="#DejaVuSans-44"/>
     <use x="77.001953125" xlink:href="#DejaVuSans-69"/>
     <use x="104.78515625" xlink:href="#DejaVuSans-73"/>
     <use x="156.884765625" xlink:href="#DejaVuSans-74"/>
     <use x="196.09375" xlink:href="#DejaVuSans-72"/>
     <use x="237.20703125" xlink:href="#DejaVuSans-69"/>
     <use x="264.990234375" xlink:href="#DejaVuSans-62"/>
     <use x="328.466796875" xlink:href="#DejaVuSans-75"/>
     <use x="391.845703125" xlink:href="#DejaVuSans-74"/>
     <use x="431.0546875" xlink:href="#DejaVuSans-69"/>
     <use x="458.837890625" xlink:href="#DejaVuSans-6f"/>
     <use x="520.01953125" xlink:href="#DejaVuSans-6e"/>
     <use x="583.3984375" xlink:href="#DejaVuSans-73"/>
     <use x="635.498046875" xlink:href="#DejaVuSans-20"/>
     <use x="667.28515625" xlink:href="#DejaVuSans-6f"/>
     <use x="728.466796875" xlink:href="#DejaVuSans-66"/>
     <use x="763.671875" xlink:href="#DejaVuSans-20"/>
     <use x="795.458984375" xlink:href="#DejaVuSans-70"/>
     <use x="858.935546875" xlink:href="#DejaVuSans-61"/>
     <use x="920.21484375" xlink:href="#DejaVuSans-79"/>
     <use x="979.39453125" xlink:href="#DejaVuSans-6f"/>
     <use x="1040.57617188" xlink:href="#DejaVuSans-66"/>
     <use x="1075.78125" xlink:href="#DejaVuSans-66"/>
     <use x="1110.98632812" xlink:href="#DejaVuSans-20"/>
     <use x="1142.7734375" xlink:href="#DejaVuSans-64"/>
     <use x="1206.25" xlink:href="#DejaVuSans-69"/>
     <use x="1234.03320312" xlink:href="#DejaVuSans-66"/>
     <use x="1269.23828125" xlink:href="#DejaVuSans-66"/>
     <use x="1304.44335938" xlink:href="#DejaVuSans-65"/>
     <use x="1365.96679688" xlink:href="#DejaVuSans-72"/>
     <use x="1404.83007812" xlink:href="#DejaVuSans-65"/>
     <use x="1466.35351562" xlink:href="#DejaVuSans-6e"/>
     <use x="1529.73242188" xlink:href="#DejaVuSans-63"/>
     <use x="1584.71289062" xlink:href="#DejaVuSans-65"/>
     <use x="1646.23632812" xlink:href="#DejaVuSans-73"/>
     <use x="1698.3359375" xlink:href="#DejaVuSans-20"/>
     <use x="1730.12304688" xlink:href="#DejaVuSans-70"/>
     <use x="1793.59960938" xlink:href="#DejaVuSans-65"/>
     <use x="1855.12304688" xlink:href="#DejaVuSans-72"/>
     <use x="1896.23632812" xlink:href="#DejaVuSans-20"/>
     <use x="1928.0234375" xlink:href="#DejaVuSans-73"/>
     <use x="1980.12304688" xlink:href="#DejaVuSans-74"/>
     <use x="2019.33203125" xlink:href="#DejaVuSans-61"/>
     <use x="2080.61132812" xlink:href="#DejaVuSans-67"/>
     <use x="2144.08789062" xlink:href="#DejaVuSans-65"/>
     <use x="2205.61132812" xlink:href="#DejaVuSans-20"/>
     <use x="2237.3984375" xlink:href="#DejaVuSans-67"/>
     <use x="2300.875" xlink:href="#DejaVuSans-61"/>
     <use x="2362.15429688" xlink:href="#DejaVuSans-6d"/>
     <use x="2459.56640625" xlink:href="#DejaVuSans-65"/>
     <use x="2521.08984375" xlink:href="#DejaVuSans-20"/>
     <use x="2552.87695312" xlink:href="#DejaVuSans-6f"/>
     <use x="2614.05859375" xlink:href="#DejaVuSans-76"/>
     <use x="2673.23828125" xlink:href="#DejaVuSans-65"/>
     <use x="2734.76171875" xlink:href="#DejaVuSans-72"/>
     <use x="2775.875" xlink:href="#DejaVuSans-20"/>
     <use x="2807.66210938" xlink:href="#DejaVuSans-32"/>
     <use x="2871.28515625" xlink:href="#DejaVuSans-30"/>
     <use x="2934.90820312" xlink:href="#DejaVuSans-30"/>
     <use x="2998.53125" xlink:href="#DejaVuSans-20"/>
     <use x="3030.31835938" xlink:href="#DejaVuSans-74"/>
     <use x="3069.52734375" xlink:href="#DejaVuSans-75"/>
     <use x="3132.90625" xlink:href="#DejaVuSans-72"/>
     <use x="3172.26953125" xlink:href="#DejaVuSans-6e"/>
     <use x="3235.6484375" xlink:href="#DejaVuSans-73"/>
     <use x="3287.74804688" xlink:href="#DejaVuSans-20"/>
     <use x="3319.53515625" xlink:href="#DejaVuSans-72"/>
     <use x="3358.3984375" xlink:href="#DejaVuSans-65"/>
     <use x="3419.921875" xlink:href="#DejaVuSans-70"/>
     <use x="3483.3984375" xlink:href="#DejaVuSans-65"/>
     <use x="3544.921875" xlink:href="#DejaVuSans-61"/>
     <use x="3606.20117188" xlink:href="#DejaVuSans-74"/>
     <use x="3645.41015625" xlink:href="#DejaVuSans-65"/>
     <use x="3706.93359375" xlink:href="#DejaVuSans-64"/>
     <use x="3770.41015625" xlink:href="#DejaVuSans-20"/>
     <use x="3802.19726562" xlink:href="#DejaVuSans-31"/>
     <use x="3865.8203125" xlink:href="#DejaVuSans-30"/>
     <use x="3929.44335938" xlink:href="#DejaVuSans-30"/>
     <use x="3993.06640625" xlink:href="#DejaVuSans-20"/>
     <use x="4024.85351562" xlink:href="#DejaVuSans-74"/>
     <use x="4064.0625" xlink:href="#DejaVuSans-69"/>
     <use x="4091.84570312" xlink:href="#DejaVuSans-6d"/>
     <use x="4189.2578125" xlink:href="#DejaVuSans-65"/>
     <use x="4250.78125" xlink:href="#DejaVuSans-73"/>
     <use x="4302.88085938" xlink:href="#DejaVuSans-20"/>
     <use x="4334.66796875" xlink:href="#DejaVuSans-28"/>
     <use x="4373.68164062" xlink:href="#DejaVuSans-39"/>
     <use x="4437.3046875" xlink:href="#DejaVuSans-20"/>
     <use x="4469.09179688" xlink:href="#DejaVuSans-73"/>
     <use x="4521.19140625" xlink:href="#DejaVuSans-74"/>
     <use x="4560.40039062" xlink:href="#DejaVuSans-72"/>
     <use x="4601.51367188" xlink:href="#DejaVuSans-61"/>
     <use x="4662.79296875" xlink:href="#DejaVuSans-74"/>
     <use x="4702.00195312" xlink:href="#DejaVuSans-65"/>
     <use x="4763.52539062" xlink:href="#DejaVuSans-67"/>
     <use x="4827.00195312" xlink:href="#DejaVuSans-69"/>
     <use x="4854.78515625" xlink:href="#DejaVuSans-65"/>
     <use x="4916.30859375" xlink:href="#DejaVuSans-73"/>
     <use x="4968.40820312" xlink:href="#DejaVuSans-29"/>
    </g>
   </g>
  </g>
 </g>
 <defs>
  <clipPath id="p729dc12a58">
   <rect height="345.6" width="669.6" x="32.3145" y="23.14175"/>
  </clipPath>
 </defs>
</svg>
