<?xml version="1.0" encoding="utf-8" standalone="no"?>
<!DOCTYPE svg PUBLIC "-//W3C//DTD SVG 1.1//EN"
  "http://www.w3.org/Graphics/SVG/1.1/DTD/svg11.dtd">
<!-- Created with matplotlib (http://matplotlib.org/) -->
<svg height="465pt" version="1.1" viewBox="0 0 693 465" width="693pt" xmlns="http://www.w3.org/2000/svg" xmlns:xlink="http://www.w3.org/1999/xlink">
 <defs>
  <style type="text/css">
*{stroke-linecap:butt;stroke-linejoin:round;stroke-miterlimit:100000;}
  </style>
 </defs>
 <g id="figure_1">
  <g id="patch_1">
   <path d="M 0 465.868 
L 693.09 465.868 
L 693.09 0 
L 0 0 
z
" style="fill:#ffffff;"/>
  </g>
  <g id="axes_1">
   <g id="patch_2">
    <path d="M 16.29 368.74175 
L 685.89 368.74175 
L 685.89 23.14175 
L 16.29 23.14175 
z
" style="fill:#ffffff;"/>
   </g>
   <g id="PolyCollection_1">
    <defs>
     <path d="M 109.29 -421.12625 
L 72.09 -421.12625 
L 72.09 -421.12625 
L 72.09 -421.12625 
L 72.09 -421.12625 
L 72.09 -421.12625 
L 72.09 -421.12625 
L 72.09 -421.12625 
L 72.09 -421.12625 
L 72.09 -421.12625 
L 72.09 -421.12625 
L 72.09 -421.12625 
L 72.09 -421.12625 
L 72.09 -421.12625 
L 72.09 -421.12625 
L 72.09 -421.12625 
L 72.09 -421.12625 
L 72.09 -421.12625 
L 72.09 -421.12625 
L 72.09 -421.12625 
L 72.09 -421.12625 
L 72.09 -421.12625 
L 72.09 -421.12625 
L 72.09 -421.12625 
L 72.09 -421.12625 
L 72.09 -421.12625 
L 72.09 -421.12625 
L 72.09 -421.12625 
L 72.09 -421.12625 
L 72.09 -421.12625 
L 72.09 -421.12625 
L 72.09 -421.12625 
L 72.09 -421.12625 
L 72.09 -421.12625 
L 72.09 -421.12625 
L 72.09 -421.12625 
L 72.09 -421.12625 
L 72.09 -421.12625 
L 72.09 -421.12625 
L 72.09 -421.12625 
L 72.09 -421.12625 
L 72.09 -421.12625 
L 72.09 -421.12625 
L 72.09 -421.12625 
L 72.09 -421.12625 
L 72.09 -421.12625 
L 72.09 -421.12625 
L 72.09 -421.12625 
L 72.09 -421.12625 
L 72.09 -421.12625 
L 72.09 -421.12625 
L 72.09 -421.12625 
L 72.09 -421.12625 
L 72.09 -421.12625 
L 72.09 -421.12625 
L 72.09 -421.12625 
L 72.09 -421.12625 
L 72.09 -421.12625 
L 72.09 -421.12625 
L 72.09 -421.12625 
L 72.09 -421.12625 
L 72.09 -421.12625 
L 72.09 -421.12625 
L 72.09 -421.12625 
L 72.09 -421.12625 
L 72.09 -421.12625 
L 72.09 -421.12625 
L 72.09 -421.12625 
L 72.09 -421.12625 
L 72.09 -421.12625 
L 72.09 -421.12625 
L 72.09 -421.12625 
L 72.09 -421.12625 
L 72.09 -421.12625 
L 72.09 -421.12625 
L 72.09 -421.12625 
L 72.09 -421.12625 
L 72.09 -421.12625 
L 72.09 -421.12625 
L 72.09 -421.12625 
L 72.09 -421.12625 
L 72.09 -421.12625 
L 72.09 -421.12625 
L 72.09 -421.12625 
L 72.09 -421.12625 
L 72.09 -421.12625 
L 72.09 -421.12625 
L 72.09 -421.12625 
L 72.09 -421.12625 
L 72.09 -421.12625 
L 72.09 -421.12625 
L 72.09 -421.12625 
L 72.09 -421.12625 
L 72.09 -421.12625 
L 72.09 -421.12625 
L 72.09 -421.12625 
L 72.09 -421.12625 
L 72.09 -421.12625 
L 72.09 -421.12625 
L 72.09 -421.12625 
L 72.09 -421.12625 
L 109.29 -421.12625 
L 109.29 -421.12625 
L 109.29 -421.12625 
L 109.29 -421.12625 
L 109.29 -421.12625 
L 109.29 -421.12625 
L 109.29 -421.12625 
L 109.29 -421.12625 
L 109.29 -421.12625 
L 109.29 -421.12625 
L 109.29 -421.12625 
L 109.29 -421.12625 
L 109.29 -421.12625 
L 109.29 -421.12625 
L 109.29 -421.12625 
L 109.29 -421.12625 
L 109.29 -421.12625 
L 109.29 -421.12625 
L 109.29 -421.12625 
L 109.29 -421.12625 
L 109.29 -421.12625 
L 109.29 -421.12625 
L 109.29 -421.12625 
L 109.29 -421.12625 
L 109.29 -421.12625 
L 109.29 -421.12625 
L 109.29 -421.12625 
L 109.29 -421.12625 
L 109.29 -421.12625 
L 109.29 -421.12625 
L 109.29 -421.12625 
L 109.29 -421.12625 
L 109.29 -421.12625 
L 109.29 -421.12625 
L 109.29 -421.12625 
L 109.29 -421.12625 
L 109.29 -421.12625 
L 109.29 -421.12625 
L 109.29 -421.12625 
L 109.29 -421.12625 
L 109.29 -421.12625 
L 109.29 -421.12625 
L 109.29 -421.12625 
L 109.29 -421.12625 
L 109.29 -421.12625 
L 109.29 -421.12625 
L 109.29 -421.12625 
L 109.29 -421.12625 
L 109.29 -421.12625 
L 109.29 -421.12625 
L 109.29 -421.12625 
L 109.29 -421.12625 
L 109.29 -421.12625 
L 109.29 -421.12625 
L 109.29 -421.12625 
L 109.29 -421.12625 
L 109.29 -421.12625 
L 109.29 -421.12625 
L 109.29 -421.12625 
L 109.29 -421.12625 
L 109.29 -421.12625 
L 109.29 -421.12625 
L 109.29 -421.12625 
L 109.29 -421.12625 
L 109.29 -421.12625 
L 109.29 -421.12625 
L 109.29 -421.12625 
L 109.29 -421.12625 
L 109.29 -421.12625 
L 109.29 -421.12625 
L 109.29 -421.12625 
L 109.29 -421.12625 
L 109.29 -421.12625 
L 109.29 -421.12625 
L 109.29 -421.12625 
L 109.29 -421.12625 
L 109.29 -421.12625 
L 109.29 -421.12625 
L 109.29 -421.12625 
L 109.29 -421.12625 
L 109.29 -421.12625 
L 109.29 -421.12625 
L 109.29 -421.12625 
L 109.29 -421.12625 
L 109.29 -421.12625 
L 109.29 -421.12625 
L 109.29 -421.12625 
L 109.29 -421.12625 
L 109.29 -421.12625 
L 109.29 -421.12625 
L 109.29 -421.12625 
L 109.29 -421.12625 
L 109.29 -421.12625 
L 109.29 -421.12625 
L 109.29 -421.12625 
L 109.29 -421.12625 
L 109.29 -421.12625 
L 109.29 -421.12625 
L 109.29 -421.12625 
L 109.29 -421.12625 
L 109.29 -421.12625 
z
" id="m4d00dc9eec" style="stroke:#000000;stroke-opacity:0.3;"/>
    </defs>
    <g clip-path="url(#pa2eaae1c98)">
     <use style="fill:#bfbf00;fill-opacity:0.3;stroke:#000000;stroke-opacity:0.3;" x="0.0" xlink:href="#m4d00dc9eec" y="465.868"/>
    </g>
   </g>
   <g id="PolyCollection_2">
    <defs>
     <path d="M 166.205361 -161.92625 
L 163.974639 -161.92625 
L 163.783989 -164.108068 
L 163.55345 -166.289886 
L 163.276324 -168.471705 
L 162.946399 -170.653523 
L 162.558555 -172.835341 
L 162.109416 -175.017159 
L 161.597999 -177.198977 
L 161.026302 -179.380795 
L 160.399736 -181.562614 
L 159.727357 -183.744432 
L 159.021806 -185.92625 
L 158.298935 -188.108068 
L 157.577093 -190.289886 
L 156.87609 -192.471705 
L 156.215904 -194.653523 
L 155.615204 -196.835341 
L 155.089843 -199.017159 
L 154.65143 -201.198977 
L 154.306159 -203.380795 
L 154.05401 -205.562614 
L 153.888454 -207.744432 
L 153.796713 -209.92625 
L 153.760601 -212.108068 
L 153.757898 -214.289886 
L 153.764165 -216.471705 
L 153.754831 -218.653523 
L 153.707383 -220.835341 
L 153.603437 -223.017159 
L 153.430493 -225.198977 
L 153.183178 -227.380795 
L 152.86385 -229.562614 
L 152.48247 -231.744432 
L 152.055734 -233.92625 
L 151.605524 -236.108068 
L 151.156814 -238.289886 
L 150.735213 -240.471705 
L 150.364394 -242.653523 
L 150.063649 -244.835341 
L 149.845822 -247.017159 
L 149.715848 -249.198977 
L 149.670042 -251.380795 
L 149.696251 -253.562614 
L 149.774865 -255.744432 
L 149.880606 -257.92625 
L 149.984945 -260.108068 
L 150.058916 -262.289886 
L 150.076058 -264.471705 
L 150.015193 -266.653523 
L 149.862774 -268.835341 
L 149.614547 -271.017159 
L 149.276364 -273.198977 
L 148.864041 -275.380795 
L 148.402273 -277.562614 
L 147.922674 -279.744432 
L 147.461146 -281.92625 
L 147.054802 -284.108068 
L 146.738749 -286.289886 
L 146.543026 -288.471705 
L 146.49 -290.653523 
L 146.59246 -292.835341 
L 146.852585 -295.017159 
L 147.261875 -297.198977 
L 147.802037 -299.380795 
L 148.446716 -301.562614 
L 149.1639 -303.744432 
L 149.918743 -305.92625 
L 150.676538 -308.108068 
L 151.405551 -310.289886 
L 152.079462 -312.471705 
L 152.679214 -314.653523 
L 153.19411 -316.835341 
L 153.622122 -319.017159 
L 153.969411 -321.198977 
L 154.249152 -323.380795 
L 154.479826 -325.562614 
L 154.683156 -327.744432 
L 154.881915 -329.92625 
L 155.0978 -332.108068 
L 155.349575 -334.289886 
L 155.651619 -336.471705 
L 156.012987 -338.653523 
L 156.437015 -340.835341 
L 156.921461 -343.017159 
L 157.459118 -345.198977 
L 158.038794 -347.380795 
L 158.646522 -349.562614 
L 159.26689 -351.744432 
L 159.884324 -353.92625 
L 160.484246 -356.108068 
L 161.053997 -358.289886 
L 161.58349 -360.471705 
L 162.065567 -362.653523 
L 162.496069 -364.835341 
L 162.873668 -367.017159 
L 163.199504 -369.198977 
L 163.4767 -371.380795 
L 163.709807 -373.562614 
L 163.904249 -375.744432 
L 164.065812 -377.92625 
L 166.114188 -377.92625 
L 166.114188 -377.92625 
L 166.275751 -375.744432 
L 166.470193 -373.562614 
L 166.7033 -371.380795 
L 166.980496 -369.198977 
L 167.306332 -367.017159 
L 167.683931 -364.835341 
L 168.114433 -362.653523 
L 168.59651 -360.471705 
L 169.126003 -358.289886 
L 169.695754 -356.108068 
L 170.295676 -353.92625 
L 170.91311 -351.744432 
L 171.533478 -349.562614 
L 172.141206 -347.380795 
L 172.720882 -345.198977 
L 173.258539 -343.017159 
L 173.742985 -340.835341 
L 174.167013 -338.653523 
L 174.528381 -336.471705 
L 174.830425 -334.289886 
L 175.0822 -332.108068 
L 175.298085 -329.92625 
L 175.496844 -327.744432 
L 175.700174 -325.562614 
L 175.930848 -323.380795 
L 176.210589 -321.198977 
L 176.557878 -319.017159 
L 176.98589 -316.835341 
L 177.500786 -314.653523 
L 178.100538 -312.471705 
L 178.774449 -310.289886 
L 179.503462 -308.108068 
L 180.261257 -305.92625 
L 181.0161 -303.744432 
L 181.733284 -301.562614 
L 182.377963 -299.380795 
L 182.918125 -297.198977 
L 183.327415 -295.017159 
L 183.58754 -292.835341 
L 183.69 -290.653523 
L 183.636974 -288.471705 
L 183.441251 -286.289886 
L 183.125198 -284.108068 
L 182.718854 -281.92625 
L 182.257326 -279.744432 
L 181.777727 -277.562614 
L 181.315959 -275.380795 
L 180.903636 -273.198977 
L 180.565453 -271.017159 
L 180.317226 -268.835341 
L 180.164807 -266.653523 
L 180.103942 -264.471705 
L 180.121084 -262.289886 
L 180.195055 -260.108068 
L 180.299394 -257.92625 
L 180.405135 -255.744432 
L 180.483749 -253.562614 
L 180.509958 -251.380795 
L 180.464152 -249.198977 
L 180.334178 -247.017159 
L 180.116351 -244.835341 
L 179.815606 -242.653523 
L 179.444787 -240.471705 
L 179.023186 -238.289886 
L 178.574476 -236.108068 
L 178.124266 -233.92625 
L 177.69753 -231.744432 
L 177.31615 -229.562614 
L 176.996822 -227.380795 
L 176.749507 -225.198977 
L 176.576563 -223.017159 
L 176.472617 -220.835341 
L 176.425169 -218.653523 
L 176.415835 -216.471705 
L 176.422102 -214.289886 
L 176.419399 -212.108068 
L 176.383287 -209.92625 
L 176.291546 -207.744432 
L 176.12599 -205.562614 
L 175.873841 -203.380795 
L 175.52857 -201.198977 
L 175.090157 -199.017159 
L 174.564796 -196.835341 
L 173.964096 -194.653523 
L 173.30391 -192.471705 
L 172.602907 -190.289886 
L 171.881065 -188.108068 
L 171.158194 -185.92625 
L 170.452643 -183.744432 
L 169.780264 -181.562614 
L 169.153698 -179.380795 
L 168.582001 -177.198977 
L 168.070584 -175.017159 
L 167.621445 -172.835341 
L 167.233601 -170.653523 
L 166.903676 -168.471705 
L 166.62655 -166.289886 
L 166.396011 -164.108068 
L 166.205361 -161.92625 
z
" id="me5d09310cd" style="stroke:#000000;stroke-opacity:0.3;"/>
    </defs>
    <g clip-path="url(#pa2eaae1c98)">
     <use style="fill:#bfbf00;fill-opacity:0.3;stroke:#000000;stroke-opacity:0.3;" x="0.0" xlink:href="#me5d09310cd" y="465.868"/>
    </g>
   </g>
   <g id="PolyCollection_3">
    <defs>
     <path d="M 243.531431 -161.92625 
L 235.448569 -161.92625 
L 235.217486 -164.108068 
L 234.974316 -166.289886 
L 234.712173 -168.471705 
L 234.423962 -170.653523 
L 234.103031 -172.835341 
L 233.743869 -175.017159 
L 233.342783 -177.198977 
L 232.898491 -179.380795 
L 232.412561 -181.562614 
L 231.889633 -183.744432 
L 231.337376 -185.92625 
L 230.766162 -188.108068 
L 230.188453 -190.289886 
L 229.617938 -192.471705 
L 229.068476 -194.653523 
L 228.552932 -196.835341 
L 228.082012 -199.017159 
L 227.663208 -201.198977 
L 227.299965 -203.380795 
L 226.991178 -205.562614 
L 226.731069 -207.744432 
L 226.509518 -209.92625 
L 226.312817 -212.108068 
L 226.124815 -214.289886 
L 225.928373 -216.471705 
L 225.707002 -218.653523 
L 225.446534 -220.835341 
L 225.136681 -223.017159 
L 224.772318 -225.198977 
L 224.354359 -227.380795 
L 223.890129 -229.562614 
L 223.393166 -231.744432 
L 222.882464 -233.92625 
L 222.381194 -236.108068 
L 221.915011 -238.289886 
L 221.510092 -240.471705 
L 221.191074 -242.653523 
L 220.979079 -244.835341 
L 220.89 -247.017159 
L 220.933215 -249.198977 
L 221.110828 -251.380795 
L 221.417521 -253.562614 
L 221.841007 -255.744432 
L 222.36305 -257.92625 
L 222.960939 -260.108068 
L 223.609285 -262.289886 
L 224.281963 -264.471705 
L 224.954033 -266.653523 
L 225.603454 -268.835341 
L 226.212473 -271.017159 
L 226.768556 -273.198977 
L 227.264819 -275.380795 
L 227.699947 -277.562614 
L 228.077632 -279.744432 
L 228.405621 -281.92625 
L 228.694481 -284.108068 
L 228.956219 -286.289886 
L 229.202897 -288.471705 
L 229.445371 -290.653523 
L 229.692265 -292.835341 
L 229.949265 -295.017159 
L 230.218781 -297.198977 
L 230.499975 -299.380795 
L 230.789139 -301.562614 
L 231.08036 -303.744432 
L 231.366369 -305.92625 
L 231.639514 -308.108068 
L 231.892709 -310.289886 
L 232.120294 -312.471705 
L 232.318718 -314.653523 
L 232.486972 -316.835341 
L 232.626757 -319.017159 
L 232.742375 -321.198977 
L 232.840361 -323.380795 
L 232.928916 -325.562614 
L 233.01719 -327.744432 
L 233.1145 -329.92625 
L 233.229552 -332.108068 
L 233.369744 -334.289886 
L 233.540601 -336.471705 
L 233.745404 -338.653523 
L 233.985004 -340.835341 
L 234.257858 -343.017159 
L 234.560247 -345.198977 
L 234.886647 -347.380795 
L 235.230221 -349.562614 
L 235.583363 -351.744432 
L 235.938255 -353.92625 
L 236.287391 -356.108068 
L 236.624012 -358.289886 
L 236.942454 -360.471705 
L 237.238362 -362.653523 
L 237.50879 -364.835341 
L 237.752186 -367.017159 
L 237.96828 -369.198977 
L 238.157898 -371.380795 
L 238.322735 -373.562614 
L 238.465094 -375.744432 
L 238.587641 -377.92625 
L 240.392359 -377.92625 
L 240.392359 -377.92625 
L 240.514906 -375.744432 
L 240.657265 -373.562614 
L 240.822102 -371.380795 
L 241.01172 -369.198977 
L 241.227814 -367.017159 
L 241.47121 -364.835341 
L 241.741638 -362.653523 
L 242.037546 -360.471705 
L 242.355988 -358.289886 
L 242.692609 -356.108068 
L 243.041745 -353.92625 
L 243.396637 -351.744432 
L 243.749779 -349.562614 
L 244.093353 -347.380795 
L 244.419753 -345.198977 
L 244.722142 -343.017159 
L 244.994996 -340.835341 
L 245.234596 -338.653523 
L 245.439399 -336.471705 
L 245.610256 -334.289886 
L 245.750448 -332.108068 
L 245.8655 -329.92625 
L 245.96281 -327.744432 
L 246.051084 -325.562614 
L 246.139639 -323.380795 
L 246.237625 -321.198977 
L 246.353243 -319.017159 
L 246.493028 -316.835341 
L 246.661282 -314.653523 
L 246.859706 -312.471705 
L 247.087291 -310.289886 
L 247.340486 -308.108068 
L 247.613631 -305.92625 
L 247.89964 -303.744432 
L 248.190861 -301.562614 
L 248.480025 -299.380795 
L 248.761219 -297.198977 
L 249.030735 -295.017159 
L 249.287735 -292.835341 
L 249.534629 -290.653523 
L 249.777103 -288.471705 
L 250.023781 -286.289886 
L 250.285519 -284.108068 
L 250.574379 -281.92625 
L 250.902368 -279.744432 
L 251.280053 -277.562614 
L 251.715181 -275.380795 
L 252.211444 -273.198977 
L 252.767527 -271.017159 
L 253.376546 -268.835341 
L 254.025967 -266.653523 
L 254.698037 -264.471705 
L 255.370715 -262.289886 
L 256.019061 -260.108068 
L 256.61695 -257.92625 
L 257.138993 -255.744432 
L 257.562479 -253.562614 
L 257.869172 -251.380795 
L 258.046785 -249.198977 
L 258.09 -247.017159 
L 258.000921 -244.835341 
L 257.788926 -242.653523 
L 257.469908 -240.471705 
L 257.064989 -238.289886 
L 256.598806 -236.108068 
L 256.097536 -233.92625 
L 255.586834 -231.744432 
L 255.089871 -229.562614 
L 254.625641 -227.380795 
L 254.207682 -225.198977 
L 253.843319 -223.017159 
L 253.533466 -220.835341 
L 253.272998 -218.653523 
L 253.051627 -216.471705 
L 252.855185 -214.289886 
L 252.667183 -212.108068 
L 252.470482 -209.92625 
L 252.248931 -207.744432 
L 251.988822 -205.562614 
L 251.680035 -203.380795 
L 251.316792 -201.198977 
L 250.897988 -199.017159 
L 250.427068 -196.835341 
L 249.911524 -194.653523 
L 249.362062 -192.471705 
L 248.791547 -190.289886 
L 248.213838 -188.108068 
L 247.642624 -185.92625 
L 247.090367 -183.744432 
L 246.567439 -181.562614 
L 246.081509 -179.380795 
L 245.637217 -177.198977 
L 245.236131 -175.017159 
L 244.876969 -172.835341 
L 244.556038 -170.653523 
L 244.267827 -168.471705 
L 244.005684 -166.289886 
L 243.762514 -164.108068 
L 243.531431 -161.92625 
z
" id="m879862082f" style="stroke:#000000;stroke-opacity:0.3;"/>
    </defs>
    <g clip-path="url(#pa2eaae1c98)">
     <use style="fill:#bfbf00;fill-opacity:0.3;stroke:#000000;stroke-opacity:0.3;" x="0.0" xlink:href="#m879862082f" y="465.868"/>
    </g>
   </g>
   <g id="PolyCollection_4">
    <defs>
     <path d="M 322.789278 -161.92625 
L 304.990722 -161.92625 
L 304.711767 -164.108068 
L 304.46154 -166.289886 
L 304.229945 -168.471705 
L 304.005351 -170.653523 
L 303.77555 -172.835341 
L 303.528838 -175.017159 
L 303.255102 -177.198977 
L 302.946813 -179.380795 
L 302.599841 -181.562614 
L 302.213988 -183.744432 
L 301.793183 -185.92625 
L 301.345292 -188.108068 
L 300.88156 -190.289886 
L 300.415699 -192.471705 
L 299.962711 -194.653523 
L 299.537534 -196.835341 
L 299.153654 -199.017159 
L 298.82179 -201.198977 
L 298.548808 -203.380795 
L 298.336964 -205.562614 
L 298.183561 -207.744432 
L 298.081082 -209.92625 
L 298.017788 -212.108068 
L 297.978741 -214.289886 
L 297.947176 -216.471705 
L 297.906085 -218.653523 
L 297.839883 -220.835341 
L 297.735973 -223.017159 
L 297.58609 -225.198977 
L 297.387253 -227.380795 
L 297.142261 -229.562614 
L 296.859639 -231.744432 
L 296.553069 -233.92625 
L 296.24031 -236.108068 
L 295.941739 -238.289886 
L 295.678618 -240.471705 
L 295.471262 -242.653523 
L 295.337271 -244.835341 
L 295.29 -247.017159 
L 295.337397 -249.198977 
L 295.48133 -251.380795 
L 295.717449 -253.562614 
L 296.03561 -255.744432 
L 296.420794 -257.92625 
L 296.854454 -260.108068 
L 297.316135 -262.289886 
L 297.785237 -264.471705 
L 298.242742 -266.653523 
L 298.672747 -268.835341 
L 299.063683 -271.017159 
L 299.409102 -273.198977 
L 299.707986 -275.380795 
L 299.964557 -277.562614 
L 300.18764 -279.744432 
L 300.389633 -281.92625 
L 300.585213 -284.108068 
L 300.789899 -286.289886 
L 301.018603 -288.471705 
L 301.284315 -290.653523 
L 301.597013 -292.835341 
L 301.9629 -295.017159 
L 302.384005 -297.198977 
L 302.858172 -299.380795 
L 303.379397 -301.562614 
L 303.938475 -303.744432 
L 304.523867 -305.92625 
L 305.1227 -308.108068 
L 305.721796 -310.289886 
L 306.308646 -312.471705 
L 306.872241 -314.653523 
L 307.403706 -316.835341 
L 307.896701 -319.017159 
L 308.347574 -321.198977 
L 308.755283 -323.380795 
L 309.121118 -325.562614 
L 309.448272 -327.744432 
L 309.741306 -329.92625 
L 310.005581 -332.108068 
L 310.246703 -334.289886 
L 310.470031 -336.471705 
L 310.680275 -338.653523 
L 310.881224 -340.835341 
L 311.07559 -343.017159 
L 311.264982 -345.198977 
L 311.449986 -347.380795 
L 311.630326 -349.562614 
L 311.805084 -351.744432 
L 311.972949 -353.92625 
L 312.13246 -356.108068 
L 312.282232 -358.289886 
L 312.421136 -360.471705 
L 312.548425 -362.653523 
L 312.663809 -364.835341 
L 312.767464 -367.017159 
L 312.860002 -369.198977 
L 312.942393 -371.380795 
L 313.015868 -373.562614 
L 313.081807 -375.744432 
L 313.141624 -377.92625 
L 314.638376 -377.92625 
L 314.638376 -377.92625 
L 314.698193 -375.744432 
L 314.764132 -373.562614 
L 314.837607 -371.380795 
L 314.919998 -369.198977 
L 315.012536 -367.017159 
L 315.116191 -364.835341 
L 315.231575 -362.653523 
L 315.358864 -360.471705 
L 315.497768 -358.289886 
L 315.64754 -356.108068 
L 315.807051 -353.92625 
L 315.974916 -351.744432 
L 316.149674 -349.562614 
L 316.330014 -347.380795 
L 316.515018 -345.198977 
L 316.70441 -343.017159 
L 316.898776 -340.835341 
L 317.099725 -338.653523 
L 317.309969 -336.471705 
L 317.533297 -334.289886 
L 317.774419 -332.108068 
L 318.038694 -329.92625 
L 318.331728 -327.744432 
L 318.658882 -325.562614 
L 319.024717 -323.380795 
L 319.432426 -321.198977 
L 319.883299 -319.017159 
L 320.376294 -316.835341 
L 320.907759 -314.653523 
L 321.471354 -312.471705 
L 322.058204 -310.289886 
L 322.6573 -308.108068 
L 323.256133 -305.92625 
L 323.841525 -303.744432 
L 324.400603 -301.562614 
L 324.921828 -299.380795 
L 325.395995 -297.198977 
L 325.8171 -295.017159 
L 326.182987 -292.835341 
L 326.495685 -290.653523 
L 326.761397 -288.471705 
L 326.990101 -286.289886 
L 327.194787 -284.108068 
L 327.390367 -281.92625 
L 327.59236 -279.744432 
L 327.815443 -277.562614 
L 328.072014 -275.380795 
L 328.370898 -273.198977 
L 328.716317 -271.017159 
L 329.107253 -268.835341 
L 329.537258 -266.653523 
L 329.994763 -264.471705 
L 330.463865 -262.289886 
L 330.925546 -260.108068 
L 331.359206 -257.92625 
L 331.74439 -255.744432 
L 332.062551 -253.562614 
L 332.29867 -251.380795 
L 332.442603 -249.198977 
L 332.49 -247.017159 
L 332.442729 -244.835341 
L 332.308738 -242.653523 
L 332.101382 -240.471705 
L 331.838261 -238.289886 
L 331.53969 -236.108068 
L 331.226931 -233.92625 
L 330.920361 -231.744432 
L 330.637739 -229.562614 
L 330.392747 -227.380795 
L 330.19391 -225.198977 
L 330.044027 -223.017159 
L 329.940117 -220.835341 
L 329.873915 -218.653523 
L 329.832824 -216.471705 
L 329.801259 -214.289886 
L 329.762212 -212.108068 
L 329.698918 -209.92625 
L 329.596439 -207.744432 
L 329.443036 -205.562614 
L 329.231192 -203.380795 
L 328.95821 -201.198977 
L 328.626346 -199.017159 
L 328.242466 -196.835341 
L 327.817289 -194.653523 
L 327.364301 -192.471705 
L 326.89844 -190.289886 
L 326.434708 -188.108068 
L 325.986817 -185.92625 
L 325.566012 -183.744432 
L 325.180159 -181.562614 
L 324.833187 -179.380795 
L 324.524898 -177.198977 
L 324.251162 -175.017159 
L 324.00445 -172.835341 
L 323.774649 -170.653523 
L 323.550055 -168.471705 
L 323.31846 -166.289886 
L 323.068233 -164.108068 
L 322.789278 -161.92625 
z
" id="m9ad3f5fe14" style="stroke:#000000;stroke-opacity:0.3;"/>
    </defs>
    <g clip-path="url(#pa2eaae1c98)">
     <use style="fill:#bfbf00;fill-opacity:0.3;stroke:#000000;stroke-opacity:0.3;" x="0.0" xlink:href="#m9ad3f5fe14" y="465.868"/>
    </g>
   </g>
   <g id="PolyCollection_5">
    <defs>
     <path d="M 389.607205 -161.92625 
L 386.972795 -161.92625 
L 386.846802 -164.108068 
L 386.70182 -166.289886 
L 386.53305 -168.471705 
L 386.335742 -170.653523 
L 386.105627 -172.835341 
L 385.839383 -175.017159 
L 385.535097 -177.198977 
L 385.192674 -179.380795 
L 384.814144 -181.562614 
L 384.403797 -183.744432 
L 383.968134 -185.92625 
L 383.515574 -188.108068 
L 383.055936 -190.289886 
L 382.599704 -192.471705 
L 382.157108 -194.653523 
L 381.73712 -196.835341 
L 381.346429 -199.017159 
L 380.988519 -201.198977 
L 380.66295 -203.380795 
L 380.364948 -205.562614 
L 380.085391 -207.744432 
L 379.811222 -209.92625 
L 379.526329 -212.108068 
L 379.21282 -214.289886 
L 378.852642 -216.471705 
L 378.429393 -218.653523 
L 377.930187 -220.835341 
L 377.347371 -223.017159 
L 376.679932 -225.198977 
L 375.934415 -227.380795 
L 375.125222 -229.562614 
L 374.27422 -231.744432 
L 373.40963 -233.92625 
L 372.564262 -236.108068 
L 371.773228 -238.289886 
L 371.071295 -240.471705 
L 370.490142 -242.653523 
L 370.055748 -244.835341 
L 369.786182 -247.017159 
L 369.69 -249.198977 
L 369.765437 -251.380795 
L 370.000459 -253.562614 
L 370.373709 -255.744432 
L 370.856249 -257.92625 
L 371.413951 -260.108068 
L 372.010296 -262.289886 
L 372.609345 -264.471705 
L 373.178574 -266.653523 
L 373.691337 -268.835341 
L 374.128723 -271.017159 
L 374.480659 -273.198977 
L 374.746171 -275.380795 
L 374.932813 -277.562614 
L 375.055341 -279.744432 
L 375.133793 -281.92625 
L 375.191168 -284.108068 
L 375.250949 -286.289886 
L 375.334714 -288.471705 
L 375.460053 -290.653523 
L 375.63898 -292.835341 
L 375.876983 -295.017159 
L 376.172757 -297.198977 
L 376.518638 -299.380795 
L 376.901643 -301.562614 
L 377.305016 -303.744432 
L 377.710069 -305.92625 
L 378.09817 -308.108068 
L 378.452635 -310.289886 
L 378.760374 -312.471705 
L 379.013125 -314.653523 
L 379.208176 -316.835341 
L 379.348531 -319.017159 
L 379.442524 -321.198977 
L 379.502941 -323.380795 
L 379.545752 -325.562614 
L 379.588607 -327.744432 
L 379.649223 -329.92625 
L 379.743839 -332.108068 
L 379.885875 -334.289886 
L 380.0849 -336.471705 
L 380.345997 -338.653523 
L 380.669549 -340.835341 
L 381.051441 -343.017159 
L 381.483632 -345.198977 
L 381.955011 -347.380795 
L 382.452435 -349.562614 
L 382.961849 -351.744432 
L 383.46937 -353.92625 
L 383.962251 -356.108068 
L 384.429644 -358.289886 
L 384.863127 -360.471705 
L 385.256975 -362.653523 
L 385.608183 -364.835341 
L 385.916268 -367.017159 
L 386.182912 -369.198977 
L 386.411483 -371.380795 
L 386.606507 -373.562614 
L 386.773138 -375.744432 
L 386.916672 -377.92625 
L 389.663328 -377.92625 
L 389.663328 -377.92625 
L 389.806862 -375.744432 
L 389.973493 -373.562614 
L 390.168517 -371.380795 
L 390.397088 -369.198977 
L 390.663732 -367.017159 
L 390.971817 -364.835341 
L 391.323025 -362.653523 
L 391.716873 -360.471705 
L 392.150356 -358.289886 
L 392.617749 -356.108068 
L 393.11063 -353.92625 
L 393.618151 -351.744432 
L 394.127565 -349.562614 
L 394.624989 -347.380795 
L 395.096368 -345.198977 
L 395.528559 -343.017159 
L 395.910451 -340.835341 
L 396.234003 -338.653523 
L 396.4951 -336.471705 
L 396.694125 -334.289886 
L 396.836161 -332.108068 
L 396.930777 -329.92625 
L 396.991393 -327.744432 
L 397.034248 -325.562614 
L 397.077059 -323.380795 
L 397.137476 -321.198977 
L 397.231469 -319.017159 
L 397.371824 -316.835341 
L 397.566875 -314.653523 
L 397.819626 -312.471705 
L 398.127365 -310.289886 
L 398.48183 -308.108068 
L 398.869931 -305.92625 
L 399.274984 -303.744432 
L 399.678357 -301.562614 
L 400.061362 -299.380795 
L 400.407243 -297.198977 
L 400.703017 -295.017159 
L 400.94102 -292.835341 
L 401.119947 -290.653523 
L 401.245286 -288.471705 
L 401.329051 -286.289886 
L 401.388832 -284.108068 
L 401.446207 -281.92625 
L 401.524659 -279.744432 
L 401.647187 -277.562614 
L 401.833829 -275.380795 
L 402.099341 -273.198977 
L 402.451277 -271.017159 
L 402.888663 -268.835341 
L 403.401426 -266.653523 
L 403.970655 -264.471705 
L 404.569704 -262.289886 
L 405.166049 -260.108068 
L 405.723751 -257.92625 
L 406.206291 -255.744432 
L 406.579541 -253.562614 
L 406.814563 -251.380795 
L 406.89 -249.198977 
L 406.793818 -247.017159 
L 406.524252 -244.835341 
L 406.089858 -242.653523 
L 405.508705 -240.471705 
L 404.806772 -238.289886 
L 404.015738 -236.108068 
L 403.17037 -233.92625 
L 402.30578 -231.744432 
L 401.454778 -229.562614 
L 400.645585 -227.380795 
L 399.900068 -225.198977 
L 399.232629 -223.017159 
L 398.649813 -220.835341 
L 398.150607 -218.653523 
L 397.727358 -216.471705 
L 397.36718 -214.289886 
L 397.053671 -212.108068 
L 396.768778 -209.92625 
L 396.494609 -207.744432 
L 396.215052 -205.562614 
L 395.91705 -203.380795 
L 395.591481 -201.198977 
L 395.233571 -199.017159 
L 394.84288 -196.835341 
L 394.422892 -194.653523 
L 393.980296 -192.471705 
L 393.524064 -190.289886 
L 393.064426 -188.108068 
L 392.611866 -185.92625 
L 392.176203 -183.744432 
L 391.765856 -181.562614 
L 391.387326 -179.380795 
L 391.044903 -177.198977 
L 390.740617 -175.017159 
L 390.474373 -172.835341 
L 390.244258 -170.653523 
L 390.04695 -168.471705 
L 389.87818 -166.289886 
L 389.733198 -164.108068 
L 389.607205 -161.92625 
z
" id="m4f9616bc8b" style="stroke:#000000;stroke-opacity:0.3;"/>
    </defs>
    <g clip-path="url(#pa2eaae1c98)">
     <use style="fill:#bfbf00;fill-opacity:0.3;stroke:#000000;stroke-opacity:0.3;" x="0.0" xlink:href="#m4f9616bc8b" y="465.868"/>
    </g>
   </g>
   <g id="PolyCollection_6">
    <defs>
     <path d="M 463.54423 -161.92625 
L 461.83577 -161.92625 
L 461.731189 -163.671705 
L 461.604379 -165.417159 
L 461.449954 -167.162614 
L 461.262121 -168.908068 
L 461.034929 -170.653523 
L 460.762571 -172.398977 
L 460.439757 -174.144432 
L 460.062124 -175.889886 
L 459.626679 -177.635341 
L 459.132236 -179.380795 
L 458.579819 -181.12625 
L 457.972989 -182.871705 
L 457.318061 -184.617159 
L 456.62418 -186.362614 
L 455.903216 -188.108068 
L 455.169465 -189.853523 
L 454.439152 -191.598977 
L 453.729742 -193.344432 
L 453.059083 -195.089886 
L 452.44443 -196.835341 
L 451.901406 -198.580795 
L 451.442963 -200.32625 
L 451.078429 -202.071705 
L 450.812707 -203.817159 
L 450.645696 -205.562614 
L 450.571998 -207.308068 
L 450.580946 -209.053523 
L 450.656963 -210.798977 
L 450.78027 -212.544432 
L 450.927882 -214.289886 
L 451.074872 -216.035341 
L 451.195805 -217.780795 
L 451.266279 -219.52625 
L 451.264455 -221.271705 
L 451.172503 -223.017159 
L 450.977841 -224.762614 
L 450.674105 -226.508068 
L 450.261759 -228.253523 
L 449.748305 -229.998977 
L 449.148054 -231.744432 
L 448.481472 -233.489886 
L 447.774101 -235.235341 
L 447.055139 -236.980795 
L 446.355733 -238.72625 
L 445.707106 -240.471705 
L 445.13862 -242.217159 
L 444.675909 -243.962614 
L 444.339207 -245.708068 
L 444.141987 -247.453523 
L 444.09 -249.198977 
L 444.180798 -250.944432 
L 444.403775 -252.689886 
L 444.740731 -254.435341 
L 445.166923 -256.180795 
L 445.65255 -257.92625 
L 446.164565 -259.671705 
L 446.668702 -261.417159 
L 447.131601 -263.162614 
L 447.522867 -264.908068 
L 447.816965 -266.653523 
L 447.99481 -268.398977 
L 448.044961 -270.144432 
L 447.964348 -271.889886 
L 447.758486 -273.635341 
L 447.441157 -275.380795 
L 447.033596 -277.12625 
L 446.563223 -278.871705 
L 446.061996 -280.617159 
L 445.564503 -282.362614 
L 445.105908 -284.108068 
L 444.719877 -285.853523 
L 444.436622 -287.598977 
L 444.281187 -289.344432 
L 444.272079 -291.089886 
L 444.420331 -292.835341 
L 444.729042 -294.580795 
L 445.193423 -296.32625 
L 445.80131 -298.071705 
L 446.53412 -299.817159 
L 447.368144 -301.562614 
L 448.276094 -303.308068 
L 449.228782 -305.053523 
L 450.196813 -306.798977 
L 451.152188 -308.544432 
L 452.069715 -310.289886 
L 452.928155 -312.035341 
L 453.71104 -313.780795 
L 454.407153 -315.52625 
L 455.01066 -317.271705 
L 455.520911 -319.017159 
L 455.941965 -320.762614 
L 456.281874 -322.508068 
L 456.551816 -324.253523 
L 456.765127 -325.998977 
L 456.936297 -327.744432 
L 457.080015 -329.489886 
L 457.210292 -331.235341 
L 457.339721 -332.980795 
L 457.478903 -334.72625 
L 467.901097 -334.72625 
L 467.901097 -334.72625 
L 468.040279 -332.980795 
L 468.169708 -331.235341 
L 468.299985 -329.489886 
L 468.443703 -327.744432 
L 468.614873 -325.998977 
L 468.828184 -324.253523 
L 469.098126 -322.508068 
L 469.438035 -320.762614 
L 469.859089 -319.017159 
L 470.36934 -317.271705 
L 470.972847 -315.52625 
L 471.66896 -313.780795 
L 472.451845 -312.035341 
L 473.310285 -310.289886 
L 474.227812 -308.544432 
L 475.183187 -306.798977 
L 476.151218 -305.053523 
L 477.103906 -303.308068 
L 478.011856 -301.562614 
L 478.84588 -299.817159 
L 479.57869 -298.071705 
L 480.186577 -296.32625 
L 480.650958 -294.580795 
L 480.959669 -292.835341 
L 481.107921 -291.089886 
L 481.098813 -289.344432 
L 480.943378 -287.598977 
L 480.660123 -285.853523 
L 480.274092 -284.108068 
L 479.815497 -282.362614 
L 479.318004 -280.617159 
L 478.816777 -278.871705 
L 478.346404 -277.12625 
L 477.938843 -275.380795 
L 477.621514 -273.635341 
L 477.415652 -271.889886 
L 477.335039 -270.144432 
L 477.38519 -268.398977 
L 477.563035 -266.653523 
L 477.857133 -264.908068 
L 478.248399 -263.162614 
L 478.711298 -261.417159 
L 479.215435 -259.671705 
L 479.72745 -257.92625 
L 480.213077 -256.180795 
L 480.639269 -254.435341 
L 480.976225 -252.689886 
L 481.199202 -250.944432 
L 481.29 -249.198977 
L 481.238013 -247.453523 
L 481.040793 -245.708068 
L 480.704091 -243.962614 
L 480.24138 -242.217159 
L 479.672894 -240.471705 
L 479.024267 -238.72625 
L 478.324861 -236.980795 
L 477.605899 -235.235341 
L 476.898528 -233.489886 
L 476.231946 -231.744432 
L 475.631695 -229.998977 
L 475.118241 -228.253523 
L 474.705895 -226.508068 
L 474.402159 -224.762614 
L 474.207497 -223.017159 
L 474.115545 -221.271705 
L 474.113721 -219.52625 
L 474.184195 -217.780795 
L 474.305128 -216.035341 
L 474.452118 -214.289886 
L 474.59973 -212.544432 
L 474.723037 -210.798977 
L 474.799054 -209.053523 
L 474.808002 -207.308068 
L 474.734304 -205.562614 
L 474.567293 -203.817159 
L 474.301571 -202.071705 
L 473.937037 -200.32625 
L 473.478594 -198.580795 
L 472.93557 -196.835341 
L 472.320917 -195.089886 
L 471.650258 -193.344432 
L 470.940848 -191.598977 
L 470.210535 -189.853523 
L 469.476784 -188.108068 
L 468.75582 -186.362614 
L 468.061939 -184.617159 
L 467.407011 -182.871705 
L 466.800181 -181.12625 
L 466.247764 -179.380795 
L 465.753321 -177.635341 
L 465.317876 -175.889886 
L 464.940243 -174.144432 
L 464.617429 -172.398977 
L 464.345071 -170.653523 
L 464.117879 -168.908068 
L 463.930046 -167.162614 
L 463.775621 -165.417159 
L 463.648811 -163.671705 
L 463.54423 -161.92625 
z
" id="m949b93789f" style="stroke:#000000;stroke-opacity:0.3;"/>
    </defs>
    <g clip-path="url(#pa2eaae1c98)">
     <use style="fill:#bfbf00;fill-opacity:0.3;stroke:#000000;stroke-opacity:0.3;" x="0.0" xlink:href="#m949b93789f" y="465.868"/>
    </g>
   </g>
   <g id="PolyCollection_7">
    <defs>
     <path d="M 540.354344 -161.92625 
L 533.825656 -161.92625 
L 533.741473 -163.671705 
L 533.664527 -165.417159 
L 533.591448 -167.162614 
L 533.518312 -168.908068 
L 533.440832 -170.653523 
L 533.354591 -172.398977 
L 533.255302 -174.144432 
L 533.139068 -175.889886 
L 533.002643 -177.635341 
L 532.843669 -179.380795 
L 532.660861 -181.12625 
L 532.454144 -182.871705 
L 532.224714 -184.617159 
L 531.975016 -186.362614 
L 531.708639 -188.108068 
L 531.430122 -189.853523 
L 531.144689 -191.598977 
L 530.857904 -193.344432 
L 530.575293 -195.089886 
L 530.301927 -196.835341 
L 530.042011 -198.580795 
L 529.798504 -200.32625 
L 529.572785 -202.071705 
L 529.364417 -203.817159 
L 529.171001 -205.562614 
L 528.988169 -207.308068 
L 528.8097 -209.053523 
L 528.627783 -210.798977 
L 528.433401 -212.544432 
L 528.21684 -214.289886 
L 527.968284 -216.035341 
L 527.678466 -217.780795 
L 527.339348 -219.52625 
L 526.944768 -221.271705 
L 526.491034 -223.017159 
L 525.977399 -224.762614 
L 525.406395 -226.508068 
L 524.783987 -228.253523 
L 524.119532 -229.998977 
L 523.425523 -231.744432 
L 522.71713 -233.489886 
L 522.011554 -235.235341 
L 521.327221 -236.980795 
L 520.682856 -238.72625 
L 520.096503 -240.471705 
L 519.584529 -242.217159 
L 519.160691 -243.962614 
L 518.835323 -245.708068 
L 518.614685 -247.453523 
L 518.500545 -249.198977 
L 518.49 -250.944432 
L 518.57557 -252.689886 
L 518.745564 -254.435341 
L 518.984691 -256.180795 
L 519.274896 -257.92625 
L 519.596361 -259.671705 
L 519.928618 -261.417159 
L 520.251704 -263.162614 
L 520.54729 -264.908068 
L 520.799712 -266.653523 
L 520.996846 -268.398977 
L 521.130765 -270.144432 
L 521.198151 -271.889886 
L 521.200428 -273.635341 
L 521.143615 -275.380795 
L 521.037909 -277.12625 
L 520.897026 -278.871705 
L 520.737342 -280.617159 
L 520.576893 -282.362614 
L 520.434291 -284.108068 
L 520.327621 -285.853523 
L 520.273403 -287.598977 
L 520.28566 -289.344432 
L 520.375151 -291.089886 
L 520.548826 -292.835341 
L 520.809515 -294.580795 
L 521.155857 -296.32625 
L 521.582492 -298.071705 
L 522.080468 -299.817159 
L 522.637839 -301.562614 
L 523.240421 -303.308068 
L 523.872637 -305.053523 
L 524.518402 -306.798977 
L 525.162005 -308.544432 
L 525.788908 -310.289886 
L 526.386453 -312.035341 
L 526.944402 -313.780795 
L 527.455326 -315.52625 
L 527.914795 -317.271705 
L 528.321398 -319.017159 
L 528.676576 -320.762614 
L 528.984318 -322.508068 
L 529.250728 -324.253523 
L 529.483505 -325.998977 
L 529.691367 -327.744432 
L 529.883477 -329.489886 
L 530.06887 -331.235341 
L 530.255955 -332.980795 
L 530.452079 -334.72625 
L 543.727921 -334.72625 
L 543.727921 -334.72625 
L 543.924045 -332.980795 
L 544.11113 -331.235341 
L 544.296523 -329.489886 
L 544.488633 -327.744432 
L 544.696495 -325.998977 
L 544.929272 -324.253523 
L 545.195682 -322.508068 
L 545.503424 -320.762614 
L 545.858602 -319.017159 
L 546.265205 -317.271705 
L 546.724674 -315.52625 
L 547.235598 -313.780795 
L 547.793547 -312.035341 
L 548.391092 -310.289886 
L 549.017995 -308.544432 
L 549.661598 -306.798977 
L 550.307363 -305.053523 
L 550.939579 -303.308068 
L 551.542161 -301.562614 
L 552.099532 -299.817159 
L 552.597508 -298.071705 
L 553.024143 -296.32625 
L 553.370485 -294.580795 
L 553.631174 -292.835341 
L 553.804849 -291.089886 
L 553.89434 -289.344432 
L 553.906597 -287.598977 
L 553.852379 -285.853523 
L 553.745709 -284.108068 
L 553.603107 -282.362614 
L 553.442658 -280.617159 
L 553.282974 -278.871705 
L 553.142091 -277.12625 
L 553.036385 -275.380795 
L 552.979572 -273.635341 
L 552.981849 -271.889886 
L 553.049235 -270.144432 
L 553.183154 -268.398977 
L 553.380288 -266.653523 
L 553.63271 -264.908068 
L 553.928296 -263.162614 
L 554.251382 -261.417159 
L 554.583639 -259.671705 
L 554.905104 -257.92625 
L 555.195309 -256.180795 
L 555.434436 -254.435341 
L 555.60443 -252.689886 
L 555.69 -250.944432 
L 555.679455 -249.198977 
L 555.565315 -247.453523 
L 555.344677 -245.708068 
L 555.019309 -243.962614 
L 554.595471 -242.217159 
L 554.083497 -240.471705 
L 553.497144 -238.72625 
L 552.852779 -236.980795 
L 552.168446 -235.235341 
L 551.46287 -233.489886 
L 550.754477 -231.744432 
L 550.060468 -229.998977 
L 549.396013 -228.253523 
L 548.773605 -226.508068 
L 548.202601 -224.762614 
L 547.688966 -223.017159 
L 547.235232 -221.271705 
L 546.840652 -219.52625 
L 546.501534 -217.780795 
L 546.211716 -216.035341 
L 545.96316 -214.289886 
L 545.746599 -212.544432 
L 545.552217 -210.798977 
L 545.3703 -209.053523 
L 545.191831 -207.308068 
L 545.008999 -205.562614 
L 544.815583 -203.817159 
L 544.607215 -202.071705 
L 544.381496 -200.32625 
L 544.137989 -198.580795 
L 543.878073 -196.835341 
L 543.604707 -195.089886 
L 543.322096 -193.344432 
L 543.035311 -191.598977 
L 542.749878 -189.853523 
L 542.471361 -188.108068 
L 542.204984 -186.362614 
L 541.955286 -184.617159 
L 541.725856 -182.871705 
L 541.519139 -181.12625 
L 541.336331 -179.380795 
L 541.177357 -177.635341 
L 541.040932 -175.889886 
L 540.924698 -174.144432 
L 540.825409 -172.398977 
L 540.739168 -170.653523 
L 540.661688 -168.908068 
L 540.588552 -167.162614 
L 540.515473 -165.417159 
L 540.438527 -163.671705 
L 540.354344 -161.92625 
z
" id="m1080b4bfaf" style="stroke:#000000;stroke-opacity:0.3;"/>
    </defs>
    <g clip-path="url(#pa2eaae1c98)">
     <use style="fill:#bfbf00;fill-opacity:0.3;stroke:#000000;stroke-opacity:0.3;" x="0.0" xlink:href="#m1080b4bfaf" y="465.868"/>
    </g>
   </g>
   <g id="PolyCollection_8">
    <defs>
     <path d="M 630.09 -118.72625 
L 592.89 -118.72625 
L 592.89 -118.72625 
L 592.89 -118.72625 
L 592.89 -118.72625 
L 592.89 -118.72625 
L 592.89 -118.72625 
L 592.89 -118.72625 
L 592.89 -118.72625 
L 592.89 -118.72625 
L 592.89 -118.72625 
L 592.89 -118.72625 
L 592.89 -118.72625 
L 592.89 -118.72625 
L 592.89 -118.72625 
L 592.89 -118.72625 
L 592.89 -118.72625 
L 592.89 -118.72625 
L 592.89 -118.72625 
L 592.89 -118.72625 
L 592.89 -118.72625 
L 592.89 -118.72625 
L 592.89 -118.72625 
L 592.89 -118.72625 
L 592.89 -118.72625 
L 592.89 -118.72625 
L 592.89 -118.72625 
L 592.89 -118.72625 
L 592.89 -118.72625 
L 592.89 -118.72625 
L 592.89 -118.72625 
L 592.89 -118.72625 
L 592.89 -118.72625 
L 592.89 -118.72625 
L 592.89 -118.72625 
L 592.89 -118.72625 
L 592.89 -118.72625 
L 592.89 -118.72625 
L 592.89 -118.72625 
L 592.89 -118.72625 
L 592.89 -118.72625 
L 592.89 -118.72625 
L 592.89 -118.72625 
L 592.89 -118.72625 
L 592.89 -118.72625 
L 592.89 -118.72625 
L 592.89 -118.72625 
L 592.89 -118.72625 
L 592.89 -118.72625 
L 592.89 -118.72625 
L 592.89 -118.72625 
L 592.89 -118.72625 
L 592.89 -118.72625 
L 592.89 -118.72625 
L 592.89 -118.72625 
L 592.89 -118.72625 
L 592.89 -118.72625 
L 592.89 -118.72625 
L 592.89 -118.72625 
L 592.89 -118.72625 
L 592.89 -118.72625 
L 592.89 -118.72625 
L 592.89 -118.72625 
L 592.89 -118.72625 
L 592.89 -118.72625 
L 592.89 -118.72625 
L 592.89 -118.72625 
L 592.89 -118.72625 
L 592.89 -118.72625 
L 592.89 -118.72625 
L 592.89 -118.72625 
L 592.89 -118.72625 
L 592.89 -118.72625 
L 592.89 -118.72625 
L 592.89 -118.72625 
L 592.89 -118.72625 
L 592.89 -118.72625 
L 592.89 -118.72625 
L 592.89 -118.72625 
L 592.89 -118.72625 
L 592.89 -118.72625 
L 592.89 -118.72625 
L 592.89 -118.72625 
L 592.89 -118.72625 
L 592.89 -118.72625 
L 592.89 -118.72625 
L 592.89 -118.72625 
L 592.89 -118.72625 
L 592.89 -118.72625 
L 592.89 -118.72625 
L 592.89 -118.72625 
L 592.89 -118.72625 
L 592.89 -118.72625 
L 592.89 -118.72625 
L 592.89 -118.72625 
L 592.89 -118.72625 
L 592.89 -118.72625 
L 592.89 -118.72625 
L 592.89 -118.72625 
L 592.89 -118.72625 
L 592.89 -118.72625 
L 630.09 -118.72625 
L 630.09 -118.72625 
L 630.09 -118.72625 
L 630.09 -118.72625 
L 630.09 -118.72625 
L 630.09 -118.72625 
L 630.09 -118.72625 
L 630.09 -118.72625 
L 630.09 -118.72625 
L 630.09 -118.72625 
L 630.09 -118.72625 
L 630.09 -118.72625 
L 630.09 -118.72625 
L 630.09 -118.72625 
L 630.09 -118.72625 
L 630.09 -118.72625 
L 630.09 -118.72625 
L 630.09 -118.72625 
L 630.09 -118.72625 
L 630.09 -118.72625 
L 630.09 -118.72625 
L 630.09 -118.72625 
L 630.09 -118.72625 
L 630.09 -118.72625 
L 630.09 -118.72625 
L 630.09 -118.72625 
L 630.09 -118.72625 
L 630.09 -118.72625 
L 630.09 -118.72625 
L 630.09 -118.72625 
L 630.09 -118.72625 
L 630.09 -118.72625 
L 630.09 -118.72625 
L 630.09 -118.72625 
L 630.09 -118.72625 
L 630.09 -118.72625 
L 630.09 -118.72625 
L 630.09 -118.72625 
L 630.09 -118.72625 
L 630.09 -118.72625 
L 630.09 -118.72625 
L 630.09 -118.72625 
L 630.09 -118.72625 
L 630.09 -118.72625 
L 630.09 -118.72625 
L 630.09 -118.72625 
L 630.09 -118.72625 
L 630.09 -118.72625 
L 630.09 -118.72625 
L 630.09 -118.72625 
L 630.09 -118.72625 
L 630.09 -118.72625 
L 630.09 -118.72625 
L 630.09 -118.72625 
L 630.09 -118.72625 
L 630.09 -118.72625 
L 630.09 -118.72625 
L 630.09 -118.72625 
L 630.09 -118.72625 
L 630.09 -118.72625 
L 630.09 -118.72625 
L 630.09 -118.72625 
L 630.09 -118.72625 
L 630.09 -118.72625 
L 630.09 -118.72625 
L 630.09 -118.72625 
L 630.09 -118.72625 
L 630.09 -118.72625 
L 630.09 -118.72625 
L 630.09 -118.72625 
L 630.09 -118.72625 
L 630.09 -118.72625 
L 630.09 -118.72625 
L 630.09 -118.72625 
L 630.09 -118.72625 
L 630.09 -118.72625 
L 630.09 -118.72625 
L 630.09 -118.72625 
L 630.09 -118.72625 
L 630.09 -118.72625 
L 630.09 -118.72625 
L 630.09 -118.72625 
L 630.09 -118.72625 
L 630.09 -118.72625 
L 630.09 -118.72625 
L 630.09 -118.72625 
L 630.09 -118.72625 
L 630.09 -118.72625 
L 630.09 -118.72625 
L 630.09 -118.72625 
L 630.09 -118.72625 
L 630.09 -118.72625 
L 630.09 -118.72625 
L 630.09 -118.72625 
L 630.09 -118.72625 
L 630.09 -118.72625 
L 630.09 -118.72625 
L 630.09 -118.72625 
L 630.09 -118.72625 
L 630.09 -118.72625 
L 630.09 -118.72625 
z
" id="mce5f70a6ac" style="stroke:#000000;stroke-opacity:0.3;"/>
    </defs>
    <g clip-path="url(#pa2eaae1c98)">
     <use style="fill:#bfbf00;fill-opacity:0.3;stroke:#000000;stroke-opacity:0.3;" x="0.0" xlink:href="#mce5f70a6ac" y="465.868"/>
    </g>
   </g>
   <g id="LineCollection_1">
    <path clip-path="url(#pa2eaae1c98)" d="M 81.39 44.74175 
L 99.99 44.74175 
" style="fill:none;stroke:#ff0000;"/>
    <path clip-path="url(#pa2eaae1c98)" d="M 155.79 174.34175 
L 174.39 174.34175 
" style="fill:none;stroke:#ff0000;"/>
    <path clip-path="url(#pa2eaae1c98)" d="M 230.19 217.54175 
L 248.79 217.54175 
" style="fill:none;stroke:#ff0000;"/>
    <path clip-path="url(#pa2eaae1c98)" d="M 304.59 217.54175 
L 323.19 217.54175 
" style="fill:none;stroke:#ff0000;"/>
    <path clip-path="url(#pa2eaae1c98)" d="M 378.99 217.54175 
L 397.59 217.54175 
" style="fill:none;stroke:#ff0000;"/>
    <path clip-path="url(#pa2eaae1c98)" d="M 453.39 217.54175 
L 471.99 217.54175 
" style="fill:none;stroke:#ff0000;"/>
    <path clip-path="url(#pa2eaae1c98)" d="M 527.79 217.54175 
L 546.39 217.54175 
" style="fill:none;stroke:#ff0000;"/>
    <path clip-path="url(#pa2eaae1c98)" d="M 602.19 347.14175 
L 620.79 347.14175 
" style="fill:none;stroke:#ff0000;"/>
   </g>
   <g id="patch_3">
    <path d="M 685.89 368.74175 
L 685.89 23.14175 
" style="fill:none;stroke:#000000;stroke-linecap:square;stroke-linejoin:miter;"/>
   </g>
   <g id="patch_4">
    <path d="M 16.29 23.14175 
L 685.89 23.14175 
" style="fill:none;stroke:#000000;stroke-linecap:square;stroke-linejoin:miter;"/>
   </g>
   <g id="patch_5">
    <path d="M 16.29 368.74175 
L 16.29 23.14175 
" style="fill:none;stroke:#000000;stroke-linecap:square;stroke-linejoin:miter;"/>
   </g>
   <g id="patch_6">
    <path d="M 16.29 368.74175 
L 685.89 368.74175 
" style="fill:none;stroke:#000000;stroke-linecap:square;stroke-linejoin:miter;"/>
   </g>
   <g id="matplotlib.axis_1">
    <g id="xtick_1">
     <g id="line2d_1">
      <defs>
       <path d="M 0 0 
L 0 -4 
" id="m0302d431c9" style="stroke:#000000;stroke-width:0.5;"/>
      </defs>
      <g>
       <use style="stroke:#000000;stroke-width:0.5;" x="90.69" xlink:href="#m0302d431c9" y="368.74175"/>
      </g>
     </g>
     <g id="line2d_2">
      <defs>
       <path d="M 0 0 
L 0 4 
" id="mc00582de46" style="stroke:#000000;stroke-width:0.5;"/>
      </defs>
      <g>
       <use style="stroke:#000000;stroke-width:0.5;" x="90.69" xlink:href="#mc00582de46" y="23.14175"/>
      </g>
     </g>
     <g id="text_1">
      <!-- Defector -->
      <defs>
       <path d="M 30.609375 48.390625 
Q 23.390625 48.390625 19.1875 42.75 
Q 14.984375 37.109375 14.984375 27.296875 
Q 14.984375 17.484375 19.15625 11.84375 
Q 23.34375 6.203125 30.609375 6.203125 
Q 37.796875 6.203125 41.984375 11.859375 
Q 46.1875 17.53125 46.1875 27.296875 
Q 46.1875 37.015625 41.984375 42.703125 
Q 37.796875 48.390625 30.609375 48.390625 
M 30.609375 56 
Q 42.328125 56 49.015625 48.375 
Q 55.71875 40.765625 55.71875 27.296875 
Q 55.71875 13.875 49.015625 6.21875 
Q 42.328125 -1.421875 30.609375 -1.421875 
Q 18.84375 -1.421875 12.171875 6.21875 
Q 5.515625 13.875 5.515625 27.296875 
Q 5.515625 40.765625 12.171875 48.375 
Q 18.84375 56 30.609375 56 
" id="BitstreamVeraSans-Roman-6f"/>
       <path d="M 48.78125 52.59375 
L 48.78125 44.1875 
Q 44.96875 46.296875 41.140625 47.34375 
Q 37.3125 48.390625 33.40625 48.390625 
Q 24.65625 48.390625 19.8125 42.84375 
Q 14.984375 37.3125 14.984375 27.296875 
Q 14.984375 17.28125 19.8125 11.734375 
Q 24.65625 6.203125 33.40625 6.203125 
Q 37.3125 6.203125 41.140625 7.25 
Q 44.96875 8.296875 48.78125 10.40625 
L 48.78125 2.09375 
Q 45.015625 0.34375 40.984375 -0.53125 
Q 36.96875 -1.421875 32.421875 -1.421875 
Q 20.0625 -1.421875 12.78125 6.34375 
Q 5.515625 14.109375 5.515625 27.296875 
Q 5.515625 40.671875 12.859375 48.328125 
Q 20.21875 56 33.015625 56 
Q 37.15625 56 41.109375 55.140625 
Q 45.0625 54.296875 48.78125 52.59375 
" id="BitstreamVeraSans-Roman-63"/>
       <path d="M 18.3125 70.21875 
L 18.3125 54.6875 
L 36.8125 54.6875 
L 36.8125 47.703125 
L 18.3125 47.703125 
L 18.3125 18.015625 
Q 18.3125 11.328125 20.140625 9.421875 
Q 21.96875 7.515625 27.59375 7.515625 
L 36.8125 7.515625 
L 36.8125 0 
L 27.59375 0 
Q 17.1875 0 13.234375 3.875 
Q 9.28125 7.765625 9.28125 18.015625 
L 9.28125 47.703125 
L 2.6875 47.703125 
L 2.6875 54.6875 
L 9.28125 54.6875 
L 9.28125 70.21875 
z
" id="BitstreamVeraSans-Roman-74"/>
       <path d="M 41.109375 46.296875 
Q 39.59375 47.171875 37.8125 47.578125 
Q 36.03125 48 33.890625 48 
Q 26.265625 48 22.1875 43.046875 
Q 18.109375 38.09375 18.109375 28.8125 
L 18.109375 0 
L 9.078125 0 
L 9.078125 54.6875 
L 18.109375 54.6875 
L 18.109375 46.1875 
Q 20.953125 51.171875 25.484375 53.578125 
Q 30.03125 56 36.53125 56 
Q 37.453125 56 38.578125 55.875 
Q 39.703125 55.765625 41.0625 55.515625 
z
" id="BitstreamVeraSans-Roman-72"/>
       <path d="M 19.671875 64.796875 
L 19.671875 8.109375 
L 31.59375 8.109375 
Q 46.6875 8.109375 53.6875 14.9375 
Q 60.6875 21.78125 60.6875 36.53125 
Q 60.6875 51.171875 53.6875 57.984375 
Q 46.6875 64.796875 31.59375 64.796875 
z
M 9.8125 72.90625 
L 30.078125 72.90625 
Q 51.265625 72.90625 61.171875 64.09375 
Q 71.09375 55.28125 71.09375 36.53125 
Q 71.09375 17.671875 61.125 8.828125 
Q 51.171875 0 30.078125 0 
L 9.8125 0 
z
" id="BitstreamVeraSans-Roman-44"/>
       <path d="M 37.109375 75.984375 
L 37.109375 68.5 
L 28.515625 68.5 
Q 23.6875 68.5 21.796875 66.546875 
Q 19.921875 64.59375 19.921875 59.515625 
L 19.921875 54.6875 
L 34.71875 54.6875 
L 34.71875 47.703125 
L 19.921875 47.703125 
L 19.921875 0 
L 10.890625 0 
L 10.890625 47.703125 
L 2.296875 47.703125 
L 2.296875 54.6875 
L 10.890625 54.6875 
L 10.890625 58.5 
Q 10.890625 67.625 15.140625 71.796875 
Q 19.390625 75.984375 28.609375 75.984375 
z
" id="BitstreamVeraSans-Roman-66"/>
       <path d="M 56.203125 29.59375 
L 56.203125 25.203125 
L 14.890625 25.203125 
Q 15.484375 15.921875 20.484375 11.0625 
Q 25.484375 6.203125 34.421875 6.203125 
Q 39.59375 6.203125 44.453125 7.46875 
Q 49.3125 8.734375 54.109375 11.28125 
L 54.109375 2.78125 
Q 49.265625 0.734375 44.1875 -0.34375 
Q 39.109375 -1.421875 33.890625 -1.421875 
Q 20.796875 -1.421875 13.15625 6.1875 
Q 5.515625 13.8125 5.515625 26.8125 
Q 5.515625 40.234375 12.765625 48.109375 
Q 20.015625 56 32.328125 56 
Q 43.359375 56 49.78125 48.890625 
Q 56.203125 41.796875 56.203125 29.59375 
M 47.21875 32.234375 
Q 47.125 39.59375 43.09375 43.984375 
Q 39.0625 48.390625 32.421875 48.390625 
Q 24.90625 48.390625 20.390625 44.140625 
Q 15.875 39.890625 15.1875 32.171875 
z
" id="BitstreamVeraSans-Roman-65"/>
      </defs>
      <g transform="translate(92.8975 407.28175)rotate(-90.0)scale(0.08 -0.08)">
       <use xlink:href="#BitstreamVeraSans-Roman-44"/>
       <use x="77.001953125" xlink:href="#BitstreamVeraSans-Roman-65"/>
       <use x="138.525390625" xlink:href="#BitstreamVeraSans-Roman-66"/>
       <use x="173.73046875" xlink:href="#BitstreamVeraSans-Roman-65"/>
       <use x="235.25390625" xlink:href="#BitstreamVeraSans-Roman-63"/>
       <use x="290.234375" xlink:href="#BitstreamVeraSans-Roman-74"/>
       <use x="329.443359375" xlink:href="#BitstreamVeraSans-Roman-6f"/>
       <use x="390.625" xlink:href="#BitstreamVeraSans-Roman-72"/>
      </g>
     </g>
    </g>
    <g id="xtick_2">
     <g id="line2d_3">
      <g>
       <use style="stroke:#000000;stroke-width:0.5;" x="165.09" xlink:href="#m0302d431c9" y="368.74175"/>
      </g>
     </g>
     <g id="line2d_4">
      <g>
       <use style="stroke:#000000;stroke-width:0.5;" x="165.09" xlink:href="#mc00582de46" y="23.14175"/>
      </g>
     </g>
     <g id="text_2">
      <!-- Suspicious Tit For Tat -->
      <defs>
       <path d="M 53.515625 70.515625 
L 53.515625 60.890625 
Q 47.90625 63.578125 42.921875 64.890625 
Q 37.9375 66.21875 33.296875 66.21875 
Q 25.25 66.21875 20.875 63.09375 
Q 16.5 59.96875 16.5 54.203125 
Q 16.5 49.359375 19.40625 46.890625 
Q 22.3125 44.4375 30.421875 42.921875 
L 36.375 41.703125 
Q 47.40625 39.59375 52.65625 34.296875 
Q 57.90625 29 57.90625 20.125 
Q 57.90625 9.515625 50.796875 4.046875 
Q 43.703125 -1.421875 29.984375 -1.421875 
Q 24.8125 -1.421875 18.96875 -0.25 
Q 13.140625 0.921875 6.890625 3.21875 
L 6.890625 13.375 
Q 12.890625 10.015625 18.65625 8.296875 
Q 24.421875 6.59375 29.984375 6.59375 
Q 38.421875 6.59375 43.015625 9.90625 
Q 47.609375 13.234375 47.609375 19.390625 
Q 47.609375 24.75 44.3125 27.78125 
Q 41.015625 30.8125 33.5 32.328125 
L 27.484375 33.5 
Q 16.453125 35.6875 11.515625 40.375 
Q 6.59375 45.0625 6.59375 53.421875 
Q 6.59375 63.09375 13.40625 68.65625 
Q 20.21875 74.21875 32.171875 74.21875 
Q 37.3125 74.21875 42.625 73.28125 
Q 47.953125 72.359375 53.515625 70.515625 
" id="BitstreamVeraSans-Roman-53"/>
       <path d="M 8.5 21.578125 
L 8.5 54.6875 
L 17.484375 54.6875 
L 17.484375 21.921875 
Q 17.484375 14.15625 20.5 10.265625 
Q 23.53125 6.390625 29.59375 6.390625 
Q 36.859375 6.390625 41.078125 11.03125 
Q 45.3125 15.671875 45.3125 23.6875 
L 45.3125 54.6875 
L 54.296875 54.6875 
L 54.296875 0 
L 45.3125 0 
L 45.3125 8.40625 
Q 42.046875 3.421875 37.71875 1 
Q 33.40625 -1.421875 27.6875 -1.421875 
Q 18.265625 -1.421875 13.375 4.4375 
Q 8.5 10.296875 8.5 21.578125 
" id="BitstreamVeraSans-Roman-75"/>
       <path d="M 34.28125 27.484375 
Q 23.390625 27.484375 19.1875 25 
Q 14.984375 22.515625 14.984375 16.5 
Q 14.984375 11.71875 18.140625 8.90625 
Q 21.296875 6.109375 26.703125 6.109375 
Q 34.1875 6.109375 38.703125 11.40625 
Q 43.21875 16.703125 43.21875 25.484375 
L 43.21875 27.484375 
z
M 52.203125 31.203125 
L 52.203125 0 
L 43.21875 0 
L 43.21875 8.296875 
Q 40.140625 3.328125 35.546875 0.953125 
Q 30.953125 -1.421875 24.3125 -1.421875 
Q 15.921875 -1.421875 10.953125 3.296875 
Q 6 8.015625 6 15.921875 
Q 6 25.140625 12.171875 29.828125 
Q 18.359375 34.515625 30.609375 34.515625 
L 43.21875 34.515625 
L 43.21875 35.40625 
Q 43.21875 41.609375 39.140625 45 
Q 35.0625 48.390625 27.6875 48.390625 
Q 23 48.390625 18.546875 47.265625 
Q 14.109375 46.140625 10.015625 43.890625 
L 10.015625 52.203125 
Q 14.9375 54.109375 19.578125 55.046875 
Q 24.21875 56 28.609375 56 
Q 40.484375 56 46.34375 49.84375 
Q 52.203125 43.703125 52.203125 31.203125 
" id="BitstreamVeraSans-Roman-61"/>
       <path d="M 18.109375 8.203125 
L 18.109375 -20.796875 
L 9.078125 -20.796875 
L 9.078125 54.6875 
L 18.109375 54.6875 
L 18.109375 46.390625 
Q 20.953125 51.265625 25.265625 53.625 
Q 29.59375 56 35.59375 56 
Q 45.5625 56 51.78125 48.09375 
Q 58.015625 40.1875 58.015625 27.296875 
Q 58.015625 14.40625 51.78125 6.484375 
Q 45.5625 -1.421875 35.59375 -1.421875 
Q 29.59375 -1.421875 25.265625 0.953125 
Q 20.953125 3.328125 18.109375 8.203125 
M 48.6875 27.296875 
Q 48.6875 37.203125 44.609375 42.84375 
Q 40.53125 48.484375 33.40625 48.484375 
Q 26.265625 48.484375 22.1875 42.84375 
Q 18.109375 37.203125 18.109375 27.296875 
Q 18.109375 17.390625 22.1875 11.75 
Q 26.265625 6.109375 33.40625 6.109375 
Q 40.53125 6.109375 44.609375 11.75 
Q 48.6875 17.390625 48.6875 27.296875 
" id="BitstreamVeraSans-Roman-70"/>
       <path d="M -0.296875 72.90625 
L 61.375 72.90625 
L 61.375 64.59375 
L 35.5 64.59375 
L 35.5 0 
L 25.59375 0 
L 25.59375 64.59375 
L -0.296875 64.59375 
z
" id="BitstreamVeraSans-Roman-54"/>
       <path id="BitstreamVeraSans-Roman-20"/>
       <path d="M 9.8125 72.90625 
L 51.703125 72.90625 
L 51.703125 64.59375 
L 19.671875 64.59375 
L 19.671875 43.109375 
L 48.578125 43.109375 
L 48.578125 34.8125 
L 19.671875 34.8125 
L 19.671875 0 
L 9.8125 0 
z
" id="BitstreamVeraSans-Roman-46"/>
       <path d="M 44.28125 53.078125 
L 44.28125 44.578125 
Q 40.484375 46.53125 36.375 47.5 
Q 32.28125 48.484375 27.875 48.484375 
Q 21.1875 48.484375 17.84375 46.4375 
Q 14.5 44.390625 14.5 40.28125 
Q 14.5 37.15625 16.890625 35.375 
Q 19.28125 33.59375 26.515625 31.984375 
L 29.59375 31.296875 
Q 39.15625 29.25 43.1875 25.515625 
Q 47.21875 21.78125 47.21875 15.09375 
Q 47.21875 7.46875 41.1875 3.015625 
Q 35.15625 -1.421875 24.609375 -1.421875 
Q 20.21875 -1.421875 15.453125 -0.5625 
Q 10.6875 0.296875 5.421875 2 
L 5.421875 11.28125 
Q 10.40625 8.6875 15.234375 7.390625 
Q 20.0625 6.109375 24.8125 6.109375 
Q 31.15625 6.109375 34.5625 8.28125 
Q 37.984375 10.453125 37.984375 14.40625 
Q 37.984375 18.0625 35.515625 20.015625 
Q 33.0625 21.96875 24.703125 23.78125 
L 21.578125 24.515625 
Q 13.234375 26.265625 9.515625 29.90625 
Q 5.8125 33.546875 5.8125 39.890625 
Q 5.8125 47.609375 11.28125 51.796875 
Q 16.75 56 26.8125 56 
Q 31.78125 56 36.171875 55.265625 
Q 40.578125 54.546875 44.28125 53.078125 
" id="BitstreamVeraSans-Roman-73"/>
       <path d="M 9.421875 54.6875 
L 18.40625 54.6875 
L 18.40625 0 
L 9.421875 0 
z
M 9.421875 75.984375 
L 18.40625 75.984375 
L 18.40625 64.59375 
L 9.421875 64.59375 
z
" id="BitstreamVeraSans-Roman-69"/>
      </defs>
      <g transform="translate(167.2975 458.668)rotate(-90.0)scale(0.08 -0.08)">
       <use xlink:href="#BitstreamVeraSans-Roman-53"/>
       <use x="63.4765625" xlink:href="#BitstreamVeraSans-Roman-75"/>
       <use x="126.85546875" xlink:href="#BitstreamVeraSans-Roman-73"/>
       <use x="178.955078125" xlink:href="#BitstreamVeraSans-Roman-70"/>
       <use x="242.431640625" xlink:href="#BitstreamVeraSans-Roman-69"/>
       <use x="270.21484375" xlink:href="#BitstreamVeraSans-Roman-63"/>
       <use x="325.1953125" xlink:href="#BitstreamVeraSans-Roman-69"/>
       <use x="352.978515625" xlink:href="#BitstreamVeraSans-Roman-6f"/>
       <use x="414.16015625" xlink:href="#BitstreamVeraSans-Roman-75"/>
       <use x="477.5390625" xlink:href="#BitstreamVeraSans-Roman-73"/>
       <use x="529.638671875" xlink:href="#BitstreamVeraSans-Roman-20"/>
       <use x="561.42578125" xlink:href="#BitstreamVeraSans-Roman-54"/>
       <use x="622.462890625" xlink:href="#BitstreamVeraSans-Roman-69"/>
       <use x="650.24609375" xlink:href="#BitstreamVeraSans-Roman-74"/>
       <use x="689.455078125" xlink:href="#BitstreamVeraSans-Roman-20"/>
       <use x="721.2421875" xlink:href="#BitstreamVeraSans-Roman-46"/>
       <use x="778.71484375" xlink:href="#BitstreamVeraSans-Roman-6f"/>
       <use x="839.896484375" xlink:href="#BitstreamVeraSans-Roman-72"/>
       <use x="881.009765625" xlink:href="#BitstreamVeraSans-Roman-20"/>
       <use x="912.796875" xlink:href="#BitstreamVeraSans-Roman-54"/>
       <use x="973.630859375" xlink:href="#BitstreamVeraSans-Roman-61"/>
       <use x="1034.91015625" xlink:href="#BitstreamVeraSans-Roman-74"/>
      </g>
     </g>
    </g>
    <g id="xtick_3">
     <g id="line2d_5">
      <g>
       <use style="stroke:#000000;stroke-width:0.5;" x="239.49" xlink:href="#m0302d431c9" y="368.74175"/>
      </g>
     </g>
     <g id="line2d_6">
      <g>
       <use style="stroke:#000000;stroke-width:0.5;" x="239.49" xlink:href="#mc00582de46" y="23.14175"/>
      </g>
     </g>
     <g id="text_3">
      <!-- Win-Stay Lose-Shift -->
      <defs>
       <path d="M 3.328125 72.90625 
L 13.28125 72.90625 
L 28.609375 11.28125 
L 43.890625 72.90625 
L 54.984375 72.90625 
L 70.3125 11.28125 
L 85.59375 72.90625 
L 95.609375 72.90625 
L 77.296875 0 
L 64.890625 0 
L 49.515625 63.28125 
L 33.984375 0 
L 21.578125 0 
z
" id="BitstreamVeraSans-Roman-57"/>
       <path d="M 54.890625 33.015625 
L 54.890625 0 
L 45.90625 0 
L 45.90625 32.71875 
Q 45.90625 40.484375 42.875 44.328125 
Q 39.84375 48.1875 33.796875 48.1875 
Q 26.515625 48.1875 22.3125 43.546875 
Q 18.109375 38.921875 18.109375 30.90625 
L 18.109375 0 
L 9.078125 0 
L 9.078125 54.6875 
L 18.109375 54.6875 
L 18.109375 46.1875 
Q 21.34375 51.125 25.703125 53.5625 
Q 30.078125 56 35.796875 56 
Q 45.21875 56 50.046875 50.171875 
Q 54.890625 44.34375 54.890625 33.015625 
" id="BitstreamVeraSans-Roman-6e"/>
       <path d="M 9.8125 72.90625 
L 19.671875 72.90625 
L 19.671875 8.296875 
L 55.171875 8.296875 
L 55.171875 0 
L 9.8125 0 
z
" id="BitstreamVeraSans-Roman-4c"/>
       <path d="M 32.171875 -5.078125 
Q 28.375 -14.84375 24.75 -17.8125 
Q 21.140625 -20.796875 15.09375 -20.796875 
L 7.90625 -20.796875 
L 7.90625 -13.28125 
L 13.1875 -13.28125 
Q 16.890625 -13.28125 18.9375 -11.515625 
Q 21 -9.765625 23.484375 -3.21875 
L 25.09375 0.875 
L 2.984375 54.6875 
L 12.5 54.6875 
L 29.59375 11.921875 
L 46.6875 54.6875 
L 56.203125 54.6875 
z
" id="BitstreamVeraSans-Roman-79"/>
       <path d="M 54.890625 33.015625 
L 54.890625 0 
L 45.90625 0 
L 45.90625 32.71875 
Q 45.90625 40.484375 42.875 44.328125 
Q 39.84375 48.1875 33.796875 48.1875 
Q 26.515625 48.1875 22.3125 43.546875 
Q 18.109375 38.921875 18.109375 30.90625 
L 18.109375 0 
L 9.078125 0 
L 9.078125 75.984375 
L 18.109375 75.984375 
L 18.109375 46.1875 
Q 21.34375 51.125 25.703125 53.5625 
Q 30.078125 56 35.796875 56 
Q 45.21875 56 50.046875 50.171875 
Q 54.890625 44.34375 54.890625 33.015625 
" id="BitstreamVeraSans-Roman-68"/>
       <path d="M 4.890625 31.390625 
L 31.203125 31.390625 
L 31.203125 23.390625 
L 4.890625 23.390625 
z
" id="BitstreamVeraSans-Roman-2d"/>
      </defs>
      <g transform="translate(241.6975 450.873)rotate(-90.0)scale(0.08 -0.08)">
       <use xlink:href="#BitstreamVeraSans-Roman-57"/>
       <use x="98.845703125" xlink:href="#BitstreamVeraSans-Roman-69"/>
       <use x="126.62890625" xlink:href="#BitstreamVeraSans-Roman-6e"/>
       <use x="190.0078125" xlink:href="#BitstreamVeraSans-Roman-2d"/>
       <use x="226.091796875" xlink:href="#BitstreamVeraSans-Roman-53"/>
       <use x="289.568359375" xlink:href="#BitstreamVeraSans-Roman-74"/>
       <use x="328.77734375" xlink:href="#BitstreamVeraSans-Roman-61"/>
       <use x="390.056640625" xlink:href="#BitstreamVeraSans-Roman-79"/>
       <use x="449.236328125" xlink:href="#BitstreamVeraSans-Roman-20"/>
       <use x="481.0234375" xlink:href="#BitstreamVeraSans-Roman-4c"/>
       <use x="536.720703125" xlink:href="#BitstreamVeraSans-Roman-6f"/>
       <use x="597.90234375" xlink:href="#BitstreamVeraSans-Roman-73"/>
       <use x="650.001953125" xlink:href="#BitstreamVeraSans-Roman-65"/>
       <use x="711.525390625" xlink:href="#BitstreamVeraSans-Roman-2d"/>
       <use x="747.609375" xlink:href="#BitstreamVeraSans-Roman-53"/>
       <use x="811.0859375" xlink:href="#BitstreamVeraSans-Roman-68"/>
       <use x="874.46484375" xlink:href="#BitstreamVeraSans-Roman-69"/>
       <use x="902.248046875" xlink:href="#BitstreamVeraSans-Roman-66"/>
       <use x="937.4375" xlink:href="#BitstreamVeraSans-Roman-74"/>
      </g>
     </g>
    </g>
    <g id="xtick_4">
     <g id="line2d_7">
      <g>
       <use style="stroke:#000000;stroke-width:0.5;" x="313.89" xlink:href="#m0302d431c9" y="368.74175"/>
      </g>
     </g>
     <g id="line2d_8">
      <g>
       <use style="stroke:#000000;stroke-width:0.5;" x="313.89" xlink:href="#mc00582de46" y="23.14175"/>
      </g>
     </g>
     <g id="text_4">
      <!-- Tit For Tat -->
      <g transform="translate(316.0975 413.75425)rotate(-90.0)scale(0.08 -0.08)">
       <use xlink:href="#BitstreamVeraSans-Roman-54"/>
       <use x="61.037109375" xlink:href="#BitstreamVeraSans-Roman-69"/>
       <use x="88.8203125" xlink:href="#BitstreamVeraSans-Roman-74"/>
       <use x="128.029296875" xlink:href="#BitstreamVeraSans-Roman-20"/>
       <use x="159.81640625" xlink:href="#BitstreamVeraSans-Roman-46"/>
       <use x="217.2890625" xlink:href="#BitstreamVeraSans-Roman-6f"/>
       <use x="278.470703125" xlink:href="#BitstreamVeraSans-Roman-72"/>
       <use x="319.583984375" xlink:href="#BitstreamVeraSans-Roman-20"/>
       <use x="351.37109375" xlink:href="#BitstreamVeraSans-Roman-54"/>
       <use x="412.205078125" xlink:href="#BitstreamVeraSans-Roman-61"/>
       <use x="473.484375" xlink:href="#BitstreamVeraSans-Roman-74"/>
      </g>
     </g>
    </g>
    <g id="xtick_5">
     <g id="line2d_9">
      <g>
       <use style="stroke:#000000;stroke-width:0.5;" x="388.29" xlink:href="#m0302d431c9" y="368.74175"/>
      </g>
     </g>
     <g id="line2d_10">
      <g>
       <use style="stroke:#000000;stroke-width:0.5;" x="388.29" xlink:href="#mc00582de46" y="23.14175"/>
      </g>
     </g>
     <g id="text_5">
      <!-- Bully -->
      <defs>
       <path d="M 9.421875 75.984375 
L 18.40625 75.984375 
L 18.40625 0 
L 9.421875 0 
z
" id="BitstreamVeraSans-Roman-6c"/>
       <path d="M 19.671875 34.8125 
L 19.671875 8.109375 
L 35.5 8.109375 
Q 43.453125 8.109375 47.28125 11.40625 
Q 51.125 14.703125 51.125 21.484375 
Q 51.125 28.328125 47.28125 31.5625 
Q 43.453125 34.8125 35.5 34.8125 
z
M 19.671875 64.796875 
L 19.671875 42.828125 
L 34.28125 42.828125 
Q 41.5 42.828125 45.03125 45.53125 
Q 48.578125 48.25 48.578125 53.8125 
Q 48.578125 59.328125 45.03125 62.0625 
Q 41.5 64.796875 34.28125 64.796875 
z
M 9.8125 72.90625 
L 35.015625 72.90625 
Q 46.296875 72.90625 52.390625 68.21875 
Q 58.5 63.53125 58.5 54.890625 
Q 58.5 48.1875 55.375 44.234375 
Q 52.25 40.28125 46.1875 39.3125 
Q 53.46875 37.75 57.5 32.78125 
Q 61.53125 27.828125 61.53125 20.40625 
Q 61.53125 10.640625 54.890625 5.3125 
Q 48.25 0 35.984375 0 
L 9.8125 0 
z
" id="BitstreamVeraSans-Roman-42"/>
      </defs>
      <g transform="translate(390.4975 392.4805)rotate(-90.0)scale(0.08 -0.08)">
       <use xlink:href="#BitstreamVeraSans-Roman-42"/>
       <use x="68.603515625" xlink:href="#BitstreamVeraSans-Roman-75"/>
       <use x="131.982421875" xlink:href="#BitstreamVeraSans-Roman-6c"/>
       <use x="159.765625" xlink:href="#BitstreamVeraSans-Roman-6c"/>
       <use x="187.548828125" xlink:href="#BitstreamVeraSans-Roman-79"/>
      </g>
     </g>
    </g>
    <g id="xtick_6">
     <g id="line2d_11">
      <g>
       <use style="stroke:#000000;stroke-width:0.5;" x="462.69" xlink:href="#m0302d431c9" y="368.74175"/>
      </g>
     </g>
     <g id="line2d_12">
      <g>
       <use style="stroke:#000000;stroke-width:0.5;" x="462.69" xlink:href="#mc00582de46" y="23.14175"/>
      </g>
     </g>
     <g id="text_6">
      <!-- Anti Tit For Tat -->
      <defs>
       <path d="M 34.1875 63.1875 
L 20.796875 26.90625 
L 47.609375 26.90625 
z
M 28.609375 72.90625 
L 39.796875 72.90625 
L 67.578125 0 
L 57.328125 0 
L 50.6875 18.703125 
L 17.828125 18.703125 
L 11.1875 0 
L 0.78125 0 
z
" id="BitstreamVeraSans-Roman-41"/>
      </defs>
      <g transform="translate(464.8975 432.198)rotate(-90.0)scale(0.08 -0.08)">
       <use xlink:href="#BitstreamVeraSans-Roman-41"/>
       <use x="68.408203125" xlink:href="#BitstreamVeraSans-Roman-6e"/>
       <use x="131.787109375" xlink:href="#BitstreamVeraSans-Roman-74"/>
       <use x="170.99609375" xlink:href="#BitstreamVeraSans-Roman-69"/>
       <use x="198.779296875" xlink:href="#BitstreamVeraSans-Roman-20"/>
       <use x="230.56640625" xlink:href="#BitstreamVeraSans-Roman-54"/>
       <use x="291.603515625" xlink:href="#BitstreamVeraSans-Roman-69"/>
       <use x="319.38671875" xlink:href="#BitstreamVeraSans-Roman-74"/>
       <use x="358.595703125" xlink:href="#BitstreamVeraSans-Roman-20"/>
       <use x="390.3828125" xlink:href="#BitstreamVeraSans-Roman-46"/>
       <use x="447.85546875" xlink:href="#BitstreamVeraSans-Roman-6f"/>
       <use x="509.037109375" xlink:href="#BitstreamVeraSans-Roman-72"/>
       <use x="550.150390625" xlink:href="#BitstreamVeraSans-Roman-20"/>
       <use x="581.9375" xlink:href="#BitstreamVeraSans-Roman-54"/>
       <use x="642.771484375" xlink:href="#BitstreamVeraSans-Roman-61"/>
       <use x="704.05078125" xlink:href="#BitstreamVeraSans-Roman-74"/>
      </g>
     </g>
    </g>
    <g id="xtick_7">
     <g id="line2d_13">
      <g>
       <use style="stroke:#000000;stroke-width:0.5;" x="537.09" xlink:href="#m0302d431c9" y="368.74175"/>
      </g>
     </g>
     <g id="line2d_14">
      <g>
       <use style="stroke:#000000;stroke-width:0.5;" x="537.09" xlink:href="#mc00582de46" y="23.14175"/>
      </g>
     </g>
     <g id="text_7">
      <!-- Alternator -->
      <g transform="translate(539.2975 413.0755)rotate(-90.0)scale(0.08 -0.08)">
       <use xlink:href="#BitstreamVeraSans-Roman-41"/>
       <use x="68.408203125" xlink:href="#BitstreamVeraSans-Roman-6c"/>
       <use x="96.19140625" xlink:href="#BitstreamVeraSans-Roman-74"/>
       <use x="135.400390625" xlink:href="#BitstreamVeraSans-Roman-65"/>
       <use x="196.923828125" xlink:href="#BitstreamVeraSans-Roman-72"/>
       <use x="238.021484375" xlink:href="#BitstreamVeraSans-Roman-6e"/>
       <use x="301.400390625" xlink:href="#BitstreamVeraSans-Roman-61"/>
       <use x="362.6796875" xlink:href="#BitstreamVeraSans-Roman-74"/>
       <use x="401.888671875" xlink:href="#BitstreamVeraSans-Roman-6f"/>
       <use x="463.0703125" xlink:href="#BitstreamVeraSans-Roman-72"/>
      </g>
     </g>
    </g>
    <g id="xtick_8">
     <g id="line2d_15">
      <g>
       <use style="stroke:#000000;stroke-width:0.5;" x="611.49" xlink:href="#m0302d431c9" y="368.74175"/>
      </g>
     </g>
     <g id="line2d_16">
      <g>
       <use style="stroke:#000000;stroke-width:0.5;" x="611.49" xlink:href="#mc00582de46" y="23.14175"/>
      </g>
     </g>
     <g id="text_8">
      <!-- Cooperator -->
      <defs>
       <path d="M 64.40625 67.28125 
L 64.40625 56.890625 
Q 59.421875 61.53125 53.78125 63.8125 
Q 48.140625 66.109375 41.796875 66.109375 
Q 29.296875 66.109375 22.65625 58.46875 
Q 16.015625 50.828125 16.015625 36.375 
Q 16.015625 21.96875 22.65625 14.328125 
Q 29.296875 6.6875 41.796875 6.6875 
Q 48.140625 6.6875 53.78125 8.984375 
Q 59.421875 11.28125 64.40625 15.921875 
L 64.40625 5.609375 
Q 59.234375 2.09375 53.4375 0.328125 
Q 47.65625 -1.421875 41.21875 -1.421875 
Q 24.65625 -1.421875 15.125 8.703125 
Q 5.609375 18.84375 5.609375 36.375 
Q 5.609375 53.953125 15.125 64.078125 
Q 24.65625 74.21875 41.21875 74.21875 
Q 47.75 74.21875 53.53125 72.484375 
Q 59.328125 70.75 64.40625 67.28125 
" id="BitstreamVeraSans-Roman-43"/>
      </defs>
      <g transform="translate(613.6975 417.6305)rotate(-90.0)scale(0.08 -0.08)">
       <use xlink:href="#BitstreamVeraSans-Roman-43"/>
       <use x="69.82421875" xlink:href="#BitstreamVeraSans-Roman-6f"/>
       <use x="131.005859375" xlink:href="#BitstreamVeraSans-Roman-6f"/>
       <use x="192.1875" xlink:href="#BitstreamVeraSans-Roman-70"/>
       <use x="255.6640625" xlink:href="#BitstreamVeraSans-Roman-65"/>
       <use x="317.1875" xlink:href="#BitstreamVeraSans-Roman-72"/>
       <use x="358.30078125" xlink:href="#BitstreamVeraSans-Roman-61"/>
       <use x="419.580078125" xlink:href="#BitstreamVeraSans-Roman-74"/>
       <use x="458.7890625" xlink:href="#BitstreamVeraSans-Roman-6f"/>
       <use x="519.970703125" xlink:href="#BitstreamVeraSans-Roman-72"/>
      </g>
     </g>
    </g>
   </g>
   <g id="matplotlib.axis_2">
    <g id="ytick_1">
     <g id="line2d_17">
      <defs>
       <path d="M 0 0 
L 4 0 
" id="mc95aebb555" style="stroke:#000000;stroke-width:0.5;"/>
      </defs>
      <g>
       <use style="stroke:#000000;stroke-width:0.5;" x="16.29" xlink:href="#mc95aebb555" y="347.14175"/>
      </g>
     </g>
     <g id="line2d_18">
      <defs>
       <path d="M 0 0 
L -4 0 
" id="mdffc99c856" style="stroke:#000000;stroke-width:0.5;"/>
      </defs>
      <g>
       <use style="stroke:#000000;stroke-width:0.5;" x="685.89" xlink:href="#mdffc99c856" y="347.14175"/>
      </g>
     </g>
     <g id="text_9">
      <!-- 0 -->
      <defs>
       <path d="M 31.78125 66.40625 
Q 24.171875 66.40625 20.328125 58.90625 
Q 16.5 51.421875 16.5 36.375 
Q 16.5 21.390625 20.328125 13.890625 
Q 24.171875 6.390625 31.78125 6.390625 
Q 39.453125 6.390625 43.28125 13.890625 
Q 47.125 21.390625 47.125 36.375 
Q 47.125 51.421875 43.28125 58.90625 
Q 39.453125 66.40625 31.78125 66.40625 
M 31.78125 74.21875 
Q 44.046875 74.21875 50.515625 64.515625 
Q 56.984375 54.828125 56.984375 36.375 
Q 56.984375 17.96875 50.515625 8.265625 
Q 44.046875 -1.421875 31.78125 -1.421875 
Q 19.53125 -1.421875 13.0625 8.265625 
Q 6.59375 17.96875 6.59375 36.375 
Q 6.59375 54.828125 13.0625 64.515625 
Q 19.53125 74.21875 31.78125 74.21875 
" id="BitstreamVeraSans-Roman-30"/>
      </defs>
      <g transform="translate(7.2 349.34925)scale(0.08 -0.08)">
       <use xlink:href="#BitstreamVeraSans-Roman-30"/>
      </g>
     </g>
    </g>
    <g id="ytick_2">
     <g id="line2d_19">
      <g>
       <use style="stroke:#000000;stroke-width:0.5;" x="16.29" xlink:href="#mc95aebb555" y="303.94175"/>
      </g>
     </g>
     <g id="line2d_20">
      <g>
       <use style="stroke:#000000;stroke-width:0.5;" x="685.89" xlink:href="#mdffc99c856" y="303.94175"/>
      </g>
     </g>
     <g id="text_10">
      <!-- 1 -->
      <defs>
       <path d="M 12.40625 8.296875 
L 28.515625 8.296875 
L 28.515625 63.921875 
L 10.984375 60.40625 
L 10.984375 69.390625 
L 28.421875 72.90625 
L 38.28125 72.90625 
L 38.28125 8.296875 
L 54.390625 8.296875 
L 54.390625 0 
L 12.40625 0 
z
" id="BitstreamVeraSans-Roman-31"/>
      </defs>
      <g transform="translate(7.2 306.14925)scale(0.08 -0.08)">
       <use xlink:href="#BitstreamVeraSans-Roman-31"/>
      </g>
     </g>
    </g>
    <g id="ytick_3">
     <g id="line2d_21">
      <g>
       <use style="stroke:#000000;stroke-width:0.5;" x="16.29" xlink:href="#mc95aebb555" y="260.74175"/>
      </g>
     </g>
     <g id="line2d_22">
      <g>
       <use style="stroke:#000000;stroke-width:0.5;" x="685.89" xlink:href="#mdffc99c856" y="260.74175"/>
      </g>
     </g>
     <g id="text_11">
      <!-- 2 -->
      <defs>
       <path d="M 19.1875 8.296875 
L 53.609375 8.296875 
L 53.609375 0 
L 7.328125 0 
L 7.328125 8.296875 
Q 12.9375 14.109375 22.625 23.890625 
Q 32.328125 33.6875 34.8125 36.53125 
Q 39.546875 41.84375 41.421875 45.53125 
Q 43.3125 49.21875 43.3125 52.78125 
Q 43.3125 58.59375 39.234375 62.25 
Q 35.15625 65.921875 28.609375 65.921875 
Q 23.96875 65.921875 18.8125 64.3125 
Q 13.671875 62.703125 7.8125 59.421875 
L 7.8125 69.390625 
Q 13.765625 71.78125 18.9375 73 
Q 24.125 74.21875 28.421875 74.21875 
Q 39.75 74.21875 46.484375 68.546875 
Q 53.21875 62.890625 53.21875 53.421875 
Q 53.21875 48.921875 51.53125 44.890625 
Q 49.859375 40.875 45.40625 35.40625 
Q 44.1875 33.984375 37.640625 27.21875 
Q 31.109375 20.453125 19.1875 8.296875 
" id="BitstreamVeraSans-Roman-32"/>
      </defs>
      <g transform="translate(7.2 262.94925)scale(0.08 -0.08)">
       <use xlink:href="#BitstreamVeraSans-Roman-32"/>
      </g>
     </g>
    </g>
    <g id="ytick_4">
     <g id="line2d_23">
      <g>
       <use style="stroke:#000000;stroke-width:0.5;" x="16.29" xlink:href="#mc95aebb555" y="217.54175"/>
      </g>
     </g>
     <g id="line2d_24">
      <g>
       <use style="stroke:#000000;stroke-width:0.5;" x="685.89" xlink:href="#mdffc99c856" y="217.54175"/>
      </g>
     </g>
     <g id="text_12">
      <!-- 3 -->
      <defs>
       <path d="M 40.578125 39.3125 
Q 47.65625 37.796875 51.625 33 
Q 55.609375 28.21875 55.609375 21.1875 
Q 55.609375 10.40625 48.1875 4.484375 
Q 40.765625 -1.421875 27.09375 -1.421875 
Q 22.515625 -1.421875 17.65625 -0.515625 
Q 12.796875 0.390625 7.625 2.203125 
L 7.625 11.71875 
Q 11.71875 9.328125 16.59375 8.109375 
Q 21.484375 6.890625 26.8125 6.890625 
Q 36.078125 6.890625 40.9375 10.546875 
Q 45.796875 14.203125 45.796875 21.1875 
Q 45.796875 27.640625 41.28125 31.265625 
Q 36.765625 34.90625 28.71875 34.90625 
L 20.21875 34.90625 
L 20.21875 43.015625 
L 29.109375 43.015625 
Q 36.375 43.015625 40.234375 45.921875 
Q 44.09375 48.828125 44.09375 54.296875 
Q 44.09375 59.90625 40.109375 62.90625 
Q 36.140625 65.921875 28.71875 65.921875 
Q 24.65625 65.921875 20.015625 65.03125 
Q 15.375 64.15625 9.8125 62.3125 
L 9.8125 71.09375 
Q 15.4375 72.65625 20.34375 73.4375 
Q 25.25 74.21875 29.59375 74.21875 
Q 40.828125 74.21875 47.359375 69.109375 
Q 53.90625 64.015625 53.90625 55.328125 
Q 53.90625 49.265625 50.4375 45.09375 
Q 46.96875 40.921875 40.578125 39.3125 
" id="BitstreamVeraSans-Roman-33"/>
      </defs>
      <g transform="translate(7.2 219.74925)scale(0.08 -0.08)">
       <use xlink:href="#BitstreamVeraSans-Roman-33"/>
      </g>
     </g>
    </g>
    <g id="ytick_5">
     <g id="line2d_25">
      <g>
       <use style="stroke:#000000;stroke-width:0.5;" x="16.29" xlink:href="#mc95aebb555" y="174.34175"/>
      </g>
     </g>
     <g id="line2d_26">
      <g>
       <use style="stroke:#000000;stroke-width:0.5;" x="685.89" xlink:href="#mdffc99c856" y="174.34175"/>
      </g>
     </g>
     <g id="text_13">
      <!-- 4 -->
      <defs>
       <path d="M 37.796875 64.3125 
L 12.890625 25.390625 
L 37.796875 25.390625 
z
M 35.203125 72.90625 
L 47.609375 72.90625 
L 47.609375 25.390625 
L 58.015625 25.390625 
L 58.015625 17.1875 
L 47.609375 17.1875 
L 47.609375 0 
L 37.796875 0 
L 37.796875 17.1875 
L 4.890625 17.1875 
L 4.890625 26.703125 
z
" id="BitstreamVeraSans-Roman-34"/>
      </defs>
      <g transform="translate(7.2 176.54925)scale(0.08 -0.08)">
       <use xlink:href="#BitstreamVeraSans-Roman-34"/>
      </g>
     </g>
    </g>
    <g id="ytick_6">
     <g id="line2d_27">
      <g>
       <use style="stroke:#000000;stroke-width:0.5;" x="16.29" xlink:href="#mc95aebb555" y="131.14175"/>
      </g>
     </g>
     <g id="line2d_28">
      <g>
       <use style="stroke:#000000;stroke-width:0.5;" x="685.89" xlink:href="#mdffc99c856" y="131.14175"/>
      </g>
     </g>
     <g id="text_14">
      <!-- 5 -->
      <defs>
       <path d="M 10.796875 72.90625 
L 49.515625 72.90625 
L 49.515625 64.59375 
L 19.828125 64.59375 
L 19.828125 46.734375 
Q 21.96875 47.46875 24.109375 47.828125 
Q 26.265625 48.1875 28.421875 48.1875 
Q 40.625 48.1875 47.75 41.5 
Q 54.890625 34.8125 54.890625 23.390625 
Q 54.890625 11.625 47.5625 5.09375 
Q 40.234375 -1.421875 26.90625 -1.421875 
Q 22.3125 -1.421875 17.546875 -0.640625 
Q 12.796875 0.140625 7.71875 1.703125 
L 7.71875 11.625 
Q 12.109375 9.234375 16.796875 8.0625 
Q 21.484375 6.890625 26.703125 6.890625 
Q 35.15625 6.890625 40.078125 11.328125 
Q 45.015625 15.765625 45.015625 23.390625 
Q 45.015625 31 40.078125 35.4375 
Q 35.15625 39.890625 26.703125 39.890625 
Q 22.75 39.890625 18.8125 39.015625 
Q 14.890625 38.140625 10.796875 36.28125 
z
" id="BitstreamVeraSans-Roman-35"/>
      </defs>
      <g transform="translate(7.2 133.34925)scale(0.08 -0.08)">
       <use xlink:href="#BitstreamVeraSans-Roman-35"/>
      </g>
     </g>
    </g>
    <g id="ytick_7">
     <g id="line2d_29">
      <g>
       <use style="stroke:#000000;stroke-width:0.5;" x="16.29" xlink:href="#mc95aebb555" y="87.94175"/>
      </g>
     </g>
     <g id="line2d_30">
      <g>
       <use style="stroke:#000000;stroke-width:0.5;" x="685.89" xlink:href="#mdffc99c856" y="87.94175"/>
      </g>
     </g>
     <g id="text_15">
      <!-- 6 -->
      <defs>
       <path d="M 33.015625 40.375 
Q 26.375 40.375 22.484375 35.828125 
Q 18.609375 31.296875 18.609375 23.390625 
Q 18.609375 15.53125 22.484375 10.953125 
Q 26.375 6.390625 33.015625 6.390625 
Q 39.65625 6.390625 43.53125 10.953125 
Q 47.40625 15.53125 47.40625 23.390625 
Q 47.40625 31.296875 43.53125 35.828125 
Q 39.65625 40.375 33.015625 40.375 
M 52.59375 71.296875 
L 52.59375 62.3125 
Q 48.875 64.0625 45.09375 64.984375 
Q 41.3125 65.921875 37.59375 65.921875 
Q 27.828125 65.921875 22.671875 59.328125 
Q 17.53125 52.734375 16.796875 39.40625 
Q 19.671875 43.65625 24.015625 45.921875 
Q 28.375 48.1875 33.59375 48.1875 
Q 44.578125 48.1875 50.953125 41.515625 
Q 57.328125 34.859375 57.328125 23.390625 
Q 57.328125 12.15625 50.6875 5.359375 
Q 44.046875 -1.421875 33.015625 -1.421875 
Q 20.359375 -1.421875 13.671875 8.265625 
Q 6.984375 17.96875 6.984375 36.375 
Q 6.984375 53.65625 15.1875 63.9375 
Q 23.390625 74.21875 37.203125 74.21875 
Q 40.921875 74.21875 44.703125 73.484375 
Q 48.484375 72.75 52.59375 71.296875 
" id="BitstreamVeraSans-Roman-36"/>
      </defs>
      <g transform="translate(7.2 90.14925)scale(0.08 -0.08)">
       <use xlink:href="#BitstreamVeraSans-Roman-36"/>
      </g>
     </g>
    </g>
    <g id="ytick_8">
     <g id="line2d_31">
      <g>
       <use style="stroke:#000000;stroke-width:0.5;" x="16.29" xlink:href="#mc95aebb555" y="44.74175"/>
      </g>
     </g>
     <g id="line2d_32">
      <g>
       <use style="stroke:#000000;stroke-width:0.5;" x="685.89" xlink:href="#mdffc99c856" y="44.74175"/>
      </g>
     </g>
     <g id="text_16">
      <!-- 7 -->
      <defs>
       <path d="M 8.203125 72.90625 
L 55.078125 72.90625 
L 55.078125 68.703125 
L 28.609375 0 
L 18.3125 0 
L 43.21875 64.59375 
L 8.203125 64.59375 
z
" id="BitstreamVeraSans-Roman-37"/>
      </defs>
      <g transform="translate(7.2 46.94925)scale(0.08 -0.08)">
       <use xlink:href="#BitstreamVeraSans-Roman-37"/>
      </g>
     </g>
    </g>
   </g>
   <g id="text_17">
    <!-- Wins. Turns: 200, Repetitions: 100, Strategies: 8. -->
    <defs>
     <path d="M 11.71875 12.40625 
L 22.015625 12.40625 
L 22.015625 4 
L 14.015625 -11.625 
L 7.71875 -11.625 
L 11.71875 4 
z
" id="BitstreamVeraSans-Roman-2c"/>
     <path d="M 10.6875 12.40625 
L 21 12.40625 
L 21 0 
L 10.6875 0 
z
" id="BitstreamVeraSans-Roman-2e"/>
     <path d="M 11.71875 12.40625 
L 22.015625 12.40625 
L 22.015625 0 
L 11.71875 0 
z
M 11.71875 51.703125 
L 22.015625 51.703125 
L 22.015625 39.3125 
L 11.71875 39.3125 
z
" id="BitstreamVeraSans-Roman-3a"/>
     <path d="M 31.78125 34.625 
Q 24.75 34.625 20.71875 30.859375 
Q 16.703125 27.09375 16.703125 20.515625 
Q 16.703125 13.921875 20.71875 10.15625 
Q 24.75 6.390625 31.78125 6.390625 
Q 38.8125 6.390625 42.859375 10.171875 
Q 46.921875 13.96875 46.921875 20.515625 
Q 46.921875 27.09375 42.890625 30.859375 
Q 38.875 34.625 31.78125 34.625 
M 21.921875 38.8125 
Q 15.578125 40.375 12.03125 44.71875 
Q 8.5 49.078125 8.5 55.328125 
Q 8.5 64.0625 14.71875 69.140625 
Q 20.953125 74.21875 31.78125 74.21875 
Q 42.671875 74.21875 48.875 69.140625 
Q 55.078125 64.0625 55.078125 55.328125 
Q 55.078125 49.078125 51.53125 44.71875 
Q 48 40.375 41.703125 38.8125 
Q 48.828125 37.15625 52.796875 32.3125 
Q 56.78125 27.484375 56.78125 20.515625 
Q 56.78125 9.90625 50.3125 4.234375 
Q 43.84375 -1.421875 31.78125 -1.421875 
Q 19.734375 -1.421875 13.25 4.234375 
Q 6.78125 9.90625 6.78125 20.515625 
Q 6.78125 27.484375 10.78125 32.3125 
Q 14.796875 37.15625 21.921875 38.8125 
M 18.3125 54.390625 
Q 18.3125 48.734375 21.84375 45.5625 
Q 25.390625 42.390625 31.78125 42.390625 
Q 38.140625 42.390625 41.71875 45.5625 
Q 45.3125 48.734375 45.3125 54.390625 
Q 45.3125 60.0625 41.71875 63.234375 
Q 38.140625 66.40625 31.78125 66.40625 
Q 25.390625 66.40625 21.84375 63.234375 
Q 18.3125 60.0625 18.3125 54.390625 
" id="BitstreamVeraSans-Roman-38"/>
     <path d="M 45.40625 27.984375 
Q 45.40625 37.75 41.375 43.109375 
Q 37.359375 48.484375 30.078125 48.484375 
Q 22.859375 48.484375 18.828125 43.109375 
Q 14.796875 37.75 14.796875 27.984375 
Q 14.796875 18.265625 18.828125 12.890625 
Q 22.859375 7.515625 30.078125 7.515625 
Q 37.359375 7.515625 41.375 12.890625 
Q 45.40625 18.265625 45.40625 27.984375 
M 54.390625 6.78125 
Q 54.390625 -7.171875 48.1875 -13.984375 
Q 42 -20.796875 29.203125 -20.796875 
Q 24.46875 -20.796875 20.265625 -20.09375 
Q 16.0625 -19.390625 12.109375 -17.921875 
L 12.109375 -9.1875 
Q 16.0625 -11.328125 19.921875 -12.34375 
Q 23.78125 -13.375 27.78125 -13.375 
Q 36.625 -13.375 41.015625 -8.765625 
Q 45.40625 -4.15625 45.40625 5.171875 
L 45.40625 9.625 
Q 42.625 4.78125 38.28125 2.390625 
Q 33.9375 0 27.875 0 
Q 17.828125 0 11.671875 7.65625 
Q 5.515625 15.328125 5.515625 27.984375 
Q 5.515625 40.671875 11.671875 48.328125 
Q 17.828125 56 27.875 56 
Q 33.9375 56 38.28125 53.609375 
Q 42.625 51.21875 45.40625 46.390625 
L 45.40625 54.6875 
L 54.390625 54.6875 
z
" id="BitstreamVeraSans-Roman-67"/>
     <path d="M 44.390625 34.1875 
Q 47.5625 33.109375 50.5625 29.59375 
Q 53.5625 26.078125 56.59375 19.921875 
L 66.609375 0 
L 56 0 
L 46.6875 18.703125 
Q 43.0625 26.03125 39.671875 28.421875 
Q 36.28125 30.8125 30.421875 30.8125 
L 19.671875 30.8125 
L 19.671875 0 
L 9.8125 0 
L 9.8125 72.90625 
L 32.078125 72.90625 
Q 44.578125 72.90625 50.734375 67.671875 
Q 56.890625 62.453125 56.890625 51.90625 
Q 56.890625 45.015625 53.6875 40.46875 
Q 50.484375 35.9375 44.390625 34.1875 
M 19.671875 64.796875 
L 19.671875 38.921875 
L 32.078125 38.921875 
Q 39.203125 38.921875 42.84375 42.21875 
Q 46.484375 45.515625 46.484375 51.90625 
Q 46.484375 58.296875 42.84375 61.546875 
Q 39.203125 64.796875 32.078125 64.796875 
z
" id="BitstreamVeraSans-Roman-52"/>
    </defs>
    <g transform="translate(173.651625 18.14175)scale(0.144 -0.144)">
     <use xlink:href="#BitstreamVeraSans-Roman-57"/>
     <use x="98.845703125" xlink:href="#BitstreamVeraSans-Roman-69"/>
     <use x="126.62890625" xlink:href="#BitstreamVeraSans-Roman-6e"/>
     <use x="190.0078125" xlink:href="#BitstreamVeraSans-Roman-73"/>
     <use x="242.107421875" xlink:href="#BitstreamVeraSans-Roman-2e"/>
     <use x="273.89453125" xlink:href="#BitstreamVeraSans-Roman-20"/>
     <use x="305.681640625" xlink:href="#BitstreamVeraSans-Roman-54"/>
     <use x="366.53125" xlink:href="#BitstreamVeraSans-Roman-75"/>
     <use x="429.91015625" xlink:href="#BitstreamVeraSans-Roman-72"/>
     <use x="471.0078125" xlink:href="#BitstreamVeraSans-Roman-6e"/>
     <use x="534.38671875" xlink:href="#BitstreamVeraSans-Roman-73"/>
     <use x="586.486328125" xlink:href="#BitstreamVeraSans-Roman-3a"/>
     <use x="620.177734375" xlink:href="#BitstreamVeraSans-Roman-20"/>
     <use x="651.96484375" xlink:href="#BitstreamVeraSans-Roman-32"/>
     <use x="715.587890625" xlink:href="#BitstreamVeraSans-Roman-30"/>
     <use x="779.2109375" xlink:href="#BitstreamVeraSans-Roman-30"/>
     <use x="842.833984375" xlink:href="#BitstreamVeraSans-Roman-2c"/>
     <use x="874.62109375" xlink:href="#BitstreamVeraSans-Roman-20"/>
     <use x="906.408203125" xlink:href="#BitstreamVeraSans-Roman-52"/>
     <use x="975.828125" xlink:href="#BitstreamVeraSans-Roman-65"/>
     <use x="1037.3515625" xlink:href="#BitstreamVeraSans-Roman-70"/>
     <use x="1100.828125" xlink:href="#BitstreamVeraSans-Roman-65"/>
     <use x="1162.3515625" xlink:href="#BitstreamVeraSans-Roman-74"/>
     <use x="1201.560546875" xlink:href="#BitstreamVeraSans-Roman-69"/>
     <use x="1229.34375" xlink:href="#BitstreamVeraSans-Roman-74"/>
     <use x="1268.552734375" xlink:href="#BitstreamVeraSans-Roman-69"/>
     <use x="1296.3359375" xlink:href="#BitstreamVeraSans-Roman-6f"/>
     <use x="1357.517578125" xlink:href="#BitstreamVeraSans-Roman-6e"/>
     <use x="1420.896484375" xlink:href="#BitstreamVeraSans-Roman-73"/>
     <use x="1472.99609375" xlink:href="#BitstreamVeraSans-Roman-3a"/>
     <use x="1506.6875" xlink:href="#BitstreamVeraSans-Roman-20"/>
     <use x="1538.474609375" xlink:href="#BitstreamVeraSans-Roman-31"/>
     <use x="1602.09765625" xlink:href="#BitstreamVeraSans-Roman-30"/>
     <use x="1665.720703125" xlink:href="#BitstreamVeraSans-Roman-30"/>
     <use x="1729.34375" xlink:href="#BitstreamVeraSans-Roman-2c"/>
     <use x="1761.130859375" xlink:href="#BitstreamVeraSans-Roman-20"/>
     <use x="1792.91796875" xlink:href="#BitstreamVeraSans-Roman-53"/>
     <use x="1856.39453125" xlink:href="#BitstreamVeraSans-Roman-74"/>
     <use x="1895.603515625" xlink:href="#BitstreamVeraSans-Roman-72"/>
     <use x="1936.716796875" xlink:href="#BitstreamVeraSans-Roman-61"/>
     <use x="1997.99609375" xlink:href="#BitstreamVeraSans-Roman-74"/>
     <use x="2037.205078125" xlink:href="#BitstreamVeraSans-Roman-65"/>
     <use x="2098.728515625" xlink:href="#BitstreamVeraSans-Roman-67"/>
     <use x="2162.205078125" xlink:href="#BitstreamVeraSans-Roman-69"/>
     <use x="2189.98828125" xlink:href="#BitstreamVeraSans-Roman-65"/>
     <use x="2251.51171875" xlink:href="#BitstreamVeraSans-Roman-73"/>
     <use x="2303.611328125" xlink:href="#BitstreamVeraSans-Roman-3a"/>
     <use x="2337.302734375" xlink:href="#BitstreamVeraSans-Roman-20"/>
     <use x="2369.08984375" xlink:href="#BitstreamVeraSans-Roman-38"/>
     <use x="2432.712890625" xlink:href="#BitstreamVeraSans-Roman-2e"/>
    </g>
   </g>
  </g>
 </g>
 <defs>
  <clipPath id="pa2eaae1c98">
   <rect height="345.6" width="669.6" x="16.29" y="23.14175"/>
  </clipPath>
 </defs>
</svg>
