<?xml version="1.0" encoding="utf-8" standalone="no"?>
<!DOCTYPE svg PUBLIC "-//W3C//DTD SVG 1.1//EN"
  "http://www.w3.org/Graphics/SVG/1.1/DTD/svg11.dtd">
<!-- Created with matplotlib (http://matplotlib.org/) -->
<svg height="465pt" version="1.1" viewBox="0 0 700 465" width="700pt" xmlns="http://www.w3.org/2000/svg" xmlns:xlink="http://www.w3.org/1999/xlink">
 <defs>
  <style type="text/css">
*{stroke-linecap:butt;stroke-linejoin:round;stroke-miterlimit:100000;}
  </style>
 </defs>
 <g id="figure_1">
  <g id="patch_1">
   <path d="M 0 465.868 
L 700.7225 465.868 
L 700.7225 0 
L 0 0 
z
" style="fill:#ffffff;"/>
  </g>
  <g id="axes_1">
   <g id="patch_2">
    <path d="M 23.9225 368.74175 
L 693.5225 368.74175 
L 693.5225 23.14175 
L 23.9225 23.14175 
z
" style="fill:#ffffff;"/>
   </g>
   <g id="PolyCollection_1">
    <defs>
     <path d="M 114.714039 -389.963653 
L 81.930961 -389.963653 
L 81.839789 -390.023947 
L 81.750583 -390.084242 
L 81.663349 -390.144536 
L 81.578093 -390.204831 
L 81.494819 -390.265125 
L 81.413531 -390.32542 
L 81.334231 -390.385714 
L 81.256919 -390.446009 
L 81.181597 -390.506303 
L 81.108262 -390.566598 
L 81.036912 -390.626892 
L 80.967545 -390.687187 
L 80.900156 -390.747481 
L 80.834741 -390.807775 
L 80.771294 -390.86807 
L 80.709809 -390.928364 
L 80.650278 -390.988659 
L 80.592696 -391.048953 
L 80.537053 -391.109248 
L 80.483341 -391.169542 
L 80.43155 -391.229837 
L 80.381672 -391.290131 
L 80.333697 -391.350426 
L 80.287614 -391.41072 
L 80.243414 -391.471015 
L 80.201087 -391.531309 
L 80.160621 -391.591604 
L 80.122007 -391.651898 
L 80.085234 -391.712193 
L 80.050291 -391.772487 
L 80.017169 -391.832782 
L 79.985857 -391.893076 
L 79.956345 -391.953371 
L 79.928625 -392.013665 
L 79.902686 -392.07396 
L 79.87852 -392.134254 
L 79.856118 -392.194549 
L 79.835472 -392.254843 
L 79.816574 -392.315138 
L 79.799419 -392.375432 
L 79.783998 -392.435727 
L 79.770306 -392.496021 
L 79.758337 -392.556316 
L 79.748088 -392.61661 
L 79.739553 -392.676905 
L 79.732729 -392.737199 
L 79.727613 -392.797494 
L 79.724204 -392.857788 
L 79.7225 -392.918083 
L 79.7225 -392.978377 
L 79.724204 -393.038672 
L 79.727613 -393.098966 
L 79.732729 -393.159261 
L 79.739553 -393.219555 
L 79.748088 -393.27985 
L 79.758337 -393.340144 
L 79.770306 -393.400439 
L 79.783998 -393.460733 
L 79.799419 -393.521028 
L 79.816574 -393.581322 
L 79.835472 -393.641617 
L 79.856118 -393.701911 
L 79.87852 -393.762206 
L 79.902686 -393.8225 
L 79.928625 -393.882795 
L 79.956345 -393.943089 
L 79.985857 -394.003384 
L 80.017169 -394.063678 
L 80.050291 -394.123973 
L 80.085234 -394.184267 
L 80.122007 -394.244562 
L 80.160621 -394.304856 
L 80.201087 -394.365151 
L 80.243414 -394.425445 
L 80.287614 -394.48574 
L 80.333697 -394.546034 
L 80.381672 -394.606329 
L 80.43155 -394.666623 
L 80.483341 -394.726918 
L 80.537053 -394.787212 
L 80.592696 -394.847507 
L 80.650278 -394.907801 
L 80.709809 -394.968095 
L 80.771294 -395.02839 
L 80.834741 -395.088684 
L 80.900156 -395.148979 
L 80.967545 -395.209273 
L 81.036912 -395.269568 
L 81.108262 -395.329862 
L 81.181597 -395.390157 
L 81.256919 -395.450451 
L 81.334231 -395.510746 
L 81.413531 -395.57104 
L 81.494819 -395.631335 
L 81.578093 -395.691629 
L 81.663349 -395.751924 
L 81.750583 -395.812218 
L 81.839789 -395.872513 
L 81.930961 -395.932807 
L 114.714039 -395.932807 
L 114.714039 -395.932807 
L 114.805211 -395.872513 
L 114.894417 -395.812218 
L 114.981651 -395.751924 
L 115.066907 -395.691629 
L 115.150181 -395.631335 
L 115.231469 -395.57104 
L 115.310769 -395.510746 
L 115.388081 -395.450451 
L 115.463403 -395.390157 
L 115.536738 -395.329862 
L 115.608088 -395.269568 
L 115.677455 -395.209273 
L 115.744844 -395.148979 
L 115.810259 -395.088684 
L 115.873706 -395.02839 
L 115.935191 -394.968095 
L 115.994722 -394.907801 
L 116.052304 -394.847507 
L 116.107947 -394.787212 
L 116.161659 -394.726918 
L 116.21345 -394.666623 
L 116.263328 -394.606329 
L 116.311303 -394.546034 
L 116.357386 -394.48574 
L 116.401586 -394.425445 
L 116.443913 -394.365151 
L 116.484379 -394.304856 
L 116.522993 -394.244562 
L 116.559766 -394.184267 
L 116.594709 -394.123973 
L 116.627831 -394.063678 
L 116.659143 -394.003384 
L 116.688655 -393.943089 
L 116.716375 -393.882795 
L 116.742314 -393.8225 
L 116.76648 -393.762206 
L 116.788882 -393.701911 
L 116.809528 -393.641617 
L 116.828426 -393.581322 
L 116.845581 -393.521028 
L 116.861002 -393.460733 
L 116.874694 -393.400439 
L 116.886663 -393.340144 
L 116.896912 -393.27985 
L 116.905447 -393.219555 
L 116.912271 -393.159261 
L 116.917387 -393.098966 
L 116.920796 -393.038672 
L 116.9225 -392.978377 
L 116.9225 -392.918083 
L 116.920796 -392.857788 
L 116.917387 -392.797494 
L 116.912271 -392.737199 
L 116.905447 -392.676905 
L 116.896912 -392.61661 
L 116.886663 -392.556316 
L 116.874694 -392.496021 
L 116.861002 -392.435727 
L 116.845581 -392.375432 
L 116.828426 -392.315138 
L 116.809528 -392.254843 
L 116.788882 -392.194549 
L 116.76648 -392.134254 
L 116.742314 -392.07396 
L 116.716375 -392.013665 
L 116.688655 -391.953371 
L 116.659143 -391.893076 
L 116.627831 -391.832782 
L 116.594709 -391.772487 
L 116.559766 -391.712193 
L 116.522993 -391.651898 
L 116.484379 -391.591604 
L 116.443913 -391.531309 
L 116.401586 -391.471015 
L 116.357386 -391.41072 
L 116.311303 -391.350426 
L 116.263328 -391.290131 
L 116.21345 -391.229837 
L 116.161659 -391.169542 
L 116.107947 -391.109248 
L 116.052304 -391.048953 
L 115.994722 -390.988659 
L 115.935191 -390.928364 
L 115.873706 -390.86807 
L 115.810259 -390.807775 
L 115.744844 -390.747481 
L 115.677455 -390.687187 
L 115.608088 -390.626892 
L 115.536738 -390.566598 
L 115.463403 -390.506303 
L 115.388081 -390.446009 
L 115.310769 -390.385714 
L 115.231469 -390.32542 
L 115.150181 -390.265125 
L 115.066907 -390.204831 
L 114.981651 -390.144536 
L 114.894417 -390.084242 
L 114.805211 -390.023947 
L 114.714039 -389.963653 
z
" id="m767e4b62b4" style="stroke:#000000;stroke-opacity:0.3;"/>
    </defs>
    <g clip-path="url(#p690d35810b)">
     <use style="fill:#bfbf00;fill-opacity:0.3;stroke:#000000;stroke-opacity:0.3;" x="0.0" xlink:href="#m767e4b62b4" y="465.868"/>
    </g>
   </g>
   <g id="PolyCollection_2">
    <defs>
     <path d="M 189.114039 -291.594821 
L 156.330961 -291.594821 
L 156.239789 -292.246782 
L 156.150583 -292.898742 
L 156.063349 -293.550702 
L 155.978093 -294.202663 
L 155.894819 -294.854623 
L 155.813531 -295.506584 
L 155.734231 -296.158544 
L 155.656919 -296.810504 
L 155.581597 -297.462465 
L 155.508262 -298.114425 
L 155.436912 -298.766385 
L 155.367545 -299.418346 
L 155.300156 -300.070306 
L 155.234741 -300.722266 
L 155.171294 -301.374227 
L 155.109809 -302.026187 
L 155.050278 -302.678147 
L 154.992696 -303.330108 
L 154.937053 -303.982068 
L 154.883341 -304.634028 
L 154.83155 -305.285989 
L 154.781672 -305.937949 
L 154.733697 -306.58991 
L 154.687614 -307.24187 
L 154.643414 -307.89383 
L 154.601087 -308.545791 
L 154.560621 -309.197751 
L 154.522007 -309.849711 
L 154.485234 -310.501672 
L 154.450291 -311.153632 
L 154.417169 -311.805592 
L 154.385857 -312.457553 
L 154.356345 -313.109513 
L 154.328625 -313.761473 
L 154.302686 -314.413434 
L 154.27852 -315.065394 
L 154.256118 -315.717354 
L 154.235472 -316.369315 
L 154.216574 -317.021275 
L 154.199419 -317.673236 
L 154.183998 -318.325196 
L 154.170306 -318.977156 
L 154.158337 -319.629117 
L 154.148088 -320.281077 
L 154.139553 -320.933037 
L 154.132729 -321.584998 
L 154.127613 -322.236958 
L 154.124204 -322.888918 
L 154.1225 -323.540879 
L 154.1225 -324.192839 
L 154.124204 -324.844799 
L 154.127613 -325.49676 
L 154.132729 -326.14872 
L 154.139553 -326.80068 
L 154.148088 -327.452641 
L 154.158337 -328.104601 
L 154.170306 -328.756562 
L 154.183998 -329.408522 
L 154.199419 -330.060482 
L 154.216574 -330.712443 
L 154.235472 -331.364403 
L 154.256118 -332.016363 
L 154.27852 -332.668324 
L 154.302686 -333.320284 
L 154.328625 -333.972244 
L 154.356345 -334.624205 
L 154.385857 -335.276165 
L 154.417169 -335.928125 
L 154.450291 -336.580086 
L 154.485234 -337.232046 
L 154.522007 -337.884006 
L 154.560621 -338.535967 
L 154.601087 -339.187927 
L 154.643414 -339.839888 
L 154.687614 -340.491848 
L 154.733697 -341.143808 
L 154.781672 -341.795769 
L 154.83155 -342.447729 
L 154.883341 -343.099689 
L 154.937053 -343.75165 
L 154.992696 -344.40361 
L 155.050278 -345.05557 
L 155.109809 -345.707531 
L 155.171294 -346.359491 
L 155.234741 -347.011451 
L 155.300156 -347.663412 
L 155.367545 -348.315372 
L 155.436912 -348.967332 
L 155.508262 -349.619293 
L 155.581597 -350.271253 
L 155.656919 -350.923214 
L 155.734231 -351.575174 
L 155.813531 -352.227134 
L 155.894819 -352.879095 
L 155.978093 -353.531055 
L 156.063349 -354.183015 
L 156.150583 -354.834976 
L 156.239789 -355.486936 
L 156.330961 -356.138896 
L 189.114039 -356.138896 
L 189.114039 -356.138896 
L 189.205211 -355.486936 
L 189.294417 -354.834976 
L 189.381651 -354.183015 
L 189.466907 -353.531055 
L 189.550181 -352.879095 
L 189.631469 -352.227134 
L 189.710769 -351.575174 
L 189.788081 -350.923214 
L 189.863403 -350.271253 
L 189.936738 -349.619293 
L 190.008088 -348.967332 
L 190.077455 -348.315372 
L 190.144844 -347.663412 
L 190.210259 -347.011451 
L 190.273706 -346.359491 
L 190.335191 -345.707531 
L 190.394722 -345.05557 
L 190.452304 -344.40361 
L 190.507947 -343.75165 
L 190.561659 -343.099689 
L 190.61345 -342.447729 
L 190.663328 -341.795769 
L 190.711303 -341.143808 
L 190.757386 -340.491848 
L 190.801586 -339.839888 
L 190.843913 -339.187927 
L 190.884379 -338.535967 
L 190.922993 -337.884006 
L 190.959766 -337.232046 
L 190.994709 -336.580086 
L 191.027831 -335.928125 
L 191.059143 -335.276165 
L 191.088655 -334.624205 
L 191.116375 -333.972244 
L 191.142314 -333.320284 
L 191.16648 -332.668324 
L 191.188882 -332.016363 
L 191.209528 -331.364403 
L 191.228426 -330.712443 
L 191.245581 -330.060482 
L 191.261002 -329.408522 
L 191.274694 -328.756562 
L 191.286663 -328.104601 
L 191.296912 -327.452641 
L 191.305447 -326.80068 
L 191.312271 -326.14872 
L 191.317387 -325.49676 
L 191.320796 -324.844799 
L 191.3225 -324.192839 
L 191.3225 -323.540879 
L 191.320796 -322.888918 
L 191.317387 -322.236958 
L 191.312271 -321.584998 
L 191.305447 -320.933037 
L 191.296912 -320.281077 
L 191.286663 -319.629117 
L 191.274694 -318.977156 
L 191.261002 -318.325196 
L 191.245581 -317.673236 
L 191.228426 -317.021275 
L 191.209528 -316.369315 
L 191.188882 -315.717354 
L 191.16648 -315.065394 
L 191.142314 -314.413434 
L 191.116375 -313.761473 
L 191.088655 -313.109513 
L 191.059143 -312.457553 
L 191.027831 -311.805592 
L 190.994709 -311.153632 
L 190.959766 -310.501672 
L 190.922993 -309.849711 
L 190.884379 -309.197751 
L 190.843913 -308.545791 
L 190.801586 -307.89383 
L 190.757386 -307.24187 
L 190.711303 -306.58991 
L 190.663328 -305.937949 
L 190.61345 -305.285989 
L 190.561659 -304.634028 
L 190.507947 -303.982068 
L 190.452304 -303.330108 
L 190.394722 -302.678147 
L 190.335191 -302.026187 
L 190.273706 -301.374227 
L 190.210259 -300.722266 
L 190.144844 -300.070306 
L 190.077455 -299.418346 
L 190.008088 -298.766385 
L 189.936738 -298.114425 
L 189.863403 -297.462465 
L 189.788081 -296.810504 
L 189.710769 -296.158544 
L 189.631469 -295.506584 
L 189.550181 -294.854623 
L 189.466907 -294.202663 
L 189.381651 -293.550702 
L 189.294417 -292.898742 
L 189.205211 -292.246782 
L 189.114039 -291.594821 
z
" id="m4de7b296e9" style="stroke:#000000;stroke-opacity:0.3;"/>
    </defs>
    <g clip-path="url(#p690d35810b)">
     <use style="fill:#bfbf00;fill-opacity:0.3;stroke:#000000;stroke-opacity:0.3;" x="0.0" xlink:href="#m4de7b296e9" y="465.868"/>
    </g>
   </g>
   <g id="PolyCollection_3">
    <defs>
     <path d="M 263.514039 -261.471796 
L 230.730961 -261.471796 
L 230.639789 -262.509261 
L 230.550583 -263.546725 
L 230.463349 -264.58419 
L 230.378093 -265.621655 
L 230.294819 -266.659119 
L 230.213531 -267.696584 
L 230.134231 -268.734049 
L 230.056919 -269.771513 
L 229.981597 -270.808978 
L 229.908262 -271.846443 
L 229.836912 -272.883907 
L 229.767545 -273.921372 
L 229.700156 -274.958837 
L 229.634741 -275.996301 
L 229.571294 -277.033766 
L 229.509809 -278.07123 
L 229.450278 -279.108695 
L 229.392696 -280.14616 
L 229.337053 -281.183624 
L 229.283341 -282.221089 
L 229.23155 -283.258554 
L 229.181672 -284.296018 
L 229.133697 -285.333483 
L 229.087614 -286.370948 
L 229.043414 -287.408412 
L 229.001087 -288.445877 
L 228.960621 -289.483341 
L 228.922007 -290.520806 
L 228.885234 -291.558271 
L 228.850291 -292.595735 
L 228.817169 -293.6332 
L 228.785857 -294.670665 
L 228.756345 -295.708129 
L 228.728625 -296.745594 
L 228.702686 -297.783059 
L 228.67852 -298.820523 
L 228.656118 -299.857988 
L 228.635472 -300.895452 
L 228.616574 -301.932917 
L 228.599419 -302.970382 
L 228.583998 -304.007846 
L 228.570306 -305.045311 
L 228.558337 -306.082776 
L 228.548088 -307.12024 
L 228.539553 -308.157705 
L 228.532729 -309.19517 
L 228.527613 -310.232634 
L 228.524204 -311.270099 
L 228.5225 -312.307564 
L 228.5225 -313.345028 
L 228.524204 -314.382493 
L 228.527613 -315.419957 
L 228.532729 -316.457422 
L 228.539553 -317.494887 
L 228.548088 -318.532351 
L 228.558337 -319.569816 
L 228.570306 -320.607281 
L 228.583998 -321.644745 
L 228.599419 -322.68221 
L 228.616574 -323.719675 
L 228.635472 -324.757139 
L 228.656118 -325.794604 
L 228.67852 -326.832068 
L 228.702686 -327.869533 
L 228.728625 -328.906998 
L 228.756345 -329.944462 
L 228.785857 -330.981927 
L 228.817169 -332.019392 
L 228.850291 -333.056856 
L 228.885234 -334.094321 
L 228.922007 -335.131786 
L 228.960621 -336.16925 
L 229.001087 -337.206715 
L 229.043414 -338.244179 
L 229.087614 -339.281644 
L 229.133697 -340.319109 
L 229.181672 -341.356573 
L 229.23155 -342.394038 
L 229.283341 -343.431503 
L 229.337053 -344.468967 
L 229.392696 -345.506432 
L 229.450278 -346.543897 
L 229.509809 -347.581361 
L 229.571294 -348.618826 
L 229.634741 -349.656291 
L 229.700156 -350.693755 
L 229.767545 -351.73122 
L 229.836912 -352.768684 
L 229.908262 -353.806149 
L 229.981597 -354.843614 
L 230.056919 -355.881078 
L 230.134231 -356.918543 
L 230.213531 -357.956008 
L 230.294819 -358.993472 
L 230.378093 -360.030937 
L 230.463349 -361.068402 
L 230.550583 -362.105866 
L 230.639789 -363.143331 
L 230.730961 -364.180795 
L 263.514039 -364.180795 
L 263.514039 -364.180795 
L 263.605211 -363.143331 
L 263.694417 -362.105866 
L 263.781651 -361.068402 
L 263.866907 -360.030937 
L 263.950181 -358.993472 
L 264.031469 -357.956008 
L 264.110769 -356.918543 
L 264.188081 -355.881078 
L 264.263403 -354.843614 
L 264.336738 -353.806149 
L 264.408088 -352.768684 
L 264.477455 -351.73122 
L 264.544844 -350.693755 
L 264.610259 -349.656291 
L 264.673706 -348.618826 
L 264.735191 -347.581361 
L 264.794722 -346.543897 
L 264.852304 -345.506432 
L 264.907947 -344.468967 
L 264.961659 -343.431503 
L 265.01345 -342.394038 
L 265.063328 -341.356573 
L 265.111303 -340.319109 
L 265.157386 -339.281644 
L 265.201586 -338.244179 
L 265.243913 -337.206715 
L 265.284379 -336.16925 
L 265.322993 -335.131786 
L 265.359766 -334.094321 
L 265.394709 -333.056856 
L 265.427831 -332.019392 
L 265.459143 -330.981927 
L 265.488655 -329.944462 
L 265.516375 -328.906998 
L 265.542314 -327.869533 
L 265.56648 -326.832068 
L 265.588882 -325.794604 
L 265.609528 -324.757139 
L 265.628426 -323.719675 
L 265.645581 -322.68221 
L 265.661002 -321.644745 
L 265.674694 -320.607281 
L 265.686663 -319.569816 
L 265.696912 -318.532351 
L 265.705447 -317.494887 
L 265.712271 -316.457422 
L 265.717387 -315.419957 
L 265.720796 -314.382493 
L 265.7225 -313.345028 
L 265.7225 -312.307564 
L 265.720796 -311.270099 
L 265.717387 -310.232634 
L 265.712271 -309.19517 
L 265.705447 -308.157705 
L 265.696912 -307.12024 
L 265.686663 -306.082776 
L 265.674694 -305.045311 
L 265.661002 -304.007846 
L 265.645581 -302.970382 
L 265.628426 -301.932917 
L 265.609528 -300.895452 
L 265.588882 -299.857988 
L 265.56648 -298.820523 
L 265.542314 -297.783059 
L 265.516375 -296.745594 
L 265.488655 -295.708129 
L 265.459143 -294.670665 
L 265.427831 -293.6332 
L 265.394709 -292.595735 
L 265.359766 -291.558271 
L 265.322993 -290.520806 
L 265.284379 -289.483341 
L 265.243913 -288.445877 
L 265.201586 -287.408412 
L 265.157386 -286.370948 
L 265.111303 -285.333483 
L 265.063328 -284.296018 
L 265.01345 -283.258554 
L 264.961659 -282.221089 
L 264.907947 -281.183624 
L 264.852304 -280.14616 
L 264.794722 -279.108695 
L 264.735191 -278.07123 
L 264.673706 -277.033766 
L 264.610259 -275.996301 
L 264.544844 -274.958837 
L 264.477455 -273.921372 
L 264.408088 -272.883907 
L 264.336738 -271.846443 
L 264.263403 -270.808978 
L 264.188081 -269.771513 
L 264.110769 -268.734049 
L 264.031469 -267.696584 
L 263.950181 -266.659119 
L 263.866907 -265.621655 
L 263.781651 -264.58419 
L 263.694417 -263.546725 
L 263.605211 -262.509261 
L 263.514039 -261.471796 
z
" id="m14b32e1282" style="stroke:#000000;stroke-opacity:0.3;"/>
    </defs>
    <g clip-path="url(#p690d35810b)">
     <use style="fill:#bfbf00;fill-opacity:0.3;stroke:#000000;stroke-opacity:0.3;" x="0.0" xlink:href="#m14b32e1282" y="465.868"/>
    </g>
   </g>
   <g id="PolyCollection_4">
    <defs>
     <path d="M 337.914039 -232.897679 
L 305.130961 -232.897679 
L 305.039789 -232.906516 
L 304.950583 -232.915353 
L 304.863349 -232.924191 
L 304.778093 -232.933028 
L 304.694819 -232.941865 
L 304.613531 -232.950703 
L 304.534231 -232.95954 
L 304.456919 -232.968377 
L 304.381597 -232.977215 
L 304.308262 -232.986052 
L 304.236912 -232.994889 
L 304.167545 -233.003727 
L 304.100156 -233.012564 
L 304.034741 -233.021401 
L 303.971294 -233.030239 
L 303.909809 -233.039076 
L 303.850278 -233.047913 
L 303.792696 -233.05675 
L 303.737053 -233.065588 
L 303.683341 -233.074425 
L 303.63155 -233.083262 
L 303.581672 -233.0921 
L 303.533697 -233.100937 
L 303.487614 -233.109774 
L 303.443414 -233.118612 
L 303.401087 -233.127449 
L 303.360621 -233.136286 
L 303.322007 -233.145124 
L 303.285234 -233.153961 
L 303.250291 -233.162798 
L 303.217169 -233.171636 
L 303.185857 -233.180473 
L 303.156345 -233.18931 
L 303.128625 -233.198148 
L 303.102686 -233.206985 
L 303.07852 -233.215822 
L 303.056118 -233.22466 
L 303.035472 -233.233497 
L 303.016574 -233.242334 
L 302.999419 -233.251172 
L 302.983998 -233.260009 
L 302.970306 -233.268846 
L 302.958337 -233.277684 
L 302.948088 -233.286521 
L 302.939553 -233.295358 
L 302.932729 -233.304196 
L 302.927613 -233.313033 
L 302.924204 -233.32187 
L 302.9225 -233.330708 
L 302.9225 -233.339545 
L 302.924204 -233.348382 
L 302.927613 -233.35722 
L 302.932729 -233.366057 
L 302.939553 -233.374894 
L 302.948088 -233.383732 
L 302.958337 -233.392569 
L 302.970306 -233.401406 
L 302.983998 -233.410244 
L 302.999419 -233.419081 
L 303.016574 -233.427918 
L 303.035472 -233.436756 
L 303.056118 -233.445593 
L 303.07852 -233.45443 
L 303.102686 -233.463268 
L 303.128625 -233.472105 
L 303.156345 -233.480942 
L 303.185857 -233.48978 
L 303.217169 -233.498617 
L 303.250291 -233.507454 
L 303.285234 -233.516292 
L 303.322007 -233.525129 
L 303.360621 -233.533966 
L 303.401087 -233.542804 
L 303.443414 -233.551641 
L 303.487614 -233.560478 
L 303.533697 -233.569316 
L 303.581672 -233.578153 
L 303.63155 -233.58699 
L 303.683341 -233.595828 
L 303.737053 -233.604665 
L 303.792696 -233.613502 
L 303.850278 -233.62234 
L 303.909809 -233.631177 
L 303.971294 -233.640014 
L 304.034741 -233.648852 
L 304.100156 -233.657689 
L 304.167545 -233.666526 
L 304.236912 -233.675363 
L 304.308262 -233.684201 
L 304.381597 -233.693038 
L 304.456919 -233.701875 
L 304.534231 -233.710713 
L 304.613531 -233.71955 
L 304.694819 -233.728387 
L 304.778093 -233.737225 
L 304.863349 -233.746062 
L 304.950583 -233.754899 
L 305.039789 -233.763737 
L 305.130961 -233.772574 
L 337.914039 -233.772574 
L 337.914039 -233.772574 
L 338.005211 -233.763737 
L 338.094417 -233.754899 
L 338.181651 -233.746062 
L 338.266907 -233.737225 
L 338.350181 -233.728387 
L 338.431469 -233.71955 
L 338.510769 -233.710713 
L 338.588081 -233.701875 
L 338.663403 -233.693038 
L 338.736738 -233.684201 
L 338.808088 -233.675363 
L 338.877455 -233.666526 
L 338.944844 -233.657689 
L 339.010259 -233.648852 
L 339.073706 -233.640014 
L 339.135191 -233.631177 
L 339.194722 -233.62234 
L 339.252304 -233.613502 
L 339.307947 -233.604665 
L 339.361659 -233.595828 
L 339.41345 -233.58699 
L 339.463328 -233.578153 
L 339.511303 -233.569316 
L 339.557386 -233.560478 
L 339.601586 -233.551641 
L 339.643913 -233.542804 
L 339.684379 -233.533966 
L 339.722993 -233.525129 
L 339.759766 -233.516292 
L 339.794709 -233.507454 
L 339.827831 -233.498617 
L 339.859143 -233.48978 
L 339.888655 -233.480942 
L 339.916375 -233.472105 
L 339.942314 -233.463268 
L 339.96648 -233.45443 
L 339.988882 -233.445593 
L 340.009528 -233.436756 
L 340.028426 -233.427918 
L 340.045581 -233.419081 
L 340.061002 -233.410244 
L 340.074694 -233.401406 
L 340.086663 -233.392569 
L 340.096912 -233.383732 
L 340.105447 -233.374894 
L 340.112271 -233.366057 
L 340.117387 -233.35722 
L 340.120796 -233.348382 
L 340.1225 -233.339545 
L 340.1225 -233.330708 
L 340.120796 -233.32187 
L 340.117387 -233.313033 
L 340.112271 -233.304196 
L 340.105447 -233.295358 
L 340.096912 -233.286521 
L 340.086663 -233.277684 
L 340.074694 -233.268846 
L 340.061002 -233.260009 
L 340.045581 -233.251172 
L 340.028426 -233.242334 
L 340.009528 -233.233497 
L 339.988882 -233.22466 
L 339.96648 -233.215822 
L 339.942314 -233.206985 
L 339.916375 -233.198148 
L 339.888655 -233.18931 
L 339.859143 -233.180473 
L 339.827831 -233.171636 
L 339.794709 -233.162798 
L 339.759766 -233.153961 
L 339.722993 -233.145124 
L 339.684379 -233.136286 
L 339.643913 -233.127449 
L 339.601586 -233.118612 
L 339.557386 -233.109774 
L 339.511303 -233.100937 
L 339.463328 -233.0921 
L 339.41345 -233.083262 
L 339.361659 -233.074425 
L 339.307947 -233.065588 
L 339.252304 -233.05675 
L 339.194722 -233.047913 
L 339.135191 -233.039076 
L 339.073706 -233.030239 
L 339.010259 -233.021401 
L 338.944844 -233.012564 
L 338.877455 -233.003727 
L 338.808088 -232.994889 
L 338.736738 -232.986052 
L 338.663403 -232.977215 
L 338.588081 -232.968377 
L 338.510769 -232.95954 
L 338.431469 -232.950703 
L 338.350181 -232.941865 
L 338.266907 -232.933028 
L 338.181651 -232.924191 
L 338.094417 -232.915353 
L 338.005211 -232.906516 
L 337.914039 -232.897679 
z
" id="maf18067c70" style="stroke:#000000;stroke-opacity:0.3;"/>
    </defs>
    <g clip-path="url(#p690d35810b)">
     <use style="fill:#bfbf00;fill-opacity:0.3;stroke:#000000;stroke-opacity:0.3;" x="0.0" xlink:href="#maf18067c70" y="465.868"/>
    </g>
   </g>
   <g id="PolyCollection_5">
    <defs>
     <path d="M 412.314039 -182.14398 
L 379.530961 -182.14398 
L 379.439789 -182.535321 
L 379.350583 -182.926662 
L 379.263349 -183.318003 
L 379.178093 -183.709344 
L 379.094819 -184.100685 
L 379.013531 -184.492026 
L 378.934231 -184.883366 
L 378.856919 -185.274707 
L 378.781597 -185.666048 
L 378.708262 -186.057389 
L 378.636912 -186.44873 
L 378.567545 -186.840071 
L 378.500156 -187.231412 
L 378.434741 -187.622753 
L 378.371294 -188.014094 
L 378.309809 -188.405435 
L 378.250278 -188.796776 
L 378.192696 -189.188116 
L 378.137053 -189.579457 
L 378.083341 -189.970798 
L 378.03155 -190.362139 
L 377.981672 -190.75348 
L 377.933697 -191.144821 
L 377.887614 -191.536162 
L 377.843414 -191.927503 
L 377.801087 -192.318844 
L 377.760621 -192.710185 
L 377.722007 -193.101526 
L 377.685234 -193.492866 
L 377.650291 -193.884207 
L 377.617169 -194.275548 
L 377.585857 -194.666889 
L 377.556345 -195.05823 
L 377.528625 -195.449571 
L 377.502686 -195.840912 
L 377.47852 -196.232253 
L 377.456118 -196.623594 
L 377.435472 -197.014935 
L 377.416574 -197.406276 
L 377.399419 -197.797616 
L 377.383998 -198.188957 
L 377.370306 -198.580298 
L 377.358337 -198.971639 
L 377.348088 -199.36298 
L 377.339553 -199.754321 
L 377.332729 -200.145662 
L 377.327613 -200.537003 
L 377.324204 -200.928344 
L 377.3225 -201.319685 
L 377.3225 -201.711026 
L 377.324204 -202.102367 
L 377.327613 -202.493707 
L 377.332729 -202.885048 
L 377.339553 -203.276389 
L 377.348088 -203.66773 
L 377.358337 -204.059071 
L 377.370306 -204.450412 
L 377.383998 -204.841753 
L 377.399419 -205.233094 
L 377.416574 -205.624435 
L 377.435472 -206.015776 
L 377.456118 -206.407117 
L 377.47852 -206.798457 
L 377.502686 -207.189798 
L 377.528625 -207.581139 
L 377.556345 -207.97248 
L 377.585857 -208.363821 
L 377.617169 -208.755162 
L 377.650291 -209.146503 
L 377.685234 -209.537844 
L 377.722007 -209.929185 
L 377.760621 -210.320526 
L 377.801087 -210.711867 
L 377.843414 -211.103207 
L 377.887614 -211.494548 
L 377.933697 -211.885889 
L 377.981672 -212.27723 
L 378.03155 -212.668571 
L 378.083341 -213.059912 
L 378.137053 -213.451253 
L 378.192696 -213.842594 
L 378.250278 -214.233935 
L 378.309809 -214.625276 
L 378.371294 -215.016617 
L 378.434741 -215.407957 
L 378.500156 -215.799298 
L 378.567545 -216.190639 
L 378.636912 -216.58198 
L 378.708262 -216.973321 
L 378.781597 -217.364662 
L 378.856919 -217.756003 
L 378.934231 -218.147344 
L 379.013531 -218.538685 
L 379.094819 -218.930026 
L 379.178093 -219.321367 
L 379.263349 -219.712707 
L 379.350583 -220.104048 
L 379.439789 -220.495389 
L 379.530961 -220.88673 
L 412.314039 -220.88673 
L 412.314039 -220.88673 
L 412.405211 -220.495389 
L 412.494417 -220.104048 
L 412.581651 -219.712707 
L 412.666907 -219.321367 
L 412.750181 -218.930026 
L 412.831469 -218.538685 
L 412.910769 -218.147344 
L 412.988081 -217.756003 
L 413.063403 -217.364662 
L 413.136738 -216.973321 
L 413.208088 -216.58198 
L 413.277455 -216.190639 
L 413.344844 -215.799298 
L 413.410259 -215.407957 
L 413.473706 -215.016617 
L 413.535191 -214.625276 
L 413.594722 -214.233935 
L 413.652304 -213.842594 
L 413.707947 -213.451253 
L 413.761659 -213.059912 
L 413.81345 -212.668571 
L 413.863328 -212.27723 
L 413.911303 -211.885889 
L 413.957386 -211.494548 
L 414.001586 -211.103207 
L 414.043913 -210.711867 
L 414.084379 -210.320526 
L 414.122993 -209.929185 
L 414.159766 -209.537844 
L 414.194709 -209.146503 
L 414.227831 -208.755162 
L 414.259143 -208.363821 
L 414.288655 -207.97248 
L 414.316375 -207.581139 
L 414.342314 -207.189798 
L 414.36648 -206.798457 
L 414.388882 -206.407117 
L 414.409528 -206.015776 
L 414.428426 -205.624435 
L 414.445581 -205.233094 
L 414.461002 -204.841753 
L 414.474694 -204.450412 
L 414.486663 -204.059071 
L 414.496912 -203.66773 
L 414.505447 -203.276389 
L 414.512271 -202.885048 
L 414.517387 -202.493707 
L 414.520796 -202.102367 
L 414.5225 -201.711026 
L 414.5225 -201.319685 
L 414.520796 -200.928344 
L 414.517387 -200.537003 
L 414.512271 -200.145662 
L 414.505447 -199.754321 
L 414.496912 -199.36298 
L 414.486663 -198.971639 
L 414.474694 -198.580298 
L 414.461002 -198.188957 
L 414.445581 -197.797616 
L 414.428426 -197.406276 
L 414.409528 -197.014935 
L 414.388882 -196.623594 
L 414.36648 -196.232253 
L 414.342314 -195.840912 
L 414.316375 -195.449571 
L 414.288655 -195.05823 
L 414.259143 -194.666889 
L 414.227831 -194.275548 
L 414.194709 -193.884207 
L 414.159766 -193.492866 
L 414.122993 -193.101526 
L 414.084379 -192.710185 
L 414.043913 -192.318844 
L 414.001586 -191.927503 
L 413.957386 -191.536162 
L 413.911303 -191.144821 
L 413.863328 -190.75348 
L 413.81345 -190.362139 
L 413.761659 -189.970798 
L 413.707947 -189.579457 
L 413.652304 -189.188116 
L 413.594722 -188.796776 
L 413.535191 -188.405435 
L 413.473706 -188.014094 
L 413.410259 -187.622753 
L 413.344844 -187.231412 
L 413.277455 -186.840071 
L 413.208088 -186.44873 
L 413.136738 -186.057389 
L 413.063403 -185.666048 
L 412.988081 -185.274707 
L 412.910769 -184.883366 
L 412.831469 -184.492026 
L 412.750181 -184.100685 
L 412.666907 -183.709344 
L 412.581651 -183.318003 
L 412.494417 -182.926662 
L 412.405211 -182.535321 
L 412.314039 -182.14398 
z
" id="me2493effee" style="stroke:#000000;stroke-opacity:0.3;"/>
    </defs>
    <g clip-path="url(#p690d35810b)">
     <use style="fill:#bfbf00;fill-opacity:0.3;stroke:#000000;stroke-opacity:0.3;" x="0.0" xlink:href="#me2493effee" y="465.868"/>
    </g>
   </g>
   <g id="PolyCollection_6">
    <defs>
     <path d="M 486.714039 -197.769859 
L 453.930961 -197.769859 
L 453.839789 -197.808779 
L 453.750583 -197.847699 
L 453.663349 -197.886618 
L 453.578093 -197.925538 
L 453.494819 -197.964458 
L 453.413531 -198.003378 
L 453.334231 -198.042298 
L 453.256919 -198.081218 
L 453.181597 -198.120137 
L 453.108262 -198.159057 
L 453.036912 -198.197977 
L 452.967545 -198.236897 
L 452.900156 -198.275817 
L 452.834741 -198.314736 
L 452.771294 -198.353656 
L 452.709809 -198.392576 
L 452.650278 -198.431496 
L 452.592696 -198.470416 
L 452.537053 -198.509335 
L 452.483341 -198.548255 
L 452.43155 -198.587175 
L 452.381672 -198.626095 
L 452.333697 -198.665015 
L 452.287614 -198.703934 
L 452.243414 -198.742854 
L 452.201087 -198.781774 
L 452.160621 -198.820694 
L 452.122007 -198.859614 
L 452.085234 -198.898534 
L 452.050291 -198.937453 
L 452.017169 -198.976373 
L 451.985857 -199.015293 
L 451.956345 -199.054213 
L 451.928625 -199.093133 
L 451.902686 -199.132052 
L 451.87852 -199.170972 
L 451.856118 -199.209892 
L 451.835472 -199.248812 
L 451.816574 -199.287732 
L 451.799419 -199.326651 
L 451.783998 -199.365571 
L 451.770306 -199.404491 
L 451.758337 -199.443411 
L 451.748088 -199.482331 
L 451.739553 -199.52125 
L 451.732729 -199.56017 
L 451.727613 -199.59909 
L 451.724204 -199.63801 
L 451.7225 -199.67693 
L 451.7225 -199.71585 
L 451.724204 -199.754769 
L 451.727613 -199.793689 
L 451.732729 -199.832609 
L 451.739553 -199.871529 
L 451.748088 -199.910449 
L 451.758337 -199.949368 
L 451.770306 -199.988288 
L 451.783998 -200.027208 
L 451.799419 -200.066128 
L 451.816574 -200.105048 
L 451.835472 -200.143967 
L 451.856118 -200.182887 
L 451.87852 -200.221807 
L 451.902686 -200.260727 
L 451.928625 -200.299647 
L 451.956345 -200.338567 
L 451.985857 -200.377486 
L 452.017169 -200.416406 
L 452.050291 -200.455326 
L 452.085234 -200.494246 
L 452.122007 -200.533166 
L 452.160621 -200.572085 
L 452.201087 -200.611005 
L 452.243414 -200.649925 
L 452.287614 -200.688845 
L 452.333697 -200.727765 
L 452.381672 -200.766684 
L 452.43155 -200.805604 
L 452.483341 -200.844524 
L 452.537053 -200.883444 
L 452.592696 -200.922364 
L 452.650278 -200.961283 
L 452.709809 -201.000203 
L 452.771294 -201.039123 
L 452.834741 -201.078043 
L 452.900156 -201.116963 
L 452.967545 -201.155883 
L 453.036912 -201.194802 
L 453.108262 -201.233722 
L 453.181597 -201.272642 
L 453.256919 -201.311562 
L 453.334231 -201.350482 
L 453.413531 -201.389401 
L 453.494819 -201.428321 
L 453.578093 -201.467241 
L 453.663349 -201.506161 
L 453.750583 -201.545081 
L 453.839789 -201.584 
L 453.930961 -201.62292 
L 486.714039 -201.62292 
L 486.714039 -201.62292 
L 486.805211 -201.584 
L 486.894417 -201.545081 
L 486.981651 -201.506161 
L 487.066907 -201.467241 
L 487.150181 -201.428321 
L 487.231469 -201.389401 
L 487.310769 -201.350482 
L 487.388081 -201.311562 
L 487.463403 -201.272642 
L 487.536738 -201.233722 
L 487.608088 -201.194802 
L 487.677455 -201.155883 
L 487.744844 -201.116963 
L 487.810259 -201.078043 
L 487.873706 -201.039123 
L 487.935191 -201.000203 
L 487.994722 -200.961283 
L 488.052304 -200.922364 
L 488.107947 -200.883444 
L 488.161659 -200.844524 
L 488.21345 -200.805604 
L 488.263328 -200.766684 
L 488.311303 -200.727765 
L 488.357386 -200.688845 
L 488.401586 -200.649925 
L 488.443913 -200.611005 
L 488.484379 -200.572085 
L 488.522993 -200.533166 
L 488.559766 -200.494246 
L 488.594709 -200.455326 
L 488.627831 -200.416406 
L 488.659143 -200.377486 
L 488.688655 -200.338567 
L 488.716375 -200.299647 
L 488.742314 -200.260727 
L 488.76648 -200.221807 
L 488.788882 -200.182887 
L 488.809528 -200.143967 
L 488.828426 -200.105048 
L 488.845581 -200.066128 
L 488.861002 -200.027208 
L 488.874694 -199.988288 
L 488.886663 -199.949368 
L 488.896912 -199.910449 
L 488.905447 -199.871529 
L 488.912271 -199.832609 
L 488.917387 -199.793689 
L 488.920796 -199.754769 
L 488.9225 -199.71585 
L 488.9225 -199.67693 
L 488.920796 -199.63801 
L 488.917387 -199.59909 
L 488.912271 -199.56017 
L 488.905447 -199.52125 
L 488.896912 -199.482331 
L 488.886663 -199.443411 
L 488.874694 -199.404491 
L 488.861002 -199.365571 
L 488.845581 -199.326651 
L 488.828426 -199.287732 
L 488.809528 -199.248812 
L 488.788882 -199.209892 
L 488.76648 -199.170972 
L 488.742314 -199.132052 
L 488.716375 -199.093133 
L 488.688655 -199.054213 
L 488.659143 -199.015293 
L 488.627831 -198.976373 
L 488.594709 -198.937453 
L 488.559766 -198.898534 
L 488.522993 -198.859614 
L 488.484379 -198.820694 
L 488.443913 -198.781774 
L 488.401586 -198.742854 
L 488.357386 -198.703934 
L 488.311303 -198.665015 
L 488.263328 -198.626095 
L 488.21345 -198.587175 
L 488.161659 -198.548255 
L 488.107947 -198.509335 
L 488.052304 -198.470416 
L 487.994722 -198.431496 
L 487.935191 -198.392576 
L 487.873706 -198.353656 
L 487.810259 -198.314736 
L 487.744844 -198.275817 
L 487.677455 -198.236897 
L 487.608088 -198.197977 
L 487.536738 -198.159057 
L 487.463403 -198.120137 
L 487.388081 -198.081218 
L 487.310769 -198.042298 
L 487.231469 -198.003378 
L 487.150181 -197.964458 
L 487.066907 -197.925538 
L 486.981651 -197.886618 
L 486.894417 -197.847699 
L 486.805211 -197.808779 
L 486.714039 -197.769859 
z
" id="m8868939897" style="stroke:#000000;stroke-opacity:0.3;"/>
    </defs>
    <g clip-path="url(#p690d35810b)">
     <use style="fill:#bfbf00;fill-opacity:0.3;stroke:#000000;stroke-opacity:0.3;" x="0.0" xlink:href="#m8868939897" y="465.868"/>
    </g>
   </g>
   <g id="PolyCollection_7">
    <defs>
     <path d="M 561.114039 -153.080536 
L 528.330961 -153.080536 
L 528.239789 -153.589384 
L 528.150583 -154.098232 
L 528.063349 -154.60708 
L 527.978093 -155.115928 
L 527.894819 -155.624776 
L 527.813531 -156.133624 
L 527.734231 -156.642472 
L 527.656919 -157.15132 
L 527.581597 -157.660168 
L 527.508262 -158.169016 
L 527.436912 -158.677864 
L 527.367545 -159.186712 
L 527.300156 -159.69556 
L 527.234741 -160.204408 
L 527.171294 -160.713256 
L 527.109809 -161.222104 
L 527.050278 -161.730952 
L 526.992696 -162.2398 
L 526.937053 -162.748648 
L 526.883341 -163.257496 
L 526.83155 -163.766344 
L 526.781672 -164.275192 
L 526.733697 -164.784041 
L 526.687614 -165.292889 
L 526.643414 -165.801737 
L 526.601087 -166.310585 
L 526.560621 -166.819433 
L 526.522007 -167.328281 
L 526.485234 -167.837129 
L 526.450291 -168.345977 
L 526.417169 -168.854825 
L 526.385857 -169.363673 
L 526.356345 -169.872521 
L 526.328625 -170.381369 
L 526.302686 -170.890217 
L 526.27852 -171.399065 
L 526.256118 -171.907913 
L 526.235472 -172.416761 
L 526.216574 -172.925609 
L 526.199419 -173.434457 
L 526.183998 -173.943305 
L 526.170306 -174.452153 
L 526.158337 -174.961001 
L 526.148088 -175.469849 
L 526.139553 -175.978697 
L 526.132729 -176.487545 
L 526.127613 -176.996393 
L 526.124204 -177.505241 
L 526.1225 -178.014089 
L 526.1225 -178.522937 
L 526.124204 -179.031786 
L 526.127613 -179.540634 
L 526.132729 -180.049482 
L 526.139553 -180.55833 
L 526.148088 -181.067178 
L 526.158337 -181.576026 
L 526.170306 -182.084874 
L 526.183998 -182.593722 
L 526.199419 -183.10257 
L 526.216574 -183.611418 
L 526.235472 -184.120266 
L 526.256118 -184.629114 
L 526.27852 -185.137962 
L 526.302686 -185.64681 
L 526.328625 -186.155658 
L 526.356345 -186.664506 
L 526.385857 -187.173354 
L 526.417169 -187.682202 
L 526.450291 -188.19105 
L 526.485234 -188.699898 
L 526.522007 -189.208746 
L 526.560621 -189.717594 
L 526.601087 -190.226442 
L 526.643414 -190.73529 
L 526.687614 -191.244138 
L 526.733697 -191.752986 
L 526.781672 -192.261834 
L 526.83155 -192.770682 
L 526.883341 -193.27953 
L 526.937053 -193.788379 
L 526.992696 -194.297227 
L 527.050278 -194.806075 
L 527.109809 -195.314923 
L 527.171294 -195.823771 
L 527.234741 -196.332619 
L 527.300156 -196.841467 
L 527.367545 -197.350315 
L 527.436912 -197.859163 
L 527.508262 -198.368011 
L 527.581597 -198.876859 
L 527.656919 -199.385707 
L 527.734231 -199.894555 
L 527.813531 -200.403403 
L 527.894819 -200.912251 
L 527.978093 -201.421099 
L 528.063349 -201.929947 
L 528.150583 -202.438795 
L 528.239789 -202.947643 
L 528.330961 -203.456491 
L 561.114039 -203.456491 
L 561.114039 -203.456491 
L 561.205211 -202.947643 
L 561.294417 -202.438795 
L 561.381651 -201.929947 
L 561.466907 -201.421099 
L 561.550181 -200.912251 
L 561.631469 -200.403403 
L 561.710769 -199.894555 
L 561.788081 -199.385707 
L 561.863403 -198.876859 
L 561.936738 -198.368011 
L 562.008088 -197.859163 
L 562.077455 -197.350315 
L 562.144844 -196.841467 
L 562.210259 -196.332619 
L 562.273706 -195.823771 
L 562.335191 -195.314923 
L 562.394722 -194.806075 
L 562.452304 -194.297227 
L 562.507947 -193.788379 
L 562.561659 -193.27953 
L 562.61345 -192.770682 
L 562.663328 -192.261834 
L 562.711303 -191.752986 
L 562.757386 -191.244138 
L 562.801586 -190.73529 
L 562.843913 -190.226442 
L 562.884379 -189.717594 
L 562.922993 -189.208746 
L 562.959766 -188.699898 
L 562.994709 -188.19105 
L 563.027831 -187.682202 
L 563.059143 -187.173354 
L 563.088655 -186.664506 
L 563.116375 -186.155658 
L 563.142314 -185.64681 
L 563.16648 -185.137962 
L 563.188882 -184.629114 
L 563.209528 -184.120266 
L 563.228426 -183.611418 
L 563.245581 -183.10257 
L 563.261002 -182.593722 
L 563.274694 -182.084874 
L 563.286663 -181.576026 
L 563.296912 -181.067178 
L 563.305447 -180.55833 
L 563.312271 -180.049482 
L 563.317387 -179.540634 
L 563.320796 -179.031786 
L 563.3225 -178.522937 
L 563.3225 -178.014089 
L 563.320796 -177.505241 
L 563.317387 -176.996393 
L 563.312271 -176.487545 
L 563.305447 -175.978697 
L 563.296912 -175.469849 
L 563.286663 -174.961001 
L 563.274694 -174.452153 
L 563.261002 -173.943305 
L 563.245581 -173.434457 
L 563.228426 -172.925609 
L 563.209528 -172.416761 
L 563.188882 -171.907913 
L 563.16648 -171.399065 
L 563.142314 -170.890217 
L 563.116375 -170.381369 
L 563.088655 -169.872521 
L 563.059143 -169.363673 
L 563.027831 -168.854825 
L 562.994709 -168.345977 
L 562.959766 -167.837129 
L 562.922993 -167.328281 
L 562.884379 -166.819433 
L 562.843913 -166.310585 
L 562.801586 -165.801737 
L 562.757386 -165.292889 
L 562.711303 -164.784041 
L 562.663328 -164.275192 
L 562.61345 -163.766344 
L 562.561659 -163.257496 
L 562.507947 -162.748648 
L 562.452304 -162.2398 
L 562.394722 -161.730952 
L 562.335191 -161.222104 
L 562.273706 -160.713256 
L 562.210259 -160.204408 
L 562.144844 -159.69556 
L 562.077455 -159.186712 
L 562.008088 -158.677864 
L 561.936738 -158.169016 
L 561.863403 -157.660168 
L 561.788081 -157.15132 
L 561.710769 -156.642472 
L 561.631469 -156.133624 
L 561.550181 -155.624776 
L 561.466907 -155.115928 
L 561.381651 -154.60708 
L 561.294417 -154.098232 
L 561.205211 -153.589384 
L 561.114039 -153.080536 
z
" id="m3647b4223a" style="stroke:#000000;stroke-opacity:0.3;"/>
    </defs>
    <g clip-path="url(#p690d35810b)">
     <use style="fill:#bfbf00;fill-opacity:0.3;stroke:#000000;stroke-opacity:0.3;" x="0.0" xlink:href="#m3647b4223a" y="465.868"/>
    </g>
   </g>
   <g id="PolyCollection_8">
    <defs>
     <path d="M 635.514039 -134.528847 
L 602.730961 -134.528847 
L 602.639789 -134.716238 
L 602.550583 -134.903629 
L 602.463349 -135.09102 
L 602.378093 -135.278411 
L 602.294819 -135.465801 
L 602.213531 -135.653192 
L 602.134231 -135.840583 
L 602.056919 -136.027974 
L 601.981597 -136.215365 
L 601.908262 -136.402755 
L 601.836912 -136.590146 
L 601.767545 -136.777537 
L 601.700156 -136.964928 
L 601.634741 -137.152318 
L 601.571294 -137.339709 
L 601.509809 -137.5271 
L 601.450278 -137.714491 
L 601.392696 -137.901882 
L 601.337053 -138.089272 
L 601.283341 -138.276663 
L 601.23155 -138.464054 
L 601.181672 -138.651445 
L 601.133697 -138.838836 
L 601.087614 -139.026226 
L 601.043414 -139.213617 
L 601.001087 -139.401008 
L 600.960621 -139.588399 
L 600.922007 -139.77579 
L 600.885234 -139.96318 
L 600.850291 -140.150571 
L 600.817169 -140.337962 
L 600.785857 -140.525353 
L 600.756345 -140.712744 
L 600.728625 -140.900134 
L 600.702686 -141.087525 
L 600.67852 -141.274916 
L 600.656118 -141.462307 
L 600.635472 -141.649697 
L 600.616574 -141.837088 
L 600.599419 -142.024479 
L 600.583998 -142.21187 
L 600.570306 -142.399261 
L 600.558337 -142.586651 
L 600.548088 -142.774042 
L 600.539553 -142.961433 
L 600.532729 -143.148824 
L 600.527613 -143.336215 
L 600.524204 -143.523605 
L 600.5225 -143.710996 
L 600.5225 -143.898387 
L 600.524204 -144.085778 
L 600.527613 -144.273169 
L 600.532729 -144.460559 
L 600.539553 -144.64795 
L 600.548088 -144.835341 
L 600.558337 -145.022732 
L 600.570306 -145.210122 
L 600.583998 -145.397513 
L 600.599419 -145.584904 
L 600.616574 -145.772295 
L 600.635472 -145.959686 
L 600.656118 -146.147076 
L 600.67852 -146.334467 
L 600.702686 -146.521858 
L 600.728625 -146.709249 
L 600.756345 -146.89664 
L 600.785857 -147.08403 
L 600.817169 -147.271421 
L 600.850291 -147.458812 
L 600.885234 -147.646203 
L 600.922007 -147.833594 
L 600.960621 -148.020984 
L 601.001087 -148.208375 
L 601.043414 -148.395766 
L 601.087614 -148.583157 
L 601.133697 -148.770548 
L 601.181672 -148.957938 
L 601.23155 -149.145329 
L 601.283341 -149.33272 
L 601.337053 -149.520111 
L 601.392696 -149.707501 
L 601.450278 -149.894892 
L 601.509809 -150.082283 
L 601.571294 -150.269674 
L 601.634741 -150.457065 
L 601.700156 -150.644455 
L 601.767545 -150.831846 
L 601.836912 -151.019237 
L 601.908262 -151.206628 
L 601.981597 -151.394019 
L 602.056919 -151.581409 
L 602.134231 -151.7688 
L 602.213531 -151.956191 
L 602.294819 -152.143582 
L 602.378093 -152.330973 
L 602.463349 -152.518363 
L 602.550583 -152.705754 
L 602.639789 -152.893145 
L 602.730961 -153.080536 
L 635.514039 -153.080536 
L 635.514039 -153.080536 
L 635.605211 -152.893145 
L 635.694417 -152.705754 
L 635.781651 -152.518363 
L 635.866907 -152.330973 
L 635.950181 -152.143582 
L 636.031469 -151.956191 
L 636.110769 -151.7688 
L 636.188081 -151.581409 
L 636.263403 -151.394019 
L 636.336738 -151.206628 
L 636.408088 -151.019237 
L 636.477455 -150.831846 
L 636.544844 -150.644455 
L 636.610259 -150.457065 
L 636.673706 -150.269674 
L 636.735191 -150.082283 
L 636.794722 -149.894892 
L 636.852304 -149.707501 
L 636.907947 -149.520111 
L 636.961659 -149.33272 
L 637.01345 -149.145329 
L 637.063328 -148.957938 
L 637.111303 -148.770548 
L 637.157386 -148.583157 
L 637.201586 -148.395766 
L 637.243913 -148.208375 
L 637.284379 -148.020984 
L 637.322993 -147.833594 
L 637.359766 -147.646203 
L 637.394709 -147.458812 
L 637.427831 -147.271421 
L 637.459143 -147.08403 
L 637.488655 -146.89664 
L 637.516375 -146.709249 
L 637.542314 -146.521858 
L 637.56648 -146.334467 
L 637.588882 -146.147076 
L 637.609528 -145.959686 
L 637.628426 -145.772295 
L 637.645581 -145.584904 
L 637.661002 -145.397513 
L 637.674694 -145.210122 
L 637.686663 -145.022732 
L 637.696912 -144.835341 
L 637.705447 -144.64795 
L 637.712271 -144.460559 
L 637.717387 -144.273169 
L 637.720796 -144.085778 
L 637.7225 -143.898387 
L 637.7225 -143.710996 
L 637.720796 -143.523605 
L 637.717387 -143.336215 
L 637.712271 -143.148824 
L 637.705447 -142.961433 
L 637.696912 -142.774042 
L 637.686663 -142.586651 
L 637.674694 -142.399261 
L 637.661002 -142.21187 
L 637.645581 -142.024479 
L 637.628426 -141.837088 
L 637.609528 -141.649697 
L 637.588882 -141.462307 
L 637.56648 -141.274916 
L 637.542314 -141.087525 
L 637.516375 -140.900134 
L 637.488655 -140.712744 
L 637.459143 -140.525353 
L 637.427831 -140.337962 
L 637.394709 -140.150571 
L 637.359766 -139.96318 
L 637.322993 -139.77579 
L 637.284379 -139.588399 
L 637.243913 -139.401008 
L 637.201586 -139.213617 
L 637.157386 -139.026226 
L 637.111303 -138.838836 
L 637.063328 -138.651445 
L 637.01345 -138.464054 
L 636.961659 -138.276663 
L 636.907947 -138.089272 
L 636.852304 -137.901882 
L 636.794722 -137.714491 
L 636.735191 -137.5271 
L 636.673706 -137.339709 
L 636.610259 -137.152318 
L 636.544844 -136.964928 
L 636.477455 -136.777537 
L 636.408088 -136.590146 
L 636.336738 -136.402755 
L 636.263403 -136.215365 
L 636.188081 -136.027974 
L 636.110769 -135.840583 
L 636.031469 -135.653192 
L 635.950181 -135.465801 
L 635.866907 -135.278411 
L 635.781651 -135.09102 
L 635.694417 -134.903629 
L 635.605211 -134.716238 
L 635.514039 -134.528847 
z
" id="m73e94888f8" style="stroke:#000000;stroke-opacity:0.3;"/>
    </defs>
    <g clip-path="url(#p690d35810b)">
     <use style="fill:#bfbf00;fill-opacity:0.3;stroke:#000000;stroke-opacity:0.3;" x="0.0" xlink:href="#m73e94888f8" y="465.868"/>
    </g>
   </g>
   <g id="LineCollection_1">
    <path clip-path="url(#p690d35810b)" d="M 89.0225 72.91977 
L 107.6225 72.91977 
" style="fill:none;stroke:#ff0000;"/>
    <path clip-path="url(#p690d35810b)" d="M 163.4225 142.001141 
L 182.0225 142.001141 
" style="fill:none;stroke:#ff0000;"/>
    <path clip-path="url(#p690d35810b)" d="M 237.8225 153.041704 
L 256.4225 153.041704 
" style="fill:none;stroke:#ff0000;"/>
    <path clip-path="url(#p690d35810b)" d="M 312.2225 232.532874 
L 330.8225 232.532874 
" style="fill:none;stroke:#ff0000;"/>
    <path clip-path="url(#p690d35810b)" d="M 386.6225 264.352645 
L 405.2225 264.352645 
" style="fill:none;stroke:#ff0000;"/>
    <path clip-path="url(#p690d35810b)" d="M 461.0225 266.17161 
L 479.6225 266.17161 
" style="fill:none;stroke:#ff0000;"/>
    <path clip-path="url(#p690d35810b)" d="M 535.4225 287.599487 
L 554.0225 287.599487 
" style="fill:none;stroke:#ff0000;"/>
    <path clip-path="url(#p690d35810b)" d="M 609.8225 322.063308 
L 628.4225 322.063308 
" style="fill:none;stroke:#ff0000;"/>
   </g>
   <g id="patch_3">
    <path d="M 23.9225 368.74175 
L 693.5225 368.74175 
" style="fill:none;stroke:#000000;stroke-linecap:square;stroke-linejoin:miter;"/>
   </g>
   <g id="patch_4">
    <path d="M 693.5225 368.74175 
L 693.5225 23.14175 
" style="fill:none;stroke:#000000;stroke-linecap:square;stroke-linejoin:miter;"/>
   </g>
   <g id="patch_5">
    <path d="M 23.9225 368.74175 
L 23.9225 23.14175 
" style="fill:none;stroke:#000000;stroke-linecap:square;stroke-linejoin:miter;"/>
   </g>
   <g id="patch_6">
    <path d="M 23.9225 23.14175 
L 693.5225 23.14175 
" style="fill:none;stroke:#000000;stroke-linecap:square;stroke-linejoin:miter;"/>
   </g>
   <g id="matplotlib.axis_1">
    <g id="xtick_1">
     <g id="line2d_1">
      <defs>
       <path d="M 0 0 
L 0 -4 
" id="ma2c652f956" style="stroke:#000000;stroke-width:0.5;"/>
      </defs>
      <g>
       <use style="stroke:#000000;stroke-width:0.5;" x="98.3225" xlink:href="#ma2c652f956" y="368.74175"/>
      </g>
     </g>
     <g id="line2d_2">
      <defs>
       <path d="M 0 0 
L 0 4 
" id="m58c6cbe009" style="stroke:#000000;stroke-width:0.5;"/>
      </defs>
      <g>
       <use style="stroke:#000000;stroke-width:0.5;" x="98.3225" xlink:href="#m58c6cbe009" y="23.14175"/>
      </g>
     </g>
     <g id="text_1">
      <!-- Defector -->
      <defs>
       <path d="M 19.671875 64.796875 
L 19.671875 8.109375 
L 31.59375 8.109375 
Q 46.6875 8.109375 53.6875 14.9375 
Q 60.6875 21.78125 60.6875 36.53125 
Q 60.6875 51.171875 53.6875 57.984375 
Q 46.6875 64.796875 31.59375 64.796875 
z
M 9.8125 72.90625 
L 30.078125 72.90625 
Q 51.265625 72.90625 61.171875 64.09375 
Q 71.09375 55.28125 71.09375 36.53125 
Q 71.09375 17.671875 61.125 8.828125 
Q 51.171875 0 30.078125 0 
L 9.8125 0 
z
" id="BitstreamVeraSans-Roman-44"/>
       <path d="M 18.3125 70.21875 
L 18.3125 54.6875 
L 36.8125 54.6875 
L 36.8125 47.703125 
L 18.3125 47.703125 
L 18.3125 18.015625 
Q 18.3125 11.328125 20.140625 9.421875 
Q 21.96875 7.515625 27.59375 7.515625 
L 36.8125 7.515625 
L 36.8125 0 
L 27.59375 0 
Q 17.1875 0 13.234375 3.875 
Q 9.28125 7.765625 9.28125 18.015625 
L 9.28125 47.703125 
L 2.6875 47.703125 
L 2.6875 54.6875 
L 9.28125 54.6875 
L 9.28125 70.21875 
z
" id="BitstreamVeraSans-Roman-74"/>
       <path d="M 30.609375 48.390625 
Q 23.390625 48.390625 19.1875 42.75 
Q 14.984375 37.109375 14.984375 27.296875 
Q 14.984375 17.484375 19.15625 11.84375 
Q 23.34375 6.203125 30.609375 6.203125 
Q 37.796875 6.203125 41.984375 11.859375 
Q 46.1875 17.53125 46.1875 27.296875 
Q 46.1875 37.015625 41.984375 42.703125 
Q 37.796875 48.390625 30.609375 48.390625 
M 30.609375 56 
Q 42.328125 56 49.015625 48.375 
Q 55.71875 40.765625 55.71875 27.296875 
Q 55.71875 13.875 49.015625 6.21875 
Q 42.328125 -1.421875 30.609375 -1.421875 
Q 18.84375 -1.421875 12.171875 6.21875 
Q 5.515625 13.875 5.515625 27.296875 
Q 5.515625 40.765625 12.171875 48.375 
Q 18.84375 56 30.609375 56 
" id="BitstreamVeraSans-Roman-6f"/>
       <path d="M 37.109375 75.984375 
L 37.109375 68.5 
L 28.515625 68.5 
Q 23.6875 68.5 21.796875 66.546875 
Q 19.921875 64.59375 19.921875 59.515625 
L 19.921875 54.6875 
L 34.71875 54.6875 
L 34.71875 47.703125 
L 19.921875 47.703125 
L 19.921875 0 
L 10.890625 0 
L 10.890625 47.703125 
L 2.296875 47.703125 
L 2.296875 54.6875 
L 10.890625 54.6875 
L 10.890625 58.5 
Q 10.890625 67.625 15.140625 71.796875 
Q 19.390625 75.984375 28.609375 75.984375 
z
" id="BitstreamVeraSans-Roman-66"/>
       <path d="M 56.203125 29.59375 
L 56.203125 25.203125 
L 14.890625 25.203125 
Q 15.484375 15.921875 20.484375 11.0625 
Q 25.484375 6.203125 34.421875 6.203125 
Q 39.59375 6.203125 44.453125 7.46875 
Q 49.3125 8.734375 54.109375 11.28125 
L 54.109375 2.78125 
Q 49.265625 0.734375 44.1875 -0.34375 
Q 39.109375 -1.421875 33.890625 -1.421875 
Q 20.796875 -1.421875 13.15625 6.1875 
Q 5.515625 13.8125 5.515625 26.8125 
Q 5.515625 40.234375 12.765625 48.109375 
Q 20.015625 56 32.328125 56 
Q 43.359375 56 49.78125 48.890625 
Q 56.203125 41.796875 56.203125 29.59375 
M 47.21875 32.234375 
Q 47.125 39.59375 43.09375 43.984375 
Q 39.0625 48.390625 32.421875 48.390625 
Q 24.90625 48.390625 20.390625 44.140625 
Q 15.875 39.890625 15.1875 32.171875 
z
" id="BitstreamVeraSans-Roman-65"/>
       <path d="M 41.109375 46.296875 
Q 39.59375 47.171875 37.8125 47.578125 
Q 36.03125 48 33.890625 48 
Q 26.265625 48 22.1875 43.046875 
Q 18.109375 38.09375 18.109375 28.8125 
L 18.109375 0 
L 9.078125 0 
L 9.078125 54.6875 
L 18.109375 54.6875 
L 18.109375 46.1875 
Q 20.953125 51.171875 25.484375 53.578125 
Q 30.03125 56 36.53125 56 
Q 37.453125 56 38.578125 55.875 
Q 39.703125 55.765625 41.0625 55.515625 
z
" id="BitstreamVeraSans-Roman-72"/>
       <path d="M 48.78125 52.59375 
L 48.78125 44.1875 
Q 44.96875 46.296875 41.140625 47.34375 
Q 37.3125 48.390625 33.40625 48.390625 
Q 24.65625 48.390625 19.8125 42.84375 
Q 14.984375 37.3125 14.984375 27.296875 
Q 14.984375 17.28125 19.8125 11.734375 
Q 24.65625 6.203125 33.40625 6.203125 
Q 37.3125 6.203125 41.140625 7.25 
Q 44.96875 8.296875 48.78125 10.40625 
L 48.78125 2.09375 
Q 45.015625 0.34375 40.984375 -0.53125 
Q 36.96875 -1.421875 32.421875 -1.421875 
Q 20.0625 -1.421875 12.78125 6.34375 
Q 5.515625 14.109375 5.515625 27.296875 
Q 5.515625 40.671875 12.859375 48.328125 
Q 20.21875 56 33.015625 56 
Q 37.15625 56 41.109375 55.140625 
Q 45.0625 54.296875 48.78125 52.59375 
" id="BitstreamVeraSans-Roman-63"/>
      </defs>
      <g transform="translate(100.53 407.28175)rotate(-90.0)scale(0.08 -0.08)">
       <use xlink:href="#BitstreamVeraSans-Roman-44"/>
       <use x="77.001953125" xlink:href="#BitstreamVeraSans-Roman-65"/>
       <use x="138.525390625" xlink:href="#BitstreamVeraSans-Roman-66"/>
       <use x="173.73046875" xlink:href="#BitstreamVeraSans-Roman-65"/>
       <use x="235.25390625" xlink:href="#BitstreamVeraSans-Roman-63"/>
       <use x="290.234375" xlink:href="#BitstreamVeraSans-Roman-74"/>
       <use x="329.443359375" xlink:href="#BitstreamVeraSans-Roman-6f"/>
       <use x="390.625" xlink:href="#BitstreamVeraSans-Roman-72"/>
      </g>
     </g>
    </g>
    <g id="xtick_2">
     <g id="line2d_3">
      <g>
       <use style="stroke:#000000;stroke-width:0.5;" x="172.7225" xlink:href="#ma2c652f956" y="368.74175"/>
      </g>
     </g>
     <g id="line2d_4">
      <g>
       <use style="stroke:#000000;stroke-width:0.5;" x="172.7225" xlink:href="#m58c6cbe009" y="23.14175"/>
      </g>
     </g>
     <g id="text_2">
      <!-- Bully -->
      <defs>
       <path d="M 32.171875 -5.078125 
Q 28.375 -14.84375 24.75 -17.8125 
Q 21.140625 -20.796875 15.09375 -20.796875 
L 7.90625 -20.796875 
L 7.90625 -13.28125 
L 13.1875 -13.28125 
Q 16.890625 -13.28125 18.9375 -11.515625 
Q 21 -9.765625 23.484375 -3.21875 
L 25.09375 0.875 
L 2.984375 54.6875 
L 12.5 54.6875 
L 29.59375 11.921875 
L 46.6875 54.6875 
L 56.203125 54.6875 
z
" id="BitstreamVeraSans-Roman-79"/>
       <path d="M 19.671875 34.8125 
L 19.671875 8.109375 
L 35.5 8.109375 
Q 43.453125 8.109375 47.28125 11.40625 
Q 51.125 14.703125 51.125 21.484375 
Q 51.125 28.328125 47.28125 31.5625 
Q 43.453125 34.8125 35.5 34.8125 
z
M 19.671875 64.796875 
L 19.671875 42.828125 
L 34.28125 42.828125 
Q 41.5 42.828125 45.03125 45.53125 
Q 48.578125 48.25 48.578125 53.8125 
Q 48.578125 59.328125 45.03125 62.0625 
Q 41.5 64.796875 34.28125 64.796875 
z
M 9.8125 72.90625 
L 35.015625 72.90625 
Q 46.296875 72.90625 52.390625 68.21875 
Q 58.5 63.53125 58.5 54.890625 
Q 58.5 48.1875 55.375 44.234375 
Q 52.25 40.28125 46.1875 39.3125 
Q 53.46875 37.75 57.5 32.78125 
Q 61.53125 27.828125 61.53125 20.40625 
Q 61.53125 10.640625 54.890625 5.3125 
Q 48.25 0 35.984375 0 
L 9.8125 0 
z
" id="BitstreamVeraSans-Roman-42"/>
       <path d="M 8.5 21.578125 
L 8.5 54.6875 
L 17.484375 54.6875 
L 17.484375 21.921875 
Q 17.484375 14.15625 20.5 10.265625 
Q 23.53125 6.390625 29.59375 6.390625 
Q 36.859375 6.390625 41.078125 11.03125 
Q 45.3125 15.671875 45.3125 23.6875 
L 45.3125 54.6875 
L 54.296875 54.6875 
L 54.296875 0 
L 45.3125 0 
L 45.3125 8.40625 
Q 42.046875 3.421875 37.71875 1 
Q 33.40625 -1.421875 27.6875 -1.421875 
Q 18.265625 -1.421875 13.375 4.4375 
Q 8.5 10.296875 8.5 21.578125 
" id="BitstreamVeraSans-Roman-75"/>
       <path d="M 9.421875 75.984375 
L 18.40625 75.984375 
L 18.40625 0 
L 9.421875 0 
z
" id="BitstreamVeraSans-Roman-6c"/>
      </defs>
      <g transform="translate(174.93 392.4805)rotate(-90.0)scale(0.08 -0.08)">
       <use xlink:href="#BitstreamVeraSans-Roman-42"/>
       <use x="68.603515625" xlink:href="#BitstreamVeraSans-Roman-75"/>
       <use x="131.982421875" xlink:href="#BitstreamVeraSans-Roman-6c"/>
       <use x="159.765625" xlink:href="#BitstreamVeraSans-Roman-6c"/>
       <use x="187.548828125" xlink:href="#BitstreamVeraSans-Roman-79"/>
      </g>
     </g>
    </g>
    <g id="xtick_3">
     <g id="line2d_5">
      <g>
       <use style="stroke:#000000;stroke-width:0.5;" x="247.1225" xlink:href="#ma2c652f956" y="368.74175"/>
      </g>
     </g>
     <g id="line2d_6">
      <g>
       <use style="stroke:#000000;stroke-width:0.5;" x="247.1225" xlink:href="#m58c6cbe009" y="23.14175"/>
      </g>
     </g>
     <g id="text_3">
      <!-- Suspicious Tit For Tat -->
      <defs>
       <path id="BitstreamVeraSans-Roman-20"/>
       <path d="M 9.8125 72.90625 
L 51.703125 72.90625 
L 51.703125 64.59375 
L 19.671875 64.59375 
L 19.671875 43.109375 
L 48.578125 43.109375 
L 48.578125 34.8125 
L 19.671875 34.8125 
L 19.671875 0 
L 9.8125 0 
z
" id="BitstreamVeraSans-Roman-46"/>
       <path d="M 34.28125 27.484375 
Q 23.390625 27.484375 19.1875 25 
Q 14.984375 22.515625 14.984375 16.5 
Q 14.984375 11.71875 18.140625 8.90625 
Q 21.296875 6.109375 26.703125 6.109375 
Q 34.1875 6.109375 38.703125 11.40625 
Q 43.21875 16.703125 43.21875 25.484375 
L 43.21875 27.484375 
z
M 52.203125 31.203125 
L 52.203125 0 
L 43.21875 0 
L 43.21875 8.296875 
Q 40.140625 3.328125 35.546875 0.953125 
Q 30.953125 -1.421875 24.3125 -1.421875 
Q 15.921875 -1.421875 10.953125 3.296875 
Q 6 8.015625 6 15.921875 
Q 6 25.140625 12.171875 29.828125 
Q 18.359375 34.515625 30.609375 34.515625 
L 43.21875 34.515625 
L 43.21875 35.40625 
Q 43.21875 41.609375 39.140625 45 
Q 35.0625 48.390625 27.6875 48.390625 
Q 23 48.390625 18.546875 47.265625 
Q 14.109375 46.140625 10.015625 43.890625 
L 10.015625 52.203125 
Q 14.9375 54.109375 19.578125 55.046875 
Q 24.21875 56 28.609375 56 
Q 40.484375 56 46.34375 49.84375 
Q 52.203125 43.703125 52.203125 31.203125 
" id="BitstreamVeraSans-Roman-61"/>
       <path d="M 44.28125 53.078125 
L 44.28125 44.578125 
Q 40.484375 46.53125 36.375 47.5 
Q 32.28125 48.484375 27.875 48.484375 
Q 21.1875 48.484375 17.84375 46.4375 
Q 14.5 44.390625 14.5 40.28125 
Q 14.5 37.15625 16.890625 35.375 
Q 19.28125 33.59375 26.515625 31.984375 
L 29.59375 31.296875 
Q 39.15625 29.25 43.1875 25.515625 
Q 47.21875 21.78125 47.21875 15.09375 
Q 47.21875 7.46875 41.1875 3.015625 
Q 35.15625 -1.421875 24.609375 -1.421875 
Q 20.21875 -1.421875 15.453125 -0.5625 
Q 10.6875 0.296875 5.421875 2 
L 5.421875 11.28125 
Q 10.40625 8.6875 15.234375 7.390625 
Q 20.0625 6.109375 24.8125 6.109375 
Q 31.15625 6.109375 34.5625 8.28125 
Q 37.984375 10.453125 37.984375 14.40625 
Q 37.984375 18.0625 35.515625 20.015625 
Q 33.0625 21.96875 24.703125 23.78125 
L 21.578125 24.515625 
Q 13.234375 26.265625 9.515625 29.90625 
Q 5.8125 33.546875 5.8125 39.890625 
Q 5.8125 47.609375 11.28125 51.796875 
Q 16.75 56 26.8125 56 
Q 31.78125 56 36.171875 55.265625 
Q 40.578125 54.546875 44.28125 53.078125 
" id="BitstreamVeraSans-Roman-73"/>
       <path d="M 18.109375 8.203125 
L 18.109375 -20.796875 
L 9.078125 -20.796875 
L 9.078125 54.6875 
L 18.109375 54.6875 
L 18.109375 46.390625 
Q 20.953125 51.265625 25.265625 53.625 
Q 29.59375 56 35.59375 56 
Q 45.5625 56 51.78125 48.09375 
Q 58.015625 40.1875 58.015625 27.296875 
Q 58.015625 14.40625 51.78125 6.484375 
Q 45.5625 -1.421875 35.59375 -1.421875 
Q 29.59375 -1.421875 25.265625 0.953125 
Q 20.953125 3.328125 18.109375 8.203125 
M 48.6875 27.296875 
Q 48.6875 37.203125 44.609375 42.84375 
Q 40.53125 48.484375 33.40625 48.484375 
Q 26.265625 48.484375 22.1875 42.84375 
Q 18.109375 37.203125 18.109375 27.296875 
Q 18.109375 17.390625 22.1875 11.75 
Q 26.265625 6.109375 33.40625 6.109375 
Q 40.53125 6.109375 44.609375 11.75 
Q 48.6875 17.390625 48.6875 27.296875 
" id="BitstreamVeraSans-Roman-70"/>
       <path d="M 9.421875 54.6875 
L 18.40625 54.6875 
L 18.40625 0 
L 9.421875 0 
z
M 9.421875 75.984375 
L 18.40625 75.984375 
L 18.40625 64.59375 
L 9.421875 64.59375 
z
" id="BitstreamVeraSans-Roman-69"/>
       <path d="M -0.296875 72.90625 
L 61.375 72.90625 
L 61.375 64.59375 
L 35.5 64.59375 
L 35.5 0 
L 25.59375 0 
L 25.59375 64.59375 
L -0.296875 64.59375 
z
" id="BitstreamVeraSans-Roman-54"/>
       <path d="M 53.515625 70.515625 
L 53.515625 60.890625 
Q 47.90625 63.578125 42.921875 64.890625 
Q 37.9375 66.21875 33.296875 66.21875 
Q 25.25 66.21875 20.875 63.09375 
Q 16.5 59.96875 16.5 54.203125 
Q 16.5 49.359375 19.40625 46.890625 
Q 22.3125 44.4375 30.421875 42.921875 
L 36.375 41.703125 
Q 47.40625 39.59375 52.65625 34.296875 
Q 57.90625 29 57.90625 20.125 
Q 57.90625 9.515625 50.796875 4.046875 
Q 43.703125 -1.421875 29.984375 -1.421875 
Q 24.8125 -1.421875 18.96875 -0.25 
Q 13.140625 0.921875 6.890625 3.21875 
L 6.890625 13.375 
Q 12.890625 10.015625 18.65625 8.296875 
Q 24.421875 6.59375 29.984375 6.59375 
Q 38.421875 6.59375 43.015625 9.90625 
Q 47.609375 13.234375 47.609375 19.390625 
Q 47.609375 24.75 44.3125 27.78125 
Q 41.015625 30.8125 33.5 32.328125 
L 27.484375 33.5 
Q 16.453125 35.6875 11.515625 40.375 
Q 6.59375 45.0625 6.59375 53.421875 
Q 6.59375 63.09375 13.40625 68.65625 
Q 20.21875 74.21875 32.171875 74.21875 
Q 37.3125 74.21875 42.625 73.28125 
Q 47.953125 72.359375 53.515625 70.515625 
" id="BitstreamVeraSans-Roman-53"/>
      </defs>
      <g transform="translate(249.33 458.668)rotate(-90.0)scale(0.08 -0.08)">
       <use xlink:href="#BitstreamVeraSans-Roman-53"/>
       <use x="63.4765625" xlink:href="#BitstreamVeraSans-Roman-75"/>
       <use x="126.85546875" xlink:href="#BitstreamVeraSans-Roman-73"/>
       <use x="178.955078125" xlink:href="#BitstreamVeraSans-Roman-70"/>
       <use x="242.431640625" xlink:href="#BitstreamVeraSans-Roman-69"/>
       <use x="270.21484375" xlink:href="#BitstreamVeraSans-Roman-63"/>
       <use x="325.1953125" xlink:href="#BitstreamVeraSans-Roman-69"/>
       <use x="352.978515625" xlink:href="#BitstreamVeraSans-Roman-6f"/>
       <use x="414.16015625" xlink:href="#BitstreamVeraSans-Roman-75"/>
       <use x="477.5390625" xlink:href="#BitstreamVeraSans-Roman-73"/>
       <use x="529.638671875" xlink:href="#BitstreamVeraSans-Roman-20"/>
       <use x="561.42578125" xlink:href="#BitstreamVeraSans-Roman-54"/>
       <use x="622.462890625" xlink:href="#BitstreamVeraSans-Roman-69"/>
       <use x="650.24609375" xlink:href="#BitstreamVeraSans-Roman-74"/>
       <use x="689.455078125" xlink:href="#BitstreamVeraSans-Roman-20"/>
       <use x="721.2421875" xlink:href="#BitstreamVeraSans-Roman-46"/>
       <use x="778.71484375" xlink:href="#BitstreamVeraSans-Roman-6f"/>
       <use x="839.896484375" xlink:href="#BitstreamVeraSans-Roman-72"/>
       <use x="881.009765625" xlink:href="#BitstreamVeraSans-Roman-20"/>
       <use x="912.796875" xlink:href="#BitstreamVeraSans-Roman-54"/>
       <use x="973.630859375" xlink:href="#BitstreamVeraSans-Roman-61"/>
       <use x="1034.91015625" xlink:href="#BitstreamVeraSans-Roman-74"/>
      </g>
     </g>
    </g>
    <g id="xtick_4">
     <g id="line2d_7">
      <g>
       <use style="stroke:#000000;stroke-width:0.5;" x="321.5225" xlink:href="#ma2c652f956" y="368.74175"/>
      </g>
     </g>
     <g id="line2d_8">
      <g>
       <use style="stroke:#000000;stroke-width:0.5;" x="321.5225" xlink:href="#m58c6cbe009" y="23.14175"/>
      </g>
     </g>
     <g id="text_4">
      <!-- Tit For Tat -->
      <g transform="translate(323.73 413.75425)rotate(-90.0)scale(0.08 -0.08)">
       <use xlink:href="#BitstreamVeraSans-Roman-54"/>
       <use x="61.037109375" xlink:href="#BitstreamVeraSans-Roman-69"/>
       <use x="88.8203125" xlink:href="#BitstreamVeraSans-Roman-74"/>
       <use x="128.029296875" xlink:href="#BitstreamVeraSans-Roman-20"/>
       <use x="159.81640625" xlink:href="#BitstreamVeraSans-Roman-46"/>
       <use x="217.2890625" xlink:href="#BitstreamVeraSans-Roman-6f"/>
       <use x="278.470703125" xlink:href="#BitstreamVeraSans-Roman-72"/>
       <use x="319.583984375" xlink:href="#BitstreamVeraSans-Roman-20"/>
       <use x="351.37109375" xlink:href="#BitstreamVeraSans-Roman-54"/>
       <use x="412.205078125" xlink:href="#BitstreamVeraSans-Roman-61"/>
       <use x="473.484375" xlink:href="#BitstreamVeraSans-Roman-74"/>
      </g>
     </g>
    </g>
    <g id="xtick_5">
     <g id="line2d_9">
      <g>
       <use style="stroke:#000000;stroke-width:0.5;" x="395.9225" xlink:href="#ma2c652f956" y="368.74175"/>
      </g>
     </g>
     <g id="line2d_10">
      <g>
       <use style="stroke:#000000;stroke-width:0.5;" x="395.9225" xlink:href="#m58c6cbe009" y="23.14175"/>
      </g>
     </g>
     <g id="text_5">
      <!-- Anti Tit For Tat -->
      <defs>
       <path d="M 34.1875 63.1875 
L 20.796875 26.90625 
L 47.609375 26.90625 
z
M 28.609375 72.90625 
L 39.796875 72.90625 
L 67.578125 0 
L 57.328125 0 
L 50.6875 18.703125 
L 17.828125 18.703125 
L 11.1875 0 
L 0.78125 0 
z
" id="BitstreamVeraSans-Roman-41"/>
       <path d="M 54.890625 33.015625 
L 54.890625 0 
L 45.90625 0 
L 45.90625 32.71875 
Q 45.90625 40.484375 42.875 44.328125 
Q 39.84375 48.1875 33.796875 48.1875 
Q 26.515625 48.1875 22.3125 43.546875 
Q 18.109375 38.921875 18.109375 30.90625 
L 18.109375 0 
L 9.078125 0 
L 9.078125 54.6875 
L 18.109375 54.6875 
L 18.109375 46.1875 
Q 21.34375 51.125 25.703125 53.5625 
Q 30.078125 56 35.796875 56 
Q 45.21875 56 50.046875 50.171875 
Q 54.890625 44.34375 54.890625 33.015625 
" id="BitstreamVeraSans-Roman-6e"/>
      </defs>
      <g transform="translate(398.13 432.198)rotate(-90.0)scale(0.08 -0.08)">
       <use xlink:href="#BitstreamVeraSans-Roman-41"/>
       <use x="68.408203125" xlink:href="#BitstreamVeraSans-Roman-6e"/>
       <use x="131.787109375" xlink:href="#BitstreamVeraSans-Roman-74"/>
       <use x="170.99609375" xlink:href="#BitstreamVeraSans-Roman-69"/>
       <use x="198.779296875" xlink:href="#BitstreamVeraSans-Roman-20"/>
       <use x="230.56640625" xlink:href="#BitstreamVeraSans-Roman-54"/>
       <use x="291.603515625" xlink:href="#BitstreamVeraSans-Roman-69"/>
       <use x="319.38671875" xlink:href="#BitstreamVeraSans-Roman-74"/>
       <use x="358.595703125" xlink:href="#BitstreamVeraSans-Roman-20"/>
       <use x="390.3828125" xlink:href="#BitstreamVeraSans-Roman-46"/>
       <use x="447.85546875" xlink:href="#BitstreamVeraSans-Roman-6f"/>
       <use x="509.037109375" xlink:href="#BitstreamVeraSans-Roman-72"/>
       <use x="550.150390625" xlink:href="#BitstreamVeraSans-Roman-20"/>
       <use x="581.9375" xlink:href="#BitstreamVeraSans-Roman-54"/>
       <use x="642.771484375" xlink:href="#BitstreamVeraSans-Roman-61"/>
       <use x="704.05078125" xlink:href="#BitstreamVeraSans-Roman-74"/>
      </g>
     </g>
    </g>
    <g id="xtick_6">
     <g id="line2d_11">
      <g>
       <use style="stroke:#000000;stroke-width:0.5;" x="470.3225" xlink:href="#ma2c652f956" y="368.74175"/>
      </g>
     </g>
     <g id="line2d_12">
      <g>
       <use style="stroke:#000000;stroke-width:0.5;" x="470.3225" xlink:href="#m58c6cbe009" y="23.14175"/>
      </g>
     </g>
     <g id="text_6">
      <!-- Win-Stay Lose-Shift -->
      <defs>
       <path d="M 9.8125 72.90625 
L 19.671875 72.90625 
L 19.671875 8.296875 
L 55.171875 8.296875 
L 55.171875 0 
L 9.8125 0 
z
" id="BitstreamVeraSans-Roman-4c"/>
       <path d="M 54.890625 33.015625 
L 54.890625 0 
L 45.90625 0 
L 45.90625 32.71875 
Q 45.90625 40.484375 42.875 44.328125 
Q 39.84375 48.1875 33.796875 48.1875 
Q 26.515625 48.1875 22.3125 43.546875 
Q 18.109375 38.921875 18.109375 30.90625 
L 18.109375 0 
L 9.078125 0 
L 9.078125 75.984375 
L 18.109375 75.984375 
L 18.109375 46.1875 
Q 21.34375 51.125 25.703125 53.5625 
Q 30.078125 56 35.796875 56 
Q 45.21875 56 50.046875 50.171875 
Q 54.890625 44.34375 54.890625 33.015625 
" id="BitstreamVeraSans-Roman-68"/>
       <path d="M 3.328125 72.90625 
L 13.28125 72.90625 
L 28.609375 11.28125 
L 43.890625 72.90625 
L 54.984375 72.90625 
L 70.3125 11.28125 
L 85.59375 72.90625 
L 95.609375 72.90625 
L 77.296875 0 
L 64.890625 0 
L 49.515625 63.28125 
L 33.984375 0 
L 21.578125 0 
z
" id="BitstreamVeraSans-Roman-57"/>
       <path d="M 4.890625 31.390625 
L 31.203125 31.390625 
L 31.203125 23.390625 
L 4.890625 23.390625 
z
" id="BitstreamVeraSans-Roman-2d"/>
      </defs>
      <g transform="translate(472.53 450.873)rotate(-90.0)scale(0.08 -0.08)">
       <use xlink:href="#BitstreamVeraSans-Roman-57"/>
       <use x="98.845703125" xlink:href="#BitstreamVeraSans-Roman-69"/>
       <use x="126.62890625" xlink:href="#BitstreamVeraSans-Roman-6e"/>
       <use x="190.0078125" xlink:href="#BitstreamVeraSans-Roman-2d"/>
       <use x="226.091796875" xlink:href="#BitstreamVeraSans-Roman-53"/>
       <use x="289.568359375" xlink:href="#BitstreamVeraSans-Roman-74"/>
       <use x="328.77734375" xlink:href="#BitstreamVeraSans-Roman-61"/>
       <use x="390.056640625" xlink:href="#BitstreamVeraSans-Roman-79"/>
       <use x="449.236328125" xlink:href="#BitstreamVeraSans-Roman-20"/>
       <use x="481.0234375" xlink:href="#BitstreamVeraSans-Roman-4c"/>
       <use x="536.720703125" xlink:href="#BitstreamVeraSans-Roman-6f"/>
       <use x="597.90234375" xlink:href="#BitstreamVeraSans-Roman-73"/>
       <use x="650.001953125" xlink:href="#BitstreamVeraSans-Roman-65"/>
       <use x="711.525390625" xlink:href="#BitstreamVeraSans-Roman-2d"/>
       <use x="747.609375" xlink:href="#BitstreamVeraSans-Roman-53"/>
       <use x="811.0859375" xlink:href="#BitstreamVeraSans-Roman-68"/>
       <use x="874.46484375" xlink:href="#BitstreamVeraSans-Roman-69"/>
       <use x="902.248046875" xlink:href="#BitstreamVeraSans-Roman-66"/>
       <use x="937.4375" xlink:href="#BitstreamVeraSans-Roman-74"/>
      </g>
     </g>
    </g>
    <g id="xtick_7">
     <g id="line2d_13">
      <g>
       <use style="stroke:#000000;stroke-width:0.5;" x="544.7225" xlink:href="#ma2c652f956" y="368.74175"/>
      </g>
     </g>
     <g id="line2d_14">
      <g>
       <use style="stroke:#000000;stroke-width:0.5;" x="544.7225" xlink:href="#m58c6cbe009" y="23.14175"/>
      </g>
     </g>
     <g id="text_7">
      <!-- Alternator -->
      <g transform="translate(546.93 413.0755)rotate(-90.0)scale(0.08 -0.08)">
       <use xlink:href="#BitstreamVeraSans-Roman-41"/>
       <use x="68.408203125" xlink:href="#BitstreamVeraSans-Roman-6c"/>
       <use x="96.19140625" xlink:href="#BitstreamVeraSans-Roman-74"/>
       <use x="135.400390625" xlink:href="#BitstreamVeraSans-Roman-65"/>
       <use x="196.923828125" xlink:href="#BitstreamVeraSans-Roman-72"/>
       <use x="238.021484375" xlink:href="#BitstreamVeraSans-Roman-6e"/>
       <use x="301.400390625" xlink:href="#BitstreamVeraSans-Roman-61"/>
       <use x="362.6796875" xlink:href="#BitstreamVeraSans-Roman-74"/>
       <use x="401.888671875" xlink:href="#BitstreamVeraSans-Roman-6f"/>
       <use x="463.0703125" xlink:href="#BitstreamVeraSans-Roman-72"/>
      </g>
     </g>
    </g>
    <g id="xtick_8">
     <g id="line2d_15">
      <g>
       <use style="stroke:#000000;stroke-width:0.5;" x="619.1225" xlink:href="#ma2c652f956" y="368.74175"/>
      </g>
     </g>
     <g id="line2d_16">
      <g>
       <use style="stroke:#000000;stroke-width:0.5;" x="619.1225" xlink:href="#m58c6cbe009" y="23.14175"/>
      </g>
     </g>
     <g id="text_8">
      <!-- Cooperator -->
      <defs>
       <path d="M 64.40625 67.28125 
L 64.40625 56.890625 
Q 59.421875 61.53125 53.78125 63.8125 
Q 48.140625 66.109375 41.796875 66.109375 
Q 29.296875 66.109375 22.65625 58.46875 
Q 16.015625 50.828125 16.015625 36.375 
Q 16.015625 21.96875 22.65625 14.328125 
Q 29.296875 6.6875 41.796875 6.6875 
Q 48.140625 6.6875 53.78125 8.984375 
Q 59.421875 11.28125 64.40625 15.921875 
L 64.40625 5.609375 
Q 59.234375 2.09375 53.4375 0.328125 
Q 47.65625 -1.421875 41.21875 -1.421875 
Q 24.65625 -1.421875 15.125 8.703125 
Q 5.609375 18.84375 5.609375 36.375 
Q 5.609375 53.953125 15.125 64.078125 
Q 24.65625 74.21875 41.21875 74.21875 
Q 47.75 74.21875 53.53125 72.484375 
Q 59.328125 70.75 64.40625 67.28125 
" id="BitstreamVeraSans-Roman-43"/>
      </defs>
      <g transform="translate(621.33 417.6305)rotate(-90.0)scale(0.08 -0.08)">
       <use xlink:href="#BitstreamVeraSans-Roman-43"/>
       <use x="69.82421875" xlink:href="#BitstreamVeraSans-Roman-6f"/>
       <use x="131.005859375" xlink:href="#BitstreamVeraSans-Roman-6f"/>
       <use x="192.1875" xlink:href="#BitstreamVeraSans-Roman-70"/>
       <use x="255.6640625" xlink:href="#BitstreamVeraSans-Roman-65"/>
       <use x="317.1875" xlink:href="#BitstreamVeraSans-Roman-72"/>
       <use x="358.30078125" xlink:href="#BitstreamVeraSans-Roman-61"/>
       <use x="419.580078125" xlink:href="#BitstreamVeraSans-Roman-74"/>
       <use x="458.7890625" xlink:href="#BitstreamVeraSans-Roman-6f"/>
       <use x="519.970703125" xlink:href="#BitstreamVeraSans-Roman-72"/>
      </g>
     </g>
    </g>
   </g>
   <g id="matplotlib.axis_2">
    <g id="ytick_1">
     <g id="line2d_17">
      <defs>
       <path d="M 0 0 
L 4 0 
" id="m7aa937fed0" style="stroke:#000000;stroke-width:0.5;"/>
      </defs>
      <g>
       <use style="stroke:#000000;stroke-width:0.5;" x="23.9225" xlink:href="#m7aa937fed0" y="368.74175"/>
      </g>
     </g>
     <g id="line2d_18">
      <defs>
       <path d="M 0 0 
L -4 0 
" id="mecdb19973a" style="stroke:#000000;stroke-width:0.5;"/>
      </defs>
      <g>
       <use style="stroke:#000000;stroke-width:0.5;" x="693.5225" xlink:href="#mecdb19973a" y="368.74175"/>
      </g>
     </g>
     <g id="text_9">
      <!-- 1.0 -->
      <defs>
       <path d="M 12.40625 8.296875 
L 28.515625 8.296875 
L 28.515625 63.921875 
L 10.984375 60.40625 
L 10.984375 69.390625 
L 28.421875 72.90625 
L 38.28125 72.90625 
L 38.28125 8.296875 
L 54.390625 8.296875 
L 54.390625 0 
L 12.40625 0 
z
" id="BitstreamVeraSans-Roman-31"/>
       <path d="M 31.78125 66.40625 
Q 24.171875 66.40625 20.328125 58.90625 
Q 16.5 51.421875 16.5 36.375 
Q 16.5 21.390625 20.328125 13.890625 
Q 24.171875 6.390625 31.78125 6.390625 
Q 39.453125 6.390625 43.28125 13.890625 
Q 47.125 21.390625 47.125 36.375 
Q 47.125 51.421875 43.28125 58.90625 
Q 39.453125 66.40625 31.78125 66.40625 
M 31.78125 74.21875 
Q 44.046875 74.21875 50.515625 64.515625 
Q 56.984375 54.828125 56.984375 36.375 
Q 56.984375 17.96875 50.515625 8.265625 
Q 44.046875 -1.421875 31.78125 -1.421875 
Q 19.53125 -1.421875 13.0625 8.265625 
Q 6.59375 17.96875 6.59375 36.375 
Q 6.59375 54.828125 13.0625 64.515625 
Q 19.53125 74.21875 31.78125 74.21875 
" id="BitstreamVeraSans-Roman-30"/>
       <path d="M 10.6875 12.40625 
L 21 12.40625 
L 21 0 
L 10.6875 0 
z
" id="BitstreamVeraSans-Roman-2e"/>
      </defs>
      <g transform="translate(7.2 370.94925)scale(0.08 -0.08)">
       <use xlink:href="#BitstreamVeraSans-Roman-31"/>
       <use x="63.623046875" xlink:href="#BitstreamVeraSans-Roman-2e"/>
       <use x="95.41015625" xlink:href="#BitstreamVeraSans-Roman-30"/>
      </g>
     </g>
    </g>
    <g id="ytick_2">
     <g id="line2d_19">
      <g>
       <use style="stroke:#000000;stroke-width:0.5;" x="23.9225" xlink:href="#m7aa937fed0" y="311.14175"/>
      </g>
     </g>
     <g id="line2d_20">
      <g>
       <use style="stroke:#000000;stroke-width:0.5;" x="693.5225" xlink:href="#mecdb19973a" y="311.14175"/>
      </g>
     </g>
     <g id="text_10">
      <!-- 1.5 -->
      <defs>
       <path d="M 10.796875 72.90625 
L 49.515625 72.90625 
L 49.515625 64.59375 
L 19.828125 64.59375 
L 19.828125 46.734375 
Q 21.96875 47.46875 24.109375 47.828125 
Q 26.265625 48.1875 28.421875 48.1875 
Q 40.625 48.1875 47.75 41.5 
Q 54.890625 34.8125 54.890625 23.390625 
Q 54.890625 11.625 47.5625 5.09375 
Q 40.234375 -1.421875 26.90625 -1.421875 
Q 22.3125 -1.421875 17.546875 -0.640625 
Q 12.796875 0.140625 7.71875 1.703125 
L 7.71875 11.625 
Q 12.109375 9.234375 16.796875 8.0625 
Q 21.484375 6.890625 26.703125 6.890625 
Q 35.15625 6.890625 40.078125 11.328125 
Q 45.015625 15.765625 45.015625 23.390625 
Q 45.015625 31 40.078125 35.4375 
Q 35.15625 39.890625 26.703125 39.890625 
Q 22.75 39.890625 18.8125 39.015625 
Q 14.890625 38.140625 10.796875 36.28125 
z
" id="BitstreamVeraSans-Roman-35"/>
      </defs>
      <g transform="translate(7.2 313.34925)scale(0.08 -0.08)">
       <use xlink:href="#BitstreamVeraSans-Roman-31"/>
       <use x="63.623046875" xlink:href="#BitstreamVeraSans-Roman-2e"/>
       <use x="95.41015625" xlink:href="#BitstreamVeraSans-Roman-35"/>
      </g>
     </g>
    </g>
    <g id="ytick_3">
     <g id="line2d_21">
      <g>
       <use style="stroke:#000000;stroke-width:0.5;" x="23.9225" xlink:href="#m7aa937fed0" y="253.54175"/>
      </g>
     </g>
     <g id="line2d_22">
      <g>
       <use style="stroke:#000000;stroke-width:0.5;" x="693.5225" xlink:href="#mecdb19973a" y="253.54175"/>
      </g>
     </g>
     <g id="text_11">
      <!-- 2.0 -->
      <defs>
       <path d="M 19.1875 8.296875 
L 53.609375 8.296875 
L 53.609375 0 
L 7.328125 0 
L 7.328125 8.296875 
Q 12.9375 14.109375 22.625 23.890625 
Q 32.328125 33.6875 34.8125 36.53125 
Q 39.546875 41.84375 41.421875 45.53125 
Q 43.3125 49.21875 43.3125 52.78125 
Q 43.3125 58.59375 39.234375 62.25 
Q 35.15625 65.921875 28.609375 65.921875 
Q 23.96875 65.921875 18.8125 64.3125 
Q 13.671875 62.703125 7.8125 59.421875 
L 7.8125 69.390625 
Q 13.765625 71.78125 18.9375 73 
Q 24.125 74.21875 28.421875 74.21875 
Q 39.75 74.21875 46.484375 68.546875 
Q 53.21875 62.890625 53.21875 53.421875 
Q 53.21875 48.921875 51.53125 44.890625 
Q 49.859375 40.875 45.40625 35.40625 
Q 44.1875 33.984375 37.640625 27.21875 
Q 31.109375 20.453125 19.1875 8.296875 
" id="BitstreamVeraSans-Roman-32"/>
      </defs>
      <g transform="translate(7.2 255.74925)scale(0.08 -0.08)">
       <use xlink:href="#BitstreamVeraSans-Roman-32"/>
       <use x="63.623046875" xlink:href="#BitstreamVeraSans-Roman-2e"/>
       <use x="95.41015625" xlink:href="#BitstreamVeraSans-Roman-30"/>
      </g>
     </g>
    </g>
    <g id="ytick_4">
     <g id="line2d_23">
      <g>
       <use style="stroke:#000000;stroke-width:0.5;" x="23.9225" xlink:href="#m7aa937fed0" y="195.94175"/>
      </g>
     </g>
     <g id="line2d_24">
      <g>
       <use style="stroke:#000000;stroke-width:0.5;" x="693.5225" xlink:href="#mecdb19973a" y="195.94175"/>
      </g>
     </g>
     <g id="text_12">
      <!-- 2.5 -->
      <g transform="translate(7.2 198.14925)scale(0.08 -0.08)">
       <use xlink:href="#BitstreamVeraSans-Roman-32"/>
       <use x="63.623046875" xlink:href="#BitstreamVeraSans-Roman-2e"/>
       <use x="95.41015625" xlink:href="#BitstreamVeraSans-Roman-35"/>
      </g>
     </g>
    </g>
    <g id="ytick_5">
     <g id="line2d_25">
      <g>
       <use style="stroke:#000000;stroke-width:0.5;" x="23.9225" xlink:href="#m7aa937fed0" y="138.34175"/>
      </g>
     </g>
     <g id="line2d_26">
      <g>
       <use style="stroke:#000000;stroke-width:0.5;" x="693.5225" xlink:href="#mecdb19973a" y="138.34175"/>
      </g>
     </g>
     <g id="text_13">
      <!-- 3.0 -->
      <defs>
       <path d="M 40.578125 39.3125 
Q 47.65625 37.796875 51.625 33 
Q 55.609375 28.21875 55.609375 21.1875 
Q 55.609375 10.40625 48.1875 4.484375 
Q 40.765625 -1.421875 27.09375 -1.421875 
Q 22.515625 -1.421875 17.65625 -0.515625 
Q 12.796875 0.390625 7.625 2.203125 
L 7.625 11.71875 
Q 11.71875 9.328125 16.59375 8.109375 
Q 21.484375 6.890625 26.8125 6.890625 
Q 36.078125 6.890625 40.9375 10.546875 
Q 45.796875 14.203125 45.796875 21.1875 
Q 45.796875 27.640625 41.28125 31.265625 
Q 36.765625 34.90625 28.71875 34.90625 
L 20.21875 34.90625 
L 20.21875 43.015625 
L 29.109375 43.015625 
Q 36.375 43.015625 40.234375 45.921875 
Q 44.09375 48.828125 44.09375 54.296875 
Q 44.09375 59.90625 40.109375 62.90625 
Q 36.140625 65.921875 28.71875 65.921875 
Q 24.65625 65.921875 20.015625 65.03125 
Q 15.375 64.15625 9.8125 62.3125 
L 9.8125 71.09375 
Q 15.4375 72.65625 20.34375 73.4375 
Q 25.25 74.21875 29.59375 74.21875 
Q 40.828125 74.21875 47.359375 69.109375 
Q 53.90625 64.015625 53.90625 55.328125 
Q 53.90625 49.265625 50.4375 45.09375 
Q 46.96875 40.921875 40.578125 39.3125 
" id="BitstreamVeraSans-Roman-33"/>
      </defs>
      <g transform="translate(7.2 140.54925)scale(0.08 -0.08)">
       <use xlink:href="#BitstreamVeraSans-Roman-33"/>
       <use x="63.623046875" xlink:href="#BitstreamVeraSans-Roman-2e"/>
       <use x="95.41015625" xlink:href="#BitstreamVeraSans-Roman-30"/>
      </g>
     </g>
    </g>
    <g id="ytick_6">
     <g id="line2d_27">
      <g>
       <use style="stroke:#000000;stroke-width:0.5;" x="23.9225" xlink:href="#m7aa937fed0" y="80.74175"/>
      </g>
     </g>
     <g id="line2d_28">
      <g>
       <use style="stroke:#000000;stroke-width:0.5;" x="693.5225" xlink:href="#mecdb19973a" y="80.74175"/>
      </g>
     </g>
     <g id="text_14">
      <!-- 3.5 -->
      <g transform="translate(7.2 82.94925)scale(0.08 -0.08)">
       <use xlink:href="#BitstreamVeraSans-Roman-33"/>
       <use x="63.623046875" xlink:href="#BitstreamVeraSans-Roman-2e"/>
       <use x="95.41015625" xlink:href="#BitstreamVeraSans-Roman-35"/>
      </g>
     </g>
    </g>
    <g id="ytick_7">
     <g id="line2d_29">
      <g>
       <use style="stroke:#000000;stroke-width:0.5;" x="23.9225" xlink:href="#m7aa937fed0" y="23.14175"/>
      </g>
     </g>
     <g id="line2d_30">
      <g>
       <use style="stroke:#000000;stroke-width:0.5;" x="693.5225" xlink:href="#mecdb19973a" y="23.14175"/>
      </g>
     </g>
     <g id="text_15">
      <!-- 4.0 -->
      <defs>
       <path d="M 37.796875 64.3125 
L 12.890625 25.390625 
L 37.796875 25.390625 
z
M 35.203125 72.90625 
L 47.609375 72.90625 
L 47.609375 25.390625 
L 58.015625 25.390625 
L 58.015625 17.1875 
L 47.609375 17.1875 
L 47.609375 0 
L 37.796875 0 
L 37.796875 17.1875 
L 4.890625 17.1875 
L 4.890625 26.703125 
z
" id="BitstreamVeraSans-Roman-34"/>
      </defs>
      <g transform="translate(7.2 25.34925)scale(0.08 -0.08)">
       <use xlink:href="#BitstreamVeraSans-Roman-34"/>
       <use x="63.623046875" xlink:href="#BitstreamVeraSans-Roman-2e"/>
       <use x="95.41015625" xlink:href="#BitstreamVeraSans-Roman-30"/>
      </g>
     </g>
    </g>
   </g>
   <g id="text_16">
    <!-- Payoffs. Prob end: 0.1, Repetitions: 2, Strategies: 8. -->
    <defs>
     <path d="M 45.40625 46.390625 
L 45.40625 75.984375 
L 54.390625 75.984375 
L 54.390625 0 
L 45.40625 0 
L 45.40625 8.203125 
Q 42.578125 3.328125 38.25 0.953125 
Q 33.9375 -1.421875 27.875 -1.421875 
Q 17.96875 -1.421875 11.734375 6.484375 
Q 5.515625 14.40625 5.515625 27.296875 
Q 5.515625 40.1875 11.734375 48.09375 
Q 17.96875 56 27.875 56 
Q 33.9375 56 38.25 53.625 
Q 42.578125 51.265625 45.40625 46.390625 
M 14.796875 27.296875 
Q 14.796875 17.390625 18.875 11.75 
Q 22.953125 6.109375 30.078125 6.109375 
Q 37.203125 6.109375 41.296875 11.75 
Q 45.40625 17.390625 45.40625 27.296875 
Q 45.40625 37.203125 41.296875 42.84375 
Q 37.203125 48.484375 30.078125 48.484375 
Q 22.953125 48.484375 18.875 42.84375 
Q 14.796875 37.203125 14.796875 27.296875 
" id="BitstreamVeraSans-Roman-64"/>
     <path d="M 44.390625 34.1875 
Q 47.5625 33.109375 50.5625 29.59375 
Q 53.5625 26.078125 56.59375 19.921875 
L 66.609375 0 
L 56 0 
L 46.6875 18.703125 
Q 43.0625 26.03125 39.671875 28.421875 
Q 36.28125 30.8125 30.421875 30.8125 
L 19.671875 30.8125 
L 19.671875 0 
L 9.8125 0 
L 9.8125 72.90625 
L 32.078125 72.90625 
Q 44.578125 72.90625 50.734375 67.671875 
Q 56.890625 62.453125 56.890625 51.90625 
Q 56.890625 45.015625 53.6875 40.46875 
Q 50.484375 35.9375 44.390625 34.1875 
M 19.671875 64.796875 
L 19.671875 38.921875 
L 32.078125 38.921875 
Q 39.203125 38.921875 42.84375 42.21875 
Q 46.484375 45.515625 46.484375 51.90625 
Q 46.484375 58.296875 42.84375 61.546875 
Q 39.203125 64.796875 32.078125 64.796875 
z
" id="BitstreamVeraSans-Roman-52"/>
     <path d="M 45.40625 27.984375 
Q 45.40625 37.75 41.375 43.109375 
Q 37.359375 48.484375 30.078125 48.484375 
Q 22.859375 48.484375 18.828125 43.109375 
Q 14.796875 37.75 14.796875 27.984375 
Q 14.796875 18.265625 18.828125 12.890625 
Q 22.859375 7.515625 30.078125 7.515625 
Q 37.359375 7.515625 41.375 12.890625 
Q 45.40625 18.265625 45.40625 27.984375 
M 54.390625 6.78125 
Q 54.390625 -7.171875 48.1875 -13.984375 
Q 42 -20.796875 29.203125 -20.796875 
Q 24.46875 -20.796875 20.265625 -20.09375 
Q 16.0625 -19.390625 12.109375 -17.921875 
L 12.109375 -9.1875 
Q 16.0625 -11.328125 19.921875 -12.34375 
Q 23.78125 -13.375 27.78125 -13.375 
Q 36.625 -13.375 41.015625 -8.765625 
Q 45.40625 -4.15625 45.40625 5.171875 
L 45.40625 9.625 
Q 42.625 4.78125 38.28125 2.390625 
Q 33.9375 0 27.875 0 
Q 17.828125 0 11.671875 7.65625 
Q 5.515625 15.328125 5.515625 27.984375 
Q 5.515625 40.671875 11.671875 48.328125 
Q 17.828125 56 27.875 56 
Q 33.9375 56 38.28125 53.609375 
Q 42.625 51.21875 45.40625 46.390625 
L 45.40625 54.6875 
L 54.390625 54.6875 
z
" id="BitstreamVeraSans-Roman-67"/>
     <path d="M 11.71875 12.40625 
L 22.015625 12.40625 
L 22.015625 4 
L 14.015625 -11.625 
L 7.71875 -11.625 
L 11.71875 4 
z
" id="BitstreamVeraSans-Roman-2c"/>
     <path d="M 11.71875 12.40625 
L 22.015625 12.40625 
L 22.015625 0 
L 11.71875 0 
z
M 11.71875 51.703125 
L 22.015625 51.703125 
L 22.015625 39.3125 
L 11.71875 39.3125 
z
" id="BitstreamVeraSans-Roman-3a"/>
     <path d="M 31.78125 34.625 
Q 24.75 34.625 20.71875 30.859375 
Q 16.703125 27.09375 16.703125 20.515625 
Q 16.703125 13.921875 20.71875 10.15625 
Q 24.75 6.390625 31.78125 6.390625 
Q 38.8125 6.390625 42.859375 10.171875 
Q 46.921875 13.96875 46.921875 20.515625 
Q 46.921875 27.09375 42.890625 30.859375 
Q 38.875 34.625 31.78125 34.625 
M 21.921875 38.8125 
Q 15.578125 40.375 12.03125 44.71875 
Q 8.5 49.078125 8.5 55.328125 
Q 8.5 64.0625 14.71875 69.140625 
Q 20.953125 74.21875 31.78125 74.21875 
Q 42.671875 74.21875 48.875 69.140625 
Q 55.078125 64.0625 55.078125 55.328125 
Q 55.078125 49.078125 51.53125 44.71875 
Q 48 40.375 41.703125 38.8125 
Q 48.828125 37.15625 52.796875 32.3125 
Q 56.78125 27.484375 56.78125 20.515625 
Q 56.78125 9.90625 50.3125 4.234375 
Q 43.84375 -1.421875 31.78125 -1.421875 
Q 19.734375 -1.421875 13.25 4.234375 
Q 6.78125 9.90625 6.78125 20.515625 
Q 6.78125 27.484375 10.78125 32.3125 
Q 14.796875 37.15625 21.921875 38.8125 
M 18.3125 54.390625 
Q 18.3125 48.734375 21.84375 45.5625 
Q 25.390625 42.390625 31.78125 42.390625 
Q 38.140625 42.390625 41.71875 45.5625 
Q 45.3125 48.734375 45.3125 54.390625 
Q 45.3125 60.0625 41.71875 63.234375 
Q 38.140625 66.40625 31.78125 66.40625 
Q 25.390625 66.40625 21.84375 63.234375 
Q 18.3125 60.0625 18.3125 54.390625 
" id="BitstreamVeraSans-Roman-38"/>
     <path d="M 19.671875 64.796875 
L 19.671875 37.40625 
L 32.078125 37.40625 
Q 38.96875 37.40625 42.71875 40.96875 
Q 46.484375 44.53125 46.484375 51.125 
Q 46.484375 57.671875 42.71875 61.234375 
Q 38.96875 64.796875 32.078125 64.796875 
z
M 9.8125 72.90625 
L 32.078125 72.90625 
Q 44.34375 72.90625 50.609375 67.359375 
Q 56.890625 61.8125 56.890625 51.125 
Q 56.890625 40.328125 50.609375 34.8125 
Q 44.34375 29.296875 32.078125 29.296875 
L 19.671875 29.296875 
L 19.671875 0 
L 9.8125 0 
z
" id="BitstreamVeraSans-Roman-50"/>
     <path d="M 48.6875 27.296875 
Q 48.6875 37.203125 44.609375 42.84375 
Q 40.53125 48.484375 33.40625 48.484375 
Q 26.265625 48.484375 22.1875 42.84375 
Q 18.109375 37.203125 18.109375 27.296875 
Q 18.109375 17.390625 22.1875 11.75 
Q 26.265625 6.109375 33.40625 6.109375 
Q 40.53125 6.109375 44.609375 11.75 
Q 48.6875 17.390625 48.6875 27.296875 
M 18.109375 46.390625 
Q 20.953125 51.265625 25.265625 53.625 
Q 29.59375 56 35.59375 56 
Q 45.5625 56 51.78125 48.09375 
Q 58.015625 40.1875 58.015625 27.296875 
Q 58.015625 14.40625 51.78125 6.484375 
Q 45.5625 -1.421875 35.59375 -1.421875 
Q 29.59375 -1.421875 25.265625 0.953125 
Q 20.953125 3.328125 18.109375 8.203125 
L 18.109375 0 
L 9.078125 0 
L 9.078125 75.984375 
L 18.109375 75.984375 
z
" id="BitstreamVeraSans-Roman-62"/>
    </defs>
    <g transform="translate(172.023125 18.14175)scale(0.144 -0.144)">
     <use xlink:href="#BitstreamVeraSans-Roman-50"/>
     <use x="60.240234375" xlink:href="#BitstreamVeraSans-Roman-61"/>
     <use x="121.51953125" xlink:href="#BitstreamVeraSans-Roman-79"/>
     <use x="180.69921875" xlink:href="#BitstreamVeraSans-Roman-6f"/>
     <use x="241.880859375" xlink:href="#BitstreamVeraSans-Roman-66"/>
     <use x="277.0859375" xlink:href="#BitstreamVeraSans-Roman-66"/>
     <use x="312.291015625" xlink:href="#BitstreamVeraSans-Roman-73"/>
     <use x="364.390625" xlink:href="#BitstreamVeraSans-Roman-2e"/>
     <use x="396.177734375" xlink:href="#BitstreamVeraSans-Roman-20"/>
     <use x="427.96484375" xlink:href="#BitstreamVeraSans-Roman-50"/>
     <use x="488.251953125" xlink:href="#BitstreamVeraSans-Roman-72"/>
     <use x="529.333984375" xlink:href="#BitstreamVeraSans-Roman-6f"/>
     <use x="590.515625" xlink:href="#BitstreamVeraSans-Roman-62"/>
     <use x="653.9921875" xlink:href="#BitstreamVeraSans-Roman-20"/>
     <use x="685.779296875" xlink:href="#BitstreamVeraSans-Roman-65"/>
     <use x="747.302734375" xlink:href="#BitstreamVeraSans-Roman-6e"/>
     <use x="810.681640625" xlink:href="#BitstreamVeraSans-Roman-64"/>
     <use x="874.158203125" xlink:href="#BitstreamVeraSans-Roman-3a"/>
     <use x="907.849609375" xlink:href="#BitstreamVeraSans-Roman-20"/>
     <use x="939.63671875" xlink:href="#BitstreamVeraSans-Roman-30"/>
     <use x="1003.259765625" xlink:href="#BitstreamVeraSans-Roman-2e"/>
     <use x="1035.046875" xlink:href="#BitstreamVeraSans-Roman-31"/>
     <use x="1098.669921875" xlink:href="#BitstreamVeraSans-Roman-2c"/>
     <use x="1130.45703125" xlink:href="#BitstreamVeraSans-Roman-20"/>
     <use x="1162.244140625" xlink:href="#BitstreamVeraSans-Roman-52"/>
     <use x="1231.6640625" xlink:href="#BitstreamVeraSans-Roman-65"/>
     <use x="1293.1875" xlink:href="#BitstreamVeraSans-Roman-70"/>
     <use x="1356.6640625" xlink:href="#BitstreamVeraSans-Roman-65"/>
     <use x="1418.1875" xlink:href="#BitstreamVeraSans-Roman-74"/>
     <use x="1457.396484375" xlink:href="#BitstreamVeraSans-Roman-69"/>
     <use x="1485.1796875" xlink:href="#BitstreamVeraSans-Roman-74"/>
     <use x="1524.388671875" xlink:href="#BitstreamVeraSans-Roman-69"/>
     <use x="1552.171875" xlink:href="#BitstreamVeraSans-Roman-6f"/>
     <use x="1613.353515625" xlink:href="#BitstreamVeraSans-Roman-6e"/>
     <use x="1676.732421875" xlink:href="#BitstreamVeraSans-Roman-73"/>
     <use x="1728.83203125" xlink:href="#BitstreamVeraSans-Roman-3a"/>
     <use x="1762.5234375" xlink:href="#BitstreamVeraSans-Roman-20"/>
     <use x="1794.310546875" xlink:href="#BitstreamVeraSans-Roman-32"/>
     <use x="1857.93359375" xlink:href="#BitstreamVeraSans-Roman-2c"/>
     <use x="1889.720703125" xlink:href="#BitstreamVeraSans-Roman-20"/>
     <use x="1921.5078125" xlink:href="#BitstreamVeraSans-Roman-53"/>
     <use x="1984.984375" xlink:href="#BitstreamVeraSans-Roman-74"/>
     <use x="2024.193359375" xlink:href="#BitstreamVeraSans-Roman-72"/>
     <use x="2065.306640625" xlink:href="#BitstreamVeraSans-Roman-61"/>
     <use x="2126.5859375" xlink:href="#BitstreamVeraSans-Roman-74"/>
     <use x="2165.794921875" xlink:href="#BitstreamVeraSans-Roman-65"/>
     <use x="2227.318359375" xlink:href="#BitstreamVeraSans-Roman-67"/>
     <use x="2290.794921875" xlink:href="#BitstreamVeraSans-Roman-69"/>
     <use x="2318.578125" xlink:href="#BitstreamVeraSans-Roman-65"/>
     <use x="2380.1015625" xlink:href="#BitstreamVeraSans-Roman-73"/>
     <use x="2432.201171875" xlink:href="#BitstreamVeraSans-Roman-3a"/>
     <use x="2465.892578125" xlink:href="#BitstreamVeraSans-Roman-20"/>
     <use x="2497.6796875" xlink:href="#BitstreamVeraSans-Roman-38"/>
     <use x="2561.302734375" xlink:href="#BitstreamVeraSans-Roman-2e"/>
    </g>
   </g>
  </g>
 </g>
 <defs>
  <clipPath id="p690d35810b">
   <rect height="345.6" width="669.6" x="23.9225" y="23.14175"/>
  </clipPath>
 </defs>
</svg>
