<?xml version="1.0" encoding="utf-8" standalone="no"?>
<!DOCTYPE svg PUBLIC "-//W3C//DTD SVG 1.1//EN"
  "http://www.w3.org/Graphics/SVG/1.1/DTD/svg11.dtd">
<!-- Created with matplotlib (http://matplotlib.org/) -->
<svg height="465pt" version="1.1" viewBox="0 0 699 465" width="699pt" xmlns="http://www.w3.org/2000/svg" xmlns:xlink="http://www.w3.org/1999/xlink">
 <defs>
  <style type="text/css">
*{stroke-linecap:butt;stroke-linejoin:round;stroke-miterlimit:100000;}
  </style>
 </defs>
 <g id="figure_1">
  <g id="patch_1">
   <path d="M 0 465.868 
L 699.79375 465.868 
L 699.79375 0 
L 0 0 
z
" style="fill:#ffffff;"/>
  </g>
  <g id="axes_1">
   <g id="patch_2">
    <path d="M 22.99375 368.74175 
L 692.59375 368.74175 
L 692.59375 23.14175 
L 22.99375 23.14175 
z
" style="fill:#ffffff;"/>
   </g>
   <g id="PolyCollection_1">
    <defs>
     <path d="M 114.06233 -269.92625 
L 80.72517 -269.92625 
L 80.596012 -271.380795 
L 80.596528 -272.835341 
L 80.724732 -274.289886 
L 80.975498 -275.744432 
L 81.340803 -277.198977 
L 81.810088 -278.653523 
L 82.370709 -280.108068 
L 83.008444 -281.562614 
L 83.708052 -283.017159 
L 84.453821 -284.471705 
L 85.230102 -285.92625 
L 86.021786 -287.380795 
L 86.814723 -288.835341 
L 87.596041 -290.289886 
L 88.354383 -291.744432 
L 89.080044 -293.198977 
L 89.765013 -294.653523 
L 90.402933 -296.108068 
L 90.988989 -297.562614 
L 91.51974 -299.017159 
L 91.992912 -300.471705 
L 92.407169 -301.92625 
L 92.761886 -303.380795 
L 93.056926 -304.835341 
L 93.292452 -306.289886 
L 93.468771 -307.744432 
L 93.586228 -309.198977 
L 93.645148 -310.653523 
L 93.645826 -312.108068 
L 93.588579 -313.562614 
L 93.473824 -315.017159 
L 93.302212 -316.471705 
L 93.074778 -317.92625 
L 92.793106 -319.380795 
L 92.459499 -320.835341 
L 92.077137 -322.289886 
L 91.650203 -323.744432 
L 91.183978 -325.198977 
L 90.68488 -326.653523 
L 90.16045 -328.108068 
L 89.619268 -329.562614 
L 89.070814 -331.017159 
L 88.525264 -332.471705 
L 87.993225 -333.92625 
L 87.485443 -335.380795 
L 87.012463 -336.835341 
L 86.584293 -338.289886 
L 86.210059 -339.744432 
L 85.897697 -341.198977 
L 85.653671 -342.653523 
L 85.482754 -344.108068 
L 85.387876 -345.562614 
L 85.370033 -347.017159 
L 85.428288 -348.471705 
L 85.559827 -349.92625 
L 85.760098 -351.380795 
L 86.022999 -352.835341 
L 86.341106 -354.289886 
L 86.705941 -355.744432 
L 87.108241 -357.198977 
L 87.53824 -358.653523 
L 87.985919 -360.108068 
L 88.441247 -361.562614 
L 88.894372 -363.017159 
L 89.335789 -364.471705 
L 89.756449 -365.92625 
L 90.147846 -367.380795 
L 90.502062 -368.835341 
L 90.811782 -370.289886 
L 91.070301 -371.744432 
L 91.271512 -373.198977 
L 91.409903 -374.653523 
L 91.480563 -376.108068 
L 91.479205 -377.562614 
L 91.402217 -379.017159 
L 91.24674 -380.471705 
L 91.010779 -381.92625 
L 90.693338 -383.380795 
L 90.294581 -384.835341 
L 89.816006 -386.289886 
L 89.260622 -387.744432 
L 88.633118 -389.198977 
L 87.939998 -390.653523 
L 87.189685 -392.108068 
L 86.39256 -393.562614 
L 85.56093 -395.017159 
L 84.708907 -396.471705 
L 83.852209 -397.92625 
L 83.007846 -399.380795 
L 82.193735 -400.835341 
L 81.428216 -402.289886 
L 80.729515 -403.744432 
L 80.115154 -405.198977 
L 79.601351 -406.653523 
L 79.202421 -408.108068 
L 78.930237 -409.562614 
L 78.79375 -411.017159 
L 78.798619 -412.471705 
L 78.946967 -413.92625 
L 115.840533 -413.92625 
L 115.840533 -413.92625 
L 115.988881 -412.471705 
L 115.99375 -411.017159 
L 115.857263 -409.562614 
L 115.585079 -408.108068 
L 115.186149 -406.653523 
L 114.672346 -405.198977 
L 114.057985 -403.744432 
L 113.359284 -402.289886 
L 112.593765 -400.835341 
L 111.779654 -399.380795 
L 110.935291 -397.92625 
L 110.078593 -396.471705 
L 109.22657 -395.017159 
L 108.39494 -393.562614 
L 107.597815 -392.108068 
L 106.847502 -390.653523 
L 106.154382 -389.198977 
L 105.526878 -387.744432 
L 104.971494 -386.289886 
L 104.492919 -384.835341 
L 104.094162 -383.380795 
L 103.776721 -381.92625 
L 103.54076 -380.471705 
L 103.385283 -379.017159 
L 103.308295 -377.562614 
L 103.306937 -376.108068 
L 103.377597 -374.653523 
L 103.515988 -373.198977 
L 103.717199 -371.744432 
L 103.975718 -370.289886 
L 104.285438 -368.835341 
L 104.639654 -367.380795 
L 105.031051 -365.92625 
L 105.451711 -364.471705 
L 105.893128 -363.017159 
L 106.346253 -361.562614 
L 106.801581 -360.108068 
L 107.24926 -358.653523 
L 107.679259 -357.198977 
L 108.081559 -355.744432 
L 108.446394 -354.289886 
L 108.764501 -352.835341 
L 109.027402 -351.380795 
L 109.227673 -349.92625 
L 109.359212 -348.471705 
L 109.417467 -347.017159 
L 109.399624 -345.562614 
L 109.304746 -344.108068 
L 109.133829 -342.653523 
L 108.889803 -341.198977 
L 108.577441 -339.744432 
L 108.203207 -338.289886 
L 107.775037 -336.835341 
L 107.302057 -335.380795 
L 106.794275 -333.92625 
L 106.262236 -332.471705 
L 105.716686 -331.017159 
L 105.168232 -329.562614 
L 104.62705 -328.108068 
L 104.10262 -326.653523 
L 103.603522 -325.198977 
L 103.137297 -323.744432 
L 102.710363 -322.289886 
L 102.328001 -320.835341 
L 101.994394 -319.380795 
L 101.712722 -317.92625 
L 101.485288 -316.471705 
L 101.313676 -315.017159 
L 101.198921 -313.562614 
L 101.141674 -312.108068 
L 101.142352 -310.653523 
L 101.201272 -309.198977 
L 101.318729 -307.744432 
L 101.495048 -306.289886 
L 101.730574 -304.835341 
L 102.025614 -303.380795 
L 102.380331 -301.92625 
L 102.794588 -300.471705 
L 103.26776 -299.017159 
L 103.798511 -297.562614 
L 104.384567 -296.108068 
L 105.022487 -294.653523 
L 105.707456 -293.198977 
L 106.433117 -291.744432 
L 107.191459 -290.289886 
L 107.972777 -288.835341 
L 108.765714 -287.380795 
L 109.557398 -285.92625 
L 110.333679 -284.471705 
L 111.079448 -283.017159 
L 111.779056 -281.562614 
L 112.416791 -280.108068 
L 112.977412 -278.653523 
L 113.446697 -277.198977 
L 113.812002 -275.744432 
L 114.062768 -274.289886 
L 114.190972 -272.835341 
L 114.191488 -271.380795 
L 114.06233 -269.92625 
z
" id="me7b5e2ad55" style="stroke:#000000;stroke-opacity:0.3;"/>
    </defs>
    <g clip-path="url(#pee643474ca)">
     <use style="fill:#bfbf00;fill-opacity:0.3;stroke:#000000;stroke-opacity:0.3;" x="0.0" xlink:href="#me7b5e2ad55" y="465.868"/>
    </g>
   </g>
   <g id="PolyCollection_2">
    <defs>
     <path d="M 175.472193 -128.695481 
L 168.115307 -128.695481 
L 167.901809 -131.5766 
L 167.734306 -134.457719 
L 167.618166 -137.338837 
L 167.556395 -140.219956 
L 167.549467 -143.101075 
L 167.595348 -145.982194 
L 167.689714 -148.863313 
L 167.826333 -151.744432 
L 167.997562 -154.625551 
L 168.194911 -157.50667 
L 168.409614 -160.387788 
L 168.633156 -163.268907 
L 168.857721 -166.150026 
L 169.076518 -169.031145 
L 169.283994 -171.912264 
L 169.475909 -174.793383 
L 169.649305 -177.674502 
L 169.802378 -180.555621 
L 169.934268 -183.43674 
L 170.044808 -186.317858 
L 170.134222 -189.198977 
L 170.202812 -192.080096 
L 170.250638 -194.961215 
L 170.277191 -197.842334 
L 170.28108 -200.723453 
L 170.259743 -203.604572 
L 170.209186 -206.485691 
L 170.12379 -209.366809 
L 169.996203 -212.247928 
L 169.817352 -215.129047 
L 169.576626 -218.010166 
L 169.26225 -220.891285 
L 168.861901 -223.772404 
L 168.363557 -226.653523 
L 167.756578 -229.534642 
L 167.032963 -232.41576 
L 166.188715 -235.296879 
L 165.225164 -238.177998 
L 164.150131 -241.059117 
L 162.978741 -243.940236 
L 161.73374 -246.821355 
L 160.445188 -249.702474 
L 159.149437 -252.583593 
L 157.887414 -255.464712 
L 156.702278 -258.34583 
L 155.636626 -261.226949 
L 154.729507 -264.108068 
L 154.013514 -266.989187 
L 153.512281 -269.870306 
L 153.238654 -272.751425 
L 153.19375 -275.632544 
L 153.367011 -278.513663 
L 153.737273 -281.394781 
L 154.274709 -284.2759 
L 154.94346 -287.157019 
L 155.704642 -290.038138 
L 156.519431 -292.919257 
L 157.351909 -295.800376 
L 158.171409 -298.681495 
L 158.954166 -301.562614 
L 159.684182 -304.443733 
L 160.353301 -307.324851 
L 160.960569 -310.20597 
L 161.511038 -313.087089 
L 162.014184 -315.968208 
L 162.482166 -318.849327 
L 162.928083 -321.730446 
L 163.364422 -324.611565 
L 163.801785 -327.492684 
L 164.247965 -330.373802 
L 164.7074 -333.254921 
L 165.180961 -336.13604 
L 165.66603 -339.017159 
L 166.156791 -341.898278 
L 166.644663 -344.779397 
L 167.118798 -347.660516 
L 167.566596 -350.541635 
L 167.974203 -353.422753 
L 168.326985 -356.303872 
L 168.609982 -359.184991 
L 168.808381 -362.06611 
L 168.908047 -364.947229 
L 168.896144 -367.828348 
L 168.761882 -370.709467 
L 168.497392 -373.590586 
L 168.098704 -376.471705 
L 167.566765 -379.352823 
L 166.908392 -382.233942 
L 166.137034 -385.115061 
L 165.273183 -387.99618 
L 164.344313 -390.877299 
L 163.384206 -393.758418 
L 162.431647 -396.639537 
L 161.528473 -399.520656 
L 160.717117 -402.401774 
L 160.037809 -405.282893 
L 159.525721 -408.164012 
L 159.208324 -411.045131 
L 159.103263 -413.92625 
L 184.484237 -413.92625 
L 184.484237 -413.92625 
L 184.379176 -411.045131 
L 184.061779 -408.164012 
L 183.549691 -405.282893 
L 182.870383 -402.401774 
L 182.059027 -399.520656 
L 181.155853 -396.639537 
L 180.203294 -393.758418 
L 179.243187 -390.877299 
L 178.314317 -387.99618 
L 177.450466 -385.115061 
L 176.679108 -382.233942 
L 176.020735 -379.352823 
L 175.488796 -376.471705 
L 175.090108 -373.590586 
L 174.825618 -370.709467 
L 174.691356 -367.828348 
L 174.679453 -364.947229 
L 174.779119 -362.06611 
L 174.977518 -359.184991 
L 175.260515 -356.303872 
L 175.613297 -353.422753 
L 176.020904 -350.541635 
L 176.468702 -347.660516 
L 176.942837 -344.779397 
L 177.430709 -341.898278 
L 177.92147 -339.017159 
L 178.406539 -336.13604 
L 178.8801 -333.254921 
L 179.339535 -330.373802 
L 179.785715 -327.492684 
L 180.223078 -324.611565 
L 180.659417 -321.730446 
L 181.105334 -318.849327 
L 181.573316 -315.968208 
L 182.076462 -313.087089 
L 182.626931 -310.20597 
L 183.234199 -307.324851 
L 183.903318 -304.443733 
L 184.633334 -301.562614 
L 185.416091 -298.681495 
L 186.235591 -295.800376 
L 187.068069 -292.919257 
L 187.882858 -290.038138 
L 188.64404 -287.157019 
L 189.312791 -284.2759 
L 189.850227 -281.394781 
L 190.220489 -278.513663 
L 190.39375 -275.632544 
L 190.348846 -272.751425 
L 190.075219 -269.870306 
L 189.573986 -266.989187 
L 188.857993 -264.108068 
L 187.950874 -261.226949 
L 186.885222 -258.34583 
L 185.700086 -255.464712 
L 184.438063 -252.583593 
L 183.142312 -249.702474 
L 181.85376 -246.821355 
L 180.608759 -243.940236 
L 179.437369 -241.059117 
L 178.362336 -238.177998 
L 177.398785 -235.296879 
L 176.554537 -232.41576 
L 175.830922 -229.534642 
L 175.223943 -226.653523 
L 174.725599 -223.772404 
L 174.32525 -220.891285 
L 174.010874 -218.010166 
L 173.770148 -215.129047 
L 173.591297 -212.247928 
L 173.46371 -209.366809 
L 173.378314 -206.485691 
L 173.327757 -203.604572 
L 173.30642 -200.723453 
L 173.310309 -197.842334 
L 173.336862 -194.961215 
L 173.384688 -192.080096 
L 173.453278 -189.198977 
L 173.542692 -186.317858 
L 173.653232 -183.43674 
L 173.785122 -180.555621 
L 173.938195 -177.674502 
L 174.111591 -174.793383 
L 174.303506 -171.912264 
L 174.510982 -169.031145 
L 174.729779 -166.150026 
L 174.954344 -163.268907 
L 175.177886 -160.387788 
L 175.392589 -157.50667 
L 175.589938 -154.625551 
L 175.761167 -151.744432 
L 175.897786 -148.863313 
L 175.992152 -145.982194 
L 176.038033 -143.101075 
L 176.031105 -140.219956 
L 175.969334 -137.338837 
L 175.853194 -134.457719 
L 175.685691 -131.5766 
L 175.472193 -128.695481 
z
" id="m7f653f9ccb" style="stroke:#000000;stroke-opacity:0.3;"/>
    </defs>
    <g clip-path="url(#pee643474ca)">
     <use style="fill:#bfbf00;fill-opacity:0.3;stroke:#000000;stroke-opacity:0.3;" x="0.0" xlink:href="#m7f653f9ccb" y="465.868"/>
    </g>
   </g>
   <g id="PolyCollection_3">
    <defs>
     <path d="M 264.534431 -269.92625 
L 227.853069 -269.92625 
L 227.59375 -271.380795 
L 227.665015 -272.835341 
L 228.049154 -274.289886 
L 228.710983 -275.744432 
L 229.60195 -277.198977 
L 230.665264 -278.653523 
L 231.841333 -280.108068 
L 233.072803 -281.562614 
L 234.308654 -283.017159 
L 235.506993 -284.471705 
L 236.636453 -285.92625 
L 237.676283 -287.380795 
L 238.615388 -288.835341 
L 239.450688 -290.289886 
L 240.185116 -291.744432 
L 240.825608 -293.198977 
L 241.3813 -294.653523 
L 241.862079 -296.108068 
L 242.277559 -297.562614 
L 242.636454 -299.017159 
L 242.946315 -300.471705 
L 243.213528 -301.92625 
L 243.443501 -303.380795 
L 243.640945 -304.835341 
L 243.810174 -306.289886 
L 243.955362 -307.744432 
L 244.080713 -309.198977 
L 244.190505 -310.653523 
L 244.289022 -312.108068 
L 244.380356 -313.562614 
L 244.46815 -315.017159 
L 244.555294 -316.471705 
L 244.643661 -317.92625 
L 244.733927 -319.380795 
L 244.825515 -320.835341 
L 244.916704 -322.289886 
L 245.004885 -323.744432 
L 245.086955 -325.198977 
L 245.159783 -326.653523 
L 245.220702 -328.108068 
L 245.267934 -329.562614 
L 245.300913 -331.017159 
L 245.320435 -332.471705 
L 245.328635 -333.92625 
L 245.328775 -335.380795 
L 245.324891 -336.835341 
L 245.321338 -338.289886 
L 245.322303 -339.744432 
L 245.331351 -341.198977 
L 245.351064 -342.653523 
L 245.382815 -344.108068 
L 245.426694 -345.562614 
L 245.481598 -347.017159 
L 245.545444 -348.471705 
L 245.615475 -349.92625 
L 245.688608 -351.380795 
L 245.761773 -352.835341 
L 245.832201 -354.289886 
L 245.897637 -355.744432 
L 245.95646 -357.198977 
L 246.007715 -358.653523 
L 246.051065 -360.108068 
L 246.086694 -361.562614 
L 246.115174 -363.017159 
L 246.137332 -364.471705 
L 246.154121 -365.92625 
L 246.166511 -367.380795 
L 246.175417 -368.835341 
L 246.181643 -370.289886 
L 246.185857 -371.744432 
L 246.188581 -373.198977 
L 246.190195 -374.653523 
L 246.190937 -376.108068 
L 246.190911 -377.562614 
L 246.190083 -379.017159 
L 246.188269 -380.471705 
L 246.185118 -381.92625 
L 246.180074 -383.380795 
L 246.172351 -384.835341 
L 246.160889 -386.289886 
L 246.144334 -387.744432 
L 246.121036 -389.198977 
L 246.089078 -390.653523 
L 246.046358 -392.108068 
L 245.990734 -393.562614 
L 245.920223 -395.017159 
L 245.833271 -396.471705 
L 245.729053 -397.92625 
L 245.607789 -399.380795 
L 245.471017 -400.835341 
L 245.321791 -402.289886 
L 245.164729 -403.744432 
L 245.005899 -405.198977 
L 244.852502 -406.653523 
L 244.712372 -408.108068 
L 244.593336 -409.562614 
L 244.502498 -411.017159 
L 244.445538 -412.471705 
L 244.426129 -413.92625 
L 247.961371 -413.92625 
L 247.961371 -413.92625 
L 247.941962 -412.471705 
L 247.885002 -411.017159 
L 247.794164 -409.562614 
L 247.675128 -408.108068 
L 247.534998 -406.653523 
L 247.381601 -405.198977 
L 247.222771 -403.744432 
L 247.065709 -402.289886 
L 246.916483 -400.835341 
L 246.779711 -399.380795 
L 246.658447 -397.92625 
L 246.554229 -396.471705 
L 246.467277 -395.017159 
L 246.396766 -393.562614 
L 246.341142 -392.108068 
L 246.298422 -390.653523 
L 246.266464 -389.198977 
L 246.243166 -387.744432 
L 246.226611 -386.289886 
L 246.215149 -384.835341 
L 246.207426 -383.380795 
L 246.202382 -381.92625 
L 246.199231 -380.471705 
L 246.197417 -379.017159 
L 246.196589 -377.562614 
L 246.196563 -376.108068 
L 246.197305 -374.653523 
L 246.198919 -373.198977 
L 246.201643 -371.744432 
L 246.205857 -370.289886 
L 246.212083 -368.835341 
L 246.220989 -367.380795 
L 246.233379 -365.92625 
L 246.250168 -364.471705 
L 246.272326 -363.017159 
L 246.300806 -361.562614 
L 246.336435 -360.108068 
L 246.379785 -358.653523 
L 246.43104 -357.198977 
L 246.489863 -355.744432 
L 246.555299 -354.289886 
L 246.625727 -352.835341 
L 246.698892 -351.380795 
L 246.772025 -349.92625 
L 246.842056 -348.471705 
L 246.905902 -347.017159 
L 246.960806 -345.562614 
L 247.004685 -344.108068 
L 247.036436 -342.653523 
L 247.056149 -341.198977 
L 247.065197 -339.744432 
L 247.066162 -338.289886 
L 247.062609 -336.835341 
L 247.058725 -335.380795 
L 247.058865 -333.92625 
L 247.067065 -332.471705 
L 247.086587 -331.017159 
L 247.119566 -329.562614 
L 247.166798 -328.108068 
L 247.227717 -326.653523 
L 247.300545 -325.198977 
L 247.382615 -323.744432 
L 247.470796 -322.289886 
L 247.561985 -320.835341 
L 247.653573 -319.380795 
L 247.743839 -317.92625 
L 247.832206 -316.471705 
L 247.91935 -315.017159 
L 248.007144 -313.562614 
L 248.098478 -312.108068 
L 248.196995 -310.653523 
L 248.306787 -309.198977 
L 248.432138 -307.744432 
L 248.577326 -306.289886 
L 248.746555 -304.835341 
L 248.943999 -303.380795 
L 249.173972 -301.92625 
L 249.441185 -300.471705 
L 249.751046 -299.017159 
L 250.109941 -297.562614 
L 250.525421 -296.108068 
L 251.0062 -294.653523 
L 251.561892 -293.198977 
L 252.202384 -291.744432 
L 252.936812 -290.289886 
L 253.772112 -288.835341 
L 254.711217 -287.380795 
L 255.751047 -285.92625 
L 256.880507 -284.471705 
L 258.078846 -283.017159 
L 259.314697 -281.562614 
L 260.546167 -280.108068 
L 261.722236 -278.653523 
L 262.78555 -277.198977 
L 263.676517 -275.744432 
L 264.338346 -274.289886 
L 264.722485 -272.835341 
L 264.79375 -271.380795 
L 264.534431 -269.92625 
z
" id="m48cc292b04" style="stroke:#000000;stroke-opacity:0.3;"/>
    </defs>
    <g clip-path="url(#pee643474ca)">
     <use style="fill:#bfbf00;fill-opacity:0.3;stroke:#000000;stroke-opacity:0.3;" x="0.0" xlink:href="#m48cc292b04" y="465.868"/>
    </g>
   </g>
   <g id="PolyCollection_4">
    <defs>
     <path d="M 321.644255 -125.92625 
L 319.543245 -125.92625 
L 319.558989 -127.380795 
L 319.604818 -128.835341 
L 319.676735 -130.289886 
L 319.768718 -131.744432 
L 319.873557 -133.198977 
L 319.983776 -134.653523 
L 320.092497 -136.108068 
L 320.194093 -137.562614 
L 320.284577 -139.017159 
L 320.36169 -140.471705 
L 320.424751 -141.92625 
L 320.474338 -143.380795 
L 320.511885 -144.835341 
L 320.539295 -146.289886 
L 320.558606 -147.744432 
L 320.571743 -149.198977 
L 320.58038 -150.653523 
L 320.585868 -152.108068 
L 320.589241 -153.562614 
L 320.591246 -155.017159 
L 320.592398 -156.471705 
L 320.593035 -157.92625 
L 320.593367 -159.380795 
L 320.593517 -160.835341 
L 320.593545 -162.289886 
L 320.59346 -163.744432 
L 320.59323 -165.198977 
L 320.592765 -166.653523 
L 320.591904 -168.108068 
L 320.590378 -169.562614 
L 320.587766 -171.017159 
L 320.583445 -172.471705 
L 320.576532 -173.92625 
L 320.565834 -175.380795 
L 320.549838 -176.835341 
L 320.526729 -178.289886 
L 320.494502 -179.744432 
L 320.451149 -181.198977 
L 320.394954 -182.653523 
L 320.324855 -184.108068 
L 320.240849 -185.562614 
L 320.144358 -187.017159 
L 320.038473 -188.471705 
L 319.927978 -189.92625 
L 319.819104 -191.380795 
L 319.718982 -192.835341 
L 319.634843 -194.289886 
L 319.57307 -195.744432 
L 319.538261 -197.198977 
L 319.532472 -198.653523 
L 319.554785 -200.108068 
L 319.601305 -201.562614 
L 319.665598 -203.017159 
L 319.739495 -204.471705 
L 319.814132 -205.92625 
L 319.881065 -207.380795 
L 319.933269 -208.835341 
L 319.965894 -210.289886 
L 319.97667 -211.744432 
L 319.965937 -213.198977 
L 319.936306 -214.653523 
L 319.892027 -216.108068 
L 319.838166 -217.562614 
L 319.77972 -219.017159 
L 319.72081 -220.471705 
L 319.664059 -221.92625 
L 319.610268 -223.380795 
L 319.55841 -224.835341 
L 319.505935 -226.289886 
L 319.449304 -227.744432 
L 319.384641 -229.198977 
L 319.308366 -230.653523 
L 319.217668 -232.108068 
L 319.110756 -233.562614 
L 318.986802 -235.017159 
L 318.845614 -236.471705 
L 318.687064 -237.92625 
L 318.510354 -239.380795 
L 318.313214 -240.835341 
L 318.0911 -242.289886 
L 317.836504 -243.744432 
L 317.53843 -245.198977 
L 317.182148 -246.653523 
L 316.749358 -248.108068 
L 316.218905 -249.562614 
L 315.56826 -251.017159 
L 314.775903 -252.471705 
L 313.824707 -253.92625 
L 312.706189 -255.380795 
L 311.425231 -256.835341 
L 310.004545 -258.289886 
L 308.487909 -259.744432 
L 306.941056 -261.198977 
L 305.449294 -262.653523 
L 304.111385 -264.108068 
L 303.029942 -265.562614 
L 302.299449 -267.017159 
L 301.99375 -268.471705 
L 302.155236 -269.92625 
L 339.032264 -269.92625 
L 339.032264 -269.92625 
L 339.19375 -268.471705 
L 338.888051 -267.017159 
L 338.157558 -265.562614 
L 337.076115 -264.108068 
L 335.738206 -262.653523 
L 334.246444 -261.198977 
L 332.699591 -259.744432 
L 331.182955 -258.289886 
L 329.762269 -256.835341 
L 328.481311 -255.380795 
L 327.362793 -253.92625 
L 326.411597 -252.471705 
L 325.61924 -251.017159 
L 324.968595 -249.562614 
L 324.438142 -248.108068 
L 324.005352 -246.653523 
L 323.64907 -245.198977 
L 323.350996 -243.744432 
L 323.0964 -242.289886 
L 322.874286 -240.835341 
L 322.677146 -239.380795 
L 322.500436 -237.92625 
L 322.341886 -236.471705 
L 322.200698 -235.017159 
L 322.076744 -233.562614 
L 321.969832 -232.108068 
L 321.879134 -230.653523 
L 321.802859 -229.198977 
L 321.738196 -227.744432 
L 321.681565 -226.289886 
L 321.62909 -224.835341 
L 321.577232 -223.380795 
L 321.523441 -221.92625 
L 321.46669 -220.471705 
L 321.40778 -219.017159 
L 321.349334 -217.562614 
L 321.295473 -216.108068 
L 321.251194 -214.653523 
L 321.221563 -213.198977 
L 321.21083 -211.744432 
L 321.221606 -210.289886 
L 321.254231 -208.835341 
L 321.306435 -207.380795 
L 321.373368 -205.92625 
L 321.448005 -204.471705 
L 321.521902 -203.017159 
L 321.586195 -201.562614 
L 321.632715 -200.108068 
L 321.655028 -198.653523 
L 321.649239 -197.198977 
L 321.61443 -195.744432 
L 321.552657 -194.289886 
L 321.468518 -192.835341 
L 321.368396 -191.380795 
L 321.259522 -189.92625 
L 321.149027 -188.471705 
L 321.043142 -187.017159 
L 320.946651 -185.562614 
L 320.862645 -184.108068 
L 320.792546 -182.653523 
L 320.736351 -181.198977 
L 320.692998 -179.744432 
L 320.660771 -178.289886 
L 320.637662 -176.835341 
L 320.621666 -175.380795 
L 320.610968 -173.92625 
L 320.604055 -172.471705 
L 320.599734 -171.017159 
L 320.597122 -169.562614 
L 320.595596 -168.108068 
L 320.594735 -166.653523 
L 320.59427 -165.198977 
L 320.59404 -163.744432 
L 320.593955 -162.289886 
L 320.593983 -160.835341 
L 320.594133 -159.380795 
L 320.594465 -157.92625 
L 320.595102 -156.471705 
L 320.596254 -155.017159 
L 320.598259 -153.562614 
L 320.601632 -152.108068 
L 320.60712 -150.653523 
L 320.615757 -149.198977 
L 320.628894 -147.744432 
L 320.648205 -146.289886 
L 320.675615 -144.835341 
L 320.713162 -143.380795 
L 320.762749 -141.92625 
L 320.82581 -140.471705 
L 320.902923 -139.017159 
L 320.993407 -137.562614 
L 321.095003 -136.108068 
L 321.203724 -134.653523 
L 321.313943 -133.198977 
L 321.418782 -131.744432 
L 321.510765 -130.289886 
L 321.582682 -128.835341 
L 321.628511 -127.380795 
L 321.644255 -125.92625 
z
" id="mf9331ba134" style="stroke:#000000;stroke-opacity:0.3;"/>
    </defs>
    <g clip-path="url(#pee643474ca)">
     <use style="fill:#bfbf00;fill-opacity:0.3;stroke:#000000;stroke-opacity:0.3;" x="0.0" xlink:href="#mf9331ba134" y="465.868"/>
    </g>
   </g>
   <g id="PolyCollection_5">
    <defs>
     <path d="M 396.213779 -125.92625 
L 393.773721 -125.92625 
L 393.792709 -128.108068 
L 393.848065 -130.289886 
L 393.934614 -132.471705 
L 394.044591 -134.653523 
L 394.168712 -136.835341 
L 394.297346 -139.017159 
L 394.421579 -141.198977 
L 394.533986 -143.380795 
L 394.629043 -145.562614 
L 394.703155 -147.744432 
L 394.754391 -149.92625 
L 394.782039 -152.108068 
L 394.786095 -154.289886 
L 394.766791 -156.471705 
L 394.724224 -158.653523 
L 394.658124 -160.835341 
L 394.567756 -163.017159 
L 394.451958 -165.198977 
L 394.309317 -167.380795 
L 394.138497 -169.562614 
L 393.938703 -171.744432 
L 393.710292 -173.92625 
L 393.45547 -176.108068 
L 393.17897 -178.289886 
L 392.888572 -180.471705 
L 392.59528 -182.653523 
L 392.313005 -184.835341 
L 392.057644 -187.017159 
L 391.845585 -189.198977 
L 391.691782 -191.380795 
L 391.607712 -193.562614 
L 391.599561 -195.744432 
L 391.667042 -197.92625 
L 391.803112 -200.108068 
L 391.994708 -202.289886 
L 392.224404 -204.471705 
L 392.472667 -206.653523 
L 392.720295 -208.835341 
L 392.950561 -211.017159 
L 393.150678 -213.198977 
L 393.312386 -215.380795 
L 393.431636 -217.562614 
L 393.507555 -219.744432 
L 393.540993 -221.92625 
L 393.532966 -224.108068 
L 393.483252 -226.289886 
L 393.389315 -228.471705 
L 393.245552 -230.653523 
L 393.042848 -232.835341 
L 392.76836 -235.017159 
L 392.40553 -237.198977 
L 391.934464 -239.380795 
L 391.33291 -241.562614 
L 390.578151 -243.744432 
L 389.650077 -245.92625 
L 388.535494 -248.108068 
L 387.233366 -250.289886 
L 385.760263 -252.471705 
L 384.154875 -254.653523 
L 382.480234 -256.835341 
L 380.822385 -259.017159 
L 379.284771 -261.198977 
L 377.978394 -263.380795 
L 377.00889 -265.562614 
L 376.462535 -267.744432 
L 376.39375 -269.92625 
L 376.816623 -272.108068 
L 377.702241 -274.289886 
L 378.982474 -276.471705 
L 380.559455 -278.653523 
L 382.318848 -280.835341 
L 384.144323 -283.017159 
L 385.93063 -285.198977 
L 387.593236 -287.380795 
L 389.073472 -289.562614 
L 390.339149 -291.744432 
L 391.38151 -293.92625 
L 392.209842 -296.108068 
L 392.845202 -298.289886 
L 393.314454 -300.471705 
L 393.645428 -302.653523 
L 393.863531 -304.835341 
L 393.98981 -307.017159 
L 394.040241 -309.198977 
L 394.025925 -311.380795 
L 393.953919 -313.562614 
L 393.828486 -315.744432 
L 393.652606 -317.92625 
L 393.429609 -320.108068 
L 393.164779 -322.289886 
L 392.866711 -324.471705 
L 392.548185 -326.653523 
L 392.226309 -328.835341 
L 391.921777 -331.017159 
L 391.657216 -333.198977 
L 391.454807 -335.380795 
L 391.333528 -337.562614 
L 391.306528 -339.744432 
L 391.37914 -341.92625 
L 398.60836 -341.92625 
L 398.60836 -341.92625 
L 398.680972 -339.744432 
L 398.653972 -337.562614 
L 398.532693 -335.380795 
L 398.330284 -333.198977 
L 398.065723 -331.017159 
L 397.761191 -328.835341 
L 397.439315 -326.653523 
L 397.120789 -324.471705 
L 396.822721 -322.289886 
L 396.557891 -320.108068 
L 396.334894 -317.92625 
L 396.159014 -315.744432 
L 396.033581 -313.562614 
L 395.961575 -311.380795 
L 395.947259 -309.198977 
L 395.99769 -307.017159 
L 396.123969 -304.835341 
L 396.342072 -302.653523 
L 396.673046 -300.471705 
L 397.142298 -298.289886 
L 397.777658 -296.108068 
L 398.60599 -293.92625 
L 399.648351 -291.744432 
L 400.914028 -289.562614 
L 402.394264 -287.380795 
L 404.05687 -285.198977 
L 405.843177 -283.017159 
L 407.668652 -280.835341 
L 409.428045 -278.653523 
L 411.005026 -276.471705 
L 412.285259 -274.289886 
L 413.170877 -272.108068 
L 413.59375 -269.92625 
L 413.524965 -267.744432 
L 412.97861 -265.562614 
L 412.009106 -263.380795 
L 410.702729 -261.198977 
L 409.165115 -259.017159 
L 407.507266 -256.835341 
L 405.832625 -254.653523 
L 404.227237 -252.471705 
L 402.754134 -250.289886 
L 401.452006 -248.108068 
L 400.337423 -245.92625 
L 399.409349 -243.744432 
L 398.65459 -241.562614 
L 398.053036 -239.380795 
L 397.58197 -237.198977 
L 397.21914 -235.017159 
L 396.944652 -232.835341 
L 396.741948 -230.653523 
L 396.598185 -228.471705 
L 396.504248 -226.289886 
L 396.454534 -224.108068 
L 396.446507 -221.92625 
L 396.479945 -219.744432 
L 396.555864 -217.562614 
L 396.675114 -215.380795 
L 396.836822 -213.198977 
L 397.036939 -211.017159 
L 397.267205 -208.835341 
L 397.514833 -206.653523 
L 397.763096 -204.471705 
L 397.992792 -202.289886 
L 398.184388 -200.108068 
L 398.320458 -197.92625 
L 398.387939 -195.744432 
L 398.379788 -193.562614 
L 398.295718 -191.380795 
L 398.141915 -189.198977 
L 397.929856 -187.017159 
L 397.674495 -184.835341 
L 397.39222 -182.653523 
L 397.098928 -180.471705 
L 396.80853 -178.289886 
L 396.53203 -176.108068 
L 396.277208 -173.92625 
L 396.048797 -171.744432 
L 395.849003 -169.562614 
L 395.678183 -167.380795 
L 395.535542 -165.198977 
L 395.419744 -163.017159 
L 395.329376 -160.835341 
L 395.263276 -158.653523 
L 395.220709 -156.471705 
L 395.201405 -154.289886 
L 395.205461 -152.108068 
L 395.233109 -149.92625 
L 395.284345 -147.744432 
L 395.358457 -145.562614 
L 395.453514 -143.380795 
L 395.565921 -141.198977 
L 395.690154 -139.017159 
L 395.818788 -136.835341 
L 395.942909 -134.653523 
L 396.052886 -132.471705 
L 396.139435 -130.289886 
L 396.194791 -128.108068 
L 396.213779 -125.92625 
z
" id="mab0a07ab98" style="stroke:#000000;stroke-opacity:0.3;"/>
    </defs>
    <g clip-path="url(#pee643474ca)">
     <use style="fill:#bfbf00;fill-opacity:0.3;stroke:#000000;stroke-opacity:0.3;" x="0.0" xlink:href="#mab0a07ab98" y="465.868"/>
    </g>
   </g>
   <g id="PolyCollection_6">
    <defs>
     <path d="M 479.803098 -125.92625 
L 458.984402 -125.92625 
L 459.067542 -128.797063 
L 459.314509 -131.667877 
L 459.713304 -134.53869 
L 460.245037 -137.409504 
L 460.885378 -140.280317 
L 461.606359 -143.15113 
L 462.378353 -146.021944 
L 463.172022 -148.892757 
L 463.960078 -151.763571 
L 464.718698 -154.634384 
L 465.428519 -157.505197 
L 466.075173 -160.376011 
L 466.649383 -163.246824 
L 467.146668 -166.117638 
L 467.566759 -168.988451 
L 467.912812 -171.859264 
L 468.190522 -174.730078 
L 468.407221 -177.600891 
L 468.571026 -180.471705 
L 468.690084 -183.342518 
L 468.771933 -186.213331 
L 468.822988 -189.084145 
L 468.848137 -191.954958 
L 468.85044 -194.825772 
L 468.830913 -197.696585 
L 468.78838 -200.567398 
L 468.719394 -203.438212 
L 468.618234 -206.309025 
L 468.476974 -209.179839 
L 468.285676 -212.050652 
L 468.032709 -214.921465 
L 467.70524 -217.792279 
L 467.289922 -220.663092 
L 466.77378 -223.533906 
L 466.145304 -226.404719 
L 465.395697 -229.275532 
L 464.520217 -232.146346 
L 463.519513 -235.017159 
L 462.400805 -237.887972 
L 461.178777 -240.758786 
L 459.876009 -243.629599 
L 458.522823 -246.500413 
L 457.156444 -249.371226 
L 455.819449 -252.242039 
L 454.557548 -255.112853 
L 453.416839 -257.983666 
L 452.440748 -260.85448 
L 451.666925 -263.725293 
L 451.124418 -266.596106 
L 450.831404 -269.46692 
L 450.79375 -272.337733 
L 451.00456 -275.208547 
L 451.444783 -278.07936 
L 452.084817 -280.950173 
L 452.886948 -283.820987 
L 453.808369 -286.6918 
L 454.804447 -289.562614 
L 455.831936 -292.433427 
L 456.851793 -295.30424 
L 457.831397 -298.175054 
L 458.745974 -301.045867 
L 459.579201 -303.916681 
L 460.323006 -306.787494 
L 460.976696 -309.658307 
L 461.545583 -312.529121 
L 462.03931 -315.399934 
L 462.470087 -318.270748 
L 462.851019 -321.141561 
L 463.194663 -324.012374 
L 463.511916 -326.883188 
L 463.811267 -329.754001 
L 464.098423 -332.624815 
L 464.376263 -335.495628 
L 464.645061 -338.366441 
L 464.90291 -341.237255 
L 465.146279 -344.108068 
L 465.370624 -346.978882 
L 465.571015 -349.849695 
L 465.742718 -352.720508 
L 465.88172 -355.591322 
L 465.985163 -358.462135 
L 466.051675 -361.332949 
L 466.081598 -364.203762 
L 466.07709 -367.074575 
L 466.042115 -369.945389 
L 465.982316 -372.816202 
L 465.904772 -375.687016 
L 465.817658 -378.557829 
L 465.729816 -381.428642 
L 465.650272 -384.299456 
L 465.58772 -387.170269 
L 465.550015 -390.041083 
L 465.543707 -392.911896 
L 465.573658 -395.782709 
L 465.642765 -398.653523 
L 465.751821 -401.524336 
L 465.899516 -404.39515 
L 466.082585 -407.265963 
L 466.296083 -410.136776 
L 472.491417 -410.136776 
L 472.491417 -410.136776 
L 472.704915 -407.265963 
L 472.887984 -404.39515 
L 473.035679 -401.524336 
L 473.144735 -398.653523 
L 473.213842 -395.782709 
L 473.243793 -392.911896 
L 473.237485 -390.041083 
L 473.19978 -387.170269 
L 473.137228 -384.299456 
L 473.057684 -381.428642 
L 472.969842 -378.557829 
L 472.882728 -375.687016 
L 472.805184 -372.816202 
L 472.745385 -369.945389 
L 472.71041 -367.074575 
L 472.705902 -364.203762 
L 472.735825 -361.332949 
L 472.802337 -358.462135 
L 472.90578 -355.591322 
L 473.044782 -352.720508 
L 473.216485 -349.849695 
L 473.416876 -346.978882 
L 473.641221 -344.108068 
L 473.88459 -341.237255 
L 474.142439 -338.366441 
L 474.411237 -335.495628 
L 474.689077 -332.624815 
L 474.976233 -329.754001 
L 475.275584 -326.883188 
L 475.592837 -324.012374 
L 475.936481 -321.141561 
L 476.317413 -318.270748 
L 476.74819 -315.399934 
L 477.241917 -312.529121 
L 477.810804 -309.658307 
L 478.464494 -306.787494 
L 479.208299 -303.916681 
L 480.041526 -301.045867 
L 480.956103 -298.175054 
L 481.935707 -295.30424 
L 482.955564 -292.433427 
L 483.983053 -289.562614 
L 484.979131 -286.6918 
L 485.900552 -283.820987 
L 486.702683 -280.950173 
L 487.342717 -278.07936 
L 487.78294 -275.208547 
L 487.99375 -272.337733 
L 487.956096 -269.46692 
L 487.663082 -266.596106 
L 487.120575 -263.725293 
L 486.346752 -260.85448 
L 485.370661 -257.983666 
L 484.229952 -255.112853 
L 482.968051 -252.242039 
L 481.631056 -249.371226 
L 480.264677 -246.500413 
L 478.911491 -243.629599 
L 477.608723 -240.758786 
L 476.386695 -237.887972 
L 475.267987 -235.017159 
L 474.267283 -232.146346 
L 473.391803 -229.275532 
L 472.642196 -226.404719 
L 472.01372 -223.533906 
L 471.497578 -220.663092 
L 471.08226 -217.792279 
L 470.754791 -214.921465 
L 470.501824 -212.050652 
L 470.310526 -209.179839 
L 470.169266 -206.309025 
L 470.068106 -203.438212 
L 469.99912 -200.567398 
L 469.956587 -197.696585 
L 469.93706 -194.825772 
L 469.939363 -191.954958 
L 469.964512 -189.084145 
L 470.015567 -186.213331 
L 470.097416 -183.342518 
L 470.216474 -180.471705 
L 470.380279 -177.600891 
L 470.596978 -174.730078 
L 470.874688 -171.859264 
L 471.220741 -168.988451 
L 471.640832 -166.117638 
L 472.138117 -163.246824 
L 472.712327 -160.376011 
L 473.358981 -157.505197 
L 474.068802 -154.634384 
L 474.827422 -151.763571 
L 475.615478 -148.892757 
L 476.409147 -146.021944 
L 477.181141 -143.15113 
L 477.902122 -140.280317 
L 478.542463 -137.409504 
L 479.074196 -134.53869 
L 479.472991 -131.667877 
L 479.719958 -128.797063 
L 479.803098 -125.92625 
z
" id="m6bb6429585" style="stroke:#000000;stroke-opacity:0.3;"/>
    </defs>
    <g clip-path="url(#pee643474ca)">
     <use style="fill:#bfbf00;fill-opacity:0.3;stroke:#000000;stroke-opacity:0.3;" x="0.0" xlink:href="#m6bb6429585" y="465.868"/>
    </g>
   </g>
   <g id="PolyCollection_7">
    <defs>
     <path d="M 544.516891 -125.92625 
L 543.070609 -125.92625 
L 543.079492 -127.380795 
L 543.105493 -128.835341 
L 543.146742 -130.289886 
L 543.200367 -131.744432 
L 543.26283 -133.198977 
L 543.330302 -134.653523 
L 543.399049 -136.108068 
L 543.465752 -137.562614 
L 543.527736 -139.017159 
L 543.583091 -140.471705 
L 543.630681 -141.92625 
L 543.670057 -143.380795 
L 543.701309 -144.835341 
L 543.724889 -146.289886 
L 543.741422 -147.744432 
L 543.751547 -149.198977 
L 543.755791 -150.653523 
L 543.754484 -152.108068 
L 543.747726 -153.562614 
L 543.735396 -155.017159 
L 543.717193 -156.471705 
L 543.692704 -157.92625 
L 543.661481 -159.380795 
L 543.623115 -160.835341 
L 543.577282 -162.289886 
L 543.523753 -163.744432 
L 543.462353 -165.198977 
L 543.392859 -166.653523 
L 543.314846 -168.108068 
L 543.227499 -169.562614 
L 543.12942 -171.017159 
L 543.018482 -172.471705 
L 542.891759 -173.92625 
L 542.745609 -175.380795 
L 542.575923 -176.835341 
L 542.378565 -178.289886 
L 542.149995 -179.744432 
L 541.888022 -181.198977 
L 541.592587 -182.653523 
L 541.26648 -184.108068 
L 540.915823 -185.562614 
L 540.550203 -187.017159 
L 540.182323 -188.471705 
L 539.827145 -189.92625 
L 539.500524 -191.380795 
L 539.217483 -192.835341 
L 538.990325 -194.289886 
L 538.826865 -195.744432 
L 538.729082 -197.198977 
L 538.692446 -198.653523 
L 538.706104 -200.108068 
L 538.753975 -201.562614 
L 538.816647 -203.017159 
L 538.873841 -204.471705 
L 538.907097 -205.92625 
L 538.902298 -207.380795 
L 538.851653 -208.835341 
L 538.75485 -210.289886 
L 538.619209 -211.744432 
L 538.458831 -213.198977 
L 538.292847 -214.653523 
L 538.143062 -216.108068 
L 538.031294 -217.562614 
L 537.976807 -219.017159 
L 537.994144 -220.471705 
L 538.091653 -221.92625 
L 538.27083 -223.380795 
L 538.526496 -224.835341 
L 538.847727 -226.289886 
L 539.219309 -227.744432 
L 539.623477 -229.198977 
L 540.041654 -230.653523 
L 540.455974 -232.108068 
L 540.850396 -233.562614 
L 541.211326 -235.017159 
L 541.527725 -236.471705 
L 541.790761 -237.92625 
L 541.99309 -239.380795 
L 542.127895 -240.835341 
L 542.187815 -242.289886 
L 542.163925 -243.744432 
L 542.044927 -245.198977 
L 541.816718 -246.653523 
L 541.462551 -248.108068 
L 540.963927 -249.562614 
L 540.302371 -251.017159 
L 539.462088 -252.471705 
L 538.433385 -253.92625 
L 537.216531 -255.380795 
L 535.825526 -256.835341 
L 534.291131 -258.289886 
L 532.662395 -259.744432 
L 531.006051 -261.198977 
L 529.403375 -262.653523 
L 527.944462 -264.108068 
L 526.720387 -265.562614 
L 525.814141 -267.017159 
L 525.291576 -268.471705 
L 525.19375 -269.92625 
L 562.39375 -269.92625 
L 562.39375 -269.92625 
L 562.295924 -268.471705 
L 561.773359 -267.017159 
L 560.867113 -265.562614 
L 559.643038 -264.108068 
L 558.184125 -262.653523 
L 556.581449 -261.198977 
L 554.925105 -259.744432 
L 553.296369 -258.289886 
L 551.761974 -256.835341 
L 550.370969 -255.380795 
L 549.154115 -253.92625 
L 548.125412 -252.471705 
L 547.285129 -251.017159 
L 546.623573 -249.562614 
L 546.124949 -248.108068 
L 545.770782 -246.653523 
L 545.542573 -245.198977 
L 545.423575 -243.744432 
L 545.399685 -242.289886 
L 545.459605 -240.835341 
L 545.59441 -239.380795 
L 545.796739 -237.92625 
L 546.059775 -236.471705 
L 546.376174 -235.017159 
L 546.737104 -233.562614 
L 547.131526 -232.108068 
L 547.545846 -230.653523 
L 547.964023 -229.198977 
L 548.368191 -227.744432 
L 548.739773 -226.289886 
L 549.061004 -224.835341 
L 549.31667 -223.380795 
L 549.495847 -221.92625 
L 549.593356 -220.471705 
L 549.610693 -219.017159 
L 549.556206 -217.562614 
L 549.444438 -216.108068 
L 549.294653 -214.653523 
L 549.128669 -213.198977 
L 548.968291 -211.744432 
L 548.83265 -210.289886 
L 548.735847 -208.835341 
L 548.685202 -207.380795 
L 548.680403 -205.92625 
L 548.713659 -204.471705 
L 548.770853 -203.017159 
L 548.833525 -201.562614 
L 548.881396 -200.108068 
L 548.895054 -198.653523 
L 548.858418 -197.198977 
L 548.760635 -195.744432 
L 548.597175 -194.289886 
L 548.370017 -192.835341 
L 548.086976 -191.380795 
L 547.760355 -189.92625 
L 547.405177 -188.471705 
L 547.037297 -187.017159 
L 546.671677 -185.562614 
L 546.32102 -184.108068 
L 545.994913 -182.653523 
L 545.699478 -181.198977 
L 545.437505 -179.744432 
L 545.208935 -178.289886 
L 545.011577 -176.835341 
L 544.841891 -175.380795 
L 544.695741 -173.92625 
L 544.569018 -172.471705 
L 544.45808 -171.017159 
L 544.360001 -169.562614 
L 544.272654 -168.108068 
L 544.194641 -166.653523 
L 544.125147 -165.198977 
L 544.063747 -163.744432 
L 544.010218 -162.289886 
L 543.964385 -160.835341 
L 543.926019 -159.380795 
L 543.894796 -157.92625 
L 543.870307 -156.471705 
L 543.852104 -155.017159 
L 543.839774 -153.562614 
L 543.833016 -152.108068 
L 543.831709 -150.653523 
L 543.835953 -149.198977 
L 543.846078 -147.744432 
L 543.862611 -146.289886 
L 543.886191 -144.835341 
L 543.917443 -143.380795 
L 543.956819 -141.92625 
L 544.004409 -140.471705 
L 544.059764 -139.017159 
L 544.121748 -137.562614 
L 544.188451 -136.108068 
L 544.257198 -134.653523 
L 544.32467 -133.198977 
L 544.387133 -131.744432 
L 544.440758 -130.289886 
L 544.482007 -128.835341 
L 544.508008 -127.380795 
L 544.516891 -125.92625 
z
" id="m71cca561b9" style="stroke:#000000;stroke-opacity:0.3;"/>
    </defs>
    <g clip-path="url(#pee643474ca)">
     <use style="fill:#bfbf00;fill-opacity:0.3;stroke:#000000;stroke-opacity:0.3;" x="0.0" xlink:href="#m71cca561b9" y="465.868"/>
    </g>
   </g>
   <g id="PolyCollection_8">
    <defs>
     <path d="M 631.282145 -125.92625 
L 605.105355 -125.92625 
L 604.977283 -127.380795 
L 604.936648 -128.835341 
L 604.982795 -130.289886 
L 605.113222 -131.744432 
L 605.323704 -133.198977 
L 605.608466 -134.653523 
L 605.960415 -136.108068 
L 606.371402 -137.562614 
L 606.832506 -139.017159 
L 607.334335 -140.471705 
L 607.867303 -141.92625 
L 608.421911 -143.380795 
L 608.98898 -144.835341 
L 609.559857 -146.289886 
L 610.126578 -147.744432 
L 610.681982 -149.198977 
L 611.219784 -150.653523 
L 611.734603 -152.108068 
L 612.221953 -153.562614 
L 612.678206 -155.017159 
L 613.100525 -156.471705 
L 613.486785 -157.92625 
L 613.835483 -159.380795 
L 614.145651 -160.835341 
L 614.416762 -162.289886 
L 614.648665 -163.744432 
L 614.841512 -165.198977 
L 614.995723 -166.653523 
L 615.111951 -168.108068 
L 615.191074 -169.562614 
L 615.234198 -171.017159 
L 615.242674 -172.471705 
L 615.218125 -173.92625 
L 615.162471 -175.380795 
L 615.077964 -176.835341 
L 614.967208 -178.289886 
L 614.833174 -179.744432 
L 614.6792 -181.198977 
L 614.508978 -182.653523 
L 614.326515 -184.108068 
L 614.136081 -185.562614 
L 613.942132 -187.017159 
L 613.749221 -188.471705 
L 613.56189 -189.92625 
L 613.384554 -191.380795 
L 613.221378 -192.835341 
L 613.076157 -194.289886 
L 612.952198 -195.744432 
L 612.852221 -197.198977 
L 612.778268 -198.653523 
L 612.731643 -200.108068 
L 612.712866 -201.562614 
L 612.721665 -203.017159 
L 612.756985 -204.471705 
L 612.817026 -205.92625 
L 612.899299 -207.380795 
L 613.000712 -208.835341 
L 613.117652 -210.289886 
L 613.24609 -211.744432 
L 613.381678 -213.198977 
L 613.519852 -214.653523 
L 613.655916 -216.108068 
L 613.785125 -217.562614 
L 613.902751 -219.017159 
L 614.004129 -220.471705 
L 614.084692 -221.92625 
L 614.139996 -223.380795 
L 614.165732 -224.835341 
L 614.157729 -226.289886 
L 614.111965 -227.744432 
L 614.02458 -229.198977 
L 613.891896 -230.653523 
L 613.710457 -232.108068 
L 613.477092 -233.562614 
L 613.188993 -235.017159 
L 612.843827 -236.471705 
L 612.439863 -237.92625 
L 611.976124 -239.380795 
L 611.452551 -240.835341 
L 610.870177 -242.289886 
L 610.23129 -243.744432 
L 609.539593 -245.198977 
L 608.800327 -246.653523 
L 608.020358 -248.108068 
L 607.208212 -249.562614 
L 606.374051 -251.017159 
L 605.52957 -252.471705 
L 604.687828 -253.92625 
L 603.862999 -255.380795 
L 603.070049 -256.835341 
L 602.324352 -258.289886 
L 601.641253 -259.744432 
L 601.035597 -261.198977 
L 600.521241 -262.653523 
L 600.11058 -264.108068 
L 599.814095 -265.562614 
L 599.639966 -267.017159 
L 599.59375 -268.471705 
L 599.678155 -269.92625 
L 636.709345 -269.92625 
L 636.709345 -269.92625 
L 636.79375 -268.471705 
L 636.747534 -267.017159 
L 636.573405 -265.562614 
L 636.27692 -264.108068 
L 635.866259 -262.653523 
L 635.351903 -261.198977 
L 634.746247 -259.744432 
L 634.063148 -258.289886 
L 633.317451 -256.835341 
L 632.524501 -255.380795 
L 631.699672 -253.92625 
L 630.85793 -252.471705 
L 630.013449 -251.017159 
L 629.179288 -249.562614 
L 628.367142 -248.108068 
L 627.587173 -246.653523 
L 626.847907 -245.198977 
L 626.15621 -243.744432 
L 625.517323 -242.289886 
L 624.934949 -240.835341 
L 624.411376 -239.380795 
L 623.947637 -237.92625 
L 623.543673 -236.471705 
L 623.198507 -235.017159 
L 622.910408 -233.562614 
L 622.677043 -232.108068 
L 622.495604 -230.653523 
L 622.36292 -229.198977 
L 622.275535 -227.744432 
L 622.229771 -226.289886 
L 622.221768 -224.835341 
L 622.247504 -223.380795 
L 622.302808 -221.92625 
L 622.383371 -220.471705 
L 622.484749 -219.017159 
L 622.602375 -217.562614 
L 622.731584 -216.108068 
L 622.867648 -214.653523 
L 623.005822 -213.198977 
L 623.14141 -211.744432 
L 623.269848 -210.289886 
L 623.386788 -208.835341 
L 623.488201 -207.380795 
L 623.570474 -205.92625 
L 623.630515 -204.471705 
L 623.665835 -203.017159 
L 623.674634 -201.562614 
L 623.655857 -200.108068 
L 623.609232 -198.653523 
L 623.535279 -197.198977 
L 623.435302 -195.744432 
L 623.311343 -194.289886 
L 623.166122 -192.835341 
L 623.002946 -191.380795 
L 622.82561 -189.92625 
L 622.638279 -188.471705 
L 622.445368 -187.017159 
L 622.251419 -185.562614 
L 622.060985 -184.108068 
L 621.878522 -182.653523 
L 621.7083 -181.198977 
L 621.554326 -179.744432 
L 621.420292 -178.289886 
L 621.309536 -176.835341 
L 621.225029 -175.380795 
L 621.169375 -173.92625 
L 621.144826 -172.471705 
L 621.153302 -171.017159 
L 621.196426 -169.562614 
L 621.275549 -168.108068 
L 621.391777 -166.653523 
L 621.545988 -165.198977 
L 621.738835 -163.744432 
L 621.970738 -162.289886 
L 622.241849 -160.835341 
L 622.552017 -159.380795 
L 622.900715 -157.92625 
L 623.286975 -156.471705 
L 623.709294 -155.017159 
L 624.165547 -153.562614 
L 624.652897 -152.108068 
L 625.167716 -150.653523 
L 625.705518 -149.198977 
L 626.260922 -147.744432 
L 626.827643 -146.289886 
L 627.39852 -144.835341 
L 627.965589 -143.380795 
L 628.520197 -141.92625 
L 629.053165 -140.471705 
L 629.554994 -139.017159 
L 630.016098 -137.562614 
L 630.427085 -136.108068 
L 630.779034 -134.653523 
L 631.063796 -133.198977 
L 631.274278 -131.744432 
L 631.404705 -130.289886 
L 631.450852 -128.835341 
L 631.410217 -127.380795 
L 631.282145 -125.92625 
z
" id="m0c18b7fd10" style="stroke:#000000;stroke-opacity:0.3;"/>
    </defs>
    <g clip-path="url(#pee643474ca)">
     <use style="fill:#bfbf00;fill-opacity:0.3;stroke:#000000;stroke-opacity:0.3;" x="0.0" xlink:href="#m0c18b7fd10" y="465.868"/>
    </g>
   </g>
   <g id="LineCollection_1">
    <path clip-path="url(#pee643474ca)" d="M 88.09375 120.513179 
L 106.69375 120.513179 
" style="fill:none;stroke:#ff0000;"/>
    <path clip-path="url(#pee643474ca)" d="M 162.49375 181.54175 
L 181.09375 181.54175 
" style="fill:none;stroke:#ff0000;"/>
    <path clip-path="url(#pee643474ca)" d="M 236.89375 195.94175 
L 255.49375 195.94175 
" style="fill:none;stroke:#ff0000;"/>
    <path clip-path="url(#pee643474ca)" d="M 311.29375 195.94175 
L 329.89375 195.94175 
" style="fill:none;stroke:#ff0000;"/>
    <path clip-path="url(#pee643474ca)" d="M 385.69375 195.94175 
L 404.29375 195.94175 
" style="fill:none;stroke:#ff0000;"/>
    <path clip-path="url(#pee643474ca)" d="M 460.09375 195.94175 
L 478.69375 195.94175 
" style="fill:none;stroke:#ff0000;"/>
    <path clip-path="url(#pee643474ca)" d="M 534.49375 195.94175 
L 553.09375 195.94175 
" style="fill:none;stroke:#ff0000;"/>
    <path clip-path="url(#pee643474ca)" d="M 608.89375 243.94175 
L 627.49375 243.94175 
" style="fill:none;stroke:#ff0000;"/>
   </g>
   <g id="patch_3">
    <path d="M 22.99375 23.14175 
L 692.59375 23.14175 
" style="fill:none;stroke:#000000;stroke-linecap:square;stroke-linejoin:miter;"/>
   </g>
   <g id="patch_4">
    <path d="M 22.99375 368.74175 
L 22.99375 23.14175 
" style="fill:none;stroke:#000000;stroke-linecap:square;stroke-linejoin:miter;"/>
   </g>
   <g id="patch_5">
    <path d="M 692.59375 368.74175 
L 692.59375 23.14175 
" style="fill:none;stroke:#000000;stroke-linecap:square;stroke-linejoin:miter;"/>
   </g>
   <g id="patch_6">
    <path d="M 22.99375 368.74175 
L 692.59375 368.74175 
" style="fill:none;stroke:#000000;stroke-linecap:square;stroke-linejoin:miter;"/>
   </g>
   <g id="matplotlib.axis_1">
    <g id="xtick_1">
     <g id="line2d_1">
      <defs>
       <path d="M 0 0 
L 0 -4 
" id="m4df27b98b8" style="stroke:#000000;stroke-width:0.5;"/>
      </defs>
      <g>
       <use style="stroke:#000000;stroke-width:0.5;" x="97.39375" xlink:href="#m4df27b98b8" y="368.74175"/>
      </g>
     </g>
     <g id="line2d_2">
      <defs>
       <path d="M 0 0 
L 0 4 
" id="m1b0c642a4f" style="stroke:#000000;stroke-width:0.5;"/>
      </defs>
      <g>
       <use style="stroke:#000000;stroke-width:0.5;" x="97.39375" xlink:href="#m1b0c642a4f" y="23.14175"/>
      </g>
     </g>
     <g id="text_1">
      <!-- Defector -->
      <defs>
       <path d="M 56.203125 29.59375 
L 56.203125 25.203125 
L 14.890625 25.203125 
Q 15.484375 15.921875 20.484375 11.0625 
Q 25.484375 6.203125 34.421875 6.203125 
Q 39.59375 6.203125 44.453125 7.46875 
Q 49.3125 8.734375 54.109375 11.28125 
L 54.109375 2.78125 
Q 49.265625 0.734375 44.1875 -0.34375 
Q 39.109375 -1.421875 33.890625 -1.421875 
Q 20.796875 -1.421875 13.15625 6.1875 
Q 5.515625 13.8125 5.515625 26.8125 
Q 5.515625 40.234375 12.765625 48.109375 
Q 20.015625 56 32.328125 56 
Q 43.359375 56 49.78125 48.890625 
Q 56.203125 41.796875 56.203125 29.59375 
M 47.21875 32.234375 
Q 47.125 39.59375 43.09375 43.984375 
Q 39.0625 48.390625 32.421875 48.390625 
Q 24.90625 48.390625 20.390625 44.140625 
Q 15.875 39.890625 15.1875 32.171875 
z
" id="BitstreamVeraSans-Roman-65"/>
       <path d="M 37.109375 75.984375 
L 37.109375 68.5 
L 28.515625 68.5 
Q 23.6875 68.5 21.796875 66.546875 
Q 19.921875 64.59375 19.921875 59.515625 
L 19.921875 54.6875 
L 34.71875 54.6875 
L 34.71875 47.703125 
L 19.921875 47.703125 
L 19.921875 0 
L 10.890625 0 
L 10.890625 47.703125 
L 2.296875 47.703125 
L 2.296875 54.6875 
L 10.890625 54.6875 
L 10.890625 58.5 
Q 10.890625 67.625 15.140625 71.796875 
Q 19.390625 75.984375 28.609375 75.984375 
z
" id="BitstreamVeraSans-Roman-66"/>
       <path d="M 30.609375 48.390625 
Q 23.390625 48.390625 19.1875 42.75 
Q 14.984375 37.109375 14.984375 27.296875 
Q 14.984375 17.484375 19.15625 11.84375 
Q 23.34375 6.203125 30.609375 6.203125 
Q 37.796875 6.203125 41.984375 11.859375 
Q 46.1875 17.53125 46.1875 27.296875 
Q 46.1875 37.015625 41.984375 42.703125 
Q 37.796875 48.390625 30.609375 48.390625 
M 30.609375 56 
Q 42.328125 56 49.015625 48.375 
Q 55.71875 40.765625 55.71875 27.296875 
Q 55.71875 13.875 49.015625 6.21875 
Q 42.328125 -1.421875 30.609375 -1.421875 
Q 18.84375 -1.421875 12.171875 6.21875 
Q 5.515625 13.875 5.515625 27.296875 
Q 5.515625 40.765625 12.171875 48.375 
Q 18.84375 56 30.609375 56 
" id="BitstreamVeraSans-Roman-6f"/>
       <path d="M 18.3125 70.21875 
L 18.3125 54.6875 
L 36.8125 54.6875 
L 36.8125 47.703125 
L 18.3125 47.703125 
L 18.3125 18.015625 
Q 18.3125 11.328125 20.140625 9.421875 
Q 21.96875 7.515625 27.59375 7.515625 
L 36.8125 7.515625 
L 36.8125 0 
L 27.59375 0 
Q 17.1875 0 13.234375 3.875 
Q 9.28125 7.765625 9.28125 18.015625 
L 9.28125 47.703125 
L 2.6875 47.703125 
L 2.6875 54.6875 
L 9.28125 54.6875 
L 9.28125 70.21875 
z
" id="BitstreamVeraSans-Roman-74"/>
       <path d="M 19.671875 64.796875 
L 19.671875 8.109375 
L 31.59375 8.109375 
Q 46.6875 8.109375 53.6875 14.9375 
Q 60.6875 21.78125 60.6875 36.53125 
Q 60.6875 51.171875 53.6875 57.984375 
Q 46.6875 64.796875 31.59375 64.796875 
z
M 9.8125 72.90625 
L 30.078125 72.90625 
Q 51.265625 72.90625 61.171875 64.09375 
Q 71.09375 55.28125 71.09375 36.53125 
Q 71.09375 17.671875 61.125 8.828125 
Q 51.171875 0 30.078125 0 
L 9.8125 0 
z
" id="BitstreamVeraSans-Roman-44"/>
       <path d="M 41.109375 46.296875 
Q 39.59375 47.171875 37.8125 47.578125 
Q 36.03125 48 33.890625 48 
Q 26.265625 48 22.1875 43.046875 
Q 18.109375 38.09375 18.109375 28.8125 
L 18.109375 0 
L 9.078125 0 
L 9.078125 54.6875 
L 18.109375 54.6875 
L 18.109375 46.1875 
Q 20.953125 51.171875 25.484375 53.578125 
Q 30.03125 56 36.53125 56 
Q 37.453125 56 38.578125 55.875 
Q 39.703125 55.765625 41.0625 55.515625 
z
" id="BitstreamVeraSans-Roman-72"/>
       <path d="M 48.78125 52.59375 
L 48.78125 44.1875 
Q 44.96875 46.296875 41.140625 47.34375 
Q 37.3125 48.390625 33.40625 48.390625 
Q 24.65625 48.390625 19.8125 42.84375 
Q 14.984375 37.3125 14.984375 27.296875 
Q 14.984375 17.28125 19.8125 11.734375 
Q 24.65625 6.203125 33.40625 6.203125 
Q 37.3125 6.203125 41.140625 7.25 
Q 44.96875 8.296875 48.78125 10.40625 
L 48.78125 2.09375 
Q 45.015625 0.34375 40.984375 -0.53125 
Q 36.96875 -1.421875 32.421875 -1.421875 
Q 20.0625 -1.421875 12.78125 6.34375 
Q 5.515625 14.109375 5.515625 27.296875 
Q 5.515625 40.671875 12.859375 48.328125 
Q 20.21875 56 33.015625 56 
Q 37.15625 56 41.109375 55.140625 
Q 45.0625 54.296875 48.78125 52.59375 
" id="BitstreamVeraSans-Roman-63"/>
      </defs>
      <g transform="translate(99.60125 407.28175)rotate(-90.0)scale(0.08 -0.08)">
       <use xlink:href="#BitstreamVeraSans-Roman-44"/>
       <use x="77.001953125" xlink:href="#BitstreamVeraSans-Roman-65"/>
       <use x="138.525390625" xlink:href="#BitstreamVeraSans-Roman-66"/>
       <use x="173.73046875" xlink:href="#BitstreamVeraSans-Roman-65"/>
       <use x="235.25390625" xlink:href="#BitstreamVeraSans-Roman-63"/>
       <use x="290.234375" xlink:href="#BitstreamVeraSans-Roman-74"/>
       <use x="329.443359375" xlink:href="#BitstreamVeraSans-Roman-6f"/>
       <use x="390.625" xlink:href="#BitstreamVeraSans-Roman-72"/>
      </g>
     </g>
    </g>
    <g id="xtick_2">
     <g id="line2d_3">
      <g>
       <use style="stroke:#000000;stroke-width:0.5;" x="171.79375" xlink:href="#m4df27b98b8" y="368.74175"/>
      </g>
     </g>
     <g id="line2d_4">
      <g>
       <use style="stroke:#000000;stroke-width:0.5;" x="171.79375" xlink:href="#m1b0c642a4f" y="23.14175"/>
      </g>
     </g>
     <g id="text_2">
      <!-- Bully -->
      <defs>
       <path d="M 8.5 21.578125 
L 8.5 54.6875 
L 17.484375 54.6875 
L 17.484375 21.921875 
Q 17.484375 14.15625 20.5 10.265625 
Q 23.53125 6.390625 29.59375 6.390625 
Q 36.859375 6.390625 41.078125 11.03125 
Q 45.3125 15.671875 45.3125 23.6875 
L 45.3125 54.6875 
L 54.296875 54.6875 
L 54.296875 0 
L 45.3125 0 
L 45.3125 8.40625 
Q 42.046875 3.421875 37.71875 1 
Q 33.40625 -1.421875 27.6875 -1.421875 
Q 18.265625 -1.421875 13.375 4.4375 
Q 8.5 10.296875 8.5 21.578125 
" id="BitstreamVeraSans-Roman-75"/>
       <path d="M 9.421875 75.984375 
L 18.40625 75.984375 
L 18.40625 0 
L 9.421875 0 
z
" id="BitstreamVeraSans-Roman-6c"/>
       <path d="M 32.171875 -5.078125 
Q 28.375 -14.84375 24.75 -17.8125 
Q 21.140625 -20.796875 15.09375 -20.796875 
L 7.90625 -20.796875 
L 7.90625 -13.28125 
L 13.1875 -13.28125 
Q 16.890625 -13.28125 18.9375 -11.515625 
Q 21 -9.765625 23.484375 -3.21875 
L 25.09375 0.875 
L 2.984375 54.6875 
L 12.5 54.6875 
L 29.59375 11.921875 
L 46.6875 54.6875 
L 56.203125 54.6875 
z
" id="BitstreamVeraSans-Roman-79"/>
       <path d="M 19.671875 34.8125 
L 19.671875 8.109375 
L 35.5 8.109375 
Q 43.453125 8.109375 47.28125 11.40625 
Q 51.125 14.703125 51.125 21.484375 
Q 51.125 28.328125 47.28125 31.5625 
Q 43.453125 34.8125 35.5 34.8125 
z
M 19.671875 64.796875 
L 19.671875 42.828125 
L 34.28125 42.828125 
Q 41.5 42.828125 45.03125 45.53125 
Q 48.578125 48.25 48.578125 53.8125 
Q 48.578125 59.328125 45.03125 62.0625 
Q 41.5 64.796875 34.28125 64.796875 
z
M 9.8125 72.90625 
L 35.015625 72.90625 
Q 46.296875 72.90625 52.390625 68.21875 
Q 58.5 63.53125 58.5 54.890625 
Q 58.5 48.1875 55.375 44.234375 
Q 52.25 40.28125 46.1875 39.3125 
Q 53.46875 37.75 57.5 32.78125 
Q 61.53125 27.828125 61.53125 20.40625 
Q 61.53125 10.640625 54.890625 5.3125 
Q 48.25 0 35.984375 0 
L 9.8125 0 
z
" id="BitstreamVeraSans-Roman-42"/>
      </defs>
      <g transform="translate(174.00125 392.4805)rotate(-90.0)scale(0.08 -0.08)">
       <use xlink:href="#BitstreamVeraSans-Roman-42"/>
       <use x="68.603515625" xlink:href="#BitstreamVeraSans-Roman-75"/>
       <use x="131.982421875" xlink:href="#BitstreamVeraSans-Roman-6c"/>
       <use x="159.765625" xlink:href="#BitstreamVeraSans-Roman-6c"/>
       <use x="187.548828125" xlink:href="#BitstreamVeraSans-Roman-79"/>
      </g>
     </g>
    </g>
    <g id="xtick_3">
     <g id="line2d_5">
      <g>
       <use style="stroke:#000000;stroke-width:0.5;" x="246.19375" xlink:href="#m4df27b98b8" y="368.74175"/>
      </g>
     </g>
     <g id="line2d_6">
      <g>
       <use style="stroke:#000000;stroke-width:0.5;" x="246.19375" xlink:href="#m1b0c642a4f" y="23.14175"/>
      </g>
     </g>
     <g id="text_3">
      <!-- Suspicious Tit For Tat -->
      <defs>
       <path d="M 44.28125 53.078125 
L 44.28125 44.578125 
Q 40.484375 46.53125 36.375 47.5 
Q 32.28125 48.484375 27.875 48.484375 
Q 21.1875 48.484375 17.84375 46.4375 
Q 14.5 44.390625 14.5 40.28125 
Q 14.5 37.15625 16.890625 35.375 
Q 19.28125 33.59375 26.515625 31.984375 
L 29.59375 31.296875 
Q 39.15625 29.25 43.1875 25.515625 
Q 47.21875 21.78125 47.21875 15.09375 
Q 47.21875 7.46875 41.1875 3.015625 
Q 35.15625 -1.421875 24.609375 -1.421875 
Q 20.21875 -1.421875 15.453125 -0.5625 
Q 10.6875 0.296875 5.421875 2 
L 5.421875 11.28125 
Q 10.40625 8.6875 15.234375 7.390625 
Q 20.0625 6.109375 24.8125 6.109375 
Q 31.15625 6.109375 34.5625 8.28125 
Q 37.984375 10.453125 37.984375 14.40625 
Q 37.984375 18.0625 35.515625 20.015625 
Q 33.0625 21.96875 24.703125 23.78125 
L 21.578125 24.515625 
Q 13.234375 26.265625 9.515625 29.90625 
Q 5.8125 33.546875 5.8125 39.890625 
Q 5.8125 47.609375 11.28125 51.796875 
Q 16.75 56 26.8125 56 
Q 31.78125 56 36.171875 55.265625 
Q 40.578125 54.546875 44.28125 53.078125 
" id="BitstreamVeraSans-Roman-73"/>
       <path d="M 18.109375 8.203125 
L 18.109375 -20.796875 
L 9.078125 -20.796875 
L 9.078125 54.6875 
L 18.109375 54.6875 
L 18.109375 46.390625 
Q 20.953125 51.265625 25.265625 53.625 
Q 29.59375 56 35.59375 56 
Q 45.5625 56 51.78125 48.09375 
Q 58.015625 40.1875 58.015625 27.296875 
Q 58.015625 14.40625 51.78125 6.484375 
Q 45.5625 -1.421875 35.59375 -1.421875 
Q 29.59375 -1.421875 25.265625 0.953125 
Q 20.953125 3.328125 18.109375 8.203125 
M 48.6875 27.296875 
Q 48.6875 37.203125 44.609375 42.84375 
Q 40.53125 48.484375 33.40625 48.484375 
Q 26.265625 48.484375 22.1875 42.84375 
Q 18.109375 37.203125 18.109375 27.296875 
Q 18.109375 17.390625 22.1875 11.75 
Q 26.265625 6.109375 33.40625 6.109375 
Q 40.53125 6.109375 44.609375 11.75 
Q 48.6875 17.390625 48.6875 27.296875 
" id="BitstreamVeraSans-Roman-70"/>
       <path id="BitstreamVeraSans-Roman-20"/>
       <path d="M 53.515625 70.515625 
L 53.515625 60.890625 
Q 47.90625 63.578125 42.921875 64.890625 
Q 37.9375 66.21875 33.296875 66.21875 
Q 25.25 66.21875 20.875 63.09375 
Q 16.5 59.96875 16.5 54.203125 
Q 16.5 49.359375 19.40625 46.890625 
Q 22.3125 44.4375 30.421875 42.921875 
L 36.375 41.703125 
Q 47.40625 39.59375 52.65625 34.296875 
Q 57.90625 29 57.90625 20.125 
Q 57.90625 9.515625 50.796875 4.046875 
Q 43.703125 -1.421875 29.984375 -1.421875 
Q 24.8125 -1.421875 18.96875 -0.25 
Q 13.140625 0.921875 6.890625 3.21875 
L 6.890625 13.375 
Q 12.890625 10.015625 18.65625 8.296875 
Q 24.421875 6.59375 29.984375 6.59375 
Q 38.421875 6.59375 43.015625 9.90625 
Q 47.609375 13.234375 47.609375 19.390625 
Q 47.609375 24.75 44.3125 27.78125 
Q 41.015625 30.8125 33.5 32.328125 
L 27.484375 33.5 
Q 16.453125 35.6875 11.515625 40.375 
Q 6.59375 45.0625 6.59375 53.421875 
Q 6.59375 63.09375 13.40625 68.65625 
Q 20.21875 74.21875 32.171875 74.21875 
Q 37.3125 74.21875 42.625 73.28125 
Q 47.953125 72.359375 53.515625 70.515625 
" id="BitstreamVeraSans-Roman-53"/>
       <path d="M -0.296875 72.90625 
L 61.375 72.90625 
L 61.375 64.59375 
L 35.5 64.59375 
L 35.5 0 
L 25.59375 0 
L 25.59375 64.59375 
L -0.296875 64.59375 
z
" id="BitstreamVeraSans-Roman-54"/>
       <path d="M 9.8125 72.90625 
L 51.703125 72.90625 
L 51.703125 64.59375 
L 19.671875 64.59375 
L 19.671875 43.109375 
L 48.578125 43.109375 
L 48.578125 34.8125 
L 19.671875 34.8125 
L 19.671875 0 
L 9.8125 0 
z
" id="BitstreamVeraSans-Roman-46"/>
       <path d="M 34.28125 27.484375 
Q 23.390625 27.484375 19.1875 25 
Q 14.984375 22.515625 14.984375 16.5 
Q 14.984375 11.71875 18.140625 8.90625 
Q 21.296875 6.109375 26.703125 6.109375 
Q 34.1875 6.109375 38.703125 11.40625 
Q 43.21875 16.703125 43.21875 25.484375 
L 43.21875 27.484375 
z
M 52.203125 31.203125 
L 52.203125 0 
L 43.21875 0 
L 43.21875 8.296875 
Q 40.140625 3.328125 35.546875 0.953125 
Q 30.953125 -1.421875 24.3125 -1.421875 
Q 15.921875 -1.421875 10.953125 3.296875 
Q 6 8.015625 6 15.921875 
Q 6 25.140625 12.171875 29.828125 
Q 18.359375 34.515625 30.609375 34.515625 
L 43.21875 34.515625 
L 43.21875 35.40625 
Q 43.21875 41.609375 39.140625 45 
Q 35.0625 48.390625 27.6875 48.390625 
Q 23 48.390625 18.546875 47.265625 
Q 14.109375 46.140625 10.015625 43.890625 
L 10.015625 52.203125 
Q 14.9375 54.109375 19.578125 55.046875 
Q 24.21875 56 28.609375 56 
Q 40.484375 56 46.34375 49.84375 
Q 52.203125 43.703125 52.203125 31.203125 
" id="BitstreamVeraSans-Roman-61"/>
       <path d="M 9.421875 54.6875 
L 18.40625 54.6875 
L 18.40625 0 
L 9.421875 0 
z
M 9.421875 75.984375 
L 18.40625 75.984375 
L 18.40625 64.59375 
L 9.421875 64.59375 
z
" id="BitstreamVeraSans-Roman-69"/>
      </defs>
      <g transform="translate(248.40125 458.668)rotate(-90.0)scale(0.08 -0.08)">
       <use xlink:href="#BitstreamVeraSans-Roman-53"/>
       <use x="63.4765625" xlink:href="#BitstreamVeraSans-Roman-75"/>
       <use x="126.85546875" xlink:href="#BitstreamVeraSans-Roman-73"/>
       <use x="178.955078125" xlink:href="#BitstreamVeraSans-Roman-70"/>
       <use x="242.431640625" xlink:href="#BitstreamVeraSans-Roman-69"/>
       <use x="270.21484375" xlink:href="#BitstreamVeraSans-Roman-63"/>
       <use x="325.1953125" xlink:href="#BitstreamVeraSans-Roman-69"/>
       <use x="352.978515625" xlink:href="#BitstreamVeraSans-Roman-6f"/>
       <use x="414.16015625" xlink:href="#BitstreamVeraSans-Roman-75"/>
       <use x="477.5390625" xlink:href="#BitstreamVeraSans-Roman-73"/>
       <use x="529.638671875" xlink:href="#BitstreamVeraSans-Roman-20"/>
       <use x="561.42578125" xlink:href="#BitstreamVeraSans-Roman-54"/>
       <use x="622.462890625" xlink:href="#BitstreamVeraSans-Roman-69"/>
       <use x="650.24609375" xlink:href="#BitstreamVeraSans-Roman-74"/>
       <use x="689.455078125" xlink:href="#BitstreamVeraSans-Roman-20"/>
       <use x="721.2421875" xlink:href="#BitstreamVeraSans-Roman-46"/>
       <use x="778.71484375" xlink:href="#BitstreamVeraSans-Roman-6f"/>
       <use x="839.896484375" xlink:href="#BitstreamVeraSans-Roman-72"/>
       <use x="881.009765625" xlink:href="#BitstreamVeraSans-Roman-20"/>
       <use x="912.796875" xlink:href="#BitstreamVeraSans-Roman-54"/>
       <use x="973.630859375" xlink:href="#BitstreamVeraSans-Roman-61"/>
       <use x="1034.91015625" xlink:href="#BitstreamVeraSans-Roman-74"/>
      </g>
     </g>
    </g>
    <g id="xtick_4">
     <g id="line2d_7">
      <g>
       <use style="stroke:#000000;stroke-width:0.5;" x="320.59375" xlink:href="#m4df27b98b8" y="368.74175"/>
      </g>
     </g>
     <g id="line2d_8">
      <g>
       <use style="stroke:#000000;stroke-width:0.5;" x="320.59375" xlink:href="#m1b0c642a4f" y="23.14175"/>
      </g>
     </g>
     <g id="text_4">
      <!-- Tit For Tat -->
      <g transform="translate(322.80125 413.75425)rotate(-90.0)scale(0.08 -0.08)">
       <use xlink:href="#BitstreamVeraSans-Roman-54"/>
       <use x="61.037109375" xlink:href="#BitstreamVeraSans-Roman-69"/>
       <use x="88.8203125" xlink:href="#BitstreamVeraSans-Roman-74"/>
       <use x="128.029296875" xlink:href="#BitstreamVeraSans-Roman-20"/>
       <use x="159.81640625" xlink:href="#BitstreamVeraSans-Roman-46"/>
       <use x="217.2890625" xlink:href="#BitstreamVeraSans-Roman-6f"/>
       <use x="278.470703125" xlink:href="#BitstreamVeraSans-Roman-72"/>
       <use x="319.583984375" xlink:href="#BitstreamVeraSans-Roman-20"/>
       <use x="351.37109375" xlink:href="#BitstreamVeraSans-Roman-54"/>
       <use x="412.205078125" xlink:href="#BitstreamVeraSans-Roman-61"/>
       <use x="473.484375" xlink:href="#BitstreamVeraSans-Roman-74"/>
      </g>
     </g>
    </g>
    <g id="xtick_5">
     <g id="line2d_9">
      <g>
       <use style="stroke:#000000;stroke-width:0.5;" x="394.99375" xlink:href="#m4df27b98b8" y="368.74175"/>
      </g>
     </g>
     <g id="line2d_10">
      <g>
       <use style="stroke:#000000;stroke-width:0.5;" x="394.99375" xlink:href="#m1b0c642a4f" y="23.14175"/>
      </g>
     </g>
     <g id="text_5">
      <!-- Alternator -->
      <defs>
       <path d="M 34.1875 63.1875 
L 20.796875 26.90625 
L 47.609375 26.90625 
z
M 28.609375 72.90625 
L 39.796875 72.90625 
L 67.578125 0 
L 57.328125 0 
L 50.6875 18.703125 
L 17.828125 18.703125 
L 11.1875 0 
L 0.78125 0 
z
" id="BitstreamVeraSans-Roman-41"/>
       <path d="M 54.890625 33.015625 
L 54.890625 0 
L 45.90625 0 
L 45.90625 32.71875 
Q 45.90625 40.484375 42.875 44.328125 
Q 39.84375 48.1875 33.796875 48.1875 
Q 26.515625 48.1875 22.3125 43.546875 
Q 18.109375 38.921875 18.109375 30.90625 
L 18.109375 0 
L 9.078125 0 
L 9.078125 54.6875 
L 18.109375 54.6875 
L 18.109375 46.1875 
Q 21.34375 51.125 25.703125 53.5625 
Q 30.078125 56 35.796875 56 
Q 45.21875 56 50.046875 50.171875 
Q 54.890625 44.34375 54.890625 33.015625 
" id="BitstreamVeraSans-Roman-6e"/>
      </defs>
      <g transform="translate(397.20125 413.0755)rotate(-90.0)scale(0.08 -0.08)">
       <use xlink:href="#BitstreamVeraSans-Roman-41"/>
       <use x="68.408203125" xlink:href="#BitstreamVeraSans-Roman-6c"/>
       <use x="96.19140625" xlink:href="#BitstreamVeraSans-Roman-74"/>
       <use x="135.400390625" xlink:href="#BitstreamVeraSans-Roman-65"/>
       <use x="196.923828125" xlink:href="#BitstreamVeraSans-Roman-72"/>
       <use x="238.021484375" xlink:href="#BitstreamVeraSans-Roman-6e"/>
       <use x="301.400390625" xlink:href="#BitstreamVeraSans-Roman-61"/>
       <use x="362.6796875" xlink:href="#BitstreamVeraSans-Roman-74"/>
       <use x="401.888671875" xlink:href="#BitstreamVeraSans-Roman-6f"/>
       <use x="463.0703125" xlink:href="#BitstreamVeraSans-Roman-72"/>
      </g>
     </g>
    </g>
    <g id="xtick_6">
     <g id="line2d_11">
      <g>
       <use style="stroke:#000000;stroke-width:0.5;" x="469.39375" xlink:href="#m4df27b98b8" y="368.74175"/>
      </g>
     </g>
     <g id="line2d_12">
      <g>
       <use style="stroke:#000000;stroke-width:0.5;" x="469.39375" xlink:href="#m1b0c642a4f" y="23.14175"/>
      </g>
     </g>
     <g id="text_6">
      <!-- Anti Tit For Tat -->
      <g transform="translate(471.60125 432.198)rotate(-90.0)scale(0.08 -0.08)">
       <use xlink:href="#BitstreamVeraSans-Roman-41"/>
       <use x="68.408203125" xlink:href="#BitstreamVeraSans-Roman-6e"/>
       <use x="131.787109375" xlink:href="#BitstreamVeraSans-Roman-74"/>
       <use x="170.99609375" xlink:href="#BitstreamVeraSans-Roman-69"/>
       <use x="198.779296875" xlink:href="#BitstreamVeraSans-Roman-20"/>
       <use x="230.56640625" xlink:href="#BitstreamVeraSans-Roman-54"/>
       <use x="291.603515625" xlink:href="#BitstreamVeraSans-Roman-69"/>
       <use x="319.38671875" xlink:href="#BitstreamVeraSans-Roman-74"/>
       <use x="358.595703125" xlink:href="#BitstreamVeraSans-Roman-20"/>
       <use x="390.3828125" xlink:href="#BitstreamVeraSans-Roman-46"/>
       <use x="447.85546875" xlink:href="#BitstreamVeraSans-Roman-6f"/>
       <use x="509.037109375" xlink:href="#BitstreamVeraSans-Roman-72"/>
       <use x="550.150390625" xlink:href="#BitstreamVeraSans-Roman-20"/>
       <use x="581.9375" xlink:href="#BitstreamVeraSans-Roman-54"/>
       <use x="642.771484375" xlink:href="#BitstreamVeraSans-Roman-61"/>
       <use x="704.05078125" xlink:href="#BitstreamVeraSans-Roman-74"/>
      </g>
     </g>
    </g>
    <g id="xtick_7">
     <g id="line2d_13">
      <g>
       <use style="stroke:#000000;stroke-width:0.5;" x="543.79375" xlink:href="#m4df27b98b8" y="368.74175"/>
      </g>
     </g>
     <g id="line2d_14">
      <g>
       <use style="stroke:#000000;stroke-width:0.5;" x="543.79375" xlink:href="#m1b0c642a4f" y="23.14175"/>
      </g>
     </g>
     <g id="text_7">
      <!-- Win-Stay Lose-Shift -->
      <defs>
       <path d="M 4.890625 31.390625 
L 31.203125 31.390625 
L 31.203125 23.390625 
L 4.890625 23.390625 
z
" id="BitstreamVeraSans-Roman-2d"/>
       <path d="M 54.890625 33.015625 
L 54.890625 0 
L 45.90625 0 
L 45.90625 32.71875 
Q 45.90625 40.484375 42.875 44.328125 
Q 39.84375 48.1875 33.796875 48.1875 
Q 26.515625 48.1875 22.3125 43.546875 
Q 18.109375 38.921875 18.109375 30.90625 
L 18.109375 0 
L 9.078125 0 
L 9.078125 75.984375 
L 18.109375 75.984375 
L 18.109375 46.1875 
Q 21.34375 51.125 25.703125 53.5625 
Q 30.078125 56 35.796875 56 
Q 45.21875 56 50.046875 50.171875 
Q 54.890625 44.34375 54.890625 33.015625 
" id="BitstreamVeraSans-Roman-68"/>
       <path d="M 3.328125 72.90625 
L 13.28125 72.90625 
L 28.609375 11.28125 
L 43.890625 72.90625 
L 54.984375 72.90625 
L 70.3125 11.28125 
L 85.59375 72.90625 
L 95.609375 72.90625 
L 77.296875 0 
L 64.890625 0 
L 49.515625 63.28125 
L 33.984375 0 
L 21.578125 0 
z
" id="BitstreamVeraSans-Roman-57"/>
       <path d="M 9.8125 72.90625 
L 19.671875 72.90625 
L 19.671875 8.296875 
L 55.171875 8.296875 
L 55.171875 0 
L 9.8125 0 
z
" id="BitstreamVeraSans-Roman-4c"/>
      </defs>
      <g transform="translate(546.00125 450.873)rotate(-90.0)scale(0.08 -0.08)">
       <use xlink:href="#BitstreamVeraSans-Roman-57"/>
       <use x="98.845703125" xlink:href="#BitstreamVeraSans-Roman-69"/>
       <use x="126.62890625" xlink:href="#BitstreamVeraSans-Roman-6e"/>
       <use x="190.0078125" xlink:href="#BitstreamVeraSans-Roman-2d"/>
       <use x="226.091796875" xlink:href="#BitstreamVeraSans-Roman-53"/>
       <use x="289.568359375" xlink:href="#BitstreamVeraSans-Roman-74"/>
       <use x="328.77734375" xlink:href="#BitstreamVeraSans-Roman-61"/>
       <use x="390.056640625" xlink:href="#BitstreamVeraSans-Roman-79"/>
       <use x="449.236328125" xlink:href="#BitstreamVeraSans-Roman-20"/>
       <use x="481.0234375" xlink:href="#BitstreamVeraSans-Roman-4c"/>
       <use x="536.720703125" xlink:href="#BitstreamVeraSans-Roman-6f"/>
       <use x="597.90234375" xlink:href="#BitstreamVeraSans-Roman-73"/>
       <use x="650.001953125" xlink:href="#BitstreamVeraSans-Roman-65"/>
       <use x="711.525390625" xlink:href="#BitstreamVeraSans-Roman-2d"/>
       <use x="747.609375" xlink:href="#BitstreamVeraSans-Roman-53"/>
       <use x="811.0859375" xlink:href="#BitstreamVeraSans-Roman-68"/>
       <use x="874.46484375" xlink:href="#BitstreamVeraSans-Roman-69"/>
       <use x="902.248046875" xlink:href="#BitstreamVeraSans-Roman-66"/>
       <use x="937.4375" xlink:href="#BitstreamVeraSans-Roman-74"/>
      </g>
     </g>
    </g>
    <g id="xtick_8">
     <g id="line2d_15">
      <g>
       <use style="stroke:#000000;stroke-width:0.5;" x="618.19375" xlink:href="#m4df27b98b8" y="368.74175"/>
      </g>
     </g>
     <g id="line2d_16">
      <g>
       <use style="stroke:#000000;stroke-width:0.5;" x="618.19375" xlink:href="#m1b0c642a4f" y="23.14175"/>
      </g>
     </g>
     <g id="text_8">
      <!-- Cooperator -->
      <defs>
       <path d="M 64.40625 67.28125 
L 64.40625 56.890625 
Q 59.421875 61.53125 53.78125 63.8125 
Q 48.140625 66.109375 41.796875 66.109375 
Q 29.296875 66.109375 22.65625 58.46875 
Q 16.015625 50.828125 16.015625 36.375 
Q 16.015625 21.96875 22.65625 14.328125 
Q 29.296875 6.6875 41.796875 6.6875 
Q 48.140625 6.6875 53.78125 8.984375 
Q 59.421875 11.28125 64.40625 15.921875 
L 64.40625 5.609375 
Q 59.234375 2.09375 53.4375 0.328125 
Q 47.65625 -1.421875 41.21875 -1.421875 
Q 24.65625 -1.421875 15.125 8.703125 
Q 5.609375 18.84375 5.609375 36.375 
Q 5.609375 53.953125 15.125 64.078125 
Q 24.65625 74.21875 41.21875 74.21875 
Q 47.75 74.21875 53.53125 72.484375 
Q 59.328125 70.75 64.40625 67.28125 
" id="BitstreamVeraSans-Roman-43"/>
      </defs>
      <g transform="translate(620.40125 417.6305)rotate(-90.0)scale(0.08 -0.08)">
       <use xlink:href="#BitstreamVeraSans-Roman-43"/>
       <use x="69.82421875" xlink:href="#BitstreamVeraSans-Roman-6f"/>
       <use x="131.005859375" xlink:href="#BitstreamVeraSans-Roman-6f"/>
       <use x="192.1875" xlink:href="#BitstreamVeraSans-Roman-70"/>
       <use x="255.6640625" xlink:href="#BitstreamVeraSans-Roman-65"/>
       <use x="317.1875" xlink:href="#BitstreamVeraSans-Roman-72"/>
       <use x="358.30078125" xlink:href="#BitstreamVeraSans-Roman-61"/>
       <use x="419.580078125" xlink:href="#BitstreamVeraSans-Roman-74"/>
       <use x="458.7890625" xlink:href="#BitstreamVeraSans-Roman-6f"/>
       <use x="519.970703125" xlink:href="#BitstreamVeraSans-Roman-72"/>
      </g>
     </g>
    </g>
   </g>
   <g id="matplotlib.axis_2">
    <g id="ytick_1">
     <g id="line2d_17">
      <defs>
       <path d="M 0 0 
L 4 0 
" id="mdd8368bf9e" style="stroke:#000000;stroke-width:0.5;"/>
      </defs>
      <g>
       <use style="stroke:#000000;stroke-width:0.5;" x="22.99375" xlink:href="#mdd8368bf9e" y="368.74175"/>
      </g>
     </g>
     <g id="line2d_18">
      <defs>
       <path d="M 0 0 
L -4 0 
" id="mbacdbc8893" style="stroke:#000000;stroke-width:0.5;"/>
      </defs>
      <g>
       <use style="stroke:#000000;stroke-width:0.5;" x="692.59375" xlink:href="#mbacdbc8893" y="368.74175"/>
      </g>
     </g>
     <g id="text_9">
      <!-- 6 -->
      <defs>
       <path d="M 33.015625 40.375 
Q 26.375 40.375 22.484375 35.828125 
Q 18.609375 31.296875 18.609375 23.390625 
Q 18.609375 15.53125 22.484375 10.953125 
Q 26.375 6.390625 33.015625 6.390625 
Q 39.65625 6.390625 43.53125 10.953125 
Q 47.40625 15.53125 47.40625 23.390625 
Q 47.40625 31.296875 43.53125 35.828125 
Q 39.65625 40.375 33.015625 40.375 
M 52.59375 71.296875 
L 52.59375 62.3125 
Q 48.875 64.0625 45.09375 64.984375 
Q 41.3125 65.921875 37.59375 65.921875 
Q 27.828125 65.921875 22.671875 59.328125 
Q 17.53125 52.734375 16.796875 39.40625 
Q 19.671875 43.65625 24.015625 45.921875 
Q 28.375 48.1875 33.59375 48.1875 
Q 44.578125 48.1875 50.953125 41.515625 
Q 57.328125 34.859375 57.328125 23.390625 
Q 57.328125 12.15625 50.6875 5.359375 
Q 44.046875 -1.421875 33.015625 -1.421875 
Q 20.359375 -1.421875 13.671875 8.265625 
Q 6.984375 17.96875 6.984375 36.375 
Q 6.984375 53.65625 15.1875 63.9375 
Q 23.390625 74.21875 37.203125 74.21875 
Q 40.921875 74.21875 44.703125 73.484375 
Q 48.484375 72.75 52.59375 71.296875 
" id="BitstreamVeraSans-Roman-36"/>
       <path d="M 10.59375 35.5 
L 73.1875 35.5 
L 73.1875 27.203125 
L 10.59375 27.203125 
z
" id="BitstreamVeraSans-Roman-2212"/>
      </defs>
      <g transform="translate(7.2 370.94925)scale(0.08 -0.08)">
       <use xlink:href="#BitstreamVeraSans-Roman-2212"/>
       <use x="83.7890625" xlink:href="#BitstreamVeraSans-Roman-36"/>
      </g>
     </g>
    </g>
    <g id="ytick_2">
     <g id="line2d_19">
      <g>
       <use style="stroke:#000000;stroke-width:0.5;" x="22.99375" xlink:href="#mdd8368bf9e" y="311.14175"/>
      </g>
     </g>
     <g id="line2d_20">
      <g>
       <use style="stroke:#000000;stroke-width:0.5;" x="692.59375" xlink:href="#mbacdbc8893" y="311.14175"/>
      </g>
     </g>
     <g id="text_10">
      <!-- 4 -->
      <defs>
       <path d="M 37.796875 64.3125 
L 12.890625 25.390625 
L 37.796875 25.390625 
z
M 35.203125 72.90625 
L 47.609375 72.90625 
L 47.609375 25.390625 
L 58.015625 25.390625 
L 58.015625 17.1875 
L 47.609375 17.1875 
L 47.609375 0 
L 37.796875 0 
L 37.796875 17.1875 
L 4.890625 17.1875 
L 4.890625 26.703125 
z
" id="BitstreamVeraSans-Roman-34"/>
      </defs>
      <g transform="translate(7.2 313.34925)scale(0.08 -0.08)">
       <use xlink:href="#BitstreamVeraSans-Roman-2212"/>
       <use x="83.7890625" xlink:href="#BitstreamVeraSans-Roman-34"/>
      </g>
     </g>
    </g>
    <g id="ytick_3">
     <g id="line2d_21">
      <g>
       <use style="stroke:#000000;stroke-width:0.5;" x="22.99375" xlink:href="#mdd8368bf9e" y="253.54175"/>
      </g>
     </g>
     <g id="line2d_22">
      <g>
       <use style="stroke:#000000;stroke-width:0.5;" x="692.59375" xlink:href="#mbacdbc8893" y="253.54175"/>
      </g>
     </g>
     <g id="text_11">
      <!-- 2 -->
      <defs>
       <path d="M 19.1875 8.296875 
L 53.609375 8.296875 
L 53.609375 0 
L 7.328125 0 
L 7.328125 8.296875 
Q 12.9375 14.109375 22.625 23.890625 
Q 32.328125 33.6875 34.8125 36.53125 
Q 39.546875 41.84375 41.421875 45.53125 
Q 43.3125 49.21875 43.3125 52.78125 
Q 43.3125 58.59375 39.234375 62.25 
Q 35.15625 65.921875 28.609375 65.921875 
Q 23.96875 65.921875 18.8125 64.3125 
Q 13.671875 62.703125 7.8125 59.421875 
L 7.8125 69.390625 
Q 13.765625 71.78125 18.9375 73 
Q 24.125 74.21875 28.421875 74.21875 
Q 39.75 74.21875 46.484375 68.546875 
Q 53.21875 62.890625 53.21875 53.421875 
Q 53.21875 48.921875 51.53125 44.890625 
Q 49.859375 40.875 45.40625 35.40625 
Q 44.1875 33.984375 37.640625 27.21875 
Q 31.109375 20.453125 19.1875 8.296875 
" id="BitstreamVeraSans-Roman-32"/>
      </defs>
      <g transform="translate(7.2 255.74925)scale(0.08 -0.08)">
       <use xlink:href="#BitstreamVeraSans-Roman-2212"/>
       <use x="83.7890625" xlink:href="#BitstreamVeraSans-Roman-32"/>
      </g>
     </g>
    </g>
    <g id="ytick_4">
     <g id="line2d_23">
      <g>
       <use style="stroke:#000000;stroke-width:0.5;" x="22.99375" xlink:href="#mdd8368bf9e" y="195.94175"/>
      </g>
     </g>
     <g id="line2d_24">
      <g>
       <use style="stroke:#000000;stroke-width:0.5;" x="692.59375" xlink:href="#mbacdbc8893" y="195.94175"/>
      </g>
     </g>
     <g id="text_12">
      <!-- 0 -->
      <defs>
       <path d="M 31.78125 66.40625 
Q 24.171875 66.40625 20.328125 58.90625 
Q 16.5 51.421875 16.5 36.375 
Q 16.5 21.390625 20.328125 13.890625 
Q 24.171875 6.390625 31.78125 6.390625 
Q 39.453125 6.390625 43.28125 13.890625 
Q 47.125 21.390625 47.125 36.375 
Q 47.125 51.421875 43.28125 58.90625 
Q 39.453125 66.40625 31.78125 66.40625 
M 31.78125 74.21875 
Q 44.046875 74.21875 50.515625 64.515625 
Q 56.984375 54.828125 56.984375 36.375 
Q 56.984375 17.96875 50.515625 8.265625 
Q 44.046875 -1.421875 31.78125 -1.421875 
Q 19.53125 -1.421875 13.0625 8.265625 
Q 6.59375 17.96875 6.59375 36.375 
Q 6.59375 54.828125 13.0625 64.515625 
Q 19.53125 74.21875 31.78125 74.21875 
" id="BitstreamVeraSans-Roman-30"/>
      </defs>
      <g transform="translate(13.90375 198.14925)scale(0.08 -0.08)">
       <use xlink:href="#BitstreamVeraSans-Roman-30"/>
      </g>
     </g>
    </g>
    <g id="ytick_5">
     <g id="line2d_25">
      <g>
       <use style="stroke:#000000;stroke-width:0.5;" x="22.99375" xlink:href="#mdd8368bf9e" y="138.34175"/>
      </g>
     </g>
     <g id="line2d_26">
      <g>
       <use style="stroke:#000000;stroke-width:0.5;" x="692.59375" xlink:href="#mbacdbc8893" y="138.34175"/>
      </g>
     </g>
     <g id="text_13">
      <!-- 2 -->
      <g transform="translate(13.90375 140.54925)scale(0.08 -0.08)">
       <use xlink:href="#BitstreamVeraSans-Roman-32"/>
      </g>
     </g>
    </g>
    <g id="ytick_6">
     <g id="line2d_27">
      <g>
       <use style="stroke:#000000;stroke-width:0.5;" x="22.99375" xlink:href="#mdd8368bf9e" y="80.74175"/>
      </g>
     </g>
     <g id="line2d_28">
      <g>
       <use style="stroke:#000000;stroke-width:0.5;" x="692.59375" xlink:href="#mbacdbc8893" y="80.74175"/>
      </g>
     </g>
     <g id="text_14">
      <!-- 4 -->
      <g transform="translate(13.90375 82.94925)scale(0.08 -0.08)">
       <use xlink:href="#BitstreamVeraSans-Roman-34"/>
      </g>
     </g>
    </g>
    <g id="ytick_7">
     <g id="line2d_29">
      <g>
       <use style="stroke:#000000;stroke-width:0.5;" x="22.99375" xlink:href="#mdd8368bf9e" y="23.14175"/>
      </g>
     </g>
     <g id="line2d_30">
      <g>
       <use style="stroke:#000000;stroke-width:0.5;" x="692.59375" xlink:href="#mbacdbc8893" y="23.14175"/>
      </g>
     </g>
     <g id="text_15">
      <!-- 6 -->
      <g transform="translate(13.90375 25.34925)scale(0.08 -0.08)">
       <use xlink:href="#BitstreamVeraSans-Roman-36"/>
      </g>
     </g>
    </g>
   </g>
   <g id="text_16">
    <!-- Std Payoffs. Prob end: 0.1, Repetitions: 100, Strategies: 8. -->
    <defs>
     <path d="M 12.40625 8.296875 
L 28.515625 8.296875 
L 28.515625 63.921875 
L 10.984375 60.40625 
L 10.984375 69.390625 
L 28.421875 72.90625 
L 38.28125 72.90625 
L 38.28125 8.296875 
L 54.390625 8.296875 
L 54.390625 0 
L 12.40625 0 
z
" id="BitstreamVeraSans-Roman-31"/>
     <path d="M 45.40625 27.984375 
Q 45.40625 37.75 41.375 43.109375 
Q 37.359375 48.484375 30.078125 48.484375 
Q 22.859375 48.484375 18.828125 43.109375 
Q 14.796875 37.75 14.796875 27.984375 
Q 14.796875 18.265625 18.828125 12.890625 
Q 22.859375 7.515625 30.078125 7.515625 
Q 37.359375 7.515625 41.375 12.890625 
Q 45.40625 18.265625 45.40625 27.984375 
M 54.390625 6.78125 
Q 54.390625 -7.171875 48.1875 -13.984375 
Q 42 -20.796875 29.203125 -20.796875 
Q 24.46875 -20.796875 20.265625 -20.09375 
Q 16.0625 -19.390625 12.109375 -17.921875 
L 12.109375 -9.1875 
Q 16.0625 -11.328125 19.921875 -12.34375 
Q 23.78125 -13.375 27.78125 -13.375 
Q 36.625 -13.375 41.015625 -8.765625 
Q 45.40625 -4.15625 45.40625 5.171875 
L 45.40625 9.625 
Q 42.625 4.78125 38.28125 2.390625 
Q 33.9375 0 27.875 0 
Q 17.828125 0 11.671875 7.65625 
Q 5.515625 15.328125 5.515625 27.984375 
Q 5.515625 40.671875 11.671875 48.328125 
Q 17.828125 56 27.875 56 
Q 33.9375 56 38.28125 53.609375 
Q 42.625 51.21875 45.40625 46.390625 
L 45.40625 54.6875 
L 54.390625 54.6875 
z
" id="BitstreamVeraSans-Roman-67"/>
     <path d="M 31.78125 34.625 
Q 24.75 34.625 20.71875 30.859375 
Q 16.703125 27.09375 16.703125 20.515625 
Q 16.703125 13.921875 20.71875 10.15625 
Q 24.75 6.390625 31.78125 6.390625 
Q 38.8125 6.390625 42.859375 10.171875 
Q 46.921875 13.96875 46.921875 20.515625 
Q 46.921875 27.09375 42.890625 30.859375 
Q 38.875 34.625 31.78125 34.625 
M 21.921875 38.8125 
Q 15.578125 40.375 12.03125 44.71875 
Q 8.5 49.078125 8.5 55.328125 
Q 8.5 64.0625 14.71875 69.140625 
Q 20.953125 74.21875 31.78125 74.21875 
Q 42.671875 74.21875 48.875 69.140625 
Q 55.078125 64.0625 55.078125 55.328125 
Q 55.078125 49.078125 51.53125 44.71875 
Q 48 40.375 41.703125 38.8125 
Q 48.828125 37.15625 52.796875 32.3125 
Q 56.78125 27.484375 56.78125 20.515625 
Q 56.78125 9.90625 50.3125 4.234375 
Q 43.84375 -1.421875 31.78125 -1.421875 
Q 19.734375 -1.421875 13.25 4.234375 
Q 6.78125 9.90625 6.78125 20.515625 
Q 6.78125 27.484375 10.78125 32.3125 
Q 14.796875 37.15625 21.921875 38.8125 
M 18.3125 54.390625 
Q 18.3125 48.734375 21.84375 45.5625 
Q 25.390625 42.390625 31.78125 42.390625 
Q 38.140625 42.390625 41.71875 45.5625 
Q 45.3125 48.734375 45.3125 54.390625 
Q 45.3125 60.0625 41.71875 63.234375 
Q 38.140625 66.40625 31.78125 66.40625 
Q 25.390625 66.40625 21.84375 63.234375 
Q 18.3125 60.0625 18.3125 54.390625 
" id="BitstreamVeraSans-Roman-38"/>
     <path d="M 11.71875 12.40625 
L 22.015625 12.40625 
L 22.015625 0 
L 11.71875 0 
z
M 11.71875 51.703125 
L 22.015625 51.703125 
L 22.015625 39.3125 
L 11.71875 39.3125 
z
" id="BitstreamVeraSans-Roman-3a"/>
     <path d="M 11.71875 12.40625 
L 22.015625 12.40625 
L 22.015625 4 
L 14.015625 -11.625 
L 7.71875 -11.625 
L 11.71875 4 
z
" id="BitstreamVeraSans-Roman-2c"/>
     <path d="M 19.671875 64.796875 
L 19.671875 37.40625 
L 32.078125 37.40625 
Q 38.96875 37.40625 42.71875 40.96875 
Q 46.484375 44.53125 46.484375 51.125 
Q 46.484375 57.671875 42.71875 61.234375 
Q 38.96875 64.796875 32.078125 64.796875 
z
M 9.8125 72.90625 
L 32.078125 72.90625 
Q 44.34375 72.90625 50.609375 67.359375 
Q 56.890625 61.8125 56.890625 51.125 
Q 56.890625 40.328125 50.609375 34.8125 
Q 44.34375 29.296875 32.078125 29.296875 
L 19.671875 29.296875 
L 19.671875 0 
L 9.8125 0 
z
" id="BitstreamVeraSans-Roman-50"/>
     <path d="M 48.6875 27.296875 
Q 48.6875 37.203125 44.609375 42.84375 
Q 40.53125 48.484375 33.40625 48.484375 
Q 26.265625 48.484375 22.1875 42.84375 
Q 18.109375 37.203125 18.109375 27.296875 
Q 18.109375 17.390625 22.1875 11.75 
Q 26.265625 6.109375 33.40625 6.109375 
Q 40.53125 6.109375 44.609375 11.75 
Q 48.6875 17.390625 48.6875 27.296875 
M 18.109375 46.390625 
Q 20.953125 51.265625 25.265625 53.625 
Q 29.59375 56 35.59375 56 
Q 45.5625 56 51.78125 48.09375 
Q 58.015625 40.1875 58.015625 27.296875 
Q 58.015625 14.40625 51.78125 6.484375 
Q 45.5625 -1.421875 35.59375 -1.421875 
Q 29.59375 -1.421875 25.265625 0.953125 
Q 20.953125 3.328125 18.109375 8.203125 
L 18.109375 0 
L 9.078125 0 
L 9.078125 75.984375 
L 18.109375 75.984375 
z
" id="BitstreamVeraSans-Roman-62"/>
     <path d="M 44.390625 34.1875 
Q 47.5625 33.109375 50.5625 29.59375 
Q 53.5625 26.078125 56.59375 19.921875 
L 66.609375 0 
L 56 0 
L 46.6875 18.703125 
Q 43.0625 26.03125 39.671875 28.421875 
Q 36.28125 30.8125 30.421875 30.8125 
L 19.671875 30.8125 
L 19.671875 0 
L 9.8125 0 
L 9.8125 72.90625 
L 32.078125 72.90625 
Q 44.578125 72.90625 50.734375 67.671875 
Q 56.890625 62.453125 56.890625 51.90625 
Q 56.890625 45.015625 53.6875 40.46875 
Q 50.484375 35.9375 44.390625 34.1875 
M 19.671875 64.796875 
L 19.671875 38.921875 
L 32.078125 38.921875 
Q 39.203125 38.921875 42.84375 42.21875 
Q 46.484375 45.515625 46.484375 51.90625 
Q 46.484375 58.296875 42.84375 61.546875 
Q 39.203125 64.796875 32.078125 64.796875 
z
" id="BitstreamVeraSans-Roman-52"/>
     <path d="M 45.40625 46.390625 
L 45.40625 75.984375 
L 54.390625 75.984375 
L 54.390625 0 
L 45.40625 0 
L 45.40625 8.203125 
Q 42.578125 3.328125 38.25 0.953125 
Q 33.9375 -1.421875 27.875 -1.421875 
Q 17.96875 -1.421875 11.734375 6.484375 
Q 5.515625 14.40625 5.515625 27.296875 
Q 5.515625 40.1875 11.734375 48.09375 
Q 17.96875 56 27.875 56 
Q 33.9375 56 38.25 53.625 
Q 42.578125 51.265625 45.40625 46.390625 
M 14.796875 27.296875 
Q 14.796875 17.390625 18.875 11.75 
Q 22.953125 6.109375 30.078125 6.109375 
Q 37.203125 6.109375 41.296875 11.75 
Q 45.40625 17.390625 45.40625 27.296875 
Q 45.40625 37.203125 41.296875 42.84375 
Q 37.203125 48.484375 30.078125 48.484375 
Q 22.953125 48.484375 18.875 42.84375 
Q 14.796875 37.203125 14.796875 27.296875 
" id="BitstreamVeraSans-Roman-64"/>
     <path d="M 10.6875 12.40625 
L 21 12.40625 
L 21 0 
L 10.6875 0 
z
" id="BitstreamVeraSans-Roman-2e"/>
    </defs>
    <g transform="translate(147.67975 18.14175)scale(0.144 -0.144)">
     <use xlink:href="#BitstreamVeraSans-Roman-53"/>
     <use x="63.4765625" xlink:href="#BitstreamVeraSans-Roman-74"/>
     <use x="102.685546875" xlink:href="#BitstreamVeraSans-Roman-64"/>
     <use x="166.162109375" xlink:href="#BitstreamVeraSans-Roman-20"/>
     <use x="197.94921875" xlink:href="#BitstreamVeraSans-Roman-50"/>
     <use x="258.189453125" xlink:href="#BitstreamVeraSans-Roman-61"/>
     <use x="319.46875" xlink:href="#BitstreamVeraSans-Roman-79"/>
     <use x="378.6484375" xlink:href="#BitstreamVeraSans-Roman-6f"/>
     <use x="439.830078125" xlink:href="#BitstreamVeraSans-Roman-66"/>
     <use x="475.03515625" xlink:href="#BitstreamVeraSans-Roman-66"/>
     <use x="510.240234375" xlink:href="#BitstreamVeraSans-Roman-73"/>
     <use x="562.33984375" xlink:href="#BitstreamVeraSans-Roman-2e"/>
     <use x="594.126953125" xlink:href="#BitstreamVeraSans-Roman-20"/>
     <use x="625.9140625" xlink:href="#BitstreamVeraSans-Roman-50"/>
     <use x="686.201171875" xlink:href="#BitstreamVeraSans-Roman-72"/>
     <use x="727.283203125" xlink:href="#BitstreamVeraSans-Roman-6f"/>
     <use x="788.46484375" xlink:href="#BitstreamVeraSans-Roman-62"/>
     <use x="851.94140625" xlink:href="#BitstreamVeraSans-Roman-20"/>
     <use x="883.728515625" xlink:href="#BitstreamVeraSans-Roman-65"/>
     <use x="945.251953125" xlink:href="#BitstreamVeraSans-Roman-6e"/>
     <use x="1008.630859375" xlink:href="#BitstreamVeraSans-Roman-64"/>
     <use x="1072.107421875" xlink:href="#BitstreamVeraSans-Roman-3a"/>
     <use x="1105.798828125" xlink:href="#BitstreamVeraSans-Roman-20"/>
     <use x="1137.5859375" xlink:href="#BitstreamVeraSans-Roman-30"/>
     <use x="1201.208984375" xlink:href="#BitstreamVeraSans-Roman-2e"/>
     <use x="1232.99609375" xlink:href="#BitstreamVeraSans-Roman-31"/>
     <use x="1296.619140625" xlink:href="#BitstreamVeraSans-Roman-2c"/>
     <use x="1328.40625" xlink:href="#BitstreamVeraSans-Roman-20"/>
     <use x="1360.193359375" xlink:href="#BitstreamVeraSans-Roman-52"/>
     <use x="1429.61328125" xlink:href="#BitstreamVeraSans-Roman-65"/>
     <use x="1491.13671875" xlink:href="#BitstreamVeraSans-Roman-70"/>
     <use x="1554.61328125" xlink:href="#BitstreamVeraSans-Roman-65"/>
     <use x="1616.13671875" xlink:href="#BitstreamVeraSans-Roman-74"/>
     <use x="1655.345703125" xlink:href="#BitstreamVeraSans-Roman-69"/>
     <use x="1683.12890625" xlink:href="#BitstreamVeraSans-Roman-74"/>
     <use x="1722.337890625" xlink:href="#BitstreamVeraSans-Roman-69"/>
     <use x="1750.12109375" xlink:href="#BitstreamVeraSans-Roman-6f"/>
     <use x="1811.302734375" xlink:href="#BitstreamVeraSans-Roman-6e"/>
     <use x="1874.681640625" xlink:href="#BitstreamVeraSans-Roman-73"/>
     <use x="1926.78125" xlink:href="#BitstreamVeraSans-Roman-3a"/>
     <use x="1960.47265625" xlink:href="#BitstreamVeraSans-Roman-20"/>
     <use x="1992.259765625" xlink:href="#BitstreamVeraSans-Roman-31"/>
     <use x="2055.8828125" xlink:href="#BitstreamVeraSans-Roman-30"/>
     <use x="2119.505859375" xlink:href="#BitstreamVeraSans-Roman-30"/>
     <use x="2183.12890625" xlink:href="#BitstreamVeraSans-Roman-2c"/>
     <use x="2214.916015625" xlink:href="#BitstreamVeraSans-Roman-20"/>
     <use x="2246.703125" xlink:href="#BitstreamVeraSans-Roman-53"/>
     <use x="2310.1796875" xlink:href="#BitstreamVeraSans-Roman-74"/>
     <use x="2349.388671875" xlink:href="#BitstreamVeraSans-Roman-72"/>
     <use x="2390.501953125" xlink:href="#BitstreamVeraSans-Roman-61"/>
     <use x="2451.78125" xlink:href="#BitstreamVeraSans-Roman-74"/>
     <use x="2490.990234375" xlink:href="#BitstreamVeraSans-Roman-65"/>
     <use x="2552.513671875" xlink:href="#BitstreamVeraSans-Roman-67"/>
     <use x="2615.990234375" xlink:href="#BitstreamVeraSans-Roman-69"/>
     <use x="2643.7734375" xlink:href="#BitstreamVeraSans-Roman-65"/>
     <use x="2705.296875" xlink:href="#BitstreamVeraSans-Roman-73"/>
     <use x="2757.396484375" xlink:href="#BitstreamVeraSans-Roman-3a"/>
     <use x="2791.087890625" xlink:href="#BitstreamVeraSans-Roman-20"/>
     <use x="2822.875" xlink:href="#BitstreamVeraSans-Roman-38"/>
     <use x="2886.498046875" xlink:href="#BitstreamVeraSans-Roman-2e"/>
    </g>
   </g>
  </g>
 </g>
 <defs>
  <clipPath id="pee643474ca">
   <rect height="345.6" width="669.6" x="22.99375" y="23.14175"/>
  </clipPath>
 </defs>
</svg>
