<?xml version="1.0" encoding="utf-8" standalone="no"?>
<!DOCTYPE svg PUBLIC "-//W3C//DTD SVG 1.1//EN"
  "http://www.w3.org/Graphics/SVG/1.1/DTD/svg11.dtd">
<!-- Created with matplotlib (http://matplotlib.org/) -->
<svg height="465pt" version="1.1" viewBox="0 0 709 465" width="709pt" xmlns="http://www.w3.org/2000/svg" xmlns:xlink="http://www.w3.org/1999/xlink">
 <defs>
  <style type="text/css">
*{stroke-linecap:butt;stroke-linejoin:round;stroke-miterlimit:100000;}
  </style>
 </defs>
 <g id="figure_1">
  <g id="patch_1">
   <path d="M -0 465.868 
L 709.97375 465.868 
L 709.97375 0 
L -0 0 
z
" style="fill:#ffffff;"/>
  </g>
  <g id="axes_1">
   <g id="patch_2">
    <path d="M 33.17375 368.74175 
L 702.77375 368.74175 
L 702.77375 23.14175 
L 33.17375 23.14175 
z
" style="fill:#ffffff;"/>
   </g>
   <g id="PolyCollection_1">
    <defs>
     <path d="M 125.320848 -269.92625 
L 89.826652 -269.92625 
L 88.97375 -270.798977 
L 90.014095 -271.671705 
L 92.4877 -272.544432 
L 95.600532 -273.417159 
L 98.604417 -274.289886 
L 101.04731 -275.162614 
L 102.806406 -276.035341 
L 103.975792 -276.908068 
L 104.728122 -277.780795 
L 105.222695 -278.653523 
L 105.569991 -279.52625 
L 105.832651 -280.398977 
L 106.041572 -281.271705 
L 106.213404 -282.144432 
L 106.36191 -283.017159 
L 106.500616 -283.889886 
L 106.639227 -284.762614 
L 106.779512 -285.635341 
L 106.915359 -286.508068 
L 107.03714 -287.380795 
L 107.136775 -288.253523 
L 107.210205 -289.12625 
L 107.257003 -289.998977 
L 107.279123 -290.871705 
L 107.280466 -291.744432 
L 107.267226 -292.617159 
L 107.247841 -293.489886 
L 107.231619 -294.362614 
L 107.22619 -295.235341 
L 107.235038 -296.108068 
L 107.25663 -296.980795 
L 107.285708 -297.853523 
L 107.315797 -298.72625 
L 107.341303 -299.598977 
L 107.35854 -300.471705 
L 107.366262 -301.344432 
L 107.366187 -302.217159 
L 107.362818 -303.089886 
L 107.361615 -303.962614 
L 107.366016 -304.835341 
L 107.375456 -305.708068 
L 107.386192 -306.580795 
L 107.394392 -307.453523 
L 107.39897 -308.32625 
L 107.40193 -309.198977 
L 107.406203 -310.071705 
L 107.413066 -310.944432 
L 107.421326 -311.817159 
L 107.428812 -312.689886 
L 107.434704 -313.562614 
L 107.440577 -314.435341 
L 107.449216 -315.308068 
L 107.462129 -316.180795 
L 107.477752 -317.053523 
L 107.491807 -317.92625 
L 107.499631 -318.798977 
L 107.49889 -319.671705 
L 107.490874 -320.544432 
L 107.479748 -321.417159 
L 107.470532 -322.289886 
L 107.467204 -323.162614 
L 107.471707 -324.035341 
L 107.483768 -324.908068 
L 107.501147 -325.780795 
L 107.520287 -326.653523 
L 107.537372 -327.52625 
L 107.549491 -328.398977 
L 107.555353 -329.271705 
L 107.555386 -330.144432 
L 107.55139 -331.017159 
L 107.545948 -331.889886 
L 107.541592 -332.762614 
L 107.539797 -333.635341 
L 107.54031 -334.508068 
L 107.541368 -335.380795 
L 107.540829 -336.253523 
L 107.53753 -337.12625 
L 107.531963 -337.998977 
L 107.525934 -338.871705 
L 107.521608 -339.744432 
L 107.520629 -340.617159 
L 107.523674 -341.489886 
L 107.530384 -342.362614 
L 107.53951 -343.235341 
L 107.5493 -344.108068 
L 107.558081 -344.980795 
L 107.564793 -345.853523 
L 107.569199 -346.72625 
L 107.571671 -347.598977 
L 107.57279 -348.471705 
L 107.572996 -349.344432 
L 107.572395 -350.217159 
L 107.570748 -351.089886 
L 107.567615 -351.962614 
L 107.562687 -352.835341 
L 107.556241 -353.708068 
L 107.549443 -354.580795 
L 107.544156 -355.453523 
L 107.54215 -356.32625 
L 107.60535 -356.32625 
L 107.60535 -356.32625 
L 107.603344 -355.453523 
L 107.598057 -354.580795 
L 107.591259 -353.708068 
L 107.584813 -352.835341 
L 107.579885 -351.962614 
L 107.576752 -351.089886 
L 107.575105 -350.217159 
L 107.574504 -349.344432 
L 107.57471 -348.471705 
L 107.575829 -347.598977 
L 107.578301 -346.72625 
L 107.582707 -345.853523 
L 107.589419 -344.980795 
L 107.5982 -344.108068 
L 107.60799 -343.235341 
L 107.617116 -342.362614 
L 107.623826 -341.489886 
L 107.626871 -340.617159 
L 107.625892 -339.744432 
L 107.621566 -338.871705 
L 107.615537 -337.998977 
L 107.60997 -337.12625 
L 107.606671 -336.253523 
L 107.606132 -335.380795 
L 107.60719 -334.508068 
L 107.607703 -333.635341 
L 107.605908 -332.762614 
L 107.601552 -331.889886 
L 107.59611 -331.017159 
L 107.592114 -330.144432 
L 107.592147 -329.271705 
L 107.598009 -328.398977 
L 107.610128 -327.52625 
L 107.627213 -326.653523 
L 107.646353 -325.780795 
L 107.663732 -324.908068 
L 107.675793 -324.035341 
L 107.680296 -323.162614 
L 107.676968 -322.289886 
L 107.667752 -321.417159 
L 107.656626 -320.544432 
L 107.64861 -319.671705 
L 107.647869 -318.798977 
L 107.655693 -317.92625 
L 107.669748 -317.053523 
L 107.685371 -316.180795 
L 107.698284 -315.308068 
L 107.706923 -314.435341 
L 107.712796 -313.562614 
L 107.718688 -312.689886 
L 107.726174 -311.817159 
L 107.734434 -310.944432 
L 107.741297 -310.071705 
L 107.74557 -309.198977 
L 107.74853 -308.32625 
L 107.753108 -307.453523 
L 107.761308 -306.580795 
L 107.772044 -305.708068 
L 107.781484 -304.835341 
L 107.785885 -303.962614 
L 107.784682 -303.089886 
L 107.781313 -302.217159 
L 107.781238 -301.344432 
L 107.78896 -300.471705 
L 107.806197 -299.598977 
L 107.831703 -298.72625 
L 107.861792 -297.853523 
L 107.89087 -296.980795 
L 107.912462 -296.108068 
L 107.92131 -295.235341 
L 107.915881 -294.362614 
L 107.899659 -293.489886 
L 107.880274 -292.617159 
L 107.867034 -291.744432 
L 107.868377 -290.871705 
L 107.890497 -289.998977 
L 107.937295 -289.12625 
L 108.010725 -288.253523 
L 108.11036 -287.380795 
L 108.232141 -286.508068 
L 108.367988 -285.635341 
L 108.508273 -284.762614 
L 108.646884 -283.889886 
L 108.78559 -283.017159 
L 108.934096 -282.144432 
L 109.105928 -281.271705 
L 109.314849 -280.398977 
L 109.577509 -279.52625 
L 109.924805 -278.653523 
L 110.419378 -277.780795 
L 111.171708 -276.908068 
L 112.341094 -276.035341 
L 114.10019 -275.162614 
L 116.543083 -274.289886 
L 119.546968 -273.417159 
L 122.6598 -272.544432 
L 125.133405 -271.671705 
L 126.17375 -270.798977 
L 125.320848 -269.92625 
z
" id="mcddd040607" style="stroke:#000000;stroke-opacity:0.3;"/>
    </defs>
    <g clip-path="url(#p44e0d5fb59)">
     <use style="fill:#bfbf00;fill-opacity:0.3;stroke:#000000;stroke-opacity:0.3;" x="0.0" xlink:href="#mcddd040607" y="465.868"/>
    </g>
   </g>
   <g id="PolyCollection_2">
    <defs>
     <path d="M 182.004771 -197.92625 
L 181.942729 -197.92625 
L 181.94923 -199.468068 
L 181.960644 -201.009886 
L 181.964238 -202.551705 
L 181.956474 -204.093523 
L 181.945286 -205.635341 
L 181.943809 -207.177159 
L 181.953559 -208.718977 
L 181.960896 -210.260795 
L 181.952798 -211.802614 
L 181.929899 -213.344432 
L 181.912356 -214.88625 
L 181.920486 -216.428068 
L 181.945267 -217.969886 
L 181.964364 -219.511705 
L 181.971826 -221.053523 
L 181.973295 -222.595341 
L 181.972139 -224.137159 
L 181.966353 -225.678977 
L 181.951689 -227.220795 
L 181.930629 -228.762614 
L 181.917197 -230.304432 
L 181.921939 -231.84625 
L 181.935314 -233.388068 
L 181.940826 -234.929886 
L 181.940177 -236.471705 
L 181.94575 -238.013523 
L 181.954965 -239.555341 
L 181.954145 -241.097159 
L 181.939846 -242.638977 
L 181.923975 -244.180795 
L 181.920946 -245.722614 
L 181.932512 -247.264432 
L 181.944111 -248.80625 
L 181.936302 -250.348068 
L 181.901349 -251.889886 
L 181.845057 -253.431705 
L 181.774181 -254.973523 
L 181.695438 -256.515341 
L 181.629467 -258.057159 
L 181.590439 -259.598977 
L 181.535443 -261.140795 
L 181.332473 -262.682614 
L 180.584253 -264.224432 
L 178.232257 -265.76625 
L 173.044781 -267.308068 
L 166.409235 -268.849886 
L 163.37375 -270.391705 
L 166.670735 -271.933523 
L 172.767344 -273.475341 
L 177.35907 -275.017159 
L 179.677015 -276.558977 
L 180.702627 -278.100795 
L 181.170338 -279.642614 
L 181.399912 -281.184432 
L 181.5261 -282.72625 
L 181.598943 -284.268068 
L 181.651533 -285.809886 
L 181.70762 -287.351705 
L 181.763293 -288.893523 
L 181.809144 -290.435341 
L 181.848049 -291.977159 
L 181.887391 -293.518977 
L 181.924348 -295.060795 
L 181.939515 -296.602614 
L 181.914831 -298.144432 
L 181.858319 -299.68625 
L 181.80949 -301.228068 
L 181.803751 -302.769886 
L 181.839521 -304.311705 
L 181.890293 -305.853523 
L 181.925442 -307.395341 
L 181.930976 -308.937159 
L 181.917759 -310.478977 
L 181.903597 -312.020795 
L 181.903029 -313.562614 
L 181.9219 -315.104432 
L 181.946441 -316.64625 
L 181.957365 -318.188068 
L 181.951344 -319.729886 
L 181.940386 -321.271705 
L 181.935593 -322.813523 
L 181.935235 -324.355341 
L 181.937406 -325.897159 
L 181.946848 -327.438977 
L 181.960389 -328.980795 
L 181.969561 -330.522614 
L 181.972936 -332.064432 
L 181.973652 -333.60625 
L 181.973743 -335.148068 
L 181.97375 -336.689886 
L 181.97375 -338.231705 
L 181.97375 -339.773523 
L 181.973745 -341.315341 
L 181.973677 -342.857159 
L 181.973106 -344.398977 
L 181.970243 -345.940795 
L 181.96198 -347.482614 
L 181.949413 -349.024432 
L 181.942745 -350.56625 
L 182.004755 -350.56625 
L 182.004755 -350.56625 
L 181.998087 -349.024432 
L 181.98552 -347.482614 
L 181.977257 -345.940795 
L 181.974394 -344.398977 
L 181.973823 -342.857159 
L 181.973755 -341.315341 
L 181.97375 -339.773523 
L 181.97375 -338.231705 
L 181.97375 -336.689886 
L 181.973757 -335.148068 
L 181.973848 -333.60625 
L 181.974564 -332.064432 
L 181.977939 -330.522614 
L 181.987111 -328.980795 
L 182.000652 -327.438977 
L 182.010094 -325.897159 
L 182.012265 -324.355341 
L 182.011907 -322.813523 
L 182.007114 -321.271705 
L 181.996156 -319.729886 
L 181.990135 -318.188068 
L 182.001059 -316.64625 
L 182.0256 -315.104432 
L 182.044471 -313.562614 
L 182.043903 -312.020795 
L 182.029741 -310.478977 
L 182.016524 -308.937159 
L 182.022058 -307.395341 
L 182.057207 -305.853523 
L 182.107979 -304.311705 
L 182.143749 -302.769886 
L 182.13801 -301.228068 
L 182.089181 -299.68625 
L 182.032669 -298.144432 
L 182.007985 -296.602614 
L 182.023152 -295.060795 
L 182.060109 -293.518977 
L 182.099451 -291.977159 
L 182.138356 -290.435341 
L 182.184207 -288.893523 
L 182.23988 -287.351705 
L 182.295967 -285.809886 
L 182.348557 -284.268068 
L 182.4214 -282.72625 
L 182.547588 -281.184432 
L 182.777162 -279.642614 
L 183.244873 -278.100795 
L 184.270485 -276.558977 
L 186.58843 -275.017159 
L 191.180156 -273.475341 
L 197.276765 -271.933523 
L 200.57375 -270.391705 
L 197.538265 -268.849886 
L 190.902719 -267.308068 
L 185.715243 -265.76625 
L 183.363247 -264.224432 
L 182.615027 -262.682614 
L 182.412057 -261.140795 
L 182.357061 -259.598977 
L 182.318033 -258.057159 
L 182.252062 -256.515341 
L 182.173319 -254.973523 
L 182.102443 -253.431705 
L 182.046151 -251.889886 
L 182.011198 -250.348068 
L 182.003389 -248.80625 
L 182.014988 -247.264432 
L 182.026554 -245.722614 
L 182.023525 -244.180795 
L 182.007654 -242.638977 
L 181.993355 -241.097159 
L 181.992535 -239.555341 
L 182.00175 -238.013523 
L 182.007323 -236.471705 
L 182.006674 -234.929886 
L 182.012186 -233.388068 
L 182.025561 -231.84625 
L 182.030303 -230.304432 
L 182.016871 -228.762614 
L 181.995811 -227.220795 
L 181.981147 -225.678977 
L 181.975361 -224.137159 
L 181.974205 -222.595341 
L 181.975674 -221.053523 
L 181.983136 -219.511705 
L 182.002233 -217.969886 
L 182.027014 -216.428068 
L 182.035144 -214.88625 
L 182.017601 -213.344432 
L 181.994702 -211.802614 
L 181.986604 -210.260795 
L 181.993941 -208.718977 
L 182.003691 -207.177159 
L 182.002214 -205.635341 
L 181.991026 -204.093523 
L 181.983262 -202.551705 
L 181.986856 -201.009886 
L 181.99827 -199.468068 
L 182.004771 -197.92625 
z
" id="mb588a1d863" style="stroke:#000000;stroke-opacity:0.3;"/>
    </defs>
    <g clip-path="url(#p44e0d5fb59)">
     <use style="fill:#bfbf00;fill-opacity:0.3;stroke:#000000;stroke-opacity:0.3;" x="0.0" xlink:href="#mb588a1d863" y="465.868"/>
    </g>
   </g>
   <g id="PolyCollection_3">
    <defs>
     <path d="M 274.721677 -269.92625 
L 238.025823 -269.92625 
L 237.77375 -269.955341 
L 237.943309 -269.984432 
L 238.503307 -270.013523 
L 239.395202 -270.042614 
L 240.541267 -270.071705 
L 241.854436 -270.100795 
L 243.248172 -270.129886 
L 244.64487 -270.158977 
L 245.981777 -270.188068 
L 247.214013 -270.217159 
L 248.314814 -270.24625 
L 249.273599 -270.275341 
L 250.092629 -270.304432 
L 250.783109 -270.333523 
L 251.361401 -270.362614 
L 251.845829 -270.391705 
L 252.254307 -270.420795 
L 252.602811 -270.449886 
L 252.904604 -270.478977 
L 253.170031 -270.508068 
L 253.406705 -270.537159 
L 253.619922 -270.56625 
L 253.81319 -270.595341 
L 253.98879 -270.624432 
L 254.148314 -270.653523 
L 254.293133 -270.682614 
L 254.424761 -270.711705 
L 254.545087 -270.740795 
L 254.656416 -270.769886 
L 254.761339 -270.798977 
L 254.86243 -270.828068 
L 254.961831 -270.857159 
L 255.060805 -270.88625 
L 255.159356 -270.915341 
L 255.256025 -270.944432 
L 255.347912 -270.973523 
L 255.430975 -271.002614 
L 255.500572 -271.031705 
L 255.552173 -271.060795 
L 255.582151 -271.089886 
L 255.588504 -271.118977 
L 255.571411 -271.148068 
L 255.5335 -271.177159 
L 255.479792 -271.20625 
L 255.417277 -271.235341 
L 255.354208 -271.264432 
L 255.299159 -271.293523 
L 255.260023 -271.322614 
L 255.243073 -271.351705 
L 255.252242 -271.380795 
L 255.288734 -271.409886 
L 255.351003 -271.438977 
L 255.435117 -271.468068 
L 255.535396 -271.497159 
L 255.645231 -271.52625 
L 255.757921 -271.555341 
L 255.867417 -271.584432 
L 255.968859 -271.613523 
L 256.058868 -271.642614 
L 256.135599 -271.671705 
L 256.198587 -271.700795 
L 256.24846 -271.729886 
L 256.2866 -271.758977 
L 256.314798 -271.788068 
L 256.33497 -271.817159 
L 256.348942 -271.84625 
L 256.358317 -271.875341 
L 256.364412 -271.904432 
L 256.368253 -271.933523 
L 256.370598 -271.962614 
L 256.37198 -271.991705 
L 256.372757 -272.020795 
L 256.373153 -272.049886 
L 256.373293 -272.078977 
L 256.373223 -272.108068 
L 256.372917 -272.137159 
L 256.372274 -272.16625 
L 256.3711 -272.195341 
L 256.36907 -272.224432 
L 256.36569 -272.253523 
L 256.360244 -272.282614 
L 256.351735 -272.311705 
L 256.338852 -272.340795 
L 256.319954 -272.369886 
L 256.293106 -272.398977 
L 256.256186 -272.428068 
L 256.207082 -272.457159 
L 256.143976 -272.48625 
L 256.065698 -272.515341 
L 255.972124 -272.544432 
L 255.864544 -272.573523 
L 255.745924 -272.602614 
L 255.620986 -272.631705 
L 255.496038 -272.660795 
L 255.37853 -272.689886 
L 255.276362 -272.718977 
L 255.197024 -272.748068 
L 255.146693 -272.777159 
L 255.129443 -272.80625 
L 257.618057 -272.80625 
L 257.618057 -272.80625 
L 257.600807 -272.777159 
L 257.550476 -272.748068 
L 257.471138 -272.718977 
L 257.36897 -272.689886 
L 257.251462 -272.660795 
L 257.126514 -272.631705 
L 257.001576 -272.602614 
L 256.882956 -272.573523 
L 256.775376 -272.544432 
L 256.681802 -272.515341 
L 256.603524 -272.48625 
L 256.540418 -272.457159 
L 256.491314 -272.428068 
L 256.454394 -272.398977 
L 256.427546 -272.369886 
L 256.408648 -272.340795 
L 256.395765 -272.311705 
L 256.387256 -272.282614 
L 256.38181 -272.253523 
L 256.37843 -272.224432 
L 256.3764 -272.195341 
L 256.375226 -272.16625 
L 256.374583 -272.137159 
L 256.374277 -272.108068 
L 256.374207 -272.078977 
L 256.374347 -272.049886 
L 256.374743 -272.020795 
L 256.37552 -271.991705 
L 256.376902 -271.962614 
L 256.379247 -271.933523 
L 256.383088 -271.904432 
L 256.389183 -271.875341 
L 256.398558 -271.84625 
L 256.41253 -271.817159 
L 256.432702 -271.788068 
L 256.4609 -271.758977 
L 256.49904 -271.729886 
L 256.548913 -271.700795 
L 256.611901 -271.671705 
L 256.688632 -271.642614 
L 256.778641 -271.613523 
L 256.880083 -271.584432 
L 256.989579 -271.555341 
L 257.102269 -271.52625 
L 257.212104 -271.497159 
L 257.312383 -271.468068 
L 257.396497 -271.438977 
L 257.458766 -271.409886 
L 257.495258 -271.380795 
L 257.504427 -271.351705 
L 257.487477 -271.322614 
L 257.448341 -271.293523 
L 257.393292 -271.264432 
L 257.330223 -271.235341 
L 257.267708 -271.20625 
L 257.214 -271.177159 
L 257.176089 -271.148068 
L 257.158996 -271.118977 
L 257.165349 -271.089886 
L 257.195327 -271.060795 
L 257.246928 -271.031705 
L 257.316525 -271.002614 
L 257.399588 -270.973523 
L 257.491475 -270.944432 
L 257.588144 -270.915341 
L 257.686695 -270.88625 
L 257.785669 -270.857159 
L 257.88507 -270.828068 
L 257.986161 -270.798977 
L 258.091084 -270.769886 
L 258.202413 -270.740795 
L 258.322739 -270.711705 
L 258.454367 -270.682614 
L 258.599186 -270.653523 
L 258.75871 -270.624432 
L 258.93431 -270.595341 
L 259.127578 -270.56625 
L 259.340795 -270.537159 
L 259.577469 -270.508068 
L 259.842896 -270.478977 
L 260.144689 -270.449886 
L 260.493193 -270.420795 
L 260.901671 -270.391705 
L 261.386099 -270.362614 
L 261.964391 -270.333523 
L 262.654871 -270.304432 
L 263.473901 -270.275341 
L 264.432686 -270.24625 
L 265.533487 -270.217159 
L 266.765723 -270.188068 
L 268.10263 -270.158977 
L 269.499328 -270.129886 
L 270.893064 -270.100795 
L 272.206233 -270.071705 
L 273.352298 -270.042614 
L 274.244193 -270.013523 
L 274.804191 -269.984432 
L 274.97375 -269.955341 
L 274.721677 -269.92625 
z
" id="mfe546ee1b6" style="stroke:#000000;stroke-opacity:0.3;"/>
    </defs>
    <g clip-path="url(#p44e0d5fb59)">
     <use style="fill:#bfbf00;fill-opacity:0.3;stroke:#000000;stroke-opacity:0.3;" x="0.0" xlink:href="#mfe546ee1b6" y="465.868"/>
    </g>
   </g>
   <g id="PolyCollection_4">
    <defs>
     <path d="M 331.647847 -267.04625 
L 329.899653 -267.04625 
L 329.915053 -267.075341 
L 329.959646 -267.104432 
L 330.02888 -267.133523 
L 330.116031 -267.162614 
L 330.213269 -267.191705 
L 330.312813 -267.220795 
L 330.407918 -267.249886 
L 330.49354 -267.278977 
L 330.56662 -267.308068 
L 330.625987 -267.337159 
L 330.672021 -267.36625 
L 330.706159 -267.395341 
L 330.73041 -267.424432 
L 330.746931 -267.453523 
L 330.757733 -267.482614 
L 330.764519 -267.511705 
L 330.768616 -267.540795 
L 330.770994 -267.569886 
L 330.772322 -267.598977 
L 330.773036 -267.628068 
L 330.773405 -267.657159 
L 330.773588 -267.68625 
L 330.773675 -267.715341 
L 330.77371 -267.744432 
L 330.773717 -267.773523 
L 330.773697 -267.802614 
L 330.77364 -267.831705 
L 330.773513 -267.860795 
L 330.773252 -267.889886 
L 330.772736 -267.918977 
L 330.771757 -267.948068 
L 330.769971 -267.977159 
L 330.766835 -268.00625 
L 330.761536 -268.035341 
L 330.752932 -268.064432 
L 330.739505 -268.093523 
L 330.719385 -268.122614 
L 330.690459 -268.151705 
L 330.650598 -268.180795 
L 330.598021 -268.209886 
L 330.531753 -268.238977 
L 330.452129 -268.268068 
L 330.361227 -268.297159 
L 330.263089 -268.32625 
L 330.163634 -268.355341 
L 330.070164 -268.384432 
L 329.990505 -268.413523 
L 329.931878 -268.442614 
L 329.899717 -268.471705 
L 329.896672 -268.500795 
L 329.922015 -268.529886 
L 329.971599 -268.558977 
L 330.038375 -268.588068 
L 330.113373 -268.617159 
L 330.186943 -268.64625 
L 330.250048 -268.675341 
L 330.295364 -268.704432 
L 330.318073 -268.733523 
L 330.316239 -268.762614 
L 330.290772 -268.791705 
L 330.245004 -268.820795 
L 330.183964 -268.849886 
L 330.113462 -268.878977 
L 330.039106 -268.908068 
L 329.965424 -268.937159 
L 329.895219 -268.96625 
L 329.829274 -268.995341 
L 329.766449 -269.024432 
L 329.704099 -269.053523 
L 329.638698 -269.082614 
L 329.566495 -269.111705 
L 329.484029 -269.140795 
L 329.38842 -269.169886 
L 329.27742 -269.198977 
L 329.149281 -269.228068 
L 329.002556 -269.257159 
L 328.835911 -269.28625 
L 328.647997 -269.315341 
L 328.437328 -269.344432 
L 328.202063 -269.373523 
L 327.939546 -269.402614 
L 327.645512 -269.431705 
L 327.312941 -269.460795 
L 326.930715 -269.489886 
L 326.482419 -269.518977 
L 325.94581 -269.548068 
L 325.293606 -269.577159 
L 324.496188 -269.60625 
L 323.5266 -269.635341 
L 322.36766 -269.664432 
L 321.020356 -269.693523 
L 319.511904 -269.722614 
L 317.901296 -269.751705 
L 316.28011 -269.780795 
L 314.766939 -269.809886 
L 313.495091 -269.838977 
L 312.594909 -269.868068 
L 312.17375 -269.897159 
L 312.297724 -269.92625 
L 349.249776 -269.92625 
L 349.249776 -269.92625 
L 349.37375 -269.897159 
L 348.952591 -269.868068 
L 348.052409 -269.838977 
L 346.780561 -269.809886 
L 345.26739 -269.780795 
L 343.646204 -269.751705 
L 342.035596 -269.722614 
L 340.527144 -269.693523 
L 339.17984 -269.664432 
L 338.0209 -269.635341 
L 337.051312 -269.60625 
L 336.253894 -269.577159 
L 335.60169 -269.548068 
L 335.065081 -269.518977 
L 334.616785 -269.489886 
L 334.234559 -269.460795 
L 333.901988 -269.431705 
L 333.607954 -269.402614 
L 333.345437 -269.373523 
L 333.110172 -269.344432 
L 332.899503 -269.315341 
L 332.711589 -269.28625 
L 332.544944 -269.257159 
L 332.398219 -269.228068 
L 332.27008 -269.198977 
L 332.15908 -269.169886 
L 332.063471 -269.140795 
L 331.981005 -269.111705 
L 331.908802 -269.082614 
L 331.843401 -269.053523 
L 331.781051 -269.024432 
L 331.718226 -268.995341 
L 331.652281 -268.96625 
L 331.582076 -268.937159 
L 331.508394 -268.908068 
L 331.434038 -268.878977 
L 331.363536 -268.849886 
L 331.302496 -268.820795 
L 331.256728 -268.791705 
L 331.231261 -268.762614 
L 331.229427 -268.733523 
L 331.252136 -268.704432 
L 331.297452 -268.675341 
L 331.360557 -268.64625 
L 331.434127 -268.617159 
L 331.509125 -268.588068 
L 331.575901 -268.558977 
L 331.625485 -268.529886 
L 331.650828 -268.500795 
L 331.647783 -268.471705 
L 331.615622 -268.442614 
L 331.556995 -268.413523 
L 331.477336 -268.384432 
L 331.383866 -268.355341 
L 331.284411 -268.32625 
L 331.186273 -268.297159 
L 331.095371 -268.268068 
L 331.015747 -268.238977 
L 330.949479 -268.209886 
L 330.896902 -268.180795 
L 330.857041 -268.151705 
L 330.828115 -268.122614 
L 330.807995 -268.093523 
L 330.794568 -268.064432 
L 330.785964 -268.035341 
L 330.780665 -268.00625 
L 330.777529 -267.977159 
L 330.775743 -267.948068 
L 330.774764 -267.918977 
L 330.774248 -267.889886 
L 330.773987 -267.860795 
L 330.77386 -267.831705 
L 330.773803 -267.802614 
L 330.773783 -267.773523 
L 330.77379 -267.744432 
L 330.773825 -267.715341 
L 330.773912 -267.68625 
L 330.774095 -267.657159 
L 330.774464 -267.628068 
L 330.775178 -267.598977 
L 330.776506 -267.569886 
L 330.778884 -267.540795 
L 330.782981 -267.511705 
L 330.789767 -267.482614 
L 330.800569 -267.453523 
L 330.81709 -267.424432 
L 330.841341 -267.395341 
L 330.875479 -267.36625 
L 330.921513 -267.337159 
L 330.98088 -267.308068 
L 331.05396 -267.278977 
L 331.139582 -267.249886 
L 331.234687 -267.220795 
L 331.334231 -267.191705 
L 331.431469 -267.162614 
L 331.51862 -267.133523 
L 331.587854 -267.104432 
L 331.632447 -267.075341 
L 331.647847 -267.04625 
z
" id="m2e557dad6f" style="stroke:#000000;stroke-opacity:0.3;"/>
    </defs>
    <g clip-path="url(#p44e0d5fb59)">
     <use style="fill:#bfbf00;fill-opacity:0.3;stroke:#000000;stroke-opacity:0.3;" x="0.0" xlink:href="#m2e557dad6f" y="465.868"/>
    </g>
   </g>
   <g id="PolyCollection_5">
    <defs>
     <path d="M 405.203192 -183.52625 
L 405.144308 -183.52625 
L 405.154794 -184.602614 
L 405.168691 -185.678977 
L 405.17319 -186.755341 
L 405.173724 -187.831705 
L 405.17375 -188.908068 
L 405.17375 -189.984432 
L 405.17375 -191.060795 
L 405.17375 -192.137159 
L 405.17375 -193.213523 
L 405.17375 -194.289886 
L 405.17375 -195.36625 
L 405.17375 -196.442614 
L 405.17375 -197.518977 
L 405.17375 -198.595341 
L 405.17375 -199.671705 
L 405.17375 -200.748068 
L 405.17375 -201.824432 
L 405.17375 -202.900795 
L 405.17375 -203.977159 
L 405.17375 -205.053523 
L 405.17375 -206.129886 
L 405.17375 -207.20625 
L 405.17375 -208.282614 
L 405.17375 -209.358977 
L 405.17375 -210.435341 
L 405.17375 -211.511705 
L 405.17375 -212.588068 
L 405.17375 -213.664432 
L 405.17375 -214.740795 
L 405.17375 -215.817159 
L 405.17375 -216.893523 
L 405.17375 -217.969886 
L 405.17375 -219.04625 
L 405.17375 -220.122614 
L 405.17375 -221.198977 
L 405.17375 -222.275341 
L 405.17375 -223.351705 
L 405.17375 -224.428068 
L 405.17375 -225.504432 
L 405.17375 -226.580795 
L 405.17375 -227.657159 
L 405.17375 -228.733523 
L 405.17375 -229.809886 
L 405.17375 -230.88625 
L 405.17375 -231.962614 
L 405.173749 -233.038977 
L 405.173705 -234.115341 
L 405.172901 -235.191705 
L 405.167096 -236.268068 
L 405.152136 -237.344432 
L 405.144646 -238.420795 
L 405.15748 -239.497159 
L 405.169323 -240.573523 
L 405.166251 -241.649886 
L 405.142102 -242.72625 
L 405.114993 -243.802614 
L 405.123291 -244.878977 
L 405.138434 -245.955341 
L 405.139293 -247.031705 
L 405.136247 -248.108068 
L 405.118016 -249.184432 
L 405.119702 -250.260795 
L 405.150605 -251.337159 
L 405.168052 -252.413523 
L 405.159619 -253.489886 
L 405.121858 -254.56625 
L 405.084678 -255.642614 
L 405.082244 -256.718977 
L 405.07379 -257.795341 
L 405.069472 -258.871705 
L 405.074922 -259.948068 
L 405.053616 -261.024432 
L 405.030899 -262.100795 
L 405.016611 -263.177159 
L 404.919995 -264.253523 
L 404.556646 -265.329886 
L 403.659732 -266.40625 
L 401.105964 -267.482614 
L 394.01558 -268.558977 
L 386.57375 -269.635341 
L 390.102851 -270.711705 
L 399.037886 -271.788068 
L 403.397672 -272.864432 
L 404.52139 -273.940795 
L 404.902556 -275.017159 
L 405.0309 -276.093523 
L 404.970364 -277.169886 
L 404.872486 -278.24625 
L 404.946017 -279.322614 
L 405.097538 -280.398977 
L 405.158977 -281.475341 
L 405.146423 -282.551705 
L 405.100344 -283.628068 
L 405.090096 -284.704432 
L 405.134197 -285.780795 
L 405.165448 -286.857159 
L 405.168062 -287.933523 
L 405.154773 -289.009886 
L 405.144308 -290.08625 
L 405.203192 -290.08625 
L 405.203192 -290.08625 
L 405.192727 -289.009886 
L 405.179438 -287.933523 
L 405.182052 -286.857159 
L 405.213303 -285.780795 
L 405.257404 -284.704432 
L 405.247156 -283.628068 
L 405.201077 -282.551705 
L 405.188523 -281.475341 
L 405.249962 -280.398977 
L 405.401483 -279.322614 
L 405.475014 -278.24625 
L 405.377136 -277.169886 
L 405.3166 -276.093523 
L 405.444944 -275.017159 
L 405.82611 -273.940795 
L 406.949828 -272.864432 
L 411.309614 -271.788068 
L 420.244649 -270.711705 
L 423.77375 -269.635341 
L 416.33192 -268.558977 
L 409.241536 -267.482614 
L 406.687768 -266.40625 
L 405.790854 -265.329886 
L 405.427505 -264.253523 
L 405.330889 -263.177159 
L 405.316601 -262.100795 
L 405.293884 -261.024432 
L 405.272578 -259.948068 
L 405.278028 -258.871705 
L 405.27371 -257.795341 
L 405.265256 -256.718977 
L 405.262822 -255.642614 
L 405.225642 -254.56625 
L 405.187881 -253.489886 
L 405.179448 -252.413523 
L 405.196895 -251.337159 
L 405.227798 -250.260795 
L 405.229484 -249.184432 
L 405.211253 -248.108068 
L 405.208207 -247.031705 
L 405.209066 -245.955341 
L 405.224209 -244.878977 
L 405.232507 -243.802614 
L 405.205398 -242.72625 
L 405.181249 -241.649886 
L 405.178177 -240.573523 
L 405.19002 -239.497159 
L 405.202854 -238.420795 
L 405.195364 -237.344432 
L 405.180404 -236.268068 
L 405.174599 -235.191705 
L 405.173795 -234.115341 
L 405.173751 -233.038977 
L 405.17375 -231.962614 
L 405.17375 -230.88625 
L 405.17375 -229.809886 
L 405.17375 -228.733523 
L 405.17375 -227.657159 
L 405.17375 -226.580795 
L 405.17375 -225.504432 
L 405.17375 -224.428068 
L 405.17375 -223.351705 
L 405.17375 -222.275341 
L 405.17375 -221.198977 
L 405.17375 -220.122614 
L 405.17375 -219.04625 
L 405.17375 -217.969886 
L 405.17375 -216.893523 
L 405.17375 -215.817159 
L 405.17375 -214.740795 
L 405.17375 -213.664432 
L 405.17375 -212.588068 
L 405.17375 -211.511705 
L 405.17375 -210.435341 
L 405.17375 -209.358977 
L 405.17375 -208.282614 
L 405.17375 -207.20625 
L 405.17375 -206.129886 
L 405.17375 -205.053523 
L 405.17375 -203.977159 
L 405.17375 -202.900795 
L 405.17375 -201.824432 
L 405.17375 -200.748068 
L 405.17375 -199.671705 
L 405.17375 -198.595341 
L 405.17375 -197.518977 
L 405.17375 -196.442614 
L 405.17375 -195.36625 
L 405.17375 -194.289886 
L 405.17375 -193.213523 
L 405.17375 -192.137159 
L 405.17375 -191.060795 
L 405.17375 -189.984432 
L 405.17375 -188.908068 
L 405.173776 -187.831705 
L 405.17431 -186.755341 
L 405.178809 -185.678977 
L 405.192706 -184.602614 
L 405.203192 -183.52625 
z
" id="m571384432f" style="stroke:#000000;stroke-opacity:0.3;"/>
    </defs>
    <g clip-path="url(#p44e0d5fb59)">
     <use style="fill:#bfbf00;fill-opacity:0.3;stroke:#000000;stroke-opacity:0.3;" x="0.0" xlink:href="#m571384432f" y="465.868"/>
    </g>
   </g>
   <g id="PolyCollection_6">
    <defs>
     <path d="M 479.605084 -189.28625 
L 479.542416 -189.28625 
L 479.549289 -191.380795 
L 479.562112 -193.475341 
L 479.570376 -195.569886 
L 479.573154 -197.664432 
L 479.573685 -199.758977 
L 479.573735 -201.853523 
L 479.573614 -203.948068 
L 479.57266 -206.042614 
L 479.568393 -208.137159 
L 479.557304 -210.231705 
L 479.541023 -212.32625 
L 479.528035 -214.420795 
L 479.522592 -216.515341 
L 479.517931 -218.609886 
L 479.498668 -220.704432 
L 479.457984 -222.798977 
L 479.421649 -224.893523 
L 479.424326 -226.988068 
L 479.462786 -229.082614 
L 479.500016 -231.177159 
L 479.502366 -233.271705 
L 479.461584 -235.36625 
L 479.399253 -237.460795 
L 479.352807 -239.555341 
L 479.338943 -241.649886 
L 479.344601 -243.744432 
L 479.361159 -245.838977 
L 479.382074 -247.933523 
L 479.370265 -250.028068 
L 479.279696 -252.122614 
L 479.110127 -254.217159 
L 478.893212 -256.311705 
L 478.613143 -258.40625 
L 478.118181 -260.500795 
L 476.836857 -262.595341 
L 473.413071 -264.689886 
L 467.035527 -266.784432 
L 460.97375 -268.878977 
L 461.064191 -270.973523 
L 467.323559 -273.068068 
L 473.879092 -275.162614 
L 477.372701 -277.257159 
L 478.612308 -279.351705 
L 479.026835 -281.44625 
L 479.226762 -283.540795 
L 479.352581 -285.635341 
L 479.43089 -287.729886 
L 479.475442 -289.824432 
L 479.503091 -291.918977 
L 479.514539 -294.013523 
L 479.500693 -296.108068 
L 479.471482 -298.202614 
L 479.447244 -300.297159 
L 479.44239 -302.391705 
L 479.465153 -304.48625 
L 479.506602 -306.580795 
L 479.539003 -308.675341 
L 479.542172 -310.769886 
L 479.521696 -312.864432 
L 479.500872 -314.958977 
L 479.498089 -317.053523 
L 479.51147 -319.148068 
L 479.525596 -321.242614 
L 479.529569 -323.337159 
L 479.524961 -325.431705 
L 479.514407 -327.52625 
L 479.505426 -329.620795 
L 479.51499 -331.715341 
L 479.540886 -333.809886 
L 479.562348 -335.904432 
L 479.571328 -337.998977 
L 479.573436 -340.093523 
L 479.573725 -342.188068 
L 479.573749 -344.282614 
L 479.573747 -346.377159 
L 479.573703 -348.471705 
L 479.573286 -350.56625 
L 479.570958 -352.660795 
L 479.563507 -354.755341 
L 479.550846 -356.849886 
L 479.542537 -358.944432 
L 479.547823 -361.038977 
L 479.560565 -363.133523 
L 479.569106 -365.228068 
L 479.569615 -367.322614 
L 479.562025 -369.417159 
L 479.549283 -371.511705 
L 479.542416 -373.60625 
L 479.549289 -375.700795 
L 479.562112 -377.795341 
L 479.570376 -379.889886 
L 479.573154 -381.984432 
L 479.573682 -384.078977 
L 479.573682 -386.173523 
L 479.573154 -388.268068 
L 479.570376 -390.362614 
L 479.562112 -392.457159 
L 479.549289 -394.551705 
L 479.542416 -396.64625 
L 479.605084 -396.64625 
L 479.605084 -396.64625 
L 479.598211 -394.551705 
L 479.585388 -392.457159 
L 479.577124 -390.362614 
L 479.574346 -388.268068 
L 479.573818 -386.173523 
L 479.573818 -384.078977 
L 479.574346 -381.984432 
L 479.577124 -379.889886 
L 479.585388 -377.795341 
L 479.598211 -375.700795 
L 479.605084 -373.60625 
L 479.598217 -371.511705 
L 479.585475 -369.417159 
L 479.577885 -367.322614 
L 479.578394 -365.228068 
L 479.586935 -363.133523 
L 479.599677 -361.038977 
L 479.604963 -358.944432 
L 479.596654 -356.849886 
L 479.583993 -354.755341 
L 479.576542 -352.660795 
L 479.574214 -350.56625 
L 479.573797 -348.471705 
L 479.573753 -346.377159 
L 479.573751 -344.282614 
L 479.573775 -342.188068 
L 479.574064 -340.093523 
L 479.576172 -337.998977 
L 479.585152 -335.904432 
L 479.606614 -333.809886 
L 479.63251 -331.715341 
L 479.642074 -329.620795 
L 479.633093 -327.52625 
L 479.622539 -325.431705 
L 479.617931 -323.337159 
L 479.621904 -321.242614 
L 479.63603 -319.148068 
L 479.649411 -317.053523 
L 479.646628 -314.958977 
L 479.625804 -312.864432 
L 479.605328 -310.769886 
L 479.608497 -308.675341 
L 479.640898 -306.580795 
L 479.682347 -304.48625 
L 479.70511 -302.391705 
L 479.700256 -300.297159 
L 479.676018 -298.202614 
L 479.646807 -296.108068 
L 479.632961 -294.013523 
L 479.644409 -291.918977 
L 479.672058 -289.824432 
L 479.71661 -287.729886 
L 479.794919 -285.635341 
L 479.920738 -283.540795 
L 480.120665 -281.44625 
L 480.535192 -279.351705 
L 481.774799 -277.257159 
L 485.268408 -275.162614 
L 491.823941 -273.068068 
L 498.083309 -270.973523 
L 498.17375 -268.878977 
L 492.111973 -266.784432 
L 485.734429 -264.689886 
L 482.310643 -262.595341 
L 481.029319 -260.500795 
L 480.534357 -258.40625 
L 480.254288 -256.311705 
L 480.037373 -254.217159 
L 479.867804 -252.122614 
L 479.777235 -250.028068 
L 479.765426 -247.933523 
L 479.786341 -245.838977 
L 479.802899 -243.744432 
L 479.808557 -241.649886 
L 479.794693 -239.555341 
L 479.748247 -237.460795 
L 479.685916 -235.36625 
L 479.645134 -233.271705 
L 479.647484 -231.177159 
L 479.684714 -229.082614 
L 479.723174 -226.988068 
L 479.725851 -224.893523 
L 479.689516 -222.798977 
L 479.648832 -220.704432 
L 479.629569 -218.609886 
L 479.624908 -216.515341 
L 479.619465 -214.420795 
L 479.606477 -212.32625 
L 479.590196 -210.231705 
L 479.579107 -208.137159 
L 479.57484 -206.042614 
L 479.573886 -203.948068 
L 479.573765 -201.853523 
L 479.573815 -199.758977 
L 479.574346 -197.664432 
L 479.577124 -195.569886 
L 479.585388 -193.475341 
L 479.598211 -191.380795 
L 479.605084 -189.28625 
z
" id="m41f174a0b2" style="stroke:#000000;stroke-opacity:0.3;"/>
    </defs>
    <g clip-path="url(#p44e0d5fb59)">
     <use style="fill:#bfbf00;fill-opacity:0.3;stroke:#000000;stroke-opacity:0.3;" x="0.0" xlink:href="#m41f174a0b2" y="465.868"/>
    </g>
   </g>
   <g id="PolyCollection_7">
    <defs>
     <path d="M 554.003736 -229.60625 
L 553.943764 -229.60625 
L 553.946672 -230.013523 
L 553.95381 -230.420795 
L 553.961776 -230.828068 
L 553.967886 -231.235341 
L 553.971403 -231.642614 
L 553.972953 -232.049886 
L 553.973383 -232.457159 
L 553.973067 -232.864432 
L 553.971722 -233.271705 
L 553.968541 -233.678977 
L 553.9628 -234.08625 
L 553.954973 -234.493523 
L 553.947474 -234.900795 
L 553.943678 -235.308068 
L 553.945345 -235.715341 
L 553.950784 -236.122614 
L 553.955809 -236.529886 
L 553.956721 -236.937159 
L 553.952857 -237.344432 
L 553.947018 -237.751705 
L 553.943523 -238.158977 
L 553.945006 -238.56625 
L 553.950345 -238.973523 
L 553.955555 -239.380795 
L 553.956829 -239.788068 
L 553.953251 -240.195341 
L 553.94743 -240.602614 
L 553.943739 -241.009886 
L 553.945222 -241.417159 
L 553.95151 -241.824432 
L 553.959552 -242.231705 
L 553.966172 -242.638977 
L 553.969774 -243.04625 
L 553.970068 -243.453523 
L 553.967056 -243.860795 
L 553.96091 -244.268068 
L 553.95293 -244.675341 
L 553.946104 -245.082614 
L 553.943799 -245.489886 
L 553.947285 -245.897159 
L 553.954666 -246.304432 
L 553.962452 -246.711705 
L 553.96798 -247.118977 
L 553.970283 -247.52625 
L 553.969281 -247.933523 
L 553.96498 -248.340795 
L 553.957854 -248.748068 
L 553.949857 -249.155341 
L 553.944259 -249.562614 
L 553.94342 -249.969886 
L 553.94612 -250.377159 
L 553.947225 -250.784432 
L 553.940661 -251.191705 
L 553.924112 -251.598977 
L 553.902393 -252.00625 
L 553.886027 -252.413523 
L 553.884034 -252.820795 
L 553.896012 -253.228068 
L 553.911115 -253.635341 
L 553.915486 -254.042614 
L 553.902135 -254.449886 
L 553.876221 -254.857159 
L 553.8521 -255.264432 
L 553.843124 -255.671705 
L 553.851497 -256.078977 
L 553.867114 -256.48625 
L 553.875934 -256.893523 
L 553.869643 -257.300795 
L 553.849792 -257.708068 
L 553.825255 -258.115341 
L 553.805075 -258.522614 
L 553.792008 -258.929886 
L 553.782565 -259.337159 
L 553.771945 -259.744432 
L 553.757341 -260.151705 
L 553.738612 -260.558977 
L 553.718571 -260.96625 
L 553.700619 -261.373523 
L 553.683689 -261.780795 
L 553.661707 -262.188068 
L 553.629337 -262.595341 
L 553.585855 -263.002614 
L 553.533845 -263.409886 
L 553.477263 -263.817159 
L 553.419044 -264.224432 
L 553.3557 -264.631705 
L 553.273249 -265.038977 
L 553.149847 -265.44625 
L 552.963328 -265.853523 
L 552.695997 -266.260795 
L 552.321282 -266.668068 
L 551.756573 -267.075341 
L 550.79878 -267.482614 
L 549.111041 -267.889886 
L 546.35791 -268.297159 
L 542.547482 -268.704432 
L 538.438581 -269.111705 
L 535.549818 -269.518977 
L 535.37375 -269.92625 
L 572.57375 -269.92625 
L 572.57375 -269.92625 
L 572.397682 -269.518977 
L 569.508919 -269.111705 
L 565.400018 -268.704432 
L 561.58959 -268.297159 
L 558.836459 -267.889886 
L 557.14872 -267.482614 
L 556.190927 -267.075341 
L 555.626218 -266.668068 
L 555.251503 -266.260795 
L 554.984172 -265.853523 
L 554.797653 -265.44625 
L 554.674251 -265.038977 
L 554.5918 -264.631705 
L 554.528456 -264.224432 
L 554.470237 -263.817159 
L 554.413655 -263.409886 
L 554.361645 -263.002614 
L 554.318163 -262.595341 
L 554.285793 -262.188068 
L 554.263811 -261.780795 
L 554.246881 -261.373523 
L 554.228929 -260.96625 
L 554.208888 -260.558977 
L 554.190159 -260.151705 
L 554.175555 -259.744432 
L 554.164935 -259.337159 
L 554.155492 -258.929886 
L 554.142425 -258.522614 
L 554.122245 -258.115341 
L 554.097708 -257.708068 
L 554.077857 -257.300795 
L 554.071566 -256.893523 
L 554.080386 -256.48625 
L 554.096003 -256.078977 
L 554.104376 -255.671705 
L 554.0954 -255.264432 
L 554.071279 -254.857159 
L 554.045365 -254.449886 
L 554.032014 -254.042614 
L 554.036385 -253.635341 
L 554.051488 -253.228068 
L 554.063466 -252.820795 
L 554.061473 -252.413523 
L 554.045107 -252.00625 
L 554.023388 -251.598977 
L 554.006839 -251.191705 
L 554.000275 -250.784432 
L 554.00138 -250.377159 
L 554.00408 -249.969886 
L 554.003241 -249.562614 
L 553.997643 -249.155341 
L 553.989646 -248.748068 
L 553.98252 -248.340795 
L 553.978219 -247.933523 
L 553.977217 -247.52625 
L 553.97952 -247.118977 
L 553.985048 -246.711705 
L 553.992834 -246.304432 
L 554.000215 -245.897159 
L 554.003701 -245.489886 
L 554.001396 -245.082614 
L 553.99457 -244.675341 
L 553.98659 -244.268068 
L 553.980444 -243.860795 
L 553.977432 -243.453523 
L 553.977726 -243.04625 
L 553.981328 -242.638977 
L 553.987948 -242.231705 
L 553.99599 -241.824432 
L 554.002278 -241.417159 
L 554.003761 -241.009886 
L 554.00007 -240.602614 
L 553.994249 -240.195341 
L 553.990671 -239.788068 
L 553.991945 -239.380795 
L 553.997155 -238.973523 
L 554.002494 -238.56625 
L 554.003977 -238.158977 
L 554.000482 -237.751705 
L 553.994643 -237.344432 
L 553.990779 -236.937159 
L 553.991691 -236.529886 
L 553.996716 -236.122614 
L 554.002155 -235.715341 
L 554.003822 -235.308068 
L 554.000026 -234.900795 
L 553.992527 -234.493523 
L 553.9847 -234.08625 
L 553.978959 -233.678977 
L 553.975778 -233.271705 
L 553.974433 -232.864432 
L 553.974117 -232.457159 
L 553.974547 -232.049886 
L 553.976097 -231.642614 
L 553.979614 -231.235341 
L 553.985724 -230.828068 
L 553.99369 -230.420795 
L 554.000828 -230.013523 
L 554.003736 -229.60625 
z
" id="m262b6ac2b3" style="stroke:#000000;stroke-opacity:0.3;"/>
    </defs>
    <g clip-path="url(#p44e0d5fb59)">
     <use style="fill:#bfbf00;fill-opacity:0.3;stroke:#000000;stroke-opacity:0.3;" x="0.0" xlink:href="#m262b6ac2b3" y="465.868"/>
    </g>
   </g>
   <g id="PolyCollection_8">
    <defs>
     <path d="M 628.40352 -143.20625 
L 628.34398 -143.20625 
L 628.347266 -144.48625 
L 628.355103 -145.76625 
L 628.363359 -147.04625 
L 628.369167 -148.32625 
L 628.37215 -149.60625 
L 628.373308 -150.88625 
L 628.373653 -152.16625 
L 628.373733 -153.44625 
L 628.373745 -154.72625 
L 628.373733 -156.00625 
L 628.373653 -157.28625 
L 628.373308 -158.56625 
L 628.37215 -159.84625 
L 628.369167 -161.12625 
L 628.363359 -162.40625 
L 628.355103 -163.68625 
L 628.347266 -164.96625 
L 628.34398 -166.24625 
L 628.347266 -167.52625 
L 628.355101 -168.80625 
L 628.363348 -170.08625 
L 628.369103 -171.36625 
L 628.371841 -172.64625 
L 628.372123 -173.92625 
L 628.370053 -175.20625 
L 628.365077 -176.48625 
L 628.357279 -177.76625 
L 628.348952 -179.04625 
L 628.344197 -180.32625 
L 628.345875 -181.60625 
L 628.352942 -182.88625 
L 628.361456 -184.16625 
L 628.368002 -185.44625 
L 628.371623 -186.72625 
L 628.373127 -188.00625 
L 628.373603 -189.28625 
L 628.373707 -190.56625 
L 628.37365 -191.84625 
L 628.373308 -193.12625 
L 628.37215 -194.40625 
L 628.369167 -195.68625 
L 628.363358 -196.96625 
L 628.355095 -198.24625 
L 628.347213 -199.52625 
L 628.343691 -200.80625 
L 628.346019 -202.08625 
L 628.350847 -203.36625 
L 628.351852 -204.64625 
L 628.344515 -205.92625 
L 628.330212 -207.20625 
L 628.31629 -208.48625 
L 628.310517 -209.76625 
L 628.313723 -211.04625 
L 628.318619 -212.32625 
L 628.316787 -213.60625 
L 628.306086 -214.88625 
L 628.291429 -216.16625 
L 628.280023 -217.44625 
L 628.275862 -218.72625 
L 628.277051 -220.00625 
L 628.27793 -221.28625 
L 628.27485 -222.56625 
L 628.270288 -223.84625 
L 628.270393 -225.12625 
L 628.277885 -226.40625 
L 628.2881 -227.68625 
L 628.291934 -228.96625 
L 628.280828 -230.24625 
L 628.249814 -231.52625 
L 628.201542 -232.80625 
L 628.150756 -234.08625 
L 628.119749 -235.36625 
L 628.122589 -236.64625 
L 628.153951 -237.92625 
L 628.196103 -239.20625 
L 628.234547 -240.48625 
L 628.264232 -241.76625 
L 628.283783 -243.04625 
L 628.288952 -244.32625 
L 628.273464 -245.60625 
L 628.235073 -246.88625 
L 628.179355 -248.16625 
L 628.116055 -249.44625 
L 628.050626 -250.72625 
L 627.981448 -252.00625 
L 627.907606 -253.28625 
L 627.832726 -254.56625 
L 627.749657 -255.84625 
L 627.623176 -257.12625 
L 627.40146 -258.40625 
L 627.041373 -259.68625 
L 626.48837 -260.96625 
L 625.587865 -262.24625 
L 624.000981 -263.52625 
L 621.286893 -264.80625 
L 617.31389 -266.08625 
L 612.869366 -267.36625 
L 609.77375 -268.64625 
L 609.832823 -269.92625 
L 646.914677 -269.92625 
L 646.914677 -269.92625 
L 646.97375 -268.64625 
L 643.878134 -267.36625 
L 639.43361 -266.08625 
L 635.460607 -264.80625 
L 632.746519 -263.52625 
L 631.159635 -262.24625 
L 630.25913 -260.96625 
L 629.706127 -259.68625 
L 629.34604 -258.40625 
L 629.124324 -257.12625 
L 628.997843 -255.84625 
L 628.914774 -254.56625 
L 628.839894 -253.28625 
L 628.766052 -252.00625 
L 628.696874 -250.72625 
L 628.631445 -249.44625 
L 628.568145 -248.16625 
L 628.512427 -246.88625 
L 628.474036 -245.60625 
L 628.458548 -244.32625 
L 628.463717 -243.04625 
L 628.483268 -241.76625 
L 628.512953 -240.48625 
L 628.551397 -239.20625 
L 628.593549 -237.92625 
L 628.624911 -236.64625 
L 628.627751 -235.36625 
L 628.596744 -234.08625 
L 628.545958 -232.80625 
L 628.497686 -231.52625 
L 628.466672 -230.24625 
L 628.455566 -228.96625 
L 628.4594 -227.68625 
L 628.469615 -226.40625 
L 628.477107 -225.12625 
L 628.477212 -223.84625 
L 628.47265 -222.56625 
L 628.46957 -221.28625 
L 628.470449 -220.00625 
L 628.471638 -218.72625 
L 628.467477 -217.44625 
L 628.456071 -216.16625 
L 628.441414 -214.88625 
L 628.430713 -213.60625 
L 628.428881 -212.32625 
L 628.433777 -211.04625 
L 628.436983 -209.76625 
L 628.43121 -208.48625 
L 628.417288 -207.20625 
L 628.402985 -205.92625 
L 628.395648 -204.64625 
L 628.396653 -203.36625 
L 628.401481 -202.08625 
L 628.403809 -200.80625 
L 628.400287 -199.52625 
L 628.392405 -198.24625 
L 628.384142 -196.96625 
L 628.378333 -195.68625 
L 628.37535 -194.40625 
L 628.374192 -193.12625 
L 628.37385 -191.84625 
L 628.373793 -190.56625 
L 628.373897 -189.28625 
L 628.374373 -188.00625 
L 628.375877 -186.72625 
L 628.379498 -185.44625 
L 628.386044 -184.16625 
L 628.394558 -182.88625 
L 628.401625 -181.60625 
L 628.403303 -180.32625 
L 628.398548 -179.04625 
L 628.390221 -177.76625 
L 628.382423 -176.48625 
L 628.377447 -175.20625 
L 628.375377 -173.92625 
L 628.375659 -172.64625 
L 628.378397 -171.36625 
L 628.384152 -170.08625 
L 628.392399 -168.80625 
L 628.400234 -167.52625 
L 628.40352 -166.24625 
L 628.400234 -164.96625 
L 628.392397 -163.68625 
L 628.384141 -162.40625 
L 628.378333 -161.12625 
L 628.37535 -159.84625 
L 628.374192 -158.56625 
L 628.373847 -157.28625 
L 628.373767 -156.00625 
L 628.373755 -154.72625 
L 628.373767 -153.44625 
L 628.373847 -152.16625 
L 628.374192 -150.88625 
L 628.37535 -149.60625 
L 628.378333 -148.32625 
L 628.384141 -147.04625 
L 628.392397 -145.76625 
L 628.400234 -144.48625 
L 628.40352 -143.20625 
z
" id="m92155a51d0" style="stroke:#000000;stroke-opacity:0.3;"/>
    </defs>
    <g clip-path="url(#p44e0d5fb59)">
     <use style="fill:#bfbf00;fill-opacity:0.3;stroke:#000000;stroke-opacity:0.3;" x="0.0" xlink:href="#m92155a51d0" y="465.868"/>
    </g>
   </g>
   <g id="LineCollection_1">
    <path clip-path="url(#p44e0d5fb59)" d="M 98.27375 195.07775 
L 116.87375 195.07775 
" style="fill:none;stroke:#ff0000;"/>
    <path clip-path="url(#p44e0d5fb59)" d="M 172.67375 195.720212 
L 191.27375 195.720212 
" style="fill:none;stroke:#ff0000;"/>
    <path clip-path="url(#p44e0d5fb59)" d="M 247.07375 195.94175 
L 265.67375 195.94175 
" style="fill:none;stroke:#ff0000;"/>
    <path clip-path="url(#p44e0d5fb59)" d="M 321.47375 195.94175 
L 340.07375 195.94175 
" style="fill:none;stroke:#ff0000;"/>
    <path clip-path="url(#p44e0d5fb59)" d="M 395.87375 195.94175 
L 414.47375 195.94175 
" style="fill:none;stroke:#ff0000;"/>
    <path clip-path="url(#p44e0d5fb59)" d="M 470.27375 195.94175 
L 488.87375 195.94175 
" style="fill:none;stroke:#ff0000;"/>
    <path clip-path="url(#p44e0d5fb59)" d="M 544.67375 195.94175 
L 563.27375 195.94175 
" style="fill:none;stroke:#ff0000;"/>
    <path clip-path="url(#p44e0d5fb59)" d="M 619.07375 196.30175 
L 637.67375 196.30175 
" style="fill:none;stroke:#ff0000;"/>
   </g>
   <g id="patch_3">
    <path d="M 33.17375 23.14175 
L 702.77375 23.14175 
" style="fill:none;stroke:#000000;stroke-linecap:square;stroke-linejoin:miter;"/>
   </g>
   <g id="patch_4">
    <path d="M 33.17375 368.74175 
L 33.17375 23.14175 
" style="fill:none;stroke:#000000;stroke-linecap:square;stroke-linejoin:miter;"/>
   </g>
   <g id="patch_5">
    <path d="M 33.17375 368.74175 
L 702.77375 368.74175 
" style="fill:none;stroke:#000000;stroke-linecap:square;stroke-linejoin:miter;"/>
   </g>
   <g id="patch_6">
    <path d="M 702.77375 368.74175 
L 702.77375 23.14175 
" style="fill:none;stroke:#000000;stroke-linecap:square;stroke-linejoin:miter;"/>
   </g>
   <g id="matplotlib.axis_1">
    <g id="xtick_1">
     <g id="line2d_1">
      <defs>
       <path d="M 0 0 
L 0 -4 
" id="m41df6a7f24" style="stroke:#000000;stroke-width:0.5;"/>
      </defs>
      <g>
       <use style="stroke:#000000;stroke-width:0.5;" x="107.57375" xlink:href="#m41df6a7f24" y="368.74175"/>
      </g>
     </g>
     <g id="line2d_2">
      <defs>
       <path d="M 0 0 
L 0 4 
" id="m82b9501c5f" style="stroke:#000000;stroke-width:0.5;"/>
      </defs>
      <g>
       <use style="stroke:#000000;stroke-width:0.5;" x="107.57375" xlink:href="#m82b9501c5f" y="23.14175"/>
      </g>
     </g>
     <g id="text_1">
      <!-- Defector -->
      <defs>
       <path d="M 19.671875 64.796875 
L 19.671875 8.109375 
L 31.59375 8.109375 
Q 46.6875 8.109375 53.6875 14.9375 
Q 60.6875 21.78125 60.6875 36.53125 
Q 60.6875 51.171875 53.6875 57.984375 
Q 46.6875 64.796875 31.59375 64.796875 
z
M 9.8125 72.90625 
L 30.078125 72.90625 
Q 51.265625 72.90625 61.171875 64.09375 
Q 71.09375 55.28125 71.09375 36.53125 
Q 71.09375 17.671875 61.125 8.828125 
Q 51.171875 0 30.078125 0 
L 9.8125 0 
z
" id="BitstreamVeraSans-Roman-44"/>
       <path d="M 41.109375 46.296875 
Q 39.59375 47.171875 37.8125 47.578125 
Q 36.03125 48 33.890625 48 
Q 26.265625 48 22.1875 43.046875 
Q 18.109375 38.09375 18.109375 28.8125 
L 18.109375 0 
L 9.078125 0 
L 9.078125 54.6875 
L 18.109375 54.6875 
L 18.109375 46.1875 
Q 20.953125 51.171875 25.484375 53.578125 
Q 30.03125 56 36.53125 56 
Q 37.453125 56 38.578125 55.875 
Q 39.703125 55.765625 41.0625 55.515625 
z
" id="BitstreamVeraSans-Roman-72"/>
       <path d="M 18.3125 70.21875 
L 18.3125 54.6875 
L 36.8125 54.6875 
L 36.8125 47.703125 
L 18.3125 47.703125 
L 18.3125 18.015625 
Q 18.3125 11.328125 20.140625 9.421875 
Q 21.96875 7.515625 27.59375 7.515625 
L 36.8125 7.515625 
L 36.8125 0 
L 27.59375 0 
Q 17.1875 0 13.234375 3.875 
Q 9.28125 7.765625 9.28125 18.015625 
L 9.28125 47.703125 
L 2.6875 47.703125 
L 2.6875 54.6875 
L 9.28125 54.6875 
L 9.28125 70.21875 
z
" id="BitstreamVeraSans-Roman-74"/>
       <path d="M 30.609375 48.390625 
Q 23.390625 48.390625 19.1875 42.75 
Q 14.984375 37.109375 14.984375 27.296875 
Q 14.984375 17.484375 19.15625 11.84375 
Q 23.34375 6.203125 30.609375 6.203125 
Q 37.796875 6.203125 41.984375 11.859375 
Q 46.1875 17.53125 46.1875 27.296875 
Q 46.1875 37.015625 41.984375 42.703125 
Q 37.796875 48.390625 30.609375 48.390625 
M 30.609375 56 
Q 42.328125 56 49.015625 48.375 
Q 55.71875 40.765625 55.71875 27.296875 
Q 55.71875 13.875 49.015625 6.21875 
Q 42.328125 -1.421875 30.609375 -1.421875 
Q 18.84375 -1.421875 12.171875 6.21875 
Q 5.515625 13.875 5.515625 27.296875 
Q 5.515625 40.765625 12.171875 48.375 
Q 18.84375 56 30.609375 56 
" id="BitstreamVeraSans-Roman-6f"/>
       <path d="M 37.109375 75.984375 
L 37.109375 68.5 
L 28.515625 68.5 
Q 23.6875 68.5 21.796875 66.546875 
Q 19.921875 64.59375 19.921875 59.515625 
L 19.921875 54.6875 
L 34.71875 54.6875 
L 34.71875 47.703125 
L 19.921875 47.703125 
L 19.921875 0 
L 10.890625 0 
L 10.890625 47.703125 
L 2.296875 47.703125 
L 2.296875 54.6875 
L 10.890625 54.6875 
L 10.890625 58.5 
Q 10.890625 67.625 15.140625 71.796875 
Q 19.390625 75.984375 28.609375 75.984375 
z
" id="BitstreamVeraSans-Roman-66"/>
       <path d="M 48.78125 52.59375 
L 48.78125 44.1875 
Q 44.96875 46.296875 41.140625 47.34375 
Q 37.3125 48.390625 33.40625 48.390625 
Q 24.65625 48.390625 19.8125 42.84375 
Q 14.984375 37.3125 14.984375 27.296875 
Q 14.984375 17.28125 19.8125 11.734375 
Q 24.65625 6.203125 33.40625 6.203125 
Q 37.3125 6.203125 41.140625 7.25 
Q 44.96875 8.296875 48.78125 10.40625 
L 48.78125 2.09375 
Q 45.015625 0.34375 40.984375 -0.53125 
Q 36.96875 -1.421875 32.421875 -1.421875 
Q 20.0625 -1.421875 12.78125 6.34375 
Q 5.515625 14.109375 5.515625 27.296875 
Q 5.515625 40.671875 12.859375 48.328125 
Q 20.21875 56 33.015625 56 
Q 37.15625 56 41.109375 55.140625 
Q 45.0625 54.296875 48.78125 52.59375 
" id="BitstreamVeraSans-Roman-63"/>
       <path d="M 56.203125 29.59375 
L 56.203125 25.203125 
L 14.890625 25.203125 
Q 15.484375 15.921875 20.484375 11.0625 
Q 25.484375 6.203125 34.421875 6.203125 
Q 39.59375 6.203125 44.453125 7.46875 
Q 49.3125 8.734375 54.109375 11.28125 
L 54.109375 2.78125 
Q 49.265625 0.734375 44.1875 -0.34375 
Q 39.109375 -1.421875 33.890625 -1.421875 
Q 20.796875 -1.421875 13.15625 6.1875 
Q 5.515625 13.8125 5.515625 26.8125 
Q 5.515625 40.234375 12.765625 48.109375 
Q 20.015625 56 32.328125 56 
Q 43.359375 56 49.78125 48.890625 
Q 56.203125 41.796875 56.203125 29.59375 
M 47.21875 32.234375 
Q 47.125 39.59375 43.09375 43.984375 
Q 39.0625 48.390625 32.421875 48.390625 
Q 24.90625 48.390625 20.390625 44.140625 
Q 15.875 39.890625 15.1875 32.171875 
z
" id="BitstreamVeraSans-Roman-65"/>
      </defs>
      <g transform="translate(109.78125 407.28175)rotate(-90.0)scale(0.08 -0.08)">
       <use xlink:href="#BitstreamVeraSans-Roman-44"/>
       <use x="77.001953125" xlink:href="#BitstreamVeraSans-Roman-65"/>
       <use x="138.525390625" xlink:href="#BitstreamVeraSans-Roman-66"/>
       <use x="173.73046875" xlink:href="#BitstreamVeraSans-Roman-65"/>
       <use x="235.25390625" xlink:href="#BitstreamVeraSans-Roman-63"/>
       <use x="290.234375" xlink:href="#BitstreamVeraSans-Roman-74"/>
       <use x="329.443359375" xlink:href="#BitstreamVeraSans-Roman-6f"/>
       <use x="390.625" xlink:href="#BitstreamVeraSans-Roman-72"/>
      </g>
     </g>
    </g>
    <g id="xtick_2">
     <g id="line2d_3">
      <g>
       <use style="stroke:#000000;stroke-width:0.5;" x="181.97375" xlink:href="#m41df6a7f24" y="368.74175"/>
      </g>
     </g>
     <g id="line2d_4">
      <g>
       <use style="stroke:#000000;stroke-width:0.5;" x="181.97375" xlink:href="#m82b9501c5f" y="23.14175"/>
      </g>
     </g>
     <g id="text_2">
      <!-- Bully -->
      <defs>
       <path d="M 19.671875 34.8125 
L 19.671875 8.109375 
L 35.5 8.109375 
Q 43.453125 8.109375 47.28125 11.40625 
Q 51.125 14.703125 51.125 21.484375 
Q 51.125 28.328125 47.28125 31.5625 
Q 43.453125 34.8125 35.5 34.8125 
z
M 19.671875 64.796875 
L 19.671875 42.828125 
L 34.28125 42.828125 
Q 41.5 42.828125 45.03125 45.53125 
Q 48.578125 48.25 48.578125 53.8125 
Q 48.578125 59.328125 45.03125 62.0625 
Q 41.5 64.796875 34.28125 64.796875 
z
M 9.8125 72.90625 
L 35.015625 72.90625 
Q 46.296875 72.90625 52.390625 68.21875 
Q 58.5 63.53125 58.5 54.890625 
Q 58.5 48.1875 55.375 44.234375 
Q 52.25 40.28125 46.1875 39.3125 
Q 53.46875 37.75 57.5 32.78125 
Q 61.53125 27.828125 61.53125 20.40625 
Q 61.53125 10.640625 54.890625 5.3125 
Q 48.25 0 35.984375 0 
L 9.8125 0 
z
" id="BitstreamVeraSans-Roman-42"/>
       <path d="M 9.421875 75.984375 
L 18.40625 75.984375 
L 18.40625 0 
L 9.421875 0 
z
" id="BitstreamVeraSans-Roman-6c"/>
       <path d="M 8.5 21.578125 
L 8.5 54.6875 
L 17.484375 54.6875 
L 17.484375 21.921875 
Q 17.484375 14.15625 20.5 10.265625 
Q 23.53125 6.390625 29.59375 6.390625 
Q 36.859375 6.390625 41.078125 11.03125 
Q 45.3125 15.671875 45.3125 23.6875 
L 45.3125 54.6875 
L 54.296875 54.6875 
L 54.296875 0 
L 45.3125 0 
L 45.3125 8.40625 
Q 42.046875 3.421875 37.71875 1 
Q 33.40625 -1.421875 27.6875 -1.421875 
Q 18.265625 -1.421875 13.375 4.4375 
Q 8.5 10.296875 8.5 21.578125 
" id="BitstreamVeraSans-Roman-75"/>
       <path d="M 32.171875 -5.078125 
Q 28.375 -14.84375 24.75 -17.8125 
Q 21.140625 -20.796875 15.09375 -20.796875 
L 7.90625 -20.796875 
L 7.90625 -13.28125 
L 13.1875 -13.28125 
Q 16.890625 -13.28125 18.9375 -11.515625 
Q 21 -9.765625 23.484375 -3.21875 
L 25.09375 0.875 
L 2.984375 54.6875 
L 12.5 54.6875 
L 29.59375 11.921875 
L 46.6875 54.6875 
L 56.203125 54.6875 
z
" id="BitstreamVeraSans-Roman-79"/>
      </defs>
      <g transform="translate(184.18125 392.4805)rotate(-90.0)scale(0.08 -0.08)">
       <use xlink:href="#BitstreamVeraSans-Roman-42"/>
       <use x="68.603515625" xlink:href="#BitstreamVeraSans-Roman-75"/>
       <use x="131.982421875" xlink:href="#BitstreamVeraSans-Roman-6c"/>
       <use x="159.765625" xlink:href="#BitstreamVeraSans-Roman-6c"/>
       <use x="187.548828125" xlink:href="#BitstreamVeraSans-Roman-79"/>
      </g>
     </g>
    </g>
    <g id="xtick_3">
     <g id="line2d_5">
      <g>
       <use style="stroke:#000000;stroke-width:0.5;" x="256.37375" xlink:href="#m41df6a7f24" y="368.74175"/>
      </g>
     </g>
     <g id="line2d_6">
      <g>
       <use style="stroke:#000000;stroke-width:0.5;" x="256.37375" xlink:href="#m82b9501c5f" y="23.14175"/>
      </g>
     </g>
     <g id="text_3">
      <!-- Suspicious Tit For Tat -->
      <defs>
       <path d="M 34.28125 27.484375 
Q 23.390625 27.484375 19.1875 25 
Q 14.984375 22.515625 14.984375 16.5 
Q 14.984375 11.71875 18.140625 8.90625 
Q 21.296875 6.109375 26.703125 6.109375 
Q 34.1875 6.109375 38.703125 11.40625 
Q 43.21875 16.703125 43.21875 25.484375 
L 43.21875 27.484375 
z
M 52.203125 31.203125 
L 52.203125 0 
L 43.21875 0 
L 43.21875 8.296875 
Q 40.140625 3.328125 35.546875 0.953125 
Q 30.953125 -1.421875 24.3125 -1.421875 
Q 15.921875 -1.421875 10.953125 3.296875 
Q 6 8.015625 6 15.921875 
Q 6 25.140625 12.171875 29.828125 
Q 18.359375 34.515625 30.609375 34.515625 
L 43.21875 34.515625 
L 43.21875 35.40625 
Q 43.21875 41.609375 39.140625 45 
Q 35.0625 48.390625 27.6875 48.390625 
Q 23 48.390625 18.546875 47.265625 
Q 14.109375 46.140625 10.015625 43.890625 
L 10.015625 52.203125 
Q 14.9375 54.109375 19.578125 55.046875 
Q 24.21875 56 28.609375 56 
Q 40.484375 56 46.34375 49.84375 
Q 52.203125 43.703125 52.203125 31.203125 
" id="BitstreamVeraSans-Roman-61"/>
       <path d="M 18.109375 8.203125 
L 18.109375 -20.796875 
L 9.078125 -20.796875 
L 9.078125 54.6875 
L 18.109375 54.6875 
L 18.109375 46.390625 
Q 20.953125 51.265625 25.265625 53.625 
Q 29.59375 56 35.59375 56 
Q 45.5625 56 51.78125 48.09375 
Q 58.015625 40.1875 58.015625 27.296875 
Q 58.015625 14.40625 51.78125 6.484375 
Q 45.5625 -1.421875 35.59375 -1.421875 
Q 29.59375 -1.421875 25.265625 0.953125 
Q 20.953125 3.328125 18.109375 8.203125 
M 48.6875 27.296875 
Q 48.6875 37.203125 44.609375 42.84375 
Q 40.53125 48.484375 33.40625 48.484375 
Q 26.265625 48.484375 22.1875 42.84375 
Q 18.109375 37.203125 18.109375 27.296875 
Q 18.109375 17.390625 22.1875 11.75 
Q 26.265625 6.109375 33.40625 6.109375 
Q 40.53125 6.109375 44.609375 11.75 
Q 48.6875 17.390625 48.6875 27.296875 
" id="BitstreamVeraSans-Roman-70"/>
       <path d="M 44.28125 53.078125 
L 44.28125 44.578125 
Q 40.484375 46.53125 36.375 47.5 
Q 32.28125 48.484375 27.875 48.484375 
Q 21.1875 48.484375 17.84375 46.4375 
Q 14.5 44.390625 14.5 40.28125 
Q 14.5 37.15625 16.890625 35.375 
Q 19.28125 33.59375 26.515625 31.984375 
L 29.59375 31.296875 
Q 39.15625 29.25 43.1875 25.515625 
Q 47.21875 21.78125 47.21875 15.09375 
Q 47.21875 7.46875 41.1875 3.015625 
Q 35.15625 -1.421875 24.609375 -1.421875 
Q 20.21875 -1.421875 15.453125 -0.5625 
Q 10.6875 0.296875 5.421875 2 
L 5.421875 11.28125 
Q 10.40625 8.6875 15.234375 7.390625 
Q 20.0625 6.109375 24.8125 6.109375 
Q 31.15625 6.109375 34.5625 8.28125 
Q 37.984375 10.453125 37.984375 14.40625 
Q 37.984375 18.0625 35.515625 20.015625 
Q 33.0625 21.96875 24.703125 23.78125 
L 21.578125 24.515625 
Q 13.234375 26.265625 9.515625 29.90625 
Q 5.8125 33.546875 5.8125 39.890625 
Q 5.8125 47.609375 11.28125 51.796875 
Q 16.75 56 26.8125 56 
Q 31.78125 56 36.171875 55.265625 
Q 40.578125 54.546875 44.28125 53.078125 
" id="BitstreamVeraSans-Roman-73"/>
       <path d="M -0.296875 72.90625 
L 61.375 72.90625 
L 61.375 64.59375 
L 35.5 64.59375 
L 35.5 0 
L 25.59375 0 
L 25.59375 64.59375 
L -0.296875 64.59375 
z
" id="BitstreamVeraSans-Roman-54"/>
       <path id="BitstreamVeraSans-Roman-20"/>
       <path d="M 9.421875 54.6875 
L 18.40625 54.6875 
L 18.40625 0 
L 9.421875 0 
z
M 9.421875 75.984375 
L 18.40625 75.984375 
L 18.40625 64.59375 
L 9.421875 64.59375 
z
" id="BitstreamVeraSans-Roman-69"/>
       <path d="M 9.8125 72.90625 
L 51.703125 72.90625 
L 51.703125 64.59375 
L 19.671875 64.59375 
L 19.671875 43.109375 
L 48.578125 43.109375 
L 48.578125 34.8125 
L 19.671875 34.8125 
L 19.671875 0 
L 9.8125 0 
z
" id="BitstreamVeraSans-Roman-46"/>
       <path d="M 53.515625 70.515625 
L 53.515625 60.890625 
Q 47.90625 63.578125 42.921875 64.890625 
Q 37.9375 66.21875 33.296875 66.21875 
Q 25.25 66.21875 20.875 63.09375 
Q 16.5 59.96875 16.5 54.203125 
Q 16.5 49.359375 19.40625 46.890625 
Q 22.3125 44.4375 30.421875 42.921875 
L 36.375 41.703125 
Q 47.40625 39.59375 52.65625 34.296875 
Q 57.90625 29 57.90625 20.125 
Q 57.90625 9.515625 50.796875 4.046875 
Q 43.703125 -1.421875 29.984375 -1.421875 
Q 24.8125 -1.421875 18.96875 -0.25 
Q 13.140625 0.921875 6.890625 3.21875 
L 6.890625 13.375 
Q 12.890625 10.015625 18.65625 8.296875 
Q 24.421875 6.59375 29.984375 6.59375 
Q 38.421875 6.59375 43.015625 9.90625 
Q 47.609375 13.234375 47.609375 19.390625 
Q 47.609375 24.75 44.3125 27.78125 
Q 41.015625 30.8125 33.5 32.328125 
L 27.484375 33.5 
Q 16.453125 35.6875 11.515625 40.375 
Q 6.59375 45.0625 6.59375 53.421875 
Q 6.59375 63.09375 13.40625 68.65625 
Q 20.21875 74.21875 32.171875 74.21875 
Q 37.3125 74.21875 42.625 73.28125 
Q 47.953125 72.359375 53.515625 70.515625 
" id="BitstreamVeraSans-Roman-53"/>
      </defs>
      <g transform="translate(258.58125 458.668)rotate(-90.0)scale(0.08 -0.08)">
       <use xlink:href="#BitstreamVeraSans-Roman-53"/>
       <use x="63.4765625" xlink:href="#BitstreamVeraSans-Roman-75"/>
       <use x="126.85546875" xlink:href="#BitstreamVeraSans-Roman-73"/>
       <use x="178.955078125" xlink:href="#BitstreamVeraSans-Roman-70"/>
       <use x="242.431640625" xlink:href="#BitstreamVeraSans-Roman-69"/>
       <use x="270.21484375" xlink:href="#BitstreamVeraSans-Roman-63"/>
       <use x="325.1953125" xlink:href="#BitstreamVeraSans-Roman-69"/>
       <use x="352.978515625" xlink:href="#BitstreamVeraSans-Roman-6f"/>
       <use x="414.16015625" xlink:href="#BitstreamVeraSans-Roman-75"/>
       <use x="477.5390625" xlink:href="#BitstreamVeraSans-Roman-73"/>
       <use x="529.638671875" xlink:href="#BitstreamVeraSans-Roman-20"/>
       <use x="561.42578125" xlink:href="#BitstreamVeraSans-Roman-54"/>
       <use x="622.462890625" xlink:href="#BitstreamVeraSans-Roman-69"/>
       <use x="650.24609375" xlink:href="#BitstreamVeraSans-Roman-74"/>
       <use x="689.455078125" xlink:href="#BitstreamVeraSans-Roman-20"/>
       <use x="721.2421875" xlink:href="#BitstreamVeraSans-Roman-46"/>
       <use x="778.71484375" xlink:href="#BitstreamVeraSans-Roman-6f"/>
       <use x="839.896484375" xlink:href="#BitstreamVeraSans-Roman-72"/>
       <use x="881.009765625" xlink:href="#BitstreamVeraSans-Roman-20"/>
       <use x="912.796875" xlink:href="#BitstreamVeraSans-Roman-54"/>
       <use x="973.630859375" xlink:href="#BitstreamVeraSans-Roman-61"/>
       <use x="1034.91015625" xlink:href="#BitstreamVeraSans-Roman-74"/>
      </g>
     </g>
    </g>
    <g id="xtick_4">
     <g id="line2d_7">
      <g>
       <use style="stroke:#000000;stroke-width:0.5;" x="330.77375" xlink:href="#m41df6a7f24" y="368.74175"/>
      </g>
     </g>
     <g id="line2d_8">
      <g>
       <use style="stroke:#000000;stroke-width:0.5;" x="330.77375" xlink:href="#m82b9501c5f" y="23.14175"/>
      </g>
     </g>
     <g id="text_4">
      <!-- Tit For Tat -->
      <g transform="translate(332.98125 413.75425)rotate(-90.0)scale(0.08 -0.08)">
       <use xlink:href="#BitstreamVeraSans-Roman-54"/>
       <use x="61.037109375" xlink:href="#BitstreamVeraSans-Roman-69"/>
       <use x="88.8203125" xlink:href="#BitstreamVeraSans-Roman-74"/>
       <use x="128.029296875" xlink:href="#BitstreamVeraSans-Roman-20"/>
       <use x="159.81640625" xlink:href="#BitstreamVeraSans-Roman-46"/>
       <use x="217.2890625" xlink:href="#BitstreamVeraSans-Roman-6f"/>
       <use x="278.470703125" xlink:href="#BitstreamVeraSans-Roman-72"/>
       <use x="319.583984375" xlink:href="#BitstreamVeraSans-Roman-20"/>
       <use x="351.37109375" xlink:href="#BitstreamVeraSans-Roman-54"/>
       <use x="412.205078125" xlink:href="#BitstreamVeraSans-Roman-61"/>
       <use x="473.484375" xlink:href="#BitstreamVeraSans-Roman-74"/>
      </g>
     </g>
    </g>
    <g id="xtick_5">
     <g id="line2d_9">
      <g>
       <use style="stroke:#000000;stroke-width:0.5;" x="405.17375" xlink:href="#m41df6a7f24" y="368.74175"/>
      </g>
     </g>
     <g id="line2d_10">
      <g>
       <use style="stroke:#000000;stroke-width:0.5;" x="405.17375" xlink:href="#m82b9501c5f" y="23.14175"/>
      </g>
     </g>
     <g id="text_5">
      <!-- Alternator -->
      <defs>
       <path d="M 54.890625 33.015625 
L 54.890625 0 
L 45.90625 0 
L 45.90625 32.71875 
Q 45.90625 40.484375 42.875 44.328125 
Q 39.84375 48.1875 33.796875 48.1875 
Q 26.515625 48.1875 22.3125 43.546875 
Q 18.109375 38.921875 18.109375 30.90625 
L 18.109375 0 
L 9.078125 0 
L 9.078125 54.6875 
L 18.109375 54.6875 
L 18.109375 46.1875 
Q 21.34375 51.125 25.703125 53.5625 
Q 30.078125 56 35.796875 56 
Q 45.21875 56 50.046875 50.171875 
Q 54.890625 44.34375 54.890625 33.015625 
" id="BitstreamVeraSans-Roman-6e"/>
       <path d="M 34.1875 63.1875 
L 20.796875 26.90625 
L 47.609375 26.90625 
z
M 28.609375 72.90625 
L 39.796875 72.90625 
L 67.578125 0 
L 57.328125 0 
L 50.6875 18.703125 
L 17.828125 18.703125 
L 11.1875 0 
L 0.78125 0 
z
" id="BitstreamVeraSans-Roman-41"/>
      </defs>
      <g transform="translate(407.38125 413.0755)rotate(-90.0)scale(0.08 -0.08)">
       <use xlink:href="#BitstreamVeraSans-Roman-41"/>
       <use x="68.408203125" xlink:href="#BitstreamVeraSans-Roman-6c"/>
       <use x="96.19140625" xlink:href="#BitstreamVeraSans-Roman-74"/>
       <use x="135.400390625" xlink:href="#BitstreamVeraSans-Roman-65"/>
       <use x="196.923828125" xlink:href="#BitstreamVeraSans-Roman-72"/>
       <use x="238.021484375" xlink:href="#BitstreamVeraSans-Roman-6e"/>
       <use x="301.400390625" xlink:href="#BitstreamVeraSans-Roman-61"/>
       <use x="362.6796875" xlink:href="#BitstreamVeraSans-Roman-74"/>
       <use x="401.888671875" xlink:href="#BitstreamVeraSans-Roman-6f"/>
       <use x="463.0703125" xlink:href="#BitstreamVeraSans-Roman-72"/>
      </g>
     </g>
    </g>
    <g id="xtick_6">
     <g id="line2d_11">
      <g>
       <use style="stroke:#000000;stroke-width:0.5;" x="479.57375" xlink:href="#m41df6a7f24" y="368.74175"/>
      </g>
     </g>
     <g id="line2d_12">
      <g>
       <use style="stroke:#000000;stroke-width:0.5;" x="479.57375" xlink:href="#m82b9501c5f" y="23.14175"/>
      </g>
     </g>
     <g id="text_6">
      <!-- Anti Tit For Tat -->
      <g transform="translate(481.78125 432.198)rotate(-90.0)scale(0.08 -0.08)">
       <use xlink:href="#BitstreamVeraSans-Roman-41"/>
       <use x="68.408203125" xlink:href="#BitstreamVeraSans-Roman-6e"/>
       <use x="131.787109375" xlink:href="#BitstreamVeraSans-Roman-74"/>
       <use x="170.99609375" xlink:href="#BitstreamVeraSans-Roman-69"/>
       <use x="198.779296875" xlink:href="#BitstreamVeraSans-Roman-20"/>
       <use x="230.56640625" xlink:href="#BitstreamVeraSans-Roman-54"/>
       <use x="291.603515625" xlink:href="#BitstreamVeraSans-Roman-69"/>
       <use x="319.38671875" xlink:href="#BitstreamVeraSans-Roman-74"/>
       <use x="358.595703125" xlink:href="#BitstreamVeraSans-Roman-20"/>
       <use x="390.3828125" xlink:href="#BitstreamVeraSans-Roman-46"/>
       <use x="447.85546875" xlink:href="#BitstreamVeraSans-Roman-6f"/>
       <use x="509.037109375" xlink:href="#BitstreamVeraSans-Roman-72"/>
       <use x="550.150390625" xlink:href="#BitstreamVeraSans-Roman-20"/>
       <use x="581.9375" xlink:href="#BitstreamVeraSans-Roman-54"/>
       <use x="642.771484375" xlink:href="#BitstreamVeraSans-Roman-61"/>
       <use x="704.05078125" xlink:href="#BitstreamVeraSans-Roman-74"/>
      </g>
     </g>
    </g>
    <g id="xtick_7">
     <g id="line2d_13">
      <g>
       <use style="stroke:#000000;stroke-width:0.5;" x="553.97375" xlink:href="#m41df6a7f24" y="368.74175"/>
      </g>
     </g>
     <g id="line2d_14">
      <g>
       <use style="stroke:#000000;stroke-width:0.5;" x="553.97375" xlink:href="#m82b9501c5f" y="23.14175"/>
      </g>
     </g>
     <g id="text_7">
      <!-- Win-Stay Lose-Shift -->
      <defs>
       <path d="M 9.8125 72.90625 
L 19.671875 72.90625 
L 19.671875 8.296875 
L 55.171875 8.296875 
L 55.171875 0 
L 9.8125 0 
z
" id="BitstreamVeraSans-Roman-4c"/>
       <path d="M 4.890625 31.390625 
L 31.203125 31.390625 
L 31.203125 23.390625 
L 4.890625 23.390625 
z
" id="BitstreamVeraSans-Roman-2d"/>
       <path d="M 3.328125 72.90625 
L 13.28125 72.90625 
L 28.609375 11.28125 
L 43.890625 72.90625 
L 54.984375 72.90625 
L 70.3125 11.28125 
L 85.59375 72.90625 
L 95.609375 72.90625 
L 77.296875 0 
L 64.890625 0 
L 49.515625 63.28125 
L 33.984375 0 
L 21.578125 0 
z
" id="BitstreamVeraSans-Roman-57"/>
       <path d="M 54.890625 33.015625 
L 54.890625 0 
L 45.90625 0 
L 45.90625 32.71875 
Q 45.90625 40.484375 42.875 44.328125 
Q 39.84375 48.1875 33.796875 48.1875 
Q 26.515625 48.1875 22.3125 43.546875 
Q 18.109375 38.921875 18.109375 30.90625 
L 18.109375 0 
L 9.078125 0 
L 9.078125 75.984375 
L 18.109375 75.984375 
L 18.109375 46.1875 
Q 21.34375 51.125 25.703125 53.5625 
Q 30.078125 56 35.796875 56 
Q 45.21875 56 50.046875 50.171875 
Q 54.890625 44.34375 54.890625 33.015625 
" id="BitstreamVeraSans-Roman-68"/>
      </defs>
      <g transform="translate(556.18125 450.873)rotate(-90.0)scale(0.08 -0.08)">
       <use xlink:href="#BitstreamVeraSans-Roman-57"/>
       <use x="98.845703125" xlink:href="#BitstreamVeraSans-Roman-69"/>
       <use x="126.62890625" xlink:href="#BitstreamVeraSans-Roman-6e"/>
       <use x="190.0078125" xlink:href="#BitstreamVeraSans-Roman-2d"/>
       <use x="226.091796875" xlink:href="#BitstreamVeraSans-Roman-53"/>
       <use x="289.568359375" xlink:href="#BitstreamVeraSans-Roman-74"/>
       <use x="328.77734375" xlink:href="#BitstreamVeraSans-Roman-61"/>
       <use x="390.056640625" xlink:href="#BitstreamVeraSans-Roman-79"/>
       <use x="449.236328125" xlink:href="#BitstreamVeraSans-Roman-20"/>
       <use x="481.0234375" xlink:href="#BitstreamVeraSans-Roman-4c"/>
       <use x="536.720703125" xlink:href="#BitstreamVeraSans-Roman-6f"/>
       <use x="597.90234375" xlink:href="#BitstreamVeraSans-Roman-73"/>
       <use x="650.001953125" xlink:href="#BitstreamVeraSans-Roman-65"/>
       <use x="711.525390625" xlink:href="#BitstreamVeraSans-Roman-2d"/>
       <use x="747.609375" xlink:href="#BitstreamVeraSans-Roman-53"/>
       <use x="811.0859375" xlink:href="#BitstreamVeraSans-Roman-68"/>
       <use x="874.46484375" xlink:href="#BitstreamVeraSans-Roman-69"/>
       <use x="902.248046875" xlink:href="#BitstreamVeraSans-Roman-66"/>
       <use x="937.4375" xlink:href="#BitstreamVeraSans-Roman-74"/>
      </g>
     </g>
    </g>
    <g id="xtick_8">
     <g id="line2d_15">
      <g>
       <use style="stroke:#000000;stroke-width:0.5;" x="628.37375" xlink:href="#m41df6a7f24" y="368.74175"/>
      </g>
     </g>
     <g id="line2d_16">
      <g>
       <use style="stroke:#000000;stroke-width:0.5;" x="628.37375" xlink:href="#m82b9501c5f" y="23.14175"/>
      </g>
     </g>
     <g id="text_8">
      <!-- Cooperator -->
      <defs>
       <path d="M 64.40625 67.28125 
L 64.40625 56.890625 
Q 59.421875 61.53125 53.78125 63.8125 
Q 48.140625 66.109375 41.796875 66.109375 
Q 29.296875 66.109375 22.65625 58.46875 
Q 16.015625 50.828125 16.015625 36.375 
Q 16.015625 21.96875 22.65625 14.328125 
Q 29.296875 6.6875 41.796875 6.6875 
Q 48.140625 6.6875 53.78125 8.984375 
Q 59.421875 11.28125 64.40625 15.921875 
L 64.40625 5.609375 
Q 59.234375 2.09375 53.4375 0.328125 
Q 47.65625 -1.421875 41.21875 -1.421875 
Q 24.65625 -1.421875 15.125 8.703125 
Q 5.609375 18.84375 5.609375 36.375 
Q 5.609375 53.953125 15.125 64.078125 
Q 24.65625 74.21875 41.21875 74.21875 
Q 47.75 74.21875 53.53125 72.484375 
Q 59.328125 70.75 64.40625 67.28125 
" id="BitstreamVeraSans-Roman-43"/>
      </defs>
      <g transform="translate(630.58125 417.6305)rotate(-90.0)scale(0.08 -0.08)">
       <use xlink:href="#BitstreamVeraSans-Roman-43"/>
       <use x="69.82421875" xlink:href="#BitstreamVeraSans-Roman-6f"/>
       <use x="131.005859375" xlink:href="#BitstreamVeraSans-Roman-6f"/>
       <use x="192.1875" xlink:href="#BitstreamVeraSans-Roman-70"/>
       <use x="255.6640625" xlink:href="#BitstreamVeraSans-Roman-65"/>
       <use x="317.1875" xlink:href="#BitstreamVeraSans-Roman-72"/>
       <use x="358.30078125" xlink:href="#BitstreamVeraSans-Roman-61"/>
       <use x="419.580078125" xlink:href="#BitstreamVeraSans-Roman-74"/>
       <use x="458.7890625" xlink:href="#BitstreamVeraSans-Roman-6f"/>
       <use x="519.970703125" xlink:href="#BitstreamVeraSans-Roman-72"/>
      </g>
     </g>
    </g>
   </g>
   <g id="matplotlib.axis_2">
    <g id="ytick_1">
     <g id="line2d_17">
      <defs>
       <path d="M 0 0 
L 4 0 
" id="m2a4eac8b39" style="stroke:#000000;stroke-width:0.5;"/>
      </defs>
      <g>
       <use style="stroke:#000000;stroke-width:0.5;" x="33.17375" xlink:href="#m2a4eac8b39" y="368.74175"/>
      </g>
     </g>
     <g id="line2d_18">
      <defs>
       <path d="M 0 0 
L -4 0 
" id="md576f9d524" style="stroke:#000000;stroke-width:0.5;"/>
      </defs>
      <g>
       <use style="stroke:#000000;stroke-width:0.5;" x="702.77375" xlink:href="#md576f9d524" y="368.74175"/>
      </g>
     </g>
     <g id="text_9">
      <!-- 300 -->
      <defs>
       <path d="M 40.578125 39.3125 
Q 47.65625 37.796875 51.625 33 
Q 55.609375 28.21875 55.609375 21.1875 
Q 55.609375 10.40625 48.1875 4.484375 
Q 40.765625 -1.421875 27.09375 -1.421875 
Q 22.515625 -1.421875 17.65625 -0.515625 
Q 12.796875 0.390625 7.625 2.203125 
L 7.625 11.71875 
Q 11.71875 9.328125 16.59375 8.109375 
Q 21.484375 6.890625 26.8125 6.890625 
Q 36.078125 6.890625 40.9375 10.546875 
Q 45.796875 14.203125 45.796875 21.1875 
Q 45.796875 27.640625 41.28125 31.265625 
Q 36.765625 34.90625 28.71875 34.90625 
L 20.21875 34.90625 
L 20.21875 43.015625 
L 29.109375 43.015625 
Q 36.375 43.015625 40.234375 45.921875 
Q 44.09375 48.828125 44.09375 54.296875 
Q 44.09375 59.90625 40.109375 62.90625 
Q 36.140625 65.921875 28.71875 65.921875 
Q 24.65625 65.921875 20.015625 65.03125 
Q 15.375 64.15625 9.8125 62.3125 
L 9.8125 71.09375 
Q 15.4375 72.65625 20.34375 73.4375 
Q 25.25 74.21875 29.59375 74.21875 
Q 40.828125 74.21875 47.359375 69.109375 
Q 53.90625 64.015625 53.90625 55.328125 
Q 53.90625 49.265625 50.4375 45.09375 
Q 46.96875 40.921875 40.578125 39.3125 
" id="BitstreamVeraSans-Roman-33"/>
       <path d="M 31.78125 66.40625 
Q 24.171875 66.40625 20.328125 58.90625 
Q 16.5 51.421875 16.5 36.375 
Q 16.5 21.390625 20.328125 13.890625 
Q 24.171875 6.390625 31.78125 6.390625 
Q 39.453125 6.390625 43.28125 13.890625 
Q 47.125 21.390625 47.125 36.375 
Q 47.125 51.421875 43.28125 58.90625 
Q 39.453125 66.40625 31.78125 66.40625 
M 31.78125 74.21875 
Q 44.046875 74.21875 50.515625 64.515625 
Q 56.984375 54.828125 56.984375 36.375 
Q 56.984375 17.96875 50.515625 8.265625 
Q 44.046875 -1.421875 31.78125 -1.421875 
Q 19.53125 -1.421875 13.0625 8.265625 
Q 6.59375 17.96875 6.59375 36.375 
Q 6.59375 54.828125 13.0625 64.515625 
Q 19.53125 74.21875 31.78125 74.21875 
" id="BitstreamVeraSans-Roman-30"/>
       <path d="M 10.59375 35.5 
L 73.1875 35.5 
L 73.1875 27.203125 
L 10.59375 27.203125 
z
" id="BitstreamVeraSans-Roman-2212"/>
      </defs>
      <g transform="translate(7.2 370.94925)scale(0.08 -0.08)">
       <use xlink:href="#BitstreamVeraSans-Roman-2212"/>
       <use x="83.7890625" xlink:href="#BitstreamVeraSans-Roman-33"/>
       <use x="147.412109375" xlink:href="#BitstreamVeraSans-Roman-30"/>
       <use x="211.03515625" xlink:href="#BitstreamVeraSans-Roman-30"/>
      </g>
     </g>
    </g>
    <g id="ytick_2">
     <g id="line2d_19">
      <g>
       <use style="stroke:#000000;stroke-width:0.5;" x="33.17375" xlink:href="#m2a4eac8b39" y="311.14175"/>
      </g>
     </g>
     <g id="line2d_20">
      <g>
       <use style="stroke:#000000;stroke-width:0.5;" x="702.77375" xlink:href="#md576f9d524" y="311.14175"/>
      </g>
     </g>
     <g id="text_10">
      <!-- 200 -->
      <defs>
       <path d="M 19.1875 8.296875 
L 53.609375 8.296875 
L 53.609375 0 
L 7.328125 0 
L 7.328125 8.296875 
Q 12.9375 14.109375 22.625 23.890625 
Q 32.328125 33.6875 34.8125 36.53125 
Q 39.546875 41.84375 41.421875 45.53125 
Q 43.3125 49.21875 43.3125 52.78125 
Q 43.3125 58.59375 39.234375 62.25 
Q 35.15625 65.921875 28.609375 65.921875 
Q 23.96875 65.921875 18.8125 64.3125 
Q 13.671875 62.703125 7.8125 59.421875 
L 7.8125 69.390625 
Q 13.765625 71.78125 18.9375 73 
Q 24.125 74.21875 28.421875 74.21875 
Q 39.75 74.21875 46.484375 68.546875 
Q 53.21875 62.890625 53.21875 53.421875 
Q 53.21875 48.921875 51.53125 44.890625 
Q 49.859375 40.875 45.40625 35.40625 
Q 44.1875 33.984375 37.640625 27.21875 
Q 31.109375 20.453125 19.1875 8.296875 
" id="BitstreamVeraSans-Roman-32"/>
      </defs>
      <g transform="translate(7.2 313.34925)scale(0.08 -0.08)">
       <use xlink:href="#BitstreamVeraSans-Roman-2212"/>
       <use x="83.7890625" xlink:href="#BitstreamVeraSans-Roman-32"/>
       <use x="147.412109375" xlink:href="#BitstreamVeraSans-Roman-30"/>
       <use x="211.03515625" xlink:href="#BitstreamVeraSans-Roman-30"/>
      </g>
     </g>
    </g>
    <g id="ytick_3">
     <g id="line2d_21">
      <g>
       <use style="stroke:#000000;stroke-width:0.5;" x="33.17375" xlink:href="#m2a4eac8b39" y="253.54175"/>
      </g>
     </g>
     <g id="line2d_22">
      <g>
       <use style="stroke:#000000;stroke-width:0.5;" x="702.77375" xlink:href="#md576f9d524" y="253.54175"/>
      </g>
     </g>
     <g id="text_11">
      <!-- 100 -->
      <defs>
       <path d="M 12.40625 8.296875 
L 28.515625 8.296875 
L 28.515625 63.921875 
L 10.984375 60.40625 
L 10.984375 69.390625 
L 28.421875 72.90625 
L 38.28125 72.90625 
L 38.28125 8.296875 
L 54.390625 8.296875 
L 54.390625 0 
L 12.40625 0 
z
" id="BitstreamVeraSans-Roman-31"/>
      </defs>
      <g transform="translate(7.2 255.74925)scale(0.08 -0.08)">
       <use xlink:href="#BitstreamVeraSans-Roman-2212"/>
       <use x="83.7890625" xlink:href="#BitstreamVeraSans-Roman-31"/>
       <use x="147.412109375" xlink:href="#BitstreamVeraSans-Roman-30"/>
       <use x="211.03515625" xlink:href="#BitstreamVeraSans-Roman-30"/>
      </g>
     </g>
    </g>
    <g id="ytick_4">
     <g id="line2d_23">
      <g>
       <use style="stroke:#000000;stroke-width:0.5;" x="33.17375" xlink:href="#m2a4eac8b39" y="195.94175"/>
      </g>
     </g>
     <g id="line2d_24">
      <g>
       <use style="stroke:#000000;stroke-width:0.5;" x="702.77375" xlink:href="#md576f9d524" y="195.94175"/>
      </g>
     </g>
     <g id="text_12">
      <!-- 0 -->
      <g transform="translate(24.08375 198.14925)scale(0.08 -0.08)">
       <use xlink:href="#BitstreamVeraSans-Roman-30"/>
      </g>
     </g>
    </g>
    <g id="ytick_5">
     <g id="line2d_25">
      <g>
       <use style="stroke:#000000;stroke-width:0.5;" x="33.17375" xlink:href="#m2a4eac8b39" y="138.34175"/>
      </g>
     </g>
     <g id="line2d_26">
      <g>
       <use style="stroke:#000000;stroke-width:0.5;" x="702.77375" xlink:href="#md576f9d524" y="138.34175"/>
      </g>
     </g>
     <g id="text_13">
      <!-- 100 -->
      <g transform="translate(13.90375 140.54925)scale(0.08 -0.08)">
       <use xlink:href="#BitstreamVeraSans-Roman-31"/>
       <use x="63.623046875" xlink:href="#BitstreamVeraSans-Roman-30"/>
       <use x="127.24609375" xlink:href="#BitstreamVeraSans-Roman-30"/>
      </g>
     </g>
    </g>
    <g id="ytick_6">
     <g id="line2d_27">
      <g>
       <use style="stroke:#000000;stroke-width:0.5;" x="33.17375" xlink:href="#m2a4eac8b39" y="80.74175"/>
      </g>
     </g>
     <g id="line2d_28">
      <g>
       <use style="stroke:#000000;stroke-width:0.5;" x="702.77375" xlink:href="#md576f9d524" y="80.74175"/>
      </g>
     </g>
     <g id="text_14">
      <!-- 200 -->
      <g transform="translate(13.90375 82.94925)scale(0.08 -0.08)">
       <use xlink:href="#BitstreamVeraSans-Roman-32"/>
       <use x="63.623046875" xlink:href="#BitstreamVeraSans-Roman-30"/>
       <use x="127.24609375" xlink:href="#BitstreamVeraSans-Roman-30"/>
      </g>
     </g>
    </g>
    <g id="ytick_7">
     <g id="line2d_29">
      <g>
       <use style="stroke:#000000;stroke-width:0.5;" x="33.17375" xlink:href="#m2a4eac8b39" y="23.14175"/>
      </g>
     </g>
     <g id="line2d_30">
      <g>
       <use style="stroke:#000000;stroke-width:0.5;" x="702.77375" xlink:href="#md576f9d524" y="23.14175"/>
      </g>
     </g>
     <g id="text_15">
      <!-- 300 -->
      <g transform="translate(13.90375 25.34925)scale(0.08 -0.08)">
       <use xlink:href="#BitstreamVeraSans-Roman-33"/>
       <use x="63.623046875" xlink:href="#BitstreamVeraSans-Roman-30"/>
       <use x="127.24609375" xlink:href="#BitstreamVeraSans-Roman-30"/>
      </g>
     </g>
    </g>
   </g>
   <g id="text_16">
    <!-- Std Payoffs. Prob end: 0.1, Repetitions: 100, Strategies: 8. -->
    <defs>
     <path d="M 48.6875 27.296875 
Q 48.6875 37.203125 44.609375 42.84375 
Q 40.53125 48.484375 33.40625 48.484375 
Q 26.265625 48.484375 22.1875 42.84375 
Q 18.109375 37.203125 18.109375 27.296875 
Q 18.109375 17.390625 22.1875 11.75 
Q 26.265625 6.109375 33.40625 6.109375 
Q 40.53125 6.109375 44.609375 11.75 
Q 48.6875 17.390625 48.6875 27.296875 
M 18.109375 46.390625 
Q 20.953125 51.265625 25.265625 53.625 
Q 29.59375 56 35.59375 56 
Q 45.5625 56 51.78125 48.09375 
Q 58.015625 40.1875 58.015625 27.296875 
Q 58.015625 14.40625 51.78125 6.484375 
Q 45.5625 -1.421875 35.59375 -1.421875 
Q 29.59375 -1.421875 25.265625 0.953125 
Q 20.953125 3.328125 18.109375 8.203125 
L 18.109375 0 
L 9.078125 0 
L 9.078125 75.984375 
L 18.109375 75.984375 
z
" id="BitstreamVeraSans-Roman-62"/>
     <path d="M 44.390625 34.1875 
Q 47.5625 33.109375 50.5625 29.59375 
Q 53.5625 26.078125 56.59375 19.921875 
L 66.609375 0 
L 56 0 
L 46.6875 18.703125 
Q 43.0625 26.03125 39.671875 28.421875 
Q 36.28125 30.8125 30.421875 30.8125 
L 19.671875 30.8125 
L 19.671875 0 
L 9.8125 0 
L 9.8125 72.90625 
L 32.078125 72.90625 
Q 44.578125 72.90625 50.734375 67.671875 
Q 56.890625 62.453125 56.890625 51.90625 
Q 56.890625 45.015625 53.6875 40.46875 
Q 50.484375 35.9375 44.390625 34.1875 
M 19.671875 64.796875 
L 19.671875 38.921875 
L 32.078125 38.921875 
Q 39.203125 38.921875 42.84375 42.21875 
Q 46.484375 45.515625 46.484375 51.90625 
Q 46.484375 58.296875 42.84375 61.546875 
Q 39.203125 64.796875 32.078125 64.796875 
z
" id="BitstreamVeraSans-Roman-52"/>
     <path d="M 11.71875 12.40625 
L 22.015625 12.40625 
L 22.015625 0 
L 11.71875 0 
z
M 11.71875 51.703125 
L 22.015625 51.703125 
L 22.015625 39.3125 
L 11.71875 39.3125 
z
" id="BitstreamVeraSans-Roman-3a"/>
     <path d="M 45.40625 27.984375 
Q 45.40625 37.75 41.375 43.109375 
Q 37.359375 48.484375 30.078125 48.484375 
Q 22.859375 48.484375 18.828125 43.109375 
Q 14.796875 37.75 14.796875 27.984375 
Q 14.796875 18.265625 18.828125 12.890625 
Q 22.859375 7.515625 30.078125 7.515625 
Q 37.359375 7.515625 41.375 12.890625 
Q 45.40625 18.265625 45.40625 27.984375 
M 54.390625 6.78125 
Q 54.390625 -7.171875 48.1875 -13.984375 
Q 42 -20.796875 29.203125 -20.796875 
Q 24.46875 -20.796875 20.265625 -20.09375 
Q 16.0625 -19.390625 12.109375 -17.921875 
L 12.109375 -9.1875 
Q 16.0625 -11.328125 19.921875 -12.34375 
Q 23.78125 -13.375 27.78125 -13.375 
Q 36.625 -13.375 41.015625 -8.765625 
Q 45.40625 -4.15625 45.40625 5.171875 
L 45.40625 9.625 
Q 42.625 4.78125 38.28125 2.390625 
Q 33.9375 0 27.875 0 
Q 17.828125 0 11.671875 7.65625 
Q 5.515625 15.328125 5.515625 27.984375 
Q 5.515625 40.671875 11.671875 48.328125 
Q 17.828125 56 27.875 56 
Q 33.9375 56 38.28125 53.609375 
Q 42.625 51.21875 45.40625 46.390625 
L 45.40625 54.6875 
L 54.390625 54.6875 
z
" id="BitstreamVeraSans-Roman-67"/>
     <path d="M 11.71875 12.40625 
L 22.015625 12.40625 
L 22.015625 4 
L 14.015625 -11.625 
L 7.71875 -11.625 
L 11.71875 4 
z
" id="BitstreamVeraSans-Roman-2c"/>
     <path d="M 19.671875 64.796875 
L 19.671875 37.40625 
L 32.078125 37.40625 
Q 38.96875 37.40625 42.71875 40.96875 
Q 46.484375 44.53125 46.484375 51.125 
Q 46.484375 57.671875 42.71875 61.234375 
Q 38.96875 64.796875 32.078125 64.796875 
z
M 9.8125 72.90625 
L 32.078125 72.90625 
Q 44.34375 72.90625 50.609375 67.359375 
Q 56.890625 61.8125 56.890625 51.125 
Q 56.890625 40.328125 50.609375 34.8125 
Q 44.34375 29.296875 32.078125 29.296875 
L 19.671875 29.296875 
L 19.671875 0 
L 9.8125 0 
z
" id="BitstreamVeraSans-Roman-50"/>
     <path d="M 31.78125 34.625 
Q 24.75 34.625 20.71875 30.859375 
Q 16.703125 27.09375 16.703125 20.515625 
Q 16.703125 13.921875 20.71875 10.15625 
Q 24.75 6.390625 31.78125 6.390625 
Q 38.8125 6.390625 42.859375 10.171875 
Q 46.921875 13.96875 46.921875 20.515625 
Q 46.921875 27.09375 42.890625 30.859375 
Q 38.875 34.625 31.78125 34.625 
M 21.921875 38.8125 
Q 15.578125 40.375 12.03125 44.71875 
Q 8.5 49.078125 8.5 55.328125 
Q 8.5 64.0625 14.71875 69.140625 
Q 20.953125 74.21875 31.78125 74.21875 
Q 42.671875 74.21875 48.875 69.140625 
Q 55.078125 64.0625 55.078125 55.328125 
Q 55.078125 49.078125 51.53125 44.71875 
Q 48 40.375 41.703125 38.8125 
Q 48.828125 37.15625 52.796875 32.3125 
Q 56.78125 27.484375 56.78125 20.515625 
Q 56.78125 9.90625 50.3125 4.234375 
Q 43.84375 -1.421875 31.78125 -1.421875 
Q 19.734375 -1.421875 13.25 4.234375 
Q 6.78125 9.90625 6.78125 20.515625 
Q 6.78125 27.484375 10.78125 32.3125 
Q 14.796875 37.15625 21.921875 38.8125 
M 18.3125 54.390625 
Q 18.3125 48.734375 21.84375 45.5625 
Q 25.390625 42.390625 31.78125 42.390625 
Q 38.140625 42.390625 41.71875 45.5625 
Q 45.3125 48.734375 45.3125 54.390625 
Q 45.3125 60.0625 41.71875 63.234375 
Q 38.140625 66.40625 31.78125 66.40625 
Q 25.390625 66.40625 21.84375 63.234375 
Q 18.3125 60.0625 18.3125 54.390625 
" id="BitstreamVeraSans-Roman-38"/>
     <path d="M 10.6875 12.40625 
L 21 12.40625 
L 21 0 
L 10.6875 0 
z
" id="BitstreamVeraSans-Roman-2e"/>
     <path d="M 45.40625 46.390625 
L 45.40625 75.984375 
L 54.390625 75.984375 
L 54.390625 0 
L 45.40625 0 
L 45.40625 8.203125 
Q 42.578125 3.328125 38.25 0.953125 
Q 33.9375 -1.421875 27.875 -1.421875 
Q 17.96875 -1.421875 11.734375 6.484375 
Q 5.515625 14.40625 5.515625 27.296875 
Q 5.515625 40.1875 11.734375 48.09375 
Q 17.96875 56 27.875 56 
Q 33.9375 56 38.25 53.625 
Q 42.578125 51.265625 45.40625 46.390625 
M 14.796875 27.296875 
Q 14.796875 17.390625 18.875 11.75 
Q 22.953125 6.109375 30.078125 6.109375 
Q 37.203125 6.109375 41.296875 11.75 
Q 45.40625 17.390625 45.40625 27.296875 
Q 45.40625 37.203125 41.296875 42.84375 
Q 37.203125 48.484375 30.078125 48.484375 
Q 22.953125 48.484375 18.875 42.84375 
Q 14.796875 37.203125 14.796875 27.296875 
" id="BitstreamVeraSans-Roman-64"/>
    </defs>
    <g transform="translate(157.85975 18.14175)scale(0.144 -0.144)">
     <use xlink:href="#BitstreamVeraSans-Roman-53"/>
     <use x="63.4765625" xlink:href="#BitstreamVeraSans-Roman-74"/>
     <use x="102.685546875" xlink:href="#BitstreamVeraSans-Roman-64"/>
     <use x="166.162109375" xlink:href="#BitstreamVeraSans-Roman-20"/>
     <use x="197.94921875" xlink:href="#BitstreamVeraSans-Roman-50"/>
     <use x="258.189453125" xlink:href="#BitstreamVeraSans-Roman-61"/>
     <use x="319.46875" xlink:href="#BitstreamVeraSans-Roman-79"/>
     <use x="378.6484375" xlink:href="#BitstreamVeraSans-Roman-6f"/>
     <use x="439.830078125" xlink:href="#BitstreamVeraSans-Roman-66"/>
     <use x="475.03515625" xlink:href="#BitstreamVeraSans-Roman-66"/>
     <use x="510.240234375" xlink:href="#BitstreamVeraSans-Roman-73"/>
     <use x="562.33984375" xlink:href="#BitstreamVeraSans-Roman-2e"/>
     <use x="594.126953125" xlink:href="#BitstreamVeraSans-Roman-20"/>
     <use x="625.9140625" xlink:href="#BitstreamVeraSans-Roman-50"/>
     <use x="686.201171875" xlink:href="#BitstreamVeraSans-Roman-72"/>
     <use x="727.283203125" xlink:href="#BitstreamVeraSans-Roman-6f"/>
     <use x="788.46484375" xlink:href="#BitstreamVeraSans-Roman-62"/>
     <use x="851.94140625" xlink:href="#BitstreamVeraSans-Roman-20"/>
     <use x="883.728515625" xlink:href="#BitstreamVeraSans-Roman-65"/>
     <use x="945.251953125" xlink:href="#BitstreamVeraSans-Roman-6e"/>
     <use x="1008.630859375" xlink:href="#BitstreamVeraSans-Roman-64"/>
     <use x="1072.107421875" xlink:href="#BitstreamVeraSans-Roman-3a"/>
     <use x="1105.798828125" xlink:href="#BitstreamVeraSans-Roman-20"/>
     <use x="1137.5859375" xlink:href="#BitstreamVeraSans-Roman-30"/>
     <use x="1201.208984375" xlink:href="#BitstreamVeraSans-Roman-2e"/>
     <use x="1232.99609375" xlink:href="#BitstreamVeraSans-Roman-31"/>
     <use x="1296.619140625" xlink:href="#BitstreamVeraSans-Roman-2c"/>
     <use x="1328.40625" xlink:href="#BitstreamVeraSans-Roman-20"/>
     <use x="1360.193359375" xlink:href="#BitstreamVeraSans-Roman-52"/>
     <use x="1429.61328125" xlink:href="#BitstreamVeraSans-Roman-65"/>
     <use x="1491.13671875" xlink:href="#BitstreamVeraSans-Roman-70"/>
     <use x="1554.61328125" xlink:href="#BitstreamVeraSans-Roman-65"/>
     <use x="1616.13671875" xlink:href="#BitstreamVeraSans-Roman-74"/>
     <use x="1655.345703125" xlink:href="#BitstreamVeraSans-Roman-69"/>
     <use x="1683.12890625" xlink:href="#BitstreamVeraSans-Roman-74"/>
     <use x="1722.337890625" xlink:href="#BitstreamVeraSans-Roman-69"/>
     <use x="1750.12109375" xlink:href="#BitstreamVeraSans-Roman-6f"/>
     <use x="1811.302734375" xlink:href="#BitstreamVeraSans-Roman-6e"/>
     <use x="1874.681640625" xlink:href="#BitstreamVeraSans-Roman-73"/>
     <use x="1926.78125" xlink:href="#BitstreamVeraSans-Roman-3a"/>
     <use x="1960.47265625" xlink:href="#BitstreamVeraSans-Roman-20"/>
     <use x="1992.259765625" xlink:href="#BitstreamVeraSans-Roman-31"/>
     <use x="2055.8828125" xlink:href="#BitstreamVeraSans-Roman-30"/>
     <use x="2119.505859375" xlink:href="#BitstreamVeraSans-Roman-30"/>
     <use x="2183.12890625" xlink:href="#BitstreamVeraSans-Roman-2c"/>
     <use x="2214.916015625" xlink:href="#BitstreamVeraSans-Roman-20"/>
     <use x="2246.703125" xlink:href="#BitstreamVeraSans-Roman-53"/>
     <use x="2310.1796875" xlink:href="#BitstreamVeraSans-Roman-74"/>
     <use x="2349.388671875" xlink:href="#BitstreamVeraSans-Roman-72"/>
     <use x="2390.501953125" xlink:href="#BitstreamVeraSans-Roman-61"/>
     <use x="2451.78125" xlink:href="#BitstreamVeraSans-Roman-74"/>
     <use x="2490.990234375" xlink:href="#BitstreamVeraSans-Roman-65"/>
     <use x="2552.513671875" xlink:href="#BitstreamVeraSans-Roman-67"/>
     <use x="2615.990234375" xlink:href="#BitstreamVeraSans-Roman-69"/>
     <use x="2643.7734375" xlink:href="#BitstreamVeraSans-Roman-65"/>
     <use x="2705.296875" xlink:href="#BitstreamVeraSans-Roman-73"/>
     <use x="2757.396484375" xlink:href="#BitstreamVeraSans-Roman-3a"/>
     <use x="2791.087890625" xlink:href="#BitstreamVeraSans-Roman-20"/>
     <use x="2822.875" xlink:href="#BitstreamVeraSans-Roman-38"/>
     <use x="2886.498046875" xlink:href="#BitstreamVeraSans-Roman-2e"/>
    </g>
   </g>
  </g>
 </g>
 <defs>
  <clipPath id="p44e0d5fb59">
   <rect height="345.6" width="669.6" x="33.17375" y="23.14175"/>
  </clipPath>
 </defs>
</svg>
