<?xml version="1.0" encoding="utf-8" standalone="no"?>
<!DOCTYPE svg PUBLIC "-//W3C//DTD SVG 1.1//EN"
  "http://www.w3.org/Graphics/SVG/1.1/DTD/svg11.dtd">
<!-- Created with matplotlib (http://matplotlib.org/) -->
<svg height="465pt" version="1.1" viewBox="0 0 699 465" width="699pt" xmlns="http://www.w3.org/2000/svg" xmlns:xlink="http://www.w3.org/1999/xlink">
 <defs>
  <style type="text/css">
*{stroke-linecap:butt;stroke-linejoin:round;stroke-miterlimit:100000;}
  </style>
 </defs>
 <g id="figure_1">
  <g id="patch_1">
   <path d="M 0 465.868 
L 699.79375 465.868 
L 699.79375 0 
L 0 0 
z
" style="fill:#ffffff;"/>
  </g>
  <g id="axes_1">
   <g id="patch_2">
    <path d="M 22.99375 368.74175 
L 692.59375 368.74175 
L 692.59375 23.14175 
L 22.99375 23.14175 
z
" style="fill:#ffffff;"/>
   </g>
   <g id="PolyCollection_1">
    <defs>
     <path d="M 112.071707 -269.92625 
L 82.715793 -269.92625 
L 82.539741 -271.380795 
L 82.379661 -272.835341 
L 82.235604 -274.289886 
L 82.107526 -275.744432 
L 81.995282 -277.198977 
L 81.898633 -278.653523 
L 81.817243 -280.108068 
L 81.750691 -281.562614 
L 81.698466 -283.017159 
L 81.65998 -284.471705 
L 81.634568 -285.92625 
L 81.6215 -287.380795 
L 81.619983 -288.835341 
L 81.629172 -290.289886 
L 81.648177 -291.744432 
L 81.676072 -293.198977 
L 81.7119 -294.653523 
L 81.754687 -296.108068 
L 81.803447 -297.562614 
L 81.857189 -299.017159 
L 81.91493 -300.471705 
L 81.9757 -301.92625 
L 82.038547 -303.380795 
L 82.102549 -304.835341 
L 82.166817 -306.289886 
L 82.230503 -307.744432 
L 82.292802 -309.198977 
L 82.352961 -310.653523 
L 82.410277 -312.108068 
L 82.464107 -313.562614 
L 82.513864 -315.017159 
L 82.55902 -316.471705 
L 82.599109 -317.92625 
L 82.633725 -319.380795 
L 82.662521 -320.835341 
L 82.68521 -322.289886 
L 82.701558 -323.744432 
L 82.711388 -325.198977 
L 82.714572 -326.653523 
L 82.71103 -328.108068 
L 82.700726 -329.562614 
L 82.683663 -331.017159 
L 82.659881 -332.471705 
L 82.629453 -333.92625 
L 82.592478 -335.380795 
L 82.549081 -336.835341 
L 82.499408 -338.289886 
L 82.443622 -339.744432 
L 82.3819 -341.198977 
L 82.314432 -342.653523 
L 82.241417 -344.108068 
L 82.163063 -345.562614 
L 82.079584 -347.017159 
L 81.991203 -348.471705 
L 81.898147 -349.92625 
L 81.800651 -351.380795 
L 81.698959 -352.835341 
L 81.593321 -354.289886 
L 81.484001 -355.744432 
L 81.371276 -357.198977 
L 81.255439 -358.653523 
L 81.1368 -360.108068 
L 81.015691 -361.562614 
L 80.89247 -363.017159 
L 80.767521 -364.471705 
L 80.641258 -365.92625 
L 80.514127 -367.380795 
L 80.386612 -368.835341 
L 80.259231 -370.289886 
L 80.132542 -371.744432 
L 80.007143 -373.198977 
L 79.883671 -374.653523 
L 79.762803 -376.108068 
L 79.645255 -377.562614 
L 79.53178 -379.017159 
L 79.423165 -380.471705 
L 79.320229 -381.92625 
L 79.223818 -383.380795 
L 79.134803 -384.835341 
L 79.054068 -386.289886 
L 78.982511 -387.744432 
L 78.921037 -389.198977 
L 78.870543 -390.653523 
L 78.83192 -392.108068 
L 78.806041 -393.562614 
L 78.79375 -395.017159 
L 78.795859 -396.471705 
L 78.813136 -397.92625 
L 78.846299 -399.380795 
L 78.896005 -400.835341 
L 78.962845 -402.289886 
L 79.047338 -403.744432 
L 79.149918 -405.198977 
L 79.270937 -406.653523 
L 79.41065 -408.108068 
L 79.569218 -409.562614 
L 79.746702 -411.017159 
L 79.943059 -412.471705 
L 80.158142 -413.92625 
L 114.629358 -413.92625 
L 114.629358 -413.92625 
L 114.844441 -412.471705 
L 115.040798 -411.017159 
L 115.218282 -409.562614 
L 115.37685 -408.108068 
L 115.516563 -406.653523 
L 115.637582 -405.198977 
L 115.740162 -403.744432 
L 115.824655 -402.289886 
L 115.891495 -400.835341 
L 115.941201 -399.380795 
L 115.974364 -397.92625 
L 115.991641 -396.471705 
L 115.99375 -395.017159 
L 115.981459 -393.562614 
L 115.95558 -392.108068 
L 115.916957 -390.653523 
L 115.866463 -389.198977 
L 115.804989 -387.744432 
L 115.733432 -386.289886 
L 115.652697 -384.835341 
L 115.563682 -383.380795 
L 115.467271 -381.92625 
L 115.364335 -380.471705 
L 115.25572 -379.017159 
L 115.142245 -377.562614 
L 115.024697 -376.108068 
L 114.903829 -374.653523 
L 114.780357 -373.198977 
L 114.654958 -371.744432 
L 114.528269 -370.289886 
L 114.400888 -368.835341 
L 114.273373 -367.380795 
L 114.146242 -365.92625 
L 114.019979 -364.471705 
L 113.89503 -363.017159 
L 113.771809 -361.562614 
L 113.6507 -360.108068 
L 113.532061 -358.653523 
L 113.416224 -357.198977 
L 113.303499 -355.744432 
L 113.194179 -354.289886 
L 113.088541 -352.835341 
L 112.986849 -351.380795 
L 112.889353 -349.92625 
L 112.796297 -348.471705 
L 112.707916 -347.017159 
L 112.624437 -345.562614 
L 112.546083 -344.108068 
L 112.473068 -342.653523 
L 112.4056 -341.198977 
L 112.343878 -339.744432 
L 112.288092 -338.289886 
L 112.238419 -336.835341 
L 112.195022 -335.380795 
L 112.158047 -333.92625 
L 112.127619 -332.471705 
L 112.103837 -331.017159 
L 112.086774 -329.562614 
L 112.07647 -328.108068 
L 112.072928 -326.653523 
L 112.076112 -325.198977 
L 112.085942 -323.744432 
L 112.10229 -322.289886 
L 112.124979 -320.835341 
L 112.153775 -319.380795 
L 112.188391 -317.92625 
L 112.22848 -316.471705 
L 112.273636 -315.017159 
L 112.323393 -313.562614 
L 112.377223 -312.108068 
L 112.434539 -310.653523 
L 112.494698 -309.198977 
L 112.556997 -307.744432 
L 112.620683 -306.289886 
L 112.684951 -304.835341 
L 112.748953 -303.380795 
L 112.8118 -301.92625 
L 112.87257 -300.471705 
L 112.930311 -299.017159 
L 112.984053 -297.562614 
L 113.032813 -296.108068 
L 113.0756 -294.653523 
L 113.111428 -293.198977 
L 113.139323 -291.744432 
L 113.158328 -290.289886 
L 113.167517 -288.835341 
L 113.166 -287.380795 
L 113.152932 -285.92625 
L 113.12752 -284.471705 
L 113.089034 -283.017159 
L 113.036809 -281.562614 
L 112.970257 -280.108068 
L 112.888867 -278.653523 
L 112.792218 -277.198977 
L 112.679974 -275.744432 
L 112.551896 -274.289886 
L 112.407839 -272.835341 
L 112.247759 -271.380795 
L 112.071707 -269.92625 
z
" id="m82e2e0adae" style="stroke:#000000;stroke-opacity:0.3;"/>
    </defs>
    <g clip-path="url(#pbc99f8833b)">
     <use style="fill:#bfbf00;fill-opacity:0.3;stroke:#000000;stroke-opacity:0.3;" x="0.0" xlink:href="#m82e2e0adae" y="465.868"/>
    </g>
   </g>
   <g id="PolyCollection_2">
    <defs>
     <path d="M 178.363708 -134.92625 
L 165.223792 -134.92625 
L 165.069056 -137.744432 
L 164.915495 -140.562614 
L 164.762504 -143.380795 
L 164.609403 -146.198977 
L 164.455444 -149.017159 
L 164.29982 -151.835341 
L 164.141678 -154.653523 
L 163.980131 -157.471705 
L 163.814275 -160.289886 
L 163.643199 -163.108068 
L 163.466007 -165.92625 
L 163.28183 -168.744432 
L 163.089846 -171.562614 
L 162.889294 -174.380795 
L 162.67949 -177.198977 
L 162.459846 -180.017159 
L 162.229882 -182.835341 
L 161.98924 -185.653523 
L 161.737698 -188.471705 
L 161.475176 -191.289886 
L 161.201751 -194.108068 
L 160.917658 -196.92625 
L 160.623295 -199.744432 
L 160.319227 -202.562614 
L 160.006185 -205.380795 
L 159.685059 -208.198977 
L 159.356896 -211.017159 
L 159.022889 -213.835341 
L 158.684368 -216.653523 
L 158.342783 -219.471705 
L 157.999693 -222.289886 
L 157.656744 -225.108068 
L 157.315655 -227.92625 
L 156.978188 -230.744432 
L 156.646136 -233.562614 
L 156.321293 -236.380795 
L 156.005433 -239.198977 
L 155.700286 -242.017159 
L 155.407513 -244.835341 
L 155.128684 -247.653523 
L 154.865256 -250.471705 
L 154.618551 -253.289886 
L 154.389738 -256.108068 
L 154.179813 -258.92625 
L 153.989587 -261.744432 
L 153.81967 -264.562614 
L 153.670465 -267.380795 
L 153.542155 -270.198977 
L 153.434705 -273.017159 
L 153.347856 -275.835341 
L 153.28113 -278.653523 
L 153.233836 -281.471705 
L 153.205073 -284.289886 
L 153.19375 -287.108068 
L 153.198592 -289.92625 
L 153.218164 -292.744432 
L 153.250885 -295.562614 
L 153.295054 -298.380795 
L 153.348871 -301.198977 
L 153.410464 -304.017159 
L 153.477918 -306.835341 
L 153.549295 -309.653523 
L 153.622672 -312.471705 
L 153.696162 -315.289886 
L 153.767944 -318.108068 
L 153.836294 -320.92625 
L 153.899605 -323.744432 
L 153.956418 -326.562614 
L 154.00544 -329.380795 
L 154.045568 -332.198977 
L 154.075908 -335.017159 
L 154.095787 -337.835341 
L 154.104769 -340.653523 
L 154.102663 -343.471705 
L 154.089531 -346.289886 
L 154.065685 -349.108068 
L 154.031694 -351.92625 
L 153.98837 -354.744432 
L 153.936767 -357.562614 
L 153.878164 -360.380795 
L 153.814052 -363.198977 
L 153.746115 -366.017159 
L 153.676207 -368.835341 
L 153.606328 -371.653523 
L 153.538599 -374.471705 
L 153.475229 -377.289886 
L 153.41849 -380.108068 
L 153.370681 -382.92625 
L 153.334096 -385.744432 
L 153.310997 -388.562614 
L 153.303575 -391.380795 
L 153.313923 -394.198977 
L 153.344005 -397.017159 
L 153.395629 -399.835341 
L 153.470418 -402.653523 
L 153.569792 -405.471705 
L 153.694942 -408.289886 
L 153.846818 -411.108068 
L 154.026112 -413.92625 
L 189.561388 -413.92625 
L 189.561388 -413.92625 
L 189.740682 -411.108068 
L 189.892558 -408.289886 
L 190.017708 -405.471705 
L 190.117082 -402.653523 
L 190.191871 -399.835341 
L 190.243495 -397.017159 
L 190.273577 -394.198977 
L 190.283925 -391.380795 
L 190.276503 -388.562614 
L 190.253404 -385.744432 
L 190.216819 -382.92625 
L 190.16901 -380.108068 
L 190.112271 -377.289886 
L 190.048901 -374.471705 
L 189.981172 -371.653523 
L 189.911293 -368.835341 
L 189.841385 -366.017159 
L 189.773448 -363.198977 
L 189.709336 -360.380795 
L 189.650733 -357.562614 
L 189.59913 -354.744432 
L 189.555806 -351.92625 
L 189.521815 -349.108068 
L 189.497969 -346.289886 
L 189.484837 -343.471705 
L 189.482731 -340.653523 
L 189.491713 -337.835341 
L 189.511592 -335.017159 
L 189.541932 -332.198977 
L 189.58206 -329.380795 
L 189.631082 -326.562614 
L 189.687895 -323.744432 
L 189.751206 -320.92625 
L 189.819556 -318.108068 
L 189.891338 -315.289886 
L 189.964828 -312.471705 
L 190.038205 -309.653523 
L 190.109582 -306.835341 
L 190.177036 -304.017159 
L 190.238629 -301.198977 
L 190.292446 -298.380795 
L 190.336615 -295.562614 
L 190.369336 -292.744432 
L 190.388908 -289.92625 
L 190.39375 -287.108068 
L 190.382427 -284.289886 
L 190.353664 -281.471705 
L 190.30637 -278.653523 
L 190.239644 -275.835341 
L 190.152795 -273.017159 
L 190.045345 -270.198977 
L 189.917035 -267.380795 
L 189.76783 -264.562614 
L 189.597913 -261.744432 
L 189.407687 -258.92625 
L 189.197762 -256.108068 
L 188.968949 -253.289886 
L 188.722244 -250.471705 
L 188.458816 -247.653523 
L 188.179987 -244.835341 
L 187.887214 -242.017159 
L 187.582067 -239.198977 
L 187.266207 -236.380795 
L 186.941364 -233.562614 
L 186.609312 -230.744432 
L 186.271845 -227.92625 
L 185.930756 -225.108068 
L 185.587807 -222.289886 
L 185.244717 -219.471705 
L 184.903132 -216.653523 
L 184.564611 -213.835341 
L 184.230604 -211.017159 
L 183.902441 -208.198977 
L 183.581315 -205.380795 
L 183.268273 -202.562614 
L 182.964205 -199.744432 
L 182.669842 -196.92625 
L 182.385749 -194.108068 
L 182.112324 -191.289886 
L 181.849802 -188.471705 
L 181.59826 -185.653523 
L 181.357618 -182.835341 
L 181.127654 -180.017159 
L 180.90801 -177.198977 
L 180.698206 -174.380795 
L 180.497654 -171.562614 
L 180.30567 -168.744432 
L 180.121493 -165.92625 
L 179.944301 -163.108068 
L 179.773225 -160.289886 
L 179.607369 -157.471705 
L 179.445822 -154.653523 
L 179.28768 -151.835341 
L 179.132056 -149.017159 
L 178.978097 -146.198977 
L 178.824996 -143.380795 
L 178.672005 -140.562614 
L 178.518444 -137.744432 
L 178.363708 -134.92625 
z
" id="m760b57818d" style="stroke:#000000;stroke-opacity:0.3;"/>
    </defs>
    <g clip-path="url(#pbc99f8833b)">
     <use style="fill:#bfbf00;fill-opacity:0.3;stroke:#000000;stroke-opacity:0.3;" x="0.0" xlink:href="#m760b57818d" y="465.868"/>
    </g>
   </g>
   <g id="PolyCollection_3">
    <defs>
     <path d="M 264.463897 -269.92625 
L 227.923603 -269.92625 
L 227.804837 -271.380795 
L 227.712333 -272.835341 
L 227.646292 -274.289886 
L 227.606783 -275.744432 
L 227.59375 -277.198977 
L 227.607007 -278.653523 
L 227.646244 -280.108068 
L 227.71103 -281.562614 
L 227.800815 -283.017159 
L 227.914937 -284.471705 
L 228.052628 -285.92625 
L 228.213019 -287.380795 
L 228.39515 -288.835341 
L 228.597976 -290.289886 
L 228.820375 -291.744432 
L 229.061159 -293.198977 
L 229.319081 -294.653523 
L 229.592846 -296.108068 
L 229.881119 -297.562614 
L 230.182536 -299.017159 
L 230.495712 -300.471705 
L 230.81925 -301.92625 
L 231.151751 -303.380795 
L 231.49182 -304.835341 
L 231.838078 -306.289886 
L 232.189165 -307.744432 
L 232.54375 -309.198977 
L 232.900537 -310.653523 
L 233.258268 -312.108068 
L 233.615732 -313.562614 
L 233.971765 -315.017159 
L 234.325259 -316.471705 
L 234.675159 -317.92625 
L 235.020471 -319.380795 
L 235.360257 -320.835341 
L 235.693644 -322.289886 
L 236.019818 -323.744432 
L 236.338027 -325.198977 
L 236.647582 -326.653523 
L 236.94785 -328.108068 
L 237.238262 -329.562614 
L 237.518301 -331.017159 
L 237.78751 -332.471705 
L 238.045482 -333.92625 
L 238.291866 -335.380795 
L 238.526355 -336.835341 
L 238.748693 -338.289886 
L 238.958669 -339.744432 
L 239.156112 -341.198977 
L 239.340895 -342.653523 
L 239.512929 -344.108068 
L 239.672163 -345.562614 
L 239.818582 -347.017159 
L 239.952206 -348.471705 
L 240.073089 -349.92625 
L 240.181318 -351.380795 
L 240.277012 -352.835341 
L 240.360325 -354.289886 
L 240.431438 -355.744432 
L 240.490568 -357.198977 
L 240.537961 -358.653523 
L 240.573898 -360.108068 
L 240.59869 -361.562614 
L 240.612679 -363.017159 
L 240.616243 -364.471705 
L 240.609791 -365.92625 
L 240.593764 -367.380795 
L 240.568636 -368.835341 
L 240.534914 -370.289886 
L 240.493137 -371.744432 
L 240.443873 -373.198977 
L 240.387724 -374.653523 
L 240.325316 -376.108068 
L 240.257306 -377.562614 
L 240.184376 -379.017159 
L 240.107229 -380.471705 
L 240.026591 -381.92625 
L 239.943204 -383.380795 
L 239.857827 -384.835341 
L 239.771227 -386.289886 
L 239.684182 -387.744432 
L 239.597469 -389.198977 
L 239.511868 -390.653523 
L 239.428152 -392.108068 
L 239.347085 -393.562614 
L 239.269415 -395.017159 
L 239.195874 -396.471705 
L 239.127168 -397.92625 
L 239.063976 -399.380795 
L 239.006942 -400.835341 
L 238.956677 -402.289886 
L 238.913746 -403.744432 
L 238.878674 -405.198977 
L 238.851933 -406.653523 
L 238.833946 -408.108068 
L 238.825082 -409.562614 
L 238.825649 -411.017159 
L 238.835902 -412.471705 
L 238.856029 -413.92625 
L 253.531471 -413.92625 
L 253.531471 -413.92625 
L 253.551598 -412.471705 
L 253.561851 -411.017159 
L 253.562418 -409.562614 
L 253.553554 -408.108068 
L 253.535567 -406.653523 
L 253.508826 -405.198977 
L 253.473754 -403.744432 
L 253.430823 -402.289886 
L 253.380558 -400.835341 
L 253.323524 -399.380795 
L 253.260332 -397.92625 
L 253.191626 -396.471705 
L 253.118085 -395.017159 
L 253.040415 -393.562614 
L 252.959348 -392.108068 
L 252.875632 -390.653523 
L 252.790031 -389.198977 
L 252.703318 -387.744432 
L 252.616273 -386.289886 
L 252.529673 -384.835341 
L 252.444296 -383.380795 
L 252.360909 -381.92625 
L 252.280271 -380.471705 
L 252.203124 -379.017159 
L 252.130194 -377.562614 
L 252.062184 -376.108068 
L 251.999776 -374.653523 
L 251.943627 -373.198977 
L 251.894363 -371.744432 
L 251.852586 -370.289886 
L 251.818864 -368.835341 
L 251.793736 -367.380795 
L 251.777709 -365.92625 
L 251.771257 -364.471705 
L 251.774821 -363.017159 
L 251.78881 -361.562614 
L 251.813602 -360.108068 
L 251.849539 -358.653523 
L 251.896932 -357.198977 
L 251.956062 -355.744432 
L 252.027175 -354.289886 
L 252.110488 -352.835341 
L 252.206182 -351.380795 
L 252.314411 -349.92625 
L 252.435294 -348.471705 
L 252.568918 -347.017159 
L 252.715337 -345.562614 
L 252.874571 -344.108068 
L 253.046605 -342.653523 
L 253.231388 -341.198977 
L 253.428831 -339.744432 
L 253.638807 -338.289886 
L 253.861145 -336.835341 
L 254.095634 -335.380795 
L 254.342018 -333.92625 
L 254.59999 -332.471705 
L 254.869199 -331.017159 
L 255.149238 -329.562614 
L 255.43965 -328.108068 
L 255.739918 -326.653523 
L 256.049473 -325.198977 
L 256.367682 -323.744432 
L 256.693856 -322.289886 
L 257.027243 -320.835341 
L 257.367029 -319.380795 
L 257.712341 -317.92625 
L 258.062241 -316.471705 
L 258.415735 -315.017159 
L 258.771768 -313.562614 
L 259.129232 -312.108068 
L 259.486963 -310.653523 
L 259.84375 -309.198977 
L 260.198335 -307.744432 
L 260.549422 -306.289886 
L 260.89568 -304.835341 
L 261.235749 -303.380795 
L 261.56825 -301.92625 
L 261.891788 -300.471705 
L 262.204964 -299.017159 
L 262.506381 -297.562614 
L 262.794654 -296.108068 
L 263.068419 -294.653523 
L 263.326341 -293.198977 
L 263.567125 -291.744432 
L 263.789524 -290.289886 
L 263.99235 -288.835341 
L 264.174481 -287.380795 
L 264.334872 -285.92625 
L 264.472563 -284.471705 
L 264.586685 -283.017159 
L 264.67647 -281.562614 
L 264.741256 -280.108068 
L 264.780493 -278.653523 
L 264.79375 -277.198977 
L 264.780717 -275.744432 
L 264.741208 -274.289886 
L 264.675167 -272.835341 
L 264.582663 -271.380795 
L 264.463897 -269.92625 
z
" id="m4cb9d3cd36" style="stroke:#000000;stroke-opacity:0.3;"/>
    </defs>
    <g clip-path="url(#pbc99f8833b)">
     <use style="fill:#bfbf00;fill-opacity:0.3;stroke:#000000;stroke-opacity:0.3;" x="0.0" xlink:href="#m4cb9d3cd36" y="465.868"/>
    </g>
   </g>
   <g id="PolyCollection_4">
    <defs>
     <path d="M 322.70787 -125.92625 
L 318.47963 -125.92625 
L 318.424308 -128.108068 
L 318.371137 -130.289886 
L 318.319602 -132.471705 
L 318.269116 -134.653523 
L 318.219041 -136.835341 
L 318.168714 -139.017159 
L 318.117472 -141.198977 
L 318.064675 -143.380795 
L 318.009732 -145.562614 
L 317.952126 -147.744432 
L 317.891434 -149.92625 
L 317.827338 -152.108068 
L 317.759644 -154.289886 
L 317.688279 -156.471705 
L 317.613297 -158.653523 
L 317.534864 -160.835341 
L 317.453245 -163.017159 
L 317.368784 -165.198977 
L 317.281869 -167.380795 
L 317.192902 -169.562614 
L 317.102258 -171.744432 
L 317.010242 -173.92625 
L 316.917045 -176.108068 
L 316.822699 -178.289886 
L 316.727034 -180.471705 
L 316.629639 -182.653523 
L 316.529829 -184.835341 
L 316.426621 -187.017159 
L 316.318714 -189.198977 
L 316.204484 -191.380795 
L 316.081994 -193.562614 
L 315.94901 -195.744432 
L 315.803035 -197.92625 
L 315.641356 -200.108068 
L 315.461105 -202.289886 
L 315.259329 -204.471705 
L 315.033077 -206.653523 
L 314.779491 -208.835341 
L 314.495911 -211.017159 
L 314.17997 -213.198977 
L 313.829711 -215.380795 
L 313.443685 -217.562614 
L 313.02105 -219.744432 
L 312.561663 -221.92625 
L 312.066155 -224.108068 
L 311.535991 -226.289886 
L 310.973515 -228.471705 
L 310.381967 -230.653523 
L 309.76548 -232.835341 
L 309.129049 -235.017159 
L 308.47848 -237.198977 
L 307.820305 -239.380795 
L 307.16168 -241.562614 
L 306.510253 -243.744432 
L 305.87402 -245.92625 
L 305.261158 -248.108068 
L 304.679851 -250.289886 
L 304.138107 -252.471705 
L 303.643573 -254.653523 
L 303.203358 -256.835341 
L 302.823861 -259.017159 
L 302.510614 -261.198977 
L 302.268154 -263.380795 
L 302.099907 -265.562614 
L 302.008107 -267.744432 
L 301.99375 -269.92625 
L 302.056571 -272.108068 
L 302.19506 -274.289886 
L 302.406513 -276.471705 
L 302.687106 -278.653523 
L 303.032004 -280.835341 
L 303.435492 -283.017159 
L 303.891124 -285.198977 
L 304.391892 -287.380795 
L 304.930401 -289.562614 
L 305.499043 -291.744432 
L 306.090184 -293.92625 
L 306.696325 -296.108068 
L 307.310269 -298.289886 
L 307.925257 -300.471705 
L 308.535093 -302.653523 
L 309.134248 -304.835341 
L 309.717927 -307.017159 
L 310.28213 -309.198977 
L 310.823669 -311.380795 
L 311.340173 -313.562614 
L 311.830062 -315.744432 
L 312.292511 -317.92625 
L 312.72738 -320.108068 
L 313.135149 -322.289886 
L 313.516824 -324.471705 
L 313.873846 -326.653523 
L 314.207995 -328.835341 
L 314.52129 -331.017159 
L 314.815897 -333.198977 
L 315.094035 -335.380795 
L 315.357899 -337.562614 
L 315.609587 -339.744432 
L 315.851041 -341.92625 
L 325.336459 -341.92625 
L 325.336459 -341.92625 
L 325.577913 -339.744432 
L 325.829601 -337.562614 
L 326.093465 -335.380795 
L 326.371603 -333.198977 
L 326.66621 -331.017159 
L 326.979505 -328.835341 
L 327.313654 -326.653523 
L 327.670676 -324.471705 
L 328.052351 -322.289886 
L 328.46012 -320.108068 
L 328.894989 -317.92625 
L 329.357438 -315.744432 
L 329.847327 -313.562614 
L 330.363831 -311.380795 
L 330.90537 -309.198977 
L 331.469573 -307.017159 
L 332.053252 -304.835341 
L 332.652407 -302.653523 
L 333.262243 -300.471705 
L 333.877231 -298.289886 
L 334.491175 -296.108068 
L 335.097316 -293.92625 
L 335.688457 -291.744432 
L 336.257099 -289.562614 
L 336.795608 -287.380795 
L 337.296376 -285.198977 
L 337.752008 -283.017159 
L 338.155496 -280.835341 
L 338.500394 -278.653523 
L 338.780987 -276.471705 
L 338.99244 -274.289886 
L 339.130929 -272.108068 
L 339.19375 -269.92625 
L 339.179393 -267.744432 
L 339.087593 -265.562614 
L 338.919346 -263.380795 
L 338.676886 -261.198977 
L 338.363639 -259.017159 
L 337.984142 -256.835341 
L 337.543927 -254.653523 
L 337.049393 -252.471705 
L 336.507649 -250.289886 
L 335.926342 -248.108068 
L 335.31348 -245.92625 
L 334.677247 -243.744432 
L 334.02582 -241.562614 
L 333.367195 -239.380795 
L 332.70902 -237.198977 
L 332.058451 -235.017159 
L 331.42202 -232.835341 
L 330.805533 -230.653523 
L 330.213985 -228.471705 
L 329.651509 -226.289886 
L 329.121345 -224.108068 
L 328.625837 -221.92625 
L 328.16645 -219.744432 
L 327.743815 -217.562614 
L 327.357789 -215.380795 
L 327.00753 -213.198977 
L 326.691589 -211.017159 
L 326.408009 -208.835341 
L 326.154423 -206.653523 
L 325.928171 -204.471705 
L 325.726395 -202.289886 
L 325.546144 -200.108068 
L 325.384465 -197.92625 
L 325.23849 -195.744432 
L 325.105506 -193.562614 
L 324.983016 -191.380795 
L 324.868786 -189.198977 
L 324.760879 -187.017159 
L 324.657671 -184.835341 
L 324.557861 -182.653523 
L 324.460466 -180.471705 
L 324.364801 -178.289886 
L 324.270455 -176.108068 
L 324.177258 -173.92625 
L 324.085242 -171.744432 
L 323.994598 -169.562614 
L 323.905631 -167.380795 
L 323.818716 -165.198977 
L 323.734255 -163.017159 
L 323.652636 -160.835341 
L 323.574203 -158.653523 
L 323.499221 -156.471705 
L 323.427856 -154.289886 
L 323.360162 -152.108068 
L 323.296066 -149.92625 
L 323.235374 -147.744432 
L 323.177768 -145.562614 
L 323.122825 -143.380795 
L 323.070028 -141.198977 
L 323.018786 -139.017159 
L 322.968459 -136.835341 
L 322.918384 -134.653523 
L 322.867898 -132.471705 
L 322.816363 -130.289886 
L 322.763192 -128.108068 
L 322.70787 -125.92625 
z
" id="m83294cbe90" style="stroke:#000000;stroke-opacity:0.3;"/>
    </defs>
    <g clip-path="url(#pbc99f8833b)">
     <use style="fill:#bfbf00;fill-opacity:0.3;stroke:#000000;stroke-opacity:0.3;" x="0.0" xlink:href="#m83294cbe90" y="465.868"/>
    </g>
   </g>
   <g id="PolyCollection_5">
    <defs>
     <path d="M 396.43077 -125.92625 
L 393.55673 -125.92625 
L 393.558017 -127.380795 
L 393.56501 -128.835341 
L 393.577532 -130.289886 
L 393.595318 -131.744432 
L 393.618027 -133.198977 
L 393.645243 -134.653523 
L 393.676481 -136.108068 
L 393.711198 -137.562614 
L 393.748796 -139.017159 
L 393.788638 -140.471705 
L 393.830056 -141.92625 
L 393.872359 -143.380795 
L 393.914847 -144.835341 
L 393.956822 -146.289886 
L 393.997594 -147.744432 
L 394.036499 -149.198977 
L 394.072899 -150.653523 
L 394.106199 -152.108068 
L 394.13585 -153.562614 
L 394.161359 -155.017159 
L 394.182291 -156.471705 
L 394.198279 -157.92625 
L 394.209022 -159.380795 
L 394.214293 -160.835341 
L 394.213938 -162.289886 
L 394.207874 -163.744432 
L 394.196094 -165.198977 
L 394.17866 -166.653523 
L 394.155699 -168.108068 
L 394.127404 -169.562614 
L 394.094024 -171.017159 
L 394.05586 -172.471705 
L 394.013254 -173.92625 
L 393.966583 -175.380795 
L 393.916251 -176.835341 
L 393.862673 -178.289886 
L 393.806269 -179.744432 
L 393.747449 -181.198977 
L 393.686602 -182.653523 
L 393.624083 -184.108068 
L 393.560199 -185.562614 
L 393.495197 -187.017159 
L 393.429253 -188.471705 
L 393.362458 -189.92625 
L 393.294806 -191.380795 
L 393.226187 -192.835341 
L 393.156375 -194.289886 
L 393.085022 -195.744432 
L 393.011651 -197.198977 
L 392.935652 -198.653523 
L 392.856281 -200.108068 
L 392.772658 -201.562614 
L 392.68377 -203.017159 
L 392.588474 -204.471705 
L 392.485508 -205.92625 
L 392.373494 -207.380795 
L 392.250957 -208.835341 
L 392.116334 -210.289886 
L 391.967993 -211.744432 
L 391.804256 -213.198977 
L 391.623418 -214.653523 
L 391.423773 -216.108068 
L 391.203646 -217.562614 
L 390.961422 -219.017159 
L 390.695575 -220.471705 
L 390.404712 -221.92625 
L 390.087605 -223.380795 
L 389.743229 -224.835341 
L 389.370808 -226.289886 
L 388.969848 -227.744432 
L 388.540181 -229.198977 
L 388.082005 -230.653523 
L 387.595912 -232.108068 
L 387.08293 -233.562614 
L 386.544542 -235.017159 
L 385.982715 -236.471705 
L 385.399907 -237.92625 
L 384.799079 -239.380795 
L 384.183689 -240.835341 
L 383.557679 -242.289886 
L 382.925451 -243.744432 
L 382.291831 -245.198977 
L 381.662021 -246.653523 
L 381.041541 -248.108068 
L 380.436159 -249.562614 
L 379.851813 -251.017159 
L 379.29452 -252.471705 
L 378.770284 -253.92625 
L 378.284994 -255.380795 
L 377.844321 -256.835341 
L 377.453617 -258.289886 
L 377.11781 -259.744432 
L 376.841309 -261.198977 
L 376.627919 -262.653523 
L 376.480755 -264.108068 
L 376.40218 -265.562614 
L 376.39375 -267.017159 
L 376.456179 -268.471705 
L 376.589319 -269.92625 
L 413.398181 -269.92625 
L 413.398181 -269.92625 
L 413.531321 -268.471705 
L 413.59375 -267.017159 
L 413.58532 -265.562614 
L 413.506745 -264.108068 
L 413.359581 -262.653523 
L 413.146191 -261.198977 
L 412.86969 -259.744432 
L 412.533883 -258.289886 
L 412.143179 -256.835341 
L 411.702506 -255.380795 
L 411.217216 -253.92625 
L 410.69298 -252.471705 
L 410.135687 -251.017159 
L 409.551341 -249.562614 
L 408.945959 -248.108068 
L 408.325479 -246.653523 
L 407.695669 -245.198977 
L 407.062049 -243.744432 
L 406.429821 -242.289886 
L 405.803811 -240.835341 
L 405.188421 -239.380795 
L 404.587593 -237.92625 
L 404.004785 -236.471705 
L 403.442958 -235.017159 
L 402.90457 -233.562614 
L 402.391588 -232.108068 
L 401.905495 -230.653523 
L 401.447319 -229.198977 
L 401.017652 -227.744432 
L 400.616692 -226.289886 
L 400.244271 -224.835341 
L 399.899895 -223.380795 
L 399.582788 -221.92625 
L 399.291925 -220.471705 
L 399.026078 -219.017159 
L 398.783854 -217.562614 
L 398.563727 -216.108068 
L 398.364082 -214.653523 
L 398.183244 -213.198977 
L 398.019507 -211.744432 
L 397.871166 -210.289886 
L 397.736543 -208.835341 
L 397.614006 -207.380795 
L 397.501992 -205.92625 
L 397.399026 -204.471705 
L 397.30373 -203.017159 
L 397.214842 -201.562614 
L 397.131219 -200.108068 
L 397.051848 -198.653523 
L 396.975849 -197.198977 
L 396.902478 -195.744432 
L 396.831125 -194.289886 
L 396.761313 -192.835341 
L 396.692694 -191.380795 
L 396.625042 -189.92625 
L 396.558247 -188.471705 
L 396.492303 -187.017159 
L 396.427301 -185.562614 
L 396.363417 -184.108068 
L 396.300898 -182.653523 
L 396.240051 -181.198977 
L 396.181231 -179.744432 
L 396.124827 -178.289886 
L 396.071249 -176.835341 
L 396.020917 -175.380795 
L 395.974246 -173.92625 
L 395.93164 -172.471705 
L 395.893476 -171.017159 
L 395.860096 -169.562614 
L 395.831801 -168.108068 
L 395.80884 -166.653523 
L 395.791406 -165.198977 
L 395.779626 -163.744432 
L 395.773562 -162.289886 
L 395.773207 -160.835341 
L 395.778478 -159.380795 
L 395.789221 -157.92625 
L 395.805209 -156.471705 
L 395.826141 -155.017159 
L 395.85165 -153.562614 
L 395.881301 -152.108068 
L 395.914601 -150.653523 
L 395.951001 -149.198977 
L 395.989906 -147.744432 
L 396.030678 -146.289886 
L 396.072653 -144.835341 
L 396.115141 -143.380795 
L 396.157444 -141.92625 
L 396.198862 -140.471705 
L 396.238704 -139.017159 
L 396.276302 -137.562614 
L 396.311019 -136.108068 
L 396.342257 -134.653523 
L 396.369473 -133.198977 
L 396.392182 -131.744432 
L 396.409968 -130.289886 
L 396.42249 -128.835341 
L 396.429483 -127.380795 
L 396.43077 -125.92625 
z
" id="m6be09346ea" style="stroke:#000000;stroke-opacity:0.3;"/>
    </defs>
    <g clip-path="url(#pbc99f8833b)">
     <use style="fill:#bfbf00;fill-opacity:0.3;stroke:#000000;stroke-opacity:0.3;" x="0.0" xlink:href="#m6be09346ea" y="465.868"/>
    </g>
   </g>
   <g id="PolyCollection_6">
    <defs>
     <path d="M 477.861408 -125.92625 
L 460.926092 -125.92625 
L 460.880202 -128.108068 
L 460.84952 -130.289886 
L 460.833634 -132.471705 
L 460.83199 -134.653523 
L 460.84389 -136.835341 
L 460.868499 -139.017159 
L 460.904853 -141.198977 
L 460.951864 -143.380795 
L 461.008332 -145.562614 
L 461.07295 -147.744432 
L 461.144323 -149.92625 
L 461.220969 -152.108068 
L 461.301343 -154.289886 
L 461.383841 -156.471705 
L 461.466817 -158.653523 
L 461.548595 -160.835341 
L 461.627487 -163.017159 
L 461.701798 -165.198977 
L 461.76985 -167.380795 
L 461.829987 -169.562614 
L 461.880591 -171.744432 
L 461.920096 -173.92625 
L 461.947001 -176.108068 
L 461.959877 -178.289886 
L 461.957383 -180.471705 
L 461.938278 -182.653523 
L 461.901427 -184.835341 
L 461.845815 -187.017159 
L 461.770554 -189.198977 
L 461.674896 -191.380795 
L 461.558233 -193.562614 
L 461.420116 -195.744432 
L 461.260251 -197.92625 
L 461.078511 -200.108068 
L 460.874941 -202.289886 
L 460.649759 -204.471705 
L 460.403363 -206.653523 
L 460.13633 -208.835341 
L 459.849416 -211.017159 
L 459.543558 -213.198977 
L 459.219871 -215.380795 
L 458.87964 -217.562614 
L 458.524322 -219.744432 
L 458.155531 -221.92625 
L 457.775033 -224.108068 
L 457.384736 -226.289886 
L 456.986673 -228.471705 
L 456.582992 -230.653523 
L 456.175938 -232.835341 
L 455.767835 -235.017159 
L 455.36107 -237.198977 
L 454.958067 -239.380795 
L 454.561272 -241.562614 
L 454.173127 -243.744432 
L 453.796052 -245.92625 
L 453.432415 -248.108068 
L 453.084519 -250.289886 
L 452.754571 -252.471705 
L 452.444669 -254.653523 
L 452.156776 -256.835341 
L 451.892704 -259.017159 
L 451.654097 -261.198977 
L 451.442414 -263.380795 
L 451.258921 -265.562614 
L 451.104675 -267.744432 
L 450.980521 -269.92625 
L 450.887083 -272.108068 
L 450.824765 -274.289886 
L 450.79375 -276.471705 
L 450.794003 -278.653523 
L 450.825277 -280.835341 
L 450.887122 -283.017159 
L 450.978896 -285.198977 
L 451.099774 -287.380795 
L 451.248767 -289.562614 
L 451.424739 -291.744432 
L 451.626417 -293.92625 
L 451.852418 -296.108068 
L 452.101262 -298.289886 
L 452.371394 -300.471705 
L 452.661202 -302.653523 
L 452.969035 -304.835341 
L 453.293222 -307.017159 
L 453.632089 -309.198977 
L 453.983974 -311.380795 
L 454.347242 -313.562614 
L 454.720298 -315.744432 
L 455.101599 -317.92625 
L 455.489661 -320.108068 
L 455.883072 -322.289886 
L 456.28049 -324.471705 
L 456.680658 -326.653523 
L 457.082395 -328.835341 
L 457.484608 -331.017159 
L 457.886284 -333.198977 
L 458.286495 -335.380795 
L 458.684387 -337.562614 
L 459.079188 -339.744432 
L 459.470192 -341.92625 
L 479.317308 -341.92625 
L 479.317308 -341.92625 
L 479.708312 -339.744432 
L 480.103113 -337.562614 
L 480.501005 -335.380795 
L 480.901216 -333.198977 
L 481.302892 -331.017159 
L 481.705105 -328.835341 
L 482.106842 -326.653523 
L 482.50701 -324.471705 
L 482.904428 -322.289886 
L 483.297839 -320.108068 
L 483.685901 -317.92625 
L 484.067202 -315.744432 
L 484.440258 -313.562614 
L 484.803526 -311.380795 
L 485.155411 -309.198977 
L 485.494278 -307.017159 
L 485.818465 -304.835341 
L 486.126298 -302.653523 
L 486.416106 -300.471705 
L 486.686238 -298.289886 
L 486.935082 -296.108068 
L 487.161083 -293.92625 
L 487.362761 -291.744432 
L 487.538733 -289.562614 
L 487.687726 -287.380795 
L 487.808604 -285.198977 
L 487.900378 -283.017159 
L 487.962223 -280.835341 
L 487.993497 -278.653523 
L 487.99375 -276.471705 
L 487.962735 -274.289886 
L 487.900417 -272.108068 
L 487.806979 -269.92625 
L 487.682825 -267.744432 
L 487.528579 -265.562614 
L 487.345086 -263.380795 
L 487.133403 -261.198977 
L 486.894796 -259.017159 
L 486.630724 -256.835341 
L 486.342831 -254.653523 
L 486.032929 -252.471705 
L 485.702981 -250.289886 
L 485.355085 -248.108068 
L 484.991448 -245.92625 
L 484.614373 -243.744432 
L 484.226228 -241.562614 
L 483.829433 -239.380795 
L 483.42643 -237.198977 
L 483.019665 -235.017159 
L 482.611562 -232.835341 
L 482.204508 -230.653523 
L 481.800827 -228.471705 
L 481.402764 -226.289886 
L 481.012467 -224.108068 
L 480.631969 -221.92625 
L 480.263178 -219.744432 
L 479.90786 -217.562614 
L 479.567629 -215.380795 
L 479.243942 -213.198977 
L 478.938084 -211.017159 
L 478.65117 -208.835341 
L 478.384137 -206.653523 
L 478.137741 -204.471705 
L 477.912559 -202.289886 
L 477.708989 -200.108068 
L 477.527249 -197.92625 
L 477.367384 -195.744432 
L 477.229267 -193.562614 
L 477.112604 -191.380795 
L 477.016946 -189.198977 
L 476.941685 -187.017159 
L 476.886073 -184.835341 
L 476.849222 -182.653523 
L 476.830117 -180.471705 
L 476.827623 -178.289886 
L 476.840499 -176.108068 
L 476.867404 -173.92625 
L 476.906909 -171.744432 
L 476.957513 -169.562614 
L 477.01765 -167.380795 
L 477.085702 -165.198977 
L 477.160013 -163.017159 
L 477.238905 -160.835341 
L 477.320683 -158.653523 
L 477.403659 -156.471705 
L 477.486157 -154.289886 
L 477.566531 -152.108068 
L 477.643177 -149.92625 
L 477.71455 -147.744432 
L 477.779168 -145.562614 
L 477.835636 -143.380795 
L 477.882647 -141.198977 
L 477.919001 -139.017159 
L 477.94361 -136.835341 
L 477.95551 -134.653523 
L 477.953866 -132.471705 
L 477.93798 -130.289886 
L 477.907298 -128.108068 
L 477.861408 -125.92625 
z
" id="m259cf129a8" style="stroke:#000000;stroke-opacity:0.3;"/>
    </defs>
    <g clip-path="url(#pbc99f8833b)">
     <use style="fill:#bfbf00;fill-opacity:0.3;stroke:#000000;stroke-opacity:0.3;" x="0.0" xlink:href="#m259cf129a8" y="465.868"/>
    </g>
   </g>
   <g id="PolyCollection_7">
    <defs>
     <path d="M 548.480829 -125.92625 
L 539.106671 -125.92625 
L 539.037359 -127.380795 
L 538.972064 -128.835341 
L 538.910489 -130.289886 
L 538.852283 -131.744432 
L 538.797046 -133.198977 
L 538.744331 -134.653523 
L 538.693651 -136.108068 
L 538.644488 -137.562614 
L 538.596291 -139.017159 
L 538.548495 -140.471705 
L 538.500516 -141.92625 
L 538.45177 -143.380795 
L 538.401671 -144.835341 
L 538.349646 -146.289886 
L 538.295137 -147.744432 
L 538.237613 -149.198977 
L 538.176572 -150.653523 
L 538.111553 -152.108068 
L 538.042135 -153.562614 
L 537.967951 -155.017159 
L 537.888682 -156.471705 
L 537.804069 -157.92625 
L 537.713912 -159.380795 
L 537.618072 -160.835341 
L 537.516473 -162.289886 
L 537.409102 -163.744432 
L 537.296004 -165.198977 
L 537.177287 -166.653523 
L 537.053114 -168.108068 
L 536.923699 -169.562614 
L 536.789307 -171.017159 
L 536.650243 -172.471705 
L 536.50685 -173.92625 
L 536.359501 -175.380795 
L 536.208593 -176.835341 
L 536.054536 -178.289886 
L 535.897751 -179.744432 
L 535.738656 -181.198977 
L 535.577662 -182.653523 
L 535.415163 -184.108068 
L 535.251532 -185.562614 
L 535.087106 -187.017159 
L 534.922188 -188.471705 
L 534.757033 -189.92625 
L 534.591849 -191.380795 
L 534.426785 -192.835341 
L 534.261932 -194.289886 
L 534.097321 -195.744432 
L 533.932916 -197.198977 
L 533.768615 -198.653523 
L 533.604255 -200.108068 
L 533.439607 -201.562614 
L 533.274385 -203.017159 
L 533.108246 -204.471705 
L 532.940798 -205.92625 
L 532.771606 -207.380795 
L 532.600201 -208.835341 
L 532.426091 -210.289886 
L 532.248767 -211.744432 
L 532.067719 -213.198977 
L 531.882446 -214.653523 
L 531.692469 -216.108068 
L 531.497345 -217.562614 
L 531.296681 -219.017159 
L 531.090147 -220.471705 
L 530.877488 -221.92625 
L 530.658542 -223.380795 
L 530.433246 -224.835341 
L 530.201652 -226.289886 
L 529.963938 -227.744432 
L 529.720413 -229.198977 
L 529.471527 -230.653523 
L 529.217878 -232.108068 
L 528.960212 -233.562614 
L 528.699426 -235.017159 
L 528.43657 -236.471705 
L 528.17284 -237.92625 
L 527.909573 -239.380795 
L 527.648241 -240.835341 
L 527.390439 -242.289886 
L 527.137872 -243.744432 
L 526.892339 -245.198977 
L 526.655721 -246.653523 
L 526.429954 -248.108068 
L 526.217016 -249.562614 
L 526.0189 -251.017159 
L 525.837593 -252.471705 
L 525.675053 -253.92625 
L 525.533182 -255.380795 
L 525.413807 -256.835341 
L 525.318652 -258.289886 
L 525.249316 -259.744432 
L 525.207252 -261.198977 
L 525.19375 -262.653523 
L 525.209912 -264.108068 
L 525.256641 -265.562614 
L 525.334625 -267.017159 
L 525.444329 -268.471705 
L 525.585982 -269.92625 
L 562.001518 -269.92625 
L 562.001518 -269.92625 
L 562.143171 -268.471705 
L 562.252875 -267.017159 
L 562.330859 -265.562614 
L 562.377588 -264.108068 
L 562.39375 -262.653523 
L 562.380248 -261.198977 
L 562.338184 -259.744432 
L 562.268848 -258.289886 
L 562.173693 -256.835341 
L 562.054318 -255.380795 
L 561.912447 -253.92625 
L 561.749907 -252.471705 
L 561.5686 -251.017159 
L 561.370484 -249.562614 
L 561.157546 -248.108068 
L 560.931779 -246.653523 
L 560.695161 -245.198977 
L 560.449628 -243.744432 
L 560.197061 -242.289886 
L 559.939259 -240.835341 
L 559.677927 -239.380795 
L 559.41466 -237.92625 
L 559.15093 -236.471705 
L 558.888074 -235.017159 
L 558.627288 -233.562614 
L 558.369622 -232.108068 
L 558.115973 -230.653523 
L 557.867087 -229.198977 
L 557.623562 -227.744432 
L 557.385848 -226.289886 
L 557.154254 -224.835341 
L 556.928958 -223.380795 
L 556.710012 -221.92625 
L 556.497353 -220.471705 
L 556.290819 -219.017159 
L 556.090155 -217.562614 
L 555.895031 -216.108068 
L 555.705054 -214.653523 
L 555.519781 -213.198977 
L 555.338733 -211.744432 
L 555.161409 -210.289886 
L 554.987299 -208.835341 
L 554.815894 -207.380795 
L 554.646702 -205.92625 
L 554.479254 -204.471705 
L 554.313115 -203.017159 
L 554.147893 -201.562614 
L 553.983245 -200.108068 
L 553.818885 -198.653523 
L 553.654584 -197.198977 
L 553.490179 -195.744432 
L 553.325568 -194.289886 
L 553.160715 -192.835341 
L 552.995651 -191.380795 
L 552.830467 -189.92625 
L 552.665312 -188.471705 
L 552.500394 -187.017159 
L 552.335968 -185.562614 
L 552.172337 -184.108068 
L 552.009838 -182.653523 
L 551.848844 -181.198977 
L 551.689749 -179.744432 
L 551.532964 -178.289886 
L 551.378907 -176.835341 
L 551.227999 -175.380795 
L 551.08065 -173.92625 
L 550.937257 -172.471705 
L 550.798193 -171.017159 
L 550.663801 -169.562614 
L 550.534386 -168.108068 
L 550.410213 -166.653523 
L 550.291496 -165.198977 
L 550.178398 -163.744432 
L 550.071027 -162.289886 
L 549.969428 -160.835341 
L 549.873588 -159.380795 
L 549.783431 -157.92625 
L 549.698818 -156.471705 
L 549.619549 -155.017159 
L 549.545365 -153.562614 
L 549.475947 -152.108068 
L 549.410928 -150.653523 
L 549.349887 -149.198977 
L 549.292363 -147.744432 
L 549.237854 -146.289886 
L 549.185829 -144.835341 
L 549.13573 -143.380795 
L 549.086984 -141.92625 
L 549.039005 -140.471705 
L 548.991209 -139.017159 
L 548.943012 -137.562614 
L 548.893849 -136.108068 
L 548.843169 -134.653523 
L 548.790454 -133.198977 
L 548.735217 -131.744432 
L 548.677011 -130.289886 
L 548.615436 -128.835341 
L 548.550141 -127.380795 
L 548.480829 -125.92625 
z
" id="m10a507a4e6" style="stroke:#000000;stroke-opacity:0.3;"/>
    </defs>
    <g clip-path="url(#pbc99f8833b)">
     <use style="fill:#bfbf00;fill-opacity:0.3;stroke:#000000;stroke-opacity:0.3;" x="0.0" xlink:href="#m10a507a4e6" y="465.868"/>
    </g>
   </g>
   <g id="PolyCollection_8">
    <defs>
     <path d="M 633.800567 -125.92625 
L 602.586933 -125.92625 
L 602.512 -127.380795 
L 602.453075 -128.835341 
L 602.40992 -130.289886 
L 602.382218 -131.744432 
L 602.36958 -133.198977 
L 602.371542 -134.653523 
L 602.387575 -136.108068 
L 602.417085 -137.562614 
L 602.459419 -139.017159 
L 602.513871 -140.471705 
L 602.579685 -141.92625 
L 602.656062 -143.380795 
L 602.742168 -144.835341 
L 602.837136 -146.289886 
L 602.940074 -147.744432 
L 603.050075 -149.198977 
L 603.166214 -150.653523 
L 603.287564 -152.108068 
L 603.413195 -153.562614 
L 603.542183 -155.017159 
L 603.673615 -156.471705 
L 603.806592 -157.92625 
L 603.940238 -159.380795 
L 604.073699 -160.835341 
L 604.206152 -162.289886 
L 604.336804 -163.744432 
L 604.464899 -165.198977 
L 604.589717 -166.653523 
L 604.710579 -168.108068 
L 604.826846 -169.562614 
L 604.937923 -171.017159 
L 605.043257 -172.471705 
L 605.142339 -173.92625 
L 605.2347 -175.380795 
L 605.319917 -176.835341 
L 605.397608 -178.289886 
L 605.467429 -179.744432 
L 605.529078 -181.198977 
L 605.582289 -182.653523 
L 605.626832 -184.108068 
L 605.66251 -185.562614 
L 605.68916 -187.017159 
L 605.706647 -188.471705 
L 605.714866 -189.92625 
L 605.713739 -191.380795 
L 605.703211 -192.835341 
L 605.683254 -194.289886 
L 605.653861 -195.744432 
L 605.615047 -197.198977 
L 605.566847 -198.653523 
L 605.50932 -200.108068 
L 605.442544 -201.562614 
L 605.366616 -203.017159 
L 605.281659 -204.471705 
L 605.187813 -205.92625 
L 605.085245 -207.380795 
L 604.974146 -208.835341 
L 604.854731 -210.289886 
L 604.727243 -211.744432 
L 604.591955 -213.198977 
L 604.44917 -214.653523 
L 604.299223 -216.108068 
L 604.142486 -217.562614 
L 603.979363 -219.017159 
L 603.810298 -220.471705 
L 603.635774 -221.92625 
L 603.456314 -223.380795 
L 603.272481 -224.835341 
L 603.08488 -226.289886 
L 602.894158 -227.744432 
L 602.701002 -229.198977 
L 602.506142 -230.653523 
L 602.310347 -232.108068 
L 602.114422 -233.562614 
L 601.919209 -235.017159 
L 601.725584 -236.471705 
L 601.534453 -237.92625 
L 601.346747 -239.380795 
L 601.163421 -240.835341 
L 600.985446 -242.289886 
L 600.813807 -243.744432 
L 600.649497 -245.198977 
L 600.493508 -246.653523 
L 600.346829 -248.108068 
L 600.210441 -249.562614 
L 600.085303 -251.017159 
L 599.972353 -252.471705 
L 599.872499 -253.92625 
L 599.786611 -255.380795 
L 599.715517 -256.835341 
L 599.659993 -258.289886 
L 599.620762 -259.744432 
L 599.598483 -261.198977 
L 599.59375 -262.653523 
L 599.607084 -264.108068 
L 599.63893 -265.562614 
L 599.689651 -267.017159 
L 599.759529 -268.471705 
L 599.848758 -269.92625 
L 636.538742 -269.92625 
L 636.538742 -269.92625 
L 636.627971 -268.471705 
L 636.697849 -267.017159 
L 636.74857 -265.562614 
L 636.780416 -264.108068 
L 636.79375 -262.653523 
L 636.789017 -261.198977 
L 636.766738 -259.744432 
L 636.727507 -258.289886 
L 636.671983 -256.835341 
L 636.600889 -255.380795 
L 636.515001 -253.92625 
L 636.415147 -252.471705 
L 636.302197 -251.017159 
L 636.177059 -249.562614 
L 636.040671 -248.108068 
L 635.893992 -246.653523 
L 635.738003 -245.198977 
L 635.573693 -243.744432 
L 635.402054 -242.289886 
L 635.224079 -240.835341 
L 635.040753 -239.380795 
L 634.853047 -237.92625 
L 634.661916 -236.471705 
L 634.468291 -235.017159 
L 634.273078 -233.562614 
L 634.077153 -232.108068 
L 633.881358 -230.653523 
L 633.686498 -229.198977 
L 633.493342 -227.744432 
L 633.30262 -226.289886 
L 633.115019 -224.835341 
L 632.931186 -223.380795 
L 632.751726 -221.92625 
L 632.577202 -220.471705 
L 632.408137 -219.017159 
L 632.245014 -217.562614 
L 632.088277 -216.108068 
L 631.93833 -214.653523 
L 631.795545 -213.198977 
L 631.660257 -211.744432 
L 631.532769 -210.289886 
L 631.413354 -208.835341 
L 631.302255 -207.380795 
L 631.199687 -205.92625 
L 631.105841 -204.471705 
L 631.020884 -203.017159 
L 630.944956 -201.562614 
L 630.87818 -200.108068 
L 630.820653 -198.653523 
L 630.772453 -197.198977 
L 630.733639 -195.744432 
L 630.704246 -194.289886 
L 630.684289 -192.835341 
L 630.673761 -191.380795 
L 630.672634 -189.92625 
L 630.680853 -188.471705 
L 630.69834 -187.017159 
L 630.72499 -185.562614 
L 630.760668 -184.108068 
L 630.805211 -182.653523 
L 630.858422 -181.198977 
L 630.920071 -179.744432 
L 630.989892 -178.289886 
L 631.067583 -176.835341 
L 631.1528 -175.380795 
L 631.245161 -173.92625 
L 631.344243 -172.471705 
L 631.449577 -171.017159 
L 631.560654 -169.562614 
L 631.676921 -168.108068 
L 631.797783 -166.653523 
L 631.922601 -165.198977 
L 632.050696 -163.744432 
L 632.181348 -162.289886 
L 632.313801 -160.835341 
L 632.447262 -159.380795 
L 632.580908 -157.92625 
L 632.713885 -156.471705 
L 632.845317 -155.017159 
L 632.974305 -153.562614 
L 633.099936 -152.108068 
L 633.221286 -150.653523 
L 633.337425 -149.198977 
L 633.447426 -147.744432 
L 633.550364 -146.289886 
L 633.645332 -144.835341 
L 633.731438 -143.380795 
L 633.807815 -141.92625 
L 633.873629 -140.471705 
L 633.928081 -139.017159 
L 633.970415 -137.562614 
L 633.999925 -136.108068 
L 634.015958 -134.653523 
L 634.01792 -133.198977 
L 634.005282 -131.744432 
L 633.97758 -130.289886 
L 633.934425 -128.835341 
L 633.8755 -127.380795 
L 633.800567 -125.92625 
z
" id="m66c6ccf3b9" style="stroke:#000000;stroke-opacity:0.3;"/>
    </defs>
    <g clip-path="url(#pbc99f8833b)">
     <use style="fill:#bfbf00;fill-opacity:0.3;stroke:#000000;stroke-opacity:0.3;" x="0.0" xlink:href="#m66c6ccf3b9" y="465.868"/>
    </g>
   </g>
   <g id="LineCollection_1">
    <path clip-path="url(#pbc99f8833b)" d="M 88.09375 116.74175 
L 106.69375 116.74175 
" style="fill:none;stroke:#ff0000;"/>
    <path clip-path="url(#pbc99f8833b)" d="M 162.49375 166.619169 
L 181.09375 166.619169 
" style="fill:none;stroke:#ff0000;"/>
    <path clip-path="url(#pbc99f8833b)" d="M 236.89375 186.167994 
L 255.49375 186.167994 
" style="fill:none;stroke:#ff0000;"/>
    <path clip-path="url(#pbc99f8833b)" d="M 311.29375 195.94175 
L 329.89375 195.94175 
" style="fill:none;stroke:#ff0000;"/>
    <path clip-path="url(#pbc99f8833b)" d="M 385.69375 195.94175 
L 404.29375 195.94175 
" style="fill:none;stroke:#ff0000;"/>
    <path clip-path="url(#pbc99f8833b)" d="M 460.09375 195.94175 
L 478.69375 195.94175 
" style="fill:none;stroke:#ff0000;"/>
    <path clip-path="url(#pbc99f8833b)" d="M 534.49375 207.94175 
L 553.09375 207.94175 
" style="fill:none;stroke:#ff0000;"/>
    <path clip-path="url(#pbc99f8833b)" d="M 608.89375 263.94175 
L 627.49375 263.94175 
" style="fill:none;stroke:#ff0000;"/>
   </g>
   <g id="patch_3">
    <path d="M 22.99375 23.14175 
L 692.59375 23.14175 
" style="fill:none;stroke:#000000;stroke-linecap:square;stroke-linejoin:miter;"/>
   </g>
   <g id="patch_4">
    <path d="M 692.59375 368.74175 
L 692.59375 23.14175 
" style="fill:none;stroke:#000000;stroke-linecap:square;stroke-linejoin:miter;"/>
   </g>
   <g id="patch_5">
    <path d="M 22.99375 368.74175 
L 22.99375 23.14175 
" style="fill:none;stroke:#000000;stroke-linecap:square;stroke-linejoin:miter;"/>
   </g>
   <g id="patch_6">
    <path d="M 22.99375 368.74175 
L 692.59375 368.74175 
" style="fill:none;stroke:#000000;stroke-linecap:square;stroke-linejoin:miter;"/>
   </g>
   <g id="matplotlib.axis_1">
    <g id="xtick_1">
     <g id="line2d_1">
      <defs>
       <path d="M 0 0 
L 0 -4 
" id="m72192c000d" style="stroke:#000000;stroke-width:0.5;"/>
      </defs>
      <g>
       <use style="stroke:#000000;stroke-width:0.5;" x="97.39375" xlink:href="#m72192c000d" y="368.74175"/>
      </g>
     </g>
     <g id="line2d_2">
      <defs>
       <path d="M 0 0 
L 0 4 
" id="m0d42167d33" style="stroke:#000000;stroke-width:0.5;"/>
      </defs>
      <g>
       <use style="stroke:#000000;stroke-width:0.5;" x="97.39375" xlink:href="#m0d42167d33" y="23.14175"/>
      </g>
     </g>
     <g id="text_1">
      <!-- Defector -->
      <defs>
       <path d="M 48.78125 52.59375 
L 48.78125 44.1875 
Q 44.96875 46.296875 41.140625 47.34375 
Q 37.3125 48.390625 33.40625 48.390625 
Q 24.65625 48.390625 19.8125 42.84375 
Q 14.984375 37.3125 14.984375 27.296875 
Q 14.984375 17.28125 19.8125 11.734375 
Q 24.65625 6.203125 33.40625 6.203125 
Q 37.3125 6.203125 41.140625 7.25 
Q 44.96875 8.296875 48.78125 10.40625 
L 48.78125 2.09375 
Q 45.015625 0.34375 40.984375 -0.53125 
Q 36.96875 -1.421875 32.421875 -1.421875 
Q 20.0625 -1.421875 12.78125 6.34375 
Q 5.515625 14.109375 5.515625 27.296875 
Q 5.515625 40.671875 12.859375 48.328125 
Q 20.21875 56 33.015625 56 
Q 37.15625 56 41.109375 55.140625 
Q 45.0625 54.296875 48.78125 52.59375 
" id="BitstreamVeraSans-Roman-63"/>
       <path d="M 19.671875 64.796875 
L 19.671875 8.109375 
L 31.59375 8.109375 
Q 46.6875 8.109375 53.6875 14.9375 
Q 60.6875 21.78125 60.6875 36.53125 
Q 60.6875 51.171875 53.6875 57.984375 
Q 46.6875 64.796875 31.59375 64.796875 
z
M 9.8125 72.90625 
L 30.078125 72.90625 
Q 51.265625 72.90625 61.171875 64.09375 
Q 71.09375 55.28125 71.09375 36.53125 
Q 71.09375 17.671875 61.125 8.828125 
Q 51.171875 0 30.078125 0 
L 9.8125 0 
z
" id="BitstreamVeraSans-Roman-44"/>
       <path d="M 37.109375 75.984375 
L 37.109375 68.5 
L 28.515625 68.5 
Q 23.6875 68.5 21.796875 66.546875 
Q 19.921875 64.59375 19.921875 59.515625 
L 19.921875 54.6875 
L 34.71875 54.6875 
L 34.71875 47.703125 
L 19.921875 47.703125 
L 19.921875 0 
L 10.890625 0 
L 10.890625 47.703125 
L 2.296875 47.703125 
L 2.296875 54.6875 
L 10.890625 54.6875 
L 10.890625 58.5 
Q 10.890625 67.625 15.140625 71.796875 
Q 19.390625 75.984375 28.609375 75.984375 
z
" id="BitstreamVeraSans-Roman-66"/>
       <path d="M 56.203125 29.59375 
L 56.203125 25.203125 
L 14.890625 25.203125 
Q 15.484375 15.921875 20.484375 11.0625 
Q 25.484375 6.203125 34.421875 6.203125 
Q 39.59375 6.203125 44.453125 7.46875 
Q 49.3125 8.734375 54.109375 11.28125 
L 54.109375 2.78125 
Q 49.265625 0.734375 44.1875 -0.34375 
Q 39.109375 -1.421875 33.890625 -1.421875 
Q 20.796875 -1.421875 13.15625 6.1875 
Q 5.515625 13.8125 5.515625 26.8125 
Q 5.515625 40.234375 12.765625 48.109375 
Q 20.015625 56 32.328125 56 
Q 43.359375 56 49.78125 48.890625 
Q 56.203125 41.796875 56.203125 29.59375 
M 47.21875 32.234375 
Q 47.125 39.59375 43.09375 43.984375 
Q 39.0625 48.390625 32.421875 48.390625 
Q 24.90625 48.390625 20.390625 44.140625 
Q 15.875 39.890625 15.1875 32.171875 
z
" id="BitstreamVeraSans-Roman-65"/>
       <path d="M 41.109375 46.296875 
Q 39.59375 47.171875 37.8125 47.578125 
Q 36.03125 48 33.890625 48 
Q 26.265625 48 22.1875 43.046875 
Q 18.109375 38.09375 18.109375 28.8125 
L 18.109375 0 
L 9.078125 0 
L 9.078125 54.6875 
L 18.109375 54.6875 
L 18.109375 46.1875 
Q 20.953125 51.171875 25.484375 53.578125 
Q 30.03125 56 36.53125 56 
Q 37.453125 56 38.578125 55.875 
Q 39.703125 55.765625 41.0625 55.515625 
z
" id="BitstreamVeraSans-Roman-72"/>
       <path d="M 30.609375 48.390625 
Q 23.390625 48.390625 19.1875 42.75 
Q 14.984375 37.109375 14.984375 27.296875 
Q 14.984375 17.484375 19.15625 11.84375 
Q 23.34375 6.203125 30.609375 6.203125 
Q 37.796875 6.203125 41.984375 11.859375 
Q 46.1875 17.53125 46.1875 27.296875 
Q 46.1875 37.015625 41.984375 42.703125 
Q 37.796875 48.390625 30.609375 48.390625 
M 30.609375 56 
Q 42.328125 56 49.015625 48.375 
Q 55.71875 40.765625 55.71875 27.296875 
Q 55.71875 13.875 49.015625 6.21875 
Q 42.328125 -1.421875 30.609375 -1.421875 
Q 18.84375 -1.421875 12.171875 6.21875 
Q 5.515625 13.875 5.515625 27.296875 
Q 5.515625 40.765625 12.171875 48.375 
Q 18.84375 56 30.609375 56 
" id="BitstreamVeraSans-Roman-6f"/>
       <path d="M 18.3125 70.21875 
L 18.3125 54.6875 
L 36.8125 54.6875 
L 36.8125 47.703125 
L 18.3125 47.703125 
L 18.3125 18.015625 
Q 18.3125 11.328125 20.140625 9.421875 
Q 21.96875 7.515625 27.59375 7.515625 
L 36.8125 7.515625 
L 36.8125 0 
L 27.59375 0 
Q 17.1875 0 13.234375 3.875 
Q 9.28125 7.765625 9.28125 18.015625 
L 9.28125 47.703125 
L 2.6875 47.703125 
L 2.6875 54.6875 
L 9.28125 54.6875 
L 9.28125 70.21875 
z
" id="BitstreamVeraSans-Roman-74"/>
      </defs>
      <g transform="translate(99.60125 407.28175)rotate(-90.0)scale(0.08 -0.08)">
       <use xlink:href="#BitstreamVeraSans-Roman-44"/>
       <use x="77.001953125" xlink:href="#BitstreamVeraSans-Roman-65"/>
       <use x="138.525390625" xlink:href="#BitstreamVeraSans-Roman-66"/>
       <use x="173.73046875" xlink:href="#BitstreamVeraSans-Roman-65"/>
       <use x="235.25390625" xlink:href="#BitstreamVeraSans-Roman-63"/>
       <use x="290.234375" xlink:href="#BitstreamVeraSans-Roman-74"/>
       <use x="329.443359375" xlink:href="#BitstreamVeraSans-Roman-6f"/>
       <use x="390.625" xlink:href="#BitstreamVeraSans-Roman-72"/>
      </g>
     </g>
    </g>
    <g id="xtick_2">
     <g id="line2d_3">
      <g>
       <use style="stroke:#000000;stroke-width:0.5;" x="171.79375" xlink:href="#m72192c000d" y="368.74175"/>
      </g>
     </g>
     <g id="line2d_4">
      <g>
       <use style="stroke:#000000;stroke-width:0.5;" x="171.79375" xlink:href="#m0d42167d33" y="23.14175"/>
      </g>
     </g>
     <g id="text_2">
      <!-- Bully -->
      <defs>
       <path d="M 19.671875 34.8125 
L 19.671875 8.109375 
L 35.5 8.109375 
Q 43.453125 8.109375 47.28125 11.40625 
Q 51.125 14.703125 51.125 21.484375 
Q 51.125 28.328125 47.28125 31.5625 
Q 43.453125 34.8125 35.5 34.8125 
z
M 19.671875 64.796875 
L 19.671875 42.828125 
L 34.28125 42.828125 
Q 41.5 42.828125 45.03125 45.53125 
Q 48.578125 48.25 48.578125 53.8125 
Q 48.578125 59.328125 45.03125 62.0625 
Q 41.5 64.796875 34.28125 64.796875 
z
M 9.8125 72.90625 
L 35.015625 72.90625 
Q 46.296875 72.90625 52.390625 68.21875 
Q 58.5 63.53125 58.5 54.890625 
Q 58.5 48.1875 55.375 44.234375 
Q 52.25 40.28125 46.1875 39.3125 
Q 53.46875 37.75 57.5 32.78125 
Q 61.53125 27.828125 61.53125 20.40625 
Q 61.53125 10.640625 54.890625 5.3125 
Q 48.25 0 35.984375 0 
L 9.8125 0 
z
" id="BitstreamVeraSans-Roman-42"/>
       <path d="M 8.5 21.578125 
L 8.5 54.6875 
L 17.484375 54.6875 
L 17.484375 21.921875 
Q 17.484375 14.15625 20.5 10.265625 
Q 23.53125 6.390625 29.59375 6.390625 
Q 36.859375 6.390625 41.078125 11.03125 
Q 45.3125 15.671875 45.3125 23.6875 
L 45.3125 54.6875 
L 54.296875 54.6875 
L 54.296875 0 
L 45.3125 0 
L 45.3125 8.40625 
Q 42.046875 3.421875 37.71875 1 
Q 33.40625 -1.421875 27.6875 -1.421875 
Q 18.265625 -1.421875 13.375 4.4375 
Q 8.5 10.296875 8.5 21.578125 
" id="BitstreamVeraSans-Roman-75"/>
       <path d="M 32.171875 -5.078125 
Q 28.375 -14.84375 24.75 -17.8125 
Q 21.140625 -20.796875 15.09375 -20.796875 
L 7.90625 -20.796875 
L 7.90625 -13.28125 
L 13.1875 -13.28125 
Q 16.890625 -13.28125 18.9375 -11.515625 
Q 21 -9.765625 23.484375 -3.21875 
L 25.09375 0.875 
L 2.984375 54.6875 
L 12.5 54.6875 
L 29.59375 11.921875 
L 46.6875 54.6875 
L 56.203125 54.6875 
z
" id="BitstreamVeraSans-Roman-79"/>
       <path d="M 9.421875 75.984375 
L 18.40625 75.984375 
L 18.40625 0 
L 9.421875 0 
z
" id="BitstreamVeraSans-Roman-6c"/>
      </defs>
      <g transform="translate(174.00125 392.4805)rotate(-90.0)scale(0.08 -0.08)">
       <use xlink:href="#BitstreamVeraSans-Roman-42"/>
       <use x="68.603515625" xlink:href="#BitstreamVeraSans-Roman-75"/>
       <use x="131.982421875" xlink:href="#BitstreamVeraSans-Roman-6c"/>
       <use x="159.765625" xlink:href="#BitstreamVeraSans-Roman-6c"/>
       <use x="187.548828125" xlink:href="#BitstreamVeraSans-Roman-79"/>
      </g>
     </g>
    </g>
    <g id="xtick_3">
     <g id="line2d_5">
      <g>
       <use style="stroke:#000000;stroke-width:0.5;" x="246.19375" xlink:href="#m72192c000d" y="368.74175"/>
      </g>
     </g>
     <g id="line2d_6">
      <g>
       <use style="stroke:#000000;stroke-width:0.5;" x="246.19375" xlink:href="#m0d42167d33" y="23.14175"/>
      </g>
     </g>
     <g id="text_3">
      <!-- Suspicious Tit For Tat -->
      <defs>
       <path d="M 18.109375 8.203125 
L 18.109375 -20.796875 
L 9.078125 -20.796875 
L 9.078125 54.6875 
L 18.109375 54.6875 
L 18.109375 46.390625 
Q 20.953125 51.265625 25.265625 53.625 
Q 29.59375 56 35.59375 56 
Q 45.5625 56 51.78125 48.09375 
Q 58.015625 40.1875 58.015625 27.296875 
Q 58.015625 14.40625 51.78125 6.484375 
Q 45.5625 -1.421875 35.59375 -1.421875 
Q 29.59375 -1.421875 25.265625 0.953125 
Q 20.953125 3.328125 18.109375 8.203125 
M 48.6875 27.296875 
Q 48.6875 37.203125 44.609375 42.84375 
Q 40.53125 48.484375 33.40625 48.484375 
Q 26.265625 48.484375 22.1875 42.84375 
Q 18.109375 37.203125 18.109375 27.296875 
Q 18.109375 17.390625 22.1875 11.75 
Q 26.265625 6.109375 33.40625 6.109375 
Q 40.53125 6.109375 44.609375 11.75 
Q 48.6875 17.390625 48.6875 27.296875 
" id="BitstreamVeraSans-Roman-70"/>
       <path d="M 9.421875 54.6875 
L 18.40625 54.6875 
L 18.40625 0 
L 9.421875 0 
z
M 9.421875 75.984375 
L 18.40625 75.984375 
L 18.40625 64.59375 
L 9.421875 64.59375 
z
" id="BitstreamVeraSans-Roman-69"/>
       <path d="M 44.28125 53.078125 
L 44.28125 44.578125 
Q 40.484375 46.53125 36.375 47.5 
Q 32.28125 48.484375 27.875 48.484375 
Q 21.1875 48.484375 17.84375 46.4375 
Q 14.5 44.390625 14.5 40.28125 
Q 14.5 37.15625 16.890625 35.375 
Q 19.28125 33.59375 26.515625 31.984375 
L 29.59375 31.296875 
Q 39.15625 29.25 43.1875 25.515625 
Q 47.21875 21.78125 47.21875 15.09375 
Q 47.21875 7.46875 41.1875 3.015625 
Q 35.15625 -1.421875 24.609375 -1.421875 
Q 20.21875 -1.421875 15.453125 -0.5625 
Q 10.6875 0.296875 5.421875 2 
L 5.421875 11.28125 
Q 10.40625 8.6875 15.234375 7.390625 
Q 20.0625 6.109375 24.8125 6.109375 
Q 31.15625 6.109375 34.5625 8.28125 
Q 37.984375 10.453125 37.984375 14.40625 
Q 37.984375 18.0625 35.515625 20.015625 
Q 33.0625 21.96875 24.703125 23.78125 
L 21.578125 24.515625 
Q 13.234375 26.265625 9.515625 29.90625 
Q 5.8125 33.546875 5.8125 39.890625 
Q 5.8125 47.609375 11.28125 51.796875 
Q 16.75 56 26.8125 56 
Q 31.78125 56 36.171875 55.265625 
Q 40.578125 54.546875 44.28125 53.078125 
" id="BitstreamVeraSans-Roman-73"/>
       <path id="BitstreamVeraSans-Roman-20"/>
       <path d="M 9.8125 72.90625 
L 51.703125 72.90625 
L 51.703125 64.59375 
L 19.671875 64.59375 
L 19.671875 43.109375 
L 48.578125 43.109375 
L 48.578125 34.8125 
L 19.671875 34.8125 
L 19.671875 0 
L 9.8125 0 
z
" id="BitstreamVeraSans-Roman-46"/>
       <path d="M -0.296875 72.90625 
L 61.375 72.90625 
L 61.375 64.59375 
L 35.5 64.59375 
L 35.5 0 
L 25.59375 0 
L 25.59375 64.59375 
L -0.296875 64.59375 
z
" id="BitstreamVeraSans-Roman-54"/>
       <path d="M 53.515625 70.515625 
L 53.515625 60.890625 
Q 47.90625 63.578125 42.921875 64.890625 
Q 37.9375 66.21875 33.296875 66.21875 
Q 25.25 66.21875 20.875 63.09375 
Q 16.5 59.96875 16.5 54.203125 
Q 16.5 49.359375 19.40625 46.890625 
Q 22.3125 44.4375 30.421875 42.921875 
L 36.375 41.703125 
Q 47.40625 39.59375 52.65625 34.296875 
Q 57.90625 29 57.90625 20.125 
Q 57.90625 9.515625 50.796875 4.046875 
Q 43.703125 -1.421875 29.984375 -1.421875 
Q 24.8125 -1.421875 18.96875 -0.25 
Q 13.140625 0.921875 6.890625 3.21875 
L 6.890625 13.375 
Q 12.890625 10.015625 18.65625 8.296875 
Q 24.421875 6.59375 29.984375 6.59375 
Q 38.421875 6.59375 43.015625 9.90625 
Q 47.609375 13.234375 47.609375 19.390625 
Q 47.609375 24.75 44.3125 27.78125 
Q 41.015625 30.8125 33.5 32.328125 
L 27.484375 33.5 
Q 16.453125 35.6875 11.515625 40.375 
Q 6.59375 45.0625 6.59375 53.421875 
Q 6.59375 63.09375 13.40625 68.65625 
Q 20.21875 74.21875 32.171875 74.21875 
Q 37.3125 74.21875 42.625 73.28125 
Q 47.953125 72.359375 53.515625 70.515625 
" id="BitstreamVeraSans-Roman-53"/>
       <path d="M 34.28125 27.484375 
Q 23.390625 27.484375 19.1875 25 
Q 14.984375 22.515625 14.984375 16.5 
Q 14.984375 11.71875 18.140625 8.90625 
Q 21.296875 6.109375 26.703125 6.109375 
Q 34.1875 6.109375 38.703125 11.40625 
Q 43.21875 16.703125 43.21875 25.484375 
L 43.21875 27.484375 
z
M 52.203125 31.203125 
L 52.203125 0 
L 43.21875 0 
L 43.21875 8.296875 
Q 40.140625 3.328125 35.546875 0.953125 
Q 30.953125 -1.421875 24.3125 -1.421875 
Q 15.921875 -1.421875 10.953125 3.296875 
Q 6 8.015625 6 15.921875 
Q 6 25.140625 12.171875 29.828125 
Q 18.359375 34.515625 30.609375 34.515625 
L 43.21875 34.515625 
L 43.21875 35.40625 
Q 43.21875 41.609375 39.140625 45 
Q 35.0625 48.390625 27.6875 48.390625 
Q 23 48.390625 18.546875 47.265625 
Q 14.109375 46.140625 10.015625 43.890625 
L 10.015625 52.203125 
Q 14.9375 54.109375 19.578125 55.046875 
Q 24.21875 56 28.609375 56 
Q 40.484375 56 46.34375 49.84375 
Q 52.203125 43.703125 52.203125 31.203125 
" id="BitstreamVeraSans-Roman-61"/>
      </defs>
      <g transform="translate(248.40125 458.668)rotate(-90.0)scale(0.08 -0.08)">
       <use xlink:href="#BitstreamVeraSans-Roman-53"/>
       <use x="63.4765625" xlink:href="#BitstreamVeraSans-Roman-75"/>
       <use x="126.85546875" xlink:href="#BitstreamVeraSans-Roman-73"/>
       <use x="178.955078125" xlink:href="#BitstreamVeraSans-Roman-70"/>
       <use x="242.431640625" xlink:href="#BitstreamVeraSans-Roman-69"/>
       <use x="270.21484375" xlink:href="#BitstreamVeraSans-Roman-63"/>
       <use x="325.1953125" xlink:href="#BitstreamVeraSans-Roman-69"/>
       <use x="352.978515625" xlink:href="#BitstreamVeraSans-Roman-6f"/>
       <use x="414.16015625" xlink:href="#BitstreamVeraSans-Roman-75"/>
       <use x="477.5390625" xlink:href="#BitstreamVeraSans-Roman-73"/>
       <use x="529.638671875" xlink:href="#BitstreamVeraSans-Roman-20"/>
       <use x="561.42578125" xlink:href="#BitstreamVeraSans-Roman-54"/>
       <use x="622.462890625" xlink:href="#BitstreamVeraSans-Roman-69"/>
       <use x="650.24609375" xlink:href="#BitstreamVeraSans-Roman-74"/>
       <use x="689.455078125" xlink:href="#BitstreamVeraSans-Roman-20"/>
       <use x="721.2421875" xlink:href="#BitstreamVeraSans-Roman-46"/>
       <use x="778.71484375" xlink:href="#BitstreamVeraSans-Roman-6f"/>
       <use x="839.896484375" xlink:href="#BitstreamVeraSans-Roman-72"/>
       <use x="881.009765625" xlink:href="#BitstreamVeraSans-Roman-20"/>
       <use x="912.796875" xlink:href="#BitstreamVeraSans-Roman-54"/>
       <use x="973.630859375" xlink:href="#BitstreamVeraSans-Roman-61"/>
       <use x="1034.91015625" xlink:href="#BitstreamVeraSans-Roman-74"/>
      </g>
     </g>
    </g>
    <g id="xtick_4">
     <g id="line2d_7">
      <g>
       <use style="stroke:#000000;stroke-width:0.5;" x="320.59375" xlink:href="#m72192c000d" y="368.74175"/>
      </g>
     </g>
     <g id="line2d_8">
      <g>
       <use style="stroke:#000000;stroke-width:0.5;" x="320.59375" xlink:href="#m0d42167d33" y="23.14175"/>
      </g>
     </g>
     <g id="text_4">
      <!-- Alternator -->
      <defs>
       <path d="M 34.1875 63.1875 
L 20.796875 26.90625 
L 47.609375 26.90625 
z
M 28.609375 72.90625 
L 39.796875 72.90625 
L 67.578125 0 
L 57.328125 0 
L 50.6875 18.703125 
L 17.828125 18.703125 
L 11.1875 0 
L 0.78125 0 
z
" id="BitstreamVeraSans-Roman-41"/>
       <path d="M 54.890625 33.015625 
L 54.890625 0 
L 45.90625 0 
L 45.90625 32.71875 
Q 45.90625 40.484375 42.875 44.328125 
Q 39.84375 48.1875 33.796875 48.1875 
Q 26.515625 48.1875 22.3125 43.546875 
Q 18.109375 38.921875 18.109375 30.90625 
L 18.109375 0 
L 9.078125 0 
L 9.078125 54.6875 
L 18.109375 54.6875 
L 18.109375 46.1875 
Q 21.34375 51.125 25.703125 53.5625 
Q 30.078125 56 35.796875 56 
Q 45.21875 56 50.046875 50.171875 
Q 54.890625 44.34375 54.890625 33.015625 
" id="BitstreamVeraSans-Roman-6e"/>
      </defs>
      <g transform="translate(322.80125 413.0755)rotate(-90.0)scale(0.08 -0.08)">
       <use xlink:href="#BitstreamVeraSans-Roman-41"/>
       <use x="68.408203125" xlink:href="#BitstreamVeraSans-Roman-6c"/>
       <use x="96.19140625" xlink:href="#BitstreamVeraSans-Roman-74"/>
       <use x="135.400390625" xlink:href="#BitstreamVeraSans-Roman-65"/>
       <use x="196.923828125" xlink:href="#BitstreamVeraSans-Roman-72"/>
       <use x="238.021484375" xlink:href="#BitstreamVeraSans-Roman-6e"/>
       <use x="301.400390625" xlink:href="#BitstreamVeraSans-Roman-61"/>
       <use x="362.6796875" xlink:href="#BitstreamVeraSans-Roman-74"/>
       <use x="401.888671875" xlink:href="#BitstreamVeraSans-Roman-6f"/>
       <use x="463.0703125" xlink:href="#BitstreamVeraSans-Roman-72"/>
      </g>
     </g>
    </g>
    <g id="xtick_5">
     <g id="line2d_9">
      <g>
       <use style="stroke:#000000;stroke-width:0.5;" x="394.99375" xlink:href="#m72192c000d" y="368.74175"/>
      </g>
     </g>
     <g id="line2d_10">
      <g>
       <use style="stroke:#000000;stroke-width:0.5;" x="394.99375" xlink:href="#m0d42167d33" y="23.14175"/>
      </g>
     </g>
     <g id="text_5">
      <!-- Tit For Tat -->
      <g transform="translate(397.20125 413.75425)rotate(-90.0)scale(0.08 -0.08)">
       <use xlink:href="#BitstreamVeraSans-Roman-54"/>
       <use x="61.037109375" xlink:href="#BitstreamVeraSans-Roman-69"/>
       <use x="88.8203125" xlink:href="#BitstreamVeraSans-Roman-74"/>
       <use x="128.029296875" xlink:href="#BitstreamVeraSans-Roman-20"/>
       <use x="159.81640625" xlink:href="#BitstreamVeraSans-Roman-46"/>
       <use x="217.2890625" xlink:href="#BitstreamVeraSans-Roman-6f"/>
       <use x="278.470703125" xlink:href="#BitstreamVeraSans-Roman-72"/>
       <use x="319.583984375" xlink:href="#BitstreamVeraSans-Roman-20"/>
       <use x="351.37109375" xlink:href="#BitstreamVeraSans-Roman-54"/>
       <use x="412.205078125" xlink:href="#BitstreamVeraSans-Roman-61"/>
       <use x="473.484375" xlink:href="#BitstreamVeraSans-Roman-74"/>
      </g>
     </g>
    </g>
    <g id="xtick_6">
     <g id="line2d_11">
      <g>
       <use style="stroke:#000000;stroke-width:0.5;" x="469.39375" xlink:href="#m72192c000d" y="368.74175"/>
      </g>
     </g>
     <g id="line2d_12">
      <g>
       <use style="stroke:#000000;stroke-width:0.5;" x="469.39375" xlink:href="#m0d42167d33" y="23.14175"/>
      </g>
     </g>
     <g id="text_6">
      <!-- Anti Tit For Tat -->
      <g transform="translate(471.60125 432.198)rotate(-90.0)scale(0.08 -0.08)">
       <use xlink:href="#BitstreamVeraSans-Roman-41"/>
       <use x="68.408203125" xlink:href="#BitstreamVeraSans-Roman-6e"/>
       <use x="131.787109375" xlink:href="#BitstreamVeraSans-Roman-74"/>
       <use x="170.99609375" xlink:href="#BitstreamVeraSans-Roman-69"/>
       <use x="198.779296875" xlink:href="#BitstreamVeraSans-Roman-20"/>
       <use x="230.56640625" xlink:href="#BitstreamVeraSans-Roman-54"/>
       <use x="291.603515625" xlink:href="#BitstreamVeraSans-Roman-69"/>
       <use x="319.38671875" xlink:href="#BitstreamVeraSans-Roman-74"/>
       <use x="358.595703125" xlink:href="#BitstreamVeraSans-Roman-20"/>
       <use x="390.3828125" xlink:href="#BitstreamVeraSans-Roman-46"/>
       <use x="447.85546875" xlink:href="#BitstreamVeraSans-Roman-6f"/>
       <use x="509.037109375" xlink:href="#BitstreamVeraSans-Roman-72"/>
       <use x="550.150390625" xlink:href="#BitstreamVeraSans-Roman-20"/>
       <use x="581.9375" xlink:href="#BitstreamVeraSans-Roman-54"/>
       <use x="642.771484375" xlink:href="#BitstreamVeraSans-Roman-61"/>
       <use x="704.05078125" xlink:href="#BitstreamVeraSans-Roman-74"/>
      </g>
     </g>
    </g>
    <g id="xtick_7">
     <g id="line2d_13">
      <g>
       <use style="stroke:#000000;stroke-width:0.5;" x="543.79375" xlink:href="#m72192c000d" y="368.74175"/>
      </g>
     </g>
     <g id="line2d_14">
      <g>
       <use style="stroke:#000000;stroke-width:0.5;" x="543.79375" xlink:href="#m0d42167d33" y="23.14175"/>
      </g>
     </g>
     <g id="text_7">
      <!-- Win-Stay Lose-Shift -->
      <defs>
       <path d="M 4.890625 31.390625 
L 31.203125 31.390625 
L 31.203125 23.390625 
L 4.890625 23.390625 
z
" id="BitstreamVeraSans-Roman-2d"/>
       <path d="M 3.328125 72.90625 
L 13.28125 72.90625 
L 28.609375 11.28125 
L 43.890625 72.90625 
L 54.984375 72.90625 
L 70.3125 11.28125 
L 85.59375 72.90625 
L 95.609375 72.90625 
L 77.296875 0 
L 64.890625 0 
L 49.515625 63.28125 
L 33.984375 0 
L 21.578125 0 
z
" id="BitstreamVeraSans-Roman-57"/>
       <path d="M 9.8125 72.90625 
L 19.671875 72.90625 
L 19.671875 8.296875 
L 55.171875 8.296875 
L 55.171875 0 
L 9.8125 0 
z
" id="BitstreamVeraSans-Roman-4c"/>
       <path d="M 54.890625 33.015625 
L 54.890625 0 
L 45.90625 0 
L 45.90625 32.71875 
Q 45.90625 40.484375 42.875 44.328125 
Q 39.84375 48.1875 33.796875 48.1875 
Q 26.515625 48.1875 22.3125 43.546875 
Q 18.109375 38.921875 18.109375 30.90625 
L 18.109375 0 
L 9.078125 0 
L 9.078125 75.984375 
L 18.109375 75.984375 
L 18.109375 46.1875 
Q 21.34375 51.125 25.703125 53.5625 
Q 30.078125 56 35.796875 56 
Q 45.21875 56 50.046875 50.171875 
Q 54.890625 44.34375 54.890625 33.015625 
" id="BitstreamVeraSans-Roman-68"/>
      </defs>
      <g transform="translate(546.00125 450.873)rotate(-90.0)scale(0.08 -0.08)">
       <use xlink:href="#BitstreamVeraSans-Roman-57"/>
       <use x="98.845703125" xlink:href="#BitstreamVeraSans-Roman-69"/>
       <use x="126.62890625" xlink:href="#BitstreamVeraSans-Roman-6e"/>
       <use x="190.0078125" xlink:href="#BitstreamVeraSans-Roman-2d"/>
       <use x="226.091796875" xlink:href="#BitstreamVeraSans-Roman-53"/>
       <use x="289.568359375" xlink:href="#BitstreamVeraSans-Roman-74"/>
       <use x="328.77734375" xlink:href="#BitstreamVeraSans-Roman-61"/>
       <use x="390.056640625" xlink:href="#BitstreamVeraSans-Roman-79"/>
       <use x="449.236328125" xlink:href="#BitstreamVeraSans-Roman-20"/>
       <use x="481.0234375" xlink:href="#BitstreamVeraSans-Roman-4c"/>
       <use x="536.720703125" xlink:href="#BitstreamVeraSans-Roman-6f"/>
       <use x="597.90234375" xlink:href="#BitstreamVeraSans-Roman-73"/>
       <use x="650.001953125" xlink:href="#BitstreamVeraSans-Roman-65"/>
       <use x="711.525390625" xlink:href="#BitstreamVeraSans-Roman-2d"/>
       <use x="747.609375" xlink:href="#BitstreamVeraSans-Roman-53"/>
       <use x="811.0859375" xlink:href="#BitstreamVeraSans-Roman-68"/>
       <use x="874.46484375" xlink:href="#BitstreamVeraSans-Roman-69"/>
       <use x="902.248046875" xlink:href="#BitstreamVeraSans-Roman-66"/>
       <use x="937.4375" xlink:href="#BitstreamVeraSans-Roman-74"/>
      </g>
     </g>
    </g>
    <g id="xtick_8">
     <g id="line2d_15">
      <g>
       <use style="stroke:#000000;stroke-width:0.5;" x="618.19375" xlink:href="#m72192c000d" y="368.74175"/>
      </g>
     </g>
     <g id="line2d_16">
      <g>
       <use style="stroke:#000000;stroke-width:0.5;" x="618.19375" xlink:href="#m0d42167d33" y="23.14175"/>
      </g>
     </g>
     <g id="text_8">
      <!-- Cooperator -->
      <defs>
       <path d="M 64.40625 67.28125 
L 64.40625 56.890625 
Q 59.421875 61.53125 53.78125 63.8125 
Q 48.140625 66.109375 41.796875 66.109375 
Q 29.296875 66.109375 22.65625 58.46875 
Q 16.015625 50.828125 16.015625 36.375 
Q 16.015625 21.96875 22.65625 14.328125 
Q 29.296875 6.6875 41.796875 6.6875 
Q 48.140625 6.6875 53.78125 8.984375 
Q 59.421875 11.28125 64.40625 15.921875 
L 64.40625 5.609375 
Q 59.234375 2.09375 53.4375 0.328125 
Q 47.65625 -1.421875 41.21875 -1.421875 
Q 24.65625 -1.421875 15.125 8.703125 
Q 5.609375 18.84375 5.609375 36.375 
Q 5.609375 53.953125 15.125 64.078125 
Q 24.65625 74.21875 41.21875 74.21875 
Q 47.75 74.21875 53.53125 72.484375 
Q 59.328125 70.75 64.40625 67.28125 
" id="BitstreamVeraSans-Roman-43"/>
      </defs>
      <g transform="translate(620.40125 417.6305)rotate(-90.0)scale(0.08 -0.08)">
       <use xlink:href="#BitstreamVeraSans-Roman-43"/>
       <use x="69.82421875" xlink:href="#BitstreamVeraSans-Roman-6f"/>
       <use x="131.005859375" xlink:href="#BitstreamVeraSans-Roman-6f"/>
       <use x="192.1875" xlink:href="#BitstreamVeraSans-Roman-70"/>
       <use x="255.6640625" xlink:href="#BitstreamVeraSans-Roman-65"/>
       <use x="317.1875" xlink:href="#BitstreamVeraSans-Roman-72"/>
       <use x="358.30078125" xlink:href="#BitstreamVeraSans-Roman-61"/>
       <use x="419.580078125" xlink:href="#BitstreamVeraSans-Roman-74"/>
       <use x="458.7890625" xlink:href="#BitstreamVeraSans-Roman-6f"/>
       <use x="519.970703125" xlink:href="#BitstreamVeraSans-Roman-72"/>
      </g>
     </g>
    </g>
   </g>
   <g id="matplotlib.axis_2">
    <g id="ytick_1">
     <g id="line2d_17">
      <defs>
       <path d="M 0 0 
L 4 0 
" id="m5509b2050c" style="stroke:#000000;stroke-width:0.5;"/>
      </defs>
      <g>
       <use style="stroke:#000000;stroke-width:0.5;" x="22.99375" xlink:href="#m5509b2050c" y="368.74175"/>
      </g>
     </g>
     <g id="line2d_18">
      <defs>
       <path d="M 0 0 
L -4 0 
" id="m5a7631e081" style="stroke:#000000;stroke-width:0.5;"/>
      </defs>
      <g>
       <use style="stroke:#000000;stroke-width:0.5;" x="692.59375" xlink:href="#m5a7631e081" y="368.74175"/>
      </g>
     </g>
     <g id="text_9">
      <!-- 6 -->
      <defs>
       <path d="M 10.59375 35.5 
L 73.1875 35.5 
L 73.1875 27.203125 
L 10.59375 27.203125 
z
" id="BitstreamVeraSans-Roman-2212"/>
       <path d="M 33.015625 40.375 
Q 26.375 40.375 22.484375 35.828125 
Q 18.609375 31.296875 18.609375 23.390625 
Q 18.609375 15.53125 22.484375 10.953125 
Q 26.375 6.390625 33.015625 6.390625 
Q 39.65625 6.390625 43.53125 10.953125 
Q 47.40625 15.53125 47.40625 23.390625 
Q 47.40625 31.296875 43.53125 35.828125 
Q 39.65625 40.375 33.015625 40.375 
M 52.59375 71.296875 
L 52.59375 62.3125 
Q 48.875 64.0625 45.09375 64.984375 
Q 41.3125 65.921875 37.59375 65.921875 
Q 27.828125 65.921875 22.671875 59.328125 
Q 17.53125 52.734375 16.796875 39.40625 
Q 19.671875 43.65625 24.015625 45.921875 
Q 28.375 48.1875 33.59375 48.1875 
Q 44.578125 48.1875 50.953125 41.515625 
Q 57.328125 34.859375 57.328125 23.390625 
Q 57.328125 12.15625 50.6875 5.359375 
Q 44.046875 -1.421875 33.015625 -1.421875 
Q 20.359375 -1.421875 13.671875 8.265625 
Q 6.984375 17.96875 6.984375 36.375 
Q 6.984375 53.65625 15.1875 63.9375 
Q 23.390625 74.21875 37.203125 74.21875 
Q 40.921875 74.21875 44.703125 73.484375 
Q 48.484375 72.75 52.59375 71.296875 
" id="BitstreamVeraSans-Roman-36"/>
      </defs>
      <g transform="translate(7.2 370.94925)scale(0.08 -0.08)">
       <use xlink:href="#BitstreamVeraSans-Roman-2212"/>
       <use x="83.7890625" xlink:href="#BitstreamVeraSans-Roman-36"/>
      </g>
     </g>
    </g>
    <g id="ytick_2">
     <g id="line2d_19">
      <g>
       <use style="stroke:#000000;stroke-width:0.5;" x="22.99375" xlink:href="#m5509b2050c" y="311.14175"/>
      </g>
     </g>
     <g id="line2d_20">
      <g>
       <use style="stroke:#000000;stroke-width:0.5;" x="692.59375" xlink:href="#m5a7631e081" y="311.14175"/>
      </g>
     </g>
     <g id="text_10">
      <!-- 4 -->
      <defs>
       <path d="M 37.796875 64.3125 
L 12.890625 25.390625 
L 37.796875 25.390625 
z
M 35.203125 72.90625 
L 47.609375 72.90625 
L 47.609375 25.390625 
L 58.015625 25.390625 
L 58.015625 17.1875 
L 47.609375 17.1875 
L 47.609375 0 
L 37.796875 0 
L 37.796875 17.1875 
L 4.890625 17.1875 
L 4.890625 26.703125 
z
" id="BitstreamVeraSans-Roman-34"/>
      </defs>
      <g transform="translate(7.2 313.34925)scale(0.08 -0.08)">
       <use xlink:href="#BitstreamVeraSans-Roman-2212"/>
       <use x="83.7890625" xlink:href="#BitstreamVeraSans-Roman-34"/>
      </g>
     </g>
    </g>
    <g id="ytick_3">
     <g id="line2d_21">
      <g>
       <use style="stroke:#000000;stroke-width:0.5;" x="22.99375" xlink:href="#m5509b2050c" y="253.54175"/>
      </g>
     </g>
     <g id="line2d_22">
      <g>
       <use style="stroke:#000000;stroke-width:0.5;" x="692.59375" xlink:href="#m5a7631e081" y="253.54175"/>
      </g>
     </g>
     <g id="text_11">
      <!-- 2 -->
      <defs>
       <path d="M 19.1875 8.296875 
L 53.609375 8.296875 
L 53.609375 0 
L 7.328125 0 
L 7.328125 8.296875 
Q 12.9375 14.109375 22.625 23.890625 
Q 32.328125 33.6875 34.8125 36.53125 
Q 39.546875 41.84375 41.421875 45.53125 
Q 43.3125 49.21875 43.3125 52.78125 
Q 43.3125 58.59375 39.234375 62.25 
Q 35.15625 65.921875 28.609375 65.921875 
Q 23.96875 65.921875 18.8125 64.3125 
Q 13.671875 62.703125 7.8125 59.421875 
L 7.8125 69.390625 
Q 13.765625 71.78125 18.9375 73 
Q 24.125 74.21875 28.421875 74.21875 
Q 39.75 74.21875 46.484375 68.546875 
Q 53.21875 62.890625 53.21875 53.421875 
Q 53.21875 48.921875 51.53125 44.890625 
Q 49.859375 40.875 45.40625 35.40625 
Q 44.1875 33.984375 37.640625 27.21875 
Q 31.109375 20.453125 19.1875 8.296875 
" id="BitstreamVeraSans-Roman-32"/>
      </defs>
      <g transform="translate(7.2 255.74925)scale(0.08 -0.08)">
       <use xlink:href="#BitstreamVeraSans-Roman-2212"/>
       <use x="83.7890625" xlink:href="#BitstreamVeraSans-Roman-32"/>
      </g>
     </g>
    </g>
    <g id="ytick_4">
     <g id="line2d_23">
      <g>
       <use style="stroke:#000000;stroke-width:0.5;" x="22.99375" xlink:href="#m5509b2050c" y="195.94175"/>
      </g>
     </g>
     <g id="line2d_24">
      <g>
       <use style="stroke:#000000;stroke-width:0.5;" x="692.59375" xlink:href="#m5a7631e081" y="195.94175"/>
      </g>
     </g>
     <g id="text_12">
      <!-- 0 -->
      <defs>
       <path d="M 31.78125 66.40625 
Q 24.171875 66.40625 20.328125 58.90625 
Q 16.5 51.421875 16.5 36.375 
Q 16.5 21.390625 20.328125 13.890625 
Q 24.171875 6.390625 31.78125 6.390625 
Q 39.453125 6.390625 43.28125 13.890625 
Q 47.125 21.390625 47.125 36.375 
Q 47.125 51.421875 43.28125 58.90625 
Q 39.453125 66.40625 31.78125 66.40625 
M 31.78125 74.21875 
Q 44.046875 74.21875 50.515625 64.515625 
Q 56.984375 54.828125 56.984375 36.375 
Q 56.984375 17.96875 50.515625 8.265625 
Q 44.046875 -1.421875 31.78125 -1.421875 
Q 19.53125 -1.421875 13.0625 8.265625 
Q 6.59375 17.96875 6.59375 36.375 
Q 6.59375 54.828125 13.0625 64.515625 
Q 19.53125 74.21875 31.78125 74.21875 
" id="BitstreamVeraSans-Roman-30"/>
      </defs>
      <g transform="translate(13.90375 198.14925)scale(0.08 -0.08)">
       <use xlink:href="#BitstreamVeraSans-Roman-30"/>
      </g>
     </g>
    </g>
    <g id="ytick_5">
     <g id="line2d_25">
      <g>
       <use style="stroke:#000000;stroke-width:0.5;" x="22.99375" xlink:href="#m5509b2050c" y="138.34175"/>
      </g>
     </g>
     <g id="line2d_26">
      <g>
       <use style="stroke:#000000;stroke-width:0.5;" x="692.59375" xlink:href="#m5a7631e081" y="138.34175"/>
      </g>
     </g>
     <g id="text_13">
      <!-- 2 -->
      <g transform="translate(13.90375 140.54925)scale(0.08 -0.08)">
       <use xlink:href="#BitstreamVeraSans-Roman-32"/>
      </g>
     </g>
    </g>
    <g id="ytick_6">
     <g id="line2d_27">
      <g>
       <use style="stroke:#000000;stroke-width:0.5;" x="22.99375" xlink:href="#m5509b2050c" y="80.74175"/>
      </g>
     </g>
     <g id="line2d_28">
      <g>
       <use style="stroke:#000000;stroke-width:0.5;" x="692.59375" xlink:href="#m5a7631e081" y="80.74175"/>
      </g>
     </g>
     <g id="text_14">
      <!-- 4 -->
      <g transform="translate(13.90375 82.94925)scale(0.08 -0.08)">
       <use xlink:href="#BitstreamVeraSans-Roman-34"/>
      </g>
     </g>
    </g>
    <g id="ytick_7">
     <g id="line2d_29">
      <g>
       <use style="stroke:#000000;stroke-width:0.5;" x="22.99375" xlink:href="#m5509b2050c" y="23.14175"/>
      </g>
     </g>
     <g id="line2d_30">
      <g>
       <use style="stroke:#000000;stroke-width:0.5;" x="692.59375" xlink:href="#m5a7631e081" y="23.14175"/>
      </g>
     </g>
     <g id="text_15">
      <!-- 6 -->
      <g transform="translate(13.90375 25.34925)scale(0.08 -0.08)">
       <use xlink:href="#BitstreamVeraSans-Roman-36"/>
      </g>
     </g>
    </g>
   </g>
   <g id="text_16">
    <!-- Std Payoffs. Prob end: 0.1, Repetitions: 2, Strategies: 8. -->
    <defs>
     <path d="M 11.71875 12.40625 
L 22.015625 12.40625 
L 22.015625 4 
L 14.015625 -11.625 
L 7.71875 -11.625 
L 11.71875 4 
z
" id="BitstreamVeraSans-Roman-2c"/>
     <path d="M 31.78125 34.625 
Q 24.75 34.625 20.71875 30.859375 
Q 16.703125 27.09375 16.703125 20.515625 
Q 16.703125 13.921875 20.71875 10.15625 
Q 24.75 6.390625 31.78125 6.390625 
Q 38.8125 6.390625 42.859375 10.171875 
Q 46.921875 13.96875 46.921875 20.515625 
Q 46.921875 27.09375 42.890625 30.859375 
Q 38.875 34.625 31.78125 34.625 
M 21.921875 38.8125 
Q 15.578125 40.375 12.03125 44.71875 
Q 8.5 49.078125 8.5 55.328125 
Q 8.5 64.0625 14.71875 69.140625 
Q 20.953125 74.21875 31.78125 74.21875 
Q 42.671875 74.21875 48.875 69.140625 
Q 55.078125 64.0625 55.078125 55.328125 
Q 55.078125 49.078125 51.53125 44.71875 
Q 48 40.375 41.703125 38.8125 
Q 48.828125 37.15625 52.796875 32.3125 
Q 56.78125 27.484375 56.78125 20.515625 
Q 56.78125 9.90625 50.3125 4.234375 
Q 43.84375 -1.421875 31.78125 -1.421875 
Q 19.734375 -1.421875 13.25 4.234375 
Q 6.78125 9.90625 6.78125 20.515625 
Q 6.78125 27.484375 10.78125 32.3125 
Q 14.796875 37.15625 21.921875 38.8125 
M 18.3125 54.390625 
Q 18.3125 48.734375 21.84375 45.5625 
Q 25.390625 42.390625 31.78125 42.390625 
Q 38.140625 42.390625 41.71875 45.5625 
Q 45.3125 48.734375 45.3125 54.390625 
Q 45.3125 60.0625 41.71875 63.234375 
Q 38.140625 66.40625 31.78125 66.40625 
Q 25.390625 66.40625 21.84375 63.234375 
Q 18.3125 60.0625 18.3125 54.390625 
" id="BitstreamVeraSans-Roman-38"/>
     <path d="M 45.40625 46.390625 
L 45.40625 75.984375 
L 54.390625 75.984375 
L 54.390625 0 
L 45.40625 0 
L 45.40625 8.203125 
Q 42.578125 3.328125 38.25 0.953125 
Q 33.9375 -1.421875 27.875 -1.421875 
Q 17.96875 -1.421875 11.734375 6.484375 
Q 5.515625 14.40625 5.515625 27.296875 
Q 5.515625 40.1875 11.734375 48.09375 
Q 17.96875 56 27.875 56 
Q 33.9375 56 38.25 53.625 
Q 42.578125 51.265625 45.40625 46.390625 
M 14.796875 27.296875 
Q 14.796875 17.390625 18.875 11.75 
Q 22.953125 6.109375 30.078125 6.109375 
Q 37.203125 6.109375 41.296875 11.75 
Q 45.40625 17.390625 45.40625 27.296875 
Q 45.40625 37.203125 41.296875 42.84375 
Q 37.203125 48.484375 30.078125 48.484375 
Q 22.953125 48.484375 18.875 42.84375 
Q 14.796875 37.203125 14.796875 27.296875 
" id="BitstreamVeraSans-Roman-64"/>
     <path d="M 11.71875 12.40625 
L 22.015625 12.40625 
L 22.015625 0 
L 11.71875 0 
z
M 11.71875 51.703125 
L 22.015625 51.703125 
L 22.015625 39.3125 
L 11.71875 39.3125 
z
" id="BitstreamVeraSans-Roman-3a"/>
     <path d="M 48.6875 27.296875 
Q 48.6875 37.203125 44.609375 42.84375 
Q 40.53125 48.484375 33.40625 48.484375 
Q 26.265625 48.484375 22.1875 42.84375 
Q 18.109375 37.203125 18.109375 27.296875 
Q 18.109375 17.390625 22.1875 11.75 
Q 26.265625 6.109375 33.40625 6.109375 
Q 40.53125 6.109375 44.609375 11.75 
Q 48.6875 17.390625 48.6875 27.296875 
M 18.109375 46.390625 
Q 20.953125 51.265625 25.265625 53.625 
Q 29.59375 56 35.59375 56 
Q 45.5625 56 51.78125 48.09375 
Q 58.015625 40.1875 58.015625 27.296875 
Q 58.015625 14.40625 51.78125 6.484375 
Q 45.5625 -1.421875 35.59375 -1.421875 
Q 29.59375 -1.421875 25.265625 0.953125 
Q 20.953125 3.328125 18.109375 8.203125 
L 18.109375 0 
L 9.078125 0 
L 9.078125 75.984375 
L 18.109375 75.984375 
z
" id="BitstreamVeraSans-Roman-62"/>
     <path d="M 10.6875 12.40625 
L 21 12.40625 
L 21 0 
L 10.6875 0 
z
" id="BitstreamVeraSans-Roman-2e"/>
     <path d="M 12.40625 8.296875 
L 28.515625 8.296875 
L 28.515625 63.921875 
L 10.984375 60.40625 
L 10.984375 69.390625 
L 28.421875 72.90625 
L 38.28125 72.90625 
L 38.28125 8.296875 
L 54.390625 8.296875 
L 54.390625 0 
L 12.40625 0 
z
" id="BitstreamVeraSans-Roman-31"/>
     <path d="M 44.390625 34.1875 
Q 47.5625 33.109375 50.5625 29.59375 
Q 53.5625 26.078125 56.59375 19.921875 
L 66.609375 0 
L 56 0 
L 46.6875 18.703125 
Q 43.0625 26.03125 39.671875 28.421875 
Q 36.28125 30.8125 30.421875 30.8125 
L 19.671875 30.8125 
L 19.671875 0 
L 9.8125 0 
L 9.8125 72.90625 
L 32.078125 72.90625 
Q 44.578125 72.90625 50.734375 67.671875 
Q 56.890625 62.453125 56.890625 51.90625 
Q 56.890625 45.015625 53.6875 40.46875 
Q 50.484375 35.9375 44.390625 34.1875 
M 19.671875 64.796875 
L 19.671875 38.921875 
L 32.078125 38.921875 
Q 39.203125 38.921875 42.84375 42.21875 
Q 46.484375 45.515625 46.484375 51.90625 
Q 46.484375 58.296875 42.84375 61.546875 
Q 39.203125 64.796875 32.078125 64.796875 
z
" id="BitstreamVeraSans-Roman-52"/>
     <path d="M 45.40625 27.984375 
Q 45.40625 37.75 41.375 43.109375 
Q 37.359375 48.484375 30.078125 48.484375 
Q 22.859375 48.484375 18.828125 43.109375 
Q 14.796875 37.75 14.796875 27.984375 
Q 14.796875 18.265625 18.828125 12.890625 
Q 22.859375 7.515625 30.078125 7.515625 
Q 37.359375 7.515625 41.375 12.890625 
Q 45.40625 18.265625 45.40625 27.984375 
M 54.390625 6.78125 
Q 54.390625 -7.171875 48.1875 -13.984375 
Q 42 -20.796875 29.203125 -20.796875 
Q 24.46875 -20.796875 20.265625 -20.09375 
Q 16.0625 -19.390625 12.109375 -17.921875 
L 12.109375 -9.1875 
Q 16.0625 -11.328125 19.921875 -12.34375 
Q 23.78125 -13.375 27.78125 -13.375 
Q 36.625 -13.375 41.015625 -8.765625 
Q 45.40625 -4.15625 45.40625 5.171875 
L 45.40625 9.625 
Q 42.625 4.78125 38.28125 2.390625 
Q 33.9375 0 27.875 0 
Q 17.828125 0 11.671875 7.65625 
Q 5.515625 15.328125 5.515625 27.984375 
Q 5.515625 40.671875 11.671875 48.328125 
Q 17.828125 56 27.875 56 
Q 33.9375 56 38.28125 53.609375 
Q 42.625 51.21875 45.40625 46.390625 
L 45.40625 54.6875 
L 54.390625 54.6875 
z
" id="BitstreamVeraSans-Roman-67"/>
     <path d="M 19.671875 64.796875 
L 19.671875 37.40625 
L 32.078125 37.40625 
Q 38.96875 37.40625 42.71875 40.96875 
Q 46.484375 44.53125 46.484375 51.125 
Q 46.484375 57.671875 42.71875 61.234375 
Q 38.96875 64.796875 32.078125 64.796875 
z
M 9.8125 72.90625 
L 32.078125 72.90625 
Q 44.34375 72.90625 50.609375 67.359375 
Q 56.890625 61.8125 56.890625 51.125 
Q 56.890625 40.328125 50.609375 34.8125 
Q 44.34375 29.296875 32.078125 29.296875 
L 19.671875 29.296875 
L 19.671875 0 
L 9.8125 0 
z
" id="BitstreamVeraSans-Roman-50"/>
    </defs>
    <g transform="translate(156.84175 18.14175)scale(0.144 -0.144)">
     <use xlink:href="#BitstreamVeraSans-Roman-53"/>
     <use x="63.4765625" xlink:href="#BitstreamVeraSans-Roman-74"/>
     <use x="102.685546875" xlink:href="#BitstreamVeraSans-Roman-64"/>
     <use x="166.162109375" xlink:href="#BitstreamVeraSans-Roman-20"/>
     <use x="197.94921875" xlink:href="#BitstreamVeraSans-Roman-50"/>
     <use x="258.189453125" xlink:href="#BitstreamVeraSans-Roman-61"/>
     <use x="319.46875" xlink:href="#BitstreamVeraSans-Roman-79"/>
     <use x="378.6484375" xlink:href="#BitstreamVeraSans-Roman-6f"/>
     <use x="439.830078125" xlink:href="#BitstreamVeraSans-Roman-66"/>
     <use x="475.03515625" xlink:href="#BitstreamVeraSans-Roman-66"/>
     <use x="510.240234375" xlink:href="#BitstreamVeraSans-Roman-73"/>
     <use x="562.33984375" xlink:href="#BitstreamVeraSans-Roman-2e"/>
     <use x="594.126953125" xlink:href="#BitstreamVeraSans-Roman-20"/>
     <use x="625.9140625" xlink:href="#BitstreamVeraSans-Roman-50"/>
     <use x="686.201171875" xlink:href="#BitstreamVeraSans-Roman-72"/>
     <use x="727.283203125" xlink:href="#BitstreamVeraSans-Roman-6f"/>
     <use x="788.46484375" xlink:href="#BitstreamVeraSans-Roman-62"/>
     <use x="851.94140625" xlink:href="#BitstreamVeraSans-Roman-20"/>
     <use x="883.728515625" xlink:href="#BitstreamVeraSans-Roman-65"/>
     <use x="945.251953125" xlink:href="#BitstreamVeraSans-Roman-6e"/>
     <use x="1008.630859375" xlink:href="#BitstreamVeraSans-Roman-64"/>
     <use x="1072.107421875" xlink:href="#BitstreamVeraSans-Roman-3a"/>
     <use x="1105.798828125" xlink:href="#BitstreamVeraSans-Roman-20"/>
     <use x="1137.5859375" xlink:href="#BitstreamVeraSans-Roman-30"/>
     <use x="1201.208984375" xlink:href="#BitstreamVeraSans-Roman-2e"/>
     <use x="1232.99609375" xlink:href="#BitstreamVeraSans-Roman-31"/>
     <use x="1296.619140625" xlink:href="#BitstreamVeraSans-Roman-2c"/>
     <use x="1328.40625" xlink:href="#BitstreamVeraSans-Roman-20"/>
     <use x="1360.193359375" xlink:href="#BitstreamVeraSans-Roman-52"/>
     <use x="1429.61328125" xlink:href="#BitstreamVeraSans-Roman-65"/>
     <use x="1491.13671875" xlink:href="#BitstreamVeraSans-Roman-70"/>
     <use x="1554.61328125" xlink:href="#BitstreamVeraSans-Roman-65"/>
     <use x="1616.13671875" xlink:href="#BitstreamVeraSans-Roman-74"/>
     <use x="1655.345703125" xlink:href="#BitstreamVeraSans-Roman-69"/>
     <use x="1683.12890625" xlink:href="#BitstreamVeraSans-Roman-74"/>
     <use x="1722.337890625" xlink:href="#BitstreamVeraSans-Roman-69"/>
     <use x="1750.12109375" xlink:href="#BitstreamVeraSans-Roman-6f"/>
     <use x="1811.302734375" xlink:href="#BitstreamVeraSans-Roman-6e"/>
     <use x="1874.681640625" xlink:href="#BitstreamVeraSans-Roman-73"/>
     <use x="1926.78125" xlink:href="#BitstreamVeraSans-Roman-3a"/>
     <use x="1960.47265625" xlink:href="#BitstreamVeraSans-Roman-20"/>
     <use x="1992.259765625" xlink:href="#BitstreamVeraSans-Roman-32"/>
     <use x="2055.8828125" xlink:href="#BitstreamVeraSans-Roman-2c"/>
     <use x="2087.669921875" xlink:href="#BitstreamVeraSans-Roman-20"/>
     <use x="2119.45703125" xlink:href="#BitstreamVeraSans-Roman-53"/>
     <use x="2182.93359375" xlink:href="#BitstreamVeraSans-Roman-74"/>
     <use x="2222.142578125" xlink:href="#BitstreamVeraSans-Roman-72"/>
     <use x="2263.255859375" xlink:href="#BitstreamVeraSans-Roman-61"/>
     <use x="2324.53515625" xlink:href="#BitstreamVeraSans-Roman-74"/>
     <use x="2363.744140625" xlink:href="#BitstreamVeraSans-Roman-65"/>
     <use x="2425.267578125" xlink:href="#BitstreamVeraSans-Roman-67"/>
     <use x="2488.744140625" xlink:href="#BitstreamVeraSans-Roman-69"/>
     <use x="2516.52734375" xlink:href="#BitstreamVeraSans-Roman-65"/>
     <use x="2578.05078125" xlink:href="#BitstreamVeraSans-Roman-73"/>
     <use x="2630.150390625" xlink:href="#BitstreamVeraSans-Roman-3a"/>
     <use x="2663.841796875" xlink:href="#BitstreamVeraSans-Roman-20"/>
     <use x="2695.62890625" xlink:href="#BitstreamVeraSans-Roman-38"/>
     <use x="2759.251953125" xlink:href="#BitstreamVeraSans-Roman-2e"/>
    </g>
   </g>
  </g>
 </g>
 <defs>
  <clipPath id="pbc99f8833b">
   <rect height="345.6" width="669.6" x="22.99375" y="23.14175"/>
  </clipPath>
 </defs>
</svg>
