<?xml version="1.0" encoding="utf-8" standalone="no"?>
<!DOCTYPE svg PUBLIC "-//W3C//DTD SVG 1.1//EN"
  "http://www.w3.org/Graphics/SVG/1.1/DTD/svg11.dtd">
<!-- Created with matplotlib (http://matplotlib.org/) -->
<svg height="465pt" version="1.1" viewBox="0 0 698 465" width="698pt" xmlns="http://www.w3.org/2000/svg" xmlns:xlink="http://www.w3.org/1999/xlink">
 <defs>
  <style type="text/css">
*{stroke-linecap:butt;stroke-linejoin:round;stroke-miterlimit:100000;}
  </style>
 </defs>
 <g id="figure_1">
  <g id="patch_1">
   <path d="M 0 465.868 
L 698.18 465.868 
L 698.18 0 
L 0 0 
z
" style="fill:#ffffff;"/>
  </g>
  <g id="axes_1">
   <g id="patch_2">
    <path d="M 21.38 368.74175 
L 690.98 368.74175 
L 690.98 23.14175 
L 21.38 23.14175 
z
" style="fill:#ffffff;"/>
   </g>
   <g id="PolyCollection_1">
    <defs>
     <path d="M 109.431069 -101.44625 
L 82.128931 -101.44625 
L 80.176151 -104.369886 
L 78.6516 -107.293523 
L 77.646619 -110.217159 
L 77.18 -113.140795 
L 77.207527 -116.064432 
L 77.643792 -118.988068 
L 78.386945 -121.911705 
L 79.338394 -124.835341 
L 80.413701 -127.758977 
L 81.545343 -130.682614 
L 82.680692 -133.60625 
L 83.778835 -136.529886 
L 84.808514 -139.453523 
L 85.747629 -142.377159 
L 86.583547 -145.300795 
L 87.313095 -148.224432 
L 87.941498 -151.148068 
L 88.480148 -154.071705 
L 88.943695 -156.995341 
L 89.347189 -159.918977 
L 89.703899 -162.842614 
L 90.024126 -165.76625 
L 90.315001 -168.689886 
L 90.581119 -171.613523 
L 90.825853 -174.537159 
L 91.053122 -177.460795 
L 91.269092 -180.384432 
L 91.482991 -183.308068 
L 91.706248 -186.231705 
L 91.949766 -189.155341 
L 92.220166 -192.078977 
L 92.51659 -195.002614 
L 92.829676 -197.92625 
L 93.143381 -200.849886 
L 93.439091 -203.773523 
L 93.700475 -206.697159 
L 93.917312 -209.620795 
L 94.087154 -212.544432 
L 94.21461 -215.468068 
L 94.308932 -218.391705 
L 94.381027 -221.315341 
L 94.440906 -224.238977 
L 94.496194 -227.162614 
L 94.551737 -230.08625 
L 94.609999 -233.009886 
L 94.671755 -235.933523 
L 94.736699 -238.857159 
L 94.803763 -241.780795 
L 94.871202 -244.704432 
L 94.936661 -247.628068 
L 94.997481 -250.551705 
L 95.051386 -253.475341 
L 95.09739 -256.398977 
L 95.136504 -259.322614 
L 95.171767 -262.24625 
L 95.207382 -265.169886 
L 95.247188 -268.093523 
L 95.293104 -271.017159 
L 95.344231 -273.940795 
L 95.397023 -276.864432 
L 95.446434 -279.788068 
L 95.487536 -282.711705 
L 95.516969 -285.635341 
L 95.533779 -288.558977 
L 95.539483 -291.482614 
L 95.537471 -294.40625 
L 95.532027 -297.329886 
L 95.52726 -300.253523 
L 95.526217 -303.177159 
L 95.53042 -306.100795 
L 95.539896 -309.024432 
L 95.553668 -311.948068 
L 95.570408 -314.871705 
L 95.588971 -317.795341 
L 95.608559 -320.718977 
L 95.628537 -323.642614 
L 95.648114 -326.56625 
L 95.666172 -329.489886 
L 95.681381 -332.413523 
L 95.692551 -335.337159 
L 95.698994 -338.260795 
L 95.700673 -341.184432 
L 95.698068 -344.108068 
L 95.691864 -347.031705 
L 95.68268 -349.955341 
L 95.671019 -352.878977 
L 95.657478 -355.802614 
L 95.643053 -358.72625 
L 95.62931 -361.649886 
L 95.618229 -364.573523 
L 95.611729 -367.497159 
L 95.611062 -370.420795 
L 95.616379 -373.344432 
L 95.626693 -376.268068 
L 95.640267 -379.191705 
L 95.655234 -382.115341 
L 95.670174 -385.038977 
L 95.684387 -387.962614 
L 95.697802 -390.88625 
L 95.862198 -390.88625 
L 95.862198 -390.88625 
L 95.875613 -387.962614 
L 95.889826 -385.038977 
L 95.904766 -382.115341 
L 95.919733 -379.191705 
L 95.933307 -376.268068 
L 95.943621 -373.344432 
L 95.948938 -370.420795 
L 95.948271 -367.497159 
L 95.941771 -364.573523 
L 95.93069 -361.649886 
L 95.916947 -358.72625 
L 95.902522 -355.802614 
L 95.888981 -352.878977 
L 95.87732 -349.955341 
L 95.868136 -347.031705 
L 95.861932 -344.108068 
L 95.859327 -341.184432 
L 95.861006 -338.260795 
L 95.867449 -335.337159 
L 95.878619 -332.413523 
L 95.893828 -329.489886 
L 95.911886 -326.56625 
L 95.931463 -323.642614 
L 95.951441 -320.718977 
L 95.971029 -317.795341 
L 95.989592 -314.871705 
L 96.006332 -311.948068 
L 96.020104 -309.024432 
L 96.02958 -306.100795 
L 96.033783 -303.177159 
L 96.03274 -300.253523 
L 96.027973 -297.329886 
L 96.022529 -294.40625 
L 96.020517 -291.482614 
L 96.026221 -288.558977 
L 96.043031 -285.635341 
L 96.072464 -282.711705 
L 96.113566 -279.788068 
L 96.162977 -276.864432 
L 96.215769 -273.940795 
L 96.266896 -271.017159 
L 96.312812 -268.093523 
L 96.352618 -265.169886 
L 96.388233 -262.24625 
L 96.423496 -259.322614 
L 96.46261 -256.398977 
L 96.508614 -253.475341 
L 96.562519 -250.551705 
L 96.623339 -247.628068 
L 96.688798 -244.704432 
L 96.756237 -241.780795 
L 96.823301 -238.857159 
L 96.888245 -235.933523 
L 96.950001 -233.009886 
L 97.008263 -230.08625 
L 97.063806 -227.162614 
L 97.119094 -224.238977 
L 97.178973 -221.315341 
L 97.251068 -218.391705 
L 97.34539 -215.468068 
L 97.472846 -212.544432 
L 97.642688 -209.620795 
L 97.859525 -206.697159 
L 98.120909 -203.773523 
L 98.416619 -200.849886 
L 98.730324 -197.92625 
L 99.04341 -195.002614 
L 99.339834 -192.078977 
L 99.610234 -189.155341 
L 99.853752 -186.231705 
L 100.077009 -183.308068 
L 100.290908 -180.384432 
L 100.506878 -177.460795 
L 100.734147 -174.537159 
L 100.978881 -171.613523 
L 101.244999 -168.689886 
L 101.535874 -165.76625 
L 101.856101 -162.842614 
L 102.212811 -159.918977 
L 102.616305 -156.995341 
L 103.079852 -154.071705 
L 103.618502 -151.148068 
L 104.246905 -148.224432 
L 104.976453 -145.300795 
L 105.812371 -142.377159 
L 106.751486 -139.453523 
L 107.781165 -136.529886 
L 108.879308 -133.60625 
L 110.014657 -130.682614 
L 111.146299 -127.758977 
L 112.221606 -124.835341 
L 113.173055 -121.911705 
L 113.916208 -118.988068 
L 114.352473 -116.064432 
L 114.38 -113.140795 
L 113.913381 -110.217159 
L 112.9084 -107.293523 
L 111.383849 -104.369886 
L 109.431069 -101.44625 
z
" id="m2fe6107830" style="stroke:#000000;stroke-opacity:0.3;"/>
    </defs>
    <g clip-path="url(#p86577ec7e8)">
     <use style="fill:#bfbf00;fill-opacity:0.3;stroke:#000000;stroke-opacity:0.3;" x="0.0" xlink:href="#m2fe6107830" y="465.868"/>
    </g>
   </g>
   <g id="PolyCollection_2">
    <defs>
     <path d="M 184.604464 -101.44625 
L 155.755536 -101.44625 
L 153.657104 -104.762614 
L 152.245027 -108.078977 
L 151.58 -111.395341 
L 151.582662 -114.711705 
L 152.088141 -118.028068 
L 152.91398 -121.344432 
L 153.909839 -124.660795 
L 154.974914 -127.977159 
L 156.048866 -131.293523 
L 157.092487 -134.609886 
L 158.072903 -137.92625 
L 158.960154 -141.242614 
L 159.733854 -144.558977 
L 160.393525 -147.875341 
L 160.964628 -151.191705 
L 161.494114 -154.508068 
L 162.034643 -157.824432 
L 162.623405 -161.140795 
L 163.265899 -164.457159 
L 163.933459 -167.773523 
L 164.576131 -171.089886 
L 165.144264 -174.40625 
L 165.608179 -177.722614 
L 165.967353 -181.038977 
L 166.246575 -184.355341 
L 166.482619 -187.671705 
L 166.708441 -190.988068 
L 166.941996 -194.304432 
L 167.183833 -197.620795 
L 167.423039 -200.937159 
L 167.646901 -204.253523 
L 167.848344 -207.569886 
L 168.027499 -210.88625 
L 168.188158 -214.202614 
L 168.333108 -217.518977 
L 168.462295 -220.835341 
L 168.574794 -224.151705 
L 168.672299 -227.468068 
L 168.760816 -230.784432 
L 168.84893 -234.100795 
L 168.94385 -237.417159 
L 169.047985 -240.733523 
L 169.158263 -244.049886 
L 169.268279 -247.36625 
L 169.371603 -250.682614 
L 169.464167 -253.998977 
L 169.54472 -257.315341 
L 169.613704 -260.631705 
L 169.671771 -263.948068 
L 169.718979 -267.264432 
L 169.75494 -270.580795 
L 169.779491 -273.897159 
L 169.793235 -277.213523 
L 169.797632 -280.529886 
L 169.794782 -283.84625 
L 169.787199 -287.162614 
L 169.777746 -290.478977 
L 169.769617 -293.795341 
L 169.76612 -297.111705 
L 169.770173 -300.428068 
L 169.783672 -303.744432 
L 169.807008 -307.060795 
L 169.838955 -310.377159 
L 169.876989 -313.693523 
L 169.917908 -317.009886 
L 169.958605 -320.32625 
L 169.996738 -323.642614 
L 170.031075 -326.958977 
L 170.061381 -330.275341 
L 170.087952 -333.591705 
L 170.111078 -336.908068 
L 170.130765 -340.224432 
L 170.146809 -343.540795 
L 170.159079 -346.857159 
L 170.167759 -350.173523 
L 170.173386 -353.489886 
L 170.176713 -356.80625 
L 170.178501 -360.122614 
L 170.179374 -363.438977 
L 170.179761 -366.755341 
L 170.179916 -370.071705 
L 170.179973 -373.388068 
L 170.179992 -376.704432 
L 170.179996 -380.020795 
L 170.179992 -383.337159 
L 170.179975 -386.653523 
L 170.179921 -389.969886 
L 170.179773 -393.28625 
L 170.179406 -396.602614 
L 170.178584 -399.918977 
L 170.17692 -403.235341 
L 170.173886 -406.551705 
L 170.168922 -409.868068 
L 170.161683 -413.184432 
L 170.15236 -416.500795 
L 170.141936 -419.817159 
L 170.13216 -423.133523 
L 170.125128 -426.449886 
L 170.122561 -429.76625 
L 170.237439 -429.76625 
L 170.237439 -429.76625 
L 170.234872 -426.449886 
L 170.22784 -423.133523 
L 170.218064 -419.817159 
L 170.20764 -416.500795 
L 170.198317 -413.184432 
L 170.191078 -409.868068 
L 170.186114 -406.551705 
L 170.18308 -403.235341 
L 170.181416 -399.918977 
L 170.180594 -396.602614 
L 170.180227 -393.28625 
L 170.180079 -389.969886 
L 170.180025 -386.653523 
L 170.180008 -383.337159 
L 170.180004 -380.020795 
L 170.180008 -376.704432 
L 170.180027 -373.388068 
L 170.180084 -370.071705 
L 170.180239 -366.755341 
L 170.180626 -363.438977 
L 170.181499 -360.122614 
L 170.183287 -356.80625 
L 170.186614 -353.489886 
L 170.192241 -350.173523 
L 170.200921 -346.857159 
L 170.213191 -343.540795 
L 170.229235 -340.224432 
L 170.248922 -336.908068 
L 170.272048 -333.591705 
L 170.298619 -330.275341 
L 170.328925 -326.958977 
L 170.363262 -323.642614 
L 170.401395 -320.32625 
L 170.442092 -317.009886 
L 170.483011 -313.693523 
L 170.521045 -310.377159 
L 170.552992 -307.060795 
L 170.576328 -303.744432 
L 170.589827 -300.428068 
L 170.59388 -297.111705 
L 170.590383 -293.795341 
L 170.582254 -290.478977 
L 170.572801 -287.162614 
L 170.565218 -283.84625 
L 170.562368 -280.529886 
L 170.566765 -277.213523 
L 170.580509 -273.897159 
L 170.60506 -270.580795 
L 170.641021 -267.264432 
L 170.688229 -263.948068 
L 170.746296 -260.631705 
L 170.81528 -257.315341 
L 170.895833 -253.998977 
L 170.988397 -250.682614 
L 171.091721 -247.36625 
L 171.201737 -244.049886 
L 171.312015 -240.733523 
L 171.41615 -237.417159 
L 171.51107 -234.100795 
L 171.599184 -230.784432 
L 171.687701 -227.468068 
L 171.785206 -224.151705 
L 171.897705 -220.835341 
L 172.026892 -217.518977 
L 172.171842 -214.202614 
L 172.332501 -210.88625 
L 172.511656 -207.569886 
L 172.713099 -204.253523 
L 172.936961 -200.937159 
L 173.176167 -197.620795 
L 173.418004 -194.304432 
L 173.651559 -190.988068 
L 173.877381 -187.671705 
L 174.113425 -184.355341 
L 174.392647 -181.038977 
L 174.751821 -177.722614 
L 175.215736 -174.40625 
L 175.783869 -171.089886 
L 176.426541 -167.773523 
L 177.094101 -164.457159 
L 177.736595 -161.140795 
L 178.325357 -157.824432 
L 178.865886 -154.508068 
L 179.395372 -151.191705 
L 179.966475 -147.875341 
L 180.626146 -144.558977 
L 181.399846 -141.242614 
L 182.287097 -137.92625 
L 183.267513 -134.609886 
L 184.311134 -131.293523 
L 185.385086 -127.977159 
L 186.450161 -124.660795 
L 187.44602 -121.344432 
L 188.271859 -118.028068 
L 188.777338 -114.711705 
L 188.78 -111.395341 
L 188.114973 -108.078977 
L 186.702896 -104.762614 
L 184.604464 -101.44625 
z
" id="mce55488d89" style="stroke:#000000;stroke-opacity:0.3;"/>
    </defs>
    <g clip-path="url(#p86577ec7e8)">
     <use style="fill:#bfbf00;fill-opacity:0.3;stroke:#000000;stroke-opacity:0.3;" x="0.0" xlink:href="#mce55488d89" y="465.868"/>
    </g>
   </g>
   <g id="PolyCollection_3">
    <defs>
     <path d="M 257.72875 -101.44625 
L 231.43125 -101.44625 
L 229.169596 -104.762614 
L 227.459164 -108.078977 
L 226.40135 -111.395341 
L 225.98 -114.711705 
L 226.098558 -118.028068 
L 226.627386 -121.344432 
L 227.439598 -124.660795 
L 228.429014 -127.977159 
L 229.515145 -131.293523 
L 230.641747 -134.609886 
L 231.772048 -137.92625 
L 232.881861 -141.242614 
L 233.952763 -144.558977 
L 234.968273 -147.875341 
L 235.914032 -151.191705 
L 236.78006 -154.508068 
L 237.561946 -157.824432 
L 238.259519 -161.140795 
L 238.874221 -164.457159 
L 239.407603 -167.773523 
L 239.862346 -171.089886 
L 240.245031 -174.40625 
L 240.568341 -177.722614 
L 240.850572 -181.038977 
L 241.111901 -184.355341 
L 241.368813 -187.671705 
L 241.629134 -190.988068 
L 241.889865 -194.304432 
L 242.138878 -197.620795 
L 242.360064 -200.937159 
L 242.54019 -204.253523 
L 242.674786 -207.569886 
L 242.770372 -210.88625 
L 242.841642 -214.202614 
L 242.904849 -217.518977 
L 242.970958 -220.835341 
L 243.042523 -224.151705 
L 243.115926 -227.468068 
L 243.187058 -230.784432 
L 243.25637 -234.100795 
L 243.32999 -237.417159 
L 243.416496 -240.733523 
L 243.521783 -244.049886 
L 243.645322 -247.36625 
L 243.779808 -250.682614 
L 243.914044 -253.998977 
L 244.03718 -257.315341 
L 244.142105 -260.631705 
L 244.226603 -263.948068 
L 244.2923 -267.264432 
L 244.34251 -270.580795 
L 244.380327 -273.897159 
L 244.407736 -277.213523 
L 244.425667 -280.529886 
L 244.434452 -283.84625 
L 244.43421 -287.162614 
L 244.425087 -290.478977 
L 244.407488 -293.795341 
L 244.382413 -297.111705 
L 244.351855 -300.428068 
L 244.319066 -303.744432 
L 244.288459 -307.060795 
L 244.264951 -310.377159 
L 244.252831 -313.693523 
L 244.254486 -317.009886 
L 244.269622 -320.32625 
L 244.295437 -323.642614 
L 244.327749 -326.958977 
L 244.362518 -330.275341 
L 244.396945 -333.591705 
L 244.42969 -336.908068 
L 244.460299 -340.224432 
L 244.488436 -343.540795 
L 244.51346 -346.857159 
L 244.534537 -350.173523 
L 244.551047 -353.489886 
L 244.562929 -356.80625 
L 244.570729 -360.122614 
L 244.575378 -363.438977 
L 244.577891 -366.755341 
L 244.579121 -370.071705 
L 244.579666 -373.388068 
L 244.579884 -376.704432 
L 244.579962 -380.020795 
L 244.579985 -383.337159 
L 244.579981 -386.653523 
L 244.579946 -389.969886 
L 244.579837 -393.28625 
L 244.579551 -396.602614 
L 244.578877 -399.918977 
L 244.577448 -403.235341 
L 244.574735 -406.551705 
L 244.570138 -409.868068 
L 244.563228 -413.184432 
L 244.554103 -416.500795 
L 244.543692 -419.817159 
L 244.53378 -423.133523 
L 244.526578 -426.449886 
L 244.523936 -429.76625 
L 244.636064 -429.76625 
L 244.636064 -429.76625 
L 244.633422 -426.449886 
L 244.62622 -423.133523 
L 244.616308 -419.817159 
L 244.605897 -416.500795 
L 244.596772 -413.184432 
L 244.589862 -409.868068 
L 244.585265 -406.551705 
L 244.582552 -403.235341 
L 244.581123 -399.918977 
L 244.580449 -396.602614 
L 244.580163 -393.28625 
L 244.580054 -389.969886 
L 244.580019 -386.653523 
L 244.580015 -383.337159 
L 244.580038 -380.020795 
L 244.580116 -376.704432 
L 244.580334 -373.388068 
L 244.580879 -370.071705 
L 244.582109 -366.755341 
L 244.584622 -363.438977 
L 244.589271 -360.122614 
L 244.597071 -356.80625 
L 244.608953 -353.489886 
L 244.625463 -350.173523 
L 244.64654 -346.857159 
L 244.671564 -343.540795 
L 244.699701 -340.224432 
L 244.73031 -336.908068 
L 244.763055 -333.591705 
L 244.797482 -330.275341 
L 244.832251 -326.958977 
L 244.864563 -323.642614 
L 244.890378 -320.32625 
L 244.905514 -317.009886 
L 244.907169 -313.693523 
L 244.895049 -310.377159 
L 244.871541 -307.060795 
L 244.840934 -303.744432 
L 244.808145 -300.428068 
L 244.777587 -297.111705 
L 244.752512 -293.795341 
L 244.734913 -290.478977 
L 244.72579 -287.162614 
L 244.725548 -283.84625 
L 244.734333 -280.529886 
L 244.752264 -277.213523 
L 244.779673 -273.897159 
L 244.81749 -270.580795 
L 244.8677 -267.264432 
L 244.933397 -263.948068 
L 245.017895 -260.631705 
L 245.12282 -257.315341 
L 245.245956 -253.998977 
L 245.380192 -250.682614 
L 245.514678 -247.36625 
L 245.638217 -244.049886 
L 245.743504 -240.733523 
L 245.83001 -237.417159 
L 245.90363 -234.100795 
L 245.972942 -230.784432 
L 246.044074 -227.468068 
L 246.117477 -224.151705 
L 246.189042 -220.835341 
L 246.255151 -217.518977 
L 246.318358 -214.202614 
L 246.389628 -210.88625 
L 246.485214 -207.569886 
L 246.61981 -204.253523 
L 246.799936 -200.937159 
L 247.021122 -197.620795 
L 247.270135 -194.304432 
L 247.530866 -190.988068 
L 247.791187 -187.671705 
L 248.048099 -184.355341 
L 248.309428 -181.038977 
L 248.591659 -177.722614 
L 248.914969 -174.40625 
L 249.297654 -171.089886 
L 249.752397 -167.773523 
L 250.285779 -164.457159 
L 250.900481 -161.140795 
L 251.598054 -157.824432 
L 252.37994 -154.508068 
L 253.245968 -151.191705 
L 254.191727 -147.875341 
L 255.207237 -144.558977 
L 256.278139 -141.242614 
L 257.387952 -137.92625 
L 258.518253 -134.609886 
L 259.644855 -131.293523 
L 260.730986 -127.977159 
L 261.720402 -124.660795 
L 262.532614 -121.344432 
L 263.061442 -118.028068 
L 263.18 -114.711705 
L 262.75865 -111.395341 
L 261.700836 -108.078977 
L 259.990404 -104.762614 
L 257.72875 -101.44625 
z
" id="mbb0a316aa8" style="stroke:#000000;stroke-opacity:0.3;"/>
    </defs>
    <g clip-path="url(#p86577ec7e8)">
     <use style="fill:#bfbf00;fill-opacity:0.3;stroke:#000000;stroke-opacity:0.3;" x="0.0" xlink:href="#mbb0a316aa8" y="465.868"/>
    </g>
   </g>
   <g id="PolyCollection_4">
    <defs>
     <path d="M 332.392911 -101.44625 
L 305.567089 -101.44625 
L 303.648018 -104.195341 
L 302.138834 -106.944432 
L 301.103676 -109.693523 
L 300.536473 -112.442614 
L 300.38 -115.191705 
L 300.553005 -117.940795 
L 300.973749 -120.689886 
L 301.573195 -123.438977 
L 302.297737 -126.188068 
L 303.105789 -128.937159 
L 303.963182 -131.68625 
L 304.840028 -134.435341 
L 305.709263 -137.184432 
L 306.546043 -139.933523 
L 307.327749 -142.682614 
L 308.035226 -145.431705 
L 308.655749 -148.180795 
L 309.186993 -150.929886 
L 309.639903 -153.678977 
L 310.038163 -156.428068 
L 310.413285 -159.177159 
L 310.796549 -161.92625 
L 311.210735 -164.675341 
L 311.664817 -167.424432 
L 312.153414 -170.173523 
L 312.660698 -172.922614 
L 313.166712 -175.671705 
L 313.653448 -178.420795 
L 314.108653 -181.169886 
L 314.526659 -183.918977 
L 314.906825 -186.668068 
L 315.250927 -189.417159 
L 315.560889 -192.16625 
L 315.837782 -194.915341 
L 316.082277 -197.664432 
L 316.296045 -200.413523 
L 316.48309 -203.162614 
L 316.650025 -205.911705 
L 316.804813 -208.660795 
L 316.954377 -211.409886 
L 317.102194 -214.158977 
L 317.24717 -216.908068 
L 317.384443 -219.657159 
L 317.507783 -222.40625 
L 317.612456 -225.155341 
L 317.697259 -227.904432 
L 317.764976 -230.653523 
L 317.821315 -233.402614 
L 317.873001 -236.151705 
L 317.925824 -238.900795 
L 317.983223 -241.649886 
L 318.045658 -244.398977 
L 318.110837 -247.148068 
L 318.17469 -249.897159 
L 318.232845 -252.64625 
L 318.282142 -255.395341 
L 318.321617 -258.144432 
L 318.35255 -260.893523 
L 318.377667 -263.642614 
L 318.399984 -266.391705 
L 318.421961 -269.140795 
L 318.44532 -271.889886 
L 318.471366 -274.638977 
L 318.501323 -277.388068 
L 318.536235 -280.137159 
L 318.576381 -282.88625 
L 318.620572 -285.635341 
L 318.665893 -288.384432 
L 318.708191 -291.133523 
L 318.743224 -293.882614 
L 318.767976 -296.631705 
L 318.78158 -299.380795 
L 318.785483 -302.129886 
L 318.782892 -304.878977 
L 318.777806 -307.628068 
L 318.77406 -310.377159 
L 318.774649 -313.12625 
L 318.781397 -315.875341 
L 318.794886 -318.624432 
L 318.814526 -321.373523 
L 318.838744 -324.122614 
L 318.865295 -326.871705 
L 318.891705 -329.620795 
L 318.915768 -332.369886 
L 318.935933 -335.118977 
L 318.951488 -337.868068 
L 318.96248 -340.617159 
L 318.969446 -343.36625 
L 318.973087 -346.115341 
L 318.97399 -348.864432 
L 318.972489 -351.613523 
L 318.96869 -354.362614 
L 318.96263 -357.111705 
L 318.954515 -359.860795 
L 318.944949 -362.609886 
L 318.935036 -365.358977 
L 318.926266 -368.108068 
L 318.9202 -370.857159 
L 318.91803 -373.60625 
L 319.04197 -373.60625 
L 319.04197 -373.60625 
L 319.0398 -370.857159 
L 319.033734 -368.108068 
L 319.024964 -365.358977 
L 319.015051 -362.609886 
L 319.005485 -359.860795 
L 318.99737 -357.111705 
L 318.99131 -354.362614 
L 318.987511 -351.613523 
L 318.98601 -348.864432 
L 318.986913 -346.115341 
L 318.990554 -343.36625 
L 318.99752 -340.617159 
L 319.008512 -337.868068 
L 319.024067 -335.118977 
L 319.044232 -332.369886 
L 319.068295 -329.620795 
L 319.094705 -326.871705 
L 319.121256 -324.122614 
L 319.145474 -321.373523 
L 319.165114 -318.624432 
L 319.178603 -315.875341 
L 319.185351 -313.12625 
L 319.18594 -310.377159 
L 319.182194 -307.628068 
L 319.177108 -304.878977 
L 319.174517 -302.129886 
L 319.17842 -299.380795 
L 319.192024 -296.631705 
L 319.216776 -293.882614 
L 319.251809 -291.133523 
L 319.294107 -288.384432 
L 319.339428 -285.635341 
L 319.383619 -282.88625 
L 319.423765 -280.137159 
L 319.458677 -277.388068 
L 319.488634 -274.638977 
L 319.51468 -271.889886 
L 319.538039 -269.140795 
L 319.560016 -266.391705 
L 319.582333 -263.642614 
L 319.60745 -260.893523 
L 319.638383 -258.144432 
L 319.677858 -255.395341 
L 319.727155 -252.64625 
L 319.78531 -249.897159 
L 319.849163 -247.148068 
L 319.914342 -244.398977 
L 319.976777 -241.649886 
L 320.034176 -238.900795 
L 320.086999 -236.151705 
L 320.138685 -233.402614 
L 320.195024 -230.653523 
L 320.262741 -227.904432 
L 320.347544 -225.155341 
L 320.452217 -222.40625 
L 320.575557 -219.657159 
L 320.71283 -216.908068 
L 320.857806 -214.158977 
L 321.005623 -211.409886 
L 321.155187 -208.660795 
L 321.309975 -205.911705 
L 321.47691 -203.162614 
L 321.663955 -200.413523 
L 321.877723 -197.664432 
L 322.122218 -194.915341 
L 322.399111 -192.16625 
L 322.709073 -189.417159 
L 323.053175 -186.668068 
L 323.433341 -183.918977 
L 323.851347 -181.169886 
L 324.306552 -178.420795 
L 324.793288 -175.671705 
L 325.299302 -172.922614 
L 325.806586 -170.173523 
L 326.295183 -167.424432 
L 326.749265 -164.675341 
L 327.163451 -161.92625 
L 327.546715 -159.177159 
L 327.921837 -156.428068 
L 328.320097 -153.678977 
L 328.773007 -150.929886 
L 329.304251 -148.180795 
L 329.924774 -145.431705 
L 330.632251 -142.682614 
L 331.413957 -139.933523 
L 332.250737 -137.184432 
L 333.119972 -134.435341 
L 333.996818 -131.68625 
L 334.854211 -128.937159 
L 335.662263 -126.188068 
L 336.386805 -123.438977 
L 336.986251 -120.689886 
L 337.406995 -117.940795 
L 337.58 -115.191705 
L 337.423527 -112.442614 
L 336.856324 -109.693523 
L 335.821166 -106.944432 
L 334.311982 -104.195341 
L 332.392911 -101.44625 
z
" id="mf9ee618ce8" style="stroke:#000000;stroke-opacity:0.3;"/>
    </defs>
    <g clip-path="url(#p86577ec7e8)">
     <use style="fill:#bfbf00;fill-opacity:0.3;stroke:#000000;stroke-opacity:0.3;" x="0.0" xlink:href="#mf9ee618ce8" y="465.868"/>
    </g>
   </g>
   <g id="PolyCollection_5">
    <defs>
     <path d="M 407.38966 -101.44625 
L 379.37034 -101.44625 
L 377.520255 -104.282614 
L 376.100556 -107.118977 
L 375.185211 -109.955341 
L 374.78 -112.791705 
L 374.832822 -115.628068 
L 375.254299 -118.464432 
L 375.940952 -121.300795 
L 376.794539 -124.137159 
L 377.734148 -126.973523 
L 378.700681 -129.809886 
L 379.655267 -132.64625 
L 380.573993 -135.482614 
L 381.441457 -138.318977 
L 382.245339 -141.155341 
L 382.973568 -143.991705 
L 383.614677 -146.828068 
L 384.16072 -149.664432 
L 384.611155 -152.500795 
L 384.975676 -155.337159 
L 385.274363 -158.173523 
L 385.534637 -161.009886 
L 385.785747 -163.84625 
L 386.052609 -166.682614 
L 386.351063 -169.518977 
L 386.686124 -172.355341 
L 387.053591 -175.191705 
L 387.444032 -178.028068 
L 387.84726 -180.864432 
L 388.255343 -183.700795 
L 388.663084 -186.537159 
L 389.066239 -189.373523 
L 389.458938 -192.209886 
L 389.832125 -195.04625 
L 390.174192 -197.882614 
L 390.473696 -200.718977 
L 390.722885 -203.555341 
L 390.920289 -206.391705 
L 391.071204 -209.228068 
L 391.185996 -212.064432 
L 391.277151 -214.900795 
L 391.356429 -217.737159 
L 391.433068 -220.573523 
L 391.513277 -223.409886 
L 391.600598 -226.24625 
L 391.696543 -229.082614 
L 391.801066 -231.918977 
L 391.912788 -234.755341 
L 392.029121 -237.591705 
L 392.146443 -240.428068 
L 392.260427 -243.264432 
L 392.366482 -246.100795 
L 392.460273 -248.937159 
L 392.538278 -251.773523 
L 392.598319 -254.609886 
L 392.639995 -257.44625 
L 392.664879 -260.282614 
L 392.676401 -263.118977 
L 392.679402 -265.955341 
L 392.679436 -268.791705 
L 392.68192 -271.628068 
L 392.691295 -274.464432 
L 392.710345 -277.300795 
L 392.739822 -280.137159 
L 392.778503 -282.973523 
L 392.823651 -285.809886 
L 392.871714 -288.64625 
L 392.919016 -291.482614 
L 392.962254 -294.318977 
L 392.998773 -297.155341 
L 393.026763 -299.991705 
L 393.045508 -302.828068 
L 393.055708 -305.664432 
L 393.059676 -308.500795 
L 393.061161 -311.337159 
L 393.064662 -314.173523 
L 393.074355 -317.009886 
L 393.092974 -319.84625 
L 393.12108 -322.682614 
L 393.156987 -325.518977 
L 393.197344 -328.355341 
L 393.238138 -331.191705 
L 393.275719 -334.028068 
L 393.30754 -336.864432 
L 393.332436 -339.700795 
L 393.350482 -342.537159 
L 393.362581 -345.373523 
L 393.369987 -348.209886 
L 393.373904 -351.04625 
L 393.375248 -353.882614 
L 393.374554 -356.718977 
L 393.372031 -359.555341 
L 393.367697 -362.391705 
L 393.361575 -365.228068 
L 393.353888 -368.064432 
L 393.345209 -370.900795 
L 393.336492 -373.737159 
L 393.328953 -376.573523 
L 393.323816 -379.409886 
L 393.321991 -382.24625 
L 393.438009 -382.24625 
L 393.438009 -382.24625 
L 393.436184 -379.409886 
L 393.431047 -376.573523 
L 393.423508 -373.737159 
L 393.414791 -370.900795 
L 393.406112 -368.064432 
L 393.398425 -365.228068 
L 393.392303 -362.391705 
L 393.387969 -359.555341 
L 393.385446 -356.718977 
L 393.384752 -353.882614 
L 393.386096 -351.04625 
L 393.390013 -348.209886 
L 393.397419 -345.373523 
L 393.409518 -342.537159 
L 393.427564 -339.700795 
L 393.45246 -336.864432 
L 393.484281 -334.028068 
L 393.521862 -331.191705 
L 393.562656 -328.355341 
L 393.603013 -325.518977 
L 393.63892 -322.682614 
L 393.667026 -319.84625 
L 393.685645 -317.009886 
L 393.695338 -314.173523 
L 393.698839 -311.337159 
L 393.700324 -308.500795 
L 393.704292 -305.664432 
L 393.714492 -302.828068 
L 393.733237 -299.991705 
L 393.761227 -297.155341 
L 393.797746 -294.318977 
L 393.840984 -291.482614 
L 393.888286 -288.64625 
L 393.936349 -285.809886 
L 393.981497 -282.973523 
L 394.020178 -280.137159 
L 394.049655 -277.300795 
L 394.068705 -274.464432 
L 394.07808 -271.628068 
L 394.080564 -268.791705 
L 394.080598 -265.955341 
L 394.083599 -263.118977 
L 394.095121 -260.282614 
L 394.120005 -257.44625 
L 394.161681 -254.609886 
L 394.221722 -251.773523 
L 394.299727 -248.937159 
L 394.393518 -246.100795 
L 394.499573 -243.264432 
L 394.613557 -240.428068 
L 394.730879 -237.591705 
L 394.847212 -234.755341 
L 394.958934 -231.918977 
L 395.063457 -229.082614 
L 395.159402 -226.24625 
L 395.246723 -223.409886 
L 395.326932 -220.573523 
L 395.403571 -217.737159 
L 395.482849 -214.900795 
L 395.574004 -212.064432 
L 395.688796 -209.228068 
L 395.839711 -206.391705 
L 396.037115 -203.555341 
L 396.286304 -200.718977 
L 396.585808 -197.882614 
L 396.927875 -195.04625 
L 397.301062 -192.209886 
L 397.693761 -189.373523 
L 398.096916 -186.537159 
L 398.504657 -183.700795 
L 398.91274 -180.864432 
L 399.315968 -178.028068 
L 399.706409 -175.191705 
L 400.073876 -172.355341 
L 400.408937 -169.518977 
L 400.707391 -166.682614 
L 400.974253 -163.84625 
L 401.225363 -161.009886 
L 401.485637 -158.173523 
L 401.784324 -155.337159 
L 402.148845 -152.500795 
L 402.59928 -149.664432 
L 403.145323 -146.828068 
L 403.786432 -143.991705 
L 404.514661 -141.155341 
L 405.318543 -138.318977 
L 406.186007 -135.482614 
L 407.104733 -132.64625 
L 408.059319 -129.809886 
L 409.025852 -126.973523 
L 409.965461 -124.137159 
L 410.819048 -121.300795 
L 411.505701 -118.464432 
L 411.927178 -115.628068 
L 411.98 -112.791705 
L 411.574789 -109.955341 
L 410.659444 -107.118977 
L 409.239745 -104.282614 
L 407.38966 -101.44625 
z
" id="m1a7ff3df07" style="stroke:#000000;stroke-opacity:0.3;"/>
    </defs>
    <g clip-path="url(#p86577ec7e8)">
     <use style="fill:#bfbf00;fill-opacity:0.3;stroke:#000000;stroke-opacity:0.3;" x="0.0" xlink:href="#m1a7ff3df07" y="465.868"/>
    </g>
   </g>
   <g id="PolyCollection_6">
    <defs>
     <path d="M 481.807993 -101.44625 
L 453.752007 -101.44625 
L 451.98525 -103.933523 
L 450.602427 -106.420795 
L 449.675592 -108.908068 
L 449.216398 -111.395341 
L 449.18 -113.882614 
L 449.480198 -116.369886 
L 450.010767 -118.857159 
L 450.666914 -121.344432 
L 451.361927 -123.831705 
L 452.03637 -126.318977 
L 452.659739 -128.80625 
L 453.226305 -131.293523 
L 453.747674 -133.780795 
L 454.244419 -136.268068 
L 454.738522 -138.755341 
L 455.247616 -141.242614 
L 455.781526 -143.729886 
L 456.341185 -146.217159 
L 456.91972 -148.704432 
L 457.505117 -151.191705 
L 458.083593 -153.678977 
L 458.642708 -156.16625 
L 459.173416 -158.653523 
L 459.670719 -161.140795 
L 460.133077 -163.628068 
L 460.561146 -166.115341 
L 460.956501 -168.602614 
L 461.320889 -171.089886 
L 461.656186 -173.577159 
L 461.964914 -176.064432 
L 462.250863 -178.551705 
L 462.519315 -181.038977 
L 462.776527 -183.52625 
L 463.028465 -186.013523 
L 463.279208 -188.500795 
L 463.529693 -190.988068 
L 463.777439 -193.475341 
L 464.017542 -195.962614 
L 464.244644 -198.449886 
L 464.455149 -200.937159 
L 464.64879 -203.424432 
L 464.828921 -205.911705 
L 465.001456 -208.398977 
L 465.172895 -210.88625 
L 465.348201 -213.373523 
L 465.529272 -215.860795 
L 465.714434 -218.348068 
L 465.898996 -220.835341 
L 466.076583 -223.322614 
L 466.240785 -225.809886 
L 466.386678 -228.297159 
L 466.511867 -230.784432 
L 466.616873 -233.271705 
L 466.704835 -235.758977 
L 466.780653 -238.24625 
L 466.849785 -240.733523 
L 466.917028 -243.220795 
L 466.985548 -245.708068 
L 467.056414 -248.195341 
L 467.128681 -250.682614 
L 467.199939 -253.169886 
L 467.267093 -255.657159 
L 467.327115 -258.144432 
L 467.377585 -260.631705 
L 467.416963 -263.118977 
L 467.444651 -265.60625 
L 467.460949 -268.093523 
L 467.466987 -270.580795 
L 467.464632 -273.068068 
L 467.456329 -275.555341 
L 467.444832 -278.042614 
L 467.432841 -280.529886 
L 467.422614 -283.017159 
L 467.415655 -285.504432 
L 467.412581 -287.991705 
L 467.413183 -290.478977 
L 467.41665 -292.96625 
L 467.421899 -295.453523 
L 467.42791 -297.940795 
L 467.434001 -300.428068 
L 467.439994 -302.915341 
L 467.446227 -305.402614 
L 467.453415 -307.889886 
L 467.462392 -310.377159 
L 467.473801 -312.864432 
L 467.48783 -315.351705 
L 467.504078 -317.838977 
L 467.521603 -320.32625 
L 467.539154 -322.813523 
L 467.555497 -325.300795 
L 467.569738 -327.788068 
L 467.581544 -330.275341 
L 467.591204 -332.762614 
L 467.599526 -335.249886 
L 467.607609 -337.737159 
L 467.616575 -340.224432 
L 467.627316 -342.711705 
L 467.64031 -345.198977 
L 467.655533 -347.68625 
L 467.904467 -347.68625 
L 467.904467 -347.68625 
L 467.91969 -345.198977 
L 467.932684 -342.711705 
L 467.943425 -340.224432 
L 467.952391 -337.737159 
L 467.960474 -335.249886 
L 467.968796 -332.762614 
L 467.978456 -330.275341 
L 467.990262 -327.788068 
L 468.004503 -325.300795 
L 468.020846 -322.813523 
L 468.038397 -320.32625 
L 468.055922 -317.838977 
L 468.07217 -315.351705 
L 468.086199 -312.864432 
L 468.097608 -310.377159 
L 468.106585 -307.889886 
L 468.113773 -305.402614 
L 468.120006 -302.915341 
L 468.125999 -300.428068 
L 468.13209 -297.940795 
L 468.138101 -295.453523 
L 468.14335 -292.96625 
L 468.146817 -290.478977 
L 468.147419 -287.991705 
L 468.144345 -285.504432 
L 468.137386 -283.017159 
L 468.127159 -280.529886 
L 468.115168 -278.042614 
L 468.103671 -275.555341 
L 468.095368 -273.068068 
L 468.093013 -270.580795 
L 468.099051 -268.093523 
L 468.115349 -265.60625 
L 468.143037 -263.118977 
L 468.182415 -260.631705 
L 468.232885 -258.144432 
L 468.292907 -255.657159 
L 468.360061 -253.169886 
L 468.431319 -250.682614 
L 468.503586 -248.195341 
L 468.574452 -245.708068 
L 468.642972 -243.220795 
L 468.710215 -240.733523 
L 468.779347 -238.24625 
L 468.855165 -235.758977 
L 468.943127 -233.271705 
L 469.048133 -230.784432 
L 469.173322 -228.297159 
L 469.319215 -225.809886 
L 469.483417 -223.322614 
L 469.661004 -220.835341 
L 469.845566 -218.348068 
L 470.030728 -215.860795 
L 470.211799 -213.373523 
L 470.387105 -210.88625 
L 470.558544 -208.398977 
L 470.731079 -205.911705 
L 470.91121 -203.424432 
L 471.104851 -200.937159 
L 471.315356 -198.449886 
L 471.542458 -195.962614 
L 471.782561 -193.475341 
L 472.030307 -190.988068 
L 472.280792 -188.500795 
L 472.531535 -186.013523 
L 472.783473 -183.52625 
L 473.040685 -181.038977 
L 473.309137 -178.551705 
L 473.595086 -176.064432 
L 473.903814 -173.577159 
L 474.239111 -171.089886 
L 474.603499 -168.602614 
L 474.998854 -166.115341 
L 475.426923 -163.628068 
L 475.889281 -161.140795 
L 476.386584 -158.653523 
L 476.917292 -156.16625 
L 477.476407 -153.678977 
L 478.054883 -151.191705 
L 478.64028 -148.704432 
L 479.218815 -146.217159 
L 479.778474 -143.729886 
L 480.312384 -141.242614 
L 480.821478 -138.755341 
L 481.315581 -136.268068 
L 481.812326 -133.780795 
L 482.333695 -131.293523 
L 482.900261 -128.80625 
L 483.52363 -126.318977 
L 484.198073 -123.831705 
L 484.893086 -121.344432 
L 485.549233 -118.857159 
L 486.079802 -116.369886 
L 486.38 -113.882614 
L 486.343602 -111.395341 
L 485.884408 -108.908068 
L 484.957573 -106.420795 
L 483.57475 -103.933523 
L 481.807993 -101.44625 
z
" id="m3d44daa41c" style="stroke:#000000;stroke-opacity:0.3;"/>
    </defs>
    <g clip-path="url(#p86577ec7e8)">
     <use style="fill:#bfbf00;fill-opacity:0.3;stroke:#000000;stroke-opacity:0.3;" x="0.0" xlink:href="#m3d44daa41c" y="465.868"/>
    </g>
   </g>
   <g id="PolyCollection_7">
    <defs>
     <path d="M 555.733029 -101.44625 
L 528.626971 -101.44625 
L 526.805849 -104.151705 
L 525.354207 -106.857159 
L 524.336615 -109.562614 
L 523.759178 -112.268068 
L 523.58 -114.973523 
L 523.728409 -117.678977 
L 524.125562 -120.384432 
L 524.700264 -123.089886 
L 525.396947 -125.795341 
L 526.176181 -128.500795 
L 527.010317 -131.20625 
L 527.87757 -133.911705 
L 528.757225 -136.617159 
L 529.627381 -139.322614 
L 530.465469 -142.028068 
L 531.250844 -144.733523 
L 531.968252 -147.438977 
L 532.610793 -150.144432 
L 533.181112 -152.849886 
L 533.690109 -155.555341 
L 534.153291 -158.260795 
L 534.585875 -160.96625 
L 534.998378 -163.671705 
L 535.394373 -166.377159 
L 535.771334 -169.082614 
L 536.12421 -171.788068 
L 536.450199 -174.493523 
L 536.752622 -177.198977 
L 537.042092 -179.904432 
L 537.334243 -182.609886 
L 537.644731 -185.315341 
L 537.983371 -188.020795 
L 538.349777 -190.72625 
L 538.7323 -193.431705 
L 539.110795 -196.137159 
L 539.462222 -198.842614 
L 539.766979 -201.548068 
L 540.013731 -204.253523 
L 540.201227 -206.958977 
L 540.336929 -209.664432 
L 540.43347 -212.369886 
L 540.504569 -215.075341 
L 540.561896 -217.780795 
L 540.613664 -220.48625 
L 540.664874 -223.191705 
L 540.718508 -225.897159 
L 540.776793 -228.602614 
L 540.841842 -231.308068 
L 540.91548 -234.013523 
L 540.998489 -236.718977 
L 541.089796 -239.424432 
L 541.186125 -242.129886 
L 541.282399 -244.835341 
L 541.372839 -247.540795 
L 541.45236 -250.24625 
L 541.517778 -252.951705 
L 541.568393 -255.657159 
L 541.60581 -258.362614 
L 541.633148 -261.068068 
L 541.653972 -263.773523 
L 541.671356 -266.478977 
L 541.687333 -269.184432 
L 541.702832 -271.889886 
L 541.718031 -274.595341 
L 541.73288 -277.300795 
L 541.747547 -280.00625 
L 541.762544 -282.711705 
L 541.778511 -285.417159 
L 541.795769 -288.122614 
L 541.813932 -290.828068 
L 541.831825 -293.533523 
L 541.847797 -296.238977 
L 541.86033 -298.944432 
L 541.868661 -301.649886 
L 541.873158 -304.355341 
L 541.875299 -307.060795 
L 541.87728 -309.76625 
L 541.881437 -312.471705 
L 541.889687 -315.177159 
L 541.903155 -317.882614 
L 541.922046 -320.588068 
L 541.945746 -323.293523 
L 541.973041 -325.998977 
L 542.002365 -328.704432 
L 542.032016 -331.409886 
L 542.060302 -334.115341 
L 542.085642 -336.820795 
L 542.10664 -339.52625 
L 542.12216 -342.231705 
L 542.131405 -344.937159 
L 542.134026 -347.642614 
L 542.130242 -350.348068 
L 542.120948 -353.053523 
L 542.107773 -355.758977 
L 542.092995 -358.464432 
L 542.07927 -361.169886 
L 542.069191 -363.875341 
L 542.064757 -366.580795 
L 542.066932 -369.28625 
L 542.293068 -369.28625 
L 542.293068 -369.28625 
L 542.295243 -366.580795 
L 542.290809 -363.875341 
L 542.28073 -361.169886 
L 542.267005 -358.464432 
L 542.252227 -355.758977 
L 542.239052 -353.053523 
L 542.229758 -350.348068 
L 542.225974 -347.642614 
L 542.228595 -344.937159 
L 542.23784 -342.231705 
L 542.25336 -339.52625 
L 542.274358 -336.820795 
L 542.299698 -334.115341 
L 542.327984 -331.409886 
L 542.357635 -328.704432 
L 542.386959 -325.998977 
L 542.414254 -323.293523 
L 542.437954 -320.588068 
L 542.456845 -317.882614 
L 542.470313 -315.177159 
L 542.478563 -312.471705 
L 542.48272 -309.76625 
L 542.484701 -307.060795 
L 542.486842 -304.355341 
L 542.491339 -301.649886 
L 542.49967 -298.944432 
L 542.512203 -296.238977 
L 542.528175 -293.533523 
L 542.546068 -290.828068 
L 542.564231 -288.122614 
L 542.581489 -285.417159 
L 542.597456 -282.711705 
L 542.612453 -280.00625 
L 542.62712 -277.300795 
L 542.641969 -274.595341 
L 542.657168 -271.889886 
L 542.672667 -269.184432 
L 542.688644 -266.478977 
L 542.706028 -263.773523 
L 542.726852 -261.068068 
L 542.75419 -258.362614 
L 542.791607 -255.657159 
L 542.842222 -252.951705 
L 542.90764 -250.24625 
L 542.987161 -247.540795 
L 543.077601 -244.835341 
L 543.173875 -242.129886 
L 543.270204 -239.424432 
L 543.361511 -236.718977 
L 543.44452 -234.013523 
L 543.518158 -231.308068 
L 543.583207 -228.602614 
L 543.641492 -225.897159 
L 543.695126 -223.191705 
L 543.746336 -220.48625 
L 543.798104 -217.780795 
L 543.855431 -215.075341 
L 543.92653 -212.369886 
L 544.023071 -209.664432 
L 544.158773 -206.958977 
L 544.346269 -204.253523 
L 544.593021 -201.548068 
L 544.897778 -198.842614 
L 545.249205 -196.137159 
L 545.6277 -193.431705 
L 546.010223 -190.72625 
L 546.376629 -188.020795 
L 546.715269 -185.315341 
L 547.025757 -182.609886 
L 547.317908 -179.904432 
L 547.607378 -177.198977 
L 547.909801 -174.493523 
L 548.23579 -171.788068 
L 548.588666 -169.082614 
L 548.965627 -166.377159 
L 549.361622 -163.671705 
L 549.774125 -160.96625 
L 550.206709 -158.260795 
L 550.669891 -155.555341 
L 551.178888 -152.849886 
L 551.749207 -150.144432 
L 552.391748 -147.438977 
L 553.109156 -144.733523 
L 553.894531 -142.028068 
L 554.732619 -139.322614 
L 555.602775 -136.617159 
L 556.48243 -133.911705 
L 557.349683 -131.20625 
L 558.183819 -128.500795 
L 558.963053 -125.795341 
L 559.659736 -123.089886 
L 560.234438 -120.384432 
L 560.631591 -117.678977 
L 560.78 -114.973523 
L 560.600822 -112.268068 
L 560.023385 -109.562614 
L 559.005793 -106.857159 
L 557.554151 -104.151705 
L 555.733029 -101.44625 
z
" id="ma2585550b8" style="stroke:#000000;stroke-opacity:0.3;"/>
    </defs>
    <g clip-path="url(#p86577ec7e8)">
     <use style="fill:#bfbf00;fill-opacity:0.3;stroke:#000000;stroke-opacity:0.3;" x="0.0" xlink:href="#ma2585550b8" y="465.868"/>
    </g>
   </g>
   <g id="PolyCollection_8">
    <defs>
     <path d="M 630.936811 -101.44625 
L 602.223189 -101.44625 
L 600.324928 -104.282614 
L 598.964561 -107.118977 
L 598.196761 -109.955341 
L 597.98 -112.791705 
L 598.204834 -115.628068 
L 598.734613 -118.464432 
L 599.442467 -121.300795 
L 600.23403 -124.137159 
L 601.053748 -126.973523 
L 601.878893 -129.809886 
L 602.707556 -132.64625 
L 603.545798 -135.482614 
L 604.39697 -138.318977 
L 605.254704 -141.155341 
L 606.100393 -143.991705 
L 606.905626 -146.828068 
L 607.639141 -149.664432 
L 608.276341 -152.500795 
L 608.808004 -155.337159 
L 609.244474 -158.173523 
L 609.613046 -161.009886 
L 609.949052 -163.84625 
L 610.284069 -166.682614 
L 610.63612 -169.518977 
L 611.005911 -172.355341 
L 611.380307 -175.191705 
L 611.740901 -178.028068 
L 612.073344 -180.864432 
L 612.373199 -183.700795 
L 612.646144 -186.537159 
L 612.903331 -189.373523 
L 613.154885 -192.209886 
L 613.405003 -195.04625 
L 613.650739 -197.882614 
L 613.884385 -200.718977 
L 614.097576 -203.555341 
L 614.284839 -206.391705 
L 614.445117 -209.228068 
L 614.581201 -212.064432 
L 614.697956 -214.900795 
L 614.800495 -217.737159 
L 614.893 -220.573523 
L 614.978368 -223.409886 
L 615.058444 -226.24625 
L 615.13447 -229.082614 
L 615.20746 -231.918977 
L 615.278412 -234.755341 
L 615.348366 -237.591705 
L 615.418456 -240.428068 
L 615.489916 -243.264432 
L 615.563949 -246.100795 
L 615.641284 -248.937159 
L 615.721491 -251.773523 
L 615.802358 -254.609886 
L 615.879812 -257.44625 
L 615.948633 -260.282614 
L 616.003898 -263.118977 
L 616.042656 -265.955341 
L 616.065225 -268.791705 
L 616.075592 -271.628068 
L 616.080701 -274.464432 
L 616.08877 -277.300795 
L 616.107088 -280.137159 
L 616.139979 -282.973523 
L 616.187574 -285.809886 
L 616.245844 -288.64625 
L 616.307862 -291.482614 
L 616.365823 -294.318977 
L 616.413137 -297.155341 
L 616.445949 -299.991705 
L 616.463766 -302.828068 
L 616.469171 -305.664432 
L 616.466833 -308.500795 
L 616.462166 -311.337159 
L 616.459954 -314.173523 
L 616.463296 -317.009886 
L 616.47312 -319.84625 
L 616.488354 -322.682614 
L 616.506633 -325.518977 
L 616.525238 -328.355341 
L 616.541914 -331.191705 
L 616.555327 -334.028068 
L 616.565113 -336.864432 
L 616.571627 -339.700795 
L 616.575588 -342.537159 
L 616.57776 -345.373523 
L 616.578751 -348.209886 
L 616.578924 -351.04625 
L 616.578382 -353.882614 
L 616.576991 -356.718977 
L 616.57444 -359.555341 
L 616.570334 -362.391705 
L 616.564359 -365.228068 
L 616.556488 -368.064432 
L 616.54718 -370.900795 
L 616.537459 -373.737159 
L 616.528797 -376.573523 
L 616.522776 -379.409886 
L 616.520615 -382.24625 
L 616.639385 -382.24625 
L 616.639385 -382.24625 
L 616.637224 -379.409886 
L 616.631203 -376.573523 
L 616.622541 -373.737159 
L 616.61282 -370.900795 
L 616.603512 -368.064432 
L 616.595641 -365.228068 
L 616.589666 -362.391705 
L 616.58556 -359.555341 
L 616.583009 -356.718977 
L 616.581618 -353.882614 
L 616.581076 -351.04625 
L 616.581249 -348.209886 
L 616.58224 -345.373523 
L 616.584412 -342.537159 
L 616.588373 -339.700795 
L 616.594887 -336.864432 
L 616.604673 -334.028068 
L 616.618086 -331.191705 
L 616.634762 -328.355341 
L 616.653367 -325.518977 
L 616.671646 -322.682614 
L 616.68688 -319.84625 
L 616.696704 -317.009886 
L 616.700046 -314.173523 
L 616.697834 -311.337159 
L 616.693167 -308.500795 
L 616.690829 -305.664432 
L 616.696234 -302.828068 
L 616.714051 -299.991705 
L 616.746863 -297.155341 
L 616.794177 -294.318977 
L 616.852138 -291.482614 
L 616.914156 -288.64625 
L 616.972426 -285.809886 
L 617.020021 -282.973523 
L 617.052912 -280.137159 
L 617.07123 -277.300795 
L 617.079299 -274.464432 
L 617.084408 -271.628068 
L 617.094775 -268.791705 
L 617.117344 -265.955341 
L 617.156102 -263.118977 
L 617.211367 -260.282614 
L 617.280188 -257.44625 
L 617.357642 -254.609886 
L 617.438509 -251.773523 
L 617.518716 -248.937159 
L 617.596051 -246.100795 
L 617.670084 -243.264432 
L 617.741544 -240.428068 
L 617.811634 -237.591705 
L 617.881588 -234.755341 
L 617.95254 -231.918977 
L 618.02553 -229.082614 
L 618.101556 -226.24625 
L 618.181632 -223.409886 
L 618.267 -220.573523 
L 618.359505 -217.737159 
L 618.462044 -214.900795 
L 618.578799 -212.064432 
L 618.714883 -209.228068 
L 618.875161 -206.391705 
L 619.062424 -203.555341 
L 619.275615 -200.718977 
L 619.509261 -197.882614 
L 619.754997 -195.04625 
L 620.005115 -192.209886 
L 620.256669 -189.373523 
L 620.513856 -186.537159 
L 620.786801 -183.700795 
L 621.086656 -180.864432 
L 621.419099 -178.028068 
L 621.779693 -175.191705 
L 622.154089 -172.355341 
L 622.52388 -169.518977 
L 622.875931 -166.682614 
L 623.210948 -163.84625 
L 623.546954 -161.009886 
L 623.915526 -158.173523 
L 624.351996 -155.337159 
L 624.883659 -152.500795 
L 625.520859 -149.664432 
L 626.254374 -146.828068 
L 627.059607 -143.991705 
L 627.905296 -141.155341 
L 628.76303 -138.318977 
L 629.614202 -135.482614 
L 630.452444 -132.64625 
L 631.281107 -129.809886 
L 632.106252 -126.973523 
L 632.92597 -124.137159 
L 633.717533 -121.300795 
L 634.425387 -118.464432 
L 634.955166 -115.628068 
L 635.18 -112.791705 
L 634.963239 -109.955341 
L 634.195439 -107.118977 
L 632.835072 -104.282614 
L 630.936811 -101.44625 
z
" id="m357d5bbe1d" style="stroke:#000000;stroke-opacity:0.3;"/>
    </defs>
    <g clip-path="url(#p86577ec7e8)">
     <use style="fill:#bfbf00;fill-opacity:0.3;stroke:#000000;stroke-opacity:0.3;" x="0.0" xlink:href="#m357d5bbe1d" y="465.868"/>
    </g>
   </g>
   <g id="LineCollection_1">
    <path clip-path="url(#p86577ec7e8)" d="M 86.48 338.50175 
L 105.08 338.50175 
" style="fill:none;stroke:#ff0000;"/>
    <path clip-path="url(#p86577ec7e8)" d="M 160.88 338.50175 
L 179.48 338.50175 
" style="fill:none;stroke:#ff0000;"/>
    <path clip-path="url(#p86577ec7e8)" d="M 235.28 338.50175 
L 253.88 338.50175 
" style="fill:none;stroke:#ff0000;"/>
    <path clip-path="url(#p86577ec7e8)" d="M 309.68 334.18175 
L 328.28 334.18175 
" style="fill:none;stroke:#ff0000;"/>
    <path clip-path="url(#p86577ec7e8)" d="M 384.08 334.18175 
L 402.68 334.18175 
" style="fill:none;stroke:#ff0000;"/>
    <path clip-path="url(#p86577ec7e8)" d="M 458.48 334.18175 
L 477.08 334.18175 
" style="fill:none;stroke:#ff0000;"/>
    <path clip-path="url(#p86577ec7e8)" d="M 532.88 338.50175 
L 551.48 338.50175 
" style="fill:none;stroke:#ff0000;"/>
    <path clip-path="url(#p86577ec7e8)" d="M 607.28 338.50175 
L 625.88 338.50175 
" style="fill:none;stroke:#ff0000;"/>
   </g>
   <g id="patch_3">
    <path d="M 21.38 23.14175 
L 690.98 23.14175 
" style="fill:none;stroke:#000000;stroke-linecap:square;stroke-linejoin:miter;"/>
   </g>
   <g id="patch_4">
    <path d="M 690.98 368.74175 
L 690.98 23.14175 
" style="fill:none;stroke:#000000;stroke-linecap:square;stroke-linejoin:miter;"/>
   </g>
   <g id="patch_5">
    <path d="M 21.38 368.74175 
L 690.98 368.74175 
" style="fill:none;stroke:#000000;stroke-linecap:square;stroke-linejoin:miter;"/>
   </g>
   <g id="patch_6">
    <path d="M 21.38 368.74175 
L 21.38 23.14175 
" style="fill:none;stroke:#000000;stroke-linecap:square;stroke-linejoin:miter;"/>
   </g>
   <g id="matplotlib.axis_1">
    <g id="xtick_1">
     <g id="line2d_1">
      <defs>
       <path d="M 0 0 
L 0 -4 
" id="mcef7caeb20" style="stroke:#000000;stroke-width:0.5;"/>
      </defs>
      <g>
       <use style="stroke:#000000;stroke-width:0.5;" x="95.78" xlink:href="#mcef7caeb20" y="368.74175"/>
      </g>
     </g>
     <g id="line2d_2">
      <defs>
       <path d="M 0 0 
L 0 4 
" id="m523edb4939" style="stroke:#000000;stroke-width:0.5;"/>
      </defs>
      <g>
       <use style="stroke:#000000;stroke-width:0.5;" x="95.78" xlink:href="#m523edb4939" y="23.14175"/>
      </g>
     </g>
     <g id="text_1">
      <!-- Defector -->
      <defs>
       <path d="M 30.609375 48.390625 
Q 23.390625 48.390625 19.1875 42.75 
Q 14.984375 37.109375 14.984375 27.296875 
Q 14.984375 17.484375 19.15625 11.84375 
Q 23.34375 6.203125 30.609375 6.203125 
Q 37.796875 6.203125 41.984375 11.859375 
Q 46.1875 17.53125 46.1875 27.296875 
Q 46.1875 37.015625 41.984375 42.703125 
Q 37.796875 48.390625 30.609375 48.390625 
M 30.609375 56 
Q 42.328125 56 49.015625 48.375 
Q 55.71875 40.765625 55.71875 27.296875 
Q 55.71875 13.875 49.015625 6.21875 
Q 42.328125 -1.421875 30.609375 -1.421875 
Q 18.84375 -1.421875 12.171875 6.21875 
Q 5.515625 13.875 5.515625 27.296875 
Q 5.515625 40.765625 12.171875 48.375 
Q 18.84375 56 30.609375 56 
" id="BitstreamVeraSans-Roman-6f"/>
       <path d="M 19.671875 64.796875 
L 19.671875 8.109375 
L 31.59375 8.109375 
Q 46.6875 8.109375 53.6875 14.9375 
Q 60.6875 21.78125 60.6875 36.53125 
Q 60.6875 51.171875 53.6875 57.984375 
Q 46.6875 64.796875 31.59375 64.796875 
z
M 9.8125 72.90625 
L 30.078125 72.90625 
Q 51.265625 72.90625 61.171875 64.09375 
Q 71.09375 55.28125 71.09375 36.53125 
Q 71.09375 17.671875 61.125 8.828125 
Q 51.171875 0 30.078125 0 
L 9.8125 0 
z
" id="BitstreamVeraSans-Roman-44"/>
       <path d="M 56.203125 29.59375 
L 56.203125 25.203125 
L 14.890625 25.203125 
Q 15.484375 15.921875 20.484375 11.0625 
Q 25.484375 6.203125 34.421875 6.203125 
Q 39.59375 6.203125 44.453125 7.46875 
Q 49.3125 8.734375 54.109375 11.28125 
L 54.109375 2.78125 
Q 49.265625 0.734375 44.1875 -0.34375 
Q 39.109375 -1.421875 33.890625 -1.421875 
Q 20.796875 -1.421875 13.15625 6.1875 
Q 5.515625 13.8125 5.515625 26.8125 
Q 5.515625 40.234375 12.765625 48.109375 
Q 20.015625 56 32.328125 56 
Q 43.359375 56 49.78125 48.890625 
Q 56.203125 41.796875 56.203125 29.59375 
M 47.21875 32.234375 
Q 47.125 39.59375 43.09375 43.984375 
Q 39.0625 48.390625 32.421875 48.390625 
Q 24.90625 48.390625 20.390625 44.140625 
Q 15.875 39.890625 15.1875 32.171875 
z
" id="BitstreamVeraSans-Roman-65"/>
       <path d="M 18.3125 70.21875 
L 18.3125 54.6875 
L 36.8125 54.6875 
L 36.8125 47.703125 
L 18.3125 47.703125 
L 18.3125 18.015625 
Q 18.3125 11.328125 20.140625 9.421875 
Q 21.96875 7.515625 27.59375 7.515625 
L 36.8125 7.515625 
L 36.8125 0 
L 27.59375 0 
Q 17.1875 0 13.234375 3.875 
Q 9.28125 7.765625 9.28125 18.015625 
L 9.28125 47.703125 
L 2.6875 47.703125 
L 2.6875 54.6875 
L 9.28125 54.6875 
L 9.28125 70.21875 
z
" id="BitstreamVeraSans-Roman-74"/>
       <path d="M 37.109375 75.984375 
L 37.109375 68.5 
L 28.515625 68.5 
Q 23.6875 68.5 21.796875 66.546875 
Q 19.921875 64.59375 19.921875 59.515625 
L 19.921875 54.6875 
L 34.71875 54.6875 
L 34.71875 47.703125 
L 19.921875 47.703125 
L 19.921875 0 
L 10.890625 0 
L 10.890625 47.703125 
L 2.296875 47.703125 
L 2.296875 54.6875 
L 10.890625 54.6875 
L 10.890625 58.5 
Q 10.890625 67.625 15.140625 71.796875 
Q 19.390625 75.984375 28.609375 75.984375 
z
" id="BitstreamVeraSans-Roman-66"/>
       <path d="M 41.109375 46.296875 
Q 39.59375 47.171875 37.8125 47.578125 
Q 36.03125 48 33.890625 48 
Q 26.265625 48 22.1875 43.046875 
Q 18.109375 38.09375 18.109375 28.8125 
L 18.109375 0 
L 9.078125 0 
L 9.078125 54.6875 
L 18.109375 54.6875 
L 18.109375 46.1875 
Q 20.953125 51.171875 25.484375 53.578125 
Q 30.03125 56 36.53125 56 
Q 37.453125 56 38.578125 55.875 
Q 39.703125 55.765625 41.0625 55.515625 
z
" id="BitstreamVeraSans-Roman-72"/>
       <path d="M 48.78125 52.59375 
L 48.78125 44.1875 
Q 44.96875 46.296875 41.140625 47.34375 
Q 37.3125 48.390625 33.40625 48.390625 
Q 24.65625 48.390625 19.8125 42.84375 
Q 14.984375 37.3125 14.984375 27.296875 
Q 14.984375 17.28125 19.8125 11.734375 
Q 24.65625 6.203125 33.40625 6.203125 
Q 37.3125 6.203125 41.140625 7.25 
Q 44.96875 8.296875 48.78125 10.40625 
L 48.78125 2.09375 
Q 45.015625 0.34375 40.984375 -0.53125 
Q 36.96875 -1.421875 32.421875 -1.421875 
Q 20.0625 -1.421875 12.78125 6.34375 
Q 5.515625 14.109375 5.515625 27.296875 
Q 5.515625 40.671875 12.859375 48.328125 
Q 20.21875 56 33.015625 56 
Q 37.15625 56 41.109375 55.140625 
Q 45.0625 54.296875 48.78125 52.59375 
" id="BitstreamVeraSans-Roman-63"/>
      </defs>
      <g transform="translate(97.9875 407.28175)rotate(-90.0)scale(0.08 -0.08)">
       <use xlink:href="#BitstreamVeraSans-Roman-44"/>
       <use x="77.001953125" xlink:href="#BitstreamVeraSans-Roman-65"/>
       <use x="138.525390625" xlink:href="#BitstreamVeraSans-Roman-66"/>
       <use x="173.73046875" xlink:href="#BitstreamVeraSans-Roman-65"/>
       <use x="235.25390625" xlink:href="#BitstreamVeraSans-Roman-63"/>
       <use x="290.234375" xlink:href="#BitstreamVeraSans-Roman-74"/>
       <use x="329.443359375" xlink:href="#BitstreamVeraSans-Roman-6f"/>
       <use x="390.625" xlink:href="#BitstreamVeraSans-Roman-72"/>
      </g>
     </g>
    </g>
    <g id="xtick_2">
     <g id="line2d_3">
      <g>
       <use style="stroke:#000000;stroke-width:0.5;" x="170.18" xlink:href="#mcef7caeb20" y="368.74175"/>
      </g>
     </g>
     <g id="line2d_4">
      <g>
       <use style="stroke:#000000;stroke-width:0.5;" x="170.18" xlink:href="#m523edb4939" y="23.14175"/>
      </g>
     </g>
     <g id="text_2">
      <!-- Bully -->
      <defs>
       <path d="M 8.5 21.578125 
L 8.5 54.6875 
L 17.484375 54.6875 
L 17.484375 21.921875 
Q 17.484375 14.15625 20.5 10.265625 
Q 23.53125 6.390625 29.59375 6.390625 
Q 36.859375 6.390625 41.078125 11.03125 
Q 45.3125 15.671875 45.3125 23.6875 
L 45.3125 54.6875 
L 54.296875 54.6875 
L 54.296875 0 
L 45.3125 0 
L 45.3125 8.40625 
Q 42.046875 3.421875 37.71875 1 
Q 33.40625 -1.421875 27.6875 -1.421875 
Q 18.265625 -1.421875 13.375 4.4375 
Q 8.5 10.296875 8.5 21.578125 
" id="BitstreamVeraSans-Roman-75"/>
       <path d="M 19.671875 34.8125 
L 19.671875 8.109375 
L 35.5 8.109375 
Q 43.453125 8.109375 47.28125 11.40625 
Q 51.125 14.703125 51.125 21.484375 
Q 51.125 28.328125 47.28125 31.5625 
Q 43.453125 34.8125 35.5 34.8125 
z
M 19.671875 64.796875 
L 19.671875 42.828125 
L 34.28125 42.828125 
Q 41.5 42.828125 45.03125 45.53125 
Q 48.578125 48.25 48.578125 53.8125 
Q 48.578125 59.328125 45.03125 62.0625 
Q 41.5 64.796875 34.28125 64.796875 
z
M 9.8125 72.90625 
L 35.015625 72.90625 
Q 46.296875 72.90625 52.390625 68.21875 
Q 58.5 63.53125 58.5 54.890625 
Q 58.5 48.1875 55.375 44.234375 
Q 52.25 40.28125 46.1875 39.3125 
Q 53.46875 37.75 57.5 32.78125 
Q 61.53125 27.828125 61.53125 20.40625 
Q 61.53125 10.640625 54.890625 5.3125 
Q 48.25 0 35.984375 0 
L 9.8125 0 
z
" id="BitstreamVeraSans-Roman-42"/>
       <path d="M 9.421875 75.984375 
L 18.40625 75.984375 
L 18.40625 0 
L 9.421875 0 
z
" id="BitstreamVeraSans-Roman-6c"/>
       <path d="M 32.171875 -5.078125 
Q 28.375 -14.84375 24.75 -17.8125 
Q 21.140625 -20.796875 15.09375 -20.796875 
L 7.90625 -20.796875 
L 7.90625 -13.28125 
L 13.1875 -13.28125 
Q 16.890625 -13.28125 18.9375 -11.515625 
Q 21 -9.765625 23.484375 -3.21875 
L 25.09375 0.875 
L 2.984375 54.6875 
L 12.5 54.6875 
L 29.59375 11.921875 
L 46.6875 54.6875 
L 56.203125 54.6875 
z
" id="BitstreamVeraSans-Roman-79"/>
      </defs>
      <g transform="translate(172.3875 392.4805)rotate(-90.0)scale(0.08 -0.08)">
       <use xlink:href="#BitstreamVeraSans-Roman-42"/>
       <use x="68.603515625" xlink:href="#BitstreamVeraSans-Roman-75"/>
       <use x="131.982421875" xlink:href="#BitstreamVeraSans-Roman-6c"/>
       <use x="159.765625" xlink:href="#BitstreamVeraSans-Roman-6c"/>
       <use x="187.548828125" xlink:href="#BitstreamVeraSans-Roman-79"/>
      </g>
     </g>
    </g>
    <g id="xtick_3">
     <g id="line2d_5">
      <g>
       <use style="stroke:#000000;stroke-width:0.5;" x="244.58" xlink:href="#mcef7caeb20" y="368.74175"/>
      </g>
     </g>
     <g id="line2d_6">
      <g>
       <use style="stroke:#000000;stroke-width:0.5;" x="244.58" xlink:href="#m523edb4939" y="23.14175"/>
      </g>
     </g>
     <g id="text_3">
      <!-- Suspicious Tit For Tat -->
      <defs>
       <path id="BitstreamVeraSans-Roman-20"/>
       <path d="M 9.8125 72.90625 
L 51.703125 72.90625 
L 51.703125 64.59375 
L 19.671875 64.59375 
L 19.671875 43.109375 
L 48.578125 43.109375 
L 48.578125 34.8125 
L 19.671875 34.8125 
L 19.671875 0 
L 9.8125 0 
z
" id="BitstreamVeraSans-Roman-46"/>
       <path d="M 53.515625 70.515625 
L 53.515625 60.890625 
Q 47.90625 63.578125 42.921875 64.890625 
Q 37.9375 66.21875 33.296875 66.21875 
Q 25.25 66.21875 20.875 63.09375 
Q 16.5 59.96875 16.5 54.203125 
Q 16.5 49.359375 19.40625 46.890625 
Q 22.3125 44.4375 30.421875 42.921875 
L 36.375 41.703125 
Q 47.40625 39.59375 52.65625 34.296875 
Q 57.90625 29 57.90625 20.125 
Q 57.90625 9.515625 50.796875 4.046875 
Q 43.703125 -1.421875 29.984375 -1.421875 
Q 24.8125 -1.421875 18.96875 -0.25 
Q 13.140625 0.921875 6.890625 3.21875 
L 6.890625 13.375 
Q 12.890625 10.015625 18.65625 8.296875 
Q 24.421875 6.59375 29.984375 6.59375 
Q 38.421875 6.59375 43.015625 9.90625 
Q 47.609375 13.234375 47.609375 19.390625 
Q 47.609375 24.75 44.3125 27.78125 
Q 41.015625 30.8125 33.5 32.328125 
L 27.484375 33.5 
Q 16.453125 35.6875 11.515625 40.375 
Q 6.59375 45.0625 6.59375 53.421875 
Q 6.59375 63.09375 13.40625 68.65625 
Q 20.21875 74.21875 32.171875 74.21875 
Q 37.3125 74.21875 42.625 73.28125 
Q 47.953125 72.359375 53.515625 70.515625 
" id="BitstreamVeraSans-Roman-53"/>
       <path d="M -0.296875 72.90625 
L 61.375 72.90625 
L 61.375 64.59375 
L 35.5 64.59375 
L 35.5 0 
L 25.59375 0 
L 25.59375 64.59375 
L -0.296875 64.59375 
z
" id="BitstreamVeraSans-Roman-54"/>
       <path d="M 9.421875 54.6875 
L 18.40625 54.6875 
L 18.40625 0 
L 9.421875 0 
z
M 9.421875 75.984375 
L 18.40625 75.984375 
L 18.40625 64.59375 
L 9.421875 64.59375 
z
" id="BitstreamVeraSans-Roman-69"/>
       <path d="M 34.28125 27.484375 
Q 23.390625 27.484375 19.1875 25 
Q 14.984375 22.515625 14.984375 16.5 
Q 14.984375 11.71875 18.140625 8.90625 
Q 21.296875 6.109375 26.703125 6.109375 
Q 34.1875 6.109375 38.703125 11.40625 
Q 43.21875 16.703125 43.21875 25.484375 
L 43.21875 27.484375 
z
M 52.203125 31.203125 
L 52.203125 0 
L 43.21875 0 
L 43.21875 8.296875 
Q 40.140625 3.328125 35.546875 0.953125 
Q 30.953125 -1.421875 24.3125 -1.421875 
Q 15.921875 -1.421875 10.953125 3.296875 
Q 6 8.015625 6 15.921875 
Q 6 25.140625 12.171875 29.828125 
Q 18.359375 34.515625 30.609375 34.515625 
L 43.21875 34.515625 
L 43.21875 35.40625 
Q 43.21875 41.609375 39.140625 45 
Q 35.0625 48.390625 27.6875 48.390625 
Q 23 48.390625 18.546875 47.265625 
Q 14.109375 46.140625 10.015625 43.890625 
L 10.015625 52.203125 
Q 14.9375 54.109375 19.578125 55.046875 
Q 24.21875 56 28.609375 56 
Q 40.484375 56 46.34375 49.84375 
Q 52.203125 43.703125 52.203125 31.203125 
" id="BitstreamVeraSans-Roman-61"/>
       <path d="M 44.28125 53.078125 
L 44.28125 44.578125 
Q 40.484375 46.53125 36.375 47.5 
Q 32.28125 48.484375 27.875 48.484375 
Q 21.1875 48.484375 17.84375 46.4375 
Q 14.5 44.390625 14.5 40.28125 
Q 14.5 37.15625 16.890625 35.375 
Q 19.28125 33.59375 26.515625 31.984375 
L 29.59375 31.296875 
Q 39.15625 29.25 43.1875 25.515625 
Q 47.21875 21.78125 47.21875 15.09375 
Q 47.21875 7.46875 41.1875 3.015625 
Q 35.15625 -1.421875 24.609375 -1.421875 
Q 20.21875 -1.421875 15.453125 -0.5625 
Q 10.6875 0.296875 5.421875 2 
L 5.421875 11.28125 
Q 10.40625 8.6875 15.234375 7.390625 
Q 20.0625 6.109375 24.8125 6.109375 
Q 31.15625 6.109375 34.5625 8.28125 
Q 37.984375 10.453125 37.984375 14.40625 
Q 37.984375 18.0625 35.515625 20.015625 
Q 33.0625 21.96875 24.703125 23.78125 
L 21.578125 24.515625 
Q 13.234375 26.265625 9.515625 29.90625 
Q 5.8125 33.546875 5.8125 39.890625 
Q 5.8125 47.609375 11.28125 51.796875 
Q 16.75 56 26.8125 56 
Q 31.78125 56 36.171875 55.265625 
Q 40.578125 54.546875 44.28125 53.078125 
" id="BitstreamVeraSans-Roman-73"/>
       <path d="M 18.109375 8.203125 
L 18.109375 -20.796875 
L 9.078125 -20.796875 
L 9.078125 54.6875 
L 18.109375 54.6875 
L 18.109375 46.390625 
Q 20.953125 51.265625 25.265625 53.625 
Q 29.59375 56 35.59375 56 
Q 45.5625 56 51.78125 48.09375 
Q 58.015625 40.1875 58.015625 27.296875 
Q 58.015625 14.40625 51.78125 6.484375 
Q 45.5625 -1.421875 35.59375 -1.421875 
Q 29.59375 -1.421875 25.265625 0.953125 
Q 20.953125 3.328125 18.109375 8.203125 
M 48.6875 27.296875 
Q 48.6875 37.203125 44.609375 42.84375 
Q 40.53125 48.484375 33.40625 48.484375 
Q 26.265625 48.484375 22.1875 42.84375 
Q 18.109375 37.203125 18.109375 27.296875 
Q 18.109375 17.390625 22.1875 11.75 
Q 26.265625 6.109375 33.40625 6.109375 
Q 40.53125 6.109375 44.609375 11.75 
Q 48.6875 17.390625 48.6875 27.296875 
" id="BitstreamVeraSans-Roman-70"/>
      </defs>
      <g transform="translate(246.7875 458.668)rotate(-90.0)scale(0.08 -0.08)">
       <use xlink:href="#BitstreamVeraSans-Roman-53"/>
       <use x="63.4765625" xlink:href="#BitstreamVeraSans-Roman-75"/>
       <use x="126.85546875" xlink:href="#BitstreamVeraSans-Roman-73"/>
       <use x="178.955078125" xlink:href="#BitstreamVeraSans-Roman-70"/>
       <use x="242.431640625" xlink:href="#BitstreamVeraSans-Roman-69"/>
       <use x="270.21484375" xlink:href="#BitstreamVeraSans-Roman-63"/>
       <use x="325.1953125" xlink:href="#BitstreamVeraSans-Roman-69"/>
       <use x="352.978515625" xlink:href="#BitstreamVeraSans-Roman-6f"/>
       <use x="414.16015625" xlink:href="#BitstreamVeraSans-Roman-75"/>
       <use x="477.5390625" xlink:href="#BitstreamVeraSans-Roman-73"/>
       <use x="529.638671875" xlink:href="#BitstreamVeraSans-Roman-20"/>
       <use x="561.42578125" xlink:href="#BitstreamVeraSans-Roman-54"/>
       <use x="622.462890625" xlink:href="#BitstreamVeraSans-Roman-69"/>
       <use x="650.24609375" xlink:href="#BitstreamVeraSans-Roman-74"/>
       <use x="689.455078125" xlink:href="#BitstreamVeraSans-Roman-20"/>
       <use x="721.2421875" xlink:href="#BitstreamVeraSans-Roman-46"/>
       <use x="778.71484375" xlink:href="#BitstreamVeraSans-Roman-6f"/>
       <use x="839.896484375" xlink:href="#BitstreamVeraSans-Roman-72"/>
       <use x="881.009765625" xlink:href="#BitstreamVeraSans-Roman-20"/>
       <use x="912.796875" xlink:href="#BitstreamVeraSans-Roman-54"/>
       <use x="973.630859375" xlink:href="#BitstreamVeraSans-Roman-61"/>
       <use x="1034.91015625" xlink:href="#BitstreamVeraSans-Roman-74"/>
      </g>
     </g>
    </g>
    <g id="xtick_4">
     <g id="line2d_7">
      <g>
       <use style="stroke:#000000;stroke-width:0.5;" x="318.98" xlink:href="#mcef7caeb20" y="368.74175"/>
      </g>
     </g>
     <g id="line2d_8">
      <g>
       <use style="stroke:#000000;stroke-width:0.5;" x="318.98" xlink:href="#m523edb4939" y="23.14175"/>
      </g>
     </g>
     <g id="text_4">
      <!-- Alternator -->
      <defs>
       <path d="M 54.890625 33.015625 
L 54.890625 0 
L 45.90625 0 
L 45.90625 32.71875 
Q 45.90625 40.484375 42.875 44.328125 
Q 39.84375 48.1875 33.796875 48.1875 
Q 26.515625 48.1875 22.3125 43.546875 
Q 18.109375 38.921875 18.109375 30.90625 
L 18.109375 0 
L 9.078125 0 
L 9.078125 54.6875 
L 18.109375 54.6875 
L 18.109375 46.1875 
Q 21.34375 51.125 25.703125 53.5625 
Q 30.078125 56 35.796875 56 
Q 45.21875 56 50.046875 50.171875 
Q 54.890625 44.34375 54.890625 33.015625 
" id="BitstreamVeraSans-Roman-6e"/>
       <path d="M 34.1875 63.1875 
L 20.796875 26.90625 
L 47.609375 26.90625 
z
M 28.609375 72.90625 
L 39.796875 72.90625 
L 67.578125 0 
L 57.328125 0 
L 50.6875 18.703125 
L 17.828125 18.703125 
L 11.1875 0 
L 0.78125 0 
z
" id="BitstreamVeraSans-Roman-41"/>
      </defs>
      <g transform="translate(321.1875 413.0755)rotate(-90.0)scale(0.08 -0.08)">
       <use xlink:href="#BitstreamVeraSans-Roman-41"/>
       <use x="68.408203125" xlink:href="#BitstreamVeraSans-Roman-6c"/>
       <use x="96.19140625" xlink:href="#BitstreamVeraSans-Roman-74"/>
       <use x="135.400390625" xlink:href="#BitstreamVeraSans-Roman-65"/>
       <use x="196.923828125" xlink:href="#BitstreamVeraSans-Roman-72"/>
       <use x="238.021484375" xlink:href="#BitstreamVeraSans-Roman-6e"/>
       <use x="301.400390625" xlink:href="#BitstreamVeraSans-Roman-61"/>
       <use x="362.6796875" xlink:href="#BitstreamVeraSans-Roman-74"/>
       <use x="401.888671875" xlink:href="#BitstreamVeraSans-Roman-6f"/>
       <use x="463.0703125" xlink:href="#BitstreamVeraSans-Roman-72"/>
      </g>
     </g>
    </g>
    <g id="xtick_5">
     <g id="line2d_9">
      <g>
       <use style="stroke:#000000;stroke-width:0.5;" x="393.38" xlink:href="#mcef7caeb20" y="368.74175"/>
      </g>
     </g>
     <g id="line2d_10">
      <g>
       <use style="stroke:#000000;stroke-width:0.5;" x="393.38" xlink:href="#m523edb4939" y="23.14175"/>
      </g>
     </g>
     <g id="text_5">
      <!-- Tit For Tat -->
      <g transform="translate(395.5875 413.75425)rotate(-90.0)scale(0.08 -0.08)">
       <use xlink:href="#BitstreamVeraSans-Roman-54"/>
       <use x="61.037109375" xlink:href="#BitstreamVeraSans-Roman-69"/>
       <use x="88.8203125" xlink:href="#BitstreamVeraSans-Roman-74"/>
       <use x="128.029296875" xlink:href="#BitstreamVeraSans-Roman-20"/>
       <use x="159.81640625" xlink:href="#BitstreamVeraSans-Roman-46"/>
       <use x="217.2890625" xlink:href="#BitstreamVeraSans-Roman-6f"/>
       <use x="278.470703125" xlink:href="#BitstreamVeraSans-Roman-72"/>
       <use x="319.583984375" xlink:href="#BitstreamVeraSans-Roman-20"/>
       <use x="351.37109375" xlink:href="#BitstreamVeraSans-Roman-54"/>
       <use x="412.205078125" xlink:href="#BitstreamVeraSans-Roman-61"/>
       <use x="473.484375" xlink:href="#BitstreamVeraSans-Roman-74"/>
      </g>
     </g>
    </g>
    <g id="xtick_6">
     <g id="line2d_11">
      <g>
       <use style="stroke:#000000;stroke-width:0.5;" x="467.78" xlink:href="#mcef7caeb20" y="368.74175"/>
      </g>
     </g>
     <g id="line2d_12">
      <g>
       <use style="stroke:#000000;stroke-width:0.5;" x="467.78" xlink:href="#m523edb4939" y="23.14175"/>
      </g>
     </g>
     <g id="text_6">
      <!-- Anti Tit For Tat -->
      <g transform="translate(469.9875 432.198)rotate(-90.0)scale(0.08 -0.08)">
       <use xlink:href="#BitstreamVeraSans-Roman-41"/>
       <use x="68.408203125" xlink:href="#BitstreamVeraSans-Roman-6e"/>
       <use x="131.787109375" xlink:href="#BitstreamVeraSans-Roman-74"/>
       <use x="170.99609375" xlink:href="#BitstreamVeraSans-Roman-69"/>
       <use x="198.779296875" xlink:href="#BitstreamVeraSans-Roman-20"/>
       <use x="230.56640625" xlink:href="#BitstreamVeraSans-Roman-54"/>
       <use x="291.603515625" xlink:href="#BitstreamVeraSans-Roman-69"/>
       <use x="319.38671875" xlink:href="#BitstreamVeraSans-Roman-74"/>
       <use x="358.595703125" xlink:href="#BitstreamVeraSans-Roman-20"/>
       <use x="390.3828125" xlink:href="#BitstreamVeraSans-Roman-46"/>
       <use x="447.85546875" xlink:href="#BitstreamVeraSans-Roman-6f"/>
       <use x="509.037109375" xlink:href="#BitstreamVeraSans-Roman-72"/>
       <use x="550.150390625" xlink:href="#BitstreamVeraSans-Roman-20"/>
       <use x="581.9375" xlink:href="#BitstreamVeraSans-Roman-54"/>
       <use x="642.771484375" xlink:href="#BitstreamVeraSans-Roman-61"/>
       <use x="704.05078125" xlink:href="#BitstreamVeraSans-Roman-74"/>
      </g>
     </g>
    </g>
    <g id="xtick_7">
     <g id="line2d_13">
      <g>
       <use style="stroke:#000000;stroke-width:0.5;" x="542.18" xlink:href="#mcef7caeb20" y="368.74175"/>
      </g>
     </g>
     <g id="line2d_14">
      <g>
       <use style="stroke:#000000;stroke-width:0.5;" x="542.18" xlink:href="#m523edb4939" y="23.14175"/>
      </g>
     </g>
     <g id="text_7">
      <!-- Win-Stay Lose-Shift -->
      <defs>
       <path d="M 54.890625 33.015625 
L 54.890625 0 
L 45.90625 0 
L 45.90625 32.71875 
Q 45.90625 40.484375 42.875 44.328125 
Q 39.84375 48.1875 33.796875 48.1875 
Q 26.515625 48.1875 22.3125 43.546875 
Q 18.109375 38.921875 18.109375 30.90625 
L 18.109375 0 
L 9.078125 0 
L 9.078125 75.984375 
L 18.109375 75.984375 
L 18.109375 46.1875 
Q 21.34375 51.125 25.703125 53.5625 
Q 30.078125 56 35.796875 56 
Q 45.21875 56 50.046875 50.171875 
Q 54.890625 44.34375 54.890625 33.015625 
" id="BitstreamVeraSans-Roman-68"/>
       <path d="M 9.8125 72.90625 
L 19.671875 72.90625 
L 19.671875 8.296875 
L 55.171875 8.296875 
L 55.171875 0 
L 9.8125 0 
z
" id="BitstreamVeraSans-Roman-4c"/>
       <path d="M 4.890625 31.390625 
L 31.203125 31.390625 
L 31.203125 23.390625 
L 4.890625 23.390625 
z
" id="BitstreamVeraSans-Roman-2d"/>
       <path d="M 3.328125 72.90625 
L 13.28125 72.90625 
L 28.609375 11.28125 
L 43.890625 72.90625 
L 54.984375 72.90625 
L 70.3125 11.28125 
L 85.59375 72.90625 
L 95.609375 72.90625 
L 77.296875 0 
L 64.890625 0 
L 49.515625 63.28125 
L 33.984375 0 
L 21.578125 0 
z
" id="BitstreamVeraSans-Roman-57"/>
      </defs>
      <g transform="translate(544.3875 450.873)rotate(-90.0)scale(0.08 -0.08)">
       <use xlink:href="#BitstreamVeraSans-Roman-57"/>
       <use x="98.845703125" xlink:href="#BitstreamVeraSans-Roman-69"/>
       <use x="126.62890625" xlink:href="#BitstreamVeraSans-Roman-6e"/>
       <use x="190.0078125" xlink:href="#BitstreamVeraSans-Roman-2d"/>
       <use x="226.091796875" xlink:href="#BitstreamVeraSans-Roman-53"/>
       <use x="289.568359375" xlink:href="#BitstreamVeraSans-Roman-74"/>
       <use x="328.77734375" xlink:href="#BitstreamVeraSans-Roman-61"/>
       <use x="390.056640625" xlink:href="#BitstreamVeraSans-Roman-79"/>
       <use x="449.236328125" xlink:href="#BitstreamVeraSans-Roman-20"/>
       <use x="481.0234375" xlink:href="#BitstreamVeraSans-Roman-4c"/>
       <use x="536.720703125" xlink:href="#BitstreamVeraSans-Roman-6f"/>
       <use x="597.90234375" xlink:href="#BitstreamVeraSans-Roman-73"/>
       <use x="650.001953125" xlink:href="#BitstreamVeraSans-Roman-65"/>
       <use x="711.525390625" xlink:href="#BitstreamVeraSans-Roman-2d"/>
       <use x="747.609375" xlink:href="#BitstreamVeraSans-Roman-53"/>
       <use x="811.0859375" xlink:href="#BitstreamVeraSans-Roman-68"/>
       <use x="874.46484375" xlink:href="#BitstreamVeraSans-Roman-69"/>
       <use x="902.248046875" xlink:href="#BitstreamVeraSans-Roman-66"/>
       <use x="937.4375" xlink:href="#BitstreamVeraSans-Roman-74"/>
      </g>
     </g>
    </g>
    <g id="xtick_8">
     <g id="line2d_15">
      <g>
       <use style="stroke:#000000;stroke-width:0.5;" x="616.58" xlink:href="#mcef7caeb20" y="368.74175"/>
      </g>
     </g>
     <g id="line2d_16">
      <g>
       <use style="stroke:#000000;stroke-width:0.5;" x="616.58" xlink:href="#m523edb4939" y="23.14175"/>
      </g>
     </g>
     <g id="text_8">
      <!-- Cooperator -->
      <defs>
       <path d="M 64.40625 67.28125 
L 64.40625 56.890625 
Q 59.421875 61.53125 53.78125 63.8125 
Q 48.140625 66.109375 41.796875 66.109375 
Q 29.296875 66.109375 22.65625 58.46875 
Q 16.015625 50.828125 16.015625 36.375 
Q 16.015625 21.96875 22.65625 14.328125 
Q 29.296875 6.6875 41.796875 6.6875 
Q 48.140625 6.6875 53.78125 8.984375 
Q 59.421875 11.28125 64.40625 15.921875 
L 64.40625 5.609375 
Q 59.234375 2.09375 53.4375 0.328125 
Q 47.65625 -1.421875 41.21875 -1.421875 
Q 24.65625 -1.421875 15.125 8.703125 
Q 5.609375 18.84375 5.609375 36.375 
Q 5.609375 53.953125 15.125 64.078125 
Q 24.65625 74.21875 41.21875 74.21875 
Q 47.75 74.21875 53.53125 72.484375 
Q 59.328125 70.75 64.40625 67.28125 
" id="BitstreamVeraSans-Roman-43"/>
      </defs>
      <g transform="translate(618.7875 417.6305)rotate(-90.0)scale(0.08 -0.08)">
       <use xlink:href="#BitstreamVeraSans-Roman-43"/>
       <use x="69.82421875" xlink:href="#BitstreamVeraSans-Roman-6f"/>
       <use x="131.005859375" xlink:href="#BitstreamVeraSans-Roman-6f"/>
       <use x="192.1875" xlink:href="#BitstreamVeraSans-Roman-70"/>
       <use x="255.6640625" xlink:href="#BitstreamVeraSans-Roman-65"/>
       <use x="317.1875" xlink:href="#BitstreamVeraSans-Roman-72"/>
       <use x="358.30078125" xlink:href="#BitstreamVeraSans-Roman-61"/>
       <use x="419.580078125" xlink:href="#BitstreamVeraSans-Roman-74"/>
       <use x="458.7890625" xlink:href="#BitstreamVeraSans-Roman-6f"/>
       <use x="519.970703125" xlink:href="#BitstreamVeraSans-Roman-72"/>
      </g>
     </g>
    </g>
   </g>
   <g id="matplotlib.axis_2">
    <g id="ytick_1">
     <g id="line2d_17">
      <defs>
       <path d="M 0 0 
L 4 0 
" id="mfa0aa50915" style="stroke:#000000;stroke-width:0.5;"/>
      </defs>
      <g>
       <use style="stroke:#000000;stroke-width:0.5;" x="21.38" xlink:href="#mfa0aa50915" y="368.74175"/>
      </g>
     </g>
     <g id="line2d_18">
      <defs>
       <path d="M 0 0 
L -4 0 
" id="m9219c8fc6f" style="stroke:#000000;stroke-width:0.5;"/>
      </defs>
      <g>
       <use style="stroke:#000000;stroke-width:0.5;" x="690.98" xlink:href="#m9219c8fc6f" y="368.74175"/>
      </g>
     </g>
     <g id="text_9">
      <!-- 0 -->
      <defs>
       <path d="M 31.78125 66.40625 
Q 24.171875 66.40625 20.328125 58.90625 
Q 16.5 51.421875 16.5 36.375 
Q 16.5 21.390625 20.328125 13.890625 
Q 24.171875 6.390625 31.78125 6.390625 
Q 39.453125 6.390625 43.28125 13.890625 
Q 47.125 21.390625 47.125 36.375 
Q 47.125 51.421875 43.28125 58.90625 
Q 39.453125 66.40625 31.78125 66.40625 
M 31.78125 74.21875 
Q 44.046875 74.21875 50.515625 64.515625 
Q 56.984375 54.828125 56.984375 36.375 
Q 56.984375 17.96875 50.515625 8.265625 
Q 44.046875 -1.421875 31.78125 -1.421875 
Q 19.53125 -1.421875 13.0625 8.265625 
Q 6.59375 17.96875 6.59375 36.375 
Q 6.59375 54.828125 13.0625 64.515625 
Q 19.53125 74.21875 31.78125 74.21875 
" id="BitstreamVeraSans-Roman-30"/>
      </defs>
      <g transform="translate(12.29 370.94925)scale(0.08 -0.08)">
       <use xlink:href="#BitstreamVeraSans-Roman-30"/>
      </g>
     </g>
    </g>
    <g id="ytick_2">
     <g id="line2d_19">
      <g>
       <use style="stroke:#000000;stroke-width:0.5;" x="21.38" xlink:href="#mfa0aa50915" y="325.54175"/>
      </g>
     </g>
     <g id="line2d_20">
      <g>
       <use style="stroke:#000000;stroke-width:0.5;" x="690.98" xlink:href="#m9219c8fc6f" y="325.54175"/>
      </g>
     </g>
     <g id="text_10">
      <!-- 10 -->
      <defs>
       <path d="M 12.40625 8.296875 
L 28.515625 8.296875 
L 28.515625 63.921875 
L 10.984375 60.40625 
L 10.984375 69.390625 
L 28.421875 72.90625 
L 38.28125 72.90625 
L 38.28125 8.296875 
L 54.390625 8.296875 
L 54.390625 0 
L 12.40625 0 
z
" id="BitstreamVeraSans-Roman-31"/>
      </defs>
      <g transform="translate(7.2 327.74925)scale(0.08 -0.08)">
       <use xlink:href="#BitstreamVeraSans-Roman-31"/>
       <use x="63.623046875" xlink:href="#BitstreamVeraSans-Roman-30"/>
      </g>
     </g>
    </g>
    <g id="ytick_3">
     <g id="line2d_21">
      <g>
       <use style="stroke:#000000;stroke-width:0.5;" x="21.38" xlink:href="#mfa0aa50915" y="282.34175"/>
      </g>
     </g>
     <g id="line2d_22">
      <g>
       <use style="stroke:#000000;stroke-width:0.5;" x="690.98" xlink:href="#m9219c8fc6f" y="282.34175"/>
      </g>
     </g>
     <g id="text_11">
      <!-- 20 -->
      <defs>
       <path d="M 19.1875 8.296875 
L 53.609375 8.296875 
L 53.609375 0 
L 7.328125 0 
L 7.328125 8.296875 
Q 12.9375 14.109375 22.625 23.890625 
Q 32.328125 33.6875 34.8125 36.53125 
Q 39.546875 41.84375 41.421875 45.53125 
Q 43.3125 49.21875 43.3125 52.78125 
Q 43.3125 58.59375 39.234375 62.25 
Q 35.15625 65.921875 28.609375 65.921875 
Q 23.96875 65.921875 18.8125 64.3125 
Q 13.671875 62.703125 7.8125 59.421875 
L 7.8125 69.390625 
Q 13.765625 71.78125 18.9375 73 
Q 24.125 74.21875 28.421875 74.21875 
Q 39.75 74.21875 46.484375 68.546875 
Q 53.21875 62.890625 53.21875 53.421875 
Q 53.21875 48.921875 51.53125 44.890625 
Q 49.859375 40.875 45.40625 35.40625 
Q 44.1875 33.984375 37.640625 27.21875 
Q 31.109375 20.453125 19.1875 8.296875 
" id="BitstreamVeraSans-Roman-32"/>
      </defs>
      <g transform="translate(7.2 284.54925)scale(0.08 -0.08)">
       <use xlink:href="#BitstreamVeraSans-Roman-32"/>
       <use x="63.623046875" xlink:href="#BitstreamVeraSans-Roman-30"/>
      </g>
     </g>
    </g>
    <g id="ytick_4">
     <g id="line2d_23">
      <g>
       <use style="stroke:#000000;stroke-width:0.5;" x="21.38" xlink:href="#mfa0aa50915" y="239.14175"/>
      </g>
     </g>
     <g id="line2d_24">
      <g>
       <use style="stroke:#000000;stroke-width:0.5;" x="690.98" xlink:href="#m9219c8fc6f" y="239.14175"/>
      </g>
     </g>
     <g id="text_12">
      <!-- 30 -->
      <defs>
       <path d="M 40.578125 39.3125 
Q 47.65625 37.796875 51.625 33 
Q 55.609375 28.21875 55.609375 21.1875 
Q 55.609375 10.40625 48.1875 4.484375 
Q 40.765625 -1.421875 27.09375 -1.421875 
Q 22.515625 -1.421875 17.65625 -0.515625 
Q 12.796875 0.390625 7.625 2.203125 
L 7.625 11.71875 
Q 11.71875 9.328125 16.59375 8.109375 
Q 21.484375 6.890625 26.8125 6.890625 
Q 36.078125 6.890625 40.9375 10.546875 
Q 45.796875 14.203125 45.796875 21.1875 
Q 45.796875 27.640625 41.28125 31.265625 
Q 36.765625 34.90625 28.71875 34.90625 
L 20.21875 34.90625 
L 20.21875 43.015625 
L 29.109375 43.015625 
Q 36.375 43.015625 40.234375 45.921875 
Q 44.09375 48.828125 44.09375 54.296875 
Q 44.09375 59.90625 40.109375 62.90625 
Q 36.140625 65.921875 28.71875 65.921875 
Q 24.65625 65.921875 20.015625 65.03125 
Q 15.375 64.15625 9.8125 62.3125 
L 9.8125 71.09375 
Q 15.4375 72.65625 20.34375 73.4375 
Q 25.25 74.21875 29.59375 74.21875 
Q 40.828125 74.21875 47.359375 69.109375 
Q 53.90625 64.015625 53.90625 55.328125 
Q 53.90625 49.265625 50.4375 45.09375 
Q 46.96875 40.921875 40.578125 39.3125 
" id="BitstreamVeraSans-Roman-33"/>
      </defs>
      <g transform="translate(7.2 241.34925)scale(0.08 -0.08)">
       <use xlink:href="#BitstreamVeraSans-Roman-33"/>
       <use x="63.623046875" xlink:href="#BitstreamVeraSans-Roman-30"/>
      </g>
     </g>
    </g>
    <g id="ytick_5">
     <g id="line2d_25">
      <g>
       <use style="stroke:#000000;stroke-width:0.5;" x="21.38" xlink:href="#mfa0aa50915" y="195.94175"/>
      </g>
     </g>
     <g id="line2d_26">
      <g>
       <use style="stroke:#000000;stroke-width:0.5;" x="690.98" xlink:href="#m9219c8fc6f" y="195.94175"/>
      </g>
     </g>
     <g id="text_13">
      <!-- 40 -->
      <defs>
       <path d="M 37.796875 64.3125 
L 12.890625 25.390625 
L 37.796875 25.390625 
z
M 35.203125 72.90625 
L 47.609375 72.90625 
L 47.609375 25.390625 
L 58.015625 25.390625 
L 58.015625 17.1875 
L 47.609375 17.1875 
L 47.609375 0 
L 37.796875 0 
L 37.796875 17.1875 
L 4.890625 17.1875 
L 4.890625 26.703125 
z
" id="BitstreamVeraSans-Roman-34"/>
      </defs>
      <g transform="translate(7.2 198.14925)scale(0.08 -0.08)">
       <use xlink:href="#BitstreamVeraSans-Roman-34"/>
       <use x="63.623046875" xlink:href="#BitstreamVeraSans-Roman-30"/>
      </g>
     </g>
    </g>
    <g id="ytick_6">
     <g id="line2d_27">
      <g>
       <use style="stroke:#000000;stroke-width:0.5;" x="21.38" xlink:href="#mfa0aa50915" y="152.74175"/>
      </g>
     </g>
     <g id="line2d_28">
      <g>
       <use style="stroke:#000000;stroke-width:0.5;" x="690.98" xlink:href="#m9219c8fc6f" y="152.74175"/>
      </g>
     </g>
     <g id="text_14">
      <!-- 50 -->
      <defs>
       <path d="M 10.796875 72.90625 
L 49.515625 72.90625 
L 49.515625 64.59375 
L 19.828125 64.59375 
L 19.828125 46.734375 
Q 21.96875 47.46875 24.109375 47.828125 
Q 26.265625 48.1875 28.421875 48.1875 
Q 40.625 48.1875 47.75 41.5 
Q 54.890625 34.8125 54.890625 23.390625 
Q 54.890625 11.625 47.5625 5.09375 
Q 40.234375 -1.421875 26.90625 -1.421875 
Q 22.3125 -1.421875 17.546875 -0.640625 
Q 12.796875 0.140625 7.71875 1.703125 
L 7.71875 11.625 
Q 12.109375 9.234375 16.796875 8.0625 
Q 21.484375 6.890625 26.703125 6.890625 
Q 35.15625 6.890625 40.078125 11.328125 
Q 45.015625 15.765625 45.015625 23.390625 
Q 45.015625 31 40.078125 35.4375 
Q 35.15625 39.890625 26.703125 39.890625 
Q 22.75 39.890625 18.8125 39.015625 
Q 14.890625 38.140625 10.796875 36.28125 
z
" id="BitstreamVeraSans-Roman-35"/>
      </defs>
      <g transform="translate(7.2 154.94925)scale(0.08 -0.08)">
       <use xlink:href="#BitstreamVeraSans-Roman-35"/>
       <use x="63.623046875" xlink:href="#BitstreamVeraSans-Roman-30"/>
      </g>
     </g>
    </g>
    <g id="ytick_7">
     <g id="line2d_29">
      <g>
       <use style="stroke:#000000;stroke-width:0.5;" x="21.38" xlink:href="#mfa0aa50915" y="109.54175"/>
      </g>
     </g>
     <g id="line2d_30">
      <g>
       <use style="stroke:#000000;stroke-width:0.5;" x="690.98" xlink:href="#m9219c8fc6f" y="109.54175"/>
      </g>
     </g>
     <g id="text_15">
      <!-- 60 -->
      <defs>
       <path d="M 33.015625 40.375 
Q 26.375 40.375 22.484375 35.828125 
Q 18.609375 31.296875 18.609375 23.390625 
Q 18.609375 15.53125 22.484375 10.953125 
Q 26.375 6.390625 33.015625 6.390625 
Q 39.65625 6.390625 43.53125 10.953125 
Q 47.40625 15.53125 47.40625 23.390625 
Q 47.40625 31.296875 43.53125 35.828125 
Q 39.65625 40.375 33.015625 40.375 
M 52.59375 71.296875 
L 52.59375 62.3125 
Q 48.875 64.0625 45.09375 64.984375 
Q 41.3125 65.921875 37.59375 65.921875 
Q 27.828125 65.921875 22.671875 59.328125 
Q 17.53125 52.734375 16.796875 39.40625 
Q 19.671875 43.65625 24.015625 45.921875 
Q 28.375 48.1875 33.59375 48.1875 
Q 44.578125 48.1875 50.953125 41.515625 
Q 57.328125 34.859375 57.328125 23.390625 
Q 57.328125 12.15625 50.6875 5.359375 
Q 44.046875 -1.421875 33.015625 -1.421875 
Q 20.359375 -1.421875 13.671875 8.265625 
Q 6.984375 17.96875 6.984375 36.375 
Q 6.984375 53.65625 15.1875 63.9375 
Q 23.390625 74.21875 37.203125 74.21875 
Q 40.921875 74.21875 44.703125 73.484375 
Q 48.484375 72.75 52.59375 71.296875 
" id="BitstreamVeraSans-Roman-36"/>
      </defs>
      <g transform="translate(7.2 111.74925)scale(0.08 -0.08)">
       <use xlink:href="#BitstreamVeraSans-Roman-36"/>
       <use x="63.623046875" xlink:href="#BitstreamVeraSans-Roman-30"/>
      </g>
     </g>
    </g>
    <g id="ytick_8">
     <g id="line2d_31">
      <g>
       <use style="stroke:#000000;stroke-width:0.5;" x="21.38" xlink:href="#mfa0aa50915" y="66.34175"/>
      </g>
     </g>
     <g id="line2d_32">
      <g>
       <use style="stroke:#000000;stroke-width:0.5;" x="690.98" xlink:href="#m9219c8fc6f" y="66.34175"/>
      </g>
     </g>
     <g id="text_16">
      <!-- 70 -->
      <defs>
       <path d="M 8.203125 72.90625 
L 55.078125 72.90625 
L 55.078125 68.703125 
L 28.609375 0 
L 18.3125 0 
L 43.21875 64.59375 
L 8.203125 64.59375 
z
" id="BitstreamVeraSans-Roman-37"/>
      </defs>
      <g transform="translate(7.2 68.54925)scale(0.08 -0.08)">
       <use xlink:href="#BitstreamVeraSans-Roman-37"/>
       <use x="63.623046875" xlink:href="#BitstreamVeraSans-Roman-30"/>
      </g>
     </g>
    </g>
    <g id="ytick_9">
     <g id="line2d_33">
      <g>
       <use style="stroke:#000000;stroke-width:0.5;" x="21.38" xlink:href="#mfa0aa50915" y="23.14175"/>
      </g>
     </g>
     <g id="line2d_34">
      <g>
       <use style="stroke:#000000;stroke-width:0.5;" x="690.98" xlink:href="#m9219c8fc6f" y="23.14175"/>
      </g>
     </g>
     <g id="text_17">
      <!-- 80 -->
      <defs>
       <path d="M 31.78125 34.625 
Q 24.75 34.625 20.71875 30.859375 
Q 16.703125 27.09375 16.703125 20.515625 
Q 16.703125 13.921875 20.71875 10.15625 
Q 24.75 6.390625 31.78125 6.390625 
Q 38.8125 6.390625 42.859375 10.171875 
Q 46.921875 13.96875 46.921875 20.515625 
Q 46.921875 27.09375 42.890625 30.859375 
Q 38.875 34.625 31.78125 34.625 
M 21.921875 38.8125 
Q 15.578125 40.375 12.03125 44.71875 
Q 8.5 49.078125 8.5 55.328125 
Q 8.5 64.0625 14.71875 69.140625 
Q 20.953125 74.21875 31.78125 74.21875 
Q 42.671875 74.21875 48.875 69.140625 
Q 55.078125 64.0625 55.078125 55.328125 
Q 55.078125 49.078125 51.53125 44.71875 
Q 48 40.375 41.703125 38.8125 
Q 48.828125 37.15625 52.796875 32.3125 
Q 56.78125 27.484375 56.78125 20.515625 
Q 56.78125 9.90625 50.3125 4.234375 
Q 43.84375 -1.421875 31.78125 -1.421875 
Q 19.734375 -1.421875 13.25 4.234375 
Q 6.78125 9.90625 6.78125 20.515625 
Q 6.78125 27.484375 10.78125 32.3125 
Q 14.796875 37.15625 21.921875 38.8125 
M 18.3125 54.390625 
Q 18.3125 48.734375 21.84375 45.5625 
Q 25.390625 42.390625 31.78125 42.390625 
Q 38.140625 42.390625 41.71875 45.5625 
Q 45.3125 48.734375 45.3125 54.390625 
Q 45.3125 60.0625 41.71875 63.234375 
Q 38.140625 66.40625 31.78125 66.40625 
Q 25.390625 66.40625 21.84375 63.234375 
Q 18.3125 60.0625 18.3125 54.390625 
" id="BitstreamVeraSans-Roman-38"/>
      </defs>
      <g transform="translate(7.2 25.34925)scale(0.08 -0.08)">
       <use xlink:href="#BitstreamVeraSans-Roman-38"/>
       <use x="63.623046875" xlink:href="#BitstreamVeraSans-Roman-30"/>
      </g>
     </g>
    </g>
   </g>
   <g id="text_18">
    <!-- Lengths. Prob end: 0.1, Repetitions: 100, Strategies: 8. -->
    <defs>
     <path d="M 44.390625 34.1875 
Q 47.5625 33.109375 50.5625 29.59375 
Q 53.5625 26.078125 56.59375 19.921875 
L 66.609375 0 
L 56 0 
L 46.6875 18.703125 
Q 43.0625 26.03125 39.671875 28.421875 
Q 36.28125 30.8125 30.421875 30.8125 
L 19.671875 30.8125 
L 19.671875 0 
L 9.8125 0 
L 9.8125 72.90625 
L 32.078125 72.90625 
Q 44.578125 72.90625 50.734375 67.671875 
Q 56.890625 62.453125 56.890625 51.90625 
Q 56.890625 45.015625 53.6875 40.46875 
Q 50.484375 35.9375 44.390625 34.1875 
M 19.671875 64.796875 
L 19.671875 38.921875 
L 32.078125 38.921875 
Q 39.203125 38.921875 42.84375 42.21875 
Q 46.484375 45.515625 46.484375 51.90625 
Q 46.484375 58.296875 42.84375 61.546875 
Q 39.203125 64.796875 32.078125 64.796875 
z
" id="BitstreamVeraSans-Roman-52"/>
     <path d="M 19.671875 64.796875 
L 19.671875 37.40625 
L 32.078125 37.40625 
Q 38.96875 37.40625 42.71875 40.96875 
Q 46.484375 44.53125 46.484375 51.125 
Q 46.484375 57.671875 42.71875 61.234375 
Q 38.96875 64.796875 32.078125 64.796875 
z
M 9.8125 72.90625 
L 32.078125 72.90625 
Q 44.34375 72.90625 50.609375 67.359375 
Q 56.890625 61.8125 56.890625 51.125 
Q 56.890625 40.328125 50.609375 34.8125 
Q 44.34375 29.296875 32.078125 29.296875 
L 19.671875 29.296875 
L 19.671875 0 
L 9.8125 0 
z
" id="BitstreamVeraSans-Roman-50"/>
     <path d="M 11.71875 12.40625 
L 22.015625 12.40625 
L 22.015625 4 
L 14.015625 -11.625 
L 7.71875 -11.625 
L 11.71875 4 
z
" id="BitstreamVeraSans-Roman-2c"/>
     <path d="M 11.71875 12.40625 
L 22.015625 12.40625 
L 22.015625 0 
L 11.71875 0 
z
M 11.71875 51.703125 
L 22.015625 51.703125 
L 22.015625 39.3125 
L 11.71875 39.3125 
z
" id="BitstreamVeraSans-Roman-3a"/>
     <path d="M 10.6875 12.40625 
L 21 12.40625 
L 21 0 
L 10.6875 0 
z
" id="BitstreamVeraSans-Roman-2e"/>
     <path d="M 45.40625 46.390625 
L 45.40625 75.984375 
L 54.390625 75.984375 
L 54.390625 0 
L 45.40625 0 
L 45.40625 8.203125 
Q 42.578125 3.328125 38.25 0.953125 
Q 33.9375 -1.421875 27.875 -1.421875 
Q 17.96875 -1.421875 11.734375 6.484375 
Q 5.515625 14.40625 5.515625 27.296875 
Q 5.515625 40.1875 11.734375 48.09375 
Q 17.96875 56 27.875 56 
Q 33.9375 56 38.25 53.625 
Q 42.578125 51.265625 45.40625 46.390625 
M 14.796875 27.296875 
Q 14.796875 17.390625 18.875 11.75 
Q 22.953125 6.109375 30.078125 6.109375 
Q 37.203125 6.109375 41.296875 11.75 
Q 45.40625 17.390625 45.40625 27.296875 
Q 45.40625 37.203125 41.296875 42.84375 
Q 37.203125 48.484375 30.078125 48.484375 
Q 22.953125 48.484375 18.875 42.84375 
Q 14.796875 37.203125 14.796875 27.296875 
" id="BitstreamVeraSans-Roman-64"/>
     <path d="M 45.40625 27.984375 
Q 45.40625 37.75 41.375 43.109375 
Q 37.359375 48.484375 30.078125 48.484375 
Q 22.859375 48.484375 18.828125 43.109375 
Q 14.796875 37.75 14.796875 27.984375 
Q 14.796875 18.265625 18.828125 12.890625 
Q 22.859375 7.515625 30.078125 7.515625 
Q 37.359375 7.515625 41.375 12.890625 
Q 45.40625 18.265625 45.40625 27.984375 
M 54.390625 6.78125 
Q 54.390625 -7.171875 48.1875 -13.984375 
Q 42 -20.796875 29.203125 -20.796875 
Q 24.46875 -20.796875 20.265625 -20.09375 
Q 16.0625 -19.390625 12.109375 -17.921875 
L 12.109375 -9.1875 
Q 16.0625 -11.328125 19.921875 -12.34375 
Q 23.78125 -13.375 27.78125 -13.375 
Q 36.625 -13.375 41.015625 -8.765625 
Q 45.40625 -4.15625 45.40625 5.171875 
L 45.40625 9.625 
Q 42.625 4.78125 38.28125 2.390625 
Q 33.9375 0 27.875 0 
Q 17.828125 0 11.671875 7.65625 
Q 5.515625 15.328125 5.515625 27.984375 
Q 5.515625 40.671875 11.671875 48.328125 
Q 17.828125 56 27.875 56 
Q 33.9375 56 38.28125 53.609375 
Q 42.625 51.21875 45.40625 46.390625 
L 45.40625 54.6875 
L 54.390625 54.6875 
z
" id="BitstreamVeraSans-Roman-67"/>
     <path d="M 48.6875 27.296875 
Q 48.6875 37.203125 44.609375 42.84375 
Q 40.53125 48.484375 33.40625 48.484375 
Q 26.265625 48.484375 22.1875 42.84375 
Q 18.109375 37.203125 18.109375 27.296875 
Q 18.109375 17.390625 22.1875 11.75 
Q 26.265625 6.109375 33.40625 6.109375 
Q 40.53125 6.109375 44.609375 11.75 
Q 48.6875 17.390625 48.6875 27.296875 
M 18.109375 46.390625 
Q 20.953125 51.265625 25.265625 53.625 
Q 29.59375 56 35.59375 56 
Q 45.5625 56 51.78125 48.09375 
Q 58.015625 40.1875 58.015625 27.296875 
Q 58.015625 14.40625 51.78125 6.484375 
Q 45.5625 -1.421875 35.59375 -1.421875 
Q 29.59375 -1.421875 25.265625 0.953125 
Q 20.953125 3.328125 18.109375 8.203125 
L 18.109375 0 
L 9.078125 0 
L 9.078125 75.984375 
L 18.109375 75.984375 
z
" id="BitstreamVeraSans-Roman-62"/>
    </defs>
    <g transform="translate(157.843625 18.14175)scale(0.144 -0.144)">
     <use xlink:href="#BitstreamVeraSans-Roman-4c"/>
     <use x="55.697265625" xlink:href="#BitstreamVeraSans-Roman-65"/>
     <use x="117.220703125" xlink:href="#BitstreamVeraSans-Roman-6e"/>
     <use x="180.599609375" xlink:href="#BitstreamVeraSans-Roman-67"/>
     <use x="244.076171875" xlink:href="#BitstreamVeraSans-Roman-74"/>
     <use x="283.28515625" xlink:href="#BitstreamVeraSans-Roman-68"/>
     <use x="346.6640625" xlink:href="#BitstreamVeraSans-Roman-73"/>
     <use x="398.763671875" xlink:href="#BitstreamVeraSans-Roman-2e"/>
     <use x="430.55078125" xlink:href="#BitstreamVeraSans-Roman-20"/>
     <use x="462.337890625" xlink:href="#BitstreamVeraSans-Roman-50"/>
     <use x="522.625" xlink:href="#BitstreamVeraSans-Roman-72"/>
     <use x="563.70703125" xlink:href="#BitstreamVeraSans-Roman-6f"/>
     <use x="624.888671875" xlink:href="#BitstreamVeraSans-Roman-62"/>
     <use x="688.365234375" xlink:href="#BitstreamVeraSans-Roman-20"/>
     <use x="720.15234375" xlink:href="#BitstreamVeraSans-Roman-65"/>
     <use x="781.67578125" xlink:href="#BitstreamVeraSans-Roman-6e"/>
     <use x="845.0546875" xlink:href="#BitstreamVeraSans-Roman-64"/>
     <use x="908.53125" xlink:href="#BitstreamVeraSans-Roman-3a"/>
     <use x="942.22265625" xlink:href="#BitstreamVeraSans-Roman-20"/>
     <use x="974.009765625" xlink:href="#BitstreamVeraSans-Roman-30"/>
     <use x="1037.6328125" xlink:href="#BitstreamVeraSans-Roman-2e"/>
     <use x="1069.41992188" xlink:href="#BitstreamVeraSans-Roman-31"/>
     <use x="1133.04296875" xlink:href="#BitstreamVeraSans-Roman-2c"/>
     <use x="1164.83007812" xlink:href="#BitstreamVeraSans-Roman-20"/>
     <use x="1196.6171875" xlink:href="#BitstreamVeraSans-Roman-52"/>
     <use x="1266.03710938" xlink:href="#BitstreamVeraSans-Roman-65"/>
     <use x="1327.56054688" xlink:href="#BitstreamVeraSans-Roman-70"/>
     <use x="1391.03710938" xlink:href="#BitstreamVeraSans-Roman-65"/>
     <use x="1452.56054688" xlink:href="#BitstreamVeraSans-Roman-74"/>
     <use x="1491.76953125" xlink:href="#BitstreamVeraSans-Roman-69"/>
     <use x="1519.55273438" xlink:href="#BitstreamVeraSans-Roman-74"/>
     <use x="1558.76171875" xlink:href="#BitstreamVeraSans-Roman-69"/>
     <use x="1586.54492188" xlink:href="#BitstreamVeraSans-Roman-6f"/>
     <use x="1647.7265625" xlink:href="#BitstreamVeraSans-Roman-6e"/>
     <use x="1711.10546875" xlink:href="#BitstreamVeraSans-Roman-73"/>
     <use x="1763.20507812" xlink:href="#BitstreamVeraSans-Roman-3a"/>
     <use x="1796.89648438" xlink:href="#BitstreamVeraSans-Roman-20"/>
     <use x="1828.68359375" xlink:href="#BitstreamVeraSans-Roman-31"/>
     <use x="1892.30664062" xlink:href="#BitstreamVeraSans-Roman-30"/>
     <use x="1955.9296875" xlink:href="#BitstreamVeraSans-Roman-30"/>
     <use x="2019.55273438" xlink:href="#BitstreamVeraSans-Roman-2c"/>
     <use x="2051.33984375" xlink:href="#BitstreamVeraSans-Roman-20"/>
     <use x="2083.12695312" xlink:href="#BitstreamVeraSans-Roman-53"/>
     <use x="2146.60351562" xlink:href="#BitstreamVeraSans-Roman-74"/>
     <use x="2185.8125" xlink:href="#BitstreamVeraSans-Roman-72"/>
     <use x="2226.92578125" xlink:href="#BitstreamVeraSans-Roman-61"/>
     <use x="2288.20507812" xlink:href="#BitstreamVeraSans-Roman-74"/>
     <use x="2327.4140625" xlink:href="#BitstreamVeraSans-Roman-65"/>
     <use x="2388.9375" xlink:href="#BitstreamVeraSans-Roman-67"/>
     <use x="2452.4140625" xlink:href="#BitstreamVeraSans-Roman-69"/>
     <use x="2480.19726562" xlink:href="#BitstreamVeraSans-Roman-65"/>
     <use x="2541.72070312" xlink:href="#BitstreamVeraSans-Roman-73"/>
     <use x="2593.8203125" xlink:href="#BitstreamVeraSans-Roman-3a"/>
     <use x="2627.51171875" xlink:href="#BitstreamVeraSans-Roman-20"/>
     <use x="2659.29882812" xlink:href="#BitstreamVeraSans-Roman-38"/>
     <use x="2722.921875" xlink:href="#BitstreamVeraSans-Roman-2e"/>
    </g>
   </g>
  </g>
 </g>
 <defs>
  <clipPath id="p86577ec7e8">
   <rect height="345.6" width="669.6" x="21.38" y="23.14175"/>
  </clipPath>
 </defs>
</svg>
