<?xml version="1.0" encoding="utf-8" standalone="no"?>
<!DOCTYPE svg PUBLIC "-//W3C//DTD SVG 1.1//EN"
  "http://www.w3.org/Graphics/SVG/1.1/DTD/svg11.dtd">
<!-- Created with matplotlib (http://matplotlib.org/) -->
<svg height="465pt" version="1.1" viewBox="0 0 693 465" width="693pt" xmlns="http://www.w3.org/2000/svg" xmlns:xlink="http://www.w3.org/1999/xlink">
 <defs>
  <style type="text/css">
*{stroke-linecap:butt;stroke-linejoin:round;stroke-miterlimit:100000;}
  </style>
 </defs>
 <g id="figure_1">
  <g id="patch_1">
   <path d="M 0 465.868 
L 693.09 465.868 
L 693.09 0 
L 0 0 
z
" style="fill:#ffffff;"/>
  </g>
  <g id="axes_1">
   <g id="patch_2">
    <path d="M 16.29 368.74175 
L 685.89 368.74175 
L 685.89 23.14175 
L 16.29 23.14175 
z
" style="fill:#ffffff;"/>
   </g>
   <g id="PolyCollection_1">
    <defs>
     <path d="M 109.29 -418.040536 
L 72.09 -418.040536 
L 72.09 -418.040536 
L 72.09 -418.040536 
L 72.09 -418.040536 
L 72.09 -418.040536 
L 72.09 -418.040536 
L 72.09 -418.040536 
L 72.09 -418.040536 
L 72.09 -418.040536 
L 72.09 -418.040536 
L 72.09 -418.040536 
L 72.09 -418.040536 
L 72.09 -418.040536 
L 72.09 -418.040536 
L 72.09 -418.040536 
L 72.09 -418.040536 
L 72.09 -418.040536 
L 72.09 -418.040536 
L 72.09 -418.040536 
L 72.09 -418.040536 
L 72.09 -418.040536 
L 72.09 -418.040536 
L 72.09 -418.040536 
L 72.09 -418.040536 
L 72.09 -418.040536 
L 72.09 -418.040536 
L 72.09 -418.040536 
L 72.09 -418.040536 
L 72.09 -418.040536 
L 72.09 -418.040536 
L 72.09 -418.040536 
L 72.09 -418.040536 
L 72.09 -418.040536 
L 72.09 -418.040536 
L 72.09 -418.040536 
L 72.09 -418.040536 
L 72.09 -418.040536 
L 72.09 -418.040536 
L 72.09 -418.040536 
L 72.09 -418.040536 
L 72.09 -418.040536 
L 72.09 -418.040536 
L 72.09 -418.040536 
L 72.09 -418.040536 
L 72.09 -418.040536 
L 72.09 -418.040536 
L 72.09 -418.040536 
L 72.09 -418.040536 
L 72.09 -418.040536 
L 72.09 -418.040536 
L 72.09 -418.040536 
L 72.09 -418.040536 
L 72.09 -418.040536 
L 72.09 -418.040536 
L 72.09 -418.040536 
L 72.09 -418.040536 
L 72.09 -418.040536 
L 72.09 -418.040536 
L 72.09 -418.040536 
L 72.09 -418.040536 
L 72.09 -418.040536 
L 72.09 -418.040536 
L 72.09 -418.040536 
L 72.09 -418.040536 
L 72.09 -418.040536 
L 72.09 -418.040536 
L 72.09 -418.040536 
L 72.09 -418.040536 
L 72.09 -418.040536 
L 72.09 -418.040536 
L 72.09 -418.040536 
L 72.09 -418.040536 
L 72.09 -418.040536 
L 72.09 -418.040536 
L 72.09 -418.040536 
L 72.09 -418.040536 
L 72.09 -418.040536 
L 72.09 -418.040536 
L 72.09 -418.040536 
L 72.09 -418.040536 
L 72.09 -418.040536 
L 72.09 -418.040536 
L 72.09 -418.040536 
L 72.09 -418.040536 
L 72.09 -418.040536 
L 72.09 -418.040536 
L 72.09 -418.040536 
L 72.09 -418.040536 
L 72.09 -418.040536 
L 72.09 -418.040536 
L 72.09 -418.040536 
L 72.09 -418.040536 
L 72.09 -418.040536 
L 72.09 -418.040536 
L 72.09 -418.040536 
L 72.09 -418.040536 
L 72.09 -418.040536 
L 72.09 -418.040536 
L 72.09 -418.040536 
L 72.09 -418.040536 
L 109.29 -418.040536 
L 109.29 -418.040536 
L 109.29 -418.040536 
L 109.29 -418.040536 
L 109.29 -418.040536 
L 109.29 -418.040536 
L 109.29 -418.040536 
L 109.29 -418.040536 
L 109.29 -418.040536 
L 109.29 -418.040536 
L 109.29 -418.040536 
L 109.29 -418.040536 
L 109.29 -418.040536 
L 109.29 -418.040536 
L 109.29 -418.040536 
L 109.29 -418.040536 
L 109.29 -418.040536 
L 109.29 -418.040536 
L 109.29 -418.040536 
L 109.29 -418.040536 
L 109.29 -418.040536 
L 109.29 -418.040536 
L 109.29 -418.040536 
L 109.29 -418.040536 
L 109.29 -418.040536 
L 109.29 -418.040536 
L 109.29 -418.040536 
L 109.29 -418.040536 
L 109.29 -418.040536 
L 109.29 -418.040536 
L 109.29 -418.040536 
L 109.29 -418.040536 
L 109.29 -418.040536 
L 109.29 -418.040536 
L 109.29 -418.040536 
L 109.29 -418.040536 
L 109.29 -418.040536 
L 109.29 -418.040536 
L 109.29 -418.040536 
L 109.29 -418.040536 
L 109.29 -418.040536 
L 109.29 -418.040536 
L 109.29 -418.040536 
L 109.29 -418.040536 
L 109.29 -418.040536 
L 109.29 -418.040536 
L 109.29 -418.040536 
L 109.29 -418.040536 
L 109.29 -418.040536 
L 109.29 -418.040536 
L 109.29 -418.040536 
L 109.29 -418.040536 
L 109.29 -418.040536 
L 109.29 -418.040536 
L 109.29 -418.040536 
L 109.29 -418.040536 
L 109.29 -418.040536 
L 109.29 -418.040536 
L 109.29 -418.040536 
L 109.29 -418.040536 
L 109.29 -418.040536 
L 109.29 -418.040536 
L 109.29 -418.040536 
L 109.29 -418.040536 
L 109.29 -418.040536 
L 109.29 -418.040536 
L 109.29 -418.040536 
L 109.29 -418.040536 
L 109.29 -418.040536 
L 109.29 -418.040536 
L 109.29 -418.040536 
L 109.29 -418.040536 
L 109.29 -418.040536 
L 109.29 -418.040536 
L 109.29 -418.040536 
L 109.29 -418.040536 
L 109.29 -418.040536 
L 109.29 -418.040536 
L 109.29 -418.040536 
L 109.29 -418.040536 
L 109.29 -418.040536 
L 109.29 -418.040536 
L 109.29 -418.040536 
L 109.29 -418.040536 
L 109.29 -418.040536 
L 109.29 -418.040536 
L 109.29 -418.040536 
L 109.29 -418.040536 
L 109.29 -418.040536 
L 109.29 -418.040536 
L 109.29 -418.040536 
L 109.29 -418.040536 
L 109.29 -418.040536 
L 109.29 -418.040536 
L 109.29 -418.040536 
L 109.29 -418.040536 
L 109.29 -418.040536 
L 109.29 -418.040536 
L 109.29 -418.040536 
L 109.29 -418.040536 
L 109.29 -418.040536 
z
" id="m2a48deed01" style="stroke:#000000;stroke-opacity:0.3;"/>
    </defs>
    <g clip-path="url(#p0441a1c56e)">
     <use style="fill:#bfbf00;fill-opacity:0.3;stroke:#000000;stroke-opacity:0.3;" x="0.0" xlink:href="#m2a48deed01" y="465.868"/>
    </g>
   </g>
   <g id="PolyCollection_2">
    <defs>
     <path d="M 183.69 -368.669107 
L 146.49 -368.669107 
L 146.49 -368.669107 
L 146.49 -368.669107 
L 146.49 -368.669107 
L 146.49 -368.669107 
L 146.49 -368.669107 
L 146.49 -368.669107 
L 146.49 -368.669107 
L 146.49 -368.669107 
L 146.49 -368.669107 
L 146.49 -368.669107 
L 146.49 -368.669107 
L 146.49 -368.669107 
L 146.49 -368.669107 
L 146.49 -368.669107 
L 146.49 -368.669107 
L 146.49 -368.669107 
L 146.49 -368.669107 
L 146.49 -368.669107 
L 146.49 -368.669107 
L 146.49 -368.669107 
L 146.49 -368.669107 
L 146.49 -368.669107 
L 146.49 -368.669107 
L 146.49 -368.669107 
L 146.49 -368.669107 
L 146.49 -368.669107 
L 146.49 -368.669107 
L 146.49 -368.669107 
L 146.49 -368.669107 
L 146.49 -368.669107 
L 146.49 -368.669107 
L 146.49 -368.669107 
L 146.49 -368.669107 
L 146.49 -368.669107 
L 146.49 -368.669107 
L 146.49 -368.669107 
L 146.49 -368.669107 
L 146.49 -368.669107 
L 146.49 -368.669107 
L 146.49 -368.669107 
L 146.49 -368.669107 
L 146.49 -368.669107 
L 146.49 -368.669107 
L 146.49 -368.669107 
L 146.49 -368.669107 
L 146.49 -368.669107 
L 146.49 -368.669107 
L 146.49 -368.669107 
L 146.49 -368.669107 
L 146.49 -368.669107 
L 146.49 -368.669107 
L 146.49 -368.669107 
L 146.49 -368.669107 
L 146.49 -368.669107 
L 146.49 -368.669107 
L 146.49 -368.669107 
L 146.49 -368.669107 
L 146.49 -368.669107 
L 146.49 -368.669107 
L 146.49 -368.669107 
L 146.49 -368.669107 
L 146.49 -368.669107 
L 146.49 -368.669107 
L 146.49 -368.669107 
L 146.49 -368.669107 
L 146.49 -368.669107 
L 146.49 -368.669107 
L 146.49 -368.669107 
L 146.49 -368.669107 
L 146.49 -368.669107 
L 146.49 -368.669107 
L 146.49 -368.669107 
L 146.49 -368.669107 
L 146.49 -368.669107 
L 146.49 -368.669107 
L 146.49 -368.669107 
L 146.49 -368.669107 
L 146.49 -368.669107 
L 146.49 -368.669107 
L 146.49 -368.669107 
L 146.49 -368.669107 
L 146.49 -368.669107 
L 146.49 -368.669107 
L 146.49 -368.669107 
L 146.49 -368.669107 
L 146.49 -368.669107 
L 146.49 -368.669107 
L 146.49 -368.669107 
L 146.49 -368.669107 
L 146.49 -368.669107 
L 146.49 -368.669107 
L 146.49 -368.669107 
L 146.49 -368.669107 
L 146.49 -368.669107 
L 146.49 -368.669107 
L 146.49 -368.669107 
L 146.49 -368.669107 
L 146.49 -368.669107 
L 146.49 -368.669107 
L 183.69 -368.669107 
L 183.69 -368.669107 
L 183.69 -368.669107 
L 183.69 -368.669107 
L 183.69 -368.669107 
L 183.69 -368.669107 
L 183.69 -368.669107 
L 183.69 -368.669107 
L 183.69 -368.669107 
L 183.69 -368.669107 
L 183.69 -368.669107 
L 183.69 -368.669107 
L 183.69 -368.669107 
L 183.69 -368.669107 
L 183.69 -368.669107 
L 183.69 -368.669107 
L 183.69 -368.669107 
L 183.69 -368.669107 
L 183.69 -368.669107 
L 183.69 -368.669107 
L 183.69 -368.669107 
L 183.69 -368.669107 
L 183.69 -368.669107 
L 183.69 -368.669107 
L 183.69 -368.669107 
L 183.69 -368.669107 
L 183.69 -368.669107 
L 183.69 -368.669107 
L 183.69 -368.669107 
L 183.69 -368.669107 
L 183.69 -368.669107 
L 183.69 -368.669107 
L 183.69 -368.669107 
L 183.69 -368.669107 
L 183.69 -368.669107 
L 183.69 -368.669107 
L 183.69 -368.669107 
L 183.69 -368.669107 
L 183.69 -368.669107 
L 183.69 -368.669107 
L 183.69 -368.669107 
L 183.69 -368.669107 
L 183.69 -368.669107 
L 183.69 -368.669107 
L 183.69 -368.669107 
L 183.69 -368.669107 
L 183.69 -368.669107 
L 183.69 -368.669107 
L 183.69 -368.669107 
L 183.69 -368.669107 
L 183.69 -368.669107 
L 183.69 -368.669107 
L 183.69 -368.669107 
L 183.69 -368.669107 
L 183.69 -368.669107 
L 183.69 -368.669107 
L 183.69 -368.669107 
L 183.69 -368.669107 
L 183.69 -368.669107 
L 183.69 -368.669107 
L 183.69 -368.669107 
L 183.69 -368.669107 
L 183.69 -368.669107 
L 183.69 -368.669107 
L 183.69 -368.669107 
L 183.69 -368.669107 
L 183.69 -368.669107 
L 183.69 -368.669107 
L 183.69 -368.669107 
L 183.69 -368.669107 
L 183.69 -368.669107 
L 183.69 -368.669107 
L 183.69 -368.669107 
L 183.69 -368.669107 
L 183.69 -368.669107 
L 183.69 -368.669107 
L 183.69 -368.669107 
L 183.69 -368.669107 
L 183.69 -368.669107 
L 183.69 -368.669107 
L 183.69 -368.669107 
L 183.69 -368.669107 
L 183.69 -368.669107 
L 183.69 -368.669107 
L 183.69 -368.669107 
L 183.69 -368.669107 
L 183.69 -368.669107 
L 183.69 -368.669107 
L 183.69 -368.669107 
L 183.69 -368.669107 
L 183.69 -368.669107 
L 183.69 -368.669107 
L 183.69 -368.669107 
L 183.69 -368.669107 
L 183.69 -368.669107 
L 183.69 -368.669107 
L 183.69 -368.669107 
L 183.69 -368.669107 
L 183.69 -368.669107 
L 183.69 -368.669107 
L 183.69 -368.669107 
z
" id="m510d0b17da" style="stroke:#000000;stroke-opacity:0.3;"/>
    </defs>
    <g clip-path="url(#p0441a1c56e)">
     <use style="fill:#bfbf00;fill-opacity:0.3;stroke:#000000;stroke-opacity:0.3;" x="0.0" xlink:href="#m510d0b17da" y="465.868"/>
    </g>
   </g>
   <g id="PolyCollection_3">
    <defs>
     <path d="M 255.881539 -269.92625 
L 223.098461 -269.92625 
L 223.007289 -270.923653 
L 222.918083 -271.921055 
L 222.830849 -272.918458 
L 222.745593 -273.91586 
L 222.662319 -274.913263 
L 222.581031 -275.910666 
L 222.501731 -276.908068 
L 222.424419 -277.905471 
L 222.349097 -278.902873 
L 222.275762 -279.900276 
L 222.204412 -280.897679 
L 222.135045 -281.895081 
L 222.067656 -282.892484 
L 222.002241 -283.889886 
L 221.938794 -284.887289 
L 221.877309 -285.884692 
L 221.817778 -286.882094 
L 221.760196 -287.879497 
L 221.704553 -288.876899 
L 221.650841 -289.874302 
L 221.59905 -290.871705 
L 221.549172 -291.869107 
L 221.501197 -292.86651 
L 221.455114 -293.863912 
L 221.410914 -294.861315 
L 221.368587 -295.858718 
L 221.328121 -296.85612 
L 221.289507 -297.853523 
L 221.252734 -298.850925 
L 221.217791 -299.848328 
L 221.184669 -300.845731 
L 221.153357 -301.843133 
L 221.123845 -302.840536 
L 221.096125 -303.837938 
L 221.070186 -304.835341 
L 221.04602 -305.832744 
L 221.023618 -306.830146 
L 221.002972 -307.827549 
L 220.984074 -308.824951 
L 220.966919 -309.822354 
L 220.951498 -310.819756 
L 220.937806 -311.817159 
L 220.925837 -312.814562 
L 220.915588 -313.811964 
L 220.907053 -314.809367 
L 220.900229 -315.806769 
L 220.895113 -316.804172 
L 220.891704 -317.801575 
L 220.89 -318.798977 
L 220.89 -319.79638 
L 220.891704 -320.793782 
L 220.895113 -321.791185 
L 220.900229 -322.788588 
L 220.907053 -323.78599 
L 220.915588 -324.783393 
L 220.925837 -325.780795 
L 220.937806 -326.778198 
L 220.951498 -327.775601 
L 220.966919 -328.773003 
L 220.984074 -329.770406 
L 221.002972 -330.767808 
L 221.023618 -331.765211 
L 221.04602 -332.762614 
L 221.070186 -333.760016 
L 221.096125 -334.757419 
L 221.123845 -335.754821 
L 221.153357 -336.752224 
L 221.184669 -337.749627 
L 221.217791 -338.747029 
L 221.252734 -339.744432 
L 221.289507 -340.741834 
L 221.328121 -341.739237 
L 221.368587 -342.73664 
L 221.410914 -343.734042 
L 221.455114 -344.731445 
L 221.501197 -345.728847 
L 221.549172 -346.72625 
L 221.59905 -347.723653 
L 221.650841 -348.721055 
L 221.704553 -349.718458 
L 221.760196 -350.71586 
L 221.817778 -351.713263 
L 221.877309 -352.710666 
L 221.938794 -353.708068 
L 222.002241 -354.705471 
L 222.067656 -355.702873 
L 222.135045 -356.700276 
L 222.204412 -357.697679 
L 222.275762 -358.695081 
L 222.349097 -359.692484 
L 222.424419 -360.689886 
L 222.501731 -361.687289 
L 222.581031 -362.684692 
L 222.662319 -363.682094 
L 222.745593 -364.679497 
L 222.830849 -365.676899 
L 222.918083 -366.674302 
L 223.007289 -367.671705 
L 223.098461 -368.669107 
L 255.881539 -368.669107 
L 255.881539 -368.669107 
L 255.972711 -367.671705 
L 256.061917 -366.674302 
L 256.149151 -365.676899 
L 256.234407 -364.679497 
L 256.317681 -363.682094 
L 256.398969 -362.684692 
L 256.478269 -361.687289 
L 256.555581 -360.689886 
L 256.630903 -359.692484 
L 256.704238 -358.695081 
L 256.775588 -357.697679 
L 256.844955 -356.700276 
L 256.912344 -355.702873 
L 256.977759 -354.705471 
L 257.041206 -353.708068 
L 257.102691 -352.710666 
L 257.162222 -351.713263 
L 257.219804 -350.71586 
L 257.275447 -349.718458 
L 257.329159 -348.721055 
L 257.38095 -347.723653 
L 257.430828 -346.72625 
L 257.478803 -345.728847 
L 257.524886 -344.731445 
L 257.569086 -343.734042 
L 257.611413 -342.73664 
L 257.651879 -341.739237 
L 257.690493 -340.741834 
L 257.727266 -339.744432 
L 257.762209 -338.747029 
L 257.795331 -337.749627 
L 257.826643 -336.752224 
L 257.856155 -335.754821 
L 257.883875 -334.757419 
L 257.909814 -333.760016 
L 257.93398 -332.762614 
L 257.956382 -331.765211 
L 257.977028 -330.767808 
L 257.995926 -329.770406 
L 258.013081 -328.773003 
L 258.028502 -327.775601 
L 258.042194 -326.778198 
L 258.054163 -325.780795 
L 258.064412 -324.783393 
L 258.072947 -323.78599 
L 258.079771 -322.788588 
L 258.084887 -321.791185 
L 258.088296 -320.793782 
L 258.09 -319.79638 
L 258.09 -318.798977 
L 258.088296 -317.801575 
L 258.084887 -316.804172 
L 258.079771 -315.806769 
L 258.072947 -314.809367 
L 258.064412 -313.811964 
L 258.054163 -312.814562 
L 258.042194 -311.817159 
L 258.028502 -310.819756 
L 258.013081 -309.822354 
L 257.995926 -308.824951 
L 257.977028 -307.827549 
L 257.956382 -306.830146 
L 257.93398 -305.832744 
L 257.909814 -304.835341 
L 257.883875 -303.837938 
L 257.856155 -302.840536 
L 257.826643 -301.843133 
L 257.795331 -300.845731 
L 257.762209 -299.848328 
L 257.727266 -298.850925 
L 257.690493 -297.853523 
L 257.651879 -296.85612 
L 257.611413 -295.858718 
L 257.569086 -294.861315 
L 257.524886 -293.863912 
L 257.478803 -292.86651 
L 257.430828 -291.869107 
L 257.38095 -290.871705 
L 257.329159 -289.874302 
L 257.275447 -288.876899 
L 257.219804 -287.879497 
L 257.162222 -286.882094 
L 257.102691 -285.884692 
L 257.041206 -284.887289 
L 256.977759 -283.889886 
L 256.912344 -282.892484 
L 256.844955 -281.895081 
L 256.775588 -280.897679 
L 256.704238 -279.900276 
L 256.630903 -278.902873 
L 256.555581 -277.905471 
L 256.478269 -276.908068 
L 256.398969 -275.910666 
L 256.317681 -274.913263 
L 256.234407 -273.91586 
L 256.149151 -272.918458 
L 256.061917 -271.921055 
L 255.972711 -270.923653 
L 255.881539 -269.92625 
z
" id="mab0b928ae9" style="stroke:#000000;stroke-opacity:0.3;"/>
    </defs>
    <g clip-path="url(#p0441a1c56e)">
     <use style="fill:#bfbf00;fill-opacity:0.3;stroke:#000000;stroke-opacity:0.3;" x="0.0" xlink:href="#mab0b928ae9" y="465.868"/>
    </g>
   </g>
   <g id="PolyCollection_4">
    <defs>
     <path d="M 330.281539 -220.554821 
L 297.498461 -220.554821 
L 297.407289 -221.053523 
L 297.318083 -221.552224 
L 297.230849 -222.050925 
L 297.145593 -222.549627 
L 297.062319 -223.048328 
L 296.981031 -223.547029 
L 296.901731 -224.045731 
L 296.824419 -224.544432 
L 296.749097 -225.043133 
L 296.675762 -225.541834 
L 296.604412 -226.040536 
L 296.535045 -226.539237 
L 296.467656 -227.037938 
L 296.402241 -227.53664 
L 296.338794 -228.035341 
L 296.277309 -228.534042 
L 296.217778 -229.032744 
L 296.160196 -229.531445 
L 296.104553 -230.030146 
L 296.050841 -230.528847 
L 295.99905 -231.027549 
L 295.949172 -231.52625 
L 295.901197 -232.024951 
L 295.855114 -232.523653 
L 295.810914 -233.022354 
L 295.768587 -233.521055 
L 295.728121 -234.019756 
L 295.689507 -234.518458 
L 295.652734 -235.017159 
L 295.617791 -235.51586 
L 295.584669 -236.014562 
L 295.553357 -236.513263 
L 295.523845 -237.011964 
L 295.496125 -237.510666 
L 295.470186 -238.009367 
L 295.44602 -238.508068 
L 295.423618 -239.006769 
L 295.402972 -239.505471 
L 295.384074 -240.004172 
L 295.366919 -240.502873 
L 295.351498 -241.001575 
L 295.337806 -241.500276 
L 295.325837 -241.998977 
L 295.315588 -242.497679 
L 295.307053 -242.99638 
L 295.300229 -243.495081 
L 295.295113 -243.993782 
L 295.291704 -244.492484 
L 295.29 -244.991185 
L 295.29 -245.489886 
L 295.291704 -245.988588 
L 295.295113 -246.487289 
L 295.300229 -246.98599 
L 295.307053 -247.484692 
L 295.315588 -247.983393 
L 295.325837 -248.482094 
L 295.337806 -248.980795 
L 295.351498 -249.479497 
L 295.366919 -249.978198 
L 295.384074 -250.476899 
L 295.402972 -250.975601 
L 295.423618 -251.474302 
L 295.44602 -251.973003 
L 295.470186 -252.471705 
L 295.496125 -252.970406 
L 295.523845 -253.469107 
L 295.553357 -253.967808 
L 295.584669 -254.46651 
L 295.617791 -254.965211 
L 295.652734 -255.463912 
L 295.689507 -255.962614 
L 295.728121 -256.461315 
L 295.768587 -256.960016 
L 295.810914 -257.458718 
L 295.855114 -257.957419 
L 295.901197 -258.45612 
L 295.949172 -258.954821 
L 295.99905 -259.453523 
L 296.050841 -259.952224 
L 296.104553 -260.450925 
L 296.160196 -260.949627 
L 296.217778 -261.448328 
L 296.277309 -261.947029 
L 296.338794 -262.445731 
L 296.402241 -262.944432 
L 296.467656 -263.443133 
L 296.535045 -263.941834 
L 296.604412 -264.440536 
L 296.675762 -264.939237 
L 296.749097 -265.437938 
L 296.824419 -265.93664 
L 296.901731 -266.435341 
L 296.981031 -266.934042 
L 297.062319 -267.432744 
L 297.145593 -267.931445 
L 297.230849 -268.430146 
L 297.318083 -268.928847 
L 297.407289 -269.427549 
L 297.498461 -269.92625 
L 330.281539 -269.92625 
L 330.281539 -269.92625 
L 330.372711 -269.427549 
L 330.461917 -268.928847 
L 330.549151 -268.430146 
L 330.634407 -267.931445 
L 330.717681 -267.432744 
L 330.798969 -266.934042 
L 330.878269 -266.435341 
L 330.955581 -265.93664 
L 331.030903 -265.437938 
L 331.104238 -264.939237 
L 331.175588 -264.440536 
L 331.244955 -263.941834 
L 331.312344 -263.443133 
L 331.377759 -262.944432 
L 331.441206 -262.445731 
L 331.502691 -261.947029 
L 331.562222 -261.448328 
L 331.619804 -260.949627 
L 331.675447 -260.450925 
L 331.729159 -259.952224 
L 331.78095 -259.453523 
L 331.830828 -258.954821 
L 331.878803 -258.45612 
L 331.924886 -257.957419 
L 331.969086 -257.458718 
L 332.011413 -256.960016 
L 332.051879 -256.461315 
L 332.090493 -255.962614 
L 332.127266 -255.463912 
L 332.162209 -254.965211 
L 332.195331 -254.46651 
L 332.226643 -253.967808 
L 332.256155 -253.469107 
L 332.283875 -252.970406 
L 332.309814 -252.471705 
L 332.33398 -251.973003 
L 332.356382 -251.474302 
L 332.377028 -250.975601 
L 332.395926 -250.476899 
L 332.413081 -249.978198 
L 332.428502 -249.479497 
L 332.442194 -248.980795 
L 332.454163 -248.482094 
L 332.464412 -247.983393 
L 332.472947 -247.484692 
L 332.479771 -246.98599 
L 332.484887 -246.487289 
L 332.488296 -245.988588 
L 332.49 -245.489886 
L 332.49 -244.991185 
L 332.488296 -244.492484 
L 332.484887 -243.993782 
L 332.479771 -243.495081 
L 332.472947 -242.99638 
L 332.464412 -242.497679 
L 332.454163 -241.998977 
L 332.442194 -241.500276 
L 332.428502 -241.001575 
L 332.413081 -240.502873 
L 332.395926 -240.004172 
L 332.377028 -239.505471 
L 332.356382 -239.006769 
L 332.33398 -238.508068 
L 332.309814 -238.009367 
L 332.283875 -237.510666 
L 332.256155 -237.011964 
L 332.226643 -236.513263 
L 332.195331 -236.014562 
L 332.162209 -235.51586 
L 332.127266 -235.017159 
L 332.090493 -234.518458 
L 332.051879 -234.019756 
L 332.011413 -233.521055 
L 331.969086 -233.022354 
L 331.924886 -232.523653 
L 331.878803 -232.024951 
L 331.830828 -231.52625 
L 331.78095 -231.027549 
L 331.729159 -230.528847 
L 331.675447 -230.030146 
L 331.619804 -229.531445 
L 331.562222 -229.032744 
L 331.502691 -228.534042 
L 331.441206 -228.035341 
L 331.377759 -227.53664 
L 331.312344 -227.037938 
L 331.244955 -226.539237 
L 331.175588 -226.040536 
L 331.104238 -225.541834 
L 331.030903 -225.043133 
L 330.955581 -224.544432 
L 330.878269 -224.045731 
L 330.798969 -223.547029 
L 330.717681 -223.048328 
L 330.634407 -222.549627 
L 330.549151 -222.050925 
L 330.461917 -221.552224 
L 330.372711 -221.053523 
L 330.281539 -220.554821 
z
" id="m1111df6655" style="stroke:#000000;stroke-opacity:0.3;"/>
    </defs>
    <g clip-path="url(#p0441a1c56e)">
     <use style="fill:#bfbf00;fill-opacity:0.3;stroke:#000000;stroke-opacity:0.3;" x="0.0" xlink:href="#m1111df6655" y="465.868"/>
    </g>
   </g>
   <g id="PolyCollection_5">
    <defs>
     <path d="M 404.681539 -171.183393 
L 371.898461 -171.183393 
L 371.807289 -171.682094 
L 371.718083 -172.180795 
L 371.630849 -172.679497 
L 371.545593 -173.178198 
L 371.462319 -173.676899 
L 371.381031 -174.175601 
L 371.301731 -174.674302 
L 371.224419 -175.173003 
L 371.149097 -175.671705 
L 371.075762 -176.170406 
L 371.004412 -176.669107 
L 370.935045 -177.167808 
L 370.867656 -177.66651 
L 370.802241 -178.165211 
L 370.738794 -178.663912 
L 370.677309 -179.162614 
L 370.617778 -179.661315 
L 370.560196 -180.160016 
L 370.504553 -180.658718 
L 370.450841 -181.157419 
L 370.39905 -181.65612 
L 370.349172 -182.154821 
L 370.301197 -182.653523 
L 370.255114 -183.152224 
L 370.210914 -183.650925 
L 370.168587 -184.149627 
L 370.128121 -184.648328 
L 370.089507 -185.147029 
L 370.052734 -185.645731 
L 370.017791 -186.144432 
L 369.984669 -186.643133 
L 369.953357 -187.141834 
L 369.923845 -187.640536 
L 369.896125 -188.139237 
L 369.870186 -188.637938 
L 369.84602 -189.13664 
L 369.823618 -189.635341 
L 369.802972 -190.134042 
L 369.784074 -190.632744 
L 369.766919 -191.131445 
L 369.751498 -191.630146 
L 369.737806 -192.128847 
L 369.725837 -192.627549 
L 369.715588 -193.12625 
L 369.707053 -193.624951 
L 369.700229 -194.123653 
L 369.695113 -194.622354 
L 369.691704 -195.121055 
L 369.69 -195.619756 
L 369.69 -196.118458 
L 369.691704 -196.617159 
L 369.695113 -197.11586 
L 369.700229 -197.614562 
L 369.707053 -198.113263 
L 369.715588 -198.611964 
L 369.725837 -199.110666 
L 369.737806 -199.609367 
L 369.751498 -200.108068 
L 369.766919 -200.606769 
L 369.784074 -201.105471 
L 369.802972 -201.604172 
L 369.823618 -202.102873 
L 369.84602 -202.601575 
L 369.870186 -203.100276 
L 369.896125 -203.598977 
L 369.923845 -204.097679 
L 369.953357 -204.59638 
L 369.984669 -205.095081 
L 370.017791 -205.593782 
L 370.052734 -206.092484 
L 370.089507 -206.591185 
L 370.128121 -207.089886 
L 370.168587 -207.588588 
L 370.210914 -208.087289 
L 370.255114 -208.58599 
L 370.301197 -209.084692 
L 370.349172 -209.583393 
L 370.39905 -210.082094 
L 370.450841 -210.580795 
L 370.504553 -211.079497 
L 370.560196 -211.578198 
L 370.617778 -212.076899 
L 370.677309 -212.575601 
L 370.738794 -213.074302 
L 370.802241 -213.573003 
L 370.867656 -214.071705 
L 370.935045 -214.570406 
L 371.004412 -215.069107 
L 371.075762 -215.567808 
L 371.149097 -216.06651 
L 371.224419 -216.565211 
L 371.301731 -217.063912 
L 371.381031 -217.562614 
L 371.462319 -218.061315 
L 371.545593 -218.560016 
L 371.630849 -219.058718 
L 371.718083 -219.557419 
L 371.807289 -220.05612 
L 371.898461 -220.554821 
L 404.681539 -220.554821 
L 404.681539 -220.554821 
L 404.772711 -220.05612 
L 404.861917 -219.557419 
L 404.949151 -219.058718 
L 405.034407 -218.560016 
L 405.117681 -218.061315 
L 405.198969 -217.562614 
L 405.278269 -217.063912 
L 405.355581 -216.565211 
L 405.430903 -216.06651 
L 405.504238 -215.567808 
L 405.575588 -215.069107 
L 405.644955 -214.570406 
L 405.712344 -214.071705 
L 405.777759 -213.573003 
L 405.841206 -213.074302 
L 405.902691 -212.575601 
L 405.962222 -212.076899 
L 406.019804 -211.578198 
L 406.075447 -211.079497 
L 406.129159 -210.580795 
L 406.18095 -210.082094 
L 406.230828 -209.583393 
L 406.278803 -209.084692 
L 406.324886 -208.58599 
L 406.369086 -208.087289 
L 406.411413 -207.588588 
L 406.451879 -207.089886 
L 406.490493 -206.591185 
L 406.527266 -206.092484 
L 406.562209 -205.593782 
L 406.595331 -205.095081 
L 406.626643 -204.59638 
L 406.656155 -204.097679 
L 406.683875 -203.598977 
L 406.709814 -203.100276 
L 406.73398 -202.601575 
L 406.756382 -202.102873 
L 406.777028 -201.604172 
L 406.795926 -201.105471 
L 406.813081 -200.606769 
L 406.828502 -200.108068 
L 406.842194 -199.609367 
L 406.854163 -199.110666 
L 406.864412 -198.611964 
L 406.872947 -198.113263 
L 406.879771 -197.614562 
L 406.884887 -197.11586 
L 406.888296 -196.617159 
L 406.89 -196.118458 
L 406.89 -195.619756 
L 406.888296 -195.121055 
L 406.884887 -194.622354 
L 406.879771 -194.123653 
L 406.872947 -193.624951 
L 406.864412 -193.12625 
L 406.854163 -192.627549 
L 406.842194 -192.128847 
L 406.828502 -191.630146 
L 406.813081 -191.131445 
L 406.795926 -190.632744 
L 406.777028 -190.134042 
L 406.756382 -189.635341 
L 406.73398 -189.13664 
L 406.709814 -188.637938 
L 406.683875 -188.139237 
L 406.656155 -187.640536 
L 406.626643 -187.141834 
L 406.595331 -186.643133 
L 406.562209 -186.144432 
L 406.527266 -185.645731 
L 406.490493 -185.147029 
L 406.451879 -184.648328 
L 406.411413 -184.149627 
L 406.369086 -183.650925 
L 406.324886 -183.152224 
L 406.278803 -182.653523 
L 406.230828 -182.154821 
L 406.18095 -181.65612 
L 406.129159 -181.157419 
L 406.075447 -180.658718 
L 406.019804 -180.160016 
L 405.962222 -179.661315 
L 405.902691 -179.162614 
L 405.841206 -178.663912 
L 405.777759 -178.165211 
L 405.712344 -177.66651 
L 405.644955 -177.167808 
L 405.575588 -176.669107 
L 405.504238 -176.170406 
L 405.430903 -175.671705 
L 405.355581 -175.173003 
L 405.278269 -174.674302 
L 405.198969 -174.175601 
L 405.117681 -173.676899 
L 405.034407 -173.178198 
L 404.949151 -172.679497 
L 404.861917 -172.180795 
L 404.772711 -171.682094 
L 404.681539 -171.183393 
z
" id="m220cda14e7" style="stroke:#000000;stroke-opacity:0.3;"/>
    </defs>
    <g clip-path="url(#p0441a1c56e)">
     <use style="fill:#bfbf00;fill-opacity:0.3;stroke:#000000;stroke-opacity:0.3;" x="0.0" xlink:href="#m220cda14e7" y="465.868"/>
    </g>
   </g>
   <g id="PolyCollection_6">
    <defs>
     <path d="M 481.29 -121.811964 
L 444.09 -121.811964 
L 444.09 -121.811964 
L 444.09 -121.811964 
L 444.09 -121.811964 
L 444.09 -121.811964 
L 444.09 -121.811964 
L 444.09 -121.811964 
L 444.09 -121.811964 
L 444.09 -121.811964 
L 444.09 -121.811964 
L 444.09 -121.811964 
L 444.09 -121.811964 
L 444.09 -121.811964 
L 444.09 -121.811964 
L 444.09 -121.811964 
L 444.09 -121.811964 
L 444.09 -121.811964 
L 444.09 -121.811964 
L 444.09 -121.811964 
L 444.09 -121.811964 
L 444.09 -121.811964 
L 444.09 -121.811964 
L 444.09 -121.811964 
L 444.09 -121.811964 
L 444.09 -121.811964 
L 444.09 -121.811964 
L 444.09 -121.811964 
L 444.09 -121.811964 
L 444.09 -121.811964 
L 444.09 -121.811964 
L 444.09 -121.811964 
L 444.09 -121.811964 
L 444.09 -121.811964 
L 444.09 -121.811964 
L 444.09 -121.811964 
L 444.09 -121.811964 
L 444.09 -121.811964 
L 444.09 -121.811964 
L 444.09 -121.811964 
L 444.09 -121.811964 
L 444.09 -121.811964 
L 444.09 -121.811964 
L 444.09 -121.811964 
L 444.09 -121.811964 
L 444.09 -121.811964 
L 444.09 -121.811964 
L 444.09 -121.811964 
L 444.09 -121.811964 
L 444.09 -121.811964 
L 444.09 -121.811964 
L 444.09 -121.811964 
L 444.09 -121.811964 
L 444.09 -121.811964 
L 444.09 -121.811964 
L 444.09 -121.811964 
L 444.09 -121.811964 
L 444.09 -121.811964 
L 444.09 -121.811964 
L 444.09 -121.811964 
L 444.09 -121.811964 
L 444.09 -121.811964 
L 444.09 -121.811964 
L 444.09 -121.811964 
L 444.09 -121.811964 
L 444.09 -121.811964 
L 444.09 -121.811964 
L 444.09 -121.811964 
L 444.09 -121.811964 
L 444.09 -121.811964 
L 444.09 -121.811964 
L 444.09 -121.811964 
L 444.09 -121.811964 
L 444.09 -121.811964 
L 444.09 -121.811964 
L 444.09 -121.811964 
L 444.09 -121.811964 
L 444.09 -121.811964 
L 444.09 -121.811964 
L 444.09 -121.811964 
L 444.09 -121.811964 
L 444.09 -121.811964 
L 444.09 -121.811964 
L 444.09 -121.811964 
L 444.09 -121.811964 
L 444.09 -121.811964 
L 444.09 -121.811964 
L 444.09 -121.811964 
L 444.09 -121.811964 
L 444.09 -121.811964 
L 444.09 -121.811964 
L 444.09 -121.811964 
L 444.09 -121.811964 
L 444.09 -121.811964 
L 444.09 -121.811964 
L 444.09 -121.811964 
L 444.09 -121.811964 
L 444.09 -121.811964 
L 444.09 -121.811964 
L 444.09 -121.811964 
L 444.09 -121.811964 
L 481.29 -121.811964 
L 481.29 -121.811964 
L 481.29 -121.811964 
L 481.29 -121.811964 
L 481.29 -121.811964 
L 481.29 -121.811964 
L 481.29 -121.811964 
L 481.29 -121.811964 
L 481.29 -121.811964 
L 481.29 -121.811964 
L 481.29 -121.811964 
L 481.29 -121.811964 
L 481.29 -121.811964 
L 481.29 -121.811964 
L 481.29 -121.811964 
L 481.29 -121.811964 
L 481.29 -121.811964 
L 481.29 -121.811964 
L 481.29 -121.811964 
L 481.29 -121.811964 
L 481.29 -121.811964 
L 481.29 -121.811964 
L 481.29 -121.811964 
L 481.29 -121.811964 
L 481.29 -121.811964 
L 481.29 -121.811964 
L 481.29 -121.811964 
L 481.29 -121.811964 
L 481.29 -121.811964 
L 481.29 -121.811964 
L 481.29 -121.811964 
L 481.29 -121.811964 
L 481.29 -121.811964 
L 481.29 -121.811964 
L 481.29 -121.811964 
L 481.29 -121.811964 
L 481.29 -121.811964 
L 481.29 -121.811964 
L 481.29 -121.811964 
L 481.29 -121.811964 
L 481.29 -121.811964 
L 481.29 -121.811964 
L 481.29 -121.811964 
L 481.29 -121.811964 
L 481.29 -121.811964 
L 481.29 -121.811964 
L 481.29 -121.811964 
L 481.29 -121.811964 
L 481.29 -121.811964 
L 481.29 -121.811964 
L 481.29 -121.811964 
L 481.29 -121.811964 
L 481.29 -121.811964 
L 481.29 -121.811964 
L 481.29 -121.811964 
L 481.29 -121.811964 
L 481.29 -121.811964 
L 481.29 -121.811964 
L 481.29 -121.811964 
L 481.29 -121.811964 
L 481.29 -121.811964 
L 481.29 -121.811964 
L 481.29 -121.811964 
L 481.29 -121.811964 
L 481.29 -121.811964 
L 481.29 -121.811964 
L 481.29 -121.811964 
L 481.29 -121.811964 
L 481.29 -121.811964 
L 481.29 -121.811964 
L 481.29 -121.811964 
L 481.29 -121.811964 
L 481.29 -121.811964 
L 481.29 -121.811964 
L 481.29 -121.811964 
L 481.29 -121.811964 
L 481.29 -121.811964 
L 481.29 -121.811964 
L 481.29 -121.811964 
L 481.29 -121.811964 
L 481.29 -121.811964 
L 481.29 -121.811964 
L 481.29 -121.811964 
L 481.29 -121.811964 
L 481.29 -121.811964 
L 481.29 -121.811964 
L 481.29 -121.811964 
L 481.29 -121.811964 
L 481.29 -121.811964 
L 481.29 -121.811964 
L 481.29 -121.811964 
L 481.29 -121.811964 
L 481.29 -121.811964 
L 481.29 -121.811964 
L 481.29 -121.811964 
L 481.29 -121.811964 
L 481.29 -121.811964 
L 481.29 -121.811964 
L 481.29 -121.811964 
L 481.29 -121.811964 
L 481.29 -121.811964 
z
" id="me8ca4f38ee" style="stroke:#000000;stroke-opacity:0.3;"/>
    </defs>
    <g clip-path="url(#p0441a1c56e)">
     <use style="fill:#bfbf00;fill-opacity:0.3;stroke:#000000;stroke-opacity:0.3;" x="0.0" xlink:href="#me8ca4f38ee" y="465.868"/>
    </g>
   </g>
   <g id="PolyCollection_7">
    <defs>
     <path d="M 555.69 -121.811964 
L 518.49 -121.811964 
L 518.49 -121.811964 
L 518.49 -121.811964 
L 518.49 -121.811964 
L 518.49 -121.811964 
L 518.49 -121.811964 
L 518.49 -121.811964 
L 518.49 -121.811964 
L 518.49 -121.811964 
L 518.49 -121.811964 
L 518.49 -121.811964 
L 518.49 -121.811964 
L 518.49 -121.811964 
L 518.49 -121.811964 
L 518.49 -121.811964 
L 518.49 -121.811964 
L 518.49 -121.811964 
L 518.49 -121.811964 
L 518.49 -121.811964 
L 518.49 -121.811964 
L 518.49 -121.811964 
L 518.49 -121.811964 
L 518.49 -121.811964 
L 518.49 -121.811964 
L 518.49 -121.811964 
L 518.49 -121.811964 
L 518.49 -121.811964 
L 518.49 -121.811964 
L 518.49 -121.811964 
L 518.49 -121.811964 
L 518.49 -121.811964 
L 518.49 -121.811964 
L 518.49 -121.811964 
L 518.49 -121.811964 
L 518.49 -121.811964 
L 518.49 -121.811964 
L 518.49 -121.811964 
L 518.49 -121.811964 
L 518.49 -121.811964 
L 518.49 -121.811964 
L 518.49 -121.811964 
L 518.49 -121.811964 
L 518.49 -121.811964 
L 518.49 -121.811964 
L 518.49 -121.811964 
L 518.49 -121.811964 
L 518.49 -121.811964 
L 518.49 -121.811964 
L 518.49 -121.811964 
L 518.49 -121.811964 
L 518.49 -121.811964 
L 518.49 -121.811964 
L 518.49 -121.811964 
L 518.49 -121.811964 
L 518.49 -121.811964 
L 518.49 -121.811964 
L 518.49 -121.811964 
L 518.49 -121.811964 
L 518.49 -121.811964 
L 518.49 -121.811964 
L 518.49 -121.811964 
L 518.49 -121.811964 
L 518.49 -121.811964 
L 518.49 -121.811964 
L 518.49 -121.811964 
L 518.49 -121.811964 
L 518.49 -121.811964 
L 518.49 -121.811964 
L 518.49 -121.811964 
L 518.49 -121.811964 
L 518.49 -121.811964 
L 518.49 -121.811964 
L 518.49 -121.811964 
L 518.49 -121.811964 
L 518.49 -121.811964 
L 518.49 -121.811964 
L 518.49 -121.811964 
L 518.49 -121.811964 
L 518.49 -121.811964 
L 518.49 -121.811964 
L 518.49 -121.811964 
L 518.49 -121.811964 
L 518.49 -121.811964 
L 518.49 -121.811964 
L 518.49 -121.811964 
L 518.49 -121.811964 
L 518.49 -121.811964 
L 518.49 -121.811964 
L 518.49 -121.811964 
L 518.49 -121.811964 
L 518.49 -121.811964 
L 518.49 -121.811964 
L 518.49 -121.811964 
L 518.49 -121.811964 
L 518.49 -121.811964 
L 518.49 -121.811964 
L 518.49 -121.811964 
L 518.49 -121.811964 
L 518.49 -121.811964 
L 518.49 -121.811964 
L 555.69 -121.811964 
L 555.69 -121.811964 
L 555.69 -121.811964 
L 555.69 -121.811964 
L 555.69 -121.811964 
L 555.69 -121.811964 
L 555.69 -121.811964 
L 555.69 -121.811964 
L 555.69 -121.811964 
L 555.69 -121.811964 
L 555.69 -121.811964 
L 555.69 -121.811964 
L 555.69 -121.811964 
L 555.69 -121.811964 
L 555.69 -121.811964 
L 555.69 -121.811964 
L 555.69 -121.811964 
L 555.69 -121.811964 
L 555.69 -121.811964 
L 555.69 -121.811964 
L 555.69 -121.811964 
L 555.69 -121.811964 
L 555.69 -121.811964 
L 555.69 -121.811964 
L 555.69 -121.811964 
L 555.69 -121.811964 
L 555.69 -121.811964 
L 555.69 -121.811964 
L 555.69 -121.811964 
L 555.69 -121.811964 
L 555.69 -121.811964 
L 555.69 -121.811964 
L 555.69 -121.811964 
L 555.69 -121.811964 
L 555.69 -121.811964 
L 555.69 -121.811964 
L 555.69 -121.811964 
L 555.69 -121.811964 
L 555.69 -121.811964 
L 555.69 -121.811964 
L 555.69 -121.811964 
L 555.69 -121.811964 
L 555.69 -121.811964 
L 555.69 -121.811964 
L 555.69 -121.811964 
L 555.69 -121.811964 
L 555.69 -121.811964 
L 555.69 -121.811964 
L 555.69 -121.811964 
L 555.69 -121.811964 
L 555.69 -121.811964 
L 555.69 -121.811964 
L 555.69 -121.811964 
L 555.69 -121.811964 
L 555.69 -121.811964 
L 555.69 -121.811964 
L 555.69 -121.811964 
L 555.69 -121.811964 
L 555.69 -121.811964 
L 555.69 -121.811964 
L 555.69 -121.811964 
L 555.69 -121.811964 
L 555.69 -121.811964 
L 555.69 -121.811964 
L 555.69 -121.811964 
L 555.69 -121.811964 
L 555.69 -121.811964 
L 555.69 -121.811964 
L 555.69 -121.811964 
L 555.69 -121.811964 
L 555.69 -121.811964 
L 555.69 -121.811964 
L 555.69 -121.811964 
L 555.69 -121.811964 
L 555.69 -121.811964 
L 555.69 -121.811964 
L 555.69 -121.811964 
L 555.69 -121.811964 
L 555.69 -121.811964 
L 555.69 -121.811964 
L 555.69 -121.811964 
L 555.69 -121.811964 
L 555.69 -121.811964 
L 555.69 -121.811964 
L 555.69 -121.811964 
L 555.69 -121.811964 
L 555.69 -121.811964 
L 555.69 -121.811964 
L 555.69 -121.811964 
L 555.69 -121.811964 
L 555.69 -121.811964 
L 555.69 -121.811964 
L 555.69 -121.811964 
L 555.69 -121.811964 
L 555.69 -121.811964 
L 555.69 -121.811964 
L 555.69 -121.811964 
L 555.69 -121.811964 
L 555.69 -121.811964 
L 555.69 -121.811964 
L 555.69 -121.811964 
z
" id="mc7e4d8c680" style="stroke:#000000;stroke-opacity:0.3;"/>
    </defs>
    <g clip-path="url(#p0441a1c56e)">
     <use style="fill:#bfbf00;fill-opacity:0.3;stroke:#000000;stroke-opacity:0.3;" x="0.0" xlink:href="#mc7e4d8c680" y="465.868"/>
    </g>
   </g>
   <g id="PolyCollection_8">
    <defs>
     <path d="M 630.09 -121.811964 
L 592.89 -121.811964 
L 592.89 -121.811964 
L 592.89 -121.811964 
L 592.89 -121.811964 
L 592.89 -121.811964 
L 592.89 -121.811964 
L 592.89 -121.811964 
L 592.89 -121.811964 
L 592.89 -121.811964 
L 592.89 -121.811964 
L 592.89 -121.811964 
L 592.89 -121.811964 
L 592.89 -121.811964 
L 592.89 -121.811964 
L 592.89 -121.811964 
L 592.89 -121.811964 
L 592.89 -121.811964 
L 592.89 -121.811964 
L 592.89 -121.811964 
L 592.89 -121.811964 
L 592.89 -121.811964 
L 592.89 -121.811964 
L 592.89 -121.811964 
L 592.89 -121.811964 
L 592.89 -121.811964 
L 592.89 -121.811964 
L 592.89 -121.811964 
L 592.89 -121.811964 
L 592.89 -121.811964 
L 592.89 -121.811964 
L 592.89 -121.811964 
L 592.89 -121.811964 
L 592.89 -121.811964 
L 592.89 -121.811964 
L 592.89 -121.811964 
L 592.89 -121.811964 
L 592.89 -121.811964 
L 592.89 -121.811964 
L 592.89 -121.811964 
L 592.89 -121.811964 
L 592.89 -121.811964 
L 592.89 -121.811964 
L 592.89 -121.811964 
L 592.89 -121.811964 
L 592.89 -121.811964 
L 592.89 -121.811964 
L 592.89 -121.811964 
L 592.89 -121.811964 
L 592.89 -121.811964 
L 592.89 -121.811964 
L 592.89 -121.811964 
L 592.89 -121.811964 
L 592.89 -121.811964 
L 592.89 -121.811964 
L 592.89 -121.811964 
L 592.89 -121.811964 
L 592.89 -121.811964 
L 592.89 -121.811964 
L 592.89 -121.811964 
L 592.89 -121.811964 
L 592.89 -121.811964 
L 592.89 -121.811964 
L 592.89 -121.811964 
L 592.89 -121.811964 
L 592.89 -121.811964 
L 592.89 -121.811964 
L 592.89 -121.811964 
L 592.89 -121.811964 
L 592.89 -121.811964 
L 592.89 -121.811964 
L 592.89 -121.811964 
L 592.89 -121.811964 
L 592.89 -121.811964 
L 592.89 -121.811964 
L 592.89 -121.811964 
L 592.89 -121.811964 
L 592.89 -121.811964 
L 592.89 -121.811964 
L 592.89 -121.811964 
L 592.89 -121.811964 
L 592.89 -121.811964 
L 592.89 -121.811964 
L 592.89 -121.811964 
L 592.89 -121.811964 
L 592.89 -121.811964 
L 592.89 -121.811964 
L 592.89 -121.811964 
L 592.89 -121.811964 
L 592.89 -121.811964 
L 592.89 -121.811964 
L 592.89 -121.811964 
L 592.89 -121.811964 
L 592.89 -121.811964 
L 592.89 -121.811964 
L 592.89 -121.811964 
L 592.89 -121.811964 
L 592.89 -121.811964 
L 592.89 -121.811964 
L 592.89 -121.811964 
L 592.89 -121.811964 
L 630.09 -121.811964 
L 630.09 -121.811964 
L 630.09 -121.811964 
L 630.09 -121.811964 
L 630.09 -121.811964 
L 630.09 -121.811964 
L 630.09 -121.811964 
L 630.09 -121.811964 
L 630.09 -121.811964 
L 630.09 -121.811964 
L 630.09 -121.811964 
L 630.09 -121.811964 
L 630.09 -121.811964 
L 630.09 -121.811964 
L 630.09 -121.811964 
L 630.09 -121.811964 
L 630.09 -121.811964 
L 630.09 -121.811964 
L 630.09 -121.811964 
L 630.09 -121.811964 
L 630.09 -121.811964 
L 630.09 -121.811964 
L 630.09 -121.811964 
L 630.09 -121.811964 
L 630.09 -121.811964 
L 630.09 -121.811964 
L 630.09 -121.811964 
L 630.09 -121.811964 
L 630.09 -121.811964 
L 630.09 -121.811964 
L 630.09 -121.811964 
L 630.09 -121.811964 
L 630.09 -121.811964 
L 630.09 -121.811964 
L 630.09 -121.811964 
L 630.09 -121.811964 
L 630.09 -121.811964 
L 630.09 -121.811964 
L 630.09 -121.811964 
L 630.09 -121.811964 
L 630.09 -121.811964 
L 630.09 -121.811964 
L 630.09 -121.811964 
L 630.09 -121.811964 
L 630.09 -121.811964 
L 630.09 -121.811964 
L 630.09 -121.811964 
L 630.09 -121.811964 
L 630.09 -121.811964 
L 630.09 -121.811964 
L 630.09 -121.811964 
L 630.09 -121.811964 
L 630.09 -121.811964 
L 630.09 -121.811964 
L 630.09 -121.811964 
L 630.09 -121.811964 
L 630.09 -121.811964 
L 630.09 -121.811964 
L 630.09 -121.811964 
L 630.09 -121.811964 
L 630.09 -121.811964 
L 630.09 -121.811964 
L 630.09 -121.811964 
L 630.09 -121.811964 
L 630.09 -121.811964 
L 630.09 -121.811964 
L 630.09 -121.811964 
L 630.09 -121.811964 
L 630.09 -121.811964 
L 630.09 -121.811964 
L 630.09 -121.811964 
L 630.09 -121.811964 
L 630.09 -121.811964 
L 630.09 -121.811964 
L 630.09 -121.811964 
L 630.09 -121.811964 
L 630.09 -121.811964 
L 630.09 -121.811964 
L 630.09 -121.811964 
L 630.09 -121.811964 
L 630.09 -121.811964 
L 630.09 -121.811964 
L 630.09 -121.811964 
L 630.09 -121.811964 
L 630.09 -121.811964 
L 630.09 -121.811964 
L 630.09 -121.811964 
L 630.09 -121.811964 
L 630.09 -121.811964 
L 630.09 -121.811964 
L 630.09 -121.811964 
L 630.09 -121.811964 
L 630.09 -121.811964 
L 630.09 -121.811964 
L 630.09 -121.811964 
L 630.09 -121.811964 
L 630.09 -121.811964 
L 630.09 -121.811964 
L 630.09 -121.811964 
L 630.09 -121.811964 
L 630.09 -121.811964 
z
" id="m7cd7813a06" style="stroke:#000000;stroke-opacity:0.3;"/>
    </defs>
    <g clip-path="url(#p0441a1c56e)">
     <use style="fill:#bfbf00;fill-opacity:0.3;stroke:#000000;stroke-opacity:0.3;" x="0.0" xlink:href="#m7cd7813a06" y="465.868"/>
    </g>
   </g>
   <g id="LineCollection_1">
    <path clip-path="url(#p0441a1c56e)" d="M 81.39 47.827464 
L 99.99 47.827464 
" style="fill:none;stroke:#ff0000;"/>
    <path clip-path="url(#p0441a1c56e)" d="M 155.79 97.198893 
L 174.39 97.198893 
" style="fill:none;stroke:#ff0000;"/>
    <path clip-path="url(#p0441a1c56e)" d="M 230.19 146.570321 
L 248.79 146.570321 
" style="fill:none;stroke:#ff0000;"/>
    <path clip-path="url(#p0441a1c56e)" d="M 304.59 220.627464 
L 323.19 220.627464 
" style="fill:none;stroke:#ff0000;"/>
    <path clip-path="url(#p0441a1c56e)" d="M 378.99 269.998893 
L 397.59 269.998893 
" style="fill:none;stroke:#ff0000;"/>
    <path clip-path="url(#p0441a1c56e)" d="M 453.39 344.056036 
L 471.99 344.056036 
" style="fill:none;stroke:#ff0000;"/>
    <path clip-path="url(#p0441a1c56e)" d="M 527.79 344.056036 
L 546.39 344.056036 
" style="fill:none;stroke:#ff0000;"/>
    <path clip-path="url(#p0441a1c56e)" d="M 602.19 344.056036 
L 620.79 344.056036 
" style="fill:none;stroke:#ff0000;"/>
   </g>
   <g id="patch_3">
    <path d="M 16.29 368.74175 
L 685.89 368.74175 
" style="fill:none;stroke:#000000;stroke-linecap:square;stroke-linejoin:miter;"/>
   </g>
   <g id="patch_4">
    <path d="M 685.89 368.74175 
L 685.89 23.14175 
" style="fill:none;stroke:#000000;stroke-linecap:square;stroke-linejoin:miter;"/>
   </g>
   <g id="patch_5">
    <path d="M 16.29 368.74175 
L 16.29 23.14175 
" style="fill:none;stroke:#000000;stroke-linecap:square;stroke-linejoin:miter;"/>
   </g>
   <g id="patch_6">
    <path d="M 16.29 23.14175 
L 685.89 23.14175 
" style="fill:none;stroke:#000000;stroke-linecap:square;stroke-linejoin:miter;"/>
   </g>
   <g id="matplotlib.axis_1">
    <g id="xtick_1">
     <g id="line2d_1">
      <defs>
       <path d="M 0 0 
L 0 -4 
" id="ma772ad56a3" style="stroke:#000000;stroke-width:0.5;"/>
      </defs>
      <g>
       <use style="stroke:#000000;stroke-width:0.5;" x="90.69" xlink:href="#ma772ad56a3" y="368.74175"/>
      </g>
     </g>
     <g id="line2d_2">
      <defs>
       <path d="M 0 0 
L 0 4 
" id="m3fd42daaee" style="stroke:#000000;stroke-width:0.5;"/>
      </defs>
      <g>
       <use style="stroke:#000000;stroke-width:0.5;" x="90.69" xlink:href="#m3fd42daaee" y="23.14175"/>
      </g>
     </g>
     <g id="text_1">
      <!-- Defector -->
      <defs>
       <path d="M 19.671875 64.796875 
L 19.671875 8.109375 
L 31.59375 8.109375 
Q 46.6875 8.109375 53.6875 14.9375 
Q 60.6875 21.78125 60.6875 36.53125 
Q 60.6875 51.171875 53.6875 57.984375 
Q 46.6875 64.796875 31.59375 64.796875 
z
M 9.8125 72.90625 
L 30.078125 72.90625 
Q 51.265625 72.90625 61.171875 64.09375 
Q 71.09375 55.28125 71.09375 36.53125 
Q 71.09375 17.671875 61.125 8.828125 
Q 51.171875 0 30.078125 0 
L 9.8125 0 
z
" id="BitstreamVeraSans-Roman-44"/>
       <path d="M 18.3125 70.21875 
L 18.3125 54.6875 
L 36.8125 54.6875 
L 36.8125 47.703125 
L 18.3125 47.703125 
L 18.3125 18.015625 
Q 18.3125 11.328125 20.140625 9.421875 
Q 21.96875 7.515625 27.59375 7.515625 
L 36.8125 7.515625 
L 36.8125 0 
L 27.59375 0 
Q 17.1875 0 13.234375 3.875 
Q 9.28125 7.765625 9.28125 18.015625 
L 9.28125 47.703125 
L 2.6875 47.703125 
L 2.6875 54.6875 
L 9.28125 54.6875 
L 9.28125 70.21875 
z
" id="BitstreamVeraSans-Roman-74"/>
       <path d="M 30.609375 48.390625 
Q 23.390625 48.390625 19.1875 42.75 
Q 14.984375 37.109375 14.984375 27.296875 
Q 14.984375 17.484375 19.15625 11.84375 
Q 23.34375 6.203125 30.609375 6.203125 
Q 37.796875 6.203125 41.984375 11.859375 
Q 46.1875 17.53125 46.1875 27.296875 
Q 46.1875 37.015625 41.984375 42.703125 
Q 37.796875 48.390625 30.609375 48.390625 
M 30.609375 56 
Q 42.328125 56 49.015625 48.375 
Q 55.71875 40.765625 55.71875 27.296875 
Q 55.71875 13.875 49.015625 6.21875 
Q 42.328125 -1.421875 30.609375 -1.421875 
Q 18.84375 -1.421875 12.171875 6.21875 
Q 5.515625 13.875 5.515625 27.296875 
Q 5.515625 40.765625 12.171875 48.375 
Q 18.84375 56 30.609375 56 
" id="BitstreamVeraSans-Roman-6f"/>
       <path d="M 37.109375 75.984375 
L 37.109375 68.5 
L 28.515625 68.5 
Q 23.6875 68.5 21.796875 66.546875 
Q 19.921875 64.59375 19.921875 59.515625 
L 19.921875 54.6875 
L 34.71875 54.6875 
L 34.71875 47.703125 
L 19.921875 47.703125 
L 19.921875 0 
L 10.890625 0 
L 10.890625 47.703125 
L 2.296875 47.703125 
L 2.296875 54.6875 
L 10.890625 54.6875 
L 10.890625 58.5 
Q 10.890625 67.625 15.140625 71.796875 
Q 19.390625 75.984375 28.609375 75.984375 
z
" id="BitstreamVeraSans-Roman-66"/>
       <path d="M 56.203125 29.59375 
L 56.203125 25.203125 
L 14.890625 25.203125 
Q 15.484375 15.921875 20.484375 11.0625 
Q 25.484375 6.203125 34.421875 6.203125 
Q 39.59375 6.203125 44.453125 7.46875 
Q 49.3125 8.734375 54.109375 11.28125 
L 54.109375 2.78125 
Q 49.265625 0.734375 44.1875 -0.34375 
Q 39.109375 -1.421875 33.890625 -1.421875 
Q 20.796875 -1.421875 13.15625 6.1875 
Q 5.515625 13.8125 5.515625 26.8125 
Q 5.515625 40.234375 12.765625 48.109375 
Q 20.015625 56 32.328125 56 
Q 43.359375 56 49.78125 48.890625 
Q 56.203125 41.796875 56.203125 29.59375 
M 47.21875 32.234375 
Q 47.125 39.59375 43.09375 43.984375 
Q 39.0625 48.390625 32.421875 48.390625 
Q 24.90625 48.390625 20.390625 44.140625 
Q 15.875 39.890625 15.1875 32.171875 
z
" id="BitstreamVeraSans-Roman-65"/>
       <path d="M 41.109375 46.296875 
Q 39.59375 47.171875 37.8125 47.578125 
Q 36.03125 48 33.890625 48 
Q 26.265625 48 22.1875 43.046875 
Q 18.109375 38.09375 18.109375 28.8125 
L 18.109375 0 
L 9.078125 0 
L 9.078125 54.6875 
L 18.109375 54.6875 
L 18.109375 46.1875 
Q 20.953125 51.171875 25.484375 53.578125 
Q 30.03125 56 36.53125 56 
Q 37.453125 56 38.578125 55.875 
Q 39.703125 55.765625 41.0625 55.515625 
z
" id="BitstreamVeraSans-Roman-72"/>
       <path d="M 48.78125 52.59375 
L 48.78125 44.1875 
Q 44.96875 46.296875 41.140625 47.34375 
Q 37.3125 48.390625 33.40625 48.390625 
Q 24.65625 48.390625 19.8125 42.84375 
Q 14.984375 37.3125 14.984375 27.296875 
Q 14.984375 17.28125 19.8125 11.734375 
Q 24.65625 6.203125 33.40625 6.203125 
Q 37.3125 6.203125 41.140625 7.25 
Q 44.96875 8.296875 48.78125 10.40625 
L 48.78125 2.09375 
Q 45.015625 0.34375 40.984375 -0.53125 
Q 36.96875 -1.421875 32.421875 -1.421875 
Q 20.0625 -1.421875 12.78125 6.34375 
Q 5.515625 14.109375 5.515625 27.296875 
Q 5.515625 40.671875 12.859375 48.328125 
Q 20.21875 56 33.015625 56 
Q 37.15625 56 41.109375 55.140625 
Q 45.0625 54.296875 48.78125 52.59375 
" id="BitstreamVeraSans-Roman-63"/>
      </defs>
      <g transform="translate(92.8975 407.28175)rotate(-90.0)scale(0.08 -0.08)">
       <use xlink:href="#BitstreamVeraSans-Roman-44"/>
       <use x="77.001953125" xlink:href="#BitstreamVeraSans-Roman-65"/>
       <use x="138.525390625" xlink:href="#BitstreamVeraSans-Roman-66"/>
       <use x="173.73046875" xlink:href="#BitstreamVeraSans-Roman-65"/>
       <use x="235.25390625" xlink:href="#BitstreamVeraSans-Roman-63"/>
       <use x="290.234375" xlink:href="#BitstreamVeraSans-Roman-74"/>
       <use x="329.443359375" xlink:href="#BitstreamVeraSans-Roman-6f"/>
       <use x="390.625" xlink:href="#BitstreamVeraSans-Roman-72"/>
      </g>
     </g>
    </g>
    <g id="xtick_2">
     <g id="line2d_3">
      <g>
       <use style="stroke:#000000;stroke-width:0.5;" x="165.09" xlink:href="#ma772ad56a3" y="368.74175"/>
      </g>
     </g>
     <g id="line2d_4">
      <g>
       <use style="stroke:#000000;stroke-width:0.5;" x="165.09" xlink:href="#m3fd42daaee" y="23.14175"/>
      </g>
     </g>
     <g id="text_2">
      <!-- Bully -->
      <defs>
       <path d="M 32.171875 -5.078125 
Q 28.375 -14.84375 24.75 -17.8125 
Q 21.140625 -20.796875 15.09375 -20.796875 
L 7.90625 -20.796875 
L 7.90625 -13.28125 
L 13.1875 -13.28125 
Q 16.890625 -13.28125 18.9375 -11.515625 
Q 21 -9.765625 23.484375 -3.21875 
L 25.09375 0.875 
L 2.984375 54.6875 
L 12.5 54.6875 
L 29.59375 11.921875 
L 46.6875 54.6875 
L 56.203125 54.6875 
z
" id="BitstreamVeraSans-Roman-79"/>
       <path d="M 19.671875 34.8125 
L 19.671875 8.109375 
L 35.5 8.109375 
Q 43.453125 8.109375 47.28125 11.40625 
Q 51.125 14.703125 51.125 21.484375 
Q 51.125 28.328125 47.28125 31.5625 
Q 43.453125 34.8125 35.5 34.8125 
z
M 19.671875 64.796875 
L 19.671875 42.828125 
L 34.28125 42.828125 
Q 41.5 42.828125 45.03125 45.53125 
Q 48.578125 48.25 48.578125 53.8125 
Q 48.578125 59.328125 45.03125 62.0625 
Q 41.5 64.796875 34.28125 64.796875 
z
M 9.8125 72.90625 
L 35.015625 72.90625 
Q 46.296875 72.90625 52.390625 68.21875 
Q 58.5 63.53125 58.5 54.890625 
Q 58.5 48.1875 55.375 44.234375 
Q 52.25 40.28125 46.1875 39.3125 
Q 53.46875 37.75 57.5 32.78125 
Q 61.53125 27.828125 61.53125 20.40625 
Q 61.53125 10.640625 54.890625 5.3125 
Q 48.25 0 35.984375 0 
L 9.8125 0 
z
" id="BitstreamVeraSans-Roman-42"/>
       <path d="M 8.5 21.578125 
L 8.5 54.6875 
L 17.484375 54.6875 
L 17.484375 21.921875 
Q 17.484375 14.15625 20.5 10.265625 
Q 23.53125 6.390625 29.59375 6.390625 
Q 36.859375 6.390625 41.078125 11.03125 
Q 45.3125 15.671875 45.3125 23.6875 
L 45.3125 54.6875 
L 54.296875 54.6875 
L 54.296875 0 
L 45.3125 0 
L 45.3125 8.40625 
Q 42.046875 3.421875 37.71875 1 
Q 33.40625 -1.421875 27.6875 -1.421875 
Q 18.265625 -1.421875 13.375 4.4375 
Q 8.5 10.296875 8.5 21.578125 
" id="BitstreamVeraSans-Roman-75"/>
       <path d="M 9.421875 75.984375 
L 18.40625 75.984375 
L 18.40625 0 
L 9.421875 0 
z
" id="BitstreamVeraSans-Roman-6c"/>
      </defs>
      <g transform="translate(167.2975 392.4805)rotate(-90.0)scale(0.08 -0.08)">
       <use xlink:href="#BitstreamVeraSans-Roman-42"/>
       <use x="68.603515625" xlink:href="#BitstreamVeraSans-Roman-75"/>
       <use x="131.982421875" xlink:href="#BitstreamVeraSans-Roman-6c"/>
       <use x="159.765625" xlink:href="#BitstreamVeraSans-Roman-6c"/>
       <use x="187.548828125" xlink:href="#BitstreamVeraSans-Roman-79"/>
      </g>
     </g>
    </g>
    <g id="xtick_3">
     <g id="line2d_5">
      <g>
       <use style="stroke:#000000;stroke-width:0.5;" x="239.49" xlink:href="#ma772ad56a3" y="368.74175"/>
      </g>
     </g>
     <g id="line2d_6">
      <g>
       <use style="stroke:#000000;stroke-width:0.5;" x="239.49" xlink:href="#m3fd42daaee" y="23.14175"/>
      </g>
     </g>
     <g id="text_3">
      <!-- Suspicious Tit For Tat -->
      <defs>
       <path id="BitstreamVeraSans-Roman-20"/>
       <path d="M 9.8125 72.90625 
L 51.703125 72.90625 
L 51.703125 64.59375 
L 19.671875 64.59375 
L 19.671875 43.109375 
L 48.578125 43.109375 
L 48.578125 34.8125 
L 19.671875 34.8125 
L 19.671875 0 
L 9.8125 0 
z
" id="BitstreamVeraSans-Roman-46"/>
       <path d="M 34.28125 27.484375 
Q 23.390625 27.484375 19.1875 25 
Q 14.984375 22.515625 14.984375 16.5 
Q 14.984375 11.71875 18.140625 8.90625 
Q 21.296875 6.109375 26.703125 6.109375 
Q 34.1875 6.109375 38.703125 11.40625 
Q 43.21875 16.703125 43.21875 25.484375 
L 43.21875 27.484375 
z
M 52.203125 31.203125 
L 52.203125 0 
L 43.21875 0 
L 43.21875 8.296875 
Q 40.140625 3.328125 35.546875 0.953125 
Q 30.953125 -1.421875 24.3125 -1.421875 
Q 15.921875 -1.421875 10.953125 3.296875 
Q 6 8.015625 6 15.921875 
Q 6 25.140625 12.171875 29.828125 
Q 18.359375 34.515625 30.609375 34.515625 
L 43.21875 34.515625 
L 43.21875 35.40625 
Q 43.21875 41.609375 39.140625 45 
Q 35.0625 48.390625 27.6875 48.390625 
Q 23 48.390625 18.546875 47.265625 
Q 14.109375 46.140625 10.015625 43.890625 
L 10.015625 52.203125 
Q 14.9375 54.109375 19.578125 55.046875 
Q 24.21875 56 28.609375 56 
Q 40.484375 56 46.34375 49.84375 
Q 52.203125 43.703125 52.203125 31.203125 
" id="BitstreamVeraSans-Roman-61"/>
       <path d="M 44.28125 53.078125 
L 44.28125 44.578125 
Q 40.484375 46.53125 36.375 47.5 
Q 32.28125 48.484375 27.875 48.484375 
Q 21.1875 48.484375 17.84375 46.4375 
Q 14.5 44.390625 14.5 40.28125 
Q 14.5 37.15625 16.890625 35.375 
Q 19.28125 33.59375 26.515625 31.984375 
L 29.59375 31.296875 
Q 39.15625 29.25 43.1875 25.515625 
Q 47.21875 21.78125 47.21875 15.09375 
Q 47.21875 7.46875 41.1875 3.015625 
Q 35.15625 -1.421875 24.609375 -1.421875 
Q 20.21875 -1.421875 15.453125 -0.5625 
Q 10.6875 0.296875 5.421875 2 
L 5.421875 11.28125 
Q 10.40625 8.6875 15.234375 7.390625 
Q 20.0625 6.109375 24.8125 6.109375 
Q 31.15625 6.109375 34.5625 8.28125 
Q 37.984375 10.453125 37.984375 14.40625 
Q 37.984375 18.0625 35.515625 20.015625 
Q 33.0625 21.96875 24.703125 23.78125 
L 21.578125 24.515625 
Q 13.234375 26.265625 9.515625 29.90625 
Q 5.8125 33.546875 5.8125 39.890625 
Q 5.8125 47.609375 11.28125 51.796875 
Q 16.75 56 26.8125 56 
Q 31.78125 56 36.171875 55.265625 
Q 40.578125 54.546875 44.28125 53.078125 
" id="BitstreamVeraSans-Roman-73"/>
       <path d="M 18.109375 8.203125 
L 18.109375 -20.796875 
L 9.078125 -20.796875 
L 9.078125 54.6875 
L 18.109375 54.6875 
L 18.109375 46.390625 
Q 20.953125 51.265625 25.265625 53.625 
Q 29.59375 56 35.59375 56 
Q 45.5625 56 51.78125 48.09375 
Q 58.015625 40.1875 58.015625 27.296875 
Q 58.015625 14.40625 51.78125 6.484375 
Q 45.5625 -1.421875 35.59375 -1.421875 
Q 29.59375 -1.421875 25.265625 0.953125 
Q 20.953125 3.328125 18.109375 8.203125 
M 48.6875 27.296875 
Q 48.6875 37.203125 44.609375 42.84375 
Q 40.53125 48.484375 33.40625 48.484375 
Q 26.265625 48.484375 22.1875 42.84375 
Q 18.109375 37.203125 18.109375 27.296875 
Q 18.109375 17.390625 22.1875 11.75 
Q 26.265625 6.109375 33.40625 6.109375 
Q 40.53125 6.109375 44.609375 11.75 
Q 48.6875 17.390625 48.6875 27.296875 
" id="BitstreamVeraSans-Roman-70"/>
       <path d="M 9.421875 54.6875 
L 18.40625 54.6875 
L 18.40625 0 
L 9.421875 0 
z
M 9.421875 75.984375 
L 18.40625 75.984375 
L 18.40625 64.59375 
L 9.421875 64.59375 
z
" id="BitstreamVeraSans-Roman-69"/>
       <path d="M -0.296875 72.90625 
L 61.375 72.90625 
L 61.375 64.59375 
L 35.5 64.59375 
L 35.5 0 
L 25.59375 0 
L 25.59375 64.59375 
L -0.296875 64.59375 
z
" id="BitstreamVeraSans-Roman-54"/>
       <path d="M 53.515625 70.515625 
L 53.515625 60.890625 
Q 47.90625 63.578125 42.921875 64.890625 
Q 37.9375 66.21875 33.296875 66.21875 
Q 25.25 66.21875 20.875 63.09375 
Q 16.5 59.96875 16.5 54.203125 
Q 16.5 49.359375 19.40625 46.890625 
Q 22.3125 44.4375 30.421875 42.921875 
L 36.375 41.703125 
Q 47.40625 39.59375 52.65625 34.296875 
Q 57.90625 29 57.90625 20.125 
Q 57.90625 9.515625 50.796875 4.046875 
Q 43.703125 -1.421875 29.984375 -1.421875 
Q 24.8125 -1.421875 18.96875 -0.25 
Q 13.140625 0.921875 6.890625 3.21875 
L 6.890625 13.375 
Q 12.890625 10.015625 18.65625 8.296875 
Q 24.421875 6.59375 29.984375 6.59375 
Q 38.421875 6.59375 43.015625 9.90625 
Q 47.609375 13.234375 47.609375 19.390625 
Q 47.609375 24.75 44.3125 27.78125 
Q 41.015625 30.8125 33.5 32.328125 
L 27.484375 33.5 
Q 16.453125 35.6875 11.515625 40.375 
Q 6.59375 45.0625 6.59375 53.421875 
Q 6.59375 63.09375 13.40625 68.65625 
Q 20.21875 74.21875 32.171875 74.21875 
Q 37.3125 74.21875 42.625 73.28125 
Q 47.953125 72.359375 53.515625 70.515625 
" id="BitstreamVeraSans-Roman-53"/>
      </defs>
      <g transform="translate(241.6975 458.668)rotate(-90.0)scale(0.08 -0.08)">
       <use xlink:href="#BitstreamVeraSans-Roman-53"/>
       <use x="63.4765625" xlink:href="#BitstreamVeraSans-Roman-75"/>
       <use x="126.85546875" xlink:href="#BitstreamVeraSans-Roman-73"/>
       <use x="178.955078125" xlink:href="#BitstreamVeraSans-Roman-70"/>
       <use x="242.431640625" xlink:href="#BitstreamVeraSans-Roman-69"/>
       <use x="270.21484375" xlink:href="#BitstreamVeraSans-Roman-63"/>
       <use x="325.1953125" xlink:href="#BitstreamVeraSans-Roman-69"/>
       <use x="352.978515625" xlink:href="#BitstreamVeraSans-Roman-6f"/>
       <use x="414.16015625" xlink:href="#BitstreamVeraSans-Roman-75"/>
       <use x="477.5390625" xlink:href="#BitstreamVeraSans-Roman-73"/>
       <use x="529.638671875" xlink:href="#BitstreamVeraSans-Roman-20"/>
       <use x="561.42578125" xlink:href="#BitstreamVeraSans-Roman-54"/>
       <use x="622.462890625" xlink:href="#BitstreamVeraSans-Roman-69"/>
       <use x="650.24609375" xlink:href="#BitstreamVeraSans-Roman-74"/>
       <use x="689.455078125" xlink:href="#BitstreamVeraSans-Roman-20"/>
       <use x="721.2421875" xlink:href="#BitstreamVeraSans-Roman-46"/>
       <use x="778.71484375" xlink:href="#BitstreamVeraSans-Roman-6f"/>
       <use x="839.896484375" xlink:href="#BitstreamVeraSans-Roman-72"/>
       <use x="881.009765625" xlink:href="#BitstreamVeraSans-Roman-20"/>
       <use x="912.796875" xlink:href="#BitstreamVeraSans-Roman-54"/>
       <use x="973.630859375" xlink:href="#BitstreamVeraSans-Roman-61"/>
       <use x="1034.91015625" xlink:href="#BitstreamVeraSans-Roman-74"/>
      </g>
     </g>
    </g>
    <g id="xtick_4">
     <g id="line2d_7">
      <g>
       <use style="stroke:#000000;stroke-width:0.5;" x="313.89" xlink:href="#ma772ad56a3" y="368.74175"/>
      </g>
     </g>
     <g id="line2d_8">
      <g>
       <use style="stroke:#000000;stroke-width:0.5;" x="313.89" xlink:href="#m3fd42daaee" y="23.14175"/>
      </g>
     </g>
     <g id="text_4">
      <!-- Anti Tit For Tat -->
      <defs>
       <path d="M 34.1875 63.1875 
L 20.796875 26.90625 
L 47.609375 26.90625 
z
M 28.609375 72.90625 
L 39.796875 72.90625 
L 67.578125 0 
L 57.328125 0 
L 50.6875 18.703125 
L 17.828125 18.703125 
L 11.1875 0 
L 0.78125 0 
z
" id="BitstreamVeraSans-Roman-41"/>
       <path d="M 54.890625 33.015625 
L 54.890625 0 
L 45.90625 0 
L 45.90625 32.71875 
Q 45.90625 40.484375 42.875 44.328125 
Q 39.84375 48.1875 33.796875 48.1875 
Q 26.515625 48.1875 22.3125 43.546875 
Q 18.109375 38.921875 18.109375 30.90625 
L 18.109375 0 
L 9.078125 0 
L 9.078125 54.6875 
L 18.109375 54.6875 
L 18.109375 46.1875 
Q 21.34375 51.125 25.703125 53.5625 
Q 30.078125 56 35.796875 56 
Q 45.21875 56 50.046875 50.171875 
Q 54.890625 44.34375 54.890625 33.015625 
" id="BitstreamVeraSans-Roman-6e"/>
      </defs>
      <g transform="translate(316.0975 432.198)rotate(-90.0)scale(0.08 -0.08)">
       <use xlink:href="#BitstreamVeraSans-Roman-41"/>
       <use x="68.408203125" xlink:href="#BitstreamVeraSans-Roman-6e"/>
       <use x="131.787109375" xlink:href="#BitstreamVeraSans-Roman-74"/>
       <use x="170.99609375" xlink:href="#BitstreamVeraSans-Roman-69"/>
       <use x="198.779296875" xlink:href="#BitstreamVeraSans-Roman-20"/>
       <use x="230.56640625" xlink:href="#BitstreamVeraSans-Roman-54"/>
       <use x="291.603515625" xlink:href="#BitstreamVeraSans-Roman-69"/>
       <use x="319.38671875" xlink:href="#BitstreamVeraSans-Roman-74"/>
       <use x="358.595703125" xlink:href="#BitstreamVeraSans-Roman-20"/>
       <use x="390.3828125" xlink:href="#BitstreamVeraSans-Roman-46"/>
       <use x="447.85546875" xlink:href="#BitstreamVeraSans-Roman-6f"/>
       <use x="509.037109375" xlink:href="#BitstreamVeraSans-Roman-72"/>
       <use x="550.150390625" xlink:href="#BitstreamVeraSans-Roman-20"/>
       <use x="581.9375" xlink:href="#BitstreamVeraSans-Roman-54"/>
       <use x="642.771484375" xlink:href="#BitstreamVeraSans-Roman-61"/>
       <use x="704.05078125" xlink:href="#BitstreamVeraSans-Roman-74"/>
      </g>
     </g>
    </g>
    <g id="xtick_5">
     <g id="line2d_9">
      <g>
       <use style="stroke:#000000;stroke-width:0.5;" x="388.29" xlink:href="#ma772ad56a3" y="368.74175"/>
      </g>
     </g>
     <g id="line2d_10">
      <g>
       <use style="stroke:#000000;stroke-width:0.5;" x="388.29" xlink:href="#m3fd42daaee" y="23.14175"/>
      </g>
     </g>
     <g id="text_5">
      <!-- Alternator -->
      <g transform="translate(390.4975 413.0755)rotate(-90.0)scale(0.08 -0.08)">
       <use xlink:href="#BitstreamVeraSans-Roman-41"/>
       <use x="68.408203125" xlink:href="#BitstreamVeraSans-Roman-6c"/>
       <use x="96.19140625" xlink:href="#BitstreamVeraSans-Roman-74"/>
       <use x="135.400390625" xlink:href="#BitstreamVeraSans-Roman-65"/>
       <use x="196.923828125" xlink:href="#BitstreamVeraSans-Roman-72"/>
       <use x="238.021484375" xlink:href="#BitstreamVeraSans-Roman-6e"/>
       <use x="301.400390625" xlink:href="#BitstreamVeraSans-Roman-61"/>
       <use x="362.6796875" xlink:href="#BitstreamVeraSans-Roman-74"/>
       <use x="401.888671875" xlink:href="#BitstreamVeraSans-Roman-6f"/>
       <use x="463.0703125" xlink:href="#BitstreamVeraSans-Roman-72"/>
      </g>
     </g>
    </g>
    <g id="xtick_6">
     <g id="line2d_11">
      <g>
       <use style="stroke:#000000;stroke-width:0.5;" x="462.69" xlink:href="#ma772ad56a3" y="368.74175"/>
      </g>
     </g>
     <g id="line2d_12">
      <g>
       <use style="stroke:#000000;stroke-width:0.5;" x="462.69" xlink:href="#m3fd42daaee" y="23.14175"/>
      </g>
     </g>
     <g id="text_6">
      <!-- Win-Stay Lose-Shift -->
      <defs>
       <path d="M 9.8125 72.90625 
L 19.671875 72.90625 
L 19.671875 8.296875 
L 55.171875 8.296875 
L 55.171875 0 
L 9.8125 0 
z
" id="BitstreamVeraSans-Roman-4c"/>
       <path d="M 54.890625 33.015625 
L 54.890625 0 
L 45.90625 0 
L 45.90625 32.71875 
Q 45.90625 40.484375 42.875 44.328125 
Q 39.84375 48.1875 33.796875 48.1875 
Q 26.515625 48.1875 22.3125 43.546875 
Q 18.109375 38.921875 18.109375 30.90625 
L 18.109375 0 
L 9.078125 0 
L 9.078125 75.984375 
L 18.109375 75.984375 
L 18.109375 46.1875 
Q 21.34375 51.125 25.703125 53.5625 
Q 30.078125 56 35.796875 56 
Q 45.21875 56 50.046875 50.171875 
Q 54.890625 44.34375 54.890625 33.015625 
" id="BitstreamVeraSans-Roman-68"/>
       <path d="M 3.328125 72.90625 
L 13.28125 72.90625 
L 28.609375 11.28125 
L 43.890625 72.90625 
L 54.984375 72.90625 
L 70.3125 11.28125 
L 85.59375 72.90625 
L 95.609375 72.90625 
L 77.296875 0 
L 64.890625 0 
L 49.515625 63.28125 
L 33.984375 0 
L 21.578125 0 
z
" id="BitstreamVeraSans-Roman-57"/>
       <path d="M 4.890625 31.390625 
L 31.203125 31.390625 
L 31.203125 23.390625 
L 4.890625 23.390625 
z
" id="BitstreamVeraSans-Roman-2d"/>
      </defs>
      <g transform="translate(464.8975 450.873)rotate(-90.0)scale(0.08 -0.08)">
       <use xlink:href="#BitstreamVeraSans-Roman-57"/>
       <use x="98.845703125" xlink:href="#BitstreamVeraSans-Roman-69"/>
       <use x="126.62890625" xlink:href="#BitstreamVeraSans-Roman-6e"/>
       <use x="190.0078125" xlink:href="#BitstreamVeraSans-Roman-2d"/>
       <use x="226.091796875" xlink:href="#BitstreamVeraSans-Roman-53"/>
       <use x="289.568359375" xlink:href="#BitstreamVeraSans-Roman-74"/>
       <use x="328.77734375" xlink:href="#BitstreamVeraSans-Roman-61"/>
       <use x="390.056640625" xlink:href="#BitstreamVeraSans-Roman-79"/>
       <use x="449.236328125" xlink:href="#BitstreamVeraSans-Roman-20"/>
       <use x="481.0234375" xlink:href="#BitstreamVeraSans-Roman-4c"/>
       <use x="536.720703125" xlink:href="#BitstreamVeraSans-Roman-6f"/>
       <use x="597.90234375" xlink:href="#BitstreamVeraSans-Roman-73"/>
       <use x="650.001953125" xlink:href="#BitstreamVeraSans-Roman-65"/>
       <use x="711.525390625" xlink:href="#BitstreamVeraSans-Roman-2d"/>
       <use x="747.609375" xlink:href="#BitstreamVeraSans-Roman-53"/>
       <use x="811.0859375" xlink:href="#BitstreamVeraSans-Roman-68"/>
       <use x="874.46484375" xlink:href="#BitstreamVeraSans-Roman-69"/>
       <use x="902.248046875" xlink:href="#BitstreamVeraSans-Roman-66"/>
       <use x="937.4375" xlink:href="#BitstreamVeraSans-Roman-74"/>
      </g>
     </g>
    </g>
    <g id="xtick_7">
     <g id="line2d_13">
      <g>
       <use style="stroke:#000000;stroke-width:0.5;" x="537.09" xlink:href="#ma772ad56a3" y="368.74175"/>
      </g>
     </g>
     <g id="line2d_14">
      <g>
       <use style="stroke:#000000;stroke-width:0.5;" x="537.09" xlink:href="#m3fd42daaee" y="23.14175"/>
      </g>
     </g>
     <g id="text_7">
      <!-- Tit For Tat -->
      <g transform="translate(539.2975 413.75425)rotate(-90.0)scale(0.08 -0.08)">
       <use xlink:href="#BitstreamVeraSans-Roman-54"/>
       <use x="61.037109375" xlink:href="#BitstreamVeraSans-Roman-69"/>
       <use x="88.8203125" xlink:href="#BitstreamVeraSans-Roman-74"/>
       <use x="128.029296875" xlink:href="#BitstreamVeraSans-Roman-20"/>
       <use x="159.81640625" xlink:href="#BitstreamVeraSans-Roman-46"/>
       <use x="217.2890625" xlink:href="#BitstreamVeraSans-Roman-6f"/>
       <use x="278.470703125" xlink:href="#BitstreamVeraSans-Roman-72"/>
       <use x="319.583984375" xlink:href="#BitstreamVeraSans-Roman-20"/>
       <use x="351.37109375" xlink:href="#BitstreamVeraSans-Roman-54"/>
       <use x="412.205078125" xlink:href="#BitstreamVeraSans-Roman-61"/>
       <use x="473.484375" xlink:href="#BitstreamVeraSans-Roman-74"/>
      </g>
     </g>
    </g>
    <g id="xtick_8">
     <g id="line2d_15">
      <g>
       <use style="stroke:#000000;stroke-width:0.5;" x="611.49" xlink:href="#ma772ad56a3" y="368.74175"/>
      </g>
     </g>
     <g id="line2d_16">
      <g>
       <use style="stroke:#000000;stroke-width:0.5;" x="611.49" xlink:href="#m3fd42daaee" y="23.14175"/>
      </g>
     </g>
     <g id="text_8">
      <!-- Cooperator -->
      <defs>
       <path d="M 64.40625 67.28125 
L 64.40625 56.890625 
Q 59.421875 61.53125 53.78125 63.8125 
Q 48.140625 66.109375 41.796875 66.109375 
Q 29.296875 66.109375 22.65625 58.46875 
Q 16.015625 50.828125 16.015625 36.375 
Q 16.015625 21.96875 22.65625 14.328125 
Q 29.296875 6.6875 41.796875 6.6875 
Q 48.140625 6.6875 53.78125 8.984375 
Q 59.421875 11.28125 64.40625 15.921875 
L 64.40625 5.609375 
Q 59.234375 2.09375 53.4375 0.328125 
Q 47.65625 -1.421875 41.21875 -1.421875 
Q 24.65625 -1.421875 15.125 8.703125 
Q 5.609375 18.84375 5.609375 36.375 
Q 5.609375 53.953125 15.125 64.078125 
Q 24.65625 74.21875 41.21875 74.21875 
Q 47.75 74.21875 53.53125 72.484375 
Q 59.328125 70.75 64.40625 67.28125 
" id="BitstreamVeraSans-Roman-43"/>
      </defs>
      <g transform="translate(613.6975 417.6305)rotate(-90.0)scale(0.08 -0.08)">
       <use xlink:href="#BitstreamVeraSans-Roman-43"/>
       <use x="69.82421875" xlink:href="#BitstreamVeraSans-Roman-6f"/>
       <use x="131.005859375" xlink:href="#BitstreamVeraSans-Roman-6f"/>
       <use x="192.1875" xlink:href="#BitstreamVeraSans-Roman-70"/>
       <use x="255.6640625" xlink:href="#BitstreamVeraSans-Roman-65"/>
       <use x="317.1875" xlink:href="#BitstreamVeraSans-Roman-72"/>
       <use x="358.30078125" xlink:href="#BitstreamVeraSans-Roman-61"/>
       <use x="419.580078125" xlink:href="#BitstreamVeraSans-Roman-74"/>
       <use x="458.7890625" xlink:href="#BitstreamVeraSans-Roman-6f"/>
       <use x="519.970703125" xlink:href="#BitstreamVeraSans-Roman-72"/>
      </g>
     </g>
    </g>
   </g>
   <g id="matplotlib.axis_2">
    <g id="ytick_1">
     <g id="line2d_17">
      <defs>
       <path d="M 0 0 
L 4 0 
" id="me1830d790f" style="stroke:#000000;stroke-width:0.5;"/>
      </defs>
      <g>
       <use style="stroke:#000000;stroke-width:0.5;" x="16.29" xlink:href="#me1830d790f" y="344.056035714"/>
      </g>
     </g>
     <g id="line2d_18">
      <defs>
       <path d="M 0 0 
L -4 0 
" id="me4ee273f7d" style="stroke:#000000;stroke-width:0.5;"/>
      </defs>
      <g>
       <use style="stroke:#000000;stroke-width:0.5;" x="685.89" xlink:href="#me4ee273f7d" y="344.056035714"/>
      </g>
     </g>
     <g id="text_9">
      <!-- 0 -->
      <defs>
       <path d="M 31.78125 66.40625 
Q 24.171875 66.40625 20.328125 58.90625 
Q 16.5 51.421875 16.5 36.375 
Q 16.5 21.390625 20.328125 13.890625 
Q 24.171875 6.390625 31.78125 6.390625 
Q 39.453125 6.390625 43.28125 13.890625 
Q 47.125 21.390625 47.125 36.375 
Q 47.125 51.421875 43.28125 58.90625 
Q 39.453125 66.40625 31.78125 66.40625 
M 31.78125 74.21875 
Q 44.046875 74.21875 50.515625 64.515625 
Q 56.984375 54.828125 56.984375 36.375 
Q 56.984375 17.96875 50.515625 8.265625 
Q 44.046875 -1.421875 31.78125 -1.421875 
Q 19.53125 -1.421875 13.0625 8.265625 
Q 6.59375 17.96875 6.59375 36.375 
Q 6.59375 54.828125 13.0625 64.515625 
Q 19.53125 74.21875 31.78125 74.21875 
" id="BitstreamVeraSans-Roman-30"/>
      </defs>
      <g transform="translate(7.2 346.263535714)scale(0.08 -0.08)">
       <use xlink:href="#BitstreamVeraSans-Roman-30"/>
      </g>
     </g>
    </g>
    <g id="ytick_2">
     <g id="line2d_19">
      <g>
       <use style="stroke:#000000;stroke-width:0.5;" x="16.29" xlink:href="#me1830d790f" y="294.684607143"/>
      </g>
     </g>
     <g id="line2d_20">
      <g>
       <use style="stroke:#000000;stroke-width:0.5;" x="685.89" xlink:href="#me4ee273f7d" y="294.684607143"/>
      </g>
     </g>
     <g id="text_10">
      <!-- 1 -->
      <defs>
       <path d="M 12.40625 8.296875 
L 28.515625 8.296875 
L 28.515625 63.921875 
L 10.984375 60.40625 
L 10.984375 69.390625 
L 28.421875 72.90625 
L 38.28125 72.90625 
L 38.28125 8.296875 
L 54.390625 8.296875 
L 54.390625 0 
L 12.40625 0 
z
" id="BitstreamVeraSans-Roman-31"/>
      </defs>
      <g transform="translate(7.2 296.892107143)scale(0.08 -0.08)">
       <use xlink:href="#BitstreamVeraSans-Roman-31"/>
      </g>
     </g>
    </g>
    <g id="ytick_3">
     <g id="line2d_21">
      <g>
       <use style="stroke:#000000;stroke-width:0.5;" x="16.29" xlink:href="#me1830d790f" y="245.313178571"/>
      </g>
     </g>
     <g id="line2d_22">
      <g>
       <use style="stroke:#000000;stroke-width:0.5;" x="685.89" xlink:href="#me4ee273f7d" y="245.313178571"/>
      </g>
     </g>
     <g id="text_11">
      <!-- 2 -->
      <defs>
       <path d="M 19.1875 8.296875 
L 53.609375 8.296875 
L 53.609375 0 
L 7.328125 0 
L 7.328125 8.296875 
Q 12.9375 14.109375 22.625 23.890625 
Q 32.328125 33.6875 34.8125 36.53125 
Q 39.546875 41.84375 41.421875 45.53125 
Q 43.3125 49.21875 43.3125 52.78125 
Q 43.3125 58.59375 39.234375 62.25 
Q 35.15625 65.921875 28.609375 65.921875 
Q 23.96875 65.921875 18.8125 64.3125 
Q 13.671875 62.703125 7.8125 59.421875 
L 7.8125 69.390625 
Q 13.765625 71.78125 18.9375 73 
Q 24.125 74.21875 28.421875 74.21875 
Q 39.75 74.21875 46.484375 68.546875 
Q 53.21875 62.890625 53.21875 53.421875 
Q 53.21875 48.921875 51.53125 44.890625 
Q 49.859375 40.875 45.40625 35.40625 
Q 44.1875 33.984375 37.640625 27.21875 
Q 31.109375 20.453125 19.1875 8.296875 
" id="BitstreamVeraSans-Roman-32"/>
      </defs>
      <g transform="translate(7.2 247.520678571)scale(0.08 -0.08)">
       <use xlink:href="#BitstreamVeraSans-Roman-32"/>
      </g>
     </g>
    </g>
    <g id="ytick_4">
     <g id="line2d_23">
      <g>
       <use style="stroke:#000000;stroke-width:0.5;" x="16.29" xlink:href="#me1830d790f" y="195.94175"/>
      </g>
     </g>
     <g id="line2d_24">
      <g>
       <use style="stroke:#000000;stroke-width:0.5;" x="685.89" xlink:href="#me4ee273f7d" y="195.94175"/>
      </g>
     </g>
     <g id="text_12">
      <!-- 3 -->
      <defs>
       <path d="M 40.578125 39.3125 
Q 47.65625 37.796875 51.625 33 
Q 55.609375 28.21875 55.609375 21.1875 
Q 55.609375 10.40625 48.1875 4.484375 
Q 40.765625 -1.421875 27.09375 -1.421875 
Q 22.515625 -1.421875 17.65625 -0.515625 
Q 12.796875 0.390625 7.625 2.203125 
L 7.625 11.71875 
Q 11.71875 9.328125 16.59375 8.109375 
Q 21.484375 6.890625 26.8125 6.890625 
Q 36.078125 6.890625 40.9375 10.546875 
Q 45.796875 14.203125 45.796875 21.1875 
Q 45.796875 27.640625 41.28125 31.265625 
Q 36.765625 34.90625 28.71875 34.90625 
L 20.21875 34.90625 
L 20.21875 43.015625 
L 29.109375 43.015625 
Q 36.375 43.015625 40.234375 45.921875 
Q 44.09375 48.828125 44.09375 54.296875 
Q 44.09375 59.90625 40.109375 62.90625 
Q 36.140625 65.921875 28.71875 65.921875 
Q 24.65625 65.921875 20.015625 65.03125 
Q 15.375 64.15625 9.8125 62.3125 
L 9.8125 71.09375 
Q 15.4375 72.65625 20.34375 73.4375 
Q 25.25 74.21875 29.59375 74.21875 
Q 40.828125 74.21875 47.359375 69.109375 
Q 53.90625 64.015625 53.90625 55.328125 
Q 53.90625 49.265625 50.4375 45.09375 
Q 46.96875 40.921875 40.578125 39.3125 
" id="BitstreamVeraSans-Roman-33"/>
      </defs>
      <g transform="translate(7.2 198.14925)scale(0.08 -0.08)">
       <use xlink:href="#BitstreamVeraSans-Roman-33"/>
      </g>
     </g>
    </g>
    <g id="ytick_5">
     <g id="line2d_25">
      <g>
       <use style="stroke:#000000;stroke-width:0.5;" x="16.29" xlink:href="#me1830d790f" y="146.570321429"/>
      </g>
     </g>
     <g id="line2d_26">
      <g>
       <use style="stroke:#000000;stroke-width:0.5;" x="685.89" xlink:href="#me4ee273f7d" y="146.570321429"/>
      </g>
     </g>
     <g id="text_13">
      <!-- 4 -->
      <defs>
       <path d="M 37.796875 64.3125 
L 12.890625 25.390625 
L 37.796875 25.390625 
z
M 35.203125 72.90625 
L 47.609375 72.90625 
L 47.609375 25.390625 
L 58.015625 25.390625 
L 58.015625 17.1875 
L 47.609375 17.1875 
L 47.609375 0 
L 37.796875 0 
L 37.796875 17.1875 
L 4.890625 17.1875 
L 4.890625 26.703125 
z
" id="BitstreamVeraSans-Roman-34"/>
      </defs>
      <g transform="translate(7.2 148.777821429)scale(0.08 -0.08)">
       <use xlink:href="#BitstreamVeraSans-Roman-34"/>
      </g>
     </g>
    </g>
    <g id="ytick_6">
     <g id="line2d_27">
      <g>
       <use style="stroke:#000000;stroke-width:0.5;" x="16.29" xlink:href="#me1830d790f" y="97.1988928571"/>
      </g>
     </g>
     <g id="line2d_28">
      <g>
       <use style="stroke:#000000;stroke-width:0.5;" x="685.89" xlink:href="#me4ee273f7d" y="97.1988928571"/>
      </g>
     </g>
     <g id="text_14">
      <!-- 5 -->
      <defs>
       <path d="M 10.796875 72.90625 
L 49.515625 72.90625 
L 49.515625 64.59375 
L 19.828125 64.59375 
L 19.828125 46.734375 
Q 21.96875 47.46875 24.109375 47.828125 
Q 26.265625 48.1875 28.421875 48.1875 
Q 40.625 48.1875 47.75 41.5 
Q 54.890625 34.8125 54.890625 23.390625 
Q 54.890625 11.625 47.5625 5.09375 
Q 40.234375 -1.421875 26.90625 -1.421875 
Q 22.3125 -1.421875 17.546875 -0.640625 
Q 12.796875 0.140625 7.71875 1.703125 
L 7.71875 11.625 
Q 12.109375 9.234375 16.796875 8.0625 
Q 21.484375 6.890625 26.703125 6.890625 
Q 35.15625 6.890625 40.078125 11.328125 
Q 45.015625 15.765625 45.015625 23.390625 
Q 45.015625 31 40.078125 35.4375 
Q 35.15625 39.890625 26.703125 39.890625 
Q 22.75 39.890625 18.8125 39.015625 
Q 14.890625 38.140625 10.796875 36.28125 
z
" id="BitstreamVeraSans-Roman-35"/>
      </defs>
      <g transform="translate(7.2 99.4063928571)scale(0.08 -0.08)">
       <use xlink:href="#BitstreamVeraSans-Roman-35"/>
      </g>
     </g>
    </g>
    <g id="ytick_7">
     <g id="line2d_29">
      <g>
       <use style="stroke:#000000;stroke-width:0.5;" x="16.29" xlink:href="#me1830d790f" y="47.8274642857"/>
      </g>
     </g>
     <g id="line2d_30">
      <g>
       <use style="stroke:#000000;stroke-width:0.5;" x="685.89" xlink:href="#me4ee273f7d" y="47.8274642857"/>
      </g>
     </g>
     <g id="text_15">
      <!-- 6 -->
      <defs>
       <path d="M 33.015625 40.375 
Q 26.375 40.375 22.484375 35.828125 
Q 18.609375 31.296875 18.609375 23.390625 
Q 18.609375 15.53125 22.484375 10.953125 
Q 26.375 6.390625 33.015625 6.390625 
Q 39.65625 6.390625 43.53125 10.953125 
Q 47.40625 15.53125 47.40625 23.390625 
Q 47.40625 31.296875 43.53125 35.828125 
Q 39.65625 40.375 33.015625 40.375 
M 52.59375 71.296875 
L 52.59375 62.3125 
Q 48.875 64.0625 45.09375 64.984375 
Q 41.3125 65.921875 37.59375 65.921875 
Q 27.828125 65.921875 22.671875 59.328125 
Q 17.53125 52.734375 16.796875 39.40625 
Q 19.671875 43.65625 24.015625 45.921875 
Q 28.375 48.1875 33.59375 48.1875 
Q 44.578125 48.1875 50.953125 41.515625 
Q 57.328125 34.859375 57.328125 23.390625 
Q 57.328125 12.15625 50.6875 5.359375 
Q 44.046875 -1.421875 33.015625 -1.421875 
Q 20.359375 -1.421875 13.671875 8.265625 
Q 6.984375 17.96875 6.984375 36.375 
Q 6.984375 53.65625 15.1875 63.9375 
Q 23.390625 74.21875 37.203125 74.21875 
Q 40.921875 74.21875 44.703125 73.484375 
Q 48.484375 72.75 52.59375 71.296875 
" id="BitstreamVeraSans-Roman-36"/>
      </defs>
      <g transform="translate(7.2 50.0349642857)scale(0.08 -0.08)">
       <use xlink:href="#BitstreamVeraSans-Roman-36"/>
      </g>
     </g>
    </g>
   </g>
   <g id="text_16">
    <!-- Wins. Prob end: 0.1, Repetitions: 2, Strategies: 8. -->
    <defs>
     <path d="M 45.40625 46.390625 
L 45.40625 75.984375 
L 54.390625 75.984375 
L 54.390625 0 
L 45.40625 0 
L 45.40625 8.203125 
Q 42.578125 3.328125 38.25 0.953125 
Q 33.9375 -1.421875 27.875 -1.421875 
Q 17.96875 -1.421875 11.734375 6.484375 
Q 5.515625 14.40625 5.515625 27.296875 
Q 5.515625 40.1875 11.734375 48.09375 
Q 17.96875 56 27.875 56 
Q 33.9375 56 38.25 53.625 
Q 42.578125 51.265625 45.40625 46.390625 
M 14.796875 27.296875 
Q 14.796875 17.390625 18.875 11.75 
Q 22.953125 6.109375 30.078125 6.109375 
Q 37.203125 6.109375 41.296875 11.75 
Q 45.40625 17.390625 45.40625 27.296875 
Q 45.40625 37.203125 41.296875 42.84375 
Q 37.203125 48.484375 30.078125 48.484375 
Q 22.953125 48.484375 18.875 42.84375 
Q 14.796875 37.203125 14.796875 27.296875 
" id="BitstreamVeraSans-Roman-64"/>
     <path d="M 44.390625 34.1875 
Q 47.5625 33.109375 50.5625 29.59375 
Q 53.5625 26.078125 56.59375 19.921875 
L 66.609375 0 
L 56 0 
L 46.6875 18.703125 
Q 43.0625 26.03125 39.671875 28.421875 
Q 36.28125 30.8125 30.421875 30.8125 
L 19.671875 30.8125 
L 19.671875 0 
L 9.8125 0 
L 9.8125 72.90625 
L 32.078125 72.90625 
Q 44.578125 72.90625 50.734375 67.671875 
Q 56.890625 62.453125 56.890625 51.90625 
Q 56.890625 45.015625 53.6875 40.46875 
Q 50.484375 35.9375 44.390625 34.1875 
M 19.671875 64.796875 
L 19.671875 38.921875 
L 32.078125 38.921875 
Q 39.203125 38.921875 42.84375 42.21875 
Q 46.484375 45.515625 46.484375 51.90625 
Q 46.484375 58.296875 42.84375 61.546875 
Q 39.203125 64.796875 32.078125 64.796875 
z
" id="BitstreamVeraSans-Roman-52"/>
     <path d="M 10.6875 12.40625 
L 21 12.40625 
L 21 0 
L 10.6875 0 
z
" id="BitstreamVeraSans-Roman-2e"/>
     <path d="M 11.71875 12.40625 
L 22.015625 12.40625 
L 22.015625 4 
L 14.015625 -11.625 
L 7.71875 -11.625 
L 11.71875 4 
z
" id="BitstreamVeraSans-Roman-2c"/>
     <path d="M 11.71875 12.40625 
L 22.015625 12.40625 
L 22.015625 0 
L 11.71875 0 
z
M 11.71875 51.703125 
L 22.015625 51.703125 
L 22.015625 39.3125 
L 11.71875 39.3125 
z
" id="BitstreamVeraSans-Roman-3a"/>
     <path d="M 31.78125 34.625 
Q 24.75 34.625 20.71875 30.859375 
Q 16.703125 27.09375 16.703125 20.515625 
Q 16.703125 13.921875 20.71875 10.15625 
Q 24.75 6.390625 31.78125 6.390625 
Q 38.8125 6.390625 42.859375 10.171875 
Q 46.921875 13.96875 46.921875 20.515625 
Q 46.921875 27.09375 42.890625 30.859375 
Q 38.875 34.625 31.78125 34.625 
M 21.921875 38.8125 
Q 15.578125 40.375 12.03125 44.71875 
Q 8.5 49.078125 8.5 55.328125 
Q 8.5 64.0625 14.71875 69.140625 
Q 20.953125 74.21875 31.78125 74.21875 
Q 42.671875 74.21875 48.875 69.140625 
Q 55.078125 64.0625 55.078125 55.328125 
Q 55.078125 49.078125 51.53125 44.71875 
Q 48 40.375 41.703125 38.8125 
Q 48.828125 37.15625 52.796875 32.3125 
Q 56.78125 27.484375 56.78125 20.515625 
Q 56.78125 9.90625 50.3125 4.234375 
Q 43.84375 -1.421875 31.78125 -1.421875 
Q 19.734375 -1.421875 13.25 4.234375 
Q 6.78125 9.90625 6.78125 20.515625 
Q 6.78125 27.484375 10.78125 32.3125 
Q 14.796875 37.15625 21.921875 38.8125 
M 18.3125 54.390625 
Q 18.3125 48.734375 21.84375 45.5625 
Q 25.390625 42.390625 31.78125 42.390625 
Q 38.140625 42.390625 41.71875 45.5625 
Q 45.3125 48.734375 45.3125 54.390625 
Q 45.3125 60.0625 41.71875 63.234375 
Q 38.140625 66.40625 31.78125 66.40625 
Q 25.390625 66.40625 21.84375 63.234375 
Q 18.3125 60.0625 18.3125 54.390625 
" id="BitstreamVeraSans-Roman-38"/>
     <path d="M 19.671875 64.796875 
L 19.671875 37.40625 
L 32.078125 37.40625 
Q 38.96875 37.40625 42.71875 40.96875 
Q 46.484375 44.53125 46.484375 51.125 
Q 46.484375 57.671875 42.71875 61.234375 
Q 38.96875 64.796875 32.078125 64.796875 
z
M 9.8125 72.90625 
L 32.078125 72.90625 
Q 44.34375 72.90625 50.609375 67.359375 
Q 56.890625 61.8125 56.890625 51.125 
Q 56.890625 40.328125 50.609375 34.8125 
Q 44.34375 29.296875 32.078125 29.296875 
L 19.671875 29.296875 
L 19.671875 0 
L 9.8125 0 
z
" id="BitstreamVeraSans-Roman-50"/>
     <path d="M 48.6875 27.296875 
Q 48.6875 37.203125 44.609375 42.84375 
Q 40.53125 48.484375 33.40625 48.484375 
Q 26.265625 48.484375 22.1875 42.84375 
Q 18.109375 37.203125 18.109375 27.296875 
Q 18.109375 17.390625 22.1875 11.75 
Q 26.265625 6.109375 33.40625 6.109375 
Q 40.53125 6.109375 44.609375 11.75 
Q 48.6875 17.390625 48.6875 27.296875 
M 18.109375 46.390625 
Q 20.953125 51.265625 25.265625 53.625 
Q 29.59375 56 35.59375 56 
Q 45.5625 56 51.78125 48.09375 
Q 58.015625 40.1875 58.015625 27.296875 
Q 58.015625 14.40625 51.78125 6.484375 
Q 45.5625 -1.421875 35.59375 -1.421875 
Q 29.59375 -1.421875 25.265625 0.953125 
Q 20.953125 3.328125 18.109375 8.203125 
L 18.109375 0 
L 9.078125 0 
L 9.078125 75.984375 
L 18.109375 75.984375 
z
" id="BitstreamVeraSans-Roman-62"/>
     <path d="M 45.40625 27.984375 
Q 45.40625 37.75 41.375 43.109375 
Q 37.359375 48.484375 30.078125 48.484375 
Q 22.859375 48.484375 18.828125 43.109375 
Q 14.796875 37.75 14.796875 27.984375 
Q 14.796875 18.265625 18.828125 12.890625 
Q 22.859375 7.515625 30.078125 7.515625 
Q 37.359375 7.515625 41.375 12.890625 
Q 45.40625 18.265625 45.40625 27.984375 
M 54.390625 6.78125 
Q 54.390625 -7.171875 48.1875 -13.984375 
Q 42 -20.796875 29.203125 -20.796875 
Q 24.46875 -20.796875 20.265625 -20.09375 
Q 16.0625 -19.390625 12.109375 -17.921875 
L 12.109375 -9.1875 
Q 16.0625 -11.328125 19.921875 -12.34375 
Q 23.78125 -13.375 27.78125 -13.375 
Q 36.625 -13.375 41.015625 -8.765625 
Q 45.40625 -4.15625 45.40625 5.171875 
L 45.40625 9.625 
Q 42.625 4.78125 38.28125 2.390625 
Q 33.9375 0 27.875 0 
Q 17.828125 0 11.671875 7.65625 
Q 5.515625 15.328125 5.515625 27.984375 
Q 5.515625 40.671875 11.671875 48.328125 
Q 17.828125 56 27.875 56 
Q 33.9375 56 38.28125 53.609375 
Q 42.625 51.21875 45.40625 46.390625 
L 45.40625 54.6875 
L 54.390625 54.6875 
z
" id="BitstreamVeraSans-Roman-67"/>
    </defs>
    <g transform="translate(173.196 18.14175)scale(0.144 -0.144)">
     <use xlink:href="#BitstreamVeraSans-Roman-57"/>
     <use x="98.845703125" xlink:href="#BitstreamVeraSans-Roman-69"/>
     <use x="126.62890625" xlink:href="#BitstreamVeraSans-Roman-6e"/>
     <use x="190.0078125" xlink:href="#BitstreamVeraSans-Roman-73"/>
     <use x="242.107421875" xlink:href="#BitstreamVeraSans-Roman-2e"/>
     <use x="273.89453125" xlink:href="#BitstreamVeraSans-Roman-20"/>
     <use x="305.681640625" xlink:href="#BitstreamVeraSans-Roman-50"/>
     <use x="365.96875" xlink:href="#BitstreamVeraSans-Roman-72"/>
     <use x="407.05078125" xlink:href="#BitstreamVeraSans-Roman-6f"/>
     <use x="468.232421875" xlink:href="#BitstreamVeraSans-Roman-62"/>
     <use x="531.708984375" xlink:href="#BitstreamVeraSans-Roman-20"/>
     <use x="563.49609375" xlink:href="#BitstreamVeraSans-Roman-65"/>
     <use x="625.01953125" xlink:href="#BitstreamVeraSans-Roman-6e"/>
     <use x="688.3984375" xlink:href="#BitstreamVeraSans-Roman-64"/>
     <use x="751.875" xlink:href="#BitstreamVeraSans-Roman-3a"/>
     <use x="785.56640625" xlink:href="#BitstreamVeraSans-Roman-20"/>
     <use x="817.353515625" xlink:href="#BitstreamVeraSans-Roman-30"/>
     <use x="880.9765625" xlink:href="#BitstreamVeraSans-Roman-2e"/>
     <use x="912.763671875" xlink:href="#BitstreamVeraSans-Roman-31"/>
     <use x="976.38671875" xlink:href="#BitstreamVeraSans-Roman-2c"/>
     <use x="1008.173828125" xlink:href="#BitstreamVeraSans-Roman-20"/>
     <use x="1039.9609375" xlink:href="#BitstreamVeraSans-Roman-52"/>
     <use x="1109.380859375" xlink:href="#BitstreamVeraSans-Roman-65"/>
     <use x="1170.904296875" xlink:href="#BitstreamVeraSans-Roman-70"/>
     <use x="1234.380859375" xlink:href="#BitstreamVeraSans-Roman-65"/>
     <use x="1295.904296875" xlink:href="#BitstreamVeraSans-Roman-74"/>
     <use x="1335.11328125" xlink:href="#BitstreamVeraSans-Roman-69"/>
     <use x="1362.896484375" xlink:href="#BitstreamVeraSans-Roman-74"/>
     <use x="1402.10546875" xlink:href="#BitstreamVeraSans-Roman-69"/>
     <use x="1429.888671875" xlink:href="#BitstreamVeraSans-Roman-6f"/>
     <use x="1491.0703125" xlink:href="#BitstreamVeraSans-Roman-6e"/>
     <use x="1554.44921875" xlink:href="#BitstreamVeraSans-Roman-73"/>
     <use x="1606.548828125" xlink:href="#BitstreamVeraSans-Roman-3a"/>
     <use x="1640.240234375" xlink:href="#BitstreamVeraSans-Roman-20"/>
     <use x="1672.02734375" xlink:href="#BitstreamVeraSans-Roman-32"/>
     <use x="1735.650390625" xlink:href="#BitstreamVeraSans-Roman-2c"/>
     <use x="1767.4375" xlink:href="#BitstreamVeraSans-Roman-20"/>
     <use x="1799.224609375" xlink:href="#BitstreamVeraSans-Roman-53"/>
     <use x="1862.701171875" xlink:href="#BitstreamVeraSans-Roman-74"/>
     <use x="1901.91015625" xlink:href="#BitstreamVeraSans-Roman-72"/>
     <use x="1943.0234375" xlink:href="#BitstreamVeraSans-Roman-61"/>
     <use x="2004.302734375" xlink:href="#BitstreamVeraSans-Roman-74"/>
     <use x="2043.51171875" xlink:href="#BitstreamVeraSans-Roman-65"/>
     <use x="2105.03515625" xlink:href="#BitstreamVeraSans-Roman-67"/>
     <use x="2168.51171875" xlink:href="#BitstreamVeraSans-Roman-69"/>
     <use x="2196.294921875" xlink:href="#BitstreamVeraSans-Roman-65"/>
     <use x="2257.818359375" xlink:href="#BitstreamVeraSans-Roman-73"/>
     <use x="2309.91796875" xlink:href="#BitstreamVeraSans-Roman-3a"/>
     <use x="2343.609375" xlink:href="#BitstreamVeraSans-Roman-20"/>
     <use x="2375.396484375" xlink:href="#BitstreamVeraSans-Roman-38"/>
     <use x="2439.01953125" xlink:href="#BitstreamVeraSans-Roman-2e"/>
    </g>
   </g>
  </g>
 </g>
 <defs>
  <clipPath id="p0441a1c56e">
   <rect height="345.6" width="669.6" x="16.29" y="23.14175"/>
  </clipPath>
 </defs>
</svg>
