<?xml version="1.0" encoding="utf-8" standalone="no"?>
<!DOCTYPE svg PUBLIC "-//W3C//DTD SVG 1.1//EN"
  "http://www.w3.org/Graphics/SVG/1.1/DTD/svg11.dtd">
<!-- Created with matplotlib (http://matplotlib.org/) -->
<svg height="412pt" version="1.1" viewBox="0 0 559 412" width="559pt" xmlns="http://www.w3.org/2000/svg" xmlns:xlink="http://www.w3.org/1999/xlink">
 <defs>
  <style type="text/css">
*{stroke-linecap:butt;stroke-linejoin:round;stroke-miterlimit:100000;}
  </style>
 </defs>
 <g id="figure_1">
  <g id="patch_1">
   <path d="M 0 412.7955 
L 559.144156 412.7955 
L 559.144156 0 
L 0 0 
z
" style="fill:#ffffff;"/>
  </g>
  <g id="axes_1">
   <g id="patch_2">
    <path d="M 68.930406 368.74175 
L 515.330406 368.74175 
L 515.330406 23.14175 
L 68.930406 23.14175 
z
" style="fill:#ffffff;"/>
   </g>
   <g id="PolyCollection_1">
    <path clip-path="url(#pc51e9156f5)" d="M -134297.469594 334.18175 
L -134297.469594 368.74175 
L 68.930406 368.74175 
L 203.310196 368.74175 
L 281.917334 368.74175 
L 337.689986 368.74175 
L 380.950616 368.74175 
L 416.297124 368.74175 
L 446.182171 368.74175 
L 472.069776 368.74175 
L 494.904262 368.74175 
L 515.330406 368.74175 
L 515.330406 297.63827 
L 515.330406 297.63827 
L 494.904262 310.97175 
L 472.069776 312.946825 
L 446.182171 317.525032 
L 416.297124 263.904049 
L 380.950616 237.496285 
L 337.689986 259.903028 
L 281.917334 278.584096 
L 203.310196 301.254833 
L 68.930406 315.575497 
L -134297.469594 334.18175 
z
" style="fill:#0000ff;stroke:#000000;"/>
   </g>
   <g id="PolyCollection_2">
    <path clip-path="url(#pc51e9156f5)" d="M -134297.469594 299.62175 
L -134297.469594 334.18175 
L 68.930406 315.575497 
L 203.310196 301.254833 
L 281.917334 278.584096 
L 337.689986 259.903028 
L 380.950616 237.496285 
L 416.297124 263.904049 
L 446.182171 317.525032 
L 472.069776 312.946825 
L 494.904262 310.97175 
L 515.330406 297.63827 
L 515.330406 260.349702 
L 515.330406 260.349702 
L 494.904262 272.255075 
L 472.069776 272.027064 
L 446.182171 275.941883 
L 416.297124 215.735612 
L 380.950616 184.631477 
L 337.689986 206.577145 
L 281.917334 228.662174 
L 203.310196 259.0379 
L 68.930406 277.988759 
L -134297.469594 299.62175 
z
" style="fill:#008000;stroke:#000000;"/>
   </g>
   <g id="PolyCollection_3">
    <path clip-path="url(#pc51e9156f5)" d="M -134297.469594 265.06175 
L -134297.469594 299.62175 
L 68.930406 277.988759 
L 203.310196 259.0379 
L 281.917334 228.662174 
L 337.689986 206.577145 
L 380.950616 184.631477 
L 416.297124 215.735612 
L 446.182171 275.941883 
L 472.069776 272.027064 
L 494.904262 272.255075 
L 515.330406 260.349702 
L 515.330406 165.072009 
L 515.330406 165.072009 
L 494.904262 175.504784 
L 472.069776 183.397216 
L 446.182171 190.604739 
L 416.297124 156.990048 
L 380.950616 139.656719 
L 337.689986 160.586303 
L 281.917334 186.759703 
L 203.310196 219.007611 
L 68.930406 241.188069 
L -134297.469594 265.06175 
z
" style="fill:#ff0000;stroke:#000000;"/>
   </g>
   <g id="PolyCollection_4">
    <path clip-path="url(#pc51e9156f5)" d="M -134297.469594 230.50175 
L -134297.469594 265.06175 
L 68.930406 241.188069 
L 203.310196 219.007611 
L 281.917334 186.759703 
L 337.689986 160.586303 
L 380.950616 139.656719 
L 416.297124 156.990048 
L 446.182171 190.604739 
L 472.069776 183.397216 
L 494.904262 175.504784 
L 515.330406 165.072009 
L 515.330406 89.520229 
L 515.330406 89.520229 
L 494.904262 103.017831 
L 472.069776 109.337422 
L 446.182171 119.684303 
L 416.297124 104.929976 
L 380.950616 101.303965 
L 337.689986 124.346308 
L 281.917334 152.819461 
L 203.310196 182.354213 
L 68.930406 208.190136 
L -134297.469594 230.50175 
z
" style="fill:#00bfbf;stroke:#000000;"/>
   </g>
   <g id="PolyCollection_5">
    <path clip-path="url(#pc51e9156f5)" d="M -134297.469594 195.94175 
L -134297.469594 230.50175 
L 68.930406 208.190136 
L 203.310196 182.354213 
L 281.917334 152.819461 
L 337.689986 124.346308 
L 380.950616 101.303965 
L 416.297124 104.929976 
L 446.182171 119.684303 
L 472.069776 109.337422 
L 494.904262 103.017831 
L 515.330406 89.520229 
L 515.330406 58.491066 
L 515.330406 58.491066 
L 494.904262 66.388064 
L 472.069776 71.065219 
L 446.182171 79.589557 
L 416.297124 75.270735 
L 380.950616 75.828646 
L 337.689986 94.152803 
L 281.917334 121.826676 
L 203.310196 150.686885 
L 68.930406 174.623855 
L -134297.469594 195.94175 
z
" style="fill:#bf00bf;stroke:#000000;"/>
   </g>
   <g id="PolyCollection_6">
    <path clip-path="url(#pc51e9156f5)" d="M -134297.469594 161.38175 
L -134297.469594 195.94175 
L 68.930406 174.623855 
L 203.310196 150.686885 
L 281.917334 121.826676 
L 337.689986 94.152803 
L 380.950616 75.828646 
L 416.297124 75.270735 
L 446.182171 79.589557 
L 472.069776 71.065219 
L 494.904262 66.388064 
L 515.330406 58.491066 
L 515.330406 26.929306 
L 515.330406 26.929306 
L 494.904262 28.492763 
L 472.069776 29.899926 
L 446.182171 32.182299 
L 416.297124 34.225387 
L 380.950616 41.746246 
L 337.689986 58.445506 
L 281.917334 82.322646 
L 203.310196 111.278644 
L 68.930406 136.103035 
L -134297.469594 161.38175 
z
" style="fill:#bfbf00;stroke:#000000;"/>
   </g>
   <g id="PolyCollection_7">
    <path clip-path="url(#pc51e9156f5)" d="M -134297.469594 126.82175 
L -134297.469594 161.38175 
L 68.930406 136.103035 
L 203.310196 111.278644 
L 281.917334 82.322646 
L 337.689986 58.445506 
L 380.950616 41.746246 
L 416.297124 34.225387 
L 446.182171 32.182299 
L 472.069776 29.899926 
L 494.904262 28.492763 
L 515.330406 26.929306 
L 515.330406 25.253372 
L 515.330406 25.253372 
L 494.904262 26.152486 
L 472.069776 26.956763 
L 446.182171 28.220708 
L 416.297124 29.409375 
L 380.950616 33.85318 
L 337.689986 44.237897 
L 281.917334 61.247707 
L 203.310196 84.913767 
L 68.930406 108.283968 
L -134297.469594 126.82175 
z
" style="stroke:#000000;"/>
   </g>
   <g id="PolyCollection_8">
    <path clip-path="url(#pc51e9156f5)" d="M -134297.469594 92.26175 
L -134297.469594 126.82175 
L 68.930406 108.283968 
L 203.310196 84.913767 
L 281.917334 61.247707 
L 337.689986 44.237897 
L 380.950616 33.85318 
L 416.297124 29.409375 
L 446.182171 28.220708 
L 472.069776 26.956763 
L 494.904262 26.152486 
L 515.330406 25.253372 
L 515.330406 24.232057 
L 515.330406 24.232057 
L 494.904262 24.70076 
L 472.069776 25.104974 
L 446.182171 25.736123 
L 416.297124 26.306492 
L 380.950616 28.589968 
L 337.689986 34.498908 
L 281.917334 42.728635 
L 203.310196 55.308918 
L 68.930406 75.897712 
L -134297.469594 92.26175 
z
" style="fill:#0000ff;stroke:#000000;"/>
   </g>
   <g id="PolyCollection_9">
    <path clip-path="url(#pc51e9156f5)" d="M -134297.469594 57.70175 
L -134297.469594 92.26175 
L 68.930406 75.897712 
L 203.310196 55.308918 
L 281.917334 42.728635 
L 337.689986 34.498908 
L 380.950616 28.589968 
L 416.297124 26.306492 
L 446.182171 25.736123 
L 472.069776 25.104974 
L 494.904262 24.70076 
L 515.330406 24.232057 
L 515.330406 23.536257 
L 515.330406 23.536257 
L 494.904262 23.71699 
L 472.069776 23.844997 
L 446.182171 24.064159 
L 416.297124 24.210026 
L 380.950616 25.065867 
L 337.689986 27.329066 
L 281.917334 31.145064 
L 203.310196 36.864814 
L 68.930406 48.206806 
L -134297.469594 57.70175 
z
" style="fill:#008000;stroke:#000000;"/>
   </g>
   <g id="PolyCollection_10">
    <path clip-path="url(#pc51e9156f5)" d="M -134297.469594 23.14175 
L -134297.469594 57.70175 
L 68.930406 48.206806 
L 203.310196 36.864814 
L 281.917334 31.145064 
L 337.689986 27.329066 
L 380.950616 25.065867 
L 416.297124 24.210026 
L 446.182171 24.064159 
L 472.069776 23.844997 
L 494.904262 23.71699 
L 515.330406 23.536257 
L 515.330406 23.14175 
L 515.330406 23.14175 
L 494.904262 23.14175 
L 472.069776 23.14175 
L 446.182171 23.14175 
L 416.297124 23.14175 
L 380.950616 23.14175 
L 337.689986 23.14175 
L 281.917334 23.14175 
L 203.310196 23.14175 
L 68.930406 23.14175 
L -134297.469594 23.14175 
z
" style="fill:#ff0000;stroke:#000000;"/>
   </g>
   <g id="patch_3">
    <path d="M 68.930406 368.74175 
L 515.330406 368.74175 
" style="fill:none;stroke:#000000;stroke-linecap:square;stroke-linejoin:miter;"/>
   </g>
   <g id="patch_4">
    <path d="M 515.330406 368.74175 
L 515.330406 23.14175 
" style="fill:none;stroke:#000000;stroke-linecap:square;stroke-linejoin:miter;"/>
   </g>
   <g id="patch_5">
    <path d="M 68.930406 368.74175 
L 68.930406 23.14175 
" style="fill:none;stroke:#000000;stroke-linecap:square;stroke-linejoin:miter;"/>
   </g>
   <g id="patch_6">
    <path d="M 68.930406 23.14175 
L 515.330406 23.14175 
" style="fill:none;stroke:#000000;stroke-linecap:square;stroke-linejoin:miter;"/>
   </g>
   <g id="matplotlib.axis_1">
    <g id="xtick_1">
     <g id="line2d_1">
      <defs>
       <path d="M 0 0 
L 0 4 
" id="m0d3fe01e88" style="stroke:#000000;stroke-width:0.5;"/>
      </defs>
      <g>
       <use style="stroke:#000000;stroke-width:0.5;" x="68.93040625" xlink:href="#m0d3fe01e88" y="368.74175"/>
      </g>
     </g>
     <g id="line2d_2">
      <defs>
       <path d="M 0 0 
L 0 -4 
" id="m3a7f62ca30" style="stroke:#000000;stroke-width:0.5;"/>
      </defs>
      <g>
       <use style="stroke:#000000;stroke-width:0.5;" x="68.93040625" xlink:href="#m3a7f62ca30" y="23.14175"/>
      </g>
     </g>
     <g id="text_1">
      <!-- $\mathdefault{10^{0}}$ -->
      <defs>
       <path d="M 12.40625 8.296875 
L 28.515625 8.296875 
L 28.515625 63.921875 
L 10.984375 60.40625 
L 10.984375 69.390625 
L 28.421875 72.90625 
L 38.28125 72.90625 
L 38.28125 8.296875 
L 54.390625 8.296875 
L 54.390625 0 
L 12.40625 0 
z
" id="BitstreamVeraSans-Roman-31"/>
       <path d="M 31.78125 66.40625 
Q 24.171875 66.40625 20.328125 58.90625 
Q 16.5 51.421875 16.5 36.375 
Q 16.5 21.390625 20.328125 13.890625 
Q 24.171875 6.390625 31.78125 6.390625 
Q 39.453125 6.390625 43.28125 13.890625 
Q 47.125 21.390625 47.125 36.375 
Q 47.125 51.421875 43.28125 58.90625 
Q 39.453125 66.40625 31.78125 66.40625 
M 31.78125 74.21875 
Q 44.046875 74.21875 50.515625 64.515625 
Q 56.984375 54.828125 56.984375 36.375 
Q 56.984375 17.96875 50.515625 8.265625 
Q 44.046875 -1.421875 31.78125 -1.421875 
Q 19.53125 -1.421875 13.0625 8.265625 
Q 6.59375 17.96875 6.59375 36.375 
Q 6.59375 54.828125 13.0625 64.515625 
Q 19.53125 74.21875 31.78125 74.21875 
" id="BitstreamVeraSans-Roman-30"/>
      </defs>
      <g transform="translate(57.77040625 386.486125)scale(0.12 -0.12)">
       <use transform="translate(0.0 0.796875)" xlink:href="#BitstreamVeraSans-Roman-31"/>
       <use transform="translate(63.623046875 0.796875)" xlink:href="#BitstreamVeraSans-Roman-30"/>
       <use transform="translate(132.75859375 48.046875)scale(0.7)" xlink:href="#BitstreamVeraSans-Roman-30"/>
      </g>
     </g>
    </g>
    <g id="xtick_2">
     <g id="line2d_3">
      <g>
       <use style="stroke:#000000;stroke-width:0.5;" x="515.33040625" xlink:href="#m0d3fe01e88" y="368.74175"/>
      </g>
     </g>
     <g id="line2d_4">
      <g>
       <use style="stroke:#000000;stroke-width:0.5;" x="515.33040625" xlink:href="#m3a7f62ca30" y="23.14175"/>
      </g>
     </g>
     <g id="text_2">
      <!-- $\mathdefault{10^{1}}$ -->
      <g transform="translate(504.17040625 386.366125)scale(0.12 -0.12)">
       <use transform="translate(0.0 0.7156250000000028)" xlink:href="#BitstreamVeraSans-Roman-31"/>
       <use transform="translate(63.623046875 0.7156250000000028)" xlink:href="#BitstreamVeraSans-Roman-30"/>
       <use transform="translate(132.75859375 47.965625)scale(0.7)" xlink:href="#BitstreamVeraSans-Roman-31"/>
      </g>
     </g>
    </g>
    <g id="xtick_3">
     <g id="line2d_5">
      <defs>
       <path d="M 0 0 
L 0 -2 
" id="m1f2041517d" style="stroke:#000000;stroke-width:0.5;"/>
      </defs>
      <g>
       <use style="stroke:#000000;stroke-width:0.5;" x="203.310196314" xlink:href="#m1f2041517d" y="368.74175"/>
      </g>
     </g>
     <g id="line2d_6">
      <defs>
       <path d="M 0 0 
L 0 2 
" id="m59bafc7f34" style="stroke:#000000;stroke-width:0.5;"/>
      </defs>
      <g>
       <use style="stroke:#000000;stroke-width:0.5;" x="203.310196314" xlink:href="#m59bafc7f34" y="23.14175"/>
      </g>
     </g>
    </g>
    <g id="xtick_4">
     <g id="line2d_7">
      <g>
       <use style="stroke:#000000;stroke-width:0.5;" x="281.917334357" xlink:href="#m1f2041517d" y="368.74175"/>
      </g>
     </g>
     <g id="line2d_8">
      <g>
       <use style="stroke:#000000;stroke-width:0.5;" x="281.917334357" xlink:href="#m59bafc7f34" y="23.14175"/>
      </g>
     </g>
    </g>
    <g id="xtick_5">
     <g id="line2d_9">
      <g>
       <use style="stroke:#000000;stroke-width:0.5;" x="337.689986379" xlink:href="#m1f2041517d" y="368.74175"/>
      </g>
     </g>
     <g id="line2d_10">
      <g>
       <use style="stroke:#000000;stroke-width:0.5;" x="337.689986379" xlink:href="#m59bafc7f34" y="23.14175"/>
      </g>
     </g>
    </g>
    <g id="xtick_6">
     <g id="line2d_11">
      <g>
       <use style="stroke:#000000;stroke-width:0.5;" x="380.950616186" xlink:href="#m1f2041517d" y="368.74175"/>
      </g>
     </g>
     <g id="line2d_12">
      <g>
       <use style="stroke:#000000;stroke-width:0.5;" x="380.950616186" xlink:href="#m59bafc7f34" y="23.14175"/>
      </g>
     </g>
    </g>
    <g id="xtick_7">
     <g id="line2d_13">
      <g>
       <use style="stroke:#000000;stroke-width:0.5;" x="416.297124421" xlink:href="#m1f2041517d" y="368.74175"/>
      </g>
     </g>
     <g id="line2d_14">
      <g>
       <use style="stroke:#000000;stroke-width:0.5;" x="416.297124421" xlink:href="#m59bafc7f34" y="23.14175"/>
      </g>
     </g>
    </g>
    <g id="xtick_8">
     <g id="line2d_15">
      <g>
       <use style="stroke:#000000;stroke-width:0.5;" x="446.182171312" xlink:href="#m1f2041517d" y="368.74175"/>
      </g>
     </g>
     <g id="line2d_16">
      <g>
       <use style="stroke:#000000;stroke-width:0.5;" x="446.182171312" xlink:href="#m59bafc7f34" y="23.14175"/>
      </g>
     </g>
    </g>
    <g id="xtick_9">
     <g id="line2d_17">
      <g>
       <use style="stroke:#000000;stroke-width:0.5;" x="472.069776443" xlink:href="#m1f2041517d" y="368.74175"/>
      </g>
     </g>
     <g id="line2d_18">
      <g>
       <use style="stroke:#000000;stroke-width:0.5;" x="472.069776443" xlink:href="#m59bafc7f34" y="23.14175"/>
      </g>
     </g>
    </g>
    <g id="xtick_10">
     <g id="line2d_19">
      <g>
       <use style="stroke:#000000;stroke-width:0.5;" x="494.904262464" xlink:href="#m1f2041517d" y="368.74175"/>
      </g>
     </g>
     <g id="line2d_20">
      <g>
       <use style="stroke:#000000;stroke-width:0.5;" x="494.904262464" xlink:href="#m59bafc7f34" y="23.14175"/>
      </g>
     </g>
    </g>
    <g id="text_3">
     <!-- Turn -->
     <defs>
      <path d="M 41.109375 46.296875 
Q 39.59375 47.171875 37.8125 47.578125 
Q 36.03125 48 33.890625 48 
Q 26.265625 48 22.1875 43.046875 
Q 18.109375 38.09375 18.109375 28.8125 
L 18.109375 0 
L 9.078125 0 
L 9.078125 54.6875 
L 18.109375 54.6875 
L 18.109375 46.1875 
Q 20.953125 51.171875 25.484375 53.578125 
Q 30.03125 56 36.53125 56 
Q 37.453125 56 38.578125 55.875 
Q 39.703125 55.765625 41.0625 55.515625 
z
" id="BitstreamVeraSans-Roman-72"/>
      <path d="M 8.5 21.578125 
L 8.5 54.6875 
L 17.484375 54.6875 
L 17.484375 21.921875 
Q 17.484375 14.15625 20.5 10.265625 
Q 23.53125 6.390625 29.59375 6.390625 
Q 36.859375 6.390625 41.078125 11.03125 
Q 45.3125 15.671875 45.3125 23.6875 
L 45.3125 54.6875 
L 54.296875 54.6875 
L 54.296875 0 
L 45.3125 0 
L 45.3125 8.40625 
Q 42.046875 3.421875 37.71875 1 
Q 33.40625 -1.421875 27.6875 -1.421875 
Q 18.265625 -1.421875 13.375 4.4375 
Q 8.5 10.296875 8.5 21.578125 
" id="BitstreamVeraSans-Roman-75"/>
      <path d="M -0.296875 72.90625 
L 61.375 72.90625 
L 61.375 64.59375 
L 35.5 64.59375 
L 35.5 0 
L 25.59375 0 
L 25.59375 64.59375 
L -0.296875 64.59375 
z
" id="BitstreamVeraSans-Roman-54"/>
      <path d="M 54.890625 33.015625 
L 54.890625 0 
L 45.90625 0 
L 45.90625 32.71875 
Q 45.90625 40.484375 42.875 44.328125 
Q 39.84375 48.1875 33.796875 48.1875 
Q 26.515625 48.1875 22.3125 43.546875 
Q 18.109375 38.921875 18.109375 30.90625 
L 18.109375 0 
L 9.078125 0 
L 9.078125 54.6875 
L 18.109375 54.6875 
L 18.109375 46.1875 
Q 21.34375 51.125 25.703125 53.5625 
Q 30.078125 56 35.796875 56 
Q 45.21875 56 50.046875 50.171875 
Q 54.890625 44.34375 54.890625 33.015625 
" id="BitstreamVeraSans-Roman-6e"/>
     </defs>
     <g transform="translate(278.40915625 403.099875)scale(0.12 -0.12)">
      <use xlink:href="#BitstreamVeraSans-Roman-54"/>
      <use x="60.849609375" xlink:href="#BitstreamVeraSans-Roman-75"/>
      <use x="124.228515625" xlink:href="#BitstreamVeraSans-Roman-72"/>
      <use x="165.326171875" xlink:href="#BitstreamVeraSans-Roman-6e"/>
     </g>
    </g>
   </g>
   <g id="matplotlib.axis_2">
    <g id="ytick_1">
     <g id="line2d_21">
      <defs>
       <path d="M 0 0 
L -4 0 
" id="ma5b6f47324" style="stroke:#000000;stroke-width:0.5;"/>
      </defs>
      <g>
       <use style="stroke:#000000;stroke-width:0.5;" x="68.93040625" xlink:href="#ma5b6f47324" y="351.46175"/>
      </g>
     </g>
    </g>
    <g id="ytick_2">
     <g id="line2d_22">
      <g>
       <use style="stroke:#000000;stroke-width:0.5;" x="68.93040625" xlink:href="#ma5b6f47324" y="316.90175"/>
      </g>
     </g>
    </g>
    <g id="ytick_3">
     <g id="line2d_23">
      <g>
       <use style="stroke:#000000;stroke-width:0.5;" x="68.93040625" xlink:href="#ma5b6f47324" y="282.34175"/>
      </g>
     </g>
    </g>
    <g id="ytick_4">
     <g id="line2d_24">
      <g>
       <use style="stroke:#000000;stroke-width:0.5;" x="68.93040625" xlink:href="#ma5b6f47324" y="247.78175"/>
      </g>
     </g>
    </g>
    <g id="ytick_5">
     <g id="line2d_25">
      <g>
       <use style="stroke:#000000;stroke-width:0.5;" x="68.93040625" xlink:href="#ma5b6f47324" y="213.22175"/>
      </g>
     </g>
    </g>
    <g id="ytick_6">
     <g id="line2d_26">
      <g>
       <use style="stroke:#000000;stroke-width:0.5;" x="68.93040625" xlink:href="#ma5b6f47324" y="178.66175"/>
      </g>
     </g>
    </g>
    <g id="ytick_7">
     <g id="line2d_27">
      <g>
       <use style="stroke:#000000;stroke-width:0.5;" x="68.93040625" xlink:href="#ma5b6f47324" y="144.10175"/>
      </g>
     </g>
    </g>
    <g id="ytick_8">
     <g id="line2d_28">
      <g>
       <use style="stroke:#000000;stroke-width:0.5;" x="68.93040625" xlink:href="#ma5b6f47324" y="109.54175"/>
      </g>
     </g>
    </g>
    <g id="ytick_9">
     <g id="line2d_29">
      <g>
       <use style="stroke:#000000;stroke-width:0.5;" x="68.93040625" xlink:href="#ma5b6f47324" y="74.98175"/>
      </g>
     </g>
    </g>
    <g id="ytick_10">
     <g id="line2d_30">
      <g>
       <use style="stroke:#000000;stroke-width:0.5;" x="68.93040625" xlink:href="#ma5b6f47324" y="40.42175"/>
      </g>
     </g>
    </g>
    <g id="text_4">
     <!-- Relative population size -->
     <defs>
      <path id="BitstreamVeraSans-Roman-20"/>
      <path d="M 34.28125 27.484375 
Q 23.390625 27.484375 19.1875 25 
Q 14.984375 22.515625 14.984375 16.5 
Q 14.984375 11.71875 18.140625 8.90625 
Q 21.296875 6.109375 26.703125 6.109375 
Q 34.1875 6.109375 38.703125 11.40625 
Q 43.21875 16.703125 43.21875 25.484375 
L 43.21875 27.484375 
z
M 52.203125 31.203125 
L 52.203125 0 
L 43.21875 0 
L 43.21875 8.296875 
Q 40.140625 3.328125 35.546875 0.953125 
Q 30.953125 -1.421875 24.3125 -1.421875 
Q 15.921875 -1.421875 10.953125 3.296875 
Q 6 8.015625 6 15.921875 
Q 6 25.140625 12.171875 29.828125 
Q 18.359375 34.515625 30.609375 34.515625 
L 43.21875 34.515625 
L 43.21875 35.40625 
Q 43.21875 41.609375 39.140625 45 
Q 35.0625 48.390625 27.6875 48.390625 
Q 23 48.390625 18.546875 47.265625 
Q 14.109375 46.140625 10.015625 43.890625 
L 10.015625 52.203125 
Q 14.9375 54.109375 19.578125 55.046875 
Q 24.21875 56 28.609375 56 
Q 40.484375 56 46.34375 49.84375 
Q 52.203125 43.703125 52.203125 31.203125 
" id="BitstreamVeraSans-Roman-61"/>
      <path d="M 18.3125 70.21875 
L 18.3125 54.6875 
L 36.8125 54.6875 
L 36.8125 47.703125 
L 18.3125 47.703125 
L 18.3125 18.015625 
Q 18.3125 11.328125 20.140625 9.421875 
Q 21.96875 7.515625 27.59375 7.515625 
L 36.8125 7.515625 
L 36.8125 0 
L 27.59375 0 
Q 17.1875 0 13.234375 3.875 
Q 9.28125 7.765625 9.28125 18.015625 
L 9.28125 47.703125 
L 2.6875 47.703125 
L 2.6875 54.6875 
L 9.28125 54.6875 
L 9.28125 70.21875 
z
" id="BitstreamVeraSans-Roman-74"/>
      <path d="M 2.984375 54.6875 
L 12.5 54.6875 
L 29.59375 8.796875 
L 46.6875 54.6875 
L 56.203125 54.6875 
L 35.6875 0 
L 23.484375 0 
z
" id="BitstreamVeraSans-Roman-76"/>
      <path d="M 44.28125 53.078125 
L 44.28125 44.578125 
Q 40.484375 46.53125 36.375 47.5 
Q 32.28125 48.484375 27.875 48.484375 
Q 21.1875 48.484375 17.84375 46.4375 
Q 14.5 44.390625 14.5 40.28125 
Q 14.5 37.15625 16.890625 35.375 
Q 19.28125 33.59375 26.515625 31.984375 
L 29.59375 31.296875 
Q 39.15625 29.25 43.1875 25.515625 
Q 47.21875 21.78125 47.21875 15.09375 
Q 47.21875 7.46875 41.1875 3.015625 
Q 35.15625 -1.421875 24.609375 -1.421875 
Q 20.21875 -1.421875 15.453125 -0.5625 
Q 10.6875 0.296875 5.421875 2 
L 5.421875 11.28125 
Q 10.40625 8.6875 15.234375 7.390625 
Q 20.0625 6.109375 24.8125 6.109375 
Q 31.15625 6.109375 34.5625 8.28125 
Q 37.984375 10.453125 37.984375 14.40625 
Q 37.984375 18.0625 35.515625 20.015625 
Q 33.0625 21.96875 24.703125 23.78125 
L 21.578125 24.515625 
Q 13.234375 26.265625 9.515625 29.90625 
Q 5.8125 33.546875 5.8125 39.890625 
Q 5.8125 47.609375 11.28125 51.796875 
Q 16.75 56 26.8125 56 
Q 31.78125 56 36.171875 55.265625 
Q 40.578125 54.546875 44.28125 53.078125 
" id="BitstreamVeraSans-Roman-73"/>
      <path d="M 18.109375 8.203125 
L 18.109375 -20.796875 
L 9.078125 -20.796875 
L 9.078125 54.6875 
L 18.109375 54.6875 
L 18.109375 46.390625 
Q 20.953125 51.265625 25.265625 53.625 
Q 29.59375 56 35.59375 56 
Q 45.5625 56 51.78125 48.09375 
Q 58.015625 40.1875 58.015625 27.296875 
Q 58.015625 14.40625 51.78125 6.484375 
Q 45.5625 -1.421875 35.59375 -1.421875 
Q 29.59375 -1.421875 25.265625 0.953125 
Q 20.953125 3.328125 18.109375 8.203125 
M 48.6875 27.296875 
Q 48.6875 37.203125 44.609375 42.84375 
Q 40.53125 48.484375 33.40625 48.484375 
Q 26.265625 48.484375 22.1875 42.84375 
Q 18.109375 37.203125 18.109375 27.296875 
Q 18.109375 17.390625 22.1875 11.75 
Q 26.265625 6.109375 33.40625 6.109375 
Q 40.53125 6.109375 44.609375 11.75 
Q 48.6875 17.390625 48.6875 27.296875 
" id="BitstreamVeraSans-Roman-70"/>
      <path d="M 9.421875 54.6875 
L 18.40625 54.6875 
L 18.40625 0 
L 9.421875 0 
z
M 9.421875 75.984375 
L 18.40625 75.984375 
L 18.40625 64.59375 
L 9.421875 64.59375 
z
" id="BitstreamVeraSans-Roman-69"/>
      <path d="M 9.421875 75.984375 
L 18.40625 75.984375 
L 18.40625 0 
L 9.421875 0 
z
" id="BitstreamVeraSans-Roman-6c"/>
      <path d="M 44.390625 34.1875 
Q 47.5625 33.109375 50.5625 29.59375 
Q 53.5625 26.078125 56.59375 19.921875 
L 66.609375 0 
L 56 0 
L 46.6875 18.703125 
Q 43.0625 26.03125 39.671875 28.421875 
Q 36.28125 30.8125 30.421875 30.8125 
L 19.671875 30.8125 
L 19.671875 0 
L 9.8125 0 
L 9.8125 72.90625 
L 32.078125 72.90625 
Q 44.578125 72.90625 50.734375 67.671875 
Q 56.890625 62.453125 56.890625 51.90625 
Q 56.890625 45.015625 53.6875 40.46875 
Q 50.484375 35.9375 44.390625 34.1875 
M 19.671875 64.796875 
L 19.671875 38.921875 
L 32.078125 38.921875 
Q 39.203125 38.921875 42.84375 42.21875 
Q 46.484375 45.515625 46.484375 51.90625 
Q 46.484375 58.296875 42.84375 61.546875 
Q 39.203125 64.796875 32.078125 64.796875 
z
" id="BitstreamVeraSans-Roman-52"/>
      <path d="M 30.609375 48.390625 
Q 23.390625 48.390625 19.1875 42.75 
Q 14.984375 37.109375 14.984375 27.296875 
Q 14.984375 17.484375 19.15625 11.84375 
Q 23.34375 6.203125 30.609375 6.203125 
Q 37.796875 6.203125 41.984375 11.859375 
Q 46.1875 17.53125 46.1875 27.296875 
Q 46.1875 37.015625 41.984375 42.703125 
Q 37.796875 48.390625 30.609375 48.390625 
M 30.609375 56 
Q 42.328125 56 49.015625 48.375 
Q 55.71875 40.765625 55.71875 27.296875 
Q 55.71875 13.875 49.015625 6.21875 
Q 42.328125 -1.421875 30.609375 -1.421875 
Q 18.84375 -1.421875 12.171875 6.21875 
Q 5.515625 13.875 5.515625 27.296875 
Q 5.515625 40.765625 12.171875 48.375 
Q 18.84375 56 30.609375 56 
" id="BitstreamVeraSans-Roman-6f"/>
      <path d="M 56.203125 29.59375 
L 56.203125 25.203125 
L 14.890625 25.203125 
Q 15.484375 15.921875 20.484375 11.0625 
Q 25.484375 6.203125 34.421875 6.203125 
Q 39.59375 6.203125 44.453125 7.46875 
Q 49.3125 8.734375 54.109375 11.28125 
L 54.109375 2.78125 
Q 49.265625 0.734375 44.1875 -0.34375 
Q 39.109375 -1.421875 33.890625 -1.421875 
Q 20.796875 -1.421875 13.15625 6.1875 
Q 5.515625 13.8125 5.515625 26.8125 
Q 5.515625 40.234375 12.765625 48.109375 
Q 20.015625 56 32.328125 56 
Q 43.359375 56 49.78125 48.890625 
Q 56.203125 41.796875 56.203125 29.59375 
M 47.21875 32.234375 
Q 47.125 39.59375 43.09375 43.984375 
Q 39.0625 48.390625 32.421875 48.390625 
Q 24.90625 48.390625 20.390625 44.140625 
Q 15.875 39.890625 15.1875 32.171875 
z
" id="BitstreamVeraSans-Roman-65"/>
      <path d="M 5.515625 54.6875 
L 48.1875 54.6875 
L 48.1875 46.484375 
L 14.40625 7.171875 
L 48.1875 7.171875 
L 48.1875 0 
L 4.296875 0 
L 4.296875 8.203125 
L 38.09375 47.515625 
L 5.515625 47.515625 
z
" id="BitstreamVeraSans-Roman-7a"/>
     </defs>
     <g transform="translate(549.44853125 267.7805)rotate(-90.0)scale(0.12 -0.12)">
      <use xlink:href="#BitstreamVeraSans-Roman-52"/>
      <use x="69.419921875" xlink:href="#BitstreamVeraSans-Roman-65"/>
      <use x="130.943359375" xlink:href="#BitstreamVeraSans-Roman-6c"/>
      <use x="158.7265625" xlink:href="#BitstreamVeraSans-Roman-61"/>
      <use x="220.005859375" xlink:href="#BitstreamVeraSans-Roman-74"/>
      <use x="259.21484375" xlink:href="#BitstreamVeraSans-Roman-69"/>
      <use x="286.998046875" xlink:href="#BitstreamVeraSans-Roman-76"/>
      <use x="346.177734375" xlink:href="#BitstreamVeraSans-Roman-65"/>
      <use x="407.701171875" xlink:href="#BitstreamVeraSans-Roman-20"/>
      <use x="439.48828125" xlink:href="#BitstreamVeraSans-Roman-70"/>
      <use x="502.96484375" xlink:href="#BitstreamVeraSans-Roman-6f"/>
      <use x="564.146484375" xlink:href="#BitstreamVeraSans-Roman-70"/>
      <use x="627.623046875" xlink:href="#BitstreamVeraSans-Roman-75"/>
      <use x="691.001953125" xlink:href="#BitstreamVeraSans-Roman-6c"/>
      <use x="718.78515625" xlink:href="#BitstreamVeraSans-Roman-61"/>
      <use x="780.064453125" xlink:href="#BitstreamVeraSans-Roman-74"/>
      <use x="819.2734375" xlink:href="#BitstreamVeraSans-Roman-69"/>
      <use x="847.056640625" xlink:href="#BitstreamVeraSans-Roman-6f"/>
      <use x="908.23828125" xlink:href="#BitstreamVeraSans-Roman-6e"/>
      <use x="971.6171875" xlink:href="#BitstreamVeraSans-Roman-20"/>
      <use x="1003.404296875" xlink:href="#BitstreamVeraSans-Roman-73"/>
      <use x="1055.50390625" xlink:href="#BitstreamVeraSans-Roman-69"/>
      <use x="1083.287109375" xlink:href="#BitstreamVeraSans-Roman-7a"/>
      <use x="1135.77734375" xlink:href="#BitstreamVeraSans-Roman-65"/>
     </g>
    </g>
   </g>
   <g id="text_5">
    <!-- Mind Bender -->
    <defs>
     <path d="M 9.8125 72.90625 
L 24.515625 72.90625 
L 43.109375 23.296875 
L 61.8125 72.90625 
L 76.515625 72.90625 
L 76.515625 0 
L 66.890625 0 
L 66.890625 64.015625 
L 48.09375 14.015625 
L 38.1875 14.015625 
L 19.390625 64.015625 
L 19.390625 0 
L 9.8125 0 
z
" id="BitstreamVeraSans-Roman-4d"/>
     <path d="M 45.40625 46.390625 
L 45.40625 75.984375 
L 54.390625 75.984375 
L 54.390625 0 
L 45.40625 0 
L 45.40625 8.203125 
Q 42.578125 3.328125 38.25 0.953125 
Q 33.9375 -1.421875 27.875 -1.421875 
Q 17.96875 -1.421875 11.734375 6.484375 
Q 5.515625 14.40625 5.515625 27.296875 
Q 5.515625 40.1875 11.734375 48.09375 
Q 17.96875 56 27.875 56 
Q 33.9375 56 38.25 53.625 
Q 42.578125 51.265625 45.40625 46.390625 
M 14.796875 27.296875 
Q 14.796875 17.390625 18.875 11.75 
Q 22.953125 6.109375 30.078125 6.109375 
Q 37.203125 6.109375 41.296875 11.75 
Q 45.40625 17.390625 45.40625 27.296875 
Q 45.40625 37.203125 41.296875 42.84375 
Q 37.203125 48.484375 30.078125 48.484375 
Q 22.953125 48.484375 18.875 42.84375 
Q 14.796875 37.203125 14.796875 27.296875 
" id="BitstreamVeraSans-Roman-64"/>
     <path d="M 19.671875 34.8125 
L 19.671875 8.109375 
L 35.5 8.109375 
Q 43.453125 8.109375 47.28125 11.40625 
Q 51.125 14.703125 51.125 21.484375 
Q 51.125 28.328125 47.28125 31.5625 
Q 43.453125 34.8125 35.5 34.8125 
z
M 19.671875 64.796875 
L 19.671875 42.828125 
L 34.28125 42.828125 
Q 41.5 42.828125 45.03125 45.53125 
Q 48.578125 48.25 48.578125 53.8125 
Q 48.578125 59.328125 45.03125 62.0625 
Q 41.5 64.796875 34.28125 64.796875 
z
M 9.8125 72.90625 
L 35.015625 72.90625 
Q 46.296875 72.90625 52.390625 68.21875 
Q 58.5 63.53125 58.5 54.890625 
Q 58.5 48.1875 55.375 44.234375 
Q 52.25 40.28125 46.1875 39.3125 
Q 53.46875 37.75 57.5 32.78125 
Q 61.53125 27.828125 61.53125 20.40625 
Q 61.53125 10.640625 54.890625 5.3125 
Q 48.25 0 35.984375 0 
L 9.8125 0 
z
" id="BitstreamVeraSans-Roman-42"/>
    </defs>
    <g transform="translate(32.84921875 352.8414375)scale(0.05 -0.05)">
     <use xlink:href="#BitstreamVeraSans-Roman-4d"/>
     <use x="86.279296875" xlink:href="#BitstreamVeraSans-Roman-69"/>
     <use x="114.0625" xlink:href="#BitstreamVeraSans-Roman-6e"/>
     <use x="177.44140625" xlink:href="#BitstreamVeraSans-Roman-64"/>
     <use x="240.91796875" xlink:href="#BitstreamVeraSans-Roman-20"/>
     <use x="272.705078125" xlink:href="#BitstreamVeraSans-Roman-42"/>
     <use x="341.30859375" xlink:href="#BitstreamVeraSans-Roman-65"/>
     <use x="402.83203125" xlink:href="#BitstreamVeraSans-Roman-6e"/>
     <use x="466.2109375" xlink:href="#BitstreamVeraSans-Roman-64"/>
     <use x="529.6875" xlink:href="#BitstreamVeraSans-Roman-65"/>
     <use x="591.2109375" xlink:href="#BitstreamVeraSans-Roman-72"/>
    </g>
   </g>
   <g id="text_6">
    <!-- Mind Controller -->
    <defs>
     <path d="M 64.40625 67.28125 
L 64.40625 56.890625 
Q 59.421875 61.53125 53.78125 63.8125 
Q 48.140625 66.109375 41.796875 66.109375 
Q 29.296875 66.109375 22.65625 58.46875 
Q 16.015625 50.828125 16.015625 36.375 
Q 16.015625 21.96875 22.65625 14.328125 
Q 29.296875 6.6875 41.796875 6.6875 
Q 48.140625 6.6875 53.78125 8.984375 
Q 59.421875 11.28125 64.40625 15.921875 
L 64.40625 5.609375 
Q 59.234375 2.09375 53.4375 0.328125 
Q 47.65625 -1.421875 41.21875 -1.421875 
Q 24.65625 -1.421875 15.125 8.703125 
Q 5.609375 18.84375 5.609375 36.375 
Q 5.609375 53.953125 15.125 64.078125 
Q 24.65625 74.21875 41.21875 74.21875 
Q 47.75 74.21875 53.53125 72.484375 
Q 59.328125 70.75 64.40625 67.28125 
" id="BitstreamVeraSans-Roman-43"/>
    </defs>
    <g transform="translate(26.128125 318.2814375)scale(0.05 -0.05)">
     <use xlink:href="#BitstreamVeraSans-Roman-4d"/>
     <use x="86.279296875" xlink:href="#BitstreamVeraSans-Roman-69"/>
     <use x="114.0625" xlink:href="#BitstreamVeraSans-Roman-6e"/>
     <use x="177.44140625" xlink:href="#BitstreamVeraSans-Roman-64"/>
     <use x="240.91796875" xlink:href="#BitstreamVeraSans-Roman-20"/>
     <use x="272.705078125" xlink:href="#BitstreamVeraSans-Roman-43"/>
     <use x="342.529296875" xlink:href="#BitstreamVeraSans-Roman-6f"/>
     <use x="403.7109375" xlink:href="#BitstreamVeraSans-Roman-6e"/>
     <use x="467.08984375" xlink:href="#BitstreamVeraSans-Roman-74"/>
     <use x="506.298828125" xlink:href="#BitstreamVeraSans-Roman-72"/>
     <use x="547.380859375" xlink:href="#BitstreamVeraSans-Roman-6f"/>
     <use x="608.5625" xlink:href="#BitstreamVeraSans-Roman-6c"/>
     <use x="636.345703125" xlink:href="#BitstreamVeraSans-Roman-6c"/>
     <use x="664.12890625" xlink:href="#BitstreamVeraSans-Roman-65"/>
     <use x="725.65234375" xlink:href="#BitstreamVeraSans-Roman-72"/>
    </g>
   </g>
   <g id="text_7">
    <!-- Darwin -->
    <defs>
     <path d="M 19.671875 64.796875 
L 19.671875 8.109375 
L 31.59375 8.109375 
Q 46.6875 8.109375 53.6875 14.9375 
Q 60.6875 21.78125 60.6875 36.53125 
Q 60.6875 51.171875 53.6875 57.984375 
Q 46.6875 64.796875 31.59375 64.796875 
z
M 9.8125 72.90625 
L 30.078125 72.90625 
Q 51.265625 72.90625 61.171875 64.09375 
Q 71.09375 55.28125 71.09375 36.53125 
Q 71.09375 17.671875 61.125 8.828125 
Q 51.171875 0 30.078125 0 
L 9.8125 0 
z
" id="BitstreamVeraSans-Roman-44"/>
     <path d="M 4.203125 54.6875 
L 13.1875 54.6875 
L 24.421875 12.015625 
L 35.59375 54.6875 
L 46.1875 54.6875 
L 57.421875 12.015625 
L 68.609375 54.6875 
L 77.59375 54.6875 
L 63.28125 0 
L 52.6875 0 
L 40.921875 44.828125 
L 29.109375 0 
L 18.5 0 
z
" id="BitstreamVeraSans-Roman-77"/>
    </defs>
    <g transform="translate(46.85 283.7214375)scale(0.05 -0.05)">
     <use xlink:href="#BitstreamVeraSans-Roman-44"/>
     <use x="77.001953125" xlink:href="#BitstreamVeraSans-Roman-61"/>
     <use x="138.28125" xlink:href="#BitstreamVeraSans-Roman-72"/>
     <use x="179.39453125" xlink:href="#BitstreamVeraSans-Roman-77"/>
     <use x="261.181640625" xlink:href="#BitstreamVeraSans-Roman-69"/>
     <use x="288.96484375" xlink:href="#BitstreamVeraSans-Roman-6e"/>
    </g>
   </g>
   <g id="text_8">
    <!-- Geller Cooperator -->
    <defs>
     <path d="M 59.515625 10.40625 
L 59.515625 29.984375 
L 43.40625 29.984375 
L 43.40625 38.09375 
L 69.28125 38.09375 
L 69.28125 6.78125 
Q 63.578125 2.734375 56.6875 0.65625 
Q 49.8125 -1.421875 42 -1.421875 
Q 24.90625 -1.421875 15.25 8.5625 
Q 5.609375 18.5625 5.609375 36.375 
Q 5.609375 54.25 15.25 64.234375 
Q 24.90625 74.21875 42 74.21875 
Q 49.125 74.21875 55.546875 72.453125 
Q 61.96875 70.703125 67.390625 67.28125 
L 67.390625 56.78125 
Q 61.921875 61.421875 55.765625 63.765625 
Q 49.609375 66.109375 42.828125 66.109375 
Q 29.4375 66.109375 22.71875 58.640625 
Q 16.015625 51.171875 16.015625 36.375 
Q 16.015625 21.625 22.71875 14.15625 
Q 29.4375 6.6875 42.828125 6.6875 
Q 48.046875 6.6875 52.140625 7.59375 
Q 56.25 8.5 59.515625 10.40625 
" id="BitstreamVeraSans-Roman-47"/>
    </defs>
    <g transform="translate(19.9609375 249.1614375)scale(0.05 -0.05)">
     <use xlink:href="#BitstreamVeraSans-Roman-47"/>
     <use x="77.490234375" xlink:href="#BitstreamVeraSans-Roman-65"/>
     <use x="139.013671875" xlink:href="#BitstreamVeraSans-Roman-6c"/>
     <use x="166.796875" xlink:href="#BitstreamVeraSans-Roman-6c"/>
     <use x="194.580078125" xlink:href="#BitstreamVeraSans-Roman-65"/>
     <use x="256.103515625" xlink:href="#BitstreamVeraSans-Roman-72"/>
     <use x="297.216796875" xlink:href="#BitstreamVeraSans-Roman-20"/>
     <use x="329.00390625" xlink:href="#BitstreamVeraSans-Roman-43"/>
     <use x="398.828125" xlink:href="#BitstreamVeraSans-Roman-6f"/>
     <use x="460.009765625" xlink:href="#BitstreamVeraSans-Roman-6f"/>
     <use x="521.19140625" xlink:href="#BitstreamVeraSans-Roman-70"/>
     <use x="584.66796875" xlink:href="#BitstreamVeraSans-Roman-65"/>
     <use x="646.19140625" xlink:href="#BitstreamVeraSans-Roman-72"/>
     <use x="687.3046875" xlink:href="#BitstreamVeraSans-Roman-61"/>
     <use x="748.583984375" xlink:href="#BitstreamVeraSans-Roman-74"/>
     <use x="787.79296875" xlink:href="#BitstreamVeraSans-Roman-6f"/>
     <use x="848.974609375" xlink:href="#BitstreamVeraSans-Roman-72"/>
    </g>
   </g>
   <g id="text_9">
    <!-- Geller Defector -->
    <defs>
     <path d="M 48.78125 52.59375 
L 48.78125 44.1875 
Q 44.96875 46.296875 41.140625 47.34375 
Q 37.3125 48.390625 33.40625 48.390625 
Q 24.65625 48.390625 19.8125 42.84375 
Q 14.984375 37.3125 14.984375 27.296875 
Q 14.984375 17.28125 19.8125 11.734375 
Q 24.65625 6.203125 33.40625 6.203125 
Q 37.3125 6.203125 41.140625 7.25 
Q 44.96875 8.296875 48.78125 10.40625 
L 48.78125 2.09375 
Q 45.015625 0.34375 40.984375 -0.53125 
Q 36.96875 -1.421875 32.421875 -1.421875 
Q 20.0625 -1.421875 12.78125 6.34375 
Q 5.515625 14.109375 5.515625 27.296875 
Q 5.515625 40.671875 12.859375 48.328125 
Q 20.21875 56 33.015625 56 
Q 37.15625 56 41.109375 55.140625 
Q 45.0625 54.296875 48.78125 52.59375 
" id="BitstreamVeraSans-Roman-63"/>
     <path d="M 37.109375 75.984375 
L 37.109375 68.5 
L 28.515625 68.5 
Q 23.6875 68.5 21.796875 66.546875 
Q 19.921875 64.59375 19.921875 59.515625 
L 19.921875 54.6875 
L 34.71875 54.6875 
L 34.71875 47.703125 
L 19.921875 47.703125 
L 19.921875 0 
L 10.890625 0 
L 10.890625 47.703125 
L 2.296875 47.703125 
L 2.296875 54.6875 
L 10.890625 54.6875 
L 10.890625 58.5 
Q 10.890625 67.625 15.140625 71.796875 
Q 19.390625 75.984375 28.609375 75.984375 
z
" id="BitstreamVeraSans-Roman-66"/>
    </defs>
    <g transform="translate(26.42890625 214.6014375)scale(0.05 -0.05)">
     <use xlink:href="#BitstreamVeraSans-Roman-47"/>
     <use x="77.490234375" xlink:href="#BitstreamVeraSans-Roman-65"/>
     <use x="139.013671875" xlink:href="#BitstreamVeraSans-Roman-6c"/>
     <use x="166.796875" xlink:href="#BitstreamVeraSans-Roman-6c"/>
     <use x="194.580078125" xlink:href="#BitstreamVeraSans-Roman-65"/>
     <use x="256.103515625" xlink:href="#BitstreamVeraSans-Roman-72"/>
     <use x="297.216796875" xlink:href="#BitstreamVeraSans-Roman-20"/>
     <use x="329.00390625" xlink:href="#BitstreamVeraSans-Roman-44"/>
     <use x="406.005859375" xlink:href="#BitstreamVeraSans-Roman-65"/>
     <use x="467.529296875" xlink:href="#BitstreamVeraSans-Roman-66"/>
     <use x="502.734375" xlink:href="#BitstreamVeraSans-Roman-65"/>
     <use x="564.2578125" xlink:href="#BitstreamVeraSans-Roman-63"/>
     <use x="619.23828125" xlink:href="#BitstreamVeraSans-Roman-74"/>
     <use x="658.447265625" xlink:href="#BitstreamVeraSans-Roman-6f"/>
     <use x="719.62890625" xlink:href="#BitstreamVeraSans-Roman-72"/>
    </g>
   </g>
   <g id="text_10">
    <!-- Geller -->
    <g transform="translate(49.60546875 180.0414375)scale(0.05 -0.05)">
     <use xlink:href="#BitstreamVeraSans-Roman-47"/>
     <use x="77.490234375" xlink:href="#BitstreamVeraSans-Roman-65"/>
     <use x="139.013671875" xlink:href="#BitstreamVeraSans-Roman-6c"/>
     <use x="166.796875" xlink:href="#BitstreamVeraSans-Roman-6c"/>
     <use x="194.580078125" xlink:href="#BitstreamVeraSans-Roman-65"/>
     <use x="256.103515625" xlink:href="#BitstreamVeraSans-Roman-72"/>
    </g>
   </g>
   <g id="text_11">
    <!-- Mind Reader -->
    <g transform="translate(32.91328125 145.4814375)scale(0.05 -0.05)">
     <use xlink:href="#BitstreamVeraSans-Roman-4d"/>
     <use x="86.279296875" xlink:href="#BitstreamVeraSans-Roman-69"/>
     <use x="114.0625" xlink:href="#BitstreamVeraSans-Roman-6e"/>
     <use x="177.44140625" xlink:href="#BitstreamVeraSans-Roman-64"/>
     <use x="240.91796875" xlink:href="#BitstreamVeraSans-Roman-20"/>
     <use x="272.705078125" xlink:href="#BitstreamVeraSans-Roman-52"/>
     <use x="342.125" xlink:href="#BitstreamVeraSans-Roman-65"/>
     <use x="403.6484375" xlink:href="#BitstreamVeraSans-Roman-61"/>
     <use x="464.927734375" xlink:href="#BitstreamVeraSans-Roman-64"/>
     <use x="528.404296875" xlink:href="#BitstreamVeraSans-Roman-65"/>
     <use x="589.927734375" xlink:href="#BitstreamVeraSans-Roman-72"/>
    </g>
   </g>
   <g id="text_12">
    <!-- Mind Warper -->
    <defs>
     <path d="M 3.328125 72.90625 
L 13.28125 72.90625 
L 28.609375 11.28125 
L 43.890625 72.90625 
L 54.984375 72.90625 
L 70.3125 11.28125 
L 85.59375 72.90625 
L 95.609375 72.90625 
L 77.296875 0 
L 64.890625 0 
L 49.515625 63.28125 
L 33.984375 0 
L 21.578125 0 
z
" id="BitstreamVeraSans-Roman-57"/>
    </defs>
    <g transform="translate(32.46640625 110.9214375)scale(0.05 -0.05)">
     <use xlink:href="#BitstreamVeraSans-Roman-4d"/>
     <use x="86.279296875" xlink:href="#BitstreamVeraSans-Roman-69"/>
     <use x="114.0625" xlink:href="#BitstreamVeraSans-Roman-6e"/>
     <use x="177.44140625" xlink:href="#BitstreamVeraSans-Roman-64"/>
     <use x="240.91796875" xlink:href="#BitstreamVeraSans-Roman-20"/>
     <use x="272.705078125" xlink:href="#BitstreamVeraSans-Roman-57"/>
     <use x="371.48828125" xlink:href="#BitstreamVeraSans-Roman-61"/>
     <use x="432.767578125" xlink:href="#BitstreamVeraSans-Roman-72"/>
     <use x="473.880859375" xlink:href="#BitstreamVeraSans-Roman-70"/>
     <use x="537.357421875" xlink:href="#BitstreamVeraSans-Roman-65"/>
     <use x="598.880859375" xlink:href="#BitstreamVeraSans-Roman-72"/>
    </g>
   </g>
   <g id="text_13">
    <!-- Mirror Mind Reader -->
    <g transform="translate(16.39765625 76.3614375)scale(0.05 -0.05)">
     <use xlink:href="#BitstreamVeraSans-Roman-4d"/>
     <use x="86.279296875" xlink:href="#BitstreamVeraSans-Roman-69"/>
     <use x="114.0625" xlink:href="#BitstreamVeraSans-Roman-72"/>
     <use x="155.16015625" xlink:href="#BitstreamVeraSans-Roman-72"/>
     <use x="196.2421875" xlink:href="#BitstreamVeraSans-Roman-6f"/>
     <use x="257.423828125" xlink:href="#BitstreamVeraSans-Roman-72"/>
     <use x="298.537109375" xlink:href="#BitstreamVeraSans-Roman-20"/>
     <use x="330.32421875" xlink:href="#BitstreamVeraSans-Roman-4d"/>
     <use x="416.603515625" xlink:href="#BitstreamVeraSans-Roman-69"/>
     <use x="444.38671875" xlink:href="#BitstreamVeraSans-Roman-6e"/>
     <use x="507.765625" xlink:href="#BitstreamVeraSans-Roman-64"/>
     <use x="571.2421875" xlink:href="#BitstreamVeraSans-Roman-20"/>
     <use x="603.029296875" xlink:href="#BitstreamVeraSans-Roman-52"/>
     <use x="672.44921875" xlink:href="#BitstreamVeraSans-Roman-65"/>
     <use x="733.97265625" xlink:href="#BitstreamVeraSans-Roman-61"/>
     <use x="795.251953125" xlink:href="#BitstreamVeraSans-Roman-64"/>
     <use x="858.728515625" xlink:href="#BitstreamVeraSans-Roman-65"/>
     <use x="920.251953125" xlink:href="#BitstreamVeraSans-Roman-72"/>
    </g>
   </g>
   <g id="text_14">
    <!-- Protected Mind Reader -->
    <defs>
     <path d="M 19.671875 64.796875 
L 19.671875 37.40625 
L 32.078125 37.40625 
Q 38.96875 37.40625 42.71875 40.96875 
Q 46.484375 44.53125 46.484375 51.125 
Q 46.484375 57.671875 42.71875 61.234375 
Q 38.96875 64.796875 32.078125 64.796875 
z
M 9.8125 72.90625 
L 32.078125 72.90625 
Q 44.34375 72.90625 50.609375 67.359375 
Q 56.890625 61.8125 56.890625 51.125 
Q 56.890625 40.328125 50.609375 34.8125 
Q 44.34375 29.296875 32.078125 29.296875 
L 19.671875 29.296875 
L 19.671875 0 
L 9.8125 0 
z
" id="BitstreamVeraSans-Roman-50"/>
    </defs>
    <g transform="translate(7.2 41.8014375)scale(0.05 -0.05)">
     <use xlink:href="#BitstreamVeraSans-Roman-50"/>
     <use x="60.287109375" xlink:href="#BitstreamVeraSans-Roman-72"/>
     <use x="101.369140625" xlink:href="#BitstreamVeraSans-Roman-6f"/>
     <use x="162.55078125" xlink:href="#BitstreamVeraSans-Roman-74"/>
     <use x="201.759765625" xlink:href="#BitstreamVeraSans-Roman-65"/>
     <use x="263.283203125" xlink:href="#BitstreamVeraSans-Roman-63"/>
     <use x="318.263671875" xlink:href="#BitstreamVeraSans-Roman-74"/>
     <use x="357.47265625" xlink:href="#BitstreamVeraSans-Roman-65"/>
     <use x="418.99609375" xlink:href="#BitstreamVeraSans-Roman-64"/>
     <use x="482.47265625" xlink:href="#BitstreamVeraSans-Roman-20"/>
     <use x="514.259765625" xlink:href="#BitstreamVeraSans-Roman-4d"/>
     <use x="600.5390625" xlink:href="#BitstreamVeraSans-Roman-69"/>
     <use x="628.322265625" xlink:href="#BitstreamVeraSans-Roman-6e"/>
     <use x="691.701171875" xlink:href="#BitstreamVeraSans-Roman-64"/>
     <use x="755.177734375" xlink:href="#BitstreamVeraSans-Roman-20"/>
     <use x="786.96484375" xlink:href="#BitstreamVeraSans-Roman-52"/>
     <use x="856.384765625" xlink:href="#BitstreamVeraSans-Roman-65"/>
     <use x="917.908203125" xlink:href="#BitstreamVeraSans-Roman-61"/>
     <use x="979.1875" xlink:href="#BitstreamVeraSans-Roman-64"/>
     <use x="1042.6640625" xlink:href="#BitstreamVeraSans-Roman-65"/>
     <use x="1104.1875" xlink:href="#BitstreamVeraSans-Roman-72"/>
    </g>
   </g>
   <g id="text_15">
    <!-- Eco. Prob end: 0.1, Repetitions: 2, Strategies: 10. -->
    <defs>
     <path d="M 11.71875 12.40625 
L 22.015625 12.40625 
L 22.015625 0 
L 11.71875 0 
z
M 11.71875 51.703125 
L 22.015625 51.703125 
L 22.015625 39.3125 
L 11.71875 39.3125 
z
" id="BitstreamVeraSans-Roman-3a"/>
     <path d="M 9.8125 72.90625 
L 55.90625 72.90625 
L 55.90625 64.59375 
L 19.671875 64.59375 
L 19.671875 43.015625 
L 54.390625 43.015625 
L 54.390625 34.71875 
L 19.671875 34.71875 
L 19.671875 8.296875 
L 56.78125 8.296875 
L 56.78125 0 
L 9.8125 0 
z
" id="BitstreamVeraSans-Roman-45"/>
     <path d="M 10.6875 12.40625 
L 21 12.40625 
L 21 0 
L 10.6875 0 
z
" id="BitstreamVeraSans-Roman-2e"/>
     <path d="M 11.71875 12.40625 
L 22.015625 12.40625 
L 22.015625 4 
L 14.015625 -11.625 
L 7.71875 -11.625 
L 11.71875 4 
z
" id="BitstreamVeraSans-Roman-2c"/>
     <path d="M 19.1875 8.296875 
L 53.609375 8.296875 
L 53.609375 0 
L 7.328125 0 
L 7.328125 8.296875 
Q 12.9375 14.109375 22.625 23.890625 
Q 32.328125 33.6875 34.8125 36.53125 
Q 39.546875 41.84375 41.421875 45.53125 
Q 43.3125 49.21875 43.3125 52.78125 
Q 43.3125 58.59375 39.234375 62.25 
Q 35.15625 65.921875 28.609375 65.921875 
Q 23.96875 65.921875 18.8125 64.3125 
Q 13.671875 62.703125 7.8125 59.421875 
L 7.8125 69.390625 
Q 13.765625 71.78125 18.9375 73 
Q 24.125 74.21875 28.421875 74.21875 
Q 39.75 74.21875 46.484375 68.546875 
Q 53.21875 62.890625 53.21875 53.421875 
Q 53.21875 48.921875 51.53125 44.890625 
Q 49.859375 40.875 45.40625 35.40625 
Q 44.1875 33.984375 37.640625 27.21875 
Q 31.109375 20.453125 19.1875 8.296875 
" id="BitstreamVeraSans-Roman-32"/>
     <path d="M 45.40625 27.984375 
Q 45.40625 37.75 41.375 43.109375 
Q 37.359375 48.484375 30.078125 48.484375 
Q 22.859375 48.484375 18.828125 43.109375 
Q 14.796875 37.75 14.796875 27.984375 
Q 14.796875 18.265625 18.828125 12.890625 
Q 22.859375 7.515625 30.078125 7.515625 
Q 37.359375 7.515625 41.375 12.890625 
Q 45.40625 18.265625 45.40625 27.984375 
M 54.390625 6.78125 
Q 54.390625 -7.171875 48.1875 -13.984375 
Q 42 -20.796875 29.203125 -20.796875 
Q 24.46875 -20.796875 20.265625 -20.09375 
Q 16.0625 -19.390625 12.109375 -17.921875 
L 12.109375 -9.1875 
Q 16.0625 -11.328125 19.921875 -12.34375 
Q 23.78125 -13.375 27.78125 -13.375 
Q 36.625 -13.375 41.015625 -8.765625 
Q 45.40625 -4.15625 45.40625 5.171875 
L 45.40625 9.625 
Q 42.625 4.78125 38.28125 2.390625 
Q 33.9375 0 27.875 0 
Q 17.828125 0 11.671875 7.65625 
Q 5.515625 15.328125 5.515625 27.984375 
Q 5.515625 40.671875 11.671875 48.328125 
Q 17.828125 56 27.875 56 
Q 33.9375 56 38.28125 53.609375 
Q 42.625 51.21875 45.40625 46.390625 
L 45.40625 54.6875 
L 54.390625 54.6875 
z
" id="BitstreamVeraSans-Roman-67"/>
     <path d="M 48.6875 27.296875 
Q 48.6875 37.203125 44.609375 42.84375 
Q 40.53125 48.484375 33.40625 48.484375 
Q 26.265625 48.484375 22.1875 42.84375 
Q 18.109375 37.203125 18.109375 27.296875 
Q 18.109375 17.390625 22.1875 11.75 
Q 26.265625 6.109375 33.40625 6.109375 
Q 40.53125 6.109375 44.609375 11.75 
Q 48.6875 17.390625 48.6875 27.296875 
M 18.109375 46.390625 
Q 20.953125 51.265625 25.265625 53.625 
Q 29.59375 56 35.59375 56 
Q 45.5625 56 51.78125 48.09375 
Q 58.015625 40.1875 58.015625 27.296875 
Q 58.015625 14.40625 51.78125 6.484375 
Q 45.5625 -1.421875 35.59375 -1.421875 
Q 29.59375 -1.421875 25.265625 0.953125 
Q 20.953125 3.328125 18.109375 8.203125 
L 18.109375 0 
L 9.078125 0 
L 9.078125 75.984375 
L 18.109375 75.984375 
z
" id="BitstreamVeraSans-Roman-62"/>
     <path d="M 53.515625 70.515625 
L 53.515625 60.890625 
Q 47.90625 63.578125 42.921875 64.890625 
Q 37.9375 66.21875 33.296875 66.21875 
Q 25.25 66.21875 20.875 63.09375 
Q 16.5 59.96875 16.5 54.203125 
Q 16.5 49.359375 19.40625 46.890625 
Q 22.3125 44.4375 30.421875 42.921875 
L 36.375 41.703125 
Q 47.40625 39.59375 52.65625 34.296875 
Q 57.90625 29 57.90625 20.125 
Q 57.90625 9.515625 50.796875 4.046875 
Q 43.703125 -1.421875 29.984375 -1.421875 
Q 24.8125 -1.421875 18.96875 -0.25 
Q 13.140625 0.921875 6.890625 3.21875 
L 6.890625 13.375 
Q 12.890625 10.015625 18.65625 8.296875 
Q 24.421875 6.59375 29.984375 6.59375 
Q 38.421875 6.59375 43.015625 9.90625 
Q 47.609375 13.234375 47.609375 19.390625 
Q 47.609375 24.75 44.3125 27.78125 
Q 41.015625 30.8125 33.5 32.328125 
L 27.484375 33.5 
Q 16.453125 35.6875 11.515625 40.375 
Q 6.59375 45.0625 6.59375 53.421875 
Q 6.59375 63.09375 13.40625 68.65625 
Q 20.21875 74.21875 32.171875 74.21875 
Q 37.3125 74.21875 42.625 73.28125 
Q 47.953125 72.359375 53.515625 70.515625 
" id="BitstreamVeraSans-Roman-53"/>
    </defs>
    <g transform="translate(114.17340625 18.14175)scale(0.144 -0.144)">
     <use xlink:href="#BitstreamVeraSans-Roman-45"/>
     <use x="63.18359375" xlink:href="#BitstreamVeraSans-Roman-63"/>
     <use x="118.1640625" xlink:href="#BitstreamVeraSans-Roman-6f"/>
     <use x="179.330078125" xlink:href="#BitstreamVeraSans-Roman-2e"/>
     <use x="211.1171875" xlink:href="#BitstreamVeraSans-Roman-20"/>
     <use x="242.904296875" xlink:href="#BitstreamVeraSans-Roman-50"/>
     <use x="303.19140625" xlink:href="#BitstreamVeraSans-Roman-72"/>
     <use x="344.2734375" xlink:href="#BitstreamVeraSans-Roman-6f"/>
     <use x="405.455078125" xlink:href="#BitstreamVeraSans-Roman-62"/>
     <use x="468.931640625" xlink:href="#BitstreamVeraSans-Roman-20"/>
     <use x="500.71875" xlink:href="#BitstreamVeraSans-Roman-65"/>
     <use x="562.2421875" xlink:href="#BitstreamVeraSans-Roman-6e"/>
     <use x="625.62109375" xlink:href="#BitstreamVeraSans-Roman-64"/>
     <use x="689.09765625" xlink:href="#BitstreamVeraSans-Roman-3a"/>
     <use x="722.7890625" xlink:href="#BitstreamVeraSans-Roman-20"/>
     <use x="754.576171875" xlink:href="#BitstreamVeraSans-Roman-30"/>
     <use x="818.19921875" xlink:href="#BitstreamVeraSans-Roman-2e"/>
     <use x="849.986328125" xlink:href="#BitstreamVeraSans-Roman-31"/>
     <use x="913.609375" xlink:href="#BitstreamVeraSans-Roman-2c"/>
     <use x="945.396484375" xlink:href="#BitstreamVeraSans-Roman-20"/>
     <use x="977.18359375" xlink:href="#BitstreamVeraSans-Roman-52"/>
     <use x="1046.603515625" xlink:href="#BitstreamVeraSans-Roman-65"/>
     <use x="1108.126953125" xlink:href="#BitstreamVeraSans-Roman-70"/>
     <use x="1171.603515625" xlink:href="#BitstreamVeraSans-Roman-65"/>
     <use x="1233.126953125" xlink:href="#BitstreamVeraSans-Roman-74"/>
     <use x="1272.3359375" xlink:href="#BitstreamVeraSans-Roman-69"/>
     <use x="1300.119140625" xlink:href="#BitstreamVeraSans-Roman-74"/>
     <use x="1339.328125" xlink:href="#BitstreamVeraSans-Roman-69"/>
     <use x="1367.111328125" xlink:href="#BitstreamVeraSans-Roman-6f"/>
     <use x="1428.29296875" xlink:href="#BitstreamVeraSans-Roman-6e"/>
     <use x="1491.671875" xlink:href="#BitstreamVeraSans-Roman-73"/>
     <use x="1543.771484375" xlink:href="#BitstreamVeraSans-Roman-3a"/>
     <use x="1577.462890625" xlink:href="#BitstreamVeraSans-Roman-20"/>
     <use x="1609.25" xlink:href="#BitstreamVeraSans-Roman-32"/>
     <use x="1672.873046875" xlink:href="#BitstreamVeraSans-Roman-2c"/>
     <use x="1704.66015625" xlink:href="#BitstreamVeraSans-Roman-20"/>
     <use x="1736.447265625" xlink:href="#BitstreamVeraSans-Roman-53"/>
     <use x="1799.923828125" xlink:href="#BitstreamVeraSans-Roman-74"/>
     <use x="1839.1328125" xlink:href="#BitstreamVeraSans-Roman-72"/>
     <use x="1880.24609375" xlink:href="#BitstreamVeraSans-Roman-61"/>
     <use x="1941.525390625" xlink:href="#BitstreamVeraSans-Roman-74"/>
     <use x="1980.734375" xlink:href="#BitstreamVeraSans-Roman-65"/>
     <use x="2042.2578125" xlink:href="#BitstreamVeraSans-Roman-67"/>
     <use x="2105.734375" xlink:href="#BitstreamVeraSans-Roman-69"/>
     <use x="2133.517578125" xlink:href="#BitstreamVeraSans-Roman-65"/>
     <use x="2195.041015625" xlink:href="#BitstreamVeraSans-Roman-73"/>
     <use x="2247.140625" xlink:href="#BitstreamVeraSans-Roman-3a"/>
     <use x="2280.83203125" xlink:href="#BitstreamVeraSans-Roman-20"/>
     <use x="2312.619140625" xlink:href="#BitstreamVeraSans-Roman-31"/>
     <use x="2376.2421875" xlink:href="#BitstreamVeraSans-Roman-30"/>
     <use x="2439.865234375" xlink:href="#BitstreamVeraSans-Roman-2e"/>
    </g>
   </g>
  </g>
 </g>
 <defs>
  <clipPath id="pc51e9156f5">
   <rect height="345.6" width="446.4" x="68.93040625" y="23.14175"/>
  </clipPath>
 </defs>
</svg>
