<?xml version="1.0" encoding="utf-8" standalone="no"?>
<!DOCTYPE svg PUBLIC "-//W3C//DTD SVG 1.1//EN"
  "http://www.w3.org/Graphics/SVG/1.1/DTD/svg11.dtd">
<!-- Created with matplotlib (http://matplotlib.org/) -->
<svg height="459pt" version="1.1" viewBox="0 0 575 459" width="575pt" xmlns="http://www.w3.org/2000/svg" xmlns:xlink="http://www.w3.org/1999/xlink">
 <defs>
  <style type="text/css">
*{stroke-linecap:butt;stroke-linejoin:round;}
  </style>
 </defs>
 <g id="figure_1">
  <g id="patch_1">
   <path d="
M0 459.527
L575.242 459.527
L575.242 -5.68434e-14
L0 -5.68434e-14
z
" style="fill:#ffffff;"/>
  </g>
  <g id="axes_1">
   <g id="patch_2">
    <path d="
M64.4209 368.742
L510.821 368.742
L510.821 23.1417
L64.4209 23.1417
z
" style="fill:#ffffff;"/>
   </g>
   <g id="line2d_1">
    <path clip-path="url(#p266791b7bf)" d="
M76.1682 23.4873
L99.663 23.4873
L99.663 23.4873
L76.1682 23.4873
L76.1682 23.4873" style="fill:none;stroke:#0000ff;stroke-linecap:square;"/>
   </g>
   <g id="line2d_2">
    <path clip-path="url(#p266791b7bf)" d="
M87.9156 23.4873
L87.9156 23.6601" style="fill:none;stroke:#0000ff;stroke-dasharray:6.000000,6.000000;stroke-dashoffset:0.0;"/>
   </g>
   <g id="line2d_3">
    <path clip-path="url(#p266791b7bf)" d="
M87.9156 23.4873
L87.9156 23.4873" style="fill:none;stroke:#0000ff;stroke-dasharray:6.000000,6.000000;stroke-dashoffset:0.0;"/>
   </g>
   <g id="line2d_4">
    <path clip-path="url(#p266791b7bf)" d="
M82.0419 23.6601
L93.7893 23.6601" style="fill:none;stroke:#000000;stroke-linecap:square;"/>
   </g>
   <g id="line2d_5">
    <path clip-path="url(#p266791b7bf)" d="
M82.0419 23.4873
L93.7893 23.4873" style="fill:none;stroke:#000000;stroke-linecap:square;"/>
   </g>
   <g id="line2d_6">
    <path clip-path="url(#p266791b7bf)" d="
M76.1682 23.4873
L99.663 23.4873" style="fill:none;stroke:#ff0000;stroke-linecap:square;"/>
   </g>
   <g id="line2d_7"/>
   <g id="line2d_8">
    <path clip-path="url(#p266791b7bf)" d="
M123.158 135.462
L146.652 135.462
L146.652 135.462
L123.158 135.462
L123.158 135.462" style="fill:none;stroke:#0000ff;stroke-linecap:square;"/>
   </g>
   <g id="line2d_9">
    <path clip-path="url(#p266791b7bf)" d="
M134.905 135.462
L134.905 135.462" style="fill:none;stroke:#0000ff;stroke-dasharray:6.000000,6.000000;stroke-dashoffset:0.0;"/>
   </g>
   <g id="line2d_10">
    <path clip-path="url(#p266791b7bf)" d="
M134.905 135.462
L134.905 118.182" style="fill:none;stroke:#0000ff;stroke-dasharray:6.000000,6.000000;stroke-dashoffset:0.0;"/>
   </g>
   <g id="line2d_11">
    <path clip-path="url(#p266791b7bf)" d="
M129.031 135.462
L140.779 135.462" style="fill:none;stroke:#000000;stroke-linecap:square;"/>
   </g>
   <g id="line2d_12">
    <path clip-path="url(#p266791b7bf)" d="
M129.031 118.182
L140.779 118.182" style="fill:none;stroke:#000000;stroke-linecap:square;"/>
   </g>
   <g id="line2d_13">
    <path clip-path="url(#p266791b7bf)" d="
M123.158 135.462
L146.652 135.462" style="fill:none;stroke:#ff0000;stroke-linecap:square;"/>
   </g>
   <g id="line2d_14"/>
   <g id="line2d_15">
    <path clip-path="url(#p266791b7bf)" d="
M170.147 135.462
L193.642 135.462
L193.642 135.462
L170.147 135.462
L170.147 135.462" style="fill:none;stroke:#0000ff;stroke-linecap:square;"/>
   </g>
   <g id="line2d_16">
    <path clip-path="url(#p266791b7bf)" d="
M181.895 135.462
L181.895 135.462" style="fill:none;stroke:#0000ff;stroke-dasharray:6.000000,6.000000;stroke-dashoffset:0.0;"/>
   </g>
   <g id="line2d_17">
    <path clip-path="url(#p266791b7bf)" d="
M181.895 135.462
L181.895 118.182" style="fill:none;stroke:#0000ff;stroke-dasharray:6.000000,6.000000;stroke-dashoffset:0.0;"/>
   </g>
   <g id="line2d_18">
    <path clip-path="url(#p266791b7bf)" d="
M176.021 135.462
L187.768 135.462" style="fill:none;stroke:#000000;stroke-linecap:square;"/>
   </g>
   <g id="line2d_19">
    <path clip-path="url(#p266791b7bf)" d="
M176.021 118.182
L187.768 118.182" style="fill:none;stroke:#000000;stroke-linecap:square;"/>
   </g>
   <g id="line2d_20">
    <path clip-path="url(#p266791b7bf)" d="
M170.147 135.462
L193.642 135.462" style="fill:none;stroke:#ff0000;stroke-linecap:square;"/>
   </g>
   <g id="line2d_21"/>
   <g id="line2d_22">
    <path clip-path="url(#p266791b7bf)" d="
M217.137 135.462
L240.631 135.462
L240.631 135.462
L217.137 135.462
L217.137 135.462" style="fill:none;stroke:#0000ff;stroke-linecap:square;"/>
   </g>
   <g id="line2d_23">
    <path clip-path="url(#p266791b7bf)" d="
M228.884 135.462
L228.884 135.462" style="fill:none;stroke:#0000ff;stroke-dasharray:6.000000,6.000000;stroke-dashoffset:0.0;"/>
   </g>
   <g id="line2d_24">
    <path clip-path="url(#p266791b7bf)" d="
M228.884 135.462
L228.884 118.182" style="fill:none;stroke:#0000ff;stroke-dasharray:6.000000,6.000000;stroke-dashoffset:0.0;"/>
   </g>
   <g id="line2d_25">
    <path clip-path="url(#p266791b7bf)" d="
M223.01 135.462
L234.758 135.462" style="fill:none;stroke:#000000;stroke-linecap:square;"/>
   </g>
   <g id="line2d_26">
    <path clip-path="url(#p266791b7bf)" d="
M223.01 118.182
L234.758 118.182" style="fill:none;stroke:#000000;stroke-linecap:square;"/>
   </g>
   <g id="line2d_27">
    <path clip-path="url(#p266791b7bf)" d="
M217.137 135.462
L240.631 135.462" style="fill:none;stroke:#ff0000;stroke-linecap:square;"/>
   </g>
   <g id="line2d_28"/>
   <g id="line2d_29">
    <path clip-path="url(#p266791b7bf)" d="
M264.126 135.462
L287.621 135.462
L287.621 135.462
L264.126 135.462
L264.126 135.462" style="fill:none;stroke:#0000ff;stroke-linecap:square;"/>
   </g>
   <g id="line2d_30">
    <path clip-path="url(#p266791b7bf)" d="
M275.874 135.462
L275.874 135.462" style="fill:none;stroke:#0000ff;stroke-dasharray:6.000000,6.000000;stroke-dashoffset:0.0;"/>
   </g>
   <g id="line2d_31">
    <path clip-path="url(#p266791b7bf)" d="
M275.874 135.462
L275.874 118.182" style="fill:none;stroke:#0000ff;stroke-dasharray:6.000000,6.000000;stroke-dashoffset:0.0;"/>
   </g>
   <g id="line2d_32">
    <path clip-path="url(#p266791b7bf)" d="
M270 135.462
L281.747 135.462" style="fill:none;stroke:#000000;stroke-linecap:square;"/>
   </g>
   <g id="line2d_33">
    <path clip-path="url(#p266791b7bf)" d="
M270 118.182
L281.747 118.182" style="fill:none;stroke:#000000;stroke-linecap:square;"/>
   </g>
   <g id="line2d_34">
    <path clip-path="url(#p266791b7bf)" d="
M264.126 135.462
L287.621 135.462" style="fill:none;stroke:#ff0000;stroke-linecap:square;"/>
   </g>
   <g id="line2d_35"/>
   <g id="line2d_36">
    <path clip-path="url(#p266791b7bf)" d="
M311.116 187.302
L334.61 187.302
L334.61 187.302
L311.116 187.302
L311.116 187.302" style="fill:none;stroke:#0000ff;stroke-linecap:square;"/>
   </g>
   <g id="line2d_37">
    <path clip-path="url(#p266791b7bf)" d="
M322.863 187.302
L322.863 304.287" style="fill:none;stroke:#0000ff;stroke-dasharray:6.000000,6.000000;stroke-dashoffset:0.0;"/>
   </g>
   <g id="line2d_38">
    <path clip-path="url(#p266791b7bf)" d="
M322.863 187.302
L322.863 187.302" style="fill:none;stroke:#0000ff;stroke-dasharray:6.000000,6.000000;stroke-dashoffset:0.0;"/>
   </g>
   <g id="line2d_39">
    <path clip-path="url(#p266791b7bf)" d="
M316.989 304.287
L328.737 304.287" style="fill:none;stroke:#000000;stroke-linecap:square;"/>
   </g>
   <g id="line2d_40">
    <path clip-path="url(#p266791b7bf)" d="
M316.989 187.302
L328.737 187.302" style="fill:none;stroke:#000000;stroke-linecap:square;"/>
   </g>
   <g id="line2d_41">
    <path clip-path="url(#p266791b7bf)" d="
M311.116 187.302
L334.61 187.302" style="fill:none;stroke:#ff0000;stroke-linecap:square;"/>
   </g>
   <g id="line2d_42"/>
   <g id="line2d_43">
    <path clip-path="url(#p266791b7bf)" d="
M358.105 273.659
L381.6 273.659
L381.6 273.659
L358.105 273.659
L358.105 273.659" style="fill:none;stroke:#0000ff;stroke-linecap:square;"/>
   </g>
   <g id="line2d_44">
    <path clip-path="url(#p266791b7bf)" d="
M369.852 273.659
L369.852 273.659" style="fill:none;stroke:#0000ff;stroke-dasharray:6.000000,6.000000;stroke-dashoffset:0.0;"/>
   </g>
   <g id="line2d_45">
    <path clip-path="url(#p266791b7bf)" d="
M369.852 273.659
L369.852 265.451" style="fill:none;stroke:#0000ff;stroke-dasharray:6.000000,6.000000;stroke-dashoffset:0.0;"/>
   </g>
   <g id="line2d_46">
    <path clip-path="url(#p266791b7bf)" d="
M363.979 273.659
L375.726 273.659" style="fill:none;stroke:#000000;stroke-linecap:square;"/>
   </g>
   <g id="line2d_47">
    <path clip-path="url(#p266791b7bf)" d="
M363.979 265.451
L375.726 265.451" style="fill:none;stroke:#000000;stroke-linecap:square;"/>
   </g>
   <g id="line2d_48">
    <path clip-path="url(#p266791b7bf)" d="
M358.105 273.659
L381.6 273.659" style="fill:none;stroke:#ff0000;stroke-linecap:square;"/>
   </g>
   <g id="line2d_49"/>
   <g id="line2d_50">
    <path clip-path="url(#p266791b7bf)" d="
M405.095 290.982
L428.589 290.982
L428.589 290.982
L405.095 290.982
L405.095 290.982" style="fill:none;stroke:#0000ff;stroke-linecap:square;"/>
   </g>
   <g id="line2d_51">
    <path clip-path="url(#p266791b7bf)" d="
M416.842 290.982
L416.842 290.982" style="fill:none;stroke:#0000ff;stroke-dasharray:6.000000,6.000000;stroke-dashoffset:0.0;"/>
   </g>
   <g id="line2d_52">
    <path clip-path="url(#p266791b7bf)" d="
M416.842 290.982
L416.842 290.982" style="fill:none;stroke:#0000ff;stroke-dasharray:6.000000,6.000000;stroke-dashoffset:0.0;"/>
   </g>
   <g id="line2d_53">
    <path clip-path="url(#p266791b7bf)" d="
M410.968 290.982
L422.716 290.982" style="fill:none;stroke:#000000;stroke-linecap:square;"/>
   </g>
   <g id="line2d_54">
    <path clip-path="url(#p266791b7bf)" d="
M410.968 290.982
L422.716 290.982" style="fill:none;stroke:#000000;stroke-linecap:square;"/>
   </g>
   <g id="line2d_55">
    <path clip-path="url(#p266791b7bf)" d="
M405.095 290.982
L428.589 290.982" style="fill:none;stroke:#ff0000;stroke-linecap:square;"/>
   </g>
   <g id="line2d_56"/>
   <g id="line2d_57">
    <path clip-path="url(#p266791b7bf)" d="
M452.084 316.859
L475.579 316.859
L475.579 316.859
L452.084 316.859
L452.084 316.859" style="fill:none;stroke:#0000ff;stroke-linecap:square;"/>
   </g>
   <g id="line2d_58">
    <path clip-path="url(#p266791b7bf)" d="
M463.831 316.859
L463.831 338.199" style="fill:none;stroke:#0000ff;stroke-dasharray:6.000000,6.000000;stroke-dashoffset:0.0;"/>
   </g>
   <g id="line2d_59">
    <path clip-path="url(#p266791b7bf)" d="
M463.831 316.859
L463.831 316.859" style="fill:none;stroke:#0000ff;stroke-dasharray:6.000000,6.000000;stroke-dashoffset:0.0;"/>
   </g>
   <g id="line2d_60">
    <path clip-path="url(#p266791b7bf)" d="
M457.958 338.199
L469.705 338.199" style="fill:none;stroke:#000000;stroke-linecap:square;"/>
   </g>
   <g id="line2d_61">
    <path clip-path="url(#p266791b7bf)" d="
M457.958 316.859
L469.705 316.859" style="fill:none;stroke:#000000;stroke-linecap:square;"/>
   </g>
   <g id="line2d_62">
    <path clip-path="url(#p266791b7bf)" d="
M452.084 316.859
L475.579 316.859" style="fill:none;stroke:#ff0000;stroke-linecap:square;"/>
   </g>
   <g id="line2d_63"/>
   <g id="patch_3">
    <path d="
M64.4209 23.1417
L510.821 23.1417" style="fill:none;stroke:#000000;stroke-linecap:square;stroke-linejoin:miter;"/>
   </g>
   <g id="patch_4">
    <path d="
M510.821 368.742
L510.821 23.1417" style="fill:none;stroke:#000000;stroke-linecap:square;stroke-linejoin:miter;"/>
   </g>
   <g id="patch_5">
    <path d="
M64.4209 368.742
L510.821 368.742" style="fill:none;stroke:#000000;stroke-linecap:square;stroke-linejoin:miter;"/>
   </g>
   <g id="patch_6">
    <path d="
M64.4209 368.742
L64.4209 23.1417" style="fill:none;stroke:#000000;stroke-linecap:square;stroke-linejoin:miter;"/>
   </g>
   <g id="matplotlib.axis_1">
    <g id="xtick_1">
     <g id="line2d_64">
      <defs>
       <path d="
M0 0
L0 -4" id="m93b0483c22" style="stroke:#000000;stroke-width:0.5;"/>
      </defs>
      <g>
       <use style="stroke:#000000;stroke-width:0.5;" x="87.9156118421" xlink:href="#m93b0483c22" y="368.74175"/>
      </g>
     </g>
     <g id="line2d_65">
      <defs>
       <path d="
M0 0
L0 4" id="m741efc42ff" style="stroke:#000000;stroke-width:0.5;"/>
      </defs>
      <g>
       <use style="stroke:#000000;stroke-width:0.5;" x="87.9156118421" xlink:href="#m741efc42ff" y="23.14175"/>
      </g>
     </g>
     <g id="text_1">
      <!-- Mind Bender -->
      <defs>
       <path id="BitstreamVeraSans-Roman-20"/>
       <path d="
M9.8125 72.9062
L24.5156 72.9062
L43.1094 23.2969
L61.8125 72.9062
L76.5156 72.9062
L76.5156 0
L66.8906 0
L66.8906 64.0156
L48.0938 14.0156
L38.1875 14.0156
L19.3906 64.0156
L19.3906 0
L9.8125 0
z
" id="BitstreamVeraSans-Roman-4d"/>
       <path d="
M54.8906 33.0156
L54.8906 0
L45.9062 0
L45.9062 32.7188
Q45.9062 40.4844 42.875 44.3281
Q39.8438 48.1875 33.7969 48.1875
Q26.5156 48.1875 22.3125 43.5469
Q18.1094 38.9219 18.1094 30.9062
L18.1094 0
L9.07812 0
L9.07812 54.6875
L18.1094 54.6875
L18.1094 46.1875
Q21.3438 51.125 25.7031 53.5625
Q30.0781 56 35.7969 56
Q45.2188 56 50.0469 50.1719
Q54.8906 44.3438 54.8906 33.0156" id="BitstreamVeraSans-Roman-6e"/>
       <path d="
M9.42188 54.6875
L18.4062 54.6875
L18.4062 0
L9.42188 0
z

M9.42188 75.9844
L18.4062 75.9844
L18.4062 64.5938
L9.42188 64.5938
z
" id="BitstreamVeraSans-Roman-69"/>
       <path d="
M19.6719 34.8125
L19.6719 8.10938
L35.5 8.10938
Q43.4531 8.10938 47.2812 11.4062
Q51.125 14.7031 51.125 21.4844
Q51.125 28.3281 47.2812 31.5625
Q43.4531 34.8125 35.5 34.8125
z

M19.6719 64.7969
L19.6719 42.8281
L34.2812 42.8281
Q41.5 42.8281 45.0312 45.5312
Q48.5781 48.25 48.5781 53.8125
Q48.5781 59.3281 45.0312 62.0625
Q41.5 64.7969 34.2812 64.7969
z

M9.8125 72.9062
L35.0156 72.9062
Q46.2969 72.9062 52.3906 68.2188
Q58.5 63.5312 58.5 54.8906
Q58.5 48.1875 55.375 44.2344
Q52.25 40.2812 46.1875 39.3125
Q53.4688 37.75 57.5 32.7812
Q61.5312 27.8281 61.5312 20.4062
Q61.5312 10.6406 54.8906 5.3125
Q48.25 0 35.9844 0
L9.8125 0
z
" id="BitstreamVeraSans-Roman-42"/>
       <path d="
M56.2031 29.5938
L56.2031 25.2031
L14.8906 25.2031
Q15.4844 15.9219 20.4844 11.0625
Q25.4844 6.20312 34.4219 6.20312
Q39.5938 6.20312 44.4531 7.46875
Q49.3125 8.73438 54.1094 11.2812
L54.1094 2.78125
Q49.2656 0.734375 44.1875 -0.34375
Q39.1094 -1.42188 33.8906 -1.42188
Q20.7969 -1.42188 13.1562 6.1875
Q5.51562 13.8125 5.51562 26.8125
Q5.51562 40.2344 12.7656 48.1094
Q20.0156 56 32.3281 56
Q43.3594 56 49.7812 48.8906
Q56.2031 41.7969 56.2031 29.5938
M47.2188 32.2344
Q47.125 39.5938 43.0938 43.9844
Q39.0625 48.3906 32.4219 48.3906
Q24.9062 48.3906 20.3906 44.1406
Q15.875 39.8906 15.1875 32.1719
z
" id="BitstreamVeraSans-Roman-65"/>
       <path d="
M45.4062 46.3906
L45.4062 75.9844
L54.3906 75.9844
L54.3906 0
L45.4062 0
L45.4062 8.20312
Q42.5781 3.32812 38.25 0.953125
Q33.9375 -1.42188 27.875 -1.42188
Q17.9688 -1.42188 11.7344 6.48438
Q5.51562 14.4062 5.51562 27.2969
Q5.51562 40.1875 11.7344 48.0938
Q17.9688 56 27.875 56
Q33.9375 56 38.25 53.625
Q42.5781 51.2656 45.4062 46.3906
M14.7969 27.2969
Q14.7969 17.3906 18.875 11.75
Q22.9531 6.10938 30.0781 6.10938
Q37.2031 6.10938 41.2969 11.75
Q45.4062 17.3906 45.4062 27.2969
Q45.4062 37.2031 41.2969 42.8438
Q37.2031 48.4844 30.0781 48.4844
Q22.9531 48.4844 18.875 42.8438
Q14.7969 37.2031 14.7969 27.2969" id="BitstreamVeraSans-Roman-64"/>
       <path d="
M41.1094 46.2969
Q39.5938 47.1719 37.8125 47.5781
Q36.0312 48 33.8906 48
Q26.2656 48 22.1875 43.0469
Q18.1094 38.0938 18.1094 28.8125
L18.1094 0
L9.07812 0
L9.07812 54.6875
L18.1094 54.6875
L18.1094 46.1875
Q20.9531 51.1719 25.4844 53.5781
Q30.0312 56 36.5312 56
Q37.4531 56 38.5781 55.875
Q39.7031 55.7656 41.0625 55.5156
z
" id="BitstreamVeraSans-Roman-72"/>
      </defs>
      <g transform="translate(89.8471743421 417.0058125)rotate(-90.0)scale(0.07 -0.07)">
       <use xlink:href="#BitstreamVeraSans-Roman-4d"/>
       <use x="86.279296875" xlink:href="#BitstreamVeraSans-Roman-69"/>
       <use x="114.0625" xlink:href="#BitstreamVeraSans-Roman-6e"/>
       <use x="177.44140625" xlink:href="#BitstreamVeraSans-Roman-64"/>
       <use x="240.91796875" xlink:href="#BitstreamVeraSans-Roman-20"/>
       <use x="272.705078125" xlink:href="#BitstreamVeraSans-Roman-42"/>
       <use x="341.30859375" xlink:href="#BitstreamVeraSans-Roman-65"/>
       <use x="402.83203125" xlink:href="#BitstreamVeraSans-Roman-6e"/>
       <use x="466.2109375" xlink:href="#BitstreamVeraSans-Roman-64"/>
       <use x="529.6875" xlink:href="#BitstreamVeraSans-Roman-65"/>
       <use x="591.2109375" xlink:href="#BitstreamVeraSans-Roman-72"/>
      </g>
     </g>
    </g>
    <g id="xtick_2">
     <g id="line2d_66">
      <g>
       <use style="stroke:#000000;stroke-width:0.5;" x="134.905085526" xlink:href="#m93b0483c22" y="368.74175"/>
      </g>
     </g>
     <g id="line2d_67">
      <g>
       <use style="stroke:#000000;stroke-width:0.5;" x="134.905085526" xlink:href="#m741efc42ff" y="23.14175"/>
      </g>
     </g>
     <g id="text_2">
      <!-- Mind Controller -->
      <defs>
       <path d="
M18.3125 70.2188
L18.3125 54.6875
L36.8125 54.6875
L36.8125 47.7031
L18.3125 47.7031
L18.3125 18.0156
Q18.3125 11.3281 20.1406 9.42188
Q21.9688 7.51562 27.5938 7.51562
L36.8125 7.51562
L36.8125 0
L27.5938 0
Q17.1875 0 13.2344 3.875
Q9.28125 7.76562 9.28125 18.0156
L9.28125 47.7031
L2.6875 47.7031
L2.6875 54.6875
L9.28125 54.6875
L9.28125 70.2188
z
" id="BitstreamVeraSans-Roman-74"/>
       <path d="
M30.6094 48.3906
Q23.3906 48.3906 19.1875 42.75
Q14.9844 37.1094 14.9844 27.2969
Q14.9844 17.4844 19.1562 11.8438
Q23.3438 6.20312 30.6094 6.20312
Q37.7969 6.20312 41.9844 11.8594
Q46.1875 17.5312 46.1875 27.2969
Q46.1875 37.0156 41.9844 42.7031
Q37.7969 48.3906 30.6094 48.3906
M30.6094 56
Q42.3281 56 49.0156 48.375
Q55.7188 40.7656 55.7188 27.2969
Q55.7188 13.875 49.0156 6.21875
Q42.3281 -1.42188 30.6094 -1.42188
Q18.8438 -1.42188 12.1719 6.21875
Q5.51562 13.875 5.51562 27.2969
Q5.51562 40.7656 12.1719 48.375
Q18.8438 56 30.6094 56" id="BitstreamVeraSans-Roman-6f"/>
       <path d="
M64.4062 67.2812
L64.4062 56.8906
Q59.4219 61.5312 53.7812 63.8125
Q48.1406 66.1094 41.7969 66.1094
Q29.2969 66.1094 22.6562 58.4688
Q16.0156 50.8281 16.0156 36.375
Q16.0156 21.9688 22.6562 14.3281
Q29.2969 6.6875 41.7969 6.6875
Q48.1406 6.6875 53.7812 8.98438
Q59.4219 11.2812 64.4062 15.9219
L64.4062 5.60938
Q59.2344 2.09375 53.4375 0.328125
Q47.6562 -1.42188 41.2188 -1.42188
Q24.6562 -1.42188 15.125 8.70312
Q5.60938 18.8438 5.60938 36.375
Q5.60938 53.9531 15.125 64.0781
Q24.6562 74.2188 41.2188 74.2188
Q47.75 74.2188 53.5312 72.4844
Q59.3281 70.75 64.4062 67.2812" id="BitstreamVeraSans-Roman-43"/>
       <path d="
M9.42188 75.9844
L18.4062 75.9844
L18.4062 0
L9.42188 0
z
" id="BitstreamVeraSans-Roman-6c"/>
      </defs>
      <g transform="translate(136.836648026 426.26003125)rotate(-90.0)scale(0.07 -0.07)">
       <use xlink:href="#BitstreamVeraSans-Roman-4d"/>
       <use x="86.279296875" xlink:href="#BitstreamVeraSans-Roman-69"/>
       <use x="114.0625" xlink:href="#BitstreamVeraSans-Roman-6e"/>
       <use x="177.44140625" xlink:href="#BitstreamVeraSans-Roman-64"/>
       <use x="240.91796875" xlink:href="#BitstreamVeraSans-Roman-20"/>
       <use x="272.705078125" xlink:href="#BitstreamVeraSans-Roman-43"/>
       <use x="342.529296875" xlink:href="#BitstreamVeraSans-Roman-6f"/>
       <use x="403.7109375" xlink:href="#BitstreamVeraSans-Roman-6e"/>
       <use x="467.08984375" xlink:href="#BitstreamVeraSans-Roman-74"/>
       <use x="506.298828125" xlink:href="#BitstreamVeraSans-Roman-72"/>
       <use x="545.162109375" xlink:href="#BitstreamVeraSans-Roman-6f"/>
       <use x="606.34375" xlink:href="#BitstreamVeraSans-Roman-6c"/>
       <use x="634.126953125" xlink:href="#BitstreamVeraSans-Roman-6c"/>
       <use x="661.91015625" xlink:href="#BitstreamVeraSans-Roman-65"/>
       <use x="723.43359375" xlink:href="#BitstreamVeraSans-Roman-72"/>
      </g>
     </g>
    </g>
    <g id="xtick_3">
     <g id="line2d_68">
      <g>
       <use style="stroke:#000000;stroke-width:0.5;" x="181.894559211" xlink:href="#m93b0483c22" y="368.74175"/>
      </g>
     </g>
     <g id="line2d_69">
      <g>
       <use style="stroke:#000000;stroke-width:0.5;" x="181.894559211" xlink:href="#m741efc42ff" y="23.14175"/>
      </g>
     </g>
     <g id="text_3">
      <!-- Mind Reader -->
      <defs>
       <path d="
M44.3906 34.1875
Q47.5625 33.1094 50.5625 29.5938
Q53.5625 26.0781 56.5938 19.9219
L66.6094 0
L56 0
L46.6875 18.7031
Q43.0625 26.0312 39.6719 28.4219
Q36.2812 30.8125 30.4219 30.8125
L19.6719 30.8125
L19.6719 0
L9.8125 0
L9.8125 72.9062
L32.0781 72.9062
Q44.5781 72.9062 50.7344 67.6719
Q56.8906 62.4531 56.8906 51.9062
Q56.8906 45.0156 53.6875 40.4688
Q50.4844 35.9375 44.3906 34.1875
M19.6719 64.7969
L19.6719 38.9219
L32.0781 38.9219
Q39.2031 38.9219 42.8438 42.2188
Q46.4844 45.5156 46.4844 51.9062
Q46.4844 58.2969 42.8438 61.5469
Q39.2031 64.7969 32.0781 64.7969
z
" id="BitstreamVeraSans-Roman-52"/>
       <path d="
M34.2812 27.4844
Q23.3906 27.4844 19.1875 25
Q14.9844 22.5156 14.9844 16.5
Q14.9844 11.7188 18.1406 8.90625
Q21.2969 6.10938 26.7031 6.10938
Q34.1875 6.10938 38.7031 11.4062
Q43.2188 16.7031 43.2188 25.4844
L43.2188 27.4844
z

M52.2031 31.2031
L52.2031 0
L43.2188 0
L43.2188 8.29688
Q40.1406 3.32812 35.5469 0.953125
Q30.9531 -1.42188 24.3125 -1.42188
Q15.9219 -1.42188 10.9531 3.29688
Q6 8.01562 6 15.9219
Q6 25.1406 12.1719 29.8281
Q18.3594 34.5156 30.6094 34.5156
L43.2188 34.5156
L43.2188 35.4062
Q43.2188 41.6094 39.1406 45
Q35.0625 48.3906 27.6875 48.3906
Q23 48.3906 18.5469 47.2656
Q14.1094 46.1406 10.0156 43.8906
L10.0156 52.2031
Q14.9375 54.1094 19.5781 55.0469
Q24.2188 56 28.6094 56
Q40.4844 56 46.3438 49.8438
Q52.2031 43.7031 52.2031 31.2031" id="BitstreamVeraSans-Roman-61"/>
      </defs>
      <g transform="translate(183.826121711 416.6055)rotate(-90.0)scale(0.07 -0.07)">
       <use xlink:href="#BitstreamVeraSans-Roman-4d"/>
       <use x="86.279296875" xlink:href="#BitstreamVeraSans-Roman-69"/>
       <use x="114.0625" xlink:href="#BitstreamVeraSans-Roman-6e"/>
       <use x="177.44140625" xlink:href="#BitstreamVeraSans-Roman-64"/>
       <use x="240.91796875" xlink:href="#BitstreamVeraSans-Roman-20"/>
       <use x="272.705078125" xlink:href="#BitstreamVeraSans-Roman-52"/>
       <use x="337.6875" xlink:href="#BitstreamVeraSans-Roman-65"/>
       <use x="399.2109375" xlink:href="#BitstreamVeraSans-Roman-61"/>
       <use x="460.490234375" xlink:href="#BitstreamVeraSans-Roman-64"/>
       <use x="523.966796875" xlink:href="#BitstreamVeraSans-Roman-65"/>
       <use x="585.490234375" xlink:href="#BitstreamVeraSans-Roman-72"/>
      </g>
     </g>
    </g>
    <g id="xtick_4">
     <g id="line2d_70">
      <g>
       <use style="stroke:#000000;stroke-width:0.5;" x="228.884032895" xlink:href="#m93b0483c22" y="368.74175"/>
      </g>
     </g>
     <g id="line2d_71">
      <g>
       <use style="stroke:#000000;stroke-width:0.5;" x="228.884032895" xlink:href="#m741efc42ff" y="23.14175"/>
      </g>
     </g>
     <g id="text_4">
      <!-- Mind Warper -->
      <defs>
       <path d="
M18.1094 8.20312
L18.1094 -20.7969
L9.07812 -20.7969
L9.07812 54.6875
L18.1094 54.6875
L18.1094 46.3906
Q20.9531 51.2656 25.2656 53.625
Q29.5938 56 35.5938 56
Q45.5625 56 51.7812 48.0938
Q58.0156 40.1875 58.0156 27.2969
Q58.0156 14.4062 51.7812 6.48438
Q45.5625 -1.42188 35.5938 -1.42188
Q29.5938 -1.42188 25.2656 0.953125
Q20.9531 3.32812 18.1094 8.20312
M48.6875 27.2969
Q48.6875 37.2031 44.6094 42.8438
Q40.5312 48.4844 33.4062 48.4844
Q26.2656 48.4844 22.1875 42.8438
Q18.1094 37.2031 18.1094 27.2969
Q18.1094 17.3906 22.1875 11.75
Q26.2656 6.10938 33.4062 6.10938
Q40.5312 6.10938 44.6094 11.75
Q48.6875 17.3906 48.6875 27.2969" id="BitstreamVeraSans-Roman-70"/>
       <path d="
M3.32812 72.9062
L13.2812 72.9062
L28.6094 11.2812
L43.8906 72.9062
L54.9844 72.9062
L70.3125 11.2812
L85.5938 72.9062
L95.6094 72.9062
L77.2969 0
L64.8906 0
L49.5156 63.2812
L33.9844 0
L21.5781 0
z
" id="BitstreamVeraSans-Roman-57"/>
      </defs>
      <g transform="translate(230.815595395 417.1020625)rotate(-90.0)scale(0.07 -0.07)">
       <use xlink:href="#BitstreamVeraSans-Roman-4d"/>
       <use x="86.279296875" xlink:href="#BitstreamVeraSans-Roman-69"/>
       <use x="114.0625" xlink:href="#BitstreamVeraSans-Roman-6e"/>
       <use x="177.44140625" xlink:href="#BitstreamVeraSans-Roman-64"/>
       <use x="240.91796875" xlink:href="#BitstreamVeraSans-Roman-20"/>
       <use x="272.705078125" xlink:href="#BitstreamVeraSans-Roman-57"/>
       <use x="365.20703125" xlink:href="#BitstreamVeraSans-Roman-61"/>
       <use x="426.486328125" xlink:href="#BitstreamVeraSans-Roman-72"/>
       <use x="467.599609375" xlink:href="#BitstreamVeraSans-Roman-70"/>
       <use x="531.076171875" xlink:href="#BitstreamVeraSans-Roman-65"/>
       <use x="592.599609375" xlink:href="#BitstreamVeraSans-Roman-72"/>
      </g>
     </g>
    </g>
    <g id="xtick_5">
     <g id="line2d_72">
      <g>
       <use style="stroke:#000000;stroke-width:0.5;" x="275.873506579" xlink:href="#m93b0483c22" y="368.74175"/>
      </g>
     </g>
     <g id="line2d_73">
      <g>
       <use style="stroke:#000000;stroke-width:0.5;" x="275.873506579" xlink:href="#m741efc42ff" y="23.14175"/>
      </g>
     </g>
     <g id="text_5">
      <!-- Protected Mind Reader -->
      <defs>
       <path d="
M19.6719 64.7969
L19.6719 37.4062
L32.0781 37.4062
Q38.9688 37.4062 42.7188 40.9688
Q46.4844 44.5312 46.4844 51.125
Q46.4844 57.6719 42.7188 61.2344
Q38.9688 64.7969 32.0781 64.7969
z

M9.8125 72.9062
L32.0781 72.9062
Q44.3438 72.9062 50.6094 67.3594
Q56.8906 61.8125 56.8906 51.125
Q56.8906 40.3281 50.6094 34.8125
Q44.3438 29.2969 32.0781 29.2969
L19.6719 29.2969
L19.6719 0
L9.8125 0
z
" id="BitstreamVeraSans-Roman-50"/>
       <path d="
M48.7812 52.5938
L48.7812 44.1875
Q44.9688 46.2969 41.1406 47.3438
Q37.3125 48.3906 33.4062 48.3906
Q24.6562 48.3906 19.8125 42.8438
Q14.9844 37.3125 14.9844 27.2969
Q14.9844 17.2812 19.8125 11.7344
Q24.6562 6.20312 33.4062 6.20312
Q37.3125 6.20312 41.1406 7.25
Q44.9688 8.29688 48.7812 10.4062
L48.7812 2.09375
Q45.0156 0.34375 40.9844 -0.53125
Q36.9688 -1.42188 32.4219 -1.42188
Q20.0625 -1.42188 12.7812 6.34375
Q5.51562 14.1094 5.51562 27.2969
Q5.51562 40.6719 12.8594 48.3281
Q20.2188 56 33.0156 56
Q37.1562 56 41.1094 55.1406
Q45.0625 54.2969 48.7812 52.5938" id="BitstreamVeraSans-Roman-63"/>
      </defs>
      <g transform="translate(277.805069079 452.327375)rotate(-90.0)scale(0.07 -0.07)">
       <use xlink:href="#BitstreamVeraSans-Roman-50"/>
       <use x="58.552734375" xlink:href="#BitstreamVeraSans-Roman-72"/>
       <use x="97.416015625" xlink:href="#BitstreamVeraSans-Roman-6f"/>
       <use x="158.59765625" xlink:href="#BitstreamVeraSans-Roman-74"/>
       <use x="197.806640625" xlink:href="#BitstreamVeraSans-Roman-65"/>
       <use x="259.330078125" xlink:href="#BitstreamVeraSans-Roman-63"/>
       <use x="314.310546875" xlink:href="#BitstreamVeraSans-Roman-74"/>
       <use x="353.51953125" xlink:href="#BitstreamVeraSans-Roman-65"/>
       <use x="415.04296875" xlink:href="#BitstreamVeraSans-Roman-64"/>
       <use x="478.51953125" xlink:href="#BitstreamVeraSans-Roman-20"/>
       <use x="510.306640625" xlink:href="#BitstreamVeraSans-Roman-4d"/>
       <use x="596.5859375" xlink:href="#BitstreamVeraSans-Roman-69"/>
       <use x="624.369140625" xlink:href="#BitstreamVeraSans-Roman-6e"/>
       <use x="687.748046875" xlink:href="#BitstreamVeraSans-Roman-64"/>
       <use x="751.224609375" xlink:href="#BitstreamVeraSans-Roman-20"/>
       <use x="783.01171875" xlink:href="#BitstreamVeraSans-Roman-52"/>
       <use x="847.994140625" xlink:href="#BitstreamVeraSans-Roman-65"/>
       <use x="909.517578125" xlink:href="#BitstreamVeraSans-Roman-61"/>
       <use x="970.796875" xlink:href="#BitstreamVeraSans-Roman-64"/>
       <use x="1034.2734375" xlink:href="#BitstreamVeraSans-Roman-65"/>
       <use x="1095.796875" xlink:href="#BitstreamVeraSans-Roman-72"/>
      </g>
     </g>
    </g>
    <g id="xtick_6">
     <g id="line2d_74">
      <g>
       <use style="stroke:#000000;stroke-width:0.5;" x="322.862980263" xlink:href="#m93b0483c22" y="368.74175"/>
      </g>
     </g>
     <g id="line2d_75">
      <g>
       <use style="stroke:#000000;stroke-width:0.5;" x="322.862980263" xlink:href="#m741efc42ff" y="23.14175"/>
      </g>
     </g>
     <g id="text_6">
      <!-- Geller -->
      <defs>
       <path d="
M59.5156 10.4062
L59.5156 29.9844
L43.4062 29.9844
L43.4062 38.0938
L69.2812 38.0938
L69.2812 6.78125
Q63.5781 2.73438 56.6875 0.65625
Q49.8125 -1.42188 42 -1.42188
Q24.9062 -1.42188 15.25 8.5625
Q5.60938 18.5625 5.60938 36.375
Q5.60938 54.25 15.25 64.2344
Q24.9062 74.2188 42 74.2188
Q49.125 74.2188 55.5469 72.4531
Q61.9688 70.7031 67.3906 67.2812
L67.3906 56.7812
Q61.9219 61.4219 55.7656 63.7656
Q49.6094 66.1094 42.8281 66.1094
Q29.4375 66.1094 22.7188 58.6406
Q16.0156 51.1719 16.0156 36.375
Q16.0156 21.625 22.7188 14.1562
Q29.4375 6.6875 42.8281 6.6875
Q48.0469 6.6875 52.1406 7.59375
Q56.25 8.5 59.5156 10.4062" id="BitstreamVeraSans-Roman-47"/>
      </defs>
      <g transform="translate(324.794542763 393.15440625)rotate(-90.0)scale(0.07 -0.07)">
       <use xlink:href="#BitstreamVeraSans-Roman-47"/>
       <use x="77.490234375" xlink:href="#BitstreamVeraSans-Roman-65"/>
       <use x="139.013671875" xlink:href="#BitstreamVeraSans-Roman-6c"/>
       <use x="166.796875" xlink:href="#BitstreamVeraSans-Roman-6c"/>
       <use x="194.580078125" xlink:href="#BitstreamVeraSans-Roman-65"/>
       <use x="256.103515625" xlink:href="#BitstreamVeraSans-Roman-72"/>
      </g>
     </g>
    </g>
    <g id="xtick_7">
     <g id="line2d_76">
      <g>
       <use style="stroke:#000000;stroke-width:0.5;" x="369.852453947" xlink:href="#m93b0483c22" y="368.74175"/>
      </g>
     </g>
     <g id="line2d_77">
      <g>
       <use style="stroke:#000000;stroke-width:0.5;" x="369.852453947" xlink:href="#m741efc42ff" y="23.14175"/>
      </g>
     </g>
     <g id="text_7">
      <!-- Geller Cooperator -->
      <g transform="translate(371.784016447 435.04940625)rotate(-90.0)scale(0.07 -0.07)">
       <use xlink:href="#BitstreamVeraSans-Roman-47"/>
       <use x="77.490234375" xlink:href="#BitstreamVeraSans-Roman-65"/>
       <use x="139.013671875" xlink:href="#BitstreamVeraSans-Roman-6c"/>
       <use x="166.796875" xlink:href="#BitstreamVeraSans-Roman-6c"/>
       <use x="194.580078125" xlink:href="#BitstreamVeraSans-Roman-65"/>
       <use x="256.103515625" xlink:href="#BitstreamVeraSans-Roman-72"/>
       <use x="297.216796875" xlink:href="#BitstreamVeraSans-Roman-20"/>
       <use x="329.00390625" xlink:href="#BitstreamVeraSans-Roman-43"/>
       <use x="398.828125" xlink:href="#BitstreamVeraSans-Roman-6f"/>
       <use x="460.009765625" xlink:href="#BitstreamVeraSans-Roman-6f"/>
       <use x="521.19140625" xlink:href="#BitstreamVeraSans-Roman-70"/>
       <use x="584.66796875" xlink:href="#BitstreamVeraSans-Roman-65"/>
       <use x="646.19140625" xlink:href="#BitstreamVeraSans-Roman-72"/>
       <use x="687.3046875" xlink:href="#BitstreamVeraSans-Roman-61"/>
       <use x="748.583984375" xlink:href="#BitstreamVeraSans-Roman-74"/>
       <use x="787.79296875" xlink:href="#BitstreamVeraSans-Roman-6f"/>
       <use x="848.974609375" xlink:href="#BitstreamVeraSans-Roman-72"/>
      </g>
     </g>
    </g>
    <g id="xtick_8">
     <g id="line2d_78">
      <g>
       <use style="stroke:#000000;stroke-width:0.5;" x="416.841927632" xlink:href="#m93b0483c22" y="368.74175"/>
      </g>
     </g>
     <g id="line2d_79">
      <g>
       <use style="stroke:#000000;stroke-width:0.5;" x="416.841927632" xlink:href="#m741efc42ff" y="23.14175"/>
      </g>
     </g>
     <g id="text_8">
      <!-- Darwin -->
      <defs>
       <path d="
M4.20312 54.6875
L13.1875 54.6875
L24.4219 12.0156
L35.5938 54.6875
L46.1875 54.6875
L57.4219 12.0156
L68.6094 54.6875
L77.5938 54.6875
L63.2812 0
L52.6875 0
L40.9219 44.8281
L29.1094 0
L18.5 0
z
" id="BitstreamVeraSans-Roman-77"/>
       <path d="
M19.6719 64.7969
L19.6719 8.10938
L31.5938 8.10938
Q46.6875 8.10938 53.6875 14.9375
Q60.6875 21.7812 60.6875 36.5312
Q60.6875 51.1719 53.6875 57.9844
Q46.6875 64.7969 31.5938 64.7969
z

M9.8125 72.9062
L30.0781 72.9062
Q51.2656 72.9062 61.1719 64.0938
Q71.0938 55.2812 71.0938 36.5312
Q71.0938 17.6719 61.125 8.82812
Q51.1719 0 30.0781 0
L9.8125 0
z
" id="BitstreamVeraSans-Roman-44"/>
      </defs>
      <g transform="translate(418.773490132 396.1239375)rotate(-90.0)scale(0.07 -0.07)">
       <use xlink:href="#BitstreamVeraSans-Roman-44"/>
       <use x="77.001953125" xlink:href="#BitstreamVeraSans-Roman-61"/>
       <use x="138.28125" xlink:href="#BitstreamVeraSans-Roman-72"/>
       <use x="179.39453125" xlink:href="#BitstreamVeraSans-Roman-77"/>
       <use x="261.181640625" xlink:href="#BitstreamVeraSans-Roman-69"/>
       <use x="288.96484375" xlink:href="#BitstreamVeraSans-Roman-6e"/>
      </g>
     </g>
    </g>
    <g id="xtick_9">
     <g id="line2d_80">
      <g>
       <use style="stroke:#000000;stroke-width:0.5;" x="463.831401316" xlink:href="#m93b0483c22" y="368.74175"/>
      </g>
     </g>
     <g id="line2d_81">
      <g>
       <use style="stroke:#000000;stroke-width:0.5;" x="463.831401316" xlink:href="#m741efc42ff" y="23.14175"/>
      </g>
     </g>
     <g id="text_9">
      <!-- Geller Defector -->
      <defs>
       <path d="
M37.1094 75.9844
L37.1094 68.5
L28.5156 68.5
Q23.6875 68.5 21.7969 66.5469
Q19.9219 64.5938 19.9219 59.5156
L19.9219 54.6875
L34.7188 54.6875
L34.7188 47.7031
L19.9219 47.7031
L19.9219 0
L10.8906 0
L10.8906 47.7031
L2.29688 47.7031
L2.29688 54.6875
L10.8906 54.6875
L10.8906 58.5
Q10.8906 67.625 15.1406 71.7969
Q19.3906 75.9844 28.6094 75.9844
z
" id="BitstreamVeraSans-Roman-66"/>
      </defs>
      <g transform="translate(465.762963816 425.99425)rotate(-90.0)scale(0.07 -0.07)">
       <use xlink:href="#BitstreamVeraSans-Roman-47"/>
       <use x="77.490234375" xlink:href="#BitstreamVeraSans-Roman-65"/>
       <use x="139.013671875" xlink:href="#BitstreamVeraSans-Roman-6c"/>
       <use x="166.796875" xlink:href="#BitstreamVeraSans-Roman-6c"/>
       <use x="194.580078125" xlink:href="#BitstreamVeraSans-Roman-65"/>
       <use x="256.103515625" xlink:href="#BitstreamVeraSans-Roman-72"/>
       <use x="297.216796875" xlink:href="#BitstreamVeraSans-Roman-20"/>
       <use x="329.00390625" xlink:href="#BitstreamVeraSans-Roman-44"/>
       <use x="406.005859375" xlink:href="#BitstreamVeraSans-Roman-65"/>
       <use x="467.529296875" xlink:href="#BitstreamVeraSans-Roman-66"/>
       <use x="502.734375" xlink:href="#BitstreamVeraSans-Roman-65"/>
       <use x="564.2578125" xlink:href="#BitstreamVeraSans-Roman-63"/>
       <use x="619.23828125" xlink:href="#BitstreamVeraSans-Roman-74"/>
       <use x="658.447265625" xlink:href="#BitstreamVeraSans-Roman-6f"/>
       <use x="719.62890625" xlink:href="#BitstreamVeraSans-Roman-72"/>
      </g>
     </g>
    </g>
    <g id="xtick_10">
     <g id="line2d_82">
      <g>
       <use style="stroke:#000000;stroke-width:0.5;" x="510.820875" xlink:href="#m93b0483c22" y="368.74175"/>
      </g>
     </g>
     <g id="line2d_83">
      <g>
       <use style="stroke:#000000;stroke-width:0.5;" x="510.820875" xlink:href="#m741efc42ff" y="23.14175"/>
      </g>
     </g>
    </g>
   </g>
   <g id="matplotlib.axis_2">
    <g id="ytick_1">
     <g id="line2d_84">
      <defs>
       <path d="
M0 0
L4 0" id="m728421d6d4" style="stroke:#000000;stroke-width:0.5;"/>
      </defs>
      <g>
       <use style="stroke:#000000;stroke-width:0.5;" x="64.420875" xlink:href="#m728421d6d4" y="368.74175"/>
      </g>
     </g>
     <g id="line2d_85">
      <defs>
       <path d="
M0 0
L-4 0" id="mcb0005524f" style="stroke:#000000;stroke-width:0.5;"/>
      </defs>
      <g>
       <use style="stroke:#000000;stroke-width:0.5;" x="510.820875" xlink:href="#mcb0005524f" y="368.74175"/>
      </g>
     </g>
     <g id="text_10">
      <!-- 0 -->
      <defs>
       <path d="
M31.7812 66.4062
Q24.1719 66.4062 20.3281 58.9062
Q16.5 51.4219 16.5 36.375
Q16.5 21.3906 20.3281 13.8906
Q24.1719 6.39062 31.7812 6.39062
Q39.4531 6.39062 43.2812 13.8906
Q47.125 21.3906 47.125 36.375
Q47.125 51.4219 43.2812 58.9062
Q39.4531 66.4062 31.7812 66.4062
M31.7812 74.2188
Q44.0469 74.2188 50.5156 64.5156
Q56.9844 54.8281 56.9844 36.375
Q56.9844 17.9688 50.5156 8.26562
Q44.0469 -1.42188 31.7812 -1.42188
Q19.5312 -1.42188 13.0625 8.26562
Q6.59375 17.9688 6.59375 36.375
Q6.59375 54.8281 13.0625 64.5156
Q19.5312 74.2188 31.7812 74.2188" id="BitstreamVeraSans-Roman-30"/>
      </defs>
      <g transform="translate(56.89353125 370.6733125)scale(0.07 -0.07)">
       <use xlink:href="#BitstreamVeraSans-Roman-30"/>
      </g>
     </g>
    </g>
    <g id="ytick_2">
     <g id="line2d_86">
      <g>
       <use style="stroke:#000000;stroke-width:0.5;" x="64.420875" xlink:href="#m728421d6d4" y="299.62175"/>
      </g>
     </g>
     <g id="line2d_87">
      <g>
       <use style="stroke:#000000;stroke-width:0.5;" x="510.820875" xlink:href="#mcb0005524f" y="299.62175"/>
      </g>
     </g>
     <g id="text_11">
      <!-- 1 -->
      <defs>
       <path d="
M12.4062 8.29688
L28.5156 8.29688
L28.5156 63.9219
L10.9844 60.4062
L10.9844 69.3906
L28.4219 72.9062
L38.2812 72.9062
L38.2812 8.29688
L54.3906 8.29688
L54.3906 0
L12.4062 0
z
" id="BitstreamVeraSans-Roman-31"/>
      </defs>
      <g transform="translate(57.3824375 301.5533125)scale(0.07 -0.07)">
       <use xlink:href="#BitstreamVeraSans-Roman-31"/>
      </g>
     </g>
    </g>
    <g id="ytick_3">
     <g id="line2d_88">
      <g>
       <use style="stroke:#000000;stroke-width:0.5;" x="64.420875" xlink:href="#m728421d6d4" y="230.50175"/>
      </g>
     </g>
     <g id="line2d_89">
      <g>
       <use style="stroke:#000000;stroke-width:0.5;" x="510.820875" xlink:href="#mcb0005524f" y="230.50175"/>
      </g>
     </g>
     <g id="text_12">
      <!-- 2 -->
      <defs>
       <path d="
M19.1875 8.29688
L53.6094 8.29688
L53.6094 0
L7.32812 0
L7.32812 8.29688
Q12.9375 14.1094 22.625 23.8906
Q32.3281 33.6875 34.8125 36.5312
Q39.5469 41.8438 41.4219 45.5312
Q43.3125 49.2188 43.3125 52.7812
Q43.3125 58.5938 39.2344 62.25
Q35.1562 65.9219 28.6094 65.9219
Q23.9688 65.9219 18.8125 64.3125
Q13.6719 62.7031 7.8125 59.4219
L7.8125 69.3906
Q13.7656 71.7812 18.9375 73
Q24.125 74.2188 28.4219 74.2188
Q39.75 74.2188 46.4844 68.5469
Q53.2188 62.8906 53.2188 53.4219
Q53.2188 48.9219 51.5312 44.8906
Q49.8594 40.875 45.4062 35.4062
Q44.1875 33.9844 37.6406 27.2188
Q31.1094 20.4531 19.1875 8.29688" id="BitstreamVeraSans-Roman-32"/>
      </defs>
      <g transform="translate(57.1811875 232.4333125)scale(0.07 -0.07)">
       <use xlink:href="#BitstreamVeraSans-Roman-32"/>
      </g>
     </g>
    </g>
    <g id="ytick_4">
     <g id="line2d_90">
      <g>
       <use style="stroke:#000000;stroke-width:0.5;" x="64.420875" xlink:href="#m728421d6d4" y="161.38175"/>
      </g>
     </g>
     <g id="line2d_91">
      <g>
       <use style="stroke:#000000;stroke-width:0.5;" x="510.820875" xlink:href="#mcb0005524f" y="161.38175"/>
      </g>
     </g>
     <g id="text_13">
      <!-- 3 -->
      <defs>
       <path d="
M40.5781 39.3125
Q47.6562 37.7969 51.625 33
Q55.6094 28.2188 55.6094 21.1875
Q55.6094 10.4062 48.1875 4.48438
Q40.7656 -1.42188 27.0938 -1.42188
Q22.5156 -1.42188 17.6562 -0.515625
Q12.7969 0.390625 7.625 2.20312
L7.625 11.7188
Q11.7188 9.32812 16.5938 8.10938
Q21.4844 6.89062 26.8125 6.89062
Q36.0781 6.89062 40.9375 10.5469
Q45.7969 14.2031 45.7969 21.1875
Q45.7969 27.6406 41.2812 31.2656
Q36.7656 34.9062 28.7188 34.9062
L20.2188 34.9062
L20.2188 43.0156
L29.1094 43.0156
Q36.375 43.0156 40.2344 45.9219
Q44.0938 48.8281 44.0938 54.2969
Q44.0938 59.9062 40.1094 62.9062
Q36.1406 65.9219 28.7188 65.9219
Q24.6562 65.9219 20.0156 65.0312
Q15.375 64.1562 9.8125 62.3125
L9.8125 71.0938
Q15.4375 72.6562 20.3438 73.4375
Q25.25 74.2188 29.5938 74.2188
Q40.8281 74.2188 47.3594 69.1094
Q53.9062 64.0156 53.9062 55.3281
Q53.9062 49.2656 50.4375 45.0938
Q46.9688 40.9219 40.5781 39.3125" id="BitstreamVeraSans-Roman-33"/>
      </defs>
      <g transform="translate(57.06196875 163.3133125)scale(0.07 -0.07)">
       <use xlink:href="#BitstreamVeraSans-Roman-33"/>
      </g>
     </g>
    </g>
    <g id="ytick_5">
     <g id="line2d_92">
      <g>
       <use style="stroke:#000000;stroke-width:0.5;" x="64.420875" xlink:href="#m728421d6d4" y="92.26175"/>
      </g>
     </g>
     <g id="line2d_93">
      <g>
       <use style="stroke:#000000;stroke-width:0.5;" x="510.820875" xlink:href="#mcb0005524f" y="92.26175"/>
      </g>
     </g>
     <g id="text_14">
      <!-- 4 -->
      <defs>
       <path d="
M37.7969 64.3125
L12.8906 25.3906
L37.7969 25.3906
z

M35.2031 72.9062
L47.6094 72.9062
L47.6094 25.3906
L58.0156 25.3906
L58.0156 17.1875
L47.6094 17.1875
L47.6094 0
L37.7969 0
L37.7969 17.1875
L4.89062 17.1875
L4.89062 26.7031
z
" id="BitstreamVeraSans-Roman-34"/>
      </defs>
      <g transform="translate(56.702125 94.1933125)scale(0.07 -0.07)">
       <use xlink:href="#BitstreamVeraSans-Roman-34"/>
      </g>
     </g>
    </g>
    <g id="ytick_6">
     <g id="line2d_94">
      <g>
       <use style="stroke:#000000;stroke-width:0.5;" x="64.420875" xlink:href="#m728421d6d4" y="23.14175"/>
      </g>
     </g>
     <g id="line2d_95">
      <g>
       <use style="stroke:#000000;stroke-width:0.5;" x="510.820875" xlink:href="#mcb0005524f" y="23.14175"/>
      </g>
     </g>
     <g id="text_15">
      <!-- 5 -->
      <defs>
       <path d="
M10.7969 72.9062
L49.5156 72.9062
L49.5156 64.5938
L19.8281 64.5938
L19.8281 46.7344
Q21.9688 47.4688 24.1094 47.8281
Q26.2656 48.1875 28.4219 48.1875
Q40.625 48.1875 47.75 41.5
Q54.8906 34.8125 54.8906 23.3906
Q54.8906 11.625 47.5625 5.09375
Q40.2344 -1.42188 26.9062 -1.42188
Q22.3125 -1.42188 17.5469 -0.640625
Q12.7969 0.140625 7.71875 1.70312
L7.71875 11.625
Q12.1094 9.23438 16.7969 8.0625
Q21.4844 6.89062 26.7031 6.89062
Q35.1562 6.89062 40.0781 11.3281
Q45.0156 15.7656 45.0156 23.3906
Q45.0156 31 40.0781 35.4375
Q35.1562 39.8906 26.7031 39.8906
Q22.75 39.8906 18.8125 39.0156
Q14.8906 38.1406 10.7969 36.2812
z
" id="BitstreamVeraSans-Roman-35"/>
      </defs>
      <g transform="translate(57.11884375 25.0733125)scale(0.07 -0.07)">
       <use xlink:href="#BitstreamVeraSans-Roman-35"/>
      </g>
     </g>
    </g>
   </g>
   <g id="text_16">
    <!-- Mean score per stage game over 200 rounds repeated 10 times (9 strategies) -->
    <defs>
     <path d="
M8.01562 75.875
L15.8281 75.875
Q23.1406 64.3594 26.7812 53.3125
Q30.4219 42.2812 30.4219 31.3906
Q30.4219 20.4531 26.7812 9.375
Q23.1406 -1.70312 15.8281 -13.1875
L8.01562 -13.1875
Q14.5 -2 17.7031 9.0625
Q20.9062 20.125 20.9062 31.3906
Q20.9062 42.6719 17.7031 53.6562
Q14.5 64.6562 8.01562 75.875" id="BitstreamVeraSans-Roman-29"/>
     <path d="
M52 44.1875
Q55.375 50.25 60.0625 53.125
Q64.75 56 71.0938 56
Q79.6406 56 84.2812 50.0156
Q88.9219 44.0469 88.9219 33.0156
L88.9219 0
L79.8906 0
L79.8906 32.7188
Q79.8906 40.5781 77.0938 44.375
Q74.3125 48.1875 68.6094 48.1875
Q61.625 48.1875 57.5625 43.5469
Q53.5156 38.9219 53.5156 30.9062
L53.5156 0
L44.4844 0
L44.4844 32.7188
Q44.4844 40.625 41.7031 44.4062
Q38.9219 48.1875 33.1094 48.1875
Q26.2188 48.1875 22.1562 43.5312
Q18.1094 38.875 18.1094 30.9062
L18.1094 0
L9.07812 0
L9.07812 54.6875
L18.1094 54.6875
L18.1094 46.1875
Q21.1875 51.2188 25.4844 53.6094
Q29.7812 56 35.6875 56
Q41.6562 56 45.8281 52.9688
Q50 49.9531 52 44.1875" id="BitstreamVeraSans-Roman-6d"/>
     <path d="
M10.9844 1.51562
L10.9844 10.5
Q14.7031 8.73438 18.5 7.8125
Q22.3125 6.89062 25.9844 6.89062
Q35.75 6.89062 40.8906 13.4531
Q46.0469 20.0156 46.7812 33.4062
Q43.9531 29.2031 39.5938 26.9531
Q35.25 24.7031 29.9844 24.7031
Q19.0469 24.7031 12.6719 31.3125
Q6.29688 37.9375 6.29688 49.4219
Q6.29688 60.6406 12.9375 67.4219
Q19.5781 74.2188 30.6094 74.2188
Q43.2656 74.2188 49.9219 64.5156
Q56.5938 54.8281 56.5938 36.375
Q56.5938 19.1406 48.4062 8.85938
Q40.2344 -1.42188 26.4219 -1.42188
Q22.7031 -1.42188 18.8906 -0.6875
Q15.0938 0.046875 10.9844 1.51562
M30.6094 32.4219
Q37.25 32.4219 41.125 36.9531
Q45.0156 41.5 45.0156 49.4219
Q45.0156 57.2812 41.125 61.8438
Q37.25 66.4062 30.6094 66.4062
Q23.9688 66.4062 20.0938 61.8438
Q16.2188 57.2812 16.2188 49.4219
Q16.2188 41.5 20.0938 36.9531
Q23.9688 32.4219 30.6094 32.4219" id="BitstreamVeraSans-Roman-39"/>
     <path d="
M31 75.875
Q24.4688 64.6562 21.2812 53.6562
Q18.1094 42.6719 18.1094 31.3906
Q18.1094 20.125 21.3125 9.0625
Q24.5156 -2 31 -13.1875
L23.1875 -13.1875
Q15.875 -1.70312 12.2344 9.375
Q8.59375 20.4531 8.59375 31.3906
Q8.59375 42.2812 12.2031 53.3125
Q15.8281 64.3594 23.1875 75.875
z
" id="BitstreamVeraSans-Roman-28"/>
     <path d="
M2.98438 54.6875
L12.5 54.6875
L29.5938 8.79688
L46.6875 54.6875
L56.2031 54.6875
L35.6875 0
L23.4844 0
z
" id="BitstreamVeraSans-Roman-76"/>
     <path d="
M45.4062 27.9844
Q45.4062 37.75 41.375 43.1094
Q37.3594 48.4844 30.0781 48.4844
Q22.8594 48.4844 18.8281 43.1094
Q14.7969 37.75 14.7969 27.9844
Q14.7969 18.2656 18.8281 12.8906
Q22.8594 7.51562 30.0781 7.51562
Q37.3594 7.51562 41.375 12.8906
Q45.4062 18.2656 45.4062 27.9844
M54.3906 6.78125
Q54.3906 -7.17188 48.1875 -13.9844
Q42 -20.7969 29.2031 -20.7969
Q24.4688 -20.7969 20.2656 -20.0938
Q16.0625 -19.3906 12.1094 -17.9219
L12.1094 -9.1875
Q16.0625 -11.3281 19.9219 -12.3438
Q23.7812 -13.375 27.7812 -13.375
Q36.625 -13.375 41.0156 -8.76562
Q45.4062 -4.15625 45.4062 5.17188
L45.4062 9.625
Q42.625 4.78125 38.2812 2.39062
Q33.9375 0 27.875 0
Q17.8281 0 11.6719 7.65625
Q5.51562 15.3281 5.51562 27.9844
Q5.51562 40.6719 11.6719 48.3281
Q17.8281 56 27.875 56
Q33.9375 56 38.2812 53.6094
Q42.625 51.2188 45.4062 46.3906
L45.4062 54.6875
L54.3906 54.6875
z
" id="BitstreamVeraSans-Roman-67"/>
     <path d="
M8.5 21.5781
L8.5 54.6875
L17.4844 54.6875
L17.4844 21.9219
Q17.4844 14.1562 20.5 10.2656
Q23.5312 6.39062 29.5938 6.39062
Q36.8594 6.39062 41.0781 11.0312
Q45.3125 15.6719 45.3125 23.6875
L45.3125 54.6875
L54.2969 54.6875
L54.2969 0
L45.3125 0
L45.3125 8.40625
Q42.0469 3.42188 37.7188 1
Q33.4062 -1.42188 27.6875 -1.42188
Q18.2656 -1.42188 13.375 4.4375
Q8.5 10.2969 8.5 21.5781" id="BitstreamVeraSans-Roman-75"/>
     <path d="
M44.2812 53.0781
L44.2812 44.5781
Q40.4844 46.5312 36.375 47.5
Q32.2812 48.4844 27.875 48.4844
Q21.1875 48.4844 17.8438 46.4375
Q14.5 44.3906 14.5 40.2812
Q14.5 37.1562 16.8906 35.375
Q19.2812 33.5938 26.5156 31.9844
L29.5938 31.2969
Q39.1562 29.25 43.1875 25.5156
Q47.2188 21.7812 47.2188 15.0938
Q47.2188 7.46875 41.1875 3.01562
Q35.1562 -1.42188 24.6094 -1.42188
Q20.2188 -1.42188 15.4531 -0.5625
Q10.6875 0.296875 5.42188 2
L5.42188 11.2812
Q10.4062 8.6875 15.2344 7.39062
Q20.0625 6.10938 24.8125 6.10938
Q31.1562 6.10938 34.5625 8.28125
Q37.9844 10.4531 37.9844 14.4062
Q37.9844 18.0625 35.5156 20.0156
Q33.0625 21.9688 24.7031 23.7812
L21.5781 24.5156
Q13.2344 26.2656 9.51562 29.9062
Q5.8125 33.5469 5.8125 39.8906
Q5.8125 47.6094 11.2812 51.7969
Q16.75 56 26.8125 56
Q31.7812 56 36.1719 55.2656
Q40.5781 54.5469 44.2812 53.0781" id="BitstreamVeraSans-Roman-73"/>
    </defs>
    <g transform="translate(7.2 18.14175)scale(0.144 -0.144)">
     <use xlink:href="#BitstreamVeraSans-Roman-4d"/>
     <use x="86.279296875" xlink:href="#BitstreamVeraSans-Roman-65"/>
     <use x="147.802734375" xlink:href="#BitstreamVeraSans-Roman-61"/>
     <use x="209.08203125" xlink:href="#BitstreamVeraSans-Roman-6e"/>
     <use x="272.4609375" xlink:href="#BitstreamVeraSans-Roman-20"/>
     <use x="304.248046875" xlink:href="#BitstreamVeraSans-Roman-73"/>
     <use x="356.34765625" xlink:href="#BitstreamVeraSans-Roman-63"/>
     <use x="411.328125" xlink:href="#BitstreamVeraSans-Roman-6f"/>
     <use x="472.509765625" xlink:href="#BitstreamVeraSans-Roman-72"/>
     <use x="511.373046875" xlink:href="#BitstreamVeraSans-Roman-65"/>
     <use x="572.896484375" xlink:href="#BitstreamVeraSans-Roman-20"/>
     <use x="604.68359375" xlink:href="#BitstreamVeraSans-Roman-70"/>
     <use x="668.16015625" xlink:href="#BitstreamVeraSans-Roman-65"/>
     <use x="729.68359375" xlink:href="#BitstreamVeraSans-Roman-72"/>
     <use x="770.796875" xlink:href="#BitstreamVeraSans-Roman-20"/>
     <use x="802.583984375" xlink:href="#BitstreamVeraSans-Roman-73"/>
     <use x="854.68359375" xlink:href="#BitstreamVeraSans-Roman-74"/>
     <use x="893.892578125" xlink:href="#BitstreamVeraSans-Roman-61"/>
     <use x="955.171875" xlink:href="#BitstreamVeraSans-Roman-67"/>
     <use x="1018.6484375" xlink:href="#BitstreamVeraSans-Roman-65"/>
     <use x="1080.171875" xlink:href="#BitstreamVeraSans-Roman-20"/>
     <use x="1111.95898438" xlink:href="#BitstreamVeraSans-Roman-67"/>
     <use x="1175.43554688" xlink:href="#BitstreamVeraSans-Roman-61"/>
     <use x="1236.71484375" xlink:href="#BitstreamVeraSans-Roman-6d"/>
     <use x="1334.12695312" xlink:href="#BitstreamVeraSans-Roman-65"/>
     <use x="1395.65039062" xlink:href="#BitstreamVeraSans-Roman-20"/>
     <use x="1427.4375" xlink:href="#BitstreamVeraSans-Roman-6f"/>
     <use x="1488.61914062" xlink:href="#BitstreamVeraSans-Roman-76"/>
     <use x="1547.79882812" xlink:href="#BitstreamVeraSans-Roman-65"/>
     <use x="1609.32226562" xlink:href="#BitstreamVeraSans-Roman-72"/>
     <use x="1650.43554688" xlink:href="#BitstreamVeraSans-Roman-20"/>
     <use x="1682.22265625" xlink:href="#BitstreamVeraSans-Roman-32"/>
     <use x="1745.84570312" xlink:href="#BitstreamVeraSans-Roman-30"/>
     <use x="1809.46875" xlink:href="#BitstreamVeraSans-Roman-30"/>
     <use x="1873.09179688" xlink:href="#BitstreamVeraSans-Roman-20"/>
     <use x="1904.87890625" xlink:href="#BitstreamVeraSans-Roman-72"/>
     <use x="1943.7421875" xlink:href="#BitstreamVeraSans-Roman-6f"/>
     <use x="2004.92382812" xlink:href="#BitstreamVeraSans-Roman-75"/>
     <use x="2068.30273438" xlink:href="#BitstreamVeraSans-Roman-6e"/>
     <use x="2131.68164062" xlink:href="#BitstreamVeraSans-Roman-64"/>
     <use x="2195.15820312" xlink:href="#BitstreamVeraSans-Roman-73"/>
     <use x="2247.2578125" xlink:href="#BitstreamVeraSans-Roman-20"/>
     <use x="2279.04492188" xlink:href="#BitstreamVeraSans-Roman-72"/>
     <use x="2317.90820312" xlink:href="#BitstreamVeraSans-Roman-65"/>
     <use x="2379.43164062" xlink:href="#BitstreamVeraSans-Roman-70"/>
     <use x="2442.90820312" xlink:href="#BitstreamVeraSans-Roman-65"/>
     <use x="2504.43164062" xlink:href="#BitstreamVeraSans-Roman-61"/>
     <use x="2565.7109375" xlink:href="#BitstreamVeraSans-Roman-74"/>
     <use x="2604.91992188" xlink:href="#BitstreamVeraSans-Roman-65"/>
     <use x="2666.44335938" xlink:href="#BitstreamVeraSans-Roman-64"/>
     <use x="2729.91992188" xlink:href="#BitstreamVeraSans-Roman-20"/>
     <use x="2761.70703125" xlink:href="#BitstreamVeraSans-Roman-31"/>
     <use x="2825.33007812" xlink:href="#BitstreamVeraSans-Roman-30"/>
     <use x="2888.953125" xlink:href="#BitstreamVeraSans-Roman-20"/>
     <use x="2920.74023438" xlink:href="#BitstreamVeraSans-Roman-74"/>
     <use x="2959.94921875" xlink:href="#BitstreamVeraSans-Roman-69"/>
     <use x="2987.73242188" xlink:href="#BitstreamVeraSans-Roman-6d"/>
     <use x="3085.14453125" xlink:href="#BitstreamVeraSans-Roman-65"/>
     <use x="3146.66796875" xlink:href="#BitstreamVeraSans-Roman-73"/>
     <use x="3198.76757812" xlink:href="#BitstreamVeraSans-Roman-20"/>
     <use x="3230.5546875" xlink:href="#BitstreamVeraSans-Roman-28"/>
     <use x="3269.56835938" xlink:href="#BitstreamVeraSans-Roman-39"/>
     <use x="3333.19140625" xlink:href="#BitstreamVeraSans-Roman-20"/>
     <use x="3364.97851562" xlink:href="#BitstreamVeraSans-Roman-73"/>
     <use x="3417.078125" xlink:href="#BitstreamVeraSans-Roman-74"/>
     <use x="3456.28710938" xlink:href="#BitstreamVeraSans-Roman-72"/>
     <use x="3497.40039062" xlink:href="#BitstreamVeraSans-Roman-61"/>
     <use x="3558.6796875" xlink:href="#BitstreamVeraSans-Roman-74"/>
     <use x="3597.88867188" xlink:href="#BitstreamVeraSans-Roman-65"/>
     <use x="3659.41210938" xlink:href="#BitstreamVeraSans-Roman-67"/>
     <use x="3722.88867188" xlink:href="#BitstreamVeraSans-Roman-69"/>
     <use x="3750.671875" xlink:href="#BitstreamVeraSans-Roman-65"/>
     <use x="3812.1953125" xlink:href="#BitstreamVeraSans-Roman-73"/>
     <use x="3864.29492188" xlink:href="#BitstreamVeraSans-Roman-29"/>
    </g>
   </g>
  </g>
 </g>
 <defs>
  <clipPath id="p266791b7bf">
   <rect height="345.6" width="446.4" x="64.420875" y="23.14175"/>
  </clipPath>
 </defs>
</svg>
