<?xml version="1.0" encoding="utf-8" standalone="no"?>
<!DOCTYPE svg PUBLIC "-//W3C//DTD SVG 1.1//EN"
  "http://www.w3.org/Graphics/SVG/1.1/DTD/svg11.dtd">
<!-- Created with matplotlib (http://matplotlib.org/) -->
<svg height="471pt" version="1.1" viewBox="0 0 693 471" width="693pt" xmlns="http://www.w3.org/2000/svg" xmlns:xlink="http://www.w3.org/1999/xlink">
 <defs>
  <style type="text/css">
*{stroke-linecap:butt;stroke-linejoin:round;stroke-miterlimit:100000;}
  </style>
 </defs>
 <g id="figure_1">
  <g id="patch_1">
   <path d="M 0 471.568 
L 693.09 471.568 
L 693.09 0 
L 0 0 
z
" style="fill:#ffffff;"/>
  </g>
  <g id="axes_1">
   <g id="patch_2">
    <path d="M 16.29 368.74175 
L 685.89 368.74175 
L 685.89 23.14175 
L 16.29 23.14175 
z
" style="fill:#ffffff;"/>
   </g>
   <g id="PolyCollection_1">
    <defs>
     <path d="M 92.380909 -419.62625 
L 61.944545 -419.62625 
L 61.944545 -419.62625 
L 61.944545 -419.62625 
L 61.944545 -419.62625 
L 61.944545 -419.62625 
L 61.944545 -419.62625 
L 61.944545 -419.62625 
L 61.944545 -419.62625 
L 61.944545 -419.62625 
L 61.944545 -419.62625 
L 61.944545 -419.62625 
L 61.944545 -419.62625 
L 61.944545 -419.62625 
L 61.944545 -419.62625 
L 61.944545 -419.62625 
L 61.944545 -419.62625 
L 61.944545 -419.62625 
L 61.944545 -419.62625 
L 61.944545 -419.62625 
L 61.944545 -419.62625 
L 61.944545 -419.62625 
L 61.944545 -419.62625 
L 61.944545 -419.62625 
L 61.944545 -419.62625 
L 61.944545 -419.62625 
L 61.944545 -419.62625 
L 61.944545 -419.62625 
L 61.944545 -419.62625 
L 61.944545 -419.62625 
L 61.944545 -419.62625 
L 61.944545 -419.62625 
L 61.944545 -419.62625 
L 61.944545 -419.62625 
L 61.944545 -419.62625 
L 61.944545 -419.62625 
L 61.944545 -419.62625 
L 61.944545 -419.62625 
L 61.944545 -419.62625 
L 61.944545 -419.62625 
L 61.944545 -419.62625 
L 61.944545 -419.62625 
L 61.944545 -419.62625 
L 61.944545 -419.62625 
L 61.944545 -419.62625 
L 61.944545 -419.62625 
L 61.944545 -419.62625 
L 61.944545 -419.62625 
L 61.944545 -419.62625 
L 61.944545 -419.62625 
L 61.944545 -419.62625 
L 61.944545 -419.62625 
L 61.944545 -419.62625 
L 61.944545 -419.62625 
L 61.944545 -419.62625 
L 61.944545 -419.62625 
L 61.944545 -419.62625 
L 61.944545 -419.62625 
L 61.944545 -419.62625 
L 61.944545 -419.62625 
L 61.944545 -419.62625 
L 61.944545 -419.62625 
L 61.944545 -419.62625 
L 61.944545 -419.62625 
L 61.944545 -419.62625 
L 61.944545 -419.62625 
L 61.944545 -419.62625 
L 61.944545 -419.62625 
L 61.944545 -419.62625 
L 61.944545 -419.62625 
L 61.944545 -419.62625 
L 61.944545 -419.62625 
L 61.944545 -419.62625 
L 61.944545 -419.62625 
L 61.944545 -419.62625 
L 61.944545 -419.62625 
L 61.944545 -419.62625 
L 61.944545 -419.62625 
L 61.944545 -419.62625 
L 61.944545 -419.62625 
L 61.944545 -419.62625 
L 61.944545 -419.62625 
L 61.944545 -419.62625 
L 61.944545 -419.62625 
L 61.944545 -419.62625 
L 61.944545 -419.62625 
L 61.944545 -419.62625 
L 61.944545 -419.62625 
L 61.944545 -419.62625 
L 61.944545 -419.62625 
L 61.944545 -419.62625 
L 61.944545 -419.62625 
L 61.944545 -419.62625 
L 61.944545 -419.62625 
L 61.944545 -419.62625 
L 61.944545 -419.62625 
L 61.944545 -419.62625 
L 61.944545 -419.62625 
L 61.944545 -419.62625 
L 61.944545 -419.62625 
L 61.944545 -419.62625 
L 92.380909 -419.62625 
L 92.380909 -419.62625 
L 92.380909 -419.62625 
L 92.380909 -419.62625 
L 92.380909 -419.62625 
L 92.380909 -419.62625 
L 92.380909 -419.62625 
L 92.380909 -419.62625 
L 92.380909 -419.62625 
L 92.380909 -419.62625 
L 92.380909 -419.62625 
L 92.380909 -419.62625 
L 92.380909 -419.62625 
L 92.380909 -419.62625 
L 92.380909 -419.62625 
L 92.380909 -419.62625 
L 92.380909 -419.62625 
L 92.380909 -419.62625 
L 92.380909 -419.62625 
L 92.380909 -419.62625 
L 92.380909 -419.62625 
L 92.380909 -419.62625 
L 92.380909 -419.62625 
L 92.380909 -419.62625 
L 92.380909 -419.62625 
L 92.380909 -419.62625 
L 92.380909 -419.62625 
L 92.380909 -419.62625 
L 92.380909 -419.62625 
L 92.380909 -419.62625 
L 92.380909 -419.62625 
L 92.380909 -419.62625 
L 92.380909 -419.62625 
L 92.380909 -419.62625 
L 92.380909 -419.62625 
L 92.380909 -419.62625 
L 92.380909 -419.62625 
L 92.380909 -419.62625 
L 92.380909 -419.62625 
L 92.380909 -419.62625 
L 92.380909 -419.62625 
L 92.380909 -419.62625 
L 92.380909 -419.62625 
L 92.380909 -419.62625 
L 92.380909 -419.62625 
L 92.380909 -419.62625 
L 92.380909 -419.62625 
L 92.380909 -419.62625 
L 92.380909 -419.62625 
L 92.380909 -419.62625 
L 92.380909 -419.62625 
L 92.380909 -419.62625 
L 92.380909 -419.62625 
L 92.380909 -419.62625 
L 92.380909 -419.62625 
L 92.380909 -419.62625 
L 92.380909 -419.62625 
L 92.380909 -419.62625 
L 92.380909 -419.62625 
L 92.380909 -419.62625 
L 92.380909 -419.62625 
L 92.380909 -419.62625 
L 92.380909 -419.62625 
L 92.380909 -419.62625 
L 92.380909 -419.62625 
L 92.380909 -419.62625 
L 92.380909 -419.62625 
L 92.380909 -419.62625 
L 92.380909 -419.62625 
L 92.380909 -419.62625 
L 92.380909 -419.62625 
L 92.380909 -419.62625 
L 92.380909 -419.62625 
L 92.380909 -419.62625 
L 92.380909 -419.62625 
L 92.380909 -419.62625 
L 92.380909 -419.62625 
L 92.380909 -419.62625 
L 92.380909 -419.62625 
L 92.380909 -419.62625 
L 92.380909 -419.62625 
L 92.380909 -419.62625 
L 92.380909 -419.62625 
L 92.380909 -419.62625 
L 92.380909 -419.62625 
L 92.380909 -419.62625 
L 92.380909 -419.62625 
L 92.380909 -419.62625 
L 92.380909 -419.62625 
L 92.380909 -419.62625 
L 92.380909 -419.62625 
L 92.380909 -419.62625 
L 92.380909 -419.62625 
L 92.380909 -419.62625 
L 92.380909 -419.62625 
L 92.380909 -419.62625 
L 92.380909 -419.62625 
L 92.380909 -419.62625 
L 92.380909 -419.62625 
L 92.380909 -419.62625 
L 92.380909 -419.62625 
z
" id="m43e68e6404" style="stroke:#000000;stroke-opacity:0.3;"/>
    </defs>
    <g clip-path="url(#pa256d4ea4e)">
     <use style="fill:#bfbf00;fill-opacity:0.3;stroke:#000000;stroke-opacity:0.3;" x="0.0" xlink:href="#m43e68e6404" y="471.568"/>
    </g>
   </g>
   <g id="PolyCollection_2">
    <defs>
     <path d="M 151.446714 -362.02625 
L 124.624196 -362.02625 
L 124.5496 -362.608068 
L 124.476613 -363.189886 
L 124.40524 -363.771705 
L 124.335485 -364.353523 
L 124.267352 -364.935341 
L 124.200844 -365.517159 
L 124.135962 -366.098977 
L 124.072707 -366.680795 
L 124.011079 -367.262614 
L 123.951078 -367.844432 
L 123.892701 -368.42625 
L 123.835946 -369.008068 
L 123.780809 -369.589886 
L 123.727288 -370.171705 
L 123.675377 -370.753523 
L 123.625071 -371.335341 
L 123.576364 -371.917159 
L 123.529251 -372.498977 
L 123.483725 -373.080795 
L 123.439779 -373.662614 
L 123.397405 -374.244432 
L 123.356595 -374.82625 
L 123.317343 -375.408068 
L 123.279639 -375.989886 
L 123.243475 -376.571705 
L 123.208844 -377.153523 
L 123.175735 -377.735341 
L 123.144142 -378.317159 
L 123.114055 -378.898977 
L 123.085465 -379.480795 
L 123.058365 -380.062614 
L 123.032746 -380.644432 
L 123.008601 -381.22625 
L 122.98592 -381.808068 
L 122.964698 -382.389886 
L 122.944925 -382.971705 
L 122.926596 -383.553523 
L 122.909704 -384.135341 
L 122.894243 -384.717159 
L 122.880206 -385.298977 
L 122.867589 -385.880795 
L 122.856386 -386.462614 
L 122.846594 -387.044432 
L 122.838208 -387.62625 
L 122.831225 -388.208068 
L 122.825642 -388.789886 
L 122.821456 -389.371705 
L 122.818667 -389.953523 
L 122.817273 -390.535341 
L 122.817273 -391.117159 
L 122.818667 -391.698977 
L 122.821456 -392.280795 
L 122.825642 -392.862614 
L 122.831225 -393.444432 
L 122.838208 -394.02625 
L 122.846594 -394.608068 
L 122.856386 -395.189886 
L 122.867589 -395.771705 
L 122.880206 -396.353523 
L 122.894243 -396.935341 
L 122.909704 -397.517159 
L 122.926596 -398.098977 
L 122.944925 -398.680795 
L 122.964698 -399.262614 
L 122.98592 -399.844432 
L 123.008601 -400.42625 
L 123.032746 -401.008068 
L 123.058365 -401.589886 
L 123.085465 -402.171705 
L 123.114055 -402.753523 
L 123.144142 -403.335341 
L 123.175735 -403.917159 
L 123.208844 -404.498977 
L 123.243475 -405.080795 
L 123.279639 -405.662614 
L 123.317343 -406.244432 
L 123.356595 -406.82625 
L 123.397405 -407.408068 
L 123.439779 -407.989886 
L 123.483725 -408.571705 
L 123.529251 -409.153523 
L 123.576364 -409.735341 
L 123.625071 -410.317159 
L 123.675377 -410.898977 
L 123.727288 -411.480795 
L 123.780809 -412.062614 
L 123.835946 -412.644432 
L 123.892701 -413.22625 
L 123.951078 -413.808068 
L 124.011079 -414.389886 
L 124.072707 -414.971705 
L 124.135962 -415.553523 
L 124.200844 -416.135341 
L 124.267352 -416.717159 
L 124.335485 -417.298977 
L 124.40524 -417.880795 
L 124.476613 -418.462614 
L 124.5496 -419.044432 
L 124.624196 -419.62625 
L 151.446714 -419.62625 
L 151.446714 -419.62625 
L 151.521309 -419.044432 
L 151.594296 -418.462614 
L 151.665669 -417.880795 
L 151.735424 -417.298977 
L 151.803557 -416.717159 
L 151.870066 -416.135341 
L 151.934947 -415.553523 
L 151.998202 -414.971705 
L 152.05983 -414.389886 
L 152.119831 -413.808068 
L 152.178208 -413.22625 
L 152.234964 -412.644432 
L 152.2901 -412.062614 
L 152.343621 -411.480795 
L 152.395533 -410.898977 
L 152.445838 -410.317159 
L 152.494545 -409.735341 
L 152.541658 -409.153523 
L 152.587184 -408.571705 
L 152.63113 -407.989886 
L 152.673505 -407.408068 
L 152.714314 -406.82625 
L 152.753566 -406.244432 
L 152.79127 -405.662614 
L 152.827434 -405.080795 
L 152.862065 -404.498977 
L 152.895174 -403.917159 
L 152.926767 -403.335341 
L 152.956854 -402.753523 
L 152.985444 -402.171705 
L 153.012544 -401.589886 
L 153.038163 -401.008068 
L 153.062308 -400.42625 
L 153.084989 -399.844432 
L 153.106212 -399.262614 
L 153.125984 -398.680795 
L 153.144313 -398.098977 
L 153.161205 -397.517159 
L 153.176666 -396.935341 
L 153.190703 -396.353523 
L 153.20332 -395.771705 
L 153.214523 -395.189886 
L 153.224315 -394.608068 
L 153.232701 -394.02625 
L 153.239684 -393.444432 
L 153.245267 -392.862614 
L 153.249453 -392.280795 
L 153.252242 -391.698977 
L 153.253636 -391.117159 
L 153.253636 -390.535341 
L 153.252242 -389.953523 
L 153.249453 -389.371705 
L 153.245267 -388.789886 
L 153.239684 -388.208068 
L 153.232701 -387.62625 
L 153.224315 -387.044432 
L 153.214523 -386.462614 
L 153.20332 -385.880795 
L 153.190703 -385.298977 
L 153.176666 -384.717159 
L 153.161205 -384.135341 
L 153.144313 -383.553523 
L 153.125984 -382.971705 
L 153.106212 -382.389886 
L 153.084989 -381.808068 
L 153.062308 -381.22625 
L 153.038163 -380.644432 
L 153.012544 -380.062614 
L 152.985444 -379.480795 
L 152.956854 -378.898977 
L 152.926767 -378.317159 
L 152.895174 -377.735341 
L 152.862065 -377.153523 
L 152.827434 -376.571705 
L 152.79127 -375.989886 
L 152.753566 -375.408068 
L 152.714314 -374.82625 
L 152.673505 -374.244432 
L 152.63113 -373.662614 
L 152.587184 -373.080795 
L 152.541658 -372.498977 
L 152.494545 -371.917159 
L 152.445838 -371.335341 
L 152.395533 -370.753523 
L 152.343621 -370.171705 
L 152.2901 -369.589886 
L 152.234964 -369.008068 
L 152.178208 -368.42625 
L 152.119831 -367.844432 
L 152.05983 -367.262614 
L 151.998202 -366.680795 
L 151.934947 -366.098977 
L 151.870066 -365.517159 
L 151.803557 -364.935341 
L 151.735424 -364.353523 
L 151.665669 -363.771705 
L 151.594296 -363.189886 
L 151.521309 -362.608068 
L 151.446714 -362.02625 
z
" id="mb8d738df5e" style="stroke:#000000;stroke-opacity:0.3;"/>
    </defs>
    <g clip-path="url(#pa256d4ea4e)">
     <use style="fill:#bfbf00;fill-opacity:0.3;stroke:#000000;stroke-opacity:0.3;" x="0.0" xlink:href="#mb8d738df5e" y="471.568"/>
    </g>
   </g>
   <g id="PolyCollection_3">
    <defs>
     <path d="M 214.126364 -246.82625 
L 183.69 -246.82625 
L 183.69 -246.82625 
L 183.69 -246.82625 
L 183.69 -246.82625 
L 183.69 -246.82625 
L 183.69 -246.82625 
L 183.69 -246.82625 
L 183.69 -246.82625 
L 183.69 -246.82625 
L 183.69 -246.82625 
L 183.69 -246.82625 
L 183.69 -246.82625 
L 183.69 -246.82625 
L 183.69 -246.82625 
L 183.69 -246.82625 
L 183.69 -246.82625 
L 183.69 -246.82625 
L 183.69 -246.82625 
L 183.69 -246.82625 
L 183.69 -246.82625 
L 183.69 -246.82625 
L 183.69 -246.82625 
L 183.69 -246.82625 
L 183.69 -246.82625 
L 183.69 -246.82625 
L 183.69 -246.82625 
L 183.69 -246.82625 
L 183.69 -246.82625 
L 183.69 -246.82625 
L 183.69 -246.82625 
L 183.69 -246.82625 
L 183.69 -246.82625 
L 183.69 -246.82625 
L 183.69 -246.82625 
L 183.69 -246.82625 
L 183.69 -246.82625 
L 183.69 -246.82625 
L 183.69 -246.82625 
L 183.69 -246.82625 
L 183.69 -246.82625 
L 183.69 -246.82625 
L 183.69 -246.82625 
L 183.69 -246.82625 
L 183.69 -246.82625 
L 183.69 -246.82625 
L 183.69 -246.82625 
L 183.69 -246.82625 
L 183.69 -246.82625 
L 183.69 -246.82625 
L 183.69 -246.82625 
L 183.69 -246.82625 
L 183.69 -246.82625 
L 183.69 -246.82625 
L 183.69 -246.82625 
L 183.69 -246.82625 
L 183.69 -246.82625 
L 183.69 -246.82625 
L 183.69 -246.82625 
L 183.69 -246.82625 
L 183.69 -246.82625 
L 183.69 -246.82625 
L 183.69 -246.82625 
L 183.69 -246.82625 
L 183.69 -246.82625 
L 183.69 -246.82625 
L 183.69 -246.82625 
L 183.69 -246.82625 
L 183.69 -246.82625 
L 183.69 -246.82625 
L 183.69 -246.82625 
L 183.69 -246.82625 
L 183.69 -246.82625 
L 183.69 -246.82625 
L 183.69 -246.82625 
L 183.69 -246.82625 
L 183.69 -246.82625 
L 183.69 -246.82625 
L 183.69 -246.82625 
L 183.69 -246.82625 
L 183.69 -246.82625 
L 183.69 -246.82625 
L 183.69 -246.82625 
L 183.69 -246.82625 
L 183.69 -246.82625 
L 183.69 -246.82625 
L 183.69 -246.82625 
L 183.69 -246.82625 
L 183.69 -246.82625 
L 183.69 -246.82625 
L 183.69 -246.82625 
L 183.69 -246.82625 
L 183.69 -246.82625 
L 183.69 -246.82625 
L 183.69 -246.82625 
L 183.69 -246.82625 
L 183.69 -246.82625 
L 183.69 -246.82625 
L 183.69 -246.82625 
L 183.69 -246.82625 
L 183.69 -246.82625 
L 214.126364 -246.82625 
L 214.126364 -246.82625 
L 214.126364 -246.82625 
L 214.126364 -246.82625 
L 214.126364 -246.82625 
L 214.126364 -246.82625 
L 214.126364 -246.82625 
L 214.126364 -246.82625 
L 214.126364 -246.82625 
L 214.126364 -246.82625 
L 214.126364 -246.82625 
L 214.126364 -246.82625 
L 214.126364 -246.82625 
L 214.126364 -246.82625 
L 214.126364 -246.82625 
L 214.126364 -246.82625 
L 214.126364 -246.82625 
L 214.126364 -246.82625 
L 214.126364 -246.82625 
L 214.126364 -246.82625 
L 214.126364 -246.82625 
L 214.126364 -246.82625 
L 214.126364 -246.82625 
L 214.126364 -246.82625 
L 214.126364 -246.82625 
L 214.126364 -246.82625 
L 214.126364 -246.82625 
L 214.126364 -246.82625 
L 214.126364 -246.82625 
L 214.126364 -246.82625 
L 214.126364 -246.82625 
L 214.126364 -246.82625 
L 214.126364 -246.82625 
L 214.126364 -246.82625 
L 214.126364 -246.82625 
L 214.126364 -246.82625 
L 214.126364 -246.82625 
L 214.126364 -246.82625 
L 214.126364 -246.82625 
L 214.126364 -246.82625 
L 214.126364 -246.82625 
L 214.126364 -246.82625 
L 214.126364 -246.82625 
L 214.126364 -246.82625 
L 214.126364 -246.82625 
L 214.126364 -246.82625 
L 214.126364 -246.82625 
L 214.126364 -246.82625 
L 214.126364 -246.82625 
L 214.126364 -246.82625 
L 214.126364 -246.82625 
L 214.126364 -246.82625 
L 214.126364 -246.82625 
L 214.126364 -246.82625 
L 214.126364 -246.82625 
L 214.126364 -246.82625 
L 214.126364 -246.82625 
L 214.126364 -246.82625 
L 214.126364 -246.82625 
L 214.126364 -246.82625 
L 214.126364 -246.82625 
L 214.126364 -246.82625 
L 214.126364 -246.82625 
L 214.126364 -246.82625 
L 214.126364 -246.82625 
L 214.126364 -246.82625 
L 214.126364 -246.82625 
L 214.126364 -246.82625 
L 214.126364 -246.82625 
L 214.126364 -246.82625 
L 214.126364 -246.82625 
L 214.126364 -246.82625 
L 214.126364 -246.82625 
L 214.126364 -246.82625 
L 214.126364 -246.82625 
L 214.126364 -246.82625 
L 214.126364 -246.82625 
L 214.126364 -246.82625 
L 214.126364 -246.82625 
L 214.126364 -246.82625 
L 214.126364 -246.82625 
L 214.126364 -246.82625 
L 214.126364 -246.82625 
L 214.126364 -246.82625 
L 214.126364 -246.82625 
L 214.126364 -246.82625 
L 214.126364 -246.82625 
L 214.126364 -246.82625 
L 214.126364 -246.82625 
L 214.126364 -246.82625 
L 214.126364 -246.82625 
L 214.126364 -246.82625 
L 214.126364 -246.82625 
L 214.126364 -246.82625 
L 214.126364 -246.82625 
L 214.126364 -246.82625 
L 214.126364 -246.82625 
L 214.126364 -246.82625 
L 214.126364 -246.82625 
L 214.126364 -246.82625 
L 214.126364 -246.82625 
z
" id="m7741bb7e05" style="stroke:#000000;stroke-opacity:0.3;"/>
    </defs>
    <g clip-path="url(#pa256d4ea4e)">
     <use style="fill:#bfbf00;fill-opacity:0.3;stroke:#000000;stroke-opacity:0.3;" x="0.0" xlink:href="#m7741bb7e05" y="471.568"/>
    </g>
   </g>
   <g id="PolyCollection_4">
    <defs>
     <path d="M 274.999091 -189.22625 
L 244.562727 -189.22625 
L 244.562727 -189.22625 
L 244.562727 -189.22625 
L 244.562727 -189.22625 
L 244.562727 -189.22625 
L 244.562727 -189.22625 
L 244.562727 -189.22625 
L 244.562727 -189.22625 
L 244.562727 -189.22625 
L 244.562727 -189.22625 
L 244.562727 -189.22625 
L 244.562727 -189.22625 
L 244.562727 -189.22625 
L 244.562727 -189.22625 
L 244.562727 -189.22625 
L 244.562727 -189.22625 
L 244.562727 -189.22625 
L 244.562727 -189.22625 
L 244.562727 -189.22625 
L 244.562727 -189.22625 
L 244.562727 -189.22625 
L 244.562727 -189.22625 
L 244.562727 -189.22625 
L 244.562727 -189.22625 
L 244.562727 -189.22625 
L 244.562727 -189.22625 
L 244.562727 -189.22625 
L 244.562727 -189.22625 
L 244.562727 -189.22625 
L 244.562727 -189.22625 
L 244.562727 -189.22625 
L 244.562727 -189.22625 
L 244.562727 -189.22625 
L 244.562727 -189.22625 
L 244.562727 -189.22625 
L 244.562727 -189.22625 
L 244.562727 -189.22625 
L 244.562727 -189.22625 
L 244.562727 -189.22625 
L 244.562727 -189.22625 
L 244.562727 -189.22625 
L 244.562727 -189.22625 
L 244.562727 -189.22625 
L 244.562727 -189.22625 
L 244.562727 -189.22625 
L 244.562727 -189.22625 
L 244.562727 -189.22625 
L 244.562727 -189.22625 
L 244.562727 -189.22625 
L 244.562727 -189.22625 
L 244.562727 -189.22625 
L 244.562727 -189.22625 
L 244.562727 -189.22625 
L 244.562727 -189.22625 
L 244.562727 -189.22625 
L 244.562727 -189.22625 
L 244.562727 -189.22625 
L 244.562727 -189.22625 
L 244.562727 -189.22625 
L 244.562727 -189.22625 
L 244.562727 -189.22625 
L 244.562727 -189.22625 
L 244.562727 -189.22625 
L 244.562727 -189.22625 
L 244.562727 -189.22625 
L 244.562727 -189.22625 
L 244.562727 -189.22625 
L 244.562727 -189.22625 
L 244.562727 -189.22625 
L 244.562727 -189.22625 
L 244.562727 -189.22625 
L 244.562727 -189.22625 
L 244.562727 -189.22625 
L 244.562727 -189.22625 
L 244.562727 -189.22625 
L 244.562727 -189.22625 
L 244.562727 -189.22625 
L 244.562727 -189.22625 
L 244.562727 -189.22625 
L 244.562727 -189.22625 
L 244.562727 -189.22625 
L 244.562727 -189.22625 
L 244.562727 -189.22625 
L 244.562727 -189.22625 
L 244.562727 -189.22625 
L 244.562727 -189.22625 
L 244.562727 -189.22625 
L 244.562727 -189.22625 
L 244.562727 -189.22625 
L 244.562727 -189.22625 
L 244.562727 -189.22625 
L 244.562727 -189.22625 
L 244.562727 -189.22625 
L 244.562727 -189.22625 
L 244.562727 -189.22625 
L 244.562727 -189.22625 
L 244.562727 -189.22625 
L 244.562727 -189.22625 
L 244.562727 -189.22625 
L 244.562727 -189.22625 
L 274.999091 -189.22625 
L 274.999091 -189.22625 
L 274.999091 -189.22625 
L 274.999091 -189.22625 
L 274.999091 -189.22625 
L 274.999091 -189.22625 
L 274.999091 -189.22625 
L 274.999091 -189.22625 
L 274.999091 -189.22625 
L 274.999091 -189.22625 
L 274.999091 -189.22625 
L 274.999091 -189.22625 
L 274.999091 -189.22625 
L 274.999091 -189.22625 
L 274.999091 -189.22625 
L 274.999091 -189.22625 
L 274.999091 -189.22625 
L 274.999091 -189.22625 
L 274.999091 -189.22625 
L 274.999091 -189.22625 
L 274.999091 -189.22625 
L 274.999091 -189.22625 
L 274.999091 -189.22625 
L 274.999091 -189.22625 
L 274.999091 -189.22625 
L 274.999091 -189.22625 
L 274.999091 -189.22625 
L 274.999091 -189.22625 
L 274.999091 -189.22625 
L 274.999091 -189.22625 
L 274.999091 -189.22625 
L 274.999091 -189.22625 
L 274.999091 -189.22625 
L 274.999091 -189.22625 
L 274.999091 -189.22625 
L 274.999091 -189.22625 
L 274.999091 -189.22625 
L 274.999091 -189.22625 
L 274.999091 -189.22625 
L 274.999091 -189.22625 
L 274.999091 -189.22625 
L 274.999091 -189.22625 
L 274.999091 -189.22625 
L 274.999091 -189.22625 
L 274.999091 -189.22625 
L 274.999091 -189.22625 
L 274.999091 -189.22625 
L 274.999091 -189.22625 
L 274.999091 -189.22625 
L 274.999091 -189.22625 
L 274.999091 -189.22625 
L 274.999091 -189.22625 
L 274.999091 -189.22625 
L 274.999091 -189.22625 
L 274.999091 -189.22625 
L 274.999091 -189.22625 
L 274.999091 -189.22625 
L 274.999091 -189.22625 
L 274.999091 -189.22625 
L 274.999091 -189.22625 
L 274.999091 -189.22625 
L 274.999091 -189.22625 
L 274.999091 -189.22625 
L 274.999091 -189.22625 
L 274.999091 -189.22625 
L 274.999091 -189.22625 
L 274.999091 -189.22625 
L 274.999091 -189.22625 
L 274.999091 -189.22625 
L 274.999091 -189.22625 
L 274.999091 -189.22625 
L 274.999091 -189.22625 
L 274.999091 -189.22625 
L 274.999091 -189.22625 
L 274.999091 -189.22625 
L 274.999091 -189.22625 
L 274.999091 -189.22625 
L 274.999091 -189.22625 
L 274.999091 -189.22625 
L 274.999091 -189.22625 
L 274.999091 -189.22625 
L 274.999091 -189.22625 
L 274.999091 -189.22625 
L 274.999091 -189.22625 
L 274.999091 -189.22625 
L 274.999091 -189.22625 
L 274.999091 -189.22625 
L 274.999091 -189.22625 
L 274.999091 -189.22625 
L 274.999091 -189.22625 
L 274.999091 -189.22625 
L 274.999091 -189.22625 
L 274.999091 -189.22625 
L 274.999091 -189.22625 
L 274.999091 -189.22625 
L 274.999091 -189.22625 
L 274.999091 -189.22625 
L 274.999091 -189.22625 
L 274.999091 -189.22625 
L 274.999091 -189.22625 
L 274.999091 -189.22625 
z
" id="m26691852d7" style="stroke:#000000;stroke-opacity:0.3;"/>
    </defs>
    <g clip-path="url(#pa256d4ea4e)">
     <use style="fill:#bfbf00;fill-opacity:0.3;stroke:#000000;stroke-opacity:0.3;" x="0.0" xlink:href="#m26691852d7" y="471.568"/>
    </g>
   </g>
   <g id="PolyCollection_5">
    <defs>
     <path d="M 335.871818 -189.22625 
L 305.435455 -189.22625 
L 305.435455 -189.22625 
L 305.435455 -189.22625 
L 305.435455 -189.22625 
L 305.435455 -189.22625 
L 305.435455 -189.22625 
L 305.435455 -189.22625 
L 305.435455 -189.22625 
L 305.435455 -189.22625 
L 305.435455 -189.22625 
L 305.435455 -189.22625 
L 305.435455 -189.22625 
L 305.435455 -189.22625 
L 305.435455 -189.22625 
L 305.435455 -189.22625 
L 305.435455 -189.22625 
L 305.435455 -189.22625 
L 305.435455 -189.22625 
L 305.435455 -189.22625 
L 305.435455 -189.22625 
L 305.435455 -189.22625 
L 305.435455 -189.22625 
L 305.435455 -189.22625 
L 305.435455 -189.22625 
L 305.435455 -189.22625 
L 305.435455 -189.22625 
L 305.435455 -189.22625 
L 305.435455 -189.22625 
L 305.435455 -189.22625 
L 305.435455 -189.22625 
L 305.435455 -189.22625 
L 305.435455 -189.22625 
L 305.435455 -189.22625 
L 305.435455 -189.22625 
L 305.435455 -189.22625 
L 305.435455 -189.22625 
L 305.435455 -189.22625 
L 305.435455 -189.22625 
L 305.435455 -189.22625 
L 305.435455 -189.22625 
L 305.435455 -189.22625 
L 305.435455 -189.22625 
L 305.435455 -189.22625 
L 305.435455 -189.22625 
L 305.435455 -189.22625 
L 305.435455 -189.22625 
L 305.435455 -189.22625 
L 305.435455 -189.22625 
L 305.435455 -189.22625 
L 305.435455 -189.22625 
L 305.435455 -189.22625 
L 305.435455 -189.22625 
L 305.435455 -189.22625 
L 305.435455 -189.22625 
L 305.435455 -189.22625 
L 305.435455 -189.22625 
L 305.435455 -189.22625 
L 305.435455 -189.22625 
L 305.435455 -189.22625 
L 305.435455 -189.22625 
L 305.435455 -189.22625 
L 305.435455 -189.22625 
L 305.435455 -189.22625 
L 305.435455 -189.22625 
L 305.435455 -189.22625 
L 305.435455 -189.22625 
L 305.435455 -189.22625 
L 305.435455 -189.22625 
L 305.435455 -189.22625 
L 305.435455 -189.22625 
L 305.435455 -189.22625 
L 305.435455 -189.22625 
L 305.435455 -189.22625 
L 305.435455 -189.22625 
L 305.435455 -189.22625 
L 305.435455 -189.22625 
L 305.435455 -189.22625 
L 305.435455 -189.22625 
L 305.435455 -189.22625 
L 305.435455 -189.22625 
L 305.435455 -189.22625 
L 305.435455 -189.22625 
L 305.435455 -189.22625 
L 305.435455 -189.22625 
L 305.435455 -189.22625 
L 305.435455 -189.22625 
L 305.435455 -189.22625 
L 305.435455 -189.22625 
L 305.435455 -189.22625 
L 305.435455 -189.22625 
L 305.435455 -189.22625 
L 305.435455 -189.22625 
L 305.435455 -189.22625 
L 305.435455 -189.22625 
L 305.435455 -189.22625 
L 305.435455 -189.22625 
L 305.435455 -189.22625 
L 305.435455 -189.22625 
L 305.435455 -189.22625 
L 305.435455 -189.22625 
L 335.871818 -189.22625 
L 335.871818 -189.22625 
L 335.871818 -189.22625 
L 335.871818 -189.22625 
L 335.871818 -189.22625 
L 335.871818 -189.22625 
L 335.871818 -189.22625 
L 335.871818 -189.22625 
L 335.871818 -189.22625 
L 335.871818 -189.22625 
L 335.871818 -189.22625 
L 335.871818 -189.22625 
L 335.871818 -189.22625 
L 335.871818 -189.22625 
L 335.871818 -189.22625 
L 335.871818 -189.22625 
L 335.871818 -189.22625 
L 335.871818 -189.22625 
L 335.871818 -189.22625 
L 335.871818 -189.22625 
L 335.871818 -189.22625 
L 335.871818 -189.22625 
L 335.871818 -189.22625 
L 335.871818 -189.22625 
L 335.871818 -189.22625 
L 335.871818 -189.22625 
L 335.871818 -189.22625 
L 335.871818 -189.22625 
L 335.871818 -189.22625 
L 335.871818 -189.22625 
L 335.871818 -189.22625 
L 335.871818 -189.22625 
L 335.871818 -189.22625 
L 335.871818 -189.22625 
L 335.871818 -189.22625 
L 335.871818 -189.22625 
L 335.871818 -189.22625 
L 335.871818 -189.22625 
L 335.871818 -189.22625 
L 335.871818 -189.22625 
L 335.871818 -189.22625 
L 335.871818 -189.22625 
L 335.871818 -189.22625 
L 335.871818 -189.22625 
L 335.871818 -189.22625 
L 335.871818 -189.22625 
L 335.871818 -189.22625 
L 335.871818 -189.22625 
L 335.871818 -189.22625 
L 335.871818 -189.22625 
L 335.871818 -189.22625 
L 335.871818 -189.22625 
L 335.871818 -189.22625 
L 335.871818 -189.22625 
L 335.871818 -189.22625 
L 335.871818 -189.22625 
L 335.871818 -189.22625 
L 335.871818 -189.22625 
L 335.871818 -189.22625 
L 335.871818 -189.22625 
L 335.871818 -189.22625 
L 335.871818 -189.22625 
L 335.871818 -189.22625 
L 335.871818 -189.22625 
L 335.871818 -189.22625 
L 335.871818 -189.22625 
L 335.871818 -189.22625 
L 335.871818 -189.22625 
L 335.871818 -189.22625 
L 335.871818 -189.22625 
L 335.871818 -189.22625 
L 335.871818 -189.22625 
L 335.871818 -189.22625 
L 335.871818 -189.22625 
L 335.871818 -189.22625 
L 335.871818 -189.22625 
L 335.871818 -189.22625 
L 335.871818 -189.22625 
L 335.871818 -189.22625 
L 335.871818 -189.22625 
L 335.871818 -189.22625 
L 335.871818 -189.22625 
L 335.871818 -189.22625 
L 335.871818 -189.22625 
L 335.871818 -189.22625 
L 335.871818 -189.22625 
L 335.871818 -189.22625 
L 335.871818 -189.22625 
L 335.871818 -189.22625 
L 335.871818 -189.22625 
L 335.871818 -189.22625 
L 335.871818 -189.22625 
L 335.871818 -189.22625 
L 335.871818 -189.22625 
L 335.871818 -189.22625 
L 335.871818 -189.22625 
L 335.871818 -189.22625 
L 335.871818 -189.22625 
L 335.871818 -189.22625 
L 335.871818 -189.22625 
L 335.871818 -189.22625 
z
" id="m35022b2525" style="stroke:#000000;stroke-opacity:0.3;"/>
    </defs>
    <g clip-path="url(#pa256d4ea4e)">
     <use style="fill:#bfbf00;fill-opacity:0.3;stroke:#000000;stroke-opacity:0.3;" x="0.0" xlink:href="#m35022b2525" y="471.568"/>
    </g>
   </g>
   <g id="PolyCollection_6">
    <defs>
     <path d="M 394.937623 -131.62625 
L 368.115105 -131.62625 
L 368.04051 -132.208068 
L 367.967522 -132.789886 
L 367.896149 -133.371705 
L 367.826394 -133.953523 
L 367.758261 -134.535341 
L 367.691753 -135.117159 
L 367.626871 -135.698977 
L 367.563616 -136.280795 
L 367.501988 -136.862614 
L 367.441987 -137.444432 
L 367.38361 -138.02625 
L 367.326855 -138.608068 
L 367.271718 -139.189886 
L 367.218197 -139.771705 
L 367.166286 -140.353523 
L 367.11598 -140.935341 
L 367.067273 -141.517159 
L 367.02016 -142.098977 
L 366.974634 -142.680795 
L 366.930688 -143.262614 
L 366.888314 -143.844432 
L 366.847504 -144.42625 
L 366.808252 -145.008068 
L 366.770548 -145.589886 
L 366.734385 -146.171705 
L 366.699753 -146.753523 
L 366.666645 -147.335341 
L 366.635051 -147.917159 
L 366.604964 -148.498977 
L 366.576374 -149.080795 
L 366.549274 -149.662614 
L 366.523656 -150.244432 
L 366.49951 -150.82625 
L 366.476829 -151.408068 
L 366.455607 -151.989886 
L 366.435834 -152.571705 
L 366.417505 -153.153523 
L 366.400613 -153.735341 
L 366.385152 -154.317159 
L 366.371115 -154.898977 
L 366.358498 -155.480795 
L 366.347296 -156.062614 
L 366.337503 -156.644432 
L 366.329117 -157.22625 
L 366.322134 -157.808068 
L 366.316551 -158.389886 
L 366.312365 -158.971705 
L 366.309576 -159.553523 
L 366.308182 -160.135341 
L 366.308182 -160.717159 
L 366.309576 -161.298977 
L 366.312365 -161.880795 
L 366.316551 -162.462614 
L 366.322134 -163.044432 
L 366.329117 -163.62625 
L 366.337503 -164.208068 
L 366.347296 -164.789886 
L 366.358498 -165.371705 
L 366.371115 -165.953523 
L 366.385152 -166.535341 
L 366.400613 -167.117159 
L 366.417505 -167.698977 
L 366.435834 -168.280795 
L 366.455607 -168.862614 
L 366.476829 -169.444432 
L 366.49951 -170.02625 
L 366.523656 -170.608068 
L 366.549274 -171.189886 
L 366.576374 -171.771705 
L 366.604964 -172.353523 
L 366.635051 -172.935341 
L 366.666645 -173.517159 
L 366.699753 -174.098977 
L 366.734385 -174.680795 
L 366.770548 -175.262614 
L 366.808252 -175.844432 
L 366.847504 -176.42625 
L 366.888314 -177.008068 
L 366.930688 -177.589886 
L 366.974634 -178.171705 
L 367.02016 -178.753523 
L 367.067273 -179.335341 
L 367.11598 -179.917159 
L 367.166286 -180.498977 
L 367.218197 -181.080795 
L 367.271718 -181.662614 
L 367.326855 -182.244432 
L 367.38361 -182.82625 
L 367.441987 -183.408068 
L 367.501988 -183.989886 
L 367.563616 -184.571705 
L 367.626871 -185.153523 
L 367.691753 -185.735341 
L 367.758261 -186.317159 
L 367.826394 -186.898977 
L 367.896149 -187.480795 
L 367.967522 -188.062614 
L 368.04051 -188.644432 
L 368.115105 -189.22625 
L 394.937623 -189.22625 
L 394.937623 -189.22625 
L 395.012218 -188.644432 
L 395.085205 -188.062614 
L 395.156578 -187.480795 
L 395.226333 -186.898977 
L 395.294466 -186.317159 
L 395.360975 -185.735341 
L 395.425857 -185.153523 
L 395.489111 -184.571705 
L 395.550739 -183.989886 
L 395.610741 -183.408068 
L 395.669118 -182.82625 
L 395.725873 -182.244432 
L 395.781009 -181.662614 
L 395.83453 -181.080795 
L 395.886442 -180.498977 
L 395.936748 -179.917159 
L 395.985454 -179.335341 
L 396.032567 -178.753523 
L 396.078093 -178.171705 
L 396.12204 -177.589886 
L 396.164414 -177.008068 
L 396.205223 -176.42625 
L 396.244475 -175.844432 
L 396.282179 -175.262614 
L 396.318343 -174.680795 
L 396.352974 -174.098977 
L 396.386083 -173.517159 
L 396.417676 -172.935341 
L 396.447763 -172.353523 
L 396.476353 -171.771705 
L 396.503453 -171.189886 
L 396.529072 -170.608068 
L 396.553217 -170.02625 
L 396.575898 -169.444432 
L 396.597121 -168.862614 
L 396.616893 -168.280795 
L 396.635222 -167.698977 
L 396.652114 -167.117159 
L 396.667575 -166.535341 
L 396.681612 -165.953523 
L 396.694229 -165.371705 
L 396.705432 -164.789886 
L 396.715224 -164.208068 
L 396.72361 -163.62625 
L 396.730593 -163.044432 
L 396.736177 -162.462614 
L 396.740362 -161.880795 
L 396.743151 -161.298977 
L 396.744545 -160.717159 
L 396.744545 -160.135341 
L 396.743151 -159.553523 
L 396.740362 -158.971705 
L 396.736177 -158.389886 
L 396.730593 -157.808068 
L 396.72361 -157.22625 
L 396.715224 -156.644432 
L 396.705432 -156.062614 
L 396.694229 -155.480795 
L 396.681612 -154.898977 
L 396.667575 -154.317159 
L 396.652114 -153.735341 
L 396.635222 -153.153523 
L 396.616893 -152.571705 
L 396.597121 -151.989886 
L 396.575898 -151.408068 
L 396.553217 -150.82625 
L 396.529072 -150.244432 
L 396.503453 -149.662614 
L 396.476353 -149.080795 
L 396.447763 -148.498977 
L 396.417676 -147.917159 
L 396.386083 -147.335341 
L 396.352974 -146.753523 
L 396.318343 -146.171705 
L 396.282179 -145.589886 
L 396.244475 -145.008068 
L 396.205223 -144.42625 
L 396.164414 -143.844432 
L 396.12204 -143.262614 
L 396.078093 -142.680795 
L 396.032567 -142.098977 
L 395.985454 -141.517159 
L 395.936748 -140.935341 
L 395.886442 -140.353523 
L 395.83453 -139.771705 
L 395.781009 -139.189886 
L 395.725873 -138.608068 
L 395.669118 -138.02625 
L 395.610741 -137.444432 
L 395.550739 -136.862614 
L 395.489111 -136.280795 
L 395.425857 -135.698977 
L 395.360975 -135.117159 
L 395.294466 -134.535341 
L 395.226333 -133.953523 
L 395.156578 -133.371705 
L 395.085205 -132.789886 
L 395.012218 -132.208068 
L 394.937623 -131.62625 
z
" id="m01970e70af" style="stroke:#000000;stroke-opacity:0.3;"/>
    </defs>
    <g clip-path="url(#pa256d4ea4e)">
     <use style="fill:#bfbf00;fill-opacity:0.3;stroke:#000000;stroke-opacity:0.3;" x="0.0" xlink:href="#m01970e70af" y="471.568"/>
    </g>
   </g>
   <g id="PolyCollection_7">
    <defs>
     <path d="M 455.81035 -131.62625 
L 428.987832 -131.62625 
L 428.913237 -132.208068 
L 428.84025 -132.789886 
L 428.768876 -133.371705 
L 428.699121 -133.953523 
L 428.630988 -134.535341 
L 428.56448 -135.117159 
L 428.499598 -135.698977 
L 428.436343 -136.280795 
L 428.374716 -136.862614 
L 428.314714 -137.444432 
L 428.256337 -138.02625 
L 428.199582 -138.608068 
L 428.144446 -139.189886 
L 428.090924 -139.771705 
L 428.039013 -140.353523 
L 427.988707 -140.935341 
L 427.940001 -141.517159 
L 427.892888 -142.098977 
L 427.847361 -142.680795 
L 427.803415 -143.262614 
L 427.761041 -143.844432 
L 427.720232 -144.42625 
L 427.680979 -145.008068 
L 427.643275 -145.589886 
L 427.607112 -146.171705 
L 427.57248 -146.753523 
L 427.539372 -147.335341 
L 427.507778 -147.917159 
L 427.477691 -148.498977 
L 427.449102 -149.080795 
L 427.422002 -149.662614 
L 427.396383 -150.244432 
L 427.372237 -150.82625 
L 427.349557 -151.408068 
L 427.328334 -151.989886 
L 427.308562 -152.571705 
L 427.290233 -153.153523 
L 427.273341 -153.735341 
L 427.257879 -154.317159 
L 427.243843 -154.898977 
L 427.231225 -155.480795 
L 427.220023 -156.062614 
L 427.21023 -156.644432 
L 427.201844 -157.22625 
L 427.194861 -157.808068 
L 427.189278 -158.389886 
L 427.185093 -158.971705 
L 427.182303 -159.553523 
L 427.180909 -160.135341 
L 427.180909 -160.717159 
L 427.182303 -161.298977 
L 427.185093 -161.880795 
L 427.189278 -162.462614 
L 427.194861 -163.044432 
L 427.201844 -163.62625 
L 427.21023 -164.208068 
L 427.220023 -164.789886 
L 427.231225 -165.371705 
L 427.243843 -165.953523 
L 427.257879 -166.535341 
L 427.273341 -167.117159 
L 427.290233 -167.698977 
L 427.308562 -168.280795 
L 427.328334 -168.862614 
L 427.349557 -169.444432 
L 427.372237 -170.02625 
L 427.396383 -170.608068 
L 427.422002 -171.189886 
L 427.449102 -171.771705 
L 427.477691 -172.353523 
L 427.507778 -172.935341 
L 427.539372 -173.517159 
L 427.57248 -174.098977 
L 427.607112 -174.680795 
L 427.643275 -175.262614 
L 427.680979 -175.844432 
L 427.720232 -176.42625 
L 427.761041 -177.008068 
L 427.803415 -177.589886 
L 427.847361 -178.171705 
L 427.892888 -178.753523 
L 427.940001 -179.335341 
L 427.988707 -179.917159 
L 428.039013 -180.498977 
L 428.090924 -181.080795 
L 428.144446 -181.662614 
L 428.199582 -182.244432 
L 428.256337 -182.82625 
L 428.314714 -183.408068 
L 428.374716 -183.989886 
L 428.436343 -184.571705 
L 428.499598 -185.153523 
L 428.56448 -185.735341 
L 428.630988 -186.317159 
L 428.699121 -186.898977 
L 428.768876 -187.480795 
L 428.84025 -188.062614 
L 428.913237 -188.644432 
L 428.987832 -189.22625 
L 455.81035 -189.22625 
L 455.81035 -189.22625 
L 455.884945 -188.644432 
L 455.957932 -188.062614 
L 456.029305 -187.480795 
L 456.09906 -186.898977 
L 456.167194 -186.317159 
L 456.233702 -185.735341 
L 456.298584 -185.153523 
L 456.361839 -184.571705 
L 456.423466 -183.989886 
L 456.483468 -183.408068 
L 456.541845 -182.82625 
L 456.5986 -182.244432 
L 456.653736 -181.662614 
L 456.707258 -181.080795 
L 456.759169 -180.498977 
L 456.809475 -179.917159 
L 456.858181 -179.335341 
L 456.905294 -178.753523 
L 456.95082 -178.171705 
L 456.994767 -177.589886 
L 457.037141 -177.008068 
L 457.07795 -176.42625 
L 457.117203 -175.844432 
L 457.154906 -175.262614 
L 457.19107 -174.680795 
L 457.225702 -174.098977 
L 457.25881 -173.517159 
L 457.290403 -172.935341 
L 457.320491 -172.353523 
L 457.34908 -171.771705 
L 457.37618 -171.189886 
L 457.401799 -170.608068 
L 457.425945 -170.02625 
L 457.448625 -169.444432 
L 457.469848 -168.862614 
L 457.48962 -168.280795 
L 457.507949 -167.698977 
L 457.524841 -167.117159 
L 457.540303 -166.535341 
L 457.554339 -165.953523 
L 457.566956 -165.371705 
L 457.578159 -164.789886 
L 457.587951 -164.208068 
L 457.596337 -163.62625 
L 457.603321 -163.044432 
L 457.608904 -162.462614 
L 457.613089 -161.880795 
L 457.615878 -161.298977 
L 457.617273 -160.717159 
L 457.617273 -160.135341 
L 457.615878 -159.553523 
L 457.613089 -158.971705 
L 457.608904 -158.389886 
L 457.603321 -157.808068 
L 457.596337 -157.22625 
L 457.587951 -156.644432 
L 457.578159 -156.062614 
L 457.566956 -155.480795 
L 457.554339 -154.898977 
L 457.540303 -154.317159 
L 457.524841 -153.735341 
L 457.507949 -153.153523 
L 457.48962 -152.571705 
L 457.469848 -151.989886 
L 457.448625 -151.408068 
L 457.425945 -150.82625 
L 457.401799 -150.244432 
L 457.37618 -149.662614 
L 457.34908 -149.080795 
L 457.320491 -148.498977 
L 457.290403 -147.917159 
L 457.25881 -147.335341 
L 457.225702 -146.753523 
L 457.19107 -146.171705 
L 457.154906 -145.589886 
L 457.117203 -145.008068 
L 457.07795 -144.42625 
L 457.037141 -143.844432 
L 456.994767 -143.262614 
L 456.95082 -142.680795 
L 456.905294 -142.098977 
L 456.858181 -141.517159 
L 456.809475 -140.935341 
L 456.759169 -140.353523 
L 456.707258 -139.771705 
L 456.653736 -139.189886 
L 456.5986 -138.608068 
L 456.541845 -138.02625 
L 456.483468 -137.444432 
L 456.423466 -136.862614 
L 456.361839 -136.280795 
L 456.298584 -135.698977 
L 456.233702 -135.117159 
L 456.167194 -134.535341 
L 456.09906 -133.953523 
L 456.029305 -133.371705 
L 455.957932 -132.789886 
L 455.884945 -132.208068 
L 455.81035 -131.62625 
z
" id="mebdd02249f" style="stroke:#000000;stroke-opacity:0.3;"/>
    </defs>
    <g clip-path="url(#pa256d4ea4e)">
     <use style="fill:#bfbf00;fill-opacity:0.3;stroke:#000000;stroke-opacity:0.3;" x="0.0" xlink:href="#mebdd02249f" y="471.568"/>
    </g>
   </g>
   <g id="PolyCollection_8">
    <defs>
     <path d="M 518.49 -131.62625 
L 488.053636 -131.62625 
L 488.053636 -131.62625 
L 488.053636 -131.62625 
L 488.053636 -131.62625 
L 488.053636 -131.62625 
L 488.053636 -131.62625 
L 488.053636 -131.62625 
L 488.053636 -131.62625 
L 488.053636 -131.62625 
L 488.053636 -131.62625 
L 488.053636 -131.62625 
L 488.053636 -131.62625 
L 488.053636 -131.62625 
L 488.053636 -131.62625 
L 488.053636 -131.62625 
L 488.053636 -131.62625 
L 488.053636 -131.62625 
L 488.053636 -131.62625 
L 488.053636 -131.62625 
L 488.053636 -131.62625 
L 488.053636 -131.62625 
L 488.053636 -131.62625 
L 488.053636 -131.62625 
L 488.053636 -131.62625 
L 488.053636 -131.62625 
L 488.053636 -131.62625 
L 488.053636 -131.62625 
L 488.053636 -131.62625 
L 488.053636 -131.62625 
L 488.053636 -131.62625 
L 488.053636 -131.62625 
L 488.053636 -131.62625 
L 488.053636 -131.62625 
L 488.053636 -131.62625 
L 488.053636 -131.62625 
L 488.053636 -131.62625 
L 488.053636 -131.62625 
L 488.053636 -131.62625 
L 488.053636 -131.62625 
L 488.053636 -131.62625 
L 488.053636 -131.62625 
L 488.053636 -131.62625 
L 488.053636 -131.62625 
L 488.053636 -131.62625 
L 488.053636 -131.62625 
L 488.053636 -131.62625 
L 488.053636 -131.62625 
L 488.053636 -131.62625 
L 488.053636 -131.62625 
L 488.053636 -131.62625 
L 488.053636 -131.62625 
L 488.053636 -131.62625 
L 488.053636 -131.62625 
L 488.053636 -131.62625 
L 488.053636 -131.62625 
L 488.053636 -131.62625 
L 488.053636 -131.62625 
L 488.053636 -131.62625 
L 488.053636 -131.62625 
L 488.053636 -131.62625 
L 488.053636 -131.62625 
L 488.053636 -131.62625 
L 488.053636 -131.62625 
L 488.053636 -131.62625 
L 488.053636 -131.62625 
L 488.053636 -131.62625 
L 488.053636 -131.62625 
L 488.053636 -131.62625 
L 488.053636 -131.62625 
L 488.053636 -131.62625 
L 488.053636 -131.62625 
L 488.053636 -131.62625 
L 488.053636 -131.62625 
L 488.053636 -131.62625 
L 488.053636 -131.62625 
L 488.053636 -131.62625 
L 488.053636 -131.62625 
L 488.053636 -131.62625 
L 488.053636 -131.62625 
L 488.053636 -131.62625 
L 488.053636 -131.62625 
L 488.053636 -131.62625 
L 488.053636 -131.62625 
L 488.053636 -131.62625 
L 488.053636 -131.62625 
L 488.053636 -131.62625 
L 488.053636 -131.62625 
L 488.053636 -131.62625 
L 488.053636 -131.62625 
L 488.053636 -131.62625 
L 488.053636 -131.62625 
L 488.053636 -131.62625 
L 488.053636 -131.62625 
L 488.053636 -131.62625 
L 488.053636 -131.62625 
L 488.053636 -131.62625 
L 488.053636 -131.62625 
L 488.053636 -131.62625 
L 488.053636 -131.62625 
L 488.053636 -131.62625 
L 518.49 -131.62625 
L 518.49 -131.62625 
L 518.49 -131.62625 
L 518.49 -131.62625 
L 518.49 -131.62625 
L 518.49 -131.62625 
L 518.49 -131.62625 
L 518.49 -131.62625 
L 518.49 -131.62625 
L 518.49 -131.62625 
L 518.49 -131.62625 
L 518.49 -131.62625 
L 518.49 -131.62625 
L 518.49 -131.62625 
L 518.49 -131.62625 
L 518.49 -131.62625 
L 518.49 -131.62625 
L 518.49 -131.62625 
L 518.49 -131.62625 
L 518.49 -131.62625 
L 518.49 -131.62625 
L 518.49 -131.62625 
L 518.49 -131.62625 
L 518.49 -131.62625 
L 518.49 -131.62625 
L 518.49 -131.62625 
L 518.49 -131.62625 
L 518.49 -131.62625 
L 518.49 -131.62625 
L 518.49 -131.62625 
L 518.49 -131.62625 
L 518.49 -131.62625 
L 518.49 -131.62625 
L 518.49 -131.62625 
L 518.49 -131.62625 
L 518.49 -131.62625 
L 518.49 -131.62625 
L 518.49 -131.62625 
L 518.49 -131.62625 
L 518.49 -131.62625 
L 518.49 -131.62625 
L 518.49 -131.62625 
L 518.49 -131.62625 
L 518.49 -131.62625 
L 518.49 -131.62625 
L 518.49 -131.62625 
L 518.49 -131.62625 
L 518.49 -131.62625 
L 518.49 -131.62625 
L 518.49 -131.62625 
L 518.49 -131.62625 
L 518.49 -131.62625 
L 518.49 -131.62625 
L 518.49 -131.62625 
L 518.49 -131.62625 
L 518.49 -131.62625 
L 518.49 -131.62625 
L 518.49 -131.62625 
L 518.49 -131.62625 
L 518.49 -131.62625 
L 518.49 -131.62625 
L 518.49 -131.62625 
L 518.49 -131.62625 
L 518.49 -131.62625 
L 518.49 -131.62625 
L 518.49 -131.62625 
L 518.49 -131.62625 
L 518.49 -131.62625 
L 518.49 -131.62625 
L 518.49 -131.62625 
L 518.49 -131.62625 
L 518.49 -131.62625 
L 518.49 -131.62625 
L 518.49 -131.62625 
L 518.49 -131.62625 
L 518.49 -131.62625 
L 518.49 -131.62625 
L 518.49 -131.62625 
L 518.49 -131.62625 
L 518.49 -131.62625 
L 518.49 -131.62625 
L 518.49 -131.62625 
L 518.49 -131.62625 
L 518.49 -131.62625 
L 518.49 -131.62625 
L 518.49 -131.62625 
L 518.49 -131.62625 
L 518.49 -131.62625 
L 518.49 -131.62625 
L 518.49 -131.62625 
L 518.49 -131.62625 
L 518.49 -131.62625 
L 518.49 -131.62625 
L 518.49 -131.62625 
L 518.49 -131.62625 
L 518.49 -131.62625 
L 518.49 -131.62625 
L 518.49 -131.62625 
L 518.49 -131.62625 
L 518.49 -131.62625 
L 518.49 -131.62625 
z
" id="m7f5bb90889" style="stroke:#000000;stroke-opacity:0.3;"/>
    </defs>
    <g clip-path="url(#pa256d4ea4e)">
     <use style="fill:#bfbf00;fill-opacity:0.3;stroke:#000000;stroke-opacity:0.3;" x="0.0" xlink:href="#m7f5bb90889" y="471.568"/>
    </g>
   </g>
   <g id="PolyCollection_9">
    <defs>
     <path d="M 579.362727 -131.62625 
L 548.926364 -131.62625 
L 548.926364 -131.62625 
L 548.926364 -131.62625 
L 548.926364 -131.62625 
L 548.926364 -131.62625 
L 548.926364 -131.62625 
L 548.926364 -131.62625 
L 548.926364 -131.62625 
L 548.926364 -131.62625 
L 548.926364 -131.62625 
L 548.926364 -131.62625 
L 548.926364 -131.62625 
L 548.926364 -131.62625 
L 548.926364 -131.62625 
L 548.926364 -131.62625 
L 548.926364 -131.62625 
L 548.926364 -131.62625 
L 548.926364 -131.62625 
L 548.926364 -131.62625 
L 548.926364 -131.62625 
L 548.926364 -131.62625 
L 548.926364 -131.62625 
L 548.926364 -131.62625 
L 548.926364 -131.62625 
L 548.926364 -131.62625 
L 548.926364 -131.62625 
L 548.926364 -131.62625 
L 548.926364 -131.62625 
L 548.926364 -131.62625 
L 548.926364 -131.62625 
L 548.926364 -131.62625 
L 548.926364 -131.62625 
L 548.926364 -131.62625 
L 548.926364 -131.62625 
L 548.926364 -131.62625 
L 548.926364 -131.62625 
L 548.926364 -131.62625 
L 548.926364 -131.62625 
L 548.926364 -131.62625 
L 548.926364 -131.62625 
L 548.926364 -131.62625 
L 548.926364 -131.62625 
L 548.926364 -131.62625 
L 548.926364 -131.62625 
L 548.926364 -131.62625 
L 548.926364 -131.62625 
L 548.926364 -131.62625 
L 548.926364 -131.62625 
L 548.926364 -131.62625 
L 548.926364 -131.62625 
L 548.926364 -131.62625 
L 548.926364 -131.62625 
L 548.926364 -131.62625 
L 548.926364 -131.62625 
L 548.926364 -131.62625 
L 548.926364 -131.62625 
L 548.926364 -131.62625 
L 548.926364 -131.62625 
L 548.926364 -131.62625 
L 548.926364 -131.62625 
L 548.926364 -131.62625 
L 548.926364 -131.62625 
L 548.926364 -131.62625 
L 548.926364 -131.62625 
L 548.926364 -131.62625 
L 548.926364 -131.62625 
L 548.926364 -131.62625 
L 548.926364 -131.62625 
L 548.926364 -131.62625 
L 548.926364 -131.62625 
L 548.926364 -131.62625 
L 548.926364 -131.62625 
L 548.926364 -131.62625 
L 548.926364 -131.62625 
L 548.926364 -131.62625 
L 548.926364 -131.62625 
L 548.926364 -131.62625 
L 548.926364 -131.62625 
L 548.926364 -131.62625 
L 548.926364 -131.62625 
L 548.926364 -131.62625 
L 548.926364 -131.62625 
L 548.926364 -131.62625 
L 548.926364 -131.62625 
L 548.926364 -131.62625 
L 548.926364 -131.62625 
L 548.926364 -131.62625 
L 548.926364 -131.62625 
L 548.926364 -131.62625 
L 548.926364 -131.62625 
L 548.926364 -131.62625 
L 548.926364 -131.62625 
L 548.926364 -131.62625 
L 548.926364 -131.62625 
L 548.926364 -131.62625 
L 548.926364 -131.62625 
L 548.926364 -131.62625 
L 548.926364 -131.62625 
L 548.926364 -131.62625 
L 548.926364 -131.62625 
L 579.362727 -131.62625 
L 579.362727 -131.62625 
L 579.362727 -131.62625 
L 579.362727 -131.62625 
L 579.362727 -131.62625 
L 579.362727 -131.62625 
L 579.362727 -131.62625 
L 579.362727 -131.62625 
L 579.362727 -131.62625 
L 579.362727 -131.62625 
L 579.362727 -131.62625 
L 579.362727 -131.62625 
L 579.362727 -131.62625 
L 579.362727 -131.62625 
L 579.362727 -131.62625 
L 579.362727 -131.62625 
L 579.362727 -131.62625 
L 579.362727 -131.62625 
L 579.362727 -131.62625 
L 579.362727 -131.62625 
L 579.362727 -131.62625 
L 579.362727 -131.62625 
L 579.362727 -131.62625 
L 579.362727 -131.62625 
L 579.362727 -131.62625 
L 579.362727 -131.62625 
L 579.362727 -131.62625 
L 579.362727 -131.62625 
L 579.362727 -131.62625 
L 579.362727 -131.62625 
L 579.362727 -131.62625 
L 579.362727 -131.62625 
L 579.362727 -131.62625 
L 579.362727 -131.62625 
L 579.362727 -131.62625 
L 579.362727 -131.62625 
L 579.362727 -131.62625 
L 579.362727 -131.62625 
L 579.362727 -131.62625 
L 579.362727 -131.62625 
L 579.362727 -131.62625 
L 579.362727 -131.62625 
L 579.362727 -131.62625 
L 579.362727 -131.62625 
L 579.362727 -131.62625 
L 579.362727 -131.62625 
L 579.362727 -131.62625 
L 579.362727 -131.62625 
L 579.362727 -131.62625 
L 579.362727 -131.62625 
L 579.362727 -131.62625 
L 579.362727 -131.62625 
L 579.362727 -131.62625 
L 579.362727 -131.62625 
L 579.362727 -131.62625 
L 579.362727 -131.62625 
L 579.362727 -131.62625 
L 579.362727 -131.62625 
L 579.362727 -131.62625 
L 579.362727 -131.62625 
L 579.362727 -131.62625 
L 579.362727 -131.62625 
L 579.362727 -131.62625 
L 579.362727 -131.62625 
L 579.362727 -131.62625 
L 579.362727 -131.62625 
L 579.362727 -131.62625 
L 579.362727 -131.62625 
L 579.362727 -131.62625 
L 579.362727 -131.62625 
L 579.362727 -131.62625 
L 579.362727 -131.62625 
L 579.362727 -131.62625 
L 579.362727 -131.62625 
L 579.362727 -131.62625 
L 579.362727 -131.62625 
L 579.362727 -131.62625 
L 579.362727 -131.62625 
L 579.362727 -131.62625 
L 579.362727 -131.62625 
L 579.362727 -131.62625 
L 579.362727 -131.62625 
L 579.362727 -131.62625 
L 579.362727 -131.62625 
L 579.362727 -131.62625 
L 579.362727 -131.62625 
L 579.362727 -131.62625 
L 579.362727 -131.62625 
L 579.362727 -131.62625 
L 579.362727 -131.62625 
L 579.362727 -131.62625 
L 579.362727 -131.62625 
L 579.362727 -131.62625 
L 579.362727 -131.62625 
L 579.362727 -131.62625 
L 579.362727 -131.62625 
L 579.362727 -131.62625 
L 579.362727 -131.62625 
L 579.362727 -131.62625 
L 579.362727 -131.62625 
L 579.362727 -131.62625 
z
" id="m696632abfe" style="stroke:#000000;stroke-opacity:0.3;"/>
    </defs>
    <g clip-path="url(#pa256d4ea4e)">
     <use style="fill:#bfbf00;fill-opacity:0.3;stroke:#000000;stroke-opacity:0.3;" x="0.0" xlink:href="#m696632abfe" y="471.568"/>
    </g>
   </g>
   <g id="PolyCollection_10">
    <defs>
     <path d="M 640.235455 -131.62625 
L 609.799091 -131.62625 
L 609.799091 -131.62625 
L 609.799091 -131.62625 
L 609.799091 -131.62625 
L 609.799091 -131.62625 
L 609.799091 -131.62625 
L 609.799091 -131.62625 
L 609.799091 -131.62625 
L 609.799091 -131.62625 
L 609.799091 -131.62625 
L 609.799091 -131.62625 
L 609.799091 -131.62625 
L 609.799091 -131.62625 
L 609.799091 -131.62625 
L 609.799091 -131.62625 
L 609.799091 -131.62625 
L 609.799091 -131.62625 
L 609.799091 -131.62625 
L 609.799091 -131.62625 
L 609.799091 -131.62625 
L 609.799091 -131.62625 
L 609.799091 -131.62625 
L 609.799091 -131.62625 
L 609.799091 -131.62625 
L 609.799091 -131.62625 
L 609.799091 -131.62625 
L 609.799091 -131.62625 
L 609.799091 -131.62625 
L 609.799091 -131.62625 
L 609.799091 -131.62625 
L 609.799091 -131.62625 
L 609.799091 -131.62625 
L 609.799091 -131.62625 
L 609.799091 -131.62625 
L 609.799091 -131.62625 
L 609.799091 -131.62625 
L 609.799091 -131.62625 
L 609.799091 -131.62625 
L 609.799091 -131.62625 
L 609.799091 -131.62625 
L 609.799091 -131.62625 
L 609.799091 -131.62625 
L 609.799091 -131.62625 
L 609.799091 -131.62625 
L 609.799091 -131.62625 
L 609.799091 -131.62625 
L 609.799091 -131.62625 
L 609.799091 -131.62625 
L 609.799091 -131.62625 
L 609.799091 -131.62625 
L 609.799091 -131.62625 
L 609.799091 -131.62625 
L 609.799091 -131.62625 
L 609.799091 -131.62625 
L 609.799091 -131.62625 
L 609.799091 -131.62625 
L 609.799091 -131.62625 
L 609.799091 -131.62625 
L 609.799091 -131.62625 
L 609.799091 -131.62625 
L 609.799091 -131.62625 
L 609.799091 -131.62625 
L 609.799091 -131.62625 
L 609.799091 -131.62625 
L 609.799091 -131.62625 
L 609.799091 -131.62625 
L 609.799091 -131.62625 
L 609.799091 -131.62625 
L 609.799091 -131.62625 
L 609.799091 -131.62625 
L 609.799091 -131.62625 
L 609.799091 -131.62625 
L 609.799091 -131.62625 
L 609.799091 -131.62625 
L 609.799091 -131.62625 
L 609.799091 -131.62625 
L 609.799091 -131.62625 
L 609.799091 -131.62625 
L 609.799091 -131.62625 
L 609.799091 -131.62625 
L 609.799091 -131.62625 
L 609.799091 -131.62625 
L 609.799091 -131.62625 
L 609.799091 -131.62625 
L 609.799091 -131.62625 
L 609.799091 -131.62625 
L 609.799091 -131.62625 
L 609.799091 -131.62625 
L 609.799091 -131.62625 
L 609.799091 -131.62625 
L 609.799091 -131.62625 
L 609.799091 -131.62625 
L 609.799091 -131.62625 
L 609.799091 -131.62625 
L 609.799091 -131.62625 
L 609.799091 -131.62625 
L 609.799091 -131.62625 
L 609.799091 -131.62625 
L 609.799091 -131.62625 
L 609.799091 -131.62625 
L 640.235455 -131.62625 
L 640.235455 -131.62625 
L 640.235455 -131.62625 
L 640.235455 -131.62625 
L 640.235455 -131.62625 
L 640.235455 -131.62625 
L 640.235455 -131.62625 
L 640.235455 -131.62625 
L 640.235455 -131.62625 
L 640.235455 -131.62625 
L 640.235455 -131.62625 
L 640.235455 -131.62625 
L 640.235455 -131.62625 
L 640.235455 -131.62625 
L 640.235455 -131.62625 
L 640.235455 -131.62625 
L 640.235455 -131.62625 
L 640.235455 -131.62625 
L 640.235455 -131.62625 
L 640.235455 -131.62625 
L 640.235455 -131.62625 
L 640.235455 -131.62625 
L 640.235455 -131.62625 
L 640.235455 -131.62625 
L 640.235455 -131.62625 
L 640.235455 -131.62625 
L 640.235455 -131.62625 
L 640.235455 -131.62625 
L 640.235455 -131.62625 
L 640.235455 -131.62625 
L 640.235455 -131.62625 
L 640.235455 -131.62625 
L 640.235455 -131.62625 
L 640.235455 -131.62625 
L 640.235455 -131.62625 
L 640.235455 -131.62625 
L 640.235455 -131.62625 
L 640.235455 -131.62625 
L 640.235455 -131.62625 
L 640.235455 -131.62625 
L 640.235455 -131.62625 
L 640.235455 -131.62625 
L 640.235455 -131.62625 
L 640.235455 -131.62625 
L 640.235455 -131.62625 
L 640.235455 -131.62625 
L 640.235455 -131.62625 
L 640.235455 -131.62625 
L 640.235455 -131.62625 
L 640.235455 -131.62625 
L 640.235455 -131.62625 
L 640.235455 -131.62625 
L 640.235455 -131.62625 
L 640.235455 -131.62625 
L 640.235455 -131.62625 
L 640.235455 -131.62625 
L 640.235455 -131.62625 
L 640.235455 -131.62625 
L 640.235455 -131.62625 
L 640.235455 -131.62625 
L 640.235455 -131.62625 
L 640.235455 -131.62625 
L 640.235455 -131.62625 
L 640.235455 -131.62625 
L 640.235455 -131.62625 
L 640.235455 -131.62625 
L 640.235455 -131.62625 
L 640.235455 -131.62625 
L 640.235455 -131.62625 
L 640.235455 -131.62625 
L 640.235455 -131.62625 
L 640.235455 -131.62625 
L 640.235455 -131.62625 
L 640.235455 -131.62625 
L 640.235455 -131.62625 
L 640.235455 -131.62625 
L 640.235455 -131.62625 
L 640.235455 -131.62625 
L 640.235455 -131.62625 
L 640.235455 -131.62625 
L 640.235455 -131.62625 
L 640.235455 -131.62625 
L 640.235455 -131.62625 
L 640.235455 -131.62625 
L 640.235455 -131.62625 
L 640.235455 -131.62625 
L 640.235455 -131.62625 
L 640.235455 -131.62625 
L 640.235455 -131.62625 
L 640.235455 -131.62625 
L 640.235455 -131.62625 
L 640.235455 -131.62625 
L 640.235455 -131.62625 
L 640.235455 -131.62625 
L 640.235455 -131.62625 
L 640.235455 -131.62625 
L 640.235455 -131.62625 
L 640.235455 -131.62625 
L 640.235455 -131.62625 
L 640.235455 -131.62625 
L 640.235455 -131.62625 
z
" id="mb0529f3c67" style="stroke:#000000;stroke-opacity:0.3;"/>
    </defs>
    <g clip-path="url(#pa256d4ea4e)">
     <use style="fill:#bfbf00;fill-opacity:0.3;stroke:#000000;stroke-opacity:0.3;" x="0.0" xlink:href="#mb0529f3c67" y="471.568"/>
    </g>
   </g>
   <g id="LineCollection_1">
    <path clip-path="url(#pa256d4ea4e)" d="M 69.553636 51.94175 
L 84.771818 51.94175 
" style="fill:none;stroke:#ff0000;"/>
    <path clip-path="url(#pa256d4ea4e)" d="M 130.426364 80.74175 
L 145.644545 80.74175 
" style="fill:none;stroke:#ff0000;"/>
    <path clip-path="url(#pa256d4ea4e)" d="M 191.299091 224.74175 
L 206.517273 224.74175 
" style="fill:none;stroke:#ff0000;"/>
    <path clip-path="url(#pa256d4ea4e)" d="M 252.171818 282.34175 
L 267.39 282.34175 
" style="fill:none;stroke:#ff0000;"/>
    <path clip-path="url(#pa256d4ea4e)" d="M 313.044545 282.34175 
L 328.262727 282.34175 
" style="fill:none;stroke:#ff0000;"/>
    <path clip-path="url(#pa256d4ea4e)" d="M 373.917273 311.14175 
L 389.135455 311.14175 
" style="fill:none;stroke:#ff0000;"/>
    <path clip-path="url(#pa256d4ea4e)" d="M 434.79 311.14175 
L 450.008182 311.14175 
" style="fill:none;stroke:#ff0000;"/>
    <path clip-path="url(#pa256d4ea4e)" d="M 495.662727 339.94175 
L 510.880909 339.94175 
" style="fill:none;stroke:#ff0000;"/>
    <path clip-path="url(#pa256d4ea4e)" d="M 556.535455 339.94175 
L 571.753636 339.94175 
" style="fill:none;stroke:#ff0000;"/>
    <path clip-path="url(#pa256d4ea4e)" d="M 617.408182 339.94175 
L 632.626364 339.94175 
" style="fill:none;stroke:#ff0000;"/>
   </g>
   <g id="patch_3">
    <path d="M 685.89 368.74175 
L 685.89 23.14175 
" style="fill:none;stroke:#000000;stroke-linecap:square;stroke-linejoin:miter;"/>
   </g>
   <g id="patch_4">
    <path d="M 16.29 23.14175 
L 685.89 23.14175 
" style="fill:none;stroke:#000000;stroke-linecap:square;stroke-linejoin:miter;"/>
   </g>
   <g id="patch_5">
    <path d="M 16.29 368.74175 
L 685.89 368.74175 
" style="fill:none;stroke:#000000;stroke-linecap:square;stroke-linejoin:miter;"/>
   </g>
   <g id="patch_6">
    <path d="M 16.29 368.74175 
L 16.29 23.14175 
" style="fill:none;stroke:#000000;stroke-linecap:square;stroke-linejoin:miter;"/>
   </g>
   <g id="matplotlib.axis_1">
    <g id="xtick_1">
     <g id="line2d_1">
      <defs>
       <path d="M 0 0 
L 0 -4 
" id="m1669672d83" style="stroke:#000000;stroke-width:0.5;"/>
      </defs>
      <g>
       <use style="stroke:#000000;stroke-width:0.5;" x="77.1627272727" xlink:href="#m1669672d83" y="368.74175"/>
      </g>
     </g>
     <g id="line2d_2">
      <defs>
       <path d="M 0 0 
L 0 4 
" id="m488da0a4c3" style="stroke:#000000;stroke-width:0.5;"/>
      </defs>
      <g>
       <use style="stroke:#000000;stroke-width:0.5;" x="77.1627272727" xlink:href="#m488da0a4c3" y="23.14175"/>
      </g>
     </g>
     <g id="text_1">
      <!-- Mind Bender -->
      <defs>
       <path d="M 19.671875 34.8125 
L 19.671875 8.109375 
L 35.5 8.109375 
Q 43.453125 8.109375 47.28125 11.40625 
Q 51.125 14.703125 51.125 21.484375 
Q 51.125 28.328125 47.28125 31.5625 
Q 43.453125 34.8125 35.5 34.8125 
z
M 19.671875 64.796875 
L 19.671875 42.828125 
L 34.28125 42.828125 
Q 41.5 42.828125 45.03125 45.53125 
Q 48.578125 48.25 48.578125 53.8125 
Q 48.578125 59.328125 45.03125 62.0625 
Q 41.5 64.796875 34.28125 64.796875 
z
M 9.8125 72.90625 
L 35.015625 72.90625 
Q 46.296875 72.90625 52.390625 68.21875 
Q 58.5 63.53125 58.5 54.890625 
Q 58.5 48.1875 55.375 44.234375 
Q 52.25 40.28125 46.1875 39.3125 
Q 53.46875 37.75 57.5 32.78125 
Q 61.53125 27.828125 61.53125 20.40625 
Q 61.53125 10.640625 54.890625 5.3125 
Q 48.25 0 35.984375 0 
L 9.8125 0 
z
" id="BitstreamVeraSans-Roman-42"/>
       <path id="BitstreamVeraSans-Roman-20"/>
       <path d="M 9.8125 72.90625 
L 24.515625 72.90625 
L 43.109375 23.296875 
L 61.8125 72.90625 
L 76.515625 72.90625 
L 76.515625 0 
L 66.890625 0 
L 66.890625 64.015625 
L 48.09375 14.015625 
L 38.1875 14.015625 
L 19.390625 64.015625 
L 19.390625 0 
L 9.8125 0 
z
" id="BitstreamVeraSans-Roman-4d"/>
       <path d="M 45.40625 46.390625 
L 45.40625 75.984375 
L 54.390625 75.984375 
L 54.390625 0 
L 45.40625 0 
L 45.40625 8.203125 
Q 42.578125 3.328125 38.25 0.953125 
Q 33.9375 -1.421875 27.875 -1.421875 
Q 17.96875 -1.421875 11.734375 6.484375 
Q 5.515625 14.40625 5.515625 27.296875 
Q 5.515625 40.1875 11.734375 48.09375 
Q 17.96875 56 27.875 56 
Q 33.9375 56 38.25 53.625 
Q 42.578125 51.265625 45.40625 46.390625 
M 14.796875 27.296875 
Q 14.796875 17.390625 18.875 11.75 
Q 22.953125 6.109375 30.078125 6.109375 
Q 37.203125 6.109375 41.296875 11.75 
Q 45.40625 17.390625 45.40625 27.296875 
Q 45.40625 37.203125 41.296875 42.84375 
Q 37.203125 48.484375 30.078125 48.484375 
Q 22.953125 48.484375 18.875 42.84375 
Q 14.796875 37.203125 14.796875 27.296875 
" id="BitstreamVeraSans-Roman-64"/>
       <path d="M 9.421875 54.6875 
L 18.40625 54.6875 
L 18.40625 0 
L 9.421875 0 
z
M 9.421875 75.984375 
L 18.40625 75.984375 
L 18.40625 64.59375 
L 9.421875 64.59375 
z
" id="BitstreamVeraSans-Roman-69"/>
       <path d="M 41.109375 46.296875 
Q 39.59375 47.171875 37.8125 47.578125 
Q 36.03125 48 33.890625 48 
Q 26.265625 48 22.1875 43.046875 
Q 18.109375 38.09375 18.109375 28.8125 
L 18.109375 0 
L 9.078125 0 
L 9.078125 54.6875 
L 18.109375 54.6875 
L 18.109375 46.1875 
Q 20.953125 51.171875 25.484375 53.578125 
Q 30.03125 56 36.53125 56 
Q 37.453125 56 38.578125 55.875 
Q 39.703125 55.765625 41.0625 55.515625 
z
" id="BitstreamVeraSans-Roman-72"/>
       <path d="M 56.203125 29.59375 
L 56.203125 25.203125 
L 14.890625 25.203125 
Q 15.484375 15.921875 20.484375 11.0625 
Q 25.484375 6.203125 34.421875 6.203125 
Q 39.59375 6.203125 44.453125 7.46875 
Q 49.3125 8.734375 54.109375 11.28125 
L 54.109375 2.78125 
Q 49.265625 0.734375 44.1875 -0.34375 
Q 39.109375 -1.421875 33.890625 -1.421875 
Q 20.796875 -1.421875 13.15625 6.1875 
Q 5.515625 13.8125 5.515625 26.8125 
Q 5.515625 40.234375 12.765625 48.109375 
Q 20.015625 56 32.328125 56 
Q 43.359375 56 49.78125 48.890625 
Q 56.203125 41.796875 56.203125 29.59375 
M 47.21875 32.234375 
Q 47.125 39.59375 43.09375 43.984375 
Q 39.0625 48.390625 32.421875 48.390625 
Q 24.90625 48.390625 20.390625 44.140625 
Q 15.875 39.890625 15.1875 32.171875 
z
" id="BitstreamVeraSans-Roman-65"/>
       <path d="M 54.890625 33.015625 
L 54.890625 0 
L 45.90625 0 
L 45.90625 32.71875 
Q 45.90625 40.484375 42.875 44.328125 
Q 39.84375 48.1875 33.796875 48.1875 
Q 26.515625 48.1875 22.3125 43.546875 
Q 18.109375 38.921875 18.109375 30.90625 
L 18.109375 0 
L 9.078125 0 
L 9.078125 54.6875 
L 18.109375 54.6875 
L 18.109375 46.1875 
Q 21.34375 51.125 25.703125 53.5625 
Q 30.078125 56 35.796875 56 
Q 45.21875 56 50.046875 50.171875 
Q 54.890625 44.34375 54.890625 33.015625 
" id="BitstreamVeraSans-Roman-6e"/>
      </defs>
      <g transform="translate(79.3702272727 423.32925)rotate(-90.0)scale(0.08 -0.08)">
       <use xlink:href="#BitstreamVeraSans-Roman-4d"/>
       <use x="86.279296875" xlink:href="#BitstreamVeraSans-Roman-69"/>
       <use x="114.0625" xlink:href="#BitstreamVeraSans-Roman-6e"/>
       <use x="177.44140625" xlink:href="#BitstreamVeraSans-Roman-64"/>
       <use x="240.91796875" xlink:href="#BitstreamVeraSans-Roman-20"/>
       <use x="272.705078125" xlink:href="#BitstreamVeraSans-Roman-42"/>
       <use x="341.30859375" xlink:href="#BitstreamVeraSans-Roman-65"/>
       <use x="402.83203125" xlink:href="#BitstreamVeraSans-Roman-6e"/>
       <use x="466.2109375" xlink:href="#BitstreamVeraSans-Roman-64"/>
       <use x="529.6875" xlink:href="#BitstreamVeraSans-Roman-65"/>
       <use x="591.2109375" xlink:href="#BitstreamVeraSans-Roman-72"/>
      </g>
     </g>
    </g>
    <g id="xtick_2">
     <g id="line2d_3">
      <g>
       <use style="stroke:#000000;stroke-width:0.5;" x="138.035454545" xlink:href="#m1669672d83" y="368.74175"/>
      </g>
     </g>
     <g id="line2d_4">
      <g>
       <use style="stroke:#000000;stroke-width:0.5;" x="138.035454545" xlink:href="#m488da0a4c3" y="23.14175"/>
      </g>
     </g>
     <g id="text_2">
      <!-- Mind Controller -->
      <defs>
       <path d="M 9.421875 75.984375 
L 18.40625 75.984375 
L 18.40625 0 
L 9.421875 0 
z
" id="BitstreamVeraSans-Roman-6c"/>
       <path d="M 30.609375 48.390625 
Q 23.390625 48.390625 19.1875 42.75 
Q 14.984375 37.109375 14.984375 27.296875 
Q 14.984375 17.484375 19.15625 11.84375 
Q 23.34375 6.203125 30.609375 6.203125 
Q 37.796875 6.203125 41.984375 11.859375 
Q 46.1875 17.53125 46.1875 27.296875 
Q 46.1875 37.015625 41.984375 42.703125 
Q 37.796875 48.390625 30.609375 48.390625 
M 30.609375 56 
Q 42.328125 56 49.015625 48.375 
Q 55.71875 40.765625 55.71875 27.296875 
Q 55.71875 13.875 49.015625 6.21875 
Q 42.328125 -1.421875 30.609375 -1.421875 
Q 18.84375 -1.421875 12.171875 6.21875 
Q 5.515625 13.875 5.515625 27.296875 
Q 5.515625 40.765625 12.171875 48.375 
Q 18.84375 56 30.609375 56 
" id="BitstreamVeraSans-Roman-6f"/>
       <path d="M 18.3125 70.21875 
L 18.3125 54.6875 
L 36.8125 54.6875 
L 36.8125 47.703125 
L 18.3125 47.703125 
L 18.3125 18.015625 
Q 18.3125 11.328125 20.140625 9.421875 
Q 21.96875 7.515625 27.59375 7.515625 
L 36.8125 7.515625 
L 36.8125 0 
L 27.59375 0 
Q 17.1875 0 13.234375 3.875 
Q 9.28125 7.765625 9.28125 18.015625 
L 9.28125 47.703125 
L 2.6875 47.703125 
L 2.6875 54.6875 
L 9.28125 54.6875 
L 9.28125 70.21875 
z
" id="BitstreamVeraSans-Roman-74"/>
       <path d="M 64.40625 67.28125 
L 64.40625 56.890625 
Q 59.421875 61.53125 53.78125 63.8125 
Q 48.140625 66.109375 41.796875 66.109375 
Q 29.296875 66.109375 22.65625 58.46875 
Q 16.015625 50.828125 16.015625 36.375 
Q 16.015625 21.96875 22.65625 14.328125 
Q 29.296875 6.6875 41.796875 6.6875 
Q 48.140625 6.6875 53.78125 8.984375 
Q 59.421875 11.28125 64.40625 15.921875 
L 64.40625 5.609375 
Q 59.234375 2.09375 53.4375 0.328125 
Q 47.65625 -1.421875 41.21875 -1.421875 
Q 24.65625 -1.421875 15.125 8.703125 
Q 5.609375 18.84375 5.609375 36.375 
Q 5.609375 53.953125 15.125 64.078125 
Q 24.65625 74.21875 41.21875 74.21875 
Q 47.75 74.21875 53.53125 72.484375 
Q 59.328125 70.75 64.40625 67.28125 
" id="BitstreamVeraSans-Roman-43"/>
      </defs>
      <g transform="translate(140.242954545 434.083)rotate(-90.0)scale(0.08 -0.08)">
       <use xlink:href="#BitstreamVeraSans-Roman-4d"/>
       <use x="86.279296875" xlink:href="#BitstreamVeraSans-Roman-69"/>
       <use x="114.0625" xlink:href="#BitstreamVeraSans-Roman-6e"/>
       <use x="177.44140625" xlink:href="#BitstreamVeraSans-Roman-64"/>
       <use x="240.91796875" xlink:href="#BitstreamVeraSans-Roman-20"/>
       <use x="272.705078125" xlink:href="#BitstreamVeraSans-Roman-43"/>
       <use x="342.529296875" xlink:href="#BitstreamVeraSans-Roman-6f"/>
       <use x="403.7109375" xlink:href="#BitstreamVeraSans-Roman-6e"/>
       <use x="467.08984375" xlink:href="#BitstreamVeraSans-Roman-74"/>
       <use x="506.298828125" xlink:href="#BitstreamVeraSans-Roman-72"/>
       <use x="547.380859375" xlink:href="#BitstreamVeraSans-Roman-6f"/>
       <use x="608.5625" xlink:href="#BitstreamVeraSans-Roman-6c"/>
       <use x="636.345703125" xlink:href="#BitstreamVeraSans-Roman-6c"/>
       <use x="664.12890625" xlink:href="#BitstreamVeraSans-Roman-65"/>
       <use x="725.65234375" xlink:href="#BitstreamVeraSans-Roman-72"/>
      </g>
     </g>
    </g>
    <g id="xtick_3">
     <g id="line2d_5">
      <g>
       <use style="stroke:#000000;stroke-width:0.5;" x="198.908181818" xlink:href="#m1669672d83" y="368.74175"/>
      </g>
     </g>
     <g id="line2d_6">
      <g>
       <use style="stroke:#000000;stroke-width:0.5;" x="198.908181818" xlink:href="#m488da0a4c3" y="23.14175"/>
      </g>
     </g>
     <g id="text_3">
      <!-- Mind Warper -->
      <defs>
       <path d="M 34.28125 27.484375 
Q 23.390625 27.484375 19.1875 25 
Q 14.984375 22.515625 14.984375 16.5 
Q 14.984375 11.71875 18.140625 8.90625 
Q 21.296875 6.109375 26.703125 6.109375 
Q 34.1875 6.109375 38.703125 11.40625 
Q 43.21875 16.703125 43.21875 25.484375 
L 43.21875 27.484375 
z
M 52.203125 31.203125 
L 52.203125 0 
L 43.21875 0 
L 43.21875 8.296875 
Q 40.140625 3.328125 35.546875 0.953125 
Q 30.953125 -1.421875 24.3125 -1.421875 
Q 15.921875 -1.421875 10.953125 3.296875 
Q 6 8.015625 6 15.921875 
Q 6 25.140625 12.171875 29.828125 
Q 18.359375 34.515625 30.609375 34.515625 
L 43.21875 34.515625 
L 43.21875 35.40625 
Q 43.21875 41.609375 39.140625 45 
Q 35.0625 48.390625 27.6875 48.390625 
Q 23 48.390625 18.546875 47.265625 
Q 14.109375 46.140625 10.015625 43.890625 
L 10.015625 52.203125 
Q 14.9375 54.109375 19.578125 55.046875 
Q 24.21875 56 28.609375 56 
Q 40.484375 56 46.34375 49.84375 
Q 52.203125 43.703125 52.203125 31.203125 
" id="BitstreamVeraSans-Roman-61"/>
       <path d="M 18.109375 8.203125 
L 18.109375 -20.796875 
L 9.078125 -20.796875 
L 9.078125 54.6875 
L 18.109375 54.6875 
L 18.109375 46.390625 
Q 20.953125 51.265625 25.265625 53.625 
Q 29.59375 56 35.59375 56 
Q 45.5625 56 51.78125 48.09375 
Q 58.015625 40.1875 58.015625 27.296875 
Q 58.015625 14.40625 51.78125 6.484375 
Q 45.5625 -1.421875 35.59375 -1.421875 
Q 29.59375 -1.421875 25.265625 0.953125 
Q 20.953125 3.328125 18.109375 8.203125 
M 48.6875 27.296875 
Q 48.6875 37.203125 44.609375 42.84375 
Q 40.53125 48.484375 33.40625 48.484375 
Q 26.265625 48.484375 22.1875 42.84375 
Q 18.109375 37.203125 18.109375 27.296875 
Q 18.109375 17.390625 22.1875 11.75 
Q 26.265625 6.109375 33.40625 6.109375 
Q 40.53125 6.109375 44.609375 11.75 
Q 48.6875 17.390625 48.6875 27.296875 
" id="BitstreamVeraSans-Roman-70"/>
       <path d="M 3.328125 72.90625 
L 13.28125 72.90625 
L 28.609375 11.28125 
L 43.890625 72.90625 
L 54.984375 72.90625 
L 70.3125 11.28125 
L 85.59375 72.90625 
L 95.609375 72.90625 
L 77.296875 0 
L 64.890625 0 
L 49.515625 63.28125 
L 33.984375 0 
L 21.578125 0 
z
" id="BitstreamVeraSans-Roman-57"/>
      </defs>
      <g transform="translate(201.115681818 423.94175)rotate(-90.0)scale(0.08 -0.08)">
       <use xlink:href="#BitstreamVeraSans-Roman-4d"/>
       <use x="86.279296875" xlink:href="#BitstreamVeraSans-Roman-69"/>
       <use x="114.0625" xlink:href="#BitstreamVeraSans-Roman-6e"/>
       <use x="177.44140625" xlink:href="#BitstreamVeraSans-Roman-64"/>
       <use x="240.91796875" xlink:href="#BitstreamVeraSans-Roman-20"/>
       <use x="272.705078125" xlink:href="#BitstreamVeraSans-Roman-57"/>
       <use x="371.48828125" xlink:href="#BitstreamVeraSans-Roman-61"/>
       <use x="432.767578125" xlink:href="#BitstreamVeraSans-Roman-72"/>
       <use x="473.880859375" xlink:href="#BitstreamVeraSans-Roman-70"/>
       <use x="537.357421875" xlink:href="#BitstreamVeraSans-Roman-65"/>
       <use x="598.880859375" xlink:href="#BitstreamVeraSans-Roman-72"/>
      </g>
     </g>
    </g>
    <g id="xtick_4">
     <g id="line2d_7">
      <g>
       <use style="stroke:#000000;stroke-width:0.5;" x="259.780909091" xlink:href="#m1669672d83" y="368.74175"/>
      </g>
     </g>
     <g id="line2d_8">
      <g>
       <use style="stroke:#000000;stroke-width:0.5;" x="259.780909091" xlink:href="#m488da0a4c3" y="23.14175"/>
      </g>
     </g>
     <g id="text_4">
      <!-- Mirror Mind Reader -->
      <defs>
       <path d="M 44.390625 34.1875 
Q 47.5625 33.109375 50.5625 29.59375 
Q 53.5625 26.078125 56.59375 19.921875 
L 66.609375 0 
L 56 0 
L 46.6875 18.703125 
Q 43.0625 26.03125 39.671875 28.421875 
Q 36.28125 30.8125 30.421875 30.8125 
L 19.671875 30.8125 
L 19.671875 0 
L 9.8125 0 
L 9.8125 72.90625 
L 32.078125 72.90625 
Q 44.578125 72.90625 50.734375 67.671875 
Q 56.890625 62.453125 56.890625 51.90625 
Q 56.890625 45.015625 53.6875 40.46875 
Q 50.484375 35.9375 44.390625 34.1875 
M 19.671875 64.796875 
L 19.671875 38.921875 
L 32.078125 38.921875 
Q 39.203125 38.921875 42.84375 42.21875 
Q 46.484375 45.515625 46.484375 51.90625 
Q 46.484375 58.296875 42.84375 61.546875 
Q 39.203125 64.796875 32.078125 64.796875 
z
" id="BitstreamVeraSans-Roman-52"/>
      </defs>
      <g transform="translate(261.988409091 449.65175)rotate(-90.0)scale(0.08 -0.08)">
       <use xlink:href="#BitstreamVeraSans-Roman-4d"/>
       <use x="86.279296875" xlink:href="#BitstreamVeraSans-Roman-69"/>
       <use x="114.0625" xlink:href="#BitstreamVeraSans-Roman-72"/>
       <use x="155.16015625" xlink:href="#BitstreamVeraSans-Roman-72"/>
       <use x="196.2421875" xlink:href="#BitstreamVeraSans-Roman-6f"/>
       <use x="257.423828125" xlink:href="#BitstreamVeraSans-Roman-72"/>
       <use x="298.537109375" xlink:href="#BitstreamVeraSans-Roman-20"/>
       <use x="330.32421875" xlink:href="#BitstreamVeraSans-Roman-4d"/>
       <use x="416.603515625" xlink:href="#BitstreamVeraSans-Roman-69"/>
       <use x="444.38671875" xlink:href="#BitstreamVeraSans-Roman-6e"/>
       <use x="507.765625" xlink:href="#BitstreamVeraSans-Roman-64"/>
       <use x="571.2421875" xlink:href="#BitstreamVeraSans-Roman-20"/>
       <use x="603.029296875" xlink:href="#BitstreamVeraSans-Roman-52"/>
       <use x="672.44921875" xlink:href="#BitstreamVeraSans-Roman-65"/>
       <use x="733.97265625" xlink:href="#BitstreamVeraSans-Roman-61"/>
       <use x="795.251953125" xlink:href="#BitstreamVeraSans-Roman-64"/>
       <use x="858.728515625" xlink:href="#BitstreamVeraSans-Roman-65"/>
       <use x="920.251953125" xlink:href="#BitstreamVeraSans-Roman-72"/>
      </g>
     </g>
    </g>
    <g id="xtick_5">
     <g id="line2d_9">
      <g>
       <use style="stroke:#000000;stroke-width:0.5;" x="320.653636364" xlink:href="#m1669672d83" y="368.74175"/>
      </g>
     </g>
     <g id="line2d_10">
      <g>
       <use style="stroke:#000000;stroke-width:0.5;" x="320.653636364" xlink:href="#m488da0a4c3" y="23.14175"/>
      </g>
     </g>
     <g id="text_5">
      <!-- Mind Reader -->
      <g transform="translate(322.861136364 423.22675)rotate(-90.0)scale(0.08 -0.08)">
       <use xlink:href="#BitstreamVeraSans-Roman-4d"/>
       <use x="86.279296875" xlink:href="#BitstreamVeraSans-Roman-69"/>
       <use x="114.0625" xlink:href="#BitstreamVeraSans-Roman-6e"/>
       <use x="177.44140625" xlink:href="#BitstreamVeraSans-Roman-64"/>
       <use x="240.91796875" xlink:href="#BitstreamVeraSans-Roman-20"/>
       <use x="272.705078125" xlink:href="#BitstreamVeraSans-Roman-52"/>
       <use x="342.125" xlink:href="#BitstreamVeraSans-Roman-65"/>
       <use x="403.6484375" xlink:href="#BitstreamVeraSans-Roman-61"/>
       <use x="464.927734375" xlink:href="#BitstreamVeraSans-Roman-64"/>
       <use x="528.404296875" xlink:href="#BitstreamVeraSans-Roman-65"/>
       <use x="589.927734375" xlink:href="#BitstreamVeraSans-Roman-72"/>
      </g>
     </g>
    </g>
    <g id="xtick_6">
     <g id="line2d_11">
      <g>
       <use style="stroke:#000000;stroke-width:0.5;" x="381.526363636" xlink:href="#m1669672d83" y="368.74175"/>
      </g>
     </g>
     <g id="line2d_12">
      <g>
       <use style="stroke:#000000;stroke-width:0.5;" x="381.526363636" xlink:href="#m488da0a4c3" y="23.14175"/>
      </g>
     </g>
     <g id="text_6">
      <!-- Geller Cooperator -->
      <defs>
       <path d="M 59.515625 10.40625 
L 59.515625 29.984375 
L 43.40625 29.984375 
L 43.40625 38.09375 
L 69.28125 38.09375 
L 69.28125 6.78125 
Q 63.578125 2.734375 56.6875 0.65625 
Q 49.8125 -1.421875 42 -1.421875 
Q 24.90625 -1.421875 15.25 8.5625 
Q 5.609375 18.5625 5.609375 36.375 
Q 5.609375 54.25 15.25 64.234375 
Q 24.90625 74.21875 42 74.21875 
Q 49.125 74.21875 55.546875 72.453125 
Q 61.96875 70.703125 67.390625 67.28125 
L 67.390625 56.78125 
Q 61.921875 61.421875 55.765625 63.765625 
Q 49.609375 66.109375 42.828125 66.109375 
Q 29.4375 66.109375 22.71875 58.640625 
Q 16.015625 51.171875 16.015625 36.375 
Q 16.015625 21.625 22.71875 14.15625 
Q 29.4375 6.6875 42.828125 6.6875 
Q 48.046875 6.6875 52.140625 7.59375 
Q 56.25 8.5 59.515625 10.40625 
" id="BitstreamVeraSans-Roman-47"/>
      </defs>
      <g transform="translate(383.733863636 443.9505)rotate(-90.0)scale(0.08 -0.08)">
       <use xlink:href="#BitstreamVeraSans-Roman-47"/>
       <use x="77.490234375" xlink:href="#BitstreamVeraSans-Roman-65"/>
       <use x="139.013671875" xlink:href="#BitstreamVeraSans-Roman-6c"/>
       <use x="166.796875" xlink:href="#BitstreamVeraSans-Roman-6c"/>
       <use x="194.580078125" xlink:href="#BitstreamVeraSans-Roman-65"/>
       <use x="256.103515625" xlink:href="#BitstreamVeraSans-Roman-72"/>
       <use x="297.216796875" xlink:href="#BitstreamVeraSans-Roman-20"/>
       <use x="329.00390625" xlink:href="#BitstreamVeraSans-Roman-43"/>
       <use x="398.828125" xlink:href="#BitstreamVeraSans-Roman-6f"/>
       <use x="460.009765625" xlink:href="#BitstreamVeraSans-Roman-6f"/>
       <use x="521.19140625" xlink:href="#BitstreamVeraSans-Roman-70"/>
       <use x="584.66796875" xlink:href="#BitstreamVeraSans-Roman-65"/>
       <use x="646.19140625" xlink:href="#BitstreamVeraSans-Roman-72"/>
       <use x="687.3046875" xlink:href="#BitstreamVeraSans-Roman-61"/>
       <use x="748.583984375" xlink:href="#BitstreamVeraSans-Roman-74"/>
       <use x="787.79296875" xlink:href="#BitstreamVeraSans-Roman-6f"/>
       <use x="848.974609375" xlink:href="#BitstreamVeraSans-Roman-72"/>
      </g>
     </g>
    </g>
    <g id="xtick_7">
     <g id="line2d_13">
      <g>
       <use style="stroke:#000000;stroke-width:0.5;" x="442.399090909" xlink:href="#m1669672d83" y="368.74175"/>
      </g>
     </g>
     <g id="line2d_14">
      <g>
       <use style="stroke:#000000;stroke-width:0.5;" x="442.399090909" xlink:href="#m488da0a4c3" y="23.14175"/>
      </g>
     </g>
     <g id="text_7">
      <!-- Geller -->
      <g transform="translate(444.606590909 396.51925)rotate(-90.0)scale(0.08 -0.08)">
       <use xlink:href="#BitstreamVeraSans-Roman-47"/>
       <use x="77.490234375" xlink:href="#BitstreamVeraSans-Roman-65"/>
       <use x="139.013671875" xlink:href="#BitstreamVeraSans-Roman-6c"/>
       <use x="166.796875" xlink:href="#BitstreamVeraSans-Roman-6c"/>
       <use x="194.580078125" xlink:href="#BitstreamVeraSans-Roman-65"/>
       <use x="256.103515625" xlink:href="#BitstreamVeraSans-Roman-72"/>
      </g>
     </g>
    </g>
    <g id="xtick_8">
     <g id="line2d_15">
      <g>
       <use style="stroke:#000000;stroke-width:0.5;" x="503.271818182" xlink:href="#m1669672d83" y="368.74175"/>
      </g>
     </g>
     <g id="line2d_16">
      <g>
       <use style="stroke:#000000;stroke-width:0.5;" x="503.271818182" xlink:href="#m488da0a4c3" y="23.14175"/>
      </g>
     </g>
     <g id="text_8">
      <!-- Protected Mind Reader -->
      <defs>
       <path d="M 19.671875 64.796875 
L 19.671875 37.40625 
L 32.078125 37.40625 
Q 38.96875 37.40625 42.71875 40.96875 
Q 46.484375 44.53125 46.484375 51.125 
Q 46.484375 57.671875 42.71875 61.234375 
Q 38.96875 64.796875 32.078125 64.796875 
z
M 9.8125 72.90625 
L 32.078125 72.90625 
Q 44.34375 72.90625 50.609375 67.359375 
Q 56.890625 61.8125 56.890625 51.125 
Q 56.890625 40.328125 50.609375 34.8125 
Q 44.34375 29.296875 32.078125 29.296875 
L 19.671875 29.296875 
L 19.671875 0 
L 9.8125 0 
z
" id="BitstreamVeraSans-Roman-50"/>
       <path d="M 48.78125 52.59375 
L 48.78125 44.1875 
Q 44.96875 46.296875 41.140625 47.34375 
Q 37.3125 48.390625 33.40625 48.390625 
Q 24.65625 48.390625 19.8125 42.84375 
Q 14.984375 37.3125 14.984375 27.296875 
Q 14.984375 17.28125 19.8125 11.734375 
Q 24.65625 6.203125 33.40625 6.203125 
Q 37.3125 6.203125 41.140625 7.25 
Q 44.96875 8.296875 48.78125 10.40625 
L 48.78125 2.09375 
Q 45.015625 0.34375 40.984375 -0.53125 
Q 36.96875 -1.421875 32.421875 -1.421875 
Q 20.0625 -1.421875 12.78125 6.34375 
Q 5.515625 14.109375 5.515625 27.296875 
Q 5.515625 40.671875 12.859375 48.328125 
Q 20.21875 56 33.015625 56 
Q 37.15625 56 41.109375 55.140625 
Q 45.0625 54.296875 48.78125 52.59375 
" id="BitstreamVeraSans-Roman-63"/>
      </defs>
      <g transform="translate(505.479318182 464.368)rotate(-90.0)scale(0.08 -0.08)">
       <use xlink:href="#BitstreamVeraSans-Roman-50"/>
       <use x="60.287109375" xlink:href="#BitstreamVeraSans-Roman-72"/>
       <use x="101.369140625" xlink:href="#BitstreamVeraSans-Roman-6f"/>
       <use x="162.55078125" xlink:href="#BitstreamVeraSans-Roman-74"/>
       <use x="201.759765625" xlink:href="#BitstreamVeraSans-Roman-65"/>
       <use x="263.283203125" xlink:href="#BitstreamVeraSans-Roman-63"/>
       <use x="318.263671875" xlink:href="#BitstreamVeraSans-Roman-74"/>
       <use x="357.47265625" xlink:href="#BitstreamVeraSans-Roman-65"/>
       <use x="418.99609375" xlink:href="#BitstreamVeraSans-Roman-64"/>
       <use x="482.47265625" xlink:href="#BitstreamVeraSans-Roman-20"/>
       <use x="514.259765625" xlink:href="#BitstreamVeraSans-Roman-4d"/>
       <use x="600.5390625" xlink:href="#BitstreamVeraSans-Roman-69"/>
       <use x="628.322265625" xlink:href="#BitstreamVeraSans-Roman-6e"/>
       <use x="691.701171875" xlink:href="#BitstreamVeraSans-Roman-64"/>
       <use x="755.177734375" xlink:href="#BitstreamVeraSans-Roman-20"/>
       <use x="786.96484375" xlink:href="#BitstreamVeraSans-Roman-52"/>
       <use x="856.384765625" xlink:href="#BitstreamVeraSans-Roman-65"/>
       <use x="917.908203125" xlink:href="#BitstreamVeraSans-Roman-61"/>
       <use x="979.1875" xlink:href="#BitstreamVeraSans-Roman-64"/>
       <use x="1042.6640625" xlink:href="#BitstreamVeraSans-Roman-65"/>
       <use x="1104.1875" xlink:href="#BitstreamVeraSans-Roman-72"/>
      </g>
     </g>
    </g>
    <g id="xtick_9">
     <g id="line2d_17">
      <g>
       <use style="stroke:#000000;stroke-width:0.5;" x="564.144545455" xlink:href="#m1669672d83" y="368.74175"/>
      </g>
     </g>
     <g id="line2d_18">
      <g>
       <use style="stroke:#000000;stroke-width:0.5;" x="564.144545455" xlink:href="#m488da0a4c3" y="23.14175"/>
      </g>
     </g>
     <g id="text_9">
      <!-- Geller Defector -->
      <defs>
       <path d="M 19.671875 64.796875 
L 19.671875 8.109375 
L 31.59375 8.109375 
Q 46.6875 8.109375 53.6875 14.9375 
Q 60.6875 21.78125 60.6875 36.53125 
Q 60.6875 51.171875 53.6875 57.984375 
Q 46.6875 64.796875 31.59375 64.796875 
z
M 9.8125 72.90625 
L 30.078125 72.90625 
Q 51.265625 72.90625 61.171875 64.09375 
Q 71.09375 55.28125 71.09375 36.53125 
Q 71.09375 17.671875 61.125 8.828125 
Q 51.171875 0 30.078125 0 
L 9.8125 0 
z
" id="BitstreamVeraSans-Roman-44"/>
       <path d="M 37.109375 75.984375 
L 37.109375 68.5 
L 28.515625 68.5 
Q 23.6875 68.5 21.796875 66.546875 
Q 19.921875 64.59375 19.921875 59.515625 
L 19.921875 54.6875 
L 34.71875 54.6875 
L 34.71875 47.703125 
L 19.921875 47.703125 
L 19.921875 0 
L 10.890625 0 
L 10.890625 47.703125 
L 2.296875 47.703125 
L 2.296875 54.6875 
L 10.890625 54.6875 
L 10.890625 58.5 
Q 10.890625 67.625 15.140625 71.796875 
Q 19.390625 75.984375 28.609375 75.984375 
z
" id="BitstreamVeraSans-Roman-66"/>
      </defs>
      <g transform="translate(566.352045455 433.60175)rotate(-90.0)scale(0.08 -0.08)">
       <use xlink:href="#BitstreamVeraSans-Roman-47"/>
       <use x="77.490234375" xlink:href="#BitstreamVeraSans-Roman-65"/>
       <use x="139.013671875" xlink:href="#BitstreamVeraSans-Roman-6c"/>
       <use x="166.796875" xlink:href="#BitstreamVeraSans-Roman-6c"/>
       <use x="194.580078125" xlink:href="#BitstreamVeraSans-Roman-65"/>
       <use x="256.103515625" xlink:href="#BitstreamVeraSans-Roman-72"/>
       <use x="297.216796875" xlink:href="#BitstreamVeraSans-Roman-20"/>
       <use x="329.00390625" xlink:href="#BitstreamVeraSans-Roman-44"/>
       <use x="406.005859375" xlink:href="#BitstreamVeraSans-Roman-65"/>
       <use x="467.529296875" xlink:href="#BitstreamVeraSans-Roman-66"/>
       <use x="502.734375" xlink:href="#BitstreamVeraSans-Roman-65"/>
       <use x="564.2578125" xlink:href="#BitstreamVeraSans-Roman-63"/>
       <use x="619.23828125" xlink:href="#BitstreamVeraSans-Roman-74"/>
       <use x="658.447265625" xlink:href="#BitstreamVeraSans-Roman-6f"/>
       <use x="719.62890625" xlink:href="#BitstreamVeraSans-Roman-72"/>
      </g>
     </g>
    </g>
    <g id="xtick_10">
     <g id="line2d_19">
      <g>
       <use style="stroke:#000000;stroke-width:0.5;" x="625.017272727" xlink:href="#m1669672d83" y="368.74175"/>
      </g>
     </g>
     <g id="line2d_20">
      <g>
       <use style="stroke:#000000;stroke-width:0.5;" x="625.017272727" xlink:href="#m488da0a4c3" y="23.14175"/>
      </g>
     </g>
     <g id="text_10">
      <!-- Darwin -->
      <defs>
       <path d="M 4.203125 54.6875 
L 13.1875 54.6875 
L 24.421875 12.015625 
L 35.59375 54.6875 
L 46.1875 54.6875 
L 57.421875 12.015625 
L 68.609375 54.6875 
L 77.59375 54.6875 
L 63.28125 0 
L 52.6875 0 
L 40.921875 44.828125 
L 29.109375 0 
L 18.5 0 
z
" id="BitstreamVeraSans-Roman-77"/>
      </defs>
      <g transform="translate(627.224772727 400.928)rotate(-90.0)scale(0.08 -0.08)">
       <use xlink:href="#BitstreamVeraSans-Roman-44"/>
       <use x="77.001953125" xlink:href="#BitstreamVeraSans-Roman-61"/>
       <use x="138.28125" xlink:href="#BitstreamVeraSans-Roman-72"/>
       <use x="179.39453125" xlink:href="#BitstreamVeraSans-Roman-77"/>
       <use x="261.181640625" xlink:href="#BitstreamVeraSans-Roman-69"/>
       <use x="288.96484375" xlink:href="#BitstreamVeraSans-Roman-6e"/>
      </g>
     </g>
    </g>
   </g>
   <g id="matplotlib.axis_2">
    <g id="ytick_1">
     <g id="line2d_21">
      <defs>
       <path d="M 0 0 
L 4 0 
" id="m7996edabfc" style="stroke:#000000;stroke-width:0.5;"/>
      </defs>
      <g>
       <use style="stroke:#000000;stroke-width:0.5;" x="16.29" xlink:href="#m7996edabfc" y="339.94175"/>
      </g>
     </g>
     <g id="line2d_22">
      <defs>
       <path d="M 0 0 
L -4 0 
" id="m0901a8dc2c" style="stroke:#000000;stroke-width:0.5;"/>
      </defs>
      <g>
       <use style="stroke:#000000;stroke-width:0.5;" x="685.89" xlink:href="#m0901a8dc2c" y="339.94175"/>
      </g>
     </g>
     <g id="text_11">
      <!-- 0 -->
      <defs>
       <path d="M 31.78125 66.40625 
Q 24.171875 66.40625 20.328125 58.90625 
Q 16.5 51.421875 16.5 36.375 
Q 16.5 21.390625 20.328125 13.890625 
Q 24.171875 6.390625 31.78125 6.390625 
Q 39.453125 6.390625 43.28125 13.890625 
Q 47.125 21.390625 47.125 36.375 
Q 47.125 51.421875 43.28125 58.90625 
Q 39.453125 66.40625 31.78125 66.40625 
M 31.78125 74.21875 
Q 44.046875 74.21875 50.515625 64.515625 
Q 56.984375 54.828125 56.984375 36.375 
Q 56.984375 17.96875 50.515625 8.265625 
Q 44.046875 -1.421875 31.78125 -1.421875 
Q 19.53125 -1.421875 13.0625 8.265625 
Q 6.59375 17.96875 6.59375 36.375 
Q 6.59375 54.828125 13.0625 64.515625 
Q 19.53125 74.21875 31.78125 74.21875 
" id="BitstreamVeraSans-Roman-30"/>
      </defs>
      <g transform="translate(7.2 342.14925)scale(0.08 -0.08)">
       <use xlink:href="#BitstreamVeraSans-Roman-30"/>
      </g>
     </g>
    </g>
    <g id="ytick_2">
     <g id="line2d_23">
      <g>
       <use style="stroke:#000000;stroke-width:0.5;" x="16.29" xlink:href="#m7996edabfc" y="282.34175"/>
      </g>
     </g>
     <g id="line2d_24">
      <g>
       <use style="stroke:#000000;stroke-width:0.5;" x="685.89" xlink:href="#m0901a8dc2c" y="282.34175"/>
      </g>
     </g>
     <g id="text_12">
      <!-- 1 -->
      <defs>
       <path d="M 12.40625 8.296875 
L 28.515625 8.296875 
L 28.515625 63.921875 
L 10.984375 60.40625 
L 10.984375 69.390625 
L 28.421875 72.90625 
L 38.28125 72.90625 
L 38.28125 8.296875 
L 54.390625 8.296875 
L 54.390625 0 
L 12.40625 0 
z
" id="BitstreamVeraSans-Roman-31"/>
      </defs>
      <g transform="translate(7.2 284.54925)scale(0.08 -0.08)">
       <use xlink:href="#BitstreamVeraSans-Roman-31"/>
      </g>
     </g>
    </g>
    <g id="ytick_3">
     <g id="line2d_25">
      <g>
       <use style="stroke:#000000;stroke-width:0.5;" x="16.29" xlink:href="#m7996edabfc" y="224.74175"/>
      </g>
     </g>
     <g id="line2d_26">
      <g>
       <use style="stroke:#000000;stroke-width:0.5;" x="685.89" xlink:href="#m0901a8dc2c" y="224.74175"/>
      </g>
     </g>
     <g id="text_13">
      <!-- 2 -->
      <defs>
       <path d="M 19.1875 8.296875 
L 53.609375 8.296875 
L 53.609375 0 
L 7.328125 0 
L 7.328125 8.296875 
Q 12.9375 14.109375 22.625 23.890625 
Q 32.328125 33.6875 34.8125 36.53125 
Q 39.546875 41.84375 41.421875 45.53125 
Q 43.3125 49.21875 43.3125 52.78125 
Q 43.3125 58.59375 39.234375 62.25 
Q 35.15625 65.921875 28.609375 65.921875 
Q 23.96875 65.921875 18.8125 64.3125 
Q 13.671875 62.703125 7.8125 59.421875 
L 7.8125 69.390625 
Q 13.765625 71.78125 18.9375 73 
Q 24.125 74.21875 28.421875 74.21875 
Q 39.75 74.21875 46.484375 68.546875 
Q 53.21875 62.890625 53.21875 53.421875 
Q 53.21875 48.921875 51.53125 44.890625 
Q 49.859375 40.875 45.40625 35.40625 
Q 44.1875 33.984375 37.640625 27.21875 
Q 31.109375 20.453125 19.1875 8.296875 
" id="BitstreamVeraSans-Roman-32"/>
      </defs>
      <g transform="translate(7.2 226.94925)scale(0.08 -0.08)">
       <use xlink:href="#BitstreamVeraSans-Roman-32"/>
      </g>
     </g>
    </g>
    <g id="ytick_4">
     <g id="line2d_27">
      <g>
       <use style="stroke:#000000;stroke-width:0.5;" x="16.29" xlink:href="#m7996edabfc" y="167.14175"/>
      </g>
     </g>
     <g id="line2d_28">
      <g>
       <use style="stroke:#000000;stroke-width:0.5;" x="685.89" xlink:href="#m0901a8dc2c" y="167.14175"/>
      </g>
     </g>
     <g id="text_14">
      <!-- 3 -->
      <defs>
       <path d="M 40.578125 39.3125 
Q 47.65625 37.796875 51.625 33 
Q 55.609375 28.21875 55.609375 21.1875 
Q 55.609375 10.40625 48.1875 4.484375 
Q 40.765625 -1.421875 27.09375 -1.421875 
Q 22.515625 -1.421875 17.65625 -0.515625 
Q 12.796875 0.390625 7.625 2.203125 
L 7.625 11.71875 
Q 11.71875 9.328125 16.59375 8.109375 
Q 21.484375 6.890625 26.8125 6.890625 
Q 36.078125 6.890625 40.9375 10.546875 
Q 45.796875 14.203125 45.796875 21.1875 
Q 45.796875 27.640625 41.28125 31.265625 
Q 36.765625 34.90625 28.71875 34.90625 
L 20.21875 34.90625 
L 20.21875 43.015625 
L 29.109375 43.015625 
Q 36.375 43.015625 40.234375 45.921875 
Q 44.09375 48.828125 44.09375 54.296875 
Q 44.09375 59.90625 40.109375 62.90625 
Q 36.140625 65.921875 28.71875 65.921875 
Q 24.65625 65.921875 20.015625 65.03125 
Q 15.375 64.15625 9.8125 62.3125 
L 9.8125 71.09375 
Q 15.4375 72.65625 20.34375 73.4375 
Q 25.25 74.21875 29.59375 74.21875 
Q 40.828125 74.21875 47.359375 69.109375 
Q 53.90625 64.015625 53.90625 55.328125 
Q 53.90625 49.265625 50.4375 45.09375 
Q 46.96875 40.921875 40.578125 39.3125 
" id="BitstreamVeraSans-Roman-33"/>
      </defs>
      <g transform="translate(7.2 169.34925)scale(0.08 -0.08)">
       <use xlink:href="#BitstreamVeraSans-Roman-33"/>
      </g>
     </g>
    </g>
    <g id="ytick_5">
     <g id="line2d_29">
      <g>
       <use style="stroke:#000000;stroke-width:0.5;" x="16.29" xlink:href="#m7996edabfc" y="109.54175"/>
      </g>
     </g>
     <g id="line2d_30">
      <g>
       <use style="stroke:#000000;stroke-width:0.5;" x="685.89" xlink:href="#m0901a8dc2c" y="109.54175"/>
      </g>
     </g>
     <g id="text_15">
      <!-- 4 -->
      <defs>
       <path d="M 37.796875 64.3125 
L 12.890625 25.390625 
L 37.796875 25.390625 
z
M 35.203125 72.90625 
L 47.609375 72.90625 
L 47.609375 25.390625 
L 58.015625 25.390625 
L 58.015625 17.1875 
L 47.609375 17.1875 
L 47.609375 0 
L 37.796875 0 
L 37.796875 17.1875 
L 4.890625 17.1875 
L 4.890625 26.703125 
z
" id="BitstreamVeraSans-Roman-34"/>
      </defs>
      <g transform="translate(7.2 111.74925)scale(0.08 -0.08)">
       <use xlink:href="#BitstreamVeraSans-Roman-34"/>
      </g>
     </g>
    </g>
    <g id="ytick_6">
     <g id="line2d_31">
      <g>
       <use style="stroke:#000000;stroke-width:0.5;" x="16.29" xlink:href="#m7996edabfc" y="51.94175"/>
      </g>
     </g>
     <g id="line2d_32">
      <g>
       <use style="stroke:#000000;stroke-width:0.5;" x="685.89" xlink:href="#m0901a8dc2c" y="51.94175"/>
      </g>
     </g>
     <g id="text_16">
      <!-- 5 -->
      <defs>
       <path d="M 10.796875 72.90625 
L 49.515625 72.90625 
L 49.515625 64.59375 
L 19.828125 64.59375 
L 19.828125 46.734375 
Q 21.96875 47.46875 24.109375 47.828125 
Q 26.265625 48.1875 28.421875 48.1875 
Q 40.625 48.1875 47.75 41.5 
Q 54.890625 34.8125 54.890625 23.390625 
Q 54.890625 11.625 47.5625 5.09375 
Q 40.234375 -1.421875 26.90625 -1.421875 
Q 22.3125 -1.421875 17.546875 -0.640625 
Q 12.796875 0.140625 7.71875 1.703125 
L 7.71875 11.625 
Q 12.109375 9.234375 16.796875 8.0625 
Q 21.484375 6.890625 26.703125 6.890625 
Q 35.15625 6.890625 40.078125 11.328125 
Q 45.015625 15.765625 45.015625 23.390625 
Q 45.015625 31 40.078125 35.4375 
Q 35.15625 39.890625 26.703125 39.890625 
Q 22.75 39.890625 18.8125 39.015625 
Q 14.890625 38.140625 10.796875 36.28125 
z
" id="BitstreamVeraSans-Roman-35"/>
      </defs>
      <g transform="translate(7.2 54.14925)scale(0.08 -0.08)">
       <use xlink:href="#BitstreamVeraSans-Roman-35"/>
      </g>
     </g>
    </g>
   </g>
   <g id="text_17">
    <!-- Wins. Turns: 20, Repetitions: 2, Strategies: 10. -->
    <defs>
     <path d="M 11.71875 12.40625 
L 22.015625 12.40625 
L 22.015625 0 
L 11.71875 0 
z
M 11.71875 51.703125 
L 22.015625 51.703125 
L 22.015625 39.3125 
L 11.71875 39.3125 
z
" id="BitstreamVeraSans-Roman-3a"/>
     <path d="M 10.6875 12.40625 
L 21 12.40625 
L 21 0 
L 10.6875 0 
z
" id="BitstreamVeraSans-Roman-2e"/>
     <path d="M 44.28125 53.078125 
L 44.28125 44.578125 
Q 40.484375 46.53125 36.375 47.5 
Q 32.28125 48.484375 27.875 48.484375 
Q 21.1875 48.484375 17.84375 46.4375 
Q 14.5 44.390625 14.5 40.28125 
Q 14.5 37.15625 16.890625 35.375 
Q 19.28125 33.59375 26.515625 31.984375 
L 29.59375 31.296875 
Q 39.15625 29.25 43.1875 25.515625 
Q 47.21875 21.78125 47.21875 15.09375 
Q 47.21875 7.46875 41.1875 3.015625 
Q 35.15625 -1.421875 24.609375 -1.421875 
Q 20.21875 -1.421875 15.453125 -0.5625 
Q 10.6875 0.296875 5.421875 2 
L 5.421875 11.28125 
Q 10.40625 8.6875 15.234375 7.390625 
Q 20.0625 6.109375 24.8125 6.109375 
Q 31.15625 6.109375 34.5625 8.28125 
Q 37.984375 10.453125 37.984375 14.40625 
Q 37.984375 18.0625 35.515625 20.015625 
Q 33.0625 21.96875 24.703125 23.78125 
L 21.578125 24.515625 
Q 13.234375 26.265625 9.515625 29.90625 
Q 5.8125 33.546875 5.8125 39.890625 
Q 5.8125 47.609375 11.28125 51.796875 
Q 16.75 56 26.8125 56 
Q 31.78125 56 36.171875 55.265625 
Q 40.578125 54.546875 44.28125 53.078125 
" id="BitstreamVeraSans-Roman-73"/>
     <path d="M 53.515625 70.515625 
L 53.515625 60.890625 
Q 47.90625 63.578125 42.921875 64.890625 
Q 37.9375 66.21875 33.296875 66.21875 
Q 25.25 66.21875 20.875 63.09375 
Q 16.5 59.96875 16.5 54.203125 
Q 16.5 49.359375 19.40625 46.890625 
Q 22.3125 44.4375 30.421875 42.921875 
L 36.375 41.703125 
Q 47.40625 39.59375 52.65625 34.296875 
Q 57.90625 29 57.90625 20.125 
Q 57.90625 9.515625 50.796875 4.046875 
Q 43.703125 -1.421875 29.984375 -1.421875 
Q 24.8125 -1.421875 18.96875 -0.25 
Q 13.140625 0.921875 6.890625 3.21875 
L 6.890625 13.375 
Q 12.890625 10.015625 18.65625 8.296875 
Q 24.421875 6.59375 29.984375 6.59375 
Q 38.421875 6.59375 43.015625 9.90625 
Q 47.609375 13.234375 47.609375 19.390625 
Q 47.609375 24.75 44.3125 27.78125 
Q 41.015625 30.8125 33.5 32.328125 
L 27.484375 33.5 
Q 16.453125 35.6875 11.515625 40.375 
Q 6.59375 45.0625 6.59375 53.421875 
Q 6.59375 63.09375 13.40625 68.65625 
Q 20.21875 74.21875 32.171875 74.21875 
Q 37.3125 74.21875 42.625 73.28125 
Q 47.953125 72.359375 53.515625 70.515625 
" id="BitstreamVeraSans-Roman-53"/>
     <path d="M 8.5 21.578125 
L 8.5 54.6875 
L 17.484375 54.6875 
L 17.484375 21.921875 
Q 17.484375 14.15625 20.5 10.265625 
Q 23.53125 6.390625 29.59375 6.390625 
Q 36.859375 6.390625 41.078125 11.03125 
Q 45.3125 15.671875 45.3125 23.6875 
L 45.3125 54.6875 
L 54.296875 54.6875 
L 54.296875 0 
L 45.3125 0 
L 45.3125 8.40625 
Q 42.046875 3.421875 37.71875 1 
Q 33.40625 -1.421875 27.6875 -1.421875 
Q 18.265625 -1.421875 13.375 4.4375 
Q 8.5 10.296875 8.5 21.578125 
" id="BitstreamVeraSans-Roman-75"/>
     <path d="M 11.71875 12.40625 
L 22.015625 12.40625 
L 22.015625 4 
L 14.015625 -11.625 
L 7.71875 -11.625 
L 11.71875 4 
z
" id="BitstreamVeraSans-Roman-2c"/>
     <path d="M 45.40625 27.984375 
Q 45.40625 37.75 41.375 43.109375 
Q 37.359375 48.484375 30.078125 48.484375 
Q 22.859375 48.484375 18.828125 43.109375 
Q 14.796875 37.75 14.796875 27.984375 
Q 14.796875 18.265625 18.828125 12.890625 
Q 22.859375 7.515625 30.078125 7.515625 
Q 37.359375 7.515625 41.375 12.890625 
Q 45.40625 18.265625 45.40625 27.984375 
M 54.390625 6.78125 
Q 54.390625 -7.171875 48.1875 -13.984375 
Q 42 -20.796875 29.203125 -20.796875 
Q 24.46875 -20.796875 20.265625 -20.09375 
Q 16.0625 -19.390625 12.109375 -17.921875 
L 12.109375 -9.1875 
Q 16.0625 -11.328125 19.921875 -12.34375 
Q 23.78125 -13.375 27.78125 -13.375 
Q 36.625 -13.375 41.015625 -8.765625 
Q 45.40625 -4.15625 45.40625 5.171875 
L 45.40625 9.625 
Q 42.625 4.78125 38.28125 2.390625 
Q 33.9375 0 27.875 0 
Q 17.828125 0 11.671875 7.65625 
Q 5.515625 15.328125 5.515625 27.984375 
Q 5.515625 40.671875 11.671875 48.328125 
Q 17.828125 56 27.875 56 
Q 33.9375 56 38.28125 53.609375 
Q 42.625 51.21875 45.40625 46.390625 
L 45.40625 54.6875 
L 54.390625 54.6875 
z
" id="BitstreamVeraSans-Roman-67"/>
     <path d="M -0.296875 72.90625 
L 61.375 72.90625 
L 61.375 64.59375 
L 35.5 64.59375 
L 35.5 0 
L 25.59375 0 
L 25.59375 64.59375 
L -0.296875 64.59375 
z
" id="BitstreamVeraSans-Roman-54"/>
    </defs>
    <g transform="translate(182.813625 18.14175)scale(0.144 -0.144)">
     <use xlink:href="#BitstreamVeraSans-Roman-57"/>
     <use x="98.845703125" xlink:href="#BitstreamVeraSans-Roman-69"/>
     <use x="126.62890625" xlink:href="#BitstreamVeraSans-Roman-6e"/>
     <use x="190.0078125" xlink:href="#BitstreamVeraSans-Roman-73"/>
     <use x="242.107421875" xlink:href="#BitstreamVeraSans-Roman-2e"/>
     <use x="273.89453125" xlink:href="#BitstreamVeraSans-Roman-20"/>
     <use x="305.681640625" xlink:href="#BitstreamVeraSans-Roman-54"/>
     <use x="366.53125" xlink:href="#BitstreamVeraSans-Roman-75"/>
     <use x="429.91015625" xlink:href="#BitstreamVeraSans-Roman-72"/>
     <use x="471.0078125" xlink:href="#BitstreamVeraSans-Roman-6e"/>
     <use x="534.38671875" xlink:href="#BitstreamVeraSans-Roman-73"/>
     <use x="586.486328125" xlink:href="#BitstreamVeraSans-Roman-3a"/>
     <use x="620.177734375" xlink:href="#BitstreamVeraSans-Roman-20"/>
     <use x="651.96484375" xlink:href="#BitstreamVeraSans-Roman-32"/>
     <use x="715.587890625" xlink:href="#BitstreamVeraSans-Roman-30"/>
     <use x="779.2109375" xlink:href="#BitstreamVeraSans-Roman-2c"/>
     <use x="810.998046875" xlink:href="#BitstreamVeraSans-Roman-20"/>
     <use x="842.78515625" xlink:href="#BitstreamVeraSans-Roman-52"/>
     <use x="912.205078125" xlink:href="#BitstreamVeraSans-Roman-65"/>
     <use x="973.728515625" xlink:href="#BitstreamVeraSans-Roman-70"/>
     <use x="1037.205078125" xlink:href="#BitstreamVeraSans-Roman-65"/>
     <use x="1098.728515625" xlink:href="#BitstreamVeraSans-Roman-74"/>
     <use x="1137.9375" xlink:href="#BitstreamVeraSans-Roman-69"/>
     <use x="1165.720703125" xlink:href="#BitstreamVeraSans-Roman-74"/>
     <use x="1204.9296875" xlink:href="#BitstreamVeraSans-Roman-69"/>
     <use x="1232.712890625" xlink:href="#BitstreamVeraSans-Roman-6f"/>
     <use x="1293.89453125" xlink:href="#BitstreamVeraSans-Roman-6e"/>
     <use x="1357.2734375" xlink:href="#BitstreamVeraSans-Roman-73"/>
     <use x="1409.373046875" xlink:href="#BitstreamVeraSans-Roman-3a"/>
     <use x="1443.064453125" xlink:href="#BitstreamVeraSans-Roman-20"/>
     <use x="1474.8515625" xlink:href="#BitstreamVeraSans-Roman-32"/>
     <use x="1538.474609375" xlink:href="#BitstreamVeraSans-Roman-2c"/>
     <use x="1570.26171875" xlink:href="#BitstreamVeraSans-Roman-20"/>
     <use x="1602.048828125" xlink:href="#BitstreamVeraSans-Roman-53"/>
     <use x="1665.525390625" xlink:href="#BitstreamVeraSans-Roman-74"/>
     <use x="1704.734375" xlink:href="#BitstreamVeraSans-Roman-72"/>
     <use x="1745.84765625" xlink:href="#BitstreamVeraSans-Roman-61"/>
     <use x="1807.126953125" xlink:href="#BitstreamVeraSans-Roman-74"/>
     <use x="1846.3359375" xlink:href="#BitstreamVeraSans-Roman-65"/>
     <use x="1907.859375" xlink:href="#BitstreamVeraSans-Roman-67"/>
     <use x="1971.3359375" xlink:href="#BitstreamVeraSans-Roman-69"/>
     <use x="1999.119140625" xlink:href="#BitstreamVeraSans-Roman-65"/>
     <use x="2060.642578125" xlink:href="#BitstreamVeraSans-Roman-73"/>
     <use x="2112.7421875" xlink:href="#BitstreamVeraSans-Roman-3a"/>
     <use x="2146.43359375" xlink:href="#BitstreamVeraSans-Roman-20"/>
     <use x="2178.220703125" xlink:href="#BitstreamVeraSans-Roman-31"/>
     <use x="2241.84375" xlink:href="#BitstreamVeraSans-Roman-30"/>
     <use x="2305.466796875" xlink:href="#BitstreamVeraSans-Roman-2e"/>
    </g>
   </g>
  </g>
 </g>
 <defs>
  <clipPath id="pa256d4ea4e">
   <rect height="345.6" width="669.6" x="16.29" y="23.14175"/>
  </clipPath>
 </defs>
</svg>
