<?xml version="1.0" encoding="utf-8" standalone="no"?>
<!DOCTYPE svg PUBLIC "-//W3C//DTD SVG 1.1//EN"
  "http://www.w3.org/Graphics/SVG/1.1/DTD/svg11.dtd">
<!-- Created with matplotlib (http://matplotlib.org/) -->
<svg height="413pt" version="1.1" viewBox="0 0 558 413" width="558pt" xmlns="http://www.w3.org/2000/svg" xmlns:xlink="http://www.w3.org/1999/xlink">
 <defs>
  <style type="text/css">
*{stroke-linecap:butt;stroke-linejoin:round;}
  </style>
 </defs>
 <g id="figure_1">
  <g id="patch_1">
   <path d="
M0 413.395
L558.725 413.395
L558.725 0
L0 0
z
" style="fill:#ffffff;"/>
  </g>
  <g id="axes_1">
   <g id="patch_2">
    <path d="
M68.5109 368.742
L514.911 368.742
L514.911 23.1417
L68.5109 23.1417
z
" style="fill:#ffffff;"/>
   </g>
   <g id="PolyCollection_1">
    <path clip-path="url(#p67fcc73f70)" d="
M-134298 330.342
L-134298 368.742
L68.5109 368.742
L202.891 368.742
L281.498 368.742
L337.27 368.742
L380.531 368.742
L415.878 368.742
L445.763 368.742
L471.65 368.742
L494.485 368.742
L514.911 368.742
L514.911 23.1418
L514.911 23.1418
L494.485 23.1417
L471.65 23.1418
L445.763 23.1598
L415.878 25.4401
L380.531 49.5474
L337.27 111.79
L281.498 189.189
L202.891 254.615
L68.5109 300.591
L-134298 330.342
z
" style="fill:#0000ff;stroke:#000000;"/>
   </g>
   <g id="PolyCollection_2">
    <path clip-path="url(#p67fcc73f70)" d="
M-134298 291.942
L-134298 330.342
L68.5109 300.591
L202.891 254.615
L281.498 189.189
L337.27 111.79
L380.531 49.5474
L415.878 25.4401
L445.763 23.1598
L471.65 23.1418
L494.485 23.1417
L514.911 23.1418
L514.911 23.1418
L514.911 23.1418
L494.485 23.1417
L471.65 23.1418
L445.763 23.1558
L415.878 24.9224
L380.531 43.7355
L337.27 92.2213
L281.498 152.034
L202.891 206.476
L68.5109 250.995
L-134298 291.942
z
" style="fill:#008000;stroke:#000000;"/>
   </g>
   <g id="PolyCollection_3">
    <path clip-path="url(#p67fcc73f70)" d="
M-134298 253.542
L-134298 291.942
L68.5109 250.995
L202.891 206.476
L281.498 152.034
L337.27 92.2213
L380.531 43.7355
L415.878 24.9224
L445.763 23.1558
L471.65 23.1418
L494.485 23.1417
L514.911 23.1418
L514.911 23.1418
L514.911 23.1418
L494.485 23.1417
L471.65 23.1418
L445.763 23.1519
L415.878 24.4202
L380.531 37.9437
L337.27 73.0004
L281.498 116.793
L202.891 159.164
L68.5109 203.912
L-134298 253.542
z
" style="fill:#ff0000;stroke:#000000;"/>
   </g>
   <g id="PolyCollection_4">
    <path clip-path="url(#p67fcc73f70)" d="
M-134298 215.142
L-134298 253.542
L68.5109 203.912
L202.891 159.164
L281.498 116.793
L337.27 73.0004
L380.531 37.9437
L415.878 24.4202
L445.763 23.1519
L471.65 23.1418
L494.485 23.1417
L514.911 23.1418
L514.911 23.1418
L514.911 23.1418
L494.485 23.1417
L471.65 23.1418
L445.763 23.1477
L415.878 23.9052
L380.531 32.1056
L337.27 53.9879
L281.498 81.3886
L202.891 112.649
L68.5109 157.03
L-134298 215.142
z
" style="fill:#00bfbf;stroke:#000000;"/>
   </g>
   <g id="PolyCollection_5">
    <path clip-path="url(#p67fcc73f70)" d="
M-134298 176.742
L-134298 215.142
L68.5109 157.03
L202.891 112.649
L281.498 81.3886
L337.27 53.9879
L380.531 32.1056
L415.878 23.9052
L445.763 23.1477
L471.65 23.1418
L494.485 23.1417
L514.911 23.1418
L514.911 23.1418
L514.911 23.1418
L494.485 23.1417
L471.65 23.1418
L445.763 23.1434
L415.878 23.3531
L380.531 26.0032
L337.27 33.9519
L281.498 45.0952
L202.891 66.1612
L68.5109 109.953
L-134298 176.742
z
" style="fill:#bf00bf;stroke:#000000;"/>
   </g>
   <g id="PolyCollection_6">
    <path clip-path="url(#p67fcc73f70)" d="
M-134298 138.342
L-134298 176.742
L68.5109 109.953
L202.891 66.1612
L281.498 45.0952
L337.27 33.9519
L380.531 26.0032
L415.878 23.3531
L445.763 23.1434
L471.65 23.1418
L494.485 23.1417
L514.911 23.1418
L514.911 23.1417
L514.911 23.1417
L494.485 23.1418
L471.65 23.1418
L445.763 23.1418
L415.878 23.1418
L380.531 23.1482
L337.27 23.3132
L281.498 25.2884
L202.891 37.6105
L68.5109 75.5335
L-134298 138.342
z
" style="fill:#bfbf00;stroke:#000000;"/>
   </g>
   <g id="PolyCollection_7">
    <path clip-path="url(#p67fcc73f70)" d="
M-134298 99.9417
L-134298 138.342
L68.5109 75.5335
L202.891 37.6105
L281.498 25.2884
L337.27 23.3132
L380.531 23.1482
L415.878 23.1418
L445.763 23.1418
L471.65 23.1418
L494.485 23.1418
L514.911 23.1417
L514.911 23.1417
L514.911 23.1417
L494.485 23.1418
L471.65 23.1418
L445.763 23.1418
L415.878 23.1418
L380.531 23.1445
L337.27 23.2169
L281.498 24.1367
L202.891 30.4735
L68.5109 53.1072
L-134298 99.9417
z
" style="stroke:#000000;"/>
   </g>
   <g id="PolyCollection_8">
    <path clip-path="url(#p67fcc73f70)" d="
M-134298 61.5417
L-134298 99.9417
L68.5109 53.1072
L202.891 30.4735
L281.498 24.1367
L337.27 23.2169
L380.531 23.1445
L415.878 23.1418
L445.763 23.1418
L471.65 23.1418
L494.485 23.1418
L514.911 23.1417
L514.911 23.1417
L514.911 23.1417
L494.485 23.1418
L471.65 23.1418
L445.763 23.1418
L415.878 23.1418
L380.531 23.1425
L337.27 23.1609
L281.498 23.377
L202.891 25.0767
L68.5109 33.8482
L-134298 61.5417
z
" style="fill:#0000ff;stroke:#000000;"/>
   </g>
   <g id="PolyCollection_9">
    <path clip-path="url(#p67fcc73f70)" d="
M-134298 23.1417
L-134298 61.5417
L68.5109 33.8482
L202.891 25.0767
L281.498 23.377
L337.27 23.1609
L380.531 23.1425
L415.878 23.1418
L445.763 23.1418
L471.65 23.1418
L494.485 23.1418
L514.911 23.1417
L514.911 23.1417
L514.911 23.1417
L494.485 23.1417
L471.65 23.1418
L445.763 23.1417
L415.878 23.1418
L380.531 23.1418
L337.27 23.1418
L281.498 23.1418
L202.891 23.1417
L68.5109 23.1417
L-134298 23.1417
z
" style="fill:#008000;stroke:#000000;"/>
   </g>
   <g id="patch_3">
    <path d="
M68.5109 23.1417
L514.911 23.1417" style="fill:none;stroke:#000000;stroke-linecap:square;stroke-linejoin:miter;"/>
   </g>
   <g id="patch_4">
    <path d="
M514.911 368.742
L514.911 23.1417" style="fill:none;stroke:#000000;stroke-linecap:square;stroke-linejoin:miter;"/>
   </g>
   <g id="patch_5">
    <path d="
M68.5109 368.742
L514.911 368.742" style="fill:none;stroke:#000000;stroke-linecap:square;stroke-linejoin:miter;"/>
   </g>
   <g id="patch_6">
    <path d="
M68.5109 368.742
L68.5109 23.1417" style="fill:none;stroke:#000000;stroke-linecap:square;stroke-linejoin:miter;"/>
   </g>
   <g id="matplotlib.axis_1">
    <g id="xtick_1">
     <g id="line2d_1">
      <defs>
       <path d="
M0 0
L0 4" id="m741efc42ff" style="stroke:#000000;stroke-width:0.5;"/>
      </defs>
      <g>
       <use style="stroke:#000000;stroke-width:0.5;" x="68.510875" xlink:href="#m741efc42ff" y="368.74175"/>
      </g>
     </g>
     <g id="line2d_2">
      <defs>
       <path d="
M0 0
L0 -4" id="m93b0483c22" style="stroke:#000000;stroke-width:0.5;"/>
      </defs>
      <g>
       <use style="stroke:#000000;stroke-width:0.5;" x="68.510875" xlink:href="#m93b0483c22" y="23.14175"/>
      </g>
     </g>
     <g id="text_1">
      <!-- $\mathdefault{10^{0}}$ -->
      <defs>
       <path d="
M31.7812 66.4062
Q24.1719 66.4062 20.3281 58.9062
Q16.5 51.4219 16.5 36.375
Q16.5 21.3906 20.3281 13.8906
Q24.1719 6.39062 31.7812 6.39062
Q39.4531 6.39062 43.2812 13.8906
Q47.125 21.3906 47.125 36.375
Q47.125 51.4219 43.2812 58.9062
Q39.4531 66.4062 31.7812 66.4062
M31.7812 74.2188
Q44.0469 74.2188 50.5156 64.5156
Q56.9844 54.8281 56.9844 36.375
Q56.9844 17.9688 50.5156 8.26562
Q44.0469 -1.42188 31.7812 -1.42188
Q19.5312 -1.42188 13.0625 8.26562
Q6.59375 17.9688 6.59375 36.375
Q6.59375 54.8281 13.0625 64.5156
Q19.5312 74.2188 31.7812 74.2188" id="BitstreamVeraSans-Roman-30"/>
       <path d="
M12.4062 8.29688
L28.5156 8.29688
L28.5156 63.9219
L10.9844 60.4062
L10.9844 69.3906
L28.4219 72.9062
L38.2812 72.9062
L38.2812 8.29688
L54.3906 8.29688
L54.3906 0
L12.4062 0
z
" id="BitstreamVeraSans-Roman-31"/>
      </defs>
      <g transform="translate(56.930875 387.086125)scale(0.12 -0.12)">
       <use transform="translate(0.0 0.546875)" xlink:href="#BitstreamVeraSans-Roman-31"/>
       <use transform="translate(63.623046875 0.546875)" xlink:href="#BitstreamVeraSans-Roman-30"/>
       <use transform="translate(127.24609375 53.046875)scale(0.7)" xlink:href="#BitstreamVeraSans-Roman-30"/>
      </g>
     </g>
    </g>
    <g id="xtick_2">
     <g id="line2d_3">
      <g>
       <use style="stroke:#000000;stroke-width:0.5;" x="514.910875" xlink:href="#m741efc42ff" y="368.74175"/>
      </g>
     </g>
     <g id="line2d_4">
      <g>
       <use style="stroke:#000000;stroke-width:0.5;" x="514.910875" xlink:href="#m93b0483c22" y="23.14175"/>
      </g>
     </g>
     <g id="text_2">
      <!-- $\mathdefault{10^{1}}$ -->
      <g transform="translate(503.330875 386.966125)scale(0.12 -0.12)">
       <use transform="translate(0.0 0.465625)" xlink:href="#BitstreamVeraSans-Roman-31"/>
       <use transform="translate(63.623046875 0.465625)" xlink:href="#BitstreamVeraSans-Roman-30"/>
       <use transform="translate(127.24609375 52.965625)scale(0.7)" xlink:href="#BitstreamVeraSans-Roman-31"/>
      </g>
     </g>
    </g>
    <g id="xtick_3">
     <g id="line2d_5">
      <defs>
       <path d="
M0 0
L0 -2" id="m177f7580d0" style="stroke:#000000;stroke-width:0.5;"/>
      </defs>
      <g>
       <use style="stroke:#000000;stroke-width:0.5;" x="202.890665064" xlink:href="#m177f7580d0" y="368.74175"/>
      </g>
     </g>
     <g id="line2d_6">
      <defs>
       <path d="
M0 0
L0 2" id="m5284c7e2a0" style="stroke:#000000;stroke-width:0.5;"/>
      </defs>
      <g>
       <use style="stroke:#000000;stroke-width:0.5;" x="202.890665064" xlink:href="#m5284c7e2a0" y="23.14175"/>
      </g>
     </g>
    </g>
    <g id="xtick_4">
     <g id="line2d_7">
      <g>
       <use style="stroke:#000000;stroke-width:0.5;" x="281.497803107" xlink:href="#m177f7580d0" y="368.74175"/>
      </g>
     </g>
     <g id="line2d_8">
      <g>
       <use style="stroke:#000000;stroke-width:0.5;" x="281.497803107" xlink:href="#m5284c7e2a0" y="23.14175"/>
      </g>
     </g>
    </g>
    <g id="xtick_5">
     <g id="line2d_9">
      <g>
       <use style="stroke:#000000;stroke-width:0.5;" x="337.270455129" xlink:href="#m177f7580d0" y="368.74175"/>
      </g>
     </g>
     <g id="line2d_10">
      <g>
       <use style="stroke:#000000;stroke-width:0.5;" x="337.270455129" xlink:href="#m5284c7e2a0" y="23.14175"/>
      </g>
     </g>
    </g>
    <g id="xtick_6">
     <g id="line2d_11">
      <g>
       <use style="stroke:#000000;stroke-width:0.5;" x="380.531084936" xlink:href="#m177f7580d0" y="368.74175"/>
      </g>
     </g>
     <g id="line2d_12">
      <g>
       <use style="stroke:#000000;stroke-width:0.5;" x="380.531084936" xlink:href="#m5284c7e2a0" y="23.14175"/>
      </g>
     </g>
    </g>
    <g id="xtick_7">
     <g id="line2d_13">
      <g>
       <use style="stroke:#000000;stroke-width:0.5;" x="415.877593171" xlink:href="#m177f7580d0" y="368.74175"/>
      </g>
     </g>
     <g id="line2d_14">
      <g>
       <use style="stroke:#000000;stroke-width:0.5;" x="415.877593171" xlink:href="#m5284c7e2a0" y="23.14175"/>
      </g>
     </g>
    </g>
    <g id="xtick_8">
     <g id="line2d_15">
      <g>
       <use style="stroke:#000000;stroke-width:0.5;" x="445.762640062" xlink:href="#m177f7580d0" y="368.74175"/>
      </g>
     </g>
     <g id="line2d_16">
      <g>
       <use style="stroke:#000000;stroke-width:0.5;" x="445.762640062" xlink:href="#m5284c7e2a0" y="23.14175"/>
      </g>
     </g>
    </g>
    <g id="xtick_9">
     <g id="line2d_17">
      <g>
       <use style="stroke:#000000;stroke-width:0.5;" x="471.650245193" xlink:href="#m177f7580d0" y="368.74175"/>
      </g>
     </g>
     <g id="line2d_18">
      <g>
       <use style="stroke:#000000;stroke-width:0.5;" x="471.650245193" xlink:href="#m5284c7e2a0" y="23.14175"/>
      </g>
     </g>
    </g>
    <g id="xtick_10">
     <g id="line2d_19">
      <g>
       <use style="stroke:#000000;stroke-width:0.5;" x="494.484731214" xlink:href="#m177f7580d0" y="368.74175"/>
      </g>
     </g>
     <g id="line2d_20">
      <g>
       <use style="stroke:#000000;stroke-width:0.5;" x="494.484731214" xlink:href="#m5284c7e2a0" y="23.14175"/>
      </g>
     </g>
    </g>
    <g id="text_3">
     <!-- Turn -->
     <defs>
      <path d="
M54.8906 33.0156
L54.8906 0
L45.9062 0
L45.9062 32.7188
Q45.9062 40.4844 42.875 44.3281
Q39.8438 48.1875 33.7969 48.1875
Q26.5156 48.1875 22.3125 43.5469
Q18.1094 38.9219 18.1094 30.9062
L18.1094 0
L9.07812 0
L9.07812 54.6875
L18.1094 54.6875
L18.1094 46.1875
Q21.3438 51.125 25.7031 53.5625
Q30.0781 56 35.7969 56
Q45.2188 56 50.0469 50.1719
Q54.8906 44.3438 54.8906 33.0156" id="BitstreamVeraSans-Roman-6e"/>
      <path d="
M41.1094 46.2969
Q39.5938 47.1719 37.8125 47.5781
Q36.0312 48 33.8906 48
Q26.2656 48 22.1875 43.0469
Q18.1094 38.0938 18.1094 28.8125
L18.1094 0
L9.07812 0
L9.07812 54.6875
L18.1094 54.6875
L18.1094 46.1875
Q20.9531 51.1719 25.4844 53.5781
Q30.0312 56 36.5312 56
Q37.4531 56 38.5781 55.875
Q39.7031 55.7656 41.0625 55.5156
z
" id="BitstreamVeraSans-Roman-72"/>
      <path d="
M8.5 21.5781
L8.5 54.6875
L17.4844 54.6875
L17.4844 21.9219
Q17.4844 14.1562 20.5 10.2656
Q23.5312 6.39062 29.5938 6.39062
Q36.8594 6.39062 41.0781 11.0312
Q45.3125 15.6719 45.3125 23.6875
L45.3125 54.6875
L54.2969 54.6875
L54.2969 0
L45.3125 0
L45.3125 8.40625
Q42.0469 3.42188 37.7188 1
Q33.4062 -1.42188 27.6875 -1.42188
Q18.2656 -1.42188 13.375 4.4375
Q8.5 10.2969 8.5 21.5781" id="BitstreamVeraSans-Roman-75"/>
      <path d="
M-0.296875 72.9062
L61.375 72.9062
L61.375 64.5938
L35.5 64.5938
L35.5 0
L25.5938 0
L25.5938 64.5938
L-0.296875 64.5938
z
" id="BitstreamVeraSans-Roman-54"/>
     </defs>
     <g transform="translate(279.478375 403.699875)scale(0.12 -0.12)">
      <use xlink:href="#BitstreamVeraSans-Roman-54"/>
      <use x="45.958984375" xlink:href="#BitstreamVeraSans-Roman-75"/>
      <use x="109.337890625" xlink:href="#BitstreamVeraSans-Roman-72"/>
      <use x="148.701171875" xlink:href="#BitstreamVeraSans-Roman-6e"/>
     </g>
    </g>
   </g>
   <g id="matplotlib.axis_2">
    <g id="ytick_1">
     <g id="line2d_21">
      <defs>
       <path d="
M0 0
L-4 0" id="mcb0005524f" style="stroke:#000000;stroke-width:0.5;"/>
      </defs>
      <g>
       <use style="stroke:#000000;stroke-width:0.5;" x="68.510875" xlink:href="#mcb0005524f" y="349.54175"/>
      </g>
     </g>
    </g>
    <g id="ytick_2">
     <g id="line2d_22">
      <g>
       <use style="stroke:#000000;stroke-width:0.5;" x="68.510875" xlink:href="#mcb0005524f" y="311.14175"/>
      </g>
     </g>
    </g>
    <g id="ytick_3">
     <g id="line2d_23">
      <g>
       <use style="stroke:#000000;stroke-width:0.5;" x="68.510875" xlink:href="#mcb0005524f" y="272.74175"/>
      </g>
     </g>
    </g>
    <g id="ytick_4">
     <g id="line2d_24">
      <g>
       <use style="stroke:#000000;stroke-width:0.5;" x="68.510875" xlink:href="#mcb0005524f" y="234.34175"/>
      </g>
     </g>
    </g>
    <g id="ytick_5">
     <g id="line2d_25">
      <g>
       <use style="stroke:#000000;stroke-width:0.5;" x="68.510875" xlink:href="#mcb0005524f" y="195.94175"/>
      </g>
     </g>
    </g>
    <g id="ytick_6">
     <g id="line2d_26">
      <g>
       <use style="stroke:#000000;stroke-width:0.5;" x="68.510875" xlink:href="#mcb0005524f" y="157.54175"/>
      </g>
     </g>
    </g>
    <g id="ytick_7">
     <g id="line2d_27">
      <g>
       <use style="stroke:#000000;stroke-width:0.5;" x="68.510875" xlink:href="#mcb0005524f" y="119.14175"/>
      </g>
     </g>
    </g>
    <g id="ytick_8">
     <g id="line2d_28">
      <g>
       <use style="stroke:#000000;stroke-width:0.5;" x="68.510875" xlink:href="#mcb0005524f" y="80.74175"/>
      </g>
     </g>
    </g>
    <g id="ytick_9">
     <g id="line2d_29">
      <g>
       <use style="stroke:#000000;stroke-width:0.5;" x="68.510875" xlink:href="#mcb0005524f" y="42.34175"/>
      </g>
     </g>
    </g>
    <g id="text_4">
     <!-- Relative population size -->
     <defs>
      <path id="BitstreamVeraSans-Roman-20"/>
      <path d="
M30.6094 48.3906
Q23.3906 48.3906 19.1875 42.75
Q14.9844 37.1094 14.9844 27.2969
Q14.9844 17.4844 19.1562 11.8438
Q23.3438 6.20312 30.6094 6.20312
Q37.7969 6.20312 41.9844 11.8594
Q46.1875 17.5312 46.1875 27.2969
Q46.1875 37.0156 41.9844 42.7031
Q37.7969 48.3906 30.6094 48.3906
M30.6094 56
Q42.3281 56 49.0156 48.375
Q55.7188 40.7656 55.7188 27.2969
Q55.7188 13.875 49.0156 6.21875
Q42.3281 -1.42188 30.6094 -1.42188
Q18.8438 -1.42188 12.1719 6.21875
Q5.51562 13.875 5.51562 27.2969
Q5.51562 40.7656 12.1719 48.375
Q18.8438 56 30.6094 56" id="BitstreamVeraSans-Roman-6f"/>
      <path d="
M9.42188 75.9844
L18.4062 75.9844
L18.4062 0
L9.42188 0
z
" id="BitstreamVeraSans-Roman-6c"/>
      <path d="
M5.51562 54.6875
L48.1875 54.6875
L48.1875 46.4844
L14.4062 7.17188
L48.1875 7.17188
L48.1875 0
L4.29688 0
L4.29688 8.20312
L38.0938 47.5156
L5.51562 47.5156
z
" id="BitstreamVeraSans-Roman-7a"/>
      <path d="
M2.98438 54.6875
L12.5 54.6875
L29.5938 8.79688
L46.6875 54.6875
L56.2031 54.6875
L35.6875 0
L23.4844 0
z
" id="BitstreamVeraSans-Roman-76"/>
      <path d="
M44.3906 34.1875
Q47.5625 33.1094 50.5625 29.5938
Q53.5625 26.0781 56.5938 19.9219
L66.6094 0
L56 0
L46.6875 18.7031
Q43.0625 26.0312 39.6719 28.4219
Q36.2812 30.8125 30.4219 30.8125
L19.6719 30.8125
L19.6719 0
L9.8125 0
L9.8125 72.9062
L32.0781 72.9062
Q44.5781 72.9062 50.7344 67.6719
Q56.8906 62.4531 56.8906 51.9062
Q56.8906 45.0156 53.6875 40.4688
Q50.4844 35.9375 44.3906 34.1875
M19.6719 64.7969
L19.6719 38.9219
L32.0781 38.9219
Q39.2031 38.9219 42.8438 42.2188
Q46.4844 45.5156 46.4844 51.9062
Q46.4844 58.2969 42.8438 61.5469
Q39.2031 64.7969 32.0781 64.7969
z
" id="BitstreamVeraSans-Roman-52"/>
      <path d="
M9.42188 54.6875
L18.4062 54.6875
L18.4062 0
L9.42188 0
z

M9.42188 75.9844
L18.4062 75.9844
L18.4062 64.5938
L9.42188 64.5938
z
" id="BitstreamVeraSans-Roman-69"/>
      <path d="
M56.2031 29.5938
L56.2031 25.2031
L14.8906 25.2031
Q15.4844 15.9219 20.4844 11.0625
Q25.4844 6.20312 34.4219 6.20312
Q39.5938 6.20312 44.4531 7.46875
Q49.3125 8.73438 54.1094 11.2812
L54.1094 2.78125
Q49.2656 0.734375 44.1875 -0.34375
Q39.1094 -1.42188 33.8906 -1.42188
Q20.7969 -1.42188 13.1562 6.1875
Q5.51562 13.8125 5.51562 26.8125
Q5.51562 40.2344 12.7656 48.1094
Q20.0156 56 32.3281 56
Q43.3594 56 49.7812 48.8906
Q56.2031 41.7969 56.2031 29.5938
M47.2188 32.2344
Q47.125 39.5938 43.0938 43.9844
Q39.0625 48.3906 32.4219 48.3906
Q24.9062 48.3906 20.3906 44.1406
Q15.875 39.8906 15.1875 32.1719
z
" id="BitstreamVeraSans-Roman-65"/>
      <path d="
M18.3125 70.2188
L18.3125 54.6875
L36.8125 54.6875
L36.8125 47.7031
L18.3125 47.7031
L18.3125 18.0156
Q18.3125 11.3281 20.1406 9.42188
Q21.9688 7.51562 27.5938 7.51562
L36.8125 7.51562
L36.8125 0
L27.5938 0
Q17.1875 0 13.2344 3.875
Q9.28125 7.76562 9.28125 18.0156
L9.28125 47.7031
L2.6875 47.7031
L2.6875 54.6875
L9.28125 54.6875
L9.28125 70.2188
z
" id="BitstreamVeraSans-Roman-74"/>
      <path d="
M34.2812 27.4844
Q23.3906 27.4844 19.1875 25
Q14.9844 22.5156 14.9844 16.5
Q14.9844 11.7188 18.1406 8.90625
Q21.2969 6.10938 26.7031 6.10938
Q34.1875 6.10938 38.7031 11.4062
Q43.2188 16.7031 43.2188 25.4844
L43.2188 27.4844
z

M52.2031 31.2031
L52.2031 0
L43.2188 0
L43.2188 8.29688
Q40.1406 3.32812 35.5469 0.953125
Q30.9531 -1.42188 24.3125 -1.42188
Q15.9219 -1.42188 10.9531 3.29688
Q6 8.01562 6 15.9219
Q6 25.1406 12.1719 29.8281
Q18.3594 34.5156 30.6094 34.5156
L43.2188 34.5156
L43.2188 35.4062
Q43.2188 41.6094 39.1406 45
Q35.0625 48.3906 27.6875 48.3906
Q23 48.3906 18.5469 47.2656
Q14.1094 46.1406 10.0156 43.8906
L10.0156 52.2031
Q14.9375 54.1094 19.5781 55.0469
Q24.2188 56 28.6094 56
Q40.4844 56 46.3438 49.8438
Q52.2031 43.7031 52.2031 31.2031" id="BitstreamVeraSans-Roman-61"/>
      <path d="
M44.2812 53.0781
L44.2812 44.5781
Q40.4844 46.5312 36.375 47.5
Q32.2812 48.4844 27.875 48.4844
Q21.1875 48.4844 17.8438 46.4375
Q14.5 44.3906 14.5 40.2812
Q14.5 37.1562 16.8906 35.375
Q19.2812 33.5938 26.5156 31.9844
L29.5938 31.2969
Q39.1562 29.25 43.1875 25.5156
Q47.2188 21.7812 47.2188 15.0938
Q47.2188 7.46875 41.1875 3.01562
Q35.1562 -1.42188 24.6094 -1.42188
Q20.2188 -1.42188 15.4531 -0.5625
Q10.6875 0.296875 5.42188 2
L5.42188 11.2812
Q10.4062 8.6875 15.2344 7.39062
Q20.0625 6.10938 24.8125 6.10938
Q31.1562 6.10938 34.5625 8.28125
Q37.9844 10.4531 37.9844 14.4062
Q37.9844 18.0625 35.5156 20.0156
Q33.0625 21.9688 24.7031 23.7812
L21.5781 24.5156
Q13.2344 26.2656 9.51562 29.9062
Q5.8125 33.5469 5.8125 39.8906
Q5.8125 47.6094 11.2812 51.7969
Q16.75 56 26.8125 56
Q31.7812 56 36.1719 55.2656
Q40.5781 54.5469 44.2812 53.0781" id="BitstreamVeraSans-Roman-73"/>
      <path d="
M18.1094 8.20312
L18.1094 -20.7969
L9.07812 -20.7969
L9.07812 54.6875
L18.1094 54.6875
L18.1094 46.3906
Q20.9531 51.2656 25.2656 53.625
Q29.5938 56 35.5938 56
Q45.5625 56 51.7812 48.0938
Q58.0156 40.1875 58.0156 27.2969
Q58.0156 14.4062 51.7812 6.48438
Q45.5625 -1.42188 35.5938 -1.42188
Q29.5938 -1.42188 25.2656 0.953125
Q20.9531 3.32812 18.1094 8.20312
M48.6875 27.2969
Q48.6875 37.2031 44.6094 42.8438
Q40.5312 48.4844 33.4062 48.4844
Q26.2656 48.4844 22.1875 42.8438
Q18.1094 37.2031 18.1094 27.2969
Q18.1094 17.3906 22.1875 11.75
Q26.2656 6.10938 33.4062 6.10938
Q40.5312 6.10938 44.6094 11.75
Q48.6875 17.3906 48.6875 27.2969" id="BitstreamVeraSans-Roman-70"/>
     </defs>
     <g transform="translate(549.029 267.1945625)rotate(-90.0)scale(0.12 -0.12)">
      <use xlink:href="#BitstreamVeraSans-Roman-52"/>
      <use x="64.982421875" xlink:href="#BitstreamVeraSans-Roman-65"/>
      <use x="126.505859375" xlink:href="#BitstreamVeraSans-Roman-6c"/>
      <use x="154.2890625" xlink:href="#BitstreamVeraSans-Roman-61"/>
      <use x="215.568359375" xlink:href="#BitstreamVeraSans-Roman-74"/>
      <use x="254.77734375" xlink:href="#BitstreamVeraSans-Roman-69"/>
      <use x="282.560546875" xlink:href="#BitstreamVeraSans-Roman-76"/>
      <use x="341.740234375" xlink:href="#BitstreamVeraSans-Roman-65"/>
      <use x="403.263671875" xlink:href="#BitstreamVeraSans-Roman-20"/>
      <use x="435.05078125" xlink:href="#BitstreamVeraSans-Roman-70"/>
      <use x="498.52734375" xlink:href="#BitstreamVeraSans-Roman-6f"/>
      <use x="559.708984375" xlink:href="#BitstreamVeraSans-Roman-70"/>
      <use x="623.185546875" xlink:href="#BitstreamVeraSans-Roman-75"/>
      <use x="686.564453125" xlink:href="#BitstreamVeraSans-Roman-6c"/>
      <use x="714.34765625" xlink:href="#BitstreamVeraSans-Roman-61"/>
      <use x="775.626953125" xlink:href="#BitstreamVeraSans-Roman-74"/>
      <use x="814.8359375" xlink:href="#BitstreamVeraSans-Roman-69"/>
      <use x="842.619140625" xlink:href="#BitstreamVeraSans-Roman-6f"/>
      <use x="903.80078125" xlink:href="#BitstreamVeraSans-Roman-6e"/>
      <use x="967.1796875" xlink:href="#BitstreamVeraSans-Roman-20"/>
      <use x="998.966796875" xlink:href="#BitstreamVeraSans-Roman-73"/>
      <use x="1051.06640625" xlink:href="#BitstreamVeraSans-Roman-69"/>
      <use x="1078.84960938" xlink:href="#BitstreamVeraSans-Roman-7a"/>
      <use x="1131.33984375" xlink:href="#BitstreamVeraSans-Roman-65"/>
     </g>
    </g>
   </g>
   <g id="text_5">
    <!-- Mind Bender -->
    <defs>
     <path d="
M45.4062 46.3906
L45.4062 75.9844
L54.3906 75.9844
L54.3906 0
L45.4062 0
L45.4062 8.20312
Q42.5781 3.32812 38.25 0.953125
Q33.9375 -1.42188 27.875 -1.42188
Q17.9688 -1.42188 11.7344 6.48438
Q5.51562 14.4062 5.51562 27.2969
Q5.51562 40.1875 11.7344 48.0938
Q17.9688 56 27.875 56
Q33.9375 56 38.25 53.625
Q42.5781 51.2656 45.4062 46.3906
M14.7969 27.2969
Q14.7969 17.3906 18.875 11.75
Q22.9531 6.10938 30.0781 6.10938
Q37.2031 6.10938 41.2969 11.75
Q45.4062 17.3906 45.4062 27.2969
Q45.4062 37.2031 41.2969 42.8438
Q37.2031 48.4844 30.0781 48.4844
Q22.9531 48.4844 18.875 42.8438
Q14.7969 37.2031 14.7969 27.2969" id="BitstreamVeraSans-Roman-64"/>
     <path d="
M9.8125 72.9062
L24.5156 72.9062
L43.1094 23.2969
L61.8125 72.9062
L76.5156 72.9062
L76.5156 0
L66.8906 0
L66.8906 64.0156
L48.0938 14.0156
L38.1875 14.0156
L19.3906 64.0156
L19.3906 0
L9.8125 0
z
" id="BitstreamVeraSans-Roman-4d"/>
     <path d="
M19.6719 34.8125
L19.6719 8.10938
L35.5 8.10938
Q43.4531 8.10938 47.2812 11.4062
Q51.125 14.7031 51.125 21.4844
Q51.125 28.3281 47.2812 31.5625
Q43.4531 34.8125 35.5 34.8125
z

M19.6719 64.7969
L19.6719 42.8281
L34.2812 42.8281
Q41.5 42.8281 45.0312 45.5312
Q48.5781 48.25 48.5781 53.8125
Q48.5781 59.3281 45.0312 62.0625
Q41.5 64.7969 34.2812 64.7969
z

M9.8125 72.9062
L35.0156 72.9062
Q46.2969 72.9062 52.3906 68.2188
Q58.5 63.5312 58.5 54.8906
Q58.5 48.1875 55.375 44.2344
Q52.25 40.2812 46.1875 39.3125
Q53.4688 37.75 57.5 32.7812
Q61.5312 27.8281 61.5312 20.4062
Q61.5312 10.6406 54.8906 5.3125
Q48.25 0 35.9844 0
L9.8125 0
z
" id="BitstreamVeraSans-Roman-42"/>
    </defs>
    <g transform="translate(32.4296875 350.9214375)scale(0.05 -0.05)">
     <use xlink:href="#BitstreamVeraSans-Roman-4d"/>
     <use x="86.279296875" xlink:href="#BitstreamVeraSans-Roman-69"/>
     <use x="114.0625" xlink:href="#BitstreamVeraSans-Roman-6e"/>
     <use x="177.44140625" xlink:href="#BitstreamVeraSans-Roman-64"/>
     <use x="240.91796875" xlink:href="#BitstreamVeraSans-Roman-20"/>
     <use x="272.705078125" xlink:href="#BitstreamVeraSans-Roman-42"/>
     <use x="341.30859375" xlink:href="#BitstreamVeraSans-Roman-65"/>
     <use x="402.83203125" xlink:href="#BitstreamVeraSans-Roman-6e"/>
     <use x="466.2109375" xlink:href="#BitstreamVeraSans-Roman-64"/>
     <use x="529.6875" xlink:href="#BitstreamVeraSans-Roman-65"/>
     <use x="591.2109375" xlink:href="#BitstreamVeraSans-Roman-72"/>
    </g>
   </g>
   <g id="text_6">
    <!-- Mind Controller -->
    <defs>
     <path d="
M64.4062 67.2812
L64.4062 56.8906
Q59.4219 61.5312 53.7812 63.8125
Q48.1406 66.1094 41.7969 66.1094
Q29.2969 66.1094 22.6562 58.4688
Q16.0156 50.8281 16.0156 36.375
Q16.0156 21.9688 22.6562 14.3281
Q29.2969 6.6875 41.7969 6.6875
Q48.1406 6.6875 53.7812 8.98438
Q59.4219 11.2812 64.4062 15.9219
L64.4062 5.60938
Q59.2344 2.09375 53.4375 0.328125
Q47.6562 -1.42188 41.2188 -1.42188
Q24.6562 -1.42188 15.125 8.70312
Q5.60938 18.8438 5.60938 36.375
Q5.60938 53.9531 15.125 64.0781
Q24.6562 74.2188 41.2188 74.2188
Q47.75 74.2188 53.5312 72.4844
Q59.3281 70.75 64.4062 67.2812" id="BitstreamVeraSans-Roman-43"/>
    </defs>
    <g transform="translate(25.81953125 312.5214375)scale(0.05 -0.05)">
     <use xlink:href="#BitstreamVeraSans-Roman-4d"/>
     <use x="86.279296875" xlink:href="#BitstreamVeraSans-Roman-69"/>
     <use x="114.0625" xlink:href="#BitstreamVeraSans-Roman-6e"/>
     <use x="177.44140625" xlink:href="#BitstreamVeraSans-Roman-64"/>
     <use x="240.91796875" xlink:href="#BitstreamVeraSans-Roman-20"/>
     <use x="272.705078125" xlink:href="#BitstreamVeraSans-Roman-43"/>
     <use x="342.529296875" xlink:href="#BitstreamVeraSans-Roman-6f"/>
     <use x="403.7109375" xlink:href="#BitstreamVeraSans-Roman-6e"/>
     <use x="467.08984375" xlink:href="#BitstreamVeraSans-Roman-74"/>
     <use x="506.298828125" xlink:href="#BitstreamVeraSans-Roman-72"/>
     <use x="545.162109375" xlink:href="#BitstreamVeraSans-Roman-6f"/>
     <use x="606.34375" xlink:href="#BitstreamVeraSans-Roman-6c"/>
     <use x="634.126953125" xlink:href="#BitstreamVeraSans-Roman-6c"/>
     <use x="661.91015625" xlink:href="#BitstreamVeraSans-Roman-65"/>
     <use x="723.43359375" xlink:href="#BitstreamVeraSans-Roman-72"/>
    </g>
   </g>
   <g id="text_7">
    <!-- Mind Reader -->
    <g transform="translate(32.715625 274.1214375)scale(0.05 -0.05)">
     <use xlink:href="#BitstreamVeraSans-Roman-4d"/>
     <use x="86.279296875" xlink:href="#BitstreamVeraSans-Roman-69"/>
     <use x="114.0625" xlink:href="#BitstreamVeraSans-Roman-6e"/>
     <use x="177.44140625" xlink:href="#BitstreamVeraSans-Roman-64"/>
     <use x="240.91796875" xlink:href="#BitstreamVeraSans-Roman-20"/>
     <use x="272.705078125" xlink:href="#BitstreamVeraSans-Roman-52"/>
     <use x="337.6875" xlink:href="#BitstreamVeraSans-Roman-65"/>
     <use x="399.2109375" xlink:href="#BitstreamVeraSans-Roman-61"/>
     <use x="460.490234375" xlink:href="#BitstreamVeraSans-Roman-64"/>
     <use x="523.966796875" xlink:href="#BitstreamVeraSans-Roman-65"/>
     <use x="585.490234375" xlink:href="#BitstreamVeraSans-Roman-72"/>
    </g>
   </g>
   <g id="text_8">
    <!-- Mind Warper -->
    <defs>
     <path d="
M3.32812 72.9062
L13.2812 72.9062
L28.6094 11.2812
L43.8906 72.9062
L54.9844 72.9062
L70.3125 11.2812
L85.5938 72.9062
L95.6094 72.9062
L77.2969 0
L64.8906 0
L49.5156 63.2812
L33.9844 0
L21.5781 0
z
" id="BitstreamVeraSans-Roman-57"/>
    </defs>
    <g transform="translate(32.3609375 235.7214375)scale(0.05 -0.05)">
     <use xlink:href="#BitstreamVeraSans-Roman-4d"/>
     <use x="86.279296875" xlink:href="#BitstreamVeraSans-Roman-69"/>
     <use x="114.0625" xlink:href="#BitstreamVeraSans-Roman-6e"/>
     <use x="177.44140625" xlink:href="#BitstreamVeraSans-Roman-64"/>
     <use x="240.91796875" xlink:href="#BitstreamVeraSans-Roman-20"/>
     <use x="272.705078125" xlink:href="#BitstreamVeraSans-Roman-57"/>
     <use x="365.20703125" xlink:href="#BitstreamVeraSans-Roman-61"/>
     <use x="426.486328125" xlink:href="#BitstreamVeraSans-Roman-72"/>
     <use x="467.599609375" xlink:href="#BitstreamVeraSans-Roman-70"/>
     <use x="531.076171875" xlink:href="#BitstreamVeraSans-Roman-65"/>
     <use x="592.599609375" xlink:href="#BitstreamVeraSans-Roman-72"/>
    </g>
   </g>
   <g id="text_9">
    <!-- Protected Mind Reader -->
    <defs>
     <path d="
M19.6719 64.7969
L19.6719 37.4062
L32.0781 37.4062
Q38.9688 37.4062 42.7188 40.9688
Q46.4844 44.5312 46.4844 51.125
Q46.4844 57.6719 42.7188 61.2344
Q38.9688 64.7969 32.0781 64.7969
z

M9.8125 72.9062
L32.0781 72.9062
Q44.3438 72.9062 50.6094 67.3594
Q56.8906 61.8125 56.8906 51.125
Q56.8906 40.3281 50.6094 34.8125
Q44.3438 29.2969 32.0781 29.2969
L19.6719 29.2969
L19.6719 0
L9.8125 0
z
" id="BitstreamVeraSans-Roman-50"/>
     <path d="
M48.7812 52.5938
L48.7812 44.1875
Q44.9688 46.2969 41.1406 47.3438
Q37.3125 48.3906 33.4062 48.3906
Q24.6562 48.3906 19.8125 42.8438
Q14.9844 37.3125 14.9844 27.2969
Q14.9844 17.2812 19.8125 11.7344
Q24.6562 6.20312 33.4062 6.20312
Q37.3125 6.20312 41.1406 7.25
Q44.9688 8.29688 48.7812 10.4062
L48.7812 2.09375
Q45.0156 0.34375 40.9844 -0.53125
Q36.9688 -1.42188 32.4219 -1.42188
Q20.0625 -1.42188 12.7812 6.34375
Q5.51562 14.1094 5.51562 27.2969
Q5.51562 40.6719 12.8594 48.3281
Q20.2188 56 33.0156 56
Q37.1562 56 41.1094 55.1406
Q45.0625 54.2969 48.7812 52.5938" id="BitstreamVeraSans-Roman-63"/>
    </defs>
    <g transform="translate(7.2 197.3214375)scale(0.05 -0.05)">
     <use xlink:href="#BitstreamVeraSans-Roman-50"/>
     <use x="58.552734375" xlink:href="#BitstreamVeraSans-Roman-72"/>
     <use x="97.416015625" xlink:href="#BitstreamVeraSans-Roman-6f"/>
     <use x="158.59765625" xlink:href="#BitstreamVeraSans-Roman-74"/>
     <use x="197.806640625" xlink:href="#BitstreamVeraSans-Roman-65"/>
     <use x="259.330078125" xlink:href="#BitstreamVeraSans-Roman-63"/>
     <use x="314.310546875" xlink:href="#BitstreamVeraSans-Roman-74"/>
     <use x="353.51953125" xlink:href="#BitstreamVeraSans-Roman-65"/>
     <use x="415.04296875" xlink:href="#BitstreamVeraSans-Roman-64"/>
     <use x="478.51953125" xlink:href="#BitstreamVeraSans-Roman-20"/>
     <use x="510.306640625" xlink:href="#BitstreamVeraSans-Roman-4d"/>
     <use x="596.5859375" xlink:href="#BitstreamVeraSans-Roman-69"/>
     <use x="624.369140625" xlink:href="#BitstreamVeraSans-Roman-6e"/>
     <use x="687.748046875" xlink:href="#BitstreamVeraSans-Roman-64"/>
     <use x="751.224609375" xlink:href="#BitstreamVeraSans-Roman-20"/>
     <use x="783.01171875" xlink:href="#BitstreamVeraSans-Roman-52"/>
     <use x="847.994140625" xlink:href="#BitstreamVeraSans-Roman-65"/>
     <use x="909.517578125" xlink:href="#BitstreamVeraSans-Roman-61"/>
     <use x="970.796875" xlink:href="#BitstreamVeraSans-Roman-64"/>
     <use x="1034.2734375" xlink:href="#BitstreamVeraSans-Roman-65"/>
     <use x="1095.796875" xlink:href="#BitstreamVeraSans-Roman-72"/>
    </g>
   </g>
   <g id="text_10">
    <!-- Geller -->
    <defs>
     <path d="
M59.5156 10.4062
L59.5156 29.9844
L43.4062 29.9844
L43.4062 38.0938
L69.2812 38.0938
L69.2812 6.78125
Q63.5781 2.73438 56.6875 0.65625
Q49.8125 -1.42188 42 -1.42188
Q24.9062 -1.42188 15.25 8.5625
Q5.60938 18.5625 5.60938 36.375
Q5.60938 54.25 15.25 64.2344
Q24.9062 74.2188 42 74.2188
Q49.125 74.2188 55.5469 72.4531
Q61.9688 70.7031 67.3906 67.2812
L67.3906 56.7812
Q61.9219 61.4219 55.7656 63.7656
Q49.6094 66.1094 42.8281 66.1094
Q29.4375 66.1094 22.7188 58.6406
Q16.0156 51.1719 16.0156 36.375
Q16.0156 21.625 22.7188 14.1562
Q29.4375 6.6875 42.8281 6.6875
Q48.0469 6.6875 52.1406 7.59375
Q56.25 8.5 59.5156 10.4062" id="BitstreamVeraSans-Roman-47"/>
    </defs>
    <g transform="translate(49.46640625 158.9214375)scale(0.05 -0.05)">
     <use xlink:href="#BitstreamVeraSans-Roman-47"/>
     <use x="77.490234375" xlink:href="#BitstreamVeraSans-Roman-65"/>
     <use x="139.013671875" xlink:href="#BitstreamVeraSans-Roman-6c"/>
     <use x="166.796875" xlink:href="#BitstreamVeraSans-Roman-6c"/>
     <use x="194.580078125" xlink:href="#BitstreamVeraSans-Roman-65"/>
     <use x="256.103515625" xlink:href="#BitstreamVeraSans-Roman-72"/>
    </g>
   </g>
   <g id="text_11">
    <!-- Geller Cooperator -->
    <g transform="translate(19.54140625 120.5214375)scale(0.05 -0.05)">
     <use xlink:href="#BitstreamVeraSans-Roman-47"/>
     <use x="77.490234375" xlink:href="#BitstreamVeraSans-Roman-65"/>
     <use x="139.013671875" xlink:href="#BitstreamVeraSans-Roman-6c"/>
     <use x="166.796875" xlink:href="#BitstreamVeraSans-Roman-6c"/>
     <use x="194.580078125" xlink:href="#BitstreamVeraSans-Roman-65"/>
     <use x="256.103515625" xlink:href="#BitstreamVeraSans-Roman-72"/>
     <use x="297.216796875" xlink:href="#BitstreamVeraSans-Roman-20"/>
     <use x="329.00390625" xlink:href="#BitstreamVeraSans-Roman-43"/>
     <use x="398.828125" xlink:href="#BitstreamVeraSans-Roman-6f"/>
     <use x="460.009765625" xlink:href="#BitstreamVeraSans-Roman-6f"/>
     <use x="521.19140625" xlink:href="#BitstreamVeraSans-Roman-70"/>
     <use x="584.66796875" xlink:href="#BitstreamVeraSans-Roman-65"/>
     <use x="646.19140625" xlink:href="#BitstreamVeraSans-Roman-72"/>
     <use x="687.3046875" xlink:href="#BitstreamVeraSans-Roman-61"/>
     <use x="748.583984375" xlink:href="#BitstreamVeraSans-Roman-74"/>
     <use x="787.79296875" xlink:href="#BitstreamVeraSans-Roman-6f"/>
     <use x="848.974609375" xlink:href="#BitstreamVeraSans-Roman-72"/>
    </g>
   </g>
   <g id="text_12">
    <!-- Darwin -->
    <defs>
     <path d="
M4.20312 54.6875
L13.1875 54.6875
L24.4219 12.0156
L35.5938 54.6875
L46.1875 54.6875
L57.4219 12.0156
L68.6094 54.6875
L77.5938 54.6875
L63.2812 0
L52.6875 0
L40.9219 44.8281
L29.1094 0
L18.5 0
z
" id="BitstreamVeraSans-Roman-77"/>
     <path d="
M19.6719 64.7969
L19.6719 8.10938
L31.5938 8.10938
Q46.6875 8.10938 53.6875 14.9375
Q60.6875 21.7812 60.6875 36.5312
Q60.6875 51.1719 53.6875 57.9844
Q46.6875 64.7969 31.5938 64.7969
z

M9.8125 72.9062
L30.0781 72.9062
Q51.2656 72.9062 61.1719 64.0938
Q71.0938 55.2812 71.0938 36.5312
Q71.0938 17.6719 61.125 8.82812
Q51.1719 0 30.0781 0
L9.8125 0
z
" id="BitstreamVeraSans-Roman-44"/>
    </defs>
    <g transform="translate(47.3453125 82.1214375)scale(0.05 -0.05)">
     <use xlink:href="#BitstreamVeraSans-Roman-44"/>
     <use x="77.001953125" xlink:href="#BitstreamVeraSans-Roman-61"/>
     <use x="138.28125" xlink:href="#BitstreamVeraSans-Roman-72"/>
     <use x="179.39453125" xlink:href="#BitstreamVeraSans-Roman-77"/>
     <use x="261.181640625" xlink:href="#BitstreamVeraSans-Roman-69"/>
     <use x="288.96484375" xlink:href="#BitstreamVeraSans-Roman-6e"/>
    </g>
   </g>
   <g id="text_13">
    <!-- Geller Defector -->
    <defs>
     <path d="
M37.1094 75.9844
L37.1094 68.5
L28.5156 68.5
Q23.6875 68.5 21.7969 66.5469
Q19.9219 64.5938 19.9219 59.5156
L19.9219 54.6875
L34.7188 54.6875
L34.7188 47.7031
L19.9219 47.7031
L19.9219 0
L10.8906 0
L10.8906 47.7031
L2.29688 47.7031
L2.29688 54.6875
L10.8906 54.6875
L10.8906 58.5
Q10.8906 67.625 15.1406 71.7969
Q19.3906 75.9844 28.6094 75.9844
z
" id="BitstreamVeraSans-Roman-66"/>
    </defs>
    <g transform="translate(26.009375 43.7214375)scale(0.05 -0.05)">
     <use xlink:href="#BitstreamVeraSans-Roman-47"/>
     <use x="77.490234375" xlink:href="#BitstreamVeraSans-Roman-65"/>
     <use x="139.013671875" xlink:href="#BitstreamVeraSans-Roman-6c"/>
     <use x="166.796875" xlink:href="#BitstreamVeraSans-Roman-6c"/>
     <use x="194.580078125" xlink:href="#BitstreamVeraSans-Roman-65"/>
     <use x="256.103515625" xlink:href="#BitstreamVeraSans-Roman-72"/>
     <use x="297.216796875" xlink:href="#BitstreamVeraSans-Roman-20"/>
     <use x="329.00390625" xlink:href="#BitstreamVeraSans-Roman-44"/>
     <use x="406.005859375" xlink:href="#BitstreamVeraSans-Roman-65"/>
     <use x="467.529296875" xlink:href="#BitstreamVeraSans-Roman-66"/>
     <use x="502.734375" xlink:href="#BitstreamVeraSans-Roman-65"/>
     <use x="564.2578125" xlink:href="#BitstreamVeraSans-Roman-63"/>
     <use x="619.23828125" xlink:href="#BitstreamVeraSans-Roman-74"/>
     <use x="658.447265625" xlink:href="#BitstreamVeraSans-Roman-6f"/>
     <use x="719.62890625" xlink:href="#BitstreamVeraSans-Roman-72"/>
    </g>
   </g>
   <g id="text_14">
    <!-- Strategy population dynamics based on average payoffs -->
    <defs>
     <path d="
M52 44.1875
Q55.375 50.25 60.0625 53.125
Q64.75 56 71.0938 56
Q79.6406 56 84.2812 50.0156
Q88.9219 44.0469 88.9219 33.0156
L88.9219 0
L79.8906 0
L79.8906 32.7188
Q79.8906 40.5781 77.0938 44.375
Q74.3125 48.1875 68.6094 48.1875
Q61.625 48.1875 57.5625 43.5469
Q53.5156 38.9219 53.5156 30.9062
L53.5156 0
L44.4844 0
L44.4844 32.7188
Q44.4844 40.625 41.7031 44.4062
Q38.9219 48.1875 33.1094 48.1875
Q26.2188 48.1875 22.1562 43.5312
Q18.1094 38.875 18.1094 30.9062
L18.1094 0
L9.07812 0
L9.07812 54.6875
L18.1094 54.6875
L18.1094 46.1875
Q21.1875 51.2188 25.4844 53.6094
Q29.7812 56 35.6875 56
Q41.6562 56 45.8281 52.9688
Q50 49.9531 52 44.1875" id="BitstreamVeraSans-Roman-6d"/>
     <path d="
M45.4062 27.9844
Q45.4062 37.75 41.375 43.1094
Q37.3594 48.4844 30.0781 48.4844
Q22.8594 48.4844 18.8281 43.1094
Q14.7969 37.75 14.7969 27.9844
Q14.7969 18.2656 18.8281 12.8906
Q22.8594 7.51562 30.0781 7.51562
Q37.3594 7.51562 41.375 12.8906
Q45.4062 18.2656 45.4062 27.9844
M54.3906 6.78125
Q54.3906 -7.17188 48.1875 -13.9844
Q42 -20.7969 29.2031 -20.7969
Q24.4688 -20.7969 20.2656 -20.0938
Q16.0625 -19.3906 12.1094 -17.9219
L12.1094 -9.1875
Q16.0625 -11.3281 19.9219 -12.3438
Q23.7812 -13.375 27.7812 -13.375
Q36.625 -13.375 41.0156 -8.76562
Q45.4062 -4.15625 45.4062 5.17188
L45.4062 9.625
Q42.625 4.78125 38.2812 2.39062
Q33.9375 0 27.875 0
Q17.8281 0 11.6719 7.65625
Q5.51562 15.3281 5.51562 27.9844
Q5.51562 40.6719 11.6719 48.3281
Q17.8281 56 27.875 56
Q33.9375 56 38.2812 53.6094
Q42.625 51.2188 45.4062 46.3906
L45.4062 54.6875
L54.3906 54.6875
z
" id="BitstreamVeraSans-Roman-67"/>
     <path d="
M53.5156 70.5156
L53.5156 60.8906
Q47.9062 63.5781 42.9219 64.8906
Q37.9375 66.2188 33.2969 66.2188
Q25.25 66.2188 20.875 63.0938
Q16.5 59.9688 16.5 54.2031
Q16.5 49.3594 19.4062 46.8906
Q22.3125 44.4375 30.4219 42.9219
L36.375 41.7031
Q47.4062 39.5938 52.6562 34.2969
Q57.9062 29 57.9062 20.125
Q57.9062 9.51562 50.7969 4.04688
Q43.7031 -1.42188 29.9844 -1.42188
Q24.8125 -1.42188 18.9688 -0.25
Q13.1406 0.921875 6.89062 3.21875
L6.89062 13.375
Q12.8906 10.0156 18.6562 8.29688
Q24.4219 6.59375 29.9844 6.59375
Q38.4219 6.59375 43.0156 9.90625
Q47.6094 13.2344 47.6094 19.3906
Q47.6094 24.75 44.3125 27.7812
Q41.0156 30.8125 33.5 32.3281
L27.4844 33.5
Q16.4531 35.6875 11.5156 40.375
Q6.59375 45.0625 6.59375 53.4219
Q6.59375 63.0938 13.4062 68.6562
Q20.2188 74.2188 32.1719 74.2188
Q37.3125 74.2188 42.625 73.2812
Q47.9531 72.3594 53.5156 70.5156" id="BitstreamVeraSans-Roman-53"/>
     <path d="
M48.6875 27.2969
Q48.6875 37.2031 44.6094 42.8438
Q40.5312 48.4844 33.4062 48.4844
Q26.2656 48.4844 22.1875 42.8438
Q18.1094 37.2031 18.1094 27.2969
Q18.1094 17.3906 22.1875 11.75
Q26.2656 6.10938 33.4062 6.10938
Q40.5312 6.10938 44.6094 11.75
Q48.6875 17.3906 48.6875 27.2969
M18.1094 46.3906
Q20.9531 51.2656 25.2656 53.625
Q29.5938 56 35.5938 56
Q45.5625 56 51.7812 48.0938
Q58.0156 40.1875 58.0156 27.2969
Q58.0156 14.4062 51.7812 6.48438
Q45.5625 -1.42188 35.5938 -1.42188
Q29.5938 -1.42188 25.2656 0.953125
Q20.9531 3.32812 18.1094 8.20312
L18.1094 0
L9.07812 0
L9.07812 75.9844
L18.1094 75.9844
z
" id="BitstreamVeraSans-Roman-62"/>
     <path d="
M32.1719 -5.07812
Q28.375 -14.8438 24.75 -17.8125
Q21.1406 -20.7969 15.0938 -20.7969
L7.90625 -20.7969
L7.90625 -13.2812
L13.1875 -13.2812
Q16.8906 -13.2812 18.9375 -11.5156
Q21 -9.76562 23.4844 -3.21875
L25.0938 0.875
L2.98438 54.6875
L12.5 54.6875
L29.5938 11.9219
L46.6875 54.6875
L56.2031 54.6875
z
" id="BitstreamVeraSans-Roman-79"/>
    </defs>
    <g transform="translate(87.98575 18.14175)scale(0.144 -0.144)">
     <use xlink:href="#BitstreamVeraSans-Roman-53"/>
     <use x="63.4765625" xlink:href="#BitstreamVeraSans-Roman-74"/>
     <use x="102.685546875" xlink:href="#BitstreamVeraSans-Roman-72"/>
     <use x="143.798828125" xlink:href="#BitstreamVeraSans-Roman-61"/>
     <use x="205.078125" xlink:href="#BitstreamVeraSans-Roman-74"/>
     <use x="244.287109375" xlink:href="#BitstreamVeraSans-Roman-65"/>
     <use x="305.810546875" xlink:href="#BitstreamVeraSans-Roman-67"/>
     <use x="369.287109375" xlink:href="#BitstreamVeraSans-Roman-79"/>
     <use x="428.466796875" xlink:href="#BitstreamVeraSans-Roman-20"/>
     <use x="460.25390625" xlink:href="#BitstreamVeraSans-Roman-70"/>
     <use x="523.73046875" xlink:href="#BitstreamVeraSans-Roman-6f"/>
     <use x="584.912109375" xlink:href="#BitstreamVeraSans-Roman-70"/>
     <use x="648.388671875" xlink:href="#BitstreamVeraSans-Roman-75"/>
     <use x="711.767578125" xlink:href="#BitstreamVeraSans-Roman-6c"/>
     <use x="739.55078125" xlink:href="#BitstreamVeraSans-Roman-61"/>
     <use x="800.830078125" xlink:href="#BitstreamVeraSans-Roman-74"/>
     <use x="840.0390625" xlink:href="#BitstreamVeraSans-Roman-69"/>
     <use x="867.822265625" xlink:href="#BitstreamVeraSans-Roman-6f"/>
     <use x="929.00390625" xlink:href="#BitstreamVeraSans-Roman-6e"/>
     <use x="992.3828125" xlink:href="#BitstreamVeraSans-Roman-20"/>
     <use x="1024.16992188" xlink:href="#BitstreamVeraSans-Roman-64"/>
     <use x="1087.64648438" xlink:href="#BitstreamVeraSans-Roman-79"/>
     <use x="1146.82617188" xlink:href="#BitstreamVeraSans-Roman-6e"/>
     <use x="1210.20507812" xlink:href="#BitstreamVeraSans-Roman-61"/>
     <use x="1271.484375" xlink:href="#BitstreamVeraSans-Roman-6d"/>
     <use x="1368.89648438" xlink:href="#BitstreamVeraSans-Roman-69"/>
     <use x="1396.6796875" xlink:href="#BitstreamVeraSans-Roman-63"/>
     <use x="1451.66015625" xlink:href="#BitstreamVeraSans-Roman-73"/>
     <use x="1503.75976562" xlink:href="#BitstreamVeraSans-Roman-20"/>
     <use x="1535.546875" xlink:href="#BitstreamVeraSans-Roman-62"/>
     <use x="1599.0234375" xlink:href="#BitstreamVeraSans-Roman-61"/>
     <use x="1660.30273438" xlink:href="#BitstreamVeraSans-Roman-73"/>
     <use x="1712.40234375" xlink:href="#BitstreamVeraSans-Roman-65"/>
     <use x="1773.92578125" xlink:href="#BitstreamVeraSans-Roman-64"/>
     <use x="1837.40234375" xlink:href="#BitstreamVeraSans-Roman-20"/>
     <use x="1869.18945312" xlink:href="#BitstreamVeraSans-Roman-6f"/>
     <use x="1930.37109375" xlink:href="#BitstreamVeraSans-Roman-6e"/>
     <use x="1993.75" xlink:href="#BitstreamVeraSans-Roman-20"/>
     <use x="2025.53710938" xlink:href="#BitstreamVeraSans-Roman-61"/>
     <use x="2086.81640625" xlink:href="#BitstreamVeraSans-Roman-76"/>
     <use x="2145.99609375" xlink:href="#BitstreamVeraSans-Roman-65"/>
     <use x="2207.51953125" xlink:href="#BitstreamVeraSans-Roman-72"/>
     <use x="2248.6328125" xlink:href="#BitstreamVeraSans-Roman-61"/>
     <use x="2309.91210938" xlink:href="#BitstreamVeraSans-Roman-67"/>
     <use x="2373.38867188" xlink:href="#BitstreamVeraSans-Roman-65"/>
     <use x="2434.91210938" xlink:href="#BitstreamVeraSans-Roman-20"/>
     <use x="2466.69921875" xlink:href="#BitstreamVeraSans-Roman-70"/>
     <use x="2530.17578125" xlink:href="#BitstreamVeraSans-Roman-61"/>
     <use x="2591.45507812" xlink:href="#BitstreamVeraSans-Roman-79"/>
     <use x="2650.63476562" xlink:href="#BitstreamVeraSans-Roman-6f"/>
     <use x="2711.81640625" xlink:href="#BitstreamVeraSans-Roman-66"/>
     <use x="2747.02148438" xlink:href="#BitstreamVeraSans-Roman-66"/>
     <use x="2782.2265625" xlink:href="#BitstreamVeraSans-Roman-73"/>
    </g>
   </g>
  </g>
 </g>
 <defs>
  <clipPath id="p67fcc73f70">
   <rect height="345.6" width="446.4" x="68.510875" y="23.14175"/>
  </clipPath>
 </defs>
</svg>
