<?xml version="1.0" encoding="utf-8" standalone="no"?>
<!DOCTYPE svg PUBLIC "-//W3C//DTD SVG 1.1//EN"
  "http://www.w3.org/Graphics/SVG/1.1/DTD/svg11.dtd">
<!-- Created with matplotlib (http://matplotlib.org/) -->
<svg height="471pt" version="1.1" viewBox="0 0 705 471" width="705pt" xmlns="http://www.w3.org/2000/svg" xmlns:xlink="http://www.w3.org/1999/xlink">
 <defs>
  <style type="text/css">
*{stroke-linecap:butt;stroke-linejoin:round;stroke-miterlimit:100000;}
  </style>
 </defs>
 <g id="figure_1">
  <g id="patch_1">
   <path d="M 0 471.568 
L 705.8125 471.568 
L 705.8125 0 
L 0 0 
z
" style="fill:#ffffff;"/>
  </g>
  <g id="axes_1">
   <g id="patch_2">
    <path d="M 29.0125 368.74175 
L 698.6125 368.74175 
L 698.6125 23.14175 
L 29.0125 23.14175 
z
" style="fill:#ffffff;"/>
   </g>
   <g id="PolyCollection_1">
    <defs>
     <path d="M 105.103409 -275.62625 
L 74.667045 -275.62625 
L 74.667045 -275.62625 
L 74.667045 -275.62625 
L 74.667045 -275.62625 
L 74.667045 -275.62625 
L 74.667045 -275.62625 
L 74.667045 -275.62625 
L 74.667045 -275.62625 
L 74.667045 -275.62625 
L 74.667045 -275.62625 
L 74.667045 -275.62625 
L 74.667045 -275.62625 
L 74.667045 -275.62625 
L 74.667045 -275.62625 
L 74.667045 -275.62625 
L 74.667045 -275.62625 
L 74.667045 -275.62625 
L 74.667045 -275.62625 
L 74.667045 -275.62625 
L 74.667045 -275.62625 
L 74.667045 -275.62625 
L 74.667045 -275.62625 
L 74.667045 -275.62625 
L 74.667045 -275.62625 
L 74.667045 -275.62625 
L 74.667045 -275.62625 
L 74.667045 -275.62625 
L 74.667045 -275.62625 
L 74.667045 -275.62625 
L 74.667045 -275.62625 
L 74.667045 -275.62625 
L 74.667045 -275.62625 
L 74.667045 -275.62625 
L 74.667045 -275.62625 
L 74.667045 -275.62625 
L 74.667045 -275.62625 
L 74.667045 -275.62625 
L 74.667045 -275.62625 
L 74.667045 -275.62625 
L 74.667045 -275.62625 
L 74.667045 -275.62625 
L 74.667045 -275.62625 
L 74.667045 -275.62625 
L 74.667045 -275.62625 
L 74.667045 -275.62625 
L 74.667045 -275.62625 
L 74.667045 -275.62625 
L 74.667045 -275.62625 
L 74.667045 -275.62625 
L 74.667045 -275.62625 
L 74.667045 -275.62625 
L 74.667045 -275.62625 
L 74.667045 -275.62625 
L 74.667045 -275.62625 
L 74.667045 -275.62625 
L 74.667045 -275.62625 
L 74.667045 -275.62625 
L 74.667045 -275.62625 
L 74.667045 -275.62625 
L 74.667045 -275.62625 
L 74.667045 -275.62625 
L 74.667045 -275.62625 
L 74.667045 -275.62625 
L 74.667045 -275.62625 
L 74.667045 -275.62625 
L 74.667045 -275.62625 
L 74.667045 -275.62625 
L 74.667045 -275.62625 
L 74.667045 -275.62625 
L 74.667045 -275.62625 
L 74.667045 -275.62625 
L 74.667045 -275.62625 
L 74.667045 -275.62625 
L 74.667045 -275.62625 
L 74.667045 -275.62625 
L 74.667045 -275.62625 
L 74.667045 -275.62625 
L 74.667045 -275.62625 
L 74.667045 -275.62625 
L 74.667045 -275.62625 
L 74.667045 -275.62625 
L 74.667045 -275.62625 
L 74.667045 -275.62625 
L 74.667045 -275.62625 
L 74.667045 -275.62625 
L 74.667045 -275.62625 
L 74.667045 -275.62625 
L 74.667045 -275.62625 
L 74.667045 -275.62625 
L 74.667045 -275.62625 
L 74.667045 -275.62625 
L 74.667045 -275.62625 
L 74.667045 -275.62625 
L 74.667045 -275.62625 
L 74.667045 -275.62625 
L 74.667045 -275.62625 
L 74.667045 -275.62625 
L 74.667045 -275.62625 
L 74.667045 -275.62625 
L 74.667045 -275.62625 
L 105.103409 -275.62625 
L 105.103409 -275.62625 
L 105.103409 -275.62625 
L 105.103409 -275.62625 
L 105.103409 -275.62625 
L 105.103409 -275.62625 
L 105.103409 -275.62625 
L 105.103409 -275.62625 
L 105.103409 -275.62625 
L 105.103409 -275.62625 
L 105.103409 -275.62625 
L 105.103409 -275.62625 
L 105.103409 -275.62625 
L 105.103409 -275.62625 
L 105.103409 -275.62625 
L 105.103409 -275.62625 
L 105.103409 -275.62625 
L 105.103409 -275.62625 
L 105.103409 -275.62625 
L 105.103409 -275.62625 
L 105.103409 -275.62625 
L 105.103409 -275.62625 
L 105.103409 -275.62625 
L 105.103409 -275.62625 
L 105.103409 -275.62625 
L 105.103409 -275.62625 
L 105.103409 -275.62625 
L 105.103409 -275.62625 
L 105.103409 -275.62625 
L 105.103409 -275.62625 
L 105.103409 -275.62625 
L 105.103409 -275.62625 
L 105.103409 -275.62625 
L 105.103409 -275.62625 
L 105.103409 -275.62625 
L 105.103409 -275.62625 
L 105.103409 -275.62625 
L 105.103409 -275.62625 
L 105.103409 -275.62625 
L 105.103409 -275.62625 
L 105.103409 -275.62625 
L 105.103409 -275.62625 
L 105.103409 -275.62625 
L 105.103409 -275.62625 
L 105.103409 -275.62625 
L 105.103409 -275.62625 
L 105.103409 -275.62625 
L 105.103409 -275.62625 
L 105.103409 -275.62625 
L 105.103409 -275.62625 
L 105.103409 -275.62625 
L 105.103409 -275.62625 
L 105.103409 -275.62625 
L 105.103409 -275.62625 
L 105.103409 -275.62625 
L 105.103409 -275.62625 
L 105.103409 -275.62625 
L 105.103409 -275.62625 
L 105.103409 -275.62625 
L 105.103409 -275.62625 
L 105.103409 -275.62625 
L 105.103409 -275.62625 
L 105.103409 -275.62625 
L 105.103409 -275.62625 
L 105.103409 -275.62625 
L 105.103409 -275.62625 
L 105.103409 -275.62625 
L 105.103409 -275.62625 
L 105.103409 -275.62625 
L 105.103409 -275.62625 
L 105.103409 -275.62625 
L 105.103409 -275.62625 
L 105.103409 -275.62625 
L 105.103409 -275.62625 
L 105.103409 -275.62625 
L 105.103409 -275.62625 
L 105.103409 -275.62625 
L 105.103409 -275.62625 
L 105.103409 -275.62625 
L 105.103409 -275.62625 
L 105.103409 -275.62625 
L 105.103409 -275.62625 
L 105.103409 -275.62625 
L 105.103409 -275.62625 
L 105.103409 -275.62625 
L 105.103409 -275.62625 
L 105.103409 -275.62625 
L 105.103409 -275.62625 
L 105.103409 -275.62625 
L 105.103409 -275.62625 
L 105.103409 -275.62625 
L 105.103409 -275.62625 
L 105.103409 -275.62625 
L 105.103409 -275.62625 
L 105.103409 -275.62625 
L 105.103409 -275.62625 
L 105.103409 -275.62625 
L 105.103409 -275.62625 
L 105.103409 -275.62625 
L 105.103409 -275.62625 
L 105.103409 -275.62625 
z
" id="mda0650badc" style="stroke:#000000;stroke-opacity:0.3;"/>
    </defs>
    <g clip-path="url(#p9323024d21)">
     <use style="fill:#bfbf00;fill-opacity:0.3;stroke:#000000;stroke-opacity:0.3;" x="0.0" xlink:href="#mda0650badc" y="471.568"/>
    </g>
   </g>
   <g id="PolyCollection_2">
    <defs>
     <path d="M 165.976136 -275.62625 
L 135.539773 -275.62625 
L 135.539773 -275.62625 
L 135.539773 -275.62625 
L 135.539773 -275.62625 
L 135.539773 -275.62625 
L 135.539773 -275.62625 
L 135.539773 -275.62625 
L 135.539773 -275.62625 
L 135.539773 -275.62625 
L 135.539773 -275.62625 
L 135.539773 -275.62625 
L 135.539773 -275.62625 
L 135.539773 -275.62625 
L 135.539773 -275.62625 
L 135.539773 -275.62625 
L 135.539773 -275.62625 
L 135.539773 -275.62625 
L 135.539773 -275.62625 
L 135.539773 -275.62625 
L 135.539773 -275.62625 
L 135.539773 -275.62625 
L 135.539773 -275.62625 
L 135.539773 -275.62625 
L 135.539773 -275.62625 
L 135.539773 -275.62625 
L 135.539773 -275.62625 
L 135.539773 -275.62625 
L 135.539773 -275.62625 
L 135.539773 -275.62625 
L 135.539773 -275.62625 
L 135.539773 -275.62625 
L 135.539773 -275.62625 
L 135.539773 -275.62625 
L 135.539773 -275.62625 
L 135.539773 -275.62625 
L 135.539773 -275.62625 
L 135.539773 -275.62625 
L 135.539773 -275.62625 
L 135.539773 -275.62625 
L 135.539773 -275.62625 
L 135.539773 -275.62625 
L 135.539773 -275.62625 
L 135.539773 -275.62625 
L 135.539773 -275.62625 
L 135.539773 -275.62625 
L 135.539773 -275.62625 
L 135.539773 -275.62625 
L 135.539773 -275.62625 
L 135.539773 -275.62625 
L 135.539773 -275.62625 
L 135.539773 -275.62625 
L 135.539773 -275.62625 
L 135.539773 -275.62625 
L 135.539773 -275.62625 
L 135.539773 -275.62625 
L 135.539773 -275.62625 
L 135.539773 -275.62625 
L 135.539773 -275.62625 
L 135.539773 -275.62625 
L 135.539773 -275.62625 
L 135.539773 -275.62625 
L 135.539773 -275.62625 
L 135.539773 -275.62625 
L 135.539773 -275.62625 
L 135.539773 -275.62625 
L 135.539773 -275.62625 
L 135.539773 -275.62625 
L 135.539773 -275.62625 
L 135.539773 -275.62625 
L 135.539773 -275.62625 
L 135.539773 -275.62625 
L 135.539773 -275.62625 
L 135.539773 -275.62625 
L 135.539773 -275.62625 
L 135.539773 -275.62625 
L 135.539773 -275.62625 
L 135.539773 -275.62625 
L 135.539773 -275.62625 
L 135.539773 -275.62625 
L 135.539773 -275.62625 
L 135.539773 -275.62625 
L 135.539773 -275.62625 
L 135.539773 -275.62625 
L 135.539773 -275.62625 
L 135.539773 -275.62625 
L 135.539773 -275.62625 
L 135.539773 -275.62625 
L 135.539773 -275.62625 
L 135.539773 -275.62625 
L 135.539773 -275.62625 
L 135.539773 -275.62625 
L 135.539773 -275.62625 
L 135.539773 -275.62625 
L 135.539773 -275.62625 
L 135.539773 -275.62625 
L 135.539773 -275.62625 
L 135.539773 -275.62625 
L 135.539773 -275.62625 
L 135.539773 -275.62625 
L 135.539773 -275.62625 
L 165.976136 -275.62625 
L 165.976136 -275.62625 
L 165.976136 -275.62625 
L 165.976136 -275.62625 
L 165.976136 -275.62625 
L 165.976136 -275.62625 
L 165.976136 -275.62625 
L 165.976136 -275.62625 
L 165.976136 -275.62625 
L 165.976136 -275.62625 
L 165.976136 -275.62625 
L 165.976136 -275.62625 
L 165.976136 -275.62625 
L 165.976136 -275.62625 
L 165.976136 -275.62625 
L 165.976136 -275.62625 
L 165.976136 -275.62625 
L 165.976136 -275.62625 
L 165.976136 -275.62625 
L 165.976136 -275.62625 
L 165.976136 -275.62625 
L 165.976136 -275.62625 
L 165.976136 -275.62625 
L 165.976136 -275.62625 
L 165.976136 -275.62625 
L 165.976136 -275.62625 
L 165.976136 -275.62625 
L 165.976136 -275.62625 
L 165.976136 -275.62625 
L 165.976136 -275.62625 
L 165.976136 -275.62625 
L 165.976136 -275.62625 
L 165.976136 -275.62625 
L 165.976136 -275.62625 
L 165.976136 -275.62625 
L 165.976136 -275.62625 
L 165.976136 -275.62625 
L 165.976136 -275.62625 
L 165.976136 -275.62625 
L 165.976136 -275.62625 
L 165.976136 -275.62625 
L 165.976136 -275.62625 
L 165.976136 -275.62625 
L 165.976136 -275.62625 
L 165.976136 -275.62625 
L 165.976136 -275.62625 
L 165.976136 -275.62625 
L 165.976136 -275.62625 
L 165.976136 -275.62625 
L 165.976136 -275.62625 
L 165.976136 -275.62625 
L 165.976136 -275.62625 
L 165.976136 -275.62625 
L 165.976136 -275.62625 
L 165.976136 -275.62625 
L 165.976136 -275.62625 
L 165.976136 -275.62625 
L 165.976136 -275.62625 
L 165.976136 -275.62625 
L 165.976136 -275.62625 
L 165.976136 -275.62625 
L 165.976136 -275.62625 
L 165.976136 -275.62625 
L 165.976136 -275.62625 
L 165.976136 -275.62625 
L 165.976136 -275.62625 
L 165.976136 -275.62625 
L 165.976136 -275.62625 
L 165.976136 -275.62625 
L 165.976136 -275.62625 
L 165.976136 -275.62625 
L 165.976136 -275.62625 
L 165.976136 -275.62625 
L 165.976136 -275.62625 
L 165.976136 -275.62625 
L 165.976136 -275.62625 
L 165.976136 -275.62625 
L 165.976136 -275.62625 
L 165.976136 -275.62625 
L 165.976136 -275.62625 
L 165.976136 -275.62625 
L 165.976136 -275.62625 
L 165.976136 -275.62625 
L 165.976136 -275.62625 
L 165.976136 -275.62625 
L 165.976136 -275.62625 
L 165.976136 -275.62625 
L 165.976136 -275.62625 
L 165.976136 -275.62625 
L 165.976136 -275.62625 
L 165.976136 -275.62625 
L 165.976136 -275.62625 
L 165.976136 -275.62625 
L 165.976136 -275.62625 
L 165.976136 -275.62625 
L 165.976136 -275.62625 
L 165.976136 -275.62625 
L 165.976136 -275.62625 
L 165.976136 -275.62625 
L 165.976136 -275.62625 
L 165.976136 -275.62625 
z
" id="m94854fc814" style="stroke:#000000;stroke-opacity:0.3;"/>
    </defs>
    <g clip-path="url(#p9323024d21)">
     <use style="fill:#bfbf00;fill-opacity:0.3;stroke:#000000;stroke-opacity:0.3;" x="0.0" xlink:href="#m94854fc814" y="471.568"/>
    </g>
   </g>
   <g id="PolyCollection_3">
    <defs>
     <path d="M 226.848864 -275.62625 
L 196.4125 -275.62625 
L 196.4125 -275.62625 
L 196.4125 -275.62625 
L 196.4125 -275.62625 
L 196.4125 -275.62625 
L 196.4125 -275.62625 
L 196.4125 -275.62625 
L 196.4125 -275.62625 
L 196.4125 -275.62625 
L 196.4125 -275.62625 
L 196.4125 -275.62625 
L 196.4125 -275.62625 
L 196.4125 -275.62625 
L 196.4125 -275.62625 
L 196.4125 -275.62625 
L 196.4125 -275.62625 
L 196.4125 -275.62625 
L 196.4125 -275.62625 
L 196.4125 -275.62625 
L 196.4125 -275.62625 
L 196.4125 -275.62625 
L 196.4125 -275.62625 
L 196.4125 -275.62625 
L 196.4125 -275.62625 
L 196.4125 -275.62625 
L 196.4125 -275.62625 
L 196.4125 -275.62625 
L 196.4125 -275.62625 
L 196.4125 -275.62625 
L 196.4125 -275.62625 
L 196.4125 -275.62625 
L 196.4125 -275.62625 
L 196.4125 -275.62625 
L 196.4125 -275.62625 
L 196.4125 -275.62625 
L 196.4125 -275.62625 
L 196.4125 -275.62625 
L 196.4125 -275.62625 
L 196.4125 -275.62625 
L 196.4125 -275.62625 
L 196.4125 -275.62625 
L 196.4125 -275.62625 
L 196.4125 -275.62625 
L 196.4125 -275.62625 
L 196.4125 -275.62625 
L 196.4125 -275.62625 
L 196.4125 -275.62625 
L 196.4125 -275.62625 
L 196.4125 -275.62625 
L 196.4125 -275.62625 
L 196.4125 -275.62625 
L 196.4125 -275.62625 
L 196.4125 -275.62625 
L 196.4125 -275.62625 
L 196.4125 -275.62625 
L 196.4125 -275.62625 
L 196.4125 -275.62625 
L 196.4125 -275.62625 
L 196.4125 -275.62625 
L 196.4125 -275.62625 
L 196.4125 -275.62625 
L 196.4125 -275.62625 
L 196.4125 -275.62625 
L 196.4125 -275.62625 
L 196.4125 -275.62625 
L 196.4125 -275.62625 
L 196.4125 -275.62625 
L 196.4125 -275.62625 
L 196.4125 -275.62625 
L 196.4125 -275.62625 
L 196.4125 -275.62625 
L 196.4125 -275.62625 
L 196.4125 -275.62625 
L 196.4125 -275.62625 
L 196.4125 -275.62625 
L 196.4125 -275.62625 
L 196.4125 -275.62625 
L 196.4125 -275.62625 
L 196.4125 -275.62625 
L 196.4125 -275.62625 
L 196.4125 -275.62625 
L 196.4125 -275.62625 
L 196.4125 -275.62625 
L 196.4125 -275.62625 
L 196.4125 -275.62625 
L 196.4125 -275.62625 
L 196.4125 -275.62625 
L 196.4125 -275.62625 
L 196.4125 -275.62625 
L 196.4125 -275.62625 
L 196.4125 -275.62625 
L 196.4125 -275.62625 
L 196.4125 -275.62625 
L 196.4125 -275.62625 
L 196.4125 -275.62625 
L 196.4125 -275.62625 
L 196.4125 -275.62625 
L 196.4125 -275.62625 
L 196.4125 -275.62625 
L 196.4125 -275.62625 
L 226.848864 -275.62625 
L 226.848864 -275.62625 
L 226.848864 -275.62625 
L 226.848864 -275.62625 
L 226.848864 -275.62625 
L 226.848864 -275.62625 
L 226.848864 -275.62625 
L 226.848864 -275.62625 
L 226.848864 -275.62625 
L 226.848864 -275.62625 
L 226.848864 -275.62625 
L 226.848864 -275.62625 
L 226.848864 -275.62625 
L 226.848864 -275.62625 
L 226.848864 -275.62625 
L 226.848864 -275.62625 
L 226.848864 -275.62625 
L 226.848864 -275.62625 
L 226.848864 -275.62625 
L 226.848864 -275.62625 
L 226.848864 -275.62625 
L 226.848864 -275.62625 
L 226.848864 -275.62625 
L 226.848864 -275.62625 
L 226.848864 -275.62625 
L 226.848864 -275.62625 
L 226.848864 -275.62625 
L 226.848864 -275.62625 
L 226.848864 -275.62625 
L 226.848864 -275.62625 
L 226.848864 -275.62625 
L 226.848864 -275.62625 
L 226.848864 -275.62625 
L 226.848864 -275.62625 
L 226.848864 -275.62625 
L 226.848864 -275.62625 
L 226.848864 -275.62625 
L 226.848864 -275.62625 
L 226.848864 -275.62625 
L 226.848864 -275.62625 
L 226.848864 -275.62625 
L 226.848864 -275.62625 
L 226.848864 -275.62625 
L 226.848864 -275.62625 
L 226.848864 -275.62625 
L 226.848864 -275.62625 
L 226.848864 -275.62625 
L 226.848864 -275.62625 
L 226.848864 -275.62625 
L 226.848864 -275.62625 
L 226.848864 -275.62625 
L 226.848864 -275.62625 
L 226.848864 -275.62625 
L 226.848864 -275.62625 
L 226.848864 -275.62625 
L 226.848864 -275.62625 
L 226.848864 -275.62625 
L 226.848864 -275.62625 
L 226.848864 -275.62625 
L 226.848864 -275.62625 
L 226.848864 -275.62625 
L 226.848864 -275.62625 
L 226.848864 -275.62625 
L 226.848864 -275.62625 
L 226.848864 -275.62625 
L 226.848864 -275.62625 
L 226.848864 -275.62625 
L 226.848864 -275.62625 
L 226.848864 -275.62625 
L 226.848864 -275.62625 
L 226.848864 -275.62625 
L 226.848864 -275.62625 
L 226.848864 -275.62625 
L 226.848864 -275.62625 
L 226.848864 -275.62625 
L 226.848864 -275.62625 
L 226.848864 -275.62625 
L 226.848864 -275.62625 
L 226.848864 -275.62625 
L 226.848864 -275.62625 
L 226.848864 -275.62625 
L 226.848864 -275.62625 
L 226.848864 -275.62625 
L 226.848864 -275.62625 
L 226.848864 -275.62625 
L 226.848864 -275.62625 
L 226.848864 -275.62625 
L 226.848864 -275.62625 
L 226.848864 -275.62625 
L 226.848864 -275.62625 
L 226.848864 -275.62625 
L 226.848864 -275.62625 
L 226.848864 -275.62625 
L 226.848864 -275.62625 
L 226.848864 -275.62625 
L 226.848864 -275.62625 
L 226.848864 -275.62625 
L 226.848864 -275.62625 
L 226.848864 -275.62625 
L 226.848864 -275.62625 
L 226.848864 -275.62625 
z
" id="m0317a8c0ed" style="stroke:#000000;stroke-opacity:0.3;"/>
    </defs>
    <g clip-path="url(#p9323024d21)">
     <use style="fill:#bfbf00;fill-opacity:0.3;stroke:#000000;stroke-opacity:0.3;" x="0.0" xlink:href="#m0317a8c0ed" y="471.568"/>
    </g>
   </g>
   <g id="PolyCollection_4">
    <defs>
     <path d="M 287.721591 -275.62625 
L 257.285227 -275.62625 
L 257.285227 -275.62625 
L 257.285227 -275.62625 
L 257.285227 -275.62625 
L 257.285227 -275.62625 
L 257.285227 -275.62625 
L 257.285227 -275.62625 
L 257.285227 -275.62625 
L 257.285227 -275.62625 
L 257.285227 -275.62625 
L 257.285227 -275.62625 
L 257.285227 -275.62625 
L 257.285227 -275.62625 
L 257.285227 -275.62625 
L 257.285227 -275.62625 
L 257.285227 -275.62625 
L 257.285227 -275.62625 
L 257.285227 -275.62625 
L 257.285227 -275.62625 
L 257.285227 -275.62625 
L 257.285227 -275.62625 
L 257.285227 -275.62625 
L 257.285227 -275.62625 
L 257.285227 -275.62625 
L 257.285227 -275.62625 
L 257.285227 -275.62625 
L 257.285227 -275.62625 
L 257.285227 -275.62625 
L 257.285227 -275.62625 
L 257.285227 -275.62625 
L 257.285227 -275.62625 
L 257.285227 -275.62625 
L 257.285227 -275.62625 
L 257.285227 -275.62625 
L 257.285227 -275.62625 
L 257.285227 -275.62625 
L 257.285227 -275.62625 
L 257.285227 -275.62625 
L 257.285227 -275.62625 
L 257.285227 -275.62625 
L 257.285227 -275.62625 
L 257.285227 -275.62625 
L 257.285227 -275.62625 
L 257.285227 -275.62625 
L 257.285227 -275.62625 
L 257.285227 -275.62625 
L 257.285227 -275.62625 
L 257.285227 -275.62625 
L 257.285227 -275.62625 
L 257.285227 -275.62625 
L 257.285227 -275.62625 
L 257.285227 -275.62625 
L 257.285227 -275.62625 
L 257.285227 -275.62625 
L 257.285227 -275.62625 
L 257.285227 -275.62625 
L 257.285227 -275.62625 
L 257.285227 -275.62625 
L 257.285227 -275.62625 
L 257.285227 -275.62625 
L 257.285227 -275.62625 
L 257.285227 -275.62625 
L 257.285227 -275.62625 
L 257.285227 -275.62625 
L 257.285227 -275.62625 
L 257.285227 -275.62625 
L 257.285227 -275.62625 
L 257.285227 -275.62625 
L 257.285227 -275.62625 
L 257.285227 -275.62625 
L 257.285227 -275.62625 
L 257.285227 -275.62625 
L 257.285227 -275.62625 
L 257.285227 -275.62625 
L 257.285227 -275.62625 
L 257.285227 -275.62625 
L 257.285227 -275.62625 
L 257.285227 -275.62625 
L 257.285227 -275.62625 
L 257.285227 -275.62625 
L 257.285227 -275.62625 
L 257.285227 -275.62625 
L 257.285227 -275.62625 
L 257.285227 -275.62625 
L 257.285227 -275.62625 
L 257.285227 -275.62625 
L 257.285227 -275.62625 
L 257.285227 -275.62625 
L 257.285227 -275.62625 
L 257.285227 -275.62625 
L 257.285227 -275.62625 
L 257.285227 -275.62625 
L 257.285227 -275.62625 
L 257.285227 -275.62625 
L 257.285227 -275.62625 
L 257.285227 -275.62625 
L 257.285227 -275.62625 
L 257.285227 -275.62625 
L 257.285227 -275.62625 
L 257.285227 -275.62625 
L 287.721591 -275.62625 
L 287.721591 -275.62625 
L 287.721591 -275.62625 
L 287.721591 -275.62625 
L 287.721591 -275.62625 
L 287.721591 -275.62625 
L 287.721591 -275.62625 
L 287.721591 -275.62625 
L 287.721591 -275.62625 
L 287.721591 -275.62625 
L 287.721591 -275.62625 
L 287.721591 -275.62625 
L 287.721591 -275.62625 
L 287.721591 -275.62625 
L 287.721591 -275.62625 
L 287.721591 -275.62625 
L 287.721591 -275.62625 
L 287.721591 -275.62625 
L 287.721591 -275.62625 
L 287.721591 -275.62625 
L 287.721591 -275.62625 
L 287.721591 -275.62625 
L 287.721591 -275.62625 
L 287.721591 -275.62625 
L 287.721591 -275.62625 
L 287.721591 -275.62625 
L 287.721591 -275.62625 
L 287.721591 -275.62625 
L 287.721591 -275.62625 
L 287.721591 -275.62625 
L 287.721591 -275.62625 
L 287.721591 -275.62625 
L 287.721591 -275.62625 
L 287.721591 -275.62625 
L 287.721591 -275.62625 
L 287.721591 -275.62625 
L 287.721591 -275.62625 
L 287.721591 -275.62625 
L 287.721591 -275.62625 
L 287.721591 -275.62625 
L 287.721591 -275.62625 
L 287.721591 -275.62625 
L 287.721591 -275.62625 
L 287.721591 -275.62625 
L 287.721591 -275.62625 
L 287.721591 -275.62625 
L 287.721591 -275.62625 
L 287.721591 -275.62625 
L 287.721591 -275.62625 
L 287.721591 -275.62625 
L 287.721591 -275.62625 
L 287.721591 -275.62625 
L 287.721591 -275.62625 
L 287.721591 -275.62625 
L 287.721591 -275.62625 
L 287.721591 -275.62625 
L 287.721591 -275.62625 
L 287.721591 -275.62625 
L 287.721591 -275.62625 
L 287.721591 -275.62625 
L 287.721591 -275.62625 
L 287.721591 -275.62625 
L 287.721591 -275.62625 
L 287.721591 -275.62625 
L 287.721591 -275.62625 
L 287.721591 -275.62625 
L 287.721591 -275.62625 
L 287.721591 -275.62625 
L 287.721591 -275.62625 
L 287.721591 -275.62625 
L 287.721591 -275.62625 
L 287.721591 -275.62625 
L 287.721591 -275.62625 
L 287.721591 -275.62625 
L 287.721591 -275.62625 
L 287.721591 -275.62625 
L 287.721591 -275.62625 
L 287.721591 -275.62625 
L 287.721591 -275.62625 
L 287.721591 -275.62625 
L 287.721591 -275.62625 
L 287.721591 -275.62625 
L 287.721591 -275.62625 
L 287.721591 -275.62625 
L 287.721591 -275.62625 
L 287.721591 -275.62625 
L 287.721591 -275.62625 
L 287.721591 -275.62625 
L 287.721591 -275.62625 
L 287.721591 -275.62625 
L 287.721591 -275.62625 
L 287.721591 -275.62625 
L 287.721591 -275.62625 
L 287.721591 -275.62625 
L 287.721591 -275.62625 
L 287.721591 -275.62625 
L 287.721591 -275.62625 
L 287.721591 -275.62625 
L 287.721591 -275.62625 
L 287.721591 -275.62625 
L 287.721591 -275.62625 
z
" id="m1b9c0b3e24" style="stroke:#000000;stroke-opacity:0.3;"/>
    </defs>
    <g clip-path="url(#p9323024d21)">
     <use style="fill:#bfbf00;fill-opacity:0.3;stroke:#000000;stroke-opacity:0.3;" x="0.0" xlink:href="#m1b9c0b3e24" y="471.568"/>
    </g>
   </g>
   <g id="PolyCollection_5">
    <defs>
     <path d="M 348.594318 -275.62625 
L 318.157955 -275.62625 
L 318.157955 -275.62625 
L 318.157955 -275.62625 
L 318.157955 -275.62625 
L 318.157955 -275.62625 
L 318.157955 -275.62625 
L 318.157955 -275.62625 
L 318.157955 -275.62625 
L 318.157955 -275.62625 
L 318.157955 -275.62625 
L 318.157955 -275.62625 
L 318.157955 -275.62625 
L 318.157955 -275.62625 
L 318.157955 -275.62625 
L 318.157955 -275.62625 
L 318.157955 -275.62625 
L 318.157955 -275.62625 
L 318.157955 -275.62625 
L 318.157955 -275.62625 
L 318.157955 -275.62625 
L 318.157955 -275.62625 
L 318.157955 -275.62625 
L 318.157955 -275.62625 
L 318.157955 -275.62625 
L 318.157955 -275.62625 
L 318.157955 -275.62625 
L 318.157955 -275.62625 
L 318.157955 -275.62625 
L 318.157955 -275.62625 
L 318.157955 -275.62625 
L 318.157955 -275.62625 
L 318.157955 -275.62625 
L 318.157955 -275.62625 
L 318.157955 -275.62625 
L 318.157955 -275.62625 
L 318.157955 -275.62625 
L 318.157955 -275.62625 
L 318.157955 -275.62625 
L 318.157955 -275.62625 
L 318.157955 -275.62625 
L 318.157955 -275.62625 
L 318.157955 -275.62625 
L 318.157955 -275.62625 
L 318.157955 -275.62625 
L 318.157955 -275.62625 
L 318.157955 -275.62625 
L 318.157955 -275.62625 
L 318.157955 -275.62625 
L 318.157955 -275.62625 
L 318.157955 -275.62625 
L 318.157955 -275.62625 
L 318.157955 -275.62625 
L 318.157955 -275.62625 
L 318.157955 -275.62625 
L 318.157955 -275.62625 
L 318.157955 -275.62625 
L 318.157955 -275.62625 
L 318.157955 -275.62625 
L 318.157955 -275.62625 
L 318.157955 -275.62625 
L 318.157955 -275.62625 
L 318.157955 -275.62625 
L 318.157955 -275.62625 
L 318.157955 -275.62625 
L 318.157955 -275.62625 
L 318.157955 -275.62625 
L 318.157955 -275.62625 
L 318.157955 -275.62625 
L 318.157955 -275.62625 
L 318.157955 -275.62625 
L 318.157955 -275.62625 
L 318.157955 -275.62625 
L 318.157955 -275.62625 
L 318.157955 -275.62625 
L 318.157955 -275.62625 
L 318.157955 -275.62625 
L 318.157955 -275.62625 
L 318.157955 -275.62625 
L 318.157955 -275.62625 
L 318.157955 -275.62625 
L 318.157955 -275.62625 
L 318.157955 -275.62625 
L 318.157955 -275.62625 
L 318.157955 -275.62625 
L 318.157955 -275.62625 
L 318.157955 -275.62625 
L 318.157955 -275.62625 
L 318.157955 -275.62625 
L 318.157955 -275.62625 
L 318.157955 -275.62625 
L 318.157955 -275.62625 
L 318.157955 -275.62625 
L 318.157955 -275.62625 
L 318.157955 -275.62625 
L 318.157955 -275.62625 
L 318.157955 -275.62625 
L 318.157955 -275.62625 
L 318.157955 -275.62625 
L 318.157955 -275.62625 
L 318.157955 -275.62625 
L 348.594318 -275.62625 
L 348.594318 -275.62625 
L 348.594318 -275.62625 
L 348.594318 -275.62625 
L 348.594318 -275.62625 
L 348.594318 -275.62625 
L 348.594318 -275.62625 
L 348.594318 -275.62625 
L 348.594318 -275.62625 
L 348.594318 -275.62625 
L 348.594318 -275.62625 
L 348.594318 -275.62625 
L 348.594318 -275.62625 
L 348.594318 -275.62625 
L 348.594318 -275.62625 
L 348.594318 -275.62625 
L 348.594318 -275.62625 
L 348.594318 -275.62625 
L 348.594318 -275.62625 
L 348.594318 -275.62625 
L 348.594318 -275.62625 
L 348.594318 -275.62625 
L 348.594318 -275.62625 
L 348.594318 -275.62625 
L 348.594318 -275.62625 
L 348.594318 -275.62625 
L 348.594318 -275.62625 
L 348.594318 -275.62625 
L 348.594318 -275.62625 
L 348.594318 -275.62625 
L 348.594318 -275.62625 
L 348.594318 -275.62625 
L 348.594318 -275.62625 
L 348.594318 -275.62625 
L 348.594318 -275.62625 
L 348.594318 -275.62625 
L 348.594318 -275.62625 
L 348.594318 -275.62625 
L 348.594318 -275.62625 
L 348.594318 -275.62625 
L 348.594318 -275.62625 
L 348.594318 -275.62625 
L 348.594318 -275.62625 
L 348.594318 -275.62625 
L 348.594318 -275.62625 
L 348.594318 -275.62625 
L 348.594318 -275.62625 
L 348.594318 -275.62625 
L 348.594318 -275.62625 
L 348.594318 -275.62625 
L 348.594318 -275.62625 
L 348.594318 -275.62625 
L 348.594318 -275.62625 
L 348.594318 -275.62625 
L 348.594318 -275.62625 
L 348.594318 -275.62625 
L 348.594318 -275.62625 
L 348.594318 -275.62625 
L 348.594318 -275.62625 
L 348.594318 -275.62625 
L 348.594318 -275.62625 
L 348.594318 -275.62625 
L 348.594318 -275.62625 
L 348.594318 -275.62625 
L 348.594318 -275.62625 
L 348.594318 -275.62625 
L 348.594318 -275.62625 
L 348.594318 -275.62625 
L 348.594318 -275.62625 
L 348.594318 -275.62625 
L 348.594318 -275.62625 
L 348.594318 -275.62625 
L 348.594318 -275.62625 
L 348.594318 -275.62625 
L 348.594318 -275.62625 
L 348.594318 -275.62625 
L 348.594318 -275.62625 
L 348.594318 -275.62625 
L 348.594318 -275.62625 
L 348.594318 -275.62625 
L 348.594318 -275.62625 
L 348.594318 -275.62625 
L 348.594318 -275.62625 
L 348.594318 -275.62625 
L 348.594318 -275.62625 
L 348.594318 -275.62625 
L 348.594318 -275.62625 
L 348.594318 -275.62625 
L 348.594318 -275.62625 
L 348.594318 -275.62625 
L 348.594318 -275.62625 
L 348.594318 -275.62625 
L 348.594318 -275.62625 
L 348.594318 -275.62625 
L 348.594318 -275.62625 
L 348.594318 -275.62625 
L 348.594318 -275.62625 
L 348.594318 -275.62625 
L 348.594318 -275.62625 
L 348.594318 -275.62625 
L 348.594318 -275.62625 
z
" id="m5a808d5765" style="stroke:#000000;stroke-opacity:0.3;"/>
    </defs>
    <g clip-path="url(#p9323024d21)">
     <use style="fill:#bfbf00;fill-opacity:0.3;stroke:#000000;stroke-opacity:0.3;" x="0.0" xlink:href="#m5a808d5765" y="471.568"/>
    </g>
   </g>
   <g id="PolyCollection_6">
    <defs>
     <path d="M 409.467045 -275.62625 
L 379.030682 -275.62625 
L 379.030682 -275.62625 
L 379.030682 -275.62625 
L 379.030682 -275.62625 
L 379.030682 -275.62625 
L 379.030682 -275.62625 
L 379.030682 -275.62625 
L 379.030682 -275.62625 
L 379.030682 -275.62625 
L 379.030682 -275.62625 
L 379.030682 -275.62625 
L 379.030682 -275.62625 
L 379.030682 -275.62625 
L 379.030682 -275.62625 
L 379.030682 -275.62625 
L 379.030682 -275.62625 
L 379.030682 -275.62625 
L 379.030682 -275.62625 
L 379.030682 -275.62625 
L 379.030682 -275.62625 
L 379.030682 -275.62625 
L 379.030682 -275.62625 
L 379.030682 -275.62625 
L 379.030682 -275.62625 
L 379.030682 -275.62625 
L 379.030682 -275.62625 
L 379.030682 -275.62625 
L 379.030682 -275.62625 
L 379.030682 -275.62625 
L 379.030682 -275.62625 
L 379.030682 -275.62625 
L 379.030682 -275.62625 
L 379.030682 -275.62625 
L 379.030682 -275.62625 
L 379.030682 -275.62625 
L 379.030682 -275.62625 
L 379.030682 -275.62625 
L 379.030682 -275.62625 
L 379.030682 -275.62625 
L 379.030682 -275.62625 
L 379.030682 -275.62625 
L 379.030682 -275.62625 
L 379.030682 -275.62625 
L 379.030682 -275.62625 
L 379.030682 -275.62625 
L 379.030682 -275.62625 
L 379.030682 -275.62625 
L 379.030682 -275.62625 
L 379.030682 -275.62625 
L 379.030682 -275.62625 
L 379.030682 -275.62625 
L 379.030682 -275.62625 
L 379.030682 -275.62625 
L 379.030682 -275.62625 
L 379.030682 -275.62625 
L 379.030682 -275.62625 
L 379.030682 -275.62625 
L 379.030682 -275.62625 
L 379.030682 -275.62625 
L 379.030682 -275.62625 
L 379.030682 -275.62625 
L 379.030682 -275.62625 
L 379.030682 -275.62625 
L 379.030682 -275.62625 
L 379.030682 -275.62625 
L 379.030682 -275.62625 
L 379.030682 -275.62625 
L 379.030682 -275.62625 
L 379.030682 -275.62625 
L 379.030682 -275.62625 
L 379.030682 -275.62625 
L 379.030682 -275.62625 
L 379.030682 -275.62625 
L 379.030682 -275.62625 
L 379.030682 -275.62625 
L 379.030682 -275.62625 
L 379.030682 -275.62625 
L 379.030682 -275.62625 
L 379.030682 -275.62625 
L 379.030682 -275.62625 
L 379.030682 -275.62625 
L 379.030682 -275.62625 
L 379.030682 -275.62625 
L 379.030682 -275.62625 
L 379.030682 -275.62625 
L 379.030682 -275.62625 
L 379.030682 -275.62625 
L 379.030682 -275.62625 
L 379.030682 -275.62625 
L 379.030682 -275.62625 
L 379.030682 -275.62625 
L 379.030682 -275.62625 
L 379.030682 -275.62625 
L 379.030682 -275.62625 
L 379.030682 -275.62625 
L 379.030682 -275.62625 
L 379.030682 -275.62625 
L 379.030682 -275.62625 
L 379.030682 -275.62625 
L 379.030682 -275.62625 
L 409.467045 -275.62625 
L 409.467045 -275.62625 
L 409.467045 -275.62625 
L 409.467045 -275.62625 
L 409.467045 -275.62625 
L 409.467045 -275.62625 
L 409.467045 -275.62625 
L 409.467045 -275.62625 
L 409.467045 -275.62625 
L 409.467045 -275.62625 
L 409.467045 -275.62625 
L 409.467045 -275.62625 
L 409.467045 -275.62625 
L 409.467045 -275.62625 
L 409.467045 -275.62625 
L 409.467045 -275.62625 
L 409.467045 -275.62625 
L 409.467045 -275.62625 
L 409.467045 -275.62625 
L 409.467045 -275.62625 
L 409.467045 -275.62625 
L 409.467045 -275.62625 
L 409.467045 -275.62625 
L 409.467045 -275.62625 
L 409.467045 -275.62625 
L 409.467045 -275.62625 
L 409.467045 -275.62625 
L 409.467045 -275.62625 
L 409.467045 -275.62625 
L 409.467045 -275.62625 
L 409.467045 -275.62625 
L 409.467045 -275.62625 
L 409.467045 -275.62625 
L 409.467045 -275.62625 
L 409.467045 -275.62625 
L 409.467045 -275.62625 
L 409.467045 -275.62625 
L 409.467045 -275.62625 
L 409.467045 -275.62625 
L 409.467045 -275.62625 
L 409.467045 -275.62625 
L 409.467045 -275.62625 
L 409.467045 -275.62625 
L 409.467045 -275.62625 
L 409.467045 -275.62625 
L 409.467045 -275.62625 
L 409.467045 -275.62625 
L 409.467045 -275.62625 
L 409.467045 -275.62625 
L 409.467045 -275.62625 
L 409.467045 -275.62625 
L 409.467045 -275.62625 
L 409.467045 -275.62625 
L 409.467045 -275.62625 
L 409.467045 -275.62625 
L 409.467045 -275.62625 
L 409.467045 -275.62625 
L 409.467045 -275.62625 
L 409.467045 -275.62625 
L 409.467045 -275.62625 
L 409.467045 -275.62625 
L 409.467045 -275.62625 
L 409.467045 -275.62625 
L 409.467045 -275.62625 
L 409.467045 -275.62625 
L 409.467045 -275.62625 
L 409.467045 -275.62625 
L 409.467045 -275.62625 
L 409.467045 -275.62625 
L 409.467045 -275.62625 
L 409.467045 -275.62625 
L 409.467045 -275.62625 
L 409.467045 -275.62625 
L 409.467045 -275.62625 
L 409.467045 -275.62625 
L 409.467045 -275.62625 
L 409.467045 -275.62625 
L 409.467045 -275.62625 
L 409.467045 -275.62625 
L 409.467045 -275.62625 
L 409.467045 -275.62625 
L 409.467045 -275.62625 
L 409.467045 -275.62625 
L 409.467045 -275.62625 
L 409.467045 -275.62625 
L 409.467045 -275.62625 
L 409.467045 -275.62625 
L 409.467045 -275.62625 
L 409.467045 -275.62625 
L 409.467045 -275.62625 
L 409.467045 -275.62625 
L 409.467045 -275.62625 
L 409.467045 -275.62625 
L 409.467045 -275.62625 
L 409.467045 -275.62625 
L 409.467045 -275.62625 
L 409.467045 -275.62625 
L 409.467045 -275.62625 
L 409.467045 -275.62625 
L 409.467045 -275.62625 
L 409.467045 -275.62625 
z
" id="m9ed99d3be4" style="stroke:#000000;stroke-opacity:0.3;"/>
    </defs>
    <g clip-path="url(#p9323024d21)">
     <use style="fill:#bfbf00;fill-opacity:0.3;stroke:#000000;stroke-opacity:0.3;" x="0.0" xlink:href="#m9ed99d3be4" y="471.568"/>
    </g>
   </g>
   <g id="PolyCollection_7">
    <defs>
     <path d="M 470.339773 -275.62625 
L 439.903409 -275.62625 
L 439.903409 -275.62625 
L 439.903409 -275.62625 
L 439.903409 -275.62625 
L 439.903409 -275.62625 
L 439.903409 -275.62625 
L 439.903409 -275.62625 
L 439.903409 -275.62625 
L 439.903409 -275.62625 
L 439.903409 -275.62625 
L 439.903409 -275.62625 
L 439.903409 -275.62625 
L 439.903409 -275.62625 
L 439.903409 -275.62625 
L 439.903409 -275.62625 
L 439.903409 -275.62625 
L 439.903409 -275.62625 
L 439.903409 -275.62625 
L 439.903409 -275.62625 
L 439.903409 -275.62625 
L 439.903409 -275.62625 
L 439.903409 -275.62625 
L 439.903409 -275.62625 
L 439.903409 -275.62625 
L 439.903409 -275.62625 
L 439.903409 -275.62625 
L 439.903409 -275.62625 
L 439.903409 -275.62625 
L 439.903409 -275.62625 
L 439.903409 -275.62625 
L 439.903409 -275.62625 
L 439.903409 -275.62625 
L 439.903409 -275.62625 
L 439.903409 -275.62625 
L 439.903409 -275.62625 
L 439.903409 -275.62625 
L 439.903409 -275.62625 
L 439.903409 -275.62625 
L 439.903409 -275.62625 
L 439.903409 -275.62625 
L 439.903409 -275.62625 
L 439.903409 -275.62625 
L 439.903409 -275.62625 
L 439.903409 -275.62625 
L 439.903409 -275.62625 
L 439.903409 -275.62625 
L 439.903409 -275.62625 
L 439.903409 -275.62625 
L 439.903409 -275.62625 
L 439.903409 -275.62625 
L 439.903409 -275.62625 
L 439.903409 -275.62625 
L 439.903409 -275.62625 
L 439.903409 -275.62625 
L 439.903409 -275.62625 
L 439.903409 -275.62625 
L 439.903409 -275.62625 
L 439.903409 -275.62625 
L 439.903409 -275.62625 
L 439.903409 -275.62625 
L 439.903409 -275.62625 
L 439.903409 -275.62625 
L 439.903409 -275.62625 
L 439.903409 -275.62625 
L 439.903409 -275.62625 
L 439.903409 -275.62625 
L 439.903409 -275.62625 
L 439.903409 -275.62625 
L 439.903409 -275.62625 
L 439.903409 -275.62625 
L 439.903409 -275.62625 
L 439.903409 -275.62625 
L 439.903409 -275.62625 
L 439.903409 -275.62625 
L 439.903409 -275.62625 
L 439.903409 -275.62625 
L 439.903409 -275.62625 
L 439.903409 -275.62625 
L 439.903409 -275.62625 
L 439.903409 -275.62625 
L 439.903409 -275.62625 
L 439.903409 -275.62625 
L 439.903409 -275.62625 
L 439.903409 -275.62625 
L 439.903409 -275.62625 
L 439.903409 -275.62625 
L 439.903409 -275.62625 
L 439.903409 -275.62625 
L 439.903409 -275.62625 
L 439.903409 -275.62625 
L 439.903409 -275.62625 
L 439.903409 -275.62625 
L 439.903409 -275.62625 
L 439.903409 -275.62625 
L 439.903409 -275.62625 
L 439.903409 -275.62625 
L 439.903409 -275.62625 
L 439.903409 -275.62625 
L 439.903409 -275.62625 
L 439.903409 -275.62625 
L 470.339773 -275.62625 
L 470.339773 -275.62625 
L 470.339773 -275.62625 
L 470.339773 -275.62625 
L 470.339773 -275.62625 
L 470.339773 -275.62625 
L 470.339773 -275.62625 
L 470.339773 -275.62625 
L 470.339773 -275.62625 
L 470.339773 -275.62625 
L 470.339773 -275.62625 
L 470.339773 -275.62625 
L 470.339773 -275.62625 
L 470.339773 -275.62625 
L 470.339773 -275.62625 
L 470.339773 -275.62625 
L 470.339773 -275.62625 
L 470.339773 -275.62625 
L 470.339773 -275.62625 
L 470.339773 -275.62625 
L 470.339773 -275.62625 
L 470.339773 -275.62625 
L 470.339773 -275.62625 
L 470.339773 -275.62625 
L 470.339773 -275.62625 
L 470.339773 -275.62625 
L 470.339773 -275.62625 
L 470.339773 -275.62625 
L 470.339773 -275.62625 
L 470.339773 -275.62625 
L 470.339773 -275.62625 
L 470.339773 -275.62625 
L 470.339773 -275.62625 
L 470.339773 -275.62625 
L 470.339773 -275.62625 
L 470.339773 -275.62625 
L 470.339773 -275.62625 
L 470.339773 -275.62625 
L 470.339773 -275.62625 
L 470.339773 -275.62625 
L 470.339773 -275.62625 
L 470.339773 -275.62625 
L 470.339773 -275.62625 
L 470.339773 -275.62625 
L 470.339773 -275.62625 
L 470.339773 -275.62625 
L 470.339773 -275.62625 
L 470.339773 -275.62625 
L 470.339773 -275.62625 
L 470.339773 -275.62625 
L 470.339773 -275.62625 
L 470.339773 -275.62625 
L 470.339773 -275.62625 
L 470.339773 -275.62625 
L 470.339773 -275.62625 
L 470.339773 -275.62625 
L 470.339773 -275.62625 
L 470.339773 -275.62625 
L 470.339773 -275.62625 
L 470.339773 -275.62625 
L 470.339773 -275.62625 
L 470.339773 -275.62625 
L 470.339773 -275.62625 
L 470.339773 -275.62625 
L 470.339773 -275.62625 
L 470.339773 -275.62625 
L 470.339773 -275.62625 
L 470.339773 -275.62625 
L 470.339773 -275.62625 
L 470.339773 -275.62625 
L 470.339773 -275.62625 
L 470.339773 -275.62625 
L 470.339773 -275.62625 
L 470.339773 -275.62625 
L 470.339773 -275.62625 
L 470.339773 -275.62625 
L 470.339773 -275.62625 
L 470.339773 -275.62625 
L 470.339773 -275.62625 
L 470.339773 -275.62625 
L 470.339773 -275.62625 
L 470.339773 -275.62625 
L 470.339773 -275.62625 
L 470.339773 -275.62625 
L 470.339773 -275.62625 
L 470.339773 -275.62625 
L 470.339773 -275.62625 
L 470.339773 -275.62625 
L 470.339773 -275.62625 
L 470.339773 -275.62625 
L 470.339773 -275.62625 
L 470.339773 -275.62625 
L 470.339773 -275.62625 
L 470.339773 -275.62625 
L 470.339773 -275.62625 
L 470.339773 -275.62625 
L 470.339773 -275.62625 
L 470.339773 -275.62625 
L 470.339773 -275.62625 
L 470.339773 -275.62625 
L 470.339773 -275.62625 
z
" id="mbcc2cc56ed" style="stroke:#000000;stroke-opacity:0.3;"/>
    </defs>
    <g clip-path="url(#p9323024d21)">
     <use style="fill:#bfbf00;fill-opacity:0.3;stroke:#000000;stroke-opacity:0.3;" x="0.0" xlink:href="#mbcc2cc56ed" y="471.568"/>
    </g>
   </g>
   <g id="PolyCollection_8">
    <defs>
     <path d="M 531.2125 -275.62625 
L 500.776136 -275.62625 
L 500.776136 -275.62625 
L 500.776136 -275.62625 
L 500.776136 -275.62625 
L 500.776136 -275.62625 
L 500.776136 -275.62625 
L 500.776136 -275.62625 
L 500.776136 -275.62625 
L 500.776136 -275.62625 
L 500.776136 -275.62625 
L 500.776136 -275.62625 
L 500.776136 -275.62625 
L 500.776136 -275.62625 
L 500.776136 -275.62625 
L 500.776136 -275.62625 
L 500.776136 -275.62625 
L 500.776136 -275.62625 
L 500.776136 -275.62625 
L 500.776136 -275.62625 
L 500.776136 -275.62625 
L 500.776136 -275.62625 
L 500.776136 -275.62625 
L 500.776136 -275.62625 
L 500.776136 -275.62625 
L 500.776136 -275.62625 
L 500.776136 -275.62625 
L 500.776136 -275.62625 
L 500.776136 -275.62625 
L 500.776136 -275.62625 
L 500.776136 -275.62625 
L 500.776136 -275.62625 
L 500.776136 -275.62625 
L 500.776136 -275.62625 
L 500.776136 -275.62625 
L 500.776136 -275.62625 
L 500.776136 -275.62625 
L 500.776136 -275.62625 
L 500.776136 -275.62625 
L 500.776136 -275.62625 
L 500.776136 -275.62625 
L 500.776136 -275.62625 
L 500.776136 -275.62625 
L 500.776136 -275.62625 
L 500.776136 -275.62625 
L 500.776136 -275.62625 
L 500.776136 -275.62625 
L 500.776136 -275.62625 
L 500.776136 -275.62625 
L 500.776136 -275.62625 
L 500.776136 -275.62625 
L 500.776136 -275.62625 
L 500.776136 -275.62625 
L 500.776136 -275.62625 
L 500.776136 -275.62625 
L 500.776136 -275.62625 
L 500.776136 -275.62625 
L 500.776136 -275.62625 
L 500.776136 -275.62625 
L 500.776136 -275.62625 
L 500.776136 -275.62625 
L 500.776136 -275.62625 
L 500.776136 -275.62625 
L 500.776136 -275.62625 
L 500.776136 -275.62625 
L 500.776136 -275.62625 
L 500.776136 -275.62625 
L 500.776136 -275.62625 
L 500.776136 -275.62625 
L 500.776136 -275.62625 
L 500.776136 -275.62625 
L 500.776136 -275.62625 
L 500.776136 -275.62625 
L 500.776136 -275.62625 
L 500.776136 -275.62625 
L 500.776136 -275.62625 
L 500.776136 -275.62625 
L 500.776136 -275.62625 
L 500.776136 -275.62625 
L 500.776136 -275.62625 
L 500.776136 -275.62625 
L 500.776136 -275.62625 
L 500.776136 -275.62625 
L 500.776136 -275.62625 
L 500.776136 -275.62625 
L 500.776136 -275.62625 
L 500.776136 -275.62625 
L 500.776136 -275.62625 
L 500.776136 -275.62625 
L 500.776136 -275.62625 
L 500.776136 -275.62625 
L 500.776136 -275.62625 
L 500.776136 -275.62625 
L 500.776136 -275.62625 
L 500.776136 -275.62625 
L 500.776136 -275.62625 
L 500.776136 -275.62625 
L 500.776136 -275.62625 
L 500.776136 -275.62625 
L 500.776136 -275.62625 
L 500.776136 -275.62625 
L 531.2125 -275.62625 
L 531.2125 -275.62625 
L 531.2125 -275.62625 
L 531.2125 -275.62625 
L 531.2125 -275.62625 
L 531.2125 -275.62625 
L 531.2125 -275.62625 
L 531.2125 -275.62625 
L 531.2125 -275.62625 
L 531.2125 -275.62625 
L 531.2125 -275.62625 
L 531.2125 -275.62625 
L 531.2125 -275.62625 
L 531.2125 -275.62625 
L 531.2125 -275.62625 
L 531.2125 -275.62625 
L 531.2125 -275.62625 
L 531.2125 -275.62625 
L 531.2125 -275.62625 
L 531.2125 -275.62625 
L 531.2125 -275.62625 
L 531.2125 -275.62625 
L 531.2125 -275.62625 
L 531.2125 -275.62625 
L 531.2125 -275.62625 
L 531.2125 -275.62625 
L 531.2125 -275.62625 
L 531.2125 -275.62625 
L 531.2125 -275.62625 
L 531.2125 -275.62625 
L 531.2125 -275.62625 
L 531.2125 -275.62625 
L 531.2125 -275.62625 
L 531.2125 -275.62625 
L 531.2125 -275.62625 
L 531.2125 -275.62625 
L 531.2125 -275.62625 
L 531.2125 -275.62625 
L 531.2125 -275.62625 
L 531.2125 -275.62625 
L 531.2125 -275.62625 
L 531.2125 -275.62625 
L 531.2125 -275.62625 
L 531.2125 -275.62625 
L 531.2125 -275.62625 
L 531.2125 -275.62625 
L 531.2125 -275.62625 
L 531.2125 -275.62625 
L 531.2125 -275.62625 
L 531.2125 -275.62625 
L 531.2125 -275.62625 
L 531.2125 -275.62625 
L 531.2125 -275.62625 
L 531.2125 -275.62625 
L 531.2125 -275.62625 
L 531.2125 -275.62625 
L 531.2125 -275.62625 
L 531.2125 -275.62625 
L 531.2125 -275.62625 
L 531.2125 -275.62625 
L 531.2125 -275.62625 
L 531.2125 -275.62625 
L 531.2125 -275.62625 
L 531.2125 -275.62625 
L 531.2125 -275.62625 
L 531.2125 -275.62625 
L 531.2125 -275.62625 
L 531.2125 -275.62625 
L 531.2125 -275.62625 
L 531.2125 -275.62625 
L 531.2125 -275.62625 
L 531.2125 -275.62625 
L 531.2125 -275.62625 
L 531.2125 -275.62625 
L 531.2125 -275.62625 
L 531.2125 -275.62625 
L 531.2125 -275.62625 
L 531.2125 -275.62625 
L 531.2125 -275.62625 
L 531.2125 -275.62625 
L 531.2125 -275.62625 
L 531.2125 -275.62625 
L 531.2125 -275.62625 
L 531.2125 -275.62625 
L 531.2125 -275.62625 
L 531.2125 -275.62625 
L 531.2125 -275.62625 
L 531.2125 -275.62625 
L 531.2125 -275.62625 
L 531.2125 -275.62625 
L 531.2125 -275.62625 
L 531.2125 -275.62625 
L 531.2125 -275.62625 
L 531.2125 -275.62625 
L 531.2125 -275.62625 
L 531.2125 -275.62625 
L 531.2125 -275.62625 
L 531.2125 -275.62625 
L 531.2125 -275.62625 
L 531.2125 -275.62625 
L 531.2125 -275.62625 
z
" id="m5bf46dd61b" style="stroke:#000000;stroke-opacity:0.3;"/>
    </defs>
    <g clip-path="url(#p9323024d21)">
     <use style="fill:#bfbf00;fill-opacity:0.3;stroke:#000000;stroke-opacity:0.3;" x="0.0" xlink:href="#m5bf46dd61b" y="471.568"/>
    </g>
   </g>
   <g id="PolyCollection_9">
    <defs>
     <path d="M 592.085227 -275.62625 
L 561.648864 -275.62625 
L 561.648864 -275.62625 
L 561.648864 -275.62625 
L 561.648864 -275.62625 
L 561.648864 -275.62625 
L 561.648864 -275.62625 
L 561.648864 -275.62625 
L 561.648864 -275.62625 
L 561.648864 -275.62625 
L 561.648864 -275.62625 
L 561.648864 -275.62625 
L 561.648864 -275.62625 
L 561.648864 -275.62625 
L 561.648864 -275.62625 
L 561.648864 -275.62625 
L 561.648864 -275.62625 
L 561.648864 -275.62625 
L 561.648864 -275.62625 
L 561.648864 -275.62625 
L 561.648864 -275.62625 
L 561.648864 -275.62625 
L 561.648864 -275.62625 
L 561.648864 -275.62625 
L 561.648864 -275.62625 
L 561.648864 -275.62625 
L 561.648864 -275.62625 
L 561.648864 -275.62625 
L 561.648864 -275.62625 
L 561.648864 -275.62625 
L 561.648864 -275.62625 
L 561.648864 -275.62625 
L 561.648864 -275.62625 
L 561.648864 -275.62625 
L 561.648864 -275.62625 
L 561.648864 -275.62625 
L 561.648864 -275.62625 
L 561.648864 -275.62625 
L 561.648864 -275.62625 
L 561.648864 -275.62625 
L 561.648864 -275.62625 
L 561.648864 -275.62625 
L 561.648864 -275.62625 
L 561.648864 -275.62625 
L 561.648864 -275.62625 
L 561.648864 -275.62625 
L 561.648864 -275.62625 
L 561.648864 -275.62625 
L 561.648864 -275.62625 
L 561.648864 -275.62625 
L 561.648864 -275.62625 
L 561.648864 -275.62625 
L 561.648864 -275.62625 
L 561.648864 -275.62625 
L 561.648864 -275.62625 
L 561.648864 -275.62625 
L 561.648864 -275.62625 
L 561.648864 -275.62625 
L 561.648864 -275.62625 
L 561.648864 -275.62625 
L 561.648864 -275.62625 
L 561.648864 -275.62625 
L 561.648864 -275.62625 
L 561.648864 -275.62625 
L 561.648864 -275.62625 
L 561.648864 -275.62625 
L 561.648864 -275.62625 
L 561.648864 -275.62625 
L 561.648864 -275.62625 
L 561.648864 -275.62625 
L 561.648864 -275.62625 
L 561.648864 -275.62625 
L 561.648864 -275.62625 
L 561.648864 -275.62625 
L 561.648864 -275.62625 
L 561.648864 -275.62625 
L 561.648864 -275.62625 
L 561.648864 -275.62625 
L 561.648864 -275.62625 
L 561.648864 -275.62625 
L 561.648864 -275.62625 
L 561.648864 -275.62625 
L 561.648864 -275.62625 
L 561.648864 -275.62625 
L 561.648864 -275.62625 
L 561.648864 -275.62625 
L 561.648864 -275.62625 
L 561.648864 -275.62625 
L 561.648864 -275.62625 
L 561.648864 -275.62625 
L 561.648864 -275.62625 
L 561.648864 -275.62625 
L 561.648864 -275.62625 
L 561.648864 -275.62625 
L 561.648864 -275.62625 
L 561.648864 -275.62625 
L 561.648864 -275.62625 
L 561.648864 -275.62625 
L 561.648864 -275.62625 
L 561.648864 -275.62625 
L 561.648864 -275.62625 
L 592.085227 -275.62625 
L 592.085227 -275.62625 
L 592.085227 -275.62625 
L 592.085227 -275.62625 
L 592.085227 -275.62625 
L 592.085227 -275.62625 
L 592.085227 -275.62625 
L 592.085227 -275.62625 
L 592.085227 -275.62625 
L 592.085227 -275.62625 
L 592.085227 -275.62625 
L 592.085227 -275.62625 
L 592.085227 -275.62625 
L 592.085227 -275.62625 
L 592.085227 -275.62625 
L 592.085227 -275.62625 
L 592.085227 -275.62625 
L 592.085227 -275.62625 
L 592.085227 -275.62625 
L 592.085227 -275.62625 
L 592.085227 -275.62625 
L 592.085227 -275.62625 
L 592.085227 -275.62625 
L 592.085227 -275.62625 
L 592.085227 -275.62625 
L 592.085227 -275.62625 
L 592.085227 -275.62625 
L 592.085227 -275.62625 
L 592.085227 -275.62625 
L 592.085227 -275.62625 
L 592.085227 -275.62625 
L 592.085227 -275.62625 
L 592.085227 -275.62625 
L 592.085227 -275.62625 
L 592.085227 -275.62625 
L 592.085227 -275.62625 
L 592.085227 -275.62625 
L 592.085227 -275.62625 
L 592.085227 -275.62625 
L 592.085227 -275.62625 
L 592.085227 -275.62625 
L 592.085227 -275.62625 
L 592.085227 -275.62625 
L 592.085227 -275.62625 
L 592.085227 -275.62625 
L 592.085227 -275.62625 
L 592.085227 -275.62625 
L 592.085227 -275.62625 
L 592.085227 -275.62625 
L 592.085227 -275.62625 
L 592.085227 -275.62625 
L 592.085227 -275.62625 
L 592.085227 -275.62625 
L 592.085227 -275.62625 
L 592.085227 -275.62625 
L 592.085227 -275.62625 
L 592.085227 -275.62625 
L 592.085227 -275.62625 
L 592.085227 -275.62625 
L 592.085227 -275.62625 
L 592.085227 -275.62625 
L 592.085227 -275.62625 
L 592.085227 -275.62625 
L 592.085227 -275.62625 
L 592.085227 -275.62625 
L 592.085227 -275.62625 
L 592.085227 -275.62625 
L 592.085227 -275.62625 
L 592.085227 -275.62625 
L 592.085227 -275.62625 
L 592.085227 -275.62625 
L 592.085227 -275.62625 
L 592.085227 -275.62625 
L 592.085227 -275.62625 
L 592.085227 -275.62625 
L 592.085227 -275.62625 
L 592.085227 -275.62625 
L 592.085227 -275.62625 
L 592.085227 -275.62625 
L 592.085227 -275.62625 
L 592.085227 -275.62625 
L 592.085227 -275.62625 
L 592.085227 -275.62625 
L 592.085227 -275.62625 
L 592.085227 -275.62625 
L 592.085227 -275.62625 
L 592.085227 -275.62625 
L 592.085227 -275.62625 
L 592.085227 -275.62625 
L 592.085227 -275.62625 
L 592.085227 -275.62625 
L 592.085227 -275.62625 
L 592.085227 -275.62625 
L 592.085227 -275.62625 
L 592.085227 -275.62625 
L 592.085227 -275.62625 
L 592.085227 -275.62625 
L 592.085227 -275.62625 
L 592.085227 -275.62625 
L 592.085227 -275.62625 
L 592.085227 -275.62625 
z
" id="m9e2f1b7e9c" style="stroke:#000000;stroke-opacity:0.3;"/>
    </defs>
    <g clip-path="url(#p9323024d21)">
     <use style="fill:#bfbf00;fill-opacity:0.3;stroke:#000000;stroke-opacity:0.3;" x="0.0" xlink:href="#m9e2f1b7e9c" y="471.568"/>
    </g>
   </g>
   <g id="PolyCollection_10">
    <defs>
     <path d="M 652.957955 -275.62625 
L 622.521591 -275.62625 
L 622.521591 -275.62625 
L 622.521591 -275.62625 
L 622.521591 -275.62625 
L 622.521591 -275.62625 
L 622.521591 -275.62625 
L 622.521591 -275.62625 
L 622.521591 -275.62625 
L 622.521591 -275.62625 
L 622.521591 -275.62625 
L 622.521591 -275.62625 
L 622.521591 -275.62625 
L 622.521591 -275.62625 
L 622.521591 -275.62625 
L 622.521591 -275.62625 
L 622.521591 -275.62625 
L 622.521591 -275.62625 
L 622.521591 -275.62625 
L 622.521591 -275.62625 
L 622.521591 -275.62625 
L 622.521591 -275.62625 
L 622.521591 -275.62625 
L 622.521591 -275.62625 
L 622.521591 -275.62625 
L 622.521591 -275.62625 
L 622.521591 -275.62625 
L 622.521591 -275.62625 
L 622.521591 -275.62625 
L 622.521591 -275.62625 
L 622.521591 -275.62625 
L 622.521591 -275.62625 
L 622.521591 -275.62625 
L 622.521591 -275.62625 
L 622.521591 -275.62625 
L 622.521591 -275.62625 
L 622.521591 -275.62625 
L 622.521591 -275.62625 
L 622.521591 -275.62625 
L 622.521591 -275.62625 
L 622.521591 -275.62625 
L 622.521591 -275.62625 
L 622.521591 -275.62625 
L 622.521591 -275.62625 
L 622.521591 -275.62625 
L 622.521591 -275.62625 
L 622.521591 -275.62625 
L 622.521591 -275.62625 
L 622.521591 -275.62625 
L 622.521591 -275.62625 
L 622.521591 -275.62625 
L 622.521591 -275.62625 
L 622.521591 -275.62625 
L 622.521591 -275.62625 
L 622.521591 -275.62625 
L 622.521591 -275.62625 
L 622.521591 -275.62625 
L 622.521591 -275.62625 
L 622.521591 -275.62625 
L 622.521591 -275.62625 
L 622.521591 -275.62625 
L 622.521591 -275.62625 
L 622.521591 -275.62625 
L 622.521591 -275.62625 
L 622.521591 -275.62625 
L 622.521591 -275.62625 
L 622.521591 -275.62625 
L 622.521591 -275.62625 
L 622.521591 -275.62625 
L 622.521591 -275.62625 
L 622.521591 -275.62625 
L 622.521591 -275.62625 
L 622.521591 -275.62625 
L 622.521591 -275.62625 
L 622.521591 -275.62625 
L 622.521591 -275.62625 
L 622.521591 -275.62625 
L 622.521591 -275.62625 
L 622.521591 -275.62625 
L 622.521591 -275.62625 
L 622.521591 -275.62625 
L 622.521591 -275.62625 
L 622.521591 -275.62625 
L 622.521591 -275.62625 
L 622.521591 -275.62625 
L 622.521591 -275.62625 
L 622.521591 -275.62625 
L 622.521591 -275.62625 
L 622.521591 -275.62625 
L 622.521591 -275.62625 
L 622.521591 -275.62625 
L 622.521591 -275.62625 
L 622.521591 -275.62625 
L 622.521591 -275.62625 
L 622.521591 -275.62625 
L 622.521591 -275.62625 
L 622.521591 -275.62625 
L 622.521591 -275.62625 
L 622.521591 -275.62625 
L 622.521591 -275.62625 
L 622.521591 -275.62625 
L 652.957955 -275.62625 
L 652.957955 -275.62625 
L 652.957955 -275.62625 
L 652.957955 -275.62625 
L 652.957955 -275.62625 
L 652.957955 -275.62625 
L 652.957955 -275.62625 
L 652.957955 -275.62625 
L 652.957955 -275.62625 
L 652.957955 -275.62625 
L 652.957955 -275.62625 
L 652.957955 -275.62625 
L 652.957955 -275.62625 
L 652.957955 -275.62625 
L 652.957955 -275.62625 
L 652.957955 -275.62625 
L 652.957955 -275.62625 
L 652.957955 -275.62625 
L 652.957955 -275.62625 
L 652.957955 -275.62625 
L 652.957955 -275.62625 
L 652.957955 -275.62625 
L 652.957955 -275.62625 
L 652.957955 -275.62625 
L 652.957955 -275.62625 
L 652.957955 -275.62625 
L 652.957955 -275.62625 
L 652.957955 -275.62625 
L 652.957955 -275.62625 
L 652.957955 -275.62625 
L 652.957955 -275.62625 
L 652.957955 -275.62625 
L 652.957955 -275.62625 
L 652.957955 -275.62625 
L 652.957955 -275.62625 
L 652.957955 -275.62625 
L 652.957955 -275.62625 
L 652.957955 -275.62625 
L 652.957955 -275.62625 
L 652.957955 -275.62625 
L 652.957955 -275.62625 
L 652.957955 -275.62625 
L 652.957955 -275.62625 
L 652.957955 -275.62625 
L 652.957955 -275.62625 
L 652.957955 -275.62625 
L 652.957955 -275.62625 
L 652.957955 -275.62625 
L 652.957955 -275.62625 
L 652.957955 -275.62625 
L 652.957955 -275.62625 
L 652.957955 -275.62625 
L 652.957955 -275.62625 
L 652.957955 -275.62625 
L 652.957955 -275.62625 
L 652.957955 -275.62625 
L 652.957955 -275.62625 
L 652.957955 -275.62625 
L 652.957955 -275.62625 
L 652.957955 -275.62625 
L 652.957955 -275.62625 
L 652.957955 -275.62625 
L 652.957955 -275.62625 
L 652.957955 -275.62625 
L 652.957955 -275.62625 
L 652.957955 -275.62625 
L 652.957955 -275.62625 
L 652.957955 -275.62625 
L 652.957955 -275.62625 
L 652.957955 -275.62625 
L 652.957955 -275.62625 
L 652.957955 -275.62625 
L 652.957955 -275.62625 
L 652.957955 -275.62625 
L 652.957955 -275.62625 
L 652.957955 -275.62625 
L 652.957955 -275.62625 
L 652.957955 -275.62625 
L 652.957955 -275.62625 
L 652.957955 -275.62625 
L 652.957955 -275.62625 
L 652.957955 -275.62625 
L 652.957955 -275.62625 
L 652.957955 -275.62625 
L 652.957955 -275.62625 
L 652.957955 -275.62625 
L 652.957955 -275.62625 
L 652.957955 -275.62625 
L 652.957955 -275.62625 
L 652.957955 -275.62625 
L 652.957955 -275.62625 
L 652.957955 -275.62625 
L 652.957955 -275.62625 
L 652.957955 -275.62625 
L 652.957955 -275.62625 
L 652.957955 -275.62625 
L 652.957955 -275.62625 
L 652.957955 -275.62625 
L 652.957955 -275.62625 
L 652.957955 -275.62625 
L 652.957955 -275.62625 
z
" id="m8c9a24d3bf" style="stroke:#000000;stroke-opacity:0.3;"/>
    </defs>
    <g clip-path="url(#p9323024d21)">
     <use style="fill:#bfbf00;fill-opacity:0.3;stroke:#000000;stroke-opacity:0.3;" x="0.0" xlink:href="#m8c9a24d3bf" y="471.568"/>
    </g>
   </g>
   <g id="LineCollection_1">
    <path clip-path="url(#p9323024d21)" d="M 82.276136 195.94175 
L 97.494318 195.94175 
" style="fill:none;stroke:#ff0000;"/>
    <path clip-path="url(#p9323024d21)" d="M 143.148864 195.94175 
L 158.367045 195.94175 
" style="fill:none;stroke:#ff0000;"/>
    <path clip-path="url(#p9323024d21)" d="M 204.021591 195.94175 
L 219.239773 195.94175 
" style="fill:none;stroke:#ff0000;"/>
    <path clip-path="url(#p9323024d21)" d="M 264.894318 195.94175 
L 280.1125 195.94175 
" style="fill:none;stroke:#ff0000;"/>
    <path clip-path="url(#p9323024d21)" d="M 325.767045 195.94175 
L 340.985227 195.94175 
" style="fill:none;stroke:#ff0000;"/>
    <path clip-path="url(#p9323024d21)" d="M 386.639773 195.94175 
L 401.857955 195.94175 
" style="fill:none;stroke:#ff0000;"/>
    <path clip-path="url(#p9323024d21)" d="M 447.5125 195.94175 
L 462.730682 195.94175 
" style="fill:none;stroke:#ff0000;"/>
    <path clip-path="url(#p9323024d21)" d="M 508.385227 195.94175 
L 523.603409 195.94175 
" style="fill:none;stroke:#ff0000;"/>
    <path clip-path="url(#p9323024d21)" d="M 569.257955 195.94175 
L 584.476136 195.94175 
" style="fill:none;stroke:#ff0000;"/>
    <path clip-path="url(#p9323024d21)" d="M 630.130682 195.94175 
L 645.348864 195.94175 
" style="fill:none;stroke:#ff0000;"/>
   </g>
   <g id="patch_3">
    <path d="M 698.6125 368.74175 
L 698.6125 23.14175 
" style="fill:none;stroke:#000000;stroke-linecap:square;stroke-linejoin:miter;"/>
   </g>
   <g id="patch_4">
    <path d="M 29.0125 23.14175 
L 698.6125 23.14175 
" style="fill:none;stroke:#000000;stroke-linecap:square;stroke-linejoin:miter;"/>
   </g>
   <g id="patch_5">
    <path d="M 29.0125 368.74175 
L 698.6125 368.74175 
" style="fill:none;stroke:#000000;stroke-linecap:square;stroke-linejoin:miter;"/>
   </g>
   <g id="patch_6">
    <path d="M 29.0125 368.74175 
L 29.0125 23.14175 
" style="fill:none;stroke:#000000;stroke-linecap:square;stroke-linejoin:miter;"/>
   </g>
   <g id="matplotlib.axis_1">
    <g id="xtick_1">
     <g id="line2d_1">
      <defs>
       <path d="M 0 0 
L 0 -4 
" id="me5e685bc0f" style="stroke:#000000;stroke-width:0.5;"/>
      </defs>
      <g>
       <use style="stroke:#000000;stroke-width:0.5;" x="89.8852272727" xlink:href="#me5e685bc0f" y="368.74175"/>
      </g>
     </g>
     <g id="line2d_2">
      <defs>
       <path d="M 0 0 
L 0 4 
" id="mf9f22e644f" style="stroke:#000000;stroke-width:0.5;"/>
      </defs>
      <g>
       <use style="stroke:#000000;stroke-width:0.5;" x="89.8852272727" xlink:href="#mf9f22e644f" y="23.14175"/>
      </g>
     </g>
     <g id="text_1">
      <!-- Mind Bender -->
      <defs>
       <path d="M 19.671875 34.8125 
L 19.671875 8.109375 
L 35.5 8.109375 
Q 43.453125 8.109375 47.28125 11.40625 
Q 51.125 14.703125 51.125 21.484375 
Q 51.125 28.328125 47.28125 31.5625 
Q 43.453125 34.8125 35.5 34.8125 
z
M 19.671875 64.796875 
L 19.671875 42.828125 
L 34.28125 42.828125 
Q 41.5 42.828125 45.03125 45.53125 
Q 48.578125 48.25 48.578125 53.8125 
Q 48.578125 59.328125 45.03125 62.0625 
Q 41.5 64.796875 34.28125 64.796875 
z
M 9.8125 72.90625 
L 35.015625 72.90625 
Q 46.296875 72.90625 52.390625 68.21875 
Q 58.5 63.53125 58.5 54.890625 
Q 58.5 48.1875 55.375 44.234375 
Q 52.25 40.28125 46.1875 39.3125 
Q 53.46875 37.75 57.5 32.78125 
Q 61.53125 27.828125 61.53125 20.40625 
Q 61.53125 10.640625 54.890625 5.3125 
Q 48.25 0 35.984375 0 
L 9.8125 0 
z
" id="BitstreamVeraSans-Roman-42"/>
       <path id="BitstreamVeraSans-Roman-20"/>
       <path d="M 9.8125 72.90625 
L 24.515625 72.90625 
L 43.109375 23.296875 
L 61.8125 72.90625 
L 76.515625 72.90625 
L 76.515625 0 
L 66.890625 0 
L 66.890625 64.015625 
L 48.09375 14.015625 
L 38.1875 14.015625 
L 19.390625 64.015625 
L 19.390625 0 
L 9.8125 0 
z
" id="BitstreamVeraSans-Roman-4d"/>
       <path d="M 45.40625 46.390625 
L 45.40625 75.984375 
L 54.390625 75.984375 
L 54.390625 0 
L 45.40625 0 
L 45.40625 8.203125 
Q 42.578125 3.328125 38.25 0.953125 
Q 33.9375 -1.421875 27.875 -1.421875 
Q 17.96875 -1.421875 11.734375 6.484375 
Q 5.515625 14.40625 5.515625 27.296875 
Q 5.515625 40.1875 11.734375 48.09375 
Q 17.96875 56 27.875 56 
Q 33.9375 56 38.25 53.625 
Q 42.578125 51.265625 45.40625 46.390625 
M 14.796875 27.296875 
Q 14.796875 17.390625 18.875 11.75 
Q 22.953125 6.109375 30.078125 6.109375 
Q 37.203125 6.109375 41.296875 11.75 
Q 45.40625 17.390625 45.40625 27.296875 
Q 45.40625 37.203125 41.296875 42.84375 
Q 37.203125 48.484375 30.078125 48.484375 
Q 22.953125 48.484375 18.875 42.84375 
Q 14.796875 37.203125 14.796875 27.296875 
" id="BitstreamVeraSans-Roman-64"/>
       <path d="M 9.421875 54.6875 
L 18.40625 54.6875 
L 18.40625 0 
L 9.421875 0 
z
M 9.421875 75.984375 
L 18.40625 75.984375 
L 18.40625 64.59375 
L 9.421875 64.59375 
z
" id="BitstreamVeraSans-Roman-69"/>
       <path d="M 41.109375 46.296875 
Q 39.59375 47.171875 37.8125 47.578125 
Q 36.03125 48 33.890625 48 
Q 26.265625 48 22.1875 43.046875 
Q 18.109375 38.09375 18.109375 28.8125 
L 18.109375 0 
L 9.078125 0 
L 9.078125 54.6875 
L 18.109375 54.6875 
L 18.109375 46.1875 
Q 20.953125 51.171875 25.484375 53.578125 
Q 30.03125 56 36.53125 56 
Q 37.453125 56 38.578125 55.875 
Q 39.703125 55.765625 41.0625 55.515625 
z
" id="BitstreamVeraSans-Roman-72"/>
       <path d="M 56.203125 29.59375 
L 56.203125 25.203125 
L 14.890625 25.203125 
Q 15.484375 15.921875 20.484375 11.0625 
Q 25.484375 6.203125 34.421875 6.203125 
Q 39.59375 6.203125 44.453125 7.46875 
Q 49.3125 8.734375 54.109375 11.28125 
L 54.109375 2.78125 
Q 49.265625 0.734375 44.1875 -0.34375 
Q 39.109375 -1.421875 33.890625 -1.421875 
Q 20.796875 -1.421875 13.15625 6.1875 
Q 5.515625 13.8125 5.515625 26.8125 
Q 5.515625 40.234375 12.765625 48.109375 
Q 20.015625 56 32.328125 56 
Q 43.359375 56 49.78125 48.890625 
Q 56.203125 41.796875 56.203125 29.59375 
M 47.21875 32.234375 
Q 47.125 39.59375 43.09375 43.984375 
Q 39.0625 48.390625 32.421875 48.390625 
Q 24.90625 48.390625 20.390625 44.140625 
Q 15.875 39.890625 15.1875 32.171875 
z
" id="BitstreamVeraSans-Roman-65"/>
       <path d="M 54.890625 33.015625 
L 54.890625 0 
L 45.90625 0 
L 45.90625 32.71875 
Q 45.90625 40.484375 42.875 44.328125 
Q 39.84375 48.1875 33.796875 48.1875 
Q 26.515625 48.1875 22.3125 43.546875 
Q 18.109375 38.921875 18.109375 30.90625 
L 18.109375 0 
L 9.078125 0 
L 9.078125 54.6875 
L 18.109375 54.6875 
L 18.109375 46.1875 
Q 21.34375 51.125 25.703125 53.5625 
Q 30.078125 56 35.796875 56 
Q 45.21875 56 50.046875 50.171875 
Q 54.890625 44.34375 54.890625 33.015625 
" id="BitstreamVeraSans-Roman-6e"/>
      </defs>
      <g transform="translate(92.0927272727 423.32925)rotate(-90.0)scale(0.08 -0.08)">
       <use xlink:href="#BitstreamVeraSans-Roman-4d"/>
       <use x="86.279296875" xlink:href="#BitstreamVeraSans-Roman-69"/>
       <use x="114.0625" xlink:href="#BitstreamVeraSans-Roman-6e"/>
       <use x="177.44140625" xlink:href="#BitstreamVeraSans-Roman-64"/>
       <use x="240.91796875" xlink:href="#BitstreamVeraSans-Roman-20"/>
       <use x="272.705078125" xlink:href="#BitstreamVeraSans-Roman-42"/>
       <use x="341.30859375" xlink:href="#BitstreamVeraSans-Roman-65"/>
       <use x="402.83203125" xlink:href="#BitstreamVeraSans-Roman-6e"/>
       <use x="466.2109375" xlink:href="#BitstreamVeraSans-Roman-64"/>
       <use x="529.6875" xlink:href="#BitstreamVeraSans-Roman-65"/>
       <use x="591.2109375" xlink:href="#BitstreamVeraSans-Roman-72"/>
      </g>
     </g>
    </g>
    <g id="xtick_2">
     <g id="line2d_3">
      <g>
       <use style="stroke:#000000;stroke-width:0.5;" x="150.757954545" xlink:href="#me5e685bc0f" y="368.74175"/>
      </g>
     </g>
     <g id="line2d_4">
      <g>
       <use style="stroke:#000000;stroke-width:0.5;" x="150.757954545" xlink:href="#mf9f22e644f" y="23.14175"/>
      </g>
     </g>
     <g id="text_2">
      <!-- Mind Controller -->
      <defs>
       <path d="M 9.421875 75.984375 
L 18.40625 75.984375 
L 18.40625 0 
L 9.421875 0 
z
" id="BitstreamVeraSans-Roman-6c"/>
       <path d="M 30.609375 48.390625 
Q 23.390625 48.390625 19.1875 42.75 
Q 14.984375 37.109375 14.984375 27.296875 
Q 14.984375 17.484375 19.15625 11.84375 
Q 23.34375 6.203125 30.609375 6.203125 
Q 37.796875 6.203125 41.984375 11.859375 
Q 46.1875 17.53125 46.1875 27.296875 
Q 46.1875 37.015625 41.984375 42.703125 
Q 37.796875 48.390625 30.609375 48.390625 
M 30.609375 56 
Q 42.328125 56 49.015625 48.375 
Q 55.71875 40.765625 55.71875 27.296875 
Q 55.71875 13.875 49.015625 6.21875 
Q 42.328125 -1.421875 30.609375 -1.421875 
Q 18.84375 -1.421875 12.171875 6.21875 
Q 5.515625 13.875 5.515625 27.296875 
Q 5.515625 40.765625 12.171875 48.375 
Q 18.84375 56 30.609375 56 
" id="BitstreamVeraSans-Roman-6f"/>
       <path d="M 18.3125 70.21875 
L 18.3125 54.6875 
L 36.8125 54.6875 
L 36.8125 47.703125 
L 18.3125 47.703125 
L 18.3125 18.015625 
Q 18.3125 11.328125 20.140625 9.421875 
Q 21.96875 7.515625 27.59375 7.515625 
L 36.8125 7.515625 
L 36.8125 0 
L 27.59375 0 
Q 17.1875 0 13.234375 3.875 
Q 9.28125 7.765625 9.28125 18.015625 
L 9.28125 47.703125 
L 2.6875 47.703125 
L 2.6875 54.6875 
L 9.28125 54.6875 
L 9.28125 70.21875 
z
" id="BitstreamVeraSans-Roman-74"/>
       <path d="M 64.40625 67.28125 
L 64.40625 56.890625 
Q 59.421875 61.53125 53.78125 63.8125 
Q 48.140625 66.109375 41.796875 66.109375 
Q 29.296875 66.109375 22.65625 58.46875 
Q 16.015625 50.828125 16.015625 36.375 
Q 16.015625 21.96875 22.65625 14.328125 
Q 29.296875 6.6875 41.796875 6.6875 
Q 48.140625 6.6875 53.78125 8.984375 
Q 59.421875 11.28125 64.40625 15.921875 
L 64.40625 5.609375 
Q 59.234375 2.09375 53.4375 0.328125 
Q 47.65625 -1.421875 41.21875 -1.421875 
Q 24.65625 -1.421875 15.125 8.703125 
Q 5.609375 18.84375 5.609375 36.375 
Q 5.609375 53.953125 15.125 64.078125 
Q 24.65625 74.21875 41.21875 74.21875 
Q 47.75 74.21875 53.53125 72.484375 
Q 59.328125 70.75 64.40625 67.28125 
" id="BitstreamVeraSans-Roman-43"/>
      </defs>
      <g transform="translate(152.965454545 434.083)rotate(-90.0)scale(0.08 -0.08)">
       <use xlink:href="#BitstreamVeraSans-Roman-4d"/>
       <use x="86.279296875" xlink:href="#BitstreamVeraSans-Roman-69"/>
       <use x="114.0625" xlink:href="#BitstreamVeraSans-Roman-6e"/>
       <use x="177.44140625" xlink:href="#BitstreamVeraSans-Roman-64"/>
       <use x="240.91796875" xlink:href="#BitstreamVeraSans-Roman-20"/>
       <use x="272.705078125" xlink:href="#BitstreamVeraSans-Roman-43"/>
       <use x="342.529296875" xlink:href="#BitstreamVeraSans-Roman-6f"/>
       <use x="403.7109375" xlink:href="#BitstreamVeraSans-Roman-6e"/>
       <use x="467.08984375" xlink:href="#BitstreamVeraSans-Roman-74"/>
       <use x="506.298828125" xlink:href="#BitstreamVeraSans-Roman-72"/>
       <use x="547.380859375" xlink:href="#BitstreamVeraSans-Roman-6f"/>
       <use x="608.5625" xlink:href="#BitstreamVeraSans-Roman-6c"/>
       <use x="636.345703125" xlink:href="#BitstreamVeraSans-Roman-6c"/>
       <use x="664.12890625" xlink:href="#BitstreamVeraSans-Roman-65"/>
       <use x="725.65234375" xlink:href="#BitstreamVeraSans-Roman-72"/>
      </g>
     </g>
    </g>
    <g id="xtick_3">
     <g id="line2d_5">
      <g>
       <use style="stroke:#000000;stroke-width:0.5;" x="211.630681818" xlink:href="#me5e685bc0f" y="368.74175"/>
      </g>
     </g>
     <g id="line2d_6">
      <g>
       <use style="stroke:#000000;stroke-width:0.5;" x="211.630681818" xlink:href="#mf9f22e644f" y="23.14175"/>
      </g>
     </g>
     <g id="text_3">
      <!-- Darwin -->
      <defs>
       <path d="M 34.28125 27.484375 
Q 23.390625 27.484375 19.1875 25 
Q 14.984375 22.515625 14.984375 16.5 
Q 14.984375 11.71875 18.140625 8.90625 
Q 21.296875 6.109375 26.703125 6.109375 
Q 34.1875 6.109375 38.703125 11.40625 
Q 43.21875 16.703125 43.21875 25.484375 
L 43.21875 27.484375 
z
M 52.203125 31.203125 
L 52.203125 0 
L 43.21875 0 
L 43.21875 8.296875 
Q 40.140625 3.328125 35.546875 0.953125 
Q 30.953125 -1.421875 24.3125 -1.421875 
Q 15.921875 -1.421875 10.953125 3.296875 
Q 6 8.015625 6 15.921875 
Q 6 25.140625 12.171875 29.828125 
Q 18.359375 34.515625 30.609375 34.515625 
L 43.21875 34.515625 
L 43.21875 35.40625 
Q 43.21875 41.609375 39.140625 45 
Q 35.0625 48.390625 27.6875 48.390625 
Q 23 48.390625 18.546875 47.265625 
Q 14.109375 46.140625 10.015625 43.890625 
L 10.015625 52.203125 
Q 14.9375 54.109375 19.578125 55.046875 
Q 24.21875 56 28.609375 56 
Q 40.484375 56 46.34375 49.84375 
Q 52.203125 43.703125 52.203125 31.203125 
" id="BitstreamVeraSans-Roman-61"/>
       <path d="M 4.203125 54.6875 
L 13.1875 54.6875 
L 24.421875 12.015625 
L 35.59375 54.6875 
L 46.1875 54.6875 
L 57.421875 12.015625 
L 68.609375 54.6875 
L 77.59375 54.6875 
L 63.28125 0 
L 52.6875 0 
L 40.921875 44.828125 
L 29.109375 0 
L 18.5 0 
z
" id="BitstreamVeraSans-Roman-77"/>
       <path d="M 19.671875 64.796875 
L 19.671875 8.109375 
L 31.59375 8.109375 
Q 46.6875 8.109375 53.6875 14.9375 
Q 60.6875 21.78125 60.6875 36.53125 
Q 60.6875 51.171875 53.6875 57.984375 
Q 46.6875 64.796875 31.59375 64.796875 
z
M 9.8125 72.90625 
L 30.078125 72.90625 
Q 51.265625 72.90625 61.171875 64.09375 
Q 71.09375 55.28125 71.09375 36.53125 
Q 71.09375 17.671875 61.125 8.828125 
Q 51.171875 0 30.078125 0 
L 9.8125 0 
z
" id="BitstreamVeraSans-Roman-44"/>
      </defs>
      <g transform="translate(213.838181818 400.928)rotate(-90.0)scale(0.08 -0.08)">
       <use xlink:href="#BitstreamVeraSans-Roman-44"/>
       <use x="77.001953125" xlink:href="#BitstreamVeraSans-Roman-61"/>
       <use x="138.28125" xlink:href="#BitstreamVeraSans-Roman-72"/>
       <use x="179.39453125" xlink:href="#BitstreamVeraSans-Roman-77"/>
       <use x="261.181640625" xlink:href="#BitstreamVeraSans-Roman-69"/>
       <use x="288.96484375" xlink:href="#BitstreamVeraSans-Roman-6e"/>
      </g>
     </g>
    </g>
    <g id="xtick_4">
     <g id="line2d_7">
      <g>
       <use style="stroke:#000000;stroke-width:0.5;" x="272.503409091" xlink:href="#me5e685bc0f" y="368.74175"/>
      </g>
     </g>
     <g id="line2d_8">
      <g>
       <use style="stroke:#000000;stroke-width:0.5;" x="272.503409091" xlink:href="#mf9f22e644f" y="23.14175"/>
      </g>
     </g>
     <g id="text_4">
      <!-- Geller Defector -->
      <defs>
       <path d="M 48.78125 52.59375 
L 48.78125 44.1875 
Q 44.96875 46.296875 41.140625 47.34375 
Q 37.3125 48.390625 33.40625 48.390625 
Q 24.65625 48.390625 19.8125 42.84375 
Q 14.984375 37.3125 14.984375 27.296875 
Q 14.984375 17.28125 19.8125 11.734375 
Q 24.65625 6.203125 33.40625 6.203125 
Q 37.3125 6.203125 41.140625 7.25 
Q 44.96875 8.296875 48.78125 10.40625 
L 48.78125 2.09375 
Q 45.015625 0.34375 40.984375 -0.53125 
Q 36.96875 -1.421875 32.421875 -1.421875 
Q 20.0625 -1.421875 12.78125 6.34375 
Q 5.515625 14.109375 5.515625 27.296875 
Q 5.515625 40.671875 12.859375 48.328125 
Q 20.21875 56 33.015625 56 
Q 37.15625 56 41.109375 55.140625 
Q 45.0625 54.296875 48.78125 52.59375 
" id="BitstreamVeraSans-Roman-63"/>
       <path d="M 59.515625 10.40625 
L 59.515625 29.984375 
L 43.40625 29.984375 
L 43.40625 38.09375 
L 69.28125 38.09375 
L 69.28125 6.78125 
Q 63.578125 2.734375 56.6875 0.65625 
Q 49.8125 -1.421875 42 -1.421875 
Q 24.90625 -1.421875 15.25 8.5625 
Q 5.609375 18.5625 5.609375 36.375 
Q 5.609375 54.25 15.25 64.234375 
Q 24.90625 74.21875 42 74.21875 
Q 49.125 74.21875 55.546875 72.453125 
Q 61.96875 70.703125 67.390625 67.28125 
L 67.390625 56.78125 
Q 61.921875 61.421875 55.765625 63.765625 
Q 49.609375 66.109375 42.828125 66.109375 
Q 29.4375 66.109375 22.71875 58.640625 
Q 16.015625 51.171875 16.015625 36.375 
Q 16.015625 21.625 22.71875 14.15625 
Q 29.4375 6.6875 42.828125 6.6875 
Q 48.046875 6.6875 52.140625 7.59375 
Q 56.25 8.5 59.515625 10.40625 
" id="BitstreamVeraSans-Roman-47"/>
       <path d="M 37.109375 75.984375 
L 37.109375 68.5 
L 28.515625 68.5 
Q 23.6875 68.5 21.796875 66.546875 
Q 19.921875 64.59375 19.921875 59.515625 
L 19.921875 54.6875 
L 34.71875 54.6875 
L 34.71875 47.703125 
L 19.921875 47.703125 
L 19.921875 0 
L 10.890625 0 
L 10.890625 47.703125 
L 2.296875 47.703125 
L 2.296875 54.6875 
L 10.890625 54.6875 
L 10.890625 58.5 
Q 10.890625 67.625 15.140625 71.796875 
Q 19.390625 75.984375 28.609375 75.984375 
z
" id="BitstreamVeraSans-Roman-66"/>
      </defs>
      <g transform="translate(274.710909091 433.60175)rotate(-90.0)scale(0.08 -0.08)">
       <use xlink:href="#BitstreamVeraSans-Roman-47"/>
       <use x="77.490234375" xlink:href="#BitstreamVeraSans-Roman-65"/>
       <use x="139.013671875" xlink:href="#BitstreamVeraSans-Roman-6c"/>
       <use x="166.796875" xlink:href="#BitstreamVeraSans-Roman-6c"/>
       <use x="194.580078125" xlink:href="#BitstreamVeraSans-Roman-65"/>
       <use x="256.103515625" xlink:href="#BitstreamVeraSans-Roman-72"/>
       <use x="297.216796875" xlink:href="#BitstreamVeraSans-Roman-20"/>
       <use x="329.00390625" xlink:href="#BitstreamVeraSans-Roman-44"/>
       <use x="406.005859375" xlink:href="#BitstreamVeraSans-Roman-65"/>
       <use x="467.529296875" xlink:href="#BitstreamVeraSans-Roman-66"/>
       <use x="502.734375" xlink:href="#BitstreamVeraSans-Roman-65"/>
       <use x="564.2578125" xlink:href="#BitstreamVeraSans-Roman-63"/>
       <use x="619.23828125" xlink:href="#BitstreamVeraSans-Roman-74"/>
       <use x="658.447265625" xlink:href="#BitstreamVeraSans-Roman-6f"/>
       <use x="719.62890625" xlink:href="#BitstreamVeraSans-Roman-72"/>
      </g>
     </g>
    </g>
    <g id="xtick_5">
     <g id="line2d_9">
      <g>
       <use style="stroke:#000000;stroke-width:0.5;" x="333.376136364" xlink:href="#me5e685bc0f" y="368.74175"/>
      </g>
     </g>
     <g id="line2d_10">
      <g>
       <use style="stroke:#000000;stroke-width:0.5;" x="333.376136364" xlink:href="#mf9f22e644f" y="23.14175"/>
      </g>
     </g>
     <g id="text_5">
      <!-- Geller -->
      <g transform="translate(335.583636364 396.51925)rotate(-90.0)scale(0.08 -0.08)">
       <use xlink:href="#BitstreamVeraSans-Roman-47"/>
       <use x="77.490234375" xlink:href="#BitstreamVeraSans-Roman-65"/>
       <use x="139.013671875" xlink:href="#BitstreamVeraSans-Roman-6c"/>
       <use x="166.796875" xlink:href="#BitstreamVeraSans-Roman-6c"/>
       <use x="194.580078125" xlink:href="#BitstreamVeraSans-Roman-65"/>
       <use x="256.103515625" xlink:href="#BitstreamVeraSans-Roman-72"/>
      </g>
     </g>
    </g>
    <g id="xtick_6">
     <g id="line2d_11">
      <g>
       <use style="stroke:#000000;stroke-width:0.5;" x="394.248863636" xlink:href="#me5e685bc0f" y="368.74175"/>
      </g>
     </g>
     <g id="line2d_12">
      <g>
       <use style="stroke:#000000;stroke-width:0.5;" x="394.248863636" xlink:href="#mf9f22e644f" y="23.14175"/>
      </g>
     </g>
     <g id="text_6">
      <!-- Geller Cooperator -->
      <defs>
       <path d="M 18.109375 8.203125 
L 18.109375 -20.796875 
L 9.078125 -20.796875 
L 9.078125 54.6875 
L 18.109375 54.6875 
L 18.109375 46.390625 
Q 20.953125 51.265625 25.265625 53.625 
Q 29.59375 56 35.59375 56 
Q 45.5625 56 51.78125 48.09375 
Q 58.015625 40.1875 58.015625 27.296875 
Q 58.015625 14.40625 51.78125 6.484375 
Q 45.5625 -1.421875 35.59375 -1.421875 
Q 29.59375 -1.421875 25.265625 0.953125 
Q 20.953125 3.328125 18.109375 8.203125 
M 48.6875 27.296875 
Q 48.6875 37.203125 44.609375 42.84375 
Q 40.53125 48.484375 33.40625 48.484375 
Q 26.265625 48.484375 22.1875 42.84375 
Q 18.109375 37.203125 18.109375 27.296875 
Q 18.109375 17.390625 22.1875 11.75 
Q 26.265625 6.109375 33.40625 6.109375 
Q 40.53125 6.109375 44.609375 11.75 
Q 48.6875 17.390625 48.6875 27.296875 
" id="BitstreamVeraSans-Roman-70"/>
      </defs>
      <g transform="translate(396.456363636 443.9505)rotate(-90.0)scale(0.08 -0.08)">
       <use xlink:href="#BitstreamVeraSans-Roman-47"/>
       <use x="77.490234375" xlink:href="#BitstreamVeraSans-Roman-65"/>
       <use x="139.013671875" xlink:href="#BitstreamVeraSans-Roman-6c"/>
       <use x="166.796875" xlink:href="#BitstreamVeraSans-Roman-6c"/>
       <use x="194.580078125" xlink:href="#BitstreamVeraSans-Roman-65"/>
       <use x="256.103515625" xlink:href="#BitstreamVeraSans-Roman-72"/>
       <use x="297.216796875" xlink:href="#BitstreamVeraSans-Roman-20"/>
       <use x="329.00390625" xlink:href="#BitstreamVeraSans-Roman-43"/>
       <use x="398.828125" xlink:href="#BitstreamVeraSans-Roman-6f"/>
       <use x="460.009765625" xlink:href="#BitstreamVeraSans-Roman-6f"/>
       <use x="521.19140625" xlink:href="#BitstreamVeraSans-Roman-70"/>
       <use x="584.66796875" xlink:href="#BitstreamVeraSans-Roman-65"/>
       <use x="646.19140625" xlink:href="#BitstreamVeraSans-Roman-72"/>
       <use x="687.3046875" xlink:href="#BitstreamVeraSans-Roman-61"/>
       <use x="748.583984375" xlink:href="#BitstreamVeraSans-Roman-74"/>
       <use x="787.79296875" xlink:href="#BitstreamVeraSans-Roman-6f"/>
       <use x="848.974609375" xlink:href="#BitstreamVeraSans-Roman-72"/>
      </g>
     </g>
    </g>
    <g id="xtick_7">
     <g id="line2d_13">
      <g>
       <use style="stroke:#000000;stroke-width:0.5;" x="455.121590909" xlink:href="#me5e685bc0f" y="368.74175"/>
      </g>
     </g>
     <g id="line2d_14">
      <g>
       <use style="stroke:#000000;stroke-width:0.5;" x="455.121590909" xlink:href="#mf9f22e644f" y="23.14175"/>
      </g>
     </g>
     <g id="text_7">
      <!-- Mind Warper -->
      <defs>
       <path d="M 3.328125 72.90625 
L 13.28125 72.90625 
L 28.609375 11.28125 
L 43.890625 72.90625 
L 54.984375 72.90625 
L 70.3125 11.28125 
L 85.59375 72.90625 
L 95.609375 72.90625 
L 77.296875 0 
L 64.890625 0 
L 49.515625 63.28125 
L 33.984375 0 
L 21.578125 0 
z
" id="BitstreamVeraSans-Roman-57"/>
      </defs>
      <g transform="translate(457.329090909 423.94175)rotate(-90.0)scale(0.08 -0.08)">
       <use xlink:href="#BitstreamVeraSans-Roman-4d"/>
       <use x="86.279296875" xlink:href="#BitstreamVeraSans-Roman-69"/>
       <use x="114.0625" xlink:href="#BitstreamVeraSans-Roman-6e"/>
       <use x="177.44140625" xlink:href="#BitstreamVeraSans-Roman-64"/>
       <use x="240.91796875" xlink:href="#BitstreamVeraSans-Roman-20"/>
       <use x="272.705078125" xlink:href="#BitstreamVeraSans-Roman-57"/>
       <use x="371.48828125" xlink:href="#BitstreamVeraSans-Roman-61"/>
       <use x="432.767578125" xlink:href="#BitstreamVeraSans-Roman-72"/>
       <use x="473.880859375" xlink:href="#BitstreamVeraSans-Roman-70"/>
       <use x="537.357421875" xlink:href="#BitstreamVeraSans-Roman-65"/>
       <use x="598.880859375" xlink:href="#BitstreamVeraSans-Roman-72"/>
      </g>
     </g>
    </g>
    <g id="xtick_8">
     <g id="line2d_15">
      <g>
       <use style="stroke:#000000;stroke-width:0.5;" x="515.994318182" xlink:href="#me5e685bc0f" y="368.74175"/>
      </g>
     </g>
     <g id="line2d_16">
      <g>
       <use style="stroke:#000000;stroke-width:0.5;" x="515.994318182" xlink:href="#mf9f22e644f" y="23.14175"/>
      </g>
     </g>
     <g id="text_8">
      <!-- Mind Reader -->
      <defs>
       <path d="M 44.390625 34.1875 
Q 47.5625 33.109375 50.5625 29.59375 
Q 53.5625 26.078125 56.59375 19.921875 
L 66.609375 0 
L 56 0 
L 46.6875 18.703125 
Q 43.0625 26.03125 39.671875 28.421875 
Q 36.28125 30.8125 30.421875 30.8125 
L 19.671875 30.8125 
L 19.671875 0 
L 9.8125 0 
L 9.8125 72.90625 
L 32.078125 72.90625 
Q 44.578125 72.90625 50.734375 67.671875 
Q 56.890625 62.453125 56.890625 51.90625 
Q 56.890625 45.015625 53.6875 40.46875 
Q 50.484375 35.9375 44.390625 34.1875 
M 19.671875 64.796875 
L 19.671875 38.921875 
L 32.078125 38.921875 
Q 39.203125 38.921875 42.84375 42.21875 
Q 46.484375 45.515625 46.484375 51.90625 
Q 46.484375 58.296875 42.84375 61.546875 
Q 39.203125 64.796875 32.078125 64.796875 
z
" id="BitstreamVeraSans-Roman-52"/>
      </defs>
      <g transform="translate(518.201818182 423.22675)rotate(-90.0)scale(0.08 -0.08)">
       <use xlink:href="#BitstreamVeraSans-Roman-4d"/>
       <use x="86.279296875" xlink:href="#BitstreamVeraSans-Roman-69"/>
       <use x="114.0625" xlink:href="#BitstreamVeraSans-Roman-6e"/>
       <use x="177.44140625" xlink:href="#BitstreamVeraSans-Roman-64"/>
       <use x="240.91796875" xlink:href="#BitstreamVeraSans-Roman-20"/>
       <use x="272.705078125" xlink:href="#BitstreamVeraSans-Roman-52"/>
       <use x="342.125" xlink:href="#BitstreamVeraSans-Roman-65"/>
       <use x="403.6484375" xlink:href="#BitstreamVeraSans-Roman-61"/>
       <use x="464.927734375" xlink:href="#BitstreamVeraSans-Roman-64"/>
       <use x="528.404296875" xlink:href="#BitstreamVeraSans-Roman-65"/>
       <use x="589.927734375" xlink:href="#BitstreamVeraSans-Roman-72"/>
      </g>
     </g>
    </g>
    <g id="xtick_9">
     <g id="line2d_17">
      <g>
       <use style="stroke:#000000;stroke-width:0.5;" x="576.867045455" xlink:href="#me5e685bc0f" y="368.74175"/>
      </g>
     </g>
     <g id="line2d_18">
      <g>
       <use style="stroke:#000000;stroke-width:0.5;" x="576.867045455" xlink:href="#mf9f22e644f" y="23.14175"/>
      </g>
     </g>
     <g id="text_9">
      <!-- Mirror Mind Reader -->
      <g transform="translate(579.074545455 449.65175)rotate(-90.0)scale(0.08 -0.08)">
       <use xlink:href="#BitstreamVeraSans-Roman-4d"/>
       <use x="86.279296875" xlink:href="#BitstreamVeraSans-Roman-69"/>
       <use x="114.0625" xlink:href="#BitstreamVeraSans-Roman-72"/>
       <use x="155.16015625" xlink:href="#BitstreamVeraSans-Roman-72"/>
       <use x="196.2421875" xlink:href="#BitstreamVeraSans-Roman-6f"/>
       <use x="257.423828125" xlink:href="#BitstreamVeraSans-Roman-72"/>
       <use x="298.537109375" xlink:href="#BitstreamVeraSans-Roman-20"/>
       <use x="330.32421875" xlink:href="#BitstreamVeraSans-Roman-4d"/>
       <use x="416.603515625" xlink:href="#BitstreamVeraSans-Roman-69"/>
       <use x="444.38671875" xlink:href="#BitstreamVeraSans-Roman-6e"/>
       <use x="507.765625" xlink:href="#BitstreamVeraSans-Roman-64"/>
       <use x="571.2421875" xlink:href="#BitstreamVeraSans-Roman-20"/>
       <use x="603.029296875" xlink:href="#BitstreamVeraSans-Roman-52"/>
       <use x="672.44921875" xlink:href="#BitstreamVeraSans-Roman-65"/>
       <use x="733.97265625" xlink:href="#BitstreamVeraSans-Roman-61"/>
       <use x="795.251953125" xlink:href="#BitstreamVeraSans-Roman-64"/>
       <use x="858.728515625" xlink:href="#BitstreamVeraSans-Roman-65"/>
       <use x="920.251953125" xlink:href="#BitstreamVeraSans-Roman-72"/>
      </g>
     </g>
    </g>
    <g id="xtick_10">
     <g id="line2d_19">
      <g>
       <use style="stroke:#000000;stroke-width:0.5;" x="637.739772727" xlink:href="#me5e685bc0f" y="368.74175"/>
      </g>
     </g>
     <g id="line2d_20">
      <g>
       <use style="stroke:#000000;stroke-width:0.5;" x="637.739772727" xlink:href="#mf9f22e644f" y="23.14175"/>
      </g>
     </g>
     <g id="text_10">
      <!-- Protected Mind Reader -->
      <defs>
       <path d="M 19.671875 64.796875 
L 19.671875 37.40625 
L 32.078125 37.40625 
Q 38.96875 37.40625 42.71875 40.96875 
Q 46.484375 44.53125 46.484375 51.125 
Q 46.484375 57.671875 42.71875 61.234375 
Q 38.96875 64.796875 32.078125 64.796875 
z
M 9.8125 72.90625 
L 32.078125 72.90625 
Q 44.34375 72.90625 50.609375 67.359375 
Q 56.890625 61.8125 56.890625 51.125 
Q 56.890625 40.328125 50.609375 34.8125 
Q 44.34375 29.296875 32.078125 29.296875 
L 19.671875 29.296875 
L 19.671875 0 
L 9.8125 0 
z
" id="BitstreamVeraSans-Roman-50"/>
      </defs>
      <g transform="translate(639.947272727 464.368)rotate(-90.0)scale(0.08 -0.08)">
       <use xlink:href="#BitstreamVeraSans-Roman-50"/>
       <use x="60.287109375" xlink:href="#BitstreamVeraSans-Roman-72"/>
       <use x="101.369140625" xlink:href="#BitstreamVeraSans-Roman-6f"/>
       <use x="162.55078125" xlink:href="#BitstreamVeraSans-Roman-74"/>
       <use x="201.759765625" xlink:href="#BitstreamVeraSans-Roman-65"/>
       <use x="263.283203125" xlink:href="#BitstreamVeraSans-Roman-63"/>
       <use x="318.263671875" xlink:href="#BitstreamVeraSans-Roman-74"/>
       <use x="357.47265625" xlink:href="#BitstreamVeraSans-Roman-65"/>
       <use x="418.99609375" xlink:href="#BitstreamVeraSans-Roman-64"/>
       <use x="482.47265625" xlink:href="#BitstreamVeraSans-Roman-20"/>
       <use x="514.259765625" xlink:href="#BitstreamVeraSans-Roman-4d"/>
       <use x="600.5390625" xlink:href="#BitstreamVeraSans-Roman-69"/>
       <use x="628.322265625" xlink:href="#BitstreamVeraSans-Roman-6e"/>
       <use x="691.701171875" xlink:href="#BitstreamVeraSans-Roman-64"/>
       <use x="755.177734375" xlink:href="#BitstreamVeraSans-Roman-20"/>
       <use x="786.96484375" xlink:href="#BitstreamVeraSans-Roman-52"/>
       <use x="856.384765625" xlink:href="#BitstreamVeraSans-Roman-65"/>
       <use x="917.908203125" xlink:href="#BitstreamVeraSans-Roman-61"/>
       <use x="979.1875" xlink:href="#BitstreamVeraSans-Roman-64"/>
       <use x="1042.6640625" xlink:href="#BitstreamVeraSans-Roman-65"/>
       <use x="1104.1875" xlink:href="#BitstreamVeraSans-Roman-72"/>
      </g>
     </g>
    </g>
   </g>
   <g id="matplotlib.axis_2">
    <g id="ytick_1">
     <g id="line2d_21">
      <defs>
       <path d="M 0 0 
L 4 0 
" id="m3f5a57ba59" style="stroke:#000000;stroke-width:0.5;"/>
      </defs>
      <g>
       <use style="stroke:#000000;stroke-width:0.5;" x="29.0125" xlink:href="#m3f5a57ba59" y="368.74175"/>
      </g>
     </g>
     <g id="line2d_22">
      <defs>
       <path d="M 0 0 
L -4 0 
" id="m80f75f4266" style="stroke:#000000;stroke-width:0.5;"/>
      </defs>
      <g>
       <use style="stroke:#000000;stroke-width:0.5;" x="698.6125" xlink:href="#m80f75f4266" y="368.74175"/>
      </g>
     </g>
     <g id="text_11">
      <!-- 19.0 -->
      <defs>
       <path d="M 10.984375 1.515625 
L 10.984375 10.5 
Q 14.703125 8.734375 18.5 7.8125 
Q 22.3125 6.890625 25.984375 6.890625 
Q 35.75 6.890625 40.890625 13.453125 
Q 46.046875 20.015625 46.78125 33.40625 
Q 43.953125 29.203125 39.59375 26.953125 
Q 35.25 24.703125 29.984375 24.703125 
Q 19.046875 24.703125 12.671875 31.3125 
Q 6.296875 37.9375 6.296875 49.421875 
Q 6.296875 60.640625 12.9375 67.421875 
Q 19.578125 74.21875 30.609375 74.21875 
Q 43.265625 74.21875 49.921875 64.515625 
Q 56.59375 54.828125 56.59375 36.375 
Q 56.59375 19.140625 48.40625 8.859375 
Q 40.234375 -1.421875 26.421875 -1.421875 
Q 22.703125 -1.421875 18.890625 -0.6875 
Q 15.09375 0.046875 10.984375 1.515625 
M 30.609375 32.421875 
Q 37.25 32.421875 41.125 36.953125 
Q 45.015625 41.5 45.015625 49.421875 
Q 45.015625 57.28125 41.125 61.84375 
Q 37.25 66.40625 30.609375 66.40625 
Q 23.96875 66.40625 20.09375 61.84375 
Q 16.21875 57.28125 16.21875 49.421875 
Q 16.21875 41.5 20.09375 36.953125 
Q 23.96875 32.421875 30.609375 32.421875 
" id="BitstreamVeraSans-Roman-39"/>
       <path d="M 31.78125 66.40625 
Q 24.171875 66.40625 20.328125 58.90625 
Q 16.5 51.421875 16.5 36.375 
Q 16.5 21.390625 20.328125 13.890625 
Q 24.171875 6.390625 31.78125 6.390625 
Q 39.453125 6.390625 43.28125 13.890625 
Q 47.125 21.390625 47.125 36.375 
Q 47.125 51.421875 43.28125 58.90625 
Q 39.453125 66.40625 31.78125 66.40625 
M 31.78125 74.21875 
Q 44.046875 74.21875 50.515625 64.515625 
Q 56.984375 54.828125 56.984375 36.375 
Q 56.984375 17.96875 50.515625 8.265625 
Q 44.046875 -1.421875 31.78125 -1.421875 
Q 19.53125 -1.421875 13.0625 8.265625 
Q 6.59375 17.96875 6.59375 36.375 
Q 6.59375 54.828125 13.0625 64.515625 
Q 19.53125 74.21875 31.78125 74.21875 
" id="BitstreamVeraSans-Roman-30"/>
       <path d="M 10.6875 12.40625 
L 21 12.40625 
L 21 0 
L 10.6875 0 
z
" id="BitstreamVeraSans-Roman-2e"/>
       <path d="M 12.40625 8.296875 
L 28.515625 8.296875 
L 28.515625 63.921875 
L 10.984375 60.40625 
L 10.984375 69.390625 
L 28.421875 72.90625 
L 38.28125 72.90625 
L 38.28125 8.296875 
L 54.390625 8.296875 
L 54.390625 0 
L 12.40625 0 
z
" id="BitstreamVeraSans-Roman-31"/>
      </defs>
      <g transform="translate(7.2 370.94925)scale(0.08 -0.08)">
       <use xlink:href="#BitstreamVeraSans-Roman-31"/>
       <use x="63.623046875" xlink:href="#BitstreamVeraSans-Roman-39"/>
       <use x="127.24609375" xlink:href="#BitstreamVeraSans-Roman-2e"/>
       <use x="159.033203125" xlink:href="#BitstreamVeraSans-Roman-30"/>
      </g>
     </g>
    </g>
    <g id="ytick_2">
     <g id="line2d_23">
      <g>
       <use style="stroke:#000000;stroke-width:0.5;" x="29.0125" xlink:href="#m3f5a57ba59" y="282.34175"/>
      </g>
     </g>
     <g id="line2d_24">
      <g>
       <use style="stroke:#000000;stroke-width:0.5;" x="698.6125" xlink:href="#m80f75f4266" y="282.34175"/>
      </g>
     </g>
     <g id="text_12">
      <!-- 19.5 -->
      <defs>
       <path d="M 10.796875 72.90625 
L 49.515625 72.90625 
L 49.515625 64.59375 
L 19.828125 64.59375 
L 19.828125 46.734375 
Q 21.96875 47.46875 24.109375 47.828125 
Q 26.265625 48.1875 28.421875 48.1875 
Q 40.625 48.1875 47.75 41.5 
Q 54.890625 34.8125 54.890625 23.390625 
Q 54.890625 11.625 47.5625 5.09375 
Q 40.234375 -1.421875 26.90625 -1.421875 
Q 22.3125 -1.421875 17.546875 -0.640625 
Q 12.796875 0.140625 7.71875 1.703125 
L 7.71875 11.625 
Q 12.109375 9.234375 16.796875 8.0625 
Q 21.484375 6.890625 26.703125 6.890625 
Q 35.15625 6.890625 40.078125 11.328125 
Q 45.015625 15.765625 45.015625 23.390625 
Q 45.015625 31 40.078125 35.4375 
Q 35.15625 39.890625 26.703125 39.890625 
Q 22.75 39.890625 18.8125 39.015625 
Q 14.890625 38.140625 10.796875 36.28125 
z
" id="BitstreamVeraSans-Roman-35"/>
      </defs>
      <g transform="translate(7.2 284.54925)scale(0.08 -0.08)">
       <use xlink:href="#BitstreamVeraSans-Roman-31"/>
       <use x="63.623046875" xlink:href="#BitstreamVeraSans-Roman-39"/>
       <use x="127.24609375" xlink:href="#BitstreamVeraSans-Roman-2e"/>
       <use x="159.033203125" xlink:href="#BitstreamVeraSans-Roman-35"/>
      </g>
     </g>
    </g>
    <g id="ytick_3">
     <g id="line2d_25">
      <g>
       <use style="stroke:#000000;stroke-width:0.5;" x="29.0125" xlink:href="#m3f5a57ba59" y="195.94175"/>
      </g>
     </g>
     <g id="line2d_26">
      <g>
       <use style="stroke:#000000;stroke-width:0.5;" x="698.6125" xlink:href="#m80f75f4266" y="195.94175"/>
      </g>
     </g>
     <g id="text_13">
      <!-- 20.0 -->
      <defs>
       <path d="M 19.1875 8.296875 
L 53.609375 8.296875 
L 53.609375 0 
L 7.328125 0 
L 7.328125 8.296875 
Q 12.9375 14.109375 22.625 23.890625 
Q 32.328125 33.6875 34.8125 36.53125 
Q 39.546875 41.84375 41.421875 45.53125 
Q 43.3125 49.21875 43.3125 52.78125 
Q 43.3125 58.59375 39.234375 62.25 
Q 35.15625 65.921875 28.609375 65.921875 
Q 23.96875 65.921875 18.8125 64.3125 
Q 13.671875 62.703125 7.8125 59.421875 
L 7.8125 69.390625 
Q 13.765625 71.78125 18.9375 73 
Q 24.125 74.21875 28.421875 74.21875 
Q 39.75 74.21875 46.484375 68.546875 
Q 53.21875 62.890625 53.21875 53.421875 
Q 53.21875 48.921875 51.53125 44.890625 
Q 49.859375 40.875 45.40625 35.40625 
Q 44.1875 33.984375 37.640625 27.21875 
Q 31.109375 20.453125 19.1875 8.296875 
" id="BitstreamVeraSans-Roman-32"/>
      </defs>
      <g transform="translate(7.2 198.14925)scale(0.08 -0.08)">
       <use xlink:href="#BitstreamVeraSans-Roman-32"/>
       <use x="63.623046875" xlink:href="#BitstreamVeraSans-Roman-30"/>
       <use x="127.24609375" xlink:href="#BitstreamVeraSans-Roman-2e"/>
       <use x="159.033203125" xlink:href="#BitstreamVeraSans-Roman-30"/>
      </g>
     </g>
    </g>
    <g id="ytick_4">
     <g id="line2d_27">
      <g>
       <use style="stroke:#000000;stroke-width:0.5;" x="29.0125" xlink:href="#m3f5a57ba59" y="109.54175"/>
      </g>
     </g>
     <g id="line2d_28">
      <g>
       <use style="stroke:#000000;stroke-width:0.5;" x="698.6125" xlink:href="#m80f75f4266" y="109.54175"/>
      </g>
     </g>
     <g id="text_14">
      <!-- 20.5 -->
      <g transform="translate(7.2 111.74925)scale(0.08 -0.08)">
       <use xlink:href="#BitstreamVeraSans-Roman-32"/>
       <use x="63.623046875" xlink:href="#BitstreamVeraSans-Roman-30"/>
       <use x="127.24609375" xlink:href="#BitstreamVeraSans-Roman-2e"/>
       <use x="159.033203125" xlink:href="#BitstreamVeraSans-Roman-35"/>
      </g>
     </g>
    </g>
    <g id="ytick_5">
     <g id="line2d_29">
      <g>
       <use style="stroke:#000000;stroke-width:0.5;" x="29.0125" xlink:href="#m3f5a57ba59" y="23.14175"/>
      </g>
     </g>
     <g id="line2d_30">
      <g>
       <use style="stroke:#000000;stroke-width:0.5;" x="698.6125" xlink:href="#m80f75f4266" y="23.14175"/>
      </g>
     </g>
     <g id="text_15">
      <!-- 21.0 -->
      <g transform="translate(7.2 25.34925)scale(0.08 -0.08)">
       <use xlink:href="#BitstreamVeraSans-Roman-32"/>
       <use x="63.623046875" xlink:href="#BitstreamVeraSans-Roman-31"/>
       <use x="127.24609375" xlink:href="#BitstreamVeraSans-Roman-2e"/>
       <use x="159.033203125" xlink:href="#BitstreamVeraSans-Roman-30"/>
      </g>
     </g>
    </g>
   </g>
   <g id="text_16">
    <!-- Lengths. Turns: 20, Repetitions: 2, Strategies: 10. -->
    <defs>
     <path d="M 11.71875 12.40625 
L 22.015625 12.40625 
L 22.015625 0 
L 11.71875 0 
z
M 11.71875 51.703125 
L 22.015625 51.703125 
L 22.015625 39.3125 
L 11.71875 39.3125 
z
" id="BitstreamVeraSans-Roman-3a"/>
     <path d="M 44.28125 53.078125 
L 44.28125 44.578125 
Q 40.484375 46.53125 36.375 47.5 
Q 32.28125 48.484375 27.875 48.484375 
Q 21.1875 48.484375 17.84375 46.4375 
Q 14.5 44.390625 14.5 40.28125 
Q 14.5 37.15625 16.890625 35.375 
Q 19.28125 33.59375 26.515625 31.984375 
L 29.59375 31.296875 
Q 39.15625 29.25 43.1875 25.515625 
Q 47.21875 21.78125 47.21875 15.09375 
Q 47.21875 7.46875 41.1875 3.015625 
Q 35.15625 -1.421875 24.609375 -1.421875 
Q 20.21875 -1.421875 15.453125 -0.5625 
Q 10.6875 0.296875 5.421875 2 
L 5.421875 11.28125 
Q 10.40625 8.6875 15.234375 7.390625 
Q 20.0625 6.109375 24.8125 6.109375 
Q 31.15625 6.109375 34.5625 8.28125 
Q 37.984375 10.453125 37.984375 14.40625 
Q 37.984375 18.0625 35.515625 20.015625 
Q 33.0625 21.96875 24.703125 23.78125 
L 21.578125 24.515625 
Q 13.234375 26.265625 9.515625 29.90625 
Q 5.8125 33.546875 5.8125 39.890625 
Q 5.8125 47.609375 11.28125 51.796875 
Q 16.75 56 26.8125 56 
Q 31.78125 56 36.171875 55.265625 
Q 40.578125 54.546875 44.28125 53.078125 
" id="BitstreamVeraSans-Roman-73"/>
     <path d="M 53.515625 70.515625 
L 53.515625 60.890625 
Q 47.90625 63.578125 42.921875 64.890625 
Q 37.9375 66.21875 33.296875 66.21875 
Q 25.25 66.21875 20.875 63.09375 
Q 16.5 59.96875 16.5 54.203125 
Q 16.5 49.359375 19.40625 46.890625 
Q 22.3125 44.4375 30.421875 42.921875 
L 36.375 41.703125 
Q 47.40625 39.59375 52.65625 34.296875 
Q 57.90625 29 57.90625 20.125 
Q 57.90625 9.515625 50.796875 4.046875 
Q 43.703125 -1.421875 29.984375 -1.421875 
Q 24.8125 -1.421875 18.96875 -0.25 
Q 13.140625 0.921875 6.890625 3.21875 
L 6.890625 13.375 
Q 12.890625 10.015625 18.65625 8.296875 
Q 24.421875 6.59375 29.984375 6.59375 
Q 38.421875 6.59375 43.015625 9.90625 
Q 47.609375 13.234375 47.609375 19.390625 
Q 47.609375 24.75 44.3125 27.78125 
Q 41.015625 30.8125 33.5 32.328125 
L 27.484375 33.5 
Q 16.453125 35.6875 11.515625 40.375 
Q 6.59375 45.0625 6.59375 53.421875 
Q 6.59375 63.09375 13.40625 68.65625 
Q 20.21875 74.21875 32.171875 74.21875 
Q 37.3125 74.21875 42.625 73.28125 
Q 47.953125 72.359375 53.515625 70.515625 
" id="BitstreamVeraSans-Roman-53"/>
     <path d="M 9.8125 72.90625 
L 19.671875 72.90625 
L 19.671875 8.296875 
L 55.171875 8.296875 
L 55.171875 0 
L 9.8125 0 
z
" id="BitstreamVeraSans-Roman-4c"/>
     <path d="M 45.40625 27.984375 
Q 45.40625 37.75 41.375 43.109375 
Q 37.359375 48.484375 30.078125 48.484375 
Q 22.859375 48.484375 18.828125 43.109375 
Q 14.796875 37.75 14.796875 27.984375 
Q 14.796875 18.265625 18.828125 12.890625 
Q 22.859375 7.515625 30.078125 7.515625 
Q 37.359375 7.515625 41.375 12.890625 
Q 45.40625 18.265625 45.40625 27.984375 
M 54.390625 6.78125 
Q 54.390625 -7.171875 48.1875 -13.984375 
Q 42 -20.796875 29.203125 -20.796875 
Q 24.46875 -20.796875 20.265625 -20.09375 
Q 16.0625 -19.390625 12.109375 -17.921875 
L 12.109375 -9.1875 
Q 16.0625 -11.328125 19.921875 -12.34375 
Q 23.78125 -13.375 27.78125 -13.375 
Q 36.625 -13.375 41.015625 -8.765625 
Q 45.40625 -4.15625 45.40625 5.171875 
L 45.40625 9.625 
Q 42.625 4.78125 38.28125 2.390625 
Q 33.9375 0 27.875 0 
Q 17.828125 0 11.671875 7.65625 
Q 5.515625 15.328125 5.515625 27.984375 
Q 5.515625 40.671875 11.671875 48.328125 
Q 17.828125 56 27.875 56 
Q 33.9375 56 38.28125 53.609375 
Q 42.625 51.21875 45.40625 46.390625 
L 45.40625 54.6875 
L 54.390625 54.6875 
z
" id="BitstreamVeraSans-Roman-67"/>
     <path d="M 54.890625 33.015625 
L 54.890625 0 
L 45.90625 0 
L 45.90625 32.71875 
Q 45.90625 40.484375 42.875 44.328125 
Q 39.84375 48.1875 33.796875 48.1875 
Q 26.515625 48.1875 22.3125 43.546875 
Q 18.109375 38.921875 18.109375 30.90625 
L 18.109375 0 
L 9.078125 0 
L 9.078125 75.984375 
L 18.109375 75.984375 
L 18.109375 46.1875 
Q 21.34375 51.125 25.703125 53.5625 
Q 30.078125 56 35.796875 56 
Q 45.21875 56 50.046875 50.171875 
Q 54.890625 44.34375 54.890625 33.015625 
" id="BitstreamVeraSans-Roman-68"/>
     <path d="M 11.71875 12.40625 
L 22.015625 12.40625 
L 22.015625 4 
L 14.015625 -11.625 
L 7.71875 -11.625 
L 11.71875 4 
z
" id="BitstreamVeraSans-Roman-2c"/>
     <path d="M 8.5 21.578125 
L 8.5 54.6875 
L 17.484375 54.6875 
L 17.484375 21.921875 
Q 17.484375 14.15625 20.5 10.265625 
Q 23.53125 6.390625 29.59375 6.390625 
Q 36.859375 6.390625 41.078125 11.03125 
Q 45.3125 15.671875 45.3125 23.6875 
L 45.3125 54.6875 
L 54.296875 54.6875 
L 54.296875 0 
L 45.3125 0 
L 45.3125 8.40625 
Q 42.046875 3.421875 37.71875 1 
Q 33.40625 -1.421875 27.6875 -1.421875 
Q 18.265625 -1.421875 13.375 4.4375 
Q 8.5 10.296875 8.5 21.578125 
" id="BitstreamVeraSans-Roman-75"/>
     <path d="M -0.296875 72.90625 
L 61.375 72.90625 
L 61.375 64.59375 
L 35.5 64.59375 
L 35.5 0 
L 25.59375 0 
L 25.59375 64.59375 
L -0.296875 64.59375 
z
" id="BitstreamVeraSans-Roman-54"/>
    </defs>
    <g transform="translate(184.25575 18.14175)scale(0.144 -0.144)">
     <use xlink:href="#BitstreamVeraSans-Roman-4c"/>
     <use x="55.697265625" xlink:href="#BitstreamVeraSans-Roman-65"/>
     <use x="117.220703125" xlink:href="#BitstreamVeraSans-Roman-6e"/>
     <use x="180.599609375" xlink:href="#BitstreamVeraSans-Roman-67"/>
     <use x="244.076171875" xlink:href="#BitstreamVeraSans-Roman-74"/>
     <use x="283.28515625" xlink:href="#BitstreamVeraSans-Roman-68"/>
     <use x="346.6640625" xlink:href="#BitstreamVeraSans-Roman-73"/>
     <use x="398.763671875" xlink:href="#BitstreamVeraSans-Roman-2e"/>
     <use x="430.55078125" xlink:href="#BitstreamVeraSans-Roman-20"/>
     <use x="462.337890625" xlink:href="#BitstreamVeraSans-Roman-54"/>
     <use x="523.1875" xlink:href="#BitstreamVeraSans-Roman-75"/>
     <use x="586.56640625" xlink:href="#BitstreamVeraSans-Roman-72"/>
     <use x="627.6640625" xlink:href="#BitstreamVeraSans-Roman-6e"/>
     <use x="691.04296875" xlink:href="#BitstreamVeraSans-Roman-73"/>
     <use x="743.142578125" xlink:href="#BitstreamVeraSans-Roman-3a"/>
     <use x="776.833984375" xlink:href="#BitstreamVeraSans-Roman-20"/>
     <use x="808.62109375" xlink:href="#BitstreamVeraSans-Roman-32"/>
     <use x="872.244140625" xlink:href="#BitstreamVeraSans-Roman-30"/>
     <use x="935.8671875" xlink:href="#BitstreamVeraSans-Roman-2c"/>
     <use x="967.654296875" xlink:href="#BitstreamVeraSans-Roman-20"/>
     <use x="999.44140625" xlink:href="#BitstreamVeraSans-Roman-52"/>
     <use x="1068.861328125" xlink:href="#BitstreamVeraSans-Roman-65"/>
     <use x="1130.384765625" xlink:href="#BitstreamVeraSans-Roman-70"/>
     <use x="1193.861328125" xlink:href="#BitstreamVeraSans-Roman-65"/>
     <use x="1255.384765625" xlink:href="#BitstreamVeraSans-Roman-74"/>
     <use x="1294.59375" xlink:href="#BitstreamVeraSans-Roman-69"/>
     <use x="1322.376953125" xlink:href="#BitstreamVeraSans-Roman-74"/>
     <use x="1361.5859375" xlink:href="#BitstreamVeraSans-Roman-69"/>
     <use x="1389.369140625" xlink:href="#BitstreamVeraSans-Roman-6f"/>
     <use x="1450.55078125" xlink:href="#BitstreamVeraSans-Roman-6e"/>
     <use x="1513.9296875" xlink:href="#BitstreamVeraSans-Roman-73"/>
     <use x="1566.029296875" xlink:href="#BitstreamVeraSans-Roman-3a"/>
     <use x="1599.720703125" xlink:href="#BitstreamVeraSans-Roman-20"/>
     <use x="1631.5078125" xlink:href="#BitstreamVeraSans-Roman-32"/>
     <use x="1695.130859375" xlink:href="#BitstreamVeraSans-Roman-2c"/>
     <use x="1726.91796875" xlink:href="#BitstreamVeraSans-Roman-20"/>
     <use x="1758.705078125" xlink:href="#BitstreamVeraSans-Roman-53"/>
     <use x="1822.181640625" xlink:href="#BitstreamVeraSans-Roman-74"/>
     <use x="1861.390625" xlink:href="#BitstreamVeraSans-Roman-72"/>
     <use x="1902.50390625" xlink:href="#BitstreamVeraSans-Roman-61"/>
     <use x="1963.783203125" xlink:href="#BitstreamVeraSans-Roman-74"/>
     <use x="2002.9921875" xlink:href="#BitstreamVeraSans-Roman-65"/>
     <use x="2064.515625" xlink:href="#BitstreamVeraSans-Roman-67"/>
     <use x="2127.9921875" xlink:href="#BitstreamVeraSans-Roman-69"/>
     <use x="2155.775390625" xlink:href="#BitstreamVeraSans-Roman-65"/>
     <use x="2217.298828125" xlink:href="#BitstreamVeraSans-Roman-73"/>
     <use x="2269.3984375" xlink:href="#BitstreamVeraSans-Roman-3a"/>
     <use x="2303.08984375" xlink:href="#BitstreamVeraSans-Roman-20"/>
     <use x="2334.876953125" xlink:href="#BitstreamVeraSans-Roman-31"/>
     <use x="2398.5" xlink:href="#BitstreamVeraSans-Roman-30"/>
     <use x="2462.123046875" xlink:href="#BitstreamVeraSans-Roman-2e"/>
    </g>
   </g>
  </g>
 </g>
 <defs>
  <clipPath id="p9323024d21">
   <rect height="345.6" width="669.6" x="29.0125" y="23.14175"/>
  </clipPath>
 </defs>
</svg>
